{
    "header": {
        "PPQ": 120,
        "bpm": 60,
        "timeSignature": [
            2,
            4
        ],
        "name": "."
    },
    "startTime": 0,
    "duration": 671.9916666666671,
    "tracks": [
        {
            "startTime": 0,
            "duration": 0,
            "length": 0,
            "notes": [],
            "controlChanges": {},
            "id": 0
        },
        {
            "startTime": 0,
            "duration": 671.9916666666671,
            "length": 2284,
            "notes": [
                {
                    "name": "A4",
                    "midi": 69,
                    "time": 0,
                    "velocity": 0.5039370078740157,
                    "duration": 0.075
                },
                {
                    "name": "G#4",
                    "midi": 68,
                    "time": 0.08333333333333333,
                    "velocity": 0.5039370078740157,
                    "duration": 0.075
                },
                {
                    "name": "A4",
                    "midi": 69,
                    "time": 0.16666666666666666,
                    "velocity": 0.5039370078740157,
                    "duration": 0.575
                },
                {
                    "name": "A4",
                    "midi": 69,
                    "time": 0.7499999999999999,
                    "velocity": 0.5039370078740157,
                    "duration": 0.1166666666666667
                },
                {
                    "name": "B4",
                    "midi": 71,
                    "time": 0.8749999999999999,
                    "velocity": 0.5039370078740157,
                    "duration": 0.1166666666666667
                },
                {
                    "name": "C5",
                    "midi": 72,
                    "time": 0.9999999999999999,
                    "velocity": 0.5039370078740157,
                    "duration": 0.9916666666666668
                },
                {
                    "name": "B4",
                    "midi": 71,
                    "time": 2,
                    "velocity": 0.5039370078740157,
                    "duration": 0.07500000000000018
                },
                {
                    "name": "C5",
                    "midi": 72,
                    "time": 2.0833333333333335,
                    "velocity": 0.5039370078740157,
                    "duration": 0.07500000000000018
                },
                {
                    "name": "B4",
                    "midi": 71,
                    "time": 2.166666666666667,
                    "velocity": 0.5039370078740157,
                    "duration": 0.8250000000000002
                },
                {
                    "name": "A4",
                    "midi": 69,
                    "time": 3.0000000000000004,
                    "velocity": 0.5039370078740157,
                    "duration": 0.9916666666666667
                },
                {
                    "name": "A4",
                    "midi": 69,
                    "time": 4.000000000000001,
                    "velocity": 0.5039370078740157,
                    "duration": 0.9916666666666663
                },
                {
                    "name": "G#4",
                    "midi": 68,
                    "time": 5.000000000000001,
                    "velocity": 0.5039370078740157,
                    "duration": 0.07500000000000018
                },
                {
                    "name": "F#4",
                    "midi": 66,
                    "time": 5.083333333333335,
                    "velocity": 0.5039370078740157,
                    "duration": 0.07500000000000018
                },
                {
                    "name": "G#4",
                    "midi": 68,
                    "time": 5.166666666666669,
                    "velocity": 0.5039370078740157,
                    "duration": 0.8249999999999993
                },
                {
                    "name": "G#4",
                    "midi": 68,
                    "time": 5.750000000000002,
                    "velocity": 0.5039370078740157,
                    "duration": 0.24166666666666625
                },
                {
                    "name": "A4",
                    "midi": 69,
                    "time": 6.000000000000002,
                    "velocity": 0.5039370078740157,
                    "duration": 0.07500000000000018
                },
                {
                    "name": "G#4",
                    "midi": 68,
                    "time": 6.083333333333336,
                    "velocity": 0.5039370078740157,
                    "duration": 0.07500000000000018
                },
                {
                    "name": "A4",
                    "midi": 69,
                    "time": 6.16666666666667,
                    "velocity": 0.5039370078740157,
                    "duration": 0.8250000000000002
                },
                {
                    "name": "E4",
                    "midi": 64,
                    "time": 7.0000000000000036,
                    "velocity": 0.5039370078740157,
                    "duration": 0.49166666666666625
                },
                {
                    "name": "A4",
                    "midi": 69,
                    "time": 8.000000000000004,
                    "velocity": 0.5039370078740157,
                    "duration": 0.9916666666666671
                },
                {
                    "name": "B4",
                    "midi": 71,
                    "time": 9.000000000000004,
                    "velocity": 0.5039370078740157,
                    "duration": 0.07499999999999929
                },
                {
                    "name": "A4",
                    "midi": 69,
                    "time": 9.083333333333336,
                    "velocity": 0.5039370078740157,
                    "duration": 0.07499999999999929
                },
                {
                    "name": "B4",
                    "midi": 71,
                    "time": 9.166666666666668,
                    "velocity": 0.5039370078740157,
                    "duration": 0.8250000000000011
                },
                {
                    "name": "C5",
                    "midi": 72,
                    "time": 9.750000000000002,
                    "velocity": 0.5039370078740157,
                    "duration": 0.24166666666666714
                },
                {
                    "name": "C5",
                    "midi": 72,
                    "time": 10.000000000000002,
                    "velocity": 0.5039370078740157,
                    "duration": 0.07499999999999929
                },
                {
                    "name": "B4",
                    "midi": 71,
                    "time": 10.083333333333334,
                    "velocity": 0.5039370078740157,
                    "duration": 0.07499999999999929
                },
                {
                    "name": "C5",
                    "midi": 72,
                    "time": 10.166666666666666,
                    "velocity": 0.5039370078740157,
                    "duration": 1.3249999999999993
                },
                {
                    "name": "C5",
                    "midi": 72,
                    "time": 11.499999999999998,
                    "velocity": 0.5039370078740157,
                    "duration": 0.49166666666666714
                },
                {
                    "name": "B4",
                    "midi": 71,
                    "time": 11.999999999999998,
                    "velocity": 0.5039370078740157,
                    "duration": 0.07499999999999929
                },
                {
                    "name": "A4",
                    "midi": 69,
                    "time": 12.08333333333333,
                    "velocity": 0.5039370078740157,
                    "duration": 0.07499999999999929
                },
                {
                    "name": "B4",
                    "midi": 71,
                    "time": 12.166666666666663,
                    "velocity": 0.5039370078740157,
                    "duration": 0.8249999999999993
                },
                {
                    "name": "A4",
                    "midi": 69,
                    "time": 12.999999999999995,
                    "velocity": 0.5039370078740157,
                    "duration": 0.9916666666666671
                },
                {
                    "name": "E5",
                    "midi": 76,
                    "time": 13.999999999999995,
                    "velocity": 0.5039370078740157,
                    "duration": 1.9916666666666671
                },
                {
                    "name": "B4",
                    "midi": 71,
                    "time": 14.124999999999995,
                    "velocity": 0.5039370078740157,
                    "duration": 1.8666666666666671
                },
                {
                    "name": "G#4",
                    "midi": 68,
                    "time": 14.249999999999995,
                    "velocity": 0.5039370078740157,
                    "duration": 1.7416666666666671
                },
                {
                    "name": "E4",
                    "midi": 64,
                    "time": 14.374999999999995,
                    "velocity": 0.5039370078740157,
                    "duration": 1.6166666666666671
                },
                {
                    "name": "A4",
                    "midi": 69,
                    "time": 15.999999999999995,
                    "velocity": 0.5039370078740157,
                    "duration": 0.07500000000000107
                },
                {
                    "name": "G#4",
                    "midi": 68,
                    "time": 16.08333333333333,
                    "velocity": 0.5039370078740157,
                    "duration": 0.07499999999999929
                },
                {
                    "name": "A4",
                    "midi": 69,
                    "time": 16.16666666666666,
                    "velocity": 0.5039370078740157,
                    "duration": 0.5749999999999993
                },
                {
                    "name": "A4",
                    "midi": 69,
                    "time": 16.749999999999993,
                    "velocity": 0.5039370078740157,
                    "duration": 0.11666666666666714
                },
                {
                    "name": "B4",
                    "midi": 71,
                    "time": 16.874999999999993,
                    "velocity": 0.5039370078740157,
                    "duration": 0.11666666666666714
                },
                {
                    "name": "C5",
                    "midi": 72,
                    "time": 16.999999999999993,
                    "velocity": 0.5039370078740157,
                    "duration": 0.9916666666666671
                },
                {
                    "name": "B4",
                    "midi": 71,
                    "time": 17.999999999999993,
                    "velocity": 0.5039370078740157,
                    "duration": 0.07499999999999929
                },
                {
                    "name": "C5",
                    "midi": 72,
                    "time": 18.083333333333325,
                    "velocity": 0.5039370078740157,
                    "duration": 0.07499999999999929
                },
                {
                    "name": "B4",
                    "midi": 71,
                    "time": 18.166666666666657,
                    "velocity": 0.5039370078740157,
                    "duration": 0.8249999999999993
                },
                {
                    "name": "A4",
                    "midi": 69,
                    "time": 18.99999999999999,
                    "velocity": 0.5039370078740157,
                    "duration": 0.9916666666666671
                },
                {
                    "name": "A4",
                    "midi": 69,
                    "time": 19.99999999999999,
                    "velocity": 0.5039370078740157,
                    "duration": 0.9916666666666671
                },
                {
                    "name": "G#4",
                    "midi": 68,
                    "time": 20.99999999999999,
                    "velocity": 0.5039370078740157,
                    "duration": 0.07499999999999929
                },
                {
                    "name": "F#4",
                    "midi": 66,
                    "time": 21.08333333333332,
                    "velocity": 0.5039370078740157,
                    "duration": 0.07499999999999929
                },
                {
                    "name": "G#4",
                    "midi": 68,
                    "time": 21.166666666666654,
                    "velocity": 0.5039370078740157,
                    "duration": 0.8249999999999993
                },
                {
                    "name": "G#4",
                    "midi": 68,
                    "time": 21.749999999999986,
                    "velocity": 0.5039370078740157,
                    "duration": 0.24166666666666714
                },
                {
                    "name": "A4",
                    "midi": 69,
                    "time": 21.999999999999986,
                    "velocity": 0.5039370078740157,
                    "duration": 0.07499999999999929
                },
                {
                    "name": "G#4",
                    "midi": 68,
                    "time": 22.083333333333318,
                    "velocity": 0.5039370078740157,
                    "duration": 0.07499999999999929
                },
                {
                    "name": "A4",
                    "midi": 69,
                    "time": 22.16666666666665,
                    "velocity": 0.5039370078740157,
                    "duration": 0.8249999999999993
                },
                {
                    "name": "E4",
                    "midi": 64,
                    "time": 22.999999999999982,
                    "velocity": 0.5039370078740157,
                    "duration": 0.49166666666666714
                },
                {
                    "name": "A4",
                    "midi": 69,
                    "time": 23.999999999999982,
                    "velocity": 0.5039370078740157,
                    "duration": 0.9916666666666671
                },
                {
                    "name": "B4",
                    "midi": 71,
                    "time": 24.999999999999982,
                    "velocity": 0.5039370078740157,
                    "duration": 0.07499999999999929
                },
                {
                    "name": "A4",
                    "midi": 69,
                    "time": 25.083333333333314,
                    "velocity": 0.5039370078740157,
                    "duration": 0.07499999999999929
                },
                {
                    "name": "B4",
                    "midi": 71,
                    "time": 25.166666666666647,
                    "velocity": 0.5039370078740157,
                    "duration": 0.8249999999999993
                },
                {
                    "name": "C5",
                    "midi": 72,
                    "time": 25.74999999999998,
                    "velocity": 0.5039370078740157,
                    "duration": 0.24166666666666714
                },
                {
                    "name": "C5",
                    "midi": 72,
                    "time": 25.99999999999998,
                    "velocity": 0.5039370078740157,
                    "duration": 0.07499999999999929
                },
                {
                    "name": "B4",
                    "midi": 71,
                    "time": 26.08333333333331,
                    "velocity": 0.5039370078740157,
                    "duration": 0.07499999999999929
                },
                {
                    "name": "C5",
                    "midi": 72,
                    "time": 26.166666666666643,
                    "velocity": 0.5039370078740157,
                    "duration": 1.3249999999999993
                },
                {
                    "name": "C5",
                    "midi": 72,
                    "time": 27.499999999999975,
                    "velocity": 0.5039370078740157,
                    "duration": 0.49166666666666714
                },
                {
                    "name": "B4",
                    "midi": 71,
                    "time": 27.999999999999975,
                    "velocity": 0.5039370078740157,
                    "duration": 0.07499999999999929
                },
                {
                    "name": "A4",
                    "midi": 69,
                    "time": 28.083333333333307,
                    "velocity": 0.5039370078740157,
                    "duration": 0.07499999999999929
                },
                {
                    "name": "B4",
                    "midi": 71,
                    "time": 28.16666666666664,
                    "velocity": 0.5039370078740157,
                    "duration": 0.8249999999999993
                },
                {
                    "name": "A4",
                    "midi": 69,
                    "time": 28.99999999999997,
                    "velocity": 0.5039370078740157,
                    "duration": 0.9916666666666671
                },
                {
                    "name": "E5",
                    "midi": 76,
                    "time": 29.99999999999997,
                    "velocity": 0.5039370078740157,
                    "duration": 1.9916666666666671
                },
                {
                    "name": "B4",
                    "midi": 71,
                    "time": 30.12499999999997,
                    "velocity": 0.5039370078740157,
                    "duration": 1.8666666666666671
                },
                {
                    "name": "G#4",
                    "midi": 68,
                    "time": 30.24999999999997,
                    "velocity": 0.5039370078740157,
                    "duration": 1.7416666666666671
                },
                {
                    "name": "E4",
                    "midi": 64,
                    "time": 30.37499999999997,
                    "velocity": 0.5039370078740157,
                    "duration": 1.6166666666666671
                },
                {
                    "name": "E5",
                    "midi": 76,
                    "time": 31.99999999999997,
                    "velocity": 0.5039370078740157,
                    "duration": 0.9916666666666671
                },
                {
                    "name": "D5",
                    "midi": 74,
                    "time": 32.99999999999997,
                    "velocity": 0.5039370078740157,
                    "duration": 0.15833333333333144
                },
                {
                    "name": "C5",
                    "midi": 72,
                    "time": 33.166666666666636,
                    "velocity": 0.5039370078740157,
                    "duration": 0.8250000000000028
                },
                {
                    "name": "A4",
                    "midi": 69,
                    "time": 33.99999999999997,
                    "velocity": 0.5039370078740157,
                    "duration": 0.07500000000000284
                },
                {
                    "name": "G4",
                    "midi": 67,
                    "time": 34.08333333333331,
                    "velocity": 0.5039370078740157,
                    "duration": 0.07500000000000284
                },
                {
                    "name": "A4",
                    "midi": 69,
                    "time": 34.16666666666664,
                    "velocity": 0.5039370078740157,
                    "duration": 0.8250000000000028
                },
                {
                    "name": "A4",
                    "midi": 69,
                    "time": 34.99999999999998,
                    "velocity": 0.5039370078740157,
                    "duration": 0.9916666666666671
                },
                {
                    "name": "F5",
                    "midi": 77,
                    "time": 35.99999999999998,
                    "velocity": 0.5039370078740157,
                    "duration": 0.07500000000000284
                },
                {
                    "name": "E5",
                    "midi": 76,
                    "time": 36.083333333333314,
                    "velocity": 0.5039370078740157,
                    "duration": 0.07500000000000284
                },
                {
                    "name": "F5",
                    "midi": 77,
                    "time": 36.16666666666665,
                    "velocity": 0.5039370078740157,
                    "duration": 0.8250000000000028
                },
                {
                    "name": "E5",
                    "midi": 76,
                    "time": 36.999999999999986,
                    "velocity": 0.5039370078740157,
                    "duration": 0.15833333333333144
                },
                {
                    "name": "D5",
                    "midi": 74,
                    "time": 37.16666666666665,
                    "velocity": 0.5039370078740157,
                    "duration": 0.8250000000000028
                },
                {
                    "name": "B4",
                    "midi": 71,
                    "time": 37.999999999999986,
                    "velocity": 0.5039370078740157,
                    "duration": 0.07500000000000284
                },
                {
                    "name": "A4",
                    "midi": 69,
                    "time": 38.08333333333332,
                    "velocity": 0.5039370078740157,
                    "duration": 0.07500000000000284
                },
                {
                    "name": "B4",
                    "midi": 71,
                    "time": 38.16666666666666,
                    "velocity": 0.5039370078740157,
                    "duration": 1.8250000000000028
                },
                {
                    "name": "G5",
                    "midi": 79,
                    "time": 39.99999999999999,
                    "velocity": 0.5039370078740157,
                    "duration": 0.9916666666666671
                },
                {
                    "name": "F5",
                    "midi": 77,
                    "time": 40.99999999999999,
                    "velocity": 0.5039370078740157,
                    "duration": 0.15833333333333144
                },
                {
                    "name": "E5",
                    "midi": 76,
                    "time": 41.16666666666666,
                    "velocity": 0.5039370078740157,
                    "duration": 0.8250000000000028
                },
                {
                    "name": "D5",
                    "midi": 74,
                    "time": 41.99999999999999,
                    "velocity": 0.5039370078740157,
                    "duration": 0.15833333333333144
                },
                {
                    "name": "C5",
                    "midi": 72,
                    "time": 42.16666666666666,
                    "velocity": 0.5039370078740157,
                    "duration": 0.8250000000000028
                },
                {
                    "name": "B4",
                    "midi": 71,
                    "time": 42.99999999999999,
                    "velocity": 0.5039370078740157,
                    "duration": 0.15833333333333144
                },
                {
                    "name": "A4",
                    "midi": 69,
                    "time": 43.16666666666666,
                    "velocity": 0.5039370078740157,
                    "duration": 0.5750000000000028
                },
                {
                    "name": "C5",
                    "midi": 72,
                    "time": 43.74999999999999,
                    "velocity": 0.5039370078740157,
                    "duration": 0.24166666666666714
                },
                {
                    "name": "C5",
                    "midi": 72,
                    "time": 43.99999999999999,
                    "velocity": 0.5039370078740157,
                    "duration": 0.15833333333333144
                },
                {
                    "name": "D5",
                    "midi": 74,
                    "time": 44.16666666666666,
                    "velocity": 0.5039370078740157,
                    "duration": 0.07500000000000284
                },
                {
                    "name": "C5",
                    "midi": 72,
                    "time": 44.24999999999999,
                    "velocity": 0.5039370078740157,
                    "duration": 0.07500000000000284
                },
                {
                    "name": "D5",
                    "midi": 74,
                    "time": 44.33333333333333,
                    "velocity": 0.5039370078740157,
                    "duration": 0.6583333333333314
                },
                {
                    "name": "B4",
                    "midi": 71,
                    "time": 44.99999999999999,
                    "velocity": 0.5039370078740157,
                    "duration": 0.07500000000000284
                },
                {
                    "name": "A4",
                    "midi": 69,
                    "time": 45.08333333333333,
                    "velocity": 0.5039370078740157,
                    "duration": 0.07500000000000284
                },
                {
                    "name": "B4",
                    "midi": 71,
                    "time": 45.166666666666664,
                    "velocity": 0.5039370078740157,
                    "duration": 0.8249999999999957
                },
                {
                    "name": "A4",
                    "midi": 69,
                    "time": 45.666666666666664,
                    "velocity": 0.5039370078740157,
                    "duration": 0.15833333333333144
                },
                {
                    "name": "B4",
                    "midi": 71,
                    "time": 45.83333333333333,
                    "velocity": 0.5039370078740157,
                    "duration": 0.15833333333333144
                },
                {
                    "name": "C5",
                    "midi": 72,
                    "time": 45.99999999999999,
                    "velocity": 0.5039370078740157,
                    "duration": 1.9916666666666671
                },
                {
                    "name": "G4",
                    "midi": 67,
                    "time": 46.49999999999999,
                    "velocity": 0.5039370078740157,
                    "duration": 0.49166666666666714
                },
                {
                    "name": "G4",
                    "midi": 67,
                    "time": 46.99999999999999,
                    "velocity": 0.5039370078740157,
                    "duration": 0.9916666666666671
                },
                {
                    "name": "E4",
                    "midi": 64,
                    "time": 46.99999999999999,
                    "velocity": 0.5039370078740157,
                    "duration": 0.9916666666666671
                },
                {
                    "name": "C6",
                    "midi": 84,
                    "time": 47.99999999999999,
                    "velocity": 0.5039370078740157,
                    "duration": 0.9916666666666671
                },
                {
                    "name": "G5",
                    "midi": 79,
                    "time": 47.99999999999999,
                    "velocity": 0.5039370078740157,
                    "duration": 0.9916666666666671
                },
                {
                    "name": "E5",
                    "midi": 76,
                    "time": 47.99999999999999,
                    "velocity": 0.5039370078740157,
                    "duration": 0.9916666666666671
                },
                {
                    "name": "C6",
                    "midi": 84,
                    "time": 49.49999999999999,
                    "velocity": 0.5039370078740157,
                    "duration": 0.49166666666666714
                },
                {
                    "name": "E5",
                    "midi": 76,
                    "time": 49.49999999999999,
                    "velocity": 0.5039370078740157,
                    "duration": 0.49166666666666714
                },
                {
                    "name": "C5",
                    "midi": 72,
                    "time": 49.99999999999999,
                    "velocity": 0.5039370078740157,
                    "duration": 0.15833333333333144
                },
                {
                    "name": "C6",
                    "midi": 84,
                    "time": 50.16666666666666,
                    "velocity": 0.5039370078740157,
                    "duration": 0.8250000000000028
                },
                {
                    "name": "D5",
                    "midi": 74,
                    "time": 50.16666666666666,
                    "velocity": 0.5039370078740157,
                    "duration": 0.8250000000000028
                },
                {
                    "name": "B5",
                    "midi": 83,
                    "time": 50.99999999999999,
                    "velocity": 0.5039370078740157,
                    "duration": 0.9916666666666671
                },
                {
                    "name": "D5",
                    "midi": 74,
                    "time": 50.99999999999999,
                    "velocity": 0.5039370078740157,
                    "duration": 0.9916666666666671
                },
                {
                    "name": "B5",
                    "midi": 83,
                    "time": 51.99999999999999,
                    "velocity": 0.5039370078740157,
                    "duration": 0.15833333333333144
                },
                {
                    "name": "E5",
                    "midi": 76,
                    "time": 52.16666666666666,
                    "velocity": 0.5039370078740157,
                    "duration": 1.3250000000000028
                },
                {
                    "name": "D5",
                    "midi": 74,
                    "time": 52.16666666666666,
                    "velocity": 0.5039370078740157,
                    "duration": 0.8250000000000028
                },
                {
                    "name": "C5",
                    "midi": 72,
                    "time": 52.99999999999999,
                    "velocity": 0.5039370078740157,
                    "duration": 0.9916666666666671
                },
                {
                    "name": "A5",
                    "midi": 81,
                    "time": 53.49999999999999,
                    "velocity": 0.5039370078740157,
                    "duration": 0.49166666666666714
                },
                {
                    "name": "B4",
                    "midi": 71,
                    "time": 53.99999999999999,
                    "velocity": 0.5039370078740157,
                    "duration": 1.9916666666666742
                },
                {
                    "name": "G#5",
                    "midi": 80,
                    "time": 53.99999999999999,
                    "velocity": 0.5039370078740157,
                    "duration": 0.07500000000000284
                },
                {
                    "name": "F#5",
                    "midi": 78,
                    "time": 54.08333333333333,
                    "velocity": 0.5039370078740157,
                    "duration": 0.07500000000000284
                },
                {
                    "name": "G#5",
                    "midi": 80,
                    "time": 54.166666666666664,
                    "velocity": 0.5039370078740157,
                    "duration": 0.8250000000000028
                },
                {
                    "name": "G#5",
                    "midi": 80,
                    "time": 55,
                    "velocity": 0.5039370078740157,
                    "duration": 0.49166666666666714
                },
                {
                    "name": "E5",
                    "midi": 76,
                    "time": 56,
                    "velocity": 0.5039370078740157,
                    "duration": 1.4916666666666742
                },
                {
                    "name": "A5",
                    "midi": 81,
                    "time": 56,
                    "velocity": 0.5039370078740157,
                    "duration": 0.07500000000000284
                },
                {
                    "name": "G#5",
                    "midi": 80,
                    "time": 56.083333333333336,
                    "velocity": 0.5039370078740157,
                    "duration": 0.07500000000000284
                },
                {
                    "name": "A5",
                    "midi": 81,
                    "time": 56.16666666666667,
                    "velocity": 0.5039370078740157,
                    "duration": 1.3250000000000028
                },
                {
                    "name": "C6",
                    "midi": 84,
                    "time": 57.50000000000001,
                    "velocity": 0.5039370078740157,
                    "duration": 0.49166666666666714
                },
                {
                    "name": "E5",
                    "midi": 76,
                    "time": 57.50000000000001,
                    "velocity": 0.5039370078740157,
                    "duration": 0.49166666666666714
                },
                {
                    "name": "F#5",
                    "midi": 78,
                    "time": 58.00000000000001,
                    "velocity": 0.5039370078740157,
                    "duration": 0.9916666666666671
                },
                {
                    "name": "E5",
                    "midi": 76,
                    "time": 58.00000000000001,
                    "velocity": 0.5039370078740157,
                    "duration": 0.9916666666666671
                },
                {
                    "name": "G#5",
                    "midi": 80,
                    "time": 59.00000000000001,
                    "velocity": 0.5039370078740157,
                    "duration": 0.49166666666666714
                },
                {
                    "name": "D5",
                    "midi": 74,
                    "time": 59.00000000000001,
                    "velocity": 0.5039370078740157,
                    "duration": 0.49166666666666714
                },
                {
                    "name": "A5",
                    "midi": 81,
                    "time": 59.50000000000001,
                    "velocity": 0.5039370078740157,
                    "duration": 0.49166666666666714
                },
                {
                    "name": "C5",
                    "midi": 72,
                    "time": 59.50000000000001,
                    "velocity": 0.5039370078740157,
                    "duration": 0.49166666666666714
                },
                {
                    "name": "C5",
                    "midi": 72,
                    "time": 60.00000000000001,
                    "velocity": 0.5039370078740157,
                    "duration": 0.15833333333333144
                },
                {
                    "name": "B4",
                    "midi": 71,
                    "time": 60.16666666666667,
                    "velocity": 0.5039370078740157,
                    "duration": 0.8250000000000028
                },
                {
                    "name": "A5",
                    "midi": 81,
                    "time": 60.16666666666667,
                    "velocity": 0.5039370078740157,
                    "duration": 0.8250000000000028
                },
                {
                    "name": "D5",
                    "midi": 74,
                    "time": 61.00000000000001,
                    "velocity": 0.5039370078740157,
                    "duration": 0.9916666666666742
                },
                {
                    "name": "G#5",
                    "midi": 80,
                    "time": 61.00000000000001,
                    "velocity": 0.5039370078740157,
                    "duration": 0.07500000000000284
                },
                {
                    "name": "F#5",
                    "midi": 78,
                    "time": 61.08333333333334,
                    "velocity": 0.5039370078740157,
                    "duration": 0.07500000000000284
                },
                {
                    "name": "G#5",
                    "midi": 80,
                    "time": 61.16666666666668,
                    "velocity": 0.5039370078740157,
                    "duration": 0.8250000000000028
                },
                {
                    "name": "G#5",
                    "midi": 80,
                    "time": 62.000000000000014,
                    "velocity": 0.5039370078740157,
                    "duration": 0.15833333333333144
                },
                {
                    "name": "A5",
                    "midi": 81,
                    "time": 62.16666666666668,
                    "velocity": 0.5039370078740157,
                    "duration": 1.8250000000000028
                },
                {
                    "name": "E5",
                    "midi": 76,
                    "time": 62.29166666666668,
                    "velocity": 0.5039370078740157,
                    "duration": 1.7000000000000028
                },
                {
                    "name": "C5",
                    "midi": 72,
                    "time": 62.41666666666668,
                    "velocity": 0.5039370078740157,
                    "duration": 1.5750000000000028
                },
                {
                    "name": "A4",
                    "midi": 69,
                    "time": 62.54166666666668,
                    "velocity": 0.5039370078740157,
                    "duration": 1.4500000000000028
                },
                {
                    "name": "E5",
                    "midi": 76,
                    "time": 64.00000000000001,
                    "velocity": 0.5039370078740157,
                    "duration": 0.99166666666666
                },
                {
                    "name": "D5",
                    "midi": 74,
                    "time": 65.00000000000001,
                    "velocity": 0.5039370078740157,
                    "duration": 0.15833333333333144
                },
                {
                    "name": "C5",
                    "midi": 72,
                    "time": 65.16666666666669,
                    "velocity": 0.5039370078740157,
                    "duration": 0.8250000000000028
                },
                {
                    "name": "A4",
                    "midi": 69,
                    "time": 66.00000000000003,
                    "velocity": 0.5039370078740157,
                    "duration": 0.07500000000000284
                },
                {
                    "name": "G4",
                    "midi": 67,
                    "time": 66.08333333333337,
                    "velocity": 0.5039370078740157,
                    "duration": 0.07500000000000284
                },
                {
                    "name": "A4",
                    "midi": 69,
                    "time": 66.16666666666671,
                    "velocity": 0.5039370078740157,
                    "duration": 0.8250000000000028
                },
                {
                    "name": "A4",
                    "midi": 69,
                    "time": 67.00000000000006,
                    "velocity": 0.5039370078740157,
                    "duration": 0.99166666666666
                },
                {
                    "name": "F5",
                    "midi": 77,
                    "time": 68.00000000000006,
                    "velocity": 0.5039370078740157,
                    "duration": 0.07500000000000284
                },
                {
                    "name": "E5",
                    "midi": 76,
                    "time": 68.0833333333334,
                    "velocity": 0.5039370078740157,
                    "duration": 0.07500000000000284
                },
                {
                    "name": "F5",
                    "midi": 77,
                    "time": 68.16666666666674,
                    "velocity": 0.5039370078740157,
                    "duration": 0.8250000000000028
                },
                {
                    "name": "E5",
                    "midi": 76,
                    "time": 69.00000000000009,
                    "velocity": 0.5039370078740157,
                    "duration": 0.15833333333333144
                },
                {
                    "name": "D5",
                    "midi": 74,
                    "time": 69.16666666666676,
                    "velocity": 0.5039370078740157,
                    "duration": 0.8250000000000028
                },
                {
                    "name": "B4",
                    "midi": 71,
                    "time": 70.0000000000001,
                    "velocity": 0.5039370078740157,
                    "duration": 0.07500000000000284
                },
                {
                    "name": "A4",
                    "midi": 69,
                    "time": 70.08333333333344,
                    "velocity": 0.5039370078740157,
                    "duration": 0.07500000000000284
                },
                {
                    "name": "B4",
                    "midi": 71,
                    "time": 70.16666666666679,
                    "velocity": 0.5039370078740157,
                    "duration": 1.8250000000000028
                },
                {
                    "name": "G5",
                    "midi": 79,
                    "time": 72.00000000000013,
                    "velocity": 0.5039370078740157,
                    "duration": 0.99166666666666
                },
                {
                    "name": "F5",
                    "midi": 77,
                    "time": 73.00000000000013,
                    "velocity": 0.5039370078740157,
                    "duration": 0.15833333333333144
                },
                {
                    "name": "E5",
                    "midi": 76,
                    "time": 73.1666666666668,
                    "velocity": 0.5039370078740157,
                    "duration": 0.8250000000000028
                },
                {
                    "name": "D5",
                    "midi": 74,
                    "time": 74.00000000000014,
                    "velocity": 0.5039370078740157,
                    "duration": 0.15833333333333144
                },
                {
                    "name": "C5",
                    "midi": 72,
                    "time": 74.16666666666681,
                    "velocity": 0.5039370078740157,
                    "duration": 0.8250000000000028
                },
                {
                    "name": "B4",
                    "midi": 71,
                    "time": 75.00000000000016,
                    "velocity": 0.5039370078740157,
                    "duration": 0.15833333333333144
                },
                {
                    "name": "A4",
                    "midi": 69,
                    "time": 75.16666666666683,
                    "velocity": 0.5039370078740157,
                    "duration": 0.5750000000000028
                },
                {
                    "name": "C5",
                    "midi": 72,
                    "time": 75.75000000000017,
                    "velocity": 0.5039370078740157,
                    "duration": 0.24166666666666003
                },
                {
                    "name": "C5",
                    "midi": 72,
                    "time": 76.00000000000017,
                    "velocity": 0.5039370078740157,
                    "duration": 0.15833333333333144
                },
                {
                    "name": "D5",
                    "midi": 74,
                    "time": 76.16666666666684,
                    "velocity": 0.5039370078740157,
                    "duration": 0.07500000000000284
                },
                {
                    "name": "C5",
                    "midi": 72,
                    "time": 76.25000000000018,
                    "velocity": 0.5039370078740157,
                    "duration": 0.07500000000000284
                },
                {
                    "name": "D5",
                    "midi": 74,
                    "time": 76.33333333333353,
                    "velocity": 0.5039370078740157,
                    "duration": 0.6583333333333314
                },
                {
                    "name": "B4",
                    "midi": 71,
                    "time": 77.0000000000002,
                    "velocity": 0.5039370078740157,
                    "duration": 0.07500000000000284
                },
                {
                    "name": "A4",
                    "midi": 69,
                    "time": 77.08333333333354,
                    "velocity": 0.5039370078740157,
                    "duration": 0.07500000000000284
                },
                {
                    "name": "B4",
                    "midi": 71,
                    "time": 77.16666666666688,
                    "velocity": 0.5039370078740157,
                    "duration": 0.8250000000000028
                },
                {
                    "name": "A4",
                    "midi": 69,
                    "time": 77.66666666666688,
                    "velocity": 0.5039370078740157,
                    "duration": 0.15833333333333144
                },
                {
                    "name": "B4",
                    "midi": 71,
                    "time": 77.83333333333356,
                    "velocity": 0.5039370078740157,
                    "duration": 0.15833333333333144
                },
                {
                    "name": "C5",
                    "midi": 72,
                    "time": 78.00000000000023,
                    "velocity": 0.5039370078740157,
                    "duration": 1.99166666666666
                },
                {
                    "name": "G4",
                    "midi": 67,
                    "time": 78.50000000000023,
                    "velocity": 0.5039370078740157,
                    "duration": 0.49166666666666003
                },
                {
                    "name": "G4",
                    "midi": 67,
                    "time": 79.00000000000023,
                    "velocity": 0.5039370078740157,
                    "duration": 0.99166666666666
                },
                {
                    "name": "E4",
                    "midi": 64,
                    "time": 79.00000000000023,
                    "velocity": 0.5039370078740157,
                    "duration": 0.99166666666666
                },
                {
                    "name": "C6",
                    "midi": 84,
                    "time": 80.00000000000023,
                    "velocity": 0.5039370078740157,
                    "duration": 0.99166666666666
                },
                {
                    "name": "G5",
                    "midi": 79,
                    "time": 80.00000000000023,
                    "velocity": 0.5039370078740157,
                    "duration": 0.99166666666666
                },
                {
                    "name": "E5",
                    "midi": 76,
                    "time": 80.00000000000023,
                    "velocity": 0.5039370078740157,
                    "duration": 0.99166666666666
                },
                {
                    "name": "C6",
                    "midi": 84,
                    "time": 81.50000000000023,
                    "velocity": 0.5039370078740157,
                    "duration": 0.49166666666666003
                },
                {
                    "name": "E5",
                    "midi": 76,
                    "time": 81.50000000000023,
                    "velocity": 0.5039370078740157,
                    "duration": 0.49166666666666003
                },
                {
                    "name": "C5",
                    "midi": 72,
                    "time": 82.00000000000023,
                    "velocity": 0.5039370078740157,
                    "duration": 0.15833333333333144
                },
                {
                    "name": "C6",
                    "midi": 84,
                    "time": 82.1666666666669,
                    "velocity": 0.5039370078740157,
                    "duration": 0.8250000000000028
                },
                {
                    "name": "D5",
                    "midi": 74,
                    "time": 82.1666666666669,
                    "velocity": 0.5039370078740157,
                    "duration": 0.8250000000000028
                },
                {
                    "name": "B5",
                    "midi": 83,
                    "time": 83.00000000000024,
                    "velocity": 0.5039370078740157,
                    "duration": 0.99166666666666
                },
                {
                    "name": "D5",
                    "midi": 74,
                    "time": 83.00000000000024,
                    "velocity": 0.5039370078740157,
                    "duration": 0.99166666666666
                },
                {
                    "name": "B5",
                    "midi": 83,
                    "time": 84.00000000000024,
                    "velocity": 0.5039370078740157,
                    "duration": 0.15833333333333144
                },
                {
                    "name": "E5",
                    "midi": 76,
                    "time": 84.16666666666691,
                    "velocity": 0.5039370078740157,
                    "duration": 1.3250000000000028
                },
                {
                    "name": "D5",
                    "midi": 74,
                    "time": 84.16666666666691,
                    "velocity": 0.5039370078740157,
                    "duration": 0.8250000000000028
                },
                {
                    "name": "C5",
                    "midi": 72,
                    "time": 85.00000000000026,
                    "velocity": 0.5039370078740157,
                    "duration": 0.99166666666666
                },
                {
                    "name": "A5",
                    "midi": 81,
                    "time": 85.50000000000026,
                    "velocity": 0.5039370078740157,
                    "duration": 0.49166666666666003
                },
                {
                    "name": "B4",
                    "midi": 71,
                    "time": 86.00000000000026,
                    "velocity": 0.5039370078740157,
                    "duration": 1.9916666666666885
                },
                {
                    "name": "G#5",
                    "midi": 80,
                    "time": 86.00000000000026,
                    "velocity": 0.5039370078740157,
                    "duration": 0.07500000000000284
                },
                {
                    "name": "F#5",
                    "midi": 78,
                    "time": 86.0833333333336,
                    "velocity": 0.5039370078740157,
                    "duration": 0.07500000000000284
                },
                {
                    "name": "G#5",
                    "midi": 80,
                    "time": 86.16666666666694,
                    "velocity": 0.5039370078740157,
                    "duration": 0.8250000000000028
                },
                {
                    "name": "G#5",
                    "midi": 80,
                    "time": 87.00000000000028,
                    "velocity": 0.5039370078740157,
                    "duration": 0.49166666666666003
                },
                {
                    "name": "E5",
                    "midi": 76,
                    "time": 88.00000000000028,
                    "velocity": 0.5039370078740157,
                    "duration": 1.4916666666666885
                },
                {
                    "name": "A5",
                    "midi": 81,
                    "time": 88.00000000000028,
                    "velocity": 0.5039370078740157,
                    "duration": 0.07500000000000284
                },
                {
                    "name": "G#5",
                    "midi": 80,
                    "time": 88.08333333333363,
                    "velocity": 0.5039370078740157,
                    "duration": 0.07500000000000284
                },
                {
                    "name": "A5",
                    "midi": 81,
                    "time": 88.16666666666697,
                    "velocity": 0.5039370078740157,
                    "duration": 1.3250000000000028
                },
                {
                    "name": "C6",
                    "midi": 84,
                    "time": 89.50000000000031,
                    "velocity": 0.5039370078740157,
                    "duration": 0.49166666666666003
                },
                {
                    "name": "E5",
                    "midi": 76,
                    "time": 89.50000000000031,
                    "velocity": 0.5039370078740157,
                    "duration": 0.49166666666666003
                },
                {
                    "name": "F#5",
                    "midi": 78,
                    "time": 90.00000000000031,
                    "velocity": 0.5039370078740157,
                    "duration": 0.99166666666666
                },
                {
                    "name": "E5",
                    "midi": 76,
                    "time": 90.00000000000031,
                    "velocity": 0.5039370078740157,
                    "duration": 0.99166666666666
                },
                {
                    "name": "G#5",
                    "midi": 80,
                    "time": 91.00000000000031,
                    "velocity": 0.5039370078740157,
                    "duration": 0.49166666666666003
                },
                {
                    "name": "D5",
                    "midi": 74,
                    "time": 91.00000000000031,
                    "velocity": 0.5039370078740157,
                    "duration": 0.49166666666666003
                },
                {
                    "name": "A5",
                    "midi": 81,
                    "time": 91.50000000000031,
                    "velocity": 0.5039370078740157,
                    "duration": 0.49166666666666003
                },
                {
                    "name": "C5",
                    "midi": 72,
                    "time": 91.50000000000031,
                    "velocity": 0.5039370078740157,
                    "duration": 0.49166666666666003
                },
                {
                    "name": "C5",
                    "midi": 72,
                    "time": 92.00000000000031,
                    "velocity": 0.5039370078740157,
                    "duration": 0.15833333333333144
                },
                {
                    "name": "B4",
                    "midi": 71,
                    "time": 92.16666666666698,
                    "velocity": 0.5039370078740157,
                    "duration": 0.8250000000000028
                },
                {
                    "name": "A5",
                    "midi": 81,
                    "time": 92.16666666666698,
                    "velocity": 0.5039370078740157,
                    "duration": 0.8250000000000028
                },
                {
                    "name": "D5",
                    "midi": 74,
                    "time": 93.00000000000033,
                    "velocity": 0.5039370078740157,
                    "duration": 0.9916666666666885
                },
                {
                    "name": "G#5",
                    "midi": 80,
                    "time": 93.00000000000033,
                    "velocity": 0.5039370078740157,
                    "duration": 0.07500000000000284
                },
                {
                    "name": "F#5",
                    "midi": 78,
                    "time": 93.08333333333367,
                    "velocity": 0.5039370078740157,
                    "duration": 0.07500000000000284
                },
                {
                    "name": "G#5",
                    "midi": 80,
                    "time": 93.16666666666701,
                    "velocity": 0.5039370078740157,
                    "duration": 0.8250000000000028
                },
                {
                    "name": "G#5",
                    "midi": 80,
                    "time": 94.00000000000036,
                    "velocity": 0.5039370078740157,
                    "duration": 0.15833333333333144
                },
                {
                    "name": "A5",
                    "midi": 81,
                    "time": 94.16666666666703,
                    "velocity": 0.5039370078740157,
                    "duration": 1.8250000000000028
                },
                {
                    "name": "E5",
                    "midi": 76,
                    "time": 94.29166666666703,
                    "velocity": 0.5039370078740157,
                    "duration": 1.7000000000000028
                },
                {
                    "name": "C5",
                    "midi": 72,
                    "time": 94.41666666666703,
                    "velocity": 0.5039370078740157,
                    "duration": 1.5750000000000028
                },
                {
                    "name": "A4",
                    "midi": 69,
                    "time": 94.54166666666703,
                    "velocity": 0.5039370078740157,
                    "duration": 1.4500000000000028
                },
                {
                    "name": "A5",
                    "midi": 81,
                    "time": 96.25000000000037,
                    "velocity": 0.5039370078740157,
                    "duration": 0.24166666666666003
                },
                {
                    "name": "G5",
                    "midi": 79,
                    "time": 96.50000000000037,
                    "velocity": 0.5039370078740157,
                    "duration": 0.24166666666666003
                },
                {
                    "name": "F5",
                    "midi": 77,
                    "time": 96.75000000000037,
                    "velocity": 0.5039370078740157,
                    "duration": 0.24166666666666003
                },
                {
                    "name": "E5",
                    "midi": 76,
                    "time": 97.00000000000037,
                    "velocity": 0.5039370078740157,
                    "duration": 0.24166666666666003
                },
                {
                    "name": "F5",
                    "midi": 77,
                    "time": 97.25000000000037,
                    "velocity": 0.5039370078740157,
                    "duration": 0.24166666666666003
                },
                {
                    "name": "D5",
                    "midi": 74,
                    "time": 97.50000000000037,
                    "velocity": 0.5039370078740157,
                    "duration": 0.24166666666666003
                },
                {
                    "name": "E5",
                    "midi": 76,
                    "time": 97.75000000000037,
                    "velocity": 0.5039370078740157,
                    "duration": 0.24166666666666003
                },
                {
                    "name": "F5",
                    "midi": 77,
                    "time": 98.00000000000037,
                    "velocity": 0.5039370078740157,
                    "duration": 0.24166666666666003
                },
                {
                    "name": "G5",
                    "midi": 79,
                    "time": 98.25000000000037,
                    "velocity": 0.5039370078740157,
                    "duration": 0.24166666666666003
                },
                {
                    "name": "E5",
                    "midi": 76,
                    "time": 98.50000000000037,
                    "velocity": 0.5039370078740157,
                    "duration": 0.24166666666666003
                },
                {
                    "name": "F5",
                    "midi": 77,
                    "time": 98.75000000000037,
                    "velocity": 0.5039370078740157,
                    "duration": 0.24166666666666003
                },
                {
                    "name": "D5",
                    "midi": 74,
                    "time": 99.00000000000037,
                    "velocity": 0.5039370078740157,
                    "duration": 0.24166666666666003
                },
                {
                    "name": "E5",
                    "midi": 76,
                    "time": 99.25000000000037,
                    "velocity": 0.5039370078740157,
                    "duration": 0.24166666666666003
                },
                {
                    "name": "C5",
                    "midi": 72,
                    "time": 99.50000000000037,
                    "velocity": 0.5039370078740157,
                    "duration": 0.24166666666666003
                },
                {
                    "name": "D5",
                    "midi": 74,
                    "time": 99.75000000000037,
                    "velocity": 0.5039370078740157,
                    "duration": 0.24166666666666003
                },
                {
                    "name": "B4",
                    "midi": 71,
                    "time": 100.00000000000037,
                    "velocity": 0.5039370078740157,
                    "duration": 0.24166666666666003
                },
                {
                    "name": "D5",
                    "midi": 74,
                    "time": 100.25000000000037,
                    "velocity": 0.5039370078740157,
                    "duration": 0.24166666666666003
                },
                {
                    "name": "C5",
                    "midi": 72,
                    "time": 100.50000000000037,
                    "velocity": 0.5039370078740157,
                    "duration": 0.24166666666666003
                },
                {
                    "name": "D5",
                    "midi": 74,
                    "time": 100.75000000000037,
                    "velocity": 0.5039370078740157,
                    "duration": 0.24166666666666003
                },
                {
                    "name": "E5",
                    "midi": 76,
                    "time": 101.00000000000037,
                    "velocity": 0.5039370078740157,
                    "duration": 0.24166666666666003
                },
                {
                    "name": "F5",
                    "midi": 77,
                    "time": 101.25000000000037,
                    "velocity": 0.5039370078740157,
                    "duration": 0.24166666666666003
                },
                {
                    "name": "B4",
                    "midi": 71,
                    "time": 101.50000000000037,
                    "velocity": 0.5039370078740157,
                    "duration": 0.24166666666666003
                },
                {
                    "name": "D5",
                    "midi": 74,
                    "time": 101.75000000000037,
                    "velocity": 0.5039370078740157,
                    "duration": 0.24166666666666003
                },
                {
                    "name": "C5",
                    "midi": 72,
                    "time": 102.00000000000037,
                    "velocity": 0.5039370078740157,
                    "duration": 0.24166666666666003
                },
                {
                    "name": "D5",
                    "midi": 74,
                    "time": 102.25000000000037,
                    "velocity": 0.5039370078740157,
                    "duration": 0.24166666666666003
                },
                {
                    "name": "B4",
                    "midi": 71,
                    "time": 102.50000000000037,
                    "velocity": 0.5039370078740157,
                    "duration": 0.24166666666666003
                },
                {
                    "name": "C5",
                    "midi": 72,
                    "time": 102.75000000000037,
                    "velocity": 0.5039370078740157,
                    "duration": 0.24166666666666003
                },
                {
                    "name": "A4",
                    "midi": 69,
                    "time": 103.00000000000037,
                    "velocity": 0.5039370078740157,
                    "duration": 0.24166666666666003
                },
                {
                    "name": "B4",
                    "midi": 71,
                    "time": 103.25000000000037,
                    "velocity": 0.5039370078740157,
                    "duration": 0.24166666666666003
                },
                {
                    "name": "A4",
                    "midi": 69,
                    "time": 103.50000000000037,
                    "velocity": 0.5039370078740157,
                    "duration": 0.24166666666666003
                },
                {
                    "name": "B4",
                    "midi": 71,
                    "time": 103.75000000000037,
                    "velocity": 0.5039370078740157,
                    "duration": 0.24166666666666003
                },
                {
                    "name": "C5",
                    "midi": 72,
                    "time": 104.00000000000037,
                    "velocity": 0.5039370078740157,
                    "duration": 0.24166666666666003
                },
                {
                    "name": "D5",
                    "midi": 74,
                    "time": 104.25000000000037,
                    "velocity": 0.5039370078740157,
                    "duration": 0.24166666666666003
                },
                {
                    "name": "B4",
                    "midi": 71,
                    "time": 104.50000000000037,
                    "velocity": 0.5039370078740157,
                    "duration": 0.24166666666666003
                },
                {
                    "name": "C5",
                    "midi": 72,
                    "time": 104.75000000000037,
                    "velocity": 0.5039370078740157,
                    "duration": 0.24166666666666003
                },
                {
                    "name": "D5",
                    "midi": 74,
                    "time": 105.00000000000037,
                    "velocity": 0.5039370078740157,
                    "duration": 0.24166666666666003
                },
                {
                    "name": "E5",
                    "midi": 76,
                    "time": 105.25000000000037,
                    "velocity": 0.5039370078740157,
                    "duration": 0.24166666666666003
                },
                {
                    "name": "C5",
                    "midi": 72,
                    "time": 105.50000000000037,
                    "velocity": 0.5039370078740157,
                    "duration": 0.24166666666666003
                },
                {
                    "name": "D5",
                    "midi": 74,
                    "time": 105.75000000000037,
                    "velocity": 0.5039370078740157,
                    "duration": 0.24166666666666003
                },
                {
                    "name": "E5",
                    "midi": 76,
                    "time": 106.00000000000037,
                    "velocity": 0.5039370078740157,
                    "duration": 0.24166666666666003
                },
                {
                    "name": "D5",
                    "midi": 74,
                    "time": 106.25000000000037,
                    "velocity": 0.5039370078740157,
                    "duration": 0.24166666666666003
                },
                {
                    "name": "E5",
                    "midi": 76,
                    "time": 106.50000000000037,
                    "velocity": 0.5039370078740157,
                    "duration": 0.07500000000000284
                },
                {
                    "name": "D5",
                    "midi": 74,
                    "time": 106.58333333333371,
                    "velocity": 0.5039370078740157,
                    "duration": 0.07500000000000284
                },
                {
                    "name": "E5",
                    "midi": 76,
                    "time": 106.66666666666706,
                    "velocity": 0.5039370078740157,
                    "duration": 0.07500000000000284
                },
                {
                    "name": "F5",
                    "midi": 77,
                    "time": 106.7500000000004,
                    "velocity": 0.5039370078740157,
                    "duration": 0.24166666666666003
                },
                {
                    "name": "E5",
                    "midi": 76,
                    "time": 107.0000000000004,
                    "velocity": 0.5039370078740157,
                    "duration": 0.24166666666666003
                },
                {
                    "name": "F5",
                    "midi": 77,
                    "time": 107.2500000000004,
                    "velocity": 0.5039370078740157,
                    "duration": 0.24166666666666003
                },
                {
                    "name": "D5",
                    "midi": 74,
                    "time": 107.5000000000004,
                    "velocity": 0.5039370078740157,
                    "duration": 0.24166666666666003
                },
                {
                    "name": "E5",
                    "midi": 76,
                    "time": 107.7500000000004,
                    "velocity": 0.5039370078740157,
                    "duration": 0.24166666666666003
                },
                {
                    "name": "F5",
                    "midi": 77,
                    "time": 108.0000000000004,
                    "velocity": 0.5039370078740157,
                    "duration": 0.24166666666666003
                },
                {
                    "name": "G5",
                    "midi": 79,
                    "time": 108.2500000000004,
                    "velocity": 0.5039370078740157,
                    "duration": 0.24166666666666003
                },
                {
                    "name": "E5",
                    "midi": 76,
                    "time": 108.5000000000004,
                    "velocity": 0.5039370078740157,
                    "duration": 0.24166666666666003
                },
                {
                    "name": "F5",
                    "midi": 77,
                    "time": 108.7500000000004,
                    "velocity": 0.5039370078740157,
                    "duration": 0.24166666666666003
                },
                {
                    "name": "D5",
                    "midi": 74,
                    "time": 109.0000000000004,
                    "velocity": 0.5039370078740157,
                    "duration": 0.24166666666666003
                },
                {
                    "name": "E5",
                    "midi": 76,
                    "time": 109.2500000000004,
                    "velocity": 0.5039370078740157,
                    "duration": 0.24166666666666003
                },
                {
                    "name": "C5",
                    "midi": 72,
                    "time": 109.5000000000004,
                    "velocity": 0.5039370078740157,
                    "duration": 0.24166666666666003
                },
                {
                    "name": "D5",
                    "midi": 74,
                    "time": 109.7500000000004,
                    "velocity": 0.5039370078740157,
                    "duration": 0.24166666666666003
                },
                {
                    "name": "B4",
                    "midi": 71,
                    "time": 110.0000000000004,
                    "velocity": 0.5039370078740157,
                    "duration": 0.24166666666666003
                },
                {
                    "name": "E5",
                    "midi": 76,
                    "time": 110.2500000000004,
                    "velocity": 0.5039370078740157,
                    "duration": 0.24166666666666003
                },
                {
                    "name": "D5",
                    "midi": 74,
                    "time": 110.5000000000004,
                    "velocity": 0.5039370078740157,
                    "duration": 0.24166666666666003
                },
                {
                    "name": "C5",
                    "midi": 72,
                    "time": 110.7500000000004,
                    "velocity": 0.5039370078740157,
                    "duration": 0.24166666666666003
                },
                {
                    "name": "B4",
                    "midi": 71,
                    "time": 111.0000000000004,
                    "velocity": 0.5039370078740157,
                    "duration": 0.24166666666666003
                },
                {
                    "name": "C5",
                    "midi": 72,
                    "time": 111.2500000000004,
                    "velocity": 0.5039370078740157,
                    "duration": 0.24166666666666003
                },
                {
                    "name": "D5",
                    "midi": 74,
                    "time": 111.5000000000004,
                    "velocity": 0.5039370078740157,
                    "duration": 0.24166666666666003
                },
                {
                    "name": "B4",
                    "midi": 71,
                    "time": 111.7500000000004,
                    "velocity": 0.5039370078740157,
                    "duration": 0.24166666666666003
                },
                {
                    "name": "A5",
                    "midi": 81,
                    "time": 112.2500000000004,
                    "velocity": 0.5039370078740157,
                    "duration": 0.24166666666666003
                },
                {
                    "name": "G5",
                    "midi": 79,
                    "time": 112.5000000000004,
                    "velocity": 0.5039370078740157,
                    "duration": 0.24166666666666003
                },
                {
                    "name": "F5",
                    "midi": 77,
                    "time": 112.7500000000004,
                    "velocity": 0.5039370078740157,
                    "duration": 0.24166666666666003
                },
                {
                    "name": "E5",
                    "midi": 76,
                    "time": 113.0000000000004,
                    "velocity": 0.5039370078740157,
                    "duration": 0.24166666666666003
                },
                {
                    "name": "F5",
                    "midi": 77,
                    "time": 113.2500000000004,
                    "velocity": 0.5039370078740157,
                    "duration": 0.24166666666666003
                },
                {
                    "name": "D5",
                    "midi": 74,
                    "time": 113.5000000000004,
                    "velocity": 0.5039370078740157,
                    "duration": 0.24166666666666003
                },
                {
                    "name": "E5",
                    "midi": 76,
                    "time": 113.7500000000004,
                    "velocity": 0.5039370078740157,
                    "duration": 0.24166666666666003
                },
                {
                    "name": "F5",
                    "midi": 77,
                    "time": 114.0000000000004,
                    "velocity": 0.5039370078740157,
                    "duration": 0.24166666666666003
                },
                {
                    "name": "G5",
                    "midi": 79,
                    "time": 114.2500000000004,
                    "velocity": 0.5039370078740157,
                    "duration": 0.24166666666666003
                },
                {
                    "name": "E5",
                    "midi": 76,
                    "time": 114.5000000000004,
                    "velocity": 0.5039370078740157,
                    "duration": 0.24166666666666003
                },
                {
                    "name": "F5",
                    "midi": 77,
                    "time": 114.7500000000004,
                    "velocity": 0.5039370078740157,
                    "duration": 0.24166666666666003
                },
                {
                    "name": "D5",
                    "midi": 74,
                    "time": 115.0000000000004,
                    "velocity": 0.5039370078740157,
                    "duration": 0.24166666666666003
                },
                {
                    "name": "E5",
                    "midi": 76,
                    "time": 115.2500000000004,
                    "velocity": 0.5039370078740157,
                    "duration": 0.24166666666666003
                },
                {
                    "name": "C5",
                    "midi": 72,
                    "time": 115.5000000000004,
                    "velocity": 0.5039370078740157,
                    "duration": 0.24166666666666003
                },
                {
                    "name": "D5",
                    "midi": 74,
                    "time": 115.7500000000004,
                    "velocity": 0.5039370078740157,
                    "duration": 0.24166666666666003
                },
                {
                    "name": "B4",
                    "midi": 71,
                    "time": 116.0000000000004,
                    "velocity": 0.5039370078740157,
                    "duration": 0.24166666666666003
                },
                {
                    "name": "D5",
                    "midi": 74,
                    "time": 116.2500000000004,
                    "velocity": 0.5039370078740157,
                    "duration": 0.24166666666666003
                },
                {
                    "name": "C5",
                    "midi": 72,
                    "time": 116.5000000000004,
                    "velocity": 0.5039370078740157,
                    "duration": 0.24166666666666003
                },
                {
                    "name": "D5",
                    "midi": 74,
                    "time": 116.7500000000004,
                    "velocity": 0.5039370078740157,
                    "duration": 0.24166666666666003
                },
                {
                    "name": "E5",
                    "midi": 76,
                    "time": 117.0000000000004,
                    "velocity": 0.5039370078740157,
                    "duration": 0.24166666666666003
                },
                {
                    "name": "F5",
                    "midi": 77,
                    "time": 117.2500000000004,
                    "velocity": 0.5039370078740157,
                    "duration": 0.24166666666666003
                },
                {
                    "name": "B4",
                    "midi": 71,
                    "time": 117.5000000000004,
                    "velocity": 0.5039370078740157,
                    "duration": 0.24166666666666003
                },
                {
                    "name": "D5",
                    "midi": 74,
                    "time": 117.7500000000004,
                    "velocity": 0.5039370078740157,
                    "duration": 0.24166666666666003
                },
                {
                    "name": "C5",
                    "midi": 72,
                    "time": 118.0000000000004,
                    "velocity": 0.5039370078740157,
                    "duration": 0.24166666666666003
                },
                {
                    "name": "D5",
                    "midi": 74,
                    "time": 118.2500000000004,
                    "velocity": 0.5039370078740157,
                    "duration": 0.24166666666666003
                },
                {
                    "name": "B4",
                    "midi": 71,
                    "time": 118.5000000000004,
                    "velocity": 0.5039370078740157,
                    "duration": 0.24166666666666003
                },
                {
                    "name": "C5",
                    "midi": 72,
                    "time": 118.7500000000004,
                    "velocity": 0.5039370078740157,
                    "duration": 0.24166666666666003
                },
                {
                    "name": "A4",
                    "midi": 69,
                    "time": 119.0000000000004,
                    "velocity": 0.5039370078740157,
                    "duration": 0.24166666666666003
                },
                {
                    "name": "B4",
                    "midi": 71,
                    "time": 119.2500000000004,
                    "velocity": 0.5039370078740157,
                    "duration": 0.24166666666666003
                },
                {
                    "name": "A4",
                    "midi": 69,
                    "time": 119.5000000000004,
                    "velocity": 0.5039370078740157,
                    "duration": 0.24166666666666003
                },
                {
                    "name": "B4",
                    "midi": 71,
                    "time": 119.7500000000004,
                    "velocity": 0.5039370078740157,
                    "duration": 0.24166666666666003
                },
                {
                    "name": "C5",
                    "midi": 72,
                    "time": 120.0000000000004,
                    "velocity": 0.5039370078740157,
                    "duration": 0.24166666666666003
                },
                {
                    "name": "D5",
                    "midi": 74,
                    "time": 120.2500000000004,
                    "velocity": 0.5039370078740157,
                    "duration": 0.24166666666666003
                },
                {
                    "name": "B4",
                    "midi": 71,
                    "time": 120.5000000000004,
                    "velocity": 0.5039370078740157,
                    "duration": 0.24166666666666003
                },
                {
                    "name": "C5",
                    "midi": 72,
                    "time": 120.7500000000004,
                    "velocity": 0.5039370078740157,
                    "duration": 0.24166666666666003
                },
                {
                    "name": "D5",
                    "midi": 74,
                    "time": 121.0000000000004,
                    "velocity": 0.5039370078740157,
                    "duration": 0.24166666666666003
                },
                {
                    "name": "E5",
                    "midi": 76,
                    "time": 121.2500000000004,
                    "velocity": 0.5039370078740157,
                    "duration": 0.24166666666666003
                },
                {
                    "name": "C5",
                    "midi": 72,
                    "time": 121.5000000000004,
                    "velocity": 0.5039370078740157,
                    "duration": 0.24166666666666003
                },
                {
                    "name": "D5",
                    "midi": 74,
                    "time": 121.7500000000004,
                    "velocity": 0.5039370078740157,
                    "duration": 0.24166666666666003
                },
                {
                    "name": "E5",
                    "midi": 76,
                    "time": 122.0000000000004,
                    "velocity": 0.5039370078740157,
                    "duration": 0.24166666666666003
                },
                {
                    "name": "D5",
                    "midi": 74,
                    "time": 122.2500000000004,
                    "velocity": 0.5039370078740157,
                    "duration": 0.24166666666666003
                },
                {
                    "name": "E5",
                    "midi": 76,
                    "time": 122.5000000000004,
                    "velocity": 0.5039370078740157,
                    "duration": 0.07500000000000284
                },
                {
                    "name": "D5",
                    "midi": 74,
                    "time": 122.58333333333374,
                    "velocity": 0.5039370078740157,
                    "duration": 0.07500000000000284
                },
                {
                    "name": "E5",
                    "midi": 76,
                    "time": 122.66666666666708,
                    "velocity": 0.5039370078740157,
                    "duration": 0.07500000000000284
                },
                {
                    "name": "F5",
                    "midi": 77,
                    "time": 122.75000000000043,
                    "velocity": 0.5039370078740157,
                    "duration": 0.24166666666666003
                },
                {
                    "name": "E5",
                    "midi": 76,
                    "time": 123.00000000000043,
                    "velocity": 0.5039370078740157,
                    "duration": 0.24166666666666003
                },
                {
                    "name": "F5",
                    "midi": 77,
                    "time": 123.25000000000043,
                    "velocity": 0.5039370078740157,
                    "duration": 0.24166666666666003
                },
                {
                    "name": "D5",
                    "midi": 74,
                    "time": 123.50000000000043,
                    "velocity": 0.5039370078740157,
                    "duration": 0.24166666666666003
                },
                {
                    "name": "E5",
                    "midi": 76,
                    "time": 123.75000000000043,
                    "velocity": 0.5039370078740157,
                    "duration": 0.24166666666666003
                },
                {
                    "name": "F5",
                    "midi": 77,
                    "time": 124.00000000000043,
                    "velocity": 0.5039370078740157,
                    "duration": 0.24166666666666003
                },
                {
                    "name": "G5",
                    "midi": 79,
                    "time": 124.25000000000043,
                    "velocity": 0.5039370078740157,
                    "duration": 0.24166666666666003
                },
                {
                    "name": "E5",
                    "midi": 76,
                    "time": 124.50000000000043,
                    "velocity": 0.5039370078740157,
                    "duration": 0.24166666666666003
                },
                {
                    "name": "F5",
                    "midi": 77,
                    "time": 124.75000000000043,
                    "velocity": 0.5039370078740157,
                    "duration": 0.24166666666666003
                },
                {
                    "name": "D5",
                    "midi": 74,
                    "time": 125.00000000000043,
                    "velocity": 0.5039370078740157,
                    "duration": 0.24166666666666003
                },
                {
                    "name": "E5",
                    "midi": 76,
                    "time": 125.25000000000043,
                    "velocity": 0.5039370078740157,
                    "duration": 0.24166666666666003
                },
                {
                    "name": "C5",
                    "midi": 72,
                    "time": 125.50000000000043,
                    "velocity": 0.5039370078740157,
                    "duration": 0.24166666666666003
                },
                {
                    "name": "D5",
                    "midi": 74,
                    "time": 125.75000000000043,
                    "velocity": 0.5039370078740157,
                    "duration": 0.24166666666666003
                },
                {
                    "name": "B4",
                    "midi": 71,
                    "time": 126.00000000000043,
                    "velocity": 0.5039370078740157,
                    "duration": 0.07500000000000284
                },
                {
                    "name": "A4",
                    "midi": 69,
                    "time": 126.08333333333377,
                    "velocity": 0.5039370078740157,
                    "duration": 0.07500000000000284
                },
                {
                    "name": "B4",
                    "midi": 71,
                    "time": 126.16666666666711,
                    "velocity": 0.5039370078740157,
                    "duration": 1.8250000000000028
                },
                {
                    "name": "E5",
                    "midi": 76,
                    "time": 128.00000000000045,
                    "velocity": 0.5039370078740157,
                    "duration": 0.24166666666667425
                },
                {
                    "name": "D5",
                    "midi": 74,
                    "time": 128.25000000000045,
                    "velocity": 0.5039370078740157,
                    "duration": 0.24166666666667425
                },
                {
                    "name": "C5",
                    "midi": 72,
                    "time": 128.50000000000045,
                    "velocity": 0.5039370078740157,
                    "duration": 0.24166666666667425
                },
                {
                    "name": "B4",
                    "midi": 71,
                    "time": 128.75000000000045,
                    "velocity": 0.5039370078740157,
                    "duration": 0.24166666666667425
                },
                {
                    "name": "A4",
                    "midi": 69,
                    "time": 129.00000000000045,
                    "velocity": 0.5039370078740157,
                    "duration": 0.24166666666667425
                },
                {
                    "name": "G4",
                    "midi": 67,
                    "time": 129.25000000000045,
                    "velocity": 0.5039370078740157,
                    "duration": 0.24166666666667425
                },
                {
                    "name": "F4",
                    "midi": 65,
                    "time": 129.50000000000045,
                    "velocity": 0.5039370078740157,
                    "duration": 0.24166666666667425
                },
                {
                    "name": "E4",
                    "midi": 64,
                    "time": 129.75000000000045,
                    "velocity": 0.5039370078740157,
                    "duration": 0.24166666666667425
                },
                {
                    "name": "A4",
                    "midi": 69,
                    "time": 130.00000000000045,
                    "velocity": 0.5039370078740157,
                    "duration": 0.24166666666667425
                },
                {
                    "name": "G4",
                    "midi": 67,
                    "time": 130.25000000000045,
                    "velocity": 0.5039370078740157,
                    "duration": 0.24166666666667425
                },
                {
                    "name": "F4",
                    "midi": 65,
                    "time": 130.50000000000045,
                    "velocity": 0.5039370078740157,
                    "duration": 0.24166666666667425
                },
                {
                    "name": "E4",
                    "midi": 64,
                    "time": 130.75000000000045,
                    "velocity": 0.5039370078740157,
                    "duration": 0.24166666666667425
                },
                {
                    "name": "D4",
                    "midi": 62,
                    "time": 131.00000000000045,
                    "velocity": 0.5039370078740157,
                    "duration": 0.24166666666667425
                },
                {
                    "name": "C4",
                    "midi": 60,
                    "time": 131.25000000000045,
                    "velocity": 0.5039370078740157,
                    "duration": 0.24166666666667425
                },
                {
                    "name": "B3",
                    "midi": 59,
                    "time": 131.50000000000045,
                    "velocity": 0.5039370078740157,
                    "duration": 0.24166666666667425
                },
                {
                    "name": "A3",
                    "midi": 57,
                    "time": 131.75000000000045,
                    "velocity": 0.5039370078740157,
                    "duration": 0.24166666666667425
                },
                {
                    "name": "F5",
                    "midi": 77,
                    "time": 132.00000000000045,
                    "velocity": 0.5039370078740157,
                    "duration": 0.24166666666667425
                },
                {
                    "name": "E5",
                    "midi": 76,
                    "time": 132.25000000000045,
                    "velocity": 0.5039370078740157,
                    "duration": 0.24166666666667425
                },
                {
                    "name": "D5",
                    "midi": 74,
                    "time": 132.50000000000045,
                    "velocity": 0.5039370078740157,
                    "duration": 0.24166666666667425
                },
                {
                    "name": "C5",
                    "midi": 72,
                    "time": 132.75000000000045,
                    "velocity": 0.5039370078740157,
                    "duration": 0.24166666666667425
                },
                {
                    "name": "B4",
                    "midi": 71,
                    "time": 133.00000000000045,
                    "velocity": 0.5039370078740157,
                    "duration": 0.24166666666667425
                },
                {
                    "name": "A4",
                    "midi": 69,
                    "time": 133.25000000000045,
                    "velocity": 0.5039370078740157,
                    "duration": 0.24166666666667425
                },
                {
                    "name": "G4",
                    "midi": 67,
                    "time": 133.50000000000045,
                    "velocity": 0.5039370078740157,
                    "duration": 0.24166666666667425
                },
                {
                    "name": "F4",
                    "midi": 65,
                    "time": 133.75000000000045,
                    "velocity": 0.5039370078740157,
                    "duration": 0.24166666666667425
                },
                {
                    "name": "B4",
                    "midi": 71,
                    "time": 134.00000000000045,
                    "velocity": 0.5039370078740157,
                    "duration": 0.24166666666667425
                },
                {
                    "name": "A4",
                    "midi": 69,
                    "time": 134.25000000000045,
                    "velocity": 0.5039370078740157,
                    "duration": 0.24166666666667425
                },
                {
                    "name": "G4",
                    "midi": 67,
                    "time": 134.50000000000045,
                    "velocity": 0.5039370078740157,
                    "duration": 0.24166666666667425
                },
                {
                    "name": "F4",
                    "midi": 65,
                    "time": 134.75000000000045,
                    "velocity": 0.5039370078740157,
                    "duration": 0.24166666666667425
                },
                {
                    "name": "E4",
                    "midi": 64,
                    "time": 135.00000000000045,
                    "velocity": 0.5039370078740157,
                    "duration": 0.24166666666667425
                },
                {
                    "name": "D4",
                    "midi": 62,
                    "time": 135.25000000000045,
                    "velocity": 0.5039370078740157,
                    "duration": 0.24166666666667425
                },
                {
                    "name": "C4",
                    "midi": 60,
                    "time": 135.50000000000045,
                    "velocity": 0.5039370078740157,
                    "duration": 0.24166666666667425
                },
                {
                    "name": "B3",
                    "midi": 59,
                    "time": 135.75000000000045,
                    "velocity": 0.5039370078740157,
                    "duration": 0.24166666666667425
                },
                {
                    "name": "G5",
                    "midi": 79,
                    "time": 136.00000000000045,
                    "velocity": 0.5039370078740157,
                    "duration": 0.24166666666667425
                },
                {
                    "name": "F5",
                    "midi": 77,
                    "time": 136.25000000000045,
                    "velocity": 0.5039370078740157,
                    "duration": 0.24166666666667425
                },
                {
                    "name": "E5",
                    "midi": 76,
                    "time": 136.50000000000045,
                    "velocity": 0.5039370078740157,
                    "duration": 0.24166666666667425
                },
                {
                    "name": "D5",
                    "midi": 74,
                    "time": 136.75000000000045,
                    "velocity": 0.5039370078740157,
                    "duration": 0.24166666666667425
                },
                {
                    "name": "C5",
                    "midi": 72,
                    "time": 137.00000000000045,
                    "velocity": 0.5039370078740157,
                    "duration": 0.24166666666667425
                },
                {
                    "name": "B4",
                    "midi": 71,
                    "time": 137.25000000000045,
                    "velocity": 0.5039370078740157,
                    "duration": 0.24166666666667425
                },
                {
                    "name": "A4",
                    "midi": 69,
                    "time": 137.50000000000045,
                    "velocity": 0.5039370078740157,
                    "duration": 0.24166666666667425
                },
                {
                    "name": "G4",
                    "midi": 67,
                    "time": 137.75000000000045,
                    "velocity": 0.5039370078740157,
                    "duration": 0.24166666666667425
                },
                {
                    "name": "A4",
                    "midi": 69,
                    "time": 138.00000000000045,
                    "velocity": 0.5039370078740157,
                    "duration": 0.24166666666667425
                },
                {
                    "name": "G4",
                    "midi": 67,
                    "time": 138.25000000000045,
                    "velocity": 0.5039370078740157,
                    "duration": 0.24166666666667425
                },
                {
                    "name": "F4",
                    "midi": 65,
                    "time": 138.50000000000045,
                    "velocity": 0.5039370078740157,
                    "duration": 0.24166666666667425
                },
                {
                    "name": "E4",
                    "midi": 64,
                    "time": 138.75000000000045,
                    "velocity": 0.5039370078740157,
                    "duration": 0.24166666666667425
                },
                {
                    "name": "D4",
                    "midi": 62,
                    "time": 139.00000000000045,
                    "velocity": 0.5039370078740157,
                    "duration": 0.24166666666667425
                },
                {
                    "name": "C4",
                    "midi": 60,
                    "time": 139.25000000000045,
                    "velocity": 0.5039370078740157,
                    "duration": 0.24166666666667425
                },
                {
                    "name": "B3",
                    "midi": 59,
                    "time": 139.50000000000045,
                    "velocity": 0.5039370078740157,
                    "duration": 0.24166666666667425
                },
                {
                    "name": "A3",
                    "midi": 57,
                    "time": 139.75000000000045,
                    "velocity": 0.5039370078740157,
                    "duration": 0.24166666666667425
                },
                {
                    "name": "G3",
                    "midi": 55,
                    "time": 140.00000000000045,
                    "velocity": 0.5039370078740157,
                    "duration": 0.24166666666667425
                },
                {
                    "name": "F3",
                    "midi": 53,
                    "time": 140.25000000000045,
                    "velocity": 0.5039370078740157,
                    "duration": 0.24166666666667425
                },
                {
                    "name": "E3",
                    "midi": 52,
                    "time": 140.50000000000045,
                    "velocity": 0.5039370078740157,
                    "duration": 0.24166666666667425
                },
                {
                    "name": "D3",
                    "midi": 50,
                    "time": 140.75000000000045,
                    "velocity": 0.5039370078740157,
                    "duration": 0.24166666666667425
                },
                {
                    "name": "C3",
                    "midi": 48,
                    "time": 141.00000000000045,
                    "velocity": 0.5039370078740157,
                    "duration": 0.24166666666667425
                },
                {
                    "name": "B2",
                    "midi": 47,
                    "time": 141.25000000000045,
                    "velocity": 0.5039370078740157,
                    "duration": 0.24166666666667425
                },
                {
                    "name": "A2",
                    "midi": 45,
                    "time": 141.50000000000045,
                    "velocity": 0.5039370078740157,
                    "duration": 0.24166666666667425
                },
                {
                    "name": "G2",
                    "midi": 43,
                    "time": 141.75000000000045,
                    "velocity": 0.5039370078740157,
                    "duration": 0.24166666666667425
                },
                {
                    "name": "C3",
                    "midi": 48,
                    "time": 142.00000000000045,
                    "velocity": 0.5039370078740157,
                    "duration": 0.07499999999998863
                },
                {
                    "name": "B2",
                    "midi": 47,
                    "time": 142.08333333333377,
                    "velocity": 0.5039370078740157,
                    "duration": 0.07499999999998863
                },
                {
                    "name": "C3",
                    "midi": 48,
                    "time": 142.16666666666708,
                    "velocity": 0.5039370078740157,
                    "duration": 0.8249999999999886
                },
                {
                    "name": "C6",
                    "midi": 84,
                    "time": 144.0000000000004,
                    "velocity": 0.5039370078740157,
                    "duration": 0.24166666666667425
                },
                {
                    "name": "B5",
                    "midi": 83,
                    "time": 144.2500000000004,
                    "velocity": 0.5039370078740157,
                    "duration": 0.24166666666667425
                },
                {
                    "name": "A5",
                    "midi": 81,
                    "time": 144.5000000000004,
                    "velocity": 0.5039370078740157,
                    "duration": 0.24166666666667425
                },
                {
                    "name": "G5",
                    "midi": 79,
                    "time": 144.7500000000004,
                    "velocity": 0.5039370078740157,
                    "duration": 0.24166666666667425
                },
                {
                    "name": "F5",
                    "midi": 77,
                    "time": 145.0000000000004,
                    "velocity": 0.5039370078740157,
                    "duration": 0.24166666666667425
                },
                {
                    "name": "E5",
                    "midi": 76,
                    "time": 145.2500000000004,
                    "velocity": 0.5039370078740157,
                    "duration": 0.24166666666667425
                },
                {
                    "name": "D5",
                    "midi": 74,
                    "time": 145.5000000000004,
                    "velocity": 0.5039370078740157,
                    "duration": 0.24166666666667425
                },
                {
                    "name": "C5",
                    "midi": 72,
                    "time": 145.7500000000004,
                    "velocity": 0.5039370078740157,
                    "duration": 0.24166666666667425
                },
                {
                    "name": "B5",
                    "midi": 83,
                    "time": 146.0000000000004,
                    "velocity": 0.5039370078740157,
                    "duration": 0.24166666666667425
                },
                {
                    "name": "A5",
                    "midi": 81,
                    "time": 146.2500000000004,
                    "velocity": 0.5039370078740157,
                    "duration": 0.24166666666667425
                },
                {
                    "name": "G5",
                    "midi": 79,
                    "time": 146.5000000000004,
                    "velocity": 0.5039370078740157,
                    "duration": 0.24166666666667425
                },
                {
                    "name": "F5",
                    "midi": 77,
                    "time": 146.7500000000004,
                    "velocity": 0.5039370078740157,
                    "duration": 0.24166666666667425
                },
                {
                    "name": "E5",
                    "midi": 76,
                    "time": 147.0000000000004,
                    "velocity": 0.5039370078740157,
                    "duration": 0.24166666666667425
                },
                {
                    "name": "D5",
                    "midi": 74,
                    "time": 147.2500000000004,
                    "velocity": 0.5039370078740157,
                    "duration": 0.24166666666667425
                },
                {
                    "name": "C5",
                    "midi": 72,
                    "time": 147.5000000000004,
                    "velocity": 0.5039370078740157,
                    "duration": 0.24166666666667425
                },
                {
                    "name": "B4",
                    "midi": 71,
                    "time": 147.7500000000004,
                    "velocity": 0.5039370078740157,
                    "duration": 0.24166666666667425
                },
                {
                    "name": "A5",
                    "midi": 81,
                    "time": 148.0000000000004,
                    "velocity": 0.5039370078740157,
                    "duration": 0.24166666666667425
                },
                {
                    "name": "G5",
                    "midi": 79,
                    "time": 148.2500000000004,
                    "velocity": 0.5039370078740157,
                    "duration": 0.24166666666667425
                },
                {
                    "name": "F5",
                    "midi": 77,
                    "time": 148.5000000000004,
                    "velocity": 0.5039370078740157,
                    "duration": 0.24166666666667425
                },
                {
                    "name": "E5",
                    "midi": 76,
                    "time": 148.7500000000004,
                    "velocity": 0.5039370078740157,
                    "duration": 0.24166666666667425
                },
                {
                    "name": "D5",
                    "midi": 74,
                    "time": 149.0000000000004,
                    "velocity": 0.5039370078740157,
                    "duration": 0.24166666666667425
                },
                {
                    "name": "C5",
                    "midi": 72,
                    "time": 149.2500000000004,
                    "velocity": 0.5039370078740157,
                    "duration": 0.24166666666667425
                },
                {
                    "name": "B4",
                    "midi": 71,
                    "time": 149.5000000000004,
                    "velocity": 0.5039370078740157,
                    "duration": 0.24166666666667425
                },
                {
                    "name": "A4",
                    "midi": 69,
                    "time": 149.7500000000004,
                    "velocity": 0.5039370078740157,
                    "duration": 0.24166666666667425
                },
                {
                    "name": "B4",
                    "midi": 71,
                    "time": 150.0000000000004,
                    "velocity": 0.5039370078740157,
                    "duration": 0.24166666666667425
                },
                {
                    "name": "A4",
                    "midi": 69,
                    "time": 150.2500000000004,
                    "velocity": 0.5039370078740157,
                    "duration": 0.24166666666667425
                },
                {
                    "name": "G#4",
                    "midi": 68,
                    "time": 150.5000000000004,
                    "velocity": 0.5039370078740157,
                    "duration": 0.24166666666667425
                },
                {
                    "name": "F#4",
                    "midi": 66,
                    "time": 150.7500000000004,
                    "velocity": 0.5039370078740157,
                    "duration": 0.24166666666667425
                },
                {
                    "name": "E4",
                    "midi": 64,
                    "time": 151.0000000000004,
                    "velocity": 0.5039370078740157,
                    "duration": 0.24166666666667425
                },
                {
                    "name": "D4",
                    "midi": 62,
                    "time": 151.2500000000004,
                    "velocity": 0.5039370078740157,
                    "duration": 0.24166666666667425
                },
                {
                    "name": "C4",
                    "midi": 60,
                    "time": 151.5000000000004,
                    "velocity": 0.5039370078740157,
                    "duration": 0.24166666666667425
                },
                {
                    "name": "B3",
                    "midi": 59,
                    "time": 151.7500000000004,
                    "velocity": 0.5039370078740157,
                    "duration": 0.24166666666667425
                },
                {
                    "name": "A3",
                    "midi": 57,
                    "time": 152.0000000000004,
                    "velocity": 0.5039370078740157,
                    "duration": 0.24166666666667425
                },
                {
                    "name": "B3",
                    "midi": 59,
                    "time": 152.2500000000004,
                    "velocity": 0.5039370078740157,
                    "duration": 0.24166666666667425
                },
                {
                    "name": "C4",
                    "midi": 60,
                    "time": 152.5000000000004,
                    "velocity": 0.5039370078740157,
                    "duration": 0.24166666666667425
                },
                {
                    "name": "D4",
                    "midi": 62,
                    "time": 152.7500000000004,
                    "velocity": 0.5039370078740157,
                    "duration": 0.24166666666667425
                },
                {
                    "name": "E4",
                    "midi": 64,
                    "time": 153.0000000000004,
                    "velocity": 0.5039370078740157,
                    "duration": 0.24166666666667425
                },
                {
                    "name": "F#4",
                    "midi": 66,
                    "time": 153.2500000000004,
                    "velocity": 0.5039370078740157,
                    "duration": 0.24166666666667425
                },
                {
                    "name": "G#4",
                    "midi": 68,
                    "time": 153.5000000000004,
                    "velocity": 0.5039370078740157,
                    "duration": 0.24166666666667425
                },
                {
                    "name": "A4",
                    "midi": 69,
                    "time": 153.7500000000004,
                    "velocity": 0.5039370078740157,
                    "duration": 0.24166666666667425
                },
                {
                    "name": "F#4",
                    "midi": 66,
                    "time": 154.0000000000004,
                    "velocity": 0.5039370078740157,
                    "duration": 0.24166666666667425
                },
                {
                    "name": "A4",
                    "midi": 69,
                    "time": 154.2500000000004,
                    "velocity": 0.5039370078740157,
                    "duration": 0.24166666666667425
                },
                {
                    "name": "G#4",
                    "midi": 68,
                    "time": 154.5000000000004,
                    "velocity": 0.5039370078740157,
                    "duration": 0.24166666666667425
                },
                {
                    "name": "B4",
                    "midi": 71,
                    "time": 154.7500000000004,
                    "velocity": 0.5039370078740157,
                    "duration": 0.24166666666667425
                },
                {
                    "name": "A4",
                    "midi": 69,
                    "time": 155.0000000000004,
                    "velocity": 0.5039370078740157,
                    "duration": 0.49166666666667425
                },
                {
                    "name": "F5",
                    "midi": 77,
                    "time": 155.5000000000004,
                    "velocity": 0.5039370078740157,
                    "duration": 0.07499999999998863
                },
                {
                    "name": "E5",
                    "midi": 76,
                    "time": 155.5833333333337,
                    "velocity": 0.5039370078740157,
                    "duration": 0.07499999999998863
                },
                {
                    "name": "F5",
                    "midi": 77,
                    "time": 155.66666666666703,
                    "velocity": 0.5039370078740157,
                    "duration": 0.8249999999999886
                },
                {
                    "name": "E5",
                    "midi": 76,
                    "time": 156.50000000000034,
                    "velocity": 0.5039370078740157,
                    "duration": 0.24166666666667425
                },
                {
                    "name": "D5",
                    "midi": 74,
                    "time": 156.75000000000034,
                    "velocity": 0.5039370078740157,
                    "duration": 0.24166666666667425
                },
                {
                    "name": "C5",
                    "midi": 72,
                    "time": 157.00000000000034,
                    "velocity": 0.5039370078740157,
                    "duration": 0.24166666666667425
                },
                {
                    "name": "B4",
                    "midi": 71,
                    "time": 157.25000000000034,
                    "velocity": 0.5039370078740157,
                    "duration": 0.24166666666667425
                },
                {
                    "name": "A4",
                    "midi": 69,
                    "time": 157.50000000000034,
                    "velocity": 0.5039370078740157,
                    "duration": 0.24166666666667425
                },
                {
                    "name": "G#4",
                    "midi": 68,
                    "time": 157.75000000000034,
                    "velocity": 0.5039370078740157,
                    "duration": 0.24166666666667425
                },
                {
                    "name": "G#4",
                    "midi": 68,
                    "time": 158.00000000000034,
                    "velocity": 0.5039370078740157,
                    "duration": 0.49166666666667425
                },
                {
                    "name": "A4",
                    "midi": 69,
                    "time": 158.50000000000034,
                    "velocity": 0.5039370078740157,
                    "duration": 0.07499999999998863
                },
                {
                    "name": "G#4",
                    "midi": 68,
                    "time": 158.58333333333366,
                    "velocity": 0.5039370078740157,
                    "duration": 0.07499999999998863
                },
                {
                    "name": "A4",
                    "midi": 69,
                    "time": 158.66666666666697,
                    "velocity": 0.5039370078740157,
                    "duration": 1.3249999999999886
                },
                {
                    "name": "E5",
                    "midi": 76,
                    "time": 160.00000000000028,
                    "velocity": 0.5039370078740157,
                    "duration": 0.24166666666667425
                },
                {
                    "name": "D5",
                    "midi": 74,
                    "time": 160.25000000000028,
                    "velocity": 0.5039370078740157,
                    "duration": 0.24166666666667425
                },
                {
                    "name": "C5",
                    "midi": 72,
                    "time": 160.50000000000028,
                    "velocity": 0.5039370078740157,
                    "duration": 0.24166666666667425
                },
                {
                    "name": "B4",
                    "midi": 71,
                    "time": 160.75000000000028,
                    "velocity": 0.5039370078740157,
                    "duration": 0.24166666666667425
                },
                {
                    "name": "A4",
                    "midi": 69,
                    "time": 161.00000000000028,
                    "velocity": 0.5039370078740157,
                    "duration": 0.24166666666667425
                },
                {
                    "name": "G4",
                    "midi": 67,
                    "time": 161.25000000000028,
                    "velocity": 0.5039370078740157,
                    "duration": 0.24166666666667425
                },
                {
                    "name": "F4",
                    "midi": 65,
                    "time": 161.50000000000028,
                    "velocity": 0.5039370078740157,
                    "duration": 0.24166666666667425
                },
                {
                    "name": "E4",
                    "midi": 64,
                    "time": 161.75000000000028,
                    "velocity": 0.5039370078740157,
                    "duration": 0.24166666666667425
                },
                {
                    "name": "A4",
                    "midi": 69,
                    "time": 162.00000000000028,
                    "velocity": 0.5039370078740157,
                    "duration": 0.24166666666667425
                },
                {
                    "name": "G4",
                    "midi": 67,
                    "time": 162.25000000000028,
                    "velocity": 0.5039370078740157,
                    "duration": 0.24166666666667425
                },
                {
                    "name": "F4",
                    "midi": 65,
                    "time": 162.50000000000028,
                    "velocity": 0.5039370078740157,
                    "duration": 0.24166666666667425
                },
                {
                    "name": "E4",
                    "midi": 64,
                    "time": 162.75000000000028,
                    "velocity": 0.5039370078740157,
                    "duration": 0.24166666666667425
                },
                {
                    "name": "D4",
                    "midi": 62,
                    "time": 163.00000000000028,
                    "velocity": 0.5039370078740157,
                    "duration": 0.24166666666667425
                },
                {
                    "name": "C4",
                    "midi": 60,
                    "time": 163.25000000000028,
                    "velocity": 0.5039370078740157,
                    "duration": 0.24166666666667425
                },
                {
                    "name": "B3",
                    "midi": 59,
                    "time": 163.50000000000028,
                    "velocity": 0.5039370078740157,
                    "duration": 0.24166666666667425
                },
                {
                    "name": "A3",
                    "midi": 57,
                    "time": 163.75000000000028,
                    "velocity": 0.5039370078740157,
                    "duration": 0.24166666666667425
                },
                {
                    "name": "F5",
                    "midi": 77,
                    "time": 164.00000000000028,
                    "velocity": 0.5039370078740157,
                    "duration": 0.24166666666667425
                },
                {
                    "name": "E5",
                    "midi": 76,
                    "time": 164.25000000000028,
                    "velocity": 0.5039370078740157,
                    "duration": 0.24166666666667425
                },
                {
                    "name": "D5",
                    "midi": 74,
                    "time": 164.50000000000028,
                    "velocity": 0.5039370078740157,
                    "duration": 0.24166666666667425
                },
                {
                    "name": "C5",
                    "midi": 72,
                    "time": 164.75000000000028,
                    "velocity": 0.5039370078740157,
                    "duration": 0.24166666666667425
                },
                {
                    "name": "B4",
                    "midi": 71,
                    "time": 165.00000000000028,
                    "velocity": 0.5039370078740157,
                    "duration": 0.24166666666667425
                },
                {
                    "name": "A4",
                    "midi": 69,
                    "time": 165.25000000000028,
                    "velocity": 0.5039370078740157,
                    "duration": 0.24166666666667425
                },
                {
                    "name": "G4",
                    "midi": 67,
                    "time": 165.50000000000028,
                    "velocity": 0.5039370078740157,
                    "duration": 0.24166666666667425
                },
                {
                    "name": "F4",
                    "midi": 65,
                    "time": 165.75000000000028,
                    "velocity": 0.5039370078740157,
                    "duration": 0.24166666666667425
                },
                {
                    "name": "B4",
                    "midi": 71,
                    "time": 166.00000000000028,
                    "velocity": 0.5039370078740157,
                    "duration": 0.24166666666667425
                },
                {
                    "name": "A4",
                    "midi": 69,
                    "time": 166.25000000000028,
                    "velocity": 0.5039370078740157,
                    "duration": 0.24166666666667425
                },
                {
                    "name": "G4",
                    "midi": 67,
                    "time": 166.50000000000028,
                    "velocity": 0.5039370078740157,
                    "duration": 0.24166666666667425
                },
                {
                    "name": "F4",
                    "midi": 65,
                    "time": 166.75000000000028,
                    "velocity": 0.5039370078740157,
                    "duration": 0.24166666666667425
                },
                {
                    "name": "E4",
                    "midi": 64,
                    "time": 167.00000000000028,
                    "velocity": 0.5039370078740157,
                    "duration": 0.24166666666667425
                },
                {
                    "name": "D4",
                    "midi": 62,
                    "time": 167.25000000000028,
                    "velocity": 0.5039370078740157,
                    "duration": 0.24166666666667425
                },
                {
                    "name": "C4",
                    "midi": 60,
                    "time": 167.50000000000028,
                    "velocity": 0.5039370078740157,
                    "duration": 0.24166666666667425
                },
                {
                    "name": "B3",
                    "midi": 59,
                    "time": 167.75000000000028,
                    "velocity": 0.5039370078740157,
                    "duration": 0.24166666666667425
                },
                {
                    "name": "G5",
                    "midi": 79,
                    "time": 168.00000000000028,
                    "velocity": 0.5039370078740157,
                    "duration": 0.24166666666667425
                },
                {
                    "name": "F5",
                    "midi": 77,
                    "time": 168.25000000000028,
                    "velocity": 0.5039370078740157,
                    "duration": 0.24166666666667425
                },
                {
                    "name": "E5",
                    "midi": 76,
                    "time": 168.50000000000028,
                    "velocity": 0.5039370078740157,
                    "duration": 0.24166666666667425
                },
                {
                    "name": "D5",
                    "midi": 74,
                    "time": 168.75000000000028,
                    "velocity": 0.5039370078740157,
                    "duration": 0.24166666666667425
                },
                {
                    "name": "C5",
                    "midi": 72,
                    "time": 169.00000000000028,
                    "velocity": 0.5039370078740157,
                    "duration": 0.24166666666667425
                },
                {
                    "name": "B4",
                    "midi": 71,
                    "time": 169.25000000000028,
                    "velocity": 0.5039370078740157,
                    "duration": 0.24166666666667425
                },
                {
                    "name": "A4",
                    "midi": 69,
                    "time": 169.50000000000028,
                    "velocity": 0.5039370078740157,
                    "duration": 0.24166666666667425
                },
                {
                    "name": "G4",
                    "midi": 67,
                    "time": 169.75000000000028,
                    "velocity": 0.5039370078740157,
                    "duration": 0.24166666666667425
                },
                {
                    "name": "A4",
                    "midi": 69,
                    "time": 170.00000000000028,
                    "velocity": 0.5039370078740157,
                    "duration": 0.24166666666667425
                },
                {
                    "name": "G4",
                    "midi": 67,
                    "time": 170.25000000000028,
                    "velocity": 0.5039370078740157,
                    "duration": 0.24166666666667425
                },
                {
                    "name": "F4",
                    "midi": 65,
                    "time": 170.50000000000028,
                    "velocity": 0.5039370078740157,
                    "duration": 0.24166666666667425
                },
                {
                    "name": "E4",
                    "midi": 64,
                    "time": 170.75000000000028,
                    "velocity": 0.5039370078740157,
                    "duration": 0.24166666666667425
                },
                {
                    "name": "D4",
                    "midi": 62,
                    "time": 171.00000000000028,
                    "velocity": 0.5039370078740157,
                    "duration": 0.24166666666667425
                },
                {
                    "name": "C4",
                    "midi": 60,
                    "time": 171.25000000000028,
                    "velocity": 0.5039370078740157,
                    "duration": 0.24166666666667425
                },
                {
                    "name": "B3",
                    "midi": 59,
                    "time": 171.50000000000028,
                    "velocity": 0.5039370078740157,
                    "duration": 0.24166666666667425
                },
                {
                    "name": "A3",
                    "midi": 57,
                    "time": 171.75000000000028,
                    "velocity": 0.5039370078740157,
                    "duration": 0.24166666666667425
                },
                {
                    "name": "G3",
                    "midi": 55,
                    "time": 172.00000000000028,
                    "velocity": 0.5039370078740157,
                    "duration": 0.24166666666667425
                },
                {
                    "name": "F3",
                    "midi": 53,
                    "time": 172.25000000000028,
                    "velocity": 0.5039370078740157,
                    "duration": 0.24166666666667425
                },
                {
                    "name": "E3",
                    "midi": 52,
                    "time": 172.50000000000028,
                    "velocity": 0.5039370078740157,
                    "duration": 0.24166666666667425
                },
                {
                    "name": "D3",
                    "midi": 50,
                    "time": 172.75000000000028,
                    "velocity": 0.5039370078740157,
                    "duration": 0.24166666666667425
                },
                {
                    "name": "C3",
                    "midi": 48,
                    "time": 173.00000000000028,
                    "velocity": 0.5039370078740157,
                    "duration": 0.24166666666667425
                },
                {
                    "name": "B2",
                    "midi": 47,
                    "time": 173.25000000000028,
                    "velocity": 0.5039370078740157,
                    "duration": 0.24166666666667425
                },
                {
                    "name": "A2",
                    "midi": 45,
                    "time": 173.50000000000028,
                    "velocity": 0.5039370078740157,
                    "duration": 0.24166666666667425
                },
                {
                    "name": "G2",
                    "midi": 43,
                    "time": 173.75000000000028,
                    "velocity": 0.5039370078740157,
                    "duration": 0.24166666666667425
                },
                {
                    "name": "C3",
                    "midi": 48,
                    "time": 174.00000000000028,
                    "velocity": 0.5039370078740157,
                    "duration": 0.07499999999998863
                },
                {
                    "name": "B2",
                    "midi": 47,
                    "time": 174.0833333333336,
                    "velocity": 0.5039370078740157,
                    "duration": 0.07499999999998863
                },
                {
                    "name": "C3",
                    "midi": 48,
                    "time": 174.1666666666669,
                    "velocity": 0.5039370078740157,
                    "duration": 0.8249999999999886
                },
                {
                    "name": "C6",
                    "midi": 84,
                    "time": 176.00000000000023,
                    "velocity": 0.5039370078740157,
                    "duration": 0.24166666666667425
                },
                {
                    "name": "B5",
                    "midi": 83,
                    "time": 176.25000000000023,
                    "velocity": 0.5039370078740157,
                    "duration": 0.24166666666667425
                },
                {
                    "name": "A5",
                    "midi": 81,
                    "time": 176.50000000000023,
                    "velocity": 0.5039370078740157,
                    "duration": 0.24166666666667425
                },
                {
                    "name": "G5",
                    "midi": 79,
                    "time": 176.75000000000023,
                    "velocity": 0.5039370078740157,
                    "duration": 0.24166666666667425
                },
                {
                    "name": "F5",
                    "midi": 77,
                    "time": 177.00000000000023,
                    "velocity": 0.5039370078740157,
                    "duration": 0.24166666666667425
                },
                {
                    "name": "E5",
                    "midi": 76,
                    "time": 177.25000000000023,
                    "velocity": 0.5039370078740157,
                    "duration": 0.24166666666667425
                },
                {
                    "name": "D5",
                    "midi": 74,
                    "time": 177.50000000000023,
                    "velocity": 0.5039370078740157,
                    "duration": 0.24166666666667425
                },
                {
                    "name": "C5",
                    "midi": 72,
                    "time": 177.75000000000023,
                    "velocity": 0.5039370078740157,
                    "duration": 0.24166666666667425
                },
                {
                    "name": "B5",
                    "midi": 83,
                    "time": 178.00000000000023,
                    "velocity": 0.5039370078740157,
                    "duration": 0.24166666666667425
                },
                {
                    "name": "A5",
                    "midi": 81,
                    "time": 178.25000000000023,
                    "velocity": 0.5039370078740157,
                    "duration": 0.24166666666667425
                },
                {
                    "name": "G5",
                    "midi": 79,
                    "time": 178.50000000000023,
                    "velocity": 0.5039370078740157,
                    "duration": 0.24166666666667425
                },
                {
                    "name": "F5",
                    "midi": 77,
                    "time": 178.75000000000023,
                    "velocity": 0.5039370078740157,
                    "duration": 0.24166666666667425
                },
                {
                    "name": "E5",
                    "midi": 76,
                    "time": 179.00000000000023,
                    "velocity": 0.5039370078740157,
                    "duration": 0.24166666666667425
                },
                {
                    "name": "D5",
                    "midi": 74,
                    "time": 179.25000000000023,
                    "velocity": 0.5039370078740157,
                    "duration": 0.24166666666667425
                },
                {
                    "name": "C5",
                    "midi": 72,
                    "time": 179.50000000000023,
                    "velocity": 0.5039370078740157,
                    "duration": 0.24166666666667425
                },
                {
                    "name": "B4",
                    "midi": 71,
                    "time": 179.75000000000023,
                    "velocity": 0.5039370078740157,
                    "duration": 0.24166666666667425
                },
                {
                    "name": "A5",
                    "midi": 81,
                    "time": 180.00000000000023,
                    "velocity": 0.5039370078740157,
                    "duration": 0.24166666666667425
                },
                {
                    "name": "G5",
                    "midi": 79,
                    "time": 180.25000000000023,
                    "velocity": 0.5039370078740157,
                    "duration": 0.24166666666667425
                },
                {
                    "name": "F5",
                    "midi": 77,
                    "time": 180.50000000000023,
                    "velocity": 0.5039370078740157,
                    "duration": 0.24166666666667425
                },
                {
                    "name": "E5",
                    "midi": 76,
                    "time": 180.75000000000023,
                    "velocity": 0.5039370078740157,
                    "duration": 0.24166666666667425
                },
                {
                    "name": "D5",
                    "midi": 74,
                    "time": 181.00000000000023,
                    "velocity": 0.5039370078740157,
                    "duration": 0.24166666666667425
                },
                {
                    "name": "C5",
                    "midi": 72,
                    "time": 181.25000000000023,
                    "velocity": 0.5039370078740157,
                    "duration": 0.24166666666667425
                },
                {
                    "name": "B4",
                    "midi": 71,
                    "time": 181.50000000000023,
                    "velocity": 0.5039370078740157,
                    "duration": 0.24166666666667425
                },
                {
                    "name": "A4",
                    "midi": 69,
                    "time": 181.75000000000023,
                    "velocity": 0.5039370078740157,
                    "duration": 0.24166666666667425
                },
                {
                    "name": "B4",
                    "midi": 71,
                    "time": 182.00000000000023,
                    "velocity": 0.5039370078740157,
                    "duration": 0.24166666666667425
                },
                {
                    "name": "A4",
                    "midi": 69,
                    "time": 182.25000000000023,
                    "velocity": 0.5039370078740157,
                    "duration": 0.24166666666667425
                },
                {
                    "name": "G#4",
                    "midi": 68,
                    "time": 182.50000000000023,
                    "velocity": 0.5039370078740157,
                    "duration": 0.24166666666667425
                },
                {
                    "name": "F#4",
                    "midi": 66,
                    "time": 182.75000000000023,
                    "velocity": 0.5039370078740157,
                    "duration": 0.24166666666667425
                },
                {
                    "name": "E4",
                    "midi": 64,
                    "time": 183.00000000000023,
                    "velocity": 0.5039370078740157,
                    "duration": 0.24166666666667425
                },
                {
                    "name": "D4",
                    "midi": 62,
                    "time": 183.25000000000023,
                    "velocity": 0.5039370078740157,
                    "duration": 0.24166666666667425
                },
                {
                    "name": "C4",
                    "midi": 60,
                    "time": 183.50000000000023,
                    "velocity": 0.5039370078740157,
                    "duration": 0.24166666666667425
                },
                {
                    "name": "B3",
                    "midi": 59,
                    "time": 183.75000000000023,
                    "velocity": 0.5039370078740157,
                    "duration": 0.24166666666667425
                },
                {
                    "name": "A3",
                    "midi": 57,
                    "time": 184.00000000000023,
                    "velocity": 0.5039370078740157,
                    "duration": 0.24166666666667425
                },
                {
                    "name": "B3",
                    "midi": 59,
                    "time": 184.25000000000023,
                    "velocity": 0.5039370078740157,
                    "duration": 0.24166666666667425
                },
                {
                    "name": "C4",
                    "midi": 60,
                    "time": 184.50000000000023,
                    "velocity": 0.5039370078740157,
                    "duration": 0.24166666666667425
                },
                {
                    "name": "D4",
                    "midi": 62,
                    "time": 184.75000000000023,
                    "velocity": 0.5039370078740157,
                    "duration": 0.24166666666667425
                },
                {
                    "name": "E4",
                    "midi": 64,
                    "time": 185.00000000000023,
                    "velocity": 0.5039370078740157,
                    "duration": 0.24166666666667425
                },
                {
                    "name": "F#4",
                    "midi": 66,
                    "time": 185.25000000000023,
                    "velocity": 0.5039370078740157,
                    "duration": 0.24166666666667425
                },
                {
                    "name": "G#4",
                    "midi": 68,
                    "time": 185.50000000000023,
                    "velocity": 0.5039370078740157,
                    "duration": 0.24166666666667425
                },
                {
                    "name": "A4",
                    "midi": 69,
                    "time": 185.75000000000023,
                    "velocity": 0.5039370078740157,
                    "duration": 0.24166666666667425
                },
                {
                    "name": "F#4",
                    "midi": 66,
                    "time": 186.00000000000023,
                    "velocity": 0.5039370078740157,
                    "duration": 0.24166666666667425
                },
                {
                    "name": "A4",
                    "midi": 69,
                    "time": 186.25000000000023,
                    "velocity": 0.5039370078740157,
                    "duration": 0.24166666666667425
                },
                {
                    "name": "G#4",
                    "midi": 68,
                    "time": 186.50000000000023,
                    "velocity": 0.5039370078740157,
                    "duration": 0.24166666666667425
                },
                {
                    "name": "B4",
                    "midi": 71,
                    "time": 186.75000000000023,
                    "velocity": 0.5039370078740157,
                    "duration": 0.24166666666667425
                },
                {
                    "name": "A4",
                    "midi": 69,
                    "time": 187.00000000000023,
                    "velocity": 0.5039370078740157,
                    "duration": 0.49166666666667425
                },
                {
                    "name": "F5",
                    "midi": 77,
                    "time": 187.50000000000023,
                    "velocity": 0.5039370078740157,
                    "duration": 0.07499999999998863
                },
                {
                    "name": "E5",
                    "midi": 76,
                    "time": 187.58333333333354,
                    "velocity": 0.5039370078740157,
                    "duration": 0.07499999999998863
                },
                {
                    "name": "F5",
                    "midi": 77,
                    "time": 187.66666666666686,
                    "velocity": 0.5039370078740157,
                    "duration": 0.8249999999999886
                },
                {
                    "name": "E5",
                    "midi": 76,
                    "time": 188.50000000000017,
                    "velocity": 0.5039370078740157,
                    "duration": 0.24166666666667425
                },
                {
                    "name": "D5",
                    "midi": 74,
                    "time": 188.75000000000017,
                    "velocity": 0.5039370078740157,
                    "duration": 0.24166666666667425
                },
                {
                    "name": "C5",
                    "midi": 72,
                    "time": 189.00000000000017,
                    "velocity": 0.5039370078740157,
                    "duration": 0.24166666666667425
                },
                {
                    "name": "B4",
                    "midi": 71,
                    "time": 189.25000000000017,
                    "velocity": 0.5039370078740157,
                    "duration": 0.24166666666667425
                },
                {
                    "name": "A4",
                    "midi": 69,
                    "time": 189.50000000000017,
                    "velocity": 0.5039370078740157,
                    "duration": 0.24166666666667425
                },
                {
                    "name": "G#4",
                    "midi": 68,
                    "time": 189.75000000000017,
                    "velocity": 0.5039370078740157,
                    "duration": 0.24166666666667425
                },
                {
                    "name": "G#4",
                    "midi": 68,
                    "time": 190.00000000000017,
                    "velocity": 0.5039370078740157,
                    "duration": 0.49166666666667425
                },
                {
                    "name": "A4",
                    "midi": 69,
                    "time": 190.50000000000017,
                    "velocity": 0.5039370078740157,
                    "duration": 0.07499999999998863
                },
                {
                    "name": "G#4",
                    "midi": 68,
                    "time": 190.58333333333348,
                    "velocity": 0.5039370078740157,
                    "duration": 0.07499999999998863
                },
                {
                    "name": "A4",
                    "midi": 69,
                    "time": 190.6666666666668,
                    "velocity": 0.5039370078740157,
                    "duration": 1.3249999999999886
                },
                {
                    "name": "C5",
                    "midi": 72,
                    "time": 192.0000000000001,
                    "velocity": 0.5039370078740157,
                    "duration": 0.9916666666666742
                },
                {
                    "name": "A4",
                    "midi": 69,
                    "time": 192.0000000000001,
                    "velocity": 0.5039370078740157,
                    "duration": 0.9916666666666742
                },
                {
                    "name": "E4",
                    "midi": 64,
                    "time": 192.0000000000001,
                    "velocity": 0.5039370078740157,
                    "duration": 0.9916666666666742
                },
                {
                    "name": "C5",
                    "midi": 72,
                    "time": 193.0000000000001,
                    "velocity": 0.5039370078740157,
                    "duration": 0.9916666666666742
                },
                {
                    "name": "A4",
                    "midi": 69,
                    "time": 193.0000000000001,
                    "velocity": 0.5039370078740157,
                    "duration": 0.9916666666666742
                },
                {
                    "name": "E4",
                    "midi": 64,
                    "time": 193.0000000000001,
                    "velocity": 0.5039370078740157,
                    "duration": 0.9916666666666742
                },
                {
                    "name": "B4",
                    "midi": 71,
                    "time": 194.0000000000001,
                    "velocity": 0.5039370078740157,
                    "duration": 0.9916666666666742
                },
                {
                    "name": "F4",
                    "midi": 65,
                    "time": 194.0000000000001,
                    "velocity": 0.5039370078740157,
                    "duration": 0.9916666666666742
                },
                {
                    "name": "A4",
                    "midi": 69,
                    "time": 195.0000000000001,
                    "velocity": 0.5039370078740157,
                    "duration": 0.9916666666666742
                },
                {
                    "name": "F4",
                    "midi": 65,
                    "time": 195.0000000000001,
                    "velocity": 0.5039370078740157,
                    "duration": 0.9916666666666742
                },
                {
                    "name": "A4",
                    "midi": 69,
                    "time": 196.0000000000001,
                    "velocity": 0.5039370078740157,
                    "duration": 0.9916666666666742
                },
                {
                    "name": "E4",
                    "midi": 64,
                    "time": 196.0000000000001,
                    "velocity": 0.5039370078740157,
                    "duration": 0.9916666666666742
                },
                {
                    "name": "G#4",
                    "midi": 68,
                    "time": 197.0000000000001,
                    "velocity": 0.5039370078740157,
                    "duration": 0.9916666666666742
                },
                {
                    "name": "E4",
                    "midi": 64,
                    "time": 197.0000000000001,
                    "velocity": 0.5039370078740157,
                    "duration": 0.49166666666667425
                },
                {
                    "name": "A4",
                    "midi": 69,
                    "time": 198.0000000000001,
                    "velocity": 0.5039370078740157,
                    "duration": 1.9916666666666742
                },
                {
                    "name": "E4",
                    "midi": 64,
                    "time": 198.0000000000001,
                    "velocity": 0.5039370078740157,
                    "duration": 1.9916666666666742
                },
                {
                    "name": "C4",
                    "midi": 60,
                    "time": 198.0000000000001,
                    "velocity": 0.5039370078740157,
                    "duration": 1.9916666666666742
                },
                {
                    "name": "A4",
                    "midi": 69,
                    "time": 200.0000000000001,
                    "velocity": 0.5039370078740157,
                    "duration": 0.9916666666666742
                },
                {
                    "name": "E4",
                    "midi": 64,
                    "time": 200.0000000000001,
                    "velocity": 0.5039370078740157,
                    "duration": 0.9916666666666742
                },
                {
                    "name": "B4",
                    "midi": 71,
                    "time": 201.0000000000001,
                    "velocity": 0.5039370078740157,
                    "duration": 0.07499999999998863
                },
                {
                    "name": "A4",
                    "midi": 69,
                    "time": 201.08333333333343,
                    "velocity": 0.5039370078740157,
                    "duration": 0.07499999999998863
                },
                {
                    "name": "B4",
                    "midi": 71,
                    "time": 201.16666666666674,
                    "velocity": 0.5039370078740157,
                    "duration": 0.8249999999999886
                },
                {
                    "name": "B4",
                    "midi": 71,
                    "time": 202.00000000000006,
                    "velocity": 0.5039370078740157,
                    "duration": 0.15833333333333144
                },
                {
                    "name": "C5",
                    "midi": 72,
                    "time": 202.1666666666667,
                    "velocity": 0.5039370078740157,
                    "duration": 0.8249999999999886
                },
                {
                    "name": "E4",
                    "midi": 64,
                    "time": 202.1666666666667,
                    "velocity": 0.5039370078740157,
                    "duration": 0.8249999999999886
                },
                {
                    "name": "C5",
                    "midi": 72,
                    "time": 203.00000000000003,
                    "velocity": 0.5039370078740157,
                    "duration": 0.9916666666666742
                },
                {
                    "name": "E4",
                    "midi": 64,
                    "time": 203.00000000000003,
                    "velocity": 0.5039370078740157,
                    "duration": 0.9916666666666742
                },
                {
                    "name": "B4",
                    "midi": 71,
                    "time": 204.00000000000003,
                    "velocity": 0.5039370078740157,
                    "duration": 0.07499999999998863
                },
                {
                    "name": "F4",
                    "midi": 65,
                    "time": 204.00000000000003,
                    "velocity": 0.5039370078740157,
                    "duration": 1.9916666666666174
                },
                {
                    "name": "A4",
                    "midi": 69,
                    "time": 204.08333333333334,
                    "velocity": 0.5039370078740157,
                    "duration": 0.07499999999998863
                },
                {
                    "name": "B4",
                    "midi": 71,
                    "time": 204.16666666666666,
                    "velocity": 0.5039370078740157,
                    "duration": 0.8249999999999886
                },
                {
                    "name": "A4",
                    "midi": 69,
                    "time": 204.99999999999997,
                    "velocity": 0.5039370078740157,
                    "duration": 0.9916666666666742
                },
                {
                    "name": "E5",
                    "midi": 76,
                    "time": 205.99999999999997,
                    "velocity": 0.5039370078740157,
                    "duration": 1.9916666666666742
                },
                {
                    "name": "B4",
                    "midi": 71,
                    "time": 205.99999999999997,
                    "velocity": 0.5039370078740157,
                    "duration": 1.9916666666666742
                },
                {
                    "name": "G#4",
                    "midi": 68,
                    "time": 205.99999999999997,
                    "velocity": 0.5039370078740157,
                    "duration": 1.9916666666666742
                },
                {
                    "name": "E4",
                    "midi": 64,
                    "time": 205.99999999999997,
                    "velocity": 0.5039370078740157,
                    "duration": 1.9916666666666742
                },
                {
                    "name": "C5",
                    "midi": 72,
                    "time": 207.99999999999997,
                    "velocity": 0.5039370078740157,
                    "duration": 0.9916666666666742
                },
                {
                    "name": "A4",
                    "midi": 69,
                    "time": 207.99999999999997,
                    "velocity": 0.5039370078740157,
                    "duration": 0.9916666666666742
                },
                {
                    "name": "E4",
                    "midi": 64,
                    "time": 207.99999999999997,
                    "velocity": 0.5039370078740157,
                    "duration": 0.9916666666666742
                },
                {
                    "name": "C5",
                    "midi": 72,
                    "time": 208.99999999999997,
                    "velocity": 0.5039370078740157,
                    "duration": 0.9916666666666742
                },
                {
                    "name": "A4",
                    "midi": 69,
                    "time": 208.99999999999997,
                    "velocity": 0.5039370078740157,
                    "duration": 0.9916666666666742
                },
                {
                    "name": "E4",
                    "midi": 64,
                    "time": 208.99999999999997,
                    "velocity": 0.5039370078740157,
                    "duration": 0.9916666666666742
                },
                {
                    "name": "B4",
                    "midi": 71,
                    "time": 209.99999999999997,
                    "velocity": 0.5039370078740157,
                    "duration": 0.9916666666666742
                },
                {
                    "name": "F4",
                    "midi": 65,
                    "time": 209.99999999999997,
                    "velocity": 0.5039370078740157,
                    "duration": 0.9916666666666742
                },
                {
                    "name": "A4",
                    "midi": 69,
                    "time": 210.99999999999997,
                    "velocity": 0.5039370078740157,
                    "duration": 0.9916666666666742
                },
                {
                    "name": "F4",
                    "midi": 65,
                    "time": 210.99999999999997,
                    "velocity": 0.5039370078740157,
                    "duration": 0.9916666666666742
                },
                {
                    "name": "A4",
                    "midi": 69,
                    "time": 211.99999999999997,
                    "velocity": 0.5039370078740157,
                    "duration": 0.9916666666666742
                },
                {
                    "name": "E4",
                    "midi": 64,
                    "time": 211.99999999999997,
                    "velocity": 0.5039370078740157,
                    "duration": 0.9916666666666742
                },
                {
                    "name": "G#4",
                    "midi": 68,
                    "time": 212.99999999999997,
                    "velocity": 0.5039370078740157,
                    "duration": 0.9916666666666742
                },
                {
                    "name": "E4",
                    "midi": 64,
                    "time": 212.99999999999997,
                    "velocity": 0.5039370078740157,
                    "duration": 0.49166666666667425
                },
                {
                    "name": "A4",
                    "midi": 69,
                    "time": 213.99999999999997,
                    "velocity": 0.5039370078740157,
                    "duration": 1.9916666666666742
                },
                {
                    "name": "E4",
                    "midi": 64,
                    "time": 213.99999999999997,
                    "velocity": 0.5039370078740157,
                    "duration": 1.9916666666666742
                },
                {
                    "name": "C4",
                    "midi": 60,
                    "time": 213.99999999999997,
                    "velocity": 0.5039370078740157,
                    "duration": 1.9916666666666742
                },
                {
                    "name": "A4",
                    "midi": 69,
                    "time": 215.99999999999997,
                    "velocity": 0.5039370078740157,
                    "duration": 0.9916666666666742
                },
                {
                    "name": "E4",
                    "midi": 64,
                    "time": 215.99999999999997,
                    "velocity": 0.5039370078740157,
                    "duration": 0.9916666666666742
                },
                {
                    "name": "B4",
                    "midi": 71,
                    "time": 216.99999999999997,
                    "velocity": 0.5039370078740157,
                    "duration": 0.07499999999998863
                },
                {
                    "name": "A4",
                    "midi": 69,
                    "time": 217.0833333333333,
                    "velocity": 0.5039370078740157,
                    "duration": 0.07499999999998863
                },
                {
                    "name": "B4",
                    "midi": 71,
                    "time": 217.1666666666666,
                    "velocity": 0.5039370078740157,
                    "duration": 0.8249999999999886
                },
                {
                    "name": "B4",
                    "midi": 71,
                    "time": 217.99999999999991,
                    "velocity": 0.5039370078740157,
                    "duration": 0.15833333333333144
                },
                {
                    "name": "C5",
                    "midi": 72,
                    "time": 218.16666666666657,
                    "velocity": 0.5039370078740157,
                    "duration": 0.8249999999999886
                },
                {
                    "name": "E4",
                    "midi": 64,
                    "time": 218.16666666666657,
                    "velocity": 0.5039370078740157,
                    "duration": 0.8249999999999886
                },
                {
                    "name": "C5",
                    "midi": 72,
                    "time": 218.9999999999999,
                    "velocity": 0.5039370078740157,
                    "duration": 0.9916666666666742
                },
                {
                    "name": "E4",
                    "midi": 64,
                    "time": 218.9999999999999,
                    "velocity": 0.5039370078740157,
                    "duration": 0.9916666666666742
                },
                {
                    "name": "B4",
                    "midi": 71,
                    "time": 219.9999999999999,
                    "velocity": 0.5039370078740157,
                    "duration": 0.07499999999998863
                },
                {
                    "name": "F4",
                    "midi": 65,
                    "time": 219.9999999999999,
                    "velocity": 0.5039370078740157,
                    "duration": 1.9916666666666174
                },
                {
                    "name": "A4",
                    "midi": 69,
                    "time": 220.0833333333332,
                    "velocity": 0.5039370078740157,
                    "duration": 0.07499999999998863
                },
                {
                    "name": "B4",
                    "midi": 71,
                    "time": 220.16666666666652,
                    "velocity": 0.5039370078740157,
                    "duration": 0.8249999999999886
                },
                {
                    "name": "A4",
                    "midi": 69,
                    "time": 220.99999999999983,
                    "velocity": 0.5039370078740157,
                    "duration": 0.9916666666666742
                },
                {
                    "name": "E5",
                    "midi": 76,
                    "time": 221.99999999999983,
                    "velocity": 0.5039370078740157,
                    "duration": 1.9916666666666742
                },
                {
                    "name": "B4",
                    "midi": 71,
                    "time": 221.99999999999983,
                    "velocity": 0.5039370078740157,
                    "duration": 1.9916666666666742
                },
                {
                    "name": "G#4",
                    "midi": 68,
                    "time": 221.99999999999983,
                    "velocity": 0.5039370078740157,
                    "duration": 1.9916666666666742
                },
                {
                    "name": "E4",
                    "midi": 64,
                    "time": 221.99999999999983,
                    "velocity": 0.5039370078740157,
                    "duration": 1.9916666666666742
                },
                {
                    "name": "E5",
                    "midi": 76,
                    "time": 223.99999999999983,
                    "velocity": 0.5039370078740157,
                    "duration": 0.9916666666666742
                },
                {
                    "name": "C5",
                    "midi": 72,
                    "time": 224.99999999999983,
                    "velocity": 0.5039370078740157,
                    "duration": 0.9916666666666742
                },
                {
                    "name": "A4",
                    "midi": 69,
                    "time": 225.99999999999983,
                    "velocity": 0.5039370078740157,
                    "duration": 0.07499999999998863
                },
                {
                    "name": "G4",
                    "midi": 67,
                    "time": 226.08333333333314,
                    "velocity": 0.5039370078740157,
                    "duration": 0.07499999999998863
                },
                {
                    "name": "A4",
                    "midi": 69,
                    "time": 226.16666666666646,
                    "velocity": 0.5039370078740157,
                    "duration": 0.8249999999999886
                },
                {
                    "name": "A4",
                    "midi": 69,
                    "time": 226.99999999999977,
                    "velocity": 0.5039370078740157,
                    "duration": 0.9916666666666742
                },
                {
                    "name": "F5",
                    "midi": 77,
                    "time": 227.99999999999977,
                    "velocity": 0.5039370078740157,
                    "duration": 0.9916666666666742
                },
                {
                    "name": "A4",
                    "midi": 69,
                    "time": 227.99999999999977,
                    "velocity": 0.5039370078740157,
                    "duration": 0.9916666666666742
                },
                {
                    "name": "D5",
                    "midi": 74,
                    "time": 228.99999999999977,
                    "velocity": 0.5039370078740157,
                    "duration": 0.9916666666666742
                },
                {
                    "name": "F4",
                    "midi": 65,
                    "time": 228.99999999999977,
                    "velocity": 0.5039370078740157,
                    "duration": 0.9916666666666742
                },
                {
                    "name": "B4",
                    "midi": 71,
                    "time": 229.99999999999977,
                    "velocity": 0.5039370078740157,
                    "duration": 0.07499999999998863
                },
                {
                    "name": "D4",
                    "midi": 62,
                    "time": 229.99999999999977,
                    "velocity": 0.5039370078740157,
                    "duration": 0.4916666666666174
                },
                {
                    "name": "A4",
                    "midi": 69,
                    "time": 230.0833333333331,
                    "velocity": 0.5039370078740157,
                    "duration": 0.07499999999998863
                },
                {
                    "name": "B4",
                    "midi": 71,
                    "time": 230.1666666666664,
                    "velocity": 0.5039370078740157,
                    "duration": 1.8249999999999886
                },
                {
                    "name": "G5",
                    "midi": 79,
                    "time": 231.99999999999972,
                    "velocity": 0.5039370078740157,
                    "duration": 0.9916666666666742
                },
                {
                    "name": "F5",
                    "midi": 77,
                    "time": 232.99999999999972,
                    "velocity": 0.5039370078740157,
                    "duration": 0.15833333333333144
                },
                {
                    "name": "E5",
                    "midi": 76,
                    "time": 233.16666666666637,
                    "velocity": 0.5039370078740157,
                    "duration": 0.8249999999999886
                },
                {
                    "name": "C5",
                    "midi": 72,
                    "time": 233.9999999999997,
                    "velocity": 0.5039370078740157,
                    "duration": 0.07499999999998863
                },
                {
                    "name": "D5",
                    "midi": 74,
                    "time": 234.083333333333,
                    "velocity": 0.5039370078740157,
                    "duration": 0.07499999999998863
                },
                {
                    "name": "C5",
                    "midi": 72,
                    "time": 234.16666666666632,
                    "velocity": 0.5039370078740157,
                    "duration": 0.07499999999998863
                },
                {
                    "name": "D5",
                    "midi": 74,
                    "time": 234.24999999999963,
                    "velocity": 0.5039370078740157,
                    "duration": 0.07499999999998863
                },
                {
                    "name": "C5",
                    "midi": 72,
                    "time": 234.33333333333294,
                    "velocity": 0.5039370078740157,
                    "duration": 0.6583333333333314
                },
                {
                    "name": "B4",
                    "midi": 71,
                    "time": 234.9999999999996,
                    "velocity": 0.5039370078740157,
                    "duration": 0.15833333333333144
                },
                {
                    "name": "A4",
                    "midi": 69,
                    "time": 235.16666666666626,
                    "velocity": 0.5039370078740157,
                    "duration": 0.825000000000017
                },
                {
                    "name": "C5",
                    "midi": 72,
                    "time": 235.7499999999996,
                    "velocity": 0.5039370078740157,
                    "duration": 0.24166666666667425
                },
                {
                    "name": "C5",
                    "midi": 72,
                    "time": 235.9999999999996,
                    "velocity": 0.5039370078740157,
                    "duration": 0.15833333333333144
                },
                {
                    "name": "D5",
                    "midi": 74,
                    "time": 236.16666666666626,
                    "velocity": 0.5039370078740157,
                    "duration": 0.07499999999998863
                },
                {
                    "name": "C5",
                    "midi": 72,
                    "time": 236.24999999999957,
                    "velocity": 0.5039370078740157,
                    "duration": 0.07499999999998863
                },
                {
                    "name": "D5",
                    "midi": 74,
                    "time": 236.3333333333329,
                    "velocity": 0.5039370078740157,
                    "duration": 0.6583333333333314
                },
                {
                    "name": "B4",
                    "midi": 71,
                    "time": 236.99999999999955,
                    "velocity": 0.5039370078740157,
                    "duration": 0.07499999999998863
                },
                {
                    "name": "A4",
                    "midi": 69,
                    "time": 237.08333333333286,
                    "velocity": 0.5039370078740157,
                    "duration": 0.07499999999998863
                },
                {
                    "name": "B4",
                    "midi": 71,
                    "time": 237.16666666666617,
                    "velocity": 0.5039370078740157,
                    "duration": 0.49166666666667425
                },
                {
                    "name": "A4",
                    "midi": 69,
                    "time": 237.74999999999952,
                    "velocity": 0.5039370078740157,
                    "duration": 0.11666666666667425
                },
                {
                    "name": "B4",
                    "midi": 71,
                    "time": 237.87499999999952,
                    "velocity": 0.5039370078740157,
                    "duration": 0.11666666666667425
                },
                {
                    "name": "C5",
                    "midi": 72,
                    "time": 237.99999999999952,
                    "velocity": 0.5039370078740157,
                    "duration": 1.9916666666666742
                },
                {
                    "name": "G4",
                    "midi": 67,
                    "time": 237.99999999999952,
                    "velocity": 0.5039370078740157,
                    "duration": 1.9916666666666742
                },
                {
                    "name": "E4",
                    "midi": 64,
                    "time": 237.99999999999952,
                    "velocity": 0.5039370078740157,
                    "duration": 1.9916666666666742
                },
                {
                    "name": "C6",
                    "midi": 84,
                    "time": 239.99999999999952,
                    "velocity": 0.5039370078740157,
                    "duration": 0.9916666666666742
                },
                {
                    "name": "E5",
                    "midi": 76,
                    "time": 239.99999999999952,
                    "velocity": 0.5039370078740157,
                    "duration": 0.9916666666666742
                },
                {
                    "name": "C6",
                    "midi": 84,
                    "time": 240.99999999999952,
                    "velocity": 0.5039370078740157,
                    "duration": 0.9916666666666742
                },
                {
                    "name": "E5",
                    "midi": 76,
                    "time": 240.99999999999952,
                    "velocity": 0.5039370078740157,
                    "duration": 0.9916666666666742
                },
                {
                    "name": "C6",
                    "midi": 84,
                    "time": 241.99999999999952,
                    "velocity": 0.5039370078740157,
                    "duration": 0.9916666666666742
                },
                {
                    "name": "D5",
                    "midi": 74,
                    "time": 241.99999999999952,
                    "velocity": 0.5039370078740157,
                    "duration": 0.9916666666666742
                },
                {
                    "name": "B5",
                    "midi": 83,
                    "time": 242.99999999999952,
                    "velocity": 0.5039370078740157,
                    "duration": 0.9916666666666742
                },
                {
                    "name": "D5",
                    "midi": 74,
                    "time": 242.99999999999952,
                    "velocity": 0.5039370078740157,
                    "duration": 0.9916666666666742
                },
                {
                    "name": "E5",
                    "midi": 76,
                    "time": 243.99999999999952,
                    "velocity": 0.5039370078740157,
                    "duration": 0.9916666666666742
                },
                {
                    "name": "D5",
                    "midi": 74,
                    "time": 243.99999999999952,
                    "velocity": 0.5039370078740157,
                    "duration": 0.9916666666666742
                },
                {
                    "name": "A5",
                    "midi": 81,
                    "time": 244.99999999999952,
                    "velocity": 0.5039370078740157,
                    "duration": 0.9916666666666742
                },
                {
                    "name": "C5",
                    "midi": 72,
                    "time": 244.99999999999952,
                    "velocity": 0.5039370078740157,
                    "duration": 0.9916666666666742
                },
                {
                    "name": "B4",
                    "midi": 71,
                    "time": 245.99999999999952,
                    "velocity": 0.5039370078740157,
                    "duration": 1.9916666666666174
                },
                {
                    "name": "G#5",
                    "midi": 80,
                    "time": 245.99999999999952,
                    "velocity": 0.5039370078740157,
                    "duration": 0.07499999999998863
                },
                {
                    "name": "A5",
                    "midi": 81,
                    "time": 246.08333333333283,
                    "velocity": 0.5039370078740157,
                    "duration": 0.07499999999998863
                },
                {
                    "name": "G#5",
                    "midi": 80,
                    "time": 246.16666666666615,
                    "velocity": 0.5039370078740157,
                    "duration": 1.8249999999999886
                },
                {
                    "name": "A5",
                    "midi": 81,
                    "time": 247.99999999999946,
                    "velocity": 0.5039370078740157,
                    "duration": 0.9916666666666742
                },
                {
                    "name": "E5",
                    "midi": 76,
                    "time": 247.99999999999946,
                    "velocity": 0.5039370078740157,
                    "duration": 0.9916666666666742
                },
                {
                    "name": "C6",
                    "midi": 84,
                    "time": 248.99999999999946,
                    "velocity": 0.5039370078740157,
                    "duration": 0.9916666666666742
                },
                {
                    "name": "E5",
                    "midi": 76,
                    "time": 248.99999999999946,
                    "velocity": 0.5039370078740157,
                    "duration": 0.9916666666666742
                },
                {
                    "name": "F#5",
                    "midi": 78,
                    "time": 249.99999999999946,
                    "velocity": 0.5039370078740157,
                    "duration": 0.49166666666667425
                },
                {
                    "name": "E5",
                    "midi": 76,
                    "time": 249.99999999999946,
                    "velocity": 0.5039370078740157,
                    "duration": 0.49166666666667425
                },
                {
                    "name": "G#5",
                    "midi": 80,
                    "time": 250.49999999999946,
                    "velocity": 0.5039370078740157,
                    "duration": 0.49166666666667425
                },
                {
                    "name": "D5",
                    "midi": 74,
                    "time": 250.49999999999946,
                    "velocity": 0.5039370078740157,
                    "duration": 0.49166666666667425
                },
                {
                    "name": "A5",
                    "midi": 81,
                    "time": 250.99999999999946,
                    "velocity": 0.5039370078740157,
                    "duration": 0.9916666666666742
                },
                {
                    "name": "C5",
                    "midi": 72,
                    "time": 250.99999999999946,
                    "velocity": 0.5039370078740157,
                    "duration": 0.9916666666666742
                },
                {
                    "name": "A5",
                    "midi": 81,
                    "time": 251.99999999999946,
                    "velocity": 0.5039370078740157,
                    "duration": 0.9916666666666742
                },
                {
                    "name": "B4",
                    "midi": 71,
                    "time": 251.99999999999946,
                    "velocity": 0.5039370078740157,
                    "duration": 0.9916666666666742
                },
                {
                    "name": "G#5",
                    "midi": 80,
                    "time": 252.99999999999946,
                    "velocity": 0.5039370078740157,
                    "duration": 0.07499999999998863
                },
                {
                    "name": "D5",
                    "midi": 74,
                    "time": 252.99999999999946,
                    "velocity": 0.5039370078740157,
                    "duration": 0.9916666666666458
                },
                {
                    "name": "A5",
                    "midi": 81,
                    "time": 253.08333333333277,
                    "velocity": 0.5039370078740157,
                    "duration": 0.07499999999998863
                },
                {
                    "name": "G#5",
                    "midi": 80,
                    "time": 253.1666666666661,
                    "velocity": 0.5039370078740157,
                    "duration": 0.825000000000017
                },
                {
                    "name": "F#5",
                    "midi": 78,
                    "time": 253.74999999999943,
                    "velocity": 0.5039370078740157,
                    "duration": 0.11666666666667425
                },
                {
                    "name": "G#5",
                    "midi": 80,
                    "time": 253.87499999999943,
                    "velocity": 0.5039370078740157,
                    "duration": 0.11666666666667425
                },
                {
                    "name": "A5",
                    "midi": 81,
                    "time": 253.99999999999943,
                    "velocity": 0.5039370078740157,
                    "duration": 1.9916666666666742
                },
                {
                    "name": "E5",
                    "midi": 76,
                    "time": 254.12499999999943,
                    "velocity": 0.5039370078740157,
                    "duration": 1.8666666666666742
                },
                {
                    "name": "C5",
                    "midi": 72,
                    "time": 254.24999999999943,
                    "velocity": 0.5039370078740157,
                    "duration": 1.7416666666666742
                },
                {
                    "name": "A4",
                    "midi": 69,
                    "time": 254.37499999999943,
                    "velocity": 0.5039370078740157,
                    "duration": 1.6166666666666742
                },
                {
                    "name": "E5",
                    "midi": 76,
                    "time": 255.99999999999943,
                    "velocity": 0.5039370078740157,
                    "duration": 0.9916666666666742
                },
                {
                    "name": "C5",
                    "midi": 72,
                    "time": 256.99999999999943,
                    "velocity": 0.5039370078740157,
                    "duration": 0.9916666666666742
                },
                {
                    "name": "A4",
                    "midi": 69,
                    "time": 257.99999999999943,
                    "velocity": 0.5039370078740157,
                    "duration": 0.07499999999998863
                },
                {
                    "name": "G4",
                    "midi": 67,
                    "time": 258.08333333333275,
                    "velocity": 0.5039370078740157,
                    "duration": 0.07499999999998863
                },
                {
                    "name": "A4",
                    "midi": 69,
                    "time": 258.16666666666606,
                    "velocity": 0.5039370078740157,
                    "duration": 0.8249999999999886
                },
                {
                    "name": "A4",
                    "midi": 69,
                    "time": 258.9999999999994,
                    "velocity": 0.5039370078740157,
                    "duration": 0.9916666666666742
                },
                {
                    "name": "F5",
                    "midi": 77,
                    "time": 259.9999999999994,
                    "velocity": 0.5039370078740157,
                    "duration": 0.9916666666666742
                },
                {
                    "name": "A4",
                    "midi": 69,
                    "time": 259.9999999999994,
                    "velocity": 0.5039370078740157,
                    "duration": 0.9916666666666742
                },
                {
                    "name": "D5",
                    "midi": 74,
                    "time": 260.9999999999994,
                    "velocity": 0.5039370078740157,
                    "duration": 0.9916666666666742
                },
                {
                    "name": "F4",
                    "midi": 65,
                    "time": 260.9999999999994,
                    "velocity": 0.5039370078740157,
                    "duration": 0.9916666666666742
                },
                {
                    "name": "B4",
                    "midi": 71,
                    "time": 261.9999999999994,
                    "velocity": 0.5039370078740157,
                    "duration": 0.07499999999998863
                },
                {
                    "name": "D4",
                    "midi": 62,
                    "time": 261.9999999999994,
                    "velocity": 0.5039370078740157,
                    "duration": 0.4916666666666174
                },
                {
                    "name": "A4",
                    "midi": 69,
                    "time": 262.0833333333327,
                    "velocity": 0.5039370078740157,
                    "duration": 0.07499999999998863
                },
                {
                    "name": "B4",
                    "midi": 71,
                    "time": 262.166666666666,
                    "velocity": 0.5039370078740157,
                    "duration": 1.8249999999999886
                },
                {
                    "name": "G5",
                    "midi": 79,
                    "time": 263.9999999999993,
                    "velocity": 0.5039370078740157,
                    "duration": 0.9916666666666742
                },
                {
                    "name": "F5",
                    "midi": 77,
                    "time": 264.9999999999993,
                    "velocity": 0.5039370078740157,
                    "duration": 0.15833333333335986
                },
                {
                    "name": "E5",
                    "midi": 76,
                    "time": 265.166666666666,
                    "velocity": 0.5039370078740157,
                    "duration": 0.8249999999999886
                },
                {
                    "name": "C5",
                    "midi": 72,
                    "time": 265.9999999999993,
                    "velocity": 0.5039370078740157,
                    "duration": 0.07499999999998863
                },
                {
                    "name": "D5",
                    "midi": 74,
                    "time": 266.08333333333263,
                    "velocity": 0.5039370078740157,
                    "duration": 0.07499999999998863
                },
                {
                    "name": "C5",
                    "midi": 72,
                    "time": 266.16666666666595,
                    "velocity": 0.5039370078740157,
                    "duration": 0.07499999999998863
                },
                {
                    "name": "D5",
                    "midi": 74,
                    "time": 266.24999999999926,
                    "velocity": 0.5039370078740157,
                    "duration": 0.07499999999998863
                },
                {
                    "name": "C5",
                    "midi": 72,
                    "time": 266.3333333333326,
                    "velocity": 0.5039370078740157,
                    "duration": 0.6583333333333599
                },
                {
                    "name": "B4",
                    "midi": 71,
                    "time": 266.99999999999926,
                    "velocity": 0.5039370078740157,
                    "duration": 0.15833333333335986
                },
                {
                    "name": "A4",
                    "midi": 69,
                    "time": 267.16666666666595,
                    "velocity": 0.5039370078740157,
                    "duration": 0.8249999999999886
                },
                {
                    "name": "C5",
                    "midi": 72,
                    "time": 267.74999999999926,
                    "velocity": 0.5039370078740157,
                    "duration": 0.24166666666667425
                },
                {
                    "name": "C5",
                    "midi": 72,
                    "time": 267.99999999999926,
                    "velocity": 0.5039370078740157,
                    "duration": 0.15833333333335986
                },
                {
                    "name": "D5",
                    "midi": 74,
                    "time": 268.16666666666595,
                    "velocity": 0.5039370078740157,
                    "duration": 0.07499999999998863
                },
                {
                    "name": "C5",
                    "midi": 72,
                    "time": 268.24999999999926,
                    "velocity": 0.5039370078740157,
                    "duration": 0.07499999999998863
                },
                {
                    "name": "D5",
                    "midi": 74,
                    "time": 268.3333333333326,
                    "velocity": 0.5039370078740157,
                    "duration": 0.6583333333333599
                },
                {
                    "name": "B4",
                    "midi": 71,
                    "time": 268.99999999999926,
                    "velocity": 0.5039370078740157,
                    "duration": 0.07499999999998863
                },
                {
                    "name": "A4",
                    "midi": 69,
                    "time": 269.0833333333326,
                    "velocity": 0.5039370078740157,
                    "duration": 0.07499999999998863
                },
                {
                    "name": "B4",
                    "midi": 71,
                    "time": 269.1666666666659,
                    "velocity": 0.5039370078740157,
                    "duration": 0.49166666666667425
                },
                {
                    "name": "A4",
                    "midi": 69,
                    "time": 269.7499999999992,
                    "velocity": 0.5039370078740157,
                    "duration": 0.11666666666667425
                },
                {
                    "name": "B4",
                    "midi": 71,
                    "time": 269.8749999999992,
                    "velocity": 0.5039370078740157,
                    "duration": 0.11666666666667425
                },
                {
                    "name": "C5",
                    "midi": 72,
                    "time": 269.9999999999992,
                    "velocity": 0.5039370078740157,
                    "duration": 1.9916666666666742
                },
                {
                    "name": "G4",
                    "midi": 67,
                    "time": 269.9999999999992,
                    "velocity": 0.5039370078740157,
                    "duration": 1.9916666666666742
                },
                {
                    "name": "E4",
                    "midi": 64,
                    "time": 269.9999999999992,
                    "velocity": 0.5039370078740157,
                    "duration": 1.9916666666666742
                },
                {
                    "name": "C6",
                    "midi": 84,
                    "time": 271.9999999999992,
                    "velocity": 0.5039370078740157,
                    "duration": 0.9916666666666742
                },
                {
                    "name": "E5",
                    "midi": 76,
                    "time": 271.9999999999992,
                    "velocity": 0.5039370078740157,
                    "duration": 0.9916666666666742
                },
                {
                    "name": "C6",
                    "midi": 84,
                    "time": 272.9999999999992,
                    "velocity": 0.5039370078740157,
                    "duration": 0.9916666666666742
                },
                {
                    "name": "E5",
                    "midi": 76,
                    "time": 272.9999999999992,
                    "velocity": 0.5039370078740157,
                    "duration": 0.9916666666666742
                },
                {
                    "name": "C6",
                    "midi": 84,
                    "time": 273.9999999999992,
                    "velocity": 0.5039370078740157,
                    "duration": 0.9916666666666742
                },
                {
                    "name": "D5",
                    "midi": 74,
                    "time": 273.9999999999992,
                    "velocity": 0.5039370078740157,
                    "duration": 0.9916666666666742
                },
                {
                    "name": "B5",
                    "midi": 83,
                    "time": 274.9999999999992,
                    "velocity": 0.5039370078740157,
                    "duration": 0.9916666666666742
                },
                {
                    "name": "D5",
                    "midi": 74,
                    "time": 274.9999999999992,
                    "velocity": 0.5039370078740157,
                    "duration": 0.9916666666666742
                },
                {
                    "name": "E5",
                    "midi": 76,
                    "time": 275.9999999999992,
                    "velocity": 0.5039370078740157,
                    "duration": 0.9916666666666742
                },
                {
                    "name": "D5",
                    "midi": 74,
                    "time": 275.9999999999992,
                    "velocity": 0.5039370078740157,
                    "duration": 0.9916666666666742
                },
                {
                    "name": "A5",
                    "midi": 81,
                    "time": 276.9999999999992,
                    "velocity": 0.5039370078740157,
                    "duration": 0.9916666666666742
                },
                {
                    "name": "C5",
                    "midi": 72,
                    "time": 276.9999999999992,
                    "velocity": 0.5039370078740157,
                    "duration": 0.9916666666666742
                },
                {
                    "name": "B4",
                    "midi": 71,
                    "time": 277.9999999999992,
                    "velocity": 0.5039370078740157,
                    "duration": 1.9916666666666174
                },
                {
                    "name": "G#5",
                    "midi": 80,
                    "time": 277.9999999999992,
                    "velocity": 0.5039370078740157,
                    "duration": 0.07499999999998863
                },
                {
                    "name": "A5",
                    "midi": 81,
                    "time": 278.0833333333325,
                    "velocity": 0.5039370078740157,
                    "duration": 0.07499999999998863
                },
                {
                    "name": "G#5",
                    "midi": 80,
                    "time": 278.16666666666583,
                    "velocity": 0.5039370078740157,
                    "duration": 1.8249999999999886
                },
                {
                    "name": "A5",
                    "midi": 81,
                    "time": 279.99999999999915,
                    "velocity": 0.5039370078740157,
                    "duration": 0.9916666666666742
                },
                {
                    "name": "E5",
                    "midi": 76,
                    "time": 279.99999999999915,
                    "velocity": 0.5039370078740157,
                    "duration": 0.9916666666666742
                },
                {
                    "name": "C6",
                    "midi": 84,
                    "time": 280.99999999999915,
                    "velocity": 0.5039370078740157,
                    "duration": 0.9916666666666742
                },
                {
                    "name": "E5",
                    "midi": 76,
                    "time": 280.99999999999915,
                    "velocity": 0.5039370078740157,
                    "duration": 0.9916666666666742
                },
                {
                    "name": "F#5",
                    "midi": 78,
                    "time": 281.99999999999915,
                    "velocity": 0.5039370078740157,
                    "duration": 0.49166666666667425
                },
                {
                    "name": "E5",
                    "midi": 76,
                    "time": 281.99999999999915,
                    "velocity": 0.5039370078740157,
                    "duration": 0.49166666666667425
                },
                {
                    "name": "G#5",
                    "midi": 80,
                    "time": 282.49999999999915,
                    "velocity": 0.5039370078740157,
                    "duration": 0.49166666666667425
                },
                {
                    "name": "D5",
                    "midi": 74,
                    "time": 282.49999999999915,
                    "velocity": 0.5039370078740157,
                    "duration": 0.49166666666667425
                },
                {
                    "name": "A5",
                    "midi": 81,
                    "time": 282.99999999999915,
                    "velocity": 0.5039370078740157,
                    "duration": 0.9916666666666742
                },
                {
                    "name": "C5",
                    "midi": 72,
                    "time": 282.99999999999915,
                    "velocity": 0.5039370078740157,
                    "duration": 0.9916666666666742
                },
                {
                    "name": "A5",
                    "midi": 81,
                    "time": 283.99999999999915,
                    "velocity": 0.5039370078740157,
                    "duration": 0.9916666666666742
                },
                {
                    "name": "B4",
                    "midi": 71,
                    "time": 283.99999999999915,
                    "velocity": 0.5039370078740157,
                    "duration": 0.9916666666666742
                },
                {
                    "name": "G#5",
                    "midi": 80,
                    "time": 284.99999999999915,
                    "velocity": 0.5039370078740157,
                    "duration": 0.07499999999998863
                },
                {
                    "name": "D5",
                    "midi": 74,
                    "time": 284.99999999999915,
                    "velocity": 0.5039370078740157,
                    "duration": 0.9916666666666174
                },
                {
                    "name": "A5",
                    "midi": 81,
                    "time": 285.08333333333246,
                    "velocity": 0.5039370078740157,
                    "duration": 0.07499999999998863
                },
                {
                    "name": "G#5",
                    "midi": 80,
                    "time": 285.1666666666658,
                    "velocity": 0.5039370078740157,
                    "duration": 0.8249999999999886
                },
                {
                    "name": "F#5",
                    "midi": 78,
                    "time": 285.7499999999991,
                    "velocity": 0.5039370078740157,
                    "duration": 0.11666666666667425
                },
                {
                    "name": "G#5",
                    "midi": 80,
                    "time": 285.8749999999991,
                    "velocity": 0.5039370078740157,
                    "duration": 0.11666666666667425
                },
                {
                    "name": "A5",
                    "midi": 81,
                    "time": 285.9999999999991,
                    "velocity": 0.5039370078740157,
                    "duration": 1.9916666666666742
                },
                {
                    "name": "E5",
                    "midi": 76,
                    "time": 286.1249999999991,
                    "velocity": 0.5039370078740157,
                    "duration": 1.8666666666666742
                },
                {
                    "name": "C5",
                    "midi": 72,
                    "time": 286.2499999999991,
                    "velocity": 0.5039370078740157,
                    "duration": 1.7416666666666742
                },
                {
                    "name": "A4",
                    "midi": 69,
                    "time": 286.3749999999991,
                    "velocity": 0.5039370078740157,
                    "duration": 1.6166666666666742
                },
                {
                    "name": "C5",
                    "midi": 72,
                    "time": 287.9999999999991,
                    "velocity": 0.5039370078740157,
                    "duration": 0.9916666666666742
                },
                {
                    "name": "A4",
                    "midi": 69,
                    "time": 288.2499999999991,
                    "velocity": 0.5039370078740157,
                    "duration": 0.24166666666667425
                },
                {
                    "name": "G4",
                    "midi": 67,
                    "time": 288.4999999999991,
                    "velocity": 0.5039370078740157,
                    "duration": 0.24166666666667425
                },
                {
                    "name": "F4",
                    "midi": 65,
                    "time": 288.7499999999991,
                    "velocity": 0.5039370078740157,
                    "duration": 0.24166666666667425
                },
                {
                    "name": "C5",
                    "midi": 72,
                    "time": 288.9999999999991,
                    "velocity": 0.5039370078740157,
                    "duration": 0.9916666666666742
                },
                {
                    "name": "E4",
                    "midi": 64,
                    "time": 288.9999999999991,
                    "velocity": 0.5039370078740157,
                    "duration": 0.24166666666667425
                },
                {
                    "name": "F4",
                    "midi": 65,
                    "time": 289.2499999999991,
                    "velocity": 0.5039370078740157,
                    "duration": 0.24166666666667425
                },
                {
                    "name": "D4",
                    "midi": 62,
                    "time": 289.4999999999991,
                    "velocity": 0.5039370078740157,
                    "duration": 0.24166666666667425
                },
                {
                    "name": "E4",
                    "midi": 64,
                    "time": 289.7499999999991,
                    "velocity": 0.5039370078740157,
                    "duration": 0.24166666666667425
                },
                {
                    "name": "B4",
                    "midi": 71,
                    "time": 289.9999999999991,
                    "velocity": 0.5039370078740157,
                    "duration": 0.9916666666666742
                },
                {
                    "name": "F4",
                    "midi": 65,
                    "time": 289.9999999999991,
                    "velocity": 0.5039370078740157,
                    "duration": 0.24166666666667425
                },
                {
                    "name": "G4",
                    "midi": 67,
                    "time": 290.2499999999991,
                    "velocity": 0.5039370078740157,
                    "duration": 0.24166666666667425
                },
                {
                    "name": "E4",
                    "midi": 64,
                    "time": 290.4999999999991,
                    "velocity": 0.5039370078740157,
                    "duration": 0.24166666666667425
                },
                {
                    "name": "F4",
                    "midi": 65,
                    "time": 290.7499999999991,
                    "velocity": 0.5039370078740157,
                    "duration": 0.24166666666667425
                },
                {
                    "name": "A4",
                    "midi": 69,
                    "time": 290.9999999999991,
                    "velocity": 0.5039370078740157,
                    "duration": 0.9916666666666742
                },
                {
                    "name": "D4",
                    "midi": 62,
                    "time": 290.9999999999991,
                    "velocity": 0.5039370078740157,
                    "duration": 0.24166666666667425
                },
                {
                    "name": "E4",
                    "midi": 64,
                    "time": 291.2499999999991,
                    "velocity": 0.5039370078740157,
                    "duration": 0.24166666666667425
                },
                {
                    "name": "C4",
                    "midi": 60,
                    "time": 291.4999999999991,
                    "velocity": 0.5039370078740157,
                    "duration": 0.24166666666667425
                },
                {
                    "name": "D4",
                    "midi": 62,
                    "time": 291.7499999999991,
                    "velocity": 0.5039370078740157,
                    "duration": 0.24166666666667425
                },
                {
                    "name": "A4",
                    "midi": 69,
                    "time": 291.9999999999991,
                    "velocity": 0.5039370078740157,
                    "duration": 0.9916666666666742
                },
                {
                    "name": "B3",
                    "midi": 59,
                    "time": 291.9999999999991,
                    "velocity": 0.5039370078740157,
                    "duration": 0.24166666666667425
                },
                {
                    "name": "D4",
                    "midi": 62,
                    "time": 292.2499999999991,
                    "velocity": 0.5039370078740157,
                    "duration": 0.24166666666667425
                },
                {
                    "name": "C4",
                    "midi": 60,
                    "time": 292.4999999999991,
                    "velocity": 0.5039370078740157,
                    "duration": 0.24166666666667425
                },
                {
                    "name": "D4",
                    "midi": 62,
                    "time": 292.7499999999991,
                    "velocity": 0.5039370078740157,
                    "duration": 0.24166666666667425
                },
                {
                    "name": "G#4",
                    "midi": 68,
                    "time": 292.9999999999991,
                    "velocity": 0.5039370078740157,
                    "duration": 0.9916666666666742
                },
                {
                    "name": "E4",
                    "midi": 64,
                    "time": 292.9999999999991,
                    "velocity": 0.5039370078740157,
                    "duration": 0.24166666666667425
                },
                {
                    "name": "F4",
                    "midi": 65,
                    "time": 293.2499999999991,
                    "velocity": 0.5039370078740157,
                    "duration": 0.24166666666667425
                },
                {
                    "name": "D4",
                    "midi": 62,
                    "time": 293.4999999999991,
                    "velocity": 0.5039370078740157,
                    "duration": 0.24166666666667425
                },
                {
                    "name": "E4",
                    "midi": 64,
                    "time": 293.7499999999991,
                    "velocity": 0.5039370078740157,
                    "duration": 0.24166666666667425
                },
                {
                    "name": "C4",
                    "midi": 60,
                    "time": 293.9999999999991,
                    "velocity": 0.5039370078740157,
                    "duration": 0.24166666666667425
                },
                {
                    "name": "A4",
                    "midi": 69,
                    "time": 293.9999999999991,
                    "velocity": 0.5039370078740157,
                    "duration": 1.9916666666666742
                },
                {
                    "name": "D4",
                    "midi": 62,
                    "time": 294.2499999999991,
                    "velocity": 0.5039370078740157,
                    "duration": 0.24166666666667425
                },
                {
                    "name": "B3",
                    "midi": 59,
                    "time": 294.4999999999991,
                    "velocity": 0.5039370078740157,
                    "duration": 0.24166666666667425
                },
                {
                    "name": "C4",
                    "midi": 60,
                    "time": 294.7499999999991,
                    "velocity": 0.5039370078740157,
                    "duration": 0.24166666666667425
                },
                {
                    "name": "A3",
                    "midi": 57,
                    "time": 294.9999999999991,
                    "velocity": 0.5039370078740157,
                    "duration": 0.24166666666667425
                },
                {
                    "name": "E4",
                    "midi": 64,
                    "time": 295.2499999999991,
                    "velocity": 0.5039370078740157,
                    "duration": 0.24166666666667425
                },
                {
                    "name": "D4",
                    "midi": 62,
                    "time": 295.4999999999991,
                    "velocity": 0.5039370078740157,
                    "duration": 0.24166666666667425
                },
                {
                    "name": "E4",
                    "midi": 64,
                    "time": 295.7499999999991,
                    "velocity": 0.5039370078740157,
                    "duration": 0.24166666666667425
                },
                {
                    "name": "A4",
                    "midi": 69,
                    "time": 295.9999999999991,
                    "velocity": 0.5039370078740157,
                    "duration": 0.9916666666666742
                },
                {
                    "name": "F4",
                    "midi": 65,
                    "time": 295.9999999999991,
                    "velocity": 0.5039370078740157,
                    "duration": 0.24166666666667425
                },
                {
                    "name": "E4",
                    "midi": 64,
                    "time": 296.2499999999991,
                    "velocity": 0.5039370078740157,
                    "duration": 0.24166666666667425
                },
                {
                    "name": "D4",
                    "midi": 62,
                    "time": 296.4999999999991,
                    "velocity": 0.5039370078740157,
                    "duration": 0.24166666666667425
                },
                {
                    "name": "E4",
                    "midi": 64,
                    "time": 296.7499999999991,
                    "velocity": 0.5039370078740157,
                    "duration": 0.24166666666667425
                },
                {
                    "name": "B4",
                    "midi": 71,
                    "time": 296.9999999999991,
                    "velocity": 0.5039370078740157,
                    "duration": 0.9916666666666742
                },
                {
                    "name": "F4",
                    "midi": 65,
                    "time": 296.9999999999991,
                    "velocity": 0.5039370078740157,
                    "duration": 0.24166666666667425
                },
                {
                    "name": "G4",
                    "midi": 67,
                    "time": 297.2499999999991,
                    "velocity": 0.5039370078740157,
                    "duration": 0.24166666666667425
                },
                {
                    "name": "D4",
                    "midi": 62,
                    "time": 297.4999999999991,
                    "velocity": 0.5039370078740157,
                    "duration": 0.24166666666667425
                },
                {
                    "name": "F4",
                    "midi": 65,
                    "time": 297.7499999999991,
                    "velocity": 0.5039370078740157,
                    "duration": 0.24166666666667425
                },
                {
                    "name": "C5",
                    "midi": 72,
                    "time": 297.9999999999991,
                    "velocity": 0.5039370078740157,
                    "duration": 0.9916666666666742
                },
                {
                    "name": "E4",
                    "midi": 64,
                    "time": 297.9999999999991,
                    "velocity": 0.5039370078740157,
                    "duration": 0.24166666666667425
                },
                {
                    "name": "A4",
                    "midi": 69,
                    "time": 298.2499999999991,
                    "velocity": 0.5039370078740157,
                    "duration": 0.24166666666667425
                },
                {
                    "name": "G#4",
                    "midi": 68,
                    "time": 298.4999999999991,
                    "velocity": 0.5039370078740157,
                    "duration": 0.24166666666667425
                },
                {
                    "name": "A4",
                    "midi": 69,
                    "time": 298.7499999999991,
                    "velocity": 0.5039370078740157,
                    "duration": 0.24166666666667425
                },
                {
                    "name": "C5",
                    "midi": 72,
                    "time": 298.9999999999991,
                    "velocity": 0.5039370078740157,
                    "duration": 0.9916666666666742
                },
                {
                    "name": "E4",
                    "midi": 64,
                    "time": 298.9999999999991,
                    "velocity": 0.5039370078740157,
                    "duration": 0.24166666666667425
                },
                {
                    "name": "G4",
                    "midi": 67,
                    "time": 299.2499999999991,
                    "velocity": 0.5039370078740157,
                    "duration": 0.24166666666667425
                },
                {
                    "name": "F4",
                    "midi": 65,
                    "time": 299.4999999999991,
                    "velocity": 0.5039370078740157,
                    "duration": 0.24166666666667425
                },
                {
                    "name": "E4",
                    "midi": 64,
                    "time": 299.7499999999991,
                    "velocity": 0.5039370078740157,
                    "duration": 0.24166666666667425
                },
                {
                    "name": "B4",
                    "midi": 71,
                    "time": 299.9999999999991,
                    "velocity": 0.5039370078740157,
                    "duration": 0.9916666666666742
                },
                {
                    "name": "F4",
                    "midi": 65,
                    "time": 299.9999999999991,
                    "velocity": 0.5039370078740157,
                    "duration": 0.24166666666667425
                },
                {
                    "name": "G4",
                    "midi": 67,
                    "time": 300.2499999999991,
                    "velocity": 0.5039370078740157,
                    "duration": 0.24166666666667425
                },
                {
                    "name": "E4",
                    "midi": 64,
                    "time": 300.4999999999991,
                    "velocity": 0.5039370078740157,
                    "duration": 0.24166666666667425
                },
                {
                    "name": "F4",
                    "midi": 65,
                    "time": 300.7499999999991,
                    "velocity": 0.5039370078740157,
                    "duration": 0.24166666666667425
                },
                {
                    "name": "D4",
                    "midi": 62,
                    "time": 300.9999999999991,
                    "velocity": 0.5039370078740157,
                    "duration": 0.24166666666667425
                },
                {
                    "name": "A4",
                    "midi": 69,
                    "time": 300.9999999999991,
                    "velocity": 0.5039370078740157,
                    "duration": 0.9916666666666742
                },
                {
                    "name": "E4",
                    "midi": 64,
                    "time": 301.2499999999991,
                    "velocity": 0.5039370078740157,
                    "duration": 0.24166666666667425
                },
                {
                    "name": "C4",
                    "midi": 60,
                    "time": 301.4999999999991,
                    "velocity": 0.5039370078740157,
                    "duration": 0.24166666666667425
                },
                {
                    "name": "D4",
                    "midi": 62,
                    "time": 301.7499999999991,
                    "velocity": 0.5039370078740157,
                    "duration": 0.24166666666667425
                },
                {
                    "name": "G#4",
                    "midi": 68,
                    "time": 301.9999999999991,
                    "velocity": 0.5039370078740157,
                    "duration": 1.9916666666666742
                },
                {
                    "name": "B3",
                    "midi": 59,
                    "time": 301.9999999999991,
                    "velocity": 0.5039370078740157,
                    "duration": 1.9916666666666742
                },
                {
                    "name": "C5",
                    "midi": 72,
                    "time": 303.9999999999991,
                    "velocity": 0.5039370078740157,
                    "duration": 0.9916666666666742
                },
                {
                    "name": "A4",
                    "midi": 69,
                    "time": 304.2499999999991,
                    "velocity": 0.5039370078740157,
                    "duration": 0.24166666666667425
                },
                {
                    "name": "G4",
                    "midi": 67,
                    "time": 304.4999999999991,
                    "velocity": 0.5039370078740157,
                    "duration": 0.24166666666667425
                },
                {
                    "name": "F4",
                    "midi": 65,
                    "time": 304.7499999999991,
                    "velocity": 0.5039370078740157,
                    "duration": 0.24166666666667425
                },
                {
                    "name": "C5",
                    "midi": 72,
                    "time": 304.9999999999991,
                    "velocity": 0.5039370078740157,
                    "duration": 0.9916666666666742
                },
                {
                    "name": "E4",
                    "midi": 64,
                    "time": 304.9999999999991,
                    "velocity": 0.5039370078740157,
                    "duration": 0.24166666666667425
                },
                {
                    "name": "F4",
                    "midi": 65,
                    "time": 305.2499999999991,
                    "velocity": 0.5039370078740157,
                    "duration": 0.24166666666667425
                },
                {
                    "name": "D4",
                    "midi": 62,
                    "time": 305.4999999999991,
                    "velocity": 0.5039370078740157,
                    "duration": 0.24166666666667425
                },
                {
                    "name": "E4",
                    "midi": 64,
                    "time": 305.7499999999991,
                    "velocity": 0.5039370078740157,
                    "duration": 0.24166666666667425
                },
                {
                    "name": "B4",
                    "midi": 71,
                    "time": 305.9999999999991,
                    "velocity": 0.5039370078740157,
                    "duration": 0.9916666666666742
                },
                {
                    "name": "F4",
                    "midi": 65,
                    "time": 305.9999999999991,
                    "velocity": 0.5039370078740157,
                    "duration": 0.24166666666667425
                },
                {
                    "name": "G4",
                    "midi": 67,
                    "time": 306.2499999999991,
                    "velocity": 0.5039370078740157,
                    "duration": 0.24166666666667425
                },
                {
                    "name": "E4",
                    "midi": 64,
                    "time": 306.4999999999991,
                    "velocity": 0.5039370078740157,
                    "duration": 0.24166666666667425
                },
                {
                    "name": "F4",
                    "midi": 65,
                    "time": 306.7499999999991,
                    "velocity": 0.5039370078740157,
                    "duration": 0.24166666666667425
                },
                {
                    "name": "A4",
                    "midi": 69,
                    "time": 306.9999999999991,
                    "velocity": 0.5039370078740157,
                    "duration": 0.9916666666666742
                },
                {
                    "name": "D4",
                    "midi": 62,
                    "time": 306.9999999999991,
                    "velocity": 0.5039370078740157,
                    "duration": 0.24166666666667425
                },
                {
                    "name": "E4",
                    "midi": 64,
                    "time": 307.2499999999991,
                    "velocity": 0.5039370078740157,
                    "duration": 0.24166666666667425
                },
                {
                    "name": "C4",
                    "midi": 60,
                    "time": 307.4999999999991,
                    "velocity": 0.5039370078740157,
                    "duration": 0.24166666666667425
                },
                {
                    "name": "D4",
                    "midi": 62,
                    "time": 307.7499999999991,
                    "velocity": 0.5039370078740157,
                    "duration": 0.24166666666667425
                },
                {
                    "name": "A4",
                    "midi": 69,
                    "time": 307.9999999999991,
                    "velocity": 0.5039370078740157,
                    "duration": 0.9916666666666742
                },
                {
                    "name": "B3",
                    "midi": 59,
                    "time": 307.9999999999991,
                    "velocity": 0.5039370078740157,
                    "duration": 0.24166666666667425
                },
                {
                    "name": "D4",
                    "midi": 62,
                    "time": 308.2499999999991,
                    "velocity": 0.5039370078740157,
                    "duration": 0.24166666666667425
                },
                {
                    "name": "C4",
                    "midi": 60,
                    "time": 308.4999999999991,
                    "velocity": 0.5039370078740157,
                    "duration": 0.24166666666667425
                },
                {
                    "name": "D4",
                    "midi": 62,
                    "time": 308.7499999999991,
                    "velocity": 0.5039370078740157,
                    "duration": 0.24166666666667425
                },
                {
                    "name": "G#4",
                    "midi": 68,
                    "time": 308.9999999999991,
                    "velocity": 0.5039370078740157,
                    "duration": 0.9916666666666742
                },
                {
                    "name": "E4",
                    "midi": 64,
                    "time": 308.9999999999991,
                    "velocity": 0.5039370078740157,
                    "duration": 0.24166666666667425
                },
                {
                    "name": "F4",
                    "midi": 65,
                    "time": 309.2499999999991,
                    "velocity": 0.5039370078740157,
                    "duration": 0.24166666666667425
                },
                {
                    "name": "D4",
                    "midi": 62,
                    "time": 309.4999999999991,
                    "velocity": 0.5039370078740157,
                    "duration": 0.24166666666667425
                },
                {
                    "name": "E4",
                    "midi": 64,
                    "time": 309.7499999999991,
                    "velocity": 0.5039370078740157,
                    "duration": 0.24166666666667425
                },
                {
                    "name": "C4",
                    "midi": 60,
                    "time": 309.9999999999991,
                    "velocity": 0.5039370078740157,
                    "duration": 0.24166666666667425
                },
                {
                    "name": "A4",
                    "midi": 69,
                    "time": 309.9999999999991,
                    "velocity": 0.5039370078740157,
                    "duration": 1.9916666666666742
                },
                {
                    "name": "D4",
                    "midi": 62,
                    "time": 310.2499999999991,
                    "velocity": 0.5039370078740157,
                    "duration": 0.24166666666667425
                },
                {
                    "name": "B3",
                    "midi": 59,
                    "time": 310.4999999999991,
                    "velocity": 0.5039370078740157,
                    "duration": 0.24166666666667425
                },
                {
                    "name": "C4",
                    "midi": 60,
                    "time": 310.7499999999991,
                    "velocity": 0.5039370078740157,
                    "duration": 0.24166666666667425
                },
                {
                    "name": "A3",
                    "midi": 57,
                    "time": 310.9999999999991,
                    "velocity": 0.5039370078740157,
                    "duration": 0.24166666666667425
                },
                {
                    "name": "E4",
                    "midi": 64,
                    "time": 311.2499999999991,
                    "velocity": 0.5039370078740157,
                    "duration": 0.24166666666667425
                },
                {
                    "name": "D4",
                    "midi": 62,
                    "time": 311.4999999999991,
                    "velocity": 0.5039370078740157,
                    "duration": 0.24166666666667425
                },
                {
                    "name": "E4",
                    "midi": 64,
                    "time": 311.7499999999991,
                    "velocity": 0.5039370078740157,
                    "duration": 0.24166666666667425
                },
                {
                    "name": "A4",
                    "midi": 69,
                    "time": 311.9999999999991,
                    "velocity": 0.5039370078740157,
                    "duration": 0.9916666666666742
                },
                {
                    "name": "F4",
                    "midi": 65,
                    "time": 311.9999999999991,
                    "velocity": 0.5039370078740157,
                    "duration": 0.24166666666667425
                },
                {
                    "name": "E4",
                    "midi": 64,
                    "time": 312.2499999999991,
                    "velocity": 0.5039370078740157,
                    "duration": 0.24166666666667425
                },
                {
                    "name": "D4",
                    "midi": 62,
                    "time": 312.4999999999991,
                    "velocity": 0.5039370078740157,
                    "duration": 0.24166666666667425
                },
                {
                    "name": "E4",
                    "midi": 64,
                    "time": 312.7499999999991,
                    "velocity": 0.5039370078740157,
                    "duration": 0.24166666666667425
                },
                {
                    "name": "B4",
                    "midi": 71,
                    "time": 312.9999999999991,
                    "velocity": 0.5039370078740157,
                    "duration": 0.9916666666666742
                },
                {
                    "name": "F4",
                    "midi": 65,
                    "time": 312.9999999999991,
                    "velocity": 0.5039370078740157,
                    "duration": 0.24166666666667425
                },
                {
                    "name": "G4",
                    "midi": 67,
                    "time": 313.2499999999991,
                    "velocity": 0.5039370078740157,
                    "duration": 0.24166666666667425
                },
                {
                    "name": "D4",
                    "midi": 62,
                    "time": 313.4999999999991,
                    "velocity": 0.5039370078740157,
                    "duration": 0.24166666666667425
                },
                {
                    "name": "F4",
                    "midi": 65,
                    "time": 313.7499999999991,
                    "velocity": 0.5039370078740157,
                    "duration": 0.24166666666667425
                },
                {
                    "name": "C5",
                    "midi": 72,
                    "time": 313.9999999999991,
                    "velocity": 0.5039370078740157,
                    "duration": 0.9916666666666742
                },
                {
                    "name": "E4",
                    "midi": 64,
                    "time": 313.9999999999991,
                    "velocity": 0.5039370078740157,
                    "duration": 0.24166666666667425
                },
                {
                    "name": "A4",
                    "midi": 69,
                    "time": 314.2499999999991,
                    "velocity": 0.5039370078740157,
                    "duration": 0.24166666666667425
                },
                {
                    "name": "G#4",
                    "midi": 68,
                    "time": 314.4999999999991,
                    "velocity": 0.5039370078740157,
                    "duration": 0.24166666666667425
                },
                {
                    "name": "A4",
                    "midi": 69,
                    "time": 314.7499999999991,
                    "velocity": 0.5039370078740157,
                    "duration": 0.24166666666667425
                },
                {
                    "name": "C5",
                    "midi": 72,
                    "time": 314.9999999999991,
                    "velocity": 0.5039370078740157,
                    "duration": 0.9916666666666742
                },
                {
                    "name": "E4",
                    "midi": 64,
                    "time": 314.9999999999991,
                    "velocity": 0.5039370078740157,
                    "duration": 0.24166666666667425
                },
                {
                    "name": "G4",
                    "midi": 67,
                    "time": 315.2499999999991,
                    "velocity": 0.5039370078740157,
                    "duration": 0.24166666666667425
                },
                {
                    "name": "F4",
                    "midi": 65,
                    "time": 315.4999999999991,
                    "velocity": 0.5039370078740157,
                    "duration": 0.24166666666667425
                },
                {
                    "name": "E4",
                    "midi": 64,
                    "time": 315.7499999999991,
                    "velocity": 0.5039370078740157,
                    "duration": 0.24166666666667425
                },
                {
                    "name": "B4",
                    "midi": 71,
                    "time": 315.9999999999991,
                    "velocity": 0.5039370078740157,
                    "duration": 0.9916666666666742
                },
                {
                    "name": "F4",
                    "midi": 65,
                    "time": 315.9999999999991,
                    "velocity": 0.5039370078740157,
                    "duration": 0.24166666666667425
                },
                {
                    "name": "G4",
                    "midi": 67,
                    "time": 316.2499999999991,
                    "velocity": 0.5039370078740157,
                    "duration": 0.24166666666667425
                },
                {
                    "name": "E4",
                    "midi": 64,
                    "time": 316.4999999999991,
                    "velocity": 0.5039370078740157,
                    "duration": 0.24166666666667425
                },
                {
                    "name": "F4",
                    "midi": 65,
                    "time": 316.7499999999991,
                    "velocity": 0.5039370078740157,
                    "duration": 0.24166666666667425
                },
                {
                    "name": "D4",
                    "midi": 62,
                    "time": 316.9999999999991,
                    "velocity": 0.5039370078740157,
                    "duration": 0.24166666666667425
                },
                {
                    "name": "A4",
                    "midi": 69,
                    "time": 316.9999999999991,
                    "velocity": 0.5039370078740157,
                    "duration": 0.9916666666666742
                },
                {
                    "name": "E4",
                    "midi": 64,
                    "time": 317.2499999999991,
                    "velocity": 0.5039370078740157,
                    "duration": 0.24166666666667425
                },
                {
                    "name": "C4",
                    "midi": 60,
                    "time": 317.4999999999991,
                    "velocity": 0.5039370078740157,
                    "duration": 0.24166666666667425
                },
                {
                    "name": "D4",
                    "midi": 62,
                    "time": 317.7499999999991,
                    "velocity": 0.5039370078740157,
                    "duration": 0.24166666666667425
                },
                {
                    "name": "G#4",
                    "midi": 68,
                    "time": 317.9999999999991,
                    "velocity": 0.5039370078740157,
                    "duration": 1.9916666666666742
                },
                {
                    "name": "B3",
                    "midi": 59,
                    "time": 317.9999999999991,
                    "velocity": 0.5039370078740157,
                    "duration": 1.9916666666666742
                },
                {
                    "name": "E5",
                    "midi": 76,
                    "time": 319.9999999999991,
                    "velocity": 0.5039370078740157,
                    "duration": 0.9916666666666742
                },
                {
                    "name": "C5",
                    "midi": 72,
                    "time": 320.2499999999991,
                    "velocity": 0.5039370078740157,
                    "duration": 0.24166666666667425
                },
                {
                    "name": "B4",
                    "midi": 71,
                    "time": 320.4999999999991,
                    "velocity": 0.5039370078740157,
                    "duration": 0.24166666666667425
                },
                {
                    "name": "A4",
                    "midi": 69,
                    "time": 320.7499999999991,
                    "velocity": 0.5039370078740157,
                    "duration": 0.24166666666667425
                },
                {
                    "name": "G4",
                    "midi": 67,
                    "time": 320.9999999999991,
                    "velocity": 0.5039370078740157,
                    "duration": 0.24166666666667425
                },
                {
                    "name": "C5",
                    "midi": 72,
                    "time": 320.9999999999991,
                    "velocity": 0.5039370078740157,
                    "duration": 0.9916666666666742
                },
                {
                    "name": "F4",
                    "midi": 65,
                    "time": 321.2499999999991,
                    "velocity": 0.5039370078740157,
                    "duration": 0.24166666666667425
                },
                {
                    "name": "E4",
                    "midi": 64,
                    "time": 321.4999999999991,
                    "velocity": 0.5039370078740157,
                    "duration": 0.24166666666667425
                },
                {
                    "name": "D4",
                    "midi": 62,
                    "time": 321.7499999999991,
                    "velocity": 0.5039370078740157,
                    "duration": 0.24166666666667425
                },
                {
                    "name": "C4",
                    "midi": 60,
                    "time": 321.9999999999991,
                    "velocity": 0.5039370078740157,
                    "duration": 0.24166666666667425
                },
                {
                    "name": "A4",
                    "midi": 69,
                    "time": 321.9999999999991,
                    "velocity": 0.5039370078740157,
                    "duration": 1.9916666666666742
                },
                {
                    "name": "E4",
                    "midi": 64,
                    "time": 322.2499999999991,
                    "velocity": 0.5039370078740157,
                    "duration": 0.24166666666667425
                },
                {
                    "name": "D4",
                    "midi": 62,
                    "time": 322.4999999999991,
                    "velocity": 0.5039370078740157,
                    "duration": 0.24166666666667425
                },
                {
                    "name": "E4",
                    "midi": 64,
                    "time": 322.7499999999991,
                    "velocity": 0.5039370078740157,
                    "duration": 0.24166666666667425
                },
                {
                    "name": "F4",
                    "midi": 65,
                    "time": 322.9999999999991,
                    "velocity": 0.5039370078740157,
                    "duration": 0.24166666666667425
                },
                {
                    "name": "G4",
                    "midi": 67,
                    "time": 323.2499999999991,
                    "velocity": 0.5039370078740157,
                    "duration": 0.24166666666667425
                },
                {
                    "name": "F4",
                    "midi": 65,
                    "time": 323.4999999999991,
                    "velocity": 0.5039370078740157,
                    "duration": 0.24166666666667425
                },
                {
                    "name": "G4",
                    "midi": 67,
                    "time": 323.7499999999991,
                    "velocity": 0.5039370078740157,
                    "duration": 0.24166666666667425
                },
                {
                    "name": "A4",
                    "midi": 69,
                    "time": 323.9999999999991,
                    "velocity": 0.5039370078740157,
                    "duration": 0.24166666666667425
                },
                {
                    "name": "F5",
                    "midi": 77,
                    "time": 323.9999999999991,
                    "velocity": 0.5039370078740157,
                    "duration": 1.4916666666666742
                },
                {
                    "name": "C5",
                    "midi": 72,
                    "time": 324.2499999999991,
                    "velocity": 0.5039370078740157,
                    "duration": 0.24166666666667425
                },
                {
                    "name": "B4",
                    "midi": 71,
                    "time": 324.4999999999991,
                    "velocity": 0.5039370078740157,
                    "duration": 0.24166666666667425
                },
                {
                    "name": "C5",
                    "midi": 72,
                    "time": 324.7499999999991,
                    "velocity": 0.5039370078740157,
                    "duration": 0.24166666666667425
                },
                {
                    "name": "D5",
                    "midi": 74,
                    "time": 324.9999999999991,
                    "velocity": 0.5039370078740157,
                    "duration": 0.24166666666667425
                },
                {
                    "name": "G4",
                    "midi": 67,
                    "time": 325.2499999999991,
                    "velocity": 0.5039370078740157,
                    "duration": 0.24166666666667425
                },
                {
                    "name": "E5",
                    "midi": 76,
                    "time": 325.4999999999991,
                    "velocity": 0.5039370078740157,
                    "duration": 0.24166666666667425
                },
                {
                    "name": "E5",
                    "midi": 76,
                    "time": 325.4999999999991,
                    "velocity": 0.5039370078740157,
                    "duration": 0.49166666666667425
                },
                {
                    "name": "A4",
                    "midi": 69,
                    "time": 325.7499999999991,
                    "velocity": 0.5039370078740157,
                    "duration": 0.24166666666667425
                },
                {
                    "name": "B4",
                    "midi": 71,
                    "time": 325.9999999999991,
                    "velocity": 0.5039370078740157,
                    "duration": 0.24166666666667425
                },
                {
                    "name": "D5",
                    "midi": 74,
                    "time": 325.9999999999991,
                    "velocity": 0.5039370078740157,
                    "duration": 0.9916666666666742
                },
                {
                    "name": "G4",
                    "midi": 67,
                    "time": 326.2499999999991,
                    "velocity": 0.5039370078740157,
                    "duration": 0.24166666666667425
                },
                {
                    "name": "A4",
                    "midi": 69,
                    "time": 326.4999999999991,
                    "velocity": 0.5039370078740157,
                    "duration": 0.24166666666667425
                },
                {
                    "name": "B4",
                    "midi": 71,
                    "time": 326.7499999999991,
                    "velocity": 0.5039370078740157,
                    "duration": 0.24166666666667425
                },
                {
                    "name": "C5",
                    "midi": 72,
                    "time": 326.9999999999991,
                    "velocity": 0.5039370078740157,
                    "duration": 0.24166666666667425
                },
                {
                    "name": "D5",
                    "midi": 74,
                    "time": 327.2499999999991,
                    "velocity": 0.5039370078740157,
                    "duration": 0.24166666666667425
                },
                {
                    "name": "E5",
                    "midi": 76,
                    "time": 327.4999999999991,
                    "velocity": 0.5039370078740157,
                    "duration": 0.24166666666667425
                },
                {
                    "name": "F5",
                    "midi": 77,
                    "time": 327.7499999999991,
                    "velocity": 0.5039370078740157,
                    "duration": 0.24166666666667425
                },
                {
                    "name": "G5",
                    "midi": 79,
                    "time": 327.9999999999991,
                    "velocity": 0.5039370078740157,
                    "duration": 0.24166666666667425
                },
                {
                    "name": "G5",
                    "midi": 79,
                    "time": 327.9999999999991,
                    "velocity": 0.5039370078740157,
                    "duration": 0.9916666666666742
                },
                {
                    "name": "F5",
                    "midi": 77,
                    "time": 328.2499999999991,
                    "velocity": 0.5039370078740157,
                    "duration": 0.24166666666667425
                },
                {
                    "name": "E5",
                    "midi": 76,
                    "time": 328.4999999999991,
                    "velocity": 0.5039370078740157,
                    "duration": 0.24166666666667425
                },
                {
                    "name": "D5",
                    "midi": 74,
                    "time": 328.7499999999991,
                    "velocity": 0.5039370078740157,
                    "duration": 0.24166666666667425
                },
                {
                    "name": "C5",
                    "midi": 72,
                    "time": 328.9999999999991,
                    "velocity": 0.5039370078740157,
                    "duration": 0.24166666666667425
                },
                {
                    "name": "E5",
                    "midi": 76,
                    "time": 328.9999999999991,
                    "velocity": 0.5039370078740157,
                    "duration": 0.9916666666666742
                },
                {
                    "name": "B4",
                    "midi": 71,
                    "time": 329.2499999999991,
                    "velocity": 0.5039370078740157,
                    "duration": 0.24166666666667425
                },
                {
                    "name": "A4",
                    "midi": 69,
                    "time": 329.4999999999991,
                    "velocity": 0.5039370078740157,
                    "duration": 0.24166666666667425
                },
                {
                    "name": "G4",
                    "midi": 67,
                    "time": 329.7499999999991,
                    "velocity": 0.5039370078740157,
                    "duration": 0.24166666666667425
                },
                {
                    "name": "A4",
                    "midi": 69,
                    "time": 329.9999999999991,
                    "velocity": 0.5039370078740157,
                    "duration": 0.24166666666667425
                },
                {
                    "name": "C5",
                    "midi": 72,
                    "time": 329.9999999999991,
                    "velocity": 0.5039370078740157,
                    "duration": 0.9916666666666742
                },
                {
                    "name": "G4",
                    "midi": 67,
                    "time": 330.2499999999991,
                    "velocity": 0.5039370078740157,
                    "duration": 0.24166666666667425
                },
                {
                    "name": "F4",
                    "midi": 65,
                    "time": 330.4999999999991,
                    "velocity": 0.5039370078740157,
                    "duration": 0.24166666666667425
                },
                {
                    "name": "E4",
                    "midi": 64,
                    "time": 330.7499999999991,
                    "velocity": 0.5039370078740157,
                    "duration": 0.24166666666667425
                },
                {
                    "name": "F4",
                    "midi": 65,
                    "time": 330.9999999999991,
                    "velocity": 0.5039370078740157,
                    "duration": 0.7416666666666742
                },
                {
                    "name": "A4",
                    "midi": 69,
                    "time": 330.9999999999991,
                    "velocity": 0.5039370078740157,
                    "duration": 0.24166666666667425
                },
                {
                    "name": "B4",
                    "midi": 71,
                    "time": 331.2499999999991,
                    "velocity": 0.5039370078740157,
                    "duration": 0.24166666666667425
                },
                {
                    "name": "C5",
                    "midi": 72,
                    "time": 331.4999999999991,
                    "velocity": 0.5039370078740157,
                    "duration": 0.49166666666667425
                },
                {
                    "name": "E4",
                    "midi": 64,
                    "time": 331.7499999999991,
                    "velocity": 0.5039370078740157,
                    "duration": 0.24166666666667425
                },
                {
                    "name": "D4",
                    "midi": 62,
                    "time": 331.9999999999991,
                    "velocity": 0.5039370078740157,
                    "duration": 0.24166666666667425
                },
                {
                    "name": "C5",
                    "midi": 72,
                    "time": 331.9999999999991,
                    "velocity": 0.5039370078740157,
                    "duration": 0.9916666666666742
                },
                {
                    "name": "F4",
                    "midi": 65,
                    "time": 332.2499999999991,
                    "velocity": 0.5039370078740157,
                    "duration": 0.24166666666667425
                },
                {
                    "name": "E4",
                    "midi": 64,
                    "time": 332.4999999999991,
                    "velocity": 0.5039370078740157,
                    "duration": 0.24166666666667425
                },
                {
                    "name": "F4",
                    "midi": 65,
                    "time": 332.7499999999991,
                    "velocity": 0.5039370078740157,
                    "duration": 0.24166666666667425
                },
                {
                    "name": "G4",
                    "midi": 67,
                    "time": 332.9999999999991,
                    "velocity": 0.5039370078740157,
                    "duration": 0.24166666666667425
                },
                {
                    "name": "B4",
                    "midi": 71,
                    "time": 332.9999999999991,
                    "velocity": 0.5039370078740157,
                    "duration": 0.9916666666666742
                },
                {
                    "name": "A4",
                    "midi": 69,
                    "time": 333.2499999999991,
                    "velocity": 0.5039370078740157,
                    "duration": 0.24166666666667425
                },
                {
                    "name": "F4",
                    "midi": 65,
                    "time": 333.4999999999991,
                    "velocity": 0.5039370078740157,
                    "duration": 0.24166666666667425
                },
                {
                    "name": "G4",
                    "midi": 67,
                    "time": 333.7499999999991,
                    "velocity": 0.5039370078740157,
                    "duration": 0.24166666666667425
                },
                {
                    "name": "E4",
                    "midi": 64,
                    "time": 333.9999999999991,
                    "velocity": 0.5039370078740157,
                    "duration": 0.24166666666667425
                },
                {
                    "name": "C5",
                    "midi": 72,
                    "time": 333.9999999999991,
                    "velocity": 0.5039370078740157,
                    "duration": 1.9916666666666742
                },
                {
                    "name": "F4",
                    "midi": 65,
                    "time": 334.2499999999991,
                    "velocity": 0.5039370078740157,
                    "duration": 0.24166666666667425
                },
                {
                    "name": "D4",
                    "midi": 62,
                    "time": 334.4999999999991,
                    "velocity": 0.5039370078740157,
                    "duration": 0.24166666666667425
                },
                {
                    "name": "E4",
                    "midi": 64,
                    "time": 334.7499999999991,
                    "velocity": 0.5039370078740157,
                    "duration": 0.24166666666667425
                },
                {
                    "name": "C4",
                    "midi": 60,
                    "time": 334.9999999999991,
                    "velocity": 0.5039370078740157,
                    "duration": 0.9916666666666742
                },
                {
                    "name": "C6",
                    "midi": 84,
                    "time": 335.9999999999991,
                    "velocity": 0.5039370078740157,
                    "duration": 1.2416666666666742
                },
                {
                    "name": "E5",
                    "midi": 76,
                    "time": 336.2499999999991,
                    "velocity": 0.5039370078740157,
                    "duration": 0.24166666666667425
                },
                {
                    "name": "F5",
                    "midi": 77,
                    "time": 336.4999999999991,
                    "velocity": 0.5039370078740157,
                    "duration": 0.24166666666667425
                },
                {
                    "name": "G5",
                    "midi": 79,
                    "time": 336.7499999999991,
                    "velocity": 0.5039370078740157,
                    "duration": 0.24166666666667425
                },
                {
                    "name": "E5",
                    "midi": 76,
                    "time": 336.9999999999991,
                    "velocity": 0.5039370078740157,
                    "duration": 0.49166666666667425
                },
                {
                    "name": "C6",
                    "midi": 84,
                    "time": 337.2499999999991,
                    "velocity": 0.5039370078740157,
                    "duration": 0.49166666666667425
                },
                {
                    "name": "C5",
                    "midi": 72,
                    "time": 337.4999999999991,
                    "velocity": 0.5039370078740157,
                    "duration": 0.49166666666667425
                },
                {
                    "name": "C6",
                    "midi": 84,
                    "time": 337.7499999999991,
                    "velocity": 0.5039370078740157,
                    "duration": 0.49166666666667425
                },
                {
                    "name": "D5",
                    "midi": 74,
                    "time": 337.9999999999991,
                    "velocity": 0.5039370078740157,
                    "duration": 1.2416666666666742
                },
                {
                    "name": "C6",
                    "midi": 84,
                    "time": 338.2499999999991,
                    "velocity": 0.5039370078740157,
                    "duration": 0.24166666666667425
                },
                {
                    "name": "B5",
                    "midi": 83,
                    "time": 338.4999999999991,
                    "velocity": 0.5039370078740157,
                    "duration": 0.24166666666667425
                },
                {
                    "name": "A5",
                    "midi": 81,
                    "time": 338.7499999999991,
                    "velocity": 0.5039370078740157,
                    "duration": 0.24166666666667425
                },
                {
                    "name": "B5",
                    "midi": 83,
                    "time": 338.9999999999991,
                    "velocity": 0.5039370078740157,
                    "duration": 1.2416666666666742
                },
                {
                    "name": "F5",
                    "midi": 77,
                    "time": 339.2499999999991,
                    "velocity": 0.5039370078740157,
                    "duration": 0.24166666666667425
                },
                {
                    "name": "E5",
                    "midi": 76,
                    "time": 339.4999999999991,
                    "velocity": 0.5039370078740157,
                    "duration": 0.24166666666667425
                },
                {
                    "name": "D5",
                    "midi": 74,
                    "time": 339.7499999999991,
                    "velocity": 0.5039370078740157,
                    "duration": 0.24166666666667425
                },
                {
                    "name": "C5",
                    "midi": 72,
                    "time": 339.9999999999991,
                    "velocity": 0.5039370078740157,
                    "duration": 1.2416666666666742
                },
                {
                    "name": "E5",
                    "midi": 76,
                    "time": 340.2499999999991,
                    "velocity": 0.5039370078740157,
                    "duration": 0.24166666666667425
                },
                {
                    "name": "F#5",
                    "midi": 78,
                    "time": 340.4999999999991,
                    "velocity": 0.5039370078740157,
                    "duration": 0.24166666666667425
                },
                {
                    "name": "G#5",
                    "midi": 80,
                    "time": 340.7499999999991,
                    "velocity": 0.5039370078740157,
                    "duration": 0.24166666666667425
                },
                {
                    "name": "A5",
                    "midi": 81,
                    "time": 340.9999999999991,
                    "velocity": 0.5039370078740157,
                    "duration": 1.2416666666666742
                },
                {
                    "name": "E5",
                    "midi": 76,
                    "time": 341.2499999999991,
                    "velocity": 0.5039370078740157,
                    "duration": 0.24166666666667425
                },
                {
                    "name": "D5",
                    "midi": 74,
                    "time": 341.4999999999991,
                    "velocity": 0.5039370078740157,
                    "duration": 0.24166666666667425
                },
                {
                    "name": "C5",
                    "midi": 72,
                    "time": 341.7499999999991,
                    "velocity": 0.5039370078740157,
                    "duration": 0.24166666666667425
                },
                {
                    "name": "B4",
                    "midi": 71,
                    "time": 341.9999999999991,
                    "velocity": 0.5039370078740157,
                    "duration": 1.2416666666666742
                },
                {
                    "name": "A5",
                    "midi": 81,
                    "time": 342.2499999999991,
                    "velocity": 0.5039370078740157,
                    "duration": 0.24166666666667425
                },
                {
                    "name": "G#5",
                    "midi": 80,
                    "time": 342.4999999999991,
                    "velocity": 0.5039370078740157,
                    "duration": 0.24166666666667425
                },
                {
                    "name": "F#5",
                    "midi": 78,
                    "time": 342.7499999999991,
                    "velocity": 0.5039370078740157,
                    "duration": 0.24166666666667425
                },
                {
                    "name": "G#5",
                    "midi": 80,
                    "time": 342.9999999999991,
                    "velocity": 0.5039370078740157,
                    "duration": 0.9916666666666742
                },
                {
                    "name": "B4",
                    "midi": 71,
                    "time": 343.2499999999991,
                    "velocity": 0.5039370078740157,
                    "duration": 0.24166666666667425
                },
                {
                    "name": "C5",
                    "midi": 72,
                    "time": 343.4999999999991,
                    "velocity": 0.5039370078740157,
                    "duration": 0.24166666666667425
                },
                {
                    "name": "D5",
                    "midi": 74,
                    "time": 343.7499999999991,
                    "velocity": 0.5039370078740157,
                    "duration": 0.24166666666667425
                },
                {
                    "name": "E5",
                    "midi": 76,
                    "time": 343.9999999999991,
                    "velocity": 0.5039370078740157,
                    "duration": 1.4916666666666742
                },
                {
                    "name": "A5",
                    "midi": 81,
                    "time": 344.2499999999991,
                    "velocity": 0.5039370078740157,
                    "duration": 0.24166666666667425
                },
                {
                    "name": "B5",
                    "midi": 83,
                    "time": 344.4999999999991,
                    "velocity": 0.5039370078740157,
                    "duration": 0.24166666666667425
                },
                {
                    "name": "C6",
                    "midi": 84,
                    "time": 344.7499999999991,
                    "velocity": 0.5039370078740157,
                    "duration": 0.24166666666667425
                },
                {
                    "name": "A5",
                    "midi": 81,
                    "time": 344.9999999999991,
                    "velocity": 0.5039370078740157,
                    "duration": 0.24166666666667425
                },
                {
                    "name": "B5",
                    "midi": 83,
                    "time": 345.2499999999991,
                    "velocity": 0.5039370078740157,
                    "duration": 0.24166666666667425
                },
                {
                    "name": "E5",
                    "midi": 76,
                    "time": 345.4999999999991,
                    "velocity": 0.5039370078740157,
                    "duration": 0.49166666666667425
                },
                {
                    "name": "G5",
                    "midi": 79,
                    "time": 345.4999999999991,
                    "velocity": 0.5039370078740157,
                    "duration": 0.24166666666667425
                },
                {
                    "name": "A5",
                    "midi": 81,
                    "time": 345.7499999999991,
                    "velocity": 0.5039370078740157,
                    "duration": 0.24166666666667425
                },
                {
                    "name": "E5",
                    "midi": 76,
                    "time": 345.9999999999991,
                    "velocity": 0.5039370078740157,
                    "duration": 0.49166666666667425
                },
                {
                    "name": "F#5",
                    "midi": 78,
                    "time": 345.9999999999991,
                    "velocity": 0.5039370078740157,
                    "duration": 0.24166666666667425
                },
                {
                    "name": "A5",
                    "midi": 81,
                    "time": 346.2499999999991,
                    "velocity": 0.5039370078740157,
                    "duration": 0.24166666666667425
                },
                {
                    "name": "D5",
                    "midi": 74,
                    "time": 346.4999999999991,
                    "velocity": 0.5039370078740157,
                    "duration": 0.49166666666667425
                },
                {
                    "name": "G#5",
                    "midi": 80,
                    "time": 346.4999999999991,
                    "velocity": 0.5039370078740157,
                    "duration": 0.24166666666667425
                },
                {
                    "name": "B5",
                    "midi": 83,
                    "time": 346.7499999999991,
                    "velocity": 0.5039370078740157,
                    "duration": 0.24166666666667425
                },
                {
                    "name": "C5",
                    "midi": 72,
                    "time": 346.9999999999991,
                    "velocity": 0.5039370078740157,
                    "duration": 0.24166666666667425
                },
                {
                    "name": "A5",
                    "midi": 81,
                    "time": 346.9999999999991,
                    "velocity": 0.5039370078740157,
                    "duration": 0.9916666666666742
                },
                {
                    "name": "F5",
                    "midi": 77,
                    "time": 347.2499999999991,
                    "velocity": 0.5039370078740157,
                    "duration": 0.24166666666667425
                },
                {
                    "name": "E5",
                    "midi": 76,
                    "time": 347.4999999999991,
                    "velocity": 0.5039370078740157,
                    "duration": 0.24166666666667425
                },
                {
                    "name": "F5",
                    "midi": 77,
                    "time": 347.7499999999991,
                    "velocity": 0.5039370078740157,
                    "duration": 0.24166666666667425
                },
                {
                    "name": "B4",
                    "midi": 71,
                    "time": 347.9999999999991,
                    "velocity": 0.5039370078740157,
                    "duration": 0.24166666666667425
                },
                {
                    "name": "A5",
                    "midi": 81,
                    "time": 347.9999999999991,
                    "velocity": 0.5039370078740157,
                    "duration": 0.9916666666666742
                },
                {
                    "name": "D5",
                    "midi": 74,
                    "time": 348.2499999999991,
                    "velocity": 0.5039370078740157,
                    "duration": 0.24166666666667425
                },
                {
                    "name": "C5",
                    "midi": 72,
                    "time": 348.4999999999991,
                    "velocity": 0.5039370078740157,
                    "duration": 0.24166666666667425
                },
                {
                    "name": "D5",
                    "midi": 74,
                    "time": 348.7499999999991,
                    "velocity": 0.5039370078740157,
                    "duration": 0.24166666666667425
                },
                {
                    "name": "E5",
                    "midi": 76,
                    "time": 348.9999999999991,
                    "velocity": 0.5039370078740157,
                    "duration": 0.24166666666667425
                },
                {
                    "name": "G#5",
                    "midi": 80,
                    "time": 348.9999999999991,
                    "velocity": 0.5039370078740157,
                    "duration": 0.9916666666666742
                },
                {
                    "name": "F5",
                    "midi": 77,
                    "time": 349.2499999999991,
                    "velocity": 0.5039370078740157,
                    "duration": 0.24166666666667425
                },
                {
                    "name": "D5",
                    "midi": 74,
                    "time": 349.4999999999991,
                    "velocity": 0.5039370078740157,
                    "duration": 0.24166666666667425
                },
                {
                    "name": "E5",
                    "midi": 76,
                    "time": 349.7499999999991,
                    "velocity": 0.5039370078740157,
                    "duration": 0.24166666666667425
                },
                {
                    "name": "C5",
                    "midi": 72,
                    "time": 349.9999999999991,
                    "velocity": 0.5039370078740157,
                    "duration": 0.24166666666667425
                },
                {
                    "name": "A5",
                    "midi": 81,
                    "time": 349.9999999999991,
                    "velocity": 0.5039370078740157,
                    "duration": 1.9916666666666742
                },
                {
                    "name": "D5",
                    "midi": 74,
                    "time": 350.2499999999991,
                    "velocity": 0.5039370078740157,
                    "duration": 0.24166666666667425
                },
                {
                    "name": "B4",
                    "midi": 71,
                    "time": 350.4999999999991,
                    "velocity": 0.5039370078740157,
                    "duration": 0.24166666666667425
                },
                {
                    "name": "C5",
                    "midi": 72,
                    "time": 350.7499999999991,
                    "velocity": 0.5039370078740157,
                    "duration": 0.24166666666667425
                },
                {
                    "name": "A4",
                    "midi": 69,
                    "time": 350.9999999999991,
                    "velocity": 0.5039370078740157,
                    "duration": 0.9916666666666742
                },
                {
                    "name": "E5",
                    "midi": 76,
                    "time": 351.9999999999991,
                    "velocity": 0.5039370078740157,
                    "duration": 0.9916666666666742
                },
                {
                    "name": "C5",
                    "midi": 72,
                    "time": 352.2499999999991,
                    "velocity": 0.5039370078740157,
                    "duration": 0.24166666666667425
                },
                {
                    "name": "B4",
                    "midi": 71,
                    "time": 352.4999999999991,
                    "velocity": 0.5039370078740157,
                    "duration": 0.24166666666667425
                },
                {
                    "name": "A4",
                    "midi": 69,
                    "time": 352.7499999999991,
                    "velocity": 0.5039370078740157,
                    "duration": 0.24166666666667425
                },
                {
                    "name": "G4",
                    "midi": 67,
                    "time": 352.9999999999991,
                    "velocity": 0.5039370078740157,
                    "duration": 0.24166666666667425
                },
                {
                    "name": "C5",
                    "midi": 72,
                    "time": 352.9999999999991,
                    "velocity": 0.5039370078740157,
                    "duration": 0.9916666666666742
                },
                {
                    "name": "F4",
                    "midi": 65,
                    "time": 353.2499999999991,
                    "velocity": 0.5039370078740157,
                    "duration": 0.24166666666667425
                },
                {
                    "name": "E4",
                    "midi": 64,
                    "time": 353.4999999999991,
                    "velocity": 0.5039370078740157,
                    "duration": 0.24166666666667425
                },
                {
                    "name": "D4",
                    "midi": 62,
                    "time": 353.7499999999991,
                    "velocity": 0.5039370078740157,
                    "duration": 0.24166666666667425
                },
                {
                    "name": "C4",
                    "midi": 60,
                    "time": 353.9999999999991,
                    "velocity": 0.5039370078740157,
                    "duration": 0.24166666666667425
                },
                {
                    "name": "A4",
                    "midi": 69,
                    "time": 353.9999999999991,
                    "velocity": 0.5039370078740157,
                    "duration": 1.9916666666666742
                },
                {
                    "name": "E4",
                    "midi": 64,
                    "time": 354.2499999999991,
                    "velocity": 0.5039370078740157,
                    "duration": 0.24166666666667425
                },
                {
                    "name": "D4",
                    "midi": 62,
                    "time": 354.4999999999991,
                    "velocity": 0.5039370078740157,
                    "duration": 0.24166666666667425
                },
                {
                    "name": "E4",
                    "midi": 64,
                    "time": 354.7499999999991,
                    "velocity": 0.5039370078740157,
                    "duration": 0.24166666666667425
                },
                {
                    "name": "F4",
                    "midi": 65,
                    "time": 354.9999999999991,
                    "velocity": 0.5039370078740157,
                    "duration": 0.24166666666667425
                },
                {
                    "name": "G4",
                    "midi": 67,
                    "time": 355.2499999999991,
                    "velocity": 0.5039370078740157,
                    "duration": 0.24166666666667425
                },
                {
                    "name": "F4",
                    "midi": 65,
                    "time": 355.4999999999991,
                    "velocity": 0.5039370078740157,
                    "duration": 0.24166666666667425
                },
                {
                    "name": "G4",
                    "midi": 67,
                    "time": 355.7499999999991,
                    "velocity": 0.5039370078740157,
                    "duration": 0.24166666666667425
                },
                {
                    "name": "A4",
                    "midi": 69,
                    "time": 355.9999999999991,
                    "velocity": 0.5039370078740157,
                    "duration": 0.24166666666667425
                },
                {
                    "name": "F5",
                    "midi": 77,
                    "time": 355.9999999999991,
                    "velocity": 0.5039370078740157,
                    "duration": 1.4916666666666742
                },
                {
                    "name": "C5",
                    "midi": 72,
                    "time": 356.2499999999991,
                    "velocity": 0.5039370078740157,
                    "duration": 0.24166666666667425
                },
                {
                    "name": "B4",
                    "midi": 71,
                    "time": 356.4999999999991,
                    "velocity": 0.5039370078740157,
                    "duration": 0.24166666666667425
                },
                {
                    "name": "C5",
                    "midi": 72,
                    "time": 356.7499999999991,
                    "velocity": 0.5039370078740157,
                    "duration": 0.24166666666667425
                },
                {
                    "name": "D5",
                    "midi": 74,
                    "time": 356.9999999999991,
                    "velocity": 0.5039370078740157,
                    "duration": 0.24166666666667425
                },
                {
                    "name": "G4",
                    "midi": 67,
                    "time": 357.2499999999991,
                    "velocity": 0.5039370078740157,
                    "duration": 0.24166666666667425
                },
                {
                    "name": "E5",
                    "midi": 76,
                    "time": 357.4999999999991,
                    "velocity": 0.5039370078740157,
                    "duration": 0.24166666666667425
                },
                {
                    "name": "E5",
                    "midi": 76,
                    "time": 357.4999999999991,
                    "velocity": 0.5039370078740157,
                    "duration": 0.49166666666667425
                },
                {
                    "name": "A4",
                    "midi": 69,
                    "time": 357.7499999999991,
                    "velocity": 0.5039370078740157,
                    "duration": 0.24166666666667425
                },
                {
                    "name": "B4",
                    "midi": 71,
                    "time": 357.9999999999991,
                    "velocity": 0.5039370078740157,
                    "duration": 0.24166666666667425
                },
                {
                    "name": "D5",
                    "midi": 74,
                    "time": 357.9999999999991,
                    "velocity": 0.5039370078740157,
                    "duration": 0.9916666666666742
                },
                {
                    "name": "G4",
                    "midi": 67,
                    "time": 358.2499999999991,
                    "velocity": 0.5039370078740157,
                    "duration": 0.24166666666667425
                },
                {
                    "name": "A4",
                    "midi": 69,
                    "time": 358.4999999999991,
                    "velocity": 0.5039370078740157,
                    "duration": 0.24166666666667425
                },
                {
                    "name": "B4",
                    "midi": 71,
                    "time": 358.7499999999991,
                    "velocity": 0.5039370078740157,
                    "duration": 0.24166666666667425
                },
                {
                    "name": "C5",
                    "midi": 72,
                    "time": 358.9999999999991,
                    "velocity": 0.5039370078740157,
                    "duration": 0.24166666666667425
                },
                {
                    "name": "D5",
                    "midi": 74,
                    "time": 359.2499999999991,
                    "velocity": 0.5039370078740157,
                    "duration": 0.24166666666667425
                },
                {
                    "name": "E5",
                    "midi": 76,
                    "time": 359.4999999999991,
                    "velocity": 0.5039370078740157,
                    "duration": 0.24166666666667425
                },
                {
                    "name": "F5",
                    "midi": 77,
                    "time": 359.7499999999991,
                    "velocity": 0.5039370078740157,
                    "duration": 0.24166666666667425
                },
                {
                    "name": "G5",
                    "midi": 79,
                    "time": 359.9999999999991,
                    "velocity": 0.5039370078740157,
                    "duration": 0.24166666666667425
                },
                {
                    "name": "G5",
                    "midi": 79,
                    "time": 359.9999999999991,
                    "velocity": 0.5039370078740157,
                    "duration": 0.9916666666666742
                },
                {
                    "name": "F5",
                    "midi": 77,
                    "time": 360.2499999999991,
                    "velocity": 0.5039370078740157,
                    "duration": 0.24166666666667425
                },
                {
                    "name": "E5",
                    "midi": 76,
                    "time": 360.4999999999991,
                    "velocity": 0.5039370078740157,
                    "duration": 0.24166666666667425
                },
                {
                    "name": "D5",
                    "midi": 74,
                    "time": 360.7499999999991,
                    "velocity": 0.5039370078740157,
                    "duration": 0.24166666666667425
                },
                {
                    "name": "C5",
                    "midi": 72,
                    "time": 360.9999999999991,
                    "velocity": 0.5039370078740157,
                    "duration": 0.24166666666667425
                },
                {
                    "name": "E5",
                    "midi": 76,
                    "time": 360.9999999999991,
                    "velocity": 0.5039370078740157,
                    "duration": 0.9916666666666742
                },
                {
                    "name": "B4",
                    "midi": 71,
                    "time": 361.2499999999991,
                    "velocity": 0.5039370078740157,
                    "duration": 0.24166666666667425
                },
                {
                    "name": "A4",
                    "midi": 69,
                    "time": 361.4999999999991,
                    "velocity": 0.5039370078740157,
                    "duration": 0.24166666666667425
                },
                {
                    "name": "G4",
                    "midi": 67,
                    "time": 361.7499999999991,
                    "velocity": 0.5039370078740157,
                    "duration": 0.24166666666667425
                },
                {
                    "name": "A4",
                    "midi": 69,
                    "time": 361.9999999999991,
                    "velocity": 0.5039370078740157,
                    "duration": 0.24166666666667425
                },
                {
                    "name": "C5",
                    "midi": 72,
                    "time": 361.9999999999991,
                    "velocity": 0.5039370078740157,
                    "duration": 0.9916666666666742
                },
                {
                    "name": "G4",
                    "midi": 67,
                    "time": 362.2499999999991,
                    "velocity": 0.5039370078740157,
                    "duration": 0.24166666666667425
                },
                {
                    "name": "F4",
                    "midi": 65,
                    "time": 362.4999999999991,
                    "velocity": 0.5039370078740157,
                    "duration": 0.24166666666667425
                },
                {
                    "name": "E4",
                    "midi": 64,
                    "time": 362.7499999999991,
                    "velocity": 0.5039370078740157,
                    "duration": 0.24166666666667425
                },
                {
                    "name": "F4",
                    "midi": 65,
                    "time": 362.9999999999991,
                    "velocity": 0.5039370078740157,
                    "duration": 0.7416666666666742
                },
                {
                    "name": "A4",
                    "midi": 69,
                    "time": 362.9999999999991,
                    "velocity": 0.5039370078740157,
                    "duration": 0.24166666666667425
                },
                {
                    "name": "B4",
                    "midi": 71,
                    "time": 363.2499999999991,
                    "velocity": 0.5039370078740157,
                    "duration": 0.24166666666667425
                },
                {
                    "name": "C5",
                    "midi": 72,
                    "time": 363.4999999999991,
                    "velocity": 0.5039370078740157,
                    "duration": 0.49166666666667425
                },
                {
                    "name": "E4",
                    "midi": 64,
                    "time": 363.7499999999991,
                    "velocity": 0.5039370078740157,
                    "duration": 0.24166666666667425
                },
                {
                    "name": "D4",
                    "midi": 62,
                    "time": 363.9999999999991,
                    "velocity": 0.5039370078740157,
                    "duration": 0.24166666666667425
                },
                {
                    "name": "C5",
                    "midi": 72,
                    "time": 363.9999999999991,
                    "velocity": 0.5039370078740157,
                    "duration": 0.9916666666666742
                },
                {
                    "name": "F4",
                    "midi": 65,
                    "time": 364.2499999999991,
                    "velocity": 0.5039370078740157,
                    "duration": 0.24166666666667425
                },
                {
                    "name": "E4",
                    "midi": 64,
                    "time": 364.4999999999991,
                    "velocity": 0.5039370078740157,
                    "duration": 0.24166666666667425
                },
                {
                    "name": "F4",
                    "midi": 65,
                    "time": 364.7499999999991,
                    "velocity": 0.5039370078740157,
                    "duration": 0.24166666666667425
                },
                {
                    "name": "G4",
                    "midi": 67,
                    "time": 364.9999999999991,
                    "velocity": 0.5039370078740157,
                    "duration": 0.24166666666667425
                },
                {
                    "name": "B4",
                    "midi": 71,
                    "time": 364.9999999999991,
                    "velocity": 0.5039370078740157,
                    "duration": 0.9916666666666742
                },
                {
                    "name": "A4",
                    "midi": 69,
                    "time": 365.2499999999991,
                    "velocity": 0.5039370078740157,
                    "duration": 0.24166666666667425
                },
                {
                    "name": "F4",
                    "midi": 65,
                    "time": 365.4999999999991,
                    "velocity": 0.5039370078740157,
                    "duration": 0.24166666666667425
                },
                {
                    "name": "G4",
                    "midi": 67,
                    "time": 365.7499999999991,
                    "velocity": 0.5039370078740157,
                    "duration": 0.24166666666667425
                },
                {
                    "name": "E4",
                    "midi": 64,
                    "time": 365.9999999999991,
                    "velocity": 0.5039370078740157,
                    "duration": 0.24166666666667425
                },
                {
                    "name": "C5",
                    "midi": 72,
                    "time": 365.9999999999991,
                    "velocity": 0.5039370078740157,
                    "duration": 1.9916666666666742
                },
                {
                    "name": "F4",
                    "midi": 65,
                    "time": 366.2499999999991,
                    "velocity": 0.5039370078740157,
                    "duration": 0.24166666666667425
                },
                {
                    "name": "D4",
                    "midi": 62,
                    "time": 366.4999999999991,
                    "velocity": 0.5039370078740157,
                    "duration": 0.24166666666667425
                },
                {
                    "name": "E4",
                    "midi": 64,
                    "time": 366.7499999999991,
                    "velocity": 0.5039370078740157,
                    "duration": 0.24166666666667425
                },
                {
                    "name": "C4",
                    "midi": 60,
                    "time": 366.9999999999991,
                    "velocity": 0.5039370078740157,
                    "duration": 0.9916666666666742
                },
                {
                    "name": "C6",
                    "midi": 84,
                    "time": 367.9999999999991,
                    "velocity": 0.5039370078740157,
                    "duration": 1.2416666666666742
                },
                {
                    "name": "E5",
                    "midi": 76,
                    "time": 368.2499999999991,
                    "velocity": 0.5039370078740157,
                    "duration": 0.24166666666667425
                },
                {
                    "name": "F5",
                    "midi": 77,
                    "time": 368.4999999999991,
                    "velocity": 0.5039370078740157,
                    "duration": 0.24166666666667425
                },
                {
                    "name": "G5",
                    "midi": 79,
                    "time": 368.7499999999991,
                    "velocity": 0.5039370078740157,
                    "duration": 0.24166666666667425
                },
                {
                    "name": "E5",
                    "midi": 76,
                    "time": 368.9999999999991,
                    "velocity": 0.5039370078740157,
                    "duration": 0.49166666666667425
                },
                {
                    "name": "C6",
                    "midi": 84,
                    "time": 369.2499999999991,
                    "velocity": 0.5039370078740157,
                    "duration": 0.49166666666667425
                },
                {
                    "name": "C5",
                    "midi": 72,
                    "time": 369.4999999999991,
                    "velocity": 0.5039370078740157,
                    "duration": 0.49166666666667425
                },
                {
                    "name": "C6",
                    "midi": 84,
                    "time": 369.7499999999991,
                    "velocity": 0.5039370078740157,
                    "duration": 0.49166666666667425
                },
                {
                    "name": "D5",
                    "midi": 74,
                    "time": 369.9999999999991,
                    "velocity": 0.5039370078740157,
                    "duration": 1.2416666666666742
                },
                {
                    "name": "C6",
                    "midi": 84,
                    "time": 370.2499999999991,
                    "velocity": 0.5039370078740157,
                    "duration": 0.24166666666667425
                },
                {
                    "name": "B5",
                    "midi": 83,
                    "time": 370.4999999999991,
                    "velocity": 0.5039370078740157,
                    "duration": 0.24166666666667425
                },
                {
                    "name": "A5",
                    "midi": 81,
                    "time": 370.7499999999991,
                    "velocity": 0.5039370078740157,
                    "duration": 0.24166666666667425
                },
                {
                    "name": "B5",
                    "midi": 83,
                    "time": 370.9999999999991,
                    "velocity": 0.5039370078740157,
                    "duration": 1.2416666666666742
                },
                {
                    "name": "F5",
                    "midi": 77,
                    "time": 371.2499999999991,
                    "velocity": 0.5039370078740157,
                    "duration": 0.24166666666667425
                },
                {
                    "name": "E5",
                    "midi": 76,
                    "time": 371.4999999999991,
                    "velocity": 0.5039370078740157,
                    "duration": 0.24166666666667425
                },
                {
                    "name": "D5",
                    "midi": 74,
                    "time": 371.7499999999991,
                    "velocity": 0.5039370078740157,
                    "duration": 0.24166666666667425
                },
                {
                    "name": "C5",
                    "midi": 72,
                    "time": 371.9999999999991,
                    "velocity": 0.5039370078740157,
                    "duration": 1.2416666666666742
                },
                {
                    "name": "E5",
                    "midi": 76,
                    "time": 372.2499999999991,
                    "velocity": 0.5039370078740157,
                    "duration": 0.24166666666667425
                },
                {
                    "name": "F#5",
                    "midi": 78,
                    "time": 372.4999999999991,
                    "velocity": 0.5039370078740157,
                    "duration": 0.24166666666667425
                },
                {
                    "name": "G#5",
                    "midi": 80,
                    "time": 372.7499999999991,
                    "velocity": 0.5039370078740157,
                    "duration": 0.24166666666667425
                },
                {
                    "name": "A5",
                    "midi": 81,
                    "time": 372.9999999999991,
                    "velocity": 0.5039370078740157,
                    "duration": 1.2416666666666742
                },
                {
                    "name": "E5",
                    "midi": 76,
                    "time": 373.2499999999991,
                    "velocity": 0.5039370078740157,
                    "duration": 0.24166666666667425
                },
                {
                    "name": "D5",
                    "midi": 74,
                    "time": 373.4999999999991,
                    "velocity": 0.5039370078740157,
                    "duration": 0.24166666666667425
                },
                {
                    "name": "C5",
                    "midi": 72,
                    "time": 373.7499999999991,
                    "velocity": 0.5039370078740157,
                    "duration": 0.24166666666667425
                },
                {
                    "name": "B4",
                    "midi": 71,
                    "time": 373.9999999999991,
                    "velocity": 0.5039370078740157,
                    "duration": 1.2416666666666742
                },
                {
                    "name": "A5",
                    "midi": 81,
                    "time": 374.2499999999991,
                    "velocity": 0.5039370078740157,
                    "duration": 0.24166666666667425
                },
                {
                    "name": "G#5",
                    "midi": 80,
                    "time": 374.4999999999991,
                    "velocity": 0.5039370078740157,
                    "duration": 0.24166666666667425
                },
                {
                    "name": "F#5",
                    "midi": 78,
                    "time": 374.7499999999991,
                    "velocity": 0.5039370078740157,
                    "duration": 0.24166666666667425
                },
                {
                    "name": "G#5",
                    "midi": 80,
                    "time": 374.9999999999991,
                    "velocity": 0.5039370078740157,
                    "duration": 0.9916666666666742
                },
                {
                    "name": "B4",
                    "midi": 71,
                    "time": 375.2499999999991,
                    "velocity": 0.5039370078740157,
                    "duration": 0.24166666666667425
                },
                {
                    "name": "C5",
                    "midi": 72,
                    "time": 375.4999999999991,
                    "velocity": 0.5039370078740157,
                    "duration": 0.24166666666667425
                },
                {
                    "name": "D5",
                    "midi": 74,
                    "time": 375.7499999999991,
                    "velocity": 0.5039370078740157,
                    "duration": 0.24166666666667425
                },
                {
                    "name": "E5",
                    "midi": 76,
                    "time": 375.9999999999991,
                    "velocity": 0.5039370078740157,
                    "duration": 1.4916666666666742
                },
                {
                    "name": "A5",
                    "midi": 81,
                    "time": 376.2499999999991,
                    "velocity": 0.5039370078740157,
                    "duration": 0.24166666666667425
                },
                {
                    "name": "B5",
                    "midi": 83,
                    "time": 376.4999999999991,
                    "velocity": 0.5039370078740157,
                    "duration": 0.24166666666667425
                },
                {
                    "name": "C6",
                    "midi": 84,
                    "time": 376.7499999999991,
                    "velocity": 0.5039370078740157,
                    "duration": 0.24166666666667425
                },
                {
                    "name": "A5",
                    "midi": 81,
                    "time": 376.9999999999991,
                    "velocity": 0.5039370078740157,
                    "duration": 0.24166666666667425
                },
                {
                    "name": "B5",
                    "midi": 83,
                    "time": 377.2499999999991,
                    "velocity": 0.5039370078740157,
                    "duration": 0.24166666666667425
                },
                {
                    "name": "E5",
                    "midi": 76,
                    "time": 377.4999999999991,
                    "velocity": 0.5039370078740157,
                    "duration": 0.49166666666667425
                },
                {
                    "name": "G5",
                    "midi": 79,
                    "time": 377.4999999999991,
                    "velocity": 0.5039370078740157,
                    "duration": 0.24166666666667425
                },
                {
                    "name": "A5",
                    "midi": 81,
                    "time": 377.7499999999991,
                    "velocity": 0.5039370078740157,
                    "duration": 0.24166666666667425
                },
                {
                    "name": "E5",
                    "midi": 76,
                    "time": 377.9999999999991,
                    "velocity": 0.5039370078740157,
                    "duration": 0.49166666666667425
                },
                {
                    "name": "F#5",
                    "midi": 78,
                    "time": 377.9999999999991,
                    "velocity": 0.5039370078740157,
                    "duration": 0.24166666666667425
                },
                {
                    "name": "A5",
                    "midi": 81,
                    "time": 378.2499999999991,
                    "velocity": 0.5039370078740157,
                    "duration": 0.24166666666667425
                },
                {
                    "name": "D5",
                    "midi": 74,
                    "time": 378.4999999999991,
                    "velocity": 0.5039370078740157,
                    "duration": 0.49166666666667425
                },
                {
                    "name": "G#5",
                    "midi": 80,
                    "time": 378.4999999999991,
                    "velocity": 0.5039370078740157,
                    "duration": 0.24166666666667425
                },
                {
                    "name": "B5",
                    "midi": 83,
                    "time": 378.7499999999991,
                    "velocity": 0.5039370078740157,
                    "duration": 0.24166666666667425
                },
                {
                    "name": "C5",
                    "midi": 72,
                    "time": 378.9999999999991,
                    "velocity": 0.5039370078740157,
                    "duration": 0.24166666666667425
                },
                {
                    "name": "A5",
                    "midi": 81,
                    "time": 378.9999999999991,
                    "velocity": 0.5039370078740157,
                    "duration": 0.9916666666666742
                },
                {
                    "name": "F5",
                    "midi": 77,
                    "time": 379.2499999999991,
                    "velocity": 0.5039370078740157,
                    "duration": 0.24166666666667425
                },
                {
                    "name": "E5",
                    "midi": 76,
                    "time": 379.4999999999991,
                    "velocity": 0.5039370078740157,
                    "duration": 0.24166666666667425
                },
                {
                    "name": "F5",
                    "midi": 77,
                    "time": 379.7499999999991,
                    "velocity": 0.5039370078740157,
                    "duration": 0.24166666666667425
                },
                {
                    "name": "B4",
                    "midi": 71,
                    "time": 379.9999999999991,
                    "velocity": 0.5039370078740157,
                    "duration": 0.24166666666667425
                },
                {
                    "name": "A5",
                    "midi": 81,
                    "time": 379.9999999999991,
                    "velocity": 0.5039370078740157,
                    "duration": 0.9916666666666742
                },
                {
                    "name": "D5",
                    "midi": 74,
                    "time": 380.2499999999991,
                    "velocity": 0.5039370078740157,
                    "duration": 0.24166666666667425
                },
                {
                    "name": "C5",
                    "midi": 72,
                    "time": 380.4999999999991,
                    "velocity": 0.5039370078740157,
                    "duration": 0.24166666666667425
                },
                {
                    "name": "D5",
                    "midi": 74,
                    "time": 380.7499999999991,
                    "velocity": 0.5039370078740157,
                    "duration": 0.24166666666667425
                },
                {
                    "name": "E5",
                    "midi": 76,
                    "time": 380.9999999999991,
                    "velocity": 0.5039370078740157,
                    "duration": 0.24166666666667425
                },
                {
                    "name": "G#5",
                    "midi": 80,
                    "time": 380.9999999999991,
                    "velocity": 0.5039370078740157,
                    "duration": 0.9916666666666742
                },
                {
                    "name": "F5",
                    "midi": 77,
                    "time": 381.2499999999991,
                    "velocity": 0.5039370078740157,
                    "duration": 0.24166666666667425
                },
                {
                    "name": "D5",
                    "midi": 74,
                    "time": 381.4999999999991,
                    "velocity": 0.5039370078740157,
                    "duration": 0.24166666666667425
                },
                {
                    "name": "E5",
                    "midi": 76,
                    "time": 381.7499999999991,
                    "velocity": 0.5039370078740157,
                    "duration": 0.24166666666667425
                },
                {
                    "name": "A5",
                    "midi": 81,
                    "time": 381.9999999999991,
                    "velocity": 0.5039370078740157,
                    "duration": 1.9916666666666742
                },
                {
                    "name": "C5",
                    "midi": 72,
                    "time": 381.9999999999991,
                    "velocity": 0.5039370078740157,
                    "duration": 0.24166666666667425
                },
                {
                    "name": "D5",
                    "midi": 74,
                    "time": 382.2499999999991,
                    "velocity": 0.5039370078740157,
                    "duration": 0.24166666666667425
                },
                {
                    "name": "B4",
                    "midi": 71,
                    "time": 382.4999999999991,
                    "velocity": 0.5039370078740157,
                    "duration": 0.24166666666667425
                },
                {
                    "name": "C5",
                    "midi": 72,
                    "time": 382.7499999999991,
                    "velocity": 0.5039370078740157,
                    "duration": 0.24166666666667425
                },
                {
                    "name": "A4",
                    "midi": 69,
                    "time": 382.9999999999991,
                    "velocity": 0.5039370078740157,
                    "duration": 0.9916666666666742
                },
                {
                    "name": "A4",
                    "midi": 69,
                    "time": 383.9999999999991,
                    "velocity": 0.5039370078740157,
                    "duration": 0.07499999999998863
                },
                {
                    "name": "B4",
                    "midi": 71,
                    "time": 384.0833333333324,
                    "velocity": 0.5039370078740157,
                    "duration": 0.07499999999998863
                },
                {
                    "name": "A4",
                    "midi": 69,
                    "time": 384.1666666666657,
                    "velocity": 0.5039370078740157,
                    "duration": 0.07499999999998863
                },
                {
                    "name": "B4",
                    "midi": 71,
                    "time": 384.24999999999903,
                    "velocity": 0.5039370078740157,
                    "duration": 0.07499999999998863
                },
                {
                    "name": "A4",
                    "midi": 69,
                    "time": 384.33333333333235,
                    "velocity": 0.5039370078740157,
                    "duration": 0.07499999999998863
                },
                {
                    "name": "E4",
                    "midi": 64,
                    "time": 384.499999999999,
                    "velocity": 0.5039370078740157,
                    "duration": 0.24166666666667425
                },
                {
                    "name": "E4",
                    "midi": 64,
                    "time": 384.749999999999,
                    "velocity": 0.5039370078740157,
                    "duration": 0.24166666666667425
                },
                {
                    "name": "A4",
                    "midi": 69,
                    "time": 384.999999999999,
                    "velocity": 0.5039370078740157,
                    "duration": 0.24166666666667425
                },
                {
                    "name": "A4",
                    "midi": 69,
                    "time": 385.249999999999,
                    "velocity": 0.5039370078740157,
                    "duration": 0.24166666666667425
                },
                {
                    "name": "C5",
                    "midi": 72,
                    "time": 385.499999999999,
                    "velocity": 0.5039370078740157,
                    "duration": 0.24166666666667425
                },
                {
                    "name": "C5",
                    "midi": 72,
                    "time": 385.749999999999,
                    "velocity": 0.5039370078740157,
                    "duration": 0.7416666666666742
                },
                {
                    "name": "F4",
                    "midi": 65,
                    "time": 386.499999999999,
                    "velocity": 0.5039370078740157,
                    "duration": 0.24166666666667425
                },
                {
                    "name": "F4",
                    "midi": 65,
                    "time": 386.749999999999,
                    "velocity": 0.5039370078740157,
                    "duration": 0.24166666666667425
                },
                {
                    "name": "A4",
                    "midi": 69,
                    "time": 386.999999999999,
                    "velocity": 0.5039370078740157,
                    "duration": 0.24166666666667425
                },
                {
                    "name": "A4",
                    "midi": 69,
                    "time": 387.249999999999,
                    "velocity": 0.5039370078740157,
                    "duration": 0.24166666666667425
                },
                {
                    "name": "B4",
                    "midi": 71,
                    "time": 387.499999999999,
                    "velocity": 0.5039370078740157,
                    "duration": 0.24166666666667425
                },
                {
                    "name": "B4",
                    "midi": 71,
                    "time": 387.749999999999,
                    "velocity": 0.5039370078740157,
                    "duration": 0.7416666666666742
                },
                {
                    "name": "B3",
                    "midi": 59,
                    "time": 388.499999999999,
                    "velocity": 0.5039370078740157,
                    "duration": 0.24166666666667425
                },
                {
                    "name": "B3",
                    "midi": 59,
                    "time": 388.749999999999,
                    "velocity": 0.5039370078740157,
                    "duration": 0.24166666666667425
                },
                {
                    "name": "E4",
                    "midi": 64,
                    "time": 388.999999999999,
                    "velocity": 0.5039370078740157,
                    "duration": 0.24166666666667425
                },
                {
                    "name": "E4",
                    "midi": 64,
                    "time": 389.249999999999,
                    "velocity": 0.5039370078740157,
                    "duration": 0.24166666666667425
                },
                {
                    "name": "G#4",
                    "midi": 68,
                    "time": 389.499999999999,
                    "velocity": 0.5039370078740157,
                    "duration": 0.24166666666667425
                },
                {
                    "name": "G#4",
                    "midi": 68,
                    "time": 389.749999999999,
                    "velocity": 0.5039370078740157,
                    "duration": 0.9916666666666742
                },
                {
                    "name": "A4",
                    "midi": 69,
                    "time": 390.749999999999,
                    "velocity": 0.5039370078740157,
                    "duration": 0.49166666666667425
                },
                {
                    "name": "E4",
                    "midi": 64,
                    "time": 391.249999999999,
                    "velocity": 0.5039370078740157,
                    "duration": 0.49166666666667425
                },
                {
                    "name": "C4",
                    "midi": 60,
                    "time": 391.749999999999,
                    "velocity": 0.5039370078740157,
                    "duration": 0.49166666666667425
                },
                {
                    "name": "C5",
                    "midi": 72,
                    "time": 392.249999999999,
                    "velocity": 0.5039370078740157,
                    "duration": 0.24166666666667425
                },
                {
                    "name": "E4",
                    "midi": 64,
                    "time": 392.499999999999,
                    "velocity": 0.5039370078740157,
                    "duration": 0.24166666666667425
                },
                {
                    "name": "E4",
                    "midi": 64,
                    "time": 392.749999999999,
                    "velocity": 0.5039370078740157,
                    "duration": 0.24166666666667425
                },
                {
                    "name": "G#3",
                    "midi": 56,
                    "time": 392.999999999999,
                    "velocity": 0.5039370078740157,
                    "duration": 0.24166666666667425
                },
                {
                    "name": "B4",
                    "midi": 71,
                    "time": 393.249999999999,
                    "velocity": 0.5039370078740157,
                    "duration": 0.24166666666667425
                },
                {
                    "name": "E4",
                    "midi": 64,
                    "time": 393.499999999999,
                    "velocity": 0.5039370078740157,
                    "duration": 0.24166666666667425
                },
                {
                    "name": "E4",
                    "midi": 64,
                    "time": 393.749999999999,
                    "velocity": 0.5039370078740157,
                    "duration": 0.49166666666667425
                },
                {
                    "name": "C5",
                    "midi": 72,
                    "time": 394.249999999999,
                    "velocity": 0.5039370078740157,
                    "duration": 0.24166666666667425
                },
                {
                    "name": "E4",
                    "midi": 64,
                    "time": 394.499999999999,
                    "velocity": 0.5039370078740157,
                    "duration": 0.24166666666667425
                },
                {
                    "name": "E4",
                    "midi": 64,
                    "time": 394.749999999999,
                    "velocity": 0.5039370078740157,
                    "duration": 0.24166666666667425
                },
                {
                    "name": "A4",
                    "midi": 69,
                    "time": 394.999999999999,
                    "velocity": 0.5039370078740157,
                    "duration": 0.24166666666667425
                },
                {
                    "name": "C5",
                    "midi": 72,
                    "time": 395.249999999999,
                    "velocity": 0.5039370078740157,
                    "duration": 0.24166666666667425
                },
                {
                    "name": "A3",
                    "midi": 57,
                    "time": 395.499999999999,
                    "velocity": 0.5039370078740157,
                    "duration": 0.24166666666667425
                },
                {
                    "name": "E4",
                    "midi": 64,
                    "time": 395.749999999999,
                    "velocity": 0.5039370078740157,
                    "duration": 0.49166666666667425
                },
                {
                    "name": "B4",
                    "midi": 71,
                    "time": 396.249999999999,
                    "velocity": 0.5039370078740157,
                    "duration": 0.24166666666667425
                },
                {
                    "name": "E4",
                    "midi": 64,
                    "time": 396.499999999999,
                    "velocity": 0.5039370078740157,
                    "duration": 0.24166666666667425
                },
                {
                    "name": "E4",
                    "midi": 64,
                    "time": 396.749999999999,
                    "velocity": 0.5039370078740157,
                    "duration": 0.24166666666667425
                },
                {
                    "name": "F3",
                    "midi": 53,
                    "time": 396.999999999999,
                    "velocity": 0.5039370078740157,
                    "duration": 0.24166666666667425
                },
                {
                    "name": "A4",
                    "midi": 69,
                    "time": 397.249999999999,
                    "velocity": 0.5039370078740157,
                    "duration": 0.24166666666667425
                },
                {
                    "name": "D4",
                    "midi": 62,
                    "time": 397.499999999999,
                    "velocity": 0.5039370078740157,
                    "duration": 0.24166666666667425
                },
                {
                    "name": "D4",
                    "midi": 62,
                    "time": 397.749999999999,
                    "velocity": 0.5039370078740157,
                    "duration": 0.24166666666667425
                },
                {
                    "name": "E5",
                    "midi": 76,
                    "time": 397.999999999999,
                    "velocity": 0.5039370078740157,
                    "duration": 1.9916666666666742
                },
                {
                    "name": "B4",
                    "midi": 71,
                    "time": 397.999999999999,
                    "velocity": 0.5039370078740157,
                    "duration": 1.9916666666666742
                },
                {
                    "name": "G#4",
                    "midi": 68,
                    "time": 397.999999999999,
                    "velocity": 0.5039370078740157,
                    "duration": 1.9916666666666742
                },
                {
                    "name": "A4",
                    "midi": 69,
                    "time": 399.999999999999,
                    "velocity": 0.5039370078740157,
                    "duration": 0.07499999999998863
                },
                {
                    "name": "B4",
                    "midi": 71,
                    "time": 400.0833333333323,
                    "velocity": 0.5039370078740157,
                    "duration": 0.07499999999998863
                },
                {
                    "name": "A4",
                    "midi": 69,
                    "time": 400.1666666666656,
                    "velocity": 0.5039370078740157,
                    "duration": 0.07499999999998863
                },
                {
                    "name": "B4",
                    "midi": 71,
                    "time": 400.2499999999989,
                    "velocity": 0.5039370078740157,
                    "duration": 0.07499999999998863
                },
                {
                    "name": "A4",
                    "midi": 69,
                    "time": 400.33333333333223,
                    "velocity": 0.5039370078740157,
                    "duration": 0.07499999999998863
                },
                {
                    "name": "E4",
                    "midi": 64,
                    "time": 400.49999999999886,
                    "velocity": 0.5039370078740157,
                    "duration": 0.24166666666667425
                },
                {
                    "name": "E4",
                    "midi": 64,
                    "time": 400.74999999999886,
                    "velocity": 0.5039370078740157,
                    "duration": 0.24166666666667425
                },
                {
                    "name": "A4",
                    "midi": 69,
                    "time": 400.99999999999886,
                    "velocity": 0.5039370078740157,
                    "duration": 0.24166666666667425
                },
                {
                    "name": "A4",
                    "midi": 69,
                    "time": 401.24999999999886,
                    "velocity": 0.5039370078740157,
                    "duration": 0.24166666666667425
                },
                {
                    "name": "C5",
                    "midi": 72,
                    "time": 401.49999999999886,
                    "velocity": 0.5039370078740157,
                    "duration": 0.24166666666667425
                },
                {
                    "name": "C5",
                    "midi": 72,
                    "time": 401.74999999999886,
                    "velocity": 0.5039370078740157,
                    "duration": 0.7416666666666742
                },
                {
                    "name": "F4",
                    "midi": 65,
                    "time": 402.49999999999886,
                    "velocity": 0.5039370078740157,
                    "duration": 0.24166666666667425
                },
                {
                    "name": "F4",
                    "midi": 65,
                    "time": 402.74999999999886,
                    "velocity": 0.5039370078740157,
                    "duration": 0.24166666666667425
                },
                {
                    "name": "A4",
                    "midi": 69,
                    "time": 402.99999999999886,
                    "velocity": 0.5039370078740157,
                    "duration": 0.24166666666667425
                },
                {
                    "name": "A4",
                    "midi": 69,
                    "time": 403.24999999999886,
                    "velocity": 0.5039370078740157,
                    "duration": 0.24166666666667425
                },
                {
                    "name": "B4",
                    "midi": 71,
                    "time": 403.49999999999886,
                    "velocity": 0.5039370078740157,
                    "duration": 0.24166666666667425
                },
                {
                    "name": "B4",
                    "midi": 71,
                    "time": 403.74999999999886,
                    "velocity": 0.5039370078740157,
                    "duration": 0.7416666666666742
                },
                {
                    "name": "B3",
                    "midi": 59,
                    "time": 404.49999999999886,
                    "velocity": 0.5039370078740157,
                    "duration": 0.24166666666667425
                },
                {
                    "name": "B3",
                    "midi": 59,
                    "time": 404.74999999999886,
                    "velocity": 0.5039370078740157,
                    "duration": 0.24166666666667425
                },
                {
                    "name": "E4",
                    "midi": 64,
                    "time": 404.99999999999886,
                    "velocity": 0.5039370078740157,
                    "duration": 0.24166666666667425
                },
                {
                    "name": "E4",
                    "midi": 64,
                    "time": 405.24999999999886,
                    "velocity": 0.5039370078740157,
                    "duration": 0.24166666666667425
                },
                {
                    "name": "G#4",
                    "midi": 68,
                    "time": 405.49999999999886,
                    "velocity": 0.5039370078740157,
                    "duration": 0.24166666666667425
                },
                {
                    "name": "G#4",
                    "midi": 68,
                    "time": 405.74999999999886,
                    "velocity": 0.5039370078740157,
                    "duration": 0.9916666666666742
                },
                {
                    "name": "A4",
                    "midi": 69,
                    "time": 406.74999999999886,
                    "velocity": 0.5039370078740157,
                    "duration": 0.49166666666667425
                },
                {
                    "name": "E4",
                    "midi": 64,
                    "time": 407.24999999999886,
                    "velocity": 0.5039370078740157,
                    "duration": 0.49166666666667425
                },
                {
                    "name": "C4",
                    "midi": 60,
                    "time": 407.74999999999886,
                    "velocity": 0.5039370078740157,
                    "duration": 0.49166666666667425
                },
                {
                    "name": "C5",
                    "midi": 72,
                    "time": 408.24999999999886,
                    "velocity": 0.5039370078740157,
                    "duration": 0.24166666666667425
                },
                {
                    "name": "E4",
                    "midi": 64,
                    "time": 408.49999999999886,
                    "velocity": 0.5039370078740157,
                    "duration": 0.24166666666667425
                },
                {
                    "name": "E4",
                    "midi": 64,
                    "time": 408.74999999999886,
                    "velocity": 0.5039370078740157,
                    "duration": 0.24166666666667425
                },
                {
                    "name": "G#3",
                    "midi": 56,
                    "time": 408.99999999999886,
                    "velocity": 0.5039370078740157,
                    "duration": 0.24166666666667425
                },
                {
                    "name": "B4",
                    "midi": 71,
                    "time": 409.24999999999886,
                    "velocity": 0.5039370078740157,
                    "duration": 0.24166666666667425
                },
                {
                    "name": "E4",
                    "midi": 64,
                    "time": 409.49999999999886,
                    "velocity": 0.5039370078740157,
                    "duration": 0.24166666666667425
                },
                {
                    "name": "E4",
                    "midi": 64,
                    "time": 409.74999999999886,
                    "velocity": 0.5039370078740157,
                    "duration": 0.49166666666667425
                },
                {
                    "name": "C5",
                    "midi": 72,
                    "time": 410.24999999999886,
                    "velocity": 0.5039370078740157,
                    "duration": 0.24166666666667425
                },
                {
                    "name": "E4",
                    "midi": 64,
                    "time": 410.49999999999886,
                    "velocity": 0.5039370078740157,
                    "duration": 0.24166666666667425
                },
                {
                    "name": "E4",
                    "midi": 64,
                    "time": 410.74999999999886,
                    "velocity": 0.5039370078740157,
                    "duration": 0.24166666666667425
                },
                {
                    "name": "A4",
                    "midi": 69,
                    "time": 410.99999999999886,
                    "velocity": 0.5039370078740157,
                    "duration": 0.24166666666667425
                },
                {
                    "name": "C5",
                    "midi": 72,
                    "time": 411.24999999999886,
                    "velocity": 0.5039370078740157,
                    "duration": 0.24166666666667425
                },
                {
                    "name": "A3",
                    "midi": 57,
                    "time": 411.49999999999886,
                    "velocity": 0.5039370078740157,
                    "duration": 0.24166666666667425
                },
                {
                    "name": "E4",
                    "midi": 64,
                    "time": 411.74999999999886,
                    "velocity": 0.5039370078740157,
                    "duration": 0.49166666666667425
                },
                {
                    "name": "B4",
                    "midi": 71,
                    "time": 412.24999999999886,
                    "velocity": 0.5039370078740157,
                    "duration": 0.24166666666667425
                },
                {
                    "name": "E4",
                    "midi": 64,
                    "time": 412.49999999999886,
                    "velocity": 0.5039370078740157,
                    "duration": 0.24166666666667425
                },
                {
                    "name": "E4",
                    "midi": 64,
                    "time": 412.74999999999886,
                    "velocity": 0.5039370078740157,
                    "duration": 0.24166666666667425
                },
                {
                    "name": "F3",
                    "midi": 53,
                    "time": 412.99999999999886,
                    "velocity": 0.5039370078740157,
                    "duration": 0.24166666666667425
                },
                {
                    "name": "A4",
                    "midi": 69,
                    "time": 413.24999999999886,
                    "velocity": 0.5039370078740157,
                    "duration": 0.24166666666667425
                },
                {
                    "name": "D4",
                    "midi": 62,
                    "time": 413.49999999999886,
                    "velocity": 0.5039370078740157,
                    "duration": 0.24166666666667425
                },
                {
                    "name": "D4",
                    "midi": 62,
                    "time": 413.74999999999886,
                    "velocity": 0.5039370078740157,
                    "duration": 0.24166666666667425
                },
                {
                    "name": "E5",
                    "midi": 76,
                    "time": 413.99999999999886,
                    "velocity": 0.5039370078740157,
                    "duration": 1.9916666666666742
                },
                {
                    "name": "B4",
                    "midi": 71,
                    "time": 413.99999999999886,
                    "velocity": 0.5039370078740157,
                    "duration": 1.9916666666666742
                },
                {
                    "name": "G#4",
                    "midi": 68,
                    "time": 413.99999999999886,
                    "velocity": 0.5039370078740157,
                    "duration": 1.9916666666666742
                },
                {
                    "name": "E5",
                    "midi": 76,
                    "time": 415.99999999999886,
                    "velocity": 0.5039370078740157,
                    "duration": 0.07499999999998863
                },
                {
                    "name": "D5",
                    "midi": 74,
                    "time": 416.0833333333322,
                    "velocity": 0.5039370078740157,
                    "duration": 0.07499999999998863
                },
                {
                    "name": "E5",
                    "midi": 76,
                    "time": 416.1666666666655,
                    "velocity": 0.5039370078740157,
                    "duration": 0.07499999999998863
                },
                {
                    "name": "D5",
                    "midi": 74,
                    "time": 416.2499999999988,
                    "velocity": 0.5039370078740157,
                    "duration": 0.07499999999998863
                },
                {
                    "name": "E5",
                    "midi": 76,
                    "time": 416.3333333333321,
                    "velocity": 0.5039370078740157,
                    "duration": 0.15833333333335986
                },
                {
                    "name": "G4",
                    "midi": 67,
                    "time": 416.4999999999988,
                    "velocity": 0.5039370078740157,
                    "duration": 0.24166666666667425
                },
                {
                    "name": "G4",
                    "midi": 67,
                    "time": 416.7499999999988,
                    "velocity": 0.5039370078740157,
                    "duration": 0.24166666666667425
                },
                {
                    "name": "C5",
                    "midi": 72,
                    "time": 416.9999999999988,
                    "velocity": 0.5039370078740157,
                    "duration": 0.24166666666667425
                },
                {
                    "name": "C5",
                    "midi": 72,
                    "time": 417.2499999999988,
                    "velocity": 0.5039370078740157,
                    "duration": 0.24166666666667425
                },
                {
                    "name": "E5",
                    "midi": 76,
                    "time": 417.4999999999988,
                    "velocity": 0.5039370078740157,
                    "duration": 0.24166666666667425
                },
                {
                    "name": "E5",
                    "midi": 76,
                    "time": 417.7499999999988,
                    "velocity": 0.5039370078740157,
                    "duration": 0.7416666666666742
                },
                {
                    "name": "A4",
                    "midi": 69,
                    "time": 418.4999999999988,
                    "velocity": 0.5039370078740157,
                    "duration": 0.24166666666667425
                },
                {
                    "name": "A4",
                    "midi": 69,
                    "time": 418.7499999999988,
                    "velocity": 0.5039370078740157,
                    "duration": 0.24166666666667425
                },
                {
                    "name": "C5",
                    "midi": 72,
                    "time": 418.9999999999988,
                    "velocity": 0.5039370078740157,
                    "duration": 0.24166666666667425
                },
                {
                    "name": "C5",
                    "midi": 72,
                    "time": 419.2499999999988,
                    "velocity": 0.5039370078740157,
                    "duration": 0.24166666666667425
                },
                {
                    "name": "F5",
                    "midi": 77,
                    "time": 419.4999999999988,
                    "velocity": 0.5039370078740157,
                    "duration": 0.24166666666667425
                },
                {
                    "name": "F5",
                    "midi": 77,
                    "time": 419.7499999999988,
                    "velocity": 0.5039370078740157,
                    "duration": 0.7416666666666742
                },
                {
                    "name": "A4",
                    "midi": 69,
                    "time": 420.4999999999988,
                    "velocity": 0.5039370078740157,
                    "duration": 0.24166666666667425
                },
                {
                    "name": "A4",
                    "midi": 69,
                    "time": 420.7499999999988,
                    "velocity": 0.5039370078740157,
                    "duration": 0.24166666666667425
                },
                {
                    "name": "D5",
                    "midi": 74,
                    "time": 420.9999999999988,
                    "velocity": 0.5039370078740157,
                    "duration": 0.24166666666667425
                },
                {
                    "name": "D5",
                    "midi": 74,
                    "time": 421.2499999999988,
                    "velocity": 0.5039370078740157,
                    "duration": 0.24166666666667425
                },
                {
                    "name": "F5",
                    "midi": 77,
                    "time": 421.4999999999988,
                    "velocity": 0.5039370078740157,
                    "duration": 0.24166666666667425
                },
                {
                    "name": "F5",
                    "midi": 77,
                    "time": 421.7499999999988,
                    "velocity": 0.5039370078740157,
                    "duration": 0.7416666666666742
                },
                {
                    "name": "B4",
                    "midi": 71,
                    "time": 422.4999999999988,
                    "velocity": 0.5039370078740157,
                    "duration": 0.24166666666667425
                },
                {
                    "name": "B4",
                    "midi": 71,
                    "time": 422.7499999999988,
                    "velocity": 0.5039370078740157,
                    "duration": 0.24166666666667425
                },
                {
                    "name": "D5",
                    "midi": 74,
                    "time": 422.9999999999988,
                    "velocity": 0.5039370078740157,
                    "duration": 0.24166666666667425
                },
                {
                    "name": "D5",
                    "midi": 74,
                    "time": 423.2499999999988,
                    "velocity": 0.5039370078740157,
                    "duration": 0.24166666666667425
                },
                {
                    "name": "G5",
                    "midi": 79,
                    "time": 423.4999999999988,
                    "velocity": 0.5039370078740157,
                    "duration": 0.24166666666667425
                },
                {
                    "name": "G5",
                    "midi": 79,
                    "time": 423.7499999999988,
                    "velocity": 0.5039370078740157,
                    "duration": 0.7416666666666742
                },
                {
                    "name": "E5",
                    "midi": 76,
                    "time": 424.4999999999988,
                    "velocity": 0.5039370078740157,
                    "duration": 0.24166666666667425
                },
                {
                    "name": "C5",
                    "midi": 72,
                    "time": 424.4999999999988,
                    "velocity": 0.5039370078740157,
                    "duration": 0.24166666666667425
                },
                {
                    "name": "E5",
                    "midi": 76,
                    "time": 424.7499999999988,
                    "velocity": 0.5039370078740157,
                    "duration": 0.24166666666667425
                },
                {
                    "name": "C5",
                    "midi": 72,
                    "time": 424.7499999999988,
                    "velocity": 0.5039370078740157,
                    "duration": 0.24166666666667425
                },
                {
                    "name": "G5",
                    "midi": 79,
                    "time": 424.9999999999988,
                    "velocity": 0.5039370078740157,
                    "duration": 0.24166666666667425
                },
                {
                    "name": "E5",
                    "midi": 76,
                    "time": 424.9999999999988,
                    "velocity": 0.5039370078740157,
                    "duration": 0.24166666666667425
                },
                {
                    "name": "G5",
                    "midi": 79,
                    "time": 425.2499999999988,
                    "velocity": 0.5039370078740157,
                    "duration": 0.24166666666667425
                },
                {
                    "name": "E5",
                    "midi": 76,
                    "time": 425.2499999999988,
                    "velocity": 0.5039370078740157,
                    "duration": 0.24166666666667425
                },
                {
                    "name": "E5",
                    "midi": 76,
                    "time": 425.4999999999988,
                    "velocity": 0.5039370078740157,
                    "duration": 0.24166666666667425
                },
                {
                    "name": "C5",
                    "midi": 72,
                    "time": 425.4999999999988,
                    "velocity": 0.5039370078740157,
                    "duration": 0.24166666666667425
                },
                {
                    "name": "E5",
                    "midi": 76,
                    "time": 425.7499999999988,
                    "velocity": 0.5039370078740157,
                    "duration": 0.24166666666667425
                },
                {
                    "name": "C5",
                    "midi": 72,
                    "time": 425.7499999999988,
                    "velocity": 0.5039370078740157,
                    "duration": 0.24166666666667425
                },
                {
                    "name": "A4",
                    "midi": 69,
                    "time": 425.9999999999988,
                    "velocity": 0.5039370078740157,
                    "duration": 0.24166666666667425
                },
                {
                    "name": "F4",
                    "midi": 65,
                    "time": 425.9999999999988,
                    "velocity": 0.5039370078740157,
                    "duration": 0.24166666666667425
                },
                {
                    "name": "A4",
                    "midi": 69,
                    "time": 426.2499999999988,
                    "velocity": 0.5039370078740157,
                    "duration": 0.24166666666667425
                },
                {
                    "name": "F4",
                    "midi": 65,
                    "time": 426.2499999999988,
                    "velocity": 0.5039370078740157,
                    "duration": 0.24166666666667425
                },
                {
                    "name": "B4",
                    "midi": 71,
                    "time": 426.4999999999988,
                    "velocity": 0.5039370078740157,
                    "duration": 0.24166666666667425
                },
                {
                    "name": "G4",
                    "midi": 67,
                    "time": 426.4999999999988,
                    "velocity": 0.5039370078740157,
                    "duration": 0.24166666666667425
                },
                {
                    "name": "B4",
                    "midi": 71,
                    "time": 426.7499999999988,
                    "velocity": 0.5039370078740157,
                    "duration": 0.24166666666667425
                },
                {
                    "name": "G4",
                    "midi": 67,
                    "time": 426.7499999999988,
                    "velocity": 0.5039370078740157,
                    "duration": 0.24166666666667425
                },
                {
                    "name": "C5",
                    "midi": 72,
                    "time": 426.9999999999988,
                    "velocity": 0.5039370078740157,
                    "duration": 0.24166666666667425
                },
                {
                    "name": "A4",
                    "midi": 69,
                    "time": 426.9999999999988,
                    "velocity": 0.5039370078740157,
                    "duration": 0.24166666666667425
                },
                {
                    "name": "C5",
                    "midi": 72,
                    "time": 427.2499999999988,
                    "velocity": 0.5039370078740157,
                    "duration": 0.24166666666667425
                },
                {
                    "name": "A4",
                    "midi": 69,
                    "time": 427.2499999999988,
                    "velocity": 0.5039370078740157,
                    "duration": 0.24166666666667425
                },
                {
                    "name": "G4",
                    "midi": 67,
                    "time": 427.4999999999988,
                    "velocity": 0.5039370078740157,
                    "duration": 0.24166666666667425
                },
                {
                    "name": "E4",
                    "midi": 64,
                    "time": 427.4999999999988,
                    "velocity": 0.5039370078740157,
                    "duration": 0.24166666666667425
                },
                {
                    "name": "C5",
                    "midi": 72,
                    "time": 427.7499999999988,
                    "velocity": 0.5039370078740157,
                    "duration": 0.24166666666667425
                },
                {
                    "name": "G4",
                    "midi": 67,
                    "time": 427.7499999999988,
                    "velocity": 0.5039370078740157,
                    "duration": 0.24166666666667425
                },
                {
                    "name": "E4",
                    "midi": 64,
                    "time": 427.7499999999988,
                    "velocity": 0.5039370078740157,
                    "duration": 0.24166666666667425
                },
                {
                    "name": "A4",
                    "midi": 69,
                    "time": 427.9999999999988,
                    "velocity": 0.5039370078740157,
                    "duration": 0.24166666666667425
                },
                {
                    "name": "F4",
                    "midi": 65,
                    "time": 427.9999999999988,
                    "velocity": 0.5039370078740157,
                    "duration": 0.24166666666667425
                },
                {
                    "name": "C5",
                    "midi": 72,
                    "time": 428.2499999999988,
                    "velocity": 0.5039370078740157,
                    "duration": 0.24166666666667425
                },
                {
                    "name": "A4",
                    "midi": 69,
                    "time": 428.2499999999988,
                    "velocity": 0.5039370078740157,
                    "duration": 0.24166666666667425
                },
                {
                    "name": "F4",
                    "midi": 65,
                    "time": 428.2499999999988,
                    "velocity": 0.5039370078740157,
                    "duration": 0.24166666666667425
                },
                {
                    "name": "F4",
                    "midi": 65,
                    "time": 428.4999999999988,
                    "velocity": 0.5039370078740157,
                    "duration": 0.24166666666667425
                },
                {
                    "name": "D4",
                    "midi": 62,
                    "time": 428.4999999999988,
                    "velocity": 0.5039370078740157,
                    "duration": 0.24166666666667425
                },
                {
                    "name": "C5",
                    "midi": 72,
                    "time": 428.7499999999988,
                    "velocity": 0.5039370078740157,
                    "duration": 0.24166666666667425
                },
                {
                    "name": "A4",
                    "midi": 69,
                    "time": 428.7499999999988,
                    "velocity": 0.5039370078740157,
                    "duration": 0.24166666666667425
                },
                {
                    "name": "F4",
                    "midi": 65,
                    "time": 428.7499999999988,
                    "velocity": 0.5039370078740157,
                    "duration": 0.24166666666667425
                },
                {
                    "name": "D4",
                    "midi": 62,
                    "time": 428.7499999999988,
                    "velocity": 0.5039370078740157,
                    "duration": 0.24166666666667425
                },
                {
                    "name": "D4",
                    "midi": 62,
                    "time": 428.9999999999988,
                    "velocity": 0.5039370078740157,
                    "duration": 0.24166666666667425
                },
                {
                    "name": "G3",
                    "midi": 55,
                    "time": 428.9999999999988,
                    "velocity": 0.5039370078740157,
                    "duration": 0.24166666666667425
                },
                {
                    "name": "C5",
                    "midi": 72,
                    "time": 429.2499999999988,
                    "velocity": 0.5039370078740157,
                    "duration": 0.24166666666667425
                },
                {
                    "name": "G4",
                    "midi": 67,
                    "time": 429.2499999999988,
                    "velocity": 0.5039370078740157,
                    "duration": 0.24166666666667425
                },
                {
                    "name": "D4",
                    "midi": 62,
                    "time": 429.2499999999988,
                    "velocity": 0.5039370078740157,
                    "duration": 0.24166666666667425
                },
                {
                    "name": "D4",
                    "midi": 62,
                    "time": 429.4999999999988,
                    "velocity": 0.5039370078740157,
                    "duration": 0.24166666666667425
                },
                {
                    "name": "G3",
                    "midi": 55,
                    "time": 429.4999999999988,
                    "velocity": 0.5039370078740157,
                    "duration": 0.24166666666667425
                },
                {
                    "name": "B4",
                    "midi": 71,
                    "time": 429.7499999999988,
                    "velocity": 0.5039370078740157,
                    "duration": 0.24166666666667425
                },
                {
                    "name": "G4",
                    "midi": 67,
                    "time": 429.7499999999988,
                    "velocity": 0.5039370078740157,
                    "duration": 0.24166666666667425
                },
                {
                    "name": "F4",
                    "midi": 65,
                    "time": 429.7499999999988,
                    "velocity": 0.5039370078740157,
                    "duration": 0.24166666666667425
                },
                {
                    "name": "D4",
                    "midi": 62,
                    "time": 429.7499999999988,
                    "velocity": 0.5039370078740157,
                    "duration": 0.24166666666667425
                },
                {
                    "name": "C5",
                    "midi": 72,
                    "time": 429.9999999999988,
                    "velocity": 0.5039370078740157,
                    "duration": 0.24166666666667425
                },
                {
                    "name": "G4",
                    "midi": 67,
                    "time": 429.9999999999988,
                    "velocity": 0.5039370078740157,
                    "duration": 0.24166666666667425
                },
                {
                    "name": "E4",
                    "midi": 64,
                    "time": 429.9999999999988,
                    "velocity": 0.5039370078740157,
                    "duration": 0.24166666666667425
                },
                {
                    "name": "C4",
                    "midi": 60,
                    "time": 430.2499999999988,
                    "velocity": 0.5039370078740157,
                    "duration": 0.24166666666667425
                },
                {
                    "name": "C4",
                    "midi": 60,
                    "time": 430.4999999999988,
                    "velocity": 0.5039370078740157,
                    "duration": 0.24166666666667425
                },
                {
                    "name": "E4",
                    "midi": 64,
                    "time": 430.7499999999988,
                    "velocity": 0.5039370078740157,
                    "duration": 0.24166666666667425
                },
                {
                    "name": "E4",
                    "midi": 64,
                    "time": 430.9999999999988,
                    "velocity": 0.5039370078740157,
                    "duration": 0.24166666666667425
                },
                {
                    "name": "G4",
                    "midi": 67,
                    "time": 431.2499999999988,
                    "velocity": 0.5039370078740157,
                    "duration": 0.24166666666667425
                },
                {
                    "name": "G4",
                    "midi": 67,
                    "time": 431.4999999999988,
                    "velocity": 0.5039370078740157,
                    "duration": 0.24166666666667425
                },
                {
                    "name": "C5",
                    "midi": 72,
                    "time": 431.7499999999988,
                    "velocity": 0.5039370078740157,
                    "duration": 0.49166666666667425
                },
                {
                    "name": "E4",
                    "midi": 64,
                    "time": 432.2499999999988,
                    "velocity": 0.5039370078740157,
                    "duration": 0.24166666666667425
                },
                {
                    "name": "E4",
                    "midi": 64,
                    "time": 432.4999999999988,
                    "velocity": 0.5039370078740157,
                    "duration": 0.24166666666667425
                },
                {
                    "name": "G4",
                    "midi": 67,
                    "time": 432.7499999999988,
                    "velocity": 0.5039370078740157,
                    "duration": 0.24166666666667425
                },
                {
                    "name": "G4",
                    "midi": 67,
                    "time": 432.9999999999988,
                    "velocity": 0.5039370078740157,
                    "duration": 0.24166666666667425
                },
                {
                    "name": "C5",
                    "midi": 72,
                    "time": 433.2499999999988,
                    "velocity": 0.5039370078740157,
                    "duration": 0.24166666666667425
                },
                {
                    "name": "C5",
                    "midi": 72,
                    "time": 433.4999999999988,
                    "velocity": 0.5039370078740157,
                    "duration": 0.24166666666667425
                },
                {
                    "name": "C5",
                    "midi": 72,
                    "time": 433.7499999999988,
                    "velocity": 0.5039370078740157,
                    "duration": 0.7416666666666742
                },
                {
                    "name": "D4",
                    "midi": 62,
                    "time": 434.4999999999988,
                    "velocity": 0.5039370078740157,
                    "duration": 0.24166666666667425
                },
                {
                    "name": "D4",
                    "midi": 62,
                    "time": 434.7499999999988,
                    "velocity": 0.5039370078740157,
                    "duration": 0.24166666666667425
                },
                {
                    "name": "G#3",
                    "midi": 56,
                    "time": 434.9999999999988,
                    "velocity": 0.5039370078740157,
                    "duration": 0.24166666666667425
                },
                {
                    "name": "B4",
                    "midi": 71,
                    "time": 435.2499999999988,
                    "velocity": 0.5039370078740157,
                    "duration": 0.24166666666667425
                },
                {
                    "name": "B4",
                    "midi": 71,
                    "time": 435.4999999999988,
                    "velocity": 0.5039370078740157,
                    "duration": 0.24166666666667425
                },
                {
                    "name": "B4",
                    "midi": 71,
                    "time": 435.7499999999988,
                    "velocity": 0.5039370078740157,
                    "duration": 0.7416666666666742
                },
                {
                    "name": "C4",
                    "midi": 60,
                    "time": 436.4999999999988,
                    "velocity": 0.5039370078740157,
                    "duration": 0.24166666666667425
                },
                {
                    "name": "C4",
                    "midi": 60,
                    "time": 436.7499999999988,
                    "velocity": 0.5039370078740157,
                    "duration": 0.24166666666667425
                },
                {
                    "name": "E4",
                    "midi": 64,
                    "time": 436.9999999999988,
                    "velocity": 0.5039370078740157,
                    "duration": 0.24166666666667425
                },
                {
                    "name": "E4",
                    "midi": 64,
                    "time": 437.2499999999988,
                    "velocity": 0.5039370078740157,
                    "duration": 0.24166666666667425
                },
                {
                    "name": "A4",
                    "midi": 69,
                    "time": 437.4999999999988,
                    "velocity": 0.5039370078740157,
                    "duration": 0.24166666666667425
                },
                {
                    "name": "A4",
                    "midi": 69,
                    "time": 437.7499999999988,
                    "velocity": 0.5039370078740157,
                    "duration": 0.7416666666666742
                },
                {
                    "name": "B3",
                    "midi": 59,
                    "time": 438.4999999999988,
                    "velocity": 0.5039370078740157,
                    "duration": 0.24166666666667425
                },
                {
                    "name": "B3",
                    "midi": 59,
                    "time": 438.7499999999988,
                    "velocity": 0.5039370078740157,
                    "duration": 0.24166666666667425
                },
                {
                    "name": "E4",
                    "midi": 64,
                    "time": 438.9999999999988,
                    "velocity": 0.5039370078740157,
                    "duration": 0.24166666666667425
                },
                {
                    "name": "E4",
                    "midi": 64,
                    "time": 439.2499999999988,
                    "velocity": 0.5039370078740157,
                    "duration": 0.24166666666667425
                },
                {
                    "name": "G#4",
                    "midi": 68,
                    "time": 439.4999999999988,
                    "velocity": 0.5039370078740157,
                    "duration": 0.24166666666667425
                },
                {
                    "name": "G#4",
                    "midi": 68,
                    "time": 439.7499999999988,
                    "velocity": 0.5039370078740157,
                    "duration": 0.7416666666666742
                },
                {
                    "name": "E4",
                    "midi": 64,
                    "time": 440.4999999999988,
                    "velocity": 0.5039370078740157,
                    "duration": 0.24166666666667425
                },
                {
                    "name": "E4",
                    "midi": 64,
                    "time": 440.7499999999988,
                    "velocity": 0.5039370078740157,
                    "duration": 0.24166666666667425
                },
                {
                    "name": "A4",
                    "midi": 69,
                    "time": 440.9999999999988,
                    "velocity": 0.5039370078740157,
                    "duration": 0.24166666666667425
                },
                {
                    "name": "A4",
                    "midi": 69,
                    "time": 441.2499999999988,
                    "velocity": 0.5039370078740157,
                    "duration": 0.24166666666667425
                },
                {
                    "name": "C5",
                    "midi": 72,
                    "time": 441.4999999999988,
                    "velocity": 0.5039370078740157,
                    "duration": 0.24166666666667425
                },
                {
                    "name": "C5",
                    "midi": 72,
                    "time": 441.7499999999988,
                    "velocity": 0.5039370078740157,
                    "duration": 0.24166666666667425
                },
                {
                    "name": "F#4",
                    "midi": 66,
                    "time": 441.9999999999988,
                    "velocity": 0.5039370078740157,
                    "duration": 0.24166666666667425
                },
                {
                    "name": "D4",
                    "midi": 62,
                    "time": 441.9999999999988,
                    "velocity": 0.5039370078740157,
                    "duration": 0.24166666666667425
                },
                {
                    "name": "F#4",
                    "midi": 66,
                    "time": 442.2499999999988,
                    "velocity": 0.5039370078740157,
                    "duration": 0.24166666666667425
                },
                {
                    "name": "D4",
                    "midi": 62,
                    "time": 442.2499999999988,
                    "velocity": 0.5039370078740157,
                    "duration": 0.24166666666667425
                },
                {
                    "name": "G#4",
                    "midi": 68,
                    "time": 442.4999999999988,
                    "velocity": 0.5039370078740157,
                    "duration": 0.24166666666667425
                },
                {
                    "name": "E4",
                    "midi": 64,
                    "time": 442.4999999999988,
                    "velocity": 0.5039370078740157,
                    "duration": 0.24166666666667425
                },
                {
                    "name": "G#4",
                    "midi": 68,
                    "time": 442.7499999999988,
                    "velocity": 0.5039370078740157,
                    "duration": 0.24166666666667425
                },
                {
                    "name": "E4",
                    "midi": 64,
                    "time": 442.7499999999988,
                    "velocity": 0.5039370078740157,
                    "duration": 0.24166666666667425
                },
                {
                    "name": "A4",
                    "midi": 69,
                    "time": 442.9999999999988,
                    "velocity": 0.5039370078740157,
                    "duration": 0.24166666666667425
                },
                {
                    "name": "F4",
                    "midi": 65,
                    "time": 442.9999999999988,
                    "velocity": 0.5039370078740157,
                    "duration": 0.24166666666667425
                },
                {
                    "name": "A4",
                    "midi": 69,
                    "time": 443.2499999999988,
                    "velocity": 0.5039370078740157,
                    "duration": 0.24166666666667425
                },
                {
                    "name": "F4",
                    "midi": 65,
                    "time": 443.2499999999988,
                    "velocity": 0.5039370078740157,
                    "duration": 0.24166666666667425
                },
                {
                    "name": "E4",
                    "midi": 64,
                    "time": 443.4999999999988,
                    "velocity": 0.5039370078740157,
                    "duration": 0.24166666666667425
                },
                {
                    "name": "C4",
                    "midi": 60,
                    "time": 443.4999999999988,
                    "velocity": 0.5039370078740157,
                    "duration": 0.24166666666667425
                },
                {
                    "name": "A4",
                    "midi": 69,
                    "time": 443.7499999999988,
                    "velocity": 0.5039370078740157,
                    "duration": 0.24166666666667425
                },
                {
                    "name": "E4",
                    "midi": 64,
                    "time": 443.7499999999988,
                    "velocity": 0.5039370078740157,
                    "duration": 0.24166666666667425
                },
                {
                    "name": "C4",
                    "midi": 60,
                    "time": 443.7499999999988,
                    "velocity": 0.5039370078740157,
                    "duration": 0.24166666666667425
                },
                {
                    "name": "F4",
                    "midi": 65,
                    "time": 443.9999999999988,
                    "velocity": 0.5039370078740157,
                    "duration": 0.24166666666667425
                },
                {
                    "name": "D4",
                    "midi": 62,
                    "time": 443.9999999999988,
                    "velocity": 0.5039370078740157,
                    "duration": 0.24166666666667425
                },
                {
                    "name": "A4",
                    "midi": 69,
                    "time": 444.2499999999988,
                    "velocity": 0.5039370078740157,
                    "duration": 0.24166666666667425
                },
                {
                    "name": "F4",
                    "midi": 65,
                    "time": 444.2499999999988,
                    "velocity": 0.5039370078740157,
                    "duration": 0.24166666666667425
                },
                {
                    "name": "D4",
                    "midi": 62,
                    "time": 444.2499999999988,
                    "velocity": 0.5039370078740157,
                    "duration": 0.24166666666667425
                },
                {
                    "name": "D4",
                    "midi": 62,
                    "time": 444.4999999999988,
                    "velocity": 0.5039370078740157,
                    "duration": 0.24166666666667425
                },
                {
                    "name": "B3",
                    "midi": 59,
                    "time": 444.4999999999988,
                    "velocity": 0.5039370078740157,
                    "duration": 0.24166666666667425
                },
                {
                    "name": "A4",
                    "midi": 69,
                    "time": 444.7499999999988,
                    "velocity": 0.5039370078740157,
                    "duration": 0.24166666666667425
                },
                {
                    "name": "F4",
                    "midi": 65,
                    "time": 444.7499999999988,
                    "velocity": 0.5039370078740157,
                    "duration": 0.24166666666667425
                },
                {
                    "name": "D4",
                    "midi": 62,
                    "time": 444.7499999999988,
                    "velocity": 0.5039370078740157,
                    "duration": 0.24166666666667425
                },
                {
                    "name": "B3",
                    "midi": 59,
                    "time": 444.7499999999988,
                    "velocity": 0.5039370078740157,
                    "duration": 0.24166666666667425
                },
                {
                    "name": "B3",
                    "midi": 59,
                    "time": 444.9999999999988,
                    "velocity": 0.5039370078740157,
                    "duration": 0.24166666666667425
                },
                {
                    "name": "E3",
                    "midi": 52,
                    "time": 444.9999999999988,
                    "velocity": 0.5039370078740157,
                    "duration": 0.24166666666667425
                },
                {
                    "name": "A4",
                    "midi": 69,
                    "time": 445.2499999999988,
                    "velocity": 0.5039370078740157,
                    "duration": 0.24166666666667425
                },
                {
                    "name": "E4",
                    "midi": 64,
                    "time": 445.2499999999988,
                    "velocity": 0.5039370078740157,
                    "duration": 0.24166666666667425
                },
                {
                    "name": "B3",
                    "midi": 59,
                    "time": 445.2499999999988,
                    "velocity": 0.5039370078740157,
                    "duration": 0.24166666666667425
                },
                {
                    "name": "B3",
                    "midi": 59,
                    "time": 445.4999999999988,
                    "velocity": 0.5039370078740157,
                    "duration": 0.24166666666667425
                },
                {
                    "name": "E3",
                    "midi": 52,
                    "time": 445.4999999999988,
                    "velocity": 0.5039370078740157,
                    "duration": 0.24166666666667425
                },
                {
                    "name": "G#4",
                    "midi": 68,
                    "time": 445.7499999999988,
                    "velocity": 0.5039370078740157,
                    "duration": 0.24166666666667425
                },
                {
                    "name": "E4",
                    "midi": 64,
                    "time": 445.7499999999988,
                    "velocity": 0.5039370078740157,
                    "duration": 0.24166666666667425
                },
                {
                    "name": "D4",
                    "midi": 62,
                    "time": 445.7499999999988,
                    "velocity": 0.5039370078740157,
                    "duration": 0.24166666666667425
                },
                {
                    "name": "B3",
                    "midi": 59,
                    "time": 445.7499999999988,
                    "velocity": 0.5039370078740157,
                    "duration": 0.24166666666667425
                },
                {
                    "name": "A4",
                    "midi": 69,
                    "time": 445.9999999999988,
                    "velocity": 0.5039370078740157,
                    "duration": 0.24166666666667425
                },
                {
                    "name": "E4",
                    "midi": 64,
                    "time": 445.9999999999988,
                    "velocity": 0.5039370078740157,
                    "duration": 0.24166666666667425
                },
                {
                    "name": "C4",
                    "midi": 60,
                    "time": 445.9999999999988,
                    "velocity": 0.5039370078740157,
                    "duration": 0.24166666666667425
                },
                {
                    "name": "E4",
                    "midi": 64,
                    "time": 446.2499999999988,
                    "velocity": 0.5039370078740157,
                    "duration": 0.24166666666667425
                },
                {
                    "name": "E4",
                    "midi": 64,
                    "time": 446.4999999999988,
                    "velocity": 0.5039370078740157,
                    "duration": 0.24166666666667425
                },
                {
                    "name": "A4",
                    "midi": 69,
                    "time": 446.7499999999988,
                    "velocity": 0.5039370078740157,
                    "duration": 0.24166666666667425
                },
                {
                    "name": "A4",
                    "midi": 69,
                    "time": 446.9999999999988,
                    "velocity": 0.5039370078740157,
                    "duration": 0.24166666666667425
                },
                {
                    "name": "C5",
                    "midi": 72,
                    "time": 447.2499999999988,
                    "velocity": 0.5039370078740157,
                    "duration": 0.24166666666667425
                },
                {
                    "name": "C5",
                    "midi": 72,
                    "time": 447.4999999999988,
                    "velocity": 0.5039370078740157,
                    "duration": 0.24166666666667425
                },
                {
                    "name": "E5",
                    "midi": 76,
                    "time": 447.7499999999988,
                    "velocity": 0.5039370078740157,
                    "duration": 0.24166666666667425
                },
                {
                    "name": "E5",
                    "midi": 76,
                    "time": 447.9999999999988,
                    "velocity": 0.5039370078740157,
                    "duration": 0.07499999999998863
                },
                {
                    "name": "D5",
                    "midi": 74,
                    "time": 448.0833333333321,
                    "velocity": 0.5039370078740157,
                    "duration": 0.07499999999998863
                },
                {
                    "name": "E5",
                    "midi": 76,
                    "time": 448.16666666666544,
                    "velocity": 0.5039370078740157,
                    "duration": 0.07499999999998863
                },
                {
                    "name": "D5",
                    "midi": 74,
                    "time": 448.24999999999875,
                    "velocity": 0.5039370078740157,
                    "duration": 0.07499999999998863
                },
                {
                    "name": "E5",
                    "midi": 76,
                    "time": 448.33333333333206,
                    "velocity": 0.5039370078740157,
                    "duration": 0.15833333333335986
                },
                {
                    "name": "G4",
                    "midi": 67,
                    "time": 448.49999999999875,
                    "velocity": 0.5039370078740157,
                    "duration": 0.24166666666667425
                },
                {
                    "name": "G4",
                    "midi": 67,
                    "time": 448.74999999999875,
                    "velocity": 0.5039370078740157,
                    "duration": 0.24166666666667425
                },
                {
                    "name": "C5",
                    "midi": 72,
                    "time": 448.99999999999875,
                    "velocity": 0.5039370078740157,
                    "duration": 0.24166666666667425
                },
                {
                    "name": "C5",
                    "midi": 72,
                    "time": 449.24999999999875,
                    "velocity": 0.5039370078740157,
                    "duration": 0.24166666666667425
                },
                {
                    "name": "E5",
                    "midi": 76,
                    "time": 449.49999999999875,
                    "velocity": 0.5039370078740157,
                    "duration": 0.24166666666667425
                },
                {
                    "name": "E5",
                    "midi": 76,
                    "time": 449.74999999999875,
                    "velocity": 0.5039370078740157,
                    "duration": 0.7416666666666742
                },
                {
                    "name": "A4",
                    "midi": 69,
                    "time": 450.49999999999875,
                    "velocity": 0.5039370078740157,
                    "duration": 0.24166666666667425
                },
                {
                    "name": "A4",
                    "midi": 69,
                    "time": 450.74999999999875,
                    "velocity": 0.5039370078740157,
                    "duration": 0.24166666666667425
                },
                {
                    "name": "C5",
                    "midi": 72,
                    "time": 450.99999999999875,
                    "velocity": 0.5039370078740157,
                    "duration": 0.24166666666667425
                },
                {
                    "name": "C5",
                    "midi": 72,
                    "time": 451.24999999999875,
                    "velocity": 0.5039370078740157,
                    "duration": 0.24166666666667425
                },
                {
                    "name": "F5",
                    "midi": 77,
                    "time": 451.49999999999875,
                    "velocity": 0.5039370078740157,
                    "duration": 0.24166666666667425
                },
                {
                    "name": "F5",
                    "midi": 77,
                    "time": 451.74999999999875,
                    "velocity": 0.5039370078740157,
                    "duration": 0.7416666666666742
                },
                {
                    "name": "A4",
                    "midi": 69,
                    "time": 452.49999999999875,
                    "velocity": 0.5039370078740157,
                    "duration": 0.24166666666667425
                },
                {
                    "name": "A4",
                    "midi": 69,
                    "time": 452.74999999999875,
                    "velocity": 0.5039370078740157,
                    "duration": 0.24166666666667425
                },
                {
                    "name": "D5",
                    "midi": 74,
                    "time": 452.99999999999875,
                    "velocity": 0.5039370078740157,
                    "duration": 0.24166666666667425
                },
                {
                    "name": "D5",
                    "midi": 74,
                    "time": 453.24999999999875,
                    "velocity": 0.5039370078740157,
                    "duration": 0.24166666666667425
                },
                {
                    "name": "F5",
                    "midi": 77,
                    "time": 453.49999999999875,
                    "velocity": 0.5039370078740157,
                    "duration": 0.24166666666667425
                },
                {
                    "name": "F5",
                    "midi": 77,
                    "time": 453.74999999999875,
                    "velocity": 0.5039370078740157,
                    "duration": 0.7416666666666742
                },
                {
                    "name": "B4",
                    "midi": 71,
                    "time": 454.49999999999875,
                    "velocity": 0.5039370078740157,
                    "duration": 0.24166666666667425
                },
                {
                    "name": "B4",
                    "midi": 71,
                    "time": 454.74999999999875,
                    "velocity": 0.5039370078740157,
                    "duration": 0.24166666666667425
                },
                {
                    "name": "D5",
                    "midi": 74,
                    "time": 454.99999999999875,
                    "velocity": 0.5039370078740157,
                    "duration": 0.24166666666667425
                },
                {
                    "name": "D5",
                    "midi": 74,
                    "time": 455.24999999999875,
                    "velocity": 0.5039370078740157,
                    "duration": 0.24166666666667425
                },
                {
                    "name": "G5",
                    "midi": 79,
                    "time": 455.49999999999875,
                    "velocity": 0.5039370078740157,
                    "duration": 0.24166666666667425
                },
                {
                    "name": "G5",
                    "midi": 79,
                    "time": 455.74999999999875,
                    "velocity": 0.5039370078740157,
                    "duration": 0.7416666666666742
                },
                {
                    "name": "E5",
                    "midi": 76,
                    "time": 456.49999999999875,
                    "velocity": 0.5039370078740157,
                    "duration": 0.24166666666667425
                },
                {
                    "name": "C5",
                    "midi": 72,
                    "time": 456.49999999999875,
                    "velocity": 0.5039370078740157,
                    "duration": 0.24166666666667425
                },
                {
                    "name": "E5",
                    "midi": 76,
                    "time": 456.74999999999875,
                    "velocity": 0.5039370078740157,
                    "duration": 0.24166666666667425
                },
                {
                    "name": "C5",
                    "midi": 72,
                    "time": 456.74999999999875,
                    "velocity": 0.5039370078740157,
                    "duration": 0.24166666666667425
                },
                {
                    "name": "G5",
                    "midi": 79,
                    "time": 456.99999999999875,
                    "velocity": 0.5039370078740157,
                    "duration": 0.24166666666667425
                },
                {
                    "name": "E5",
                    "midi": 76,
                    "time": 456.99999999999875,
                    "velocity": 0.5039370078740157,
                    "duration": 0.24166666666667425
                },
                {
                    "name": "G5",
                    "midi": 79,
                    "time": 457.24999999999875,
                    "velocity": 0.5039370078740157,
                    "duration": 0.24166666666667425
                },
                {
                    "name": "E5",
                    "midi": 76,
                    "time": 457.24999999999875,
                    "velocity": 0.5039370078740157,
                    "duration": 0.24166666666667425
                },
                {
                    "name": "E5",
                    "midi": 76,
                    "time": 457.49999999999875,
                    "velocity": 0.5039370078740157,
                    "duration": 0.24166666666667425
                },
                {
                    "name": "C5",
                    "midi": 72,
                    "time": 457.49999999999875,
                    "velocity": 0.5039370078740157,
                    "duration": 0.24166666666667425
                },
                {
                    "name": "E5",
                    "midi": 76,
                    "time": 457.74999999999875,
                    "velocity": 0.5039370078740157,
                    "duration": 0.24166666666667425
                },
                {
                    "name": "C5",
                    "midi": 72,
                    "time": 457.74999999999875,
                    "velocity": 0.5039370078740157,
                    "duration": 0.24166666666667425
                },
                {
                    "name": "A4",
                    "midi": 69,
                    "time": 457.99999999999875,
                    "velocity": 0.5039370078740157,
                    "duration": 0.24166666666667425
                },
                {
                    "name": "F4",
                    "midi": 65,
                    "time": 457.99999999999875,
                    "velocity": 0.5039370078740157,
                    "duration": 0.24166666666667425
                },
                {
                    "name": "A4",
                    "midi": 69,
                    "time": 458.24999999999875,
                    "velocity": 0.5039370078740157,
                    "duration": 0.24166666666667425
                },
                {
                    "name": "F4",
                    "midi": 65,
                    "time": 458.24999999999875,
                    "velocity": 0.5039370078740157,
                    "duration": 0.24166666666667425
                },
                {
                    "name": "B4",
                    "midi": 71,
                    "time": 458.49999999999875,
                    "velocity": 0.5039370078740157,
                    "duration": 0.24166666666667425
                },
                {
                    "name": "G4",
                    "midi": 67,
                    "time": 458.49999999999875,
                    "velocity": 0.5039370078740157,
                    "duration": 0.24166666666667425
                },
                {
                    "name": "B4",
                    "midi": 71,
                    "time": 458.74999999999875,
                    "velocity": 0.5039370078740157,
                    "duration": 0.24166666666667425
                },
                {
                    "name": "G4",
                    "midi": 67,
                    "time": 458.74999999999875,
                    "velocity": 0.5039370078740157,
                    "duration": 0.24166666666667425
                },
                {
                    "name": "C5",
                    "midi": 72,
                    "time": 458.99999999999875,
                    "velocity": 0.5039370078740157,
                    "duration": 0.24166666666667425
                },
                {
                    "name": "A4",
                    "midi": 69,
                    "time": 458.99999999999875,
                    "velocity": 0.5039370078740157,
                    "duration": 0.24166666666667425
                },
                {
                    "name": "C5",
                    "midi": 72,
                    "time": 459.24999999999875,
                    "velocity": 0.5039370078740157,
                    "duration": 0.24166666666667425
                },
                {
                    "name": "A4",
                    "midi": 69,
                    "time": 459.24999999999875,
                    "velocity": 0.5039370078740157,
                    "duration": 0.24166666666667425
                },
                {
                    "name": "G4",
                    "midi": 67,
                    "time": 459.49999999999875,
                    "velocity": 0.5039370078740157,
                    "duration": 0.24166666666667425
                },
                {
                    "name": "E4",
                    "midi": 64,
                    "time": 459.49999999999875,
                    "velocity": 0.5039370078740157,
                    "duration": 0.24166666666667425
                },
                {
                    "name": "C5",
                    "midi": 72,
                    "time": 459.74999999999875,
                    "velocity": 0.5039370078740157,
                    "duration": 0.24166666666667425
                },
                {
                    "name": "G4",
                    "midi": 67,
                    "time": 459.74999999999875,
                    "velocity": 0.5039370078740157,
                    "duration": 0.24166666666667425
                },
                {
                    "name": "E4",
                    "midi": 64,
                    "time": 459.74999999999875,
                    "velocity": 0.5039370078740157,
                    "duration": 0.24166666666667425
                },
                {
                    "name": "A4",
                    "midi": 69,
                    "time": 459.99999999999875,
                    "velocity": 0.5039370078740157,
                    "duration": 0.24166666666667425
                },
                {
                    "name": "F4",
                    "midi": 65,
                    "time": 459.99999999999875,
                    "velocity": 0.5039370078740157,
                    "duration": 0.24166666666667425
                },
                {
                    "name": "C5",
                    "midi": 72,
                    "time": 460.24999999999875,
                    "velocity": 0.5039370078740157,
                    "duration": 0.24166666666667425
                },
                {
                    "name": "A4",
                    "midi": 69,
                    "time": 460.24999999999875,
                    "velocity": 0.5039370078740157,
                    "duration": 0.24166666666667425
                },
                {
                    "name": "F4",
                    "midi": 65,
                    "time": 460.24999999999875,
                    "velocity": 0.5039370078740157,
                    "duration": 0.24166666666667425
                },
                {
                    "name": "F4",
                    "midi": 65,
                    "time": 460.49999999999875,
                    "velocity": 0.5039370078740157,
                    "duration": 0.24166666666667425
                },
                {
                    "name": "D4",
                    "midi": 62,
                    "time": 460.49999999999875,
                    "velocity": 0.5039370078740157,
                    "duration": 0.24166666666667425
                },
                {
                    "name": "C5",
                    "midi": 72,
                    "time": 460.74999999999875,
                    "velocity": 0.5039370078740157,
                    "duration": 0.24166666666667425
                },
                {
                    "name": "A4",
                    "midi": 69,
                    "time": 460.74999999999875,
                    "velocity": 0.5039370078740157,
                    "duration": 0.24166666666667425
                },
                {
                    "name": "F4",
                    "midi": 65,
                    "time": 460.74999999999875,
                    "velocity": 0.5039370078740157,
                    "duration": 0.24166666666667425
                },
                {
                    "name": "D4",
                    "midi": 62,
                    "time": 460.74999999999875,
                    "velocity": 0.5039370078740157,
                    "duration": 0.24166666666667425
                },
                {
                    "name": "D4",
                    "midi": 62,
                    "time": 460.99999999999875,
                    "velocity": 0.5039370078740157,
                    "duration": 0.24166666666667425
                },
                {
                    "name": "G3",
                    "midi": 55,
                    "time": 460.99999999999875,
                    "velocity": 0.5039370078740157,
                    "duration": 0.24166666666667425
                },
                {
                    "name": "C5",
                    "midi": 72,
                    "time": 461.24999999999875,
                    "velocity": 0.5039370078740157,
                    "duration": 0.24166666666667425
                },
                {
                    "name": "G4",
                    "midi": 67,
                    "time": 461.24999999999875,
                    "velocity": 0.5039370078740157,
                    "duration": 0.24166666666667425
                },
                {
                    "name": "D4",
                    "midi": 62,
                    "time": 461.24999999999875,
                    "velocity": 0.5039370078740157,
                    "duration": 0.24166666666667425
                },
                {
                    "name": "D4",
                    "midi": 62,
                    "time": 461.49999999999875,
                    "velocity": 0.5039370078740157,
                    "duration": 0.24166666666667425
                },
                {
                    "name": "G3",
                    "midi": 55,
                    "time": 461.49999999999875,
                    "velocity": 0.5039370078740157,
                    "duration": 0.24166666666667425
                },
                {
                    "name": "B4",
                    "midi": 71,
                    "time": 461.74999999999875,
                    "velocity": 0.5039370078740157,
                    "duration": 0.24166666666667425
                },
                {
                    "name": "G4",
                    "midi": 67,
                    "time": 461.74999999999875,
                    "velocity": 0.5039370078740157,
                    "duration": 0.24166666666667425
                },
                {
                    "name": "F4",
                    "midi": 65,
                    "time": 461.74999999999875,
                    "velocity": 0.5039370078740157,
                    "duration": 0.24166666666667425
                },
                {
                    "name": "D4",
                    "midi": 62,
                    "time": 461.74999999999875,
                    "velocity": 0.5039370078740157,
                    "duration": 0.24166666666667425
                },
                {
                    "name": "C5",
                    "midi": 72,
                    "time": 461.99999999999875,
                    "velocity": 0.5039370078740157,
                    "duration": 0.24166666666667425
                },
                {
                    "name": "G4",
                    "midi": 67,
                    "time": 461.99999999999875,
                    "velocity": 0.5039370078740157,
                    "duration": 0.24166666666667425
                },
                {
                    "name": "E4",
                    "midi": 64,
                    "time": 461.99999999999875,
                    "velocity": 0.5039370078740157,
                    "duration": 0.24166666666667425
                },
                {
                    "name": "C4",
                    "midi": 60,
                    "time": 462.24999999999875,
                    "velocity": 0.5039370078740157,
                    "duration": 0.24166666666667425
                },
                {
                    "name": "C4",
                    "midi": 60,
                    "time": 462.49999999999875,
                    "velocity": 0.5039370078740157,
                    "duration": 0.24166666666667425
                },
                {
                    "name": "E4",
                    "midi": 64,
                    "time": 462.74999999999875,
                    "velocity": 0.5039370078740157,
                    "duration": 0.24166666666667425
                },
                {
                    "name": "E4",
                    "midi": 64,
                    "time": 462.99999999999875,
                    "velocity": 0.5039370078740157,
                    "duration": 0.24166666666667425
                },
                {
                    "name": "G4",
                    "midi": 67,
                    "time": 463.24999999999875,
                    "velocity": 0.5039370078740157,
                    "duration": 0.24166666666667425
                },
                {
                    "name": "G4",
                    "midi": 67,
                    "time": 463.49999999999875,
                    "velocity": 0.5039370078740157,
                    "duration": 0.24166666666667425
                },
                {
                    "name": "C5",
                    "midi": 72,
                    "time": 463.74999999999875,
                    "velocity": 0.5039370078740157,
                    "duration": 0.49166666666667425
                },
                {
                    "name": "E4",
                    "midi": 64,
                    "time": 464.24999999999875,
                    "velocity": 0.5039370078740157,
                    "duration": 0.24166666666667425
                },
                {
                    "name": "E4",
                    "midi": 64,
                    "time": 464.49999999999875,
                    "velocity": 0.5039370078740157,
                    "duration": 0.24166666666667425
                },
                {
                    "name": "G4",
                    "midi": 67,
                    "time": 464.74999999999875,
                    "velocity": 0.5039370078740157,
                    "duration": 0.24166666666667425
                },
                {
                    "name": "G4",
                    "midi": 67,
                    "time": 464.99999999999875,
                    "velocity": 0.5039370078740157,
                    "duration": 0.24166666666667425
                },
                {
                    "name": "C5",
                    "midi": 72,
                    "time": 465.24999999999875,
                    "velocity": 0.5039370078740157,
                    "duration": 0.24166666666667425
                },
                {
                    "name": "C5",
                    "midi": 72,
                    "time": 465.49999999999875,
                    "velocity": 0.5039370078740157,
                    "duration": 0.24166666666667425
                },
                {
                    "name": "C5",
                    "midi": 72,
                    "time": 465.74999999999875,
                    "velocity": 0.5039370078740157,
                    "duration": 0.7416666666666742
                },
                {
                    "name": "D4",
                    "midi": 62,
                    "time": 466.49999999999875,
                    "velocity": 0.5039370078740157,
                    "duration": 0.24166666666667425
                },
                {
                    "name": "D4",
                    "midi": 62,
                    "time": 466.74999999999875,
                    "velocity": 0.5039370078740157,
                    "duration": 0.24166666666667425
                },
                {
                    "name": "G#3",
                    "midi": 56,
                    "time": 466.99999999999875,
                    "velocity": 0.5039370078740157,
                    "duration": 0.24166666666667425
                },
                {
                    "name": "B4",
                    "midi": 71,
                    "time": 467.24999999999875,
                    "velocity": 0.5039370078740157,
                    "duration": 0.24166666666667425
                },
                {
                    "name": "B4",
                    "midi": 71,
                    "time": 467.49999999999875,
                    "velocity": 0.5039370078740157,
                    "duration": 0.24166666666667425
                },
                {
                    "name": "B4",
                    "midi": 71,
                    "time": 467.74999999999875,
                    "velocity": 0.5039370078740157,
                    "duration": 0.7416666666666742
                },
                {
                    "name": "C4",
                    "midi": 60,
                    "time": 468.49999999999875,
                    "velocity": 0.5039370078740157,
                    "duration": 0.24166666666667425
                },
                {
                    "name": "C4",
                    "midi": 60,
                    "time": 468.74999999999875,
                    "velocity": 0.5039370078740157,
                    "duration": 0.24166666666667425
                },
                {
                    "name": "E4",
                    "midi": 64,
                    "time": 468.99999999999875,
                    "velocity": 0.5039370078740157,
                    "duration": 0.24166666666667425
                },
                {
                    "name": "E4",
                    "midi": 64,
                    "time": 469.24999999999875,
                    "velocity": 0.5039370078740157,
                    "duration": 0.24166666666667425
                },
                {
                    "name": "A4",
                    "midi": 69,
                    "time": 469.49999999999875,
                    "velocity": 0.5039370078740157,
                    "duration": 0.24166666666667425
                },
                {
                    "name": "A4",
                    "midi": 69,
                    "time": 469.74999999999875,
                    "velocity": 0.5039370078740157,
                    "duration": 0.7416666666666742
                },
                {
                    "name": "B3",
                    "midi": 59,
                    "time": 470.49999999999875,
                    "velocity": 0.5039370078740157,
                    "duration": 0.24166666666667425
                },
                {
                    "name": "B3",
                    "midi": 59,
                    "time": 470.74999999999875,
                    "velocity": 0.5039370078740157,
                    "duration": 0.24166666666667425
                },
                {
                    "name": "E4",
                    "midi": 64,
                    "time": 470.99999999999875,
                    "velocity": 0.5039370078740157,
                    "duration": 0.24166666666667425
                },
                {
                    "name": "E4",
                    "midi": 64,
                    "time": 471.24999999999875,
                    "velocity": 0.5039370078740157,
                    "duration": 0.24166666666667425
                },
                {
                    "name": "G#4",
                    "midi": 68,
                    "time": 471.49999999999875,
                    "velocity": 0.5039370078740157,
                    "duration": 0.24166666666667425
                },
                {
                    "name": "G#4",
                    "midi": 68,
                    "time": 471.74999999999875,
                    "velocity": 0.5039370078740157,
                    "duration": 0.7416666666666742
                },
                {
                    "name": "E4",
                    "midi": 64,
                    "time": 472.49999999999875,
                    "velocity": 0.5039370078740157,
                    "duration": 0.24166666666667425
                },
                {
                    "name": "E4",
                    "midi": 64,
                    "time": 472.74999999999875,
                    "velocity": 0.5039370078740157,
                    "duration": 0.24166666666667425
                },
                {
                    "name": "A4",
                    "midi": 69,
                    "time": 472.99999999999875,
                    "velocity": 0.5039370078740157,
                    "duration": 0.24166666666667425
                },
                {
                    "name": "A4",
                    "midi": 69,
                    "time": 473.24999999999875,
                    "velocity": 0.5039370078740157,
                    "duration": 0.24166666666667425
                },
                {
                    "name": "C5",
                    "midi": 72,
                    "time": 473.49999999999875,
                    "velocity": 0.5039370078740157,
                    "duration": 0.24166666666667425
                },
                {
                    "name": "C5",
                    "midi": 72,
                    "time": 473.74999999999875,
                    "velocity": 0.5039370078740157,
                    "duration": 0.24166666666667425
                },
                {
                    "name": "F#4",
                    "midi": 66,
                    "time": 473.99999999999875,
                    "velocity": 0.5039370078740157,
                    "duration": 0.24166666666667425
                },
                {
                    "name": "D4",
                    "midi": 62,
                    "time": 473.99999999999875,
                    "velocity": 0.5039370078740157,
                    "duration": 0.24166666666667425
                },
                {
                    "name": "F#4",
                    "midi": 66,
                    "time": 474.24999999999875,
                    "velocity": 0.5039370078740157,
                    "duration": 0.24166666666667425
                },
                {
                    "name": "D4",
                    "midi": 62,
                    "time": 474.24999999999875,
                    "velocity": 0.5039370078740157,
                    "duration": 0.24166666666667425
                },
                {
                    "name": "G#4",
                    "midi": 68,
                    "time": 474.49999999999875,
                    "velocity": 0.5039370078740157,
                    "duration": 0.24166666666667425
                },
                {
                    "name": "E4",
                    "midi": 64,
                    "time": 474.49999999999875,
                    "velocity": 0.5039370078740157,
                    "duration": 0.24166666666667425
                },
                {
                    "name": "G#4",
                    "midi": 68,
                    "time": 474.74999999999875,
                    "velocity": 0.5039370078740157,
                    "duration": 0.24166666666667425
                },
                {
                    "name": "E4",
                    "midi": 64,
                    "time": 474.74999999999875,
                    "velocity": 0.5039370078740157,
                    "duration": 0.24166666666667425
                },
                {
                    "name": "A4",
                    "midi": 69,
                    "time": 474.99999999999875,
                    "velocity": 0.5039370078740157,
                    "duration": 0.24166666666667425
                },
                {
                    "name": "F4",
                    "midi": 65,
                    "time": 474.99999999999875,
                    "velocity": 0.5039370078740157,
                    "duration": 0.24166666666667425
                },
                {
                    "name": "A4",
                    "midi": 69,
                    "time": 475.24999999999875,
                    "velocity": 0.5039370078740157,
                    "duration": 0.24166666666667425
                },
                {
                    "name": "F4",
                    "midi": 65,
                    "time": 475.24999999999875,
                    "velocity": 0.5039370078740157,
                    "duration": 0.24166666666667425
                },
                {
                    "name": "E4",
                    "midi": 64,
                    "time": 475.49999999999875,
                    "velocity": 0.5039370078740157,
                    "duration": 0.24166666666667425
                },
                {
                    "name": "C4",
                    "midi": 60,
                    "time": 475.49999999999875,
                    "velocity": 0.5039370078740157,
                    "duration": 0.24166666666667425
                },
                {
                    "name": "A4",
                    "midi": 69,
                    "time": 475.74999999999875,
                    "velocity": 0.5039370078740157,
                    "duration": 0.24166666666667425
                },
                {
                    "name": "E4",
                    "midi": 64,
                    "time": 475.74999999999875,
                    "velocity": 0.5039370078740157,
                    "duration": 0.24166666666667425
                },
                {
                    "name": "C4",
                    "midi": 60,
                    "time": 475.74999999999875,
                    "velocity": 0.5039370078740157,
                    "duration": 0.24166666666667425
                },
                {
                    "name": "F4",
                    "midi": 65,
                    "time": 475.99999999999875,
                    "velocity": 0.5039370078740157,
                    "duration": 0.24166666666667425
                },
                {
                    "name": "D4",
                    "midi": 62,
                    "time": 475.99999999999875,
                    "velocity": 0.5039370078740157,
                    "duration": 0.24166666666667425
                },
                {
                    "name": "A4",
                    "midi": 69,
                    "time": 476.24999999999875,
                    "velocity": 0.5039370078740157,
                    "duration": 0.24166666666667425
                },
                {
                    "name": "F4",
                    "midi": 65,
                    "time": 476.24999999999875,
                    "velocity": 0.5039370078740157,
                    "duration": 0.24166666666667425
                },
                {
                    "name": "D4",
                    "midi": 62,
                    "time": 476.24999999999875,
                    "velocity": 0.5039370078740157,
                    "duration": 0.24166666666667425
                },
                {
                    "name": "D4",
                    "midi": 62,
                    "time": 476.49999999999875,
                    "velocity": 0.5039370078740157,
                    "duration": 0.24166666666667425
                },
                {
                    "name": "B3",
                    "midi": 59,
                    "time": 476.49999999999875,
                    "velocity": 0.5039370078740157,
                    "duration": 0.24166666666667425
                },
                {
                    "name": "A4",
                    "midi": 69,
                    "time": 476.74999999999875,
                    "velocity": 0.5039370078740157,
                    "duration": 0.24166666666667425
                },
                {
                    "name": "F4",
                    "midi": 65,
                    "time": 476.74999999999875,
                    "velocity": 0.5039370078740157,
                    "duration": 0.24166666666667425
                },
                {
                    "name": "D4",
                    "midi": 62,
                    "time": 476.74999999999875,
                    "velocity": 0.5039370078740157,
                    "duration": 0.24166666666667425
                },
                {
                    "name": "B3",
                    "midi": 59,
                    "time": 476.74999999999875,
                    "velocity": 0.5039370078740157,
                    "duration": 0.24166666666667425
                },
                {
                    "name": "B3",
                    "midi": 59,
                    "time": 476.99999999999875,
                    "velocity": 0.5039370078740157,
                    "duration": 0.24166666666667425
                },
                {
                    "name": "E3",
                    "midi": 52,
                    "time": 476.99999999999875,
                    "velocity": 0.5039370078740157,
                    "duration": 0.24166666666667425
                },
                {
                    "name": "A4",
                    "midi": 69,
                    "time": 477.24999999999875,
                    "velocity": 0.5039370078740157,
                    "duration": 0.24166666666667425
                },
                {
                    "name": "E4",
                    "midi": 64,
                    "time": 477.24999999999875,
                    "velocity": 0.5039370078740157,
                    "duration": 0.24166666666667425
                },
                {
                    "name": "B3",
                    "midi": 59,
                    "time": 477.24999999999875,
                    "velocity": 0.5039370078740157,
                    "duration": 0.24166666666667425
                },
                {
                    "name": "B3",
                    "midi": 59,
                    "time": 477.49999999999875,
                    "velocity": 0.5039370078740157,
                    "duration": 0.24166666666667425
                },
                {
                    "name": "E3",
                    "midi": 52,
                    "time": 477.49999999999875,
                    "velocity": 0.5039370078740157,
                    "duration": 0.24166666666667425
                },
                {
                    "name": "G#4",
                    "midi": 68,
                    "time": 477.74999999999875,
                    "velocity": 0.5039370078740157,
                    "duration": 0.24166666666667425
                },
                {
                    "name": "E4",
                    "midi": 64,
                    "time": 477.74999999999875,
                    "velocity": 0.5039370078740157,
                    "duration": 0.24166666666667425
                },
                {
                    "name": "D4",
                    "midi": 62,
                    "time": 477.74999999999875,
                    "velocity": 0.5039370078740157,
                    "duration": 0.24166666666667425
                },
                {
                    "name": "B3",
                    "midi": 59,
                    "time": 477.74999999999875,
                    "velocity": 0.5039370078740157,
                    "duration": 0.24166666666667425
                },
                {
                    "name": "A4",
                    "midi": 69,
                    "time": 477.99999999999875,
                    "velocity": 0.5039370078740157,
                    "duration": 0.9916666666666742
                },
                {
                    "name": "E4",
                    "midi": 64,
                    "time": 477.99999999999875,
                    "velocity": 0.5039370078740157,
                    "duration": 0.9916666666666742
                },
                {
                    "name": "C4",
                    "midi": 60,
                    "time": 477.99999999999875,
                    "velocity": 0.5039370078740157,
                    "duration": 0.9916666666666742
                },
                {
                    "name": "E4",
                    "midi": 64,
                    "time": 479.99999999999875,
                    "velocity": 0.5039370078740157,
                    "duration": 0.24166666666667425
                },
                {
                    "name": "C5",
                    "midi": 72,
                    "time": 480.24999999999875,
                    "velocity": 0.5039370078740157,
                    "duration": 0.24166666666667425
                },
                {
                    "name": "C5",
                    "midi": 72,
                    "time": 480.49999999999875,
                    "velocity": 0.5039370078740157,
                    "duration": 0.24166666666667425
                },
                {
                    "name": "A5",
                    "midi": 81,
                    "time": 480.74999999999875,
                    "velocity": 0.5039370078740157,
                    "duration": 0.24166666666667425
                },
                {
                    "name": "C5",
                    "midi": 72,
                    "time": 480.99999999999875,
                    "velocity": 0.5039370078740157,
                    "duration": 0.24166666666667425
                },
                {
                    "name": "C5",
                    "midi": 72,
                    "time": 481.24999999999875,
                    "velocity": 0.5039370078740157,
                    "duration": 0.24166666666667425
                },
                {
                    "name": "E4",
                    "midi": 64,
                    "time": 481.49999999999875,
                    "velocity": 0.5039370078740157,
                    "duration": 0.24166666666667425
                },
                {
                    "name": "C5",
                    "midi": 72,
                    "time": 481.74999999999875,
                    "velocity": 0.5039370078740157,
                    "duration": 0.24166666666667425
                },
                {
                    "name": "F4",
                    "midi": 65,
                    "time": 481.99999999999875,
                    "velocity": 0.5039370078740157,
                    "duration": 0.24166666666667425
                },
                {
                    "name": "B4",
                    "midi": 71,
                    "time": 482.24999999999875,
                    "velocity": 0.5039370078740157,
                    "duration": 0.24166666666667425
                },
                {
                    "name": "B4",
                    "midi": 71,
                    "time": 482.49999999999875,
                    "velocity": 0.5039370078740157,
                    "duration": 0.24166666666667425
                },
                {
                    "name": "F5",
                    "midi": 77,
                    "time": 482.74999999999875,
                    "velocity": 0.5039370078740157,
                    "duration": 0.24166666666667425
                },
                {
                    "name": "B4",
                    "midi": 71,
                    "time": 482.99999999999875,
                    "velocity": 0.5039370078740157,
                    "duration": 0.24166666666667425
                },
                {
                    "name": "B4",
                    "midi": 71,
                    "time": 483.24999999999875,
                    "velocity": 0.5039370078740157,
                    "duration": 0.24166666666667425
                },
                {
                    "name": "D4",
                    "midi": 62,
                    "time": 483.49999999999875,
                    "velocity": 0.5039370078740157,
                    "duration": 0.24166666666667425
                },
                {
                    "name": "A4",
                    "midi": 69,
                    "time": 483.74999999999875,
                    "velocity": 0.5039370078740157,
                    "duration": 0.24166666666667425
                },
                {
                    "name": "B3",
                    "midi": 59,
                    "time": 483.99999999999875,
                    "velocity": 0.5039370078740157,
                    "duration": 0.24166666666667425
                },
                {
                    "name": "A4",
                    "midi": 69,
                    "time": 484.24999999999875,
                    "velocity": 0.5039370078740157,
                    "duration": 0.24166666666667425
                },
                {
                    "name": "A4",
                    "midi": 69,
                    "time": 484.49999999999875,
                    "velocity": 0.5039370078740157,
                    "duration": 0.24166666666667425
                },
                {
                    "name": "E5",
                    "midi": 76,
                    "time": 484.74999999999875,
                    "velocity": 0.5039370078740157,
                    "duration": 0.24166666666667425
                },
                {
                    "name": "A4",
                    "midi": 69,
                    "time": 484.99999999999875,
                    "velocity": 0.5039370078740157,
                    "duration": 0.24166666666667425
                },
                {
                    "name": "A4",
                    "midi": 69,
                    "time": 485.24999999999875,
                    "velocity": 0.5039370078740157,
                    "duration": 0.24166666666667425
                },
                {
                    "name": "B3",
                    "midi": 59,
                    "time": 485.49999999999875,
                    "velocity": 0.5039370078740157,
                    "duration": 0.24166666666667425
                },
                {
                    "name": "G#4",
                    "midi": 68,
                    "time": 485.74999999999875,
                    "velocity": 0.5039370078740157,
                    "duration": 0.24166666666667425
                },
                {
                    "name": "C4",
                    "midi": 60,
                    "time": 485.99999999999875,
                    "velocity": 0.5039370078740157,
                    "duration": 1.9916666666666742
                },
                {
                    "name": "G#4",
                    "midi": 68,
                    "time": 485.99999999999875,
                    "velocity": 0.5039370078740157,
                    "duration": 0.49166666666667425
                },
                {
                    "name": "A4",
                    "midi": 69,
                    "time": 486.49999999999875,
                    "velocity": 0.5039370078740157,
                    "duration": 1.4916666666666742
                },
                {
                    "name": "E4",
                    "midi": 64,
                    "time": 487.99999999999875,
                    "velocity": 0.5039370078740157,
                    "duration": 0.24166666666667425
                },
                {
                    "name": "A4",
                    "midi": 69,
                    "time": 488.24999999999875,
                    "velocity": 0.5039370078740157,
                    "duration": 0.24166666666667425
                },
                {
                    "name": "A4",
                    "midi": 69,
                    "time": 488.49999999999875,
                    "velocity": 0.5039370078740157,
                    "duration": 0.24166666666667425
                },
                {
                    "name": "C5",
                    "midi": 72,
                    "time": 488.74999999999875,
                    "velocity": 0.5039370078740157,
                    "duration": 0.24166666666667425
                },
                {
                    "name": "E4",
                    "midi": 64,
                    "time": 488.99999999999875,
                    "velocity": 0.5039370078740157,
                    "duration": 0.24166666666667425
                },
                {
                    "name": "B4",
                    "midi": 71,
                    "time": 489.24999999999875,
                    "velocity": 0.5039370078740157,
                    "duration": 0.24166666666667425
                },
                {
                    "name": "B4",
                    "midi": 71,
                    "time": 489.49999999999875,
                    "velocity": 0.5039370078740157,
                    "duration": 0.24166666666667425
                },
                {
                    "name": "D5",
                    "midi": 74,
                    "time": 489.74999999999875,
                    "velocity": 0.5039370078740157,
                    "duration": 0.24166666666667425
                },
                {
                    "name": "E4",
                    "midi": 64,
                    "time": 489.99999999999875,
                    "velocity": 0.5039370078740157,
                    "duration": 0.24166666666667425
                },
                {
                    "name": "C5",
                    "midi": 72,
                    "time": 490.24999999999875,
                    "velocity": 0.5039370078740157,
                    "duration": 0.24166666666667425
                },
                {
                    "name": "C5",
                    "midi": 72,
                    "time": 490.49999999999875,
                    "velocity": 0.5039370078740157,
                    "duration": 0.24166666666667425
                },
                {
                    "name": "A5",
                    "midi": 81,
                    "time": 490.74999999999875,
                    "velocity": 0.5039370078740157,
                    "duration": 0.24166666666667425
                },
                {
                    "name": "C5",
                    "midi": 72,
                    "time": 490.99999999999875,
                    "velocity": 0.5039370078740157,
                    "duration": 0.24166666666667425
                },
                {
                    "name": "C5",
                    "midi": 72,
                    "time": 491.24999999999875,
                    "velocity": 0.5039370078740157,
                    "duration": 0.24166666666667425
                },
                {
                    "name": "E4",
                    "midi": 64,
                    "time": 491.49999999999875,
                    "velocity": 0.5039370078740157,
                    "duration": 0.24166666666667425
                },
                {
                    "name": "C5",
                    "midi": 72,
                    "time": 491.74999999999875,
                    "velocity": 0.5039370078740157,
                    "duration": 0.24166666666667425
                },
                {
                    "name": "F4",
                    "midi": 65,
                    "time": 491.99999999999875,
                    "velocity": 0.5039370078740157,
                    "duration": 0.24166666666667425
                },
                {
                    "name": "B4",
                    "midi": 71,
                    "time": 492.24999999999875,
                    "velocity": 0.5039370078740157,
                    "duration": 0.24166666666667425
                },
                {
                    "name": "B4",
                    "midi": 71,
                    "time": 492.49999999999875,
                    "velocity": 0.5039370078740157,
                    "duration": 0.24166666666667425
                },
                {
                    "name": "F5",
                    "midi": 77,
                    "time": 492.74999999999875,
                    "velocity": 0.5039370078740157,
                    "duration": 0.24166666666667425
                },
                {
                    "name": "B4",
                    "midi": 71,
                    "time": 492.99999999999875,
                    "velocity": 0.5039370078740157,
                    "duration": 0.24166666666667425
                },
                {
                    "name": "B4",
                    "midi": 71,
                    "time": 493.24999999999875,
                    "velocity": 0.5039370078740157,
                    "duration": 0.24166666666667425
                },
                {
                    "name": "D4",
                    "midi": 62,
                    "time": 493.49999999999875,
                    "velocity": 0.5039370078740157,
                    "duration": 0.24166666666667425
                },
                {
                    "name": "A4",
                    "midi": 69,
                    "time": 493.74999999999875,
                    "velocity": 0.5039370078740157,
                    "duration": 0.24166666666667425
                },
                {
                    "name": "B3",
                    "midi": 59,
                    "time": 493.99999999999875,
                    "velocity": 0.5039370078740157,
                    "duration": 0.4916666666666174
                },
                {
                    "name": "G#4",
                    "midi": 68,
                    "time": 493.99999999999875,
                    "velocity": 0.5039370078740157,
                    "duration": 0.07499999999998863
                },
                {
                    "name": "F#4",
                    "midi": 66,
                    "time": 494.08333333333206,
                    "velocity": 0.5039370078740157,
                    "duration": 0.07499999999998863
                },
                {
                    "name": "G#4",
                    "midi": 68,
                    "time": 494.1666666666654,
                    "velocity": 0.5039370078740157,
                    "duration": 0.07499999999998863
                },
                {
                    "name": "F#4",
                    "midi": 66,
                    "time": 494.2499999999987,
                    "velocity": 0.5039370078740157,
                    "duration": 0.07499999999998863
                },
                {
                    "name": "G#4",
                    "midi": 68,
                    "time": 494.333333333332,
                    "velocity": 0.5039370078740157,
                    "duration": 1.6583333333333599
                },
                {
                    "name": "E4",
                    "midi": 64,
                    "time": 495.9999999999987,
                    "velocity": 0.5039370078740157,
                    "duration": 0.24166666666667425
                },
                {
                    "name": "C5",
                    "midi": 72,
                    "time": 496.2499999999987,
                    "velocity": 0.5039370078740157,
                    "duration": 0.24166666666667425
                },
                {
                    "name": "C5",
                    "midi": 72,
                    "time": 496.4999999999987,
                    "velocity": 0.5039370078740157,
                    "duration": 0.24166666666667425
                },
                {
                    "name": "A5",
                    "midi": 81,
                    "time": 496.7499999999987,
                    "velocity": 0.5039370078740157,
                    "duration": 0.24166666666667425
                },
                {
                    "name": "C5",
                    "midi": 72,
                    "time": 496.9999999999987,
                    "velocity": 0.5039370078740157,
                    "duration": 0.24166666666667425
                },
                {
                    "name": "C5",
                    "midi": 72,
                    "time": 497.2499999999987,
                    "velocity": 0.5039370078740157,
                    "duration": 0.24166666666667425
                },
                {
                    "name": "E4",
                    "midi": 64,
                    "time": 497.4999999999987,
                    "velocity": 0.5039370078740157,
                    "duration": 0.24166666666667425
                },
                {
                    "name": "C5",
                    "midi": 72,
                    "time": 497.7499999999987,
                    "velocity": 0.5039370078740157,
                    "duration": 0.24166666666667425
                },
                {
                    "name": "F4",
                    "midi": 65,
                    "time": 497.9999999999987,
                    "velocity": 0.5039370078740157,
                    "duration": 0.24166666666667425
                },
                {
                    "name": "B4",
                    "midi": 71,
                    "time": 498.2499999999987,
                    "velocity": 0.5039370078740157,
                    "duration": 0.24166666666667425
                },
                {
                    "name": "B4",
                    "midi": 71,
                    "time": 498.4999999999987,
                    "velocity": 0.5039370078740157,
                    "duration": 0.24166666666667425
                },
                {
                    "name": "F5",
                    "midi": 77,
                    "time": 498.7499999999987,
                    "velocity": 0.5039370078740157,
                    "duration": 0.24166666666667425
                },
                {
                    "name": "B4",
                    "midi": 71,
                    "time": 498.9999999999987,
                    "velocity": 0.5039370078740157,
                    "duration": 0.24166666666667425
                },
                {
                    "name": "B4",
                    "midi": 71,
                    "time": 499.2499999999987,
                    "velocity": 0.5039370078740157,
                    "duration": 0.24166666666667425
                },
                {
                    "name": "D4",
                    "midi": 62,
                    "time": 499.4999999999987,
                    "velocity": 0.5039370078740157,
                    "duration": 0.24166666666667425
                },
                {
                    "name": "A4",
                    "midi": 69,
                    "time": 499.7499999999987,
                    "velocity": 0.5039370078740157,
                    "duration": 0.24166666666667425
                },
                {
                    "name": "B3",
                    "midi": 59,
                    "time": 499.9999999999987,
                    "velocity": 0.5039370078740157,
                    "duration": 0.24166666666667425
                },
                {
                    "name": "A4",
                    "midi": 69,
                    "time": 500.2499999999987,
                    "velocity": 0.5039370078740157,
                    "duration": 0.24166666666667425
                },
                {
                    "name": "A4",
                    "midi": 69,
                    "time": 500.4999999999987,
                    "velocity": 0.5039370078740157,
                    "duration": 0.24166666666667425
                },
                {
                    "name": "E5",
                    "midi": 76,
                    "time": 500.7499999999987,
                    "velocity": 0.5039370078740157,
                    "duration": 0.24166666666667425
                },
                {
                    "name": "A4",
                    "midi": 69,
                    "time": 500.9999999999987,
                    "velocity": 0.5039370078740157,
                    "duration": 0.24166666666667425
                },
                {
                    "name": "A4",
                    "midi": 69,
                    "time": 501.2499999999987,
                    "velocity": 0.5039370078740157,
                    "duration": 0.24166666666667425
                },
                {
                    "name": "B3",
                    "midi": 59,
                    "time": 501.4999999999987,
                    "velocity": 0.5039370078740157,
                    "duration": 0.24166666666667425
                },
                {
                    "name": "G#4",
                    "midi": 68,
                    "time": 501.7499999999987,
                    "velocity": 0.5039370078740157,
                    "duration": 0.24166666666667425
                },
                {
                    "name": "C4",
                    "midi": 60,
                    "time": 501.9999999999987,
                    "velocity": 0.5039370078740157,
                    "duration": 1.9916666666666742
                },
                {
                    "name": "G#4",
                    "midi": 68,
                    "time": 501.9999999999987,
                    "velocity": 0.5039370078740157,
                    "duration": 0.49166666666667425
                },
                {
                    "name": "A4",
                    "midi": 69,
                    "time": 502.4999999999987,
                    "velocity": 0.5039370078740157,
                    "duration": 1.4916666666666742
                },
                {
                    "name": "E4",
                    "midi": 64,
                    "time": 503.9999999999987,
                    "velocity": 0.5039370078740157,
                    "duration": 0.24166666666667425
                },
                {
                    "name": "A4",
                    "midi": 69,
                    "time": 504.2499999999987,
                    "velocity": 0.5039370078740157,
                    "duration": 0.24166666666667425
                },
                {
                    "name": "A4",
                    "midi": 69,
                    "time": 504.4999999999987,
                    "velocity": 0.5039370078740157,
                    "duration": 0.24166666666667425
                },
                {
                    "name": "C5",
                    "midi": 72,
                    "time": 504.7499999999987,
                    "velocity": 0.5039370078740157,
                    "duration": 0.24166666666667425
                },
                {
                    "name": "E4",
                    "midi": 64,
                    "time": 504.9999999999987,
                    "velocity": 0.5039370078740157,
                    "duration": 0.24166666666667425
                },
                {
                    "name": "B4",
                    "midi": 71,
                    "time": 505.2499999999987,
                    "velocity": 0.5039370078740157,
                    "duration": 0.24166666666667425
                },
                {
                    "name": "B4",
                    "midi": 71,
                    "time": 505.4999999999987,
                    "velocity": 0.5039370078740157,
                    "duration": 0.24166666666667425
                },
                {
                    "name": "D5",
                    "midi": 74,
                    "time": 505.7499999999987,
                    "velocity": 0.5039370078740157,
                    "duration": 0.24166666666667425
                },
                {
                    "name": "E4",
                    "midi": 64,
                    "time": 505.9999999999987,
                    "velocity": 0.5039370078740157,
                    "duration": 0.24166666666667425
                },
                {
                    "name": "C5",
                    "midi": 72,
                    "time": 506.2499999999987,
                    "velocity": 0.5039370078740157,
                    "duration": 0.24166666666667425
                },
                {
                    "name": "C5",
                    "midi": 72,
                    "time": 506.4999999999987,
                    "velocity": 0.5039370078740157,
                    "duration": 0.24166666666667425
                },
                {
                    "name": "A5",
                    "midi": 81,
                    "time": 506.7499999999987,
                    "velocity": 0.5039370078740157,
                    "duration": 0.24166666666667425
                },
                {
                    "name": "C5",
                    "midi": 72,
                    "time": 506.9999999999987,
                    "velocity": 0.5039370078740157,
                    "duration": 0.24166666666667425
                },
                {
                    "name": "C5",
                    "midi": 72,
                    "time": 507.2499999999987,
                    "velocity": 0.5039370078740157,
                    "duration": 0.24166666666667425
                },
                {
                    "name": "E4",
                    "midi": 64,
                    "time": 507.4999999999987,
                    "velocity": 0.5039370078740157,
                    "duration": 0.24166666666667425
                },
                {
                    "name": "C5",
                    "midi": 72,
                    "time": 507.7499999999987,
                    "velocity": 0.5039370078740157,
                    "duration": 0.24166666666667425
                },
                {
                    "name": "F4",
                    "midi": 65,
                    "time": 507.9999999999987,
                    "velocity": 0.5039370078740157,
                    "duration": 0.24166666666667425
                },
                {
                    "name": "B4",
                    "midi": 71,
                    "time": 508.2499999999987,
                    "velocity": 0.5039370078740157,
                    "duration": 0.24166666666667425
                },
                {
                    "name": "B4",
                    "midi": 71,
                    "time": 508.4999999999987,
                    "velocity": 0.5039370078740157,
                    "duration": 0.24166666666667425
                },
                {
                    "name": "F5",
                    "midi": 77,
                    "time": 508.7499999999987,
                    "velocity": 0.5039370078740157,
                    "duration": 0.24166666666667425
                },
                {
                    "name": "B4",
                    "midi": 71,
                    "time": 508.9999999999987,
                    "velocity": 0.5039370078740157,
                    "duration": 0.24166666666667425
                },
                {
                    "name": "B4",
                    "midi": 71,
                    "time": 509.2499999999987,
                    "velocity": 0.5039370078740157,
                    "duration": 0.24166666666667425
                },
                {
                    "name": "D4",
                    "midi": 62,
                    "time": 509.4999999999987,
                    "velocity": 0.5039370078740157,
                    "duration": 0.24166666666667425
                },
                {
                    "name": "A4",
                    "midi": 69,
                    "time": 509.7499999999987,
                    "velocity": 0.5039370078740157,
                    "duration": 0.24166666666667425
                },
                {
                    "name": "B3",
                    "midi": 59,
                    "time": 509.9999999999987,
                    "velocity": 0.5039370078740157,
                    "duration": 0.4916666666666174
                },
                {
                    "name": "G#4",
                    "midi": 68,
                    "time": 509.9999999999987,
                    "velocity": 0.5039370078740157,
                    "duration": 0.07499999999998863
                },
                {
                    "name": "F#4",
                    "midi": 66,
                    "time": 510.083333333332,
                    "velocity": 0.5039370078740157,
                    "duration": 0.07499999999998863
                },
                {
                    "name": "G#4",
                    "midi": 68,
                    "time": 510.1666666666653,
                    "velocity": 0.5039370078740157,
                    "duration": 0.07499999999998863
                },
                {
                    "name": "F#4",
                    "midi": 66,
                    "time": 510.24999999999864,
                    "velocity": 0.5039370078740157,
                    "duration": 0.07499999999998863
                },
                {
                    "name": "G#4",
                    "midi": 68,
                    "time": 510.33333333333195,
                    "velocity": 0.5039370078740157,
                    "duration": 1.6583333333333599
                },
                {
                    "name": "G4",
                    "midi": 67,
                    "time": 511.99999999999864,
                    "velocity": 0.5039370078740157,
                    "duration": 0.24166666666667425
                },
                {
                    "name": "E5",
                    "midi": 76,
                    "time": 512.2499999999986,
                    "velocity": 0.5039370078740157,
                    "duration": 0.24166666666667425
                },
                {
                    "name": "E5",
                    "midi": 76,
                    "time": 512.4999999999986,
                    "velocity": 0.5039370078740157,
                    "duration": 0.24166666666667425
                },
                {
                    "name": "C6",
                    "midi": 84,
                    "time": 512.7499999999986,
                    "velocity": 0.5039370078740157,
                    "duration": 0.24166666666667425
                },
                {
                    "name": "E5",
                    "midi": 76,
                    "time": 512.9999999999986,
                    "velocity": 0.5039370078740157,
                    "duration": 0.24166666666667425
                },
                {
                    "name": "E5",
                    "midi": 76,
                    "time": 513.2499999999986,
                    "velocity": 0.5039370078740157,
                    "duration": 0.24166666666667425
                },
                {
                    "name": "G4",
                    "midi": 67,
                    "time": 513.4999999999986,
                    "velocity": 0.5039370078740157,
                    "duration": 0.24166666666667425
                },
                {
                    "name": "E5",
                    "midi": 76,
                    "time": 513.7499999999986,
                    "velocity": 0.5039370078740157,
                    "duration": 0.24166666666667425
                },
                {
                    "name": "A4",
                    "midi": 69,
                    "time": 513.9999999999986,
                    "velocity": 0.5039370078740157,
                    "duration": 0.24166666666667425
                },
                {
                    "name": "C5",
                    "midi": 72,
                    "time": 514.2499999999986,
                    "velocity": 0.5039370078740157,
                    "duration": 0.24166666666667425
                },
                {
                    "name": "C5",
                    "midi": 72,
                    "time": 514.4999999999986,
                    "velocity": 0.5039370078740157,
                    "duration": 0.24166666666667425
                },
                {
                    "name": "A5",
                    "midi": 81,
                    "time": 514.7499999999986,
                    "velocity": 0.5039370078740157,
                    "duration": 0.24166666666667425
                },
                {
                    "name": "C5",
                    "midi": 72,
                    "time": 514.9999999999986,
                    "velocity": 0.5039370078740157,
                    "duration": 0.24166666666667425
                },
                {
                    "name": "C5",
                    "midi": 72,
                    "time": 515.2499999999986,
                    "velocity": 0.5039370078740157,
                    "duration": 0.24166666666667425
                },
                {
                    "name": "A4",
                    "midi": 69,
                    "time": 515.4999999999986,
                    "velocity": 0.5039370078740157,
                    "duration": 0.24166666666667425
                },
                {
                    "name": "C5",
                    "midi": 72,
                    "time": 515.7499999999986,
                    "velocity": 0.5039370078740157,
                    "duration": 0.24166666666667425
                },
                {
                    "name": "F4",
                    "midi": 65,
                    "time": 515.9999999999986,
                    "velocity": 0.5039370078740157,
                    "duration": 0.24166666666667425
                },
                {
                    "name": "D5",
                    "midi": 74,
                    "time": 516.2499999999986,
                    "velocity": 0.5039370078740157,
                    "duration": 0.24166666666667425
                },
                {
                    "name": "D5",
                    "midi": 74,
                    "time": 516.4999999999986,
                    "velocity": 0.5039370078740157,
                    "duration": 0.24166666666667425
                },
                {
                    "name": "F5",
                    "midi": 77,
                    "time": 516.7499999999986,
                    "velocity": 0.5039370078740157,
                    "duration": 0.24166666666667425
                },
                {
                    "name": "D5",
                    "midi": 74,
                    "time": 516.9999999999986,
                    "velocity": 0.5039370078740157,
                    "duration": 0.24166666666667425
                },
                {
                    "name": "D5",
                    "midi": 74,
                    "time": 517.2499999999986,
                    "velocity": 0.5039370078740157,
                    "duration": 0.24166666666667425
                },
                {
                    "name": "F4",
                    "midi": 65,
                    "time": 517.4999999999986,
                    "velocity": 0.5039370078740157,
                    "duration": 0.24166666666667425
                },
                {
                    "name": "C5",
                    "midi": 72,
                    "time": 517.7499999999986,
                    "velocity": 0.5039370078740157,
                    "duration": 0.24166666666667425
                },
                {
                    "name": "D4",
                    "midi": 62,
                    "time": 517.9999999999986,
                    "velocity": 0.5039370078740157,
                    "duration": 0.24166666666667425
                },
                {
                    "name": "B4",
                    "midi": 71,
                    "time": 518.2499999999986,
                    "velocity": 0.5039370078740157,
                    "duration": 0.24166666666667425
                },
                {
                    "name": "B4",
                    "midi": 71,
                    "time": 518.4999999999986,
                    "velocity": 0.5039370078740157,
                    "duration": 0.24166666666667425
                },
                {
                    "name": "G5",
                    "midi": 79,
                    "time": 518.7499999999986,
                    "velocity": 0.5039370078740157,
                    "duration": 0.24166666666667425
                },
                {
                    "name": "B4",
                    "midi": 71,
                    "time": 518.9999999999986,
                    "velocity": 0.5039370078740157,
                    "duration": 0.24166666666667425
                },
                {
                    "name": "B4",
                    "midi": 71,
                    "time": 519.2499999999986,
                    "velocity": 0.5039370078740157,
                    "duration": 0.24166666666667425
                },
                {
                    "name": "D4",
                    "midi": 62,
                    "time": 519.4999999999986,
                    "velocity": 0.5039370078740157,
                    "duration": 0.24166666666667425
                },
                {
                    "name": "B4",
                    "midi": 71,
                    "time": 519.7499999999986,
                    "velocity": 0.5039370078740157,
                    "duration": 0.24166666666667425
                },
                {
                    "name": "G4",
                    "midi": 67,
                    "time": 519.9999999999986,
                    "velocity": 0.5039370078740157,
                    "duration": 0.24166666666667425
                },
                {
                    "name": "C5",
                    "midi": 72,
                    "time": 520.2499999999986,
                    "velocity": 0.5039370078740157,
                    "duration": 0.24166666666667425
                },
                {
                    "name": "C5",
                    "midi": 72,
                    "time": 520.4999999999986,
                    "velocity": 0.5039370078740157,
                    "duration": 0.24166666666667425
                },
                {
                    "name": "G5",
                    "midi": 79,
                    "time": 520.7499999999986,
                    "velocity": 0.5039370078740157,
                    "duration": 0.24166666666667425
                },
                {
                    "name": "C5",
                    "midi": 72,
                    "time": 520.9999999999986,
                    "velocity": 0.5039370078740157,
                    "duration": 0.24166666666667425
                },
                {
                    "name": "C5",
                    "midi": 72,
                    "time": 521.2499999999986,
                    "velocity": 0.5039370078740157,
                    "duration": 0.24166666666667425
                },
                {
                    "name": "G4",
                    "midi": 67,
                    "time": 521.4999999999986,
                    "velocity": 0.5039370078740157,
                    "duration": 0.24166666666667425
                },
                {
                    "name": "C5",
                    "midi": 72,
                    "time": 521.7499999999986,
                    "velocity": 0.5039370078740157,
                    "duration": 0.24166666666667425
                },
                {
                    "name": "A4",
                    "midi": 69,
                    "time": 521.9999999999986,
                    "velocity": 0.5039370078740157,
                    "duration": 0.49166666666667425
                },
                {
                    "name": "B4",
                    "midi": 71,
                    "time": 522.4999999999986,
                    "velocity": 0.5039370078740157,
                    "duration": 0.07500000000004547
                },
                {
                    "name": "A4",
                    "midi": 69,
                    "time": 522.583333333332,
                    "velocity": 0.5039370078740157,
                    "duration": 0.07500000000004547
                },
                {
                    "name": "B4",
                    "midi": 71,
                    "time": 522.6666666666654,
                    "velocity": 0.5039370078740157,
                    "duration": 0.07500000000004547
                },
                {
                    "name": "A4",
                    "midi": 69,
                    "time": 522.7499999999987,
                    "velocity": 0.5039370078740157,
                    "duration": 0.11666666666667425
                },
                {
                    "name": "B4",
                    "midi": 71,
                    "time": 522.8749999999987,
                    "velocity": 0.5039370078740157,
                    "duration": 0.11666666666667425
                },
                {
                    "name": "C5",
                    "midi": 72,
                    "time": 522.9999999999987,
                    "velocity": 0.5039370078740157,
                    "duration": 0.49166666666667425
                },
                {
                    "name": "E4",
                    "midi": 64,
                    "time": 523.4999999999987,
                    "velocity": 0.5039370078740157,
                    "duration": 0.49166666666667425
                },
                {
                    "name": "D4",
                    "midi": 62,
                    "time": 523.9999999999987,
                    "velocity": 0.5039370078740157,
                    "duration": 0.24166666666667425
                },
                {
                    "name": "C5",
                    "midi": 72,
                    "time": 524.2499999999987,
                    "velocity": 0.5039370078740157,
                    "duration": 0.24166666666667425
                },
                {
                    "name": "C5",
                    "midi": 72,
                    "time": 524.4999999999987,
                    "velocity": 0.5039370078740157,
                    "duration": 0.24166666666667425
                },
                {
                    "name": "G5",
                    "midi": 79,
                    "time": 524.7499999999987,
                    "velocity": 0.5039370078740157,
                    "duration": 0.24166666666667425
                },
                {
                    "name": "C5",
                    "midi": 72,
                    "time": 524.9999999999987,
                    "velocity": 0.5039370078740157,
                    "duration": 0.24166666666667425
                },
                {
                    "name": "C5",
                    "midi": 72,
                    "time": 525.2499999999987,
                    "velocity": 0.5039370078740157,
                    "duration": 0.24166666666667425
                },
                {
                    "name": "D4",
                    "midi": 62,
                    "time": 525.4999999999987,
                    "velocity": 0.5039370078740157,
                    "duration": 0.24166666666667425
                },
                {
                    "name": "B4",
                    "midi": 71,
                    "time": 525.7499999999987,
                    "velocity": 0.5039370078740157,
                    "duration": 0.24166666666667425
                },
                {
                    "name": "B4",
                    "midi": 71,
                    "time": 525.9999999999987,
                    "velocity": 0.5039370078740157,
                    "duration": 0.49166666666667425
                },
                {
                    "name": "E4",
                    "midi": 64,
                    "time": 525.9999999999987,
                    "velocity": 0.5039370078740157,
                    "duration": 1.9916666666666742
                },
                {
                    "name": "C5",
                    "midi": 72,
                    "time": 526.4999999999987,
                    "velocity": 0.5039370078740157,
                    "duration": 1.4916666666666742
                },
                {
                    "name": "E4",
                    "midi": 64,
                    "time": 527.9999999999987,
                    "velocity": 0.5039370078740157,
                    "duration": 0.24166666666667425
                },
                {
                    "name": "C5",
                    "midi": 72,
                    "time": 528.2499999999987,
                    "velocity": 0.5039370078740157,
                    "duration": 0.24166666666667425
                },
                {
                    "name": "C5",
                    "midi": 72,
                    "time": 528.4999999999987,
                    "velocity": 0.5039370078740157,
                    "duration": 0.24166666666667425
                },
                {
                    "name": "C6",
                    "midi": 84,
                    "time": 528.7499999999987,
                    "velocity": 0.5039370078740157,
                    "duration": 0.24166666666667425
                },
                {
                    "name": "C5",
                    "midi": 72,
                    "time": 528.9999999999987,
                    "velocity": 0.5039370078740157,
                    "duration": 0.24166666666667425
                },
                {
                    "name": "C5",
                    "midi": 72,
                    "time": 529.2499999999987,
                    "velocity": 0.5039370078740157,
                    "duration": 0.24166666666667425
                },
                {
                    "name": "E4",
                    "midi": 64,
                    "time": 529.4999999999987,
                    "velocity": 0.5039370078740157,
                    "duration": 0.24166666666667425
                },
                {
                    "name": "C5",
                    "midi": 72,
                    "time": 529.7499999999987,
                    "velocity": 0.5039370078740157,
                    "duration": 0.24166666666667425
                },
                {
                    "name": "D4",
                    "midi": 62,
                    "time": 529.9999999999987,
                    "velocity": 0.5039370078740157,
                    "duration": 0.24166666666667425
                },
                {
                    "name": "B4",
                    "midi": 71,
                    "time": 530.2499999999987,
                    "velocity": 0.5039370078740157,
                    "duration": 0.24166666666667425
                },
                {
                    "name": "B4",
                    "midi": 71,
                    "time": 530.4999999999987,
                    "velocity": 0.5039370078740157,
                    "duration": 0.24166666666667425
                },
                {
                    "name": "B5",
                    "midi": 83,
                    "time": 530.7499999999987,
                    "velocity": 0.5039370078740157,
                    "duration": 0.24166666666667425
                },
                {
                    "name": "B4",
                    "midi": 71,
                    "time": 530.9999999999987,
                    "velocity": 0.5039370078740157,
                    "duration": 0.24166666666667425
                },
                {
                    "name": "B4",
                    "midi": 71,
                    "time": 531.2499999999987,
                    "velocity": 0.5039370078740157,
                    "duration": 0.24166666666667425
                },
                {
                    "name": "D4",
                    "midi": 62,
                    "time": 531.4999999999987,
                    "velocity": 0.5039370078740157,
                    "duration": 0.24166666666667425
                },
                {
                    "name": "B4",
                    "midi": 71,
                    "time": 531.7499999999987,
                    "velocity": 0.5039370078740157,
                    "duration": 0.24166666666667425
                },
                {
                    "name": "C4",
                    "midi": 60,
                    "time": 531.9999999999987,
                    "velocity": 0.5039370078740157,
                    "duration": 0.24166666666667425
                },
                {
                    "name": "A4",
                    "midi": 69,
                    "time": 532.2499999999987,
                    "velocity": 0.5039370078740157,
                    "duration": 0.24166666666667425
                },
                {
                    "name": "A4",
                    "midi": 69,
                    "time": 532.4999999999987,
                    "velocity": 0.5039370078740157,
                    "duration": 0.24166666666667425
                },
                {
                    "name": "A5",
                    "midi": 81,
                    "time": 532.7499999999987,
                    "velocity": 0.5039370078740157,
                    "duration": 0.24166666666667425
                },
                {
                    "name": "A4",
                    "midi": 69,
                    "time": 532.9999999999987,
                    "velocity": 0.5039370078740157,
                    "duration": 0.24166666666667425
                },
                {
                    "name": "A4",
                    "midi": 69,
                    "time": 533.2499999999987,
                    "velocity": 0.5039370078740157,
                    "duration": 0.24166666666667425
                },
                {
                    "name": "C4",
                    "midi": 60,
                    "time": 533.4999999999987,
                    "velocity": 0.5039370078740157,
                    "duration": 0.24166666666667425
                },
                {
                    "name": "A4",
                    "midi": 69,
                    "time": 533.7499999999987,
                    "velocity": 0.5039370078740157,
                    "duration": 0.24166666666667425
                },
                {
                    "name": "G#4",
                    "midi": 68,
                    "time": 533.9999999999987,
                    "velocity": 0.5039370078740157,
                    "duration": 0.07500000000004547
                },
                {
                    "name": "B3",
                    "midi": 59,
                    "time": 533.9999999999987,
                    "velocity": 0.5039370078740157,
                    "duration": 0.4916666666669016
                },
                {
                    "name": "F#4",
                    "midi": 66,
                    "time": 534.0833333333321,
                    "velocity": 0.5039370078740157,
                    "duration": 0.07500000000004547
                },
                {
                    "name": "G#4",
                    "midi": 68,
                    "time": 534.1666666666655,
                    "velocity": 0.5039370078740157,
                    "duration": 0.07500000000004547
                },
                {
                    "name": "F#4",
                    "midi": 66,
                    "time": 534.2499999999989,
                    "velocity": 0.5039370078740157,
                    "duration": 0.07500000000004547
                },
                {
                    "name": "G#4",
                    "midi": 68,
                    "time": 534.3333333333322,
                    "velocity": 0.5039370078740157,
                    "duration": 0.07500000000004547
                },
                {
                    "name": "F#4",
                    "midi": 66,
                    "time": 534.4166666666656,
                    "velocity": 0.5039370078740157,
                    "duration": 0.07500000000004547
                },
                {
                    "name": "G#4",
                    "midi": 68,
                    "time": 534.499999999999,
                    "velocity": 0.5039370078740157,
                    "duration": 0.07500000000004547
                },
                {
                    "name": "F#4",
                    "midi": 66,
                    "time": 534.5833333333323,
                    "velocity": 0.5039370078740157,
                    "duration": 0.07500000000004547
                },
                {
                    "name": "G#4",
                    "midi": 68,
                    "time": 534.6666666666657,
                    "velocity": 0.5039370078740157,
                    "duration": 1.3250000000000455
                },
                {
                    "name": "E4",
                    "midi": 64,
                    "time": 535.9999999999991,
                    "velocity": 0.5039370078740157,
                    "duration": 0.24166666666667425
                },
                {
                    "name": "A4",
                    "midi": 69,
                    "time": 536.2499999999991,
                    "velocity": 0.5039370078740157,
                    "duration": 0.24166666666667425
                },
                {
                    "name": "A4",
                    "midi": 69,
                    "time": 536.4999999999991,
                    "velocity": 0.5039370078740157,
                    "duration": 0.24166666666667425
                },
                {
                    "name": "E5",
                    "midi": 76,
                    "time": 536.7499999999991,
                    "velocity": 0.5039370078740157,
                    "duration": 0.24166666666667425
                },
                {
                    "name": "A4",
                    "midi": 69,
                    "time": 536.9999999999991,
                    "velocity": 0.5039370078740157,
                    "duration": 0.24166666666667425
                },
                {
                    "name": "A4",
                    "midi": 69,
                    "time": 537.2499999999991,
                    "velocity": 0.5039370078740157,
                    "duration": 0.24166666666667425
                },
                {
                    "name": "E4",
                    "midi": 64,
                    "time": 537.4999999999991,
                    "velocity": 0.5039370078740157,
                    "duration": 0.24166666666667425
                },
                {
                    "name": "A4",
                    "midi": 69,
                    "time": 537.7499999999991,
                    "velocity": 0.5039370078740157,
                    "duration": 0.24166666666667425
                },
                {
                    "name": "F#4",
                    "midi": 66,
                    "time": 537.9999999999991,
                    "velocity": 0.5039370078740157,
                    "duration": 0.49166666666667425
                },
                {
                    "name": "G#4",
                    "midi": 68,
                    "time": 538.4999999999991,
                    "velocity": 0.5039370078740157,
                    "duration": 0.07500000000004547
                },
                {
                    "name": "F#4",
                    "midi": 66,
                    "time": 538.5833333333325,
                    "velocity": 0.5039370078740157,
                    "duration": 0.07500000000004547
                },
                {
                    "name": "G#4",
                    "midi": 68,
                    "time": 538.6666666666658,
                    "velocity": 0.5039370078740157,
                    "duration": 0.07500000000004547
                },
                {
                    "name": "F#4",
                    "midi": 66,
                    "time": 538.7499999999992,
                    "velocity": 0.5039370078740157,
                    "duration": 0.11666666666667425
                },
                {
                    "name": "G#4",
                    "midi": 68,
                    "time": 538.8749999999992,
                    "velocity": 0.5039370078740157,
                    "duration": 0.11666666666667425
                },
                {
                    "name": "A4",
                    "midi": 69,
                    "time": 538.9999999999992,
                    "velocity": 0.5039370078740157,
                    "duration": 0.49166666666667425
                },
                {
                    "name": "C4",
                    "midi": 60,
                    "time": 539.4999999999992,
                    "velocity": 0.5039370078740157,
                    "duration": 0.49166666666667425
                },
                {
                    "name": "B3",
                    "midi": 59,
                    "time": 539.9999999999992,
                    "velocity": 0.5039370078740157,
                    "duration": 0.24166666666667425
                },
                {
                    "name": "A4",
                    "midi": 69,
                    "time": 540.2499999999992,
                    "velocity": 0.5039370078740157,
                    "duration": 0.24166666666667425
                },
                {
                    "name": "A4",
                    "midi": 69,
                    "time": 540.4999999999992,
                    "velocity": 0.5039370078740157,
                    "duration": 0.24166666666667425
                },
                {
                    "name": "E5",
                    "midi": 76,
                    "time": 540.7499999999992,
                    "velocity": 0.5039370078740157,
                    "duration": 0.24166666666667425
                },
                {
                    "name": "A4",
                    "midi": 69,
                    "time": 540.9999999999992,
                    "velocity": 0.5039370078740157,
                    "duration": 0.24166666666667425
                },
                {
                    "name": "A4",
                    "midi": 69,
                    "time": 541.2499999999992,
                    "velocity": 0.5039370078740157,
                    "duration": 0.24166666666667425
                },
                {
                    "name": "B3",
                    "midi": 59,
                    "time": 541.4999999999992,
                    "velocity": 0.5039370078740157,
                    "duration": 0.24166666666667425
                },
                {
                    "name": "G#4",
                    "midi": 68,
                    "time": 541.7499999999992,
                    "velocity": 0.5039370078740157,
                    "duration": 0.24166666666667425
                },
                {
                    "name": "A4",
                    "midi": 69,
                    "time": 541.9999999999992,
                    "velocity": 0.5039370078740157,
                    "duration": 1.9916666666666742
                },
                {
                    "name": "C4",
                    "midi": 60,
                    "time": 541.9999999999992,
                    "velocity": 0.5039370078740157,
                    "duration": 0.49166666666667425
                },
                {
                    "name": "G4",
                    "midi": 67,
                    "time": 543.9999999999992,
                    "velocity": 0.5039370078740157,
                    "duration": 0.24166666666667425
                },
                {
                    "name": "E5",
                    "midi": 76,
                    "time": 544.2499999999992,
                    "velocity": 0.5039370078740157,
                    "duration": 0.24166666666667425
                },
                {
                    "name": "E5",
                    "midi": 76,
                    "time": 544.4999999999992,
                    "velocity": 0.5039370078740157,
                    "duration": 0.24166666666667425
                },
                {
                    "name": "C6",
                    "midi": 84,
                    "time": 544.7499999999992,
                    "velocity": 0.5039370078740157,
                    "duration": 0.24166666666667425
                },
                {
                    "name": "E5",
                    "midi": 76,
                    "time": 544.9999999999992,
                    "velocity": 0.5039370078740157,
                    "duration": 0.24166666666667425
                },
                {
                    "name": "E5",
                    "midi": 76,
                    "time": 545.2499999999992,
                    "velocity": 0.5039370078740157,
                    "duration": 0.24166666666667425
                },
                {
                    "name": "G4",
                    "midi": 67,
                    "time": 545.4999999999992,
                    "velocity": 0.5039370078740157,
                    "duration": 0.24166666666667425
                },
                {
                    "name": "E5",
                    "midi": 76,
                    "time": 545.7499999999992,
                    "velocity": 0.5039370078740157,
                    "duration": 0.24166666666667425
                },
                {
                    "name": "A4",
                    "midi": 69,
                    "time": 545.9999999999992,
                    "velocity": 0.5039370078740157,
                    "duration": 0.24166666666667425
                },
                {
                    "name": "C5",
                    "midi": 72,
                    "time": 546.2499999999992,
                    "velocity": 0.5039370078740157,
                    "duration": 0.24166666666667425
                },
                {
                    "name": "C5",
                    "midi": 72,
                    "time": 546.4999999999992,
                    "velocity": 0.5039370078740157,
                    "duration": 0.24166666666667425
                },
                {
                    "name": "A5",
                    "midi": 81,
                    "time": 546.7499999999992,
                    "velocity": 0.5039370078740157,
                    "duration": 0.24166666666667425
                },
                {
                    "name": "C5",
                    "midi": 72,
                    "time": 546.9999999999992,
                    "velocity": 0.5039370078740157,
                    "duration": 0.24166666666667425
                },
                {
                    "name": "C5",
                    "midi": 72,
                    "time": 547.2499999999992,
                    "velocity": 0.5039370078740157,
                    "duration": 0.24166666666667425
                },
                {
                    "name": "A4",
                    "midi": 69,
                    "time": 547.4999999999992,
                    "velocity": 0.5039370078740157,
                    "duration": 0.24166666666667425
                },
                {
                    "name": "C5",
                    "midi": 72,
                    "time": 547.7499999999992,
                    "velocity": 0.5039370078740157,
                    "duration": 0.24166666666667425
                },
                {
                    "name": "F4",
                    "midi": 65,
                    "time": 547.9999999999992,
                    "velocity": 0.5039370078740157,
                    "duration": 0.24166666666667425
                },
                {
                    "name": "D5",
                    "midi": 74,
                    "time": 548.2499999999992,
                    "velocity": 0.5039370078740157,
                    "duration": 0.24166666666667425
                },
                {
                    "name": "D5",
                    "midi": 74,
                    "time": 548.4999999999992,
                    "velocity": 0.5039370078740157,
                    "duration": 0.24166666666667425
                },
                {
                    "name": "F5",
                    "midi": 77,
                    "time": 548.7499999999992,
                    "velocity": 0.5039370078740157,
                    "duration": 0.24166666666667425
                },
                {
                    "name": "D5",
                    "midi": 74,
                    "time": 548.9999999999992,
                    "velocity": 0.5039370078740157,
                    "duration": 0.24166666666667425
                },
                {
                    "name": "D5",
                    "midi": 74,
                    "time": 549.2499999999992,
                    "velocity": 0.5039370078740157,
                    "duration": 0.24166666666667425
                },
                {
                    "name": "F4",
                    "midi": 65,
                    "time": 549.4999999999992,
                    "velocity": 0.5039370078740157,
                    "duration": 0.24166666666667425
                },
                {
                    "name": "C5",
                    "midi": 72,
                    "time": 549.7499999999992,
                    "velocity": 0.5039370078740157,
                    "duration": 0.24166666666667425
                },
                {
                    "name": "D4",
                    "midi": 62,
                    "time": 549.9999999999992,
                    "velocity": 0.5039370078740157,
                    "duration": 0.24166666666667425
                },
                {
                    "name": "B4",
                    "midi": 71,
                    "time": 550.2499999999992,
                    "velocity": 0.5039370078740157,
                    "duration": 0.24166666666667425
                },
                {
                    "name": "B4",
                    "midi": 71,
                    "time": 550.4999999999992,
                    "velocity": 0.5039370078740157,
                    "duration": 0.24166666666667425
                },
                {
                    "name": "G5",
                    "midi": 79,
                    "time": 550.7499999999992,
                    "velocity": 0.5039370078740157,
                    "duration": 0.24166666666667425
                },
                {
                    "name": "B4",
                    "midi": 71,
                    "time": 550.9999999999992,
                    "velocity": 0.5039370078740157,
                    "duration": 0.24166666666667425
                },
                {
                    "name": "B4",
                    "midi": 71,
                    "time": 551.2499999999992,
                    "velocity": 0.5039370078740157,
                    "duration": 0.24166666666667425
                },
                {
                    "name": "D4",
                    "midi": 62,
                    "time": 551.4999999999992,
                    "velocity": 0.5039370078740157,
                    "duration": 0.24166666666667425
                },
                {
                    "name": "B4",
                    "midi": 71,
                    "time": 551.7499999999992,
                    "velocity": 0.5039370078740157,
                    "duration": 0.24166666666667425
                },
                {
                    "name": "G4",
                    "midi": 67,
                    "time": 551.9999999999992,
                    "velocity": 0.5039370078740157,
                    "duration": 0.24166666666667425
                },
                {
                    "name": "C5",
                    "midi": 72,
                    "time": 552.2499999999992,
                    "velocity": 0.5039370078740157,
                    "duration": 0.24166666666667425
                },
                {
                    "name": "C5",
                    "midi": 72,
                    "time": 552.4999999999992,
                    "velocity": 0.5039370078740157,
                    "duration": 0.24166666666667425
                },
                {
                    "name": "G5",
                    "midi": 79,
                    "time": 552.7499999999992,
                    "velocity": 0.5039370078740157,
                    "duration": 0.24166666666667425
                },
                {
                    "name": "C5",
                    "midi": 72,
                    "time": 552.9999999999992,
                    "velocity": 0.5039370078740157,
                    "duration": 0.24166666666667425
                },
                {
                    "name": "C5",
                    "midi": 72,
                    "time": 553.2499999999992,
                    "velocity": 0.5039370078740157,
                    "duration": 0.24166666666667425
                },
                {
                    "name": "G4",
                    "midi": 67,
                    "time": 553.4999999999992,
                    "velocity": 0.5039370078740157,
                    "duration": 0.24166666666667425
                },
                {
                    "name": "C5",
                    "midi": 72,
                    "time": 553.7499999999992,
                    "velocity": 0.5039370078740157,
                    "duration": 0.24166666666667425
                },
                {
                    "name": "A4",
                    "midi": 69,
                    "time": 553.9999999999992,
                    "velocity": 0.5039370078740157,
                    "duration": 0.49166666666667425
                },
                {
                    "name": "B4",
                    "midi": 71,
                    "time": 554.4999999999992,
                    "velocity": 0.5039370078740157,
                    "duration": 0.07500000000004547
                },
                {
                    "name": "A4",
                    "midi": 69,
                    "time": 554.5833333333326,
                    "velocity": 0.5039370078740157,
                    "duration": 0.07500000000004547
                },
                {
                    "name": "B4",
                    "midi": 71,
                    "time": 554.666666666666,
                    "velocity": 0.5039370078740157,
                    "duration": 0.07500000000004547
                },
                {
                    "name": "A4",
                    "midi": 69,
                    "time": 554.7499999999993,
                    "velocity": 0.5039370078740157,
                    "duration": 0.11666666666667425
                },
                {
                    "name": "B4",
                    "midi": 71,
                    "time": 554.8749999999993,
                    "velocity": 0.5039370078740157,
                    "duration": 0.11666666666667425
                },
                {
                    "name": "C5",
                    "midi": 72,
                    "time": 554.9999999999993,
                    "velocity": 0.5039370078740157,
                    "duration": 0.49166666666667425
                },
                {
                    "name": "E4",
                    "midi": 64,
                    "time": 555.4999999999993,
                    "velocity": 0.5039370078740157,
                    "duration": 0.49166666666667425
                },
                {
                    "name": "D4",
                    "midi": 62,
                    "time": 555.9999999999993,
                    "velocity": 0.5039370078740157,
                    "duration": 0.24166666666667425
                },
                {
                    "name": "C5",
                    "midi": 72,
                    "time": 556.2499999999993,
                    "velocity": 0.5039370078740157,
                    "duration": 0.24166666666667425
                },
                {
                    "name": "C5",
                    "midi": 72,
                    "time": 556.4999999999993,
                    "velocity": 0.5039370078740157,
                    "duration": 0.24166666666667425
                },
                {
                    "name": "G5",
                    "midi": 79,
                    "time": 556.7499999999993,
                    "velocity": 0.5039370078740157,
                    "duration": 0.24166666666667425
                },
                {
                    "name": "C5",
                    "midi": 72,
                    "time": 556.9999999999993,
                    "velocity": 0.5039370078740157,
                    "duration": 0.24166666666667425
                },
                {
                    "name": "C5",
                    "midi": 72,
                    "time": 557.2499999999993,
                    "velocity": 0.5039370078740157,
                    "duration": 0.24166666666667425
                },
                {
                    "name": "D4",
                    "midi": 62,
                    "time": 557.4999999999993,
                    "velocity": 0.5039370078740157,
                    "duration": 0.24166666666667425
                },
                {
                    "name": "B4",
                    "midi": 71,
                    "time": 557.7499999999993,
                    "velocity": 0.5039370078740157,
                    "duration": 0.24166666666667425
                },
                {
                    "name": "B4",
                    "midi": 71,
                    "time": 557.9999999999993,
                    "velocity": 0.5039370078740157,
                    "duration": 0.49166666666667425
                },
                {
                    "name": "E4",
                    "midi": 64,
                    "time": 557.9999999999993,
                    "velocity": 0.5039370078740157,
                    "duration": 1.9916666666666742
                },
                {
                    "name": "C5",
                    "midi": 72,
                    "time": 558.4999999999993,
                    "velocity": 0.5039370078740157,
                    "duration": 1.4916666666666742
                },
                {
                    "name": "E4",
                    "midi": 64,
                    "time": 559.9999999999993,
                    "velocity": 0.5039370078740157,
                    "duration": 0.24166666666667425
                },
                {
                    "name": "C5",
                    "midi": 72,
                    "time": 560.2499999999993,
                    "velocity": 0.5039370078740157,
                    "duration": 0.24166666666667425
                },
                {
                    "name": "C5",
                    "midi": 72,
                    "time": 560.4999999999993,
                    "velocity": 0.5039370078740157,
                    "duration": 0.24166666666667425
                },
                {
                    "name": "C6",
                    "midi": 84,
                    "time": 560.7499999999993,
                    "velocity": 0.5039370078740157,
                    "duration": 0.24166666666667425
                },
                {
                    "name": "C5",
                    "midi": 72,
                    "time": 560.9999999999993,
                    "velocity": 0.5039370078740157,
                    "duration": 0.24166666666667425
                },
                {
                    "name": "C5",
                    "midi": 72,
                    "time": 561.2499999999993,
                    "velocity": 0.5039370078740157,
                    "duration": 0.24166666666667425
                },
                {
                    "name": "E4",
                    "midi": 64,
                    "time": 561.4999999999993,
                    "velocity": 0.5039370078740157,
                    "duration": 0.24166666666667425
                },
                {
                    "name": "C5",
                    "midi": 72,
                    "time": 561.7499999999993,
                    "velocity": 0.5039370078740157,
                    "duration": 0.24166666666667425
                },
                {
                    "name": "D4",
                    "midi": 62,
                    "time": 561.9999999999993,
                    "velocity": 0.5039370078740157,
                    "duration": 0.24166666666667425
                },
                {
                    "name": "B4",
                    "midi": 71,
                    "time": 562.2499999999993,
                    "velocity": 0.5039370078740157,
                    "duration": 0.24166666666667425
                },
                {
                    "name": "B4",
                    "midi": 71,
                    "time": 562.4999999999993,
                    "velocity": 0.5039370078740157,
                    "duration": 0.24166666666667425
                },
                {
                    "name": "B5",
                    "midi": 83,
                    "time": 562.7499999999993,
                    "velocity": 0.5039370078740157,
                    "duration": 0.24166666666667425
                },
                {
                    "name": "B4",
                    "midi": 71,
                    "time": 562.9999999999993,
                    "velocity": 0.5039370078740157,
                    "duration": 0.24166666666667425
                },
                {
                    "name": "B4",
                    "midi": 71,
                    "time": 563.2499999999993,
                    "velocity": 0.5039370078740157,
                    "duration": 0.24166666666667425
                },
                {
                    "name": "D4",
                    "midi": 62,
                    "time": 563.4999999999993,
                    "velocity": 0.5039370078740157,
                    "duration": 0.24166666666667425
                },
                {
                    "name": "B4",
                    "midi": 71,
                    "time": 563.7499999999993,
                    "velocity": 0.5039370078740157,
                    "duration": 0.24166666666667425
                },
                {
                    "name": "C4",
                    "midi": 60,
                    "time": 563.9999999999993,
                    "velocity": 0.5039370078740157,
                    "duration": 0.24166666666667425
                },
                {
                    "name": "A4",
                    "midi": 69,
                    "time": 564.2499999999993,
                    "velocity": 0.5039370078740157,
                    "duration": 0.24166666666667425
                },
                {
                    "name": "A4",
                    "midi": 69,
                    "time": 564.4999999999993,
                    "velocity": 0.5039370078740157,
                    "duration": 0.24166666666667425
                },
                {
                    "name": "A5",
                    "midi": 81,
                    "time": 564.7499999999993,
                    "velocity": 0.5039370078740157,
                    "duration": 0.24166666666667425
                },
                {
                    "name": "A4",
                    "midi": 69,
                    "time": 564.9999999999993,
                    "velocity": 0.5039370078740157,
                    "duration": 0.24166666666667425
                },
                {
                    "name": "A4",
                    "midi": 69,
                    "time": 565.2499999999993,
                    "velocity": 0.5039370078740157,
                    "duration": 0.24166666666667425
                },
                {
                    "name": "C4",
                    "midi": 60,
                    "time": 565.4999999999993,
                    "velocity": 0.5039370078740157,
                    "duration": 0.24166666666667425
                },
                {
                    "name": "A4",
                    "midi": 69,
                    "time": 565.7499999999993,
                    "velocity": 0.5039370078740157,
                    "duration": 0.24166666666667425
                },
                {
                    "name": "G#4",
                    "midi": 68,
                    "time": 565.9999999999993,
                    "velocity": 0.5039370078740157,
                    "duration": 0.07500000000004547
                },
                {
                    "name": "B3",
                    "midi": 59,
                    "time": 565.9999999999993,
                    "velocity": 0.5039370078740157,
                    "duration": 0.4916666666669016
                },
                {
                    "name": "F#4",
                    "midi": 66,
                    "time": 566.0833333333327,
                    "velocity": 0.5039370078740157,
                    "duration": 0.07500000000004547
                },
                {
                    "name": "G#4",
                    "midi": 68,
                    "time": 566.1666666666661,
                    "velocity": 0.5039370078740157,
                    "duration": 0.07500000000004547
                },
                {
                    "name": "F#4",
                    "midi": 66,
                    "time": 566.2499999999994,
                    "velocity": 0.5039370078740157,
                    "duration": 0.07500000000004547
                },
                {
                    "name": "G#4",
                    "midi": 68,
                    "time": 566.3333333333328,
                    "velocity": 0.5039370078740157,
                    "duration": 0.07500000000004547
                },
                {
                    "name": "F#4",
                    "midi": 66,
                    "time": 566.4166666666662,
                    "velocity": 0.5039370078740157,
                    "duration": 0.07500000000004547
                },
                {
                    "name": "G#4",
                    "midi": 68,
                    "time": 566.4999999999995,
                    "velocity": 0.5039370078740157,
                    "duration": 0.07500000000004547
                },
                {
                    "name": "F#4",
                    "midi": 66,
                    "time": 566.5833333333329,
                    "velocity": 0.5039370078740157,
                    "duration": 0.07500000000004547
                },
                {
                    "name": "G#4",
                    "midi": 68,
                    "time": 566.6666666666663,
                    "velocity": 0.5039370078740157,
                    "duration": 1.3250000000000455
                },
                {
                    "name": "E4",
                    "midi": 64,
                    "time": 567.9999999999997,
                    "velocity": 0.5039370078740157,
                    "duration": 0.24166666666667425
                },
                {
                    "name": "A4",
                    "midi": 69,
                    "time": 568.2499999999997,
                    "velocity": 0.5039370078740157,
                    "duration": 0.24166666666667425
                },
                {
                    "name": "A4",
                    "midi": 69,
                    "time": 568.4999999999997,
                    "velocity": 0.5039370078740157,
                    "duration": 0.24166666666667425
                },
                {
                    "name": "E5",
                    "midi": 76,
                    "time": 568.7499999999997,
                    "velocity": 0.5039370078740157,
                    "duration": 0.24166666666667425
                },
                {
                    "name": "A4",
                    "midi": 69,
                    "time": 568.9999999999997,
                    "velocity": 0.5039370078740157,
                    "duration": 0.24166666666667425
                },
                {
                    "name": "A4",
                    "midi": 69,
                    "time": 569.2499999999997,
                    "velocity": 0.5039370078740157,
                    "duration": 0.24166666666667425
                },
                {
                    "name": "E4",
                    "midi": 64,
                    "time": 569.4999999999997,
                    "velocity": 0.5039370078740157,
                    "duration": 0.24166666666667425
                },
                {
                    "name": "A4",
                    "midi": 69,
                    "time": 569.7499999999997,
                    "velocity": 0.5039370078740157,
                    "duration": 0.24166666666667425
                },
                {
                    "name": "F#4",
                    "midi": 66,
                    "time": 569.9999999999997,
                    "velocity": 0.5039370078740157,
                    "duration": 0.49166666666667425
                },
                {
                    "name": "G#4",
                    "midi": 68,
                    "time": 570.4999999999997,
                    "velocity": 0.5039370078740157,
                    "duration": 0.07500000000004547
                },
                {
                    "name": "F#4",
                    "midi": 66,
                    "time": 570.583333333333,
                    "velocity": 0.5039370078740157,
                    "duration": 0.07500000000004547
                },
                {
                    "name": "G#4",
                    "midi": 68,
                    "time": 570.6666666666664,
                    "velocity": 0.5039370078740157,
                    "duration": 0.07500000000004547
                },
                {
                    "name": "F#4",
                    "midi": 66,
                    "time": 570.7499999999998,
                    "velocity": 0.5039370078740157,
                    "duration": 0.11666666666667425
                },
                {
                    "name": "G#4",
                    "midi": 68,
                    "time": 570.8749999999998,
                    "velocity": 0.5039370078740157,
                    "duration": 0.11666666666667425
                },
                {
                    "name": "A4",
                    "midi": 69,
                    "time": 570.9999999999998,
                    "velocity": 0.5039370078740157,
                    "duration": 0.49166666666667425
                },
                {
                    "name": "C4",
                    "midi": 60,
                    "time": 571.4999999999998,
                    "velocity": 0.5039370078740157,
                    "duration": 0.49166666666667425
                },
                {
                    "name": "B3",
                    "midi": 59,
                    "time": 571.9999999999998,
                    "velocity": 0.5039370078740157,
                    "duration": 0.24166666666667425
                },
                {
                    "name": "A4",
                    "midi": 69,
                    "time": 572.2499999999998,
                    "velocity": 0.5039370078740157,
                    "duration": 0.24166666666667425
                },
                {
                    "name": "A4",
                    "midi": 69,
                    "time": 572.4999999999998,
                    "velocity": 0.5039370078740157,
                    "duration": 0.24166666666667425
                },
                {
                    "name": "E5",
                    "midi": 76,
                    "time": 572.7499999999998,
                    "velocity": 0.5039370078740157,
                    "duration": 0.24166666666667425
                },
                {
                    "name": "A4",
                    "midi": 69,
                    "time": 572.9999999999998,
                    "velocity": 0.5039370078740157,
                    "duration": 0.24166666666667425
                },
                {
                    "name": "A4",
                    "midi": 69,
                    "time": 573.2499999999998,
                    "velocity": 0.5039370078740157,
                    "duration": 0.24166666666667425
                },
                {
                    "name": "B3",
                    "midi": 59,
                    "time": 573.4999999999998,
                    "velocity": 0.5039370078740157,
                    "duration": 0.24166666666667425
                },
                {
                    "name": "G#4",
                    "midi": 68,
                    "time": 573.7499999999998,
                    "velocity": 0.5039370078740157,
                    "duration": 0.24166666666667425
                },
                {
                    "name": "A4",
                    "midi": 69,
                    "time": 573.9999999999998,
                    "velocity": 0.5039370078740157,
                    "duration": 1.9916666666666742
                },
                {
                    "name": "C4",
                    "midi": 60,
                    "time": 573.9999999999998,
                    "velocity": 0.5039370078740157,
                    "duration": 1.9916666666666742
                },
                {
                    "name": "C5",
                    "midi": 72,
                    "time": 575.9999999999998,
                    "velocity": 0.5039370078740157,
                    "duration": 0.9916666666666742
                },
                {
                    "name": "A4",
                    "midi": 69,
                    "time": 575.9999999999998,
                    "velocity": 0.5039370078740157,
                    "duration": 0.9916666666666742
                },
                {
                    "name": "E4",
                    "midi": 64,
                    "time": 575.9999999999998,
                    "velocity": 0.5039370078740157,
                    "duration": 0.9916666666666742
                },
                {
                    "name": "C5",
                    "midi": 72,
                    "time": 576.9999999999998,
                    "velocity": 0.5039370078740157,
                    "duration": 0.9916666666666742
                },
                {
                    "name": "A4",
                    "midi": 69,
                    "time": 576.9999999999998,
                    "velocity": 0.5039370078740157,
                    "duration": 0.9916666666666742
                },
                {
                    "name": "E4",
                    "midi": 64,
                    "time": 576.9999999999998,
                    "velocity": 0.5039370078740157,
                    "duration": 0.9916666666666742
                },
                {
                    "name": "B4",
                    "midi": 71,
                    "time": 577.9999999999998,
                    "velocity": 0.5039370078740157,
                    "duration": 0.9916666666666742
                },
                {
                    "name": "F4",
                    "midi": 65,
                    "time": 577.9999999999998,
                    "velocity": 0.5039370078740157,
                    "duration": 0.9916666666666742
                },
                {
                    "name": "D4",
                    "midi": 62,
                    "time": 577.9999999999998,
                    "velocity": 0.5039370078740157,
                    "duration": 0.9916666666666742
                },
                {
                    "name": "A4",
                    "midi": 69,
                    "time": 578.9999999999998,
                    "velocity": 0.5039370078740157,
                    "duration": 0.9916666666666742
                },
                {
                    "name": "F4",
                    "midi": 65,
                    "time": 578.9999999999998,
                    "velocity": 0.5039370078740157,
                    "duration": 0.9916666666666742
                },
                {
                    "name": "C4",
                    "midi": 60,
                    "time": 578.9999999999998,
                    "velocity": 0.5039370078740157,
                    "duration": 0.9916666666666742
                },
                {
                    "name": "A4",
                    "midi": 69,
                    "time": 579.9999999999998,
                    "velocity": 0.5039370078740157,
                    "duration": 0.9916666666666742
                },
                {
                    "name": "E4",
                    "midi": 64,
                    "time": 579.9999999999998,
                    "velocity": 0.5039370078740157,
                    "duration": 0.9916666666666742
                },
                {
                    "name": "B3",
                    "midi": 59,
                    "time": 579.9999999999998,
                    "velocity": 0.5039370078740157,
                    "duration": 0.9916666666666742
                },
                {
                    "name": "G#4",
                    "midi": 68,
                    "time": 580.9999999999998,
                    "velocity": 0.5039370078740157,
                    "duration": 0.9916666666666742
                },
                {
                    "name": "E4",
                    "midi": 64,
                    "time": 580.9999999999998,
                    "velocity": 0.5039370078740157,
                    "duration": 0.9916666666666742
                },
                {
                    "name": "D4",
                    "midi": 62,
                    "time": 580.9999999999998,
                    "velocity": 0.5039370078740157,
                    "duration": 0.9916666666666742
                },
                {
                    "name": "B3",
                    "midi": 59,
                    "time": 580.9999999999998,
                    "velocity": 0.5039370078740157,
                    "duration": 0.9916666666666742
                },
                {
                    "name": "A4",
                    "midi": 69,
                    "time": 581.9999999999998,
                    "velocity": 0.5039370078740157,
                    "duration": 1.9916666666666742
                },
                {
                    "name": "E4",
                    "midi": 64,
                    "time": 581.9999999999998,
                    "velocity": 0.5039370078740157,
                    "duration": 1.9916666666666742
                },
                {
                    "name": "C4",
                    "midi": 60,
                    "time": 581.9999999999998,
                    "velocity": 0.5039370078740157,
                    "duration": 1.9916666666666742
                },
                {
                    "name": "A4",
                    "midi": 69,
                    "time": 583.9999999999998,
                    "velocity": 0.5039370078740157,
                    "duration": 0.9916666666666742
                },
                {
                    "name": "E4",
                    "midi": 64,
                    "time": 583.9999999999998,
                    "velocity": 0.5039370078740157,
                    "duration": 0.9916666666666742
                },
                {
                    "name": "C4",
                    "midi": 60,
                    "time": 583.9999999999998,
                    "velocity": 0.5039370078740157,
                    "duration": 0.9916666666666742
                },
                {
                    "name": "B4",
                    "midi": 71,
                    "time": 584.9999999999998,
                    "velocity": 0.5039370078740157,
                    "duration": 0.9916666666666742
                },
                {
                    "name": "G#4",
                    "midi": 68,
                    "time": 584.9999999999998,
                    "velocity": 0.5039370078740157,
                    "duration": 0.9916666666666742
                },
                {
                    "name": "E4",
                    "midi": 64,
                    "time": 584.9999999999998,
                    "velocity": 0.5039370078740157,
                    "duration": 0.9916666666666742
                },
                {
                    "name": "C5",
                    "midi": 72,
                    "time": 585.9999999999998,
                    "velocity": 0.5039370078740157,
                    "duration": 0.9916666666666742
                },
                {
                    "name": "A4",
                    "midi": 69,
                    "time": 585.9999999999998,
                    "velocity": 0.5039370078740157,
                    "duration": 0.9916666666666742
                },
                {
                    "name": "E4",
                    "midi": 64,
                    "time": 585.9999999999998,
                    "velocity": 0.5039370078740157,
                    "duration": 0.9916666666666742
                },
                {
                    "name": "C5",
                    "midi": 72,
                    "time": 586.9999999999998,
                    "velocity": 0.5039370078740157,
                    "duration": 0.9916666666666742
                },
                {
                    "name": "A4",
                    "midi": 69,
                    "time": 586.9999999999998,
                    "velocity": 0.5039370078740157,
                    "duration": 0.9916666666666742
                },
                {
                    "name": "E4",
                    "midi": 64,
                    "time": 586.9999999999998,
                    "velocity": 0.5039370078740157,
                    "duration": 0.9916666666666742
                },
                {
                    "name": "B4",
                    "midi": 71,
                    "time": 587.9999999999998,
                    "velocity": 0.5039370078740157,
                    "duration": 0.9916666666666742
                },
                {
                    "name": "F4",
                    "midi": 65,
                    "time": 587.9999999999998,
                    "velocity": 0.5039370078740157,
                    "duration": 0.9916666666666742
                },
                {
                    "name": "D4",
                    "midi": 62,
                    "time": 587.9999999999998,
                    "velocity": 0.5039370078740157,
                    "duration": 0.9916666666666742
                },
                {
                    "name": "A4",
                    "midi": 69,
                    "time": 588.9999999999998,
                    "velocity": 0.5039370078740157,
                    "duration": 0.9916666666666742
                },
                {
                    "name": "F4",
                    "midi": 65,
                    "time": 588.9999999999998,
                    "velocity": 0.5039370078740157,
                    "duration": 0.9916666666666742
                },
                {
                    "name": "C4",
                    "midi": 60,
                    "time": 588.9999999999998,
                    "velocity": 0.5039370078740157,
                    "duration": 0.9916666666666742
                },
                {
                    "name": "G#4",
                    "midi": 68,
                    "time": 589.9999999999998,
                    "velocity": 0.5039370078740157,
                    "duration": 0.49166666666667425
                },
                {
                    "name": "E4",
                    "midi": 64,
                    "time": 589.9999999999998,
                    "velocity": 0.5039370078740157,
                    "duration": 0.49166666666667425
                },
                {
                    "name": "B3",
                    "midi": 59,
                    "time": 589.9999999999998,
                    "velocity": 0.5039370078740157,
                    "duration": 0.49166666666667425
                },
                {
                    "name": "C5",
                    "midi": 72,
                    "time": 591.9999999999998,
                    "velocity": 0.5039370078740157,
                    "duration": 0.9916666666666742
                },
                {
                    "name": "A4",
                    "midi": 69,
                    "time": 591.9999999999998,
                    "velocity": 0.5039370078740157,
                    "duration": 0.9916666666666742
                },
                {
                    "name": "E4",
                    "midi": 64,
                    "time": 591.9999999999998,
                    "velocity": 0.5039370078740157,
                    "duration": 0.9916666666666742
                },
                {
                    "name": "C5",
                    "midi": 72,
                    "time": 592.9999999999998,
                    "velocity": 0.5039370078740157,
                    "duration": 0.9916666666666742
                },
                {
                    "name": "A4",
                    "midi": 69,
                    "time": 592.9999999999998,
                    "velocity": 0.5039370078740157,
                    "duration": 0.9916666666666742
                },
                {
                    "name": "E4",
                    "midi": 64,
                    "time": 592.9999999999998,
                    "velocity": 0.5039370078740157,
                    "duration": 0.9916666666666742
                },
                {
                    "name": "B4",
                    "midi": 71,
                    "time": 593.9999999999998,
                    "velocity": 0.5039370078740157,
                    "duration": 0.9916666666666742
                },
                {
                    "name": "F4",
                    "midi": 65,
                    "time": 593.9999999999998,
                    "velocity": 0.5039370078740157,
                    "duration": 0.9916666666666742
                },
                {
                    "name": "D4",
                    "midi": 62,
                    "time": 593.9999999999998,
                    "velocity": 0.5039370078740157,
                    "duration": 0.9916666666666742
                },
                {
                    "name": "A4",
                    "midi": 69,
                    "time": 594.9999999999998,
                    "velocity": 0.5039370078740157,
                    "duration": 0.9916666666666742
                },
                {
                    "name": "F4",
                    "midi": 65,
                    "time": 594.9999999999998,
                    "velocity": 0.5039370078740157,
                    "duration": 0.9916666666666742
                },
                {
                    "name": "C4",
                    "midi": 60,
                    "time": 594.9999999999998,
                    "velocity": 0.5039370078740157,
                    "duration": 0.9916666666666742
                },
                {
                    "name": "A4",
                    "midi": 69,
                    "time": 595.9999999999998,
                    "velocity": 0.5039370078740157,
                    "duration": 0.9916666666666742
                },
                {
                    "name": "E4",
                    "midi": 64,
                    "time": 595.9999999999998,
                    "velocity": 0.5039370078740157,
                    "duration": 0.9916666666666742
                },
                {
                    "name": "B3",
                    "midi": 59,
                    "time": 595.9999999999998,
                    "velocity": 0.5039370078740157,
                    "duration": 0.9916666666666742
                },
                {
                    "name": "G#4",
                    "midi": 68,
                    "time": 596.9999999999998,
                    "velocity": 0.5039370078740157,
                    "duration": 0.9916666666666742
                },
                {
                    "name": "E4",
                    "midi": 64,
                    "time": 596.9999999999998,
                    "velocity": 0.5039370078740157,
                    "duration": 0.9916666666666742
                },
                {
                    "name": "D4",
                    "midi": 62,
                    "time": 596.9999999999998,
                    "velocity": 0.5039370078740157,
                    "duration": 0.9916666666666742
                },
                {
                    "name": "B3",
                    "midi": 59,
                    "time": 596.9999999999998,
                    "velocity": 0.5039370078740157,
                    "duration": 0.9916666666666742
                },
                {
                    "name": "A4",
                    "midi": 69,
                    "time": 597.9999999999998,
                    "velocity": 0.5039370078740157,
                    "duration": 1.9916666666666742
                },
                {
                    "name": "E4",
                    "midi": 64,
                    "time": 597.9999999999998,
                    "velocity": 0.5039370078740157,
                    "duration": 1.9916666666666742
                },
                {
                    "name": "C4",
                    "midi": 60,
                    "time": 597.9999999999998,
                    "velocity": 0.5039370078740157,
                    "duration": 1.9916666666666742
                },
                {
                    "name": "A4",
                    "midi": 69,
                    "time": 599.9999999999998,
                    "velocity": 0.5039370078740157,
                    "duration": 0.9916666666666742
                },
                {
                    "name": "E4",
                    "midi": 64,
                    "time": 599.9999999999998,
                    "velocity": 0.5039370078740157,
                    "duration": 0.9916666666666742
                },
                {
                    "name": "C4",
                    "midi": 60,
                    "time": 599.9999999999998,
                    "velocity": 0.5039370078740157,
                    "duration": 0.9916666666666742
                },
                {
                    "name": "B4",
                    "midi": 71,
                    "time": 600.9999999999998,
                    "velocity": 0.5039370078740157,
                    "duration": 0.9916666666666742
                },
                {
                    "name": "G#4",
                    "midi": 68,
                    "time": 600.9999999999998,
                    "velocity": 0.5039370078740157,
                    "duration": 0.9916666666666742
                },
                {
                    "name": "E4",
                    "midi": 64,
                    "time": 600.9999999999998,
                    "velocity": 0.5039370078740157,
                    "duration": 0.9916666666666742
                },
                {
                    "name": "C5",
                    "midi": 72,
                    "time": 601.9999999999998,
                    "velocity": 0.5039370078740157,
                    "duration": 0.9916666666666742
                },
                {
                    "name": "A4",
                    "midi": 69,
                    "time": 601.9999999999998,
                    "velocity": 0.5039370078740157,
                    "duration": 0.9916666666666742
                },
                {
                    "name": "E4",
                    "midi": 64,
                    "time": 601.9999999999998,
                    "velocity": 0.5039370078740157,
                    "duration": 0.9916666666666742
                },
                {
                    "name": "C5",
                    "midi": 72,
                    "time": 602.9999999999998,
                    "velocity": 0.5039370078740157,
                    "duration": 0.9916666666666742
                },
                {
                    "name": "A4",
                    "midi": 69,
                    "time": 602.9999999999998,
                    "velocity": 0.5039370078740157,
                    "duration": 0.9916666666666742
                },
                {
                    "name": "E4",
                    "midi": 64,
                    "time": 602.9999999999998,
                    "velocity": 0.5039370078740157,
                    "duration": 0.9916666666666742
                },
                {
                    "name": "B4",
                    "midi": 71,
                    "time": 603.9999999999998,
                    "velocity": 0.5039370078740157,
                    "duration": 0.9916666666666742
                },
                {
                    "name": "F4",
                    "midi": 65,
                    "time": 603.9999999999998,
                    "velocity": 0.5039370078740157,
                    "duration": 0.9916666666666742
                },
                {
                    "name": "D4",
                    "midi": 62,
                    "time": 603.9999999999998,
                    "velocity": 0.5039370078740157,
                    "duration": 0.9916666666666742
                },
                {
                    "name": "A4",
                    "midi": 69,
                    "time": 604.9999999999998,
                    "velocity": 0.5039370078740157,
                    "duration": 0.9916666666666742
                },
                {
                    "name": "F4",
                    "midi": 65,
                    "time": 604.9999999999998,
                    "velocity": 0.5039370078740157,
                    "duration": 0.9916666666666742
                },
                {
                    "name": "C4",
                    "midi": 60,
                    "time": 604.9999999999998,
                    "velocity": 0.5039370078740157,
                    "duration": 0.9916666666666742
                },
                {
                    "name": "G#4",
                    "midi": 68,
                    "time": 605.9999999999998,
                    "velocity": 0.5039370078740157,
                    "duration": 0.49166666666667425
                },
                {
                    "name": "E4",
                    "midi": 64,
                    "time": 605.9999999999998,
                    "velocity": 0.5039370078740157,
                    "duration": 0.49166666666667425
                },
                {
                    "name": "B3",
                    "midi": 59,
                    "time": 605.9999999999998,
                    "velocity": 0.5039370078740157,
                    "duration": 0.49166666666667425
                },
                {
                    "name": "E5",
                    "midi": 76,
                    "time": 607.9999999999998,
                    "velocity": 0.5039370078740157,
                    "duration": 0.9916666666666742
                },
                {
                    "name": "G4",
                    "midi": 67,
                    "time": 607.9999999999998,
                    "velocity": 0.5039370078740157,
                    "duration": 0.9916666666666742
                },
                {
                    "name": "E4",
                    "midi": 64,
                    "time": 607.9999999999998,
                    "velocity": 0.5039370078740157,
                    "duration": 0.9916666666666742
                },
                {
                    "name": "C5",
                    "midi": 72,
                    "time": 608.9999999999998,
                    "velocity": 0.5039370078740157,
                    "duration": 0.9916666666666742
                },
                {
                    "name": "G4",
                    "midi": 67,
                    "time": 608.9999999999998,
                    "velocity": 0.5039370078740157,
                    "duration": 0.9916666666666742
                },
                {
                    "name": "E4",
                    "midi": 64,
                    "time": 608.9999999999998,
                    "velocity": 0.5039370078740157,
                    "duration": 0.9916666666666742
                },
                {
                    "name": "A4",
                    "midi": 69,
                    "time": 609.9999999999998,
                    "velocity": 0.5039370078740157,
                    "duration": 0.9916666666666742
                },
                {
                    "name": "G4",
                    "midi": 67,
                    "time": 609.9999999999998,
                    "velocity": 0.5039370078740157,
                    "duration": 0.9916666666666742
                },
                {
                    "name": "C4",
                    "midi": 60,
                    "time": 609.9999999999998,
                    "velocity": 0.5039370078740157,
                    "duration": 0.9916666666666742
                },
                {
                    "name": "A4",
                    "midi": 69,
                    "time": 610.9999999999998,
                    "velocity": 0.5039370078740157,
                    "duration": 0.9916666666666742
                },
                {
                    "name": "F4",
                    "midi": 65,
                    "time": 610.9999999999998,
                    "velocity": 0.5039370078740157,
                    "duration": 0.9916666666666742
                },
                {
                    "name": "C4",
                    "midi": 60,
                    "time": 610.9999999999998,
                    "velocity": 0.5039370078740157,
                    "duration": 0.9916666666666742
                },
                {
                    "name": "F5",
                    "midi": 77,
                    "time": 611.9999999999998,
                    "velocity": 0.5039370078740157,
                    "duration": 0.9916666666666742
                },
                {
                    "name": "A4",
                    "midi": 69,
                    "time": 611.9999999999998,
                    "velocity": 0.5039370078740157,
                    "duration": 0.9916666666666742
                },
                {
                    "name": "F4",
                    "midi": 65,
                    "time": 611.9999999999998,
                    "velocity": 0.5039370078740157,
                    "duration": 0.9916666666666742
                },
                {
                    "name": "D5",
                    "midi": 74,
                    "time": 612.9999999999998,
                    "velocity": 0.5039370078740157,
                    "duration": 0.9916666666666742
                },
                {
                    "name": "A4",
                    "midi": 69,
                    "time": 612.9999999999998,
                    "velocity": 0.5039370078740157,
                    "duration": 0.9916666666666742
                },
                {
                    "name": "F4",
                    "midi": 65,
                    "time": 612.9999999999998,
                    "velocity": 0.5039370078740157,
                    "duration": 0.9916666666666742
                },
                {
                    "name": "B4",
                    "midi": 71,
                    "time": 613.9999999999998,
                    "velocity": 0.5039370078740157,
                    "duration": 0.07500000000004547
                },
                {
                    "name": "G4",
                    "midi": 67,
                    "time": 613.9999999999998,
                    "velocity": 0.5039370078740157,
                    "duration": 1.991666666666788
                },
                {
                    "name": "F4",
                    "midi": 65,
                    "time": 613.9999999999998,
                    "velocity": 0.5039370078740157,
                    "duration": 1.991666666666788
                },
                {
                    "name": "C5",
                    "midi": 72,
                    "time": 614.0833333333331,
                    "velocity": 0.5039370078740157,
                    "duration": 0.07500000000004547
                },
                {
                    "name": "B4",
                    "midi": 71,
                    "time": 614.1666666666665,
                    "velocity": 0.5039370078740157,
                    "duration": 0.07500000000004547
                },
                {
                    "name": "C5",
                    "midi": 72,
                    "time": 614.2499999999999,
                    "velocity": 0.5039370078740157,
                    "duration": 0.07500000000004547
                },
                {
                    "name": "B4",
                    "midi": 71,
                    "time": 614.3333333333333,
                    "velocity": 0.5039370078740157,
                    "duration": 1.658333333333303
                },
                {
                    "name": "G5",
                    "midi": 79,
                    "time": 615.9999999999999,
                    "velocity": 0.5039370078740157,
                    "duration": 0.9916666666666742
                },
                {
                    "name": "C5",
                    "midi": 72,
                    "time": 615.9999999999999,
                    "velocity": 0.5039370078740157,
                    "duration": 0.9916666666666742
                },
                {
                    "name": "G4",
                    "midi": 67,
                    "time": 615.9999999999999,
                    "velocity": 0.5039370078740157,
                    "duration": 0.9916666666666742
                },
                {
                    "name": "E5",
                    "midi": 76,
                    "time": 616.9999999999999,
                    "velocity": 0.5039370078740157,
                    "duration": 0.9916666666666742
                },
                {
                    "name": "C5",
                    "midi": 72,
                    "time": 616.9999999999999,
                    "velocity": 0.5039370078740157,
                    "duration": 0.9916666666666742
                },
                {
                    "name": "G4",
                    "midi": 67,
                    "time": 616.9999999999999,
                    "velocity": 0.5039370078740157,
                    "duration": 0.9916666666666742
                },
                {
                    "name": "C5",
                    "midi": 72,
                    "time": 617.9999999999999,
                    "velocity": 0.5039370078740157,
                    "duration": 1.4916666666666742
                },
                {
                    "name": "A4",
                    "midi": 69,
                    "time": 617.9999999999999,
                    "velocity": 0.5039370078740157,
                    "duration": 0.49166666666667425
                },
                {
                    "name": "G4",
                    "midi": 67,
                    "time": 618.4999999999999,
                    "velocity": 0.5039370078740157,
                    "duration": 0.49166666666667425
                },
                {
                    "name": "F4",
                    "midi": 65,
                    "time": 618.9999999999999,
                    "velocity": 0.5039370078740157,
                    "duration": 0.49166666666667425
                },
                {
                    "name": "C5",
                    "midi": 72,
                    "time": 619.4999999999999,
                    "velocity": 0.5039370078740157,
                    "duration": 0.49166666666667425
                },
                {
                    "name": "E4",
                    "midi": 64,
                    "time": 619.4999999999999,
                    "velocity": 0.5039370078740157,
                    "duration": 0.49166666666667425
                },
                {
                    "name": "C5",
                    "midi": 72,
                    "time": 619.9999999999999,
                    "velocity": 0.5039370078740157,
                    "duration": 0.9916666666666742
                },
                {
                    "name": "D4",
                    "midi": 62,
                    "time": 619.9999999999999,
                    "velocity": 0.5039370078740157,
                    "duration": 0.9916666666666742
                },
                {
                    "name": "B4",
                    "midi": 71,
                    "time": 620.9999999999999,
                    "velocity": 0.5039370078740157,
                    "duration": 0.9916666666666742
                },
                {
                    "name": "G4",
                    "midi": 67,
                    "time": 620.9999999999999,
                    "velocity": 0.5039370078740157,
                    "duration": 0.9916666666666742
                },
                {
                    "name": "F4",
                    "midi": 65,
                    "time": 620.9999999999999,
                    "velocity": 0.5039370078740157,
                    "duration": 0.9916666666666742
                },
                {
                    "name": "C5",
                    "midi": 72,
                    "time": 621.9999999999999,
                    "velocity": 0.5039370078740157,
                    "duration": 1.9916666666666742
                },
                {
                    "name": "G4",
                    "midi": 67,
                    "time": 621.9999999999999,
                    "velocity": 0.5039370078740157,
                    "duration": 1.9916666666666742
                },
                {
                    "name": "E4",
                    "midi": 64,
                    "time": 621.9999999999999,
                    "velocity": 0.5039370078740157,
                    "duration": 1.9916666666666742
                },
                {
                    "name": "C6",
                    "midi": 84,
                    "time": 623.9999999999999,
                    "velocity": 0.5039370078740157,
                    "duration": 0.9916666666666742
                },
                {
                    "name": "G5",
                    "midi": 79,
                    "time": 623.9999999999999,
                    "velocity": 0.5039370078740157,
                    "duration": 0.9916666666666742
                },
                {
                    "name": "E5",
                    "midi": 76,
                    "time": 623.9999999999999,
                    "velocity": 0.5039370078740157,
                    "duration": 0.9916666666666742
                },
                {
                    "name": "C6",
                    "midi": 84,
                    "time": 624.9999999999999,
                    "velocity": 0.5039370078740157,
                    "duration": 0.9916666666666742
                },
                {
                    "name": "G5",
                    "midi": 79,
                    "time": 624.9999999999999,
                    "velocity": 0.5039370078740157,
                    "duration": 0.9916666666666742
                },
                {
                    "name": "E5",
                    "midi": 76,
                    "time": 624.9999999999999,
                    "velocity": 0.5039370078740157,
                    "duration": 0.9916666666666742
                },
                {
                    "name": "C6",
                    "midi": 84,
                    "time": 625.9999999999999,
                    "velocity": 0.5039370078740157,
                    "duration": 0.9916666666666742
                },
                {
                    "name": "D5",
                    "midi": 74,
                    "time": 625.9999999999999,
                    "velocity": 0.5039370078740157,
                    "duration": 0.9916666666666742
                },
                {
                    "name": "B5",
                    "midi": 83,
                    "time": 626.9999999999999,
                    "velocity": 0.5039370078740157,
                    "duration": 0.9916666666666742
                },
                {
                    "name": "D5",
                    "midi": 74,
                    "time": 626.9999999999999,
                    "velocity": 0.5039370078740157,
                    "duration": 0.9916666666666742
                },
                {
                    "name": "E5",
                    "midi": 76,
                    "time": 627.9999999999999,
                    "velocity": 0.5039370078740157,
                    "duration": 0.9916666666666742
                },
                {
                    "name": "D5",
                    "midi": 74,
                    "time": 627.9999999999999,
                    "velocity": 0.5039370078740157,
                    "duration": 0.9916666666666742
                },
                {
                    "name": "A5",
                    "midi": 81,
                    "time": 628.9999999999999,
                    "velocity": 0.5039370078740157,
                    "duration": 0.9916666666666742
                },
                {
                    "name": "C5",
                    "midi": 72,
                    "time": 628.9999999999999,
                    "velocity": 0.5039370078740157,
                    "duration": 0.9916666666666742
                },
                {
                    "name": "G#5",
                    "midi": 80,
                    "time": 629.9999999999999,
                    "velocity": 0.5039370078740157,
                    "duration": 0.07500000000004547
                },
                {
                    "name": "B4",
                    "midi": 71,
                    "time": 629.9999999999999,
                    "velocity": 0.5039370078740157,
                    "duration": 1.991666666666788
                },
                {
                    "name": "A5",
                    "midi": 81,
                    "time": 630.0833333333333,
                    "velocity": 0.5039370078740157,
                    "duration": 0.07500000000004547
                },
                {
                    "name": "G#5",
                    "midi": 80,
                    "time": 630.1666666666666,
                    "velocity": 0.5039370078740157,
                    "duration": 0.07500000000004547
                },
                {
                    "name": "A5",
                    "midi": 81,
                    "time": 630.25,
                    "velocity": 0.5039370078740157,
                    "duration": 0.07500000000004547
                },
                {
                    "name": "G#5",
                    "midi": 80,
                    "time": 630.3333333333334,
                    "velocity": 0.5039370078740157,
                    "duration": 1.658333333333303
                },
                {
                    "name": "A5",
                    "midi": 81,
                    "time": 632,
                    "velocity": 0.5039370078740157,
                    "duration": 0.9916666666666742
                },
                {
                    "name": "E5",
                    "midi": 76,
                    "time": 632,
                    "velocity": 0.5039370078740157,
                    "duration": 0.9916666666666742
                },
                {
                    "name": "C6",
                    "midi": 84,
                    "time": 633,
                    "velocity": 0.5039370078740157,
                    "duration": 0.9916666666666742
                },
                {
                    "name": "E5",
                    "midi": 76,
                    "time": 633,
                    "velocity": 0.5039370078740157,
                    "duration": 0.9916666666666742
                },
                {
                    "name": "F#5",
                    "midi": 78,
                    "time": 634,
                    "velocity": 0.5039370078740157,
                    "duration": 0.49166666666667425
                },
                {
                    "name": "E5",
                    "midi": 76,
                    "time": 634,
                    "velocity": 0.5039370078740157,
                    "duration": 0.49166666666667425
                },
                {
                    "name": "G#5",
                    "midi": 80,
                    "time": 634.5,
                    "velocity": 0.5039370078740157,
                    "duration": 0.49166666666667425
                },
                {
                    "name": "D5",
                    "midi": 74,
                    "time": 634.5,
                    "velocity": 0.5039370078740157,
                    "duration": 0.49166666666667425
                },
                {
                    "name": "A5",
                    "midi": 81,
                    "time": 635,
                    "velocity": 0.5039370078740157,
                    "duration": 0.9916666666666742
                },
                {
                    "name": "D5",
                    "midi": 74,
                    "time": 635,
                    "velocity": 0.5039370078740157,
                    "duration": 0.49166666666667425
                },
                {
                    "name": "F5",
                    "midi": 77,
                    "time": 635.5,
                    "velocity": 0.5039370078740157,
                    "duration": 0.49166666666667425
                },
                {
                    "name": "A5",
                    "midi": 81,
                    "time": 636,
                    "velocity": 0.5039370078740157,
                    "duration": 0.9916666666666742
                },
                {
                    "name": "B4",
                    "midi": 71,
                    "time": 636,
                    "velocity": 0.5039370078740157,
                    "duration": 0.9916666666666742
                },
                {
                    "name": "G#5",
                    "midi": 80,
                    "time": 637,
                    "velocity": 0.5039370078740157,
                    "duration": 0.07500000000004547
                },
                {
                    "name": "D5",
                    "midi": 74,
                    "time": 637,
                    "velocity": 0.5039370078740157,
                    "duration": 0.9916666666667879
                },
                {
                    "name": "F#5",
                    "midi": 78,
                    "time": 637.0833333333334,
                    "velocity": 0.5039370078740157,
                    "duration": 0.07500000000004547
                },
                {
                    "name": "G#5",
                    "midi": 80,
                    "time": 637.1666666666667,
                    "velocity": 0.5039370078740157,
                    "duration": 0.07500000000004547
                },
                {
                    "name": "F#5",
                    "midi": 78,
                    "time": 637.2500000000001,
                    "velocity": 0.5039370078740157,
                    "duration": 0.07500000000004547
                },
                {
                    "name": "G#5",
                    "midi": 80,
                    "time": 637.3333333333335,
                    "velocity": 0.5039370078740157,
                    "duration": 0.408333333333303
                },
                {
                    "name": "F#5",
                    "midi": 78,
                    "time": 637.7500000000001,
                    "velocity": 0.5039370078740157,
                    "duration": 0.11666666666667425
                },
                {
                    "name": "G#5",
                    "midi": 80,
                    "time": 637.8750000000001,
                    "velocity": 0.5039370078740157,
                    "duration": 0.11666666666667425
                },
                {
                    "name": "A5",
                    "midi": 81,
                    "time": 638.0000000000001,
                    "velocity": 0.5039370078740157,
                    "duration": 1.9916666666666742
                },
                {
                    "name": "E5",
                    "midi": 76,
                    "time": 638.0000000000001,
                    "velocity": 0.5039370078740157,
                    "duration": 1.9916666666666742
                },
                {
                    "name": "C5",
                    "midi": 72,
                    "time": 638.0000000000001,
                    "velocity": 0.5039370078740157,
                    "duration": 1.9916666666666742
                },
                {
                    "name": "E5",
                    "midi": 76,
                    "time": 640.0000000000001,
                    "velocity": 0.5039370078740157,
                    "duration": 0.9916666666666742
                },
                {
                    "name": "G4",
                    "midi": 67,
                    "time": 640.0000000000001,
                    "velocity": 0.5039370078740157,
                    "duration": 0.9916666666666742
                },
                {
                    "name": "E4",
                    "midi": 64,
                    "time": 640.0000000000001,
                    "velocity": 0.5039370078740157,
                    "duration": 0.9916666666666742
                },
                {
                    "name": "C5",
                    "midi": 72,
                    "time": 641.0000000000001,
                    "velocity": 0.5039370078740157,
                    "duration": 0.9916666666666742
                },
                {
                    "name": "G4",
                    "midi": 67,
                    "time": 641.0000000000001,
                    "velocity": 0.5039370078740157,
                    "duration": 0.9916666666666742
                },
                {
                    "name": "E4",
                    "midi": 64,
                    "time": 641.0000000000001,
                    "velocity": 0.5039370078740157,
                    "duration": 0.9916666666666742
                },
                {
                    "name": "A4",
                    "midi": 69,
                    "time": 642.0000000000001,
                    "velocity": 0.5039370078740157,
                    "duration": 0.9916666666666742
                },
                {
                    "name": "G4",
                    "midi": 67,
                    "time": 642.0000000000001,
                    "velocity": 0.5039370078740157,
                    "duration": 0.9916666666666742
                },
                {
                    "name": "C4",
                    "midi": 60,
                    "time": 642.0000000000001,
                    "velocity": 0.5039370078740157,
                    "duration": 0.9916666666666742
                },
                {
                    "name": "A4",
                    "midi": 69,
                    "time": 643.0000000000001,
                    "velocity": 0.5039370078740157,
                    "duration": 0.9916666666666742
                },
                {
                    "name": "F4",
                    "midi": 65,
                    "time": 643.0000000000001,
                    "velocity": 0.5039370078740157,
                    "duration": 0.9916666666666742
                },
                {
                    "name": "C4",
                    "midi": 60,
                    "time": 643.0000000000001,
                    "velocity": 0.5039370078740157,
                    "duration": 0.9916666666666742
                },
                {
                    "name": "F5",
                    "midi": 77,
                    "time": 644.0000000000001,
                    "velocity": 0.5039370078740157,
                    "duration": 0.9916666666666742
                },
                {
                    "name": "A4",
                    "midi": 69,
                    "time": 644.0000000000001,
                    "velocity": 0.5039370078740157,
                    "duration": 0.9916666666666742
                },
                {
                    "name": "F4",
                    "midi": 65,
                    "time": 644.0000000000001,
                    "velocity": 0.5039370078740157,
                    "duration": 0.9916666666666742
                },
                {
                    "name": "D5",
                    "midi": 74,
                    "time": 645.0000000000001,
                    "velocity": 0.5039370078740157,
                    "duration": 0.9916666666666742
                },
                {
                    "name": "A4",
                    "midi": 69,
                    "time": 645.0000000000001,
                    "velocity": 0.5039370078740157,
                    "duration": 0.9916666666666742
                },
                {
                    "name": "F4",
                    "midi": 65,
                    "time": 645.0000000000001,
                    "velocity": 0.5039370078740157,
                    "duration": 0.9916666666666742
                },
                {
                    "name": "B4",
                    "midi": 71,
                    "time": 646.0000000000001,
                    "velocity": 0.5039370078740157,
                    "duration": 0.07500000000004547
                },
                {
                    "name": "G4",
                    "midi": 67,
                    "time": 646.0000000000001,
                    "velocity": 0.5039370078740157,
                    "duration": 1.991666666666788
                },
                {
                    "name": "F4",
                    "midi": 65,
                    "time": 646.0000000000001,
                    "velocity": 0.5039370078740157,
                    "duration": 1.991666666666788
                },
                {
                    "name": "C5",
                    "midi": 72,
                    "time": 646.0833333333335,
                    "velocity": 0.5039370078740157,
                    "duration": 0.07500000000004547
                },
                {
                    "name": "B4",
                    "midi": 71,
                    "time": 646.1666666666669,
                    "velocity": 0.5039370078740157,
                    "duration": 0.07500000000004547
                },
                {
                    "name": "C5",
                    "midi": 72,
                    "time": 646.2500000000002,
                    "velocity": 0.5039370078740157,
                    "duration": 0.07500000000004547
                },
                {
                    "name": "B4",
                    "midi": 71,
                    "time": 646.3333333333336,
                    "velocity": 0.5039370078740157,
                    "duration": 1.658333333333303
                },
                {
                    "name": "G5",
                    "midi": 79,
                    "time": 648.0000000000002,
                    "velocity": 0.5039370078740157,
                    "duration": 0.9916666666666742
                },
                {
                    "name": "C5",
                    "midi": 72,
                    "time": 648.0000000000002,
                    "velocity": 0.5039370078740157,
                    "duration": 0.9916666666666742
                },
                {
                    "name": "G4",
                    "midi": 67,
                    "time": 648.0000000000002,
                    "velocity": 0.5039370078740157,
                    "duration": 0.9916666666666742
                },
                {
                    "name": "E5",
                    "midi": 76,
                    "time": 649.0000000000002,
                    "velocity": 0.5039370078740157,
                    "duration": 0.9916666666666742
                },
                {
                    "name": "C5",
                    "midi": 72,
                    "time": 649.0000000000002,
                    "velocity": 0.5039370078740157,
                    "duration": 0.9916666666666742
                },
                {
                    "name": "G4",
                    "midi": 67,
                    "time": 649.0000000000002,
                    "velocity": 0.5039370078740157,
                    "duration": 0.9916666666666742
                },
                {
                    "name": "C5",
                    "midi": 72,
                    "time": 650.0000000000002,
                    "velocity": 0.5039370078740157,
                    "duration": 1.4916666666666742
                },
                {
                    "name": "A4",
                    "midi": 69,
                    "time": 650.0000000000002,
                    "velocity": 0.5039370078740157,
                    "duration": 0.49166666666667425
                },
                {
                    "name": "G4",
                    "midi": 67,
                    "time": 650.5000000000002,
                    "velocity": 0.5039370078740157,
                    "duration": 0.49166666666667425
                },
                {
                    "name": "F4",
                    "midi": 65,
                    "time": 651.0000000000002,
                    "velocity": 0.5039370078740157,
                    "duration": 0.49166666666667425
                },
                {
                    "name": "C5",
                    "midi": 72,
                    "time": 651.5000000000002,
                    "velocity": 0.5039370078740157,
                    "duration": 0.49166666666667425
                },
                {
                    "name": "E4",
                    "midi": 64,
                    "time": 651.5000000000002,
                    "velocity": 0.5039370078740157,
                    "duration": 0.49166666666667425
                },
                {
                    "name": "C5",
                    "midi": 72,
                    "time": 652.0000000000002,
                    "velocity": 0.5039370078740157,
                    "duration": 0.9916666666666742
                },
                {
                    "name": "D4",
                    "midi": 62,
                    "time": 652.0000000000002,
                    "velocity": 0.5039370078740157,
                    "duration": 0.9916666666666742
                },
                {
                    "name": "B4",
                    "midi": 71,
                    "time": 653.0000000000002,
                    "velocity": 0.5039370078740157,
                    "duration": 0.9916666666666742
                },
                {
                    "name": "G4",
                    "midi": 67,
                    "time": 653.0000000000002,
                    "velocity": 0.5039370078740157,
                    "duration": 0.9916666666666742
                },
                {
                    "name": "F4",
                    "midi": 65,
                    "time": 653.0000000000002,
                    "velocity": 0.5039370078740157,
                    "duration": 0.9916666666666742
                },
                {
                    "name": "C5",
                    "midi": 72,
                    "time": 654.0000000000002,
                    "velocity": 0.5039370078740157,
                    "duration": 1.9916666666666742
                },
                {
                    "name": "G4",
                    "midi": 67,
                    "time": 654.0000000000002,
                    "velocity": 0.5039370078740157,
                    "duration": 1.9916666666666742
                },
                {
                    "name": "E4",
                    "midi": 64,
                    "time": 654.0000000000002,
                    "velocity": 0.5039370078740157,
                    "duration": 1.9916666666666742
                },
                {
                    "name": "C6",
                    "midi": 84,
                    "time": 656.0000000000002,
                    "velocity": 0.5039370078740157,
                    "duration": 0.9916666666666742
                },
                {
                    "name": "G5",
                    "midi": 79,
                    "time": 656.0000000000002,
                    "velocity": 0.5039370078740157,
                    "duration": 0.9916666666666742
                },
                {
                    "name": "E5",
                    "midi": 76,
                    "time": 656.0000000000002,
                    "velocity": 0.5039370078740157,
                    "duration": 0.9916666666666742
                },
                {
                    "name": "C6",
                    "midi": 84,
                    "time": 657.0000000000002,
                    "velocity": 0.5039370078740157,
                    "duration": 0.9916666666666742
                },
                {
                    "name": "G5",
                    "midi": 79,
                    "time": 657.0000000000002,
                    "velocity": 0.5039370078740157,
                    "duration": 0.9916666666666742
                },
                {
                    "name": "E5",
                    "midi": 76,
                    "time": 657.0000000000002,
                    "velocity": 0.5039370078740157,
                    "duration": 0.9916666666666742
                },
                {
                    "name": "C6",
                    "midi": 84,
                    "time": 658.0000000000002,
                    "velocity": 0.5039370078740157,
                    "duration": 0.9916666666666742
                },
                {
                    "name": "D5",
                    "midi": 74,
                    "time": 658.0000000000002,
                    "velocity": 0.5039370078740157,
                    "duration": 0.9916666666666742
                },
                {
                    "name": "B5",
                    "midi": 83,
                    "time": 659.0000000000002,
                    "velocity": 0.5039370078740157,
                    "duration": 0.9916666666666742
                },
                {
                    "name": "D5",
                    "midi": 74,
                    "time": 659.0000000000002,
                    "velocity": 0.5039370078740157,
                    "duration": 0.9916666666666742
                },
                {
                    "name": "E5",
                    "midi": 76,
                    "time": 660.0000000000002,
                    "velocity": 0.5039370078740157,
                    "duration": 0.9916666666666742
                },
                {
                    "name": "D5",
                    "midi": 74,
                    "time": 660.0000000000002,
                    "velocity": 0.5039370078740157,
                    "duration": 0.9916666666666742
                },
                {
                    "name": "A5",
                    "midi": 81,
                    "time": 661.0000000000002,
                    "velocity": 0.5039370078740157,
                    "duration": 0.9916666666666742
                },
                {
                    "name": "C5",
                    "midi": 72,
                    "time": 661.0000000000002,
                    "velocity": 0.5039370078740157,
                    "duration": 0.9916666666666742
                },
                {
                    "name": "G#5",
                    "midi": 80,
                    "time": 662.0000000000002,
                    "velocity": 0.5039370078740157,
                    "duration": 0.07500000000004547
                },
                {
                    "name": "B4",
                    "midi": 71,
                    "time": 662.0000000000002,
                    "velocity": 0.5039370078740157,
                    "duration": 1.991666666666788
                },
                {
                    "name": "A5",
                    "midi": 81,
                    "time": 662.0833333333336,
                    "velocity": 0.5039370078740157,
                    "duration": 0.07500000000004547
                },
                {
                    "name": "G#5",
                    "midi": 80,
                    "time": 662.166666666667,
                    "velocity": 0.5039370078740157,
                    "duration": 0.07500000000004547
                },
                {
                    "name": "A5",
                    "midi": 81,
                    "time": 662.2500000000003,
                    "velocity": 0.5039370078740157,
                    "duration": 0.07500000000004547
                },
                {
                    "name": "G#5",
                    "midi": 80,
                    "time": 662.3333333333337,
                    "velocity": 0.5039370078740157,
                    "duration": 1.658333333333303
                },
                {
                    "name": "A5",
                    "midi": 81,
                    "time": 664.0000000000003,
                    "velocity": 0.5039370078740157,
                    "duration": 0.9916666666666742
                },
                {
                    "name": "E5",
                    "midi": 76,
                    "time": 664.0000000000003,
                    "velocity": 0.5039370078740157,
                    "duration": 0.9916666666666742
                },
                {
                    "name": "C6",
                    "midi": 84,
                    "time": 665.0000000000003,
                    "velocity": 0.5039370078740157,
                    "duration": 0.9916666666666742
                },
                {
                    "name": "E5",
                    "midi": 76,
                    "time": 665.0000000000003,
                    "velocity": 0.5039370078740157,
                    "duration": 0.9916666666666742
                },
                {
                    "name": "F#5",
                    "midi": 78,
                    "time": 666.0000000000003,
                    "velocity": 0.5039370078740157,
                    "duration": 0.49166666666667425
                },
                {
                    "name": "E5",
                    "midi": 76,
                    "time": 666.0000000000003,
                    "velocity": 0.5039370078740157,
                    "duration": 0.49166666666667425
                },
                {
                    "name": "G#5",
                    "midi": 80,
                    "time": 666.5000000000003,
                    "velocity": 0.5039370078740157,
                    "duration": 0.49166666666667425
                },
                {
                    "name": "D5",
                    "midi": 74,
                    "time": 666.5000000000003,
                    "velocity": 0.5039370078740157,
                    "duration": 0.49166666666667425
                },
                {
                    "name": "A5",
                    "midi": 81,
                    "time": 667.0000000000003,
                    "velocity": 0.5039370078740157,
                    "duration": 0.9916666666666742
                },
                {
                    "name": "D5",
                    "midi": 74,
                    "time": 667.0000000000003,
                    "velocity": 0.5039370078740157,
                    "duration": 0.49166666666667425
                },
                {
                    "name": "F5",
                    "midi": 77,
                    "time": 667.5000000000003,
                    "velocity": 0.5039370078740157,
                    "duration": 0.49166666666667425
                },
                {
                    "name": "A5",
                    "midi": 81,
                    "time": 668.0000000000003,
                    "velocity": 0.5039370078740157,
                    "duration": 0.9916666666666742
                },
                {
                    "name": "B4",
                    "midi": 71,
                    "time": 668.0000000000003,
                    "velocity": 0.5039370078740157,
                    "duration": 0.9916666666666742
                },
                {
                    "name": "G#5",
                    "midi": 80,
                    "time": 669.0000000000003,
                    "velocity": 0.5039370078740157,
                    "duration": 0.07500000000004547
                },
                {
                    "name": "D5",
                    "midi": 74,
                    "time": 669.0000000000003,
                    "velocity": 0.5039370078740157,
                    "duration": 0.9916666666667879
                },
                {
                    "name": "F#5",
                    "midi": 78,
                    "time": 669.0833333333337,
                    "velocity": 0.5039370078740157,
                    "duration": 0.07500000000004547
                },
                {
                    "name": "G#5",
                    "midi": 80,
                    "time": 669.1666666666671,
                    "velocity": 0.5039370078740157,
                    "duration": 0.07500000000004547
                },
                {
                    "name": "F#5",
                    "midi": 78,
                    "time": 669.2500000000005,
                    "velocity": 0.5039370078740157,
                    "duration": 0.07500000000004547
                },
                {
                    "name": "G#5",
                    "midi": 80,
                    "time": 669.3333333333338,
                    "velocity": 0.5039370078740157,
                    "duration": 0.408333333333303
                },
                {
                    "name": "F#5",
                    "midi": 78,
                    "time": 669.7500000000005,
                    "velocity": 0.5039370078740157,
                    "duration": 0.11666666666667425
                },
                {
                    "name": "G#5",
                    "midi": 80,
                    "time": 669.8750000000005,
                    "velocity": 0.5039370078740157,
                    "duration": 0.11666666666667425
                },
                {
                    "name": "A5",
                    "midi": 81,
                    "time": 670.0000000000005,
                    "velocity": 0.5039370078740157,
                    "duration": 1.9916666666666742
                },
                {
                    "name": "E5",
                    "midi": 76,
                    "time": 670.0000000000005,
                    "velocity": 0.5039370078740157,
                    "duration": 1.9916666666666742
                },
                {
                    "name": "C5",
                    "midi": 72,
                    "time": 670.0000000000005,
                    "velocity": 0.5039370078740157,
                    "duration": 1.9916666666666742
                }
            ],
            "controlChanges": {
                "7": [
                    {
                        "number": 7,
                        "time": 0,
                        "value": 1
                    }
                ]
            },
            "id": 1,
            "name": "Harpsichord RH",
            "instrumentNumber": 6,
            "instrument": "harpsichord",
            "instrumentFamily": "piano",
            "channelNumber": 0,
            "isPercussion": false
        },
        {
            "startTime": 0,
            "duration": 671.991666666666,
            "length": 1567,
            "notes": [
                {
                    "name": "C4",
                    "midi": 60,
                    "time": 0,
                    "velocity": 0.5039370078740157,
                    "duration": 0.075
                },
                {
                    "name": "A3",
                    "midi": 57,
                    "time": 0,
                    "velocity": 0.5039370078740157,
                    "duration": 1.9916666666666667
                },
                {
                    "name": "B3",
                    "midi": 59,
                    "time": 0.08333333333333333,
                    "velocity": 0.5039370078740157,
                    "duration": 0.075
                },
                {
                    "name": "C4",
                    "midi": 60,
                    "time": 0.16666666666666666,
                    "velocity": 0.5039370078740157,
                    "duration": 0.575
                },
                {
                    "name": "C4",
                    "midi": 60,
                    "time": 0.7499999999999999,
                    "velocity": 0.5039370078740157,
                    "duration": 0.1166666666666667
                },
                {
                    "name": "C4",
                    "midi": 60,
                    "time": 0.7499999999999999,
                    "velocity": 0.5039370078740157,
                    "duration": 0.2416666666666667
                },
                {
                    "name": "D4",
                    "midi": 62,
                    "time": 0.8749999999999999,
                    "velocity": 0.5039370078740157,
                    "duration": 0.1166666666666667
                },
                {
                    "name": "E4",
                    "midi": 64,
                    "time": 0.9999999999999999,
                    "velocity": 0.5039370078740157,
                    "duration": 0.9916666666666668
                },
                {
                    "name": "D4",
                    "midi": 62,
                    "time": 2,
                    "velocity": 0.5039370078740157,
                    "duration": 0.9916666666666667
                },
                {
                    "name": "D3",
                    "midi": 50,
                    "time": 2,
                    "velocity": 0.5039370078740157,
                    "duration": 1.9916666666666667
                },
                {
                    "name": "C4",
                    "midi": 60,
                    "time": 3,
                    "velocity": 0.5039370078740157,
                    "duration": 0.9916666666666667
                },
                {
                    "name": "C4",
                    "midi": 60,
                    "time": 4,
                    "velocity": 0.5039370078740157,
                    "duration": 0.9916666666666671
                },
                {
                    "name": "E3",
                    "midi": 52,
                    "time": 4,
                    "velocity": 0.5039370078740157,
                    "duration": 1.991666666666669
                },
                {
                    "name": "B3",
                    "midi": 59,
                    "time": 5.000000000000001,
                    "velocity": 0.5039370078740157,
                    "duration": 0.07500000000000018
                },
                {
                    "name": "A3",
                    "midi": 57,
                    "time": 5.083333333333335,
                    "velocity": 0.5039370078740157,
                    "duration": 0.07500000000000018
                },
                {
                    "name": "B3",
                    "midi": 59,
                    "time": 5.166666666666669,
                    "velocity": 0.5039370078740157,
                    "duration": 0.3250000000000002
                },
                {
                    "name": "D4",
                    "midi": 62,
                    "time": 5.500000000000003,
                    "velocity": 0.5039370078740157,
                    "duration": 0.49166666666666625
                },
                {
                    "name": "D4",
                    "midi": 62,
                    "time": 6.000000000000003,
                    "velocity": 0.5039370078740157,
                    "duration": 0.49166666666666625
                },
                {
                    "name": "A3",
                    "midi": 57,
                    "time": 6.000000000000003,
                    "velocity": 0.5039370078740157,
                    "duration": 1.991666666666668
                },
                {
                    "name": "C4",
                    "midi": 60,
                    "time": 6.500000000000003,
                    "velocity": 0.5039370078740157,
                    "duration": 0.07500000000000018
                },
                {
                    "name": "B3",
                    "midi": 59,
                    "time": 6.583333333333337,
                    "velocity": 0.5039370078740157,
                    "duration": 0.07500000000000018
                },
                {
                    "name": "C4",
                    "midi": 60,
                    "time": 6.6666666666666705,
                    "velocity": 0.5039370078740157,
                    "duration": 1.4916666666666663
                },
                {
                    "name": "A3",
                    "midi": 57,
                    "time": 8.000000000000004,
                    "velocity": 0.5039370078740157,
                    "duration": 0.49166666666666714
                },
                {
                    "name": "A3",
                    "midi": 57,
                    "time": 8.000000000000004,
                    "velocity": 0.5039370078740157,
                    "duration": 0.9916666666666671
                },
                {
                    "name": "E4",
                    "midi": 64,
                    "time": 8.500000000000004,
                    "velocity": 0.5039370078740157,
                    "duration": 0.49166666666666714
                },
                {
                    "name": "G#3",
                    "midi": 56,
                    "time": 9.000000000000004,
                    "velocity": 0.5039370078740157,
                    "duration": 0.49166666666666714
                },
                {
                    "name": "G#3",
                    "midi": 56,
                    "time": 9.000000000000004,
                    "velocity": 0.5039370078740157,
                    "duration": 0.9916666666666671
                },
                {
                    "name": "E4",
                    "midi": 64,
                    "time": 9.500000000000004,
                    "velocity": 0.5039370078740157,
                    "duration": 1.4916666666666671
                },
                {
                    "name": "A3",
                    "midi": 57,
                    "time": 10.000000000000004,
                    "velocity": 0.5039370078740157,
                    "duration": 1.4916666666666671
                },
                {
                    "name": "E4",
                    "midi": 64,
                    "time": 11.000000000000004,
                    "velocity": 0.5039370078740157,
                    "duration": 0.9916666666666671
                },
                {
                    "name": "G3",
                    "midi": 55,
                    "time": 12.000000000000004,
                    "velocity": 0.5039370078740157,
                    "duration": 0.49166666666666714
                },
                {
                    "name": "G3",
                    "midi": 55,
                    "time": 12.000000000000004,
                    "velocity": 0.5039370078740157,
                    "duration": 0.9916666666666671
                },
                {
                    "name": "E4",
                    "midi": 64,
                    "time": 12.500000000000004,
                    "velocity": 0.5039370078740157,
                    "duration": 0.49166666666666714
                },
                {
                    "name": "F3",
                    "midi": 53,
                    "time": 13.000000000000004,
                    "velocity": 0.5039370078740157,
                    "duration": 0.49166666666666714
                },
                {
                    "name": "F3",
                    "midi": 53,
                    "time": 13.000000000000004,
                    "velocity": 0.5039370078740157,
                    "duration": 0.9916666666666671
                },
                {
                    "name": "F4",
                    "midi": 65,
                    "time": 13.500000000000004,
                    "velocity": 0.5039370078740157,
                    "duration": 0.49166666666666714
                },
                {
                    "name": "B3",
                    "midi": 59,
                    "time": 14.000000000000004,
                    "velocity": 0.5039370078740157,
                    "duration": 0.9916666666666671
                },
                {
                    "name": "E3",
                    "midi": 52,
                    "time": 14.000000000000004,
                    "velocity": 0.5039370078740157,
                    "duration": 1.9916666666666671
                },
                {
                    "name": "E2",
                    "midi": 40,
                    "time": 15.000000000000004,
                    "velocity": 0.5039370078740157,
                    "duration": 0.9916666666666671
                },
                {
                    "name": "C4",
                    "midi": 60,
                    "time": 16.000000000000004,
                    "velocity": 0.5039370078740157,
                    "duration": 0.07499999999999929
                },
                {
                    "name": "A3",
                    "midi": 57,
                    "time": 16.000000000000004,
                    "velocity": 0.5039370078740157,
                    "duration": 1.9916666666666636
                },
                {
                    "name": "B3",
                    "midi": 59,
                    "time": 16.083333333333336,
                    "velocity": 0.5039370078740157,
                    "duration": 0.07499999999999929
                },
                {
                    "name": "C4",
                    "midi": 60,
                    "time": 16.166666666666668,
                    "velocity": 0.5039370078740157,
                    "duration": 0.5749999999999993
                },
                {
                    "name": "C4",
                    "midi": 60,
                    "time": 16.75,
                    "velocity": 0.5039370078740157,
                    "duration": 0.11666666666666714
                },
                {
                    "name": "C4",
                    "midi": 60,
                    "time": 16.75,
                    "velocity": 0.5039370078740157,
                    "duration": 0.24166666666666714
                },
                {
                    "name": "D4",
                    "midi": 62,
                    "time": 16.875,
                    "velocity": 0.5039370078740157,
                    "duration": 0.11666666666666714
                },
                {
                    "name": "E4",
                    "midi": 64,
                    "time": 17,
                    "velocity": 0.5039370078740157,
                    "duration": 0.9916666666666671
                },
                {
                    "name": "D4",
                    "midi": 62,
                    "time": 18,
                    "velocity": 0.5039370078740157,
                    "duration": 0.9916666666666671
                },
                {
                    "name": "D3",
                    "midi": 50,
                    "time": 18,
                    "velocity": 0.5039370078740157,
                    "duration": 1.9916666666666671
                },
                {
                    "name": "C4",
                    "midi": 60,
                    "time": 19,
                    "velocity": 0.5039370078740157,
                    "duration": 0.9916666666666671
                },
                {
                    "name": "C4",
                    "midi": 60,
                    "time": 20,
                    "velocity": 0.5039370078740157,
                    "duration": 0.9916666666666671
                },
                {
                    "name": "E3",
                    "midi": 52,
                    "time": 20,
                    "velocity": 0.5039370078740157,
                    "duration": 1.9916666666666636
                },
                {
                    "name": "B3",
                    "midi": 59,
                    "time": 21,
                    "velocity": 0.5039370078740157,
                    "duration": 0.07499999999999929
                },
                {
                    "name": "A3",
                    "midi": 57,
                    "time": 21.083333333333332,
                    "velocity": 0.5039370078740157,
                    "duration": 0.07499999999999929
                },
                {
                    "name": "B3",
                    "midi": 59,
                    "time": 21.166666666666664,
                    "velocity": 0.5039370078740157,
                    "duration": 0.3249999999999993
                },
                {
                    "name": "D4",
                    "midi": 62,
                    "time": 21.499999999999996,
                    "velocity": 0.5039370078740157,
                    "duration": 0.49166666666666714
                },
                {
                    "name": "D4",
                    "midi": 62,
                    "time": 21.999999999999996,
                    "velocity": 0.5039370078740157,
                    "duration": 0.49166666666666714
                },
                {
                    "name": "A3",
                    "midi": 57,
                    "time": 21.999999999999996,
                    "velocity": 0.5039370078740157,
                    "duration": 1.9916666666666636
                },
                {
                    "name": "C4",
                    "midi": 60,
                    "time": 22.499999999999996,
                    "velocity": 0.5039370078740157,
                    "duration": 0.07499999999999929
                },
                {
                    "name": "B3",
                    "midi": 59,
                    "time": 22.58333333333333,
                    "velocity": 0.5039370078740157,
                    "duration": 0.07499999999999929
                },
                {
                    "name": "C4",
                    "midi": 60,
                    "time": 22.66666666666666,
                    "velocity": 0.5039370078740157,
                    "duration": 1.4916666666666671
                },
                {
                    "name": "A3",
                    "midi": 57,
                    "time": 23.999999999999993,
                    "velocity": 0.5039370078740157,
                    "duration": 0.49166666666666714
                },
                {
                    "name": "A3",
                    "midi": 57,
                    "time": 23.999999999999993,
                    "velocity": 0.5039370078740157,
                    "duration": 0.9916666666666671
                },
                {
                    "name": "E4",
                    "midi": 64,
                    "time": 24.499999999999993,
                    "velocity": 0.5039370078740157,
                    "duration": 0.49166666666666714
                },
                {
                    "name": "G#3",
                    "midi": 56,
                    "time": 24.999999999999993,
                    "velocity": 0.5039370078740157,
                    "duration": 0.49166666666666714
                },
                {
                    "name": "G#3",
                    "midi": 56,
                    "time": 24.999999999999993,
                    "velocity": 0.5039370078740157,
                    "duration": 0.9916666666666671
                },
                {
                    "name": "E4",
                    "midi": 64,
                    "time": 25.499999999999993,
                    "velocity": 0.5039370078740157,
                    "duration": 1.4916666666666671
                },
                {
                    "name": "A3",
                    "midi": 57,
                    "time": 25.999999999999993,
                    "velocity": 0.5039370078740157,
                    "duration": 1.4916666666666671
                },
                {
                    "name": "E4",
                    "midi": 64,
                    "time": 26.999999999999993,
                    "velocity": 0.5039370078740157,
                    "duration": 0.9916666666666671
                },
                {
                    "name": "G3",
                    "midi": 55,
                    "time": 27.999999999999993,
                    "velocity": 0.5039370078740157,
                    "duration": 0.49166666666666714
                },
                {
                    "name": "G3",
                    "midi": 55,
                    "time": 27.999999999999993,
                    "velocity": 0.5039370078740157,
                    "duration": 0.9916666666666671
                },
                {
                    "name": "E4",
                    "midi": 64,
                    "time": 28.499999999999993,
                    "velocity": 0.5039370078740157,
                    "duration": 0.49166666666666714
                },
                {
                    "name": "F3",
                    "midi": 53,
                    "time": 28.999999999999993,
                    "velocity": 0.5039370078740157,
                    "duration": 0.49166666666666714
                },
                {
                    "name": "F3",
                    "midi": 53,
                    "time": 28.999999999999993,
                    "velocity": 0.5039370078740157,
                    "duration": 0.9916666666666671
                },
                {
                    "name": "F4",
                    "midi": 65,
                    "time": 29.499999999999993,
                    "velocity": 0.5039370078740157,
                    "duration": 0.49166666666666714
                },
                {
                    "name": "B3",
                    "midi": 59,
                    "time": 29.999999999999993,
                    "velocity": 0.5039370078740157,
                    "duration": 0.9916666666666671
                },
                {
                    "name": "E3",
                    "midi": 52,
                    "time": 29.999999999999993,
                    "velocity": 0.5039370078740157,
                    "duration": 1.9916666666666671
                },
                {
                    "name": "E2",
                    "midi": 40,
                    "time": 30.999999999999993,
                    "velocity": 0.5039370078740157,
                    "duration": 0.9916666666666671
                },
                {
                    "name": "C3",
                    "midi": 48,
                    "time": 31.999999999999993,
                    "velocity": 0.5039370078740157,
                    "duration": 0.49166666666666714
                },
                {
                    "name": "E3",
                    "midi": 52,
                    "time": 32.49999999999999,
                    "velocity": 0.5039370078740157,
                    "duration": 0.49166666666666714
                },
                {
                    "name": "G3",
                    "midi": 55,
                    "time": 32.99999999999999,
                    "velocity": 0.5039370078740157,
                    "duration": 0.49166666666666714
                },
                {
                    "name": "C4",
                    "midi": 60,
                    "time": 33.49999999999999,
                    "velocity": 0.5039370078740157,
                    "duration": 2.491666666666667
                },
                {
                    "name": "F3",
                    "midi": 53,
                    "time": 33.99999999999999,
                    "velocity": 0.5039370078740157,
                    "duration": 0.49166666666666714
                },
                {
                    "name": "G3",
                    "midi": 55,
                    "time": 34.49999999999999,
                    "velocity": 0.5039370078740157,
                    "duration": 0.49166666666666714
                },
                {
                    "name": "E3",
                    "midi": 52,
                    "time": 34.99999999999999,
                    "velocity": 0.5039370078740157,
                    "duration": 0.49166666666666714
                },
                {
                    "name": "F3",
                    "midi": 53,
                    "time": 35.49999999999999,
                    "velocity": 0.5039370078740157,
                    "duration": 0.49166666666666714
                },
                {
                    "name": "D3",
                    "midi": 50,
                    "time": 35.99999999999999,
                    "velocity": 0.5039370078740157,
                    "duration": 0.49166666666666714
                },
                {
                    "name": "F3",
                    "midi": 53,
                    "time": 36.49999999999999,
                    "velocity": 0.5039370078740157,
                    "duration": 0.49166666666666714
                },
                {
                    "name": "A3",
                    "midi": 57,
                    "time": 36.99999999999999,
                    "velocity": 0.5039370078740157,
                    "duration": 0.49166666666666714
                },
                {
                    "name": "D4",
                    "midi": 62,
                    "time": 37.49999999999999,
                    "velocity": 0.5039370078740157,
                    "duration": 2.491666666666667
                },
                {
                    "name": "G3",
                    "midi": 55,
                    "time": 37.99999999999999,
                    "velocity": 0.5039370078740157,
                    "duration": 0.49166666666666714
                },
                {
                    "name": "A3",
                    "midi": 57,
                    "time": 38.49999999999999,
                    "velocity": 0.5039370078740157,
                    "duration": 0.49166666666666714
                },
                {
                    "name": "F3",
                    "midi": 53,
                    "time": 38.99999999999999,
                    "velocity": 0.5039370078740157,
                    "duration": 0.49166666666666714
                },
                {
                    "name": "G3",
                    "midi": 55,
                    "time": 39.49999999999999,
                    "velocity": 0.5039370078740157,
                    "duration": 0.49166666666666714
                },
                {
                    "name": "E3",
                    "midi": 52,
                    "time": 39.99999999999999,
                    "velocity": 0.5039370078740157,
                    "duration": 0.49166666666666714
                },
                {
                    "name": "G3",
                    "midi": 55,
                    "time": 40.49999999999999,
                    "velocity": 0.5039370078740157,
                    "duration": 0.49166666666666714
                },
                {
                    "name": "C4",
                    "midi": 60,
                    "time": 40.99999999999999,
                    "velocity": 0.5039370078740157,
                    "duration": 0.49166666666666714
                },
                {
                    "name": "E4",
                    "midi": 64,
                    "time": 41.49999999999999,
                    "velocity": 0.5039370078740157,
                    "duration": 0.49166666666666714
                },
                {
                    "name": "F3",
                    "midi": 53,
                    "time": 41.99999999999999,
                    "velocity": 0.5039370078740157,
                    "duration": 0.49166666666666714
                },
                {
                    "name": "A3",
                    "midi": 57,
                    "time": 42.49999999999999,
                    "velocity": 0.5039370078740157,
                    "duration": 0.49166666666666714
                },
                {
                    "name": "C4",
                    "midi": 60,
                    "time": 42.99999999999999,
                    "velocity": 0.5039370078740157,
                    "duration": 0.49166666666666714
                },
                {
                    "name": "F4",
                    "midi": 65,
                    "time": 43.49999999999999,
                    "velocity": 0.5039370078740157,
                    "duration": 0.9916666666666671
                },
                {
                    "name": "G3",
                    "midi": 55,
                    "time": 43.99999999999999,
                    "velocity": 0.5039370078740157,
                    "duration": 1.9916666666666671
                },
                {
                    "name": "E4",
                    "midi": 64,
                    "time": 44.49999999999999,
                    "velocity": 0.5039370078740157,
                    "duration": 0.49166666666666714
                },
                {
                    "name": "D4",
                    "midi": 62,
                    "time": 44.99999999999999,
                    "velocity": 0.5039370078740157,
                    "duration": 0.49166666666666714
                },
                {
                    "name": "F4",
                    "midi": 65,
                    "time": 45.49999999999999,
                    "velocity": 0.5039370078740157,
                    "duration": 0.49166666666666714
                },
                {
                    "name": "C4",
                    "midi": 60,
                    "time": 45.99999999999999,
                    "velocity": 0.5039370078740157,
                    "duration": 1.9916666666666671
                },
                {
                    "name": "C3",
                    "midi": 48,
                    "time": 47.49999999999999,
                    "velocity": 0.5039370078740157,
                    "duration": 0.49166666666666714
                },
                {
                    "name": "C4",
                    "midi": 60,
                    "time": 47.99999999999999,
                    "velocity": 0.5039370078740157,
                    "duration": 0.7416666666666671
                },
                {
                    "name": "D4",
                    "midi": 62,
                    "time": 48.74999999999999,
                    "velocity": 0.5039370078740157,
                    "duration": 0.24166666666666714
                },
                {
                    "name": "E4",
                    "midi": 64,
                    "time": 48.99999999999999,
                    "velocity": 0.5039370078740157,
                    "duration": 0.07500000000000284
                },
                {
                    "name": "D4",
                    "midi": 62,
                    "time": 49.08333333333333,
                    "velocity": 0.5039370078740157,
                    "duration": 0.07500000000000284
                },
                {
                    "name": "E4",
                    "midi": 64,
                    "time": 49.166666666666664,
                    "velocity": 0.5039370078740157,
                    "duration": 0.5750000000000028
                },
                {
                    "name": "C4",
                    "midi": 60,
                    "time": 49.75,
                    "velocity": 0.5039370078740157,
                    "duration": 0.24166666666666714
                },
                {
                    "name": "G4",
                    "midi": 67,
                    "time": 50,
                    "velocity": 0.5039370078740157,
                    "duration": 0.9916666666666671
                },
                {
                    "name": "G#4",
                    "midi": 68,
                    "time": 51,
                    "velocity": 0.5039370078740157,
                    "duration": 0.07500000000000284
                },
                {
                    "name": "G4",
                    "midi": 67,
                    "time": 51.083333333333336,
                    "velocity": 0.5039370078740157,
                    "duration": 0.07500000000000284
                },
                {
                    "name": "G#4",
                    "midi": 68,
                    "time": 51.16666666666667,
                    "velocity": 0.5039370078740157,
                    "duration": 0.6583333333333314
                },
                {
                    "name": "F#4",
                    "midi": 66,
                    "time": 51.833333333333336,
                    "velocity": 0.5039370078740157,
                    "duration": 0.07500000000000284
                },
                {
                    "name": "G#4",
                    "midi": 68,
                    "time": 51.91666666666667,
                    "velocity": 0.5039370078740157,
                    "duration": 0.07500000000000284
                },
                {
                    "name": "A4",
                    "midi": 69,
                    "time": 52.00000000000001,
                    "velocity": 0.5039370078740157,
                    "duration": 0.9916666666666671
                },
                {
                    "name": "A3",
                    "midi": 57,
                    "time": 53.00000000000001,
                    "velocity": 0.5039370078740157,
                    "duration": 0.9916666666666671
                },
                {
                    "name": "E4",
                    "midi": 64,
                    "time": 54.00000000000001,
                    "velocity": 0.5039370078740157,
                    "duration": 0.9916666666666671
                },
                {
                    "name": "D4",
                    "midi": 62,
                    "time": 55.00000000000001,
                    "velocity": 0.5039370078740157,
                    "duration": 0.9916666666666671
                },
                {
                    "name": "A4",
                    "midi": 69,
                    "time": 56.00000000000001,
                    "velocity": 0.5039370078740157,
                    "duration": 1.9916666666666671
                },
                {
                    "name": "C4",
                    "midi": 60,
                    "time": 56.00000000000001,
                    "velocity": 0.5039370078740157,
                    "duration": 0.9916666666666671
                },
                {
                    "name": "A3",
                    "midi": 57,
                    "time": 57.00000000000001,
                    "velocity": 0.5039370078740157,
                    "duration": 0.9916666666666671
                },
                {
                    "name": "A4",
                    "midi": 69,
                    "time": 58.00000000000001,
                    "velocity": 0.5039370078740157,
                    "duration": 0.9916666666666671
                },
                {
                    "name": "D4",
                    "midi": 62,
                    "time": 58.00000000000001,
                    "velocity": 0.5039370078740157,
                    "duration": 0.9916666666666671
                },
                {
                    "name": "E4",
                    "midi": 64,
                    "time": 59.00000000000001,
                    "velocity": 0.5039370078740157,
                    "duration": 0.49166666666666714
                },
                {
                    "name": "F4",
                    "midi": 65,
                    "time": 59.50000000000001,
                    "velocity": 0.5039370078740157,
                    "duration": 0.49166666666666714
                },
                {
                    "name": "D4",
                    "midi": 62,
                    "time": 60.00000000000001,
                    "velocity": 0.5039370078740157,
                    "duration": 0.9916666666666671
                },
                {
                    "name": "E4",
                    "midi": 64,
                    "time": 61.00000000000001,
                    "velocity": 0.5039370078740157,
                    "duration": 0.9916666666666671
                },
                {
                    "name": "A3",
                    "midi": 57,
                    "time": 62.00000000000001,
                    "velocity": 0.5039370078740157,
                    "duration": 1.9916666666666671
                },
                {
                    "name": "A2",
                    "midi": 45,
                    "time": 63.00000000000001,
                    "velocity": 0.5039370078740157,
                    "duration": 0.9916666666666671
                },
                {
                    "name": "C3",
                    "midi": 48,
                    "time": 64.00000000000001,
                    "velocity": 0.5039370078740157,
                    "duration": 0.49166666666666003
                },
                {
                    "name": "E3",
                    "midi": 52,
                    "time": 64.50000000000001,
                    "velocity": 0.5039370078740157,
                    "duration": 0.49166666666666003
                },
                {
                    "name": "G3",
                    "midi": 55,
                    "time": 65.00000000000001,
                    "velocity": 0.5039370078740157,
                    "duration": 0.49166666666666003
                },
                {
                    "name": "C4",
                    "midi": 60,
                    "time": 65.50000000000001,
                    "velocity": 0.5039370078740157,
                    "duration": 2.49166666666666
                },
                {
                    "name": "F3",
                    "midi": 53,
                    "time": 66.00000000000001,
                    "velocity": 0.5039370078740157,
                    "duration": 0.49166666666666003
                },
                {
                    "name": "G3",
                    "midi": 55,
                    "time": 66.50000000000001,
                    "velocity": 0.5039370078740157,
                    "duration": 0.49166666666666003
                },
                {
                    "name": "E3",
                    "midi": 52,
                    "time": 67.00000000000001,
                    "velocity": 0.5039370078740157,
                    "duration": 0.49166666666666003
                },
                {
                    "name": "F3",
                    "midi": 53,
                    "time": 67.50000000000001,
                    "velocity": 0.5039370078740157,
                    "duration": 0.49166666666666003
                },
                {
                    "name": "D3",
                    "midi": 50,
                    "time": 68.00000000000001,
                    "velocity": 0.5039370078740157,
                    "duration": 0.49166666666666003
                },
                {
                    "name": "F3",
                    "midi": 53,
                    "time": 68.50000000000001,
                    "velocity": 0.5039370078740157,
                    "duration": 0.49166666666666003
                },
                {
                    "name": "A3",
                    "midi": 57,
                    "time": 69.00000000000001,
                    "velocity": 0.5039370078740157,
                    "duration": 0.49166666666666003
                },
                {
                    "name": "D4",
                    "midi": 62,
                    "time": 69.50000000000001,
                    "velocity": 0.5039370078740157,
                    "duration": 2.49166666666666
                },
                {
                    "name": "G3",
                    "midi": 55,
                    "time": 70.00000000000001,
                    "velocity": 0.5039370078740157,
                    "duration": 0.49166666666666003
                },
                {
                    "name": "A3",
                    "midi": 57,
                    "time": 70.50000000000001,
                    "velocity": 0.5039370078740157,
                    "duration": 0.49166666666666003
                },
                {
                    "name": "F3",
                    "midi": 53,
                    "time": 71.00000000000001,
                    "velocity": 0.5039370078740157,
                    "duration": 0.49166666666666003
                },
                {
                    "name": "G3",
                    "midi": 55,
                    "time": 71.50000000000001,
                    "velocity": 0.5039370078740157,
                    "duration": 0.49166666666666003
                },
                {
                    "name": "E3",
                    "midi": 52,
                    "time": 72.00000000000001,
                    "velocity": 0.5039370078740157,
                    "duration": 0.49166666666666003
                },
                {
                    "name": "G3",
                    "midi": 55,
                    "time": 72.50000000000001,
                    "velocity": 0.5039370078740157,
                    "duration": 0.49166666666666003
                },
                {
                    "name": "C4",
                    "midi": 60,
                    "time": 73.00000000000001,
                    "velocity": 0.5039370078740157,
                    "duration": 0.49166666666666003
                },
                {
                    "name": "E4",
                    "midi": 64,
                    "time": 73.50000000000001,
                    "velocity": 0.5039370078740157,
                    "duration": 0.49166666666666003
                },
                {
                    "name": "F3",
                    "midi": 53,
                    "time": 74.00000000000001,
                    "velocity": 0.5039370078740157,
                    "duration": 0.49166666666666003
                },
                {
                    "name": "A3",
                    "midi": 57,
                    "time": 74.50000000000001,
                    "velocity": 0.5039370078740157,
                    "duration": 0.49166666666666003
                },
                {
                    "name": "C4",
                    "midi": 60,
                    "time": 75.00000000000001,
                    "velocity": 0.5039370078740157,
                    "duration": 0.49166666666666003
                },
                {
                    "name": "F4",
                    "midi": 65,
                    "time": 75.50000000000001,
                    "velocity": 0.5039370078740157,
                    "duration": 0.99166666666666
                },
                {
                    "name": "G3",
                    "midi": 55,
                    "time": 76.00000000000001,
                    "velocity": 0.5039370078740157,
                    "duration": 1.99166666666666
                },
                {
                    "name": "E4",
                    "midi": 64,
                    "time": 76.50000000000001,
                    "velocity": 0.5039370078740157,
                    "duration": 0.49166666666666003
                },
                {
                    "name": "D4",
                    "midi": 62,
                    "time": 77.00000000000001,
                    "velocity": 0.5039370078740157,
                    "duration": 0.49166666666666003
                },
                {
                    "name": "F4",
                    "midi": 65,
                    "time": 77.50000000000001,
                    "velocity": 0.5039370078740157,
                    "duration": 0.49166666666666003
                },
                {
                    "name": "C4",
                    "midi": 60,
                    "time": 78.00000000000001,
                    "velocity": 0.5039370078740157,
                    "duration": 1.99166666666666
                },
                {
                    "name": "C3",
                    "midi": 48,
                    "time": 79.50000000000001,
                    "velocity": 0.5039370078740157,
                    "duration": 0.49166666666666003
                },
                {
                    "name": "C4",
                    "midi": 60,
                    "time": 80.00000000000001,
                    "velocity": 0.5039370078740157,
                    "duration": 0.74166666666666
                },
                {
                    "name": "D4",
                    "midi": 62,
                    "time": 80.75000000000001,
                    "velocity": 0.5039370078740157,
                    "duration": 0.24166666666666003
                },
                {
                    "name": "E4",
                    "midi": 64,
                    "time": 81.00000000000001,
                    "velocity": 0.5039370078740157,
                    "duration": 0.07500000000000284
                },
                {
                    "name": "D4",
                    "midi": 62,
                    "time": 81.08333333333336,
                    "velocity": 0.5039370078740157,
                    "duration": 0.07500000000000284
                },
                {
                    "name": "E4",
                    "midi": 64,
                    "time": 81.1666666666667,
                    "velocity": 0.5039370078740157,
                    "duration": 0.5750000000000028
                },
                {
                    "name": "C4",
                    "midi": 60,
                    "time": 81.75000000000004,
                    "velocity": 0.5039370078740157,
                    "duration": 0.24166666666666003
                },
                {
                    "name": "G4",
                    "midi": 67,
                    "time": 82.00000000000004,
                    "velocity": 0.5039370078740157,
                    "duration": 0.99166666666666
                },
                {
                    "name": "G#4",
                    "midi": 68,
                    "time": 83.00000000000004,
                    "velocity": 0.5039370078740157,
                    "duration": 0.07500000000000284
                },
                {
                    "name": "G4",
                    "midi": 67,
                    "time": 83.08333333333339,
                    "velocity": 0.5039370078740157,
                    "duration": 0.07500000000000284
                },
                {
                    "name": "G#4",
                    "midi": 68,
                    "time": 83.16666666666673,
                    "velocity": 0.5039370078740157,
                    "duration": 0.6583333333333314
                },
                {
                    "name": "F#4",
                    "midi": 66,
                    "time": 83.8333333333334,
                    "velocity": 0.5039370078740157,
                    "duration": 0.07500000000000284
                },
                {
                    "name": "G#4",
                    "midi": 68,
                    "time": 83.91666666666674,
                    "velocity": 0.5039370078740157,
                    "duration": 0.07500000000000284
                },
                {
                    "name": "A4",
                    "midi": 69,
                    "time": 84.00000000000009,
                    "velocity": 0.5039370078740157,
                    "duration": 0.99166666666666
                },
                {
                    "name": "A3",
                    "midi": 57,
                    "time": 85.00000000000009,
                    "velocity": 0.5039370078740157,
                    "duration": 0.99166666666666
                },
                {
                    "name": "E4",
                    "midi": 64,
                    "time": 86.00000000000009,
                    "velocity": 0.5039370078740157,
                    "duration": 0.99166666666666
                },
                {
                    "name": "D4",
                    "midi": 62,
                    "time": 87.00000000000009,
                    "velocity": 0.5039370078740157,
                    "duration": 0.99166666666666
                },
                {
                    "name": "A4",
                    "midi": 69,
                    "time": 88.00000000000009,
                    "velocity": 0.5039370078740157,
                    "duration": 1.99166666666666
                },
                {
                    "name": "C4",
                    "midi": 60,
                    "time": 88.00000000000009,
                    "velocity": 0.5039370078740157,
                    "duration": 0.99166666666666
                },
                {
                    "name": "A3",
                    "midi": 57,
                    "time": 89.00000000000009,
                    "velocity": 0.5039370078740157,
                    "duration": 0.99166666666666
                },
                {
                    "name": "A4",
                    "midi": 69,
                    "time": 90.00000000000009,
                    "velocity": 0.5039370078740157,
                    "duration": 0.99166666666666
                },
                {
                    "name": "D4",
                    "midi": 62,
                    "time": 90.00000000000009,
                    "velocity": 0.5039370078740157,
                    "duration": 0.99166666666666
                },
                {
                    "name": "E4",
                    "midi": 64,
                    "time": 91.00000000000009,
                    "velocity": 0.5039370078740157,
                    "duration": 0.49166666666666003
                },
                {
                    "name": "F4",
                    "midi": 65,
                    "time": 91.50000000000009,
                    "velocity": 0.5039370078740157,
                    "duration": 0.49166666666666003
                },
                {
                    "name": "D4",
                    "midi": 62,
                    "time": 92.00000000000009,
                    "velocity": 0.5039370078740157,
                    "duration": 0.99166666666666
                },
                {
                    "name": "E4",
                    "midi": 64,
                    "time": 93.00000000000009,
                    "velocity": 0.5039370078740157,
                    "duration": 0.99166666666666
                },
                {
                    "name": "A3",
                    "midi": 57,
                    "time": 94.00000000000009,
                    "velocity": 0.5039370078740157,
                    "duration": 1.99166666666666
                },
                {
                    "name": "A2",
                    "midi": 45,
                    "time": 95.00000000000009,
                    "velocity": 0.5039370078740157,
                    "duration": 0.99166666666666
                },
                {
                    "name": "C5",
                    "midi": 72,
                    "time": 96.00000000000009,
                    "velocity": 0.5039370078740157,
                    "duration": 0.99166666666666
                },
                {
                    "name": "A4",
                    "midi": 69,
                    "time": 96.00000000000009,
                    "velocity": 0.5039370078740157,
                    "duration": 0.99166666666666
                },
                {
                    "name": "C5",
                    "midi": 72,
                    "time": 97.00000000000009,
                    "velocity": 0.5039370078740157,
                    "duration": 0.99166666666666
                },
                {
                    "name": "A4",
                    "midi": 69,
                    "time": 97.00000000000009,
                    "velocity": 0.5039370078740157,
                    "duration": 0.99166666666666
                },
                {
                    "name": "B4",
                    "midi": 71,
                    "time": 98.00000000000009,
                    "velocity": 0.5039370078740157,
                    "duration": 0.99166666666666
                },
                {
                    "name": "D4",
                    "midi": 62,
                    "time": 98.00000000000009,
                    "velocity": 0.5039370078740157,
                    "duration": 0.99166666666666
                },
                {
                    "name": "B4",
                    "midi": 71,
                    "time": 99.00000000000009,
                    "velocity": 0.5039370078740157,
                    "duration": 0.99166666666666
                },
                {
                    "name": "D4",
                    "midi": 62,
                    "time": 99.00000000000009,
                    "velocity": 0.5039370078740157,
                    "duration": 0.99166666666666
                },
                {
                    "name": "A4",
                    "midi": 69,
                    "time": 100.00000000000009,
                    "velocity": 0.5039370078740157,
                    "duration": 0.99166666666666
                },
                {
                    "name": "E4",
                    "midi": 64,
                    "time": 100.00000000000009,
                    "velocity": 0.5039370078740157,
                    "duration": 0.99166666666666
                },
                {
                    "name": "G#4",
                    "midi": 68,
                    "time": 101.00000000000009,
                    "velocity": 0.5039370078740157,
                    "duration": 0.07500000000000284
                },
                {
                    "name": "E4",
                    "midi": 64,
                    "time": 101.00000000000009,
                    "velocity": 0.5039370078740157,
                    "duration": 0.9916666666666885
                },
                {
                    "name": "F#4",
                    "midi": 66,
                    "time": 101.08333333333343,
                    "velocity": 0.5039370078740157,
                    "duration": 0.07500000000000284
                },
                {
                    "name": "G#4",
                    "midi": 68,
                    "time": 101.16666666666677,
                    "velocity": 0.5039370078740157,
                    "duration": 0.8250000000000028
                },
                {
                    "name": "A4",
                    "midi": 69,
                    "time": 102.00000000000011,
                    "velocity": 0.5039370078740157,
                    "duration": 0.49166666666666003
                },
                {
                    "name": "E4",
                    "midi": 64,
                    "time": 102.50000000000011,
                    "velocity": 0.5039370078740157,
                    "duration": 0.49166666666666003
                },
                {
                    "name": "A3",
                    "midi": 57,
                    "time": 103.00000000000011,
                    "velocity": 0.5039370078740157,
                    "duration": 0.49166666666666003
                },
                {
                    "name": "E4",
                    "midi": 64,
                    "time": 103.50000000000011,
                    "velocity": 0.5039370078740157,
                    "duration": 0.49166666666666003
                },
                {
                    "name": "A4",
                    "midi": 69,
                    "time": 104.00000000000011,
                    "velocity": 0.5039370078740157,
                    "duration": 0.99166666666666
                },
                {
                    "name": "B4",
                    "midi": 71,
                    "time": 105.00000000000011,
                    "velocity": 0.5039370078740157,
                    "duration": 0.99166666666666
                },
                {
                    "name": "G4",
                    "midi": 67,
                    "time": 105.00000000000011,
                    "velocity": 0.5039370078740157,
                    "duration": 0.99166666666666
                },
                {
                    "name": "C5",
                    "midi": 72,
                    "time": 106.00000000000011,
                    "velocity": 0.5039370078740157,
                    "duration": 0.99166666666666
                },
                {
                    "name": "C4",
                    "midi": 60,
                    "time": 106.00000000000011,
                    "velocity": 0.5039370078740157,
                    "duration": 0.99166666666666
                },
                {
                    "name": "C5",
                    "midi": 72,
                    "time": 107.00000000000011,
                    "velocity": 0.5039370078740157,
                    "duration": 0.99166666666666
                },
                {
                    "name": "C4",
                    "midi": 60,
                    "time": 107.00000000000011,
                    "velocity": 0.5039370078740157,
                    "duration": 0.99166666666666
                },
                {
                    "name": "B4",
                    "midi": 71,
                    "time": 108.00000000000011,
                    "velocity": 0.5039370078740157,
                    "duration": 0.99166666666666
                },
                {
                    "name": "D4",
                    "midi": 62,
                    "time": 108.00000000000011,
                    "velocity": 0.5039370078740157,
                    "duration": 0.99166666666666
                },
                {
                    "name": "B4",
                    "midi": 71,
                    "time": 109.00000000000011,
                    "velocity": 0.5039370078740157,
                    "duration": 0.99166666666666
                },
                {
                    "name": "D4",
                    "midi": 62,
                    "time": 109.00000000000011,
                    "velocity": 0.5039370078740157,
                    "duration": 0.99166666666666
                },
                {
                    "name": "G#4",
                    "midi": 68,
                    "time": 110.00000000000011,
                    "velocity": 0.5039370078740157,
                    "duration": 1.99166666666666
                },
                {
                    "name": "E4",
                    "midi": 64,
                    "time": 110.00000000000011,
                    "velocity": 0.5039370078740157,
                    "duration": 1.99166666666666
                },
                {
                    "name": "C5",
                    "midi": 72,
                    "time": 112.00000000000011,
                    "velocity": 0.5039370078740157,
                    "duration": 0.99166666666666
                },
                {
                    "name": "A4",
                    "midi": 69,
                    "time": 112.00000000000011,
                    "velocity": 0.5039370078740157,
                    "duration": 0.99166666666666
                },
                {
                    "name": "C5",
                    "midi": 72,
                    "time": 113.00000000000011,
                    "velocity": 0.5039370078740157,
                    "duration": 0.99166666666666
                },
                {
                    "name": "A4",
                    "midi": 69,
                    "time": 113.00000000000011,
                    "velocity": 0.5039370078740157,
                    "duration": 0.99166666666666
                },
                {
                    "name": "B4",
                    "midi": 71,
                    "time": 114.00000000000011,
                    "velocity": 0.5039370078740157,
                    "duration": 0.99166666666666
                },
                {
                    "name": "D4",
                    "midi": 62,
                    "time": 114.00000000000011,
                    "velocity": 0.5039370078740157,
                    "duration": 0.99166666666666
                },
                {
                    "name": "B4",
                    "midi": 71,
                    "time": 115.00000000000011,
                    "velocity": 0.5039370078740157,
                    "duration": 0.99166666666666
                },
                {
                    "name": "D4",
                    "midi": 62,
                    "time": 115.00000000000011,
                    "velocity": 0.5039370078740157,
                    "duration": 0.99166666666666
                },
                {
                    "name": "A4",
                    "midi": 69,
                    "time": 116.00000000000011,
                    "velocity": 0.5039370078740157,
                    "duration": 0.99166666666666
                },
                {
                    "name": "E4",
                    "midi": 64,
                    "time": 116.00000000000011,
                    "velocity": 0.5039370078740157,
                    "duration": 0.99166666666666
                },
                {
                    "name": "G#4",
                    "midi": 68,
                    "time": 117.00000000000011,
                    "velocity": 0.5039370078740157,
                    "duration": 0.07500000000000284
                },
                {
                    "name": "E4",
                    "midi": 64,
                    "time": 117.00000000000011,
                    "velocity": 0.5039370078740157,
                    "duration": 0.9916666666666885
                },
                {
                    "name": "F#4",
                    "midi": 66,
                    "time": 117.08333333333346,
                    "velocity": 0.5039370078740157,
                    "duration": 0.07500000000000284
                },
                {
                    "name": "G#4",
                    "midi": 68,
                    "time": 117.1666666666668,
                    "velocity": 0.5039370078740157,
                    "duration": 0.8250000000000028
                },
                {
                    "name": "A4",
                    "midi": 69,
                    "time": 118.00000000000014,
                    "velocity": 0.5039370078740157,
                    "duration": 0.49166666666666003
                },
                {
                    "name": "E4",
                    "midi": 64,
                    "time": 118.50000000000014,
                    "velocity": 0.5039370078740157,
                    "duration": 0.49166666666666003
                },
                {
                    "name": "A3",
                    "midi": 57,
                    "time": 119.00000000000014,
                    "velocity": 0.5039370078740157,
                    "duration": 0.49166666666666003
                },
                {
                    "name": "E4",
                    "midi": 64,
                    "time": 119.50000000000014,
                    "velocity": 0.5039370078740157,
                    "duration": 0.49166666666666003
                },
                {
                    "name": "A4",
                    "midi": 69,
                    "time": 120.00000000000014,
                    "velocity": 0.5039370078740157,
                    "duration": 0.99166666666666
                },
                {
                    "name": "B4",
                    "midi": 71,
                    "time": 121.00000000000014,
                    "velocity": 0.5039370078740157,
                    "duration": 0.99166666666666
                },
                {
                    "name": "G4",
                    "midi": 67,
                    "time": 121.00000000000014,
                    "velocity": 0.5039370078740157,
                    "duration": 0.99166666666666
                },
                {
                    "name": "C5",
                    "midi": 72,
                    "time": 122.00000000000014,
                    "velocity": 0.5039370078740157,
                    "duration": 0.99166666666666
                },
                {
                    "name": "C4",
                    "midi": 60,
                    "time": 122.00000000000014,
                    "velocity": 0.5039370078740157,
                    "duration": 0.99166666666666
                },
                {
                    "name": "C5",
                    "midi": 72,
                    "time": 123.00000000000014,
                    "velocity": 0.5039370078740157,
                    "duration": 0.99166666666666
                },
                {
                    "name": "C4",
                    "midi": 60,
                    "time": 123.00000000000014,
                    "velocity": 0.5039370078740157,
                    "duration": 0.99166666666666
                },
                {
                    "name": "B4",
                    "midi": 71,
                    "time": 124.00000000000014,
                    "velocity": 0.5039370078740157,
                    "duration": 0.99166666666666
                },
                {
                    "name": "D4",
                    "midi": 62,
                    "time": 124.00000000000014,
                    "velocity": 0.5039370078740157,
                    "duration": 0.99166666666666
                },
                {
                    "name": "B4",
                    "midi": 71,
                    "time": 125.00000000000014,
                    "velocity": 0.5039370078740157,
                    "duration": 0.99166666666666
                },
                {
                    "name": "D4",
                    "midi": 62,
                    "time": 125.00000000000014,
                    "velocity": 0.5039370078740157,
                    "duration": 0.99166666666666
                },
                {
                    "name": "G#4",
                    "midi": 68,
                    "time": 126.00000000000014,
                    "velocity": 0.5039370078740157,
                    "duration": 0.24166666666666003
                },
                {
                    "name": "E4",
                    "midi": 64,
                    "time": 126.00000000000014,
                    "velocity": 0.5039370078740157,
                    "duration": 0.24166666666666003
                },
                {
                    "name": "A4",
                    "midi": 69,
                    "time": 126.25000000000014,
                    "velocity": 0.5039370078740157,
                    "duration": 0.24166666666666003
                },
                {
                    "name": "G#4",
                    "midi": 68,
                    "time": 126.50000000000014,
                    "velocity": 0.5039370078740157,
                    "duration": 0.24166666666666003
                },
                {
                    "name": "F#4",
                    "midi": 66,
                    "time": 126.75000000000014,
                    "velocity": 0.5039370078740157,
                    "duration": 0.24166666666666003
                },
                {
                    "name": "E4",
                    "midi": 64,
                    "time": 127.00000000000014,
                    "velocity": 0.5039370078740157,
                    "duration": 0.24166666666666003
                },
                {
                    "name": "D4",
                    "midi": 62,
                    "time": 127.25000000000014,
                    "velocity": 0.5039370078740157,
                    "duration": 0.24166666666666003
                },
                {
                    "name": "C4",
                    "midi": 60,
                    "time": 127.50000000000014,
                    "velocity": 0.5039370078740157,
                    "duration": 0.24166666666666003
                },
                {
                    "name": "B3",
                    "midi": 59,
                    "time": 127.75000000000014,
                    "velocity": 0.5039370078740157,
                    "duration": 0.24166666666666003
                },
                {
                    "name": "C4",
                    "midi": 60,
                    "time": 128.00000000000014,
                    "velocity": 0.5039370078740157,
                    "duration": 0.49166666666667425
                },
                {
                    "name": "C3",
                    "midi": 48,
                    "time": 128.50000000000014,
                    "velocity": 0.5039370078740157,
                    "duration": 0.49166666666667425
                },
                {
                    "name": "E3",
                    "midi": 52,
                    "time": 129.00000000000014,
                    "velocity": 0.5039370078740157,
                    "duration": 0.49166666666667425
                },
                {
                    "name": "C3",
                    "midi": 48,
                    "time": 129.50000000000014,
                    "velocity": 0.5039370078740157,
                    "duration": 0.49166666666667425
                },
                {
                    "name": "F2",
                    "midi": 41,
                    "time": 130.00000000000014,
                    "velocity": 0.5039370078740157,
                    "duration": 0.49166666666667425
                },
                {
                    "name": "F3",
                    "midi": 53,
                    "time": 130.50000000000014,
                    "velocity": 0.5039370078740157,
                    "duration": 0.49166666666667425
                },
                {
                    "name": "A3",
                    "midi": 57,
                    "time": 131.00000000000014,
                    "velocity": 0.5039370078740157,
                    "duration": 0.49166666666667425
                },
                {
                    "name": "F3",
                    "midi": 53,
                    "time": 131.50000000000014,
                    "velocity": 0.5039370078740157,
                    "duration": 0.49166666666667425
                },
                {
                    "name": "D2",
                    "midi": 38,
                    "time": 132.00000000000014,
                    "velocity": 0.5039370078740157,
                    "duration": 0.49166666666667425
                },
                {
                    "name": "D3",
                    "midi": 50,
                    "time": 132.50000000000014,
                    "velocity": 0.5039370078740157,
                    "duration": 0.49166666666667425
                },
                {
                    "name": "F3",
                    "midi": 53,
                    "time": 133.00000000000014,
                    "velocity": 0.5039370078740157,
                    "duration": 0.49166666666667425
                },
                {
                    "name": "D3",
                    "midi": 50,
                    "time": 133.50000000000014,
                    "velocity": 0.5039370078740157,
                    "duration": 0.49166666666667425
                },
                {
                    "name": "G2",
                    "midi": 43,
                    "time": 134.00000000000014,
                    "velocity": 0.5039370078740157,
                    "duration": 0.49166666666667425
                },
                {
                    "name": "G3",
                    "midi": 55,
                    "time": 134.50000000000014,
                    "velocity": 0.5039370078740157,
                    "duration": 0.49166666666667425
                },
                {
                    "name": "B3",
                    "midi": 59,
                    "time": 135.00000000000014,
                    "velocity": 0.5039370078740157,
                    "duration": 0.49166666666667425
                },
                {
                    "name": "G3",
                    "midi": 55,
                    "time": 135.50000000000014,
                    "velocity": 0.5039370078740157,
                    "duration": 0.49166666666667425
                },
                {
                    "name": "E2",
                    "midi": 40,
                    "time": 136.00000000000014,
                    "velocity": 0.5039370078740157,
                    "duration": 0.49166666666667425
                },
                {
                    "name": "E3",
                    "midi": 52,
                    "time": 136.50000000000014,
                    "velocity": 0.5039370078740157,
                    "duration": 0.49166666666667425
                },
                {
                    "name": "G3",
                    "midi": 55,
                    "time": 137.00000000000014,
                    "velocity": 0.5039370078740157,
                    "duration": 0.49166666666667425
                },
                {
                    "name": "E3",
                    "midi": 52,
                    "time": 137.50000000000014,
                    "velocity": 0.5039370078740157,
                    "duration": 0.49166666666667425
                },
                {
                    "name": "F2",
                    "midi": 41,
                    "time": 138.00000000000014,
                    "velocity": 0.5039370078740157,
                    "duration": 0.49166666666667425
                },
                {
                    "name": "F3",
                    "midi": 53,
                    "time": 138.50000000000014,
                    "velocity": 0.5039370078740157,
                    "duration": 0.49166666666667425
                },
                {
                    "name": "A3",
                    "midi": 57,
                    "time": 139.00000000000014,
                    "velocity": 0.5039370078740157,
                    "duration": 0.49166666666667425
                },
                {
                    "name": "F3",
                    "midi": 53,
                    "time": 139.50000000000014,
                    "velocity": 0.5039370078740157,
                    "duration": 0.49166666666667425
                },
                {
                    "name": "G2",
                    "midi": 43,
                    "time": 140.00000000000014,
                    "velocity": 0.5039370078740157,
                    "duration": 0.9916666666666742
                },
                {
                    "name": "G1",
                    "midi": 31,
                    "time": 140.00000000000014,
                    "velocity": 0.5039370078740157,
                    "duration": 0.9916666666666742
                },
                {
                    "name": "C2",
                    "midi": 36,
                    "time": 142.00000000000014,
                    "velocity": 0.5039370078740157,
                    "duration": 0.49166666666667425
                },
                {
                    "name": "D2",
                    "midi": 38,
                    "time": 142.50000000000014,
                    "velocity": 0.5039370078740157,
                    "duration": 0.24166666666667425
                },
                {
                    "name": "E2",
                    "midi": 40,
                    "time": 142.75000000000014,
                    "velocity": 0.5039370078740157,
                    "duration": 0.24166666666667425
                },
                {
                    "name": "F2",
                    "midi": 41,
                    "time": 143.00000000000014,
                    "velocity": 0.5039370078740157,
                    "duration": 0.24166666666667425
                },
                {
                    "name": "G2",
                    "midi": 43,
                    "time": 143.25000000000014,
                    "velocity": 0.5039370078740157,
                    "duration": 0.24166666666667425
                },
                {
                    "name": "A2",
                    "midi": 45,
                    "time": 143.50000000000014,
                    "velocity": 0.5039370078740157,
                    "duration": 0.24166666666667425
                },
                {
                    "name": "B2",
                    "midi": 47,
                    "time": 143.75000000000014,
                    "velocity": 0.5039370078740157,
                    "duration": 0.24166666666667425
                },
                {
                    "name": "C3",
                    "midi": 48,
                    "time": 144.00000000000014,
                    "velocity": 0.5039370078740157,
                    "duration": 0.49166666666667425
                },
                {
                    "name": "D3",
                    "midi": 50,
                    "time": 144.50000000000014,
                    "velocity": 0.5039370078740157,
                    "duration": 0.49166666666667425
                },
                {
                    "name": "E3",
                    "midi": 52,
                    "time": 145.00000000000014,
                    "velocity": 0.5039370078740157,
                    "duration": 0.49166666666667425
                },
                {
                    "name": "C3",
                    "midi": 48,
                    "time": 145.50000000000014,
                    "velocity": 0.5039370078740157,
                    "duration": 0.49166666666667425
                },
                {
                    "name": "G3",
                    "midi": 55,
                    "time": 146.00000000000014,
                    "velocity": 0.5039370078740157,
                    "duration": 0.49166666666667425
                },
                {
                    "name": "G2",
                    "midi": 43,
                    "time": 146.50000000000014,
                    "velocity": 0.5039370078740157,
                    "duration": 0.49166666666667425
                },
                {
                    "name": "G#2",
                    "midi": 44,
                    "time": 147.00000000000014,
                    "velocity": 0.5039370078740157,
                    "duration": 0.49166666666667425
                },
                {
                    "name": "G#2",
                    "midi": 44,
                    "time": 147.00000000000014,
                    "velocity": 0.5039370078740157,
                    "duration": 0.9916666666666742
                },
                {
                    "name": "E3",
                    "midi": 52,
                    "time": 147.50000000000014,
                    "velocity": 0.5039370078740157,
                    "duration": 0.49166666666667425
                },
                {
                    "name": "A2",
                    "midi": 45,
                    "time": 148.00000000000014,
                    "velocity": 0.5039370078740157,
                    "duration": 1.9916666666666742
                },
                {
                    "name": "C3",
                    "midi": 48,
                    "time": 148.50000000000014,
                    "velocity": 0.5039370078740157,
                    "duration": 0.49166666666667425
                },
                {
                    "name": "E3",
                    "midi": 52,
                    "time": 149.00000000000014,
                    "velocity": 0.5039370078740157,
                    "duration": 0.49166666666667425
                },
                {
                    "name": "A3",
                    "midi": 57,
                    "time": 149.50000000000014,
                    "velocity": 0.5039370078740157,
                    "duration": 0.49166666666667425
                },
                {
                    "name": "E2",
                    "midi": 40,
                    "time": 150.00000000000014,
                    "velocity": 0.5039370078740157,
                    "duration": 0.9916666666666742
                },
                {
                    "name": "E3",
                    "midi": 52,
                    "time": 151.00000000000014,
                    "velocity": 0.5039370078740157,
                    "duration": 0.49166666666667425
                },
                {
                    "name": "D3",
                    "midi": 50,
                    "time": 151.50000000000014,
                    "velocity": 0.5039370078740157,
                    "duration": 0.07499999999998863
                },
                {
                    "name": "C3",
                    "midi": 48,
                    "time": 151.58333333333346,
                    "velocity": 0.5039370078740157,
                    "duration": 0.07499999999998863
                },
                {
                    "name": "D3",
                    "midi": 50,
                    "time": 151.66666666666677,
                    "velocity": 0.5039370078740157,
                    "duration": 0.32499999999998863
                },
                {
                    "name": "C3",
                    "midi": 48,
                    "time": 152.00000000000009,
                    "velocity": 0.5039370078740157,
                    "duration": 1.4916666666666742
                },
                {
                    "name": "E3",
                    "midi": 52,
                    "time": 152.50000000000009,
                    "velocity": 0.5039370078740157,
                    "duration": 0.49166666666667425
                },
                {
                    "name": "A3",
                    "midi": 57,
                    "time": 153.00000000000009,
                    "velocity": 0.5039370078740157,
                    "duration": 0.9916666666666742
                },
                {
                    "name": "A2",
                    "midi": 45,
                    "time": 153.50000000000009,
                    "velocity": 0.5039370078740157,
                    "duration": 0.49166666666667425
                },
                {
                    "name": "D3",
                    "midi": 50,
                    "time": 154.00000000000009,
                    "velocity": 0.5039370078740157,
                    "duration": 0.49166666666667425
                },
                {
                    "name": "E3",
                    "midi": 52,
                    "time": 154.50000000000009,
                    "velocity": 0.5039370078740157,
                    "duration": 0.49166666666667425
                },
                {
                    "name": "F3",
                    "midi": 53,
                    "time": 155.00000000000009,
                    "velocity": 0.5039370078740157,
                    "duration": 0.49166666666667425
                },
                {
                    "name": "D3",
                    "midi": 50,
                    "time": 155.50000000000009,
                    "velocity": 0.5039370078740157,
                    "duration": 0.07499999999998863
                },
                {
                    "name": "C3",
                    "midi": 48,
                    "time": 155.5833333333334,
                    "velocity": 0.5039370078740157,
                    "duration": 0.07499999999998863
                },
                {
                    "name": "D3",
                    "midi": 50,
                    "time": 155.6666666666667,
                    "velocity": 0.5039370078740157,
                    "duration": 0.15833333333333144
                },
                {
                    "name": "C3",
                    "midi": 48,
                    "time": 155.83333333333337,
                    "velocity": 0.5039370078740157,
                    "duration": 0.07499999999998863
                },
                {
                    "name": "D3",
                    "midi": 50,
                    "time": 155.91666666666669,
                    "velocity": 0.5039370078740157,
                    "duration": 0.07499999999998863
                },
                {
                    "name": "E3",
                    "midi": 52,
                    "time": 156,
                    "velocity": 0.5039370078740157,
                    "duration": 1.9916666666666742
                },
                {
                    "name": "E2",
                    "midi": 40,
                    "time": 157,
                    "velocity": 0.5039370078740157,
                    "duration": 0.9916666666666742
                },
                {
                    "name": "A2",
                    "midi": 45,
                    "time": 158,
                    "velocity": 0.5039370078740157,
                    "duration": 0.24166666666667425
                },
                {
                    "name": "C4",
                    "midi": 60,
                    "time": 158.25,
                    "velocity": 0.5039370078740157,
                    "duration": 0.24166666666667425
                },
                {
                    "name": "B3",
                    "midi": 59,
                    "time": 158.5,
                    "velocity": 0.5039370078740157,
                    "duration": 0.24166666666667425
                },
                {
                    "name": "A3",
                    "midi": 57,
                    "time": 158.75,
                    "velocity": 0.5039370078740157,
                    "duration": 0.24166666666667425
                },
                {
                    "name": "G3",
                    "midi": 55,
                    "time": 159,
                    "velocity": 0.5039370078740157,
                    "duration": 0.24166666666667425
                },
                {
                    "name": "F3",
                    "midi": 53,
                    "time": 159.25,
                    "velocity": 0.5039370078740157,
                    "duration": 0.24166666666667425
                },
                {
                    "name": "E3",
                    "midi": 52,
                    "time": 159.5,
                    "velocity": 0.5039370078740157,
                    "duration": 0.24166666666667425
                },
                {
                    "name": "D3",
                    "midi": 50,
                    "time": 159.75,
                    "velocity": 0.5039370078740157,
                    "duration": 0.24166666666667425
                },
                {
                    "name": "C3",
                    "midi": 48,
                    "time": 160,
                    "velocity": 0.5039370078740157,
                    "duration": 0.49166666666667425
                },
                {
                    "name": "C3",
                    "midi": 48,
                    "time": 160.5,
                    "velocity": 0.5039370078740157,
                    "duration": 0.49166666666667425
                },
                {
                    "name": "E3",
                    "midi": 52,
                    "time": 161,
                    "velocity": 0.5039370078740157,
                    "duration": 0.49166666666667425
                },
                {
                    "name": "C3",
                    "midi": 48,
                    "time": 161.5,
                    "velocity": 0.5039370078740157,
                    "duration": 0.49166666666667425
                },
                {
                    "name": "F2",
                    "midi": 41,
                    "time": 162,
                    "velocity": 0.5039370078740157,
                    "duration": 0.49166666666667425
                },
                {
                    "name": "F3",
                    "midi": 53,
                    "time": 162.5,
                    "velocity": 0.5039370078740157,
                    "duration": 0.49166666666667425
                },
                {
                    "name": "A3",
                    "midi": 57,
                    "time": 163,
                    "velocity": 0.5039370078740157,
                    "duration": 0.49166666666667425
                },
                {
                    "name": "F3",
                    "midi": 53,
                    "time": 163.5,
                    "velocity": 0.5039370078740157,
                    "duration": 0.49166666666667425
                },
                {
                    "name": "D2",
                    "midi": 38,
                    "time": 164,
                    "velocity": 0.5039370078740157,
                    "duration": 0.49166666666667425
                },
                {
                    "name": "D3",
                    "midi": 50,
                    "time": 164.5,
                    "velocity": 0.5039370078740157,
                    "duration": 0.49166666666667425
                },
                {
                    "name": "F3",
                    "midi": 53,
                    "time": 165,
                    "velocity": 0.5039370078740157,
                    "duration": 0.49166666666667425
                },
                {
                    "name": "D3",
                    "midi": 50,
                    "time": 165.5,
                    "velocity": 0.5039370078740157,
                    "duration": 0.49166666666667425
                },
                {
                    "name": "G2",
                    "midi": 43,
                    "time": 166,
                    "velocity": 0.5039370078740157,
                    "duration": 0.49166666666667425
                },
                {
                    "name": "G3",
                    "midi": 55,
                    "time": 166.5,
                    "velocity": 0.5039370078740157,
                    "duration": 0.49166666666667425
                },
                {
                    "name": "B3",
                    "midi": 59,
                    "time": 167,
                    "velocity": 0.5039370078740157,
                    "duration": 0.49166666666667425
                },
                {
                    "name": "G3",
                    "midi": 55,
                    "time": 167.5,
                    "velocity": 0.5039370078740157,
                    "duration": 0.49166666666667425
                },
                {
                    "name": "E2",
                    "midi": 40,
                    "time": 168,
                    "velocity": 0.5039370078740157,
                    "duration": 0.49166666666667425
                },
                {
                    "name": "E3",
                    "midi": 52,
                    "time": 168.5,
                    "velocity": 0.5039370078740157,
                    "duration": 0.49166666666667425
                },
                {
                    "name": "G3",
                    "midi": 55,
                    "time": 169,
                    "velocity": 0.5039370078740157,
                    "duration": 0.49166666666667425
                },
                {
                    "name": "E3",
                    "midi": 52,
                    "time": 169.5,
                    "velocity": 0.5039370078740157,
                    "duration": 0.49166666666667425
                },
                {
                    "name": "F2",
                    "midi": 41,
                    "time": 170,
                    "velocity": 0.5039370078740157,
                    "duration": 0.49166666666667425
                },
                {
                    "name": "F3",
                    "midi": 53,
                    "time": 170.5,
                    "velocity": 0.5039370078740157,
                    "duration": 0.49166666666667425
                },
                {
                    "name": "A3",
                    "midi": 57,
                    "time": 171,
                    "velocity": 0.5039370078740157,
                    "duration": 0.49166666666667425
                },
                {
                    "name": "F3",
                    "midi": 53,
                    "time": 171.5,
                    "velocity": 0.5039370078740157,
                    "duration": 0.49166666666667425
                },
                {
                    "name": "G2",
                    "midi": 43,
                    "time": 172,
                    "velocity": 0.5039370078740157,
                    "duration": 0.9916666666666742
                },
                {
                    "name": "G1",
                    "midi": 31,
                    "time": 172,
                    "velocity": 0.5039370078740157,
                    "duration": 0.9916666666666742
                },
                {
                    "name": "C2",
                    "midi": 36,
                    "time": 174,
                    "velocity": 0.5039370078740157,
                    "duration": 0.49166666666667425
                },
                {
                    "name": "D2",
                    "midi": 38,
                    "time": 174.5,
                    "velocity": 0.5039370078740157,
                    "duration": 0.24166666666667425
                },
                {
                    "name": "E2",
                    "midi": 40,
                    "time": 174.75,
                    "velocity": 0.5039370078740157,
                    "duration": 0.24166666666667425
                },
                {
                    "name": "F2",
                    "midi": 41,
                    "time": 175,
                    "velocity": 0.5039370078740157,
                    "duration": 0.24166666666667425
                },
                {
                    "name": "G2",
                    "midi": 43,
                    "time": 175.25,
                    "velocity": 0.5039370078740157,
                    "duration": 0.24166666666667425
                },
                {
                    "name": "A2",
                    "midi": 45,
                    "time": 175.5,
                    "velocity": 0.5039370078740157,
                    "duration": 0.24166666666667425
                },
                {
                    "name": "B2",
                    "midi": 47,
                    "time": 175.75,
                    "velocity": 0.5039370078740157,
                    "duration": 0.24166666666667425
                },
                {
                    "name": "C3",
                    "midi": 48,
                    "time": 176,
                    "velocity": 0.5039370078740157,
                    "duration": 0.49166666666667425
                },
                {
                    "name": "D3",
                    "midi": 50,
                    "time": 176.5,
                    "velocity": 0.5039370078740157,
                    "duration": 0.49166666666667425
                },
                {
                    "name": "E3",
                    "midi": 52,
                    "time": 177,
                    "velocity": 0.5039370078740157,
                    "duration": 0.49166666666667425
                },
                {
                    "name": "C3",
                    "midi": 48,
                    "time": 177.5,
                    "velocity": 0.5039370078740157,
                    "duration": 0.49166666666667425
                },
                {
                    "name": "G3",
                    "midi": 55,
                    "time": 178,
                    "velocity": 0.5039370078740157,
                    "duration": 0.49166666666667425
                },
                {
                    "name": "G2",
                    "midi": 43,
                    "time": 178.5,
                    "velocity": 0.5039370078740157,
                    "duration": 0.49166666666667425
                },
                {
                    "name": "G#2",
                    "midi": 44,
                    "time": 179,
                    "velocity": 0.5039370078740157,
                    "duration": 0.49166666666667425
                },
                {
                    "name": "G#2",
                    "midi": 44,
                    "time": 179,
                    "velocity": 0.5039370078740157,
                    "duration": 0.9916666666666742
                },
                {
                    "name": "E3",
                    "midi": 52,
                    "time": 179.5,
                    "velocity": 0.5039370078740157,
                    "duration": 0.49166666666667425
                },
                {
                    "name": "A2",
                    "midi": 45,
                    "time": 180,
                    "velocity": 0.5039370078740157,
                    "duration": 1.9916666666666742
                },
                {
                    "name": "C3",
                    "midi": 48,
                    "time": 180.5,
                    "velocity": 0.5039370078740157,
                    "duration": 0.49166666666667425
                },
                {
                    "name": "E3",
                    "midi": 52,
                    "time": 181,
                    "velocity": 0.5039370078740157,
                    "duration": 0.49166666666667425
                },
                {
                    "name": "A3",
                    "midi": 57,
                    "time": 181.5,
                    "velocity": 0.5039370078740157,
                    "duration": 0.49166666666667425
                },
                {
                    "name": "E2",
                    "midi": 40,
                    "time": 182,
                    "velocity": 0.5039370078740157,
                    "duration": 0.9916666666666742
                },
                {
                    "name": "E3",
                    "midi": 52,
                    "time": 183,
                    "velocity": 0.5039370078740157,
                    "duration": 0.49166666666667425
                },
                {
                    "name": "D3",
                    "midi": 50,
                    "time": 183.5,
                    "velocity": 0.5039370078740157,
                    "duration": 0.07499999999998863
                },
                {
                    "name": "C3",
                    "midi": 48,
                    "time": 183.58333333333331,
                    "velocity": 0.5039370078740157,
                    "duration": 0.07499999999998863
                },
                {
                    "name": "D3",
                    "midi": 50,
                    "time": 183.66666666666663,
                    "velocity": 0.5039370078740157,
                    "duration": 0.32499999999998863
                },
                {
                    "name": "C3",
                    "midi": 48,
                    "time": 183.99999999999994,
                    "velocity": 0.5039370078740157,
                    "duration": 1.4916666666666742
                },
                {
                    "name": "E3",
                    "midi": 52,
                    "time": 184.49999999999994,
                    "velocity": 0.5039370078740157,
                    "duration": 0.49166666666667425
                },
                {
                    "name": "A3",
                    "midi": 57,
                    "time": 184.99999999999994,
                    "velocity": 0.5039370078740157,
                    "duration": 0.9916666666666742
                },
                {
                    "name": "A2",
                    "midi": 45,
                    "time": 185.49999999999994,
                    "velocity": 0.5039370078740157,
                    "duration": 0.49166666666667425
                },
                {
                    "name": "D3",
                    "midi": 50,
                    "time": 185.99999999999994,
                    "velocity": 0.5039370078740157,
                    "duration": 0.49166666666667425
                },
                {
                    "name": "E3",
                    "midi": 52,
                    "time": 186.49999999999994,
                    "velocity": 0.5039370078740157,
                    "duration": 0.49166666666667425
                },
                {
                    "name": "F3",
                    "midi": 53,
                    "time": 186.99999999999994,
                    "velocity": 0.5039370078740157,
                    "duration": 0.49166666666667425
                },
                {
                    "name": "D3",
                    "midi": 50,
                    "time": 187.49999999999994,
                    "velocity": 0.5039370078740157,
                    "duration": 0.07499999999998863
                },
                {
                    "name": "C3",
                    "midi": 48,
                    "time": 187.58333333333326,
                    "velocity": 0.5039370078740157,
                    "duration": 0.07499999999998863
                },
                {
                    "name": "D3",
                    "midi": 50,
                    "time": 187.66666666666657,
                    "velocity": 0.5039370078740157,
                    "duration": 0.15833333333333144
                },
                {
                    "name": "C3",
                    "midi": 48,
                    "time": 187.83333333333323,
                    "velocity": 0.5039370078740157,
                    "duration": 0.07499999999998863
                },
                {
                    "name": "D3",
                    "midi": 50,
                    "time": 187.91666666666654,
                    "velocity": 0.5039370078740157,
                    "duration": 0.07499999999998863
                },
                {
                    "name": "E3",
                    "midi": 52,
                    "time": 187.99999999999986,
                    "velocity": 0.5039370078740157,
                    "duration": 1.9916666666666742
                },
                {
                    "name": "E2",
                    "midi": 40,
                    "time": 188.99999999999986,
                    "velocity": 0.5039370078740157,
                    "duration": 0.9916666666666742
                },
                {
                    "name": "A2",
                    "midi": 45,
                    "time": 189.99999999999986,
                    "velocity": 0.5039370078740157,
                    "duration": 0.07499999999998863
                },
                {
                    "name": "G2",
                    "midi": 43,
                    "time": 190.08333333333317,
                    "velocity": 0.5039370078740157,
                    "duration": 0.07499999999998863
                },
                {
                    "name": "A2",
                    "midi": 45,
                    "time": 190.1666666666665,
                    "velocity": 0.5039370078740157,
                    "duration": 1.825000000000017
                },
                {
                    "name": "A1",
                    "midi": 33,
                    "time": 190.99999999999983,
                    "velocity": 0.5039370078740157,
                    "duration": 0.9916666666666742
                },
                {
                    "name": "A2",
                    "midi": 45,
                    "time": 191.99999999999983,
                    "velocity": 0.5039370078740157,
                    "duration": 0.24166666666667425
                },
                {
                    "name": "B2",
                    "midi": 47,
                    "time": 192.24999999999983,
                    "velocity": 0.5039370078740157,
                    "duration": 0.24166666666667425
                },
                {
                    "name": "C3",
                    "midi": 48,
                    "time": 192.49999999999983,
                    "velocity": 0.5039370078740157,
                    "duration": 0.24166666666667425
                },
                {
                    "name": "D3",
                    "midi": 50,
                    "time": 192.74999999999983,
                    "velocity": 0.5039370078740157,
                    "duration": 0.24166666666667425
                },
                {
                    "name": "E3",
                    "midi": 52,
                    "time": 192.99999999999983,
                    "velocity": 0.5039370078740157,
                    "duration": 0.24166666666667425
                },
                {
                    "name": "F#3",
                    "midi": 54,
                    "time": 193.24999999999983,
                    "velocity": 0.5039370078740157,
                    "duration": 0.24166666666667425
                },
                {
                    "name": "G#3",
                    "midi": 56,
                    "time": 193.49999999999983,
                    "velocity": 0.5039370078740157,
                    "duration": 0.24166666666667425
                },
                {
                    "name": "A3",
                    "midi": 57,
                    "time": 193.74999999999983,
                    "velocity": 0.5039370078740157,
                    "duration": 0.24166666666667425
                },
                {
                    "name": "D3",
                    "midi": 50,
                    "time": 193.99999999999983,
                    "velocity": 0.5039370078740157,
                    "duration": 0.24166666666667425
                },
                {
                    "name": "E3",
                    "midi": 52,
                    "time": 194.24999999999983,
                    "velocity": 0.5039370078740157,
                    "duration": 0.24166666666667425
                },
                {
                    "name": "F3",
                    "midi": 53,
                    "time": 194.49999999999983,
                    "velocity": 0.5039370078740157,
                    "duration": 0.24166666666667425
                },
                {
                    "name": "G3",
                    "midi": 55,
                    "time": 194.74999999999983,
                    "velocity": 0.5039370078740157,
                    "duration": 0.24166666666667425
                },
                {
                    "name": "A3",
                    "midi": 57,
                    "time": 194.99999999999983,
                    "velocity": 0.5039370078740157,
                    "duration": 0.24166666666667425
                },
                {
                    "name": "B3",
                    "midi": 59,
                    "time": 195.24999999999983,
                    "velocity": 0.5039370078740157,
                    "duration": 0.24166666666667425
                },
                {
                    "name": "C4",
                    "midi": 60,
                    "time": 195.49999999999983,
                    "velocity": 0.5039370078740157,
                    "duration": 0.24166666666667425
                },
                {
                    "name": "D4",
                    "midi": 62,
                    "time": 195.74999999999983,
                    "velocity": 0.5039370078740157,
                    "duration": 0.24166666666667425
                },
                {
                    "name": "E3",
                    "midi": 52,
                    "time": 195.99999999999983,
                    "velocity": 0.5039370078740157,
                    "duration": 0.24166666666667425
                },
                {
                    "name": "F#3",
                    "midi": 54,
                    "time": 196.24999999999983,
                    "velocity": 0.5039370078740157,
                    "duration": 0.24166666666667425
                },
                {
                    "name": "G#3",
                    "midi": 56,
                    "time": 196.49999999999983,
                    "velocity": 0.5039370078740157,
                    "duration": 0.24166666666667425
                },
                {
                    "name": "A3",
                    "midi": 57,
                    "time": 196.74999999999983,
                    "velocity": 0.5039370078740157,
                    "duration": 0.24166666666667425
                },
                {
                    "name": "B3",
                    "midi": 59,
                    "time": 196.99999999999983,
                    "velocity": 0.5039370078740157,
                    "duration": 0.24166666666667425
                },
                {
                    "name": "C4",
                    "midi": 60,
                    "time": 197.24999999999983,
                    "velocity": 0.5039370078740157,
                    "duration": 0.24166666666667425
                },
                {
                    "name": "D4",
                    "midi": 62,
                    "time": 197.49999999999983,
                    "velocity": 0.5039370078740157,
                    "duration": 0.24166666666667425
                },
                {
                    "name": "E4",
                    "midi": 64,
                    "time": 197.74999999999983,
                    "velocity": 0.5039370078740157,
                    "duration": 0.24166666666667425
                },
                {
                    "name": "A3",
                    "midi": 57,
                    "time": 197.99999999999983,
                    "velocity": 0.5039370078740157,
                    "duration": 0.49166666666667425
                },
                {
                    "name": "G3",
                    "midi": 55,
                    "time": 198.49999999999983,
                    "velocity": 0.5039370078740157,
                    "duration": 0.07499999999998863
                },
                {
                    "name": "A3",
                    "midi": 57,
                    "time": 198.58333333333314,
                    "velocity": 0.5039370078740157,
                    "duration": 0.07499999999998863
                },
                {
                    "name": "G3",
                    "midi": 55,
                    "time": 198.66666666666646,
                    "velocity": 0.5039370078740157,
                    "duration": 0.07499999999998863
                },
                {
                    "name": "F3",
                    "midi": 53,
                    "time": 198.74999999999977,
                    "velocity": 0.5039370078740157,
                    "duration": 0.24166666666667425
                },
                {
                    "name": "E3",
                    "midi": 52,
                    "time": 198.99999999999977,
                    "velocity": 0.5039370078740157,
                    "duration": 0.24166666666667425
                },
                {
                    "name": "D3",
                    "midi": 50,
                    "time": 199.24999999999977,
                    "velocity": 0.5039370078740157,
                    "duration": 0.24166666666667425
                },
                {
                    "name": "C3",
                    "midi": 48,
                    "time": 199.49999999999977,
                    "velocity": 0.5039370078740157,
                    "duration": 0.24166666666667425
                },
                {
                    "name": "B2",
                    "midi": 47,
                    "time": 199.74999999999977,
                    "velocity": 0.5039370078740157,
                    "duration": 0.24166666666667425
                },
                {
                    "name": "A2",
                    "midi": 45,
                    "time": 199.99999999999977,
                    "velocity": 0.5039370078740157,
                    "duration": 0.24166666666667425
                },
                {
                    "name": "E3",
                    "midi": 52,
                    "time": 200.24999999999977,
                    "velocity": 0.5039370078740157,
                    "duration": 0.24166666666667425
                },
                {
                    "name": "A2",
                    "midi": 45,
                    "time": 200.49999999999977,
                    "velocity": 0.5039370078740157,
                    "duration": 0.24166666666667425
                },
                {
                    "name": "E3",
                    "midi": 52,
                    "time": 200.74999999999977,
                    "velocity": 0.5039370078740157,
                    "duration": 0.24166666666667425
                },
                {
                    "name": "G#2",
                    "midi": 44,
                    "time": 200.99999999999977,
                    "velocity": 0.5039370078740157,
                    "duration": 0.24166666666667425
                },
                {
                    "name": "E3",
                    "midi": 52,
                    "time": 201.24999999999977,
                    "velocity": 0.5039370078740157,
                    "duration": 0.24166666666667425
                },
                {
                    "name": "G#2",
                    "midi": 44,
                    "time": 201.49999999999977,
                    "velocity": 0.5039370078740157,
                    "duration": 0.24166666666667425
                },
                {
                    "name": "E3",
                    "midi": 52,
                    "time": 201.74999999999977,
                    "velocity": 0.5039370078740157,
                    "duration": 0.24166666666667425
                },
                {
                    "name": "A2",
                    "midi": 45,
                    "time": 201.99999999999977,
                    "velocity": 0.5039370078740157,
                    "duration": 0.24166666666667425
                },
                {
                    "name": "B2",
                    "midi": 47,
                    "time": 202.24999999999977,
                    "velocity": 0.5039370078740157,
                    "duration": 0.24166666666667425
                },
                {
                    "name": "C3",
                    "midi": 48,
                    "time": 202.49999999999977,
                    "velocity": 0.5039370078740157,
                    "duration": 0.24166666666667425
                },
                {
                    "name": "D3",
                    "midi": 50,
                    "time": 202.74999999999977,
                    "velocity": 0.5039370078740157,
                    "duration": 0.24166666666667425
                },
                {
                    "name": "E3",
                    "midi": 52,
                    "time": 202.99999999999977,
                    "velocity": 0.5039370078740157,
                    "duration": 0.24166666666667425
                },
                {
                    "name": "F#3",
                    "midi": 54,
                    "time": 203.24999999999977,
                    "velocity": 0.5039370078740157,
                    "duration": 0.24166666666667425
                },
                {
                    "name": "G#3",
                    "midi": 56,
                    "time": 203.49999999999977,
                    "velocity": 0.5039370078740157,
                    "duration": 0.24166666666667425
                },
                {
                    "name": "A3",
                    "midi": 57,
                    "time": 203.74999999999977,
                    "velocity": 0.5039370078740157,
                    "duration": 0.24166666666667425
                },
                {
                    "name": "D2",
                    "midi": 38,
                    "time": 203.99999999999977,
                    "velocity": 0.5039370078740157,
                    "duration": 0.24166666666667425
                },
                {
                    "name": "E2",
                    "midi": 40,
                    "time": 204.24999999999977,
                    "velocity": 0.5039370078740157,
                    "duration": 0.24166666666667425
                },
                {
                    "name": "F2",
                    "midi": 41,
                    "time": 204.49999999999977,
                    "velocity": 0.5039370078740157,
                    "duration": 0.24166666666667425
                },
                {
                    "name": "G2",
                    "midi": 43,
                    "time": 204.74999999999977,
                    "velocity": 0.5039370078740157,
                    "duration": 0.24166666666667425
                },
                {
                    "name": "A2",
                    "midi": 45,
                    "time": 204.99999999999977,
                    "velocity": 0.5039370078740157,
                    "duration": 0.24166666666667425
                },
                {
                    "name": "B2",
                    "midi": 47,
                    "time": 205.24999999999977,
                    "velocity": 0.5039370078740157,
                    "duration": 0.24166666666667425
                },
                {
                    "name": "C3",
                    "midi": 48,
                    "time": 205.49999999999977,
                    "velocity": 0.5039370078740157,
                    "duration": 0.24166666666667425
                },
                {
                    "name": "D3",
                    "midi": 50,
                    "time": 205.74999999999977,
                    "velocity": 0.5039370078740157,
                    "duration": 0.24166666666667425
                },
                {
                    "name": "E2",
                    "midi": 40,
                    "time": 205.99999999999977,
                    "velocity": 0.5039370078740157,
                    "duration": 0.24166666666667425
                },
                {
                    "name": "F#2",
                    "midi": 42,
                    "time": 206.24999999999977,
                    "velocity": 0.5039370078740157,
                    "duration": 0.24166666666667425
                },
                {
                    "name": "G#2",
                    "midi": 44,
                    "time": 206.49999999999977,
                    "velocity": 0.5039370078740157,
                    "duration": 0.24166666666667425
                },
                {
                    "name": "A2",
                    "midi": 45,
                    "time": 206.74999999999977,
                    "velocity": 0.5039370078740157,
                    "duration": 0.24166666666667425
                },
                {
                    "name": "B2",
                    "midi": 47,
                    "time": 206.99999999999977,
                    "velocity": 0.5039370078740157,
                    "duration": 0.24166666666667425
                },
                {
                    "name": "C3",
                    "midi": 48,
                    "time": 207.24999999999977,
                    "velocity": 0.5039370078740157,
                    "duration": 0.24166666666667425
                },
                {
                    "name": "D3",
                    "midi": 50,
                    "time": 207.49999999999977,
                    "velocity": 0.5039370078740157,
                    "duration": 0.24166666666667425
                },
                {
                    "name": "E3",
                    "midi": 52,
                    "time": 207.74999999999977,
                    "velocity": 0.5039370078740157,
                    "duration": 0.24166666666667425
                },
                {
                    "name": "A2",
                    "midi": 45,
                    "time": 207.99999999999977,
                    "velocity": 0.5039370078740157,
                    "duration": 0.24166666666667425
                },
                {
                    "name": "B2",
                    "midi": 47,
                    "time": 208.24999999999977,
                    "velocity": 0.5039370078740157,
                    "duration": 0.24166666666667425
                },
                {
                    "name": "C3",
                    "midi": 48,
                    "time": 208.49999999999977,
                    "velocity": 0.5039370078740157,
                    "duration": 0.24166666666667425
                },
                {
                    "name": "D3",
                    "midi": 50,
                    "time": 208.74999999999977,
                    "velocity": 0.5039370078740157,
                    "duration": 0.24166666666667425
                },
                {
                    "name": "E3",
                    "midi": 52,
                    "time": 208.99999999999977,
                    "velocity": 0.5039370078740157,
                    "duration": 0.24166666666667425
                },
                {
                    "name": "F#3",
                    "midi": 54,
                    "time": 209.24999999999977,
                    "velocity": 0.5039370078740157,
                    "duration": 0.24166666666667425
                },
                {
                    "name": "G#3",
                    "midi": 56,
                    "time": 209.49999999999977,
                    "velocity": 0.5039370078740157,
                    "duration": 0.24166666666667425
                },
                {
                    "name": "A3",
                    "midi": 57,
                    "time": 209.74999999999977,
                    "velocity": 0.5039370078740157,
                    "duration": 0.24166666666667425
                },
                {
                    "name": "D3",
                    "midi": 50,
                    "time": 209.99999999999977,
                    "velocity": 0.5039370078740157,
                    "duration": 0.24166666666667425
                },
                {
                    "name": "E3",
                    "midi": 52,
                    "time": 210.24999999999977,
                    "velocity": 0.5039370078740157,
                    "duration": 0.24166666666667425
                },
                {
                    "name": "F3",
                    "midi": 53,
                    "time": 210.49999999999977,
                    "velocity": 0.5039370078740157,
                    "duration": 0.24166666666667425
                },
                {
                    "name": "G3",
                    "midi": 55,
                    "time": 210.74999999999977,
                    "velocity": 0.5039370078740157,
                    "duration": 0.24166666666667425
                },
                {
                    "name": "A3",
                    "midi": 57,
                    "time": 210.99999999999977,
                    "velocity": 0.5039370078740157,
                    "duration": 0.24166666666667425
                },
                {
                    "name": "B3",
                    "midi": 59,
                    "time": 211.24999999999977,
                    "velocity": 0.5039370078740157,
                    "duration": 0.24166666666667425
                },
                {
                    "name": "C4",
                    "midi": 60,
                    "time": 211.49999999999977,
                    "velocity": 0.5039370078740157,
                    "duration": 0.24166666666667425
                },
                {
                    "name": "D4",
                    "midi": 62,
                    "time": 211.74999999999977,
                    "velocity": 0.5039370078740157,
                    "duration": 0.24166666666667425
                },
                {
                    "name": "E3",
                    "midi": 52,
                    "time": 211.99999999999977,
                    "velocity": 0.5039370078740157,
                    "duration": 0.24166666666667425
                },
                {
                    "name": "F#3",
                    "midi": 54,
                    "time": 212.24999999999977,
                    "velocity": 0.5039370078740157,
                    "duration": 0.24166666666667425
                },
                {
                    "name": "G#3",
                    "midi": 56,
                    "time": 212.49999999999977,
                    "velocity": 0.5039370078740157,
                    "duration": 0.24166666666667425
                },
                {
                    "name": "A3",
                    "midi": 57,
                    "time": 212.74999999999977,
                    "velocity": 0.5039370078740157,
                    "duration": 0.24166666666667425
                },
                {
                    "name": "B3",
                    "midi": 59,
                    "time": 212.99999999999977,
                    "velocity": 0.5039370078740157,
                    "duration": 0.24166666666667425
                },
                {
                    "name": "C4",
                    "midi": 60,
                    "time": 213.24999999999977,
                    "velocity": 0.5039370078740157,
                    "duration": 0.24166666666667425
                },
                {
                    "name": "D4",
                    "midi": 62,
                    "time": 213.49999999999977,
                    "velocity": 0.5039370078740157,
                    "duration": 0.24166666666667425
                },
                {
                    "name": "E4",
                    "midi": 64,
                    "time": 213.74999999999977,
                    "velocity": 0.5039370078740157,
                    "duration": 0.24166666666667425
                },
                {
                    "name": "A3",
                    "midi": 57,
                    "time": 213.99999999999977,
                    "velocity": 0.5039370078740157,
                    "duration": 0.49166666666667425
                },
                {
                    "name": "G3",
                    "midi": 55,
                    "time": 214.49999999999977,
                    "velocity": 0.5039370078740157,
                    "duration": 0.07499999999998863
                },
                {
                    "name": "A3",
                    "midi": 57,
                    "time": 214.5833333333331,
                    "velocity": 0.5039370078740157,
                    "duration": 0.07499999999998863
                },
                {
                    "name": "G3",
                    "midi": 55,
                    "time": 214.6666666666664,
                    "velocity": 0.5039370078740157,
                    "duration": 0.07499999999998863
                },
                {
                    "name": "F3",
                    "midi": 53,
                    "time": 214.74999999999972,
                    "velocity": 0.5039370078740157,
                    "duration": 0.24166666666667425
                },
                {
                    "name": "E3",
                    "midi": 52,
                    "time": 214.99999999999972,
                    "velocity": 0.5039370078740157,
                    "duration": 0.24166666666667425
                },
                {
                    "name": "D3",
                    "midi": 50,
                    "time": 215.24999999999972,
                    "velocity": 0.5039370078740157,
                    "duration": 0.24166666666667425
                },
                {
                    "name": "C3",
                    "midi": 48,
                    "time": 215.49999999999972,
                    "velocity": 0.5039370078740157,
                    "duration": 0.24166666666667425
                },
                {
                    "name": "B2",
                    "midi": 47,
                    "time": 215.74999999999972,
                    "velocity": 0.5039370078740157,
                    "duration": 0.24166666666667425
                },
                {
                    "name": "A2",
                    "midi": 45,
                    "time": 215.99999999999972,
                    "velocity": 0.5039370078740157,
                    "duration": 0.24166666666667425
                },
                {
                    "name": "E3",
                    "midi": 52,
                    "time": 216.24999999999972,
                    "velocity": 0.5039370078740157,
                    "duration": 0.24166666666667425
                },
                {
                    "name": "A2",
                    "midi": 45,
                    "time": 216.49999999999972,
                    "velocity": 0.5039370078740157,
                    "duration": 0.24166666666667425
                },
                {
                    "name": "E3",
                    "midi": 52,
                    "time": 216.74999999999972,
                    "velocity": 0.5039370078740157,
                    "duration": 0.24166666666667425
                },
                {
                    "name": "G#2",
                    "midi": 44,
                    "time": 216.99999999999972,
                    "velocity": 0.5039370078740157,
                    "duration": 0.24166666666667425
                },
                {
                    "name": "E3",
                    "midi": 52,
                    "time": 217.24999999999972,
                    "velocity": 0.5039370078740157,
                    "duration": 0.24166666666667425
                },
                {
                    "name": "G#2",
                    "midi": 44,
                    "time": 217.49999999999972,
                    "velocity": 0.5039370078740157,
                    "duration": 0.24166666666667425
                },
                {
                    "name": "E3",
                    "midi": 52,
                    "time": 217.74999999999972,
                    "velocity": 0.5039370078740157,
                    "duration": 0.24166666666667425
                },
                {
                    "name": "A2",
                    "midi": 45,
                    "time": 217.99999999999972,
                    "velocity": 0.5039370078740157,
                    "duration": 0.24166666666667425
                },
                {
                    "name": "B2",
                    "midi": 47,
                    "time": 218.24999999999972,
                    "velocity": 0.5039370078740157,
                    "duration": 0.24166666666667425
                },
                {
                    "name": "C3",
                    "midi": 48,
                    "time": 218.49999999999972,
                    "velocity": 0.5039370078740157,
                    "duration": 0.24166666666667425
                },
                {
                    "name": "D3",
                    "midi": 50,
                    "time": 218.74999999999972,
                    "velocity": 0.5039370078740157,
                    "duration": 0.24166666666667425
                },
                {
                    "name": "E3",
                    "midi": 52,
                    "time": 218.99999999999972,
                    "velocity": 0.5039370078740157,
                    "duration": 0.24166666666667425
                },
                {
                    "name": "F#3",
                    "midi": 54,
                    "time": 219.24999999999972,
                    "velocity": 0.5039370078740157,
                    "duration": 0.24166666666667425
                },
                {
                    "name": "G#3",
                    "midi": 56,
                    "time": 219.49999999999972,
                    "velocity": 0.5039370078740157,
                    "duration": 0.24166666666667425
                },
                {
                    "name": "A3",
                    "midi": 57,
                    "time": 219.74999999999972,
                    "velocity": 0.5039370078740157,
                    "duration": 0.24166666666667425
                },
                {
                    "name": "D2",
                    "midi": 38,
                    "time": 219.99999999999972,
                    "velocity": 0.5039370078740157,
                    "duration": 0.24166666666667425
                },
                {
                    "name": "E2",
                    "midi": 40,
                    "time": 220.24999999999972,
                    "velocity": 0.5039370078740157,
                    "duration": 0.24166666666667425
                },
                {
                    "name": "F2",
                    "midi": 41,
                    "time": 220.49999999999972,
                    "velocity": 0.5039370078740157,
                    "duration": 0.24166666666667425
                },
                {
                    "name": "G2",
                    "midi": 43,
                    "time": 220.74999999999972,
                    "velocity": 0.5039370078740157,
                    "duration": 0.24166666666667425
                },
                {
                    "name": "A2",
                    "midi": 45,
                    "time": 220.99999999999972,
                    "velocity": 0.5039370078740157,
                    "duration": 0.24166666666667425
                },
                {
                    "name": "B2",
                    "midi": 47,
                    "time": 221.24999999999972,
                    "velocity": 0.5039370078740157,
                    "duration": 0.24166666666667425
                },
                {
                    "name": "C3",
                    "midi": 48,
                    "time": 221.49999999999972,
                    "velocity": 0.5039370078740157,
                    "duration": 0.24166666666667425
                },
                {
                    "name": "D3",
                    "midi": 50,
                    "time": 221.74999999999972,
                    "velocity": 0.5039370078740157,
                    "duration": 0.24166666666667425
                },
                {
                    "name": "E2",
                    "midi": 40,
                    "time": 221.99999999999972,
                    "velocity": 0.5039370078740157,
                    "duration": 0.24166666666667425
                },
                {
                    "name": "F#2",
                    "midi": 42,
                    "time": 222.24999999999972,
                    "velocity": 0.5039370078740157,
                    "duration": 0.24166666666667425
                },
                {
                    "name": "G#2",
                    "midi": 44,
                    "time": 222.49999999999972,
                    "velocity": 0.5039370078740157,
                    "duration": 0.24166666666667425
                },
                {
                    "name": "A2",
                    "midi": 45,
                    "time": 222.74999999999972,
                    "velocity": 0.5039370078740157,
                    "duration": 0.24166666666667425
                },
                {
                    "name": "B2",
                    "midi": 47,
                    "time": 222.99999999999972,
                    "velocity": 0.5039370078740157,
                    "duration": 0.24166666666667425
                },
                {
                    "name": "C3",
                    "midi": 48,
                    "time": 223.24999999999972,
                    "velocity": 0.5039370078740157,
                    "duration": 0.24166666666667425
                },
                {
                    "name": "D3",
                    "midi": 50,
                    "time": 223.49999999999972,
                    "velocity": 0.5039370078740157,
                    "duration": 0.24166666666667425
                },
                {
                    "name": "E3",
                    "midi": 52,
                    "time": 223.74999999999972,
                    "velocity": 0.5039370078740157,
                    "duration": 0.24166666666667425
                },
                {
                    "name": "C3",
                    "midi": 48,
                    "time": 223.99999999999972,
                    "velocity": 0.5039370078740157,
                    "duration": 0.24166666666667425
                },
                {
                    "name": "D3",
                    "midi": 50,
                    "time": 224.24999999999972,
                    "velocity": 0.5039370078740157,
                    "duration": 0.24166666666667425
                },
                {
                    "name": "E3",
                    "midi": 52,
                    "time": 224.49999999999972,
                    "velocity": 0.5039370078740157,
                    "duration": 0.24166666666667425
                },
                {
                    "name": "F3",
                    "midi": 53,
                    "time": 224.74999999999972,
                    "velocity": 0.5039370078740157,
                    "duration": 0.24166666666667425
                },
                {
                    "name": "G3",
                    "midi": 55,
                    "time": 224.99999999999972,
                    "velocity": 0.5039370078740157,
                    "duration": 0.24166666666667425
                },
                {
                    "name": "A3",
                    "midi": 57,
                    "time": 225.24999999999972,
                    "velocity": 0.5039370078740157,
                    "duration": 0.24166666666667425
                },
                {
                    "name": "B3",
                    "midi": 59,
                    "time": 225.49999999999972,
                    "velocity": 0.5039370078740157,
                    "duration": 0.24166666666667425
                },
                {
                    "name": "C4",
                    "midi": 60,
                    "time": 225.74999999999972,
                    "velocity": 0.5039370078740157,
                    "duration": 0.24166666666667425
                },
                {
                    "name": "F3",
                    "midi": 53,
                    "time": 225.99999999999972,
                    "velocity": 0.5039370078740157,
                    "duration": 0.24166666666667425
                },
                {
                    "name": "G3",
                    "midi": 55,
                    "time": 226.24999999999972,
                    "velocity": 0.5039370078740157,
                    "duration": 0.24166666666667425
                },
                {
                    "name": "A3",
                    "midi": 57,
                    "time": 226.49999999999972,
                    "velocity": 0.5039370078740157,
                    "duration": 0.24166666666667425
                },
                {
                    "name": "B3",
                    "midi": 59,
                    "time": 226.74999999999972,
                    "velocity": 0.5039370078740157,
                    "duration": 0.24166666666667425
                },
                {
                    "name": "C4",
                    "midi": 60,
                    "time": 226.99999999999972,
                    "velocity": 0.5039370078740157,
                    "duration": 0.24166666666667425
                },
                {
                    "name": "D4",
                    "midi": 62,
                    "time": 227.24999999999972,
                    "velocity": 0.5039370078740157,
                    "duration": 0.24166666666667425
                },
                {
                    "name": "E4",
                    "midi": 64,
                    "time": 227.49999999999972,
                    "velocity": 0.5039370078740157,
                    "duration": 0.24166666666667425
                },
                {
                    "name": "F4",
                    "midi": 65,
                    "time": 227.74999999999972,
                    "velocity": 0.5039370078740157,
                    "duration": 0.24166666666667425
                },
                {
                    "name": "D3",
                    "midi": 50,
                    "time": 227.99999999999972,
                    "velocity": 0.5039370078740157,
                    "duration": 0.24166666666667425
                },
                {
                    "name": "E3",
                    "midi": 52,
                    "time": 228.24999999999972,
                    "velocity": 0.5039370078740157,
                    "duration": 0.24166666666667425
                },
                {
                    "name": "F3",
                    "midi": 53,
                    "time": 228.49999999999972,
                    "velocity": 0.5039370078740157,
                    "duration": 0.24166666666667425
                },
                {
                    "name": "G3",
                    "midi": 55,
                    "time": 228.74999999999972,
                    "velocity": 0.5039370078740157,
                    "duration": 0.24166666666667425
                },
                {
                    "name": "A3",
                    "midi": 57,
                    "time": 228.99999999999972,
                    "velocity": 0.5039370078740157,
                    "duration": 0.24166666666667425
                },
                {
                    "name": "B3",
                    "midi": 59,
                    "time": 229.24999999999972,
                    "velocity": 0.5039370078740157,
                    "duration": 0.24166666666667425
                },
                {
                    "name": "C4",
                    "midi": 60,
                    "time": 229.49999999999972,
                    "velocity": 0.5039370078740157,
                    "duration": 0.24166666666667425
                },
                {
                    "name": "D4",
                    "midi": 62,
                    "time": 229.74999999999972,
                    "velocity": 0.5039370078740157,
                    "duration": 0.24166666666667425
                },
                {
                    "name": "G3",
                    "midi": 55,
                    "time": 229.99999999999972,
                    "velocity": 0.5039370078740157,
                    "duration": 0.24166666666667425
                },
                {
                    "name": "A3",
                    "midi": 57,
                    "time": 230.24999999999972,
                    "velocity": 0.5039370078740157,
                    "duration": 0.24166666666667425
                },
                {
                    "name": "B3",
                    "midi": 59,
                    "time": 230.49999999999972,
                    "velocity": 0.5039370078740157,
                    "duration": 0.24166666666667425
                },
                {
                    "name": "C4",
                    "midi": 60,
                    "time": 230.74999999999972,
                    "velocity": 0.5039370078740157,
                    "duration": 0.24166666666667425
                },
                {
                    "name": "D4",
                    "midi": 62,
                    "time": 230.99999999999972,
                    "velocity": 0.5039370078740157,
                    "duration": 0.24166666666667425
                },
                {
                    "name": "E4",
                    "midi": 64,
                    "time": 231.24999999999972,
                    "velocity": 0.5039370078740157,
                    "duration": 0.24166666666667425
                },
                {
                    "name": "F4",
                    "midi": 65,
                    "time": 231.49999999999972,
                    "velocity": 0.5039370078740157,
                    "duration": 0.24166666666667425
                },
                {
                    "name": "G4",
                    "midi": 67,
                    "time": 231.74999999999972,
                    "velocity": 0.5039370078740157,
                    "duration": 0.24166666666667425
                },
                {
                    "name": "E3",
                    "midi": 52,
                    "time": 231.99999999999972,
                    "velocity": 0.5039370078740157,
                    "duration": 0.24166666666667425
                },
                {
                    "name": "F3",
                    "midi": 53,
                    "time": 232.24999999999972,
                    "velocity": 0.5039370078740157,
                    "duration": 0.24166666666667425
                },
                {
                    "name": "G3",
                    "midi": 55,
                    "time": 232.49999999999972,
                    "velocity": 0.5039370078740157,
                    "duration": 0.24166666666667425
                },
                {
                    "name": "A3",
                    "midi": 57,
                    "time": 232.74999999999972,
                    "velocity": 0.5039370078740157,
                    "duration": 0.24166666666667425
                },
                {
                    "name": "B3",
                    "midi": 59,
                    "time": 232.99999999999972,
                    "velocity": 0.5039370078740157,
                    "duration": 0.24166666666667425
                },
                {
                    "name": "C4",
                    "midi": 60,
                    "time": 233.24999999999972,
                    "velocity": 0.5039370078740157,
                    "duration": 0.24166666666667425
                },
                {
                    "name": "D4",
                    "midi": 62,
                    "time": 233.49999999999972,
                    "velocity": 0.5039370078740157,
                    "duration": 0.24166666666667425
                },
                {
                    "name": "E4",
                    "midi": 64,
                    "time": 233.74999999999972,
                    "velocity": 0.5039370078740157,
                    "duration": 0.24166666666667425
                },
                {
                    "name": "F3",
                    "midi": 53,
                    "time": 233.99999999999972,
                    "velocity": 0.5039370078740157,
                    "duration": 0.24166666666667425
                },
                {
                    "name": "G3",
                    "midi": 55,
                    "time": 234.24999999999972,
                    "velocity": 0.5039370078740157,
                    "duration": 0.24166666666667425
                },
                {
                    "name": "A3",
                    "midi": 57,
                    "time": 234.49999999999972,
                    "velocity": 0.5039370078740157,
                    "duration": 0.24166666666667425
                },
                {
                    "name": "B3",
                    "midi": 59,
                    "time": 234.74999999999972,
                    "velocity": 0.5039370078740157,
                    "duration": 0.24166666666667425
                },
                {
                    "name": "C4",
                    "midi": 60,
                    "time": 234.99999999999972,
                    "velocity": 0.5039370078740157,
                    "duration": 0.24166666666667425
                },
                {
                    "name": "D4",
                    "midi": 62,
                    "time": 235.24999999999972,
                    "velocity": 0.5039370078740157,
                    "duration": 0.24166666666667425
                },
                {
                    "name": "E4",
                    "midi": 64,
                    "time": 235.49999999999972,
                    "velocity": 0.5039370078740157,
                    "duration": 0.24166666666667425
                },
                {
                    "name": "F4",
                    "midi": 65,
                    "time": 235.74999999999972,
                    "velocity": 0.5039370078740157,
                    "duration": 0.24166666666667425
                },
                {
                    "name": "G3",
                    "midi": 55,
                    "time": 235.99999999999972,
                    "velocity": 0.5039370078740157,
                    "duration": 0.24166666666667425
                },
                {
                    "name": "A3",
                    "midi": 57,
                    "time": 236.24999999999972,
                    "velocity": 0.5039370078740157,
                    "duration": 0.24166666666667425
                },
                {
                    "name": "B3",
                    "midi": 59,
                    "time": 236.49999999999972,
                    "velocity": 0.5039370078740157,
                    "duration": 0.24166666666667425
                },
                {
                    "name": "C4",
                    "midi": 60,
                    "time": 236.74999999999972,
                    "velocity": 0.5039370078740157,
                    "duration": 0.24166666666667425
                },
                {
                    "name": "D4",
                    "midi": 62,
                    "time": 236.99999999999972,
                    "velocity": 0.5039370078740157,
                    "duration": 0.24166666666667425
                },
                {
                    "name": "E4",
                    "midi": 64,
                    "time": 237.24999999999972,
                    "velocity": 0.5039370078740157,
                    "duration": 0.24166666666667425
                },
                {
                    "name": "F4",
                    "midi": 65,
                    "time": 237.49999999999972,
                    "velocity": 0.5039370078740157,
                    "duration": 0.24166666666667425
                },
                {
                    "name": "G4",
                    "midi": 67,
                    "time": 237.74999999999972,
                    "velocity": 0.5039370078740157,
                    "duration": 0.24166666666667425
                },
                {
                    "name": "C4",
                    "midi": 60,
                    "time": 237.99999999999972,
                    "velocity": 0.5039370078740157,
                    "duration": 0.49166666666667425
                },
                {
                    "name": "B3",
                    "midi": 59,
                    "time": 238.49999999999972,
                    "velocity": 0.5039370078740157,
                    "duration": 0.07499999999998863
                },
                {
                    "name": "A3",
                    "midi": 57,
                    "time": 238.58333333333303,
                    "velocity": 0.5039370078740157,
                    "duration": 0.07499999999998863
                },
                {
                    "name": "B3",
                    "midi": 59,
                    "time": 238.66666666666634,
                    "velocity": 0.5039370078740157,
                    "duration": 0.07499999999998863
                },
                {
                    "name": "A3",
                    "midi": 57,
                    "time": 238.74999999999966,
                    "velocity": 0.5039370078740157,
                    "duration": 0.24166666666667425
                },
                {
                    "name": "G3",
                    "midi": 55,
                    "time": 238.99999999999966,
                    "velocity": 0.5039370078740157,
                    "duration": 0.24166666666667425
                },
                {
                    "name": "F3",
                    "midi": 53,
                    "time": 239.24999999999966,
                    "velocity": 0.5039370078740157,
                    "duration": 0.24166666666667425
                },
                {
                    "name": "E3",
                    "midi": 52,
                    "time": 239.49999999999966,
                    "velocity": 0.5039370078740157,
                    "duration": 0.24166666666667425
                },
                {
                    "name": "D3",
                    "midi": 50,
                    "time": 239.74999999999966,
                    "velocity": 0.5039370078740157,
                    "duration": 0.24166666666667425
                },
                {
                    "name": "C3",
                    "midi": 48,
                    "time": 239.99999999999966,
                    "velocity": 0.5039370078740157,
                    "duration": 0.24166666666667425
                },
                {
                    "name": "D3",
                    "midi": 50,
                    "time": 240.24999999999966,
                    "velocity": 0.5039370078740157,
                    "duration": 0.24166666666667425
                },
                {
                    "name": "E3",
                    "midi": 52,
                    "time": 240.49999999999966,
                    "velocity": 0.5039370078740157,
                    "duration": 0.24166666666667425
                },
                {
                    "name": "F3",
                    "midi": 53,
                    "time": 240.74999999999966,
                    "velocity": 0.5039370078740157,
                    "duration": 0.24166666666667425
                },
                {
                    "name": "G3",
                    "midi": 55,
                    "time": 240.99999999999966,
                    "velocity": 0.5039370078740157,
                    "duration": 0.24166666666667425
                },
                {
                    "name": "A3",
                    "midi": 57,
                    "time": 241.24999999999966,
                    "velocity": 0.5039370078740157,
                    "duration": 0.24166666666667425
                },
                {
                    "name": "B3",
                    "midi": 59,
                    "time": 241.49999999999966,
                    "velocity": 0.5039370078740157,
                    "duration": 0.24166666666667425
                },
                {
                    "name": "C4",
                    "midi": 60,
                    "time": 241.74999999999966,
                    "velocity": 0.5039370078740157,
                    "duration": 0.24166666666667425
                },
                {
                    "name": "G3",
                    "midi": 55,
                    "time": 241.99999999999966,
                    "velocity": 0.5039370078740157,
                    "duration": 0.24166666666667425
                },
                {
                    "name": "F3",
                    "midi": 53,
                    "time": 242.24999999999966,
                    "velocity": 0.5039370078740157,
                    "duration": 0.24166666666667425
                },
                {
                    "name": "E3",
                    "midi": 52,
                    "time": 242.49999999999966,
                    "velocity": 0.5039370078740157,
                    "duration": 0.24166666666667425
                },
                {
                    "name": "D3",
                    "midi": 50,
                    "time": 242.74999999999966,
                    "velocity": 0.5039370078740157,
                    "duration": 0.24166666666667425
                },
                {
                    "name": "C3",
                    "midi": 48,
                    "time": 242.99999999999966,
                    "velocity": 0.5039370078740157,
                    "duration": 0.24166666666667425
                },
                {
                    "name": "B2",
                    "midi": 47,
                    "time": 243.24999999999966,
                    "velocity": 0.5039370078740157,
                    "duration": 0.24166666666667425
                },
                {
                    "name": "A2",
                    "midi": 45,
                    "time": 243.49999999999966,
                    "velocity": 0.5039370078740157,
                    "duration": 0.24166666666667425
                },
                {
                    "name": "G#2",
                    "midi": 44,
                    "time": 243.74999999999966,
                    "velocity": 0.5039370078740157,
                    "duration": 0.24166666666667425
                },
                {
                    "name": "A2",
                    "midi": 45,
                    "time": 243.99999999999966,
                    "velocity": 0.5039370078740157,
                    "duration": 0.24166666666667425
                },
                {
                    "name": "B2",
                    "midi": 47,
                    "time": 244.24999999999966,
                    "velocity": 0.5039370078740157,
                    "duration": 0.24166666666667425
                },
                {
                    "name": "C3",
                    "midi": 48,
                    "time": 244.49999999999966,
                    "velocity": 0.5039370078740157,
                    "duration": 0.24166666666667425
                },
                {
                    "name": "D3",
                    "midi": 50,
                    "time": 244.74999999999966,
                    "velocity": 0.5039370078740157,
                    "duration": 0.24166666666667425
                },
                {
                    "name": "E3",
                    "midi": 52,
                    "time": 244.99999999999966,
                    "velocity": 0.5039370078740157,
                    "duration": 0.24166666666667425
                },
                {
                    "name": "F3",
                    "midi": 53,
                    "time": 245.24999999999966,
                    "velocity": 0.5039370078740157,
                    "duration": 0.24166666666667425
                },
                {
                    "name": "G3",
                    "midi": 55,
                    "time": 245.49999999999966,
                    "velocity": 0.5039370078740157,
                    "duration": 0.24166666666667425
                },
                {
                    "name": "A3",
                    "midi": 57,
                    "time": 245.74999999999966,
                    "velocity": 0.5039370078740157,
                    "duration": 0.24166666666667425
                },
                {
                    "name": "E3",
                    "midi": 52,
                    "time": 245.99999999999966,
                    "velocity": 0.5039370078740157,
                    "duration": 0.24166666666667425
                },
                {
                    "name": "F#3",
                    "midi": 54,
                    "time": 246.24999999999966,
                    "velocity": 0.5039370078740157,
                    "duration": 0.24166666666667425
                },
                {
                    "name": "G#3",
                    "midi": 56,
                    "time": 246.49999999999966,
                    "velocity": 0.5039370078740157,
                    "duration": 0.24166666666667425
                },
                {
                    "name": "A3",
                    "midi": 57,
                    "time": 246.74999999999966,
                    "velocity": 0.5039370078740157,
                    "duration": 0.24166666666667425
                },
                {
                    "name": "B3",
                    "midi": 59,
                    "time": 246.99999999999966,
                    "velocity": 0.5039370078740157,
                    "duration": 0.24166666666667425
                },
                {
                    "name": "C4",
                    "midi": 60,
                    "time": 247.24999999999966,
                    "velocity": 0.5039370078740157,
                    "duration": 0.24166666666667425
                },
                {
                    "name": "D4",
                    "midi": 62,
                    "time": 247.49999999999966,
                    "velocity": 0.5039370078740157,
                    "duration": 0.24166666666667425
                },
                {
                    "name": "E4",
                    "midi": 64,
                    "time": 247.74999999999966,
                    "velocity": 0.5039370078740157,
                    "duration": 0.24166666666667425
                },
                {
                    "name": "C3",
                    "midi": 48,
                    "time": 247.99999999999966,
                    "velocity": 0.5039370078740157,
                    "duration": 0.24166666666667425
                },
                {
                    "name": "D3",
                    "midi": 50,
                    "time": 248.24999999999966,
                    "velocity": 0.5039370078740157,
                    "duration": 0.24166666666667425
                },
                {
                    "name": "E3",
                    "midi": 52,
                    "time": 248.49999999999966,
                    "velocity": 0.5039370078740157,
                    "duration": 0.24166666666667425
                },
                {
                    "name": "F3",
                    "midi": 53,
                    "time": 248.74999999999966,
                    "velocity": 0.5039370078740157,
                    "duration": 0.24166666666667425
                },
                {
                    "name": "G3",
                    "midi": 55,
                    "time": 248.99999999999966,
                    "velocity": 0.5039370078740157,
                    "duration": 0.24166666666667425
                },
                {
                    "name": "A3",
                    "midi": 57,
                    "time": 249.24999999999966,
                    "velocity": 0.5039370078740157,
                    "duration": 0.24166666666667425
                },
                {
                    "name": "B3",
                    "midi": 59,
                    "time": 249.49999999999966,
                    "velocity": 0.5039370078740157,
                    "duration": 0.24166666666667425
                },
                {
                    "name": "C4",
                    "midi": 60,
                    "time": 249.74999999999966,
                    "velocity": 0.5039370078740157,
                    "duration": 0.24166666666667425
                },
                {
                    "name": "D3",
                    "midi": 50,
                    "time": 249.99999999999966,
                    "velocity": 0.5039370078740157,
                    "duration": 0.24166666666667425
                },
                {
                    "name": "E3",
                    "midi": 52,
                    "time": 250.24999999999966,
                    "velocity": 0.5039370078740157,
                    "duration": 0.24166666666667425
                },
                {
                    "name": "D3",
                    "midi": 50,
                    "time": 250.49999999999966,
                    "velocity": 0.5039370078740157,
                    "duration": 0.24166666666667425
                },
                {
                    "name": "E3",
                    "midi": 52,
                    "time": 250.74999999999966,
                    "velocity": 0.5039370078740157,
                    "duration": 0.24166666666667425
                },
                {
                    "name": "F3",
                    "midi": 53,
                    "time": 250.99999999999966,
                    "velocity": 0.5039370078740157,
                    "duration": 0.24166666666667425
                },
                {
                    "name": "E3",
                    "midi": 52,
                    "time": 251.24999999999966,
                    "velocity": 0.5039370078740157,
                    "duration": 0.24166666666667425
                },
                {
                    "name": "F3",
                    "midi": 53,
                    "time": 251.49999999999966,
                    "velocity": 0.5039370078740157,
                    "duration": 0.24166666666667425
                },
                {
                    "name": "C3",
                    "midi": 48,
                    "time": 251.74999999999966,
                    "velocity": 0.5039370078740157,
                    "duration": 0.24166666666667425
                },
                {
                    "name": "D3",
                    "midi": 50,
                    "time": 251.99999999999966,
                    "velocity": 0.5039370078740157,
                    "duration": 0.24166666666667425
                },
                {
                    "name": "C3",
                    "midi": 48,
                    "time": 252.24999999999966,
                    "velocity": 0.5039370078740157,
                    "duration": 0.24166666666667425
                },
                {
                    "name": "D3",
                    "midi": 50,
                    "time": 252.49999999999966,
                    "velocity": 0.5039370078740157,
                    "duration": 0.24166666666667425
                },
                {
                    "name": "B2",
                    "midi": 47,
                    "time": 252.74999999999966,
                    "velocity": 0.5039370078740157,
                    "duration": 0.24166666666667425
                },
                {
                    "name": "E3",
                    "midi": 52,
                    "time": 252.99999999999966,
                    "velocity": 0.5039370078740157,
                    "duration": 0.24166666666667425
                },
                {
                    "name": "D3",
                    "midi": 50,
                    "time": 253.24999999999966,
                    "velocity": 0.5039370078740157,
                    "duration": 0.24166666666667425
                },
                {
                    "name": "E3",
                    "midi": 52,
                    "time": 253.49999999999966,
                    "velocity": 0.5039370078740157,
                    "duration": 0.24166666666667425
                },
                {
                    "name": "E2",
                    "midi": 40,
                    "time": 253.74999999999966,
                    "velocity": 0.5039370078740157,
                    "duration": 0.24166666666667425
                },
                {
                    "name": "A2",
                    "midi": 45,
                    "time": 253.99999999999966,
                    "velocity": 0.5039370078740157,
                    "duration": 0.24166666666667425
                },
                {
                    "name": "C4",
                    "midi": 60,
                    "time": 254.24999999999966,
                    "velocity": 0.5039370078740157,
                    "duration": 0.24166666666667425
                },
                {
                    "name": "B3",
                    "midi": 59,
                    "time": 254.49999999999966,
                    "velocity": 0.5039370078740157,
                    "duration": 0.24166666666667425
                },
                {
                    "name": "A3",
                    "midi": 57,
                    "time": 254.74999999999966,
                    "velocity": 0.5039370078740157,
                    "duration": 0.24166666666667425
                },
                {
                    "name": "G3",
                    "midi": 55,
                    "time": 254.99999999999966,
                    "velocity": 0.5039370078740157,
                    "duration": 0.24166666666667425
                },
                {
                    "name": "F3",
                    "midi": 53,
                    "time": 255.24999999999966,
                    "velocity": 0.5039370078740157,
                    "duration": 0.24166666666667425
                },
                {
                    "name": "E3",
                    "midi": 52,
                    "time": 255.49999999999966,
                    "velocity": 0.5039370078740157,
                    "duration": 0.24166666666667425
                },
                {
                    "name": "D3",
                    "midi": 50,
                    "time": 255.74999999999966,
                    "velocity": 0.5039370078740157,
                    "duration": 0.24166666666667425
                },
                {
                    "name": "C3",
                    "midi": 48,
                    "time": 255.99999999999966,
                    "velocity": 0.5039370078740157,
                    "duration": 0.24166666666667425
                },
                {
                    "name": "D3",
                    "midi": 50,
                    "time": 256.24999999999966,
                    "velocity": 0.5039370078740157,
                    "duration": 0.24166666666667425
                },
                {
                    "name": "E3",
                    "midi": 52,
                    "time": 256.49999999999966,
                    "velocity": 0.5039370078740157,
                    "duration": 0.24166666666667425
                },
                {
                    "name": "F3",
                    "midi": 53,
                    "time": 256.74999999999966,
                    "velocity": 0.5039370078740157,
                    "duration": 0.24166666666667425
                },
                {
                    "name": "G3",
                    "midi": 55,
                    "time": 256.99999999999966,
                    "velocity": 0.5039370078740157,
                    "duration": 0.24166666666667425
                },
                {
                    "name": "A3",
                    "midi": 57,
                    "time": 257.24999999999966,
                    "velocity": 0.5039370078740157,
                    "duration": 0.24166666666667425
                },
                {
                    "name": "B3",
                    "midi": 59,
                    "time": 257.49999999999966,
                    "velocity": 0.5039370078740157,
                    "duration": 0.24166666666667425
                },
                {
                    "name": "C4",
                    "midi": 60,
                    "time": 257.74999999999966,
                    "velocity": 0.5039370078740157,
                    "duration": 0.24166666666667425
                },
                {
                    "name": "F3",
                    "midi": 53,
                    "time": 257.99999999999966,
                    "velocity": 0.5039370078740157,
                    "duration": 0.24166666666667425
                },
                {
                    "name": "G3",
                    "midi": 55,
                    "time": 258.24999999999966,
                    "velocity": 0.5039370078740157,
                    "duration": 0.24166666666667425
                },
                {
                    "name": "A3",
                    "midi": 57,
                    "time": 258.49999999999966,
                    "velocity": 0.5039370078740157,
                    "duration": 0.24166666666667425
                },
                {
                    "name": "B3",
                    "midi": 59,
                    "time": 258.74999999999966,
                    "velocity": 0.5039370078740157,
                    "duration": 0.24166666666667425
                },
                {
                    "name": "C4",
                    "midi": 60,
                    "time": 258.99999999999966,
                    "velocity": 0.5039370078740157,
                    "duration": 0.24166666666667425
                },
                {
                    "name": "D4",
                    "midi": 62,
                    "time": 259.24999999999966,
                    "velocity": 0.5039370078740157,
                    "duration": 0.24166666666667425
                },
                {
                    "name": "E4",
                    "midi": 64,
                    "time": 259.49999999999966,
                    "velocity": 0.5039370078740157,
                    "duration": 0.24166666666667425
                },
                {
                    "name": "F4",
                    "midi": 65,
                    "time": 259.74999999999966,
                    "velocity": 0.5039370078740157,
                    "duration": 0.24166666666667425
                },
                {
                    "name": "D3",
                    "midi": 50,
                    "time": 259.99999999999966,
                    "velocity": 0.5039370078740157,
                    "duration": 0.24166666666667425
                },
                {
                    "name": "E3",
                    "midi": 52,
                    "time": 260.24999999999966,
                    "velocity": 0.5039370078740157,
                    "duration": 0.24166666666667425
                },
                {
                    "name": "F3",
                    "midi": 53,
                    "time": 260.49999999999966,
                    "velocity": 0.5039370078740157,
                    "duration": 0.24166666666667425
                },
                {
                    "name": "G3",
                    "midi": 55,
                    "time": 260.74999999999966,
                    "velocity": 0.5039370078740157,
                    "duration": 0.24166666666667425
                },
                {
                    "name": "A3",
                    "midi": 57,
                    "time": 260.99999999999966,
                    "velocity": 0.5039370078740157,
                    "duration": 0.24166666666667425
                },
                {
                    "name": "B3",
                    "midi": 59,
                    "time": 261.24999999999966,
                    "velocity": 0.5039370078740157,
                    "duration": 0.24166666666667425
                },
                {
                    "name": "C4",
                    "midi": 60,
                    "time": 261.49999999999966,
                    "velocity": 0.5039370078740157,
                    "duration": 0.24166666666667425
                },
                {
                    "name": "D4",
                    "midi": 62,
                    "time": 261.74999999999966,
                    "velocity": 0.5039370078740157,
                    "duration": 0.24166666666667425
                },
                {
                    "name": "G3",
                    "midi": 55,
                    "time": 261.99999999999966,
                    "velocity": 0.5039370078740157,
                    "duration": 0.24166666666667425
                },
                {
                    "name": "A3",
                    "midi": 57,
                    "time": 262.24999999999966,
                    "velocity": 0.5039370078740157,
                    "duration": 0.24166666666667425
                },
                {
                    "name": "B3",
                    "midi": 59,
                    "time": 262.49999999999966,
                    "velocity": 0.5039370078740157,
                    "duration": 0.24166666666667425
                },
                {
                    "name": "C4",
                    "midi": 60,
                    "time": 262.74999999999966,
                    "velocity": 0.5039370078740157,
                    "duration": 0.24166666666667425
                },
                {
                    "name": "D4",
                    "midi": 62,
                    "time": 262.99999999999966,
                    "velocity": 0.5039370078740157,
                    "duration": 0.24166666666667425
                },
                {
                    "name": "E4",
                    "midi": 64,
                    "time": 263.24999999999966,
                    "velocity": 0.5039370078740157,
                    "duration": 0.24166666666667425
                },
                {
                    "name": "F4",
                    "midi": 65,
                    "time": 263.49999999999966,
                    "velocity": 0.5039370078740157,
                    "duration": 0.24166666666667425
                },
                {
                    "name": "G4",
                    "midi": 67,
                    "time": 263.74999999999966,
                    "velocity": 0.5039370078740157,
                    "duration": 0.24166666666667425
                },
                {
                    "name": "E3",
                    "midi": 52,
                    "time": 263.99999999999966,
                    "velocity": 0.5039370078740157,
                    "duration": 0.24166666666667425
                },
                {
                    "name": "F3",
                    "midi": 53,
                    "time": 264.24999999999966,
                    "velocity": 0.5039370078740157,
                    "duration": 0.24166666666667425
                },
                {
                    "name": "G3",
                    "midi": 55,
                    "time": 264.49999999999966,
                    "velocity": 0.5039370078740157,
                    "duration": 0.24166666666667425
                },
                {
                    "name": "A3",
                    "midi": 57,
                    "time": 264.74999999999966,
                    "velocity": 0.5039370078740157,
                    "duration": 0.24166666666667425
                },
                {
                    "name": "B3",
                    "midi": 59,
                    "time": 264.99999999999966,
                    "velocity": 0.5039370078740157,
                    "duration": 0.24166666666667425
                },
                {
                    "name": "C4",
                    "midi": 60,
                    "time": 265.24999999999966,
                    "velocity": 0.5039370078740157,
                    "duration": 0.24166666666667425
                },
                {
                    "name": "D4",
                    "midi": 62,
                    "time": 265.49999999999966,
                    "velocity": 0.5039370078740157,
                    "duration": 0.24166666666667425
                },
                {
                    "name": "E4",
                    "midi": 64,
                    "time": 265.74999999999966,
                    "velocity": 0.5039370078740157,
                    "duration": 0.24166666666667425
                },
                {
                    "name": "F3",
                    "midi": 53,
                    "time": 265.99999999999966,
                    "velocity": 0.5039370078740157,
                    "duration": 0.24166666666667425
                },
                {
                    "name": "G3",
                    "midi": 55,
                    "time": 266.24999999999966,
                    "velocity": 0.5039370078740157,
                    "duration": 0.24166666666667425
                },
                {
                    "name": "A3",
                    "midi": 57,
                    "time": 266.49999999999966,
                    "velocity": 0.5039370078740157,
                    "duration": 0.24166666666667425
                },
                {
                    "name": "B3",
                    "midi": 59,
                    "time": 266.74999999999966,
                    "velocity": 0.5039370078740157,
                    "duration": 0.24166666666667425
                },
                {
                    "name": "C4",
                    "midi": 60,
                    "time": 266.99999999999966,
                    "velocity": 0.5039370078740157,
                    "duration": 0.24166666666667425
                },
                {
                    "name": "D4",
                    "midi": 62,
                    "time": 267.24999999999966,
                    "velocity": 0.5039370078740157,
                    "duration": 0.24166666666667425
                },
                {
                    "name": "E4",
                    "midi": 64,
                    "time": 267.49999999999966,
                    "velocity": 0.5039370078740157,
                    "duration": 0.24166666666667425
                },
                {
                    "name": "F4",
                    "midi": 65,
                    "time": 267.74999999999966,
                    "velocity": 0.5039370078740157,
                    "duration": 0.24166666666667425
                },
                {
                    "name": "G3",
                    "midi": 55,
                    "time": 267.99999999999966,
                    "velocity": 0.5039370078740157,
                    "duration": 0.24166666666667425
                },
                {
                    "name": "A3",
                    "midi": 57,
                    "time": 268.24999999999966,
                    "velocity": 0.5039370078740157,
                    "duration": 0.24166666666667425
                },
                {
                    "name": "B3",
                    "midi": 59,
                    "time": 268.49999999999966,
                    "velocity": 0.5039370078740157,
                    "duration": 0.24166666666667425
                },
                {
                    "name": "C4",
                    "midi": 60,
                    "time": 268.74999999999966,
                    "velocity": 0.5039370078740157,
                    "duration": 0.24166666666667425
                },
                {
                    "name": "D4",
                    "midi": 62,
                    "time": 268.99999999999966,
                    "velocity": 0.5039370078740157,
                    "duration": 0.24166666666667425
                },
                {
                    "name": "E4",
                    "midi": 64,
                    "time": 269.24999999999966,
                    "velocity": 0.5039370078740157,
                    "duration": 0.24166666666667425
                },
                {
                    "name": "F4",
                    "midi": 65,
                    "time": 269.49999999999966,
                    "velocity": 0.5039370078740157,
                    "duration": 0.24166666666667425
                },
                {
                    "name": "G4",
                    "midi": 67,
                    "time": 269.74999999999966,
                    "velocity": 0.5039370078740157,
                    "duration": 0.24166666666667425
                },
                {
                    "name": "C4",
                    "midi": 60,
                    "time": 269.99999999999966,
                    "velocity": 0.5039370078740157,
                    "duration": 0.49166666666667425
                },
                {
                    "name": "B3",
                    "midi": 59,
                    "time": 270.49999999999966,
                    "velocity": 0.5039370078740157,
                    "duration": 0.07499999999998863
                },
                {
                    "name": "A3",
                    "midi": 57,
                    "time": 270.583333333333,
                    "velocity": 0.5039370078740157,
                    "duration": 0.07499999999998863
                },
                {
                    "name": "B3",
                    "midi": 59,
                    "time": 270.6666666666663,
                    "velocity": 0.5039370078740157,
                    "duration": 0.07499999999998863
                },
                {
                    "name": "A3",
                    "midi": 57,
                    "time": 270.7499999999996,
                    "velocity": 0.5039370078740157,
                    "duration": 0.24166666666667425
                },
                {
                    "name": "G3",
                    "midi": 55,
                    "time": 270.9999999999996,
                    "velocity": 0.5039370078740157,
                    "duration": 0.24166666666667425
                },
                {
                    "name": "F3",
                    "midi": 53,
                    "time": 271.2499999999996,
                    "velocity": 0.5039370078740157,
                    "duration": 0.24166666666667425
                },
                {
                    "name": "E3",
                    "midi": 52,
                    "time": 271.4999999999996,
                    "velocity": 0.5039370078740157,
                    "duration": 0.24166666666667425
                },
                {
                    "name": "D3",
                    "midi": 50,
                    "time": 271.7499999999996,
                    "velocity": 0.5039370078740157,
                    "duration": 0.24166666666667425
                },
                {
                    "name": "C3",
                    "midi": 48,
                    "time": 271.9999999999996,
                    "velocity": 0.5039370078740157,
                    "duration": 0.24166666666667425
                },
                {
                    "name": "D3",
                    "midi": 50,
                    "time": 272.2499999999996,
                    "velocity": 0.5039370078740157,
                    "duration": 0.24166666666667425
                },
                {
                    "name": "E3",
                    "midi": 52,
                    "time": 272.4999999999996,
                    "velocity": 0.5039370078740157,
                    "duration": 0.24166666666667425
                },
                {
                    "name": "F3",
                    "midi": 53,
                    "time": 272.7499999999996,
                    "velocity": 0.5039370078740157,
                    "duration": 0.24166666666667425
                },
                {
                    "name": "G3",
                    "midi": 55,
                    "time": 272.9999999999996,
                    "velocity": 0.5039370078740157,
                    "duration": 0.24166666666667425
                },
                {
                    "name": "A3",
                    "midi": 57,
                    "time": 273.2499999999996,
                    "velocity": 0.5039370078740157,
                    "duration": 0.24166666666667425
                },
                {
                    "name": "B3",
                    "midi": 59,
                    "time": 273.4999999999996,
                    "velocity": 0.5039370078740157,
                    "duration": 0.24166666666667425
                },
                {
                    "name": "C4",
                    "midi": 60,
                    "time": 273.7499999999996,
                    "velocity": 0.5039370078740157,
                    "duration": 0.24166666666667425
                },
                {
                    "name": "G3",
                    "midi": 55,
                    "time": 273.9999999999996,
                    "velocity": 0.5039370078740157,
                    "duration": 0.24166666666667425
                },
                {
                    "name": "F3",
                    "midi": 53,
                    "time": 274.2499999999996,
                    "velocity": 0.5039370078740157,
                    "duration": 0.24166666666667425
                },
                {
                    "name": "E3",
                    "midi": 52,
                    "time": 274.4999999999996,
                    "velocity": 0.5039370078740157,
                    "duration": 0.24166666666667425
                },
                {
                    "name": "D3",
                    "midi": 50,
                    "time": 274.7499999999996,
                    "velocity": 0.5039370078740157,
                    "duration": 0.24166666666667425
                },
                {
                    "name": "C3",
                    "midi": 48,
                    "time": 274.9999999999996,
                    "velocity": 0.5039370078740157,
                    "duration": 0.24166666666667425
                },
                {
                    "name": "B2",
                    "midi": 47,
                    "time": 275.2499999999996,
                    "velocity": 0.5039370078740157,
                    "duration": 0.24166666666667425
                },
                {
                    "name": "A2",
                    "midi": 45,
                    "time": 275.4999999999996,
                    "velocity": 0.5039370078740157,
                    "duration": 0.24166666666667425
                },
                {
                    "name": "G#2",
                    "midi": 44,
                    "time": 275.7499999999996,
                    "velocity": 0.5039370078740157,
                    "duration": 0.24166666666667425
                },
                {
                    "name": "A2",
                    "midi": 45,
                    "time": 275.9999999999996,
                    "velocity": 0.5039370078740157,
                    "duration": 0.24166666666667425
                },
                {
                    "name": "B2",
                    "midi": 47,
                    "time": 276.2499999999996,
                    "velocity": 0.5039370078740157,
                    "duration": 0.24166666666667425
                },
                {
                    "name": "C3",
                    "midi": 48,
                    "time": 276.4999999999996,
                    "velocity": 0.5039370078740157,
                    "duration": 0.24166666666667425
                },
                {
                    "name": "D3",
                    "midi": 50,
                    "time": 276.7499999999996,
                    "velocity": 0.5039370078740157,
                    "duration": 0.24166666666667425
                },
                {
                    "name": "E3",
                    "midi": 52,
                    "time": 276.9999999999996,
                    "velocity": 0.5039370078740157,
                    "duration": 0.24166666666667425
                },
                {
                    "name": "F3",
                    "midi": 53,
                    "time": 277.2499999999996,
                    "velocity": 0.5039370078740157,
                    "duration": 0.24166666666667425
                },
                {
                    "name": "G3",
                    "midi": 55,
                    "time": 277.4999999999996,
                    "velocity": 0.5039370078740157,
                    "duration": 0.24166666666667425
                },
                {
                    "name": "A3",
                    "midi": 57,
                    "time": 277.7499999999996,
                    "velocity": 0.5039370078740157,
                    "duration": 0.24166666666667425
                },
                {
                    "name": "E3",
                    "midi": 52,
                    "time": 277.9999999999996,
                    "velocity": 0.5039370078740157,
                    "duration": 0.24166666666667425
                },
                {
                    "name": "F#3",
                    "midi": 54,
                    "time": 278.2499999999996,
                    "velocity": 0.5039370078740157,
                    "duration": 0.24166666666667425
                },
                {
                    "name": "G#3",
                    "midi": 56,
                    "time": 278.4999999999996,
                    "velocity": 0.5039370078740157,
                    "duration": 0.24166666666667425
                },
                {
                    "name": "A3",
                    "midi": 57,
                    "time": 278.7499999999996,
                    "velocity": 0.5039370078740157,
                    "duration": 0.24166666666667425
                },
                {
                    "name": "B3",
                    "midi": 59,
                    "time": 278.9999999999996,
                    "velocity": 0.5039370078740157,
                    "duration": 0.24166666666667425
                },
                {
                    "name": "C4",
                    "midi": 60,
                    "time": 279.2499999999996,
                    "velocity": 0.5039370078740157,
                    "duration": 0.24166666666667425
                },
                {
                    "name": "D4",
                    "midi": 62,
                    "time": 279.4999999999996,
                    "velocity": 0.5039370078740157,
                    "duration": 0.24166666666667425
                },
                {
                    "name": "E4",
                    "midi": 64,
                    "time": 279.7499999999996,
                    "velocity": 0.5039370078740157,
                    "duration": 0.24166666666667425
                },
                {
                    "name": "C3",
                    "midi": 48,
                    "time": 279.9999999999996,
                    "velocity": 0.5039370078740157,
                    "duration": 0.24166666666667425
                },
                {
                    "name": "D3",
                    "midi": 50,
                    "time": 280.2499999999996,
                    "velocity": 0.5039370078740157,
                    "duration": 0.24166666666667425
                },
                {
                    "name": "E3",
                    "midi": 52,
                    "time": 280.4999999999996,
                    "velocity": 0.5039370078740157,
                    "duration": 0.24166666666667425
                },
                {
                    "name": "F3",
                    "midi": 53,
                    "time": 280.7499999999996,
                    "velocity": 0.5039370078740157,
                    "duration": 0.24166666666667425
                },
                {
                    "name": "G3",
                    "midi": 55,
                    "time": 280.9999999999996,
                    "velocity": 0.5039370078740157,
                    "duration": 0.24166666666667425
                },
                {
                    "name": "A3",
                    "midi": 57,
                    "time": 281.2499999999996,
                    "velocity": 0.5039370078740157,
                    "duration": 0.24166666666667425
                },
                {
                    "name": "B3",
                    "midi": 59,
                    "time": 281.4999999999996,
                    "velocity": 0.5039370078740157,
                    "duration": 0.24166666666667425
                },
                {
                    "name": "C4",
                    "midi": 60,
                    "time": 281.7499999999996,
                    "velocity": 0.5039370078740157,
                    "duration": 0.24166666666667425
                },
                {
                    "name": "D3",
                    "midi": 50,
                    "time": 281.9999999999996,
                    "velocity": 0.5039370078740157,
                    "duration": 0.24166666666667425
                },
                {
                    "name": "E3",
                    "midi": 52,
                    "time": 282.2499999999996,
                    "velocity": 0.5039370078740157,
                    "duration": 0.24166666666667425
                },
                {
                    "name": "D3",
                    "midi": 50,
                    "time": 282.4999999999996,
                    "velocity": 0.5039370078740157,
                    "duration": 0.24166666666667425
                },
                {
                    "name": "E3",
                    "midi": 52,
                    "time": 282.7499999999996,
                    "velocity": 0.5039370078740157,
                    "duration": 0.24166666666667425
                },
                {
                    "name": "F3",
                    "midi": 53,
                    "time": 282.9999999999996,
                    "velocity": 0.5039370078740157,
                    "duration": 0.24166666666667425
                },
                {
                    "name": "E3",
                    "midi": 52,
                    "time": 283.2499999999996,
                    "velocity": 0.5039370078740157,
                    "duration": 0.24166666666667425
                },
                {
                    "name": "F3",
                    "midi": 53,
                    "time": 283.4999999999996,
                    "velocity": 0.5039370078740157,
                    "duration": 0.24166666666667425
                },
                {
                    "name": "C3",
                    "midi": 48,
                    "time": 283.7499999999996,
                    "velocity": 0.5039370078740157,
                    "duration": 0.24166666666667425
                },
                {
                    "name": "D3",
                    "midi": 50,
                    "time": 283.9999999999996,
                    "velocity": 0.5039370078740157,
                    "duration": 0.24166666666667425
                },
                {
                    "name": "C3",
                    "midi": 48,
                    "time": 284.2499999999996,
                    "velocity": 0.5039370078740157,
                    "duration": 0.24166666666667425
                },
                {
                    "name": "D3",
                    "midi": 50,
                    "time": 284.4999999999996,
                    "velocity": 0.5039370078740157,
                    "duration": 0.24166666666667425
                },
                {
                    "name": "B2",
                    "midi": 47,
                    "time": 284.7499999999996,
                    "velocity": 0.5039370078740157,
                    "duration": 0.24166666666667425
                },
                {
                    "name": "E3",
                    "midi": 52,
                    "time": 284.9999999999996,
                    "velocity": 0.5039370078740157,
                    "duration": 0.24166666666667425
                },
                {
                    "name": "D3",
                    "midi": 50,
                    "time": 285.2499999999996,
                    "velocity": 0.5039370078740157,
                    "duration": 0.24166666666667425
                },
                {
                    "name": "E3",
                    "midi": 52,
                    "time": 285.4999999999996,
                    "velocity": 0.5039370078740157,
                    "duration": 0.24166666666667425
                },
                {
                    "name": "E2",
                    "midi": 40,
                    "time": 285.7499999999996,
                    "velocity": 0.5039370078740157,
                    "duration": 0.24166666666667425
                },
                {
                    "name": "A2",
                    "midi": 45,
                    "time": 285.9999999999996,
                    "velocity": 0.5039370078740157,
                    "duration": 0.07499999999998863
                },
                {
                    "name": "G#2",
                    "midi": 44,
                    "time": 286.0833333333329,
                    "velocity": 0.5039370078740157,
                    "duration": 0.07499999999998863
                },
                {
                    "name": "A2",
                    "midi": 45,
                    "time": 286.16666666666623,
                    "velocity": 0.5039370078740157,
                    "duration": 1.8249999999999886
                },
                {
                    "name": "A1",
                    "midi": 33,
                    "time": 286.99999999999955,
                    "velocity": 0.5039370078740157,
                    "duration": 0.9916666666666742
                },
                {
                    "name": "A2",
                    "midi": 45,
                    "time": 287.99999999999955,
                    "velocity": 0.5039370078740157,
                    "duration": 1.9916666666666742
                },
                {
                    "name": "A3",
                    "midi": 57,
                    "time": 288.99999999999955,
                    "velocity": 0.5039370078740157,
                    "duration": 0.9916666666666742
                },
                {
                    "name": "D3",
                    "midi": 50,
                    "time": 289.99999999999955,
                    "velocity": 0.5039370078740157,
                    "duration": 1.9916666666666742
                },
                {
                    "name": "D2",
                    "midi": 38,
                    "time": 290.99999999999955,
                    "velocity": 0.5039370078740157,
                    "duration": 0.9916666666666742
                },
                {
                    "name": "E2",
                    "midi": 40,
                    "time": 291.99999999999955,
                    "velocity": 0.5039370078740157,
                    "duration": 1.9916666666666742
                },
                {
                    "name": "E3",
                    "midi": 52,
                    "time": 292.99999999999955,
                    "velocity": 0.5039370078740157,
                    "duration": 0.9916666666666742
                },
                {
                    "name": "A2",
                    "midi": 45,
                    "time": 293.99999999999955,
                    "velocity": 0.5039370078740157,
                    "duration": 1.9916666666666742
                },
                {
                    "name": "A1",
                    "midi": 33,
                    "time": 294.99999999999955,
                    "velocity": 0.5039370078740157,
                    "duration": 0.9916666666666742
                },
                {
                    "name": "D2",
                    "midi": 38,
                    "time": 295.99999999999955,
                    "velocity": 0.5039370078740157,
                    "duration": 1.9916666666666742
                },
                {
                    "name": "D3",
                    "midi": 50,
                    "time": 296.99999999999955,
                    "velocity": 0.5039370078740157,
                    "duration": 0.9916666666666742
                },
                {
                    "name": "A2",
                    "midi": 45,
                    "time": 297.99999999999955,
                    "velocity": 0.5039370078740157,
                    "duration": 1.9916666666666742
                },
                {
                    "name": "A3",
                    "midi": 57,
                    "time": 298.99999999999955,
                    "velocity": 0.5039370078740157,
                    "duration": 0.9916666666666742
                },
                {
                    "name": "D3",
                    "midi": 50,
                    "time": 299.99999999999955,
                    "velocity": 0.5039370078740157,
                    "duration": 1.9916666666666742
                },
                {
                    "name": "D2",
                    "midi": 38,
                    "time": 300.99999999999955,
                    "velocity": 0.5039370078740157,
                    "duration": 0.9916666666666742
                },
                {
                    "name": "E2",
                    "midi": 40,
                    "time": 301.99999999999955,
                    "velocity": 0.5039370078740157,
                    "duration": 0.24166666666667425
                },
                {
                    "name": "A3",
                    "midi": 57,
                    "time": 302.24999999999955,
                    "velocity": 0.5039370078740157,
                    "duration": 0.24166666666667425
                },
                {
                    "name": "G#3",
                    "midi": 56,
                    "time": 302.49999999999955,
                    "velocity": 0.5039370078740157,
                    "duration": 0.24166666666667425
                },
                {
                    "name": "F#3",
                    "midi": 54,
                    "time": 302.74999999999955,
                    "velocity": 0.5039370078740157,
                    "duration": 0.24166666666667425
                },
                {
                    "name": "E3",
                    "midi": 52,
                    "time": 302.99999999999955,
                    "velocity": 0.5039370078740157,
                    "duration": 0.24166666666667425
                },
                {
                    "name": "D3",
                    "midi": 50,
                    "time": 303.24999999999955,
                    "velocity": 0.5039370078740157,
                    "duration": 0.24166666666667425
                },
                {
                    "name": "C3",
                    "midi": 48,
                    "time": 303.49999999999955,
                    "velocity": 0.5039370078740157,
                    "duration": 0.24166666666667425
                },
                {
                    "name": "B2",
                    "midi": 47,
                    "time": 303.74999999999955,
                    "velocity": 0.5039370078740157,
                    "duration": 0.24166666666667425
                },
                {
                    "name": "A2",
                    "midi": 45,
                    "time": 303.99999999999955,
                    "velocity": 0.5039370078740157,
                    "duration": 1.9916666666666742
                },
                {
                    "name": "A3",
                    "midi": 57,
                    "time": 304.99999999999955,
                    "velocity": 0.5039370078740157,
                    "duration": 0.9916666666666742
                },
                {
                    "name": "D3",
                    "midi": 50,
                    "time": 305.99999999999955,
                    "velocity": 0.5039370078740157,
                    "duration": 1.9916666666666742
                },
                {
                    "name": "D2",
                    "midi": 38,
                    "time": 306.99999999999955,
                    "velocity": 0.5039370078740157,
                    "duration": 0.9916666666666742
                },
                {
                    "name": "E2",
                    "midi": 40,
                    "time": 307.99999999999955,
                    "velocity": 0.5039370078740157,
                    "duration": 1.9916666666666742
                },
                {
                    "name": "E3",
                    "midi": 52,
                    "time": 308.99999999999955,
                    "velocity": 0.5039370078740157,
                    "duration": 0.9916666666666742
                },
                {
                    "name": "A2",
                    "midi": 45,
                    "time": 309.99999999999955,
                    "velocity": 0.5039370078740157,
                    "duration": 1.9916666666666742
                },
                {
                    "name": "A1",
                    "midi": 33,
                    "time": 310.99999999999955,
                    "velocity": 0.5039370078740157,
                    "duration": 0.9916666666666742
                },
                {
                    "name": "D2",
                    "midi": 38,
                    "time": 311.99999999999955,
                    "velocity": 0.5039370078740157,
                    "duration": 1.9916666666666742
                },
                {
                    "name": "D3",
                    "midi": 50,
                    "time": 312.99999999999955,
                    "velocity": 0.5039370078740157,
                    "duration": 0.9916666666666742
                },
                {
                    "name": "A2",
                    "midi": 45,
                    "time": 313.99999999999955,
                    "velocity": 0.5039370078740157,
                    "duration": 1.9916666666666742
                },
                {
                    "name": "A3",
                    "midi": 57,
                    "time": 314.99999999999955,
                    "velocity": 0.5039370078740157,
                    "duration": 0.9916666666666742
                },
                {
                    "name": "D3",
                    "midi": 50,
                    "time": 315.99999999999955,
                    "velocity": 0.5039370078740157,
                    "duration": 1.9916666666666742
                },
                {
                    "name": "D2",
                    "midi": 38,
                    "time": 316.99999999999955,
                    "velocity": 0.5039370078740157,
                    "duration": 0.9916666666666742
                },
                {
                    "name": "E2",
                    "midi": 40,
                    "time": 317.99999999999955,
                    "velocity": 0.5039370078740157,
                    "duration": 0.24166666666667425
                },
                {
                    "name": "A3",
                    "midi": 57,
                    "time": 318.24999999999955,
                    "velocity": 0.5039370078740157,
                    "duration": 0.24166666666667425
                },
                {
                    "name": "G#3",
                    "midi": 56,
                    "time": 318.49999999999955,
                    "velocity": 0.5039370078740157,
                    "duration": 0.24166666666667425
                },
                {
                    "name": "F#3",
                    "midi": 54,
                    "time": 318.74999999999955,
                    "velocity": 0.5039370078740157,
                    "duration": 0.24166666666667425
                },
                {
                    "name": "E3",
                    "midi": 52,
                    "time": 318.99999999999955,
                    "velocity": 0.5039370078740157,
                    "duration": 0.24166666666667425
                },
                {
                    "name": "D3",
                    "midi": 50,
                    "time": 319.24999999999955,
                    "velocity": 0.5039370078740157,
                    "duration": 0.24166666666667425
                },
                {
                    "name": "C3",
                    "midi": 48,
                    "time": 319.49999999999955,
                    "velocity": 0.5039370078740157,
                    "duration": 0.24166666666667425
                },
                {
                    "name": "B2",
                    "midi": 47,
                    "time": 319.74999999999955,
                    "velocity": 0.5039370078740157,
                    "duration": 0.24166666666667425
                },
                {
                    "name": "C3",
                    "midi": 48,
                    "time": 319.99999999999955,
                    "velocity": 0.5039370078740157,
                    "duration": 0.9916666666666742
                },
                {
                    "name": "E3",
                    "midi": 52,
                    "time": 320.99999999999955,
                    "velocity": 0.5039370078740157,
                    "duration": 0.9916666666666742
                },
                {
                    "name": "F3",
                    "midi": 53,
                    "time": 321.99999999999955,
                    "velocity": 0.5039370078740157,
                    "duration": 1.4916666666666742
                },
                {
                    "name": "E3",
                    "midi": 52,
                    "time": 323.49999999999955,
                    "velocity": 0.5039370078740157,
                    "duration": 0.49166666666667425
                },
                {
                    "name": "D3",
                    "midi": 50,
                    "time": 323.99999999999955,
                    "velocity": 0.5039370078740157,
                    "duration": 0.9916666666666742
                },
                {
                    "name": "B2",
                    "midi": 47,
                    "time": 324.99999999999955,
                    "velocity": 0.5039370078740157,
                    "duration": 0.49166666666667425
                },
                {
                    "name": "C3",
                    "midi": 48,
                    "time": 325.49999999999955,
                    "velocity": 0.5039370078740157,
                    "duration": 0.49166666666667425
                },
                {
                    "name": "G2",
                    "midi": 43,
                    "time": 325.99999999999955,
                    "velocity": 0.5039370078740157,
                    "duration": 0.9916666666666742
                },
                {
                    "name": "G3",
                    "midi": 55,
                    "time": 326.99999999999955,
                    "velocity": 0.5039370078740157,
                    "duration": 0.49166666666667425
                },
                {
                    "name": "F3",
                    "midi": 53,
                    "time": 327.49999999999955,
                    "velocity": 0.5039370078740157,
                    "duration": 0.49166666666667425
                },
                {
                    "name": "E3",
                    "midi": 52,
                    "time": 327.99999999999955,
                    "velocity": 0.5039370078740157,
                    "duration": 1.9916666666666742
                },
                {
                    "name": "E2",
                    "midi": 40,
                    "time": 328.99999999999955,
                    "velocity": 0.5039370078740157,
                    "duration": 0.9916666666666742
                },
                {
                    "name": "F2",
                    "midi": 41,
                    "time": 329.99999999999955,
                    "velocity": 0.5039370078740157,
                    "duration": 1.9916666666666742
                },
                {
                    "name": "F3",
                    "midi": 53,
                    "time": 330.99999999999955,
                    "velocity": 0.5039370078740157,
                    "duration": 0.9916666666666742
                },
                {
                    "name": "G3",
                    "midi": 55,
                    "time": 331.99999999999955,
                    "velocity": 0.5039370078740157,
                    "duration": 1.9916666666666742
                },
                {
                    "name": "G2",
                    "midi": 43,
                    "time": 332.99999999999955,
                    "velocity": 0.5039370078740157,
                    "duration": 0.9916666666666742
                },
                {
                    "name": "C3",
                    "midi": 48,
                    "time": 333.99999999999955,
                    "velocity": 0.5039370078740157,
                    "duration": 0.9916666666666742
                },
                {
                    "name": "G3",
                    "midi": 55,
                    "time": 335.24999999999955,
                    "velocity": 0.5039370078740157,
                    "duration": 0.24166666666667425
                },
                {
                    "name": "A3",
                    "midi": 57,
                    "time": 335.49999999999955,
                    "velocity": 0.5039370078740157,
                    "duration": 0.24166666666667425
                },
                {
                    "name": "B3",
                    "midi": 59,
                    "time": 335.74999999999955,
                    "velocity": 0.5039370078740157,
                    "duration": 0.24166666666667425
                },
                {
                    "name": "C4",
                    "midi": 60,
                    "time": 335.99999999999955,
                    "velocity": 0.5039370078740157,
                    "duration": 1.9916666666666742
                },
                {
                    "name": "C3",
                    "midi": 48,
                    "time": 336.99999999999955,
                    "velocity": 0.5039370078740157,
                    "duration": 0.9916666666666742
                },
                {
                    "name": "G3",
                    "midi": 55,
                    "time": 337.99999999999955,
                    "velocity": 0.5039370078740157,
                    "duration": 0.9916666666666742
                },
                {
                    "name": "G#3",
                    "midi": 56,
                    "time": 338.99999999999955,
                    "velocity": 0.5039370078740157,
                    "duration": 0.07499999999998863
                },
                {
                    "name": "A3",
                    "midi": 57,
                    "time": 339.08333333333286,
                    "velocity": 0.5039370078740157,
                    "duration": 0.07499999999998863
                },
                {
                    "name": "G#3",
                    "midi": 56,
                    "time": 339.1666666666662,
                    "velocity": 0.5039370078740157,
                    "duration": 0.07499999999998863
                },
                {
                    "name": "A3",
                    "midi": 57,
                    "time": 339.2499999999995,
                    "velocity": 0.5039370078740157,
                    "duration": 0.07499999999998863
                },
                {
                    "name": "G#3",
                    "midi": 56,
                    "time": 339.3333333333328,
                    "velocity": 0.5039370078740157,
                    "duration": 0.07499999999998863
                },
                {
                    "name": "A3",
                    "midi": 57,
                    "time": 339.4166666666661,
                    "velocity": 0.5039370078740157,
                    "duration": 0.07499999999998863
                },
                {
                    "name": "G#3",
                    "midi": 56,
                    "time": 339.49999999999943,
                    "velocity": 0.5039370078740157,
                    "duration": 0.24166666666667425
                },
                {
                    "name": "F#3",
                    "midi": 54,
                    "time": 339.74999999999943,
                    "velocity": 0.5039370078740157,
                    "duration": 0.11666666666667425
                },
                {
                    "name": "G#3",
                    "midi": 56,
                    "time": 339.87499999999943,
                    "velocity": 0.5039370078740157,
                    "duration": 0.11666666666667425
                },
                {
                    "name": "A3",
                    "midi": 57,
                    "time": 339.99999999999943,
                    "velocity": 0.5039370078740157,
                    "duration": 1.9916666666666742
                },
                {
                    "name": "A2",
                    "midi": 45,
                    "time": 340.99999999999943,
                    "velocity": 0.5039370078740157,
                    "duration": 0.9916666666666742
                },
                {
                    "name": "E3",
                    "midi": 52,
                    "time": 341.99999999999943,
                    "velocity": 0.5039370078740157,
                    "duration": 0.9916666666666742
                },
                {
                    "name": "E4",
                    "midi": 64,
                    "time": 342.99999999999943,
                    "velocity": 0.5039370078740157,
                    "duration": 0.49166666666667425
                },
                {
                    "name": "D4",
                    "midi": 62,
                    "time": 343.49999999999943,
                    "velocity": 0.5039370078740157,
                    "duration": 0.49166666666667425
                },
                {
                    "name": "C4",
                    "midi": 60,
                    "time": 343.99999999999943,
                    "velocity": 0.5039370078740157,
                    "duration": 1.4916666666666742
                },
                {
                    "name": "C3",
                    "midi": 48,
                    "time": 345.49999999999943,
                    "velocity": 0.5039370078740157,
                    "duration": 0.49166666666667425
                },
                {
                    "name": "D3",
                    "midi": 50,
                    "time": 345.99999999999943,
                    "velocity": 0.5039370078740157,
                    "duration": 0.49166666666667425
                },
                {
                    "name": "E3",
                    "midi": 52,
                    "time": 346.49999999999943,
                    "velocity": 0.5039370078740157,
                    "duration": 0.49166666666667425
                },
                {
                    "name": "F3",
                    "midi": 53,
                    "time": 346.99999999999943,
                    "velocity": 0.5039370078740157,
                    "duration": 0.49166666666667425
                },
                {
                    "name": "D3",
                    "midi": 50,
                    "time": 347.49999999999943,
                    "velocity": 0.5039370078740157,
                    "duration": 0.49166666666667425
                },
                {
                    "name": "E3",
                    "midi": 52,
                    "time": 347.99999999999943,
                    "velocity": 0.5039370078740157,
                    "duration": 1.9916666666666742
                },
                {
                    "name": "E2",
                    "midi": 40,
                    "time": 348.99999999999943,
                    "velocity": 0.5039370078740157,
                    "duration": 0.9916666666666742
                },
                {
                    "name": "A2",
                    "midi": 45,
                    "time": 349.99999999999943,
                    "velocity": 0.5039370078740157,
                    "duration": 0.9916666666666742
                },
                {
                    "name": "G#3",
                    "midi": 56,
                    "time": 351.24999999999943,
                    "velocity": 0.5039370078740157,
                    "duration": 0.24166666666667425
                },
                {
                    "name": "A3",
                    "midi": 57,
                    "time": 351.49999999999943,
                    "velocity": 0.5039370078740157,
                    "duration": 0.24166666666667425
                },
                {
                    "name": "B3",
                    "midi": 59,
                    "time": 351.74999999999943,
                    "velocity": 0.5039370078740157,
                    "duration": 0.24166666666667425
                },
                {
                    "name": "C4",
                    "midi": 60,
                    "time": 351.99999999999943,
                    "velocity": 0.5039370078740157,
                    "duration": 0.9916666666666742
                },
                {
                    "name": "E3",
                    "midi": 52,
                    "time": 352.99999999999943,
                    "velocity": 0.5039370078740157,
                    "duration": 0.9916666666666742
                },
                {
                    "name": "F3",
                    "midi": 53,
                    "time": 353.99999999999943,
                    "velocity": 0.5039370078740157,
                    "duration": 1.4916666666666742
                },
                {
                    "name": "E3",
                    "midi": 52,
                    "time": 355.49999999999943,
                    "velocity": 0.5039370078740157,
                    "duration": 0.49166666666667425
                },
                {
                    "name": "D3",
                    "midi": 50,
                    "time": 355.99999999999943,
                    "velocity": 0.5039370078740157,
                    "duration": 0.9916666666666742
                },
                {
                    "name": "B2",
                    "midi": 47,
                    "time": 356.99999999999943,
                    "velocity": 0.5039370078740157,
                    "duration": 0.49166666666667425
                },
                {
                    "name": "C3",
                    "midi": 48,
                    "time": 357.49999999999943,
                    "velocity": 0.5039370078740157,
                    "duration": 0.49166666666667425
                },
                {
                    "name": "G2",
                    "midi": 43,
                    "time": 357.99999999999943,
                    "velocity": 0.5039370078740157,
                    "duration": 0.9916666666666742
                },
                {
                    "name": "G3",
                    "midi": 55,
                    "time": 358.99999999999943,
                    "velocity": 0.5039370078740157,
                    "duration": 0.49166666666667425
                },
                {
                    "name": "F3",
                    "midi": 53,
                    "time": 359.49999999999943,
                    "velocity": 0.5039370078740157,
                    "duration": 0.49166666666667425
                },
                {
                    "name": "E3",
                    "midi": 52,
                    "time": 359.99999999999943,
                    "velocity": 0.5039370078740157,
                    "duration": 1.9916666666666742
                },
                {
                    "name": "E2",
                    "midi": 40,
                    "time": 360.99999999999943,
                    "velocity": 0.5039370078740157,
                    "duration": 0.9916666666666742
                },
                {
                    "name": "F2",
                    "midi": 41,
                    "time": 361.99999999999943,
                    "velocity": 0.5039370078740157,
                    "duration": 1.9916666666666742
                },
                {
                    "name": "F3",
                    "midi": 53,
                    "time": 362.99999999999943,
                    "velocity": 0.5039370078740157,
                    "duration": 0.9916666666666742
                },
                {
                    "name": "G3",
                    "midi": 55,
                    "time": 363.99999999999943,
                    "velocity": 0.5039370078740157,
                    "duration": 1.9916666666666742
                },
                {
                    "name": "G2",
                    "midi": 43,
                    "time": 364.99999999999943,
                    "velocity": 0.5039370078740157,
                    "duration": 0.9916666666666742
                },
                {
                    "name": "C3",
                    "midi": 48,
                    "time": 365.99999999999943,
                    "velocity": 0.5039370078740157,
                    "duration": 0.9916666666666742
                },
                {
                    "name": "G3",
                    "midi": 55,
                    "time": 367.24999999999943,
                    "velocity": 0.5039370078740157,
                    "duration": 0.24166666666667425
                },
                {
                    "name": "A3",
                    "midi": 57,
                    "time": 367.49999999999943,
                    "velocity": 0.5039370078740157,
                    "duration": 0.24166666666667425
                },
                {
                    "name": "B3",
                    "midi": 59,
                    "time": 367.74999999999943,
                    "velocity": 0.5039370078740157,
                    "duration": 0.24166666666667425
                },
                {
                    "name": "C4",
                    "midi": 60,
                    "time": 367.99999999999943,
                    "velocity": 0.5039370078740157,
                    "duration": 1.9916666666666742
                },
                {
                    "name": "C3",
                    "midi": 48,
                    "time": 368.99999999999943,
                    "velocity": 0.5039370078740157,
                    "duration": 0.9916666666666742
                },
                {
                    "name": "G3",
                    "midi": 55,
                    "time": 369.99999999999943,
                    "velocity": 0.5039370078740157,
                    "duration": 0.9916666666666742
                },
                {
                    "name": "G#3",
                    "midi": 56,
                    "time": 370.99999999999943,
                    "velocity": 0.5039370078740157,
                    "duration": 0.07499999999998863
                },
                {
                    "name": "A3",
                    "midi": 57,
                    "time": 371.08333333333275,
                    "velocity": 0.5039370078740157,
                    "duration": 0.07499999999998863
                },
                {
                    "name": "G#3",
                    "midi": 56,
                    "time": 371.16666666666606,
                    "velocity": 0.5039370078740157,
                    "duration": 0.07499999999998863
                },
                {
                    "name": "A3",
                    "midi": 57,
                    "time": 371.2499999999994,
                    "velocity": 0.5039370078740157,
                    "duration": 0.07499999999998863
                },
                {
                    "name": "G#3",
                    "midi": 56,
                    "time": 371.3333333333327,
                    "velocity": 0.5039370078740157,
                    "duration": 0.07499999999998863
                },
                {
                    "name": "A3",
                    "midi": 57,
                    "time": 371.416666666666,
                    "velocity": 0.5039370078740157,
                    "duration": 0.07499999999998863
                },
                {
                    "name": "G#3",
                    "midi": 56,
                    "time": 371.4999999999993,
                    "velocity": 0.5039370078740157,
                    "duration": 0.24166666666667425
                },
                {
                    "name": "F#3",
                    "midi": 54,
                    "time": 371.7499999999993,
                    "velocity": 0.5039370078740157,
                    "duration": 0.11666666666667425
                },
                {
                    "name": "G#3",
                    "midi": 56,
                    "time": 371.8749999999993,
                    "velocity": 0.5039370078740157,
                    "duration": 0.11666666666667425
                },
                {
                    "name": "A3",
                    "midi": 57,
                    "time": 371.9999999999993,
                    "velocity": 0.5039370078740157,
                    "duration": 1.9916666666666742
                },
                {
                    "name": "A2",
                    "midi": 45,
                    "time": 372.9999999999993,
                    "velocity": 0.5039370078740157,
                    "duration": 0.9916666666666742
                },
                {
                    "name": "E3",
                    "midi": 52,
                    "time": 373.9999999999993,
                    "velocity": 0.5039370078740157,
                    "duration": 0.9916666666666742
                },
                {
                    "name": "E4",
                    "midi": 64,
                    "time": 374.9999999999993,
                    "velocity": 0.5039370078740157,
                    "duration": 0.49166666666667425
                },
                {
                    "name": "D4",
                    "midi": 62,
                    "time": 375.4999999999993,
                    "velocity": 0.5039370078740157,
                    "duration": 0.49166666666667425
                },
                {
                    "name": "C4",
                    "midi": 60,
                    "time": 375.9999999999993,
                    "velocity": 0.5039370078740157,
                    "duration": 1.4916666666666742
                },
                {
                    "name": "C3",
                    "midi": 48,
                    "time": 377.4999999999993,
                    "velocity": 0.5039370078740157,
                    "duration": 0.49166666666667425
                },
                {
                    "name": "D3",
                    "midi": 50,
                    "time": 377.9999999999993,
                    "velocity": 0.5039370078740157,
                    "duration": 0.49166666666667425
                },
                {
                    "name": "E3",
                    "midi": 52,
                    "time": 378.4999999999993,
                    "velocity": 0.5039370078740157,
                    "duration": 0.49166666666667425
                },
                {
                    "name": "F3",
                    "midi": 53,
                    "time": 378.9999999999993,
                    "velocity": 0.5039370078740157,
                    "duration": 0.49166666666667425
                },
                {
                    "name": "D3",
                    "midi": 50,
                    "time": 379.4999999999993,
                    "velocity": 0.5039370078740157,
                    "duration": 0.49166666666667425
                },
                {
                    "name": "E3",
                    "midi": 52,
                    "time": 379.9999999999993,
                    "velocity": 0.5039370078740157,
                    "duration": 1.9916666666666742
                },
                {
                    "name": "E2",
                    "midi": 40,
                    "time": 380.9999999999993,
                    "velocity": 0.5039370078740157,
                    "duration": 0.9916666666666742
                },
                {
                    "name": "A2",
                    "midi": 45,
                    "time": 381.9999999999993,
                    "velocity": 0.5039370078740157,
                    "duration": 0.9916666666666742
                },
                {
                    "name": "A2",
                    "midi": 45,
                    "time": 383.9999999999993,
                    "velocity": 0.5039370078740157,
                    "duration": 0.07499999999998863
                },
                {
                    "name": "D3",
                    "midi": 50,
                    "time": 385.9999999999993,
                    "velocity": 0.5039370078740157,
                    "duration": 0.49166666666667425
                },
                {
                    "name": "E3",
                    "midi": 52,
                    "time": 387.9999999999993,
                    "velocity": 0.5039370078740157,
                    "duration": 0.49166666666667425
                },
                {
                    "name": "A2",
                    "midi": 45,
                    "time": 389.9999999999993,
                    "velocity": 0.5039370078740157,
                    "duration": 0.49166666666667425
                },
                {
                    "name": "E3",
                    "midi": 52,
                    "time": 390.4999999999993,
                    "velocity": 0.5039370078740157,
                    "duration": 0.49166666666667425
                },
                {
                    "name": "A3",
                    "midi": 57,
                    "time": 390.9999999999993,
                    "velocity": 0.5039370078740157,
                    "duration": 0.49166666666667425
                },
                {
                    "name": "C4",
                    "midi": 60,
                    "time": 391.4999999999993,
                    "velocity": 0.5039370078740157,
                    "duration": 0.24166666666667425
                },
                {
                    "name": "A3",
                    "midi": 57,
                    "time": 391.9999999999993,
                    "velocity": 0.5039370078740157,
                    "duration": 0.49166666666667425
                },
                {
                    "name": "A3",
                    "midi": 57,
                    "time": 393.9999999999993,
                    "velocity": 0.5039370078740157,
                    "duration": 0.49166666666667425
                },
                {
                    "name": "G3",
                    "midi": 55,
                    "time": 395.9999999999993,
                    "velocity": 0.5039370078740157,
                    "duration": 0.49166666666667425
                },
                {
                    "name": "F3",
                    "midi": 53,
                    "time": 396.9999999999993,
                    "velocity": 0.5039370078740157,
                    "duration": 0.49166666666667425
                },
                {
                    "name": "E3",
                    "midi": 52,
                    "time": 397.9999999999993,
                    "velocity": 0.5039370078740157,
                    "duration": 0.24166666666667425
                },
                {
                    "name": "E4",
                    "midi": 64,
                    "time": 398.2499999999993,
                    "velocity": 0.5039370078740157,
                    "duration": 0.24166666666667425
                },
                {
                    "name": "B3",
                    "midi": 59,
                    "time": 398.4999999999993,
                    "velocity": 0.5039370078740157,
                    "duration": 0.24166666666667425
                },
                {
                    "name": "G#3",
                    "midi": 56,
                    "time": 398.7499999999993,
                    "velocity": 0.5039370078740157,
                    "duration": 0.24166666666667425
                },
                {
                    "name": "E3",
                    "midi": 52,
                    "time": 398.9999999999993,
                    "velocity": 0.5039370078740157,
                    "duration": 0.24166666666667425
                },
                {
                    "name": "B2",
                    "midi": 47,
                    "time": 399.2499999999993,
                    "velocity": 0.5039370078740157,
                    "duration": 0.24166666666667425
                },
                {
                    "name": "E2",
                    "midi": 40,
                    "time": 399.4999999999993,
                    "velocity": 0.5039370078740157,
                    "duration": 0.24166666666667425
                },
                {
                    "name": "E3",
                    "midi": 52,
                    "time": 399.7499999999993,
                    "velocity": 0.5039370078740157,
                    "duration": 0.24166666666667425
                },
                {
                    "name": "A2",
                    "midi": 45,
                    "time": 399.9999999999993,
                    "velocity": 0.5039370078740157,
                    "duration": 0.07499999999998863
                },
                {
                    "name": "D3",
                    "midi": 50,
                    "time": 401.9999999999993,
                    "velocity": 0.5039370078740157,
                    "duration": 0.49166666666667425
                },
                {
                    "name": "E3",
                    "midi": 52,
                    "time": 403.9999999999993,
                    "velocity": 0.5039370078740157,
                    "duration": 0.49166666666667425
                },
                {
                    "name": "A2",
                    "midi": 45,
                    "time": 405.9999999999993,
                    "velocity": 0.5039370078740157,
                    "duration": 0.49166666666667425
                },
                {
                    "name": "E3",
                    "midi": 52,
                    "time": 406.4999999999993,
                    "velocity": 0.5039370078740157,
                    "duration": 0.49166666666667425
                },
                {
                    "name": "A3",
                    "midi": 57,
                    "time": 406.9999999999993,
                    "velocity": 0.5039370078740157,
                    "duration": 0.49166666666667425
                },
                {
                    "name": "C4",
                    "midi": 60,
                    "time": 407.4999999999993,
                    "velocity": 0.5039370078740157,
                    "duration": 0.24166666666667425
                },
                {
                    "name": "A3",
                    "midi": 57,
                    "time": 407.9999999999993,
                    "velocity": 0.5039370078740157,
                    "duration": 0.49166666666667425
                },
                {
                    "name": "A3",
                    "midi": 57,
                    "time": 409.9999999999993,
                    "velocity": 0.5039370078740157,
                    "duration": 0.49166666666667425
                },
                {
                    "name": "G3",
                    "midi": 55,
                    "time": 411.9999999999993,
                    "velocity": 0.5039370078740157,
                    "duration": 0.49166666666667425
                },
                {
                    "name": "F3",
                    "midi": 53,
                    "time": 412.9999999999993,
                    "velocity": 0.5039370078740157,
                    "duration": 0.49166666666667425
                },
                {
                    "name": "E3",
                    "midi": 52,
                    "time": 413.9999999999993,
                    "velocity": 0.5039370078740157,
                    "duration": 0.24166666666667425
                },
                {
                    "name": "E4",
                    "midi": 64,
                    "time": 414.2499999999993,
                    "velocity": 0.5039370078740157,
                    "duration": 0.24166666666667425
                },
                {
                    "name": "B3",
                    "midi": 59,
                    "time": 414.4999999999993,
                    "velocity": 0.5039370078740157,
                    "duration": 0.24166666666667425
                },
                {
                    "name": "G#3",
                    "midi": 56,
                    "time": 414.7499999999993,
                    "velocity": 0.5039370078740157,
                    "duration": 0.24166666666667425
                },
                {
                    "name": "E3",
                    "midi": 52,
                    "time": 414.9999999999993,
                    "velocity": 0.5039370078740157,
                    "duration": 0.24166666666667425
                },
                {
                    "name": "B2",
                    "midi": 47,
                    "time": 415.2499999999993,
                    "velocity": 0.5039370078740157,
                    "duration": 0.24166666666667425
                },
                {
                    "name": "E2",
                    "midi": 40,
                    "time": 415.4999999999993,
                    "velocity": 0.5039370078740157,
                    "duration": 0.24166666666667425
                },
                {
                    "name": "E3",
                    "midi": 52,
                    "time": 415.7499999999993,
                    "velocity": 0.5039370078740157,
                    "duration": 0.24166666666667425
                },
                {
                    "name": "C3",
                    "midi": 48,
                    "time": 415.9999999999993,
                    "velocity": 0.5039370078740157,
                    "duration": 0.49166666666667425
                },
                {
                    "name": "F4",
                    "midi": 65,
                    "time": 417.9999999999993,
                    "velocity": 0.5039370078740157,
                    "duration": 0.49166666666667425
                },
                {
                    "name": "D4",
                    "midi": 62,
                    "time": 419.9999999999993,
                    "velocity": 0.5039370078740157,
                    "duration": 0.49166666666667425
                },
                {
                    "name": "G4",
                    "midi": 67,
                    "time": 421.9999999999993,
                    "velocity": 0.5039370078740157,
                    "duration": 0.49166666666667425
                },
                {
                    "name": "E4",
                    "midi": 64,
                    "time": 423.9999999999993,
                    "velocity": 0.5039370078740157,
                    "duration": 0.49166666666667425
                },
                {
                    "name": "C3",
                    "midi": 48,
                    "time": 429.9999999999993,
                    "velocity": 0.5039370078740157,
                    "duration": 0.49166666666667425
                },
                {
                    "name": "C4",
                    "midi": 60,
                    "time": 431.9999999999993,
                    "velocity": 0.5039370078740157,
                    "duration": 0.49166666666667425
                },
                {
                    "name": "G3",
                    "midi": 55,
                    "time": 433.9999999999993,
                    "velocity": 0.5039370078740157,
                    "duration": 0.49166666666667425
                },
                {
                    "name": "A3",
                    "midi": 57,
                    "time": 435.9999999999993,
                    "velocity": 0.5039370078740157,
                    "duration": 0.49166666666667425
                },
                {
                    "name": "E3",
                    "midi": 52,
                    "time": 437.9999999999993,
                    "velocity": 0.5039370078740157,
                    "duration": 0.49166666666667425
                },
                {
                    "name": "C4",
                    "midi": 60,
                    "time": 439.9999999999993,
                    "velocity": 0.5039370078740157,
                    "duration": 0.9916666666666742
                },
                {
                    "name": "A3",
                    "midi": 57,
                    "time": 445.9999999999993,
                    "velocity": 0.5039370078740157,
                    "duration": 0.49166666666667425
                },
                {
                    "name": "A2",
                    "midi": 45,
                    "time": 445.9999999999993,
                    "velocity": 0.5039370078740157,
                    "duration": 0.49166666666667425
                },
                {
                    "name": "C3",
                    "midi": 48,
                    "time": 447.9999999999993,
                    "velocity": 0.5039370078740157,
                    "duration": 0.49166666666667425
                },
                {
                    "name": "F4",
                    "midi": 65,
                    "time": 449.9999999999993,
                    "velocity": 0.5039370078740157,
                    "duration": 0.49166666666667425
                },
                {
                    "name": "D4",
                    "midi": 62,
                    "time": 451.9999999999993,
                    "velocity": 0.5039370078740157,
                    "duration": 0.49166666666667425
                },
                {
                    "name": "G4",
                    "midi": 67,
                    "time": 453.9999999999993,
                    "velocity": 0.5039370078740157,
                    "duration": 0.49166666666667425
                },
                {
                    "name": "E4",
                    "midi": 64,
                    "time": 455.9999999999993,
                    "velocity": 0.5039370078740157,
                    "duration": 0.49166666666667425
                },
                {
                    "name": "C3",
                    "midi": 48,
                    "time": 461.9999999999993,
                    "velocity": 0.5039370078740157,
                    "duration": 0.49166666666667425
                },
                {
                    "name": "C4",
                    "midi": 60,
                    "time": 463.9999999999993,
                    "velocity": 0.5039370078740157,
                    "duration": 0.49166666666667425
                },
                {
                    "name": "G3",
                    "midi": 55,
                    "time": 465.9999999999993,
                    "velocity": 0.5039370078740157,
                    "duration": 0.49166666666667425
                },
                {
                    "name": "A3",
                    "midi": 57,
                    "time": 467.9999999999993,
                    "velocity": 0.5039370078740157,
                    "duration": 0.49166666666667425
                },
                {
                    "name": "E3",
                    "midi": 52,
                    "time": 469.9999999999993,
                    "velocity": 0.5039370078740157,
                    "duration": 0.49166666666667425
                },
                {
                    "name": "C4",
                    "midi": 60,
                    "time": 471.9999999999993,
                    "velocity": 0.5039370078740157,
                    "duration": 0.9916666666666742
                },
                {
                    "name": "A3",
                    "midi": 57,
                    "time": 477.9999999999993,
                    "velocity": 0.5039370078740157,
                    "duration": 0.9916666666666742
                },
                {
                    "name": "A2",
                    "midi": 45,
                    "time": 477.9999999999993,
                    "velocity": 0.5039370078740157,
                    "duration": 0.9916666666666742
                },
                {
                    "name": "A3",
                    "midi": 57,
                    "time": 478.9999999999993,
                    "velocity": 0.5039370078740157,
                    "duration": 0.9916666666666742
                },
                {
                    "name": "E3",
                    "midi": 52,
                    "time": 478.9999999999993,
                    "velocity": 0.5039370078740157,
                    "duration": 0.9916666666666742
                },
                {
                    "name": "C3",
                    "midi": 48,
                    "time": 478.9999999999993,
                    "velocity": 0.5039370078740157,
                    "duration": 0.9916666666666742
                },
                {
                    "name": "A2",
                    "midi": 45,
                    "time": 478.9999999999993,
                    "velocity": 0.5039370078740157,
                    "duration": 0.9916666666666742
                },
                {
                    "name": "A1",
                    "midi": 33,
                    "time": 478.9999999999993,
                    "velocity": 0.5039370078740157,
                    "duration": 0.9916666666666742
                },
                {
                    "name": "A2",
                    "midi": 45,
                    "time": 479.9999999999993,
                    "velocity": 0.5039370078740157,
                    "duration": 1.9916666666666742
                },
                {
                    "name": "A3",
                    "midi": 57,
                    "time": 480.9999999999993,
                    "velocity": 0.5039370078740157,
                    "duration": 0.9916666666666742
                },
                {
                    "name": "D3",
                    "midi": 50,
                    "time": 481.9999999999993,
                    "velocity": 0.5039370078740157,
                    "duration": 1.9916666666666742
                },
                {
                    "name": "D2",
                    "midi": 38,
                    "time": 482.9999999999993,
                    "velocity": 0.5039370078740157,
                    "duration": 0.9916666666666742
                },
                {
                    "name": "E2",
                    "midi": 40,
                    "time": 483.9999999999993,
                    "velocity": 0.5039370078740157,
                    "duration": 1.9916666666666742
                },
                {
                    "name": "E3",
                    "midi": 52,
                    "time": 484.9999999999993,
                    "velocity": 0.5039370078740157,
                    "duration": 0.9916666666666742
                },
                {
                    "name": "A2",
                    "midi": 45,
                    "time": 485.9999999999993,
                    "velocity": 0.5039370078740157,
                    "duration": 0.24166666666667425
                },
                {
                    "name": "E3",
                    "midi": 52,
                    "time": 486.2499999999993,
                    "velocity": 0.5039370078740157,
                    "duration": 0.24166666666667425
                },
                {
                    "name": "E3",
                    "midi": 52,
                    "time": 486.4999999999993,
                    "velocity": 0.5039370078740157,
                    "duration": 0.24166666666667425
                },
                {
                    "name": "A3",
                    "midi": 57,
                    "time": 486.7499999999993,
                    "velocity": 0.5039370078740157,
                    "duration": 0.24166666666667425
                },
                {
                    "name": "E3",
                    "midi": 52,
                    "time": 486.9999999999993,
                    "velocity": 0.5039370078740157,
                    "duration": 0.24166666666667425
                },
                {
                    "name": "E3",
                    "midi": 52,
                    "time": 487.2499999999993,
                    "velocity": 0.5039370078740157,
                    "duration": 0.24166666666667425
                },
                {
                    "name": "A2",
                    "midi": 45,
                    "time": 487.4999999999993,
                    "velocity": 0.5039370078740157,
                    "duration": 0.24166666666667425
                },
                {
                    "name": "A2",
                    "midi": 45,
                    "time": 487.7499999999993,
                    "velocity": 0.5039370078740157,
                    "duration": 0.24166666666667425
                },
                {
                    "name": "A1",
                    "midi": 33,
                    "time": 487.9999999999993,
                    "velocity": 0.5039370078740157,
                    "duration": 0.49166666666667425
                },
                {
                    "name": "A2",
                    "midi": 45,
                    "time": 488.4999999999993,
                    "velocity": 0.5039370078740157,
                    "duration": 0.49166666666667425
                },
                {
                    "name": "G#2",
                    "midi": 44,
                    "time": 488.9999999999993,
                    "velocity": 0.5039370078740157,
                    "duration": 0.49166666666667425
                },
                {
                    "name": "E3",
                    "midi": 52,
                    "time": 489.4999999999993,
                    "velocity": 0.5039370078740157,
                    "duration": 0.49166666666667425
                },
                {
                    "name": "A2",
                    "midi": 45,
                    "time": 489.9999999999993,
                    "velocity": 0.5039370078740157,
                    "duration": 0.9916666666666742
                },
                {
                    "name": "A3",
                    "midi": 57,
                    "time": 490.9999999999993,
                    "velocity": 0.5039370078740157,
                    "duration": 0.49166666666667425
                },
                {
                    "name": "A2",
                    "midi": 45,
                    "time": 491.4999999999993,
                    "velocity": 0.5039370078740157,
                    "duration": 0.49166666666667425
                },
                {
                    "name": "D3",
                    "midi": 50,
                    "time": 491.9999999999993,
                    "velocity": 0.5039370078740157,
                    "duration": 1.9916666666666742
                },
                {
                    "name": "D2",
                    "midi": 38,
                    "time": 492.9999999999993,
                    "velocity": 0.5039370078740157,
                    "duration": 0.9916666666666742
                },
                {
                    "name": "E2",
                    "midi": 40,
                    "time": 493.9999999999993,
                    "velocity": 0.5039370078740157,
                    "duration": 0.24166666666667425
                },
                {
                    "name": "E3",
                    "midi": 52,
                    "time": 494.2499999999993,
                    "velocity": 0.5039370078740157,
                    "duration": 0.24166666666667425
                },
                {
                    "name": "E3",
                    "midi": 52,
                    "time": 494.4999999999993,
                    "velocity": 0.5039370078740157,
                    "duration": 0.24166666666667425
                },
                {
                    "name": "B3",
                    "midi": 59,
                    "time": 494.7499999999993,
                    "velocity": 0.5039370078740157,
                    "duration": 0.24166666666667425
                },
                {
                    "name": "E3",
                    "midi": 52,
                    "time": 494.9999999999993,
                    "velocity": 0.5039370078740157,
                    "duration": 0.24166666666667425
                },
                {
                    "name": "E3",
                    "midi": 52,
                    "time": 495.2499999999993,
                    "velocity": 0.5039370078740157,
                    "duration": 0.24166666666667425
                },
                {
                    "name": "E2",
                    "midi": 40,
                    "time": 495.4999999999993,
                    "velocity": 0.5039370078740157,
                    "duration": 0.24166666666667425
                },
                {
                    "name": "E3",
                    "midi": 52,
                    "time": 495.7499999999993,
                    "velocity": 0.5039370078740157,
                    "duration": 0.24166666666667425
                },
                {
                    "name": "A2",
                    "midi": 45,
                    "time": 495.9999999999993,
                    "velocity": 0.5039370078740157,
                    "duration": 1.9916666666666742
                },
                {
                    "name": "A3",
                    "midi": 57,
                    "time": 496.9999999999993,
                    "velocity": 0.5039370078740157,
                    "duration": 0.9916666666666742
                },
                {
                    "name": "D3",
                    "midi": 50,
                    "time": 497.9999999999993,
                    "velocity": 0.5039370078740157,
                    "duration": 1.9916666666666742
                },
                {
                    "name": "D2",
                    "midi": 38,
                    "time": 498.9999999999993,
                    "velocity": 0.5039370078740157,
                    "duration": 0.9916666666666742
                },
                {
                    "name": "E2",
                    "midi": 40,
                    "time": 499.9999999999993,
                    "velocity": 0.5039370078740157,
                    "duration": 1.9916666666666742
                },
                {
                    "name": "E3",
                    "midi": 52,
                    "time": 500.9999999999993,
                    "velocity": 0.5039370078740157,
                    "duration": 0.9916666666666742
                },
                {
                    "name": "A2",
                    "midi": 45,
                    "time": 501.9999999999993,
                    "velocity": 0.5039370078740157,
                    "duration": 0.24166666666667425
                },
                {
                    "name": "E3",
                    "midi": 52,
                    "time": 502.2499999999993,
                    "velocity": 0.5039370078740157,
                    "duration": 0.24166666666667425
                },
                {
                    "name": "E3",
                    "midi": 52,
                    "time": 502.4999999999993,
                    "velocity": 0.5039370078740157,
                    "duration": 0.24166666666667425
                },
                {
                    "name": "A3",
                    "midi": 57,
                    "time": 502.7499999999993,
                    "velocity": 0.5039370078740157,
                    "duration": 0.24166666666667425
                },
                {
                    "name": "E3",
                    "midi": 52,
                    "time": 502.9999999999993,
                    "velocity": 0.5039370078740157,
                    "duration": 0.24166666666667425
                },
                {
                    "name": "E3",
                    "midi": 52,
                    "time": 503.2499999999993,
                    "velocity": 0.5039370078740157,
                    "duration": 0.24166666666667425
                },
                {
                    "name": "A2",
                    "midi": 45,
                    "time": 503.4999999999993,
                    "velocity": 0.5039370078740157,
                    "duration": 0.24166666666667425
                },
                {
                    "name": "A2",
                    "midi": 45,
                    "time": 503.7499999999993,
                    "velocity": 0.5039370078740157,
                    "duration": 0.24166666666667425
                },
                {
                    "name": "A2",
                    "midi": 45,
                    "time": 503.9999999999993,
                    "velocity": 0.5039370078740157,
                    "duration": 0.49166666666667425
                },
                {
                    "name": "A2",
                    "midi": 45,
                    "time": 504.4999999999993,
                    "velocity": 0.5039370078740157,
                    "duration": 0.49166666666667425
                },
                {
                    "name": "G#2",
                    "midi": 44,
                    "time": 504.9999999999993,
                    "velocity": 0.5039370078740157,
                    "duration": 0.49166666666667425
                },
                {
                    "name": "E3",
                    "midi": 52,
                    "time": 505.4999999999993,
                    "velocity": 0.5039370078740157,
                    "duration": 0.49166666666667425
                },
                {
                    "name": "A2",
                    "midi": 45,
                    "time": 505.9999999999993,
                    "velocity": 0.5039370078740157,
                    "duration": 0.9916666666666742
                },
                {
                    "name": "A3",
                    "midi": 57,
                    "time": 506.9999999999993,
                    "velocity": 0.5039370078740157,
                    "duration": 0.49166666666667425
                },
                {
                    "name": "A2",
                    "midi": 45,
                    "time": 507.4999999999993,
                    "velocity": 0.5039370078740157,
                    "duration": 0.49166666666667425
                },
                {
                    "name": "D3",
                    "midi": 50,
                    "time": 507.9999999999993,
                    "velocity": 0.5039370078740157,
                    "duration": 1.9916666666666742
                },
                {
                    "name": "D2",
                    "midi": 38,
                    "time": 508.9999999999993,
                    "velocity": 0.5039370078740157,
                    "duration": 0.9916666666666742
                },
                {
                    "name": "E2",
                    "midi": 40,
                    "time": 509.9999999999993,
                    "velocity": 0.5039370078740157,
                    "duration": 0.24166666666667425
                },
                {
                    "name": "E3",
                    "midi": 52,
                    "time": 510.2499999999993,
                    "velocity": 0.5039370078740157,
                    "duration": 0.24166666666667425
                },
                {
                    "name": "E3",
                    "midi": 52,
                    "time": 510.4999999999993,
                    "velocity": 0.5039370078740157,
                    "duration": 0.24166666666667425
                },
                {
                    "name": "B3",
                    "midi": 59,
                    "time": 510.7499999999993,
                    "velocity": 0.5039370078740157,
                    "duration": 0.24166666666667425
                },
                {
                    "name": "E3",
                    "midi": 52,
                    "time": 510.9999999999993,
                    "velocity": 0.5039370078740157,
                    "duration": 0.24166666666667425
                },
                {
                    "name": "E3",
                    "midi": 52,
                    "time": 511.2499999999993,
                    "velocity": 0.5039370078740157,
                    "duration": 0.24166666666667425
                },
                {
                    "name": "E2",
                    "midi": 40,
                    "time": 511.4999999999993,
                    "velocity": 0.5039370078740157,
                    "duration": 0.24166666666667425
                },
                {
                    "name": "E3",
                    "midi": 52,
                    "time": 511.7499999999993,
                    "velocity": 0.5039370078740157,
                    "duration": 0.24166666666667425
                },
                {
                    "name": "C2",
                    "midi": 36,
                    "time": 511.9999999999993,
                    "velocity": 0.5039370078740157,
                    "duration": 1.9916666666666742
                },
                {
                    "name": "C3",
                    "midi": 48,
                    "time": 512.9999999999993,
                    "velocity": 0.5039370078740157,
                    "duration": 0.9916666666666742
                },
                {
                    "name": "F2",
                    "midi": 41,
                    "time": 513.9999999999993,
                    "velocity": 0.5039370078740157,
                    "duration": 1.9916666666666742
                },
                {
                    "name": "F3",
                    "midi": 53,
                    "time": 514.9999999999993,
                    "velocity": 0.5039370078740157,
                    "duration": 0.9916666666666742
                },
                {
                    "name": "D2",
                    "midi": 38,
                    "time": 515.9999999999993,
                    "velocity": 0.5039370078740157,
                    "duration": 1.9916666666666742
                },
                {
                    "name": "D3",
                    "midi": 50,
                    "time": 516.9999999999993,
                    "velocity": 0.5039370078740157,
                    "duration": 0.9916666666666742
                },
                {
                    "name": "G2",
                    "midi": 43,
                    "time": 517.9999999999993,
                    "velocity": 0.5039370078740157,
                    "duration": 0.9916666666666742
                },
                {
                    "name": "G3",
                    "midi": 55,
                    "time": 518.9999999999993,
                    "velocity": 0.5039370078740157,
                    "duration": 0.49166666666667425
                },
                {
                    "name": "G2",
                    "midi": 43,
                    "time": 519.4999999999993,
                    "velocity": 0.5039370078740157,
                    "duration": 0.49166666666667425
                },
                {
                    "name": "E2",
                    "midi": 40,
                    "time": 519.9999999999993,
                    "velocity": 0.5039370078740157,
                    "duration": 1.9916666666666742
                },
                {
                    "name": "E3",
                    "midi": 52,
                    "time": 520.9999999999993,
                    "velocity": 0.5039370078740157,
                    "duration": 0.9916666666666742
                },
                {
                    "name": "F2",
                    "midi": 41,
                    "time": 521.9999999999993,
                    "velocity": 0.5039370078740157,
                    "duration": 0.24166666666667425
                },
                {
                    "name": "F3",
                    "midi": 53,
                    "time": 522.2499999999993,
                    "velocity": 0.5039370078740157,
                    "duration": 0.24166666666667425
                },
                {
                    "name": "G2",
                    "midi": 43,
                    "time": 522.4999999999993,
                    "velocity": 0.5039370078740157,
                    "duration": 0.24166666666667425
                },
                {
                    "name": "G3",
                    "midi": 55,
                    "time": 522.7499999999993,
                    "velocity": 0.5039370078740157,
                    "duration": 0.24166666666667425
                },
                {
                    "name": "A2",
                    "midi": 45,
                    "time": 522.9999999999993,
                    "velocity": 0.5039370078740157,
                    "duration": 0.24166666666667425
                },
                {
                    "name": "A3",
                    "midi": 57,
                    "time": 523.2499999999993,
                    "velocity": 0.5039370078740157,
                    "duration": 0.24166666666667425
                },
                {
                    "name": "F2",
                    "midi": 41,
                    "time": 523.4999999999993,
                    "velocity": 0.5039370078740157,
                    "duration": 0.24166666666667425
                },
                {
                    "name": "F3",
                    "midi": 53,
                    "time": 523.7499999999993,
                    "velocity": 0.5039370078740157,
                    "duration": 0.24166666666667425
                },
                {
                    "name": "G2",
                    "midi": 43,
                    "time": 523.9999999999993,
                    "velocity": 0.5039370078740157,
                    "duration": 1.9916666666666742
                },
                {
                    "name": "G3",
                    "midi": 55,
                    "time": 524.9999999999993,
                    "velocity": 0.5039370078740157,
                    "duration": 0.9916666666666742
                },
                {
                    "name": "C3",
                    "midi": 48,
                    "time": 525.9999999999993,
                    "velocity": 0.5039370078740157,
                    "duration": 0.24166666666667425
                },
                {
                    "name": "G3",
                    "midi": 55,
                    "time": 526.2499999999993,
                    "velocity": 0.5039370078740157,
                    "duration": 0.24166666666667425
                },
                {
                    "name": "G3",
                    "midi": 55,
                    "time": 526.4999999999993,
                    "velocity": 0.5039370078740157,
                    "duration": 0.24166666666667425
                },
                {
                    "name": "C4",
                    "midi": 60,
                    "time": 526.7499999999993,
                    "velocity": 0.5039370078740157,
                    "duration": 0.24166666666667425
                },
                {
                    "name": "G3",
                    "midi": 55,
                    "time": 526.9999999999993,
                    "velocity": 0.5039370078740157,
                    "duration": 0.24166666666667425
                },
                {
                    "name": "G3",
                    "midi": 55,
                    "time": 527.2499999999993,
                    "velocity": 0.5039370078740157,
                    "duration": 0.24166666666667425
                },
                {
                    "name": "C3",
                    "midi": 48,
                    "time": 527.4999999999993,
                    "velocity": 0.5039370078740157,
                    "duration": 0.24166666666667425
                },
                {
                    "name": "C3",
                    "midi": 48,
                    "time": 527.7499999999993,
                    "velocity": 0.5039370078740157,
                    "duration": 0.24166666666667425
                },
                {
                    "name": "C2",
                    "midi": 36,
                    "time": 527.9999999999993,
                    "velocity": 0.5039370078740157,
                    "duration": 0.9916666666666742
                },
                {
                    "name": "C3",
                    "midi": 48,
                    "time": 528.9999999999993,
                    "velocity": 0.5039370078740157,
                    "duration": 0.49166666666667425
                },
                {
                    "name": "C3",
                    "midi": 48,
                    "time": 528.9999999999993,
                    "velocity": 0.5039370078740157,
                    "duration": 0.9916666666666742
                },
                {
                    "name": "G3",
                    "midi": 55,
                    "time": 529.4999999999993,
                    "velocity": 0.5039370078740157,
                    "duration": 0.9916666666666742
                },
                {
                    "name": "G2",
                    "midi": 43,
                    "time": 529.9999999999993,
                    "velocity": 0.5039370078740157,
                    "duration": 0.9916666666666742
                },
                {
                    "name": "D3",
                    "midi": 50,
                    "time": 530.4999999999993,
                    "velocity": 0.5039370078740157,
                    "duration": 0.9916666666666742
                },
                {
                    "name": "G#2",
                    "midi": 44,
                    "time": 530.9999999999993,
                    "velocity": 0.5039370078740157,
                    "duration": 0.9916666666666742
                },
                {
                    "name": "E3",
                    "midi": 52,
                    "time": 531.4999999999993,
                    "velocity": 0.5039370078740157,
                    "duration": 1.4916666666666742
                },
                {
                    "name": "A2",
                    "midi": 45,
                    "time": 531.9999999999993,
                    "velocity": 0.5039370078740157,
                    "duration": 0.9916666666666742
                },
                {
                    "name": "E3",
                    "midi": 52,
                    "time": 532.9999999999993,
                    "velocity": 0.5039370078740157,
                    "duration": 0.49166666666667425
                },
                {
                    "name": "E3",
                    "midi": 52,
                    "time": 532.9999999999993,
                    "velocity": 0.5039370078740157,
                    "duration": 0.9916666666666742
                },
                {
                    "name": "A2",
                    "midi": 45,
                    "time": 533.4999999999993,
                    "velocity": 0.5039370078740157,
                    "duration": 0.49166666666667425
                },
                {
                    "name": "E2",
                    "midi": 40,
                    "time": 533.9999999999993,
                    "velocity": 0.5039370078740157,
                    "duration": 0.24166666666667425
                },
                {
                    "name": "E3",
                    "midi": 52,
                    "time": 534.2499999999993,
                    "velocity": 0.5039370078740157,
                    "duration": 0.24166666666667425
                },
                {
                    "name": "E3",
                    "midi": 52,
                    "time": 534.4999999999993,
                    "velocity": 0.5039370078740157,
                    "duration": 0.24166666666667425
                },
                {
                    "name": "E4",
                    "midi": 64,
                    "time": 534.7499999999993,
                    "velocity": 0.5039370078740157,
                    "duration": 0.24166666666667425
                },
                {
                    "name": "E3",
                    "midi": 52,
                    "time": 534.9999999999993,
                    "velocity": 0.5039370078740157,
                    "duration": 0.24166666666667425
                },
                {
                    "name": "E3",
                    "midi": 52,
                    "time": 535.2499999999993,
                    "velocity": 0.5039370078740157,
                    "duration": 0.24166666666667425
                },
                {
                    "name": "E2",
                    "midi": 40,
                    "time": 535.4999999999993,
                    "velocity": 0.5039370078740157,
                    "duration": 0.24166666666667425
                },
                {
                    "name": "E3",
                    "midi": 52,
                    "time": 535.7499999999993,
                    "velocity": 0.5039370078740157,
                    "duration": 0.24166666666667425
                },
                {
                    "name": "C2",
                    "midi": 36,
                    "time": 535.9999999999993,
                    "velocity": 0.5039370078740157,
                    "duration": 1.9916666666666742
                },
                {
                    "name": "C3",
                    "midi": 48,
                    "time": 536.9999999999993,
                    "velocity": 0.5039370078740157,
                    "duration": 0.9916666666666742
                },
                {
                    "name": "D2",
                    "midi": 38,
                    "time": 537.9999999999993,
                    "velocity": 0.5039370078740157,
                    "duration": 0.24166666666667425
                },
                {
                    "name": "D3",
                    "midi": 50,
                    "time": 538.2499999999993,
                    "velocity": 0.5039370078740157,
                    "duration": 0.24166666666667425
                },
                {
                    "name": "E2",
                    "midi": 40,
                    "time": 538.4999999999993,
                    "velocity": 0.5039370078740157,
                    "duration": 0.24166666666667425
                },
                {
                    "name": "E3",
                    "midi": 52,
                    "time": 538.7499999999993,
                    "velocity": 0.5039370078740157,
                    "duration": 0.24166666666667425
                },
                {
                    "name": "F2",
                    "midi": 41,
                    "time": 538.9999999999993,
                    "velocity": 0.5039370078740157,
                    "duration": 0.24166666666667425
                },
                {
                    "name": "F3",
                    "midi": 53,
                    "time": 539.2499999999993,
                    "velocity": 0.5039370078740157,
                    "duration": 0.24166666666667425
                },
                {
                    "name": "D2",
                    "midi": 38,
                    "time": 539.4999999999993,
                    "velocity": 0.5039370078740157,
                    "duration": 0.24166666666667425
                },
                {
                    "name": "D3",
                    "midi": 50,
                    "time": 539.7499999999993,
                    "velocity": 0.5039370078740157,
                    "duration": 0.24166666666667425
                },
                {
                    "name": "E2",
                    "midi": 40,
                    "time": 539.9999999999993,
                    "velocity": 0.5039370078740157,
                    "duration": 1.9916666666666742
                },
                {
                    "name": "E3",
                    "midi": 52,
                    "time": 540.9999999999993,
                    "velocity": 0.5039370078740157,
                    "duration": 0.9916666666666742
                },
                {
                    "name": "A2",
                    "midi": 45,
                    "time": 541.9999999999993,
                    "velocity": 0.5039370078740157,
                    "duration": 0.24166666666667425
                },
                {
                    "name": "A3",
                    "midi": 57,
                    "time": 542.2499999999993,
                    "velocity": 0.5039370078740157,
                    "duration": 0.24166666666667425
                },
                {
                    "name": "A3",
                    "midi": 57,
                    "time": 542.4999999999993,
                    "velocity": 0.5039370078740157,
                    "duration": 0.24166666666667425
                },
                {
                    "name": "E4",
                    "midi": 64,
                    "time": 542.7499999999993,
                    "velocity": 0.5039370078740157,
                    "duration": 0.24166666666667425
                },
                {
                    "name": "A3",
                    "midi": 57,
                    "time": 542.9999999999993,
                    "velocity": 0.5039370078740157,
                    "duration": 0.24166666666667425
                },
                {
                    "name": "A3",
                    "midi": 57,
                    "time": 543.2499999999993,
                    "velocity": 0.5039370078740157,
                    "duration": 0.24166666666667425
                },
                {
                    "name": "A2",
                    "midi": 45,
                    "time": 543.4999999999993,
                    "velocity": 0.5039370078740157,
                    "duration": 0.24166666666667425
                },
                {
                    "name": "A2",
                    "midi": 45,
                    "time": 543.7499999999993,
                    "velocity": 0.5039370078740157,
                    "duration": 0.24166666666667425
                },
                {
                    "name": "E2",
                    "midi": 40,
                    "time": 543.9999999999993,
                    "velocity": 0.5039370078740157,
                    "duration": 1.9916666666666742
                },
                {
                    "name": "C3",
                    "midi": 48,
                    "time": 544.9999999999993,
                    "velocity": 0.5039370078740157,
                    "duration": 0.9916666666666742
                },
                {
                    "name": "F2",
                    "midi": 41,
                    "time": 545.9999999999993,
                    "velocity": 0.5039370078740157,
                    "duration": 1.9916666666666742
                },
                {
                    "name": "F3",
                    "midi": 53,
                    "time": 546.9999999999993,
                    "velocity": 0.5039370078740157,
                    "duration": 0.9916666666666742
                },
                {
                    "name": "D2",
                    "midi": 38,
                    "time": 547.9999999999993,
                    "velocity": 0.5039370078740157,
                    "duration": 1.9916666666666742
                },
                {
                    "name": "D3",
                    "midi": 50,
                    "time": 548.9999999999993,
                    "velocity": 0.5039370078740157,
                    "duration": 0.9916666666666742
                },
                {
                    "name": "G2",
                    "midi": 43,
                    "time": 549.9999999999993,
                    "velocity": 0.5039370078740157,
                    "duration": 0.9916666666666742
                },
                {
                    "name": "G3",
                    "midi": 55,
                    "time": 550.9999999999993,
                    "velocity": 0.5039370078740157,
                    "duration": 0.49166666666667425
                },
                {
                    "name": "G2",
                    "midi": 43,
                    "time": 551.4999999999993,
                    "velocity": 0.5039370078740157,
                    "duration": 0.49166666666667425
                },
                {
                    "name": "E2",
                    "midi": 40,
                    "time": 551.9999999999993,
                    "velocity": 0.5039370078740157,
                    "duration": 1.9916666666666742
                },
                {
                    "name": "E3",
                    "midi": 52,
                    "time": 552.9999999999993,
                    "velocity": 0.5039370078740157,
                    "duration": 0.9916666666666742
                },
                {
                    "name": "F2",
                    "midi": 41,
                    "time": 553.9999999999993,
                    "velocity": 0.5039370078740157,
                    "duration": 0.24166666666667425
                },
                {
                    "name": "F3",
                    "midi": 53,
                    "time": 554.2499999999993,
                    "velocity": 0.5039370078740157,
                    "duration": 0.24166666666667425
                },
                {
                    "name": "G2",
                    "midi": 43,
                    "time": 554.4999999999993,
                    "velocity": 0.5039370078740157,
                    "duration": 0.24166666666667425
                },
                {
                    "name": "G3",
                    "midi": 55,
                    "time": 554.7499999999993,
                    "velocity": 0.5039370078740157,
                    "duration": 0.24166666666667425
                },
                {
                    "name": "A2",
                    "midi": 45,
                    "time": 554.9999999999993,
                    "velocity": 0.5039370078740157,
                    "duration": 0.24166666666667425
                },
                {
                    "name": "A3",
                    "midi": 57,
                    "time": 555.2499999999993,
                    "velocity": 0.5039370078740157,
                    "duration": 0.24166666666667425
                },
                {
                    "name": "F2",
                    "midi": 41,
                    "time": 555.4999999999993,
                    "velocity": 0.5039370078740157,
                    "duration": 0.24166666666667425
                },
                {
                    "name": "F3",
                    "midi": 53,
                    "time": 555.7499999999993,
                    "velocity": 0.5039370078740157,
                    "duration": 0.24166666666667425
                },
                {
                    "name": "G2",
                    "midi": 43,
                    "time": 555.9999999999993,
                    "velocity": 0.5039370078740157,
                    "duration": 1.9916666666666742
                },
                {
                    "name": "G3",
                    "midi": 55,
                    "time": 556.9999999999993,
                    "velocity": 0.5039370078740157,
                    "duration": 0.9916666666666742
                },
                {
                    "name": "C3",
                    "midi": 48,
                    "time": 557.9999999999993,
                    "velocity": 0.5039370078740157,
                    "duration": 0.24166666666667425
                },
                {
                    "name": "G3",
                    "midi": 55,
                    "time": 558.2499999999993,
                    "velocity": 0.5039370078740157,
                    "duration": 0.24166666666667425
                },
                {
                    "name": "G3",
                    "midi": 55,
                    "time": 558.4999999999993,
                    "velocity": 0.5039370078740157,
                    "duration": 0.24166666666667425
                },
                {
                    "name": "C4",
                    "midi": 60,
                    "time": 558.7499999999993,
                    "velocity": 0.5039370078740157,
                    "duration": 0.24166666666667425
                },
                {
                    "name": "G3",
                    "midi": 55,
                    "time": 558.9999999999993,
                    "velocity": 0.5039370078740157,
                    "duration": 0.24166666666667425
                },
                {
                    "name": "G3",
                    "midi": 55,
                    "time": 559.2499999999993,
                    "velocity": 0.5039370078740157,
                    "duration": 0.24166666666667425
                },
                {
                    "name": "C3",
                    "midi": 48,
                    "time": 559.4999999999993,
                    "velocity": 0.5039370078740157,
                    "duration": 0.24166666666667425
                },
                {
                    "name": "C3",
                    "midi": 48,
                    "time": 559.7499999999993,
                    "velocity": 0.5039370078740157,
                    "duration": 0.24166666666667425
                },
                {
                    "name": "C2",
                    "midi": 36,
                    "time": 559.9999999999993,
                    "velocity": 0.5039370078740157,
                    "duration": 0.9916666666666742
                },
                {
                    "name": "C3",
                    "midi": 48,
                    "time": 560.9999999999993,
                    "velocity": 0.5039370078740157,
                    "duration": 0.49166666666667425
                },
                {
                    "name": "C3",
                    "midi": 48,
                    "time": 560.9999999999993,
                    "velocity": 0.5039370078740157,
                    "duration": 0.9916666666666742
                },
                {
                    "name": "G3",
                    "midi": 55,
                    "time": 561.4999999999993,
                    "velocity": 0.5039370078740157,
                    "duration": 0.9916666666666742
                },
                {
                    "name": "G2",
                    "midi": 43,
                    "time": 561.9999999999993,
                    "velocity": 0.5039370078740157,
                    "duration": 0.9916666666666742
                },
                {
                    "name": "D3",
                    "midi": 50,
                    "time": 562.4999999999993,
                    "velocity": 0.5039370078740157,
                    "duration": 0.9916666666666742
                },
                {
                    "name": "G#2",
                    "midi": 44,
                    "time": 562.9999999999993,
                    "velocity": 0.5039370078740157,
                    "duration": 0.9916666666666742
                },
                {
                    "name": "E3",
                    "midi": 52,
                    "time": 563.4999999999993,
                    "velocity": 0.5039370078740157,
                    "duration": 1.4916666666666742
                },
                {
                    "name": "A2",
                    "midi": 45,
                    "time": 563.9999999999993,
                    "velocity": 0.5039370078740157,
                    "duration": 0.9916666666666742
                },
                {
                    "name": "E3",
                    "midi": 52,
                    "time": 564.9999999999993,
                    "velocity": 0.5039370078740157,
                    "duration": 0.49166666666667425
                },
                {
                    "name": "E3",
                    "midi": 52,
                    "time": 564.9999999999993,
                    "velocity": 0.5039370078740157,
                    "duration": 0.9916666666666742
                },
                {
                    "name": "A2",
                    "midi": 45,
                    "time": 565.4999999999993,
                    "velocity": 0.5039370078740157,
                    "duration": 0.49166666666667425
                },
                {
                    "name": "E2",
                    "midi": 40,
                    "time": 565.9999999999993,
                    "velocity": 0.5039370078740157,
                    "duration": 0.24166666666667425
                },
                {
                    "name": "E3",
                    "midi": 52,
                    "time": 566.2499999999993,
                    "velocity": 0.5039370078740157,
                    "duration": 0.24166666666667425
                },
                {
                    "name": "E3",
                    "midi": 52,
                    "time": 566.4999999999993,
                    "velocity": 0.5039370078740157,
                    "duration": 0.24166666666667425
                },
                {
                    "name": "E4",
                    "midi": 64,
                    "time": 566.7499999999993,
                    "velocity": 0.5039370078740157,
                    "duration": 0.24166666666667425
                },
                {
                    "name": "E3",
                    "midi": 52,
                    "time": 566.9999999999993,
                    "velocity": 0.5039370078740157,
                    "duration": 0.24166666666667425
                },
                {
                    "name": "E3",
                    "midi": 52,
                    "time": 567.2499999999993,
                    "velocity": 0.5039370078740157,
                    "duration": 0.24166666666667425
                },
                {
                    "name": "E2",
                    "midi": 40,
                    "time": 567.4999999999993,
                    "velocity": 0.5039370078740157,
                    "duration": 0.24166666666667425
                },
                {
                    "name": "E3",
                    "midi": 52,
                    "time": 567.7499999999993,
                    "velocity": 0.5039370078740157,
                    "duration": 0.24166666666667425
                },
                {
                    "name": "C2",
                    "midi": 36,
                    "time": 567.9999999999993,
                    "velocity": 0.5039370078740157,
                    "duration": 1.9916666666666742
                },
                {
                    "name": "C3",
                    "midi": 48,
                    "time": 568.9999999999993,
                    "velocity": 0.5039370078740157,
                    "duration": 0.9916666666666742
                },
                {
                    "name": "D2",
                    "midi": 38,
                    "time": 569.9999999999993,
                    "velocity": 0.5039370078740157,
                    "duration": 0.24166666666667425
                },
                {
                    "name": "D3",
                    "midi": 50,
                    "time": 570.2499999999993,
                    "velocity": 0.5039370078740157,
                    "duration": 0.24166666666667425
                },
                {
                    "name": "E2",
                    "midi": 40,
                    "time": 570.4999999999993,
                    "velocity": 0.5039370078740157,
                    "duration": 0.24166666666667425
                },
                {
                    "name": "E3",
                    "midi": 52,
                    "time": 570.7499999999993,
                    "velocity": 0.5039370078740157,
                    "duration": 0.24166666666667425
                },
                {
                    "name": "F2",
                    "midi": 41,
                    "time": 570.9999999999993,
                    "velocity": 0.5039370078740157,
                    "duration": 0.24166666666667425
                },
                {
                    "name": "F3",
                    "midi": 53,
                    "time": 571.2499999999993,
                    "velocity": 0.5039370078740157,
                    "duration": 0.24166666666667425
                },
                {
                    "name": "D2",
                    "midi": 38,
                    "time": 571.4999999999993,
                    "velocity": 0.5039370078740157,
                    "duration": 0.24166666666667425
                },
                {
                    "name": "D3",
                    "midi": 50,
                    "time": 571.7499999999993,
                    "velocity": 0.5039370078740157,
                    "duration": 0.24166666666667425
                },
                {
                    "name": "E2",
                    "midi": 40,
                    "time": 571.9999999999993,
                    "velocity": 0.5039370078740157,
                    "duration": 1.9916666666666742
                },
                {
                    "name": "E3",
                    "midi": 52,
                    "time": 572.9999999999993,
                    "velocity": 0.5039370078740157,
                    "duration": 0.9916666666666742
                },
                {
                    "name": "A2",
                    "midi": 45,
                    "time": 573.9999999999993,
                    "velocity": 0.5039370078740157,
                    "duration": 1.9916666666666742
                },
                {
                    "name": "A1",
                    "midi": 33,
                    "time": 573.9999999999993,
                    "velocity": 0.5039370078740157,
                    "duration": 1.9916666666666742
                },
                {
                    "name": "A2",
                    "midi": 45,
                    "time": 575.9999999999993,
                    "velocity": 0.5039370078740157,
                    "duration": 0.24166666666667425
                },
                {
                    "name": "A3",
                    "midi": 57,
                    "time": 576.2499999999993,
                    "velocity": 0.5039370078740157,
                    "duration": 0.24166666666667425
                },
                {
                    "name": "A3",
                    "midi": 57,
                    "time": 576.4999999999993,
                    "velocity": 0.5039370078740157,
                    "duration": 0.24166666666667425
                },
                {
                    "name": "C4",
                    "midi": 60,
                    "time": 576.7499999999993,
                    "velocity": 0.5039370078740157,
                    "duration": 0.24166666666667425
                },
                {
                    "name": "A3",
                    "midi": 57,
                    "time": 576.9999999999993,
                    "velocity": 0.5039370078740157,
                    "duration": 0.24166666666667425
                },
                {
                    "name": "A3",
                    "midi": 57,
                    "time": 577.2499999999993,
                    "velocity": 0.5039370078740157,
                    "duration": 0.24166666666667425
                },
                {
                    "name": "A2",
                    "midi": 45,
                    "time": 577.4999999999993,
                    "velocity": 0.5039370078740157,
                    "duration": 0.24166666666667425
                },
                {
                    "name": "A3",
                    "midi": 57,
                    "time": 577.7499999999993,
                    "velocity": 0.5039370078740157,
                    "duration": 0.24166666666667425
                },
                {
                    "name": "D2",
                    "midi": 38,
                    "time": 577.9999999999993,
                    "velocity": 0.5039370078740157,
                    "duration": 0.24166666666667425
                },
                {
                    "name": "D3",
                    "midi": 50,
                    "time": 578.2499999999993,
                    "velocity": 0.5039370078740157,
                    "duration": 0.24166666666667425
                },
                {
                    "name": "D3",
                    "midi": 50,
                    "time": 578.4999999999993,
                    "velocity": 0.5039370078740157,
                    "duration": 0.24166666666667425
                },
                {
                    "name": "F3",
                    "midi": 53,
                    "time": 578.7499999999993,
                    "velocity": 0.5039370078740157,
                    "duration": 0.24166666666667425
                },
                {
                    "name": "D3",
                    "midi": 50,
                    "time": 578.9999999999993,
                    "velocity": 0.5039370078740157,
                    "duration": 0.24166666666667425
                },
                {
                    "name": "D3",
                    "midi": 50,
                    "time": 579.2499999999993,
                    "velocity": 0.5039370078740157,
                    "duration": 0.24166666666667425
                },
                {
                    "name": "D2",
                    "midi": 38,
                    "time": 579.4999999999993,
                    "velocity": 0.5039370078740157,
                    "duration": 0.24166666666667425
                },
                {
                    "name": "D3",
                    "midi": 50,
                    "time": 579.7499999999993,
                    "velocity": 0.5039370078740157,
                    "duration": 0.24166666666667425
                },
                {
                    "name": "E2",
                    "midi": 40,
                    "time": 579.9999999999993,
                    "velocity": 0.5039370078740157,
                    "duration": 0.24166666666667425
                },
                {
                    "name": "E3",
                    "midi": 52,
                    "time": 580.2499999999993,
                    "velocity": 0.5039370078740157,
                    "duration": 0.24166666666667425
                },
                {
                    "name": "E3",
                    "midi": 52,
                    "time": 580.4999999999993,
                    "velocity": 0.5039370078740157,
                    "duration": 0.24166666666667425
                },
                {
                    "name": "B3",
                    "midi": 59,
                    "time": 580.7499999999993,
                    "velocity": 0.5039370078740157,
                    "duration": 0.24166666666667425
                },
                {
                    "name": "E3",
                    "midi": 52,
                    "time": 580.9999999999993,
                    "velocity": 0.5039370078740157,
                    "duration": 0.24166666666667425
                },
                {
                    "name": "E3",
                    "midi": 52,
                    "time": 581.2499999999993,
                    "velocity": 0.5039370078740157,
                    "duration": 0.24166666666667425
                },
                {
                    "name": "E2",
                    "midi": 40,
                    "time": 581.4999999999993,
                    "velocity": 0.5039370078740157,
                    "duration": 0.24166666666667425
                },
                {
                    "name": "E3",
                    "midi": 52,
                    "time": 581.7499999999993,
                    "velocity": 0.5039370078740157,
                    "duration": 0.24166666666667425
                },
                {
                    "name": "A1",
                    "midi": 33,
                    "time": 581.9999999999993,
                    "velocity": 0.5039370078740157,
                    "duration": 0.24166666666667425
                },
                {
                    "name": "A2",
                    "midi": 45,
                    "time": 582.2499999999993,
                    "velocity": 0.5039370078740157,
                    "duration": 0.24166666666667425
                },
                {
                    "name": "A2",
                    "midi": 45,
                    "time": 582.4999999999993,
                    "velocity": 0.5039370078740157,
                    "duration": 0.24166666666667425
                },
                {
                    "name": "E3",
                    "midi": 52,
                    "time": 582.7499999999993,
                    "velocity": 0.5039370078740157,
                    "duration": 0.24166666666667425
                },
                {
                    "name": "A2",
                    "midi": 45,
                    "time": 582.9999999999993,
                    "velocity": 0.5039370078740157,
                    "duration": 0.24166666666667425
                },
                {
                    "name": "A2",
                    "midi": 45,
                    "time": 583.2499999999993,
                    "velocity": 0.5039370078740157,
                    "duration": 0.24166666666667425
                },
                {
                    "name": "A1",
                    "midi": 33,
                    "time": 583.4999999999993,
                    "velocity": 0.5039370078740157,
                    "duration": 0.24166666666667425
                },
                {
                    "name": "A2",
                    "midi": 45,
                    "time": 583.7499999999993,
                    "velocity": 0.5039370078740157,
                    "duration": 0.24166666666667425
                },
                {
                    "name": "A2",
                    "midi": 45,
                    "time": 583.9999999999993,
                    "velocity": 0.5039370078740157,
                    "duration": 0.24166666666667425
                },
                {
                    "name": "E3",
                    "midi": 52,
                    "time": 584.2499999999993,
                    "velocity": 0.5039370078740157,
                    "duration": 0.24166666666667425
                },
                {
                    "name": "E3",
                    "midi": 52,
                    "time": 584.4999999999993,
                    "velocity": 0.5039370078740157,
                    "duration": 0.24166666666667425
                },
                {
                    "name": "A3",
                    "midi": 57,
                    "time": 584.7499999999993,
                    "velocity": 0.5039370078740157,
                    "duration": 0.24166666666667425
                },
                {
                    "name": "G#2",
                    "midi": 44,
                    "time": 584.9999999999993,
                    "velocity": 0.5039370078740157,
                    "duration": 0.24166666666667425
                },
                {
                    "name": "E3",
                    "midi": 52,
                    "time": 585.2499999999993,
                    "velocity": 0.5039370078740157,
                    "duration": 0.24166666666667425
                },
                {
                    "name": "E3",
                    "midi": 52,
                    "time": 585.4999999999993,
                    "velocity": 0.5039370078740157,
                    "duration": 0.24166666666667425
                },
                {
                    "name": "B3",
                    "midi": 59,
                    "time": 585.7499999999993,
                    "velocity": 0.5039370078740157,
                    "duration": 0.24166666666667425
                },
                {
                    "name": "A2",
                    "midi": 45,
                    "time": 585.9999999999993,
                    "velocity": 0.5039370078740157,
                    "duration": 0.24166666666667425
                },
                {
                    "name": "A3",
                    "midi": 57,
                    "time": 586.2499999999993,
                    "velocity": 0.5039370078740157,
                    "duration": 0.24166666666667425
                },
                {
                    "name": "A3",
                    "midi": 57,
                    "time": 586.4999999999993,
                    "velocity": 0.5039370078740157,
                    "duration": 0.24166666666667425
                },
                {
                    "name": "E4",
                    "midi": 64,
                    "time": 586.7499999999993,
                    "velocity": 0.5039370078740157,
                    "duration": 0.24166666666667425
                },
                {
                    "name": "A3",
                    "midi": 57,
                    "time": 586.9999999999993,
                    "velocity": 0.5039370078740157,
                    "duration": 0.24166666666667425
                },
                {
                    "name": "A3",
                    "midi": 57,
                    "time": 587.2499999999993,
                    "velocity": 0.5039370078740157,
                    "duration": 0.24166666666667425
                },
                {
                    "name": "A2",
                    "midi": 45,
                    "time": 587.4999999999993,
                    "velocity": 0.5039370078740157,
                    "duration": 0.24166666666667425
                },
                {
                    "name": "A3",
                    "midi": 57,
                    "time": 587.7499999999993,
                    "velocity": 0.5039370078740157,
                    "duration": 0.24166666666667425
                },
                {
                    "name": "D2",
                    "midi": 38,
                    "time": 587.9999999999993,
                    "velocity": 0.5039370078740157,
                    "duration": 0.24166666666667425
                },
                {
                    "name": "D3",
                    "midi": 50,
                    "time": 588.2499999999993,
                    "velocity": 0.5039370078740157,
                    "duration": 0.24166666666667425
                },
                {
                    "name": "D3",
                    "midi": 50,
                    "time": 588.4999999999993,
                    "velocity": 0.5039370078740157,
                    "duration": 0.24166666666667425
                },
                {
                    "name": "F3",
                    "midi": 53,
                    "time": 588.7499999999993,
                    "velocity": 0.5039370078740157,
                    "duration": 0.24166666666667425
                },
                {
                    "name": "D3",
                    "midi": 50,
                    "time": 588.9999999999993,
                    "velocity": 0.5039370078740157,
                    "duration": 0.24166666666667425
                },
                {
                    "name": "D3",
                    "midi": 50,
                    "time": 589.2499999999993,
                    "velocity": 0.5039370078740157,
                    "duration": 0.24166666666667425
                },
                {
                    "name": "D2",
                    "midi": 38,
                    "time": 589.4999999999993,
                    "velocity": 0.5039370078740157,
                    "duration": 0.24166666666667425
                },
                {
                    "name": "D3",
                    "midi": 50,
                    "time": 589.7499999999993,
                    "velocity": 0.5039370078740157,
                    "duration": 0.24166666666667425
                },
                {
                    "name": "E2",
                    "midi": 40,
                    "time": 589.9999999999993,
                    "velocity": 0.5039370078740157,
                    "duration": 0.24166666666667425
                },
                {
                    "name": "E3",
                    "midi": 52,
                    "time": 590.2499999999993,
                    "velocity": 0.5039370078740157,
                    "duration": 0.24166666666667425
                },
                {
                    "name": "E3",
                    "midi": 52,
                    "time": 590.4999999999993,
                    "velocity": 0.5039370078740157,
                    "duration": 0.24166666666667425
                },
                {
                    "name": "B3",
                    "midi": 59,
                    "time": 590.7499999999993,
                    "velocity": 0.5039370078740157,
                    "duration": 0.24166666666667425
                },
                {
                    "name": "E3",
                    "midi": 52,
                    "time": 590.9999999999993,
                    "velocity": 0.5039370078740157,
                    "duration": 0.24166666666667425
                },
                {
                    "name": "E3",
                    "midi": 52,
                    "time": 591.2499999999993,
                    "velocity": 0.5039370078740157,
                    "duration": 0.24166666666667425
                },
                {
                    "name": "E2",
                    "midi": 40,
                    "time": 591.4999999999993,
                    "velocity": 0.5039370078740157,
                    "duration": 0.24166666666667425
                },
                {
                    "name": "E3",
                    "midi": 52,
                    "time": 591.7499999999993,
                    "velocity": 0.5039370078740157,
                    "duration": 0.24166666666667425
                },
                {
                    "name": "A2",
                    "midi": 45,
                    "time": 591.9999999999993,
                    "velocity": 0.5039370078740157,
                    "duration": 0.24166666666667425
                },
                {
                    "name": "A3",
                    "midi": 57,
                    "time": 592.2499999999993,
                    "velocity": 0.5039370078740157,
                    "duration": 0.24166666666667425
                },
                {
                    "name": "A3",
                    "midi": 57,
                    "time": 592.4999999999993,
                    "velocity": 0.5039370078740157,
                    "duration": 0.24166666666667425
                },
                {
                    "name": "C4",
                    "midi": 60,
                    "time": 592.7499999999993,
                    "velocity": 0.5039370078740157,
                    "duration": 0.24166666666667425
                },
                {
                    "name": "A3",
                    "midi": 57,
                    "time": 592.9999999999993,
                    "velocity": 0.5039370078740157,
                    "duration": 0.24166666666667425
                },
                {
                    "name": "A3",
                    "midi": 57,
                    "time": 593.2499999999993,
                    "velocity": 0.5039370078740157,
                    "duration": 0.24166666666667425
                },
                {
                    "name": "A2",
                    "midi": 45,
                    "time": 593.4999999999993,
                    "velocity": 0.5039370078740157,
                    "duration": 0.24166666666667425
                },
                {
                    "name": "A3",
                    "midi": 57,
                    "time": 593.7499999999993,
                    "velocity": 0.5039370078740157,
                    "duration": 0.24166666666667425
                },
                {
                    "name": "D2",
                    "midi": 38,
                    "time": 593.9999999999993,
                    "velocity": 0.5039370078740157,
                    "duration": 0.24166666666667425
                },
                {
                    "name": "D3",
                    "midi": 50,
                    "time": 594.2499999999993,
                    "velocity": 0.5039370078740157,
                    "duration": 0.24166666666667425
                },
                {
                    "name": "D3",
                    "midi": 50,
                    "time": 594.4999999999993,
                    "velocity": 0.5039370078740157,
                    "duration": 0.24166666666667425
                },
                {
                    "name": "F3",
                    "midi": 53,
                    "time": 594.7499999999993,
                    "velocity": 0.5039370078740157,
                    "duration": 0.24166666666667425
                },
                {
                    "name": "D3",
                    "midi": 50,
                    "time": 594.9999999999993,
                    "velocity": 0.5039370078740157,
                    "duration": 0.24166666666667425
                },
                {
                    "name": "D3",
                    "midi": 50,
                    "time": 595.2499999999993,
                    "velocity": 0.5039370078740157,
                    "duration": 0.24166666666667425
                },
                {
                    "name": "D2",
                    "midi": 38,
                    "time": 595.4999999999993,
                    "velocity": 0.5039370078740157,
                    "duration": 0.24166666666667425
                },
                {
                    "name": "D3",
                    "midi": 50,
                    "time": 595.7499999999993,
                    "velocity": 0.5039370078740157,
                    "duration": 0.24166666666667425
                },
                {
                    "name": "E2",
                    "midi": 40,
                    "time": 595.9999999999993,
                    "velocity": 0.5039370078740157,
                    "duration": 0.24166666666667425
                },
                {
                    "name": "E3",
                    "midi": 52,
                    "time": 596.2499999999993,
                    "velocity": 0.5039370078740157,
                    "duration": 0.24166666666667425
                },
                {
                    "name": "E3",
                    "midi": 52,
                    "time": 596.4999999999993,
                    "velocity": 0.5039370078740157,
                    "duration": 0.24166666666667425
                },
                {
                    "name": "B3",
                    "midi": 59,
                    "time": 596.7499999999993,
                    "velocity": 0.5039370078740157,
                    "duration": 0.24166666666667425
                },
                {
                    "name": "E3",
                    "midi": 52,
                    "time": 596.9999999999993,
                    "velocity": 0.5039370078740157,
                    "duration": 0.24166666666667425
                },
                {
                    "name": "E3",
                    "midi": 52,
                    "time": 597.2499999999993,
                    "velocity": 0.5039370078740157,
                    "duration": 0.24166666666667425
                },
                {
                    "name": "E2",
                    "midi": 40,
                    "time": 597.4999999999993,
                    "velocity": 0.5039370078740157,
                    "duration": 0.24166666666667425
                },
                {
                    "name": "E3",
                    "midi": 52,
                    "time": 597.7499999999993,
                    "velocity": 0.5039370078740157,
                    "duration": 0.24166666666667425
                },
                {
                    "name": "A1",
                    "midi": 33,
                    "time": 597.9999999999993,
                    "velocity": 0.5039370078740157,
                    "duration": 0.24166666666667425
                },
                {
                    "name": "A2",
                    "midi": 45,
                    "time": 598.2499999999993,
                    "velocity": 0.5039370078740157,
                    "duration": 0.24166666666667425
                },
                {
                    "name": "A2",
                    "midi": 45,
                    "time": 598.4999999999993,
                    "velocity": 0.5039370078740157,
                    "duration": 0.24166666666667425
                },
                {
                    "name": "E3",
                    "midi": 52,
                    "time": 598.7499999999993,
                    "velocity": 0.5039370078740157,
                    "duration": 0.24166666666667425
                },
                {
                    "name": "A2",
                    "midi": 45,
                    "time": 598.9999999999993,
                    "velocity": 0.5039370078740157,
                    "duration": 0.24166666666667425
                },
                {
                    "name": "A2",
                    "midi": 45,
                    "time": 599.2499999999993,
                    "velocity": 0.5039370078740157,
                    "duration": 0.24166666666667425
                },
                {
                    "name": "A1",
                    "midi": 33,
                    "time": 599.4999999999993,
                    "velocity": 0.5039370078740157,
                    "duration": 0.24166666666667425
                },
                {
                    "name": "A2",
                    "midi": 45,
                    "time": 599.7499999999993,
                    "velocity": 0.5039370078740157,
                    "duration": 0.24166666666667425
                },
                {
                    "name": "A2",
                    "midi": 45,
                    "time": 599.9999999999993,
                    "velocity": 0.5039370078740157,
                    "duration": 0.24166666666667425
                },
                {
                    "name": "E3",
                    "midi": 52,
                    "time": 600.2499999999993,
                    "velocity": 0.5039370078740157,
                    "duration": 0.24166666666667425
                },
                {
                    "name": "E3",
                    "midi": 52,
                    "time": 600.4999999999993,
                    "velocity": 0.5039370078740157,
                    "duration": 0.24166666666667425
                },
                {
                    "name": "A3",
                    "midi": 57,
                    "time": 600.7499999999993,
                    "velocity": 0.5039370078740157,
                    "duration": 0.24166666666667425
                },
                {
                    "name": "G#2",
                    "midi": 44,
                    "time": 600.9999999999993,
                    "velocity": 0.5039370078740157,
                    "duration": 0.24166666666667425
                },
                {
                    "name": "E3",
                    "midi": 52,
                    "time": 601.2499999999993,
                    "velocity": 0.5039370078740157,
                    "duration": 0.24166666666667425
                },
                {
                    "name": "E3",
                    "midi": 52,
                    "time": 601.4999999999993,
                    "velocity": 0.5039370078740157,
                    "duration": 0.24166666666667425
                },
                {
                    "name": "B3",
                    "midi": 59,
                    "time": 601.7499999999993,
                    "velocity": 0.5039370078740157,
                    "duration": 0.24166666666667425
                },
                {
                    "name": "A2",
                    "midi": 45,
                    "time": 601.9999999999993,
                    "velocity": 0.5039370078740157,
                    "duration": 0.24166666666667425
                },
                {
                    "name": "A3",
                    "midi": 57,
                    "time": 602.2499999999993,
                    "velocity": 0.5039370078740157,
                    "duration": 0.24166666666667425
                },
                {
                    "name": "A3",
                    "midi": 57,
                    "time": 602.4999999999993,
                    "velocity": 0.5039370078740157,
                    "duration": 0.24166666666667425
                },
                {
                    "name": "E4",
                    "midi": 64,
                    "time": 602.7499999999993,
                    "velocity": 0.5039370078740157,
                    "duration": 0.24166666666667425
                },
                {
                    "name": "A3",
                    "midi": 57,
                    "time": 602.9999999999993,
                    "velocity": 0.5039370078740157,
                    "duration": 0.24166666666667425
                },
                {
                    "name": "A3",
                    "midi": 57,
                    "time": 603.2499999999993,
                    "velocity": 0.5039370078740157,
                    "duration": 0.24166666666667425
                },
                {
                    "name": "A2",
                    "midi": 45,
                    "time": 603.4999999999993,
                    "velocity": 0.5039370078740157,
                    "duration": 0.24166666666667425
                },
                {
                    "name": "A3",
                    "midi": 57,
                    "time": 603.7499999999993,
                    "velocity": 0.5039370078740157,
                    "duration": 0.24166666666667425
                },
                {
                    "name": "D2",
                    "midi": 38,
                    "time": 603.9999999999993,
                    "velocity": 0.5039370078740157,
                    "duration": 0.24166666666667425
                },
                {
                    "name": "D3",
                    "midi": 50,
                    "time": 604.2499999999993,
                    "velocity": 0.5039370078740157,
                    "duration": 0.24166666666667425
                },
                {
                    "name": "D3",
                    "midi": 50,
                    "time": 604.4999999999993,
                    "velocity": 0.5039370078740157,
                    "duration": 0.24166666666667425
                },
                {
                    "name": "F3",
                    "midi": 53,
                    "time": 604.7499999999993,
                    "velocity": 0.5039370078740157,
                    "duration": 0.24166666666667425
                },
                {
                    "name": "D3",
                    "midi": 50,
                    "time": 604.9999999999993,
                    "velocity": 0.5039370078740157,
                    "duration": 0.24166666666667425
                },
                {
                    "name": "D3",
                    "midi": 50,
                    "time": 605.2499999999993,
                    "velocity": 0.5039370078740157,
                    "duration": 0.24166666666667425
                },
                {
                    "name": "D2",
                    "midi": 38,
                    "time": 605.4999999999993,
                    "velocity": 0.5039370078740157,
                    "duration": 0.24166666666667425
                },
                {
                    "name": "D3",
                    "midi": 50,
                    "time": 605.7499999999993,
                    "velocity": 0.5039370078740157,
                    "duration": 0.24166666666667425
                },
                {
                    "name": "E2",
                    "midi": 40,
                    "time": 605.9999999999993,
                    "velocity": 0.5039370078740157,
                    "duration": 0.24166666666667425
                },
                {
                    "name": "E3",
                    "midi": 52,
                    "time": 606.2499999999993,
                    "velocity": 0.5039370078740157,
                    "duration": 0.24166666666667425
                },
                {
                    "name": "E3",
                    "midi": 52,
                    "time": 606.4999999999993,
                    "velocity": 0.5039370078740157,
                    "duration": 0.24166666666667425
                },
                {
                    "name": "B3",
                    "midi": 59,
                    "time": 606.7499999999993,
                    "velocity": 0.5039370078740157,
                    "duration": 0.24166666666667425
                },
                {
                    "name": "E3",
                    "midi": 52,
                    "time": 606.9999999999993,
                    "velocity": 0.5039370078740157,
                    "duration": 0.24166666666667425
                },
                {
                    "name": "E3",
                    "midi": 52,
                    "time": 607.2499999999993,
                    "velocity": 0.5039370078740157,
                    "duration": 0.24166666666667425
                },
                {
                    "name": "E2",
                    "midi": 40,
                    "time": 607.4999999999993,
                    "velocity": 0.5039370078740157,
                    "duration": 0.24166666666667425
                },
                {
                    "name": "E3",
                    "midi": 52,
                    "time": 607.7499999999993,
                    "velocity": 0.5039370078740157,
                    "duration": 0.24166666666667425
                },
                {
                    "name": "C2",
                    "midi": 36,
                    "time": 607.9999999999993,
                    "velocity": 0.5039370078740157,
                    "duration": 0.24166666666667425
                },
                {
                    "name": "C3",
                    "midi": 48,
                    "time": 608.2499999999993,
                    "velocity": 0.5039370078740157,
                    "duration": 0.24166666666667425
                },
                {
                    "name": "C3",
                    "midi": 48,
                    "time": 608.4999999999993,
                    "velocity": 0.5039370078740157,
                    "duration": 0.24166666666667425
                },
                {
                    "name": "G3",
                    "midi": 55,
                    "time": 608.7499999999993,
                    "velocity": 0.5039370078740157,
                    "duration": 0.24166666666667425
                },
                {
                    "name": "C3",
                    "midi": 48,
                    "time": 608.9999999999993,
                    "velocity": 0.5039370078740157,
                    "duration": 0.24166666666667425
                },
                {
                    "name": "C3",
                    "midi": 48,
                    "time": 609.2499999999993,
                    "velocity": 0.5039370078740157,
                    "duration": 0.24166666666667425
                },
                {
                    "name": "E2",
                    "midi": 40,
                    "time": 609.4999999999993,
                    "velocity": 0.5039370078740157,
                    "duration": 0.24166666666667425
                },
                {
                    "name": "C3",
                    "midi": 48,
                    "time": 609.7499999999993,
                    "velocity": 0.5039370078740157,
                    "duration": 0.24166666666667425
                },
                {
                    "name": "F2",
                    "midi": 41,
                    "time": 609.9999999999993,
                    "velocity": 0.5039370078740157,
                    "duration": 0.24166666666667425
                },
                {
                    "name": "F3",
                    "midi": 53,
                    "time": 610.2499999999993,
                    "velocity": 0.5039370078740157,
                    "duration": 0.24166666666667425
                },
                {
                    "name": "F3",
                    "midi": 53,
                    "time": 610.4999999999993,
                    "velocity": 0.5039370078740157,
                    "duration": 0.24166666666667425
                },
                {
                    "name": "A3",
                    "midi": 57,
                    "time": 610.7499999999993,
                    "velocity": 0.5039370078740157,
                    "duration": 0.24166666666667425
                },
                {
                    "name": "F3",
                    "midi": 53,
                    "time": 610.9999999999993,
                    "velocity": 0.5039370078740157,
                    "duration": 0.24166666666667425
                },
                {
                    "name": "F3",
                    "midi": 53,
                    "time": 611.2499999999993,
                    "velocity": 0.5039370078740157,
                    "duration": 0.24166666666667425
                },
                {
                    "name": "F2",
                    "midi": 41,
                    "time": 611.4999999999993,
                    "velocity": 0.5039370078740157,
                    "duration": 0.24166666666667425
                },
                {
                    "name": "F3",
                    "midi": 53,
                    "time": 611.7499999999993,
                    "velocity": 0.5039370078740157,
                    "duration": 0.24166666666667425
                },
                {
                    "name": "D2",
                    "midi": 38,
                    "time": 611.9999999999993,
                    "velocity": 0.5039370078740157,
                    "duration": 0.24166666666667425
                },
                {
                    "name": "D3",
                    "midi": 50,
                    "time": 612.2499999999993,
                    "velocity": 0.5039370078740157,
                    "duration": 0.24166666666667425
                },
                {
                    "name": "D3",
                    "midi": 50,
                    "time": 612.4999999999993,
                    "velocity": 0.5039370078740157,
                    "duration": 0.24166666666667425
                },
                {
                    "name": "F3",
                    "midi": 53,
                    "time": 612.7499999999993,
                    "velocity": 0.5039370078740157,
                    "duration": 0.24166666666667425
                },
                {
                    "name": "D3",
                    "midi": 50,
                    "time": 612.9999999999993,
                    "velocity": 0.5039370078740157,
                    "duration": 0.24166666666667425
                },
                {
                    "name": "D3",
                    "midi": 50,
                    "time": 613.2499999999993,
                    "velocity": 0.5039370078740157,
                    "duration": 0.24166666666667425
                },
                {
                    "name": "D2",
                    "midi": 38,
                    "time": 613.4999999999993,
                    "velocity": 0.5039370078740157,
                    "duration": 0.24166666666667425
                },
                {
                    "name": "D3",
                    "midi": 50,
                    "time": 613.7499999999993,
                    "velocity": 0.5039370078740157,
                    "duration": 0.24166666666667425
                },
                {
                    "name": "G2",
                    "midi": 43,
                    "time": 613.9999999999993,
                    "velocity": 0.5039370078740157,
                    "duration": 0.24166666666667425
                },
                {
                    "name": "G3",
                    "midi": 55,
                    "time": 614.2499999999993,
                    "velocity": 0.5039370078740157,
                    "duration": 0.24166666666667425
                },
                {
                    "name": "G3",
                    "midi": 55,
                    "time": 614.4999999999993,
                    "velocity": 0.5039370078740157,
                    "duration": 0.24166666666667425
                },
                {
                    "name": "D4",
                    "midi": 62,
                    "time": 614.7499999999993,
                    "velocity": 0.5039370078740157,
                    "duration": 0.24166666666667425
                },
                {
                    "name": "G3",
                    "midi": 55,
                    "time": 614.9999999999993,
                    "velocity": 0.5039370078740157,
                    "duration": 0.24166666666667425
                },
                {
                    "name": "G3",
                    "midi": 55,
                    "time": 615.2499999999993,
                    "velocity": 0.5039370078740157,
                    "duration": 0.24166666666667425
                },
                {
                    "name": "G2",
                    "midi": 43,
                    "time": 615.4999999999993,
                    "velocity": 0.5039370078740157,
                    "duration": 0.24166666666667425
                },
                {
                    "name": "G3",
                    "midi": 55,
                    "time": 615.7499999999993,
                    "velocity": 0.5039370078740157,
                    "duration": 0.24166666666667425
                },
                {
                    "name": "E2",
                    "midi": 40,
                    "time": 615.9999999999993,
                    "velocity": 0.5039370078740157,
                    "duration": 0.24166666666667425
                },
                {
                    "name": "E3",
                    "midi": 52,
                    "time": 616.2499999999993,
                    "velocity": 0.5039370078740157,
                    "duration": 0.24166666666667425
                },
                {
                    "name": "E3",
                    "midi": 52,
                    "time": 616.4999999999993,
                    "velocity": 0.5039370078740157,
                    "duration": 0.24166666666667425
                },
                {
                    "name": "G3",
                    "midi": 55,
                    "time": 616.7499999999993,
                    "velocity": 0.5039370078740157,
                    "duration": 0.24166666666667425
                },
                {
                    "name": "E3",
                    "midi": 52,
                    "time": 616.9999999999993,
                    "velocity": 0.5039370078740157,
                    "duration": 0.24166666666667425
                },
                {
                    "name": "E3",
                    "midi": 52,
                    "time": 617.2499999999993,
                    "velocity": 0.5039370078740157,
                    "duration": 0.24166666666667425
                },
                {
                    "name": "E2",
                    "midi": 40,
                    "time": 617.4999999999993,
                    "velocity": 0.5039370078740157,
                    "duration": 0.24166666666667425
                },
                {
                    "name": "E3",
                    "midi": 52,
                    "time": 617.7499999999993,
                    "velocity": 0.5039370078740157,
                    "duration": 0.24166666666667425
                },
                {
                    "name": "F2",
                    "midi": 41,
                    "time": 617.9999999999993,
                    "velocity": 0.5039370078740157,
                    "duration": 0.24166666666667425
                },
                {
                    "name": "F3",
                    "midi": 53,
                    "time": 618.2499999999993,
                    "velocity": 0.5039370078740157,
                    "duration": 0.24166666666667425
                },
                {
                    "name": "F3",
                    "midi": 53,
                    "time": 618.4999999999993,
                    "velocity": 0.5039370078740157,
                    "duration": 0.24166666666667425
                },
                {
                    "name": "A3",
                    "midi": 57,
                    "time": 618.7499999999993,
                    "velocity": 0.5039370078740157,
                    "duration": 0.24166666666667425
                },
                {
                    "name": "F3",
                    "midi": 53,
                    "time": 618.9999999999993,
                    "velocity": 0.5039370078740157,
                    "duration": 0.24166666666667425
                },
                {
                    "name": "F3",
                    "midi": 53,
                    "time": 619.2499999999993,
                    "velocity": 0.5039370078740157,
                    "duration": 0.24166666666667425
                },
                {
                    "name": "F2",
                    "midi": 41,
                    "time": 619.4999999999993,
                    "velocity": 0.5039370078740157,
                    "duration": 0.24166666666667425
                },
                {
                    "name": "F3",
                    "midi": 53,
                    "time": 619.7499999999993,
                    "velocity": 0.5039370078740157,
                    "duration": 0.24166666666667425
                },
                {
                    "name": "G2",
                    "midi": 43,
                    "time": 619.9999999999993,
                    "velocity": 0.5039370078740157,
                    "duration": 0.24166666666667425
                },
                {
                    "name": "G3",
                    "midi": 55,
                    "time": 620.2499999999993,
                    "velocity": 0.5039370078740157,
                    "duration": 0.24166666666667425
                },
                {
                    "name": "G3",
                    "midi": 55,
                    "time": 620.4999999999993,
                    "velocity": 0.5039370078740157,
                    "duration": 0.24166666666667425
                },
                {
                    "name": "D4",
                    "midi": 62,
                    "time": 620.7499999999993,
                    "velocity": 0.5039370078740157,
                    "duration": 0.24166666666667425
                },
                {
                    "name": "G3",
                    "midi": 55,
                    "time": 620.9999999999993,
                    "velocity": 0.5039370078740157,
                    "duration": 0.24166666666667425
                },
                {
                    "name": "G3",
                    "midi": 55,
                    "time": 621.2499999999993,
                    "velocity": 0.5039370078740157,
                    "duration": 0.24166666666667425
                },
                {
                    "name": "G2",
                    "midi": 43,
                    "time": 621.4999999999993,
                    "velocity": 0.5039370078740157,
                    "duration": 0.24166666666667425
                },
                {
                    "name": "G3",
                    "midi": 55,
                    "time": 621.7499999999993,
                    "velocity": 0.5039370078740157,
                    "duration": 0.24166666666667425
                },
                {
                    "name": "C2",
                    "midi": 36,
                    "time": 621.9999999999993,
                    "velocity": 0.5039370078740157,
                    "duration": 0.24166666666667425
                },
                {
                    "name": "C3",
                    "midi": 48,
                    "time": 622.2499999999993,
                    "velocity": 0.5039370078740157,
                    "duration": 0.24166666666667425
                },
                {
                    "name": "C3",
                    "midi": 48,
                    "time": 622.4999999999993,
                    "velocity": 0.5039370078740157,
                    "duration": 0.24166666666667425
                },
                {
                    "name": "C4",
                    "midi": 60,
                    "time": 622.7499999999993,
                    "velocity": 0.5039370078740157,
                    "duration": 0.24166666666667425
                },
                {
                    "name": "C3",
                    "midi": 48,
                    "time": 622.9999999999993,
                    "velocity": 0.5039370078740157,
                    "duration": 0.24166666666667425
                },
                {
                    "name": "C3",
                    "midi": 48,
                    "time": 623.2499999999993,
                    "velocity": 0.5039370078740157,
                    "duration": 0.24166666666667425
                },
                {
                    "name": "C2",
                    "midi": 36,
                    "time": 623.4999999999993,
                    "velocity": 0.5039370078740157,
                    "duration": 0.24166666666667425
                },
                {
                    "name": "C3",
                    "midi": 48,
                    "time": 623.7499999999993,
                    "velocity": 0.5039370078740157,
                    "duration": 0.24166666666667425
                },
                {
                    "name": "C3",
                    "midi": 48,
                    "time": 623.9999999999993,
                    "velocity": 0.5039370078740157,
                    "duration": 0.24166666666667425
                },
                {
                    "name": "C4",
                    "midi": 60,
                    "time": 624.2499999999993,
                    "velocity": 0.5039370078740157,
                    "duration": 0.24166666666667425
                },
                {
                    "name": "C4",
                    "midi": 60,
                    "time": 624.4999999999993,
                    "velocity": 0.5039370078740157,
                    "duration": 0.24166666666667425
                },
                {
                    "name": "G4",
                    "midi": 67,
                    "time": 624.7499999999993,
                    "velocity": 0.5039370078740157,
                    "duration": 0.24166666666667425
                },
                {
                    "name": "C4",
                    "midi": 60,
                    "time": 624.9999999999993,
                    "velocity": 0.5039370078740157,
                    "duration": 0.24166666666667425
                },
                {
                    "name": "C4",
                    "midi": 60,
                    "time": 625.2499999999993,
                    "velocity": 0.5039370078740157,
                    "duration": 0.24166666666667425
                },
                {
                    "name": "C3",
                    "midi": 48,
                    "time": 625.4999999999993,
                    "velocity": 0.5039370078740157,
                    "duration": 0.24166666666667425
                },
                {
                    "name": "C4",
                    "midi": 60,
                    "time": 625.7499999999993,
                    "velocity": 0.5039370078740157,
                    "duration": 0.24166666666667425
                },
                {
                    "name": "G2",
                    "midi": 43,
                    "time": 625.9999999999993,
                    "velocity": 0.5039370078740157,
                    "duration": 0.24166666666667425
                },
                {
                    "name": "G3",
                    "midi": 55,
                    "time": 626.2499999999993,
                    "velocity": 0.5039370078740157,
                    "duration": 0.24166666666667425
                },
                {
                    "name": "G3",
                    "midi": 55,
                    "time": 626.4999999999993,
                    "velocity": 0.5039370078740157,
                    "duration": 0.24166666666667425
                },
                {
                    "name": "D4",
                    "midi": 62,
                    "time": 626.7499999999993,
                    "velocity": 0.5039370078740157,
                    "duration": 0.24166666666667425
                },
                {
                    "name": "G3",
                    "midi": 55,
                    "time": 626.9999999999993,
                    "velocity": 0.5039370078740157,
                    "duration": 0.24166666666667425
                },
                {
                    "name": "G3",
                    "midi": 55,
                    "time": 627.2499999999993,
                    "velocity": 0.5039370078740157,
                    "duration": 0.24166666666667425
                },
                {
                    "name": "G#2",
                    "midi": 44,
                    "time": 627.4999999999993,
                    "velocity": 0.5039370078740157,
                    "duration": 0.24166666666667425
                },
                {
                    "name": "E3",
                    "midi": 52,
                    "time": 627.7499999999993,
                    "velocity": 0.5039370078740157,
                    "duration": 0.24166666666667425
                },
                {
                    "name": "A2",
                    "midi": 45,
                    "time": 627.9999999999993,
                    "velocity": 0.5039370078740157,
                    "duration": 0.24166666666667425
                },
                {
                    "name": "A3",
                    "midi": 57,
                    "time": 628.2499999999993,
                    "velocity": 0.5039370078740157,
                    "duration": 0.24166666666667425
                },
                {
                    "name": "A3",
                    "midi": 57,
                    "time": 628.4999999999993,
                    "velocity": 0.5039370078740157,
                    "duration": 0.24166666666667425
                },
                {
                    "name": "E4",
                    "midi": 64,
                    "time": 628.7499999999993,
                    "velocity": 0.5039370078740157,
                    "duration": 0.24166666666667425
                },
                {
                    "name": "A3",
                    "midi": 57,
                    "time": 628.9999999999993,
                    "velocity": 0.5039370078740157,
                    "duration": 0.24166666666667425
                },
                {
                    "name": "A3",
                    "midi": 57,
                    "time": 629.2499999999993,
                    "velocity": 0.5039370078740157,
                    "duration": 0.24166666666667425
                },
                {
                    "name": "A2",
                    "midi": 45,
                    "time": 629.4999999999993,
                    "velocity": 0.5039370078740157,
                    "duration": 0.24166666666667425
                },
                {
                    "name": "A3",
                    "midi": 57,
                    "time": 629.7499999999993,
                    "velocity": 0.5039370078740157,
                    "duration": 0.24166666666667425
                },
                {
                    "name": "E2",
                    "midi": 40,
                    "time": 629.9999999999993,
                    "velocity": 0.5039370078740157,
                    "duration": 0.24166666666667425
                },
                {
                    "name": "E3",
                    "midi": 52,
                    "time": 630.2499999999993,
                    "velocity": 0.5039370078740157,
                    "duration": 0.24166666666667425
                },
                {
                    "name": "E3",
                    "midi": 52,
                    "time": 630.4999999999993,
                    "velocity": 0.5039370078740157,
                    "duration": 0.24166666666667425
                },
                {
                    "name": "B3",
                    "midi": 59,
                    "time": 630.7499999999993,
                    "velocity": 0.5039370078740157,
                    "duration": 0.24166666666667425
                },
                {
                    "name": "E3",
                    "midi": 52,
                    "time": 630.9999999999993,
                    "velocity": 0.5039370078740157,
                    "duration": 0.24166666666667425
                },
                {
                    "name": "E3",
                    "midi": 52,
                    "time": 631.2499999999993,
                    "velocity": 0.5039370078740157,
                    "duration": 0.24166666666667425
                },
                {
                    "name": "E2",
                    "midi": 40,
                    "time": 631.4999999999993,
                    "velocity": 0.5039370078740157,
                    "duration": 0.24166666666667425
                },
                {
                    "name": "E3",
                    "midi": 52,
                    "time": 631.7499999999993,
                    "velocity": 0.5039370078740157,
                    "duration": 0.24166666666667425
                },
                {
                    "name": "C2",
                    "midi": 36,
                    "time": 631.9999999999993,
                    "velocity": 0.5039370078740157,
                    "duration": 0.24166666666667425
                },
                {
                    "name": "C3",
                    "midi": 48,
                    "time": 632.2499999999993,
                    "velocity": 0.5039370078740157,
                    "duration": 0.24166666666667425
                },
                {
                    "name": "C3",
                    "midi": 48,
                    "time": 632.4999999999993,
                    "velocity": 0.5039370078740157,
                    "duration": 0.24166666666667425
                },
                {
                    "name": "E3",
                    "midi": 52,
                    "time": 632.7499999999993,
                    "velocity": 0.5039370078740157,
                    "duration": 0.24166666666667425
                },
                {
                    "name": "C3",
                    "midi": 48,
                    "time": 632.9999999999993,
                    "velocity": 0.5039370078740157,
                    "duration": 0.24166666666667425
                },
                {
                    "name": "C3",
                    "midi": 48,
                    "time": 633.2499999999993,
                    "velocity": 0.5039370078740157,
                    "duration": 0.24166666666667425
                },
                {
                    "name": "C2",
                    "midi": 36,
                    "time": 633.4999999999993,
                    "velocity": 0.5039370078740157,
                    "duration": 0.24166666666667425
                },
                {
                    "name": "C3",
                    "midi": 48,
                    "time": 633.7499999999993,
                    "velocity": 0.5039370078740157,
                    "duration": 0.24166666666667425
                },
                {
                    "name": "D2",
                    "midi": 38,
                    "time": 633.9999999999993,
                    "velocity": 0.5039370078740157,
                    "duration": 0.24166666666667425
                },
                {
                    "name": "D3",
                    "midi": 50,
                    "time": 634.2499999999993,
                    "velocity": 0.5039370078740157,
                    "duration": 0.24166666666667425
                },
                {
                    "name": "E2",
                    "midi": 40,
                    "time": 634.4999999999993,
                    "velocity": 0.5039370078740157,
                    "duration": 0.24166666666667425
                },
                {
                    "name": "E3",
                    "midi": 52,
                    "time": 634.7499999999993,
                    "velocity": 0.5039370078740157,
                    "duration": 0.24166666666667425
                },
                {
                    "name": "F2",
                    "midi": 41,
                    "time": 634.9999999999993,
                    "velocity": 0.5039370078740157,
                    "duration": 0.24166666666667425
                },
                {
                    "name": "F3",
                    "midi": 53,
                    "time": 635.2499999999993,
                    "velocity": 0.5039370078740157,
                    "duration": 0.24166666666667425
                },
                {
                    "name": "D2",
                    "midi": 38,
                    "time": 635.4999999999993,
                    "velocity": 0.5039370078740157,
                    "duration": 0.24166666666667425
                },
                {
                    "name": "D3",
                    "midi": 50,
                    "time": 635.7499999999993,
                    "velocity": 0.5039370078740157,
                    "duration": 0.24166666666667425
                },
                {
                    "name": "E2",
                    "midi": 40,
                    "time": 635.9999999999993,
                    "velocity": 0.5039370078740157,
                    "duration": 0.24166666666667425
                },
                {
                    "name": "E3",
                    "midi": 52,
                    "time": 636.2499999999993,
                    "velocity": 0.5039370078740157,
                    "duration": 0.24166666666667425
                },
                {
                    "name": "E3",
                    "midi": 52,
                    "time": 636.4999999999993,
                    "velocity": 0.5039370078740157,
                    "duration": 0.24166666666667425
                },
                {
                    "name": "B3",
                    "midi": 59,
                    "time": 636.7499999999993,
                    "velocity": 0.5039370078740157,
                    "duration": 0.24166666666667425
                },
                {
                    "name": "E3",
                    "midi": 52,
                    "time": 636.9999999999993,
                    "velocity": 0.5039370078740157,
                    "duration": 0.24166666666667425
                },
                {
                    "name": "E3",
                    "midi": 52,
                    "time": 637.2499999999993,
                    "velocity": 0.5039370078740157,
                    "duration": 0.24166666666667425
                },
                {
                    "name": "E2",
                    "midi": 40,
                    "time": 637.4999999999993,
                    "velocity": 0.5039370078740157,
                    "duration": 0.24166666666667425
                },
                {
                    "name": "E3",
                    "midi": 52,
                    "time": 637.7499999999993,
                    "velocity": 0.5039370078740157,
                    "duration": 0.24166666666667425
                },
                {
                    "name": "A1",
                    "midi": 33,
                    "time": 637.9999999999993,
                    "velocity": 0.5039370078740157,
                    "duration": 0.24166666666667425
                },
                {
                    "name": "A2",
                    "midi": 45,
                    "time": 638.2499999999993,
                    "velocity": 0.5039370078740157,
                    "duration": 0.24166666666667425
                },
                {
                    "name": "A2",
                    "midi": 45,
                    "time": 638.4999999999993,
                    "velocity": 0.5039370078740157,
                    "duration": 0.24166666666667425
                },
                {
                    "name": "A3",
                    "midi": 57,
                    "time": 638.7499999999993,
                    "velocity": 0.5039370078740157,
                    "duration": 0.24166666666667425
                },
                {
                    "name": "A2",
                    "midi": 45,
                    "time": 638.9999999999993,
                    "velocity": 0.5039370078740157,
                    "duration": 0.24166666666667425
                },
                {
                    "name": "A2",
                    "midi": 45,
                    "time": 639.2499999999993,
                    "velocity": 0.5039370078740157,
                    "duration": 0.24166666666667425
                },
                {
                    "name": "A1",
                    "midi": 33,
                    "time": 639.4999999999993,
                    "velocity": 0.5039370078740157,
                    "duration": 0.24166666666667425
                },
                {
                    "name": "A2",
                    "midi": 45,
                    "time": 639.7499999999993,
                    "velocity": 0.5039370078740157,
                    "duration": 0.24166666666667425
                },
                {
                    "name": "E2",
                    "midi": 40,
                    "time": 639.9999999999993,
                    "velocity": 0.5039370078740157,
                    "duration": 0.24166666666667425
                },
                {
                    "name": "C3",
                    "midi": 48,
                    "time": 640.2499999999993,
                    "velocity": 0.5039370078740157,
                    "duration": 0.24166666666667425
                },
                {
                    "name": "C3",
                    "midi": 48,
                    "time": 640.4999999999993,
                    "velocity": 0.5039370078740157,
                    "duration": 0.24166666666667425
                },
                {
                    "name": "G3",
                    "midi": 55,
                    "time": 640.7499999999993,
                    "velocity": 0.5039370078740157,
                    "duration": 0.24166666666667425
                },
                {
                    "name": "C3",
                    "midi": 48,
                    "time": 640.9999999999993,
                    "velocity": 0.5039370078740157,
                    "duration": 0.24166666666667425
                },
                {
                    "name": "C3",
                    "midi": 48,
                    "time": 641.2499999999993,
                    "velocity": 0.5039370078740157,
                    "duration": 0.24166666666667425
                },
                {
                    "name": "E2",
                    "midi": 40,
                    "time": 641.4999999999993,
                    "velocity": 0.5039370078740157,
                    "duration": 0.24166666666667425
                },
                {
                    "name": "C3",
                    "midi": 48,
                    "time": 641.7499999999993,
                    "velocity": 0.5039370078740157,
                    "duration": 0.24166666666667425
                },
                {
                    "name": "F2",
                    "midi": 41,
                    "time": 641.9999999999993,
                    "velocity": 0.5039370078740157,
                    "duration": 0.24166666666667425
                },
                {
                    "name": "F3",
                    "midi": 53,
                    "time": 642.2499999999993,
                    "velocity": 0.5039370078740157,
                    "duration": 0.24166666666667425
                },
                {
                    "name": "F3",
                    "midi": 53,
                    "time": 642.4999999999993,
                    "velocity": 0.5039370078740157,
                    "duration": 0.24166666666667425
                },
                {
                    "name": "A3",
                    "midi": 57,
                    "time": 642.7499999999993,
                    "velocity": 0.5039370078740157,
                    "duration": 0.24166666666667425
                },
                {
                    "name": "F3",
                    "midi": 53,
                    "time": 642.9999999999993,
                    "velocity": 0.5039370078740157,
                    "duration": 0.24166666666667425
                },
                {
                    "name": "F3",
                    "midi": 53,
                    "time": 643.2499999999993,
                    "velocity": 0.5039370078740157,
                    "duration": 0.24166666666667425
                },
                {
                    "name": "F2",
                    "midi": 41,
                    "time": 643.4999999999993,
                    "velocity": 0.5039370078740157,
                    "duration": 0.24166666666667425
                },
                {
                    "name": "F3",
                    "midi": 53,
                    "time": 643.7499999999993,
                    "velocity": 0.5039370078740157,
                    "duration": 0.24166666666667425
                },
                {
                    "name": "D2",
                    "midi": 38,
                    "time": 643.9999999999993,
                    "velocity": 0.5039370078740157,
                    "duration": 0.24166666666667425
                },
                {
                    "name": "D3",
                    "midi": 50,
                    "time": 644.2499999999993,
                    "velocity": 0.5039370078740157,
                    "duration": 0.24166666666667425
                },
                {
                    "name": "D3",
                    "midi": 50,
                    "time": 644.4999999999993,
                    "velocity": 0.5039370078740157,
                    "duration": 0.24166666666667425
                },
                {
                    "name": "F3",
                    "midi": 53,
                    "time": 644.7499999999993,
                    "velocity": 0.5039370078740157,
                    "duration": 0.24166666666667425
                },
                {
                    "name": "D3",
                    "midi": 50,
                    "time": 644.9999999999993,
                    "velocity": 0.5039370078740157,
                    "duration": 0.24166666666667425
                },
                {
                    "name": "D3",
                    "midi": 50,
                    "time": 645.2499999999993,
                    "velocity": 0.5039370078740157,
                    "duration": 0.24166666666667425
                },
                {
                    "name": "D2",
                    "midi": 38,
                    "time": 645.4999999999993,
                    "velocity": 0.5039370078740157,
                    "duration": 0.24166666666667425
                },
                {
                    "name": "D3",
                    "midi": 50,
                    "time": 645.7499999999993,
                    "velocity": 0.5039370078740157,
                    "duration": 0.24166666666667425
                },
                {
                    "name": "G2",
                    "midi": 43,
                    "time": 645.9999999999993,
                    "velocity": 0.5039370078740157,
                    "duration": 0.24166666666667425
                },
                {
                    "name": "G3",
                    "midi": 55,
                    "time": 646.2499999999993,
                    "velocity": 0.5039370078740157,
                    "duration": 0.24166666666667425
                },
                {
                    "name": "G3",
                    "midi": 55,
                    "time": 646.4999999999993,
                    "velocity": 0.5039370078740157,
                    "duration": 0.24166666666667425
                },
                {
                    "name": "D4",
                    "midi": 62,
                    "time": 646.7499999999993,
                    "velocity": 0.5039370078740157,
                    "duration": 0.24166666666667425
                },
                {
                    "name": "G3",
                    "midi": 55,
                    "time": 646.9999999999993,
                    "velocity": 0.5039370078740157,
                    "duration": 0.24166666666667425
                },
                {
                    "name": "G3",
                    "midi": 55,
                    "time": 647.2499999999993,
                    "velocity": 0.5039370078740157,
                    "duration": 0.24166666666667425
                },
                {
                    "name": "G2",
                    "midi": 43,
                    "time": 647.4999999999993,
                    "velocity": 0.5039370078740157,
                    "duration": 0.24166666666667425
                },
                {
                    "name": "G3",
                    "midi": 55,
                    "time": 647.7499999999993,
                    "velocity": 0.5039370078740157,
                    "duration": 0.24166666666667425
                },
                {
                    "name": "E2",
                    "midi": 40,
                    "time": 647.9999999999993,
                    "velocity": 0.5039370078740157,
                    "duration": 0.24166666666667425
                },
                {
                    "name": "E3",
                    "midi": 52,
                    "time": 648.2499999999993,
                    "velocity": 0.5039370078740157,
                    "duration": 0.24166666666667425
                },
                {
                    "name": "E3",
                    "midi": 52,
                    "time": 648.4999999999993,
                    "velocity": 0.5039370078740157,
                    "duration": 0.24166666666667425
                },
                {
                    "name": "G3",
                    "midi": 55,
                    "time": 648.7499999999993,
                    "velocity": 0.5039370078740157,
                    "duration": 0.24166666666667425
                },
                {
                    "name": "E3",
                    "midi": 52,
                    "time": 648.9999999999993,
                    "velocity": 0.5039370078740157,
                    "duration": 0.24166666666667425
                },
                {
                    "name": "E3",
                    "midi": 52,
                    "time": 649.2499999999993,
                    "velocity": 0.5039370078740157,
                    "duration": 0.24166666666667425
                },
                {
                    "name": "E2",
                    "midi": 40,
                    "time": 649.4999999999993,
                    "velocity": 0.5039370078740157,
                    "duration": 0.24166666666667425
                },
                {
                    "name": "E3",
                    "midi": 52,
                    "time": 649.7499999999993,
                    "velocity": 0.5039370078740157,
                    "duration": 0.24166666666667425
                },
                {
                    "name": "F2",
                    "midi": 41,
                    "time": 649.9999999999993,
                    "velocity": 0.5039370078740157,
                    "duration": 0.24166666666667425
                },
                {
                    "name": "F3",
                    "midi": 53,
                    "time": 650.2499999999993,
                    "velocity": 0.5039370078740157,
                    "duration": 0.24166666666667425
                },
                {
                    "name": "F3",
                    "midi": 53,
                    "time": 650.4999999999993,
                    "velocity": 0.5039370078740157,
                    "duration": 0.24166666666667425
                },
                {
                    "name": "A3",
                    "midi": 57,
                    "time": 650.7499999999993,
                    "velocity": 0.5039370078740157,
                    "duration": 0.24166666666667425
                },
                {
                    "name": "F3",
                    "midi": 53,
                    "time": 650.9999999999993,
                    "velocity": 0.5039370078740157,
                    "duration": 0.24166666666667425
                },
                {
                    "name": "F3",
                    "midi": 53,
                    "time": 651.2499999999993,
                    "velocity": 0.5039370078740157,
                    "duration": 0.24166666666667425
                },
                {
                    "name": "F2",
                    "midi": 41,
                    "time": 651.4999999999993,
                    "velocity": 0.5039370078740157,
                    "duration": 0.24166666666667425
                },
                {
                    "name": "F3",
                    "midi": 53,
                    "time": 651.7499999999993,
                    "velocity": 0.5039370078740157,
                    "duration": 0.24166666666667425
                },
                {
                    "name": "G2",
                    "midi": 43,
                    "time": 651.9999999999993,
                    "velocity": 0.5039370078740157,
                    "duration": 0.24166666666667425
                },
                {
                    "name": "G3",
                    "midi": 55,
                    "time": 652.2499999999993,
                    "velocity": 0.5039370078740157,
                    "duration": 0.24166666666667425
                },
                {
                    "name": "G3",
                    "midi": 55,
                    "time": 652.4999999999993,
                    "velocity": 0.5039370078740157,
                    "duration": 0.24166666666667425
                },
                {
                    "name": "D4",
                    "midi": 62,
                    "time": 652.7499999999993,
                    "velocity": 0.5039370078740157,
                    "duration": 0.24166666666667425
                },
                {
                    "name": "G3",
                    "midi": 55,
                    "time": 652.9999999999993,
                    "velocity": 0.5039370078740157,
                    "duration": 0.24166666666667425
                },
                {
                    "name": "G3",
                    "midi": 55,
                    "time": 653.2499999999993,
                    "velocity": 0.5039370078740157,
                    "duration": 0.24166666666667425
                },
                {
                    "name": "G2",
                    "midi": 43,
                    "time": 653.4999999999993,
                    "velocity": 0.5039370078740157,
                    "duration": 0.24166666666667425
                },
                {
                    "name": "G3",
                    "midi": 55,
                    "time": 653.7499999999993,
                    "velocity": 0.5039370078740157,
                    "duration": 0.24166666666667425
                },
                {
                    "name": "C2",
                    "midi": 36,
                    "time": 653.9999999999993,
                    "velocity": 0.5039370078740157,
                    "duration": 0.24166666666667425
                },
                {
                    "name": "C3",
                    "midi": 48,
                    "time": 654.2499999999993,
                    "velocity": 0.5039370078740157,
                    "duration": 0.24166666666667425
                },
                {
                    "name": "C3",
                    "midi": 48,
                    "time": 654.4999999999993,
                    "velocity": 0.5039370078740157,
                    "duration": 0.24166666666667425
                },
                {
                    "name": "C4",
                    "midi": 60,
                    "time": 654.7499999999993,
                    "velocity": 0.5039370078740157,
                    "duration": 0.24166666666667425
                },
                {
                    "name": "C3",
                    "midi": 48,
                    "time": 654.9999999999993,
                    "velocity": 0.5039370078740157,
                    "duration": 0.24166666666667425
                },
                {
                    "name": "C3",
                    "midi": 48,
                    "time": 655.2499999999993,
                    "velocity": 0.5039370078740157,
                    "duration": 0.24166666666667425
                },
                {
                    "name": "C2",
                    "midi": 36,
                    "time": 655.4999999999993,
                    "velocity": 0.5039370078740157,
                    "duration": 0.24166666666667425
                },
                {
                    "name": "C3",
                    "midi": 48,
                    "time": 655.7499999999993,
                    "velocity": 0.5039370078740157,
                    "duration": 0.24166666666667425
                },
                {
                    "name": "C3",
                    "midi": 48,
                    "time": 655.9999999999993,
                    "velocity": 0.5039370078740157,
                    "duration": 0.24166666666667425
                },
                {
                    "name": "C4",
                    "midi": 60,
                    "time": 656.2499999999993,
                    "velocity": 0.5039370078740157,
                    "duration": 0.24166666666667425
                },
                {
                    "name": "C4",
                    "midi": 60,
                    "time": 656.4999999999993,
                    "velocity": 0.5039370078740157,
                    "duration": 0.24166666666667425
                },
                {
                    "name": "G4",
                    "midi": 67,
                    "time": 656.7499999999993,
                    "velocity": 0.5039370078740157,
                    "duration": 0.24166666666667425
                },
                {
                    "name": "C4",
                    "midi": 60,
                    "time": 656.9999999999993,
                    "velocity": 0.5039370078740157,
                    "duration": 0.24166666666667425
                },
                {
                    "name": "C4",
                    "midi": 60,
                    "time": 657.2499999999993,
                    "velocity": 0.5039370078740157,
                    "duration": 0.24166666666667425
                },
                {
                    "name": "C3",
                    "midi": 48,
                    "time": 657.4999999999993,
                    "velocity": 0.5039370078740157,
                    "duration": 0.24166666666667425
                },
                {
                    "name": "C4",
                    "midi": 60,
                    "time": 657.7499999999993,
                    "velocity": 0.5039370078740157,
                    "duration": 0.24166666666667425
                },
                {
                    "name": "G2",
                    "midi": 43,
                    "time": 657.9999999999993,
                    "velocity": 0.5039370078740157,
                    "duration": 0.24166666666667425
                },
                {
                    "name": "G3",
                    "midi": 55,
                    "time": 658.2499999999993,
                    "velocity": 0.5039370078740157,
                    "duration": 0.24166666666667425
                },
                {
                    "name": "G3",
                    "midi": 55,
                    "time": 658.4999999999993,
                    "velocity": 0.5039370078740157,
                    "duration": 0.24166666666667425
                },
                {
                    "name": "D4",
                    "midi": 62,
                    "time": 658.7499999999993,
                    "velocity": 0.5039370078740157,
                    "duration": 0.24166666666667425
                },
                {
                    "name": "G3",
                    "midi": 55,
                    "time": 658.9999999999993,
                    "velocity": 0.5039370078740157,
                    "duration": 0.24166666666667425
                },
                {
                    "name": "G3",
                    "midi": 55,
                    "time": 659.2499999999993,
                    "velocity": 0.5039370078740157,
                    "duration": 0.24166666666667425
                },
                {
                    "name": "G#2",
                    "midi": 44,
                    "time": 659.4999999999993,
                    "velocity": 0.5039370078740157,
                    "duration": 0.24166666666667425
                },
                {
                    "name": "E3",
                    "midi": 52,
                    "time": 659.7499999999993,
                    "velocity": 0.5039370078740157,
                    "duration": 0.24166666666667425
                },
                {
                    "name": "A2",
                    "midi": 45,
                    "time": 659.9999999999993,
                    "velocity": 0.5039370078740157,
                    "duration": 0.24166666666667425
                },
                {
                    "name": "A3",
                    "midi": 57,
                    "time": 660.2499999999993,
                    "velocity": 0.5039370078740157,
                    "duration": 0.24166666666667425
                },
                {
                    "name": "A3",
                    "midi": 57,
                    "time": 660.4999999999993,
                    "velocity": 0.5039370078740157,
                    "duration": 0.24166666666667425
                },
                {
                    "name": "E4",
                    "midi": 64,
                    "time": 660.7499999999993,
                    "velocity": 0.5039370078740157,
                    "duration": 0.24166666666667425
                },
                {
                    "name": "A3",
                    "midi": 57,
                    "time": 660.9999999999993,
                    "velocity": 0.5039370078740157,
                    "duration": 0.24166666666667425
                },
                {
                    "name": "A3",
                    "midi": 57,
                    "time": 661.2499999999993,
                    "velocity": 0.5039370078740157,
                    "duration": 0.24166666666667425
                },
                {
                    "name": "A2",
                    "midi": 45,
                    "time": 661.4999999999993,
                    "velocity": 0.5039370078740157,
                    "duration": 0.24166666666667425
                },
                {
                    "name": "A3",
                    "midi": 57,
                    "time": 661.7499999999993,
                    "velocity": 0.5039370078740157,
                    "duration": 0.24166666666667425
                },
                {
                    "name": "E2",
                    "midi": 40,
                    "time": 661.9999999999993,
                    "velocity": 0.5039370078740157,
                    "duration": 0.24166666666667425
                },
                {
                    "name": "E3",
                    "midi": 52,
                    "time": 662.2499999999993,
                    "velocity": 0.5039370078740157,
                    "duration": 0.24166666666667425
                },
                {
                    "name": "E3",
                    "midi": 52,
                    "time": 662.4999999999993,
                    "velocity": 0.5039370078740157,
                    "duration": 0.24166666666667425
                },
                {
                    "name": "B3",
                    "midi": 59,
                    "time": 662.7499999999993,
                    "velocity": 0.5039370078740157,
                    "duration": 0.24166666666667425
                },
                {
                    "name": "E3",
                    "midi": 52,
                    "time": 662.9999999999993,
                    "velocity": 0.5039370078740157,
                    "duration": 0.24166666666667425
                },
                {
                    "name": "E3",
                    "midi": 52,
                    "time": 663.2499999999993,
                    "velocity": 0.5039370078740157,
                    "duration": 0.24166666666667425
                },
                {
                    "name": "E2",
                    "midi": 40,
                    "time": 663.4999999999993,
                    "velocity": 0.5039370078740157,
                    "duration": 0.24166666666667425
                },
                {
                    "name": "E3",
                    "midi": 52,
                    "time": 663.7499999999993,
                    "velocity": 0.5039370078740157,
                    "duration": 0.24166666666667425
                },
                {
                    "name": "C2",
                    "midi": 36,
                    "time": 663.9999999999993,
                    "velocity": 0.5039370078740157,
                    "duration": 0.24166666666667425
                },
                {
                    "name": "C3",
                    "midi": 48,
                    "time": 664.2499999999993,
                    "velocity": 0.5039370078740157,
                    "duration": 0.24166666666667425
                },
                {
                    "name": "C3",
                    "midi": 48,
                    "time": 664.4999999999993,
                    "velocity": 0.5039370078740157,
                    "duration": 0.24166666666667425
                },
                {
                    "name": "E3",
                    "midi": 52,
                    "time": 664.7499999999993,
                    "velocity": 0.5039370078740157,
                    "duration": 0.24166666666667425
                },
                {
                    "name": "C3",
                    "midi": 48,
                    "time": 664.9999999999993,
                    "velocity": 0.5039370078740157,
                    "duration": 0.24166666666667425
                },
                {
                    "name": "C3",
                    "midi": 48,
                    "time": 665.2499999999993,
                    "velocity": 0.5039370078740157,
                    "duration": 0.24166666666667425
                },
                {
                    "name": "C2",
                    "midi": 36,
                    "time": 665.4999999999993,
                    "velocity": 0.5039370078740157,
                    "duration": 0.24166666666667425
                },
                {
                    "name": "C3",
                    "midi": 48,
                    "time": 665.7499999999993,
                    "velocity": 0.5039370078740157,
                    "duration": 0.24166666666667425
                },
                {
                    "name": "D2",
                    "midi": 38,
                    "time": 665.9999999999993,
                    "velocity": 0.5039370078740157,
                    "duration": 0.24166666666667425
                },
                {
                    "name": "D3",
                    "midi": 50,
                    "time": 666.2499999999993,
                    "velocity": 0.5039370078740157,
                    "duration": 0.24166666666667425
                },
                {
                    "name": "E2",
                    "midi": 40,
                    "time": 666.4999999999993,
                    "velocity": 0.5039370078740157,
                    "duration": 0.24166666666667425
                },
                {
                    "name": "E3",
                    "midi": 52,
                    "time": 666.7499999999993,
                    "velocity": 0.5039370078740157,
                    "duration": 0.24166666666667425
                },
                {
                    "name": "F2",
                    "midi": 41,
                    "time": 666.9999999999993,
                    "velocity": 0.5039370078740157,
                    "duration": 0.24166666666667425
                },
                {
                    "name": "F3",
                    "midi": 53,
                    "time": 667.2499999999993,
                    "velocity": 0.5039370078740157,
                    "duration": 0.24166666666667425
                },
                {
                    "name": "D2",
                    "midi": 38,
                    "time": 667.4999999999993,
                    "velocity": 0.5039370078740157,
                    "duration": 0.24166666666667425
                },
                {
                    "name": "D3",
                    "midi": 50,
                    "time": 667.7499999999993,
                    "velocity": 0.5039370078740157,
                    "duration": 0.24166666666667425
                },
                {
                    "name": "E2",
                    "midi": 40,
                    "time": 667.9999999999993,
                    "velocity": 0.5039370078740157,
                    "duration": 0.24166666666667425
                },
                {
                    "name": "E3",
                    "midi": 52,
                    "time": 668.2499999999993,
                    "velocity": 0.5039370078740157,
                    "duration": 0.24166666666667425
                },
                {
                    "name": "E3",
                    "midi": 52,
                    "time": 668.4999999999993,
                    "velocity": 0.5039370078740157,
                    "duration": 0.24166666666667425
                },
                {
                    "name": "B3",
                    "midi": 59,
                    "time": 668.7499999999993,
                    "velocity": 0.5039370078740157,
                    "duration": 0.24166666666667425
                },
                {
                    "name": "E3",
                    "midi": 52,
                    "time": 668.9999999999993,
                    "velocity": 0.5039370078740157,
                    "duration": 0.24166666666667425
                },
                {
                    "name": "E3",
                    "midi": 52,
                    "time": 669.2499999999993,
                    "velocity": 0.5039370078740157,
                    "duration": 0.24166666666667425
                },
                {
                    "name": "E2",
                    "midi": 40,
                    "time": 669.4999999999993,
                    "velocity": 0.5039370078740157,
                    "duration": 0.24166666666667425
                },
                {
                    "name": "E3",
                    "midi": 52,
                    "time": 669.7499999999993,
                    "velocity": 0.5039370078740157,
                    "duration": 0.24166666666667425
                },
                {
                    "name": "A2",
                    "midi": 45,
                    "time": 669.9999999999993,
                    "velocity": 0.5039370078740157,
                    "duration": 1.9916666666666742
                },
                {
                    "name": "A1",
                    "midi": 33,
                    "time": 669.9999999999993,
                    "velocity": 0.5039370078740157,
                    "duration": 1.9916666666666742
                }
            ],
            "controlChanges": {
                "7": [
                    {
                        "number": 7,
                        "time": 0,
                        "value": 1
                    }
                ]
            },
            "id": 2,
            "name": "Harpsichord LH",
            "instrumentNumber": 6,
            "instrument": "harpsichord",
            "instrumentFamily": "piano",
            "channelNumber": 1,
            "isPercussion": false
        },
        {
            "startTime": 0,
            "duration": 0,
            "length": 0,
            "notes": [],
            "controlChanges": {
                "7": [
                    {
                        "number": 7,
                        "time": 0,
                        "value": 1
                    }
                ]
            },
            "id": 3,
            "name": "."
        },
        {
            "startTime": 0,
            "duration": 0,
            "length": 0,
            "notes": [],
            "controlChanges": {
                "7": [
                    {
                        "number": 7,
                        "time": 0,
                        "value": 1
                    }
                ]
            },
            "id": 4,
            "name": "Gavotte Variee"
        },
        {
            "startTime": 0,
            "duration": 0,
            "length": 0,
            "notes": [],
            "controlChanges": {
                "7": [
                    {
                        "number": 7,
                        "time": 0,
                        "value": 1
                    }
                ]
            },
            "id": 5,
            "name": "."
        },
        {
            "startTime": 0,
            "duration": 0,
            "length": 0,
            "notes": [],
            "controlChanges": {
                "7": [
                    {
                        "number": 7,
                        "time": 0,
                        "value": 1
                    }
                ]
            },
            "id": 6,
            "name": "J. P. Rameau"
        },
        {
            "startTime": 0,
            "duration": 0,
            "length": 0,
            "notes": [],
            "controlChanges": {
                "7": [
                    {
                        "number": 7,
                        "time": 0,
                        "value": 1
                    }
                ]
            },
            "id": 7,
            "name": "."
        },
        {
            "startTime": 0,
            "duration": 0,
            "length": 0,
            "notes": [],
            "controlChanges": {
                "7": [
                    {
                        "number": 7,
                        "time": 0,
                        "value": 1
                    }
                ]
            },
            "id": 8,
            "name": "Realized by"
        },
        {
            "startTime": 0,
            "duration": 0,
            "length": 0,
            "notes": [],
            "controlChanges": {
                "7": [
                    {
                        "number": 7,
                        "time": 0,
                        "value": 1
                    }
                ]
            },
            "id": 9,
            "name": "Joe Turner"
        }
    ]
}