{
    "header": {
        "PPQ": 240,
        "timeSignature": [
            12,
            8
        ],
        "bpm": 96,
        "name": ""
    },
    "startTime": 0,
    "duration": 161.22395833333334,
    "tracks": [
        {
            "startTime": 0,
            "duration": 0,
            "length": 0,
            "notes": [],
            "controlChanges": {},
            "id": 0
        },
        {
            "startTime": 31.875,
            "duration": 134.97395833333334,
            "length": 193,
            "notes": [
                {
                    "name": "G4",
                    "midi": 67,
                    "time": 31.875,
                    "velocity": 1,
                    "duration": 0.4427083333333357
                },
                {
                    "name": "A4",
                    "midi": 69,
                    "time": 32.34375,
                    "velocity": 1,
                    "duration": 0.1302083333333357
                },
                {
                    "name": "G4",
                    "midi": 67,
                    "time": 32.5,
                    "velocity": 1,
                    "duration": 0.2864583333333357
                },
                {
                    "name": "E5",
                    "midi": 76,
                    "time": 32.8125,
                    "velocity": 1,
                    "duration": 0.5989583333333357
                },
                {
                    "name": "C5",
                    "midi": 72,
                    "time": 33.4375,
                    "velocity": 1,
                    "duration": 0.2864583333333357
                },
                {
                    "name": "B4",
                    "midi": 71,
                    "time": 33.75,
                    "velocity": 1,
                    "duration": 0.9114583333333357
                },
                {
                    "name": "C5",
                    "midi": 72,
                    "time": 34.6875,
                    "velocity": 1,
                    "duration": 0.9114583333333357
                },
                {
                    "name": "D5",
                    "midi": 74,
                    "time": 35.625,
                    "velocity": 1,
                    "duration": 0.5989583333333357
                },
                {
                    "name": "E5",
                    "midi": 76,
                    "time": 36.25,
                    "velocity": 1,
                    "duration": 0.2864583333333357
                },
                {
                    "name": "F5",
                    "midi": 77,
                    "time": 36.5625,
                    "velocity": 1,
                    "duration": 0.4427083333333357
                },
                {
                    "name": "E5",
                    "midi": 76,
                    "time": 37.03125,
                    "velocity": 1,
                    "duration": 0.1302083333333357
                },
                {
                    "name": "D5",
                    "midi": 74,
                    "time": 37.1875,
                    "velocity": 1,
                    "duration": 0.2864583333333357
                },
                {
                    "name": "E5",
                    "midi": 76,
                    "time": 37.5,
                    "velocity": 1,
                    "duration": 1.8489583333333357
                },
                {
                    "name": "C5",
                    "midi": 72,
                    "time": 39.375,
                    "velocity": 1,
                    "duration": 1.5364583333333357
                },
                {
                    "name": "E5",
                    "midi": 76,
                    "time": 40.9375,
                    "velocity": 1,
                    "duration": 0.2864583333333357
                },
                {
                    "name": "D5",
                    "midi": 74,
                    "time": 41.25,
                    "velocity": 1,
                    "duration": 0.5989583333333357
                },
                {
                    "name": "B4",
                    "midi": 71,
                    "time": 41.875,
                    "velocity": 1,
                    "duration": 0.2864583333333357
                },
                {
                    "name": "G4",
                    "midi": 67,
                    "time": 42.1875,
                    "velocity": 1,
                    "duration": 0.9114583333333357
                },
                {
                    "name": "C5",
                    "midi": 72,
                    "time": 43.125,
                    "velocity": 1,
                    "duration": 1.3802083333333357
                },
                {
                    "name": "B4",
                    "midi": 71,
                    "time": 44.53125,
                    "velocity": 1,
                    "duration": 0.1302083333333357
                },
                {
                    "name": "A4",
                    "midi": 69,
                    "time": 44.6875,
                    "velocity": 1,
                    "duration": 0.2864583333333357
                },
                {
                    "name": "B4",
                    "midi": 71,
                    "time": 45,
                    "velocity": 1,
                    "duration": 0.2864583333333357
                },
                {
                    "name": "D5",
                    "midi": 74,
                    "time": 45.3125,
                    "velocity": 1,
                    "duration": 0.2864583333333357
                },
                {
                    "name": "C5",
                    "midi": 72,
                    "time": 45.625,
                    "velocity": 1,
                    "duration": 0.2864583333333357
                },
                {
                    "name": "B4",
                    "midi": 71,
                    "time": 45.9375,
                    "velocity": 1,
                    "duration": 0.2864583333333357
                },
                {
                    "name": "A4",
                    "midi": 69,
                    "time": 46.25,
                    "velocity": 1,
                    "duration": 0.2864583333333357
                },
                {
                    "name": "G4",
                    "midi": 67,
                    "time": 46.5625,
                    "velocity": 1,
                    "duration": 0.2864583333333357
                },
                {
                    "name": "C5",
                    "midi": 72,
                    "time": 46.875,
                    "velocity": 1,
                    "duration": 0.2864583333333357
                },
                {
                    "name": "E5",
                    "midi": 76,
                    "time": 47.1875,
                    "velocity": 1,
                    "duration": 0.2864583333333357
                },
                {
                    "name": "D5",
                    "midi": 74,
                    "time": 47.5,
                    "velocity": 1,
                    "duration": 0.2864583333333357
                },
                {
                    "name": "C5",
                    "midi": 72,
                    "time": 47.8125,
                    "velocity": 1,
                    "duration": 0.2864583333333357
                },
                {
                    "name": "B4",
                    "midi": 71,
                    "time": 48.125,
                    "velocity": 1,
                    "duration": 0.2864583333333357
                },
                {
                    "name": "A4",
                    "midi": 69,
                    "time": 48.4375,
                    "velocity": 1,
                    "duration": 0.2864583333333357
                },
                {
                    "name": "D5",
                    "midi": 74,
                    "time": 48.75,
                    "velocity": 1,
                    "duration": 0.9114583333333357
                },
                {
                    "name": "D5",
                    "midi": 74,
                    "time": 49.6875,
                    "velocity": 1,
                    "duration": 0.5989583333333357
                },
                {
                    "name": "C5",
                    "midi": 72,
                    "time": 50.3125,
                    "velocity": 1,
                    "duration": 0.2864583333333357
                },
                {
                    "name": "B4",
                    "midi": 71,
                    "time": 50.625,
                    "velocity": 1,
                    "duration": 0.2864583333333357
                },
                {
                    "name": "A4",
                    "midi": 69,
                    "time": 50.9375,
                    "velocity": 1,
                    "duration": 0.2864583333333357
                },
                {
                    "name": "G4",
                    "midi": 67,
                    "time": 51.25,
                    "velocity": 1,
                    "duration": 0.2864583333333357
                },
                {
                    "name": "A4",
                    "midi": 69,
                    "time": 51.5625,
                    "velocity": 1,
                    "duration": 0.5989583333333357
                },
                {
                    "name": "G4",
                    "midi": 67,
                    "time": 52.1875,
                    "velocity": 1,
                    "duration": 0.2864583333333357
                },
                {
                    "name": "G4",
                    "midi": 67,
                    "time": 52.5,
                    "velocity": 1,
                    "duration": 1.8489583333333357
                },
                {
                    "name": "D5",
                    "midi": 74,
                    "time": 59.0625,
                    "velocity": 1,
                    "duration": 1.3802083333333357
                },
                {
                    "name": "E5",
                    "midi": 76,
                    "time": 60.46875,
                    "velocity": 1,
                    "duration": 0.1302083333333357
                },
                {
                    "name": "F5",
                    "midi": 77,
                    "time": 60.625,
                    "velocity": 1,
                    "duration": 0.2864583333333357
                },
                {
                    "name": "E5",
                    "midi": 76,
                    "time": 60.9375,
                    "velocity": 1,
                    "duration": 0.5989583333333357
                },
                {
                    "name": "D5",
                    "midi": 74,
                    "time": 61.5625,
                    "velocity": 1,
                    "duration": 0.2864583333333357
                },
                {
                    "name": "C5",
                    "midi": 72,
                    "time": 61.875,
                    "velocity": 1,
                    "duration": 0.5989583333333357
                },
                {
                    "name": "B4",
                    "midi": 71,
                    "time": 62.5,
                    "velocity": 1,
                    "duration": 0.2864583333333357
                },
                {
                    "name": "C5",
                    "midi": 72,
                    "time": 62.8125,
                    "velocity": 1,
                    "duration": 0.5989583333333357
                },
                {
                    "name": "D5",
                    "midi": 74,
                    "time": 63.4375,
                    "velocity": 1,
                    "duration": 0.2864583333333357
                },
                {
                    "name": "E5",
                    "midi": 76,
                    "time": 63.75,
                    "velocity": 1,
                    "duration": 0.2864583333333286
                },
                {
                    "name": "D5",
                    "midi": 74,
                    "time": 64.0625,
                    "velocity": 1,
                    "duration": 0.2864583333333286
                },
                {
                    "name": "C5",
                    "midi": 72,
                    "time": 64.375,
                    "velocity": 1,
                    "duration": 0.2864583333333286
                },
                {
                    "name": "B4",
                    "midi": 71,
                    "time": 64.6875,
                    "velocity": 1,
                    "duration": 0.2864583333333286
                },
                {
                    "name": "C5",
                    "midi": 72,
                    "time": 65,
                    "velocity": 1,
                    "duration": 0.2864583333333286
                },
                {
                    "name": "A4",
                    "midi": 69,
                    "time": 65.3125,
                    "velocity": 1,
                    "duration": 0.2864583333333286
                },
                {
                    "name": "A4",
                    "midi": 69,
                    "time": 65.625,
                    "velocity": 1,
                    "duration": 0.5989583333333286
                },
                {
                    "name": "G#4",
                    "midi": 68,
                    "time": 66.25,
                    "velocity": 1,
                    "duration": 0.2864583333333286
                },
                {
                    "name": "A4",
                    "midi": 69,
                    "time": 67.5,
                    "velocity": 1,
                    "duration": 1.5364583333333286
                },
                {
                    "name": "E5",
                    "midi": 76,
                    "time": 69.0625,
                    "velocity": 1,
                    "duration": 0.2864583333333286
                },
                {
                    "name": "F4",
                    "midi": 65,
                    "time": 69.375,
                    "velocity": 1,
                    "duration": 0.9114583333333286
                },
                {
                    "name": "F4",
                    "midi": 65,
                    "time": 70.3125,
                    "velocity": 1,
                    "duration": 0.2864583333333286
                },
                {
                    "name": "A#4",
                    "midi": 70,
                    "time": 70.625,
                    "velocity": 1,
                    "duration": 0.2864583333333286
                },
                {
                    "name": "A4",
                    "midi": 69,
                    "time": 70.9375,
                    "velocity": 1,
                    "duration": 0.2864583333333286
                },
                {
                    "name": "G4",
                    "midi": 67,
                    "time": 71.25,
                    "velocity": 1,
                    "duration": 0.9114583333333286
                },
                {
                    "name": "G4",
                    "midi": 67,
                    "time": 72.1875,
                    "velocity": 1,
                    "duration": 0.2864583333333286
                },
                {
                    "name": "C5",
                    "midi": 72,
                    "time": 72.5,
                    "velocity": 1,
                    "duration": 0.2864583333333286
                },
                {
                    "name": "A#4",
                    "midi": 70,
                    "time": 72.8125,
                    "velocity": 1,
                    "duration": 0.2864583333333286
                },
                {
                    "name": "A4",
                    "midi": 69,
                    "time": 73.125,
                    "velocity": 1,
                    "duration": 0.9114583333333286
                },
                {
                    "name": "A4",
                    "midi": 69,
                    "time": 74.0625,
                    "velocity": 1,
                    "duration": 0.2864583333333286
                },
                {
                    "name": "D5",
                    "midi": 74,
                    "time": 74.375,
                    "velocity": 1,
                    "duration": 0.2864583333333286
                },
                {
                    "name": "C5",
                    "midi": 72,
                    "time": 74.6875,
                    "velocity": 1,
                    "duration": 0.2864583333333286
                },
                {
                    "name": "B4",
                    "midi": 71,
                    "time": 75,
                    "velocity": 1,
                    "duration": 0.9114583333333286
                },
                {
                    "name": "B4",
                    "midi": 71,
                    "time": 75.9375,
                    "velocity": 1,
                    "duration": 0.2864583333333286
                },
                {
                    "name": "E5",
                    "midi": 76,
                    "time": 76.25,
                    "velocity": 1,
                    "duration": 0.2864583333333286
                },
                {
                    "name": "D5",
                    "midi": 74,
                    "time": 76.5625,
                    "velocity": 1,
                    "duration": 0.2864583333333286
                },
                {
                    "name": "C#5",
                    "midi": 73,
                    "time": 76.875,
                    "velocity": 1,
                    "duration": 0.2864583333333286
                },
                {
                    "name": "B4",
                    "midi": 71,
                    "time": 77.1875,
                    "velocity": 1,
                    "duration": 0.2864583333333286
                },
                {
                    "name": "A4",
                    "midi": 69,
                    "time": 77.5,
                    "velocity": 1,
                    "duration": 0.2864583333333286
                },
                {
                    "name": "E5",
                    "midi": 76,
                    "time": 78.4375,
                    "velocity": 1,
                    "duration": 0.2864583333333286
                },
                {
                    "name": "F5",
                    "midi": 77,
                    "time": 78.75,
                    "velocity": 1,
                    "duration": 0.4427083333333286
                },
                {
                    "name": "E5",
                    "midi": 76,
                    "time": 79.21875,
                    "velocity": 1,
                    "duration": 0.1302083333333286
                },
                {
                    "name": "D5",
                    "midi": 74,
                    "time": 79.375,
                    "velocity": 1,
                    "duration": 0.2864583333333286
                },
                {
                    "name": "D5",
                    "midi": 74,
                    "time": 79.6875,
                    "velocity": 1,
                    "duration": 0.2864583333333286
                },
                {
                    "name": "E5",
                    "midi": 76,
                    "time": 80,
                    "velocity": 1,
                    "duration": 0.2864583333333286
                },
                {
                    "name": "C#5",
                    "midi": 73,
                    "time": 80.3125,
                    "velocity": 1,
                    "duration": 0.2864583333333286
                },
                {
                    "name": "D5",
                    "midi": 74,
                    "time": 80.625,
                    "velocity": 1,
                    "duration": 1.8489583333333286
                },
                {
                    "name": "C5",
                    "midi": 72,
                    "time": 87.1875,
                    "velocity": 1,
                    "duration": 1.2239583333333286
                },
                {
                    "name": "E5",
                    "midi": 76,
                    "time": 88.4375,
                    "velocity": 1,
                    "duration": 0.2864583333333286
                },
                {
                    "name": "D5",
                    "midi": 74,
                    "time": 88.75,
                    "velocity": 1,
                    "duration": 0.2864583333333286
                },
                {
                    "name": "C5",
                    "midi": 72,
                    "time": 89.0625,
                    "velocity": 1,
                    "duration": 0.2864583333333286
                },
                {
                    "name": "B4",
                    "midi": 71,
                    "time": 89.375,
                    "velocity": 1,
                    "duration": 0.2864583333333286
                },
                {
                    "name": "A4",
                    "midi": 69,
                    "time": 89.6875,
                    "velocity": 1,
                    "duration": 0.2864583333333286
                },
                {
                    "name": "B4",
                    "midi": 71,
                    "time": 90,
                    "velocity": 1,
                    "duration": 0.2864583333333286
                },
                {
                    "name": "A4",
                    "midi": 69,
                    "time": 90.3125,
                    "velocity": 1,
                    "duration": 0.2864583333333286
                },
                {
                    "name": "G4",
                    "midi": 67,
                    "time": 90.625,
                    "velocity": 1,
                    "duration": 0.2864583333333286
                },
                {
                    "name": "D5",
                    "midi": 74,
                    "time": 90.9375,
                    "velocity": 1,
                    "duration": 0.9114583333333286
                },
                {
                    "name": "D5",
                    "midi": 74,
                    "time": 91.875,
                    "velocity": 1,
                    "duration": 0.2864583333333286
                },
                {
                    "name": "F5",
                    "midi": 77,
                    "time": 92.1875,
                    "velocity": 1,
                    "duration": 0.2864583333333286
                },
                {
                    "name": "E5",
                    "midi": 76,
                    "time": 92.5,
                    "velocity": 1,
                    "duration": 0.2864583333333286
                },
                {
                    "name": "D5",
                    "midi": 74,
                    "time": 92.8125,
                    "velocity": 1,
                    "duration": 0.2864583333333286
                },
                {
                    "name": "C5",
                    "midi": 72,
                    "time": 93.125,
                    "velocity": 1,
                    "duration": 0.2864583333333286
                },
                {
                    "name": "B4",
                    "midi": 71,
                    "time": 93.4375,
                    "velocity": 1,
                    "duration": 0.2864583333333286
                },
                {
                    "name": "C5",
                    "midi": 72,
                    "time": 93.75,
                    "velocity": 1,
                    "duration": 0.2864583333333286
                },
                {
                    "name": "B4",
                    "midi": 71,
                    "time": 94.0625,
                    "velocity": 1,
                    "duration": 0.2864583333333286
                },
                {
                    "name": "A4",
                    "midi": 69,
                    "time": 94.375,
                    "velocity": 1,
                    "duration": 0.2864583333333286
                },
                {
                    "name": "D5",
                    "midi": 74,
                    "time": 94.6875,
                    "velocity": 1,
                    "duration": 0.5989583333333286
                },
                {
                    "name": "C5",
                    "midi": 72,
                    "time": 95.3125,
                    "velocity": 1,
                    "duration": 0.2864583333333286
                },
                {
                    "name": "B4",
                    "midi": 71,
                    "time": 95.625,
                    "velocity": 1,
                    "duration": 0.5989583333333286
                },
                {
                    "name": "A4",
                    "midi": 69,
                    "time": 96.25,
                    "velocity": 1,
                    "duration": 0.2864583333333286
                },
                {
                    "name": "G4",
                    "midi": 67,
                    "time": 96.5625,
                    "velocity": 1,
                    "duration": 0.9114583333333286
                },
                {
                    "name": "B4",
                    "midi": 71,
                    "time": 98.4375,
                    "velocity": 1,
                    "duration": 0.5989583333333286
                },
                {
                    "name": "C5",
                    "midi": 72,
                    "time": 99.0625,
                    "velocity": 1,
                    "duration": 0.2864583333333286
                },
                {
                    "name": "C5",
                    "midi": 72,
                    "time": 99.375,
                    "velocity": 1,
                    "duration": 0.5989583333333286
                },
                {
                    "name": "B4",
                    "midi": 71,
                    "time": 100,
                    "velocity": 1,
                    "duration": 0.2864583333333286
                },
                {
                    "name": "D5",
                    "midi": 74,
                    "time": 100.3125,
                    "velocity": 1,
                    "duration": 0.5989583333333286
                },
                {
                    "name": "E5",
                    "midi": 76,
                    "time": 100.9375,
                    "velocity": 1,
                    "duration": 0.2864583333333286
                },
                {
                    "name": "E5",
                    "midi": 76,
                    "time": 101.25,
                    "velocity": 1,
                    "duration": 0.5989583333333286
                },
                {
                    "name": "D5",
                    "midi": 74,
                    "time": 101.875,
                    "velocity": 1,
                    "duration": 0.2864583333333286
                },
                {
                    "name": "B4",
                    "midi": 71,
                    "time": 103.125,
                    "velocity": 1,
                    "duration": 0.2864583333333286
                },
                {
                    "name": "D5",
                    "midi": 74,
                    "time": 103.4375,
                    "velocity": 1,
                    "duration": 0.2864583333333286
                },
                {
                    "name": "C5",
                    "midi": 72,
                    "time": 103.75,
                    "velocity": 1,
                    "duration": 0.2864583333333286
                },
                {
                    "name": "B4",
                    "midi": 71,
                    "time": 104.0625,
                    "velocity": 1,
                    "duration": 0.2864583333333286
                },
                {
                    "name": "A4",
                    "midi": 69,
                    "time": 104.375,
                    "velocity": 1,
                    "duration": 0.2864583333333286
                },
                {
                    "name": "G4",
                    "midi": 67,
                    "time": 104.6875,
                    "velocity": 1,
                    "duration": 0.2864583333333286
                },
                {
                    "name": "C5",
                    "midi": 72,
                    "time": 105,
                    "velocity": 1,
                    "duration": 0.2864583333333286
                },
                {
                    "name": "E5",
                    "midi": 76,
                    "time": 105.3125,
                    "velocity": 1,
                    "duration": 0.2864583333333286
                },
                {
                    "name": "D5",
                    "midi": 74,
                    "time": 105.625,
                    "velocity": 1,
                    "duration": 0.2864583333333286
                },
                {
                    "name": "C5",
                    "midi": 72,
                    "time": 105.9375,
                    "velocity": 1,
                    "duration": 0.2864583333333286
                },
                {
                    "name": "D5",
                    "midi": 74,
                    "time": 106.25,
                    "velocity": 1,
                    "duration": 0.2864583333333286
                },
                {
                    "name": "E5",
                    "midi": 76,
                    "time": 106.5625,
                    "velocity": 1,
                    "duration": 0.2864583333333286
                },
                {
                    "name": "B4",
                    "midi": 71,
                    "time": 106.875,
                    "velocity": 1,
                    "duration": 0.2864583333333286
                },
                {
                    "name": "D5",
                    "midi": 74,
                    "time": 107.1875,
                    "velocity": 1,
                    "duration": 0.2864583333333286
                },
                {
                    "name": "C5",
                    "midi": 72,
                    "time": 107.5,
                    "velocity": 1,
                    "duration": 0.2864583333333286
                },
                {
                    "name": "B4",
                    "midi": 71,
                    "time": 107.8125,
                    "velocity": 1,
                    "duration": 0.2864583333333286
                },
                {
                    "name": "A4",
                    "midi": 69,
                    "time": 108.125,
                    "velocity": 1,
                    "duration": 0.2864583333333286
                },
                {
                    "name": "G4",
                    "midi": 67,
                    "time": 108.4375,
                    "velocity": 1,
                    "duration": 0.2864583333333286
                },
                {
                    "name": "C5",
                    "midi": 72,
                    "time": 108.75,
                    "velocity": 1,
                    "duration": 0.2864583333333286
                },
                {
                    "name": "E5",
                    "midi": 76,
                    "time": 109.0625,
                    "velocity": 1,
                    "duration": 0.2864583333333286
                },
                {
                    "name": "D5",
                    "midi": 74,
                    "time": 109.375,
                    "velocity": 1,
                    "duration": 0.2864583333333286
                },
                {
                    "name": "C5",
                    "midi": 72,
                    "time": 109.6875,
                    "velocity": 1,
                    "duration": 0.2864583333333286
                },
                {
                    "name": "D5",
                    "midi": 74,
                    "time": 110,
                    "velocity": 1,
                    "duration": 0.2864583333333286
                },
                {
                    "name": "E5",
                    "midi": 76,
                    "time": 110.3125,
                    "velocity": 1,
                    "duration": 0.2864583333333286
                },
                {
                    "name": "B4",
                    "midi": 71,
                    "time": 110.625,
                    "velocity": 1,
                    "duration": 0.2864583333333286
                },
                {
                    "name": "A4",
                    "midi": 69,
                    "time": 110.9375,
                    "velocity": 1,
                    "duration": 0.2864583333333286
                },
                {
                    "name": "G4",
                    "midi": 67,
                    "time": 111.25,
                    "velocity": 1,
                    "duration": 0.2864583333333286
                },
                {
                    "name": "F5",
                    "midi": 77,
                    "time": 112.1875,
                    "velocity": 1,
                    "duration": 0.2864583333333286
                },
                {
                    "name": "E5",
                    "midi": 76,
                    "time": 112.5,
                    "velocity": 1,
                    "duration": 0.2864583333333286
                },
                {
                    "name": "D5",
                    "midi": 74,
                    "time": 112.8125,
                    "velocity": 1,
                    "duration": 0.2864583333333286
                },
                {
                    "name": "C5",
                    "midi": 72,
                    "time": 113.125,
                    "velocity": 1,
                    "duration": 0.2864583333333286
                },
                {
                    "name": "D5",
                    "midi": 74,
                    "time": 113.4375,
                    "velocity": 1,
                    "duration": 0.5989583333333286
                },
                {
                    "name": "C5",
                    "midi": 72,
                    "time": 114.0625,
                    "velocity": 1,
                    "duration": 0.2864583333333286
                },
                {
                    "name": "C5",
                    "midi": 72,
                    "time": 114.375,
                    "velocity": 1,
                    "duration": 1.8489583333333286
                },
                {
                    "name": "G4",
                    "midi": 67,
                    "time": 118.125,
                    "velocity": 1,
                    "duration": 0.9114583333333286
                },
                {
                    "name": "G4",
                    "midi": 67,
                    "time": 119.0625,
                    "velocity": 1,
                    "duration": 0.5989583333333286
                },
                {
                    "name": "C5",
                    "midi": 72,
                    "time": 119.6875,
                    "velocity": 1,
                    "duration": 0.2864583333333286
                },
                {
                    "name": "A4",
                    "midi": 69,
                    "time": 120,
                    "velocity": 1,
                    "duration": 0.2864583333333286
                },
                {
                    "name": "F4",
                    "midi": 65,
                    "time": 120.3125,
                    "velocity": 1,
                    "duration": 0.2864583333333286
                },
                {
                    "name": "G4",
                    "midi": 67,
                    "time": 120.625,
                    "velocity": 1,
                    "duration": 0.2864583333333286
                },
                {
                    "name": "A4",
                    "midi": 69,
                    "time": 120.9375,
                    "velocity": 1,
                    "duration": 0.2864583333333286
                },
                {
                    "name": "D5",
                    "midi": 74,
                    "time": 121.25,
                    "velocity": 1,
                    "duration": 0.2864583333333286
                },
                {
                    "name": "C5",
                    "midi": 72,
                    "time": 121.5625,
                    "velocity": 1,
                    "duration": 0.2864583333333286
                },
                {
                    "name": "B4",
                    "midi": 71,
                    "time": 121.875,
                    "velocity": 1,
                    "duration": 0.2864583333333286
                },
                {
                    "name": "G4",
                    "midi": 67,
                    "time": 122.1875,
                    "velocity": 1,
                    "duration": 0.2864583333333286
                },
                {
                    "name": "A4",
                    "midi": 69,
                    "time": 122.5,
                    "velocity": 1,
                    "duration": 0.2864583333333286
                },
                {
                    "name": "B4",
                    "midi": 71,
                    "time": 122.8125,
                    "velocity": 1,
                    "duration": 0.2864583333333286
                },
                {
                    "name": "E5",
                    "midi": 76,
                    "time": 123.125,
                    "velocity": 1,
                    "duration": 0.2864583333333286
                },
                {
                    "name": "D5",
                    "midi": 74,
                    "time": 123.4375,
                    "velocity": 1,
                    "duration": 0.2864583333333286
                },
                {
                    "name": "C5",
                    "midi": 72,
                    "time": 123.75,
                    "velocity": 1,
                    "duration": 0.2864583333333286
                },
                {
                    "name": "A4",
                    "midi": 69,
                    "time": 124.0625,
                    "velocity": 1,
                    "duration": 0.2864583333333286
                },
                {
                    "name": "B4",
                    "midi": 71,
                    "time": 124.375,
                    "velocity": 1,
                    "duration": 0.2864583333333286
                },
                {
                    "name": "C5",
                    "midi": 72,
                    "time": 124.6875,
                    "velocity": 1,
                    "duration": 0.2864583333333286
                },
                {
                    "name": "F5",
                    "midi": 77,
                    "time": 125,
                    "velocity": 1,
                    "duration": 0.2864583333333286
                },
                {
                    "name": "E5",
                    "midi": 76,
                    "time": 125.3125,
                    "velocity": 1,
                    "duration": 0.2864583333333286
                },
                {
                    "name": "D5",
                    "midi": 74,
                    "time": 125.625,
                    "velocity": 1,
                    "duration": 0.9114583333333286
                },
                {
                    "name": "D5",
                    "midi": 74,
                    "time": 126.5625,
                    "velocity": 1,
                    "duration": 0.2864583333333286
                },
                {
                    "name": "B4",
                    "midi": 71,
                    "time": 126.875,
                    "velocity": 1,
                    "duration": 0.2864583333333286
                },
                {
                    "name": "C5",
                    "midi": 72,
                    "time": 127.1875,
                    "velocity": 1,
                    "duration": 0.2864583333333286
                },
                {
                    "name": "D5",
                    "midi": 74,
                    "time": 127.5,
                    "velocity": 1,
                    "duration": 0.9114583333333428
                },
                {
                    "name": "D5",
                    "midi": 74,
                    "time": 128.4375,
                    "velocity": 1,
                    "duration": 0.2864583333333428
                },
                {
                    "name": "B4",
                    "midi": 71,
                    "time": 128.75,
                    "velocity": 1,
                    "duration": 0.2864583333333428
                },
                {
                    "name": "C5",
                    "midi": 72,
                    "time": 129.0625,
                    "velocity": 1,
                    "duration": 0.2864583333333428
                },
                {
                    "name": "D5",
                    "midi": 74,
                    "time": 129.375,
                    "velocity": 1,
                    "duration": 0.5989583333333428
                },
                {
                    "name": "G4",
                    "midi": 67,
                    "time": 130,
                    "velocity": 1,
                    "duration": 0.2864583333333428
                },
                {
                    "name": "D5",
                    "midi": 74,
                    "time": 130.9375,
                    "velocity": 1,
                    "duration": 0.2864583333333428
                },
                {
                    "name": "E5",
                    "midi": 76,
                    "time": 131.25,
                    "velocity": 1,
                    "duration": 0.2864583333333428
                },
                {
                    "name": "D5",
                    "midi": 74,
                    "time": 131.5625,
                    "velocity": 1,
                    "duration": 0.2864583333333428
                },
                {
                    "name": "C5",
                    "midi": 72,
                    "time": 131.875,
                    "velocity": 1,
                    "duration": 0.2864583333333428
                },
                {
                    "name": "C5",
                    "midi": 72,
                    "time": 132.1875,
                    "velocity": 1,
                    "duration": 0.2864583333333428
                },
                {
                    "name": "D5",
                    "midi": 74,
                    "time": 132.5,
                    "velocity": 1,
                    "duration": 0.2864583333333428
                },
                {
                    "name": "B4",
                    "midi": 71,
                    "time": 132.8125,
                    "velocity": 1,
                    "duration": 0.2864583333333428
                },
                {
                    "name": "C5",
                    "midi": 72,
                    "time": 133.125,
                    "velocity": 1,
                    "duration": 1.8489583333333428
                }
            ],
            "controlChanges": {
                "10": [
                    {
                        "number": 10,
                        "time": 0,
                        "value": 0.5039370078740157
                    }
                ]
            },
            "id": 1,
            "name": "Solo",
            "instrumentNumber": 52,
            "instrument": "choir aahs",
            "instrumentFamily": "ensemble",
            "channelNumber": 0,
            "isPercussion": false
        },
        {
            "startTime": 0,
            "duration": 161.22395833333334,
            "length": 337,
            "notes": [
                {
                    "name": "C5",
                    "midi": 72,
                    "time": 0,
                    "velocity": 1,
                    "duration": 0.44270833333333337
                },
                {
                    "name": "D5",
                    "midi": 74,
                    "time": 0.46875000000000006,
                    "velocity": 1,
                    "duration": 0.13020833333333331
                },
                {
                    "name": "C5",
                    "midi": 72,
                    "time": 0.625,
                    "velocity": 1,
                    "duration": 0.28645833333333326
                },
                {
                    "name": "E5",
                    "midi": 76,
                    "time": 0.9374999999999999,
                    "velocity": 1,
                    "duration": 0.5989583333333334
                },
                {
                    "name": "G5",
                    "midi": 79,
                    "time": 0.9374999999999999,
                    "velocity": 1,
                    "duration": 0.5989583333333334
                },
                {
                    "name": "C5",
                    "midi": 72,
                    "time": 1.5625,
                    "velocity": 1,
                    "duration": 0.28645833333333326
                },
                {
                    "name": "B4",
                    "midi": 71,
                    "time": 1.875,
                    "velocity": 1,
                    "duration": 0.911458333333333
                },
                {
                    "name": "C5",
                    "midi": 72,
                    "time": 2.8124999999999996,
                    "velocity": 1,
                    "duration": 0.9114583333333335
                },
                {
                    "name": "D5",
                    "midi": 74,
                    "time": 3.7499999999999996,
                    "velocity": 1,
                    "duration": 0.4427083333333335
                },
                {
                    "name": "E5",
                    "midi": 76,
                    "time": 4.21875,
                    "velocity": 1,
                    "duration": 0.13020833333333304
                },
                {
                    "name": "F5",
                    "midi": 77,
                    "time": 4.375,
                    "velocity": 1,
                    "duration": 0.28645833333333304
                },
                {
                    "name": "C5",
                    "midi": 72,
                    "time": 4.375,
                    "velocity": 1,
                    "duration": 0.28645833333333304
                },
                {
                    "name": "B4",
                    "midi": 71,
                    "time": 4.6875,
                    "velocity": 1,
                    "duration": 0.44270833333333304
                },
                {
                    "name": "C5",
                    "midi": 72,
                    "time": 5.15625,
                    "velocity": 1,
                    "duration": 0.13020833333333304
                },
                {
                    "name": "D5",
                    "midi": 74,
                    "time": 5.3125,
                    "velocity": 1,
                    "duration": 0.28645833333333304
                },
                {
                    "name": "B4",
                    "midi": 71,
                    "time": 5.3125,
                    "velocity": 1,
                    "duration": 0.28645833333333304
                },
                {
                    "name": "E5",
                    "midi": 76,
                    "time": 5.625,
                    "velocity": 1,
                    "duration": 0.598958333333333
                },
                {
                    "name": "D5",
                    "midi": 74,
                    "time": 6.25,
                    "velocity": 1,
                    "duration": 0.28645833333333304
                },
                {
                    "name": "C5",
                    "midi": 72,
                    "time": 6.5625,
                    "velocity": 1,
                    "duration": 0.911458333333333
                },
                {
                    "name": "E5",
                    "midi": 76,
                    "time": 7.5,
                    "velocity": 1,
                    "duration": 0.44270833333333304
                },
                {
                    "name": "F5",
                    "midi": 77,
                    "time": 7.96875,
                    "velocity": 1,
                    "duration": 0.13020833333333393
                },
                {
                    "name": "E5",
                    "midi": 76,
                    "time": 8.125,
                    "velocity": 1,
                    "duration": 0.2864583333333339
                },
                {
                    "name": "G5",
                    "midi": 79,
                    "time": 8.4375,
                    "velocity": 1,
                    "duration": 0.5989583333333339
                },
                {
                    "name": "E5",
                    "midi": 76,
                    "time": 9.0625,
                    "velocity": 1,
                    "duration": 0.2864583333333339
                },
                {
                    "name": "C#5",
                    "midi": 73,
                    "time": 9.375,
                    "velocity": 1,
                    "duration": 0.9114583333333339
                },
                {
                    "name": "C#5",
                    "midi": 73,
                    "time": 10.3125,
                    "velocity": 1,
                    "duration": 0.4427083333333339
                },
                {
                    "name": "B4",
                    "midi": 71,
                    "time": 10.78125,
                    "velocity": 1,
                    "duration": 0.13020833333333393
                },
                {
                    "name": "A4",
                    "midi": 69,
                    "time": 10.9375,
                    "velocity": 1,
                    "duration": 0.2864583333333339
                },
                {
                    "name": "F5",
                    "midi": 77,
                    "time": 11.25,
                    "velocity": 1,
                    "duration": 0.4427083333333339
                },
                {
                    "name": "D5",
                    "midi": 74,
                    "time": 11.25,
                    "velocity": 1,
                    "duration": 0.4427083333333339
                },
                {
                    "name": "E5",
                    "midi": 76,
                    "time": 11.71875,
                    "velocity": 1,
                    "duration": 0.13020833333333393
                },
                {
                    "name": "D5",
                    "midi": 74,
                    "time": 11.875,
                    "velocity": 1,
                    "duration": 0.2864583333333339
                },
                {
                    "name": "D5",
                    "midi": 74,
                    "time": 12.1875,
                    "velocity": 1,
                    "duration": 0.4427083333333339
                },
                {
                    "name": "E5",
                    "midi": 76,
                    "time": 12.65625,
                    "velocity": 1,
                    "duration": 0.13020833333333393
                },
                {
                    "name": "C#5",
                    "midi": 73,
                    "time": 12.8125,
                    "velocity": 1,
                    "duration": 0.2864583333333339
                },
                {
                    "name": "D5",
                    "midi": 74,
                    "time": 13.125,
                    "velocity": 1,
                    "duration": 0.9114583333333339
                },
                {
                    "name": "D5",
                    "midi": 74,
                    "time": 15,
                    "velocity": 1,
                    "duration": 0.4427083333333339
                },
                {
                    "name": "E5",
                    "midi": 76,
                    "time": 15.46875,
                    "velocity": 1,
                    "duration": 0.13020833333333393
                },
                {
                    "name": "D5",
                    "midi": 74,
                    "time": 15.625,
                    "velocity": 1,
                    "duration": 0.2864583333333339
                },
                {
                    "name": "G5",
                    "midi": 79,
                    "time": 15.9375,
                    "velocity": 1,
                    "duration": 0.5989583333333321
                },
                {
                    "name": "F5",
                    "midi": 77,
                    "time": 16.5625,
                    "velocity": 1,
                    "duration": 0.28645833333333215
                },
                {
                    "name": "F5",
                    "midi": 77,
                    "time": 16.875,
                    "velocity": 1,
                    "duration": 0.5989583333333321
                },
                {
                    "name": "E5",
                    "midi": 76,
                    "time": 17.5,
                    "velocity": 1,
                    "duration": 0.28645833333333215
                },
                {
                    "name": "E5",
                    "midi": 76,
                    "time": 17.8125,
                    "velocity": 1,
                    "duration": 0.44270833333333215
                },
                {
                    "name": "F5",
                    "midi": 77,
                    "time": 18.28125,
                    "velocity": 1,
                    "duration": 0.13020833333333215
                },
                {
                    "name": "G5",
                    "midi": 79,
                    "time": 18.4375,
                    "velocity": 1,
                    "duration": 0.28645833333333215
                },
                {
                    "name": "D5",
                    "midi": 74,
                    "time": 18.75,
                    "velocity": 1,
                    "duration": 0.44270833333333215
                },
                {
                    "name": "E5",
                    "midi": 76,
                    "time": 19.21875,
                    "velocity": 1,
                    "duration": 0.13020833333333215
                },
                {
                    "name": "D5",
                    "midi": 74,
                    "time": 19.375,
                    "velocity": 1,
                    "duration": 0.28645833333333215
                },
                {
                    "name": "G5",
                    "midi": 79,
                    "time": 19.6875,
                    "velocity": 1,
                    "duration": 0.5989583333333321
                },
                {
                    "name": "D5",
                    "midi": 74,
                    "time": 20.3125,
                    "velocity": 1,
                    "duration": 0.28645833333333215
                },
                {
                    "name": "C5",
                    "midi": 72,
                    "time": 20.625,
                    "velocity": 1,
                    "duration": 0.44270833333333215
                },
                {
                    "name": "D5",
                    "midi": 74,
                    "time": 21.09375,
                    "velocity": 1,
                    "duration": 0.13020833333333215
                },
                {
                    "name": "C5",
                    "midi": 72,
                    "time": 21.25,
                    "velocity": 1,
                    "duration": 0.28645833333333215
                },
                {
                    "name": "F5",
                    "midi": 77,
                    "time": 21.5625,
                    "velocity": 1,
                    "duration": 0.5989583333333321
                },
                {
                    "name": "C5",
                    "midi": 72,
                    "time": 22.1875,
                    "velocity": 1,
                    "duration": 0.28645833333333215
                },
                {
                    "name": "B4",
                    "midi": 71,
                    "time": 22.5,
                    "velocity": 1,
                    "duration": 0.28645833333333215
                },
                {
                    "name": "G4",
                    "midi": 67,
                    "time": 22.8125,
                    "velocity": 1,
                    "duration": 0.28645833333333215
                },
                {
                    "name": "B4",
                    "midi": 71,
                    "time": 23.125,
                    "velocity": 1,
                    "duration": 0.28645833333333215
                },
                {
                    "name": "D5",
                    "midi": 74,
                    "time": 23.4375,
                    "velocity": 1,
                    "duration": 0.28645833333333215
                },
                {
                    "name": "F5",
                    "midi": 77,
                    "time": 23.75,
                    "velocity": 1,
                    "duration": 0.28645833333333215
                },
                {
                    "name": "G5",
                    "midi": 79,
                    "time": 24.0625,
                    "velocity": 1,
                    "duration": 0.28645833333333215
                },
                {
                    "name": "E5",
                    "midi": 76,
                    "time": 24.375,
                    "velocity": 1,
                    "duration": 0.28645833333333215
                },
                {
                    "name": "G5",
                    "midi": 79,
                    "time": 24.6875,
                    "velocity": 1,
                    "duration": 0.28645833333333215
                },
                {
                    "name": "F5",
                    "midi": 77,
                    "time": 25,
                    "velocity": 1,
                    "duration": 0.28645833333333215
                },
                {
                    "name": "E5",
                    "midi": 76,
                    "time": 25.3125,
                    "velocity": 1,
                    "duration": 0.28645833333333215
                },
                {
                    "name": "D5",
                    "midi": 74,
                    "time": 25.625,
                    "velocity": 1,
                    "duration": 0.28645833333333215
                },
                {
                    "name": "C5",
                    "midi": 72,
                    "time": 25.9375,
                    "velocity": 1,
                    "duration": 0.28645833333333215
                },
                {
                    "name": "B4",
                    "midi": 71,
                    "time": 26.25,
                    "velocity": 1,
                    "duration": 0.28645833333333215
                },
                {
                    "name": "G4",
                    "midi": 67,
                    "time": 26.5625,
                    "velocity": 1,
                    "duration": 0.28645833333333215
                },
                {
                    "name": "B4",
                    "midi": 71,
                    "time": 26.875,
                    "velocity": 1,
                    "duration": 0.28645833333333215
                },
                {
                    "name": "D5",
                    "midi": 74,
                    "time": 27.1875,
                    "velocity": 1,
                    "duration": 0.28645833333333215
                },
                {
                    "name": "B4",
                    "midi": 71,
                    "time": 27.1875,
                    "velocity": 1,
                    "duration": 0.28645833333333215
                },
                {
                    "name": "F5",
                    "midi": 77,
                    "time": 27.5,
                    "velocity": 1,
                    "duration": 0.28645833333333215
                },
                {
                    "name": "G5",
                    "midi": 79,
                    "time": 27.8125,
                    "velocity": 1,
                    "duration": 0.28645833333333215
                },
                {
                    "name": "E5",
                    "midi": 76,
                    "time": 28.125,
                    "velocity": 1,
                    "duration": 0.44270833333333215
                },
                {
                    "name": "D5",
                    "midi": 74,
                    "time": 28.59375,
                    "velocity": 1,
                    "duration": 0.13020833333333215
                },
                {
                    "name": "C5",
                    "midi": 72,
                    "time": 28.75,
                    "velocity": 1,
                    "duration": 0.28645833333333215
                },
                {
                    "name": "C5",
                    "midi": 72,
                    "time": 29.0625,
                    "velocity": 1,
                    "duration": 0.44270833333333215
                },
                {
                    "name": "D5",
                    "midi": 74,
                    "time": 29.53125,
                    "velocity": 1,
                    "duration": 0.13020833333333215
                },
                {
                    "name": "B4",
                    "midi": 71,
                    "time": 29.6875,
                    "velocity": 1,
                    "duration": 0.28645833333333215
                },
                {
                    "name": "C5",
                    "midi": 72,
                    "time": 30,
                    "velocity": 1,
                    "duration": 0.44270833333333215
                },
                {
                    "name": "D5",
                    "midi": 74,
                    "time": 30.46875,
                    "velocity": 1,
                    "duration": 0.13020833333333215
                },
                {
                    "name": "B4",
                    "midi": 71,
                    "time": 30.625,
                    "velocity": 1,
                    "duration": 0.28645833333333215
                },
                {
                    "name": "C5",
                    "midi": 72,
                    "time": 30.9375,
                    "velocity": 1,
                    "duration": 0.9114583333333321
                },
                {
                    "name": "G4",
                    "midi": 67,
                    "time": 31.875,
                    "velocity": 1,
                    "duration": 0.5989583333333357
                },
                {
                    "name": "C5",
                    "midi": 72,
                    "time": 32.8125,
                    "velocity": 1,
                    "duration": 0.5989583333333357
                },
                {
                    "name": "B4",
                    "midi": 71,
                    "time": 33.75,
                    "velocity": 1,
                    "duration": 0.9114583333333357
                },
                {
                    "name": "C5",
                    "midi": 72,
                    "time": 34.6875,
                    "velocity": 1,
                    "duration": 0.9114583333333357
                },
                {
                    "name": "A4",
                    "midi": 69,
                    "time": 35.625,
                    "velocity": 1,
                    "duration": 0.2864583333333357
                },
                {
                    "name": "D5",
                    "midi": 74,
                    "time": 35.9375,
                    "velocity": 1,
                    "duration": 0.2864583333333357
                },
                {
                    "name": "E5",
                    "midi": 76,
                    "time": 36.25,
                    "velocity": 1,
                    "duration": 0.2864583333333357
                },
                {
                    "name": "F5",
                    "midi": 77,
                    "time": 36.5625,
                    "velocity": 1,
                    "duration": 0.9114583333333357
                },
                {
                    "name": "E5",
                    "midi": 76,
                    "time": 37.5,
                    "velocity": 1,
                    "duration": 1.8489583333333357
                },
                {
                    "name": "E5",
                    "midi": 76,
                    "time": 39.375,
                    "velocity": 1,
                    "duration": 0.9114583333333357
                },
                {
                    "name": "A5",
                    "midi": 81,
                    "time": 40.3125,
                    "velocity": 1,
                    "duration": 0.9114583333333357
                },
                {
                    "name": "A5",
                    "midi": 81,
                    "time": 41.25,
                    "velocity": 1,
                    "duration": 0.9114583333333357
                },
                {
                    "name": "G5",
                    "midi": 79,
                    "time": 42.1875,
                    "velocity": 1,
                    "duration": 0.9114583333333357
                },
                {
                    "name": "G5",
                    "midi": 79,
                    "time": 43.125,
                    "velocity": 1,
                    "duration": 0.9114583333333357
                },
                {
                    "name": "F#5",
                    "midi": 78,
                    "time": 44.0625,
                    "velocity": 1,
                    "duration": 0.9114583333333357
                },
                {
                    "name": "G5",
                    "midi": 79,
                    "time": 45,
                    "velocity": 1,
                    "duration": 0.9114583333333357
                },
                {
                    "name": "F5",
                    "midi": 77,
                    "time": 45.9375,
                    "velocity": 1,
                    "duration": 0.9114583333333357
                },
                {
                    "name": "E5",
                    "midi": 76,
                    "time": 46.875,
                    "velocity": 1,
                    "duration": 0.9114583333333357
                },
                {
                    "name": "C5",
                    "midi": 72,
                    "time": 47.8125,
                    "velocity": 1,
                    "duration": 0.9114583333333357
                },
                {
                    "name": "A4",
                    "midi": 69,
                    "time": 47.8125,
                    "velocity": 1,
                    "duration": 0.9114583333333357
                },
                {
                    "name": "A4",
                    "midi": 69,
                    "time": 48.75,
                    "velocity": 1,
                    "duration": 0.9114583333333357
                },
                {
                    "name": "D5",
                    "midi": 74,
                    "time": 49.6875,
                    "velocity": 1,
                    "duration": 0.9114583333333357
                },
                {
                    "name": "B4",
                    "midi": 71,
                    "time": 50.625,
                    "velocity": 1,
                    "duration": 0.9114583333333357
                },
                {
                    "name": "A4",
                    "midi": 69,
                    "time": 51.5625,
                    "velocity": 1,
                    "duration": 0.9114583333333357
                },
                {
                    "name": "D5",
                    "midi": 74,
                    "time": 52.5,
                    "velocity": 1,
                    "duration": 0.4427083333333357
                },
                {
                    "name": "E5",
                    "midi": 76,
                    "time": 52.96875,
                    "velocity": 1,
                    "duration": 0.1302083333333357
                },
                {
                    "name": "D5",
                    "midi": 74,
                    "time": 53.125,
                    "velocity": 1,
                    "duration": 0.2864583333333357
                },
                {
                    "name": "E5",
                    "midi": 76,
                    "time": 53.4375,
                    "velocity": 1,
                    "duration": 0.5989583333333357
                },
                {
                    "name": "E5",
                    "midi": 76,
                    "time": 54.0625,
                    "velocity": 1,
                    "duration": 0.2864583333333357
                },
                {
                    "name": "E5",
                    "midi": 76,
                    "time": 54.375,
                    "velocity": 1,
                    "duration": 0.5989583333333357
                },
                {
                    "name": "D5",
                    "midi": 74,
                    "time": 55,
                    "velocity": 1,
                    "duration": 0.2864583333333357
                },
                {
                    "name": "D5",
                    "midi": 74,
                    "time": 55.3125,
                    "velocity": 1,
                    "duration": 0.9114583333333357
                },
                {
                    "name": "C5",
                    "midi": 72,
                    "time": 56.25,
                    "velocity": 1,
                    "duration": 0.4427083333333357
                },
                {
                    "name": "D5",
                    "midi": 74,
                    "time": 56.71875,
                    "velocity": 1,
                    "duration": 0.1302083333333357
                },
                {
                    "name": "C5",
                    "midi": 72,
                    "time": 56.875,
                    "velocity": 1,
                    "duration": 0.2864583333333357
                },
                {
                    "name": "A4",
                    "midi": 69,
                    "time": 57.1875,
                    "velocity": 1,
                    "duration": 0.5989583333333357
                },
                {
                    "name": "D5",
                    "midi": 74,
                    "time": 57.1875,
                    "velocity": 1,
                    "duration": 0.5989583333333357
                },
                {
                    "name": "A5",
                    "midi": 81,
                    "time": 57.1875,
                    "velocity": 1,
                    "duration": 0.5989583333333357
                },
                {
                    "name": "C5",
                    "midi": 72,
                    "time": 57.8125,
                    "velocity": 1,
                    "duration": 0.2864583333333357
                },
                {
                    "name": "A4",
                    "midi": 69,
                    "time": 57.8125,
                    "velocity": 1,
                    "duration": 0.2864583333333357
                },
                {
                    "name": "D4",
                    "midi": 62,
                    "time": 57.8125,
                    "velocity": 1,
                    "duration": 0.2864583333333357
                },
                {
                    "name": "C5",
                    "midi": 72,
                    "time": 58.125,
                    "velocity": 1,
                    "duration": 0.5989583333333357
                },
                {
                    "name": "B4",
                    "midi": 71,
                    "time": 58.75,
                    "velocity": 1,
                    "duration": 0.2864583333333357
                },
                {
                    "name": "B4",
                    "midi": 71,
                    "time": 59.0625,
                    "velocity": 1,
                    "duration": 0.9114583333333357
                },
                {
                    "name": "B4",
                    "midi": 71,
                    "time": 60,
                    "velocity": 1,
                    "duration": 0.4427083333333357
                },
                {
                    "name": "C5",
                    "midi": 72,
                    "time": 60.46875,
                    "velocity": 1,
                    "duration": 0.1302083333333357
                },
                {
                    "name": "D5",
                    "midi": 74,
                    "time": 60.625,
                    "velocity": 1,
                    "duration": 0.2864583333333357
                },
                {
                    "name": "C5",
                    "midi": 72,
                    "time": 60.9375,
                    "velocity": 1,
                    "duration": 0.5989583333333357
                },
                {
                    "name": "E4",
                    "midi": 64,
                    "time": 60.9375,
                    "velocity": 1,
                    "duration": 0.5989583333333357
                },
                {
                    "name": "D4",
                    "midi": 62,
                    "time": 61.5625,
                    "velocity": 1,
                    "duration": 0.2864583333333357
                },
                {
                    "name": "B4",
                    "midi": 71,
                    "time": 61.5625,
                    "velocity": 1,
                    "duration": 0.2864583333333357
                },
                {
                    "name": "A4",
                    "midi": 69,
                    "time": 61.875,
                    "velocity": 1,
                    "duration": 0.5989583333333357
                },
                {
                    "name": "C4",
                    "midi": 60,
                    "time": 61.875,
                    "velocity": 1,
                    "duration": 0.5989583333333357
                },
                {
                    "name": "B3",
                    "midi": 59,
                    "time": 62.5,
                    "velocity": 1,
                    "duration": 0.2864583333333357
                },
                {
                    "name": "G#4",
                    "midi": 68,
                    "time": 62.5,
                    "velocity": 1,
                    "duration": 0.2864583333333357
                },
                {
                    "name": "A4",
                    "midi": 69,
                    "time": 62.8125,
                    "velocity": 1,
                    "duration": 0.5989583333333357
                },
                {
                    "name": "C4",
                    "midi": 60,
                    "time": 62.8125,
                    "velocity": 1,
                    "duration": 0.5989583333333357
                },
                {
                    "name": "E4",
                    "midi": 64,
                    "time": 63.4375,
                    "velocity": 1,
                    "duration": 0.2864583333333357
                },
                {
                    "name": "G#4",
                    "midi": 68,
                    "time": 63.4375,
                    "velocity": 1,
                    "duration": 0.2864583333333357
                },
                {
                    "name": "B4",
                    "midi": 71,
                    "time": 63.4375,
                    "velocity": 1,
                    "duration": 0.2864583333333357
                },
                {
                    "name": "C5",
                    "midi": 72,
                    "time": 63.75,
                    "velocity": 1,
                    "duration": 0.2864583333333286
                },
                {
                    "name": "B4",
                    "midi": 71,
                    "time": 64.0625,
                    "velocity": 1,
                    "duration": 0.2864583333333286
                },
                {
                    "name": "A4",
                    "midi": 69,
                    "time": 64.375,
                    "velocity": 1,
                    "duration": 0.2864583333333286
                },
                {
                    "name": "F5",
                    "midi": 77,
                    "time": 64.6875,
                    "velocity": 1,
                    "duration": 0.9114583333333286
                },
                {
                    "name": "B4",
                    "midi": 71,
                    "time": 65.625,
                    "velocity": 1,
                    "duration": 0.4427083333333286
                },
                {
                    "name": "C5",
                    "midi": 72,
                    "time": 66.09375,
                    "velocity": 1,
                    "duration": 0.1302083333333286
                },
                {
                    "name": "B4",
                    "midi": 71,
                    "time": 66.25,
                    "velocity": 1,
                    "duration": 0.2864583333333286
                },
                {
                    "name": "B4",
                    "midi": 71,
                    "time": 66.5625,
                    "velocity": 1,
                    "duration": 0.4427083333333286
                },
                {
                    "name": "C5",
                    "midi": 72,
                    "time": 67.03125,
                    "velocity": 1,
                    "duration": 0.1302083333333286
                },
                {
                    "name": "B4",
                    "midi": 71,
                    "time": 67.1875,
                    "velocity": 1,
                    "duration": 0.2864583333333286
                },
                {
                    "name": "E5",
                    "midi": 76,
                    "time": 67.5,
                    "velocity": 1,
                    "duration": 0.5989583333333286
                },
                {
                    "name": "A4",
                    "midi": 69,
                    "time": 68.125,
                    "velocity": 1,
                    "duration": 0.2864583333333286
                },
                {
                    "name": "A4",
                    "midi": 69,
                    "time": 68.4375,
                    "velocity": 1,
                    "duration": 1.8489583333333286
                },
                {
                    "name": "A#4",
                    "midi": 70,
                    "time": 70.3125,
                    "velocity": 1,
                    "duration": 0.9114583333333286
                },
                {
                    "name": "C5",
                    "midi": 72,
                    "time": 71.25,
                    "velocity": 1,
                    "duration": 0.9114583333333286
                },
                {
                    "name": "C5",
                    "midi": 72,
                    "time": 72.1875,
                    "velocity": 1,
                    "duration": 1.8489583333333286
                },
                {
                    "name": "D5",
                    "midi": 74,
                    "time": 74.0625,
                    "velocity": 1,
                    "duration": 1.8489583333333286
                },
                {
                    "name": "E5",
                    "midi": 76,
                    "time": 75.9375,
                    "velocity": 1,
                    "duration": 1.8489583333333286
                },
                {
                    "name": "C#5",
                    "midi": 73,
                    "time": 77.8125,
                    "velocity": 1,
                    "duration": 0.9114583333333286
                },
                {
                    "name": "A4",
                    "midi": 69,
                    "time": 77.8125,
                    "velocity": 1,
                    "duration": 0.9114583333333286
                },
                {
                    "name": "D5",
                    "midi": 74,
                    "time": 78.75,
                    "velocity": 1,
                    "duration": 1.5364583333333286
                },
                {
                    "name": "C#5",
                    "midi": 73,
                    "time": 80.3125,
                    "velocity": 1,
                    "duration": 0.2864583333333286
                },
                {
                    "name": "D5",
                    "midi": 74,
                    "time": 80.625,
                    "velocity": 1,
                    "duration": 0.4427083333333286
                },
                {
                    "name": "E5",
                    "midi": 76,
                    "time": 81.09375,
                    "velocity": 1,
                    "duration": 0.1302083333333286
                },
                {
                    "name": "D5",
                    "midi": 74,
                    "time": 81.25,
                    "velocity": 1,
                    "duration": 0.2864583333333286
                },
                {
                    "name": "F5",
                    "midi": 77,
                    "time": 81.5625,
                    "velocity": 1,
                    "duration": 0.5989583333333286
                },
                {
                    "name": "D5",
                    "midi": 74,
                    "time": 82.1875,
                    "velocity": 1,
                    "duration": 0.2864583333333286
                },
                {
                    "name": "A#4",
                    "midi": 70,
                    "time": 82.5,
                    "velocity": 1,
                    "duration": 0.4427083333333286
                },
                {
                    "name": "C5",
                    "midi": 72,
                    "time": 82.96875,
                    "velocity": 1,
                    "duration": 0.1302083333333286
                },
                {
                    "name": "A#4",
                    "midi": 70,
                    "time": 83.125,
                    "velocity": 1,
                    "duration": 0.2864583333333286
                },
                {
                    "name": "A#4",
                    "midi": 70,
                    "time": 83.4375,
                    "velocity": 1,
                    "duration": 0.5989583333333286
                },
                {
                    "name": "A#4",
                    "midi": 70,
                    "time": 84.0625,
                    "velocity": 1,
                    "duration": 0.2864583333333286
                },
                {
                    "name": "E5",
                    "midi": 76,
                    "time": 84.375,
                    "velocity": 1,
                    "duration": 0.4427083333333286
                },
                {
                    "name": "F5",
                    "midi": 77,
                    "time": 84.84375,
                    "velocity": 1,
                    "duration": 0.1302083333333286
                },
                {
                    "name": "E5",
                    "midi": 76,
                    "time": 85,
                    "velocity": 1,
                    "duration": 0.2864583333333286
                },
                {
                    "name": "G5",
                    "midi": 79,
                    "time": 85.3125,
                    "velocity": 1,
                    "duration": 0.5989583333333286
                },
                {
                    "name": "A#4",
                    "midi": 70,
                    "time": 85.9375,
                    "velocity": 1,
                    "duration": 0.2864583333333286
                },
                {
                    "name": "G4",
                    "midi": 67,
                    "time": 85.9375,
                    "velocity": 1,
                    "duration": 0.2864583333333286
                },
                {
                    "name": "A#4",
                    "midi": 70,
                    "time": 86.25,
                    "velocity": 1,
                    "duration": 0.5989583333333286
                },
                {
                    "name": "F4",
                    "midi": 65,
                    "time": 86.25,
                    "velocity": 1,
                    "duration": 0.5989583333333286
                },
                {
                    "name": "A4",
                    "midi": 69,
                    "time": 86.875,
                    "velocity": 1,
                    "duration": 0.2864583333333286
                },
                {
                    "name": "F4",
                    "midi": 65,
                    "time": 87.1875,
                    "velocity": 1,
                    "duration": 0.5989583333333286
                },
                {
                    "name": "A4",
                    "midi": 69,
                    "time": 87.1875,
                    "velocity": 1,
                    "duration": 0.5989583333333286
                },
                {
                    "name": "A4",
                    "midi": 69,
                    "time": 88.125,
                    "velocity": 1,
                    "duration": 0.9114583333333286
                },
                {
                    "name": "A4",
                    "midi": 69,
                    "time": 89.0625,
                    "velocity": 1,
                    "duration": 0.9114583333333286
                },
                {
                    "name": "C5",
                    "midi": 72,
                    "time": 89.0625,
                    "velocity": 1,
                    "duration": 0.9114583333333286
                },
                {
                    "name": "B4",
                    "midi": 71,
                    "time": 90,
                    "velocity": 1,
                    "duration": 1.8489583333333286
                },
                {
                    "name": "B4",
                    "midi": 71,
                    "time": 91.875,
                    "velocity": 1,
                    "duration": 0.9114583333333286
                },
                {
                    "name": "B4",
                    "midi": 71,
                    "time": 92.8125,
                    "velocity": 1,
                    "duration": 0.9114583333333286
                },
                {
                    "name": "C5",
                    "midi": 72,
                    "time": 93.75,
                    "velocity": 1,
                    "duration": 1.8489583333333286
                },
                {
                    "name": "G4",
                    "midi": 67,
                    "time": 95.625,
                    "velocity": 1,
                    "duration": 0.9114583333333286
                },
                {
                    "name": "B4",
                    "midi": 71,
                    "time": 95.625,
                    "velocity": 1,
                    "duration": 0.9114583333333286
                },
                {
                    "name": "D5",
                    "midi": 74,
                    "time": 96.5625,
                    "velocity": 1,
                    "duration": 0.5989583333333286
                },
                {
                    "name": "C5",
                    "midi": 72,
                    "time": 97.1875,
                    "velocity": 1,
                    "duration": 0.2864583333333286
                },
                {
                    "name": "B4",
                    "midi": 71,
                    "time": 97.5,
                    "velocity": 1,
                    "duration": 0.2864583333333286
                },
                {
                    "name": "A4",
                    "midi": 69,
                    "time": 97.8125,
                    "velocity": 1,
                    "duration": 0.2864583333333286
                },
                {
                    "name": "G4",
                    "midi": 67,
                    "time": 98.125,
                    "velocity": 1,
                    "duration": 0.2864583333333286
                },
                {
                    "name": "D5",
                    "midi": 74,
                    "time": 98.4375,
                    "velocity": 1,
                    "duration": 0.5989583333333286
                },
                {
                    "name": "E5",
                    "midi": 76,
                    "time": 99.0625,
                    "velocity": 1,
                    "duration": 0.2864583333333286
                },
                {
                    "name": "E5",
                    "midi": 76,
                    "time": 99.375,
                    "velocity": 1,
                    "duration": 0.5989583333333286
                },
                {
                    "name": "D5",
                    "midi": 74,
                    "time": 100,
                    "velocity": 1,
                    "duration": 0.2864583333333286
                },
                {
                    "name": "B4",
                    "midi": 71,
                    "time": 100.3125,
                    "velocity": 1,
                    "duration": 0.5989583333333286
                },
                {
                    "name": "C5",
                    "midi": 72,
                    "time": 100.9375,
                    "velocity": 1,
                    "duration": 0.2864583333333286
                },
                {
                    "name": "C5",
                    "midi": 72,
                    "time": 101.25,
                    "velocity": 1,
                    "duration": 0.5989583333333286
                },
                {
                    "name": "B4",
                    "midi": 71,
                    "time": 101.875,
                    "velocity": 1,
                    "duration": 0.2864583333333286
                },
                {
                    "name": "D5",
                    "midi": 74,
                    "time": 103.125,
                    "velocity": 1,
                    "duration": 0.2864583333333286
                },
                {
                    "name": "F5",
                    "midi": 77,
                    "time": 103.4375,
                    "velocity": 1,
                    "duration": 0.2864583333333286
                },
                {
                    "name": "E5",
                    "midi": 76,
                    "time": 103.75,
                    "velocity": 1,
                    "duration": 0.2864583333333286
                },
                {
                    "name": "D5",
                    "midi": 74,
                    "time": 104.0625,
                    "velocity": 1,
                    "duration": 0.2864583333333286
                },
                {
                    "name": "C5",
                    "midi": 72,
                    "time": 104.375,
                    "velocity": 1,
                    "duration": 0.2864583333333286
                },
                {
                    "name": "B4",
                    "midi": 71,
                    "time": 104.6875,
                    "velocity": 1,
                    "duration": 0.2864583333333286
                },
                {
                    "name": "E5",
                    "midi": 76,
                    "time": 105,
                    "velocity": 1,
                    "duration": 0.2864583333333286
                },
                {
                    "name": "G5",
                    "midi": 79,
                    "time": 105.3125,
                    "velocity": 1,
                    "duration": 0.2864583333333286
                },
                {
                    "name": "F5",
                    "midi": 77,
                    "time": 105.625,
                    "velocity": 1,
                    "duration": 0.2864583333333286
                },
                {
                    "name": "E5",
                    "midi": 76,
                    "time": 105.9375,
                    "velocity": 1,
                    "duration": 0.2864583333333286
                },
                {
                    "name": "D5",
                    "midi": 74,
                    "time": 106.25,
                    "velocity": 1,
                    "duration": 0.2864583333333286
                },
                {
                    "name": "C5",
                    "midi": 72,
                    "time": 106.5625,
                    "velocity": 1,
                    "duration": 0.2864583333333286
                },
                {
                    "name": "D5",
                    "midi": 74,
                    "time": 106.875,
                    "velocity": 1,
                    "duration": 0.2864583333333286
                },
                {
                    "name": "F5",
                    "midi": 77,
                    "time": 107.1875,
                    "velocity": 1,
                    "duration": 0.2864583333333286
                },
                {
                    "name": "E5",
                    "midi": 76,
                    "time": 107.5,
                    "velocity": 1,
                    "duration": 0.2864583333333286
                },
                {
                    "name": "D5",
                    "midi": 74,
                    "time": 107.8125,
                    "velocity": 1,
                    "duration": 0.2864583333333286
                },
                {
                    "name": "C5",
                    "midi": 72,
                    "time": 108.125,
                    "velocity": 1,
                    "duration": 0.2864583333333286
                },
                {
                    "name": "B4",
                    "midi": 71,
                    "time": 108.4375,
                    "velocity": 1,
                    "duration": 0.2864583333333286
                },
                {
                    "name": "E5",
                    "midi": 76,
                    "time": 108.75,
                    "velocity": 1,
                    "duration": 0.2864583333333286
                },
                {
                    "name": "G5",
                    "midi": 79,
                    "time": 109.0625,
                    "velocity": 1,
                    "duration": 0.2864583333333286
                },
                {
                    "name": "F5",
                    "midi": 77,
                    "time": 109.375,
                    "velocity": 1,
                    "duration": 0.2864583333333286
                },
                {
                    "name": "E5",
                    "midi": 76,
                    "time": 109.6875,
                    "velocity": 1,
                    "duration": 0.2864583333333286
                },
                {
                    "name": "D5",
                    "midi": 74,
                    "time": 110,
                    "velocity": 1,
                    "duration": 0.2864583333333286
                },
                {
                    "name": "C5",
                    "midi": 72,
                    "time": 110.3125,
                    "velocity": 1,
                    "duration": 0.2864583333333286
                },
                {
                    "name": "D5",
                    "midi": 74,
                    "time": 110.625,
                    "velocity": 1,
                    "duration": 0.9114583333333286
                },
                {
                    "name": "D5",
                    "midi": 74,
                    "time": 112.1875,
                    "velocity": 1,
                    "duration": 0.2864583333333286
                },
                {
                    "name": "C5",
                    "midi": 72,
                    "time": 112.5,
                    "velocity": 1,
                    "duration": 0.2864583333333286
                },
                {
                    "name": "D5",
                    "midi": 74,
                    "time": 112.8125,
                    "velocity": 1,
                    "duration": 0.2864583333333286
                },
                {
                    "name": "E5",
                    "midi": 76,
                    "time": 113.125,
                    "velocity": 1,
                    "duration": 0.2864583333333286
                },
                {
                    "name": "B4",
                    "midi": 71,
                    "time": 113.4375,
                    "velocity": 1,
                    "duration": 0.5989583333333286
                },
                {
                    "name": "C5",
                    "midi": 72,
                    "time": 114.0625,
                    "velocity": 1,
                    "duration": 0.2864583333333286
                },
                {
                    "name": "C5",
                    "midi": 72,
                    "time": 114.375,
                    "velocity": 1,
                    "duration": 0.2864583333333286
                },
                {
                    "name": "G5",
                    "midi": 79,
                    "time": 114.6875,
                    "velocity": 1,
                    "duration": 0.2864583333333286
                },
                {
                    "name": "F5",
                    "midi": 77,
                    "time": 115,
                    "velocity": 1,
                    "duration": 0.2864583333333286
                },
                {
                    "name": "E5",
                    "midi": 76,
                    "time": 115.3125,
                    "velocity": 1,
                    "duration": 0.2864583333333286
                },
                {
                    "name": "D5",
                    "midi": 74,
                    "time": 115.625,
                    "velocity": 1,
                    "duration": 0.2864583333333286
                },
                {
                    "name": "C5",
                    "midi": 72,
                    "time": 115.9375,
                    "velocity": 1,
                    "duration": 0.2864583333333286
                },
                {
                    "name": "B4",
                    "midi": 71,
                    "time": 116.25,
                    "velocity": 1,
                    "duration": 0.2864583333333286
                },
                {
                    "name": "D5",
                    "midi": 74,
                    "time": 116.5625,
                    "velocity": 1,
                    "duration": 0.2864583333333286
                },
                {
                    "name": "C5",
                    "midi": 72,
                    "time": 116.875,
                    "velocity": 1,
                    "duration": 0.2864583333333286
                },
                {
                    "name": "B4",
                    "midi": 71,
                    "time": 117.1875,
                    "velocity": 1,
                    "duration": 0.2864583333333286
                },
                {
                    "name": "A4",
                    "midi": 69,
                    "time": 117.5,
                    "velocity": 1,
                    "duration": 0.2864583333333286
                },
                {
                    "name": "G4",
                    "midi": 67,
                    "time": 117.8125,
                    "velocity": 1,
                    "duration": 0.2864583333333286
                },
                {
                    "name": "E5",
                    "midi": 76,
                    "time": 118.125,
                    "velocity": 1,
                    "duration": 0.2864583333333286
                },
                {
                    "name": "D5",
                    "midi": 74,
                    "time": 118.4375,
                    "velocity": 1,
                    "duration": 0.2864583333333286
                },
                {
                    "name": "C5",
                    "midi": 72,
                    "time": 118.75,
                    "velocity": 1,
                    "duration": 0.2864583333333286
                },
                {
                    "name": "C5",
                    "midi": 72,
                    "time": 120,
                    "velocity": 1,
                    "duration": 0.9114583333333286
                },
                {
                    "name": "D5",
                    "midi": 74,
                    "time": 120.9375,
                    "velocity": 1,
                    "duration": 1.8489583333333286
                },
                {
                    "name": "E5",
                    "midi": 76,
                    "time": 122.8125,
                    "velocity": 1,
                    "duration": 1.8489583333333286
                },
                {
                    "name": "F5",
                    "midi": 77,
                    "time": 124.6875,
                    "velocity": 1,
                    "duration": 0.5989583333333286
                },
                {
                    "name": "E5",
                    "midi": 76,
                    "time": 125.3125,
                    "velocity": 1,
                    "duration": 0.2864583333333286
                },
                {
                    "name": "D5",
                    "midi": 74,
                    "time": 125.625,
                    "velocity": 1,
                    "duration": 0.5989583333333286
                },
                {
                    "name": "D5",
                    "midi": 74,
                    "time": 127.5,
                    "velocity": 1,
                    "duration": 1.8489583333333428
                },
                {
                    "name": "G5",
                    "midi": 79,
                    "time": 127.5,
                    "velocity": 1,
                    "duration": 1.8489583333333428
                },
                {
                    "name": "B4",
                    "midi": 71,
                    "time": 129.375,
                    "velocity": 1,
                    "duration": 1.8489583333333428
                },
                {
                    "name": "D5",
                    "midi": 74,
                    "time": 129.375,
                    "velocity": 1,
                    "duration": 1.8489583333333428
                },
                {
                    "name": "E5",
                    "midi": 76,
                    "time": 131.25,
                    "velocity": 1,
                    "duration": 0.9114583333333428
                },
                {
                    "name": "C5",
                    "midi": 72,
                    "time": 131.25,
                    "velocity": 1,
                    "duration": 1.5364583333333428
                },
                {
                    "name": "B4",
                    "midi": 71,
                    "time": 132.8125,
                    "velocity": 1,
                    "duration": 0.2864583333333428
                },
                {
                    "name": "C5",
                    "midi": 72,
                    "time": 133.125,
                    "velocity": 1,
                    "duration": 1.8489583333333428
                },
                {
                    "name": "E5",
                    "midi": 76,
                    "time": 133.125,
                    "velocity": 1,
                    "duration": 1.8489583333333428
                },
                {
                    "name": "C5",
                    "midi": 72,
                    "time": 135,
                    "velocity": 1,
                    "duration": 0.4427083333333428
                },
                {
                    "name": "D5",
                    "midi": 74,
                    "time": 135.46875,
                    "velocity": 1,
                    "duration": 0.1302083333333428
                },
                {
                    "name": "C5",
                    "midi": 72,
                    "time": 135.625,
                    "velocity": 1,
                    "duration": 0.2864583333333428
                },
                {
                    "name": "G5",
                    "midi": 79,
                    "time": 135.9375,
                    "velocity": 1,
                    "duration": 0.5989583333333428
                },
                {
                    "name": "C5",
                    "midi": 72,
                    "time": 136.5625,
                    "velocity": 1,
                    "duration": 0.2864583333333428
                },
                {
                    "name": "B4",
                    "midi": 71,
                    "time": 136.875,
                    "velocity": 1,
                    "duration": 0.9114583333333428
                },
                {
                    "name": "C5",
                    "midi": 72,
                    "time": 137.8125,
                    "velocity": 1,
                    "duration": 0.9114583333333428
                },
                {
                    "name": "D5",
                    "midi": 74,
                    "time": 138.75,
                    "velocity": 1,
                    "duration": 0.4427083333333428
                },
                {
                    "name": "E5",
                    "midi": 76,
                    "time": 139.21875,
                    "velocity": 1,
                    "duration": 0.1302083333333428
                },
                {
                    "name": "F5",
                    "midi": 77,
                    "time": 139.375,
                    "velocity": 1,
                    "duration": 0.2864583333333428
                },
                {
                    "name": "B4",
                    "midi": 71,
                    "time": 139.6875,
                    "velocity": 1,
                    "duration": 0.4427083333333428
                },
                {
                    "name": "C5",
                    "midi": 72,
                    "time": 140.15625,
                    "velocity": 1,
                    "duration": 0.1302083333333428
                },
                {
                    "name": "D5",
                    "midi": 74,
                    "time": 140.3125,
                    "velocity": 1,
                    "duration": 0.2864583333333428
                },
                {
                    "name": "E5",
                    "midi": 76,
                    "time": 140.625,
                    "velocity": 1,
                    "duration": 0.5989583333333428
                },
                {
                    "name": "D5",
                    "midi": 74,
                    "time": 141.25,
                    "velocity": 1,
                    "duration": 0.2864583333333428
                },
                {
                    "name": "C5",
                    "midi": 72,
                    "time": 141.5625,
                    "velocity": 1,
                    "duration": 0.9114583333333428
                },
                {
                    "name": "E5",
                    "midi": 76,
                    "time": 142.5,
                    "velocity": 1,
                    "duration": 0.4427083333333428
                },
                {
                    "name": "F5",
                    "midi": 77,
                    "time": 142.96875,
                    "velocity": 1,
                    "duration": 0.1302083333333428
                },
                {
                    "name": "E5",
                    "midi": 76,
                    "time": 143.125,
                    "velocity": 1,
                    "duration": 0.2864583333333428
                },
                {
                    "name": "G5",
                    "midi": 79,
                    "time": 143.4375,
                    "velocity": 1,
                    "duration": 0.5989583333333428
                },
                {
                    "name": "E5",
                    "midi": 76,
                    "time": 144.0625,
                    "velocity": 1,
                    "duration": 0.2864583333333428
                },
                {
                    "name": "D5",
                    "midi": 74,
                    "time": 144.375,
                    "velocity": 1,
                    "duration": 0.4427083333333428
                },
                {
                    "name": "E5",
                    "midi": 76,
                    "time": 144.84375,
                    "velocity": 1,
                    "duration": 0.1302083333333428
                },
                {
                    "name": "D5",
                    "midi": 74,
                    "time": 145,
                    "velocity": 1,
                    "duration": 0.2864583333333428
                },
                {
                    "name": "G5",
                    "midi": 79,
                    "time": 145.3125,
                    "velocity": 1,
                    "duration": 0.5989583333333428
                },
                {
                    "name": "D5",
                    "midi": 74,
                    "time": 145.9375,
                    "velocity": 1,
                    "duration": 0.2864583333333428
                },
                {
                    "name": "C5",
                    "midi": 72,
                    "time": 146.25,
                    "velocity": 1,
                    "duration": 0.4427083333333428
                },
                {
                    "name": "D5",
                    "midi": 74,
                    "time": 146.71875,
                    "velocity": 1,
                    "duration": 0.1302083333333428
                },
                {
                    "name": "C5",
                    "midi": 72,
                    "time": 146.875,
                    "velocity": 1,
                    "duration": 0.2864583333333428
                },
                {
                    "name": "F5",
                    "midi": 77,
                    "time": 147.1875,
                    "velocity": 1,
                    "duration": 0.5989583333333428
                },
                {
                    "name": "C5",
                    "midi": 72,
                    "time": 147.8125,
                    "velocity": 1,
                    "duration": 0.2864583333333428
                },
                {
                    "name": "B4",
                    "midi": 71,
                    "time": 148.125,
                    "velocity": 1,
                    "duration": 0.2864583333333428
                },
                {
                    "name": "G4",
                    "midi": 67,
                    "time": 148.4375,
                    "velocity": 1,
                    "duration": 0.2864583333333428
                },
                {
                    "name": "A4",
                    "midi": 69,
                    "time": 148.75,
                    "velocity": 1,
                    "duration": 0.2864583333333428
                },
                {
                    "name": "B4",
                    "midi": 71,
                    "time": 149.0625,
                    "velocity": 1,
                    "duration": 0.2864583333333428
                },
                {
                    "name": "C5",
                    "midi": 72,
                    "time": 149.375,
                    "velocity": 1,
                    "duration": 0.2864583333333428
                },
                {
                    "name": "D5",
                    "midi": 74,
                    "time": 149.6875,
                    "velocity": 1,
                    "duration": 0.2864583333333428
                },
                {
                    "name": "E5",
                    "midi": 76,
                    "time": 150,
                    "velocity": 1,
                    "duration": 0.2864583333333428
                },
                {
                    "name": "G5",
                    "midi": 79,
                    "time": 150.3125,
                    "velocity": 1,
                    "duration": 0.2864583333333428
                },
                {
                    "name": "F5",
                    "midi": 77,
                    "time": 150.625,
                    "velocity": 1,
                    "duration": 0.2864583333333428
                },
                {
                    "name": "E5",
                    "midi": 76,
                    "time": 150.9375,
                    "velocity": 1,
                    "duration": 0.2864583333333428
                },
                {
                    "name": "D5",
                    "midi": 74,
                    "time": 151.25,
                    "velocity": 1,
                    "duration": 0.2864583333333428
                },
                {
                    "name": "C5",
                    "midi": 72,
                    "time": 151.5625,
                    "velocity": 1,
                    "duration": 0.2864583333333428
                },
                {
                    "name": "B4",
                    "midi": 71,
                    "time": 151.875,
                    "velocity": 1,
                    "duration": 0.2864583333333428
                },
                {
                    "name": "G4",
                    "midi": 67,
                    "time": 152.1875,
                    "velocity": 1,
                    "duration": 0.2864583333333428
                },
                {
                    "name": "A4",
                    "midi": 69,
                    "time": 152.5,
                    "velocity": 1,
                    "duration": 0.2864583333333428
                },
                {
                    "name": "B4",
                    "midi": 71,
                    "time": 152.8125,
                    "velocity": 1,
                    "duration": 0.2864583333333428
                },
                {
                    "name": "C5",
                    "midi": 72,
                    "time": 153.125,
                    "velocity": 1,
                    "duration": 0.2864583333333428
                },
                {
                    "name": "D5",
                    "midi": 74,
                    "time": 153.4375,
                    "velocity": 1,
                    "duration": 0.2864583333333428
                },
                {
                    "name": "E5",
                    "midi": 76,
                    "time": 153.75,
                    "velocity": 1,
                    "duration": 0.2864583333333428
                },
                {
                    "name": "G5",
                    "midi": 79,
                    "time": 154.0625,
                    "velocity": 1,
                    "duration": 0.2864583333333428
                },
                {
                    "name": "F5",
                    "midi": 77,
                    "time": 154.375,
                    "velocity": 1,
                    "duration": 0.2864583333333428
                },
                {
                    "name": "E5",
                    "midi": 76,
                    "time": 154.6875,
                    "velocity": 1,
                    "duration": 0.2864583333333428
                },
                {
                    "name": "D5",
                    "midi": 74,
                    "time": 155,
                    "velocity": 1,
                    "duration": 0.2864583333333428
                },
                {
                    "name": "C5",
                    "midi": 72,
                    "time": 155.3125,
                    "velocity": 1,
                    "duration": 0.2864583333333428
                },
                {
                    "name": "B4",
                    "midi": 71,
                    "time": 155.625,
                    "velocity": 1,
                    "duration": 0.2864583333333428
                },
                {
                    "name": "A4",
                    "midi": 69,
                    "time": 155.9375,
                    "velocity": 1,
                    "duration": 0.2864583333333428
                },
                {
                    "name": "G4",
                    "midi": 67,
                    "time": 156.25,
                    "velocity": 1,
                    "duration": 0.2864583333333428
                },
                {
                    "name": "G5",
                    "midi": 79,
                    "time": 157.1875,
                    "velocity": 1,
                    "duration": 0.2864583333333428
                },
                {
                    "name": "E5",
                    "midi": 76,
                    "time": 157.5,
                    "velocity": 1,
                    "duration": 0.4427083333333428
                },
                {
                    "name": "D5",
                    "midi": 74,
                    "time": 157.96875,
                    "velocity": 1,
                    "duration": 0.1302083333333428
                },
                {
                    "name": "C5",
                    "midi": 72,
                    "time": 158.125,
                    "velocity": 1,
                    "duration": 0.2864583333333428
                },
                {
                    "name": "C5",
                    "midi": 72,
                    "time": 158.4375,
                    "velocity": 1,
                    "duration": 0.4427083333333428
                },
                {
                    "name": "D5",
                    "midi": 74,
                    "time": 158.90625,
                    "velocity": 1,
                    "duration": 0.1302083333333428
                },
                {
                    "name": "B4",
                    "midi": 71,
                    "time": 159.0625,
                    "velocity": 1,
                    "duration": 0.2864583333333428
                },
                {
                    "name": "C5",
                    "midi": 72,
                    "time": 159.375,
                    "velocity": 1,
                    "duration": 1.8489583333333428
                }
            ],
            "controlChanges": {
                "10": [
                    {
                        "number": 10,
                        "time": 0,
                        "value": 0.5039370078740157
                    }
                ]
            },
            "id": 2,
            "name": "\\vbox{\\hsize\\parindent\\centerline{Organ}\\centerline{or}\\centerline{Piano}}",
            "instrumentNumber": 19,
            "instrument": "church organ",
            "instrumentFamily": "organ",
            "channelNumber": 1,
            "isPercussion": false
        },
        {
            "startTime": 0,
            "duration": 161.22395833333334,
            "length": 226,
            "notes": [
                {
                    "name": "G4",
                    "midi": 67,
                    "time": 0,
                    "velocity": 1,
                    "duration": 0.9114583333333333
                },
                {
                    "name": "E4",
                    "midi": 64,
                    "time": 0,
                    "velocity": 1,
                    "duration": 0.9114583333333333
                },
                {
                    "name": "G4",
                    "midi": 67,
                    "time": 0.9374999999999999,
                    "velocity": 1,
                    "duration": 0.5989583333333334
                },
                {
                    "name": "G4",
                    "midi": 67,
                    "time": 1.5625,
                    "velocity": 1,
                    "duration": 0.28645833333333326
                },
                {
                    "name": "E4",
                    "midi": 64,
                    "time": 1.5625,
                    "velocity": 1,
                    "duration": 0.28645833333333326
                },
                {
                    "name": "G4",
                    "midi": 67,
                    "time": 1.875,
                    "velocity": 1,
                    "duration": 1.848958333333333
                },
                {
                    "name": "E4",
                    "midi": 64,
                    "time": 1.875,
                    "velocity": 1,
                    "duration": 0.911458333333333
                },
                {
                    "name": "E4",
                    "midi": 64,
                    "time": 2.8124999999999996,
                    "velocity": 1,
                    "duration": 0.9114583333333335
                },
                {
                    "name": "F4",
                    "midi": 65,
                    "time": 3.7499999999999996,
                    "velocity": 1,
                    "duration": 0.9114583333333335
                },
                {
                    "name": "A4",
                    "midi": 69,
                    "time": 3.7499999999999996,
                    "velocity": 1,
                    "duration": 0.5989583333333335
                },
                {
                    "name": "D4",
                    "midi": 62,
                    "time": 4.6875,
                    "velocity": 1,
                    "duration": 0.598958333333333
                },
                {
                    "name": "G4",
                    "midi": 67,
                    "time": 4.6875,
                    "velocity": 1,
                    "duration": 0.598958333333333
                },
                {
                    "name": "G4",
                    "midi": 67,
                    "time": 5.3125,
                    "velocity": 1,
                    "duration": 0.28645833333333304
                },
                {
                    "name": "G4",
                    "midi": 67,
                    "time": 5.625,
                    "velocity": 1,
                    "duration": 1.848958333333334
                },
                {
                    "name": "E4",
                    "midi": 64,
                    "time": 5.625,
                    "velocity": 1,
                    "duration": 1.848958333333334
                },
                {
                    "name": "E4",
                    "midi": 64,
                    "time": 7.500000000000001,
                    "velocity": 1,
                    "duration": 0.911458333333333
                },
                {
                    "name": "B4",
                    "midi": 71,
                    "time": 7.500000000000001,
                    "velocity": 1,
                    "duration": 0.911458333333333
                },
                {
                    "name": "E4",
                    "midi": 64,
                    "time": 8.4375,
                    "velocity": 1,
                    "duration": 0.9114583333333339
                },
                {
                    "name": "B4",
                    "midi": 71,
                    "time": 8.4375,
                    "velocity": 1,
                    "duration": 0.9114583333333339
                },
                {
                    "name": "E4",
                    "midi": 64,
                    "time": 9.375,
                    "velocity": 1,
                    "duration": 1.848958333333334
                },
                {
                    "name": "A4",
                    "midi": 69,
                    "time": 9.375,
                    "velocity": 1,
                    "duration": 1.848958333333334
                },
                {
                    "name": "D4",
                    "midi": 62,
                    "time": 11.25,
                    "velocity": 1,
                    "duration": 0.5989583333333339
                },
                {
                    "name": "B4",
                    "midi": 71,
                    "time": 11.25,
                    "velocity": 1,
                    "duration": 0.9114583333333339
                },
                {
                    "name": "F4",
                    "midi": 65,
                    "time": 11.875,
                    "velocity": 1,
                    "duration": 0.2864583333333339
                },
                {
                    "name": "E4",
                    "midi": 64,
                    "time": 12.1875,
                    "velocity": 1,
                    "duration": 0.9114583333333339
                },
                {
                    "name": "A4",
                    "midi": 69,
                    "time": 12.1875,
                    "velocity": 1,
                    "duration": 0.9114583333333339
                },
                {
                    "name": "F4",
                    "midi": 65,
                    "time": 13.125,
                    "velocity": 1,
                    "duration": 0.9114583333333339
                },
                {
                    "name": "A4",
                    "midi": 69,
                    "time": 13.125,
                    "velocity": 1,
                    "duration": 0.9114583333333339
                },
                {
                    "name": "F#4",
                    "midi": 66,
                    "time": 14.0625,
                    "velocity": 1,
                    "duration": 0.9114583333333339
                },
                {
                    "name": "A4",
                    "midi": 69,
                    "time": 14.0625,
                    "velocity": 1,
                    "duration": 0.9114583333333339
                },
                {
                    "name": "G4",
                    "midi": 67,
                    "time": 15,
                    "velocity": 1,
                    "duration": 0.9114583333333339
                },
                {
                    "name": "G4",
                    "midi": 67,
                    "time": 15.9375,
                    "velocity": 1,
                    "duration": 0.9114583333333321
                },
                {
                    "name": "D5",
                    "midi": 74,
                    "time": 15.9375,
                    "velocity": 1,
                    "duration": 0.9114583333333321
                },
                {
                    "name": "G4",
                    "midi": 67,
                    "time": 16.875,
                    "velocity": 1,
                    "duration": 1.8489583333333321
                },
                {
                    "name": "C5",
                    "midi": 72,
                    "time": 16.875,
                    "velocity": 1,
                    "duration": 1.8489583333333321
                },
                {
                    "name": "A4",
                    "midi": 69,
                    "time": 18.75,
                    "velocity": 1,
                    "duration": 0.9114583333333321
                },
                {
                    "name": "G4",
                    "midi": 67,
                    "time": 19.6875,
                    "velocity": 1,
                    "duration": 0.9114583333333321
                },
                {
                    "name": "G4",
                    "midi": 67,
                    "time": 20.625,
                    "velocity": 1,
                    "duration": 0.9114583333333321
                },
                {
                    "name": "F4",
                    "midi": 65,
                    "time": 21.5625,
                    "velocity": 1,
                    "duration": 0.9114583333333321
                },
                {
                    "name": "D4",
                    "midi": 62,
                    "time": 22.5,
                    "velocity": 1,
                    "duration": 0.9114583333333321
                },
                {
                    "name": "B4",
                    "midi": 71,
                    "time": 23.4375,
                    "velocity": 1,
                    "duration": 0.9114583333333321
                },
                {
                    "name": "G4",
                    "midi": 67,
                    "time": 24.375,
                    "velocity": 1,
                    "duration": 1.8489583333333321
                },
                {
                    "name": "D4",
                    "midi": 62,
                    "time": 26.25,
                    "velocity": 1,
                    "duration": 0.9114583333333321
                },
                {
                    "name": "D4",
                    "midi": 62,
                    "time": 27.1875,
                    "velocity": 1,
                    "duration": 0.28645833333333215
                },
                {
                    "name": "E4",
                    "midi": 64,
                    "time": 28.125,
                    "velocity": 1,
                    "duration": 0.9114583333333321
                },
                {
                    "name": "G4",
                    "midi": 67,
                    "time": 28.125,
                    "velocity": 1,
                    "duration": 0.9114583333333321
                },
                {
                    "name": "G4",
                    "midi": 67,
                    "time": 29.0625,
                    "velocity": 1,
                    "duration": 0.9114583333333321
                },
                {
                    "name": "D4",
                    "midi": 62,
                    "time": 29.0625,
                    "velocity": 1,
                    "duration": 0.9114583333333321
                },
                {
                    "name": "E4",
                    "midi": 64,
                    "time": 30,
                    "velocity": 1,
                    "duration": 0.5989583333333321
                },
                {
                    "name": "G4",
                    "midi": 67,
                    "time": 30,
                    "velocity": 1,
                    "duration": 0.5989583333333321
                },
                {
                    "name": "G4",
                    "midi": 67,
                    "time": 30.625,
                    "velocity": 1,
                    "duration": 0.28645833333333215
                },
                {
                    "name": "G4",
                    "midi": 67,
                    "time": 30.9375,
                    "velocity": 1,
                    "duration": 0.9114583333333321
                },
                {
                    "name": "E4",
                    "midi": 64,
                    "time": 30.9375,
                    "velocity": 1,
                    "duration": 0.9114583333333321
                },
                {
                    "name": "E4",
                    "midi": 64,
                    "time": 31.875,
                    "velocity": 1,
                    "duration": 0.5989583333333357
                },
                {
                    "name": "E4",
                    "midi": 64,
                    "time": 32.8125,
                    "velocity": 1,
                    "duration": 0.5989583333333357
                },
                {
                    "name": "G4",
                    "midi": 67,
                    "time": 33.75,
                    "velocity": 1,
                    "duration": 1.8489583333333357
                },
                {
                    "name": "F4",
                    "midi": 65,
                    "time": 35.625,
                    "velocity": 1,
                    "duration": 0.5989583333333357
                },
                {
                    "name": "C5",
                    "midi": 72,
                    "time": 36.25,
                    "velocity": 1,
                    "duration": 0.2864583333333357
                },
                {
                    "name": "B4",
                    "midi": 71,
                    "time": 36.5625,
                    "velocity": 1,
                    "duration": 0.5989583333333357
                },
                {
                    "name": "G4",
                    "midi": 67,
                    "time": 37.1875,
                    "velocity": 1,
                    "duration": 0.2864583333333357
                },
                {
                    "name": "G4",
                    "midi": 67,
                    "time": 37.5,
                    "velocity": 1,
                    "duration": 1.8489583333333357
                },
                {
                    "name": "A4",
                    "midi": 69,
                    "time": 39.375,
                    "velocity": 1,
                    "duration": 0.9114583333333357
                },
                {
                    "name": "E5",
                    "midi": 76,
                    "time": 40.3125,
                    "velocity": 1,
                    "duration": 0.9114583333333357
                },
                {
                    "name": "D5",
                    "midi": 74,
                    "time": 41.25,
                    "velocity": 1,
                    "duration": 1.8489583333333357
                },
                {
                    "name": "C5",
                    "midi": 72,
                    "time": 43.125,
                    "velocity": 1,
                    "duration": 1.8489583333333357
                },
                {
                    "name": "B4",
                    "midi": 71,
                    "time": 45,
                    "velocity": 1,
                    "duration": 1.8489583333333357
                },
                {
                    "name": "C5",
                    "midi": 72,
                    "time": 46.875,
                    "velocity": 1,
                    "duration": 0.9114583333333357
                },
                {
                    "name": "E4",
                    "midi": 64,
                    "time": 47.8125,
                    "velocity": 1,
                    "duration": 0.9114583333333357
                },
                {
                    "name": "A4",
                    "midi": 69,
                    "time": 48.75,
                    "velocity": 1,
                    "duration": 1.8489583333333357
                },
                {
                    "name": "D4",
                    "midi": 62,
                    "time": 48.75,
                    "velocity": 1,
                    "duration": 1.8489583333333357
                },
                {
                    "name": "G4",
                    "midi": 67,
                    "time": 50.625,
                    "velocity": 1,
                    "duration": 0.9114583333333357
                },
                {
                    "name": "D4",
                    "midi": 62,
                    "time": 50.625,
                    "velocity": 1,
                    "duration": 0.9114583333333357
                },
                {
                    "name": "F#4",
                    "midi": 66,
                    "time": 51.5625,
                    "velocity": 1,
                    "duration": 0.9114583333333357
                },
                {
                    "name": "G4",
                    "midi": 67,
                    "time": 52.5,
                    "velocity": 1,
                    "duration": 1.8489583333333357
                },
                {
                    "name": "B4",
                    "midi": 71,
                    "time": 52.5,
                    "velocity": 1,
                    "duration": 0.9114583333333357
                },
                {
                    "name": "C5",
                    "midi": 72,
                    "time": 53.4375,
                    "velocity": 1,
                    "duration": 0.9114583333333357
                },
                {
                    "name": "G4",
                    "midi": 67,
                    "time": 54.375,
                    "velocity": 1,
                    "duration": 1.8489583333333357
                },
                {
                    "name": "F#4",
                    "midi": 66,
                    "time": 56.25,
                    "velocity": 1,
                    "duration": 1.8489583333333357
                },
                {
                    "name": "D4",
                    "midi": 62,
                    "time": 58.125,
                    "velocity": 1,
                    "duration": 1.8489583333333357
                },
                {
                    "name": "G4",
                    "midi": 67,
                    "time": 58.125,
                    "velocity": 1,
                    "duration": 1.8489583333333357
                },
                {
                    "name": "F4",
                    "midi": 65,
                    "time": 60,
                    "velocity": 1,
                    "duration": 0.9114583333333357
                },
                {
                    "name": "E4",
                    "midi": 64,
                    "time": 63.75,
                    "velocity": 1,
                    "duration": 0.5989583333333286
                },
                {
                    "name": "A4",
                    "midi": 69,
                    "time": 64.375,
                    "velocity": 1,
                    "duration": 0.2864583333333286
                },
                {
                    "name": "B4",
                    "midi": 71,
                    "time": 64.6875,
                    "velocity": 1,
                    "duration": 0.5989583333333286
                },
                {
                    "name": "F4",
                    "midi": 65,
                    "time": 65.3125,
                    "velocity": 1,
                    "duration": 0.2864583333333286
                },
                {
                    "name": "A4",
                    "midi": 69,
                    "time": 65.3125,
                    "velocity": 1,
                    "duration": 0.2864583333333286
                },
                {
                    "name": "A4",
                    "midi": 69,
                    "time": 65.625,
                    "velocity": 1,
                    "duration": 0.5989583333333286
                },
                {
                    "name": "E4",
                    "midi": 64,
                    "time": 65.625,
                    "velocity": 1,
                    "duration": 0.5989583333333286
                },
                {
                    "name": "E4",
                    "midi": 64,
                    "time": 66.25,
                    "velocity": 1,
                    "duration": 0.2864583333333286
                },
                {
                    "name": "G#4",
                    "midi": 68,
                    "time": 66.25,
                    "velocity": 1,
                    "duration": 0.2864583333333286
                },
                {
                    "name": "G#4",
                    "midi": 68,
                    "time": 66.5625,
                    "velocity": 1,
                    "duration": 0.5989583333333286
                },
                {
                    "name": "E4",
                    "midi": 64,
                    "time": 66.5625,
                    "velocity": 1,
                    "duration": 0.5989583333333286
                },
                {
                    "name": "E4",
                    "midi": 64,
                    "time": 67.5,
                    "velocity": 1,
                    "duration": 0.9114583333333286
                },
                {
                    "name": "A4",
                    "midi": 69,
                    "time": 67.5,
                    "velocity": 1,
                    "duration": 0.9114583333333286
                },
                {
                    "name": "E4",
                    "midi": 64,
                    "time": 68.4375,
                    "velocity": 1,
                    "duration": 0.9114583333333286
                },
                {
                    "name": "F4",
                    "midi": 65,
                    "time": 69.375,
                    "velocity": 1,
                    "duration": 0.9114583333333286
                },
                {
                    "name": "F4",
                    "midi": 65,
                    "time": 70.3125,
                    "velocity": 1,
                    "duration": 0.9114583333333286
                },
                {
                    "name": "G4",
                    "midi": 67,
                    "time": 71.25,
                    "velocity": 1,
                    "duration": 0.9114583333333286
                },
                {
                    "name": "G4",
                    "midi": 67,
                    "time": 72.1875,
                    "velocity": 1,
                    "duration": 0.9114583333333286
                },
                {
                    "name": "A4",
                    "midi": 69,
                    "time": 73.125,
                    "velocity": 1,
                    "duration": 0.9114583333333286
                },
                {
                    "name": "A4",
                    "midi": 69,
                    "time": 74.0625,
                    "velocity": 1,
                    "duration": 0.9114583333333286
                },
                {
                    "name": "B4",
                    "midi": 71,
                    "time": 75,
                    "velocity": 1,
                    "duration": 0.9114583333333286
                },
                {
                    "name": "B4",
                    "midi": 71,
                    "time": 75.9375,
                    "velocity": 1,
                    "duration": 0.9114583333333286
                },
                {
                    "name": "C#5",
                    "midi": 73,
                    "time": 76.875,
                    "velocity": 1,
                    "duration": 0.9114583333333286
                },
                {
                    "name": "E4",
                    "midi": 64,
                    "time": 77.8125,
                    "velocity": 1,
                    "duration": 0.9114583333333286
                },
                {
                    "name": "F4",
                    "midi": 65,
                    "time": 78.75,
                    "velocity": 1,
                    "duration": 0.9114583333333286
                },
                {
                    "name": "B4",
                    "midi": 71,
                    "time": 78.75,
                    "velocity": 1,
                    "duration": 0.9114583333333286
                },
                {
                    "name": "A4",
                    "midi": 69,
                    "time": 79.6875,
                    "velocity": 1,
                    "duration": 0.9114583333333286
                },
                {
                    "name": "E4",
                    "midi": 64,
                    "time": 79.6875,
                    "velocity": 1,
                    "duration": 0.9114583333333286
                },
                {
                    "name": "A4",
                    "midi": 69,
                    "time": 80.625,
                    "velocity": 1,
                    "duration": 0.9114583333333286
                },
                {
                    "name": "F4",
                    "midi": 65,
                    "time": 80.625,
                    "velocity": 1,
                    "duration": 0.9114583333333286
                },
                {
                    "name": "A4",
                    "midi": 69,
                    "time": 81.5625,
                    "velocity": 1,
                    "duration": 0.5989583333333286
                },
                {
                    "name": "F4",
                    "midi": 65,
                    "time": 81.5625,
                    "velocity": 1,
                    "duration": 0.5989583333333286
                },
                {
                    "name": "G4",
                    "midi": 67,
                    "time": 82.1875,
                    "velocity": 1,
                    "duration": 0.2864583333333286
                },
                {
                    "name": "D4",
                    "midi": 62,
                    "time": 82.5,
                    "velocity": 1,
                    "duration": 0.9114583333333286
                },
                {
                    "name": "G4",
                    "midi": 67,
                    "time": 83.4375,
                    "velocity": 1,
                    "duration": 0.9114583333333286
                },
                {
                    "name": "G4",
                    "midi": 67,
                    "time": 84.375,
                    "velocity": 1,
                    "duration": 0.9114583333333286
                },
                {
                    "name": "E4",
                    "midi": 64,
                    "time": 84.375,
                    "velocity": 1,
                    "duration": 0.9114583333333286
                },
                {
                    "name": "E4",
                    "midi": 64,
                    "time": 85.3125,
                    "velocity": 1,
                    "duration": 0.5989583333333286
                },
                {
                    "name": "A#4",
                    "midi": 70,
                    "time": 85.3125,
                    "velocity": 1,
                    "duration": 0.5989583333333286
                },
                {
                    "name": "E4",
                    "midi": 64,
                    "time": 85.9375,
                    "velocity": 1,
                    "duration": 0.2864583333333286
                },
                {
                    "name": "C4",
                    "midi": 60,
                    "time": 86.25,
                    "velocity": 1,
                    "duration": 1.5364583333333286
                },
                {
                    "name": "D4",
                    "midi": 62,
                    "time": 88.125,
                    "velocity": 1,
                    "duration": 0.9114583333333286
                },
                {
                    "name": "D4",
                    "midi": 62,
                    "time": 89.0625,
                    "velocity": 1,
                    "duration": 0.9114583333333286
                },
                {
                    "name": "D4",
                    "midi": 62,
                    "time": 90,
                    "velocity": 1,
                    "duration": 1.8489583333333286
                },
                {
                    "name": "E4",
                    "midi": 64,
                    "time": 91.875,
                    "velocity": 1,
                    "duration": 0.9114583333333286
                },
                {
                    "name": "E4",
                    "midi": 64,
                    "time": 92.8125,
                    "velocity": 1,
                    "duration": 0.9114583333333286
                },
                {
                    "name": "E4",
                    "midi": 64,
                    "time": 93.75,
                    "velocity": 1,
                    "duration": 0.9114583333333286
                },
                {
                    "name": "D4",
                    "midi": 62,
                    "time": 94.6875,
                    "velocity": 1,
                    "duration": 0.9114583333333286
                },
                {
                    "name": "D4",
                    "midi": 62,
                    "time": 95.625,
                    "velocity": 1,
                    "duration": 0.9114583333333286
                },
                {
                    "name": "D4",
                    "midi": 62,
                    "time": 97.5,
                    "velocity": 1,
                    "duration": 0.5989583333333286
                },
                {
                    "name": "G4",
                    "midi": 67,
                    "time": 98.125,
                    "velocity": 1,
                    "duration": 0.2864583333333286
                },
                {
                    "name": "B4",
                    "midi": 71,
                    "time": 98.4375,
                    "velocity": 1,
                    "duration": 0.5989583333333286
                },
                {
                    "name": "C5",
                    "midi": 72,
                    "time": 99.0625,
                    "velocity": 1,
                    "duration": 0.2864583333333286
                },
                {
                    "name": "C5",
                    "midi": 72,
                    "time": 99.375,
                    "velocity": 1,
                    "duration": 0.5989583333333286
                },
                {
                    "name": "B4",
                    "midi": 71,
                    "time": 100,
                    "velocity": 1,
                    "duration": 0.2864583333333286
                },
                {
                    "name": "D4",
                    "midi": 62,
                    "time": 100.3125,
                    "velocity": 1,
                    "duration": 0.5989583333333286
                },
                {
                    "name": "E4",
                    "midi": 64,
                    "time": 100.9375,
                    "velocity": 1,
                    "duration": 0.2864583333333286
                },
                {
                    "name": "E4",
                    "midi": 64,
                    "time": 101.25,
                    "velocity": 1,
                    "duration": 0.5989583333333286
                },
                {
                    "name": "D4",
                    "midi": 62,
                    "time": 101.875,
                    "velocity": 1,
                    "duration": 0.2864583333333286
                },
                {
                    "name": "B3",
                    "midi": 59,
                    "time": 102.1875,
                    "velocity": 1,
                    "duration": 0.5989583333333286
                },
                {
                    "name": "B4",
                    "midi": 71,
                    "time": 103.125,
                    "velocity": 1,
                    "duration": 0.9114583333333286
                },
                {
                    "name": "B4",
                    "midi": 71,
                    "time": 104.0625,
                    "velocity": 1,
                    "duration": 0.2864583333333286
                },
                {
                    "name": "A4",
                    "midi": 69,
                    "time": 104.375,
                    "velocity": 1,
                    "duration": 0.2864583333333286
                },
                {
                    "name": "G4",
                    "midi": 67,
                    "time": 104.6875,
                    "velocity": 1,
                    "duration": 0.2864583333333286
                },
                {
                    "name": "C5",
                    "midi": 72,
                    "time": 105,
                    "velocity": 1,
                    "duration": 0.9114583333333286
                },
                {
                    "name": "C5",
                    "midi": 72,
                    "time": 105.9375,
                    "velocity": 1,
                    "duration": 0.9114583333333286
                },
                {
                    "name": "B4",
                    "midi": 71,
                    "time": 106.875,
                    "velocity": 1,
                    "duration": 0.9114583333333286
                },
                {
                    "name": "B4",
                    "midi": 71,
                    "time": 107.8125,
                    "velocity": 1,
                    "duration": 0.2864583333333286
                },
                {
                    "name": "A4",
                    "midi": 69,
                    "time": 108.125,
                    "velocity": 1,
                    "duration": 0.2864583333333286
                },
                {
                    "name": "G4",
                    "midi": 67,
                    "time": 108.4375,
                    "velocity": 1,
                    "duration": 0.2864583333333286
                },
                {
                    "name": "C5",
                    "midi": 72,
                    "time": 108.75,
                    "velocity": 1,
                    "duration": 1.8489583333333286
                },
                {
                    "name": "B4",
                    "midi": 71,
                    "time": 110.625,
                    "velocity": 1,
                    "duration": 0.9114583333333286
                },
                {
                    "name": "E4",
                    "midi": 64,
                    "time": 112.5,
                    "velocity": 1,
                    "duration": 0.9114583333333286
                },
                {
                    "name": "G4",
                    "midi": 67,
                    "time": 112.5,
                    "velocity": 1,
                    "duration": 0.9114583333333286
                },
                {
                    "name": "G4",
                    "midi": 67,
                    "time": 113.4375,
                    "velocity": 1,
                    "duration": 0.9114583333333286
                },
                {
                    "name": "D4",
                    "midi": 62,
                    "time": 113.4375,
                    "velocity": 1,
                    "duration": 0.9114583333333286
                },
                {
                    "name": "E4",
                    "midi": 64,
                    "time": 114.375,
                    "velocity": 1,
                    "duration": 0.2864583333333286
                },
                {
                    "name": "G4",
                    "midi": 67,
                    "time": 114.375,
                    "velocity": 1,
                    "duration": 0.2864583333333286
                },
                {
                    "name": "G4",
                    "midi": 67,
                    "time": 115.3125,
                    "velocity": 1,
                    "duration": 0.9114583333333286
                },
                {
                    "name": "E4",
                    "midi": 64,
                    "time": 115.3125,
                    "velocity": 1,
                    "duration": 0.9114583333333286
                },
                {
                    "name": "D4",
                    "midi": 62,
                    "time": 116.25,
                    "velocity": 1,
                    "duration": 1.8489583333333286
                },
                {
                    "name": "G4",
                    "midi": 67,
                    "time": 116.25,
                    "velocity": 1,
                    "duration": 1.8489583333333286
                },
                {
                    "name": "G4",
                    "midi": 67,
                    "time": 118.125,
                    "velocity": 1,
                    "duration": 0.9114583333333286
                },
                {
                    "name": "E4",
                    "midi": 64,
                    "time": 118.125,
                    "velocity": 1,
                    "duration": 0.9114583333333286
                },
                {
                    "name": "A4",
                    "midi": 69,
                    "time": 120,
                    "velocity": 1,
                    "duration": 1.8489583333333286
                },
                {
                    "name": "B4",
                    "midi": 71,
                    "time": 121.875,
                    "velocity": 1,
                    "duration": 1.8489583333333286
                },
                {
                    "name": "C5",
                    "midi": 72,
                    "time": 123.75,
                    "velocity": 1,
                    "duration": 1.2239583333333286
                },
                {
                    "name": "A4",
                    "midi": 69,
                    "time": 125,
                    "velocity": 1,
                    "duration": 0.2864583333333286
                },
                {
                    "name": "G4",
                    "midi": 67,
                    "time": 125.3125,
                    "velocity": 1,
                    "duration": 0.2864583333333286
                },
                {
                    "name": "B4",
                    "midi": 71,
                    "time": 125.625,
                    "velocity": 1,
                    "duration": 0.5989583333333286
                },
                {
                    "name": "B4",
                    "midi": 71,
                    "time": 127.5,
                    "velocity": 1,
                    "duration": 1.8489583333333428
                },
                {
                    "name": "G4",
                    "midi": 67,
                    "time": 129.375,
                    "velocity": 1,
                    "duration": 1.8489583333333428
                },
                {
                    "name": "G4",
                    "midi": 67,
                    "time": 131.25,
                    "velocity": 1,
                    "duration": 1.8489583333333428
                },
                {
                    "name": "D5",
                    "midi": 74,
                    "time": 132.1875,
                    "velocity": 1,
                    "duration": 0.9114583333333428
                },
                {
                    "name": "G4",
                    "midi": 67,
                    "time": 133.125,
                    "velocity": 1,
                    "duration": 1.8489583333333428
                },
                {
                    "name": "E4",
                    "midi": 64,
                    "time": 135,
                    "velocity": 1,
                    "duration": 0.9114583333333428
                },
                {
                    "name": "G4",
                    "midi": 67,
                    "time": 135,
                    "velocity": 1,
                    "duration": 0.9114583333333428
                },
                {
                    "name": "G4",
                    "midi": 67,
                    "time": 135.9375,
                    "velocity": 1,
                    "duration": 0.5989583333333428
                },
                {
                    "name": "E5",
                    "midi": 76,
                    "time": 135.9375,
                    "velocity": 1,
                    "duration": 0.5989583333333428
                },
                {
                    "name": "G4",
                    "midi": 67,
                    "time": 136.5625,
                    "velocity": 1,
                    "duration": 0.2864583333333428
                },
                {
                    "name": "E4",
                    "midi": 64,
                    "time": 136.5625,
                    "velocity": 1,
                    "duration": 0.2864583333333428
                },
                {
                    "name": "G4",
                    "midi": 67,
                    "time": 136.875,
                    "velocity": 1,
                    "duration": 1.8489583333333428
                },
                {
                    "name": "D4",
                    "midi": 62,
                    "time": 136.875,
                    "velocity": 1,
                    "duration": 0.9114583333333428
                },
                {
                    "name": "C4",
                    "midi": 60,
                    "time": 137.8125,
                    "velocity": 1,
                    "duration": 0.9114583333333428
                },
                {
                    "name": "A4",
                    "midi": 69,
                    "time": 138.75,
                    "velocity": 1,
                    "duration": 0.5989583333333428
                },
                {
                    "name": "F4",
                    "midi": 65,
                    "time": 138.75,
                    "velocity": 1,
                    "duration": 0.9114583333333428
                },
                {
                    "name": "D4",
                    "midi": 62,
                    "time": 139.6875,
                    "velocity": 1,
                    "duration": 0.5989583333333428
                },
                {
                    "name": "G4",
                    "midi": 67,
                    "time": 139.6875,
                    "velocity": 1,
                    "duration": 0.5989583333333428
                },
                {
                    "name": "F4",
                    "midi": 65,
                    "time": 140.3125,
                    "velocity": 1,
                    "duration": 0.2864583333333428
                },
                {
                    "name": "B4",
                    "midi": 71,
                    "time": 140.3125,
                    "velocity": 1,
                    "duration": 0.2864583333333428
                },
                {
                    "name": "G4",
                    "midi": 67,
                    "time": 140.625,
                    "velocity": 1,
                    "duration": 1.8489583333333428
                },
                {
                    "name": "E4",
                    "midi": 64,
                    "time": 140.625,
                    "velocity": 1,
                    "duration": 1.8489583333333428
                },
                {
                    "name": "G4",
                    "midi": 67,
                    "time": 142.5,
                    "velocity": 1,
                    "duration": 0.9114583333333428
                },
                {
                    "name": "G4",
                    "midi": 67,
                    "time": 143.4375,
                    "velocity": 1,
                    "duration": 0.5989583333333428
                },
                {
                    "name": "A4",
                    "midi": 69,
                    "time": 144.0625,
                    "velocity": 1,
                    "duration": 0.2864583333333428
                },
                {
                    "name": "A4",
                    "midi": 69,
                    "time": 144.375,
                    "velocity": 1,
                    "duration": 0.9114583333333428
                },
                {
                    "name": "G4",
                    "midi": 67,
                    "time": 145.3125,
                    "velocity": 1,
                    "duration": 0.9114583333333428
                },
                {
                    "name": "G4",
                    "midi": 67,
                    "time": 146.25,
                    "velocity": 1,
                    "duration": 0.9114583333333428
                },
                {
                    "name": "F4",
                    "midi": 65,
                    "time": 147.1875,
                    "velocity": 1,
                    "duration": 0.9114583333333428
                },
                {
                    "name": "D4",
                    "midi": 62,
                    "time": 148.125,
                    "velocity": 1,
                    "duration": 0.9114583333333428
                },
                {
                    "name": "D4",
                    "midi": 62,
                    "time": 149.0625,
                    "velocity": 1,
                    "duration": 0.2864583333333428
                },
                {
                    "name": "G4",
                    "midi": 67,
                    "time": 149.375,
                    "velocity": 1,
                    "duration": 0.2864583333333428
                },
                {
                    "name": "B4",
                    "midi": 71,
                    "time": 149.6875,
                    "velocity": 1,
                    "duration": 0.2864583333333428
                },
                {
                    "name": "C5",
                    "midi": 72,
                    "time": 150,
                    "velocity": 1,
                    "duration": 0.9114583333333428
                },
                {
                    "name": "C5",
                    "midi": 72,
                    "time": 150.9375,
                    "velocity": 1,
                    "duration": 0.2864583333333428
                },
                {
                    "name": "G4",
                    "midi": 67,
                    "time": 151.25,
                    "velocity": 1,
                    "duration": 0.2864583333333428
                },
                {
                    "name": "E4",
                    "midi": 64,
                    "time": 151.5625,
                    "velocity": 1,
                    "duration": 0.2864583333333428
                },
                {
                    "name": "D4",
                    "midi": 62,
                    "time": 151.875,
                    "velocity": 1,
                    "duration": 0.9114583333333428
                },
                {
                    "name": "D4",
                    "midi": 62,
                    "time": 152.8125,
                    "velocity": 1,
                    "duration": 0.2864583333333428
                },
                {
                    "name": "G4",
                    "midi": 67,
                    "time": 153.125,
                    "velocity": 1,
                    "duration": 0.2864583333333428
                },
                {
                    "name": "B4",
                    "midi": 71,
                    "time": 153.4375,
                    "velocity": 1,
                    "duration": 0.2864583333333428
                },
                {
                    "name": "C5",
                    "midi": 72,
                    "time": 153.75,
                    "velocity": 1,
                    "duration": 0.9114583333333428
                },
                {
                    "name": "C5",
                    "midi": 72,
                    "time": 154.6875,
                    "velocity": 1,
                    "duration": 0.2864583333333428
                },
                {
                    "name": "G4",
                    "midi": 67,
                    "time": 155,
                    "velocity": 1,
                    "duration": 0.2864583333333428
                },
                {
                    "name": "E4",
                    "midi": 64,
                    "time": 155.3125,
                    "velocity": 1,
                    "duration": 0.2864583333333428
                },
                {
                    "name": "D4",
                    "midi": 62,
                    "time": 155.625,
                    "velocity": 1,
                    "duration": 0.9114583333333428
                },
                {
                    "name": "B4",
                    "midi": 71,
                    "time": 157.1875,
                    "velocity": 1,
                    "duration": 0.2864583333333428
                },
                {
                    "name": "G4",
                    "midi": 67,
                    "time": 157.5,
                    "velocity": 1,
                    "duration": 0.9114583333333428
                },
                {
                    "name": "E4",
                    "midi": 64,
                    "time": 157.5,
                    "velocity": 1,
                    "duration": 0.9114583333333428
                },
                {
                    "name": "D4",
                    "midi": 62,
                    "time": 158.4375,
                    "velocity": 1,
                    "duration": 0.5989583333333428
                },
                {
                    "name": "G4",
                    "midi": 67,
                    "time": 158.4375,
                    "velocity": 1,
                    "duration": 0.5989583333333428
                },
                {
                    "name": "G4",
                    "midi": 67,
                    "time": 159.0625,
                    "velocity": 1,
                    "duration": 0.2864583333333428
                },
                {
                    "name": "D4",
                    "midi": 62,
                    "time": 159.0625,
                    "velocity": 1,
                    "duration": 0.2864583333333428
                },
                {
                    "name": "E4",
                    "midi": 64,
                    "time": 159.375,
                    "velocity": 1,
                    "duration": 1.8489583333333428
                },
                {
                    "name": "G4",
                    "midi": 67,
                    "time": 159.375,
                    "velocity": 1,
                    "duration": 1.8489583333333428
                }
            ],
            "controlChanges": {
                "10": [
                    {
                        "number": 10,
                        "time": 0,
                        "value": 0.5039370078740157
                    }
                ]
            },
            "id": 3,
            "name": "\\vbox{\\hsize\\parindent\\centerline{Organ}\\centerline{or}\\centerline{Piano}}",
            "instrumentNumber": 19,
            "instrument": "church organ",
            "instrumentFamily": "organ",
            "channelNumber": 2,
            "isPercussion": false
        },
        {
            "startTime": 0,
            "duration": 161.22395833333334,
            "length": 506,
            "notes": [
                {
                    "name": "C3",
                    "midi": 48,
                    "time": 0,
                    "velocity": 1,
                    "duration": 0.2864583333333333
                },
                {
                    "name": "C4",
                    "midi": 60,
                    "time": 0.3125,
                    "velocity": 1,
                    "duration": 0.28645833333333326
                },
                {
                    "name": "C3",
                    "midi": 48,
                    "time": 0.6249999999999999,
                    "velocity": 1,
                    "duration": 0.28645833333333337
                },
                {
                    "name": "C3",
                    "midi": 48,
                    "time": 0.9374999999999999,
                    "velocity": 1,
                    "duration": 0.28645833333333337
                },
                {
                    "name": "C4",
                    "midi": 60,
                    "time": 1.25,
                    "velocity": 1,
                    "duration": 0.28645833333333326
                },
                {
                    "name": "C3",
                    "midi": 48,
                    "time": 1.5625,
                    "velocity": 1,
                    "duration": 0.28645833333333326
                },
                {
                    "name": "G2",
                    "midi": 43,
                    "time": 1.875,
                    "velocity": 1,
                    "duration": 0.2864583333333335
                },
                {
                    "name": "G3",
                    "midi": 55,
                    "time": 2.1875,
                    "velocity": 1,
                    "duration": 0.2864583333333335
                },
                {
                    "name": "F3",
                    "midi": 53,
                    "time": 2.5,
                    "velocity": 1,
                    "duration": 0.2864583333333335
                },
                {
                    "name": "E3",
                    "midi": 52,
                    "time": 2.8125,
                    "velocity": 1,
                    "duration": 0.2864583333333335
                },
                {
                    "name": "C4",
                    "midi": 60,
                    "time": 3.125,
                    "velocity": 1,
                    "duration": 0.2864583333333335
                },
                {
                    "name": "E3",
                    "midi": 52,
                    "time": 3.4375,
                    "velocity": 1,
                    "duration": 0.2864583333333335
                },
                {
                    "name": "D3",
                    "midi": 50,
                    "time": 3.75,
                    "velocity": 1,
                    "duration": 0.28645833333333304
                },
                {
                    "name": "B2",
                    "midi": 47,
                    "time": 4.0625,
                    "velocity": 1,
                    "duration": 0.28645833333333304
                },
                {
                    "name": "A2",
                    "midi": 45,
                    "time": 4.375,
                    "velocity": 1,
                    "duration": 0.28645833333333304
                },
                {
                    "name": "G2",
                    "midi": 43,
                    "time": 4.6875,
                    "velocity": 1,
                    "duration": 0.28645833333333304
                },
                {
                    "name": "G3",
                    "midi": 55,
                    "time": 5,
                    "velocity": 1,
                    "duration": 0.28645833333333304
                },
                {
                    "name": "G2",
                    "midi": 43,
                    "time": 5.3125,
                    "velocity": 1,
                    "duration": 0.28645833333333304
                },
                {
                    "name": "C3",
                    "midi": 48,
                    "time": 5.625,
                    "velocity": 1,
                    "duration": 0.28645833333333304
                },
                {
                    "name": "C4",
                    "midi": 60,
                    "time": 5.9375,
                    "velocity": 1,
                    "duration": 0.28645833333333304
                },
                {
                    "name": "C3",
                    "midi": 48,
                    "time": 6.25,
                    "velocity": 1,
                    "duration": 0.28645833333333304
                },
                {
                    "name": "C3",
                    "midi": 48,
                    "time": 6.5625,
                    "velocity": 1,
                    "duration": 0.28645833333333304
                },
                {
                    "name": "C4",
                    "midi": 60,
                    "time": 6.875,
                    "velocity": 1,
                    "duration": 0.28645833333333304
                },
                {
                    "name": "C3",
                    "midi": 48,
                    "time": 7.1875,
                    "velocity": 1,
                    "duration": 0.28645833333333304
                },
                {
                    "name": "G2",
                    "midi": 43,
                    "time": 7.5,
                    "velocity": 1,
                    "duration": 0.28645833333333304
                },
                {
                    "name": "G3",
                    "midi": 55,
                    "time": 7.8125,
                    "velocity": 1,
                    "duration": 0.2864583333333339
                },
                {
                    "name": "G2",
                    "midi": 43,
                    "time": 8.125,
                    "velocity": 1,
                    "duration": 0.2864583333333339
                },
                {
                    "name": "G2",
                    "midi": 43,
                    "time": 8.4375,
                    "velocity": 1,
                    "duration": 0.2864583333333339
                },
                {
                    "name": "G3",
                    "midi": 55,
                    "time": 8.75,
                    "velocity": 1,
                    "duration": 0.2864583333333339
                },
                {
                    "name": "G2",
                    "midi": 43,
                    "time": 9.0625,
                    "velocity": 1,
                    "duration": 0.2864583333333339
                },
                {
                    "name": "G2",
                    "midi": 43,
                    "time": 9.375,
                    "velocity": 1,
                    "duration": 0.2864583333333339
                },
                {
                    "name": "G3",
                    "midi": 55,
                    "time": 9.6875,
                    "velocity": 1,
                    "duration": 0.2864583333333339
                },
                {
                    "name": "G2",
                    "midi": 43,
                    "time": 10,
                    "velocity": 1,
                    "duration": 0.2864583333333339
                },
                {
                    "name": "G2",
                    "midi": 43,
                    "time": 10.3125,
                    "velocity": 1,
                    "duration": 0.2864583333333339
                },
                {
                    "name": "G3",
                    "midi": 55,
                    "time": 10.625,
                    "velocity": 1,
                    "duration": 0.2864583333333339
                },
                {
                    "name": "G2",
                    "midi": 43,
                    "time": 10.9375,
                    "velocity": 1,
                    "duration": 0.2864583333333339
                },
                {
                    "name": "G#2",
                    "midi": 44,
                    "time": 11.25,
                    "velocity": 1,
                    "duration": 0.2864583333333339
                },
                {
                    "name": "G#3",
                    "midi": 56,
                    "time": 11.5625,
                    "velocity": 1,
                    "duration": 0.2864583333333339
                },
                {
                    "name": "G#2",
                    "midi": 44,
                    "time": 11.875,
                    "velocity": 1,
                    "duration": 0.2864583333333339
                },
                {
                    "name": "A2",
                    "midi": 45,
                    "time": 12.1875,
                    "velocity": 1,
                    "duration": 0.2864583333333339
                },
                {
                    "name": "A3",
                    "midi": 57,
                    "time": 12.5,
                    "velocity": 1,
                    "duration": 0.2864583333333339
                },
                {
                    "name": "A2",
                    "midi": 45,
                    "time": 12.8125,
                    "velocity": 1,
                    "duration": 0.2864583333333339
                },
                {
                    "name": "D3",
                    "midi": 50,
                    "time": 13.125,
                    "velocity": 1,
                    "duration": 0.2864583333333339
                },
                {
                    "name": "D4",
                    "midi": 62,
                    "time": 13.4375,
                    "velocity": 1,
                    "duration": 0.2864583333333339
                },
                {
                    "name": "D3",
                    "midi": 50,
                    "time": 13.75,
                    "velocity": 1,
                    "duration": 0.2864583333333339
                },
                {
                    "name": "C3",
                    "midi": 48,
                    "time": 14.0625,
                    "velocity": 1,
                    "duration": 0.2864583333333339
                },
                {
                    "name": "C4",
                    "midi": 60,
                    "time": 14.375,
                    "velocity": 1,
                    "duration": 0.2864583333333339
                },
                {
                    "name": "C3",
                    "midi": 48,
                    "time": 14.6875,
                    "velocity": 1,
                    "duration": 0.2864583333333339
                },
                {
                    "name": "B2",
                    "midi": 47,
                    "time": 15,
                    "velocity": 1,
                    "duration": 0.2864583333333339
                },
                {
                    "name": "B3",
                    "midi": 59,
                    "time": 15.3125,
                    "velocity": 1,
                    "duration": 0.2864583333333339
                },
                {
                    "name": "B2",
                    "midi": 47,
                    "time": 15.625,
                    "velocity": 1,
                    "duration": 0.2864583333333339
                },
                {
                    "name": "B2",
                    "midi": 47,
                    "time": 15.9375,
                    "velocity": 1,
                    "duration": 0.28645833333333215
                },
                {
                    "name": "B3",
                    "midi": 59,
                    "time": 16.25,
                    "velocity": 1,
                    "duration": 0.28645833333333215
                },
                {
                    "name": "B2",
                    "midi": 47,
                    "time": 16.5625,
                    "velocity": 1,
                    "duration": 0.28645833333333215
                },
                {
                    "name": "C3",
                    "midi": 48,
                    "time": 16.875,
                    "velocity": 1,
                    "duration": 0.28645833333333215
                },
                {
                    "name": "C4",
                    "midi": 60,
                    "time": 17.1875,
                    "velocity": 1,
                    "duration": 0.28645833333333215
                },
                {
                    "name": "C3",
                    "midi": 48,
                    "time": 17.5,
                    "velocity": 1,
                    "duration": 0.28645833333333215
                },
                {
                    "name": "C3",
                    "midi": 48,
                    "time": 17.8125,
                    "velocity": 1,
                    "duration": 0.28645833333333215
                },
                {
                    "name": "C4",
                    "midi": 60,
                    "time": 18.125,
                    "velocity": 1,
                    "duration": 0.28645833333333215
                },
                {
                    "name": "C3",
                    "midi": 48,
                    "time": 18.4375,
                    "velocity": 1,
                    "duration": 0.28645833333333215
                },
                {
                    "name": "B2",
                    "midi": 47,
                    "time": 18.75,
                    "velocity": 1,
                    "duration": 0.28645833333333215
                },
                {
                    "name": "B3",
                    "midi": 59,
                    "time": 19.0625,
                    "velocity": 1,
                    "duration": 0.28645833333333215
                },
                {
                    "name": "B2",
                    "midi": 47,
                    "time": 19.375,
                    "velocity": 1,
                    "duration": 0.28645833333333215
                },
                {
                    "name": "B2",
                    "midi": 47,
                    "time": 19.6875,
                    "velocity": 1,
                    "duration": 0.28645833333333215
                },
                {
                    "name": "B3",
                    "midi": 59,
                    "time": 20,
                    "velocity": 1,
                    "duration": 0.28645833333333215
                },
                {
                    "name": "B2",
                    "midi": 47,
                    "time": 20.3125,
                    "velocity": 1,
                    "duration": 0.28645833333333215
                },
                {
                    "name": "A2",
                    "midi": 45,
                    "time": 20.625,
                    "velocity": 1,
                    "duration": 0.28645833333333215
                },
                {
                    "name": "A3",
                    "midi": 57,
                    "time": 20.9375,
                    "velocity": 1,
                    "duration": 0.28645833333333215
                },
                {
                    "name": "A2",
                    "midi": 45,
                    "time": 21.25,
                    "velocity": 1,
                    "duration": 0.28645833333333215
                },
                {
                    "name": "A2",
                    "midi": 45,
                    "time": 21.5625,
                    "velocity": 1,
                    "duration": 0.28645833333333215
                },
                {
                    "name": "A3",
                    "midi": 57,
                    "time": 21.875,
                    "velocity": 1,
                    "duration": 0.28645833333333215
                },
                {
                    "name": "A2",
                    "midi": 45,
                    "time": 22.1875,
                    "velocity": 1,
                    "duration": 0.28645833333333215
                },
                {
                    "name": "G2",
                    "midi": 43,
                    "time": 22.5,
                    "velocity": 1,
                    "duration": 0.28645833333333215
                },
                {
                    "name": "G3",
                    "midi": 55,
                    "time": 22.8125,
                    "velocity": 1,
                    "duration": 0.28645833333333215
                },
                {
                    "name": "G2",
                    "midi": 43,
                    "time": 23.125,
                    "velocity": 1,
                    "duration": 0.28645833333333215
                },
                {
                    "name": "G2",
                    "midi": 43,
                    "time": 23.4375,
                    "velocity": 1,
                    "duration": 0.28645833333333215
                },
                {
                    "name": "G3",
                    "midi": 55,
                    "time": 23.75,
                    "velocity": 1,
                    "duration": 0.28645833333333215
                },
                {
                    "name": "G2",
                    "midi": 43,
                    "time": 24.0625,
                    "velocity": 1,
                    "duration": 0.28645833333333215
                },
                {
                    "name": "C3",
                    "midi": 48,
                    "time": 24.375,
                    "velocity": 1,
                    "duration": 0.28645833333333215
                },
                {
                    "name": "C4",
                    "midi": 60,
                    "time": 24.6875,
                    "velocity": 1,
                    "duration": 0.28645833333333215
                },
                {
                    "name": "C3",
                    "midi": 48,
                    "time": 25,
                    "velocity": 1,
                    "duration": 0.28645833333333215
                },
                {
                    "name": "C3",
                    "midi": 48,
                    "time": 25.3125,
                    "velocity": 1,
                    "duration": 0.28645833333333215
                },
                {
                    "name": "C4",
                    "midi": 60,
                    "time": 25.625,
                    "velocity": 1,
                    "duration": 0.28645833333333215
                },
                {
                    "name": "C3",
                    "midi": 48,
                    "time": 25.9375,
                    "velocity": 1,
                    "duration": 0.28645833333333215
                },
                {
                    "name": "G2",
                    "midi": 43,
                    "time": 26.25,
                    "velocity": 1,
                    "duration": 0.28645833333333215
                },
                {
                    "name": "G3",
                    "midi": 55,
                    "time": 26.5625,
                    "velocity": 1,
                    "duration": 0.28645833333333215
                },
                {
                    "name": "G2",
                    "midi": 43,
                    "time": 26.875,
                    "velocity": 1,
                    "duration": 0.28645833333333215
                },
                {
                    "name": "G2",
                    "midi": 43,
                    "time": 27.1875,
                    "velocity": 1,
                    "duration": 0.28645833333333215
                },
                {
                    "name": "G3",
                    "midi": 55,
                    "time": 27.5,
                    "velocity": 1,
                    "duration": 0.28645833333333215
                },
                {
                    "name": "G2",
                    "midi": 43,
                    "time": 27.8125,
                    "velocity": 1,
                    "duration": 0.28645833333333215
                },
                {
                    "name": "C3",
                    "midi": 48,
                    "time": 28.125,
                    "velocity": 1,
                    "duration": 0.28645833333333215
                },
                {
                    "name": "C4",
                    "midi": 60,
                    "time": 28.4375,
                    "velocity": 1,
                    "duration": 0.28645833333333215
                },
                {
                    "name": "C3",
                    "midi": 48,
                    "time": 28.75,
                    "velocity": 1,
                    "duration": 0.28645833333333215
                },
                {
                    "name": "G2",
                    "midi": 43,
                    "time": 29.0625,
                    "velocity": 1,
                    "duration": 0.28645833333333215
                },
                {
                    "name": "G3",
                    "midi": 55,
                    "time": 29.375,
                    "velocity": 1,
                    "duration": 0.28645833333333215
                },
                {
                    "name": "G2",
                    "midi": 43,
                    "time": 29.6875,
                    "velocity": 1,
                    "duration": 0.28645833333333215
                },
                {
                    "name": "C3",
                    "midi": 48,
                    "time": 30,
                    "velocity": 1,
                    "duration": 0.28645833333333215
                },
                {
                    "name": "C4",
                    "midi": 60,
                    "time": 30.3125,
                    "velocity": 1,
                    "duration": 0.28645833333333215
                },
                {
                    "name": "C3",
                    "midi": 48,
                    "time": 30.625,
                    "velocity": 1,
                    "duration": 0.28645833333333215
                },
                {
                    "name": "C3",
                    "midi": 48,
                    "time": 30.9375,
                    "velocity": 1,
                    "duration": 0.28645833333333215
                },
                {
                    "name": "C4",
                    "midi": 60,
                    "time": 31.25,
                    "velocity": 1,
                    "duration": 0.28645833333333215
                },
                {
                    "name": "C3",
                    "midi": 48,
                    "time": 31.5625,
                    "velocity": 1,
                    "duration": 0.28645833333333215
                },
                {
                    "name": "C3",
                    "midi": 48,
                    "time": 31.875,
                    "velocity": 1,
                    "duration": 0.2864583333333357
                },
                {
                    "name": "C4",
                    "midi": 60,
                    "time": 32.1875,
                    "velocity": 1,
                    "duration": 0.2864583333333357
                },
                {
                    "name": "C3",
                    "midi": 48,
                    "time": 32.5,
                    "velocity": 1,
                    "duration": 0.2864583333333357
                },
                {
                    "name": "C3",
                    "midi": 48,
                    "time": 32.8125,
                    "velocity": 1,
                    "duration": 0.2864583333333357
                },
                {
                    "name": "C4",
                    "midi": 60,
                    "time": 33.125,
                    "velocity": 1,
                    "duration": 0.2864583333333357
                },
                {
                    "name": "C3",
                    "midi": 48,
                    "time": 33.4375,
                    "velocity": 1,
                    "duration": 0.2864583333333357
                },
                {
                    "name": "G2",
                    "midi": 43,
                    "time": 33.75,
                    "velocity": 1,
                    "duration": 0.2864583333333357
                },
                {
                    "name": "G3",
                    "midi": 55,
                    "time": 34.0625,
                    "velocity": 1,
                    "duration": 0.2864583333333357
                },
                {
                    "name": "F3",
                    "midi": 53,
                    "time": 34.375,
                    "velocity": 1,
                    "duration": 0.2864583333333357
                },
                {
                    "name": "E3",
                    "midi": 52,
                    "time": 34.6875,
                    "velocity": 1,
                    "duration": 0.2864583333333357
                },
                {
                    "name": "C4",
                    "midi": 60,
                    "time": 35,
                    "velocity": 1,
                    "duration": 0.2864583333333357
                },
                {
                    "name": "E3",
                    "midi": 52,
                    "time": 35.3125,
                    "velocity": 1,
                    "duration": 0.2864583333333357
                },
                {
                    "name": "D3",
                    "midi": 50,
                    "time": 35.625,
                    "velocity": 1,
                    "duration": 0.2864583333333357
                },
                {
                    "name": "B2",
                    "midi": 47,
                    "time": 35.9375,
                    "velocity": 1,
                    "duration": 0.2864583333333357
                },
                {
                    "name": "A2",
                    "midi": 45,
                    "time": 36.25,
                    "velocity": 1,
                    "duration": 0.2864583333333357
                },
                {
                    "name": "G2",
                    "midi": 43,
                    "time": 36.5625,
                    "velocity": 1,
                    "duration": 0.2864583333333357
                },
                {
                    "name": "G3",
                    "midi": 55,
                    "time": 36.875,
                    "velocity": 1,
                    "duration": 0.2864583333333357
                },
                {
                    "name": "B2",
                    "midi": 47,
                    "time": 37.1875,
                    "velocity": 1,
                    "duration": 0.2864583333333357
                },
                {
                    "name": "C3",
                    "midi": 48,
                    "time": 37.5,
                    "velocity": 1,
                    "duration": 0.2864583333333357
                },
                {
                    "name": "C4",
                    "midi": 60,
                    "time": 37.8125,
                    "velocity": 1,
                    "duration": 0.2864583333333357
                },
                {
                    "name": "C3",
                    "midi": 48,
                    "time": 38.125,
                    "velocity": 1,
                    "duration": 0.2864583333333357
                },
                {
                    "name": "C3",
                    "midi": 48,
                    "time": 38.4375,
                    "velocity": 1,
                    "duration": 0.2864583333333357
                },
                {
                    "name": "C4",
                    "midi": 60,
                    "time": 38.75,
                    "velocity": 1,
                    "duration": 0.2864583333333357
                },
                {
                    "name": "C3",
                    "midi": 48,
                    "time": 39.0625,
                    "velocity": 1,
                    "duration": 0.2864583333333357
                },
                {
                    "name": "C3",
                    "midi": 48,
                    "time": 39.375,
                    "velocity": 1,
                    "duration": 0.2864583333333357
                },
                {
                    "name": "C4",
                    "midi": 60,
                    "time": 39.6875,
                    "velocity": 1,
                    "duration": 0.2864583333333357
                },
                {
                    "name": "C3",
                    "midi": 48,
                    "time": 40,
                    "velocity": 1,
                    "duration": 0.2864583333333357
                },
                {
                    "name": "C3",
                    "midi": 48,
                    "time": 40.3125,
                    "velocity": 1,
                    "duration": 0.2864583333333357
                },
                {
                    "name": "C4",
                    "midi": 60,
                    "time": 40.625,
                    "velocity": 1,
                    "duration": 0.2864583333333357
                },
                {
                    "name": "C3",
                    "midi": 48,
                    "time": 40.9375,
                    "velocity": 1,
                    "duration": 0.2864583333333357
                },
                {
                    "name": "B2",
                    "midi": 47,
                    "time": 41.25,
                    "velocity": 1,
                    "duration": 0.2864583333333357
                },
                {
                    "name": "B3",
                    "midi": 59,
                    "time": 41.5625,
                    "velocity": 1,
                    "duration": 0.2864583333333357
                },
                {
                    "name": "B2",
                    "midi": 47,
                    "time": 41.875,
                    "velocity": 1,
                    "duration": 0.2864583333333357
                },
                {
                    "name": "B2",
                    "midi": 47,
                    "time": 42.1875,
                    "velocity": 1,
                    "duration": 0.2864583333333357
                },
                {
                    "name": "B3",
                    "midi": 59,
                    "time": 42.5,
                    "velocity": 1,
                    "duration": 0.2864583333333357
                },
                {
                    "name": "B2",
                    "midi": 47,
                    "time": 42.8125,
                    "velocity": 1,
                    "duration": 0.2864583333333357
                },
                {
                    "name": "A2",
                    "midi": 45,
                    "time": 43.125,
                    "velocity": 1,
                    "duration": 0.2864583333333357
                },
                {
                    "name": "A3",
                    "midi": 57,
                    "time": 43.4375,
                    "velocity": 1,
                    "duration": 0.2864583333333357
                },
                {
                    "name": "A2",
                    "midi": 45,
                    "time": 43.75,
                    "velocity": 1,
                    "duration": 0.2864583333333357
                },
                {
                    "name": "A2",
                    "midi": 45,
                    "time": 44.0625,
                    "velocity": 1,
                    "duration": 0.2864583333333357
                },
                {
                    "name": "A3",
                    "midi": 57,
                    "time": 44.375,
                    "velocity": 1,
                    "duration": 0.2864583333333357
                },
                {
                    "name": "A2",
                    "midi": 45,
                    "time": 44.6875,
                    "velocity": 1,
                    "duration": 0.2864583333333357
                },
                {
                    "name": "G2",
                    "midi": 43,
                    "time": 45,
                    "velocity": 1,
                    "duration": 0.2864583333333357
                },
                {
                    "name": "G3",
                    "midi": 55,
                    "time": 45.3125,
                    "velocity": 1,
                    "duration": 0.2864583333333357
                },
                {
                    "name": "G2",
                    "midi": 43,
                    "time": 45.625,
                    "velocity": 1,
                    "duration": 0.2864583333333357
                },
                {
                    "name": "G2",
                    "midi": 43,
                    "time": 45.9375,
                    "velocity": 1,
                    "duration": 0.2864583333333357
                },
                {
                    "name": "G3",
                    "midi": 55,
                    "time": 46.25,
                    "velocity": 1,
                    "duration": 0.2864583333333357
                },
                {
                    "name": "G2",
                    "midi": 43,
                    "time": 46.5625,
                    "velocity": 1,
                    "duration": 0.2864583333333357
                },
                {
                    "name": "A2",
                    "midi": 45,
                    "time": 46.875,
                    "velocity": 1,
                    "duration": 0.2864583333333357
                },
                {
                    "name": "A3",
                    "midi": 57,
                    "time": 47.1875,
                    "velocity": 1,
                    "duration": 0.2864583333333357
                },
                {
                    "name": "A2",
                    "midi": 45,
                    "time": 47.5,
                    "velocity": 1,
                    "duration": 0.2864583333333357
                },
                {
                    "name": "A2",
                    "midi": 45,
                    "time": 47.8125,
                    "velocity": 1,
                    "duration": 0.2864583333333357
                },
                {
                    "name": "A3",
                    "midi": 57,
                    "time": 48.125,
                    "velocity": 1,
                    "duration": 0.2864583333333357
                },
                {
                    "name": "A2",
                    "midi": 45,
                    "time": 48.4375,
                    "velocity": 1,
                    "duration": 0.2864583333333357
                },
                {
                    "name": "F#2",
                    "midi": 42,
                    "time": 48.75,
                    "velocity": 1,
                    "duration": 0.2864583333333357
                },
                {
                    "name": "F#3",
                    "midi": 54,
                    "time": 49.0625,
                    "velocity": 1,
                    "duration": 0.2864583333333357
                },
                {
                    "name": "F#2",
                    "midi": 42,
                    "time": 49.375,
                    "velocity": 1,
                    "duration": 0.2864583333333357
                },
                {
                    "name": "F#2",
                    "midi": 42,
                    "time": 49.6875,
                    "velocity": 1,
                    "duration": 0.2864583333333357
                },
                {
                    "name": "F#3",
                    "midi": 54,
                    "time": 50,
                    "velocity": 1,
                    "duration": 0.2864583333333357
                },
                {
                    "name": "F#2",
                    "midi": 42,
                    "time": 50.3125,
                    "velocity": 1,
                    "duration": 0.2864583333333357
                },
                {
                    "name": "G2",
                    "midi": 43,
                    "time": 50.625,
                    "velocity": 1,
                    "duration": 0.2864583333333357
                },
                {
                    "name": "G3",
                    "midi": 55,
                    "time": 50.9375,
                    "velocity": 1,
                    "duration": 0.2864583333333357
                },
                {
                    "name": "G2",
                    "midi": 43,
                    "time": 51.25,
                    "velocity": 1,
                    "duration": 0.2864583333333357
                },
                {
                    "name": "D3",
                    "midi": 50,
                    "time": 51.5625,
                    "velocity": 1,
                    "duration": 0.2864583333333357
                },
                {
                    "name": "D4",
                    "midi": 62,
                    "time": 51.875,
                    "velocity": 1,
                    "duration": 0.2864583333333357
                },
                {
                    "name": "D3",
                    "midi": 50,
                    "time": 52.1875,
                    "velocity": 1,
                    "duration": 0.2864583333333357
                },
                {
                    "name": "G2",
                    "midi": 43,
                    "time": 52.5,
                    "velocity": 1,
                    "duration": 0.2864583333333357
                },
                {
                    "name": "G3",
                    "midi": 55,
                    "time": 52.8125,
                    "velocity": 1,
                    "duration": 0.2864583333333357
                },
                {
                    "name": "G2",
                    "midi": 43,
                    "time": 53.125,
                    "velocity": 1,
                    "duration": 0.2864583333333357
                },
                {
                    "name": "G2",
                    "midi": 43,
                    "time": 53.4375,
                    "velocity": 1,
                    "duration": 0.2864583333333357
                },
                {
                    "name": "G3",
                    "midi": 55,
                    "time": 53.75,
                    "velocity": 1,
                    "duration": 0.2864583333333357
                },
                {
                    "name": "G2",
                    "midi": 43,
                    "time": 54.0625,
                    "velocity": 1,
                    "duration": 0.2864583333333357
                },
                {
                    "name": "G2",
                    "midi": 43,
                    "time": 54.375,
                    "velocity": 1,
                    "duration": 0.2864583333333357
                },
                {
                    "name": "G3",
                    "midi": 55,
                    "time": 54.6875,
                    "velocity": 1,
                    "duration": 0.2864583333333357
                },
                {
                    "name": "G2",
                    "midi": 43,
                    "time": 55,
                    "velocity": 1,
                    "duration": 0.2864583333333357
                },
                {
                    "name": "G2",
                    "midi": 43,
                    "time": 55.3125,
                    "velocity": 1,
                    "duration": 0.2864583333333357
                },
                {
                    "name": "G3",
                    "midi": 55,
                    "time": 55.625,
                    "velocity": 1,
                    "duration": 0.2864583333333357
                },
                {
                    "name": "G2",
                    "midi": 43,
                    "time": 55.9375,
                    "velocity": 1,
                    "duration": 0.2864583333333357
                },
                {
                    "name": "A2",
                    "midi": 45,
                    "time": 56.25,
                    "velocity": 1,
                    "duration": 0.2864583333333357
                },
                {
                    "name": "A3",
                    "midi": 57,
                    "time": 56.5625,
                    "velocity": 1,
                    "duration": 0.2864583333333357
                },
                {
                    "name": "A2",
                    "midi": 45,
                    "time": 56.875,
                    "velocity": 1,
                    "duration": 0.2864583333333357
                },
                {
                    "name": "F#2",
                    "midi": 42,
                    "time": 57.1875,
                    "velocity": 1,
                    "duration": 0.2864583333333357
                },
                {
                    "name": "F#3",
                    "midi": 54,
                    "time": 57.5,
                    "velocity": 1,
                    "duration": 0.2864583333333357
                },
                {
                    "name": "F#2",
                    "midi": 42,
                    "time": 57.8125,
                    "velocity": 1,
                    "duration": 0.2864583333333357
                },
                {
                    "name": "G2",
                    "midi": 43,
                    "time": 58.125,
                    "velocity": 1,
                    "duration": 0.2864583333333357
                },
                {
                    "name": "G3",
                    "midi": 55,
                    "time": 58.4375,
                    "velocity": 1,
                    "duration": 0.2864583333333357
                },
                {
                    "name": "G2",
                    "midi": 43,
                    "time": 58.75,
                    "velocity": 1,
                    "duration": 0.2864583333333357
                },
                {
                    "name": "G2",
                    "midi": 43,
                    "time": 59.0625,
                    "velocity": 1,
                    "duration": 0.2864583333333357
                },
                {
                    "name": "G3",
                    "midi": 55,
                    "time": 59.375,
                    "velocity": 1,
                    "duration": 0.2864583333333357
                },
                {
                    "name": "G2",
                    "midi": 43,
                    "time": 59.6875,
                    "velocity": 1,
                    "duration": 0.2864583333333357
                },
                {
                    "name": "G#2",
                    "midi": 44,
                    "time": 60,
                    "velocity": 1,
                    "duration": 0.2864583333333357
                },
                {
                    "name": "G#3",
                    "midi": 56,
                    "time": 60.3125,
                    "velocity": 1,
                    "duration": 0.2864583333333357
                },
                {
                    "name": "G#2",
                    "midi": 44,
                    "time": 60.625,
                    "velocity": 1,
                    "duration": 0.2864583333333357
                },
                {
                    "name": "G#2",
                    "midi": 44,
                    "time": 60.9375,
                    "velocity": 1,
                    "duration": 0.2864583333333357
                },
                {
                    "name": "G#3",
                    "midi": 56,
                    "time": 61.25,
                    "velocity": 1,
                    "duration": 0.2864583333333357
                },
                {
                    "name": "G#2",
                    "midi": 44,
                    "time": 61.5625,
                    "velocity": 1,
                    "duration": 0.2864583333333357
                },
                {
                    "name": "A2",
                    "midi": 45,
                    "time": 61.875,
                    "velocity": 1,
                    "duration": 0.2864583333333357
                },
                {
                    "name": "A3",
                    "midi": 57,
                    "time": 62.1875,
                    "velocity": 1,
                    "duration": 0.2864583333333357
                },
                {
                    "name": "E3",
                    "midi": 52,
                    "time": 62.5,
                    "velocity": 1,
                    "duration": 0.2864583333333357
                },
                {
                    "name": "A2",
                    "midi": 45,
                    "time": 62.8125,
                    "velocity": 1,
                    "duration": 0.2864583333333357
                },
                {
                    "name": "A3",
                    "midi": 57,
                    "time": 63.125,
                    "velocity": 1,
                    "duration": 0.2864583333333357
                },
                {
                    "name": "E3",
                    "midi": 52,
                    "time": 63.4375,
                    "velocity": 1,
                    "duration": 0.2864583333333357
                },
                {
                    "name": "A2",
                    "midi": 45,
                    "time": 63.75,
                    "velocity": 1,
                    "duration": 0.2864583333333286
                },
                {
                    "name": "A3",
                    "midi": 57,
                    "time": 64.0625,
                    "velocity": 1,
                    "duration": 0.2864583333333286
                },
                {
                    "name": "A2",
                    "midi": 45,
                    "time": 64.375,
                    "velocity": 1,
                    "duration": 0.2864583333333286
                },
                {
                    "name": "D3",
                    "midi": 50,
                    "time": 64.6875,
                    "velocity": 1,
                    "duration": 0.2864583333333286
                },
                {
                    "name": "D4",
                    "midi": 62,
                    "time": 65,
                    "velocity": 1,
                    "duration": 0.2864583333333286
                },
                {
                    "name": "D3",
                    "midi": 50,
                    "time": 65.3125,
                    "velocity": 1,
                    "duration": 0.2864583333333286
                },
                {
                    "name": "E3",
                    "midi": 52,
                    "time": 65.625,
                    "velocity": 1,
                    "duration": 0.2864583333333286
                },
                {
                    "name": "E4",
                    "midi": 64,
                    "time": 65.9375,
                    "velocity": 1,
                    "duration": 0.2864583333333286
                },
                {
                    "name": "E3",
                    "midi": 52,
                    "time": 66.25,
                    "velocity": 1,
                    "duration": 0.2864583333333286
                },
                {
                    "name": "D3",
                    "midi": 50,
                    "time": 66.5625,
                    "velocity": 1,
                    "duration": 0.2864583333333286
                },
                {
                    "name": "D4",
                    "midi": 62,
                    "time": 66.875,
                    "velocity": 1,
                    "duration": 0.2864583333333286
                },
                {
                    "name": "D3",
                    "midi": 50,
                    "time": 67.1875,
                    "velocity": 1,
                    "duration": 0.2864583333333286
                },
                {
                    "name": "C#3",
                    "midi": 49,
                    "time": 67.5,
                    "velocity": 1,
                    "duration": 0.2864583333333286
                },
                {
                    "name": "C#4",
                    "midi": 61,
                    "time": 67.8125,
                    "velocity": 1,
                    "duration": 0.2864583333333286
                },
                {
                    "name": "C#3",
                    "midi": 49,
                    "time": 68.125,
                    "velocity": 1,
                    "duration": 0.2864583333333286
                },
                {
                    "name": "C#3",
                    "midi": 49,
                    "time": 68.4375,
                    "velocity": 1,
                    "duration": 0.2864583333333286
                },
                {
                    "name": "C#4",
                    "midi": 61,
                    "time": 68.75,
                    "velocity": 1,
                    "duration": 0.2864583333333286
                },
                {
                    "name": "C#3",
                    "midi": 49,
                    "time": 69.0625,
                    "velocity": 1,
                    "duration": 0.2864583333333286
                },
                {
                    "name": "D3",
                    "midi": 50,
                    "time": 69.375,
                    "velocity": 1,
                    "duration": 0.2864583333333286
                },
                {
                    "name": "D4",
                    "midi": 62,
                    "time": 69.6875,
                    "velocity": 1,
                    "duration": 0.2864583333333286
                },
                {
                    "name": "D3",
                    "midi": 50,
                    "time": 70,
                    "velocity": 1,
                    "duration": 0.2864583333333286
                },
                {
                    "name": "D3",
                    "midi": 50,
                    "time": 70.3125,
                    "velocity": 1,
                    "duration": 0.2864583333333286
                },
                {
                    "name": "D4",
                    "midi": 62,
                    "time": 70.625,
                    "velocity": 1,
                    "duration": 0.2864583333333286
                },
                {
                    "name": "D3",
                    "midi": 50,
                    "time": 70.9375,
                    "velocity": 1,
                    "duration": 0.2864583333333286
                },
                {
                    "name": "E3",
                    "midi": 52,
                    "time": 71.25,
                    "velocity": 1,
                    "duration": 0.2864583333333286
                },
                {
                    "name": "C4",
                    "midi": 60,
                    "time": 71.5625,
                    "velocity": 1,
                    "duration": 0.2864583333333286
                },
                {
                    "name": "E3",
                    "midi": 52,
                    "time": 71.875,
                    "velocity": 1,
                    "duration": 0.2864583333333286
                },
                {
                    "name": "E3",
                    "midi": 52,
                    "time": 72.1875,
                    "velocity": 1,
                    "duration": 0.2864583333333286
                },
                {
                    "name": "C4",
                    "midi": 60,
                    "time": 72.5,
                    "velocity": 1,
                    "duration": 0.2864583333333286
                },
                {
                    "name": "E3",
                    "midi": 52,
                    "time": 72.8125,
                    "velocity": 1,
                    "duration": 0.2864583333333286
                },
                {
                    "name": "F3",
                    "midi": 53,
                    "time": 73.125,
                    "velocity": 1,
                    "duration": 0.2864583333333286
                },
                {
                    "name": "C4",
                    "midi": 60,
                    "time": 73.4375,
                    "velocity": 1,
                    "duration": 0.2864583333333286
                },
                {
                    "name": "F3",
                    "midi": 53,
                    "time": 73.75,
                    "velocity": 1,
                    "duration": 0.2864583333333286
                },
                {
                    "name": "F#3",
                    "midi": 54,
                    "time": 74.0625,
                    "velocity": 1,
                    "duration": 0.2864583333333286
                },
                {
                    "name": "D4",
                    "midi": 62,
                    "time": 74.375,
                    "velocity": 1,
                    "duration": 0.2864583333333286
                },
                {
                    "name": "F#3",
                    "midi": 54,
                    "time": 74.6875,
                    "velocity": 1,
                    "duration": 0.2864583333333286
                },
                {
                    "name": "G3",
                    "midi": 55,
                    "time": 75,
                    "velocity": 1,
                    "duration": 0.2864583333333286
                },
                {
                    "name": "D4",
                    "midi": 62,
                    "time": 75.3125,
                    "velocity": 1,
                    "duration": 0.2864583333333286
                },
                {
                    "name": "G3",
                    "midi": 55,
                    "time": 75.625,
                    "velocity": 1,
                    "duration": 0.2864583333333286
                },
                {
                    "name": "G#3",
                    "midi": 56,
                    "time": 75.9375,
                    "velocity": 1,
                    "duration": 0.2864583333333286
                },
                {
                    "name": "E4",
                    "midi": 64,
                    "time": 76.25,
                    "velocity": 1,
                    "duration": 0.2864583333333286
                },
                {
                    "name": "G#3",
                    "midi": 56,
                    "time": 76.5625,
                    "velocity": 1,
                    "duration": 0.2864583333333286
                },
                {
                    "name": "A2",
                    "midi": 45,
                    "time": 76.875,
                    "velocity": 1,
                    "duration": 0.2864583333333286
                },
                {
                    "name": "A3",
                    "midi": 57,
                    "time": 77.1875,
                    "velocity": 1,
                    "duration": 0.2864583333333286
                },
                {
                    "name": "A2",
                    "midi": 45,
                    "time": 77.5,
                    "velocity": 1,
                    "duration": 0.2864583333333286
                },
                {
                    "name": "A2",
                    "midi": 45,
                    "time": 77.8125,
                    "velocity": 1,
                    "duration": 0.2864583333333286
                },
                {
                    "name": "A3",
                    "midi": 57,
                    "time": 78.125,
                    "velocity": 1,
                    "duration": 0.2864583333333286
                },
                {
                    "name": "A2",
                    "midi": 45,
                    "time": 78.4375,
                    "velocity": 1,
                    "duration": 0.2864583333333286
                },
                {
                    "name": "G#2",
                    "midi": 44,
                    "time": 78.75,
                    "velocity": 1,
                    "duration": 0.2864583333333286
                },
                {
                    "name": "G#3",
                    "midi": 56,
                    "time": 79.0625,
                    "velocity": 1,
                    "duration": 0.2864583333333286
                },
                {
                    "name": "G#2",
                    "midi": 44,
                    "time": 79.375,
                    "velocity": 1,
                    "duration": 0.2864583333333286
                },
                {
                    "name": "A2",
                    "midi": 45,
                    "time": 79.6875,
                    "velocity": 1,
                    "duration": 0.2864583333333286
                },
                {
                    "name": "A3",
                    "midi": 57,
                    "time": 80,
                    "velocity": 1,
                    "duration": 0.2864583333333286
                },
                {
                    "name": "A2",
                    "midi": 45,
                    "time": 80.3125,
                    "velocity": 1,
                    "duration": 0.2864583333333286
                },
                {
                    "name": "D3",
                    "midi": 50,
                    "time": 80.625,
                    "velocity": 1,
                    "duration": 0.2864583333333286
                },
                {
                    "name": "D4",
                    "midi": 62,
                    "time": 80.9375,
                    "velocity": 1,
                    "duration": 0.2864583333333286
                },
                {
                    "name": "D3",
                    "midi": 50,
                    "time": 81.25,
                    "velocity": 1,
                    "duration": 0.2864583333333286
                },
                {
                    "name": "D3",
                    "midi": 50,
                    "time": 81.5625,
                    "velocity": 1,
                    "duration": 0.2864583333333286
                },
                {
                    "name": "D4",
                    "midi": 62,
                    "time": 81.875,
                    "velocity": 1,
                    "duration": 0.2864583333333286
                },
                {
                    "name": "D3",
                    "midi": 50,
                    "time": 82.1875,
                    "velocity": 1,
                    "duration": 0.2864583333333286
                },
                {
                    "name": "G2",
                    "midi": 43,
                    "time": 82.5,
                    "velocity": 1,
                    "duration": 0.2864583333333286
                },
                {
                    "name": "G3",
                    "midi": 55,
                    "time": 82.8125,
                    "velocity": 1,
                    "duration": 0.2864583333333286
                },
                {
                    "name": "G2",
                    "midi": 43,
                    "time": 83.125,
                    "velocity": 1,
                    "duration": 0.2864583333333286
                },
                {
                    "name": "G2",
                    "midi": 43,
                    "time": 83.4375,
                    "velocity": 1,
                    "duration": 0.2864583333333286
                },
                {
                    "name": "G3",
                    "midi": 55,
                    "time": 83.75,
                    "velocity": 1,
                    "duration": 0.2864583333333286
                },
                {
                    "name": "G2",
                    "midi": 43,
                    "time": 84.0625,
                    "velocity": 1,
                    "duration": 0.2864583333333286
                },
                {
                    "name": "C3",
                    "midi": 48,
                    "time": 84.375,
                    "velocity": 1,
                    "duration": 0.2864583333333286
                },
                {
                    "name": "C4",
                    "midi": 60,
                    "time": 84.6875,
                    "velocity": 1,
                    "duration": 0.2864583333333286
                },
                {
                    "name": "C3",
                    "midi": 48,
                    "time": 85,
                    "velocity": 1,
                    "duration": 0.2864583333333286
                },
                {
                    "name": "C3",
                    "midi": 48,
                    "time": 85.3125,
                    "velocity": 1,
                    "duration": 0.2864583333333286
                },
                {
                    "name": "C4",
                    "midi": 60,
                    "time": 85.625,
                    "velocity": 1,
                    "duration": 0.2864583333333286
                },
                {
                    "name": "C3",
                    "midi": 48,
                    "time": 85.9375,
                    "velocity": 1,
                    "duration": 0.2864583333333286
                },
                {
                    "name": "F2",
                    "midi": 41,
                    "time": 86.25,
                    "velocity": 1,
                    "duration": 0.2864583333333286
                },
                {
                    "name": "F3",
                    "midi": 53,
                    "time": 86.5625,
                    "velocity": 1,
                    "duration": 0.2864583333333286
                },
                {
                    "name": "F2",
                    "midi": 41,
                    "time": 86.875,
                    "velocity": 1,
                    "duration": 0.2864583333333286
                },
                {
                    "name": "F2",
                    "midi": 41,
                    "time": 87.1875,
                    "velocity": 1,
                    "duration": 0.2864583333333286
                },
                {
                    "name": "F3",
                    "midi": 53,
                    "time": 87.5,
                    "velocity": 1,
                    "duration": 0.2864583333333286
                },
                {
                    "name": "F2",
                    "midi": 41,
                    "time": 87.8125,
                    "velocity": 1,
                    "duration": 0.2864583333333286
                },
                {
                    "name": "F#2",
                    "midi": 42,
                    "time": 88.125,
                    "velocity": 1,
                    "duration": 0.2864583333333286
                },
                {
                    "name": "F#3",
                    "midi": 54,
                    "time": 88.4375,
                    "velocity": 1,
                    "duration": 0.2864583333333286
                },
                {
                    "name": "F#2",
                    "midi": 42,
                    "time": 88.75,
                    "velocity": 1,
                    "duration": 0.2864583333333286
                },
                {
                    "name": "F#2",
                    "midi": 42,
                    "time": 89.0625,
                    "velocity": 1,
                    "duration": 0.2864583333333286
                },
                {
                    "name": "F#3",
                    "midi": 54,
                    "time": 89.375,
                    "velocity": 1,
                    "duration": 0.2864583333333286
                },
                {
                    "name": "F#2",
                    "midi": 42,
                    "time": 89.6875,
                    "velocity": 1,
                    "duration": 0.2864583333333286
                },
                {
                    "name": "G2",
                    "midi": 43,
                    "time": 90,
                    "velocity": 1,
                    "duration": 0.2864583333333286
                },
                {
                    "name": "G3",
                    "midi": 55,
                    "time": 90.3125,
                    "velocity": 1,
                    "duration": 0.2864583333333286
                },
                {
                    "name": "G2",
                    "midi": 43,
                    "time": 90.625,
                    "velocity": 1,
                    "duration": 0.2864583333333286
                },
                {
                    "name": "G2",
                    "midi": 43,
                    "time": 90.9375,
                    "velocity": 1,
                    "duration": 0.2864583333333286
                },
                {
                    "name": "G3",
                    "midi": 55,
                    "time": 91.25,
                    "velocity": 1,
                    "duration": 0.2864583333333286
                },
                {
                    "name": "G2",
                    "midi": 43,
                    "time": 91.5625,
                    "velocity": 1,
                    "duration": 0.2864583333333286
                },
                {
                    "name": "G#2",
                    "midi": 44,
                    "time": 91.875,
                    "velocity": 1,
                    "duration": 0.2864583333333286
                },
                {
                    "name": "G#3",
                    "midi": 56,
                    "time": 92.1875,
                    "velocity": 1,
                    "duration": 0.2864583333333286
                },
                {
                    "name": "G#2",
                    "midi": 44,
                    "time": 92.5,
                    "velocity": 1,
                    "duration": 0.2864583333333286
                },
                {
                    "name": "G#2",
                    "midi": 44,
                    "time": 92.8125,
                    "velocity": 1,
                    "duration": 0.2864583333333286
                },
                {
                    "name": "G#3",
                    "midi": 56,
                    "time": 93.125,
                    "velocity": 1,
                    "duration": 0.2864583333333286
                },
                {
                    "name": "G#2",
                    "midi": 44,
                    "time": 93.4375,
                    "velocity": 1,
                    "duration": 0.2864583333333286
                },
                {
                    "name": "A2",
                    "midi": 45,
                    "time": 93.75,
                    "velocity": 1,
                    "duration": 0.2864583333333286
                },
                {
                    "name": "A3",
                    "midi": 57,
                    "time": 94.0625,
                    "velocity": 1,
                    "duration": 0.2864583333333286
                },
                {
                    "name": "A2",
                    "midi": 45,
                    "time": 94.375,
                    "velocity": 1,
                    "duration": 0.2864583333333286
                },
                {
                    "name": "F#2",
                    "midi": 42,
                    "time": 94.6875,
                    "velocity": 1,
                    "duration": 0.2864583333333286
                },
                {
                    "name": "F#3",
                    "midi": 54,
                    "time": 95,
                    "velocity": 1,
                    "duration": 0.2864583333333286
                },
                {
                    "name": "F#2",
                    "midi": 42,
                    "time": 95.3125,
                    "velocity": 1,
                    "duration": 0.2864583333333286
                },
                {
                    "name": "G2",
                    "midi": 43,
                    "time": 95.625,
                    "velocity": 1,
                    "duration": 0.2864583333333286
                },
                {
                    "name": "G3",
                    "midi": 55,
                    "time": 95.9375,
                    "velocity": 1,
                    "duration": 0.2864583333333286
                },
                {
                    "name": "G2",
                    "midi": 43,
                    "time": 96.25,
                    "velocity": 1,
                    "duration": 0.2864583333333286
                },
                {
                    "name": "G2",
                    "midi": 43,
                    "time": 96.5625,
                    "velocity": 1,
                    "duration": 0.2864583333333286
                },
                {
                    "name": "G3",
                    "midi": 55,
                    "time": 96.875,
                    "velocity": 1,
                    "duration": 0.2864583333333286
                },
                {
                    "name": "G2",
                    "midi": 43,
                    "time": 97.1875,
                    "velocity": 1,
                    "duration": 0.2864583333333286
                },
                {
                    "name": "G2",
                    "midi": 43,
                    "time": 97.5,
                    "velocity": 1,
                    "duration": 0.2864583333333286
                },
                {
                    "name": "G3",
                    "midi": 55,
                    "time": 97.8125,
                    "velocity": 1,
                    "duration": 0.2864583333333286
                },
                {
                    "name": "G2",
                    "midi": 43,
                    "time": 98.125,
                    "velocity": 1,
                    "duration": 0.2864583333333286
                },
                {
                    "name": "G2",
                    "midi": 43,
                    "time": 98.4375,
                    "velocity": 1,
                    "duration": 0.2864583333333286
                },
                {
                    "name": "G3",
                    "midi": 55,
                    "time": 98.75,
                    "velocity": 1,
                    "duration": 0.2864583333333286
                },
                {
                    "name": "G2",
                    "midi": 43,
                    "time": 99.0625,
                    "velocity": 1,
                    "duration": 0.2864583333333286
                },
                {
                    "name": "G2",
                    "midi": 43,
                    "time": 99.375,
                    "velocity": 1,
                    "duration": 0.2864583333333286
                },
                {
                    "name": "G3",
                    "midi": 55,
                    "time": 99.6875,
                    "velocity": 1,
                    "duration": 0.2864583333333286
                },
                {
                    "name": "G2",
                    "midi": 43,
                    "time": 100,
                    "velocity": 1,
                    "duration": 0.2864583333333286
                },
                {
                    "name": "G2",
                    "midi": 43,
                    "time": 100.3125,
                    "velocity": 1,
                    "duration": 0.2864583333333286
                },
                {
                    "name": "G3",
                    "midi": 55,
                    "time": 100.625,
                    "velocity": 1,
                    "duration": 0.2864583333333286
                },
                {
                    "name": "G2",
                    "midi": 43,
                    "time": 100.9375,
                    "velocity": 1,
                    "duration": 0.2864583333333286
                },
                {
                    "name": "G2",
                    "midi": 43,
                    "time": 101.25,
                    "velocity": 1,
                    "duration": 0.2864583333333286
                },
                {
                    "name": "G3",
                    "midi": 55,
                    "time": 101.5625,
                    "velocity": 1,
                    "duration": 0.2864583333333286
                },
                {
                    "name": "G2",
                    "midi": 43,
                    "time": 101.875,
                    "velocity": 1,
                    "duration": 0.2864583333333286
                },
                {
                    "name": "G2",
                    "midi": 43,
                    "time": 102.1875,
                    "velocity": 1,
                    "duration": 0.2864583333333286
                },
                {
                    "name": "G3",
                    "midi": 55,
                    "time": 102.5,
                    "velocity": 1,
                    "duration": 0.2864583333333286
                },
                {
                    "name": "G2",
                    "midi": 43,
                    "time": 102.8125,
                    "velocity": 1,
                    "duration": 0.2864583333333286
                },
                {
                    "name": "G2",
                    "midi": 43,
                    "time": 103.125,
                    "velocity": 1,
                    "duration": 0.2864583333333286
                },
                {
                    "name": "G3",
                    "midi": 55,
                    "time": 103.4375,
                    "velocity": 1,
                    "duration": 0.2864583333333286
                },
                {
                    "name": "G2",
                    "midi": 43,
                    "time": 103.75,
                    "velocity": 1,
                    "duration": 0.2864583333333286
                },
                {
                    "name": "G2",
                    "midi": 43,
                    "time": 104.0625,
                    "velocity": 1,
                    "duration": 0.2864583333333286
                },
                {
                    "name": "G3",
                    "midi": 55,
                    "time": 104.375,
                    "velocity": 1,
                    "duration": 0.2864583333333286
                },
                {
                    "name": "G2",
                    "midi": 43,
                    "time": 104.6875,
                    "velocity": 1,
                    "duration": 0.2864583333333286
                },
                {
                    "name": "G2",
                    "midi": 43,
                    "time": 105,
                    "velocity": 1,
                    "duration": 0.2864583333333286
                },
                {
                    "name": "G3",
                    "midi": 55,
                    "time": 105.3125,
                    "velocity": 1,
                    "duration": 0.2864583333333286
                },
                {
                    "name": "G2",
                    "midi": 43,
                    "time": 105.625,
                    "velocity": 1,
                    "duration": 0.2864583333333286
                },
                {
                    "name": "G2",
                    "midi": 43,
                    "time": 105.9375,
                    "velocity": 1,
                    "duration": 0.2864583333333286
                },
                {
                    "name": "G3",
                    "midi": 55,
                    "time": 106.25,
                    "velocity": 1,
                    "duration": 0.2864583333333286
                },
                {
                    "name": "G2",
                    "midi": 43,
                    "time": 106.5625,
                    "velocity": 1,
                    "duration": 0.2864583333333286
                },
                {
                    "name": "G2",
                    "midi": 43,
                    "time": 106.875,
                    "velocity": 1,
                    "duration": 0.2864583333333286
                },
                {
                    "name": "G3",
                    "midi": 55,
                    "time": 107.1875,
                    "velocity": 1,
                    "duration": 0.2864583333333286
                },
                {
                    "name": "G2",
                    "midi": 43,
                    "time": 107.5,
                    "velocity": 1,
                    "duration": 0.2864583333333286
                },
                {
                    "name": "G2",
                    "midi": 43,
                    "time": 107.8125,
                    "velocity": 1,
                    "duration": 0.2864583333333286
                },
                {
                    "name": "G3",
                    "midi": 55,
                    "time": 108.125,
                    "velocity": 1,
                    "duration": 0.2864583333333286
                },
                {
                    "name": "G2",
                    "midi": 43,
                    "time": 108.4375,
                    "velocity": 1,
                    "duration": 0.2864583333333286
                },
                {
                    "name": "G2",
                    "midi": 43,
                    "time": 108.75,
                    "velocity": 1,
                    "duration": 0.2864583333333286
                },
                {
                    "name": "G3",
                    "midi": 55,
                    "time": 109.0625,
                    "velocity": 1,
                    "duration": 0.2864583333333286
                },
                {
                    "name": "G2",
                    "midi": 43,
                    "time": 109.375,
                    "velocity": 1,
                    "duration": 0.2864583333333286
                },
                {
                    "name": "G2",
                    "midi": 43,
                    "time": 109.6875,
                    "velocity": 1,
                    "duration": 0.2864583333333286
                },
                {
                    "name": "G3",
                    "midi": 55,
                    "time": 110,
                    "velocity": 1,
                    "duration": 0.2864583333333286
                },
                {
                    "name": "G2",
                    "midi": 43,
                    "time": 110.3125,
                    "velocity": 1,
                    "duration": 0.2864583333333286
                },
                {
                    "name": "G2",
                    "midi": 43,
                    "time": 110.625,
                    "velocity": 1,
                    "duration": 0.2864583333333286
                },
                {
                    "name": "G3",
                    "midi": 55,
                    "time": 110.9375,
                    "velocity": 1,
                    "duration": 0.2864583333333286
                },
                {
                    "name": "G2",
                    "midi": 43,
                    "time": 111.25,
                    "velocity": 1,
                    "duration": 0.2864583333333286
                },
                {
                    "name": "G2",
                    "midi": 43,
                    "time": 111.5625,
                    "velocity": 1,
                    "duration": 0.2864583333333286
                },
                {
                    "name": "G3",
                    "midi": 55,
                    "time": 111.875,
                    "velocity": 1,
                    "duration": 0.2864583333333286
                },
                {
                    "name": "G2",
                    "midi": 43,
                    "time": 112.1875,
                    "velocity": 1,
                    "duration": 0.2864583333333286
                },
                {
                    "name": "C3",
                    "midi": 48,
                    "time": 112.5,
                    "velocity": 1,
                    "duration": 0.2864583333333286
                },
                {
                    "name": "C4",
                    "midi": 60,
                    "time": 112.8125,
                    "velocity": 1,
                    "duration": 0.2864583333333286
                },
                {
                    "name": "C3",
                    "midi": 48,
                    "time": 113.125,
                    "velocity": 1,
                    "duration": 0.2864583333333286
                },
                {
                    "name": "G2",
                    "midi": 43,
                    "time": 113.4375,
                    "velocity": 1,
                    "duration": 0.2864583333333286
                },
                {
                    "name": "G3",
                    "midi": 55,
                    "time": 113.75,
                    "velocity": 1,
                    "duration": 0.2864583333333286
                },
                {
                    "name": "G2",
                    "midi": 43,
                    "time": 114.0625,
                    "velocity": 1,
                    "duration": 0.2864583333333286
                },
                {
                    "name": "C3",
                    "midi": 48,
                    "time": 114.375,
                    "velocity": 1,
                    "duration": 0.2864583333333286
                },
                {
                    "name": "C4",
                    "midi": 60,
                    "time": 114.6875,
                    "velocity": 1,
                    "duration": 0.2864583333333286
                },
                {
                    "name": "C3",
                    "midi": 48,
                    "time": 115,
                    "velocity": 1,
                    "duration": 0.2864583333333286
                },
                {
                    "name": "C3",
                    "midi": 48,
                    "time": 115.3125,
                    "velocity": 1,
                    "duration": 0.2864583333333286
                },
                {
                    "name": "C4",
                    "midi": 60,
                    "time": 115.625,
                    "velocity": 1,
                    "duration": 0.2864583333333286
                },
                {
                    "name": "C3",
                    "midi": 48,
                    "time": 115.9375,
                    "velocity": 1,
                    "duration": 0.2864583333333286
                },
                {
                    "name": "G2",
                    "midi": 43,
                    "time": 116.25,
                    "velocity": 1,
                    "duration": 0.2864583333333286
                },
                {
                    "name": "G3",
                    "midi": 55,
                    "time": 116.5625,
                    "velocity": 1,
                    "duration": 0.2864583333333286
                },
                {
                    "name": "G2",
                    "midi": 43,
                    "time": 116.875,
                    "velocity": 1,
                    "duration": 0.2864583333333286
                },
                {
                    "name": "G2",
                    "midi": 43,
                    "time": 117.1875,
                    "velocity": 1,
                    "duration": 0.2864583333333286
                },
                {
                    "name": "G3",
                    "midi": 55,
                    "time": 117.5,
                    "velocity": 1,
                    "duration": 0.2864583333333286
                },
                {
                    "name": "G2",
                    "midi": 43,
                    "time": 117.8125,
                    "velocity": 1,
                    "duration": 0.2864583333333286
                },
                {
                    "name": "C3",
                    "midi": 48,
                    "time": 118.125,
                    "velocity": 1,
                    "duration": 0.2864583333333286
                },
                {
                    "name": "C4",
                    "midi": 60,
                    "time": 118.4375,
                    "velocity": 1,
                    "duration": 0.2864583333333286
                },
                {
                    "name": "C3",
                    "midi": 48,
                    "time": 118.75,
                    "velocity": 1,
                    "duration": 0.2864583333333286
                },
                {
                    "name": "C3",
                    "midi": 48,
                    "time": 119.0625,
                    "velocity": 1,
                    "duration": 0.2864583333333286
                },
                {
                    "name": "C4",
                    "midi": 60,
                    "time": 119.375,
                    "velocity": 1,
                    "duration": 0.2864583333333286
                },
                {
                    "name": "C3",
                    "midi": 48,
                    "time": 119.6875,
                    "velocity": 1,
                    "duration": 0.2864583333333286
                },
                {
                    "name": "F3",
                    "midi": 53,
                    "time": 120,
                    "velocity": 1,
                    "duration": 0.2864583333333286
                },
                {
                    "name": "A3",
                    "midi": 57,
                    "time": 120.3125,
                    "velocity": 1,
                    "duration": 0.2864583333333286
                },
                {
                    "name": "G3",
                    "midi": 55,
                    "time": 120.625,
                    "velocity": 1,
                    "duration": 0.2864583333333286
                },
                {
                    "name": "F#3",
                    "midi": 54,
                    "time": 120.9375,
                    "velocity": 1,
                    "duration": 0.2864583333333286
                },
                {
                    "name": "D3",
                    "midi": 50,
                    "time": 121.25,
                    "velocity": 1,
                    "duration": 0.2864583333333286
                },
                {
                    "name": "F#3",
                    "midi": 54,
                    "time": 121.5625,
                    "velocity": 1,
                    "duration": 0.2864583333333286
                },
                {
                    "name": "G3",
                    "midi": 55,
                    "time": 121.875,
                    "velocity": 1,
                    "duration": 0.2864583333333286
                },
                {
                    "name": "B3",
                    "midi": 59,
                    "time": 122.1875,
                    "velocity": 1,
                    "duration": 0.2864583333333286
                },
                {
                    "name": "A3",
                    "midi": 57,
                    "time": 122.5,
                    "velocity": 1,
                    "duration": 0.2864583333333286
                },
                {
                    "name": "G#3",
                    "midi": 56,
                    "time": 122.8125,
                    "velocity": 1,
                    "duration": 0.2864583333333286
                },
                {
                    "name": "E3",
                    "midi": 52,
                    "time": 123.125,
                    "velocity": 1,
                    "duration": 0.2864583333333286
                },
                {
                    "name": "G#3",
                    "midi": 56,
                    "time": 123.4375,
                    "velocity": 1,
                    "duration": 0.2864583333333286
                },
                {
                    "name": "A3",
                    "midi": 57,
                    "time": 123.75,
                    "velocity": 1,
                    "duration": 0.2864583333333286
                },
                {
                    "name": "C4",
                    "midi": 60,
                    "time": 124.0625,
                    "velocity": 1,
                    "duration": 0.2864583333333286
                },
                {
                    "name": "B3",
                    "midi": 59,
                    "time": 124.375,
                    "velocity": 1,
                    "duration": 0.2864583333333286
                },
                {
                    "name": "A3",
                    "midi": 57,
                    "time": 124.6875,
                    "velocity": 1,
                    "duration": 0.2864583333333286
                },
                {
                    "name": "F3",
                    "midi": 53,
                    "time": 125,
                    "velocity": 1,
                    "duration": 0.2864583333333286
                },
                {
                    "name": "C3",
                    "midi": 48,
                    "time": 125.3125,
                    "velocity": 1,
                    "duration": 0.2864583333333286
                },
                {
                    "name": "G2",
                    "midi": 43,
                    "time": 125.625,
                    "velocity": 1,
                    "duration": 0.2864583333333286
                },
                {
                    "name": "G3",
                    "midi": 55,
                    "time": 125.9375,
                    "velocity": 1,
                    "duration": 0.2864583333333286
                },
                {
                    "name": "G2",
                    "midi": 43,
                    "time": 126.25,
                    "velocity": 1,
                    "duration": 0.2864583333333286
                },
                {
                    "name": "G2",
                    "midi": 43,
                    "time": 126.5625,
                    "velocity": 1,
                    "duration": 0.2864583333333286
                },
                {
                    "name": "G3",
                    "midi": 55,
                    "time": 126.875,
                    "velocity": 1,
                    "duration": 0.2864583333333286
                },
                {
                    "name": "G2",
                    "midi": 43,
                    "time": 127.1875,
                    "velocity": 1,
                    "duration": 0.2864583333333286
                },
                {
                    "name": "G2",
                    "midi": 43,
                    "time": 127.5,
                    "velocity": 1,
                    "duration": 0.2864583333333286
                },
                {
                    "name": "G3",
                    "midi": 55,
                    "time": 127.8125,
                    "velocity": 1,
                    "duration": 0.2864583333333428
                },
                {
                    "name": "G2",
                    "midi": 43,
                    "time": 128.125,
                    "velocity": 1,
                    "duration": 0.2864583333333428
                },
                {
                    "name": "G2",
                    "midi": 43,
                    "time": 128.4375,
                    "velocity": 1,
                    "duration": 0.2864583333333428
                },
                {
                    "name": "G3",
                    "midi": 55,
                    "time": 128.75,
                    "velocity": 1,
                    "duration": 0.2864583333333428
                },
                {
                    "name": "G2",
                    "midi": 43,
                    "time": 129.0625,
                    "velocity": 1,
                    "duration": 0.2864583333333428
                },
                {
                    "name": "G2",
                    "midi": 43,
                    "time": 129.375,
                    "velocity": 1,
                    "duration": 0.2864583333333428
                },
                {
                    "name": "G3",
                    "midi": 55,
                    "time": 129.6875,
                    "velocity": 1,
                    "duration": 0.2864583333333428
                },
                {
                    "name": "G2",
                    "midi": 43,
                    "time": 130,
                    "velocity": 1,
                    "duration": 0.2864583333333428
                },
                {
                    "name": "G2",
                    "midi": 43,
                    "time": 130.3125,
                    "velocity": 1,
                    "duration": 0.2864583333333428
                },
                {
                    "name": "G3",
                    "midi": 55,
                    "time": 130.625,
                    "velocity": 1,
                    "duration": 0.2864583333333428
                },
                {
                    "name": "G2",
                    "midi": 43,
                    "time": 130.9375,
                    "velocity": 1,
                    "duration": 0.2864583333333428
                },
                {
                    "name": "C3",
                    "midi": 48,
                    "time": 131.25,
                    "velocity": 1,
                    "duration": 0.2864583333333428
                },
                {
                    "name": "C4",
                    "midi": 60,
                    "time": 131.5625,
                    "velocity": 1,
                    "duration": 0.2864583333333428
                },
                {
                    "name": "C3",
                    "midi": 48,
                    "time": 131.875,
                    "velocity": 1,
                    "duration": 0.2864583333333428
                },
                {
                    "name": "G2",
                    "midi": 43,
                    "time": 132.1875,
                    "velocity": 1,
                    "duration": 0.2864583333333428
                },
                {
                    "name": "G3",
                    "midi": 55,
                    "time": 132.5,
                    "velocity": 1,
                    "duration": 0.2864583333333428
                },
                {
                    "name": "G2",
                    "midi": 43,
                    "time": 132.8125,
                    "velocity": 1,
                    "duration": 0.2864583333333428
                },
                {
                    "name": "C3",
                    "midi": 48,
                    "time": 133.125,
                    "velocity": 1,
                    "duration": 1.8489583333333428
                },
                {
                    "name": "C3",
                    "midi": 48,
                    "time": 135,
                    "velocity": 1,
                    "duration": 0.2864583333333428
                },
                {
                    "name": "C4",
                    "midi": 60,
                    "time": 135.3125,
                    "velocity": 1,
                    "duration": 0.2864583333333428
                },
                {
                    "name": "C3",
                    "midi": 48,
                    "time": 135.625,
                    "velocity": 1,
                    "duration": 0.2864583333333428
                },
                {
                    "name": "C3",
                    "midi": 48,
                    "time": 135.9375,
                    "velocity": 1,
                    "duration": 0.2864583333333428
                },
                {
                    "name": "C4",
                    "midi": 60,
                    "time": 136.25,
                    "velocity": 1,
                    "duration": 0.2864583333333428
                },
                {
                    "name": "C3",
                    "midi": 48,
                    "time": 136.5625,
                    "velocity": 1,
                    "duration": 0.2864583333333428
                },
                {
                    "name": "G2",
                    "midi": 43,
                    "time": 136.875,
                    "velocity": 1,
                    "duration": 0.2864583333333428
                },
                {
                    "name": "G3",
                    "midi": 55,
                    "time": 137.1875,
                    "velocity": 1,
                    "duration": 0.2864583333333428
                },
                {
                    "name": "F3",
                    "midi": 53,
                    "time": 137.5,
                    "velocity": 1,
                    "duration": 0.2864583333333428
                },
                {
                    "name": "E3",
                    "midi": 52,
                    "time": 137.8125,
                    "velocity": 1,
                    "duration": 0.2864583333333428
                },
                {
                    "name": "C4",
                    "midi": 60,
                    "time": 138.125,
                    "velocity": 1,
                    "duration": 0.2864583333333428
                },
                {
                    "name": "E3",
                    "midi": 52,
                    "time": 138.4375,
                    "velocity": 1,
                    "duration": 0.2864583333333428
                },
                {
                    "name": "D3",
                    "midi": 50,
                    "time": 138.75,
                    "velocity": 1,
                    "duration": 0.2864583333333428
                },
                {
                    "name": "B2",
                    "midi": 47,
                    "time": 139.0625,
                    "velocity": 1,
                    "duration": 0.2864583333333428
                },
                {
                    "name": "A2",
                    "midi": 45,
                    "time": 139.375,
                    "velocity": 1,
                    "duration": 0.2864583333333428
                },
                {
                    "name": "G2",
                    "midi": 43,
                    "time": 139.6875,
                    "velocity": 1,
                    "duration": 0.2864583333333428
                },
                {
                    "name": "G3",
                    "midi": 55,
                    "time": 140,
                    "velocity": 1,
                    "duration": 0.2864583333333428
                },
                {
                    "name": "G2",
                    "midi": 43,
                    "time": 140.3125,
                    "velocity": 1,
                    "duration": 0.2864583333333428
                },
                {
                    "name": "C3",
                    "midi": 48,
                    "time": 140.625,
                    "velocity": 1,
                    "duration": 0.2864583333333428
                },
                {
                    "name": "C4",
                    "midi": 60,
                    "time": 140.9375,
                    "velocity": 1,
                    "duration": 0.2864583333333428
                },
                {
                    "name": "C3",
                    "midi": 48,
                    "time": 141.25,
                    "velocity": 1,
                    "duration": 0.2864583333333428
                },
                {
                    "name": "C3",
                    "midi": 48,
                    "time": 141.5625,
                    "velocity": 1,
                    "duration": 0.2864583333333428
                },
                {
                    "name": "C4",
                    "midi": 60,
                    "time": 141.875,
                    "velocity": 1,
                    "duration": 0.2864583333333428
                },
                {
                    "name": "C3",
                    "midi": 48,
                    "time": 142.1875,
                    "velocity": 1,
                    "duration": 0.2864583333333428
                },
                {
                    "name": "C3",
                    "midi": 48,
                    "time": 142.5,
                    "velocity": 1,
                    "duration": 0.2864583333333428
                },
                {
                    "name": "C4",
                    "midi": 60,
                    "time": 142.8125,
                    "velocity": 1,
                    "duration": 0.2864583333333428
                },
                {
                    "name": "C3",
                    "midi": 48,
                    "time": 143.125,
                    "velocity": 1,
                    "duration": 0.2864583333333428
                },
                {
                    "name": "C3",
                    "midi": 48,
                    "time": 143.4375,
                    "velocity": 1,
                    "duration": 0.2864583333333428
                },
                {
                    "name": "C4",
                    "midi": 60,
                    "time": 143.75,
                    "velocity": 1,
                    "duration": 0.2864583333333428
                },
                {
                    "name": "C3",
                    "midi": 48,
                    "time": 144.0625,
                    "velocity": 1,
                    "duration": 0.2864583333333428
                },
                {
                    "name": "B2",
                    "midi": 47,
                    "time": 144.375,
                    "velocity": 1,
                    "duration": 0.2864583333333428
                },
                {
                    "name": "B3",
                    "midi": 59,
                    "time": 144.6875,
                    "velocity": 1,
                    "duration": 0.2864583333333428
                },
                {
                    "name": "B2",
                    "midi": 47,
                    "time": 145,
                    "velocity": 1,
                    "duration": 0.2864583333333428
                },
                {
                    "name": "B2",
                    "midi": 47,
                    "time": 145.3125,
                    "velocity": 1,
                    "duration": 0.2864583333333428
                },
                {
                    "name": "B3",
                    "midi": 59,
                    "time": 145.625,
                    "velocity": 1,
                    "duration": 0.2864583333333428
                },
                {
                    "name": "B2",
                    "midi": 47,
                    "time": 145.9375,
                    "velocity": 1,
                    "duration": 0.2864583333333428
                },
                {
                    "name": "A2",
                    "midi": 45,
                    "time": 146.25,
                    "velocity": 1,
                    "duration": 0.2864583333333428
                },
                {
                    "name": "A3",
                    "midi": 57,
                    "time": 146.5625,
                    "velocity": 1,
                    "duration": 0.2864583333333428
                },
                {
                    "name": "A2",
                    "midi": 45,
                    "time": 146.875,
                    "velocity": 1,
                    "duration": 0.2864583333333428
                },
                {
                    "name": "A2",
                    "midi": 45,
                    "time": 147.1875,
                    "velocity": 1,
                    "duration": 0.2864583333333428
                },
                {
                    "name": "A3",
                    "midi": 57,
                    "time": 147.5,
                    "velocity": 1,
                    "duration": 0.2864583333333428
                },
                {
                    "name": "A2",
                    "midi": 45,
                    "time": 147.8125,
                    "velocity": 1,
                    "duration": 0.2864583333333428
                },
                {
                    "name": "G2",
                    "midi": 43,
                    "time": 148.125,
                    "velocity": 1,
                    "duration": 0.2864583333333428
                },
                {
                    "name": "G3",
                    "midi": 55,
                    "time": 148.4375,
                    "velocity": 1,
                    "duration": 0.2864583333333428
                },
                {
                    "name": "G2",
                    "midi": 43,
                    "time": 148.75,
                    "velocity": 1,
                    "duration": 0.2864583333333428
                },
                {
                    "name": "G2",
                    "midi": 43,
                    "time": 149.0625,
                    "velocity": 1,
                    "duration": 0.2864583333333428
                },
                {
                    "name": "G3",
                    "midi": 55,
                    "time": 149.375,
                    "velocity": 1,
                    "duration": 0.2864583333333428
                },
                {
                    "name": "G2",
                    "midi": 43,
                    "time": 149.6875,
                    "velocity": 1,
                    "duration": 0.2864583333333428
                },
                {
                    "name": "G2",
                    "midi": 43,
                    "time": 150,
                    "velocity": 1,
                    "duration": 0.2864583333333428
                },
                {
                    "name": "G3",
                    "midi": 55,
                    "time": 150.3125,
                    "velocity": 1,
                    "duration": 0.2864583333333428
                },
                {
                    "name": "G2",
                    "midi": 43,
                    "time": 150.625,
                    "velocity": 1,
                    "duration": 0.2864583333333428
                },
                {
                    "name": "G2",
                    "midi": 43,
                    "time": 150.9375,
                    "velocity": 1,
                    "duration": 0.2864583333333428
                },
                {
                    "name": "G3",
                    "midi": 55,
                    "time": 151.25,
                    "velocity": 1,
                    "duration": 0.2864583333333428
                },
                {
                    "name": "G2",
                    "midi": 43,
                    "time": 151.5625,
                    "velocity": 1,
                    "duration": 0.2864583333333428
                },
                {
                    "name": "G2",
                    "midi": 43,
                    "time": 151.875,
                    "velocity": 1,
                    "duration": 0.2864583333333428
                },
                {
                    "name": "G3",
                    "midi": 55,
                    "time": 152.1875,
                    "velocity": 1,
                    "duration": 0.2864583333333428
                },
                {
                    "name": "G2",
                    "midi": 43,
                    "time": 152.5,
                    "velocity": 1,
                    "duration": 0.2864583333333428
                },
                {
                    "name": "G2",
                    "midi": 43,
                    "time": 152.8125,
                    "velocity": 1,
                    "duration": 0.2864583333333428
                },
                {
                    "name": "G3",
                    "midi": 55,
                    "time": 153.125,
                    "velocity": 1,
                    "duration": 0.2864583333333428
                },
                {
                    "name": "G2",
                    "midi": 43,
                    "time": 153.4375,
                    "velocity": 1,
                    "duration": 0.2864583333333428
                },
                {
                    "name": "G2",
                    "midi": 43,
                    "time": 153.75,
                    "velocity": 1,
                    "duration": 0.2864583333333428
                },
                {
                    "name": "G3",
                    "midi": 55,
                    "time": 154.0625,
                    "velocity": 1,
                    "duration": 0.2864583333333428
                },
                {
                    "name": "G2",
                    "midi": 43,
                    "time": 154.375,
                    "velocity": 1,
                    "duration": 0.2864583333333428
                },
                {
                    "name": "G2",
                    "midi": 43,
                    "time": 154.6875,
                    "velocity": 1,
                    "duration": 0.2864583333333428
                },
                {
                    "name": "G3",
                    "midi": 55,
                    "time": 155,
                    "velocity": 1,
                    "duration": 0.2864583333333428
                },
                {
                    "name": "G2",
                    "midi": 43,
                    "time": 155.3125,
                    "velocity": 1,
                    "duration": 0.2864583333333428
                },
                {
                    "name": "G2",
                    "midi": 43,
                    "time": 155.625,
                    "velocity": 1,
                    "duration": 0.2864583333333428
                },
                {
                    "name": "G3",
                    "midi": 55,
                    "time": 155.9375,
                    "velocity": 1,
                    "duration": 0.2864583333333428
                },
                {
                    "name": "G2",
                    "midi": 43,
                    "time": 156.25,
                    "velocity": 1,
                    "duration": 0.2864583333333428
                },
                {
                    "name": "G2",
                    "midi": 43,
                    "time": 156.5625,
                    "velocity": 1,
                    "duration": 0.2864583333333428
                },
                {
                    "name": "G3",
                    "midi": 55,
                    "time": 156.875,
                    "velocity": 1,
                    "duration": 0.2864583333333428
                },
                {
                    "name": "G2",
                    "midi": 43,
                    "time": 157.1875,
                    "velocity": 1,
                    "duration": 0.2864583333333428
                },
                {
                    "name": "C3",
                    "midi": 48,
                    "time": 157.5,
                    "velocity": 1,
                    "duration": 0.2864583333333428
                },
                {
                    "name": "C4",
                    "midi": 60,
                    "time": 157.8125,
                    "velocity": 1,
                    "duration": 0.2864583333333428
                },
                {
                    "name": "C3",
                    "midi": 48,
                    "time": 158.125,
                    "velocity": 1,
                    "duration": 0.2864583333333428
                },
                {
                    "name": "G2",
                    "midi": 43,
                    "time": 158.4375,
                    "velocity": 1,
                    "duration": 0.2864583333333428
                },
                {
                    "name": "G3",
                    "midi": 55,
                    "time": 158.75,
                    "velocity": 1,
                    "duration": 0.2864583333333428
                },
                {
                    "name": "G2",
                    "midi": 43,
                    "time": 159.0625,
                    "velocity": 1,
                    "duration": 0.2864583333333428
                },
                {
                    "name": "C3",
                    "midi": 48,
                    "time": 159.375,
                    "velocity": 1,
                    "duration": 1.8489583333333428
                }
            ],
            "controlChanges": {
                "10": [
                    {
                        "number": 10,
                        "time": 0,
                        "value": 0.5039370078740157
                    }
                ]
            },
            "id": 4,
            "name": "\\vbox{\\hsize\\parindent\\centerline{Organ}\\centerline{or}\\centerline{Piano}}",
            "instrumentNumber": 19,
            "instrument": "church organ",
            "instrumentFamily": "organ",
            "channelNumber": 3,
            "isPercussion": false
        },
        {
            "startTime": 0,
            "duration": 0,
            "length": 0,
            "notes": [],
            "controlChanges": {},
            "id": 5
        }
    ]
}