{
    "header": {
        "PPQ": 240,
        "bpm": 120,
        "timeSignature": [
            3,
            4
        ],
        "name": "@Ravel \"Menuet Antique\"                Play by Katsuhiro Oguri"
    },
    "startTime": 0,
    "duration": 481.42291666667904,
    "tracks": [
        {
            "startTime": 0,
            "duration": 0,
            "length": 0,
            "notes": [],
            "controlChanges": {},
            "id": 0,
            "name": "@Ravel \"Menuet Antique\"                Play by Katsuhiro Oguri"
        },
        {
            "startTime": 2.6104166666666666,
            "duration": 481.42291666667904,
            "length": 3567,
            "notes": [
                {
                    "name": "F#5",
                    "midi": 78,
                    "time": 2.6104166666666666,
                    "velocity": 0.7637795275590551,
                    "duration": 0.5145833333333338
                },
                {
                    "name": "B4",
                    "midi": 71,
                    "time": 2.6166666666666667,
                    "velocity": 0.7007874015748031,
                    "duration": 0.09791666666666687
                },
                {
                    "name": "F5",
                    "midi": 77,
                    "time": 2.6208333333333336,
                    "velocity": 0.7637795275590551,
                    "duration": 0.16666666666666652
                },
                {
                    "name": "D5",
                    "midi": 74,
                    "time": 2.6208333333333336,
                    "velocity": 0.7165354330708661,
                    "duration": 0.11041666666666661
                },
                {
                    "name": "C#5",
                    "midi": 73,
                    "time": 3.05625,
                    "velocity": 0.7559055118110236,
                    "duration": 0.08541666666666714
                },
                {
                    "name": "A4",
                    "midi": 69,
                    "time": 3.060416666666667,
                    "velocity": 0.5826771653543307,
                    "duration": 0.06666666666666687
                },
                {
                    "name": "F#5",
                    "midi": 78,
                    "time": 3.48125,
                    "velocity": 0.7559055118110236,
                    "duration": 0.5333333333333332
                },
                {
                    "name": "G#4",
                    "midi": 68,
                    "time": 3.485416666666667,
                    "velocity": 0.7559055118110236,
                    "duration": 0.2749999999999999
                },
                {
                    "name": "B4",
                    "midi": 71,
                    "time": 3.4958333333333336,
                    "velocity": 0.6771653543307087,
                    "duration": 0.15833333333333321
                },
                {
                    "name": "D5",
                    "midi": 74,
                    "time": 3.4958333333333336,
                    "velocity": 0.6377952755905512,
                    "duration": 0.3958333333333335
                },
                {
                    "name": "C#5",
                    "midi": 73,
                    "time": 3.9145833333333337,
                    "velocity": 0.6929133858267716,
                    "duration": 0.18958333333333321
                },
                {
                    "name": "A4",
                    "midi": 69,
                    "time": 3.9250000000000003,
                    "velocity": 0.6377952755905512,
                    "duration": 0.3062499999999999
                },
                {
                    "name": "F#4",
                    "midi": 66,
                    "time": 3.9250000000000003,
                    "velocity": 0.9133858267716536,
                    "duration": 0.8395833333333331
                },
                {
                    "name": "A5",
                    "midi": 81,
                    "time": 4.379166666666666,
                    "velocity": 0.8503937007874016,
                    "duration": 0.3104166666666668
                },
                {
                    "name": "A4",
                    "midi": 69,
                    "time": 4.804166666666667,
                    "velocity": 0.6377952755905512,
                    "duration": 0.16041666666666732
                },
                {
                    "name": "B3",
                    "midi": 59,
                    "time": 4.804166666666667,
                    "velocity": 0.6614173228346457,
                    "duration": 0.4062499999999991
                },
                {
                    "name": "D5",
                    "midi": 74,
                    "time": 4.812500000000001,
                    "velocity": 0.7086614173228346,
                    "duration": 0.29166666666666696
                },
                {
                    "name": "G#5",
                    "midi": 80,
                    "time": 4.9958333333333345,
                    "velocity": 0.7795275590551181,
                    "duration": 0.17708333333333304
                },
                {
                    "name": "D5",
                    "midi": 74,
                    "time": 5.1937500000000005,
                    "velocity": 0.6456692913385826,
                    "duration": 0.16458333333333286
                },
                {
                    "name": "F#5",
                    "midi": 78,
                    "time": 5.195833333333334,
                    "velocity": 0.6850393700787402,
                    "duration": 0.25416666666666643
                },
                {
                    "name": "E4",
                    "midi": 64,
                    "time": 5.204166666666667,
                    "velocity": 0.5669291338582677,
                    "duration": 0.47291666666666554
                },
                {
                    "name": "G#4",
                    "midi": 68,
                    "time": 5.208333333333333,
                    "velocity": 0.6929133858267716,
                    "duration": 0.2645833333333334
                },
                {
                    "name": "E5",
                    "midi": 76,
                    "time": 5.360416666666667,
                    "velocity": 0.7165354330708661,
                    "duration": 0.28958333333333197
                },
                {
                    "name": "F#5",
                    "midi": 78,
                    "time": 5.5874999999999995,
                    "velocity": 0.7322834645669292,
                    "duration": 0.21249999999999858
                },
                {
                    "name": "F#3",
                    "midi": 54,
                    "time": 5.593749999999999,
                    "velocity": 0.7165354330708661,
                    "duration": 0.07499999999999929
                },
                {
                    "name": "A4",
                    "midi": 69,
                    "time": 5.599999999999999,
                    "velocity": 0.5275590551181102,
                    "duration": 0.13124999999999964
                },
                {
                    "name": "C#5",
                    "midi": 73,
                    "time": 5.604166666666665,
                    "velocity": 0.6614173228346457,
                    "duration": 0.20833333333333304
                },
                {
                    "name": "G#5",
                    "midi": 80,
                    "time": 5.762499999999998,
                    "velocity": 0.7874015748031497,
                    "duration": 0.13124999999999964
                },
                {
                    "name": "A5",
                    "midi": 81,
                    "time": 5.977083333333331,
                    "velocity": 0.8110236220472441,
                    "duration": 0.09583333333333321
                },
                {
                    "name": "B3",
                    "midi": 59,
                    "time": 5.983333333333331,
                    "velocity": 0.5669291338582677,
                    "duration": 0.14583333333333393
                },
                {
                    "name": "F#4",
                    "midi": 66,
                    "time": 5.9916666666666645,
                    "velocity": 0.7401574803149606,
                    "duration": 0.21249999999999947
                },
                {
                    "name": "F4",
                    "midi": 65,
                    "time": 5.9916666666666645,
                    "velocity": 0.6141732283464567,
                    "duration": 0.10833333333333339
                },
                {
                    "name": "D4",
                    "midi": 62,
                    "time": 5.993749999999998,
                    "velocity": 0.5196850393700787,
                    "duration": 0.11041666666666661
                },
                {
                    "name": "B5",
                    "midi": 83,
                    "time": 6.152083333333331,
                    "velocity": 0.5669291338582677,
                    "duration": 0.09166666666666679
                },
                {
                    "name": "F#4",
                    "midi": 66,
                    "time": 6.370833333333331,
                    "velocity": 0.7559055118110236,
                    "duration": 0.17708333333333393
                },
                {
                    "name": "C#4",
                    "midi": 61,
                    "time": 6.381249999999998,
                    "velocity": 0.7322834645669292,
                    "duration": 0.12708333333333321
                },
                {
                    "name": "C#6",
                    "midi": 85,
                    "time": 6.383333333333331,
                    "velocity": 0.8267716535433071,
                    "duration": 0.08124999999999982
                },
                {
                    "name": "A3",
                    "midi": 57,
                    "time": 6.383333333333331,
                    "velocity": 0.5984251968503937,
                    "duration": 0.15000000000000036
                },
                {
                    "name": "C#6",
                    "midi": 85,
                    "time": 6.816666666666665,
                    "velocity": 0.8346456692913385,
                    "duration": 0.6562499999999982
                },
                {
                    "name": "F#4",
                    "midi": 66,
                    "time": 6.816666666666665,
                    "velocity": 0.7637795275590551,
                    "duration": 0.6624999999999979
                },
                {
                    "name": "B3",
                    "midi": 59,
                    "time": 6.822916666666664,
                    "velocity": 0.6062992125984252,
                    "duration": 0.17291666666666572
                },
                {
                    "name": "G#3",
                    "midi": 56,
                    "time": 6.8249999999999975,
                    "velocity": 0.6850393700787402,
                    "duration": 0.2020833333333325
                },
                {
                    "name": "D4",
                    "midi": 62,
                    "time": 6.829166666666664,
                    "velocity": 0.6692913385826772,
                    "duration": 0.14583333333333304
                },
                {
                    "name": "F#3",
                    "midi": 54,
                    "time": 7.268749999999996,
                    "velocity": 0.6771653543307087,
                    "duration": 0.16666666666666696
                },
                {
                    "name": "A3",
                    "midi": 57,
                    "time": 7.274999999999996,
                    "velocity": 0.5354330708661418,
                    "duration": 0.15000000000000036
                },
                {
                    "name": "C#4",
                    "midi": 61,
                    "time": 7.274999999999996,
                    "velocity": 0.6929133858267716,
                    "duration": 0.1729166666666675
                },
                {
                    "name": "A5",
                    "midi": 81,
                    "time": 7.45208333333333,
                    "velocity": 0.6614173228346457,
                    "duration": 0.2499999999999991
                },
                {
                    "name": "F#5",
                    "midi": 78,
                    "time": 7.672916666666662,
                    "velocity": 0.7086614173228346,
                    "duration": 0.25416666666666643
                },
                {
                    "name": "A4",
                    "midi": 69,
                    "time": 7.679166666666662,
                    "velocity": 0.6692913385826772,
                    "duration": 0.5291666666666668
                },
                {
                    "name": "C#5",
                    "midi": 73,
                    "time": 7.854166666666662,
                    "velocity": 0.7480314960629921,
                    "duration": 0.18541666666666767
                },
                {
                    "name": "D4",
                    "midi": 62,
                    "time": 8.106249999999996,
                    "velocity": 0.47244094488188976,
                    "duration": 0.2458333333333318
                },
                {
                    "name": "B3",
                    "midi": 59,
                    "time": 8.108333333333329,
                    "velocity": 0.44881889763779526,
                    "duration": 1.1541666666666615
                },
                {
                    "name": "D5",
                    "midi": 74,
                    "time": 8.110416666666662,
                    "velocity": 0.6850393700787402,
                    "duration": 1.0437499999999957
                },
                {
                    "name": "G#4",
                    "midi": 68,
                    "time": 8.362499999999994,
                    "velocity": 0.5354330708661418,
                    "duration": 0.24166666666666536
                },
                {
                    "name": "F#4",
                    "midi": 66,
                    "time": 8.56041666666666,
                    "velocity": 0.6535433070866141,
                    "duration": 0.14791666666666536
                },
                {
                    "name": "E4",
                    "midi": 64,
                    "time": 8.718749999999991,
                    "velocity": 0.5118110236220472,
                    "duration": 0.22916666666666785
                },
                {
                    "name": "F#4",
                    "midi": 66,
                    "time": 8.922916666666659,
                    "velocity": 0.7559055118110236,
                    "duration": 0.12916666666666643
                },
                {
                    "name": "E5",
                    "midi": 76,
                    "time": 9.13124999999999,
                    "velocity": 0.6062992125984252,
                    "duration": 0.216666666666665
                },
                {
                    "name": "G#4",
                    "midi": 68,
                    "time": 9.333333333333323,
                    "velocity": 0.7322834645669292,
                    "duration": 0.12499999999999822
                },
                {
                    "name": "F#5",
                    "midi": 78,
                    "time": 9.339583333333323,
                    "velocity": 0.7007874015748031,
                    "duration": 0.2624999999999993
                },
                {
                    "name": "G#5",
                    "midi": 80,
                    "time": 9.547916666666655,
                    "velocity": 0.5669291338582677,
                    "duration": 0.19791666666666785
                },
                {
                    "name": "D4",
                    "midi": 62,
                    "time": 9.756249999999989,
                    "velocity": 0.5984251968503937,
                    "duration": 0.056250000000000355
                },
                {
                    "name": "E3",
                    "midi": 52,
                    "time": 9.758333333333322,
                    "velocity": 0.5354330708661418,
                    "duration": 0.052083333333333925
                },
                {
                    "name": "B5",
                    "midi": 83,
                    "time": 9.760416666666655,
                    "velocity": 0.5984251968503937,
                    "duration": 0.16666666666666785
                },
                {
                    "name": "G#5",
                    "midi": 80,
                    "time": 9.929166666666656,
                    "velocity": 0.6220472440944882,
                    "duration": 0.2333333333333325
                },
                {
                    "name": "E5",
                    "midi": 76,
                    "time": 10.160416666666656,
                    "velocity": 0.5984251968503937,
                    "duration": 0.14166666666666572
                },
                {
                    "name": "G#4",
                    "midi": 68,
                    "time": 10.160416666666656,
                    "velocity": 0.7165354330708661,
                    "duration": 0.5062499999999961
                },
                {
                    "name": "B4",
                    "midi": 71,
                    "time": 10.310416666666654,
                    "velocity": 0.6299212598425197,
                    "duration": 0.2583333333333311
                },
                {
                    "name": "A3",
                    "midi": 57,
                    "time": 10.543749999999987,
                    "velocity": 0.3700787401574803,
                    "duration": 1.185416666666665
                },
                {
                    "name": "C#5",
                    "midi": 73,
                    "time": 10.55208333333332,
                    "velocity": 0.7007874015748031,
                    "duration": 0.9270833333333321
                },
                {
                    "name": "C#4",
                    "midi": 61,
                    "time": 10.564583333333319,
                    "velocity": 0.5275590551181102,
                    "duration": 0.28749999999999964
                },
                {
                    "name": "F#4",
                    "midi": 66,
                    "time": 10.787499999999985,
                    "velocity": 0.6456692913385826,
                    "duration": 0.19791666666666607
                },
                {
                    "name": "E4",
                    "midi": 64,
                    "time": 10.981249999999985,
                    "velocity": 0.5748031496062992,
                    "duration": 0.16249999999999964
                },
                {
                    "name": "D4",
                    "midi": 62,
                    "time": 11.141666666666652,
                    "velocity": 0.6062992125984252,
                    "duration": 0.21458333333333357
                },
                {
                    "name": "E4",
                    "midi": 64,
                    "time": 11.358333333333318,
                    "velocity": 0.6456692913385826,
                    "duration": 0.10208333333333286
                },
                {
                    "name": "D5",
                    "midi": 74,
                    "time": 11.516666666666652,
                    "velocity": 0.6377952755905512,
                    "duration": 0.2333333333333325
                },
                {
                    "name": "F#4",
                    "midi": 66,
                    "time": 11.735416666666652,
                    "velocity": 0.7322834645669292,
                    "duration": 0.09166666666666501
                },
                {
                    "name": "E5",
                    "midi": 76,
                    "time": 11.743749999999984,
                    "velocity": 0.6929133858267716,
                    "duration": 0.18958333333333144
                },
                {
                    "name": "F#5",
                    "midi": 78,
                    "time": 11.931249999999983,
                    "velocity": 0.6614173228346457,
                    "duration": 0.21874999999999822
                },
                {
                    "name": "D3",
                    "midi": 50,
                    "time": 12.118749999999983,
                    "velocity": 0.5669291338582677,
                    "duration": 0.08333333333333037
                },
                {
                    "name": "A5",
                    "midi": 81,
                    "time": 12.129166666666649,
                    "velocity": 0.5826771653543307,
                    "duration": 0.1791666666666636
                },
                {
                    "name": "C#4",
                    "midi": 61,
                    "time": 12.139583333333315,
                    "velocity": 0.5590551181102362,
                    "duration": 0.054166666666665364
                },
                {
                    "name": "F#5",
                    "midi": 78,
                    "time": 12.327083333333313,
                    "velocity": 0.6141732283464567,
                    "duration": 0.23541666666666572
                },
                {
                    "name": "F#4",
                    "midi": 66,
                    "time": 12.520833333333313,
                    "velocity": 0.7086614173228346,
                    "duration": 0.4812499999999993
                },
                {
                    "name": "D5",
                    "midi": 74,
                    "time": 12.535416666666645,
                    "velocity": 0.6299212598425197,
                    "duration": 0.19583333333333464
                },
                {
                    "name": "A4",
                    "midi": 69,
                    "time": 12.714583333333312,
                    "velocity": 0.6299212598425197,
                    "duration": 0.22499999999999964
                },
                {
                    "name": "G#3",
                    "midi": 56,
                    "time": 12.91249999999998,
                    "velocity": 0.4566929133858268,
                    "duration": 0.8125
                },
                {
                    "name": "B3",
                    "midi": 59,
                    "time": 12.92499999999998,
                    "velocity": 0.5275590551181102,
                    "duration": 0.2020833333333325
                },
                {
                    "name": "B4",
                    "midi": 71,
                    "time": 12.931249999999979,
                    "velocity": 0.6220472440944882,
                    "duration": 0.6333333333333329
                },
                {
                    "name": "E4",
                    "midi": 64,
                    "time": 13.114583333333313,
                    "velocity": 0.5984251968503937,
                    "duration": 0.20416666666666572
                },
                {
                    "name": "D4",
                    "midi": 62,
                    "time": 13.316666666666645,
                    "velocity": 0.5196850393700787,
                    "duration": 0.19166666666666643
                },
                {
                    "name": "C#4",
                    "midi": 61,
                    "time": 13.493749999999979,
                    "velocity": 0.6535433070866141,
                    "duration": 0.2062500000000007
                },
                {
                    "name": "D4",
                    "midi": 62,
                    "time": 13.716666666666647,
                    "velocity": 0.6614173228346457,
                    "duration": 0.08124999999999893
                },
                {
                    "name": "G#4",
                    "midi": 68,
                    "time": 13.906249999999979,
                    "velocity": 0.7874015748031497,
                    "duration": 0.14374999999999893
                },
                {
                    "name": "D4",
                    "midi": 62,
                    "time": 14.104166666666643,
                    "velocity": 0.7007874015748031,
                    "duration": 0.0416666666666643
                },
                {
                    "name": "D3",
                    "midi": 50,
                    "time": 14.118749999999975,
                    "velocity": 0.5984251968503937,
                    "duration": 0.05624999999999858
                },
                {
                    "name": "A4",
                    "midi": 69,
                    "time": 14.118749999999975,
                    "velocity": 0.6850393700787402,
                    "duration": 0.1208333333333318
                },
                {
                    "name": "C#4",
                    "midi": 61,
                    "time": 14.127083333333308,
                    "velocity": 0.7244094488188977,
                    "duration": 0.08749999999999858
                },
                {
                    "name": "F#4",
                    "midi": 66,
                    "time": 14.133333333333308,
                    "velocity": 0.6692913385826772,
                    "duration": 0.11666666666666536
                },
                {
                    "name": "B4",
                    "midi": 71,
                    "time": 14.29166666666664,
                    "velocity": 0.8110236220472441,
                    "duration": 0.1083333333333325
                },
                {
                    "name": "E2",
                    "midi": 40,
                    "time": 14.487499999999972,
                    "velocity": 0.6299212598425197,
                    "duration": 0.03958333333333108
                },
                {
                    "name": "E3",
                    "midi": 52,
                    "time": 14.495833333333305,
                    "velocity": 0.6220472440944882,
                    "duration": 0.04791666666666394
                },
                {
                    "name": "C#5",
                    "midi": 73,
                    "time": 14.510416666666638,
                    "velocity": 0.8661417322834646,
                    "duration": 0.12291666666666501
                },
                {
                    "name": "C#4",
                    "midi": 61,
                    "time": 14.516666666666637,
                    "velocity": 0.7874015748031497,
                    "duration": 0.03333333333333144
                },
                {
                    "name": "G#4",
                    "midi": 68,
                    "time": 14.527083333333303,
                    "velocity": 0.6929133858267716,
                    "duration": 0.05208333333333215
                },
                {
                    "name": "B4",
                    "midi": 71,
                    "time": 14.735416666666636,
                    "velocity": 0.7086614173228346,
                    "duration": 0.23541666666666572
                },
                {
                    "name": "C#5",
                    "midi": 73,
                    "time": 14.9208333333333,
                    "velocity": 0.7401574803149606,
                    "duration": 0.18333333333333357
                },
                {
                    "name": "D5",
                    "midi": 74,
                    "time": 15.112499999999967,
                    "velocity": 0.5984251968503937,
                    "duration": 0.14791666666666714
                },
                {
                    "name": "E5",
                    "midi": 76,
                    "time": 15.3020833333333,
                    "velocity": 0.7244094488188977,
                    "duration": 0.11666666666666536
                },
                {
                    "name": "D5",
                    "midi": 74,
                    "time": 15.487499999999965,
                    "velocity": 0.8188976377952756,
                    "duration": 0.14791666666666536
                },
                {
                    "name": "C#5",
                    "midi": 73,
                    "time": 15.510416666666632,
                    "velocity": 0.6771653543307087,
                    "duration": 0.08749999999999858
                },
                {
                    "name": "A4",
                    "midi": 69,
                    "time": 15.522916666666632,
                    "velocity": 0.5433070866141733,
                    "duration": 0.08749999999999858
                },
                {
                    "name": "E5",
                    "midi": 76,
                    "time": 15.689583333333298,
                    "velocity": 0.8110236220472441,
                    "duration": 0.10208333333333108
                },
                {
                    "name": "B4",
                    "midi": 71,
                    "time": 15.699999999999964,
                    "velocity": 0.7007874015748031,
                    "duration": 0.11458333333333215
                },
                {
                    "name": "G#4",
                    "midi": 68,
                    "time": 15.71041666666663,
                    "velocity": 0.6929133858267716,
                    "duration": 0.11874999999999858
                },
                {
                    "name": "F#5",
                    "midi": 78,
                    "time": 15.870833333333294,
                    "velocity": 0.84251968503937,
                    "duration": 0.13958333333333073
                },
                {
                    "name": "A4",
                    "midi": 69,
                    "time": 15.872916666666628,
                    "velocity": 0.6614173228346457,
                    "duration": 0.1999999999999975
                },
                {
                    "name": "F#4",
                    "midi": 66,
                    "time": 15.877083333333294,
                    "velocity": 0.6771653543307087,
                    "duration": 0.15624999999999822
                },
                {
                    "name": "C#5",
                    "midi": 73,
                    "time": 15.88124999999996,
                    "velocity": 0.7795275590551181,
                    "duration": 0.10624999999999929
                },
                {
                    "name": "G#4",
                    "midi": 68,
                    "time": 16.072916666666625,
                    "velocity": 0.7480314960629921,
                    "duration": 0.08750000000000213
                },
                {
                    "name": "G#5",
                    "midi": 80,
                    "time": 16.07499999999996,
                    "velocity": 0.8503937007874016,
                    "duration": 0.10208333333333286
                },
                {
                    "name": "E4",
                    "midi": 64,
                    "time": 16.097916666666627,
                    "velocity": 0.5590551181102362,
                    "duration": 0.06666666666666643
                },
                {
                    "name": "G#5",
                    "midi": 80,
                    "time": 16.26249999999996,
                    "velocity": 0.84251968503937,
                    "duration": 0.1374999999999993
                },
                {
                    "name": "D4",
                    "midi": 62,
                    "time": 16.46458333333329,
                    "velocity": 0.7874015748031497,
                    "duration": 0.058333333333340676
                },
                {
                    "name": "D5",
                    "midi": 74,
                    "time": 16.466666666666626,
                    "velocity": 0.7401574803149606,
                    "duration": 0.037500000000004974
                },
                {
                    "name": "A5",
                    "midi": 81,
                    "time": 16.46874999999996,
                    "velocity": 0.889763779527559,
                    "duration": 0.07916666666666927
                },
                {
                    "name": "C#5",
                    "midi": 73,
                    "time": 16.483333333333295,
                    "velocity": 0.8188976377952756,
                    "duration": 0.04791666666666927
                },
                {
                    "name": "F#5",
                    "midi": 78,
                    "time": 16.48541666666663,
                    "velocity": 0.7874015748031497,
                    "duration": 0.07083333333333286
                },
                {
                    "name": "B5",
                    "midi": 83,
                    "time": 16.656249999999964,
                    "velocity": 0.7244094488188977,
                    "duration": 0.10208333333333286
                },
                {
                    "name": "E3",
                    "midi": 52,
                    "time": 16.852083333333297,
                    "velocity": 0.7795275590551181,
                    "duration": 0.047916666666672825
                },
                {
                    "name": "E4",
                    "midi": 64,
                    "time": 16.8583333333333,
                    "velocity": 0.7244094488188977,
                    "duration": 0.041666666666671404
                },
                {
                    "name": "C#6",
                    "midi": 85,
                    "time": 16.881249999999966,
                    "velocity": 0.8818897637795275,
                    "duration": 0.11041666666667282
                },
                {
                    "name": "G#5",
                    "midi": 80,
                    "time": 16.8833333333333,
                    "velocity": 0.8582677165354331,
                    "duration": 0.08125000000000426
                },
                {
                    "name": "C#5",
                    "midi": 73,
                    "time": 16.889583333333302,
                    "velocity": 0.7165354330708661,
                    "duration": 0.03333333333333499
                },
                {
                    "name": "B5",
                    "midi": 83,
                    "time": 17.09166666666664,
                    "velocity": 0.7952755905511811,
                    "duration": 0.15625
                },
                {
                    "name": "C#6",
                    "midi": 85,
                    "time": 17.289583333333308,
                    "velocity": 0.8661417322834646,
                    "duration": 0.16249999999999787
                },
                {
                    "name": "D6",
                    "midi": 86,
                    "time": 17.48124999999997,
                    "velocity": 0.7637795275590551,
                    "duration": 0.22916666666666785
                },
                {
                    "name": "E6",
                    "midi": 88,
                    "time": 17.683333333333305,
                    "velocity": 0.8110236220472441,
                    "duration": 0.11666666666666714
                },
                {
                    "name": "D6",
                    "midi": 86,
                    "time": 17.864583333333307,
                    "velocity": 0.8582677165354331,
                    "duration": 0.15625
                },
                {
                    "name": "C#6",
                    "midi": 85,
                    "time": 17.87291666666664,
                    "velocity": 0.84251968503937,
                    "duration": 0.125
                },
                {
                    "name": "A5",
                    "midi": 81,
                    "time": 17.887499999999974,
                    "velocity": 0.6692913385826772,
                    "duration": 0.11250000000000071
                },
                {
                    "name": "E6",
                    "midi": 88,
                    "time": 18.056249999999974,
                    "velocity": 0.8110236220472441,
                    "duration": 0.10833333333333428
                },
                {
                    "name": "B5",
                    "midi": 83,
                    "time": 18.077083333333306,
                    "velocity": 0.7007874015748031,
                    "duration": 0.10416666666666785
                },
                {
                    "name": "G#5",
                    "midi": 80,
                    "time": 18.087499999999974,
                    "velocity": 0.6929133858267716,
                    "duration": 0.11458333333333215
                },
                {
                    "name": "F#6",
                    "midi": 90,
                    "time": 18.237499999999972,
                    "velocity": 0.8582677165354331,
                    "duration": 0.16041666666666643
                },
                {
                    "name": "A5",
                    "midi": 81,
                    "time": 18.237499999999972,
                    "velocity": 0.7559055118110236,
                    "duration": 0.18125000000000213
                },
                {
                    "name": "F#5",
                    "midi": 78,
                    "time": 18.24166666666664,
                    "velocity": 0.7165354330708661,
                    "duration": 0.158333333333335
                },
                {
                    "name": "C#6",
                    "midi": 85,
                    "time": 18.26249999999997,
                    "velocity": 0.7244094488188977,
                    "duration": 0.12916666666666643
                },
                {
                    "name": "G#6",
                    "midi": 92,
                    "time": 18.445833333333308,
                    "velocity": 0.9291338582677166,
                    "duration": 0.07291666666666785
                },
                {
                    "name": "G#5",
                    "midi": 80,
                    "time": 18.45208333333331,
                    "velocity": 0.8110236220472441,
                    "duration": 0.03958333333333286
                },
                {
                    "name": "E5",
                    "midi": 76,
                    "time": 18.456249999999976,
                    "velocity": 0.7165354330708661,
                    "duration": 0.06666666666666643
                },
                {
                    "name": "C#5",
                    "midi": 73,
                    "time": 18.891666666666644,
                    "velocity": 0.8818897637795275,
                    "duration": 0.11875000000000568
                },
                {
                    "name": "F#3",
                    "midi": 54,
                    "time": 18.89374999999998,
                    "velocity": 0.937007874015748,
                    "duration": 0.06666666666666998
                },
                {
                    "name": "A4",
                    "midi": 69,
                    "time": 18.89999999999998,
                    "velocity": 0.7401574803149606,
                    "duration": 0.0854166666666707
                },
                {
                    "name": "D#4",
                    "midi": 63,
                    "time": 18.902083333333316,
                    "velocity": 0.8976377952755905,
                    "duration": 0.06458333333333499
                },
                {
                    "name": "G#3",
                    "midi": 56,
                    "time": 19.406249999999982,
                    "velocity": 0.905511811023622,
                    "duration": 0.6145833333333428
                },
                {
                    "name": "C#5",
                    "midi": 73,
                    "time": 19.408333333333317,
                    "velocity": 0.905511811023622,
                    "duration": 0.5000000000000071
                },
                {
                    "name": "D#4",
                    "midi": 63,
                    "time": 19.412499999999987,
                    "velocity": 0.968503937007874,
                    "duration": 0.49375000000000213
                },
                {
                    "name": "G#4",
                    "midi": 68,
                    "time": 19.414583333333322,
                    "velocity": 0.8976377952755905,
                    "duration": 0.5083333333333364
                },
                {
                    "name": "D#3",
                    "midi": 51,
                    "time": 19.872916666666654,
                    "velocity": 0.8346456692913385,
                    "duration": 0.18125000000000568
                },
                {
                    "name": "G#2",
                    "midi": 44,
                    "time": 19.87499999999999,
                    "velocity": 0.84251968503937,
                    "duration": 0.1979166666666714
                },
                {
                    "name": "B4",
                    "midi": 71,
                    "time": 20.299999999999994,
                    "velocity": 0.8740157480314961,
                    "duration": 0.5020833333333421
                },
                {
                    "name": "G#4",
                    "midi": 68,
                    "time": 20.30208333333333,
                    "velocity": 0.8503937007874016,
                    "duration": 0.510416666666675
                },
                {
                    "name": "D#4",
                    "midi": 63,
                    "time": 20.304166666666664,
                    "velocity": 0.8976377952755905,
                    "duration": 0.48750000000000426
                },
                {
                    "name": "G#3",
                    "midi": 56,
                    "time": 20.310416666666665,
                    "velocity": 0.8976377952755905,
                    "duration": 0.4979166666666721
                },
                {
                    "name": "D#3",
                    "midi": 51,
                    "time": 20.741666666666667,
                    "velocity": 0.8346456692913385,
                    "duration": 0.12500000000000355
                },
                {
                    "name": "G#2",
                    "midi": 44,
                    "time": 20.74791666666667,
                    "velocity": 0.7952755905511811,
                    "duration": 0.158333333333335
                },
                {
                    "name": "C#5",
                    "midi": 73,
                    "time": 21.189583333333335,
                    "velocity": 0.937007874015748,
                    "duration": 1.0354166666666735
                },
                {
                    "name": "F4",
                    "midi": 65,
                    "time": 21.197916666666668,
                    "velocity": 0.8818897637795275,
                    "duration": 0.9958333333333407
                },
                {
                    "name": "G#4",
                    "midi": 68,
                    "time": 21.20625,
                    "velocity": 0.8582677165354331,
                    "duration": 1.002083333333342
                },
                {
                    "name": "G#2",
                    "midi": 44,
                    "time": 21.639583333333334,
                    "velocity": 0.8661417322834646,
                    "duration": 0.05416666666667069
                },
                {
                    "name": "C#2",
                    "midi": 37,
                    "time": 21.645833333333336,
                    "velocity": 0.8661417322834646,
                    "duration": 0.05416666666667069
                },
                {
                    "name": "G#3",
                    "midi": 56,
                    "time": 22.141666666666673,
                    "velocity": 0.8267716535433071,
                    "duration": 0.06666666666666998
                },
                {
                    "name": "C#3",
                    "midi": 49,
                    "time": 22.156250000000007,
                    "velocity": 0.7480314960629921,
                    "duration": 0.03750000000000142
                },
                {
                    "name": "F#5",
                    "midi": 78,
                    "time": 22.76250000000001,
                    "velocity": 0.84251968503937,
                    "duration": 0.537500000000005
                },
                {
                    "name": "B4",
                    "midi": 71,
                    "time": 22.772916666666678,
                    "velocity": 0.7559055118110236,
                    "duration": 0.28125000000000355
                },
                {
                    "name": "D5",
                    "midi": 74,
                    "time": 22.775000000000013,
                    "velocity": 0.7165354330708661,
                    "duration": 0.24583333333333357
                },
                {
                    "name": "F5",
                    "midi": 77,
                    "time": 22.777083333333348,
                    "velocity": 0.7874015748031497,
                    "duration": 0.4312499999999986
                },
                {
                    "name": "A4",
                    "midi": 69,
                    "time": 23.233333333333345,
                    "velocity": 0.7165354330708661,
                    "duration": 0.07708333333333783
                },
                {
                    "name": "C#5",
                    "midi": 73,
                    "time": 23.23541666666668,
                    "velocity": 0.7795275590551181,
                    "duration": 0.09583333333333499
                },
                {
                    "name": "F#5",
                    "midi": 78,
                    "time": 23.662500000000016,
                    "velocity": 0.7559055118110236,
                    "duration": 0.5250000000000092
                },
                {
                    "name": "G#4",
                    "midi": 68,
                    "time": 23.666666666666682,
                    "velocity": 0.7637795275590551,
                    "duration": 0.33750000000000213
                },
                {
                    "name": "D5",
                    "midi": 74,
                    "time": 23.675000000000015,
                    "velocity": 0.6614173228346457,
                    "duration": 0.4541666666666764
                },
                {
                    "name": "B4",
                    "midi": 71,
                    "time": 23.675000000000015,
                    "velocity": 0.6535433070866141,
                    "duration": 0.14375000000000426
                },
                {
                    "name": "C#5",
                    "midi": 73,
                    "time": 24.110416666666687,
                    "velocity": 0.6299212598425197,
                    "duration": 0.14166666666667282
                },
                {
                    "name": "F#4",
                    "midi": 66,
                    "time": 24.114583333333353,
                    "velocity": 0.8661417322834646,
                    "duration": 0.7416666666666742
                },
                {
                    "name": "A4",
                    "midi": 69,
                    "time": 24.12291666666669,
                    "velocity": 0.5984251968503937,
                    "duration": 0.16875000000000284
                },
                {
                    "name": "A5",
                    "midi": 81,
                    "time": 24.575000000000028,
                    "velocity": 0.889763779527559,
                    "duration": 0.34791666666666643
                },
                {
                    "name": "B3",
                    "midi": 59,
                    "time": 24.997916666666693,
                    "velocity": 0.6850393700787402,
                    "duration": 0.3958333333333357
                },
                {
                    "name": "A4",
                    "midi": 69,
                    "time": 25.010416666666693,
                    "velocity": 0.6377952755905512,
                    "duration": 0.12916666666666643
                },
                {
                    "name": "D5",
                    "midi": 74,
                    "time": 25.01458333333336,
                    "velocity": 0.7086614173228346,
                    "duration": 0.27500000000000213
                },
                {
                    "name": "G#5",
                    "midi": 80,
                    "time": 25.193750000000026,
                    "velocity": 0.7952755905511811,
                    "duration": 0.16666666666666785
                },
                {
                    "name": "D5",
                    "midi": 74,
                    "time": 25.391666666666694,
                    "velocity": 0.7086614173228346,
                    "duration": 0.14166666666666572
                },
                {
                    "name": "F#5",
                    "midi": 78,
                    "time": 25.39375000000003,
                    "velocity": 0.7165354330708661,
                    "duration": 0.25
                },
                {
                    "name": "E4",
                    "midi": 64,
                    "time": 25.397916666666696,
                    "velocity": 0.6929133858267716,
                    "duration": 0.40625000000000355
                },
                {
                    "name": "G#4",
                    "midi": 68,
                    "time": 25.404166666666697,
                    "velocity": 0.7322834645669292,
                    "duration": 0.2291666666666643
                },
                {
                    "name": "E5",
                    "midi": 76,
                    "time": 25.568750000000026,
                    "velocity": 0.7086614173228346,
                    "duration": 0.28125000000001066
                },
                {
                    "name": "F#3",
                    "midi": 54,
                    "time": 25.770833333333364,
                    "velocity": 0.8346456692913385,
                    "duration": 0.06875000000000497
                },
                {
                    "name": "F#5",
                    "midi": 78,
                    "time": 25.783333333333363,
                    "velocity": 0.7637795275590551,
                    "duration": 0.22500000000000853
                },
                {
                    "name": "A4",
                    "midi": 69,
                    "time": 25.79375000000003,
                    "velocity": 0.5590551181102362,
                    "duration": 0.12291666666667211
                },
                {
                    "name": "C#5",
                    "midi": 73,
                    "time": 25.806250000000034,
                    "velocity": 0.6220472440944882,
                    "duration": 0.20000000000000284
                },
                {
                    "name": "G#5",
                    "midi": 80,
                    "time": 25.95833333333337,
                    "velocity": 0.7716535433070866,
                    "duration": 0.13541666666666785
                },
                {
                    "name": "D4",
                    "midi": 62,
                    "time": 26.166666666666707,
                    "velocity": 0.5905511811023622,
                    "duration": 0.09583333333333144
                },
                {
                    "name": "B3",
                    "midi": 59,
                    "time": 26.166666666666707,
                    "velocity": 0.5196850393700787,
                    "duration": 0.10833333333333073
                },
                {
                    "name": "A5",
                    "midi": 81,
                    "time": 26.166666666666707,
                    "velocity": 0.8031496062992126,
                    "duration": 0.09583333333333144
                },
                {
                    "name": "F4",
                    "midi": 65,
                    "time": 26.17500000000004,
                    "velocity": 0.6220472440944882,
                    "duration": 0.06666666666666643
                },
                {
                    "name": "F#4",
                    "midi": 66,
                    "time": 26.179166666666706,
                    "velocity": 0.6220472440944882,
                    "duration": 0.11041666666666572
                },
                {
                    "name": "B5",
                    "midi": 83,
                    "time": 26.34583333333337,
                    "velocity": 0.7086614173228346,
                    "duration": 0.08749999999999858
                },
                {
                    "name": "A3",
                    "midi": 57,
                    "time": 26.552083333333368,
                    "velocity": 0.5433070866141733,
                    "duration": 0.08958333333333357
                },
                {
                    "name": "F#4",
                    "midi": 66,
                    "time": 26.552083333333368,
                    "velocity": 0.7874015748031497,
                    "duration": 0.08333333333333215
                },
                {
                    "name": "C#6",
                    "midi": 85,
                    "time": 26.554166666666703,
                    "velocity": 0.8661417322834646,
                    "duration": 0.07499999999999574
                },
                {
                    "name": "C#4",
                    "midi": 61,
                    "time": 26.554166666666703,
                    "velocity": 0.7637795275590551,
                    "duration": 0.0708333333333293
                },
                {
                    "name": "F#4",
                    "midi": 66,
                    "time": 26.989583333333368,
                    "velocity": 0.7874015748031497,
                    "duration": 0.6562500000000071
                },
                {
                    "name": "B3",
                    "midi": 59,
                    "time": 26.991666666666703,
                    "velocity": 0.6535433070866141,
                    "duration": 0.2375000000000007
                },
                {
                    "name": "C#6",
                    "midi": 85,
                    "time": 26.997916666666704,
                    "velocity": 0.84251968503937,
                    "duration": 0.6979166666666714
                },
                {
                    "name": "G#3",
                    "midi": 56,
                    "time": 27.00208333333337,
                    "velocity": 0.6220472440944882,
                    "duration": 0.2312499999999993
                },
                {
                    "name": "D4",
                    "midi": 62,
                    "time": 27.01458333333337,
                    "velocity": 0.6220472440944882,
                    "duration": 0.16666666666666785
                },
                {
                    "name": "F#3",
                    "midi": 54,
                    "time": 27.45208333333337,
                    "velocity": 0.6299212598425197,
                    "duration": 0.15625000000000355
                },
                {
                    "name": "C#4",
                    "midi": 61,
                    "time": 27.45833333333337,
                    "velocity": 0.5984251968503937,
                    "duration": 0.1645833333333364
                },
                {
                    "name": "A3",
                    "midi": 57,
                    "time": 27.460416666666706,
                    "velocity": 0.3464566929133858,
                    "duration": 0.14583333333333215
                },
                {
                    "name": "A5",
                    "midi": 81,
                    "time": 27.654166666666708,
                    "velocity": 0.6062992125984252,
                    "duration": 0.25416666666667
                },
                {
                    "name": "F#5",
                    "midi": 78,
                    "time": 27.870833333333376,
                    "velocity": 0.6929133858267716,
                    "duration": 0.24583333333333357
                },
                {
                    "name": "A4",
                    "midi": 69,
                    "time": 27.875000000000043,
                    "velocity": 0.6771653543307087,
                    "duration": 0.5000000000000036
                },
                {
                    "name": "C#5",
                    "midi": 73,
                    "time": 28.064583333333378,
                    "velocity": 0.6456692913385826,
                    "duration": 0.1875
                },
                {
                    "name": "D4",
                    "midi": 62,
                    "time": 28.295833333333377,
                    "velocity": 0.4330708661417323,
                    "duration": 0.21250000000000568
                },
                {
                    "name": "D5",
                    "midi": 74,
                    "time": 28.297916666666712,
                    "velocity": 0.5590551181102362,
                    "duration": 1.0062499999999979
                },
                {
                    "name": "B3",
                    "midi": 59,
                    "time": 28.312500000000046,
                    "velocity": 0.3779527559055118,
                    "duration": 0.9020833333333336
                },
                {
                    "name": "G#4",
                    "midi": 68,
                    "time": 28.529166666666715,
                    "velocity": 0.6850393700787402,
                    "duration": 0.24166666666666714
                },
                {
                    "name": "F#4",
                    "midi": 66,
                    "time": 28.727083333333383,
                    "velocity": 0.6220472440944882,
                    "duration": 0.14166666666666572
                },
                {
                    "name": "E4",
                    "midi": 64,
                    "time": 28.879166666666716,
                    "velocity": 0.5905511811023622,
                    "duration": 0.2666666666666657
                },
                {
                    "name": "F#4",
                    "midi": 66,
                    "time": 29.110416666666715,
                    "velocity": 0.7322834645669292,
                    "duration": 0.11249999999999716
                },
                {
                    "name": "E5",
                    "midi": 76,
                    "time": 29.27916666666671,
                    "velocity": 0.6299212598425197,
                    "duration": 0.23541666666666927
                },
                {
                    "name": "G#4",
                    "midi": 68,
                    "time": 29.49791666666671,
                    "velocity": 0.5905511811023622,
                    "duration": 0.0833333333333357
                },
                {
                    "name": "F#5",
                    "midi": 78,
                    "time": 29.504166666666713,
                    "velocity": 0.6456692913385826,
                    "duration": 0.24375000000000213
                },
                {
                    "name": "G#5",
                    "midi": 80,
                    "time": 29.68958333333338,
                    "velocity": 0.7165354330708661,
                    "duration": 0.21041666666666714
                },
                {
                    "name": "B5",
                    "midi": 83,
                    "time": 29.893750000000047,
                    "velocity": 0.5590551181102362,
                    "duration": 0.17291666666666927
                },
                {
                    "name": "E3",
                    "midi": 52,
                    "time": 29.90000000000005,
                    "velocity": 0.6141732283464567,
                    "duration": 0.0625
                },
                {
                    "name": "D4",
                    "midi": 62,
                    "time": 29.90833333333338,
                    "velocity": 0.5354330708661418,
                    "duration": 0.06875000000000142
                },
                {
                    "name": "G#5",
                    "midi": 80,
                    "time": 30.077083333333384,
                    "velocity": 0.5669291338582677,
                    "duration": 0.22708333333333286
                },
                {
                    "name": "E5",
                    "midi": 76,
                    "time": 30.30000000000005,
                    "velocity": 0.6220472440944882,
                    "duration": 0.14999999999999858
                },
                {
                    "name": "G#4",
                    "midi": 68,
                    "time": 30.31250000000005,
                    "velocity": 0.5196850393700787,
                    "duration": 0.4750000000000014
                },
                {
                    "name": "B4",
                    "midi": 71,
                    "time": 30.46875000000005,
                    "velocity": 0.6535433070866141,
                    "duration": 0.2291666666666714
                },
                {
                    "name": "A3",
                    "midi": 57,
                    "time": 30.679166666666717,
                    "velocity": 0.3779527559055118,
                    "duration": 1.0125000000000028
                },
                {
                    "name": "C#5",
                    "midi": 73,
                    "time": 30.689583333333385,
                    "velocity": 0.6929133858267716,
                    "duration": 0.91041666666667
                },
                {
                    "name": "C#4",
                    "midi": 61,
                    "time": 30.69166666666672,
                    "velocity": 0.5984251968503937,
                    "duration": 0.28333333333333144
                },
                {
                    "name": "F#4",
                    "midi": 66,
                    "time": 30.90625000000005,
                    "velocity": 0.6220472440944882,
                    "duration": 0.21250000000000213
                },
                {
                    "name": "E4",
                    "midi": 64,
                    "time": 31.118750000000052,
                    "velocity": 0.5511811023622047,
                    "duration": 0.1750000000000007
                },
                {
                    "name": "D4",
                    "midi": 62,
                    "time": 31.300000000000054,
                    "velocity": 0.5590551181102362,
                    "duration": 0.23125000000000284
                },
                {
                    "name": "E4",
                    "midi": 64,
                    "time": 31.52083333333339,
                    "velocity": 0.5039370078740157,
                    "duration": 0.08541666666666714
                },
                {
                    "name": "D5",
                    "midi": 74,
                    "time": 31.662500000000055,
                    "velocity": 0.6377952755905512,
                    "duration": 0.22083333333333144
                },
                {
                    "name": "F#4",
                    "midi": 66,
                    "time": 31.88125000000005,
                    "velocity": 0.7401574803149606,
                    "duration": 0.06875000000000142
                },
                {
                    "name": "E5",
                    "midi": 76,
                    "time": 31.889583333333388,
                    "velocity": 0.6535433070866141,
                    "duration": 0.185416666666665
                },
                {
                    "name": "F#5",
                    "midi": 78,
                    "time": 32.05833333333339,
                    "velocity": 0.6614173228346457,
                    "duration": 0.20624999999999716
                },
                {
                    "name": "D3",
                    "midi": 50,
                    "time": 32.26041666666672,
                    "velocity": 0.5905511811023622,
                    "duration": 0.06458333333333144
                },
                {
                    "name": "A5",
                    "midi": 81,
                    "time": 32.26250000000005,
                    "velocity": 0.5354330708661418,
                    "duration": 0.15625
                },
                {
                    "name": "C#4",
                    "midi": 61,
                    "time": 32.28125000000005,
                    "velocity": 0.4251968503937008,
                    "duration": 0.04375000000000284
                },
                {
                    "name": "F#5",
                    "midi": 78,
                    "time": 32.43333333333339,
                    "velocity": 0.6220472440944882,
                    "duration": 0.24583333333333002
                },
                {
                    "name": "F#4",
                    "midi": 66,
                    "time": 32.643750000000054,
                    "velocity": 0.7952755905511811,
                    "duration": 0.48749999999998295
                },
                {
                    "name": "D5",
                    "midi": 74,
                    "time": 32.66041666666672,
                    "velocity": 0.5669291338582677,
                    "duration": 0.1729166666666586
                },
                {
                    "name": "A4",
                    "midi": 69,
                    "time": 32.82916666666671,
                    "velocity": 0.5590551181102362,
                    "duration": 0.22500000000000142
                },
                {
                    "name": "B4",
                    "midi": 71,
                    "time": 33.04583333333338,
                    "velocity": 0.6535433070866141,
                    "duration": 0.5104166666666714
                },
                {
                    "name": "G#3",
                    "midi": 56,
                    "time": 33.04791666666671,
                    "velocity": 0.2992125984251969,
                    "duration": 0.7916666666666785
                },
                {
                    "name": "B3",
                    "midi": 59,
                    "time": 33.05416666666671,
                    "velocity": 0.49606299212598426,
                    "duration": 0.1979166666666643
                },
                {
                    "name": "E4",
                    "midi": 64,
                    "time": 33.24583333333337,
                    "velocity": 0.5984251968503937,
                    "duration": 0.21041666666667425
                },
                {
                    "name": "D4",
                    "midi": 62,
                    "time": 33.443750000000044,
                    "velocity": 0.5511811023622047,
                    "duration": 0.18333333333333712
                },
                {
                    "name": "C#4",
                    "midi": 61,
                    "time": 33.608333333333384,
                    "velocity": 0.6692913385826772,
                    "duration": 0.19583333333333286
                },
                {
                    "name": "D4",
                    "midi": 62,
                    "time": 33.83958333333339,
                    "velocity": 0.7244094488188977,
                    "duration": 0.08749999999999858
                },
                {
                    "name": "G#4",
                    "midi": 68,
                    "time": 34.014583333333384,
                    "velocity": 0.7559055118110236,
                    "duration": 0.13750000000000284
                },
                {
                    "name": "D4",
                    "midi": 62,
                    "time": 34.202083333333384,
                    "velocity": 0.7716535433070866,
                    "duration": 0.04791666666666572
                },
                {
                    "name": "D3",
                    "midi": 50,
                    "time": 34.21666666666672,
                    "velocity": 0.6377952755905512,
                    "duration": 0.05833333333333002
                },
                {
                    "name": "A4",
                    "midi": 69,
                    "time": 34.22708333333338,
                    "velocity": 0.6535433070866141,
                    "duration": 0.1145833333333357
                },
                {
                    "name": "C#4",
                    "midi": 61,
                    "time": 34.22708333333338,
                    "velocity": 0.7322834645669292,
                    "duration": 0.0833333333333357
                },
                {
                    "name": "F#4",
                    "midi": 66,
                    "time": 34.233333333333384,
                    "velocity": 0.6614173228346457,
                    "duration": 0.20208333333333428
                },
                {
                    "name": "B4",
                    "midi": 71,
                    "time": 34.38750000000005,
                    "velocity": 0.7874015748031497,
                    "duration": 0.11249999999999716
                },
                {
                    "name": "E2",
                    "midi": 40,
                    "time": 34.58541666666672,
                    "velocity": 0.6929133858267716,
                    "duration": 0.0416666666666643
                },
                {
                    "name": "E3",
                    "midi": 52,
                    "time": 34.60000000000005,
                    "velocity": 0.5196850393700787,
                    "duration": 0.0416666666666643
                },
                {
                    "name": "C#4",
                    "midi": 61,
                    "time": 34.60625000000005,
                    "velocity": 0.8661417322834646,
                    "duration": 0.031249999999992895
                },
                {
                    "name": "C#5",
                    "midi": 73,
                    "time": 34.608333333333384,
                    "velocity": 0.8818897637795275,
                    "duration": 0.11874999999999858
                },
                {
                    "name": "G#4",
                    "midi": 68,
                    "time": 34.61666666666672,
                    "velocity": 0.7401574803149606,
                    "duration": 0.05416666666666714
                },
                {
                    "name": "B4",
                    "midi": 71,
                    "time": 34.83125000000005,
                    "velocity": 0.7244094488188977,
                    "duration": 0.2395833333333286
                },
                {
                    "name": "C#5",
                    "midi": 73,
                    "time": 35.01666666666671,
                    "velocity": 0.7559055118110236,
                    "duration": 0.17291666666666572
                },
                {
                    "name": "D5",
                    "midi": 74,
                    "time": 35.19791666666671,
                    "velocity": 0.6771653543307087,
                    "duration": 0.19166666666666998
                },
                {
                    "name": "E5",
                    "midi": 76,
                    "time": 35.39583333333338,
                    "velocity": 0.7874015748031497,
                    "duration": 0.13125000000000853
                },
                {
                    "name": "D5",
                    "midi": 74,
                    "time": 35.583333333333385,
                    "velocity": 0.7165354330708661,
                    "duration": 0.15833333333333144
                },
                {
                    "name": "C#5",
                    "midi": 73,
                    "time": 35.60000000000005,
                    "velocity": 0.8267716535433071,
                    "duration": 0.11041666666666572
                },
                {
                    "name": "A4",
                    "midi": 69,
                    "time": 35.612500000000054,
                    "velocity": 0.6692913385826772,
                    "duration": 0.13124999999999432
                },
                {
                    "name": "E5",
                    "midi": 76,
                    "time": 35.797916666666715,
                    "velocity": 0.84251968503937,
                    "duration": 0.10833333333333428
                },
                {
                    "name": "B4",
                    "midi": 71,
                    "time": 35.81041666666672,
                    "velocity": 0.7086614173228346,
                    "duration": 0.1145833333333286
                },
                {
                    "name": "G#4",
                    "midi": 68,
                    "time": 35.81250000000005,
                    "velocity": 0.7480314960629921,
                    "duration": 0.15416666666666146
                },
                {
                    "name": "F#5",
                    "midi": 78,
                    "time": 35.95833333333338,
                    "velocity": 0.8503937007874016,
                    "duration": 0.11874999999999858
                },
                {
                    "name": "A4",
                    "midi": 69,
                    "time": 35.97291666666671,
                    "velocity": 0.7165354330708661,
                    "duration": 0.19583333333332575
                },
                {
                    "name": "F#4",
                    "midi": 66,
                    "time": 35.975000000000044,
                    "velocity": 0.7637795275590551,
                    "duration": 0.16041666666666288
                },
                {
                    "name": "G#4",
                    "midi": 68,
                    "time": 36.16250000000004,
                    "velocity": 0.7480314960629921,
                    "duration": 0.08958333333333712
                },
                {
                    "name": "G#5",
                    "midi": 80,
                    "time": 36.16666666666671,
                    "velocity": 0.8661417322834646,
                    "duration": 0.11041666666666572
                },
                {
                    "name": "E4",
                    "midi": 64,
                    "time": 36.17500000000004,
                    "velocity": 0.5748031496062992,
                    "duration": 0.1041666666666643
                },
                {
                    "name": "C#5",
                    "midi": 73,
                    "time": 36.18750000000004,
                    "velocity": 0.7244094488188977,
                    "duration": 0.03958333333333286
                },
                {
                    "name": "F#4",
                    "midi": 66,
                    "time": 36.20416666666671,
                    "velocity": 0.25984251968503935,
                    "duration": 0.03750000000000142
                },
                {
                    "name": "G#5",
                    "midi": 80,
                    "time": 36.35416666666671,
                    "velocity": 0.7874015748031497,
                    "duration": 0.12916666666666998
                },
                {
                    "name": "D5",
                    "midi": 74,
                    "time": 36.56666666666671,
                    "velocity": 0.7795275590551181,
                    "duration": 0.03541666666666288
                },
                {
                    "name": "D4",
                    "midi": 62,
                    "time": 36.568750000000044,
                    "velocity": 0.7086614173228346,
                    "duration": 0.07083333333333286
                },
                {
                    "name": "A5",
                    "midi": 81,
                    "time": 36.568750000000044,
                    "velocity": 0.8188976377952756,
                    "duration": 0.08125000000000426
                },
                {
                    "name": "C#5",
                    "midi": 73,
                    "time": 36.59166666666671,
                    "velocity": 0.7244094488188977,
                    "duration": 0.03125
                },
                {
                    "name": "F#5",
                    "midi": 78,
                    "time": 36.606250000000045,
                    "velocity": 0.5984251968503937,
                    "duration": 0.03958333333333286
                },
                {
                    "name": "B5",
                    "midi": 83,
                    "time": 36.75208333333338,
                    "velocity": 0.6062992125984252,
                    "duration": 0.08958333333333712
                },
                {
                    "name": "A5",
                    "midi": 81,
                    "time": 36.75625000000005,
                    "velocity": 0.6062992125984252,
                    "duration": 0.0729166666666643
                },
                {
                    "name": "E3",
                    "midi": 52,
                    "time": 36.93541666666672,
                    "velocity": 0.7322834645669292,
                    "duration": 0.041666666666671404
                },
                {
                    "name": "E4",
                    "midi": 64,
                    "time": 36.956250000000054,
                    "velocity": 0.3858267716535433,
                    "duration": 0.0520833333333357
                },
                {
                    "name": "G#5",
                    "midi": 80,
                    "time": 36.962500000000055,
                    "velocity": 0.8818897637795275,
                    "duration": 0.07708333333333428
                },
                {
                    "name": "C#6",
                    "midi": 85,
                    "time": 36.962500000000055,
                    "velocity": 0.905511811023622,
                    "duration": 0.11041666666666572
                },
                {
                    "name": "C#5",
                    "midi": 73,
                    "time": 36.96458333333339,
                    "velocity": 0.8976377952755905,
                    "duration": 0.033333333333338544
                },
                {
                    "name": "B5",
                    "midi": 83,
                    "time": 37.18750000000006,
                    "velocity": 0.7007874015748031,
                    "duration": 0.14791666666666714
                },
                {
                    "name": "C#6",
                    "midi": 85,
                    "time": 37.37708333333339,
                    "velocity": 0.84251968503937,
                    "duration": 0.1354166666666572
                },
                {
                    "name": "D6",
                    "midi": 86,
                    "time": 37.56250000000004,
                    "velocity": 0.7952755905511811,
                    "duration": 0.12916666666666998
                },
                {
                    "name": "E6",
                    "midi": 88,
                    "time": 37.76458333333338,
                    "velocity": 0.8582677165354331,
                    "duration": 0.09375
                },
                {
                    "name": "D6",
                    "midi": 86,
                    "time": 37.945833333333375,
                    "velocity": 0.889763779527559,
                    "duration": 0.14166666666666572
                },
                {
                    "name": "C#6",
                    "midi": 85,
                    "time": 37.94791666666671,
                    "velocity": 0.8346456692913385,
                    "duration": 0.11041666666666572
                },
                {
                    "name": "A5",
                    "midi": 81,
                    "time": 37.95625000000004,
                    "velocity": 0.7086614173228346,
                    "duration": 0.10833333333333428
                },
                {
                    "name": "E6",
                    "midi": 88,
                    "time": 38.133333333333375,
                    "velocity": 0.8110236220472441,
                    "duration": 0.09166666666666856
                },
                {
                    "name": "B5",
                    "midi": 83,
                    "time": 38.13958333333338,
                    "velocity": 0.7007874015748031,
                    "duration": 0.10833333333333428
                },
                {
                    "name": "G#5",
                    "midi": 80,
                    "time": 38.14791666666671,
                    "velocity": 0.7322834645669292,
                    "duration": 0.1145833333333357
                },
                {
                    "name": "A5",
                    "midi": 81,
                    "time": 38.31666666666671,
                    "velocity": 0.6929133858267716,
                    "duration": 0.13958333333332718
                },
                {
                    "name": "F#5",
                    "midi": 78,
                    "time": 38.31666666666671,
                    "velocity": 0.7244094488188977,
                    "duration": 0.16041666666666288
                },
                {
                    "name": "F#6",
                    "midi": 90,
                    "time": 38.318750000000044,
                    "velocity": 0.889763779527559,
                    "duration": 0.1354166666666643
                },
                {
                    "name": "C#6",
                    "midi": 85,
                    "time": 38.33125000000005,
                    "velocity": 0.7480314960629921,
                    "duration": 0.04999999999999716
                },
                {
                    "name": "E5",
                    "midi": 76,
                    "time": 38.53750000000004,
                    "velocity": 0.7401574803149606,
                    "duration": 0.06875000000000142
                },
                {
                    "name": "G#5",
                    "midi": 80,
                    "time": 38.53958333333337,
                    "velocity": 0.7952755905511811,
                    "duration": 0.0416666666666643
                },
                {
                    "name": "G#6",
                    "midi": 92,
                    "time": 38.5416666666667,
                    "velocity": 0.9133858267716536,
                    "duration": 0.06041666666666856
                },
                {
                    "name": "C#5",
                    "midi": 73,
                    "time": 38.9979166666667,
                    "velocity": 0.905511811023622,
                    "duration": 0.11874999999999858
                },
                {
                    "name": "F#3",
                    "midi": 54,
                    "time": 39.00208333333337,
                    "velocity": 0.9133858267716536,
                    "duration": 0.06666666666666998
                },
                {
                    "name": "A4",
                    "midi": 69,
                    "time": 39.00625000000004,
                    "velocity": 0.7874015748031497,
                    "duration": 0.09166666666666146
                },
                {
                    "name": "D#4",
                    "midi": 63,
                    "time": 39.01041666666671,
                    "velocity": 0.9133858267716536,
                    "duration": 0.060416666666661456
                },
                {
                    "name": "G#3",
                    "midi": 56,
                    "time": 39.4729166666667,
                    "velocity": 0.905511811023622,
                    "duration": 0.4833333333333343
                },
                {
                    "name": "C#5",
                    "midi": 73,
                    "time": 39.47500000000003,
                    "velocity": 0.905511811023622,
                    "duration": 0.43541666666666856
                },
                {
                    "name": "G#4",
                    "midi": 68,
                    "time": 39.4791666666667,
                    "velocity": 0.9133858267716536,
                    "duration": 0.4541666666666657
                },
                {
                    "name": "D#4",
                    "midi": 63,
                    "time": 39.4791666666667,
                    "velocity": 0.9763779527559056,
                    "duration": 0.4437500000000014
                },
                {
                    "name": "D#3",
                    "midi": 51,
                    "time": 39.95000000000003,
                    "velocity": 0.8661417322834646,
                    "duration": 0.06666666666666998
                },
                {
                    "name": "G#2",
                    "midi": 44,
                    "time": 39.9604166666667,
                    "velocity": 0.8582677165354331,
                    "duration": 0.09583333333333144
                },
                {
                    "name": "B4",
                    "midi": 71,
                    "time": 40.379166666666706,
                    "velocity": 0.8976377952755905,
                    "duration": 0.47291666666667
                },
                {
                    "name": "D#4",
                    "midi": 63,
                    "time": 40.383333333333375,
                    "velocity": 0.937007874015748,
                    "duration": 0.45624999999999716
                },
                {
                    "name": "G#3",
                    "midi": 56,
                    "time": 40.383333333333375,
                    "velocity": 0.9133858267716536,
                    "duration": 0.33124999999999716
                },
                {
                    "name": "G#4",
                    "midi": 68,
                    "time": 40.38541666666671,
                    "velocity": 0.8503937007874016,
                    "duration": 0.47291666666667
                },
                {
                    "name": "D#3",
                    "midi": 51,
                    "time": 40.82291666666671,
                    "velocity": 0.8110236220472441,
                    "duration": 0.02916666666666856
                },
                {
                    "name": "G#2",
                    "midi": 44,
                    "time": 40.82291666666671,
                    "velocity": 0.8503937007874016,
                    "duration": 0.0625
                },
                {
                    "name": "C#5",
                    "midi": 73,
                    "time": 41.247916666666704,
                    "velocity": 0.937007874015748,
                    "duration": 1.1395833333333272
                },
                {
                    "name": "F4",
                    "midi": 65,
                    "time": 41.254166666666706,
                    "velocity": 0.8976377952755905,
                    "duration": 1.1312499999999943
                },
                {
                    "name": "G#4",
                    "midi": 68,
                    "time": 41.25625000000004,
                    "velocity": 0.8818897637795275,
                    "duration": 1.1291666666666629
                },
                {
                    "name": "G#2",
                    "midi": 44,
                    "time": 41.68958333333337,
                    "velocity": 0.8503937007874016,
                    "duration": 0.05624999999999858
                },
                {
                    "name": "C#2",
                    "midi": 37,
                    "time": 41.69583333333337,
                    "velocity": 0.8818897637795275,
                    "duration": 0.05833333333333002
                },
                {
                    "name": "G#3",
                    "midi": 56,
                    "time": 42.16458333333337,
                    "velocity": 0.84251968503937,
                    "duration": 0.05833333333333002
                },
                {
                    "name": "C#3",
                    "midi": 49,
                    "time": 42.17500000000003,
                    "velocity": 0.7716535433070866,
                    "duration": 0.03958333333333286
                },
                {
                    "name": "C#3",
                    "midi": 49,
                    "time": 42.73125000000003,
                    "velocity": 0.8582677165354331,
                    "duration": 0.5229166666666814
                },
                {
                    "name": "F#2",
                    "midi": 42,
                    "time": 42.73750000000003,
                    "velocity": 0.7559055118110236,
                    "duration": 0.2916666666666714
                },
                {
                    "name": "C3",
                    "midi": 48,
                    "time": 42.7416666666667,
                    "velocity": 0.7637795275590551,
                    "duration": 0.18125000000000568
                },
                {
                    "name": "A2",
                    "midi": 45,
                    "time": 42.74583333333337,
                    "velocity": 0.6692913385826772,
                    "duration": 0.22708333333333286
                },
                {
                    "name": "G#2",
                    "midi": 44,
                    "time": 43.16875000000004,
                    "velocity": 0.7401574803149606,
                    "duration": 0.08125000000000426
                },
                {
                    "name": "E2",
                    "midi": 40,
                    "time": 43.17291666666671,
                    "velocity": 0.6692913385826772,
                    "duration": 0.0729166666666643
                },
                {
                    "name": "C#3",
                    "midi": 49,
                    "time": 43.62500000000004,
                    "velocity": 0.8661417322834646,
                    "duration": 0.6979166666666714
                },
                {
                    "name": "F#2",
                    "midi": 42,
                    "time": 43.633333333333375,
                    "velocity": 0.6929133858267716,
                    "duration": 0.3375000000000057
                },
                {
                    "name": "D#2",
                    "midi": 39,
                    "time": 43.637500000000045,
                    "velocity": 0.7795275590551181,
                    "duration": 0.30000000000000426
                },
                {
                    "name": "A2",
                    "midi": 45,
                    "time": 43.637500000000045,
                    "velocity": 0.7086614173228346,
                    "duration": 0.23333333333333428
                },
                {
                    "name": "G#2",
                    "midi": 44,
                    "time": 44.08333333333338,
                    "velocity": 0.7244094488188977,
                    "duration": 0.17083333333333428
                },
                {
                    "name": "E2",
                    "midi": 40,
                    "time": 44.08541666666671,
                    "velocity": 0.6692913385826772,
                    "duration": 0.16250000000000142
                },
                {
                    "name": "C#2",
                    "midi": 37,
                    "time": 44.102083333333375,
                    "velocity": 0.7952755905511811,
                    "duration": 0.15833333333333854
                },
                {
                    "name": "E3",
                    "midi": 52,
                    "time": 44.52916666666671,
                    "velocity": 0.7952755905511811,
                    "duration": 0.6770833333333286
                },
                {
                    "name": "F#2",
                    "midi": 42,
                    "time": 44.96666666666671,
                    "velocity": 0.6456692913385826,
                    "duration": 0.8041666666666671
                },
                {
                    "name": "A2",
                    "midi": 45,
                    "time": 44.977083333333375,
                    "velocity": 0.6062992125984252,
                    "duration": 0.37291666666666146
                },
                {
                    "name": "D#3",
                    "midi": 51,
                    "time": 45.160416666666706,
                    "velocity": 0.7401574803149606,
                    "duration": 0.21458333333333002
                },
                {
                    "name": "E3",
                    "midi": 52,
                    "time": 45.379166666666706,
                    "velocity": 0.7007874015748031,
                    "duration": 0.22291666666666998
                },
                {
                    "name": "C#3",
                    "midi": 49,
                    "time": 45.38958333333337,
                    "velocity": 0.5511811023622047,
                    "duration": 0.09375
                },
                {
                    "name": "F#3",
                    "midi": 54,
                    "time": 45.55833333333337,
                    "velocity": 0.7086614173228346,
                    "duration": 0.2541666666666842
                },
                {
                    "name": "B2",
                    "midi": 47,
                    "time": 45.564583333333374,
                    "velocity": 0.6141732283464567,
                    "duration": 0.14791666666666714
                },
                {
                    "name": "D#3",
                    "midi": 51,
                    "time": 45.57291666666671,
                    "velocity": 0.6850393700787402,
                    "duration": 0.19166666666666998
                },
                {
                    "name": "B2",
                    "midi": 47,
                    "time": 45.78541666666671,
                    "velocity": 0.5748031496062992,
                    "duration": 0.829166666666687
                },
                {
                    "name": "G#3",
                    "midi": 56,
                    "time": 45.791666666666714,
                    "velocity": 0.7244094488188977,
                    "duration": 0.15416666666667567
                },
                {
                    "name": "E3",
                    "midi": 52,
                    "time": 45.795833333333384,
                    "velocity": 0.7007874015748031,
                    "duration": 0.2229166666666771
                },
                {
                    "name": "E2",
                    "midi": 40,
                    "time": 45.80833333333339,
                    "velocity": 0.5039370078740157,
                    "duration": 0.8062500000000128
                },
                {
                    "name": "F#3",
                    "midi": 54,
                    "time": 45.966666666666725,
                    "velocity": 0.7637795275590551,
                    "duration": 0.28958333333333286
                },
                {
                    "name": "D#3",
                    "midi": 51,
                    "time": 45.995833333333394,
                    "velocity": 0.6692913385826772,
                    "duration": 0.2562499999999943
                },
                {
                    "name": "G#3",
                    "midi": 56,
                    "time": 46.19375000000006,
                    "velocity": 0.7874015748031497,
                    "duration": 0.125
                },
                {
                    "name": "E3",
                    "midi": 52,
                    "time": 46.19583333333339,
                    "velocity": 0.7716535433070866,
                    "duration": 0.2291666666666714
                },
                {
                    "name": "A3",
                    "midi": 57,
                    "time": 46.36458333333339,
                    "velocity": 0.8031496062992126,
                    "duration": 0.13125000000000142
                },
                {
                    "name": "F#3",
                    "midi": 54,
                    "time": 46.38958333333339,
                    "velocity": 0.7952755905511811,
                    "duration": 0.11041666666667282
                },
                {
                    "name": "B3",
                    "midi": 59,
                    "time": 46.58750000000006,
                    "velocity": 0.7716535433070866,
                    "duration": 0.08125000000000426
                },
                {
                    "name": "E3",
                    "midi": 52,
                    "time": 46.59791666666673,
                    "velocity": 0.6614173228346457,
                    "duration": 0.07916666666667282
                },
                {
                    "name": "G#2",
                    "midi": 44,
                    "time": 46.6020833333334,
                    "velocity": 0.6929133858267716,
                    "duration": 0.1041666666666714
                },
                {
                    "name": "A2",
                    "midi": 45,
                    "time": 47.035416666666734,
                    "velocity": 0.6220472440944882,
                    "duration": 0.07499999999999574
                },
                {
                    "name": "F#2",
                    "midi": 42,
                    "time": 47.037500000000065,
                    "velocity": 0.7401574803149606,
                    "duration": 0.07083333333333286
                },
                {
                    "name": "E3",
                    "midi": 52,
                    "time": 47.0395833333334,
                    "velocity": 0.6850393700787402,
                    "duration": 0.08124999999999716
                },
                {
                    "name": "C#3",
                    "midi": 49,
                    "time": 47.05416666666673,
                    "velocity": 0.5826771653543307,
                    "duration": 0.03958333333333286
                },
                {
                    "name": "B2",
                    "midi": 47,
                    "time": 47.470833333333395,
                    "velocity": 0.6141732283464567,
                    "duration": 0.8874999999999957
                },
                {
                    "name": "E3",
                    "midi": 52,
                    "time": 47.48125000000006,
                    "velocity": 0.6456692913385826,
                    "duration": 0.40833333333333144
                },
                {
                    "name": "F#2",
                    "midi": 42,
                    "time": 47.48958333333339,
                    "velocity": 0.5511811023622047,
                    "duration": 0.6895833333333314
                },
                {
                    "name": "D#3",
                    "midi": 51,
                    "time": 47.904166666666725,
                    "velocity": 0.6456692913385826,
                    "duration": 0.38333333333333286
                },
                {
                    "name": "B1",
                    "midi": 35,
                    "time": 48.38125000000006,
                    "velocity": 0.6614173228346457,
                    "duration": 0.8958333333333286
                },
                {
                    "name": "D#3",
                    "midi": 51,
                    "time": 48.60416666666673,
                    "velocity": 0.7559055118110236,
                    "duration": 0.49166666666666003
                },
                {
                    "name": "B2",
                    "midi": 47,
                    "time": 48.8208333333334,
                    "velocity": 0.5984251968503937,
                    "duration": 0.9104166666666558
                },
                {
                    "name": "G#3",
                    "midi": 56,
                    "time": 48.83125000000006,
                    "velocity": 0.6771653543307087,
                    "duration": 0.23749999999999716
                },
                {
                    "name": "B3",
                    "midi": 59,
                    "time": 49.00416666666673,
                    "velocity": 0.7401574803149606,
                    "duration": 0.27708333333333
                },
                {
                    "name": "D#4",
                    "midi": 63,
                    "time": 49.22291666666672,
                    "velocity": 0.7795275590551181,
                    "duration": 0.23750000000000426
                },
                {
                    "name": "C#2",
                    "midi": 37,
                    "time": 49.22708333333339,
                    "velocity": 0.6771653543307087,
                    "duration": 0.5395833333333329
                },
                {
                    "name": "E3",
                    "midi": 52,
                    "time": 49.23541666666672,
                    "velocity": 0.5590551181102362,
                    "duration": 0.4208333333333343
                },
                {
                    "name": "C#4",
                    "midi": 61,
                    "time": 49.402083333333394,
                    "velocity": 0.8188976377952756,
                    "duration": 0.2812499999999929
                },
                {
                    "name": "B3",
                    "midi": 59,
                    "time": 49.60833333333339,
                    "velocity": 0.6850393700787402,
                    "duration": 0.24791666666666146
                },
                {
                    "name": "A#3",
                    "midi": 58,
                    "time": 49.79166666666672,
                    "velocity": 0.8267716535433071,
                    "duration": 0.13958333333333428
                },
                {
                    "name": "C#3",
                    "midi": 49,
                    "time": 50.00625000000006,
                    "velocity": 0.7559055118110236,
                    "duration": 0.8291666666666728
                },
                {
                    "name": "A#3",
                    "midi": 58,
                    "time": 50.022916666666724,
                    "velocity": 0.7322834645669292,
                    "duration": 0.6979166666666714
                },
                {
                    "name": "E2",
                    "midi": 40,
                    "time": 50.022916666666724,
                    "velocity": 0.6141732283464567,
                    "duration": 0.34583333333333854
                },
                {
                    "name": "G#3",
                    "midi": 56,
                    "time": 50.025000000000055,
                    "velocity": 0.7480314960629921,
                    "duration": 0.6687500000000028
                },
                {
                    "name": "B3",
                    "midi": 59,
                    "time": 50.4770833333334,
                    "velocity": 0.6535433070866141,
                    "duration": 0.2395833333333286
                },
                {
                    "name": "C#4",
                    "midi": 61,
                    "time": 50.62916666666673,
                    "velocity": 0.7795275590551181,
                    "duration": 0.20208333333333428
                },
                {
                    "name": "A#2",
                    "midi": 46,
                    "time": 50.875000000000064,
                    "velocity": 0.5511811023622047,
                    "duration": 0.17083333333333428
                },
                {
                    "name": "D#4",
                    "midi": 63,
                    "time": 50.877083333333395,
                    "velocity": 0.7086614173228346,
                    "duration": 0.3687500000000057
                },
                {
                    "name": "D#2",
                    "midi": 39,
                    "time": 50.88541666666673,
                    "velocity": 0.4881889763779528,
                    "duration": 0.12916666666666998
                },
                {
                    "name": "F#3",
                    "midi": 54,
                    "time": 50.8895833333334,
                    "velocity": 0.5590551181102362,
                    "duration": 0.22291666666666998
                },
                {
                    "name": "A#3",
                    "midi": 58,
                    "time": 51.352083333333404,
                    "velocity": 0.41732283464566927,
                    "duration": 0.3291666666666728
                },
                {
                    "name": "D#3",
                    "midi": 51,
                    "time": 51.356250000000074,
                    "velocity": 0.47244094488188976,
                    "duration": 0.20208333333333428
                },
                {
                    "name": "F#4",
                    "midi": 66,
                    "time": 51.84791666666674,
                    "velocity": 0.4015748031496063,
                    "duration": 0.21041666666666714
                },
                {
                    "name": "D#6",
                    "midi": 87,
                    "time": 52.24166666666674,
                    "velocity": 0.7086614173228346,
                    "duration": 0.07916666666667282
                },
                {
                    "name": "C#4",
                    "midi": 61,
                    "time": 52.25416666666674,
                    "velocity": 0.5275590551181102,
                    "duration": 0.0833333333333357
                },
                {
                    "name": "G#5",
                    "midi": 80,
                    "time": 52.25833333333341,
                    "velocity": 0.5511811023622047,
                    "duration": 0.0833333333333357
                },
                {
                    "name": "E5",
                    "midi": 76,
                    "time": 52.25833333333341,
                    "velocity": 0.3700787401574803,
                    "duration": 0.1395833333333414
                },
                {
                    "name": "B4",
                    "midi": 71,
                    "time": 52.29583333333341,
                    "velocity": 0.15748031496062992,
                    "duration": 0.08958333333333712
                },
                {
                    "name": "F#4",
                    "midi": 66,
                    "time": 52.67708333333342,
                    "velocity": 0.3937007874015748,
                    "duration": 0.14791666666666003
                },
                {
                    "name": "A#4",
                    "midi": 70,
                    "time": 52.67916666666675,
                    "velocity": 0.48031496062992124,
                    "duration": 0.11249999999999716
                },
                {
                    "name": "D#5",
                    "midi": 75,
                    "time": 52.685416666666754,
                    "velocity": 0.5984251968503937,
                    "duration": 0.3499999999999943
                },
                {
                    "name": "C#5",
                    "midi": 73,
                    "time": 52.69583333333342,
                    "velocity": 0.5354330708661418,
                    "duration": 0.30833333333333
                },
                {
                    "name": "D#4",
                    "midi": 63,
                    "time": 52.714583333333415,
                    "velocity": 0.3858267716535433,
                    "duration": 0.12291666666666856
                },
                {
                    "name": "A#3",
                    "midi": 58,
                    "time": 53.13125000000008,
                    "velocity": 0.4251968503937008,
                    "duration": 0.10833333333334139
                },
                {
                    "name": "D#3",
                    "midi": 51,
                    "time": 53.13541666666675,
                    "velocity": 0.49606299212598426,
                    "duration": 0.09791666666666998
                },
                {
                    "name": "F#4",
                    "midi": 66,
                    "time": 53.54583333333342,
                    "velocity": 0.6299212598425197,
                    "duration": 0.09583333333333144
                },
                {
                    "name": "D#6",
                    "midi": 87,
                    "time": 53.95416666666675,
                    "velocity": 0.7165354330708661,
                    "duration": 0.1145833333333286
                },
                {
                    "name": "C#4",
                    "midi": 61,
                    "time": 53.96041666666675,
                    "velocity": 0.5984251968503937,
                    "duration": 0.12916666666666288
                },
                {
                    "name": "G#5",
                    "midi": 80,
                    "time": 53.97916666666675,
                    "velocity": 0.5118110236220472,
                    "duration": 0.11874999999999858
                },
                {
                    "name": "B4",
                    "midi": 71,
                    "time": 53.98125000000008,
                    "velocity": 0.2992125984251969,
                    "duration": 0.49583333333333
                },
                {
                    "name": "E5",
                    "midi": 76,
                    "time": 53.98541666666675,
                    "velocity": 0.3700787401574803,
                    "duration": 0.4104166666666629
                },
                {
                    "name": "C#5",
                    "midi": 73,
                    "time": 54.422916666666744,
                    "velocity": 0.5118110236220472,
                    "duration": 0.3395833333333371
                },
                {
                    "name": "D#5",
                    "midi": 75,
                    "time": 54.425000000000075,
                    "velocity": 0.4645669291338583,
                    "duration": 0.3541666666666714
                },
                {
                    "name": "A#4",
                    "midi": 70,
                    "time": 54.44166666666674,
                    "velocity": 0.3937007874015748,
                    "duration": 0.1145833333333357
                },
                {
                    "name": "F#4",
                    "midi": 66,
                    "time": 54.44791666666674,
                    "velocity": 0.41732283464566927,
                    "duration": 0.17291666666667282
                },
                {
                    "name": "D#4",
                    "midi": 63,
                    "time": 54.460416666666745,
                    "velocity": 0.2755905511811024,
                    "duration": 0.16875000000000284
                },
                {
                    "name": "A#3",
                    "midi": 58,
                    "time": 54.870833333333415,
                    "velocity": 0.4566929133858268,
                    "duration": 0.10833333333333428
                },
                {
                    "name": "D#3",
                    "midi": 51,
                    "time": 54.87291666666675,
                    "velocity": 0.5039370078740157,
                    "duration": 0.09791666666666998
                },
                {
                    "name": "F#4",
                    "midi": 66,
                    "time": 55.31041666666675,
                    "velocity": 0.4881889763779528,
                    "duration": 0.05624999999999858
                },
                {
                    "name": "D#6",
                    "midi": 87,
                    "time": 55.735416666666744,
                    "velocity": 0.7480314960629921,
                    "duration": 0.0833333333333357
                },
                {
                    "name": "C#4",
                    "midi": 61,
                    "time": 55.735416666666744,
                    "velocity": 0.5039370078740157,
                    "duration": 0.11041666666667282
                },
                {
                    "name": "G#5",
                    "midi": 80,
                    "time": 55.75000000000008,
                    "velocity": 0.5354330708661418,
                    "duration": 0.08958333333333712
                },
                {
                    "name": "E5",
                    "midi": 76,
                    "time": 55.75416666666675,
                    "velocity": 0.3464566929133858,
                    "duration": 0.15416666666666856
                },
                {
                    "name": "B4",
                    "midi": 71,
                    "time": 55.76250000000008,
                    "velocity": 0.3858267716535433,
                    "duration": 0.27291666666666714
                },
                {
                    "name": "D#5",
                    "midi": 75,
                    "time": 56.17500000000008,
                    "velocity": 0.5748031496062992,
                    "duration": 0.46666666666666856
                },
                {
                    "name": "A#4",
                    "midi": 70,
                    "time": 56.181250000000084,
                    "velocity": 0.44881889763779526,
                    "duration": 0.04791666666666572
                },
                {
                    "name": "C#5",
                    "midi": 73,
                    "time": 56.183333333333415,
                    "velocity": 0.5669291338582677,
                    "duration": 0.4583333333333357
                },
                {
                    "name": "D#4",
                    "midi": 63,
                    "time": 56.187500000000085,
                    "velocity": 0.5511811023622047,
                    "duration": 0.09375
                },
                {
                    "name": "F#4",
                    "midi": 66,
                    "time": 56.18958333333342,
                    "velocity": 0.4645669291338583,
                    "duration": 0.07083333333333286
                },
                {
                    "name": "A#2",
                    "midi": 46,
                    "time": 56.69791666666675,
                    "velocity": 0.5984251968503937,
                    "duration": 0.5874999999999986
                },
                {
                    "name": "D#2",
                    "midi": 39,
                    "time": 56.71666666666675,
                    "velocity": 0.5590551181102362,
                    "duration": 0.5562499999999986
                },
                {
                    "name": "A#2",
                    "midi": 46,
                    "time": 57.60416666666675,
                    "velocity": 0.5118110236220472,
                    "duration": 0.07499999999999574
                },
                {
                    "name": "D#2",
                    "midi": 39,
                    "time": 57.614583333333414,
                    "velocity": 0.4566929133858268,
                    "duration": 0.05624999999999858
                },
                {
                    "name": "D#3",
                    "midi": 51,
                    "time": 58.489583333333414,
                    "velocity": 0.8267716535433071,
                    "duration": 0.4895833333333428
                },
                {
                    "name": "B2",
                    "midi": 47,
                    "time": 58.493750000000084,
                    "velocity": 0.7165354330708661,
                    "duration": 0.47083333333333854
                },
                {
                    "name": "D3",
                    "midi": 50,
                    "time": 58.497916666666754,
                    "velocity": 0.7244094488188977,
                    "duration": 0.44166666666667
                },
                {
                    "name": "G#2",
                    "midi": 44,
                    "time": 58.500000000000085,
                    "velocity": 0.7007874015748031,
                    "duration": 0.4750000000000014
                },
                {
                    "name": "F#2",
                    "midi": 42,
                    "time": 58.92083333333342,
                    "velocity": 0.7559055118110236,
                    "duration": 0.08125000000000426
                },
                {
                    "name": "A#2",
                    "midi": 46,
                    "time": 58.92500000000009,
                    "velocity": 0.7716535433070866,
                    "duration": 0.08125000000000426
                },
                {
                    "name": "G#2",
                    "midi": 44,
                    "time": 59.36875000000009,
                    "velocity": 0.6220472440944882,
                    "duration": 0.25833333333332575
                },
                {
                    "name": "D#3",
                    "midi": 51,
                    "time": 59.37083333333342,
                    "velocity": 0.8503937007874016,
                    "duration": 0.4749999999999943
                },
                {
                    "name": "B2",
                    "midi": 47,
                    "time": 59.372916666666754,
                    "velocity": 0.6220472440944882,
                    "duration": 0.48749999999999716
                },
                {
                    "name": "F2",
                    "midi": 41,
                    "time": 59.38333333333342,
                    "velocity": 0.5196850393700787,
                    "duration": 0.18124999999999858
                },
                {
                    "name": "A#2",
                    "midi": 46,
                    "time": 59.79375000000008,
                    "velocity": 0.7086614173228346,
                    "duration": 0.14791666666666714
                },
                {
                    "name": "F#2",
                    "midi": 42,
                    "time": 59.81041666666675,
                    "velocity": 0.6456692913385826,
                    "duration": 0.16041666666666288
                },
                {
                    "name": "D#2",
                    "midi": 39,
                    "time": 59.81041666666675,
                    "velocity": 0.7165354330708661,
                    "duration": 0.14999999999999858
                },
                {
                    "name": "F#3",
                    "midi": 54,
                    "time": 60.23958333333341,
                    "velocity": 0.7795275590551181,
                    "duration": 0.5708333333333329
                },
                {
                    "name": "B2",
                    "midi": 47,
                    "time": 60.637500000000074,
                    "velocity": 0.5984251968503937,
                    "duration": 0.39375000000000426
                },
                {
                    "name": "G#2",
                    "midi": 44,
                    "time": 60.643750000000075,
                    "velocity": 0.5826771653543307,
                    "duration": 0.8625000000000114
                },
                {
                    "name": "F3",
                    "midi": 53,
                    "time": 60.83958333333341,
                    "velocity": 0.5748031496062992,
                    "duration": 0.25208333333333854
                },
                {
                    "name": "F#3",
                    "midi": 54,
                    "time": 61.052083333333414,
                    "velocity": 0.7165354330708661,
                    "duration": 0.24791666666666856
                },
                {
                    "name": "D#3",
                    "midi": 51,
                    "time": 61.06041666666675,
                    "velocity": 0.5669291338582677,
                    "duration": 0.20000000000000284
                },
                {
                    "name": "G#3",
                    "midi": 56,
                    "time": 61.25000000000008,
                    "velocity": 0.7086614173228346,
                    "duration": 0.1875000000000071
                },
                {
                    "name": "C#3",
                    "midi": 49,
                    "time": 61.25416666666675,
                    "velocity": 0.6929133858267716,
                    "duration": 0.12291666666666856
                },
                {
                    "name": "F3",
                    "midi": 53,
                    "time": 61.26250000000008,
                    "velocity": 0.5984251968503937,
                    "duration": 0.12916666666666998
                },
                {
                    "name": "A#3",
                    "midi": 58,
                    "time": 61.44791666666675,
                    "velocity": 0.6929133858267716,
                    "duration": 0.18541666666666856
                },
                {
                    "name": "C#3",
                    "midi": 49,
                    "time": 61.45208333333342,
                    "velocity": 0.44881889763779526,
                    "duration": 0.5749999999999957
                },
                {
                    "name": "F#3",
                    "midi": 54,
                    "time": 61.45416666666675,
                    "velocity": 0.7244094488188977,
                    "duration": 0.24166666666666714
                },
                {
                    "name": "F#2",
                    "midi": 42,
                    "time": 61.47500000000009,
                    "velocity": 0.6062992125984252,
                    "duration": 0.7208333333333314
                },
                {
                    "name": "G#3",
                    "midi": 56,
                    "time": 61.63333333333342,
                    "velocity": 0.7795275590551181,
                    "duration": 0.25208333333333854
                },
                {
                    "name": "F3",
                    "midi": 53,
                    "time": 61.652083333333415,
                    "velocity": 0.6062992125984252,
                    "duration": 0.25208333333333854
                },
                {
                    "name": "A#3",
                    "midi": 58,
                    "time": 61.82916666666675,
                    "velocity": 0.7637795275590551,
                    "duration": 0.14166666666666572
                },
                {
                    "name": "F#3",
                    "midi": 54,
                    "time": 61.85416666666676,
                    "velocity": 0.6929133858267716,
                    "duration": 0.09999999999999432
                },
                {
                    "name": "B3",
                    "midi": 59,
                    "time": 62.031250000000085,
                    "velocity": 0.7795275590551181,
                    "duration": 0.09583333333333144
                },
                {
                    "name": "G#3",
                    "midi": 56,
                    "time": 62.04166666666675,
                    "velocity": 0.7480314960629921,
                    "duration": 0.10833333333333428
                },
                {
                    "name": "A#2",
                    "midi": 46,
                    "time": 62.25625000000009,
                    "velocity": 0.6850393700787402,
                    "duration": 0.10625000000000284
                },
                {
                    "name": "F#3",
                    "midi": 54,
                    "time": 62.26041666666676,
                    "velocity": 0.8267716535433071,
                    "duration": 0.06666666666666998
                },
                {
                    "name": "C#4",
                    "midi": 61,
                    "time": 62.26250000000009,
                    "velocity": 0.7559055118110236,
                    "duration": 0.08125000000000426
                },
                {
                    "name": "F#3",
                    "midi": 54,
                    "time": 62.67916666666676,
                    "velocity": 0.7244094488188977,
                    "duration": 0.08958333333333712
                },
                {
                    "name": "G#2",
                    "midi": 44,
                    "time": 62.68333333333343,
                    "velocity": 0.7401574803149606,
                    "duration": 0.06041666666666856
                },
                {
                    "name": "B2",
                    "midi": 47,
                    "time": 62.693750000000094,
                    "velocity": 0.6614173228346457,
                    "duration": 0.09375
                },
                {
                    "name": "D#3",
                    "midi": 51,
                    "time": 62.700000000000095,
                    "velocity": 0.6929133858267716,
                    "duration": 0.06041666666666856
                },
                {
                    "name": "C#3",
                    "midi": 49,
                    "time": 63.106250000000095,
                    "velocity": 0.6929133858267716,
                    "duration": 0.5729166666666785
                },
                {
                    "name": "F#3",
                    "midi": 54,
                    "time": 63.1125000000001,
                    "velocity": 0.5669291338582677,
                    "duration": 0.4229166666666728
                },
                {
                    "name": "G#2",
                    "midi": 44,
                    "time": 63.11666666666677,
                    "velocity": 0.48031496062992124,
                    "duration": 0.5104166666666714
                },
                {
                    "name": "F3",
                    "midi": 53,
                    "time": 63.56458333333344,
                    "velocity": 0.6141732283464567,
                    "duration": 0.19583333333333286
                },
                {
                    "name": "C#2",
                    "midi": 37,
                    "time": 64.00625000000011,
                    "velocity": 0.5433070866141733,
                    "duration": 0.82083333333334
                },
                {
                    "name": "F3",
                    "midi": 53,
                    "time": 64.19583333333344,
                    "velocity": 0.5905511811023622,
                    "duration": 0.30833333333335133
                },
                {
                    "name": "C#3",
                    "midi": 49,
                    "time": 64.38125000000012,
                    "velocity": 0.4881889763779528,
                    "duration": 1.0041666666666629
                },
                {
                    "name": "A#3",
                    "midi": 58,
                    "time": 64.39375000000013,
                    "velocity": 0.7165354330708661,
                    "duration": 0.25208333333333144
                },
                {
                    "name": "C#4",
                    "midi": 61,
                    "time": 64.57708333333346,
                    "velocity": 0.7165354330708661,
                    "duration": 0.20416666666666572
                },
                {
                    "name": "D#2",
                    "midi": 39,
                    "time": 64.78750000000012,
                    "velocity": 0.5826771653543307,
                    "duration": 0.86666666666666
                },
                {
                    "name": "F#3",
                    "midi": 54,
                    "time": 64.80416666666679,
                    "velocity": 0.7007874015748031,
                    "duration": 0.4729166666666629
                },
                {
                    "name": "F4",
                    "midi": 65,
                    "time": 64.81041666666678,
                    "velocity": 0.6771653543307087,
                    "duration": 0.24583333333333712
                },
                {
                    "name": "D#4",
                    "midi": 63,
                    "time": 64.98333333333345,
                    "velocity": 0.7637795275590551,
                    "duration": 0.2916666666666714
                },
                {
                    "name": "C#4",
                    "midi": 61,
                    "time": 65.19791666666679,
                    "velocity": 0.8346456692913385,
                    "duration": 0.24166666666666003
                },
                {
                    "name": "C4",
                    "midi": 60,
                    "time": 65.37500000000011,
                    "velocity": 0.8188976377952756,
                    "duration": 0.15208333333333712
                },
                {
                    "name": "C4",
                    "midi": 60,
                    "time": 65.61666666666679,
                    "velocity": 0.8031496062992126,
                    "duration": 0.53125
                },
                {
                    "name": "A#3",
                    "midi": 58,
                    "time": 65.61875000000012,
                    "velocity": 0.6929133858267716,
                    "duration": 0.5958333333333456
                },
                {
                    "name": "D#3",
                    "midi": 51,
                    "time": 65.62083333333345,
                    "velocity": 0.6141732283464567,
                    "duration": 0.5583333333333371
                },
                {
                    "name": "F#2",
                    "midi": 42,
                    "time": 65.62500000000011,
                    "velocity": 0.5748031496062992,
                    "duration": 0.5812500000000114
                },
                {
                    "name": "C#4",
                    "midi": 61,
                    "time": 66.07708333333345,
                    "velocity": 0.7716535433070866,
                    "duration": 0.22708333333335418
                },
                {
                    "name": "D#4",
                    "midi": 63,
                    "time": 66.25625000000014,
                    "velocity": 0.6929133858267716,
                    "duration": 0.15833333333334565
                },
                {
                    "name": "C3",
                    "midi": 48,
                    "time": 66.48958333333348,
                    "velocity": 0.5275590551181102,
                    "duration": 0.10833333333333428
                },
                {
                    "name": "F2",
                    "midi": 41,
                    "time": 66.48958333333348,
                    "velocity": 0.5511811023622047,
                    "duration": 0.07916666666666572
                },
                {
                    "name": "G#3",
                    "midi": 56,
                    "time": 66.50000000000014,
                    "velocity": 0.5826771653543307,
                    "duration": 0.16875000000001705
                },
                {
                    "name": "F4",
                    "midi": 65,
                    "time": 66.50833333333348,
                    "velocity": 0.4881889763779528,
                    "duration": 0.23750000000001137
                },
                {
                    "name": "C4",
                    "midi": 60,
                    "time": 66.96250000000015,
                    "velocity": 0.4645669291338583,
                    "duration": 0.3499999999999943
                },
                {
                    "name": "F3",
                    "midi": 53,
                    "time": 66.97083333333347,
                    "velocity": 0.1889763779527559,
                    "duration": 0.2854166666666629
                },
                {
                    "name": "G#4",
                    "midi": 68,
                    "time": 67.37708333333347,
                    "velocity": 0.6692913385826772,
                    "duration": 0.0833333333333286
                },
                {
                    "name": "F6",
                    "midi": 89,
                    "time": 67.8104166666668,
                    "velocity": 0.5354330708661418,
                    "duration": 0.07708333333332007
                },
                {
                    "name": "F#5",
                    "midi": 78,
                    "time": 67.81458333333346,
                    "velocity": 0.4409448818897638,
                    "duration": 0.13124999999999432
                },
                {
                    "name": "C#5",
                    "midi": 73,
                    "time": 67.81458333333346,
                    "velocity": 0.5354330708661418,
                    "duration": 0.1145833333333286
                },
                {
                    "name": "A#5",
                    "midi": 82,
                    "time": 67.81875000000012,
                    "velocity": 0.5984251968503937,
                    "duration": 0.08541666666666003
                },
                {
                    "name": "D#4",
                    "midi": 63,
                    "time": 67.83541666666679,
                    "velocity": 0.4330708661417323,
                    "duration": 0.19166666666666288
                },
                {
                    "name": "G#4",
                    "midi": 68,
                    "time": 68.25833333333345,
                    "velocity": 0.4645669291338583,
                    "duration": 0.11666666666666003
                },
                {
                    "name": "F5",
                    "midi": 77,
                    "time": 68.26458333333345,
                    "velocity": 0.5984251968503937,
                    "duration": 0.25208333333333144
                },
                {
                    "name": "D#5",
                    "midi": 75,
                    "time": 68.27916666666678,
                    "velocity": 0.5511811023622047,
                    "duration": 0.2749999999999915
                },
                {
                    "name": "C5",
                    "midi": 72,
                    "time": 68.28750000000012,
                    "velocity": 0.3228346456692913,
                    "duration": 0.06458333333333144
                },
                {
                    "name": "F4",
                    "midi": 65,
                    "time": 68.29166666666679,
                    "velocity": 0.29133858267716534,
                    "duration": 0.09583333333333144
                },
                {
                    "name": "F3",
                    "midi": 53,
                    "time": 68.72500000000011,
                    "velocity": 0.5511811023622047,
                    "duration": 0.06875000000000853
                },
                {
                    "name": "C4",
                    "midi": 60,
                    "time": 68.76458333333345,
                    "velocity": 0.3228346456692913,
                    "duration": 0.04583333333333428
                },
                {
                    "name": "G#4",
                    "midi": 68,
                    "time": 69.12916666666678,
                    "velocity": 0.7007874015748031,
                    "duration": 0.06666666666666288
                },
                {
                    "name": "F6",
                    "midi": 89,
                    "time": 69.56041666666677,
                    "velocity": 0.5748031496062992,
                    "duration": 0.13125000000000853
                },
                {
                    "name": "C#5",
                    "midi": 73,
                    "time": 69.5625000000001,
                    "velocity": 0.5039370078740157,
                    "duration": 0.20625000000001137
                },
                {
                    "name": "F#5",
                    "midi": 78,
                    "time": 69.56666666666676,
                    "velocity": 0.3937007874015748,
                    "duration": 0.2229166666666771
                },
                {
                    "name": "A#5",
                    "midi": 82,
                    "time": 69.5687500000001,
                    "velocity": 0.5669291338582677,
                    "duration": 0.16458333333335418
                },
                {
                    "name": "D#4",
                    "midi": 63,
                    "time": 69.59791666666676,
                    "velocity": 0.3858267716535433,
                    "duration": 0.2916666666666714
                },
                {
                    "name": "G#4",
                    "midi": 68,
                    "time": 70.02291666666677,
                    "velocity": 0.4566929133858268,
                    "duration": 0.11041666666666572
                },
                {
                    "name": "D#5",
                    "midi": 75,
                    "time": 70.03750000000011,
                    "velocity": 0.5511811023622047,
                    "duration": 0.09999999999999432
                },
                {
                    "name": "C5",
                    "midi": 72,
                    "time": 70.0437500000001,
                    "velocity": 0.4094488188976378,
                    "duration": 0.06458333333333144
                },
                {
                    "name": "F4",
                    "midi": 65,
                    "time": 70.0500000000001,
                    "velocity": 0.3464566929133858,
                    "duration": 0.09375
                },
                {
                    "name": "F5",
                    "midi": 77,
                    "time": 70.0500000000001,
                    "velocity": 0.6141732283464567,
                    "duration": 0.10208333333333997
                },
                {
                    "name": "C4",
                    "midi": 60,
                    "time": 70.45416666666677,
                    "velocity": 0.6141732283464567,
                    "duration": 0.04791666666666572
                },
                {
                    "name": "F3",
                    "midi": 53,
                    "time": 70.46041666666676,
                    "velocity": 0.5354330708661418,
                    "duration": 0.0625
                },
                {
                    "name": "G#4",
                    "midi": 68,
                    "time": 70.85833333333342,
                    "velocity": 0.5984251968503937,
                    "duration": 0.06874999999999432
                },
                {
                    "name": "F6",
                    "midi": 89,
                    "time": 71.27708333333341,
                    "velocity": 0.6535433070866141,
                    "duration": 0.07291666666665719
                },
                {
                    "name": "F#5",
                    "midi": 78,
                    "time": 71.27916666666674,
                    "velocity": 0.6062992125984252,
                    "duration": 0.09375
                },
                {
                    "name": "C#5",
                    "midi": 73,
                    "time": 71.28125000000007,
                    "velocity": 0.5748031496062992,
                    "duration": 0.0625
                },
                {
                    "name": "A#5",
                    "midi": 82,
                    "time": 71.29166666666674,
                    "velocity": 0.5826771653543307,
                    "duration": 0.04791666666666572
                },
                {
                    "name": "D#4",
                    "midi": 63,
                    "time": 71.30208333333341,
                    "velocity": 0.3779527559055118,
                    "duration": 0.06249999999998579
                },
                {
                    "name": "G#4",
                    "midi": 68,
                    "time": 71.72708333333341,
                    "velocity": 0.4645669291338583,
                    "duration": 0.09375
                },
                {
                    "name": "F5",
                    "midi": 77,
                    "time": 71.73958333333341,
                    "velocity": 0.5196850393700787,
                    "duration": 0.22083333333333144
                },
                {
                    "name": "C5",
                    "midi": 72,
                    "time": 71.74166666666675,
                    "velocity": 0.4015748031496063,
                    "duration": 0.04999999999999716
                },
                {
                    "name": "D#5",
                    "midi": 75,
                    "time": 71.74375000000008,
                    "velocity": 0.5275590551181102,
                    "duration": 0.12291666666666856
                },
                {
                    "name": "F4",
                    "midi": 65,
                    "time": 71.76041666666674,
                    "velocity": 0.3700787401574803,
                    "duration": 0.07500000000000284
                },
                {
                    "name": "C3",
                    "midi": 48,
                    "time": 72.21250000000008,
                    "velocity": 0.5275590551181102,
                    "duration": 0.04166666666665719
                },
                {
                    "name": "F2",
                    "midi": 41,
                    "time": 72.2333333333334,
                    "velocity": 0.36220472440944884,
                    "duration": 0.04583333333333428
                },
                {
                    "name": "C3",
                    "midi": 48,
                    "time": 73.11041666666674,
                    "velocity": 0.4251968503937008,
                    "duration": 0.09166666666666856
                },
                {
                    "name": "F2",
                    "midi": 41,
                    "time": 73.12500000000007,
                    "velocity": 0.30708661417322836,
                    "duration": 0.07708333333333428
                },
                {
                    "name": "F3",
                    "midi": 53,
                    "time": 74.02916666666674,
                    "velocity": 0.7795275590551181,
                    "duration": 0.5062499999999801
                },
                {
                    "name": "E3",
                    "midi": 52,
                    "time": 74.03541666666673,
                    "velocity": 0.7401574803149606,
                    "duration": 0.1875
                },
                {
                    "name": "C#3",
                    "midi": 49,
                    "time": 74.03750000000007,
                    "velocity": 0.6929133858267716,
                    "duration": 0.2291666666666714
                },
                {
                    "name": "A#2",
                    "midi": 46,
                    "time": 74.0395833333334,
                    "velocity": 0.6850393700787402,
                    "duration": 0.23125000000000284
                },
                {
                    "name": "C3",
                    "midi": 48,
                    "time": 74.46875000000006,
                    "velocity": 0.7874015748031497,
                    "duration": 0.06666666666666288
                },
                {
                    "name": "G#2",
                    "midi": 44,
                    "time": 74.47500000000005,
                    "velocity": 0.8188976377952756,
                    "duration": 0.07708333333333428
                },
                {
                    "name": "F3",
                    "midi": 53,
                    "time": 74.89166666666672,
                    "velocity": 0.84251968503937,
                    "duration": 0.8520833333333258
                },
                {
                    "name": "C#3",
                    "midi": 49,
                    "time": 74.89791666666672,
                    "velocity": 0.7322834645669292,
                    "duration": 0.21666666666666856
                },
                {
                    "name": "A#2",
                    "midi": 46,
                    "time": 74.90208333333338,
                    "velocity": 0.7007874015748031,
                    "duration": 0.21458333333333712
                },
                {
                    "name": "F#2",
                    "midi": 42,
                    "time": 74.90208333333338,
                    "velocity": 0.7401574803149606,
                    "duration": 0.28125
                },
                {
                    "name": "G#2",
                    "midi": 44,
                    "time": 75.31041666666671,
                    "velocity": 0.6929133858267716,
                    "duration": 0.3687499999999915
                },
                {
                    "name": "C3",
                    "midi": 48,
                    "time": 75.32083333333337,
                    "velocity": 0.6614173228346457,
                    "duration": 0.36666666666667425
                },
                {
                    "name": "F2",
                    "midi": 41,
                    "time": 75.32916666666671,
                    "velocity": 0.6299212598425197,
                    "duration": 0.30416666666666003
                },
                {
                    "name": "G#3",
                    "midi": 56,
                    "time": 75.74791666666671,
                    "velocity": 0.8976377952755905,
                    "duration": 0.5395833333333258
                },
                {
                    "name": "A#2",
                    "midi": 46,
                    "time": 76.17083333333338,
                    "velocity": 0.7322834645669292,
                    "duration": 0.7979166666666515
                },
                {
                    "name": "C#3",
                    "midi": 49,
                    "time": 76.17291666666671,
                    "velocity": 0.7480314960629921,
                    "duration": 0.35208333333332575
                },
                {
                    "name": "F#3",
                    "midi": 54,
                    "time": 76.35833333333338,
                    "velocity": 0.7716535433070866,
                    "duration": 0.11666666666666003
                },
                {
                    "name": "G#3",
                    "midi": 56,
                    "time": 76.58125000000004,
                    "velocity": 0.8346456692913385,
                    "duration": 0.12083333333332291
                },
                {
                    "name": "F3",
                    "midi": 53,
                    "time": 76.58750000000003,
                    "velocity": 0.5905511811023622,
                    "duration": 0.13333333333332575
                },
                {
                    "name": "D#3",
                    "midi": 51,
                    "time": 76.73750000000003,
                    "velocity": 0.7322834645669292,
                    "duration": 0.1666666666666714
                },
                {
                    "name": "A#3",
                    "midi": 58,
                    "time": 76.74583333333337,
                    "velocity": 0.8110236220472441,
                    "duration": 0.15416666666666856
                },
                {
                    "name": "C#3",
                    "midi": 49,
                    "time": 76.95000000000003,
                    "velocity": 0.7165354330708661,
                    "duration": 1.393749999999983
                },
                {
                    "name": "B3",
                    "midi": 59,
                    "time": 76.9541666666667,
                    "velocity": 0.8503937007874016,
                    "duration": 0.23749999999999716
                },
                {
                    "name": "G#2",
                    "midi": 44,
                    "time": 76.96041666666669,
                    "velocity": 0.6692913385826772,
                    "duration": 1.1520833333333087
                },
                {
                    "name": "F3",
                    "midi": 53,
                    "time": 76.97083333333336,
                    "velocity": 0.7322834645669292,
                    "duration": 1.7479166666666544
                },
                {
                    "name": "A#3",
                    "midi": 58,
                    "time": 77.14791666666669,
                    "velocity": 0.7322834645669292,
                    "duration": 0.2291666666666572
                },
                {
                    "name": "B3",
                    "midi": 59,
                    "time": 77.33958333333335,
                    "velocity": 0.7401574803149606,
                    "duration": 0.19999999999998863
                },
                {
                    "name": "C#4",
                    "midi": 61,
                    "time": 77.50416666666668,
                    "velocity": 0.8503937007874016,
                    "duration": 0.1145833333333286
                },
                {
                    "name": "D#4",
                    "midi": 63,
                    "time": 77.73333333333333,
                    "velocity": 0.8110236220472441,
                    "duration": 0.09166666666666856
                },
                {
                    "name": "A2",
                    "midi": 45,
                    "time": 78.12083333333334,
                    "velocity": 0.6614173228346457,
                    "duration": 0.2770833333333371
                },
                {
                    "name": "B3",
                    "midi": 59,
                    "time": 78.13125000000001,
                    "velocity": 0.84251968503937,
                    "duration": 0.1354166666666714
                },
                {
                    "name": "A#2",
                    "midi": 46,
                    "time": 78.51666666666668,
                    "velocity": 0.7244094488188977,
                    "duration": 0.22083333333333144
                },
                {
                    "name": "B3",
                    "midi": 59,
                    "time": 78.51875000000001,
                    "velocity": 0.8188976377952756,
                    "duration": 0.20624999999999716
                },
                {
                    "name": "D3",
                    "midi": 50,
                    "time": 78.52291666666667,
                    "velocity": 0.7322834645669292,
                    "duration": 0.5479166666666657
                },
                {
                    "name": "A#3",
                    "midi": 58,
                    "time": 78.69166666666668,
                    "velocity": 0.8267716535433071,
                    "duration": 0.08124999999999716
                },
                {
                    "name": "G#2",
                    "midi": 44,
                    "time": 78.70416666666668,
                    "velocity": 0.6377952755905512,
                    "duration": 0.2395833333333286
                },
                {
                    "name": "F#2",
                    "midi": 42,
                    "time": 78.8875,
                    "velocity": 0.7480314960629921,
                    "duration": 0.14791666666667425
                },
                {
                    "name": "D#4",
                    "midi": 63,
                    "time": 78.91458333333334,
                    "velocity": 0.8582677165354331,
                    "duration": 0.15625
                },
                {
                    "name": "A#3",
                    "midi": 58,
                    "time": 78.93125,
                    "velocity": 0.5905511811023622,
                    "duration": 0.037500000000008527
                },
                {
                    "name": "F4",
                    "midi": 65,
                    "time": 79.07291666666667,
                    "velocity": 0.7401574803149606,
                    "duration": 0.25833333333332575
                },
                {
                    "name": "F2",
                    "midi": 41,
                    "time": 79.08541666666667,
                    "velocity": 0.7165354330708661,
                    "duration": 0.11041666666666572
                },
                {
                    "name": "F#4",
                    "midi": 66,
                    "time": 79.29166666666667,
                    "velocity": 0.8818897637795275,
                    "duration": 0.20624999999998295
                },
                {
                    "name": "D#3",
                    "midi": 51,
                    "time": 79.29375,
                    "velocity": 0.889763779527559,
                    "duration": 0.45624999999999716
                },
                {
                    "name": "D#2",
                    "midi": 39,
                    "time": 79.3,
                    "velocity": 0.8110236220472441,
                    "duration": 0.6624999999999943
                },
                {
                    "name": "A#3",
                    "midi": 58,
                    "time": 79.30208333333333,
                    "velocity": 0.7795275590551181,
                    "duration": 0.16875000000000284
                },
                {
                    "name": "F4",
                    "midi": 65,
                    "time": 79.475,
                    "velocity": 0.6771653543307087,
                    "duration": 0.11041666666666572
                },
                {
                    "name": "F#4",
                    "midi": 66,
                    "time": 79.70625,
                    "velocity": 0.9291338582677166,
                    "duration": 0.23333333333333428
                },
                {
                    "name": "A#3",
                    "midi": 58,
                    "time": 79.71666666666667,
                    "velocity": 0.8661417322834646,
                    "duration": 0.47083333333333144
                },
                {
                    "name": "G#4",
                    "midi": 68,
                    "time": 79.88333333333334,
                    "velocity": 0.889763779527559,
                    "duration": 0.14999999999997726
                },
                {
                    "name": "C#3",
                    "midi": 49,
                    "time": 79.90416666666667,
                    "velocity": 0.8818897637795275,
                    "duration": 0.12708333333331723
                },
                {
                    "name": "C#2",
                    "midi": 37,
                    "time": 79.90833333333333,
                    "velocity": 0.8503937007874016,
                    "duration": 0.13333333333332575
                },
                {
                    "name": "A#4",
                    "midi": 70,
                    "time": 80.09583333333332,
                    "velocity": 0.889763779527559,
                    "duration": 0.09583333333334565
                },
                {
                    "name": "C3",
                    "midi": 48,
                    "time": 80.11041666666665,
                    "velocity": 0.7637795275590551,
                    "duration": 0.6687499999999886
                },
                {
                    "name": "C2",
                    "midi": 36,
                    "time": 80.11874999999999,
                    "velocity": 0.6614173228346457,
                    "duration": 0.6104166666666515
                },
                {
                    "name": "F#4",
                    "midi": 66,
                    "time": 80.51041666666666,
                    "velocity": 0.9133858267716536,
                    "duration": 0.3041666666666458
                },
                {
                    "name": "A#3",
                    "midi": 58,
                    "time": 80.51458333333332,
                    "velocity": 0.905511811023622,
                    "duration": 0.29583333333332007
                },
                {
                    "name": "D#4",
                    "midi": 63,
                    "time": 80.51874999999998,
                    "velocity": 0.889763779527559,
                    "duration": 0.2708333333333286
                },
                {
                    "name": "C#3",
                    "midi": 49,
                    "time": 80.90624999999996,
                    "velocity": 0.8976377952755905,
                    "duration": 1.229166666666643
                },
                {
                    "name": "C#2",
                    "midi": 37,
                    "time": 80.91666666666663,
                    "velocity": 0.84251968503937,
                    "duration": 1.1729166666666373
                },
                {
                    "name": "F#4",
                    "midi": 66,
                    "time": 80.91666666666663,
                    "velocity": 0.889763779527559,
                    "duration": 0.11666666666666003
                },
                {
                    "name": "G#3",
                    "midi": 56,
                    "time": 80.92291666666662,
                    "velocity": 0.937007874015748,
                    "duration": 0.0625
                },
                {
                    "name": "C#4",
                    "midi": 61,
                    "time": 80.92708333333329,
                    "velocity": 0.9133858267716536,
                    "duration": 0.07500000000000284
                },
                {
                    "name": "C#5",
                    "midi": 73,
                    "time": 81.33958333333328,
                    "velocity": 0.952755905511811,
                    "duration": 0.24375000000000568
                },
                {
                    "name": "F4",
                    "midi": 65,
                    "time": 81.34374999999994,
                    "velocity": 0.9212598425196851,
                    "duration": 0.3895833333333343
                },
                {
                    "name": "D#5",
                    "midi": 75,
                    "time": 81.51041666666661,
                    "velocity": 0.889763779527559,
                    "duration": 0.17291666666666572
                },
                {
                    "name": "F5",
                    "midi": 77,
                    "time": 81.7541666666666,
                    "velocity": 0.8818897637795275,
                    "duration": 0.2541666666666629
                },
                {
                    "name": "D#5",
                    "midi": 75,
                    "time": 81.95624999999994,
                    "velocity": 0.8818897637795275,
                    "duration": 0.20208333333332007
                },
                {
                    "name": "F5",
                    "midi": 77,
                    "time": 82.1354166666666,
                    "velocity": 0.8031496062992126,
                    "duration": 0.22291666666664867
                },
                {
                    "name": "D#3",
                    "midi": 51,
                    "time": 82.29374999999993,
                    "velocity": 0.889763779527559,
                    "duration": 0.08541666666664582
                },
                {
                    "name": "D#2",
                    "midi": 39,
                    "time": 82.2979166666666,
                    "velocity": 0.8267716535433071,
                    "duration": 0.07708333333332007
                },
                {
                    "name": "F#5",
                    "midi": 78,
                    "time": 82.30416666666659,
                    "velocity": 0.905511811023622,
                    "duration": 0.13124999999999432
                },
                {
                    "name": "G#5",
                    "midi": 80,
                    "time": 82.51041666666659,
                    "velocity": 0.9291338582677166,
                    "duration": 0.09374999999998579
                },
                {
                    "name": "G#4",
                    "midi": 68,
                    "time": 82.51041666666659,
                    "velocity": 0.9133858267716536,
                    "duration": 0.07916666666665151
                },
                {
                    "name": "C#5",
                    "midi": 73,
                    "time": 82.51458333333325,
                    "velocity": 0.8818897637795275,
                    "duration": 0.08124999999998295
                },
                {
                    "name": "F3",
                    "midi": 53,
                    "time": 82.51874999999991,
                    "velocity": 0.8110236220472441,
                    "duration": 0.7145833333333229
                },
                {
                    "name": "F2",
                    "midi": 41,
                    "time": 82.52083333333324,
                    "velocity": 0.7637795275590551,
                    "duration": 0.9104166666666629
                },
                {
                    "name": "B4",
                    "midi": 71,
                    "time": 82.98333333333323,
                    "velocity": 0.8818897637795275,
                    "duration": 0.6541666666666686
                },
                {
                    "name": "C#4",
                    "midi": 61,
                    "time": 82.99791666666657,
                    "velocity": 0.8582677165354331,
                    "duration": 0.9479166666666714
                },
                {
                    "name": "G4",
                    "midi": 67,
                    "time": 82.9999999999999,
                    "velocity": 0.7322834645669292,
                    "duration": 0.7958333333333343
                },
                {
                    "name": "E3",
                    "midi": 52,
                    "time": 83.42291666666657,
                    "velocity": 0.7322834645669292,
                    "duration": 0.4520833333333343
                },
                {
                    "name": "A#4",
                    "midi": 70,
                    "time": 83.83333333333323,
                    "velocity": 0.7007874015748031,
                    "duration": 0.17500000000001137
                },
                {
                    "name": "F#4",
                    "midi": 66,
                    "time": 83.8499999999999,
                    "velocity": 0.5669291338582677,
                    "duration": 0.17500000000001137
                },
                {
                    "name": "A2",
                    "midi": 45,
                    "time": 84.27708333333324,
                    "velocity": 0.6692913385826772,
                    "duration": 0.11666666666666003
                },
                {
                    "name": "A1",
                    "midi": 33,
                    "time": 84.28541666666656,
                    "velocity": 0.6614173228346457,
                    "duration": 0.09375
                },
                {
                    "name": "C#3",
                    "midi": 49,
                    "time": 84.48333333333323,
                    "velocity": 0.5984251968503937,
                    "duration": 0.24166666666666003
                },
                {
                    "name": "F#3",
                    "midi": 54,
                    "time": 84.73124999999989,
                    "velocity": 0.6614173228346457,
                    "duration": 0.21875
                },
                {
                    "name": "A4",
                    "midi": 69,
                    "time": 84.74583333333322,
                    "velocity": 0.6614173228346457,
                    "duration": 0.07708333333333428
                },
                {
                    "name": "A3",
                    "midi": 57,
                    "time": 84.95416666666655,
                    "velocity": 0.4566929133858268,
                    "duration": 0.17499999999999716
                },
                {
                    "name": "C#4",
                    "midi": 61,
                    "time": 85.16874999999989,
                    "velocity": 0.7322834645669292,
                    "duration": 0.28333333333333144
                },
                {
                    "name": "D3",
                    "midi": 50,
                    "time": 85.17916666666656,
                    "velocity": 0.5433070866141733,
                    "duration": 0.4229166666666515
                },
                {
                    "name": "B1",
                    "midi": 35,
                    "time": 85.17916666666656,
                    "velocity": 0.6614173228346457,
                    "duration": 0.4479166666666572
                },
                {
                    "name": "B2",
                    "midi": 47,
                    "time": 85.18541666666655,
                    "velocity": 0.5905511811023622,
                    "duration": 0.5145833333333343
                },
                {
                    "name": "A3",
                    "midi": 57,
                    "time": 85.20416666666655,
                    "velocity": 0.13385826771653545,
                    "duration": 0.23125000000000284
                },
                {
                    "name": "B3",
                    "midi": 59,
                    "time": 85.35208333333323,
                    "velocity": 0.7007874015748031,
                    "duration": 0.3166666666666629
                },
                {
                    "name": "A3",
                    "midi": 57,
                    "time": 85.57916666666655,
                    "velocity": 0.7086614173228346,
                    "duration": 0.25208333333333144
                },
                {
                    "name": "G#3",
                    "midi": 56,
                    "time": 85.74999999999989,
                    "velocity": 0.8188976377952756,
                    "duration": 0.1666666666666572
                },
                {
                    "name": "G#3",
                    "midi": 56,
                    "time": 85.97916666666654,
                    "velocity": 0.7165354330708661,
                    "duration": 0.6875
                },
                {
                    "name": "D3",
                    "midi": 50,
                    "time": 85.98958333333321,
                    "velocity": 0.5354330708661418,
                    "duration": 0.49166666666666003
                },
                {
                    "name": "D2",
                    "midi": 38,
                    "time": 85.99999999999989,
                    "velocity": 0.3700787401574803,
                    "duration": 0.5041666666666487
                },
                {
                    "name": "F#3",
                    "midi": 54,
                    "time": 86.00416666666655,
                    "velocity": 0.6377952755905512,
                    "duration": 0.5708333333333258
                },
                {
                    "name": "A3",
                    "midi": 57,
                    "time": 86.47499999999988,
                    "velocity": 0.4566929133858268,
                    "duration": 0.23125000000000284
                },
                {
                    "name": "B3",
                    "midi": 59,
                    "time": 86.63749999999987,
                    "velocity": 0.6377952755905512,
                    "duration": 0.24166666666667425
                },
                {
                    "name": "C#3",
                    "midi": 49,
                    "time": 86.93333333333321,
                    "velocity": 0.6377952755905512,
                    "duration": 1.9083333333333456
                },
                {
                    "name": "C#4",
                    "midi": 61,
                    "time": 86.94374999999988,
                    "velocity": 0.5118110236220472,
                    "duration": 0.26874999999999716
                },
                {
                    "name": "E3",
                    "midi": 52,
                    "time": 86.94791666666654,
                    "velocity": 0.4251968503937008,
                    "duration": 0.22499999999999432
                },
                {
                    "name": "C#2",
                    "midi": 37,
                    "time": 86.94999999999987,
                    "velocity": 0.5669291338582677,
                    "duration": 1.8437500000000142
                },
                {
                    "name": "D6",
                    "midi": 86,
                    "time": 87.66666666666654,
                    "velocity": 0.8110236220472441,
                    "duration": 0.5333333333333599
                },
                {
                    "name": "C#6",
                    "midi": 85,
                    "time": 87.67708333333321,
                    "velocity": 0.7874015748031497,
                    "duration": 0.5166666666666941
                },
                {
                    "name": "A5",
                    "midi": 81,
                    "time": 87.67916666666655,
                    "velocity": 0.8031496062992126,
                    "duration": 0.5000000000000284
                },
                {
                    "name": "G#5",
                    "midi": 80,
                    "time": 88.14166666666657,
                    "velocity": 0.6456692913385826,
                    "duration": 0.09375
                },
                {
                    "name": "B5",
                    "midi": 83,
                    "time": 88.15416666666657,
                    "velocity": 0.6220472440944882,
                    "duration": 0.09166666666666856
                },
                {
                    "name": "D6",
                    "midi": 86,
                    "time": 88.57083333333323,
                    "velocity": 0.8976377952755905,
                    "duration": 0.44583333333332575
                },
                {
                    "name": "F#5",
                    "midi": 78,
                    "time": 88.57708333333322,
                    "velocity": 0.8188976377952756,
                    "duration": 0.2291666666666714
                },
                {
                    "name": "A5",
                    "midi": 81,
                    "time": 88.57916666666655,
                    "velocity": 0.7559055118110236,
                    "duration": 0.1666666666666714
                },
                {
                    "name": "G#5",
                    "midi": 80,
                    "time": 88.99999999999989,
                    "velocity": 0.7874015748031497,
                    "duration": 0.21875
                },
                {
                    "name": "E5",
                    "midi": 76,
                    "time": 89.01041666666656,
                    "velocity": 0.7401574803149606,
                    "duration": 0.125
                },
                {
                    "name": "A3",
                    "midi": 57,
                    "time": 89.15624999999989,
                    "velocity": 0.6614173228346457,
                    "duration": 0.12291666666666856
                },
                {
                    "name": "D6",
                    "midi": 86,
                    "time": 89.17499999999988,
                    "velocity": 0.8346456692913385,
                    "duration": 0.11041666666666572
                },
                {
                    "name": "D4",
                    "midi": 62,
                    "time": 89.22083333333322,
                    "velocity": 0.5905511811023622,
                    "duration": 0.21041666666666003
                },
                {
                    "name": "F#4",
                    "midi": 66,
                    "time": 89.34374999999989,
                    "velocity": 0.4881889763779528,
                    "duration": 0.10624999999998863
                },
                {
                    "name": "A4",
                    "midi": 69,
                    "time": 89.39999999999989,
                    "velocity": 0.7244094488188977,
                    "duration": 0.04999999999998295
                },
                {
                    "name": "F#5",
                    "midi": 78,
                    "time": 89.40416666666655,
                    "velocity": 0.7874015748031497,
                    "duration": 0.5854166666666458
                },
                {
                    "name": "C#6",
                    "midi": 85,
                    "time": 89.40624999999989,
                    "velocity": 0.8110236220472441,
                    "duration": 0.1833333333333229
                },
                {
                    "name": "D5",
                    "midi": 74,
                    "time": 89.41249999999988,
                    "velocity": 0.6771653543307087,
                    "duration": 0.10208333333332575
                },
                {
                    "name": "B5",
                    "midi": 83,
                    "time": 89.58749999999988,
                    "velocity": 0.7007874015748031,
                    "duration": 0.4124999999999943
                },
                {
                    "name": "C#2",
                    "midi": 37,
                    "time": 89.68541666666654,
                    "velocity": 0.6929133858267716,
                    "duration": 0.09166666666665435
                },
                {
                    "name": "C#3",
                    "midi": 49,
                    "time": 89.74999999999987,
                    "velocity": 0.5905511811023622,
                    "duration": 0.06666666666666288
                },
                {
                    "name": "C#6",
                    "midi": 85,
                    "time": 89.9645833333332,
                    "velocity": 0.7716535433070866,
                    "duration": 0.19583333333333997
                },
                {
                    "name": "E5",
                    "midi": 76,
                    "time": 89.97499999999987,
                    "velocity": 0.6614173228346457,
                    "duration": 0.19583333333333997
                },
                {
                    "name": "G#4",
                    "midi": 68,
                    "time": 89.9770833333332,
                    "velocity": 0.8267716535433071,
                    "duration": 0.06041666666666856
                },
                {
                    "name": "C#6",
                    "midi": 85,
                    "time": 90.44791666666654,
                    "velocity": 0.8110236220472441,
                    "duration": 0.5020833333333172
                },
                {
                    "name": "B5",
                    "midi": 83,
                    "time": 90.45416666666654,
                    "velocity": 0.7874015748031497,
                    "duration": 0.4333333333333229
                },
                {
                    "name": "G#5",
                    "midi": 80,
                    "time": 90.45624999999987,
                    "velocity": 0.7716535433070866,
                    "duration": 0.4437499999999943
                },
                {
                    "name": "F#5",
                    "midi": 78,
                    "time": 90.8833333333332,
                    "velocity": 0.6141732283464567,
                    "duration": 0.10416666666665719
                },
                {
                    "name": "A5",
                    "midi": 81,
                    "time": 90.88541666666653,
                    "velocity": 0.6299212598425197,
                    "duration": 0.10833333333332007
                },
                {
                    "name": "C#6",
                    "midi": 85,
                    "time": 91.29374999999985,
                    "velocity": 0.905511811023622,
                    "duration": 0.4750000000000085
                },
                {
                    "name": "G#5",
                    "midi": 80,
                    "time": 91.30833333333318,
                    "velocity": 0.8110236220472441,
                    "duration": 0.1875
                },
                {
                    "name": "E5",
                    "midi": 76,
                    "time": 91.31458333333318,
                    "velocity": 0.7086614173228346,
                    "duration": 0.0625
                },
                {
                    "name": "F#5",
                    "midi": 78,
                    "time": 91.75416666666652,
                    "velocity": 0.7559055118110236,
                    "duration": 0.2291666666666572
                },
                {
                    "name": "D5",
                    "midi": 74,
                    "time": 91.76666666666652,
                    "velocity": 0.6692913385826772,
                    "duration": 0.12291666666666856
                },
                {
                    "name": "G#3",
                    "midi": 56,
                    "time": 91.9020833333332,
                    "velocity": 0.6377952755905512,
                    "duration": 0.13749999999998863
                },
                {
                    "name": "C#6",
                    "midi": 85,
                    "time": 91.90833333333319,
                    "velocity": 0.8818897637795275,
                    "duration": 0.13958333333333428
                },
                {
                    "name": "C#4",
                    "midi": 61,
                    "time": 91.96874999999984,
                    "velocity": 0.5984251968503937,
                    "duration": 0.18958333333334565
                },
                {
                    "name": "G#4",
                    "midi": 68,
                    "time": 92.11458333333319,
                    "velocity": 0.6929133858267716,
                    "duration": 0.03333333333333144
                },
                {
                    "name": "C#5",
                    "midi": 73,
                    "time": 92.14583333333319,
                    "velocity": 0.7637795275590551,
                    "duration": 0.09166666666666856
                },
                {
                    "name": "B5",
                    "midi": 83,
                    "time": 92.14999999999985,
                    "velocity": 0.6535433070866141,
                    "duration": 0.23750000000001137
                },
                {
                    "name": "E5",
                    "midi": 76,
                    "time": 92.14999999999985,
                    "velocity": 0.7165354330708661,
                    "duration": 0.18958333333334565
                },
                {
                    "name": "A5",
                    "midi": 81,
                    "time": 92.32499999999986,
                    "velocity": 0.7559055118110236,
                    "duration": 0.36666666666666003
                },
                {
                    "name": "C#2",
                    "midi": 37,
                    "time": 92.38958333333319,
                    "velocity": 0.6299212598425197,
                    "duration": 0.09166666666666856
                },
                {
                    "name": "C#3",
                    "midi": 49,
                    "time": 92.46666666666653,
                    "velocity": 0.6062992125984252,
                    "duration": 0.05833333333333712
                },
                {
                    "name": "B5",
                    "midi": 83,
                    "time": 92.6520833333332,
                    "velocity": 0.7165354330708661,
                    "duration": 0.22291666666666288
                },
                {
                    "name": "D5",
                    "midi": 74,
                    "time": 92.66874999999986,
                    "velocity": 0.5590551181102362,
                    "duration": 0.23541666666666572
                },
                {
                    "name": "F#4",
                    "midi": 66,
                    "time": 92.68541666666653,
                    "velocity": 0.84251968503937,
                    "duration": 0.0625
                },
                {
                    "name": "B5",
                    "midi": 83,
                    "time": 93.23541666666652,
                    "velocity": 0.7637795275590551,
                    "duration": 0.5041666666666629
                },
                {
                    "name": "A5",
                    "midi": 81,
                    "time": 93.2458333333332,
                    "velocity": 0.7007874015748031,
                    "duration": 0.4645833333333229
                },
                {
                    "name": "F#5",
                    "midi": 78,
                    "time": 93.25208333333319,
                    "velocity": 0.7401574803149606,
                    "duration": 0.39791666666666003
                },
                {
                    "name": "G#5",
                    "midi": 80,
                    "time": 93.66041666666652,
                    "velocity": 0.5748031496062992,
                    "duration": 0.09166666666666856
                },
                {
                    "name": "E5",
                    "midi": 76,
                    "time": 93.66249999999985,
                    "velocity": 0.5511811023622047,
                    "duration": 0.07500000000000284
                },
                {
                    "name": "B5",
                    "midi": 83,
                    "time": 94.08124999999986,
                    "velocity": 0.8582677165354331,
                    "duration": 0.5041666666666771
                },
                {
                    "name": "F#5",
                    "midi": 78,
                    "time": 94.09583333333319,
                    "velocity": 0.7559055118110236,
                    "duration": 0.1458333333333428
                },
                {
                    "name": "D5",
                    "midi": 74,
                    "time": 94.10416666666653,
                    "velocity": 0.6929133858267716,
                    "duration": 0.12916666666666288
                },
                {
                    "name": "C#5",
                    "midi": 73,
                    "time": 94.53541666666653,
                    "velocity": 0.7716535433070866,
                    "duration": 0.09166666666666856
                },
                {
                    "name": "E5",
                    "midi": 76,
                    "time": 94.5395833333332,
                    "velocity": 0.6771653543307087,
                    "duration": 0.1770833333333428
                },
                {
                    "name": "B5",
                    "midi": 83,
                    "time": 94.67916666666653,
                    "velocity": 0.7952755905511811,
                    "duration": 0.10000000000000853
                },
                {
                    "name": "F#3",
                    "midi": 54,
                    "time": 94.7083333333332,
                    "velocity": 0.7007874015748031,
                    "duration": 0.1458333333333428
                },
                {
                    "name": "B3",
                    "midi": 59,
                    "time": 94.77708333333321,
                    "velocity": 0.5354330708661418,
                    "duration": 0.1666666666666572
                },
                {
                    "name": "D4",
                    "midi": 62,
                    "time": 94.84166666666654,
                    "velocity": 0.2125984251968504,
                    "duration": 0.0833333333333286
                },
                {
                    "name": "F#4",
                    "midi": 66,
                    "time": 94.87291666666654,
                    "velocity": 0.8188976377952756,
                    "duration": 0.056249999999991473
                },
                {
                    "name": "D5",
                    "midi": 74,
                    "time": 94.9083333333332,
                    "velocity": 0.8346456692913385,
                    "duration": 0.09375
                },
                {
                    "name": "A5",
                    "midi": 81,
                    "time": 94.91249999999987,
                    "velocity": 0.8346456692913385,
                    "duration": 0.13750000000000284
                },
                {
                    "name": "B4",
                    "midi": 71,
                    "time": 94.9208333333332,
                    "velocity": 0.6771653543307087,
                    "duration": 0.04166666666665719
                },
                {
                    "name": "G#5",
                    "midi": 80,
                    "time": 95.09791666666653,
                    "velocity": 0.7716535433070866,
                    "duration": 0.2541666666666629
                },
                {
                    "name": "C#2",
                    "midi": 37,
                    "time": 95.14999999999986,
                    "velocity": 0.47244094488188976,
                    "duration": 0.09375
                },
                {
                    "name": "C#3",
                    "midi": 49,
                    "time": 95.2208333333332,
                    "velocity": 0.5984251968503937,
                    "duration": 0.04999999999999716
                },
                {
                    "name": "A5",
                    "midi": 81,
                    "time": 95.39791666666653,
                    "velocity": 0.7716535433070866,
                    "duration": 0.2770833333333371
                },
                {
                    "name": "C#5",
                    "midi": 73,
                    "time": 95.4083333333332,
                    "velocity": 0.6771653543307087,
                    "duration": 0.3499999999999943
                },
                {
                    "name": "E4",
                    "midi": 64,
                    "time": 95.41041666666653,
                    "velocity": 0.7244094488188977,
                    "duration": 0.06458333333333144
                },
                {
                    "name": "G#5",
                    "midi": 80,
                    "time": 95.65624999999987,
                    "velocity": 0.7559055118110236,
                    "duration": 0.12083333333332291
                },
                {
                    "name": "F#5",
                    "midi": 78,
                    "time": 95.96666666666653,
                    "velocity": 0.6850393700787402,
                    "duration": 0.25208333333333144
                },
                {
                    "name": "D4",
                    "midi": 62,
                    "time": 95.9770833333332,
                    "velocity": 0.8110236220472441,
                    "duration": 1.88333333333334
                },
                {
                    "name": "C#5",
                    "midi": 73,
                    "time": 95.98124999999986,
                    "velocity": 0.6456692913385826,
                    "duration": 0.8395833333333229
                },
                {
                    "name": "E5",
                    "midi": 76,
                    "time": 96.18749999999986,
                    "velocity": 0.6929133858267716,
                    "duration": 0.2749999999999915
                },
                {
                    "name": "F#5",
                    "midi": 78,
                    "time": 96.39791666666652,
                    "velocity": 0.7952755905511811,
                    "duration": 0.24583333333333712
                },
                {
                    "name": "E5",
                    "midi": 76,
                    "time": 96.58541666666652,
                    "velocity": 0.7716535433070866,
                    "duration": 0.28125
                },
                {
                    "name": "D5",
                    "midi": 74,
                    "time": 96.81874999999985,
                    "velocity": 0.8031496062992126,
                    "duration": 0.17916666666667425
                },
                {
                    "name": "B4",
                    "midi": 71,
                    "time": 96.82499999999985,
                    "velocity": 0.6850393700787402,
                    "duration": 0.11458333333334281
                },
                {
                    "name": "C#5",
                    "midi": 73,
                    "time": 97.03541666666652,
                    "velocity": 0.8267716535433071,
                    "duration": 0.09583333333334565
                },
                {
                    "name": "A4",
                    "midi": 69,
                    "time": 97.04374999999986,
                    "velocity": 0.6062992125984252,
                    "duration": 0.041666666666671404
                },
                {
                    "name": "F#4",
                    "midi": 66,
                    "time": 97.26249999999986,
                    "velocity": 0.5590551181102362,
                    "duration": 0.5583333333333371
                },
                {
                    "name": "G#4",
                    "midi": 68,
                    "time": 97.27916666666653,
                    "velocity": 0.6220472440944882,
                    "duration": 0.4208333333333343
                },
                {
                    "name": "B4",
                    "midi": 71,
                    "time": 97.28124999999986,
                    "velocity": 0.6692913385826772,
                    "duration": 0.0833333333333286
                },
                {
                    "name": "C#5",
                    "midi": 73,
                    "time": 97.35833333333319,
                    "velocity": 0.5748031496062992,
                    "duration": 0.0833333333333286
                },
                {
                    "name": "B4",
                    "midi": 71,
                    "time": 97.43749999999986,
                    "velocity": 0.5590551181102362,
                    "duration": 0.34583333333334565
                },
                {
                    "name": "A4",
                    "midi": 69,
                    "time": 97.7395833333332,
                    "velocity": 0.6377952755905512,
                    "duration": 0.22083333333333144
                },
                {
                    "name": "B4",
                    "midi": 71,
                    "time": 97.94166666666653,
                    "velocity": 0.6692913385826772,
                    "duration": 0.09583333333333144
                },
                {
                    "name": "C#2",
                    "midi": 37,
                    "time": 98.2708333333332,
                    "velocity": 0.4409448818897638,
                    "duration": 0.17916666666664582
                },
                {
                    "name": "C#3",
                    "midi": 49,
                    "time": 98.27499999999986,
                    "velocity": 0.2677165354330709,
                    "duration": 0.21666666666665435
                },
                {
                    "name": "C#5",
                    "midi": 73,
                    "time": 98.28333333333319,
                    "velocity": 0.6377952755905512,
                    "duration": 0.2708333333333286
                },
                {
                    "name": "E4",
                    "midi": 64,
                    "time": 98.30416666666652,
                    "velocity": 0.3937007874015748,
                    "duration": 0.17916666666666003
                },
                {
                    "name": "C#6",
                    "midi": 85,
                    "time": 99.01666666666652,
                    "velocity": 0.44881889763779526,
                    "duration": 0.17291666666666572
                },
                {
                    "name": "G#5",
                    "midi": 80,
                    "time": 99.02499999999986,
                    "velocity": 0.5275590551181102,
                    "duration": 0.3374999999999915
                },
                {
                    "name": "D6",
                    "midi": 86,
                    "time": 99.04166666666653,
                    "velocity": 0.6535433070866141,
                    "duration": 0.17499999999999716
                },
                {
                    "name": "A5",
                    "midi": 81,
                    "time": 99.2458333333332,
                    "velocity": 0.6220472440944882,
                    "duration": 0.19374999999999432
                },
                {
                    "name": "D5",
                    "midi": 74,
                    "time": 99.44374999999985,
                    "velocity": 0.6299212598425197,
                    "duration": 0.16458333333332575
                },
                {
                    "name": "B5",
                    "midi": 83,
                    "time": 99.45624999999986,
                    "velocity": 0.5433070866141733,
                    "duration": 0.04166666666665719
                },
                {
                    "name": "F#5",
                    "midi": 78,
                    "time": 99.47499999999985,
                    "velocity": 0.6062992125984252,
                    "duration": 0.06874999999999432
                },
                {
                    "name": "A4",
                    "midi": 69,
                    "time": 99.61458333333317,
                    "velocity": 0.5984251968503937,
                    "duration": 0.09583333333333144
                },
                {
                    "name": "A4",
                    "midi": 69,
                    "time": 99.8104166666665,
                    "velocity": 0.6692913385826772,
                    "duration": 0.16458333333333997
                },
                {
                    "name": "C#5",
                    "midi": 73,
                    "time": 99.8354166666665,
                    "velocity": 0.6692913385826772,
                    "duration": 0.10833333333333428
                },
                {
                    "name": "G#4",
                    "midi": 68,
                    "time": 99.8354166666665,
                    "velocity": 0.6850393700787402,
                    "duration": 0.3125
                },
                {
                    "name": "D5",
                    "midi": 74,
                    "time": 99.95624999999984,
                    "velocity": 0.7716535433070866,
                    "duration": 0.1875
                },
                {
                    "name": "F#4",
                    "midi": 66,
                    "time": 100.17083333333316,
                    "velocity": 0.5905511811023622,
                    "duration": 0.03333333333333144
                },
                {
                    "name": "A5",
                    "midi": 81,
                    "time": 100.18333333333317,
                    "velocity": 0.6614173228346457,
                    "duration": 0.08749999999999147
                },
                {
                    "name": "D6",
                    "midi": 86,
                    "time": 100.34583333333316,
                    "velocity": 0.7637795275590551,
                    "duration": 0.10208333333333997
                },
                {
                    "name": "A3",
                    "midi": 57,
                    "time": 100.44999999999983,
                    "velocity": 0.5748031496062992,
                    "duration": 0.10625000000000284
                },
                {
                    "name": "D4",
                    "midi": 62,
                    "time": 100.51458333333316,
                    "velocity": 0.5433070866141733,
                    "duration": 0.15625
                },
                {
                    "name": "F#4",
                    "midi": 66,
                    "time": 100.60624999999983,
                    "velocity": 0.5826771653543307,
                    "duration": 0.07083333333332575
                },
                {
                    "name": "A4",
                    "midi": 69,
                    "time": 100.62499999999983,
                    "velocity": 0.5984251968503937,
                    "duration": 0.04583333333333428
                },
                {
                    "name": "F#5",
                    "midi": 78,
                    "time": 100.65208333333317,
                    "velocity": 0.5748031496062992,
                    "duration": 0.2666666666666373
                },
                {
                    "name": "D5",
                    "midi": 74,
                    "time": 100.65833333333316,
                    "velocity": 0.4251968503937008,
                    "duration": 0.09791666666666288
                },
                {
                    "name": "C#6",
                    "midi": 85,
                    "time": 100.66041666666649,
                    "velocity": 0.5669291338582677,
                    "duration": 0.16041666666666288
                },
                {
                    "name": "B5",
                    "midi": 83,
                    "time": 100.84999999999982,
                    "velocity": 0.6062992125984252,
                    "duration": 0.27499999999997726
                },
                {
                    "name": "C#2",
                    "midi": 37,
                    "time": 100.93958333333313,
                    "velocity": 0.6141732283464567,
                    "duration": 0.08958333333333712
                },
                {
                    "name": "C#3",
                    "midi": 49,
                    "time": 101.01041666666647,
                    "velocity": 0.5826771653543307,
                    "duration": 0.052083333333328596
                },
                {
                    "name": "G#4",
                    "midi": 68,
                    "time": 101.2312499999998,
                    "velocity": 0.6535433070866141,
                    "duration": 0.07083333333333997
                },
                {
                    "name": "E5",
                    "midi": 76,
                    "time": 101.25416666666646,
                    "velocity": 0.6141732283464567,
                    "duration": 0.08333333333334281
                },
                {
                    "name": "C#6",
                    "midi": 85,
                    "time": 101.2624999999998,
                    "velocity": 0.7086614173228346,
                    "duration": 0.10625000000000284
                },
                {
                    "name": "F#5",
                    "midi": 78,
                    "time": 101.81874999999981,
                    "velocity": 0.5275590551181102,
                    "duration": 0.33541666666667425
                },
                {
                    "name": "B5",
                    "midi": 83,
                    "time": 101.82708333333315,
                    "velocity": 0.4881889763779528,
                    "duration": 0.2395833333333428
                },
                {
                    "name": "C#6",
                    "midi": 85,
                    "time": 101.86249999999981,
                    "velocity": 0.5984251968503937,
                    "duration": 0.17291666666667993
                },
                {
                    "name": "G#5",
                    "midi": 80,
                    "time": 102.08958333333315,
                    "velocity": 0.6299212598425197,
                    "duration": 0.15416666666666856
                },
                {
                    "name": "C#5",
                    "midi": 73,
                    "time": 102.27291666666649,
                    "velocity": 0.7716535433070866,
                    "duration": 0.12291666666666856
                },
                {
                    "name": "E5",
                    "midi": 76,
                    "time": 102.2979166666665,
                    "velocity": 0.6299212598425197,
                    "duration": 0.08749999999999147
                },
                {
                    "name": "A5",
                    "midi": 81,
                    "time": 102.29999999999983,
                    "velocity": 0.5905511811023622,
                    "duration": 0.037499999999994316
                },
                {
                    "name": "G#4",
                    "midi": 68,
                    "time": 102.44166666666649,
                    "velocity": 0.7086614173228346,
                    "duration": 0.12708333333333144
                },
                {
                    "name": "B4",
                    "midi": 71,
                    "time": 102.66041666666649,
                    "velocity": 0.7165354330708661,
                    "duration": 0.18958333333333144
                },
                {
                    "name": "F#4",
                    "midi": 66,
                    "time": 102.66249999999982,
                    "velocity": 0.7244094488188977,
                    "duration": 0.34583333333333144
                },
                {
                    "name": "G#4",
                    "midi": 68,
                    "time": 102.6729166666665,
                    "velocity": 0.7795275590551181,
                    "duration": 0.17916666666666003
                },
                {
                    "name": "C#5",
                    "midi": 73,
                    "time": 102.8291666666665,
                    "velocity": 0.84251968503937,
                    "duration": 0.16041666666666288
                },
                {
                    "name": "A4",
                    "midi": 69,
                    "time": 103.01041666666649,
                    "velocity": 0.6614173228346457,
                    "duration": 0.05208333333334281
                },
                {
                    "name": "E4",
                    "midi": 64,
                    "time": 103.01874999999983,
                    "velocity": 0.5984251968503937,
                    "duration": 0.04375000000000284
                },
                {
                    "name": "G#5",
                    "midi": 80,
                    "time": 103.03124999999983,
                    "velocity": 0.8110236220472441,
                    "duration": 0.09791666666666288
                },
                {
                    "name": "C#6",
                    "midi": 85,
                    "time": 103.18749999999983,
                    "velocity": 0.7874015748031497,
                    "duration": 0.09583333333333144
                },
                {
                    "name": "G#3",
                    "midi": 56,
                    "time": 103.27083333333316,
                    "velocity": 0.5196850393700787,
                    "duration": 0.22083333333334565
                },
                {
                    "name": "C#4",
                    "midi": 61,
                    "time": 103.34374999999984,
                    "velocity": 0.5905511811023622,
                    "duration": 0.125
                },
                {
                    "name": "E4",
                    "midi": 64,
                    "time": 103.37499999999984,
                    "velocity": 0.5354330708661418,
                    "duration": 0.0625
                },
                {
                    "name": "G#4",
                    "midi": 68,
                    "time": 103.39583333333317,
                    "velocity": 0.7401574803149606,
                    "duration": 0.039583333333339965
                },
                {
                    "name": "B5",
                    "midi": 83,
                    "time": 103.47083333333318,
                    "velocity": 0.6220472440944882,
                    "duration": 0.2041666666666515
                },
                {
                    "name": "C#5",
                    "midi": 73,
                    "time": 103.4979166666665,
                    "velocity": 0.5196850393700787,
                    "duration": 0.09791666666666288
                },
                {
                    "name": "E5",
                    "midi": 76,
                    "time": 103.4979166666665,
                    "velocity": 0.5590551181102362,
                    "duration": 0.1770833333333286
                },
                {
                    "name": "A5",
                    "midi": 81,
                    "time": 103.64999999999982,
                    "velocity": 0.7322834645669292,
                    "duration": 0.3479166666666771
                },
                {
                    "name": "C#2",
                    "midi": 37,
                    "time": 103.69791666666649,
                    "velocity": 0.5275590551181102,
                    "duration": 0.1041666666666714
                },
                {
                    "name": "C#3",
                    "midi": 49,
                    "time": 103.78541666666649,
                    "velocity": 0.6692913385826772,
                    "duration": 0.056250000000005684
                },
                {
                    "name": "F#4",
                    "midi": 66,
                    "time": 103.99583333333317,
                    "velocity": 0.7716535433070866,
                    "duration": 0.06874999999999432
                },
                {
                    "name": "B5",
                    "midi": 83,
                    "time": 104.0166666666665,
                    "velocity": 0.6850393700787402,
                    "duration": 0.125
                },
                {
                    "name": "D5",
                    "midi": 74,
                    "time": 104.02708333333317,
                    "velocity": 0.6692913385826772,
                    "duration": 0.0833333333333286
                },
                {
                    "name": "E5",
                    "midi": 76,
                    "time": 104.5604166666665,
                    "velocity": 0.5354330708661418,
                    "duration": 0.1833333333333229
                },
                {
                    "name": "A5",
                    "midi": 81,
                    "time": 104.56666666666649,
                    "velocity": 0.5118110236220472,
                    "duration": 0.1979166666666572
                },
                {
                    "name": "B5",
                    "midi": 83,
                    "time": 104.56874999999982,
                    "velocity": 0.6377952755905512,
                    "duration": 0.14791666666666003
                },
                {
                    "name": "F#5",
                    "midi": 78,
                    "time": 104.84374999999982,
                    "velocity": 0.7165354330708661,
                    "duration": 0.1041666666666714
                },
                {
                    "name": "B4",
                    "midi": 71,
                    "time": 105.03541666666649,
                    "velocity": 0.5826771653543307,
                    "duration": 0.17499999999999716
                },
                {
                    "name": "G#5",
                    "midi": 80,
                    "time": 105.05208333333316,
                    "velocity": 0.6929133858267716,
                    "duration": 0.054166666666660035
                },
                {
                    "name": "D5",
                    "midi": 74,
                    "time": 105.06874999999982,
                    "velocity": 0.5590551181102362,
                    "duration": 0.07916666666666572
                },
                {
                    "name": "F#4",
                    "midi": 66,
                    "time": 105.20208333333315,
                    "velocity": 0.7086614173228346,
                    "duration": 0.125
                },
                {
                    "name": "A4",
                    "midi": 69,
                    "time": 105.40416666666648,
                    "velocity": 0.6456692913385826,
                    "duration": 0.09166666666666856
                },
                {
                    "name": "F#4",
                    "midi": 66,
                    "time": 105.40416666666648,
                    "velocity": 0.7322834645669292,
                    "duration": 0.14374999999999716
                },
                {
                    "name": "B4",
                    "midi": 71,
                    "time": 105.56458333333315,
                    "velocity": 0.7795275590551181,
                    "duration": 0.21666666666666856
                },
                {
                    "name": "D4",
                    "midi": 62,
                    "time": 105.76458333333315,
                    "velocity": 0.7165354330708661,
                    "duration": 0.07708333333332007
                },
                {
                    "name": "F#5",
                    "midi": 78,
                    "time": 105.78749999999981,
                    "velocity": 0.7637795275590551,
                    "duration": 0.09583333333333144
                },
                {
                    "name": "B5",
                    "midi": 83,
                    "time": 105.94374999999981,
                    "velocity": 0.7874015748031497,
                    "duration": 0.11041666666666572
                },
                {
                    "name": "F#3",
                    "midi": 54,
                    "time": 106.08541666666648,
                    "velocity": 0.5748031496062992,
                    "duration": 0.21041666666666003
                },
                {
                    "name": "B3",
                    "midi": 59,
                    "time": 106.13333333333314,
                    "velocity": 0.48031496062992124,
                    "duration": 0.13958333333333428
                },
                {
                    "name": "D4",
                    "midi": 62,
                    "time": 106.16458333333314,
                    "velocity": 0.6456692913385826,
                    "duration": 0.0833333333333286
                },
                {
                    "name": "F#4",
                    "midi": 66,
                    "time": 106.17916666666648,
                    "velocity": 0.7401574803149606,
                    "duration": 0.05833333333332291
                },
                {
                    "name": "A5",
                    "midi": 81,
                    "time": 106.1812499999998,
                    "velocity": 0.7165354330708661,
                    "duration": 0.12291666666666856
                },
                {
                    "name": "D5",
                    "midi": 74,
                    "time": 106.18541666666647,
                    "velocity": 0.6220472440944882,
                    "duration": 0.15000000000000568
                },
                {
                    "name": "B4",
                    "midi": 71,
                    "time": 106.19166666666646,
                    "velocity": 0.5590551181102362,
                    "duration": 0.15416666666668277
                },
                {
                    "name": "G#5",
                    "midi": 80,
                    "time": 106.38124999999981,
                    "velocity": 0.7795275590551181,
                    "duration": 0.30416666666667425
                },
                {
                    "name": "C#2",
                    "midi": 37,
                    "time": 106.5749999999998,
                    "velocity": 0.6771653543307087,
                    "duration": 0.12708333333334565
                },
                {
                    "name": "C#3",
                    "midi": 49,
                    "time": 106.67499999999981,
                    "velocity": 0.6929133858267716,
                    "duration": 0.06666666666667709
                },
                {
                    "name": "A5",
                    "midi": 81,
                    "time": 106.86874999999982,
                    "velocity": 0.7086614173228346,
                    "duration": 0.3687500000000057
                },
                {
                    "name": "C#5",
                    "midi": 73,
                    "time": 106.87708333333316,
                    "velocity": 0.6299212598425197,
                    "duration": 0.4270833333333286
                },
                {
                    "name": "E4",
                    "midi": 64,
                    "time": 106.8916666666665,
                    "velocity": 0.6850393700787402,
                    "duration": 0.06874999999999432
                },
                {
                    "name": "G#5",
                    "midi": 80,
                    "time": 107.20833333333316,
                    "velocity": 0.7795275590551181,
                    "duration": 0.12291666666666856
                },
                {
                    "name": "D4",
                    "midi": 62,
                    "time": 107.45624999999983,
                    "velocity": 0.7007874015748031,
                    "duration": 1.9354166666666828
                },
                {
                    "name": "F#5",
                    "midi": 78,
                    "time": 107.47083333333316,
                    "velocity": 0.7559055118110236,
                    "duration": 0.2750000000000057
                },
                {
                    "name": "C#5",
                    "midi": 73,
                    "time": 107.4791666666665,
                    "velocity": 0.6929133858267716,
                    "duration": 0.15833333333333144
                },
                {
                    "name": "E5",
                    "midi": 76,
                    "time": 107.6666666666665,
                    "velocity": 0.7795275590551181,
                    "duration": 0.24583333333333712
                },
                {
                    "name": "F#5",
                    "midi": 78,
                    "time": 107.86874999999984,
                    "velocity": 0.8267716535433071,
                    "duration": 0.15833333333333144
                },
                {
                    "name": "E5",
                    "midi": 76,
                    "time": 108.05624999999984,
                    "velocity": 0.8346456692913385,
                    "duration": 0.11875000000000568
                },
                {
                    "name": "F#4",
                    "midi": 66,
                    "time": 108.25208333333318,
                    "velocity": 0.5590551181102362,
                    "duration": 1.0750000000000028
                },
                {
                    "name": "D5",
                    "midi": 74,
                    "time": 108.26874999999984,
                    "velocity": 0.7795275590551181,
                    "duration": 0.10208333333332575
                },
                {
                    "name": "B4",
                    "midi": 71,
                    "time": 108.2854166666665,
                    "velocity": 0.5984251968503937,
                    "duration": 0.04999999999999716
                },
                {
                    "name": "A4",
                    "midi": 69,
                    "time": 108.43958333333316,
                    "velocity": 0.6692913385826772,
                    "duration": 0.07916666666667993
                },
                {
                    "name": "C#5",
                    "midi": 73,
                    "time": 108.4479166666665,
                    "velocity": 0.7795275590551181,
                    "duration": 0.15625
                },
                {
                    "name": "G#4",
                    "midi": 68,
                    "time": 108.72083333333318,
                    "velocity": 0.7637795275590551,
                    "duration": 0.36249999999999716
                },
                {
                    "name": "B4",
                    "midi": 71,
                    "time": 108.7291666666665,
                    "velocity": 0.7086614173228346,
                    "duration": 0.09791666666666288
                },
                {
                    "name": "C#5",
                    "midi": 73,
                    "time": 108.80624999999984,
                    "velocity": 0.7165354330708661,
                    "duration": 0.09583333333333144
                },
                {
                    "name": "B4",
                    "midi": 71,
                    "time": 108.8916666666665,
                    "velocity": 0.4251968503937008,
                    "duration": 0.34583333333334565
                },
                {
                    "name": "A4",
                    "midi": 69,
                    "time": 109.1979166666665,
                    "velocity": 0.6771653543307087,
                    "duration": 0.17500000000001137
                },
                {
                    "name": "B4",
                    "midi": 71,
                    "time": 109.35624999999985,
                    "velocity": 0.6377952755905512,
                    "duration": 0.17291666666666572
                },
                {
                    "name": "C#4",
                    "midi": 61,
                    "time": 109.67499999999984,
                    "velocity": 0.4566929133858268,
                    "duration": 0.1562499999999858
                },
                {
                    "name": "C#5",
                    "midi": 73,
                    "time": 109.68333333333318,
                    "velocity": 0.6614173228346457,
                    "duration": 0.11458333333331439
                },
                {
                    "name": "G#4",
                    "midi": 68,
                    "time": 109.68958333333318,
                    "velocity": 0.5590551181102362,
                    "duration": 0.11041666666665151
                },
                {
                    "name": "E4",
                    "midi": 64,
                    "time": 109.69374999999984,
                    "velocity": 0.23622047244094488,
                    "duration": 0.13333333333332575
                },
                {
                    "name": "C#4",
                    "midi": 61,
                    "time": 110.36249999999983,
                    "velocity": 0.6929133858267716,
                    "duration": 0.5437499999999886
                },
                {
                    "name": "F#3",
                    "midi": 54,
                    "time": 110.38333333333316,
                    "velocity": 0.49606299212598426,
                    "duration": 0.23541666666666572
                },
                {
                    "name": "A3",
                    "midi": 57,
                    "time": 110.3916666666665,
                    "velocity": 0.44881889763779526,
                    "duration": 0.43541666666665435
                },
                {
                    "name": "A2",
                    "midi": 45,
                    "time": 110.39374999999983,
                    "velocity": 0.3779527559055118,
                    "duration": 0.4895833333333286
                },
                {
                    "name": "D3",
                    "midi": 50,
                    "time": 110.82916666666648,
                    "velocity": 0.5984251968503937,
                    "duration": 0.07916666666666572
                },
                {
                    "name": "G3",
                    "midi": 55,
                    "time": 110.84583333333315,
                    "velocity": 0.5905511811023622,
                    "duration": 0.1145833333333286
                },
                {
                    "name": "E3",
                    "midi": 52,
                    "time": 110.84999999999981,
                    "velocity": 0.5748031496062992,
                    "duration": 0.09166666666666856
                },
                {
                    "name": "A3",
                    "midi": 57,
                    "time": 111.02083333333314,
                    "velocity": 0.6456692913385826,
                    "duration": 0.13333333333332575
                },
                {
                    "name": "B3",
                    "midi": 59,
                    "time": 111.22499999999981,
                    "velocity": 0.7244094488188977,
                    "duration": 0.13124999999999432
                },
                {
                    "name": "A2",
                    "midi": 45,
                    "time": 111.22708333333314,
                    "velocity": 0.6220472440944882,
                    "duration": 0.06666666666667709
                },
                {
                    "name": "G3",
                    "midi": 55,
                    "time": 111.23749999999981,
                    "velocity": 0.5590551181102362,
                    "duration": 0.06666666666666288
                },
                {
                    "name": "E3",
                    "midi": 52,
                    "time": 111.24583333333315,
                    "velocity": 0.4881889763779528,
                    "duration": 0.054166666666660035
                },
                {
                    "name": "C#4",
                    "midi": 61,
                    "time": 111.39791666666648,
                    "velocity": 0.7401574803149606,
                    "duration": 0.10833333333333428
                },
                {
                    "name": "E3",
                    "midi": 52,
                    "time": 111.40208333333314,
                    "velocity": 0.33070866141732286,
                    "duration": 0.05000000000001137
                },
                {
                    "name": "C#4",
                    "midi": 61,
                    "time": 111.61249999999981,
                    "velocity": 0.8188976377952756,
                    "duration": 0.10416666666664298
                },
                {
                    "name": "C#2",
                    "midi": 37,
                    "time": 111.61458333333314,
                    "velocity": 0.6299212598425197,
                    "duration": 0.04999999999998295
                },
                {
                    "name": "G#2",
                    "midi": 44,
                    "time": 111.62083333333314,
                    "velocity": 0.6141732283464567,
                    "duration": 0.04374999999998863
                },
                {
                    "name": "E3",
                    "midi": 52,
                    "time": 111.62708333333313,
                    "velocity": 0.6377952755905512,
                    "duration": 0.04374999999998863
                },
                {
                    "name": "G#3",
                    "midi": 56,
                    "time": 111.6312499999998,
                    "velocity": 0.6692913385826772,
                    "duration": 0.06458333333333144
                },
                {
                    "name": "B4",
                    "midi": 71,
                    "time": 112.14166666666645,
                    "velocity": 0.9133858267716536,
                    "duration": 0.518749999999983
                },
                {
                    "name": "D3",
                    "midi": 50,
                    "time": 112.14791666666645,
                    "velocity": 0.8976377952755905,
                    "duration": 0.43958333333333144
                },
                {
                    "name": "A4",
                    "midi": 69,
                    "time": 112.14791666666645,
                    "velocity": 0.8110236220472441,
                    "duration": 0.18333333333333712
                },
                {
                    "name": "D4",
                    "midi": 62,
                    "time": 112.14999999999978,
                    "velocity": 0.889763779527559,
                    "duration": 0.06041666666666856
                },
                {
                    "name": "F#4",
                    "midi": 66,
                    "time": 112.15416666666644,
                    "velocity": 0.8503937007874016,
                    "duration": 0.11666666666667425
                },
                {
                    "name": "G4",
                    "midi": 67,
                    "time": 112.59791666666645,
                    "velocity": 0.7007874015748031,
                    "duration": 0.1145833333333286
                },
                {
                    "name": "G3",
                    "midi": 55,
                    "time": 112.59791666666645,
                    "velocity": 0.8031496062992126,
                    "duration": 0.08124999999999716
                },
                {
                    "name": "C4",
                    "midi": 60,
                    "time": 112.60833333333312,
                    "velocity": 0.7007874015748031,
                    "duration": 0.06041666666665435
                },
                {
                    "name": "E4",
                    "midi": 64,
                    "time": 112.61666666666645,
                    "velocity": 0.6614173228346457,
                    "duration": 0.06458333333333144
                },
                {
                    "name": "G4",
                    "midi": 67,
                    "time": 112.81458333333312,
                    "velocity": 0.8503937007874016,
                    "duration": 0.10208333333333997
                },
                {
                    "name": "A4",
                    "midi": 69,
                    "time": 113.04374999999979,
                    "velocity": 0.8740157480314961,
                    "duration": 0.11666666666664582
                },
                {
                    "name": "F#4",
                    "midi": 66,
                    "time": 113.04583333333312,
                    "velocity": 0.8818897637795275,
                    "duration": 0.11666666666664582
                },
                {
                    "name": "D3",
                    "midi": 50,
                    "time": 113.04999999999978,
                    "velocity": 0.8818897637795275,
                    "duration": 0.09374999999998579
                },
                {
                    "name": "E4",
                    "midi": 64,
                    "time": 113.05624999999978,
                    "velocity": 0.7795275590551181,
                    "duration": 0.05833333333332291
                },
                {
                    "name": "C4",
                    "midi": 60,
                    "time": 113.06249999999977,
                    "velocity": 0.6614173228346457,
                    "duration": 0.03333333333333144
                },
                {
                    "name": "B4",
                    "midi": 71,
                    "time": 113.2583333333331,
                    "velocity": 0.8503937007874016,
                    "duration": 0.13750000000000284
                },
                {
                    "name": "B4",
                    "midi": 71,
                    "time": 113.47499999999977,
                    "velocity": 0.84251968503937,
                    "duration": 0.07291666666664298
                },
                {
                    "name": "F#3",
                    "midi": 54,
                    "time": 113.4770833333331,
                    "velocity": 0.9291338582677166,
                    "duration": 0.06249999999998579
                },
                {
                    "name": "F#4",
                    "midi": 66,
                    "time": 113.47916666666643,
                    "velocity": 0.8661417322834646,
                    "duration": 0.06666666666664867
                },
                {
                    "name": "B2",
                    "midi": 47,
                    "time": 113.48124999999976,
                    "velocity": 0.7637795275590551,
                    "duration": 0.07916666666665151
                },
                {
                    "name": "D4",
                    "midi": 62,
                    "time": 113.48333333333309,
                    "velocity": 0.8346456692913385,
                    "duration": 0.037499999999994316
                },
                {
                    "name": "C#4",
                    "midi": 61,
                    "time": 113.99374999999975,
                    "velocity": 0.7559055118110236,
                    "duration": 0.520833333333286
                },
                {
                    "name": "A2",
                    "midi": 45,
                    "time": 113.99791666666641,
                    "velocity": 0.2755905511811024,
                    "duration": 0.4812499999999602
                },
                {
                    "name": "A3",
                    "midi": 57,
                    "time": 114.02083333333307,
                    "velocity": 0.47244094488188976,
                    "duration": 0.3999999999999915
                },
                {
                    "name": "F#3",
                    "midi": 54,
                    "time": 114.03124999999974,
                    "velocity": 0.5511811023622047,
                    "duration": 0.17916666666666003
                },
                {
                    "name": "D3",
                    "midi": 50,
                    "time": 114.42708333333306,
                    "velocity": 0.5354330708661418,
                    "duration": 0.06666666666664867
                },
                {
                    "name": "E3",
                    "midi": 52,
                    "time": 114.44999999999972,
                    "velocity": 0.5118110236220472,
                    "duration": 0.08333333333331439
                },
                {
                    "name": "G3",
                    "midi": 55,
                    "time": 114.45624999999971,
                    "velocity": 0.4645669291338583,
                    "duration": 0.11249999999998295
                },
                {
                    "name": "A3",
                    "midi": 57,
                    "time": 114.60833333333304,
                    "velocity": 0.6141732283464567,
                    "duration": 0.16458333333333997
                },
                {
                    "name": "B3",
                    "midi": 59,
                    "time": 114.81874999999971,
                    "velocity": 0.7401574803149606,
                    "duration": 0.1833333333333087
                },
                {
                    "name": "A2",
                    "midi": 45,
                    "time": 114.82291666666637,
                    "velocity": 0.6456692913385826,
                    "duration": 0.05833333333332291
                },
                {
                    "name": "G3",
                    "midi": 55,
                    "time": 114.83749999999971,
                    "velocity": 0.49606299212598426,
                    "duration": 0.06666666666664867
                },
                {
                    "name": "E3",
                    "midi": 52,
                    "time": 114.8437499999997,
                    "velocity": 0.47244094488188976,
                    "duration": 0.056249999999991473
                },
                {
                    "name": "C#4",
                    "midi": 61,
                    "time": 114.98749999999968,
                    "velocity": 0.7559055118110236,
                    "duration": 0.11875000000000568
                },
                {
                    "name": "C#2",
                    "midi": 37,
                    "time": 115.19374999999968,
                    "velocity": 0.6692913385826772,
                    "duration": 0.05000000000001137
                },
                {
                    "name": "C#4",
                    "midi": 61,
                    "time": 115.19374999999968,
                    "velocity": 0.8188976377952756,
                    "duration": 0.10625000000000284
                },
                {
                    "name": "G#2",
                    "midi": 44,
                    "time": 115.19374999999968,
                    "velocity": 0.7086614173228346,
                    "duration": 0.056250000000005684
                },
                {
                    "name": "G#3",
                    "midi": 56,
                    "time": 115.20208333333302,
                    "velocity": 0.7559055118110236,
                    "duration": 0.08124999999999716
                },
                {
                    "name": "E3",
                    "midi": 52,
                    "time": 115.20208333333302,
                    "velocity": 0.6850393700787402,
                    "duration": 0.04791666666666572
                },
                {
                    "name": "B4",
                    "midi": 71,
                    "time": 115.63541666666636,
                    "velocity": 0.8976377952755905,
                    "duration": 0.48749999999996874
                },
                {
                    "name": "D3",
                    "midi": 50,
                    "time": 115.63749999999969,
                    "velocity": 0.9448818897637795,
                    "duration": 0.4333333333333087
                },
                {
                    "name": "A4",
                    "midi": 69,
                    "time": 115.63749999999969,
                    "velocity": 0.8346456692913385,
                    "duration": 0.16874999999998863
                },
                {
                    "name": "D4",
                    "midi": 62,
                    "time": 115.64166666666635,
                    "velocity": 0.9133858267716536,
                    "duration": 0.05833333333333712
                },
                {
                    "name": "F#4",
                    "midi": 66,
                    "time": 115.64374999999968,
                    "velocity": 0.905511811023622,
                    "duration": 0.09375
                },
                {
                    "name": "G3",
                    "midi": 55,
                    "time": 116.05624999999968,
                    "velocity": 0.8503937007874016,
                    "duration": 0.08541666666666003
                },
                {
                    "name": "G4",
                    "midi": 67,
                    "time": 116.06041666666634,
                    "velocity": 0.6929133858267716,
                    "duration": 0.11249999999999716
                },
                {
                    "name": "C4",
                    "midi": 60,
                    "time": 116.064583333333,
                    "velocity": 0.7401574803149606,
                    "duration": 0.06666666666666288
                },
                {
                    "name": "E4",
                    "midi": 64,
                    "time": 116.06666666666634,
                    "velocity": 0.7244094488188977,
                    "duration": 0.08124999999999716
                },
                {
                    "name": "G4",
                    "midi": 67,
                    "time": 116.25416666666634,
                    "velocity": 0.84251968503937,
                    "duration": 0.1145833333333286
                },
                {
                    "name": "A4",
                    "midi": 69,
                    "time": 116.46874999999966,
                    "velocity": 0.889763779527559,
                    "duration": 0.11249999999999716
                },
                {
                    "name": "F#4",
                    "midi": 66,
                    "time": 116.477083333333,
                    "velocity": 0.8503937007874016,
                    "duration": 0.11249999999999716
                },
                {
                    "name": "D3",
                    "midi": 50,
                    "time": 116.47916666666633,
                    "velocity": 0.9448818897637795,
                    "duration": 0.10208333333332575
                },
                {
                    "name": "E4",
                    "midi": 64,
                    "time": 116.483333333333,
                    "velocity": 0.7952755905511811,
                    "duration": 0.07708333333333428
                },
                {
                    "name": "C4",
                    "midi": 60,
                    "time": 116.48541666666632,
                    "velocity": 0.7637795275590551,
                    "duration": 0.04583333333333428
                },
                {
                    "name": "B4",
                    "midi": 71,
                    "time": 116.664583333333,
                    "velocity": 0.8188976377952756,
                    "duration": 0.12916666666666288
                },
                {
                    "name": "F#3",
                    "midi": 54,
                    "time": 116.89374999999966,
                    "velocity": 0.9291338582677166,
                    "duration": 0.04999999999999716
                },
                {
                    "name": "B2",
                    "midi": 47,
                    "time": 116.89374999999966,
                    "velocity": 0.8346456692913385,
                    "duration": 0.07708333333333428
                },
                {
                    "name": "B4",
                    "midi": 71,
                    "time": 116.89583333333299,
                    "velocity": 0.8582677165354331,
                    "duration": 0.07916666666666572
                },
                {
                    "name": "F#4",
                    "midi": 66,
                    "time": 116.89791666666632,
                    "velocity": 0.8582677165354331,
                    "duration": 0.07708333333333428
                },
                {
                    "name": "D4",
                    "midi": 62,
                    "time": 116.89999999999965,
                    "velocity": 0.8740157480314961,
                    "duration": 0.05833333333333712
                },
                {
                    "name": "B0",
                    "midi": 23,
                    "time": 117.47916666666632,
                    "velocity": 0.6614173228346457,
                    "duration": 0.09583333333333144
                },
                {
                    "name": "B1",
                    "midi": 35,
                    "time": 117.49166666666632,
                    "velocity": 0.5669291338582677,
                    "duration": 0.08541666666666003
                },
                {
                    "name": "F#4",
                    "midi": 66,
                    "time": 117.49166666666632,
                    "velocity": 0.7165354330708661,
                    "duration": 0.6354166666666856
                },
                {
                    "name": "D4",
                    "midi": 62,
                    "time": 117.50416666666632,
                    "velocity": 0.6456692913385826,
                    "duration": 0.5875000000000199
                },
                {
                    "name": "B3",
                    "midi": 59,
                    "time": 117.50833333333298,
                    "velocity": 0.5433070866141733,
                    "duration": 0.33125000000001137
                },
                {
                    "name": "C#2",
                    "midi": 37,
                    "time": 117.78958333333298,
                    "velocity": 0.6141732283464567,
                    "duration": 0.09583333333334565
                },
                {
                    "name": "C#1",
                    "midi": 25,
                    "time": 117.79791666666632,
                    "velocity": 0.5984251968503937,
                    "duration": 0.09791666666667709
                },
                {
                    "name": "C#4",
                    "midi": 61,
                    "time": 118.03749999999967,
                    "velocity": 0.8188976377952756,
                    "duration": 0.08333333333334281
                },
                {
                    "name": "A3",
                    "midi": 57,
                    "time": 118.04374999999966,
                    "velocity": 0.6771653543307087,
                    "duration": 0.04791666666667993
                },
                {
                    "name": "D2",
                    "midi": 38,
                    "time": 118.04374999999966,
                    "velocity": 0.6850393700787402,
                    "duration": 0.06875000000000853
                },
                {
                    "name": "D1",
                    "midi": 26,
                    "time": 118.04374999999966,
                    "velocity": 0.6299212598425197,
                    "duration": 0.06666666666667709
                },
                {
                    "name": "E2",
                    "midi": 40,
                    "time": 118.227083333333,
                    "velocity": 0.8031496062992126,
                    "duration": 0.06875000000000853
                },
                {
                    "name": "E1",
                    "midi": 28,
                    "time": 118.22916666666633,
                    "velocity": 0.8031496062992126,
                    "duration": 0.05833333333333712
                },
                {
                    "name": "A4",
                    "midi": 69,
                    "time": 118.46249999999966,
                    "velocity": 0.8818897637795275,
                    "duration": 0.47708333333332575
                },
                {
                    "name": "F#2",
                    "midi": 42,
                    "time": 118.464583333333,
                    "velocity": 0.8110236220472441,
                    "duration": 0.07291666666665719
                },
                {
                    "name": "F#4",
                    "midi": 66,
                    "time": 118.46874999999966,
                    "velocity": 0.84251968503937,
                    "duration": 0.1520833333333229
                },
                {
                    "name": "F#1",
                    "midi": 30,
                    "time": 118.47083333333299,
                    "velocity": 0.7637795275590551,
                    "duration": 0.07708333333333428
                },
                {
                    "name": "D4",
                    "midi": 62,
                    "time": 118.47083333333299,
                    "velocity": 0.8582677165354331,
                    "duration": 0.09999999999999432
                },
                {
                    "name": "G2",
                    "midi": 43,
                    "time": 118.66041666666632,
                    "velocity": 0.7007874015748031,
                    "duration": 0.07500000000000284
                },
                {
                    "name": "G1",
                    "midi": 31,
                    "time": 118.66249999999965,
                    "velocity": 0.6771653543307087,
                    "duration": 0.056250000000005684
                },
                {
                    "name": "C#4",
                    "midi": 61,
                    "time": 118.88124999999967,
                    "velocity": 0.6929133858267716,
                    "duration": 0.05833333333332291
                },
                {
                    "name": "E4",
                    "midi": 64,
                    "time": 118.883333333333,
                    "velocity": 0.6771653543307087,
                    "duration": 0.08124999999998295
                },
                {
                    "name": "A2",
                    "midi": 45,
                    "time": 118.88541666666633,
                    "velocity": 0.7952755905511811,
                    "duration": 0.05833333333332291
                },
                {
                    "name": "A1",
                    "midi": 33,
                    "time": 118.89166666666632,
                    "velocity": 0.8346456692913385,
                    "duration": 0.04375000000000284
                },
                {
                    "name": "B2",
                    "midi": 47,
                    "time": 119.05208333333299,
                    "velocity": 0.8582677165354331,
                    "duration": 0.0625
                },
                {
                    "name": "B1",
                    "midi": 35,
                    "time": 119.05416666666632,
                    "velocity": 0.8976377952755905,
                    "duration": 0.056250000000005684
                },
                {
                    "name": "A2",
                    "midi": 45,
                    "time": 119.07916666666632,
                    "velocity": 0.4645669291338583,
                    "duration": 0.052083333333328596
                },
                {
                    "name": "C#3",
                    "midi": 49,
                    "time": 119.27499999999965,
                    "velocity": 0.9291338582677166,
                    "duration": 0.07708333333333428
                },
                {
                    "name": "C#2",
                    "midi": 37,
                    "time": 119.27708333333298,
                    "velocity": 0.905511811023622,
                    "duration": 0.07500000000000284
                },
                {
                    "name": "C#5",
                    "midi": 73,
                    "time": 119.27916666666631,
                    "velocity": 0.905511811023622,
                    "duration": 0.4645833333333229
                },
                {
                    "name": "F#4",
                    "midi": 66,
                    "time": 119.28958333333298,
                    "velocity": 0.8661417322834646,
                    "duration": 0.1666666666666572
                },
                {
                    "name": "A4",
                    "midi": 69,
                    "time": 119.29166666666632,
                    "velocity": 0.7716535433070866,
                    "duration": 0.3458333333333172
                },
                {
                    "name": "D3",
                    "midi": 50,
                    "time": 119.45208333333298,
                    "velocity": 0.8346456692913385,
                    "duration": 0.07083333333333997
                },
                {
                    "name": "D2",
                    "midi": 38,
                    "time": 119.45416666666631,
                    "velocity": 0.8031496062992126,
                    "duration": 0.06041666666666856
                },
                {
                    "name": "E3",
                    "midi": 52,
                    "time": 119.66249999999964,
                    "velocity": 0.8740157480314961,
                    "duration": 0.06458333333333144
                },
                {
                    "name": "E2",
                    "midi": 40,
                    "time": 119.6666666666663,
                    "velocity": 0.8582677165354331,
                    "duration": 0.0625
                },
                {
                    "name": "G4",
                    "midi": 67,
                    "time": 119.67708333333297,
                    "velocity": 0.6850393700787402,
                    "duration": 0.0625
                },
                {
                    "name": "E4",
                    "midi": 64,
                    "time": 119.68541666666631,
                    "velocity": 0.6062992125984252,
                    "duration": 0.037499999999994316
                },
                {
                    "name": "F#3",
                    "midi": 54,
                    "time": 119.85833333333296,
                    "velocity": 0.8976377952755905,
                    "duration": 0.06249999999998579
                },
                {
                    "name": "F#2",
                    "midi": 42,
                    "time": 119.86458333333296,
                    "velocity": 0.889763779527559,
                    "duration": 0.052083333333328596
                },
                {
                    "name": "F#5",
                    "midi": 78,
                    "time": 120.06249999999962,
                    "velocity": 0.8976377952755905,
                    "duration": 0.7604166666666003
                },
                {
                    "name": "D5",
                    "midi": 74,
                    "time": 120.07083333333296,
                    "velocity": 0.8110236220472441,
                    "duration": 0.4333333333332803
                },
                {
                    "name": "B4",
                    "midi": 71,
                    "time": 120.07291666666629,
                    "velocity": 0.8031496062992126,
                    "duration": 0.1624999999999801
                },
                {
                    "name": "G3",
                    "midi": 55,
                    "time": 120.07499999999962,
                    "velocity": 0.8582677165354331,
                    "duration": 0.06458333333331723
                },
                {
                    "name": "G2",
                    "midi": 43,
                    "time": 120.07708333333295,
                    "velocity": 0.8740157480314961,
                    "duration": 0.06249999999998579
                },
                {
                    "name": "A3",
                    "midi": 57,
                    "time": 120.25208333333293,
                    "velocity": 0.8740157480314961,
                    "duration": 0.07083333333332575
                },
                {
                    "name": "A2",
                    "midi": 45,
                    "time": 120.25416666666626,
                    "velocity": 0.8582677165354331,
                    "duration": 0.0625
                },
                {
                    "name": "B3",
                    "midi": 59,
                    "time": 120.46874999999957,
                    "velocity": 0.889763779527559,
                    "duration": 0.06666666666666288
                },
                {
                    "name": "B2",
                    "midi": 47,
                    "time": 120.4708333333329,
                    "velocity": 0.8582677165354331,
                    "duration": 0.06458333333333144
                },
                {
                    "name": "C#5",
                    "midi": 73,
                    "time": 120.47291666666624,
                    "velocity": 0.8267716535433071,
                    "duration": 0.13124999999999432
                },
                {
                    "name": "A4",
                    "midi": 69,
                    "time": 120.4770833333329,
                    "velocity": 0.7952755905511811,
                    "duration": 0.13124999999999432
                },
                {
                    "name": "C#4",
                    "midi": 61,
                    "time": 120.66666666666623,
                    "velocity": 0.9291338582677166,
                    "duration": 0.07916666666666572
                },
                {
                    "name": "C#3",
                    "midi": 49,
                    "time": 120.67291666666623,
                    "velocity": 0.8976377952755905,
                    "duration": 0.06041666666666856
                },
                {
                    "name": "F#5",
                    "midi": 78,
                    "time": 120.88749999999955,
                    "velocity": 0.6614173228346457,
                    "duration": 0.6375000000000028
                },
                {
                    "name": "B4",
                    "midi": 71,
                    "time": 120.88958333333288,
                    "velocity": 0.8031496062992126,
                    "duration": 0.1354166666666572
                },
                {
                    "name": "D4",
                    "midi": 62,
                    "time": 120.89166666666621,
                    "velocity": 0.8976377952755905,
                    "duration": 0.06666666666666288
                },
                {
                    "name": "D3",
                    "midi": 50,
                    "time": 120.89583333333287,
                    "velocity": 0.8818897637795275,
                    "duration": 0.056250000000005684
                },
                {
                    "name": "E4",
                    "midi": 64,
                    "time": 121.09374999999953,
                    "velocity": 0.9133858267716536,
                    "duration": 0.07083333333333997
                },
                {
                    "name": "E3",
                    "midi": 52,
                    "time": 121.09583333333286,
                    "velocity": 0.9133858267716536,
                    "duration": 0.05833333333333712
                },
                {
                    "name": "A4",
                    "midi": 69,
                    "time": 121.37916666666621,
                    "velocity": 0.8976377952755905,
                    "duration": 0.20625000000001137
                },
                {
                    "name": "F#4",
                    "midi": 66,
                    "time": 121.38124999999954,
                    "velocity": 0.9133858267716536,
                    "duration": 0.6145833333333428
                },
                {
                    "name": "F#3",
                    "midi": 54,
                    "time": 121.38749999999953,
                    "velocity": 0.8346456692913385,
                    "duration": 0.6791666666666885
                },
                {
                    "name": "A5",
                    "midi": 81,
                    "time": 121.94999999999955,
                    "velocity": 1,
                    "duration": 0.6104166666666657
                },
                {
                    "name": "B3",
                    "midi": 59,
                    "time": 122.47499999999955,
                    "velocity": 0.889763779527559,
                    "duration": 0.2708333333333144
                },
                {
                    "name": "D5",
                    "midi": 74,
                    "time": 122.47916666666622,
                    "velocity": 0.7874015748031497,
                    "duration": 0.3020833333333144
                },
                {
                    "name": "A4",
                    "midi": 69,
                    "time": 122.47916666666622,
                    "velocity": 0.7007874015748031,
                    "duration": 0.1979166666666572
                },
                {
                    "name": "B2",
                    "midi": 47,
                    "time": 122.47916666666622,
                    "velocity": 0.8582677165354331,
                    "duration": 0.21041666666666003
                },
                {
                    "name": "B4",
                    "midi": 71,
                    "time": 122.50833333333289,
                    "velocity": 0.44881889763779526,
                    "duration": 0.16458333333332575
                },
                {
                    "name": "G5",
                    "midi": 79,
                    "time": 122.72499999999954,
                    "velocity": 0.8661417322834646,
                    "duration": 0.20624999999999716
                },
                {
                    "name": "F#5",
                    "midi": 78,
                    "time": 122.97499999999954,
                    "velocity": 0.8188976377952756,
                    "duration": 0.22291666666666288
                },
                {
                    "name": "E4",
                    "midi": 64,
                    "time": 122.97708333333287,
                    "velocity": 0.8818897637795275,
                    "duration": 0.07916666666667993
                },
                {
                    "name": "E3",
                    "midi": 52,
                    "time": 122.97708333333287,
                    "velocity": 0.8110236220472441,
                    "duration": 0.11458333333334281
                },
                {
                    "name": "D5",
                    "midi": 74,
                    "time": 122.98541666666621,
                    "velocity": 0.8031496062992126,
                    "duration": 0.14791666666666003
                },
                {
                    "name": "G4",
                    "midi": 67,
                    "time": 122.98749999999954,
                    "velocity": 0.8582677165354331,
                    "duration": 0.13958333333333428
                },
                {
                    "name": "E5",
                    "midi": 76,
                    "time": 123.1666666666662,
                    "velocity": 0.7637795275590551,
                    "duration": 0.3333333333333286
                },
                {
                    "name": "F#5",
                    "midi": 78,
                    "time": 123.3916666666662,
                    "velocity": 0.8503937007874016,
                    "duration": 0.21458333333333712
                },
                {
                    "name": "F#2",
                    "midi": 42,
                    "time": 123.39374999999953,
                    "velocity": 0.8188976377952756,
                    "duration": 0.11041666666666572
                },
                {
                    "name": "F#3",
                    "midi": 54,
                    "time": 123.39583333333286,
                    "velocity": 0.9133858267716536,
                    "duration": 0.15000000000000568
                },
                {
                    "name": "A4",
                    "midi": 69,
                    "time": 123.40624999999953,
                    "velocity": 0.6614173228346457,
                    "duration": 0.14791666666667425
                },
                {
                    "name": "C#5",
                    "midi": 73,
                    "time": 123.40833333333286,
                    "velocity": 0.7322834645669292,
                    "duration": 0.25208333333333144
                },
                {
                    "name": "G5",
                    "midi": 79,
                    "time": 123.62499999999953,
                    "velocity": 0.8582677165354331,
                    "duration": 0.16249999999999432
                },
                {
                    "name": "B3",
                    "midi": 59,
                    "time": 123.88958333333287,
                    "velocity": 0.6062992125984252,
                    "duration": 0.22083333333331723
                },
                {
                    "name": "A5",
                    "midi": 81,
                    "time": 123.9041666666662,
                    "velocity": 0.8976377952755905,
                    "duration": 0.10416666666665719
                },
                {
                    "name": "D4",
                    "midi": 62,
                    "time": 123.90833333333286,
                    "velocity": 0.6535433070866141,
                    "duration": 0.1666666666666572
                },
                {
                    "name": "F4",
                    "midi": 65,
                    "time": 123.91458333333286,
                    "velocity": 0.7559055118110236,
                    "duration": 0.20208333333332007
                },
                {
                    "name": "F#4",
                    "midi": 66,
                    "time": 123.92708333333286,
                    "velocity": 0.8346456692913385,
                    "duration": 0.5749999999999602
                },
                {
                    "name": "B5",
                    "midi": 83,
                    "time": 124.12499999999952,
                    "velocity": 0.8818897637795275,
                    "duration": 0.09583333333333144
                },
                {
                    "name": "A3",
                    "midi": 57,
                    "time": 124.35208333333284,
                    "velocity": 0.7086614173228346,
                    "duration": 0.12291666666665435
                },
                {
                    "name": "C#4",
                    "midi": 61,
                    "time": 124.36041666666618,
                    "velocity": 0.7086614173228346,
                    "duration": 0.09166666666665435
                },
                {
                    "name": "C#6",
                    "midi": 85,
                    "time": 124.36249999999951,
                    "velocity": 0.937007874015748,
                    "duration": 0.06666666666666288
                },
                {
                    "name": "G3",
                    "midi": 55,
                    "time": 124.78958333333281,
                    "velocity": 0.5275590551181102,
                    "duration": 0.21249999999999147
                },
                {
                    "name": "F#4",
                    "midi": 66,
                    "time": 124.79583333333281,
                    "velocity": 0.8818897637795275,
                    "duration": 0.7458333333333371
                },
                {
                    "name": "D4",
                    "midi": 62,
                    "time": 124.8020833333328,
                    "velocity": 0.8031496062992126,
                    "duration": 0.1979166666666714
                },
                {
                    "name": "C#6",
                    "midi": 85,
                    "time": 124.80416666666613,
                    "velocity": 0.968503937007874,
                    "duration": 0.7083333333333428
                },
                {
                    "name": "B3",
                    "midi": 59,
                    "time": 124.8083333333328,
                    "velocity": 0.6299212598425197,
                    "duration": 0.2083333333333428
                },
                {
                    "name": "F#3",
                    "midi": 54,
                    "time": 125.24791666666614,
                    "velocity": 0.6535433070866141,
                    "duration": 0.25
                },
                {
                    "name": "C#4",
                    "midi": 61,
                    "time": 125.2520833333328,
                    "velocity": 0.7007874015748031,
                    "duration": 0.29791666666667993
                },
                {
                    "name": "A3",
                    "midi": 57,
                    "time": 125.2520833333328,
                    "velocity": 0.5354330708661418,
                    "duration": 0.2562500000000085
                },
                {
                    "name": "A5",
                    "midi": 81,
                    "time": 125.49583333333281,
                    "velocity": 0.8110236220472441,
                    "duration": 0.3375000000000057
                },
                {
                    "name": "A4",
                    "midi": 69,
                    "time": 125.78333333333282,
                    "velocity": 0.7716535433070866,
                    "duration": 0.5708333333333258
                },
                {
                    "name": "F#5",
                    "midi": 78,
                    "time": 125.78958333333281,
                    "velocity": 0.8346456692913385,
                    "duration": 0.31041666666666856
                },
                {
                    "name": "C#5",
                    "midi": 73,
                    "time": 126.02291666666615,
                    "velocity": 0.84251968503937,
                    "duration": 0.2145833333333229
                },
                {
                    "name": "B3",
                    "midi": 59,
                    "time": 126.22916666666615,
                    "velocity": 0.49606299212598426,
                    "duration": 1.0312500000000142
                },
                {
                    "name": "D4",
                    "midi": 62,
                    "time": 126.23333333333281,
                    "velocity": 0.6141732283464567,
                    "duration": 0.25208333333334565
                },
                {
                    "name": "D5",
                    "midi": 74,
                    "time": 126.26666666666614,
                    "velocity": 0.7559055118110236,
                    "duration": 0.9395833333333456
                },
                {
                    "name": "G#4",
                    "midi": 68,
                    "time": 126.48749999999949,
                    "velocity": 0.7480314960629921,
                    "duration": 0.28125
                },
                {
                    "name": "F#4",
                    "midi": 66,
                    "time": 126.68749999999949,
                    "velocity": 0.8110236220472441,
                    "duration": 0.19583333333332575
                },
                {
                    "name": "E4",
                    "midi": 64,
                    "time": 126.85416666666615,
                    "velocity": 0.7952755905511811,
                    "duration": 0.2708333333333428
                },
                {
                    "name": "F#4",
                    "midi": 66,
                    "time": 127.06458333333282,
                    "velocity": 0.8818897637795275,
                    "duration": 0.17291666666666572
                },
                {
                    "name": "E5",
                    "midi": 76,
                    "time": 127.24999999999949,
                    "velocity": 0.889763779527559,
                    "duration": 0.28125
                },
                {
                    "name": "G#4",
                    "midi": 68,
                    "time": 127.46874999999949,
                    "velocity": 0.7716535433070866,
                    "duration": 0.15208333333333712
                },
                {
                    "name": "F#5",
                    "midi": 78,
                    "time": 127.49583333333283,
                    "velocity": 0.8503937007874016,
                    "duration": 0.2770833333333371
                },
                {
                    "name": "G#5",
                    "midi": 80,
                    "time": 127.69166666666617,
                    "velocity": 0.8346456692913385,
                    "duration": 0.2562499999999943
                },
                {
                    "name": "E3",
                    "midi": 52,
                    "time": 127.91041666666617,
                    "velocity": 0.6850393700787402,
                    "duration": 0.08541666666666003
                },
                {
                    "name": "B5",
                    "midi": 83,
                    "time": 127.92083333333284,
                    "velocity": 0.6377952755905512,
                    "duration": 0.19583333333329733
                },
                {
                    "name": "D4",
                    "midi": 62,
                    "time": 127.92708333333283,
                    "velocity": 0.5984251968503937,
                    "duration": 0.07708333333332007
                },
                {
                    "name": "G#5",
                    "midi": 80,
                    "time": 128.11041666666614,
                    "velocity": 0.7401574803149606,
                    "duration": 0.26875000000001137
                },
                {
                    "name": "G#4",
                    "midi": 68,
                    "time": 128.31041666666613,
                    "velocity": 0.7322834645669292,
                    "duration": 0.5854166666666742
                },
                {
                    "name": "E5",
                    "midi": 76,
                    "time": 128.33124999999947,
                    "velocity": 0.7086614173228346,
                    "duration": 0.18750000000002842
                },
                {
                    "name": "B4",
                    "midi": 71,
                    "time": 128.4999999999995,
                    "velocity": 0.6929133858267716,
                    "duration": 0.3166666666666629
                },
                {
                    "name": "A3",
                    "midi": 57,
                    "time": 128.6812499999995,
                    "velocity": 0.3937007874015748,
                    "duration": 1.2854166666666629
                },
                {
                    "name": "C#4",
                    "midi": 61,
                    "time": 128.68958333333282,
                    "velocity": 0.5511811023622047,
                    "duration": 0.4583333333333144
                },
                {
                    "name": "C#5",
                    "midi": 73,
                    "time": 128.76666666666614,
                    "velocity": 0.6771653543307087,
                    "duration": 0.9375000000000284
                },
                {
                    "name": "F#4",
                    "midi": 66,
                    "time": 129.02499999999947,
                    "velocity": 0.6535433070866141,
                    "duration": 0.21250000000000568
                },
                {
                    "name": "E4",
                    "midi": 64,
                    "time": 129.21041666666613,
                    "velocity": 0.7244094488188977,
                    "duration": 0.20625000000001137
                },
                {
                    "name": "D4",
                    "midi": 62,
                    "time": 129.38124999999948,
                    "velocity": 0.7874015748031497,
                    "duration": 0.26250000000001705
                },
                {
                    "name": "E4",
                    "midi": 64,
                    "time": 129.5937499999995,
                    "velocity": 0.8188976377952756,
                    "duration": 0.1604166666666913
                },
                {
                    "name": "D5",
                    "midi": 74,
                    "time": 129.75833333333284,
                    "velocity": 0.8110236220472441,
                    "duration": 0.252083333333303
                },
                {
                    "name": "F#4",
                    "midi": 66,
                    "time": 129.9687499999995,
                    "velocity": 0.8267716535433071,
                    "duration": 0.09583333333333144
                },
                {
                    "name": "E5",
                    "midi": 76,
                    "time": 129.9833333333328,
                    "velocity": 0.8503937007874016,
                    "duration": 0.2229166666666913
                },
                {
                    "name": "F#5",
                    "midi": 78,
                    "time": 130.14583333333283,
                    "velocity": 0.84251968503937,
                    "duration": 0.24999999999997158
                },
                {
                    "name": "D3",
                    "midi": 50,
                    "time": 130.34166666666616,
                    "velocity": 0.6299212598425197,
                    "duration": 0.08124999999998295
                },
                {
                    "name": "A5",
                    "midi": 81,
                    "time": 130.3520833333328,
                    "velocity": 0.7637795275590551,
                    "duration": 0.19166666666666288
                },
                {
                    "name": "C#4",
                    "midi": 61,
                    "time": 130.35624999999948,
                    "velocity": 0.6771653543307087,
                    "duration": 0.09166666666666856
                },
                {
                    "name": "F#5",
                    "midi": 78,
                    "time": 130.52916666666616,
                    "velocity": 0.7559055118110236,
                    "duration": 0.25833333333332575
                },
                {
                    "name": "F#4",
                    "midi": 66,
                    "time": 130.7187499999995,
                    "velocity": 0.8188976377952756,
                    "duration": 0.564583333333303
                },
                {
                    "name": "D5",
                    "midi": 74,
                    "time": 130.74166666666616,
                    "velocity": 0.6692913385826772,
                    "duration": 0.17916666666664582
                },
                {
                    "name": "A4",
                    "midi": 69,
                    "time": 130.90833333333282,
                    "velocity": 0.7244094488188977,
                    "duration": 0.28958333333329733
                },
                {
                    "name": "G#3",
                    "midi": 56,
                    "time": 131.14166666666614,
                    "velocity": 0.48031496062992124,
                    "duration": 0.924999999999983
                },
                {
                    "name": "B3",
                    "midi": 59,
                    "time": 131.14374999999947,
                    "velocity": 0.5354330708661418,
                    "duration": 0.28958333333332575
                },
                {
                    "name": "B4",
                    "midi": 71,
                    "time": 131.15624999999946,
                    "velocity": 0.7086614173228346,
                    "duration": 0.7437500000000057
                },
                {
                    "name": "E4",
                    "midi": 64,
                    "time": 131.37916666666612,
                    "velocity": 0.6614173228346457,
                    "duration": 0.25
                },
                {
                    "name": "D4",
                    "midi": 62,
                    "time": 131.57083333333279,
                    "velocity": 0.6850393700787402,
                    "duration": 0.22500000000002274
                },
                {
                    "name": "C#4",
                    "midi": 61,
                    "time": 131.74166666666613,
                    "velocity": 0.8110236220472441,
                    "duration": 0.2770833333333087
                },
                {
                    "name": "D4",
                    "midi": 62,
                    "time": 131.97916666666612,
                    "velocity": 0.8582677165354331,
                    "duration": 0.11250000000001137
                },
                {
                    "name": "C#5",
                    "midi": 73,
                    "time": 132.1458333333328,
                    "velocity": 0.8503937007874016,
                    "duration": 0.20208333333332007
                },
                {
                    "name": "G#4",
                    "midi": 68,
                    "time": 132.38749999999945,
                    "velocity": 0.8346456692913385,
                    "duration": 0.0687499999999659
                },
                {
                    "name": "G#3",
                    "midi": 56,
                    "time": 132.39999999999944,
                    "velocity": 0.7637795275590551,
                    "duration": 0.07916666666665151
                },
                {
                    "name": "B4",
                    "midi": 71,
                    "time": 132.39999999999944,
                    "velocity": 0.7165354330708661,
                    "duration": 0.10416666666665719
                },
                {
                    "name": "D5",
                    "midi": 74,
                    "time": 132.40208333333277,
                    "velocity": 0.7244094488188977,
                    "duration": 0.13333333333332575
                },
                {
                    "name": "F#4",
                    "midi": 66,
                    "time": 132.40624999999943,
                    "velocity": 0.7716535433070866,
                    "duration": 0.07291666666665719
                },
                {
                    "name": "E5",
                    "midi": 76,
                    "time": 132.5854166666661,
                    "velocity": 0.8346456692913385,
                    "duration": 0.11458333333334281
                },
                {
                    "name": "F#4",
                    "midi": 66,
                    "time": 132.60208333333279,
                    "velocity": 0.49606299212598426,
                    "duration": 0.04166666666665719
                },
                {
                    "name": "A3",
                    "midi": 57,
                    "time": 132.85208333333276,
                    "velocity": 0.7952755905511811,
                    "duration": 0.07291666666665719
                },
                {
                    "name": "A2",
                    "midi": 45,
                    "time": 132.85208333333276,
                    "velocity": 0.8031496062992126,
                    "duration": 0.13958333333332007
                },
                {
                    "name": "F#4",
                    "midi": 66,
                    "time": 132.85624999999942,
                    "velocity": 0.7795275590551181,
                    "duration": 0.04583333333332007
                },
                {
                    "name": "C#5",
                    "midi": 73,
                    "time": 132.86041666666608,
                    "velocity": 0.8267716535433071,
                    "duration": 0.08958333333333712
                },
                {
                    "name": "F#5",
                    "midi": 78,
                    "time": 132.86458333333275,
                    "velocity": 0.7795275590551181,
                    "duration": 0.12083333333333712
                },
                {
                    "name": "E5",
                    "midi": 76,
                    "time": 133.14374999999941,
                    "velocity": 0.7795275590551181,
                    "duration": 0.2541666666666629
                },
                {
                    "name": "F#5",
                    "midi": 78,
                    "time": 133.3374999999994,
                    "velocity": 0.8661417322834646,
                    "duration": 0.2375000000000398
                },
                {
                    "name": "G#5",
                    "midi": 80,
                    "time": 133.52499999999944,
                    "velocity": 0.84251968503937,
                    "duration": 0.15208333333333712
                },
                {
                    "name": "A5",
                    "midi": 81,
                    "time": 133.72499999999945,
                    "velocity": 0.8818897637795275,
                    "duration": 0.1354166666666572
                },
                {
                    "name": "F#5",
                    "midi": 78,
                    "time": 133.91874999999945,
                    "velocity": 0.7874015748031497,
                    "duration": 0.12916666666666288
                },
                {
                    "name": "G#5",
                    "midi": 80,
                    "time": 133.92708333333277,
                    "velocity": 0.905511811023622,
                    "duration": 0.16041666666666288
                },
                {
                    "name": "D5",
                    "midi": 74,
                    "time": 133.9291666666661,
                    "velocity": 0.7086614173228346,
                    "duration": 0.14375000000001137
                },
                {
                    "name": "C#5",
                    "midi": 73,
                    "time": 134.12083333333277,
                    "velocity": 0.7086614173228346,
                    "duration": 0.1374999999999602
                },
                {
                    "name": "E5",
                    "midi": 76,
                    "time": 134.1291666666661,
                    "velocity": 0.7165354330708661,
                    "duration": 0.12708333333330302
                },
                {
                    "name": "A5",
                    "midi": 81,
                    "time": 134.13333333333276,
                    "velocity": 0.8582677165354331,
                    "duration": 0.18124999999994884
                },
                {
                    "name": "B4",
                    "midi": 71,
                    "time": 134.2999999999994,
                    "velocity": 0.7086614173228346,
                    "duration": 0.17500000000001137
                },
                {
                    "name": "D5",
                    "midi": 74,
                    "time": 134.30208333333272,
                    "velocity": 0.6850393700787402,
                    "duration": 0.23541666666667993
                },
                {
                    "name": "B5",
                    "midi": 83,
                    "time": 134.31874999999937,
                    "velocity": 0.7795275590551181,
                    "duration": 0.10208333333335418
                },
                {
                    "name": "F#5",
                    "midi": 78,
                    "time": 134.31874999999937,
                    "velocity": 0.8582677165354331,
                    "duration": 0.13125000000002274
                },
                {
                    "name": "A4",
                    "midi": 69,
                    "time": 134.50208333333273,
                    "velocity": 0.6614173228346457,
                    "duration": 0.11458333333331439
                },
                {
                    "name": "C#5",
                    "midi": 73,
                    "time": 134.50208333333273,
                    "velocity": 0.7401574803149606,
                    "duration": 0.10416666666665719
                },
                {
                    "name": "C#6",
                    "midi": 85,
                    "time": 134.50416666666607,
                    "velocity": 0.889763779527559,
                    "duration": 0.10208333333332575
                },
                {
                    "name": "C#6",
                    "midi": 85,
                    "time": 134.6999999999994,
                    "velocity": 0.905511811023622,
                    "duration": 0.15000000000000568
                },
                {
                    "name": "G#5",
                    "midi": 80,
                    "time": 134.91458333333273,
                    "velocity": 0.8818897637795275,
                    "duration": 0.054166666666645824
                },
                {
                    "name": "B5",
                    "midi": 83,
                    "time": 134.91666666666606,
                    "velocity": 0.7244094488188977,
                    "duration": 0.09375
                },
                {
                    "name": "D6",
                    "midi": 86,
                    "time": 134.9187499999994,
                    "velocity": 0.7401574803149606,
                    "duration": 0.11458333333334281
                },
                {
                    "name": "G#4",
                    "midi": 68,
                    "time": 134.92291666666605,
                    "velocity": 0.8346456692913385,
                    "duration": 0.0625
                },
                {
                    "name": "F#5",
                    "midi": 78,
                    "time": 134.92708333333272,
                    "velocity": 0.8188976377952756,
                    "duration": 0.07708333333334849
                },
                {
                    "name": "E6",
                    "midi": 88,
                    "time": 135.09583333333273,
                    "velocity": 0.8582677165354331,
                    "duration": 0.09375
                },
                {
                    "name": "A3",
                    "midi": 57,
                    "time": 135.31666666666604,
                    "velocity": 0.6771653543307087,
                    "duration": 0.1416666666666515
                },
                {
                    "name": "A4",
                    "midi": 69,
                    "time": 135.32291666666603,
                    "velocity": 0.7559055118110236,
                    "duration": 0.13124999999999432
                },
                {
                    "name": "F#6",
                    "midi": 90,
                    "time": 135.3270833333327,
                    "velocity": 0.889763779527559,
                    "duration": 0.13749999999998863
                },
                {
                    "name": "C#6",
                    "midi": 85,
                    "time": 135.33124999999936,
                    "velocity": 0.8661417322834646,
                    "duration": 0.08541666666667425
                },
                {
                    "name": "F#5",
                    "midi": 78,
                    "time": 135.3333333333327,
                    "velocity": 0.7952755905511811,
                    "duration": 0.03125
                },
                {
                    "name": "E6",
                    "midi": 88,
                    "time": 135.629166666666,
                    "velocity": 0.7559055118110236,
                    "duration": 0.2395833333333428
                },
                {
                    "name": "F#6",
                    "midi": 90,
                    "time": 135.816666666666,
                    "velocity": 0.8818897637795275,
                    "duration": 0.1708333333333485
                },
                {
                    "name": "G#6",
                    "midi": 92,
                    "time": 136.0083333333327,
                    "velocity": 0.8818897637795275,
                    "duration": 0.12916666666666288
                },
                {
                    "name": "A6",
                    "midi": 93,
                    "time": 136.22499999999937,
                    "velocity": 0.9212598425196851,
                    "duration": 0.17500000000001137
                },
                {
                    "name": "F#6",
                    "midi": 90,
                    "time": 136.4333333333327,
                    "velocity": 0.7874015748031497,
                    "duration": 0.14374999999998295
                },
                {
                    "name": "D6",
                    "midi": 86,
                    "time": 136.4333333333327,
                    "velocity": 0.7086614173228346,
                    "duration": 0.17499999999998295
                },
                {
                    "name": "G#6",
                    "midi": 92,
                    "time": 136.43749999999937,
                    "velocity": 0.905511811023622,
                    "duration": 0.1833333333333087
                },
                {
                    "name": "C#6",
                    "midi": 85,
                    "time": 136.666666666666,
                    "velocity": 0.7244094488188977,
                    "duration": 0.1354166666666572
                },
                {
                    "name": "E6",
                    "midi": 88,
                    "time": 136.66874999999933,
                    "velocity": 0.7716535433070866,
                    "duration": 0.13333333333332575
                },
                {
                    "name": "A6",
                    "midi": 93,
                    "time": 136.67499999999933,
                    "velocity": 0.8188976377952756,
                    "duration": 0.12291666666666856
                },
                {
                    "name": "D6",
                    "midi": 86,
                    "time": 136.87708333333265,
                    "velocity": 0.8346456692913385,
                    "duration": 0.32708333333332007
                },
                {
                    "name": "B5",
                    "midi": 83,
                    "time": 136.87916666666598,
                    "velocity": 0.7322834645669292,
                    "duration": 0.24791666666666856
                },
                {
                    "name": "B6",
                    "midi": 95,
                    "time": 136.904166666666,
                    "velocity": 0.7952755905511811,
                    "duration": 0.31041666666664014
                },
                {
                    "name": "F#6",
                    "midi": 90,
                    "time": 136.90833333333265,
                    "velocity": 0.7637795275590551,
                    "duration": 0.23958333333331439
                },
                {
                    "name": "A5",
                    "midi": 81,
                    "time": 137.16666666666598,
                    "velocity": 0.8031496062992126,
                    "duration": 0.08124999999998295
                },
                {
                    "name": "C#6",
                    "midi": 85,
                    "time": 137.1687499999993,
                    "velocity": 0.8661417322834646,
                    "duration": 0.06666666666666288
                },
                {
                    "name": "C#7",
                    "midi": 97,
                    "time": 137.17083333333264,
                    "velocity": 0.9133858267716536,
                    "duration": 0.09583333333333144
                },
                {
                    "name": "F#5",
                    "midi": 78,
                    "time": 137.86458333333263,
                    "velocity": 0.9133858267716536,
                    "duration": 0.20208333333332007
                },
                {
                    "name": "F#4",
                    "midi": 66,
                    "time": 137.86666666666596,
                    "velocity": 0.9133858267716536,
                    "duration": 0.16249999999999432
                },
                {
                    "name": "G#4",
                    "midi": 68,
                    "time": 137.8687499999993,
                    "velocity": 0.8818897637795275,
                    "duration": 0.15208333333333712
                },
                {
                    "name": "B3",
                    "midi": 59,
                    "time": 137.8687499999993,
                    "velocity": 0.9212598425196851,
                    "duration": 0.09999999999999432
                },
                {
                    "name": "B2",
                    "midi": 47,
                    "time": 137.87083333333263,
                    "velocity": 0.8818897637795275,
                    "duration": 0.09791666666666288
                },
                {
                    "name": "D5",
                    "midi": 74,
                    "time": 137.87083333333263,
                    "velocity": 0.8031496062992126,
                    "duration": 0.15208333333333712
                },
                {
                    "name": "F#5",
                    "midi": 78,
                    "time": 138.45416666666597,
                    "velocity": 0.9133858267716536,
                    "duration": 0.6458333333333144
                },
                {
                    "name": "G#4",
                    "midi": 68,
                    "time": 138.4562499999993,
                    "velocity": 0.8188976377952756,
                    "duration": 0.627083333333303
                },
                {
                    "name": "F#4",
                    "midi": 66,
                    "time": 138.45833333333263,
                    "velocity": 0.9133858267716536,
                    "duration": 0.6541666666666401
                },
                {
                    "name": "C#4",
                    "midi": 61,
                    "time": 138.45833333333263,
                    "velocity": 0.9133858267716536,
                    "duration": 0.06666666666666288
                },
                {
                    "name": "C#3",
                    "midi": 49,
                    "time": 138.4624999999993,
                    "velocity": 0.7874015748031497,
                    "duration": 0.10416666666665719
                },
                {
                    "name": "C#5",
                    "midi": 73,
                    "time": 138.46458333333263,
                    "velocity": 0.8346456692913385,
                    "duration": 0.6166666666666458
                },
                {
                    "name": "G#3",
                    "midi": 56,
                    "time": 138.46458333333263,
                    "velocity": 0.8110236220472441,
                    "duration": 0.05833333333333712
                },
                {
                    "name": "G#2",
                    "midi": 44,
                    "time": 139.0458333333326,
                    "velocity": 0.905511811023622,
                    "duration": 0.06458333333333144
                },
                {
                    "name": "C#2",
                    "midi": 37,
                    "time": 139.04791666666594,
                    "velocity": 0.8503937007874016,
                    "duration": 0.05833333333333712
                },
                {
                    "name": "G#4",
                    "midi": 68,
                    "time": 139.64166666666594,
                    "velocity": 0.7795275590551181,
                    "duration": 1.0562499999999773
                },
                {
                    "name": "E4",
                    "midi": 64,
                    "time": 139.64374999999927,
                    "velocity": 0.8503937007874016,
                    "duration": 0.9979166666666401
                },
                {
                    "name": "E5",
                    "midi": 76,
                    "time": 139.6458333333326,
                    "velocity": 0.84251968503937,
                    "duration": 1.0416666666666572
                },
                {
                    "name": "C#5",
                    "midi": 73,
                    "time": 139.64999999999927,
                    "velocity": 0.8110236220472441,
                    "duration": 1.0895833333333087
                },
                {
                    "name": "C#4",
                    "midi": 61,
                    "time": 139.6708333333326,
                    "velocity": 0.905511811023622,
                    "duration": 0.28541666666663446
                },
                {
                    "name": "C#3",
                    "midi": 49,
                    "time": 139.68124999999927,
                    "velocity": 0.8188976377952756,
                    "duration": 0.35833333333332007
                },
                {
                    "name": "G#3",
                    "midi": 56,
                    "time": 139.69166666666592,
                    "velocity": 0.7480314960629921,
                    "duration": 0.29374999999998863
                },
                {
                    "name": "G#2",
                    "midi": 44,
                    "time": 140.38958333333258,
                    "velocity": 0.889763779527559,
                    "duration": 0.3125
                },
                {
                    "name": "C#2",
                    "midi": 37,
                    "time": 140.39374999999924,
                    "velocity": 0.8188976377952756,
                    "duration": 0.2750000000000057
                },
                {
                    "name": "F#5",
                    "midi": 78,
                    "time": 141.3041666666659,
                    "velocity": 0.9291338582677166,
                    "duration": 0.5854166666666458
                },
                {
                    "name": "F#4",
                    "midi": 66,
                    "time": 141.30833333333257,
                    "velocity": 0.9448818897637795,
                    "duration": 0.6249999999999716
                },
                {
                    "name": "C#4",
                    "midi": 61,
                    "time": 141.30833333333257,
                    "velocity": 1,
                    "duration": 8.541666666666686
                },
                {
                    "name": "A#4",
                    "midi": 70,
                    "time": 141.30833333333257,
                    "velocity": 0.905511811023622,
                    "duration": 0.6187499999999773
                },
                {
                    "name": "C#5",
                    "midi": 73,
                    "time": 141.31249999999923,
                    "velocity": 0.8503937007874016,
                    "duration": 0.6145833333333144
                },
                {
                    "name": "C#3",
                    "midi": 49,
                    "time": 141.31874999999923,
                    "velocity": 0.9133858267716536,
                    "duration": 1.6291666666666629
                },
                {
                    "name": "F#3",
                    "midi": 54,
                    "time": 141.32083333333256,
                    "velocity": 0.8976377952755905,
                    "duration": 1.1520833333333371
                },
                {
                    "name": "F#1",
                    "midi": 30,
                    "time": 142.38958333333255,
                    "velocity": 0.8582677165354331,
                    "duration": 0.45625000000001137
                },
                {
                    "name": "C#2",
                    "midi": 37,
                    "time": 142.39374999999922,
                    "velocity": 0.8503937007874016,
                    "duration": 0.543750000000017
                },
                {
                    "name": "C#3",
                    "midi": 49,
                    "time": 143.56458333333256,
                    "velocity": 0.8267716535433071,
                    "duration": 0.3895833333333485
                },
                {
                    "name": "F#2",
                    "midi": 42,
                    "time": 143.5729166666659,
                    "velocity": 0.7480314960629921,
                    "duration": 0.3020833333333428
                },
                {
                    "name": "A#4",
                    "midi": 70,
                    "time": 148.21249999999927,
                    "velocity": 0.3228346456692913,
                    "duration": 1.0604166666666401
                },
                {
                    "name": "F#3",
                    "midi": 54,
                    "time": 148.2145833333326,
                    "velocity": 0.14173228346456693,
                    "duration": 1.0729166666666288
                },
                {
                    "name": "F#4",
                    "midi": 66,
                    "time": 148.21874999999926,
                    "velocity": 0.09448818897637795,
                    "duration": 0.5083333333333258
                },
                {
                    "name": "F#4",
                    "midi": 66,
                    "time": 148.94999999999925,
                    "velocity": 0.18110236220472442,
                    "duration": 0.5083333333332973
                },
                {
                    "name": "G#3",
                    "midi": 56,
                    "time": 149.27708333333257,
                    "velocity": 0.29133858267716534,
                    "duration": 0.375
                },
                {
                    "name": "B4",
                    "midi": 71,
                    "time": 149.28124999999923,
                    "velocity": 0.3228346456692913,
                    "duration": 0.3791666666666629
                },
                {
                    "name": "F#4",
                    "midi": 66,
                    "time": 149.63124999999923,
                    "velocity": 0.3779527559055118,
                    "duration": 0.44375000000002274
                },
                {
                    "name": "A#3",
                    "midi": 58,
                    "time": 149.65208333333257,
                    "velocity": 0.2755905511811024,
                    "duration": 1.1208333333333371
                },
                {
                    "name": "C#5",
                    "midi": 73,
                    "time": 149.65624999999923,
                    "velocity": 0.4094488188976378,
                    "duration": 1.0708333333333542
                },
                {
                    "name": "F#4",
                    "midi": 66,
                    "time": 150.19791666666592,
                    "velocity": 0.36220472440944884,
                    "duration": 0.2541666666666629
                },
                {
                    "name": "B3",
                    "midi": 59,
                    "time": 150.6729166666659,
                    "velocity": 0.25984251968503935,
                    "duration": 0.6374999999999602
                },
                {
                    "name": "D#5",
                    "midi": 75,
                    "time": 150.6854166666659,
                    "velocity": 0.6456692913385826,
                    "duration": 0.549999999999983
                },
                {
                    "name": "F#4",
                    "midi": 66,
                    "time": 150.7041666666659,
                    "velocity": 0.3700787401574803,
                    "duration": 0.32083333333332575
                },
                {
                    "name": "F#5",
                    "midi": 78,
                    "time": 151.16458333333256,
                    "velocity": 0.7007874015748031,
                    "duration": 0.14999999999997726
                },
                {
                    "name": "F#4",
                    "midi": 66,
                    "time": 151.18749999999923,
                    "velocity": 0.3700787401574803,
                    "duration": 0.2979166666666231
                },
                {
                    "name": "A#3",
                    "midi": 58,
                    "time": 151.19583333333256,
                    "velocity": 0.31496062992125984,
                    "duration": 0.5249999999999488
                },
                {
                    "name": "B4",
                    "midi": 71,
                    "time": 151.64999999999918,
                    "velocity": 0.5905511811023622,
                    "duration": 0.5770833333333485
                },
                {
                    "name": "F4",
                    "midi": 65,
                    "time": 151.67708333333252,
                    "velocity": 0.3937007874015748,
                    "duration": 0.5687500000000227
                },
                {
                    "name": "G#3",
                    "midi": 56,
                    "time": 151.6833333333325,
                    "velocity": 0.33858267716535434,
                    "duration": 0.779166666666697
                },
                {
                    "name": "C#4",
                    "midi": 61,
                    "time": 152.18958333333254,
                    "velocity": 0.4566929133858268,
                    "duration": 0.26250000000001705
                },
                {
                    "name": "A#4",
                    "midi": 70,
                    "time": 152.39583333333255,
                    "velocity": 0.6771653543307087,
                    "duration": 0.2729166666666458
                },
                {
                    "name": "F#3",
                    "midi": 54,
                    "time": 152.41458333333256,
                    "velocity": 0.3779527559055118,
                    "duration": 0.21249999999997726
                },
                {
                    "name": "G#4",
                    "midi": 68,
                    "time": 152.6624999999992,
                    "velocity": 0.6614173228346457,
                    "duration": 1.083333333333286
                },
                {
                    "name": "C#4",
                    "midi": 61,
                    "time": 152.67083333333252,
                    "velocity": 0.49606299212598426,
                    "duration": 0.3291666666666515
                },
                {
                    "name": "F3",
                    "midi": 53,
                    "time": 152.70208333333252,
                    "velocity": 0.2047244094488189,
                    "duration": 0.7083333333333144
                },
                {
                    "name": "C#4",
                    "midi": 61,
                    "time": 153.15416666666584,
                    "velocity": 0.5118110236220472,
                    "duration": 0.15000000000000568
                },
                {
                    "name": "F#3",
                    "midi": 54,
                    "time": 153.6520833333325,
                    "velocity": 0.3858267716535433,
                    "duration": 1.3458333333332746
                },
                {
                    "name": "C#4",
                    "midi": 61,
                    "time": 153.65624999999918,
                    "velocity": 0.3543307086614173,
                    "duration": 0.3708333333333087
                },
                {
                    "name": "A#4",
                    "midi": 70,
                    "time": 153.66874999999916,
                    "velocity": 0.4881889763779528,
                    "duration": 1.0395833333333258
                },
                {
                    "name": "C#4",
                    "midi": 61,
                    "time": 154.20624999999916,
                    "velocity": 0.4015748031496063,
                    "duration": 0.35624999999998863
                },
                {
                    "name": "F3",
                    "midi": 53,
                    "time": 154.24583333333248,
                    "velocity": 0.1732283464566929,
                    "duration": 0.5999999999999943
                },
                {
                    "name": "F#4",
                    "midi": 66,
                    "time": 154.84583333333248,
                    "velocity": 0.5118110236220472,
                    "duration": 0.7166666666666117
                },
                {
                    "name": "G#3",
                    "midi": 56,
                    "time": 154.8854166666658,
                    "velocity": 0.1968503937007874,
                    "duration": 0.520833333333286
                },
                {
                    "name": "C4",
                    "midi": 60,
                    "time": 154.88958333333247,
                    "velocity": 0.3464566929133858,
                    "duration": 0.5041666666666345
                },
                {
                    "name": "D#3",
                    "midi": 51,
                    "time": 154.90208333333246,
                    "velocity": 0.31496062992125984,
                    "duration": 1.0708333333332973
                },
                {
                    "name": "F4",
                    "midi": 65,
                    "time": 155.4833333333324,
                    "velocity": 0.5826771653543307,
                    "duration": 0.26875000000001137
                },
                {
                    "name": "G#3",
                    "midi": 56,
                    "time": 155.50208333333242,
                    "velocity": 0.3464566929133858,
                    "duration": 0.27916666666666856
                },
                {
                    "name": "F#4",
                    "midi": 66,
                    "time": 155.69374999999908,
                    "velocity": 0.7244094488188977,
                    "duration": 0.29791666666667993
                },
                {
                    "name": "C#3",
                    "midi": 49,
                    "time": 155.95416666666577,
                    "velocity": 0.3779527559055118,
                    "duration": 0.8062499999999773
                },
                {
                    "name": "G#4",
                    "midi": 68,
                    "time": 155.9562499999991,
                    "velocity": 0.6929133858267716,
                    "duration": 0.8291666666666515
                },
                {
                    "name": "C#4",
                    "midi": 61,
                    "time": 155.9687499999991,
                    "velocity": 0.49606299212598426,
                    "duration": 0.37291666666666856
                },
                {
                    "name": "F3",
                    "midi": 53,
                    "time": 155.97291666666575,
                    "velocity": 0.15748031496062992,
                    "duration": 0.34583333333333144
                },
                {
                    "name": "F3",
                    "midi": 53,
                    "time": 156.42916666666576,
                    "velocity": 0.49606299212598426,
                    "duration": 0.3291666666666515
                },
                {
                    "name": "C#4",
                    "midi": 61,
                    "time": 156.6249999999991,
                    "velocity": 0.6929133858267716,
                    "duration": 0.2083333333333428
                },
                {
                    "name": "F3",
                    "midi": 53,
                    "time": 156.87708333333242,
                    "velocity": 0.3700787401574803,
                    "duration": 0.375
                },
                {
                    "name": "C#4",
                    "midi": 61,
                    "time": 156.88333333333242,
                    "velocity": 0.5118110236220472,
                    "duration": 0.39791666666667425
                },
                {
                    "name": "C#3",
                    "midi": 49,
                    "time": 156.8895833333324,
                    "velocity": 0.3937007874015748,
                    "duration": 0.5875000000000341
                },
                {
                    "name": "G#4",
                    "midi": 68,
                    "time": 156.8895833333324,
                    "velocity": 0.7086614173228346,
                    "duration": 0.9437500000000227
                },
                {
                    "name": "F3",
                    "midi": 53,
                    "time": 157.36458333333243,
                    "velocity": 0.5984251968503937,
                    "duration": 0.42291666666667993
                },
                {
                    "name": "C#4",
                    "midi": 61,
                    "time": 157.56666666666578,
                    "velocity": 0.6692913385826772,
                    "duration": 0.1875
                },
                {
                    "name": "F#2",
                    "midi": 42,
                    "time": 157.84791666666575,
                    "velocity": 0.4330708661417323,
                    "duration": 0.47500000000002274
                },
                {
                    "name": "D#3",
                    "midi": 51,
                    "time": 157.85208333333242,
                    "velocity": 0.4566929133858268,
                    "duration": 0.7958333333333201
                },
                {
                    "name": "A#4",
                    "midi": 70,
                    "time": 157.90416666666576,
                    "velocity": 0.6377952755905512,
                    "duration": 0.4625000000000057
                },
                {
                    "name": "B3",
                    "midi": 59,
                    "time": 157.9374999999991,
                    "velocity": 0.23622047244094488,
                    "duration": 0.46666666666666856
                },
                {
                    "name": "F#3",
                    "midi": 54,
                    "time": 158.2937499999991,
                    "velocity": 0.31496062992125984,
                    "duration": 0.1520833333333087
                },
                {
                    "name": "F#4",
                    "midi": 66,
                    "time": 158.31249999999912,
                    "velocity": 0.6535433070866141,
                    "duration": 0.4145833333332689
                },
                {
                    "name": "D#4",
                    "midi": 63,
                    "time": 158.6583333333324,
                    "velocity": 0.5748031496062992,
                    "duration": 0.16874999999998863
                },
                {
                    "name": "A#3",
                    "midi": 58,
                    "time": 158.66874999999905,
                    "velocity": 0.41732283464566927,
                    "duration": 0.36666666666667425
                },
                {
                    "name": "G#4",
                    "midi": 68,
                    "time": 159.07291666666572,
                    "velocity": 0.5511811023622047,
                    "duration": 0.8124999999999716
                },
                {
                    "name": "C#3",
                    "midi": 49,
                    "time": 159.08124999999905,
                    "velocity": 0.25984251968503935,
                    "duration": 0.7458333333333087
                },
                {
                    "name": "C#4",
                    "midi": 61,
                    "time": 159.09374999999903,
                    "velocity": 0.2677165354330709,
                    "duration": 0.4291666666666458
                },
                {
                    "name": "F3",
                    "midi": 53,
                    "time": 159.10208333333236,
                    "velocity": 0.3464566929133858,
                    "duration": 0.34583333333333144
                },
                {
                    "name": "F3",
                    "midi": 53,
                    "time": 159.62291666666567,
                    "velocity": 0.3779527559055118,
                    "duration": 0.21041666666667425
                },
                {
                    "name": "C#4",
                    "midi": 61,
                    "time": 159.88333333333236,
                    "velocity": 0.44881889763779526,
                    "duration": 0.09583333333333144
                },
                {
                    "name": "G#4",
                    "midi": 68,
                    "time": 160.2229166666657,
                    "velocity": 0.4881889763779528,
                    "duration": 1.706249999999983
                },
                {
                    "name": "G#2",
                    "midi": 44,
                    "time": 160.23749999999902,
                    "velocity": 0.3228346456692913,
                    "duration": 0.7833333333333314
                },
                {
                    "name": "C#4",
                    "midi": 61,
                    "time": 160.24166666666568,
                    "velocity": 0.2283464566929134,
                    "duration": 0.6770833333333428
                },
                {
                    "name": "C#2",
                    "midi": 37,
                    "time": 160.26249999999902,
                    "velocity": 0.11811023622047244,
                    "duration": 0.6895833333333314
                },
                {
                    "name": "C#3",
                    "midi": 49,
                    "time": 160.93333333333234,
                    "velocity": 0.4251968503937008,
                    "duration": 0.575000000000017
                },
                {
                    "name": "F3",
                    "midi": 53,
                    "time": 161.48749999999902,
                    "velocity": 0.5984251968503937,
                    "duration": 0.5708333333333258
                },
                {
                    "name": "F#3",
                    "midi": 54,
                    "time": 161.98958333333235,
                    "velocity": 0.7322834645669292,
                    "duration": 0.7770833333333087
                },
                {
                    "name": "G#3",
                    "midi": 56,
                    "time": 162.65208333333234,
                    "velocity": 0.36220472440944884,
                    "duration": 0.566666666666606
                },
                {
                    "name": "G#4",
                    "midi": 68,
                    "time": 162.681249999999,
                    "velocity": 0.48031496062992124,
                    "duration": 0.9312499999999204
                },
                {
                    "name": "C#3",
                    "midi": 49,
                    "time": 162.68958333333234,
                    "velocity": 0.2677165354330709,
                    "duration": 2.9520833333332916
                },
                {
                    "name": "C#4",
                    "midi": 61,
                    "time": 162.71041666666568,
                    "velocity": 0.15748031496062992,
                    "duration": 0.6312499999999375
                },
                {
                    "name": "E4",
                    "midi": 64,
                    "time": 162.72083333333234,
                    "velocity": 0.4566929133858268,
                    "duration": 1.241666666666589
                },
                {
                    "name": "G#3",
                    "midi": 56,
                    "time": 163.32916666666563,
                    "velocity": 0.4566929133858268,
                    "duration": 0.2729166666666458
                },
                {
                    "name": "C#4",
                    "midi": 61,
                    "time": 163.5666666666656,
                    "velocity": 0.5984251968503937,
                    "duration": 0.5520833333333144
                },
                {
                    "name": "G#3",
                    "midi": 56,
                    "time": 163.8229166666656,
                    "velocity": 0.4094488188976378,
                    "duration": 0.3499999999999943
                },
                {
                    "name": "G#4",
                    "midi": 68,
                    "time": 163.82499999999894,
                    "velocity": 0.6850393700787402,
                    "duration": 0.8083333333333371
                },
                {
                    "name": "G#3",
                    "midi": 56,
                    "time": 164.28333333333228,
                    "velocity": 0.6692913385826772,
                    "duration": 0.5
                },
                {
                    "name": "C#4",
                    "midi": 61,
                    "time": 164.47499999999894,
                    "velocity": 0.7086614173228346,
                    "duration": 0.43541666666666856
                },
                {
                    "name": "A#4",
                    "midi": 70,
                    "time": 164.75208333333228,
                    "velocity": 0.7322834645669292,
                    "duration": 0.4020833333333087
                },
                {
                    "name": "F#3",
                    "midi": 54,
                    "time": 164.7666666666656,
                    "velocity": 0.5669291338582677,
                    "duration": 0.27291666666667425
                },
                {
                    "name": "F#4",
                    "midi": 66,
                    "time": 165.08333333333226,
                    "velocity": 0.7244094488188977,
                    "duration": 0.32916666666667993
                },
                {
                    "name": "F#3",
                    "midi": 54,
                    "time": 165.23333333333227,
                    "velocity": 0.6692913385826772,
                    "duration": 0.2083333333333428
                },
                {
                    "name": "C#4",
                    "midi": 61,
                    "time": 165.38333333333227,
                    "velocity": 0.8267716535433071,
                    "duration": 0.20000000000001705
                },
                {
                    "name": "F#3",
                    "midi": 54,
                    "time": 165.69374999999897,
                    "velocity": 0.5196850393700787,
                    "duration": 0.41458333333332575
                },
                {
                    "name": "B4",
                    "midi": 71,
                    "time": 165.70624999999896,
                    "velocity": 0.7007874015748031,
                    "duration": 1.5624999999999716
                },
                {
                    "name": "D#4",
                    "midi": 63,
                    "time": 165.71041666666562,
                    "velocity": 0.6614173228346457,
                    "duration": 2.3750000000000284
                },
                {
                    "name": "B2",
                    "midi": 47,
                    "time": 165.71874999999895,
                    "velocity": 0.4330708661417323,
                    "duration": 0.9895833333333428
                },
                {
                    "name": "F#3",
                    "midi": 54,
                    "time": 166.22291666666564,
                    "velocity": 0.6220472440944882,
                    "duration": 0.29374999999998863
                },
                {
                    "name": "F#3",
                    "midi": 54,
                    "time": 166.66874999999897,
                    "velocity": 0.5669291338582677,
                    "duration": 0.3854166666666572
                },
                {
                    "name": "C#3",
                    "midi": 49,
                    "time": 166.67916666666562,
                    "velocity": 0.5039370078740157,
                    "duration": 0.9083333333333314
                },
                {
                    "name": "A#4",
                    "midi": 70,
                    "time": 167.22499999999894,
                    "velocity": 0.6692913385826772,
                    "duration": 0.6000000000000227
                },
                {
                    "name": "F#3",
                    "midi": 54,
                    "time": 167.23333333333227,
                    "velocity": 0.3779527559055118,
                    "duration": 0.27291666666667425
                },
                {
                    "name": "A#3",
                    "midi": 58,
                    "time": 167.76666666666563,
                    "velocity": 0.3543307086614173,
                    "duration": 1.404166666666697
                },
                {
                    "name": "F#4",
                    "midi": 66,
                    "time": 167.77916666666562,
                    "velocity": 0.6299212598425197,
                    "duration": 0.5520833333333712
                },
                {
                    "name": "D#3",
                    "midi": 51,
                    "time": 167.80416666666562,
                    "velocity": 0.5275590551181102,
                    "duration": 0.8625000000000398
                },
                {
                    "name": "A#4",
                    "midi": 70,
                    "time": 168.28124999999898,
                    "velocity": 0.6850393700787402,
                    "duration": 0.7062500000000114
                },
                {
                    "name": "C#4",
                    "midi": 61,
                    "time": 168.28124999999898,
                    "velocity": 0.6141732283464567,
                    "duration": 0.13750000000001705
                },
                {
                    "name": "G#2",
                    "midi": 44,
                    "time": 168.731249999999,
                    "velocity": 0.3937007874015748,
                    "duration": 0.30416666666667425
                },
                {
                    "name": "B3",
                    "midi": 59,
                    "time": 168.74374999999898,
                    "velocity": 0.49606299212598426,
                    "duration": 0.3687500000000057
                },
                {
                    "name": "G#4",
                    "midi": 68,
                    "time": 169.231249999999,
                    "velocity": 0.6299212598425197,
                    "duration": 0.19166666666666288
                },
                {
                    "name": "B3",
                    "midi": 59,
                    "time": 169.26041666666566,
                    "velocity": 0.3700787401574803,
                    "duration": 0.5999999999999943
                },
                {
                    "name": "F#4",
                    "midi": 66,
                    "time": 169.262499999999,
                    "velocity": 0.47244094488188976,
                    "duration": 0.08541666666667425
                },
                {
                    "name": "C#3",
                    "midi": 49,
                    "time": 169.82083333333233,
                    "velocity": 0.2992125984251969,
                    "duration": 0.7979166666666799
                },
                {
                    "name": "G#3",
                    "midi": 56,
                    "time": 169.82916666666566,
                    "velocity": 0.2755905511811024,
                    "duration": 0.762500000000017
                },
                {
                    "name": "F4",
                    "midi": 65,
                    "time": 169.8395833333323,
                    "velocity": 0.5118110236220472,
                    "duration": 2.0375000000000796
                },
                {
                    "name": "D#4",
                    "midi": 63,
                    "time": 169.86666666666565,
                    "velocity": 0.3543307086614173,
                    "duration": 0.6270833333333599
                },
                {
                    "name": "C#4",
                    "midi": 61,
                    "time": 170.44583333333233,
                    "velocity": 0.5196850393700787,
                    "duration": 0.23750000000001137
                },
                {
                    "name": "B3",
                    "midi": 59,
                    "time": 170.68333333333234,
                    "velocity": 0.49606299212598426,
                    "duration": 0.37291666666666856
                },
                {
                    "name": "A#3",
                    "midi": 58,
                    "time": 170.993749999999,
                    "velocity": 0.4566929133858268,
                    "duration": 0.46458333333336554
                },
                {
                    "name": "C#3",
                    "midi": 49,
                    "time": 170.99583333333234,
                    "velocity": 0.33858267716535434,
                    "duration": 1.8750000000000284
                },
                {
                    "name": "F#2",
                    "midi": 42,
                    "time": 171.01458333333235,
                    "velocity": 0.2283464566929134,
                    "duration": 2.0416666666666856
                },
                {
                    "name": "A#3",
                    "midi": 58,
                    "time": 171.5854166666657,
                    "velocity": 0.41732283464566927,
                    "duration": 0.23541666666667993
                },
                {
                    "name": "A#3",
                    "midi": 58,
                    "time": 172.31874999999906,
                    "velocity": 0.2125984251968504,
                    "duration": 0.8124999999999716
                },
                {
                    "name": "F#4",
                    "midi": 66,
                    "time": 172.3291666666657,
                    "velocity": 0.4094488188976378,
                    "duration": 0.956249999999983
                },
                {
                    "name": "C#3",
                    "midi": 49,
                    "time": 173.14999999999904,
                    "velocity": 0.4645669291338583,
                    "duration": 0.6604166666666629
                },
                {
                    "name": "F3",
                    "midi": 53,
                    "time": 173.74583333333237,
                    "velocity": 0.5118110236220472,
                    "duration": 0.7708333333333428
                },
                {
                    "name": "F#3",
                    "midi": 54,
                    "time": 174.42083333333238,
                    "velocity": 0.4330708661417323,
                    "duration": 0.8416666666666401
                },
                {
                    "name": "A#4",
                    "midi": 70,
                    "time": 175.39166666666569,
                    "velocity": 0.5590551181102362,
                    "duration": 1.0291666666666117
                },
                {
                    "name": "F#4",
                    "midi": 66,
                    "time": 175.399999999999,
                    "velocity": 0.2677165354330709,
                    "duration": 0.5229166666666458
                },
                {
                    "name": "C#4",
                    "midi": 61,
                    "time": 175.41458333333233,
                    "velocity": 0.1968503937007874,
                    "duration": 1.9062499999999432
                },
                {
                    "name": "F#3",
                    "midi": 54,
                    "time": 175.42916666666565,
                    "velocity": 0.1889763779527559,
                    "duration": 0.9812499999999886
                },
                {
                    "name": "F#4",
                    "midi": 66,
                    "time": 176.11041666666566,
                    "velocity": 0.4645669291338583,
                    "duration": 0.13958333333332007
                },
                {
                    "name": "B4",
                    "midi": 71,
                    "time": 176.3708333333323,
                    "velocity": 0.6929133858267716,
                    "duration": 0.37291666666664014
                },
                {
                    "name": "G#3",
                    "midi": 56,
                    "time": 176.3708333333323,
                    "velocity": 0.41732283464566927,
                    "duration": 0.3645833333333144
                },
                {
                    "name": "C#5",
                    "midi": 73,
                    "time": 176.6708333333323,
                    "velocity": 0.7480314960629921,
                    "duration": 1.0624999999999716
                },
                {
                    "name": "F#4",
                    "midi": 66,
                    "time": 176.6770833333323,
                    "velocity": 0.4881889763779528,
                    "duration": 0.3916666666666515
                },
                {
                    "name": "A#3",
                    "midi": 58,
                    "time": 176.68749999999895,
                    "velocity": 0.41732283464566927,
                    "duration": 1.0729166666666572
                },
                {
                    "name": "F#4",
                    "midi": 66,
                    "time": 177.18749999999895,
                    "velocity": 0.7007874015748031,
                    "duration": 0.24375000000000568
                },
                {
                    "name": "B3",
                    "midi": 59,
                    "time": 177.65833333333228,
                    "velocity": 0.5354330708661418,
                    "duration": 0.6354166666666856
                },
                {
                    "name": "D#5",
                    "midi": 75,
                    "time": 177.66458333333227,
                    "velocity": 0.7952755905511811,
                    "duration": 0.5458333333333485
                },
                {
                    "name": "F#4",
                    "midi": 66,
                    "time": 177.67499999999893,
                    "velocity": 0.6850393700787402,
                    "duration": 0.34583333333335986
                },
                {
                    "name": "F#5",
                    "midi": 78,
                    "time": 178.13124999999897,
                    "velocity": 0.7874015748031497,
                    "duration": 0.13124999999999432
                },
                {
                    "name": "A#3",
                    "midi": 58,
                    "time": 178.13541666666563,
                    "velocity": 0.4330708661417323,
                    "duration": 0.5583333333333087
                },
                {
                    "name": "F#4",
                    "midi": 66,
                    "time": 178.14791666666562,
                    "velocity": 0.5669291338582677,
                    "duration": 0.1875
                },
                {
                    "name": "B4",
                    "midi": 71,
                    "time": 178.59166666666562,
                    "velocity": 0.6929133858267716,
                    "duration": 0.575000000000017
                },
                {
                    "name": "G#3",
                    "midi": 56,
                    "time": 178.59999999999894,
                    "velocity": 0.47244094488188976,
                    "duration": 0.9312500000000341
                },
                {
                    "name": "F4",
                    "midi": 65,
                    "time": 178.6354166666656,
                    "velocity": 0.33070866141732286,
                    "duration": 0.6041666666666856
                },
                {
                    "name": "C#4",
                    "midi": 61,
                    "time": 179.1145833333323,
                    "velocity": 0.5905511811023622,
                    "duration": 0.2604166666666856
                },
                {
                    "name": "A#4",
                    "midi": 70,
                    "time": 179.31874999999897,
                    "velocity": 0.6929133858267716,
                    "duration": 0.24375000000000568
                },
                {
                    "name": "F#3",
                    "midi": 54,
                    "time": 179.32499999999897,
                    "velocity": 0.3858267716535433,
                    "duration": 0.24166666666667425
                },
                {
                    "name": "G#4",
                    "midi": 68,
                    "time": 179.56249999999898,
                    "velocity": 0.6456692913385826,
                    "duration": 1.047916666666623
                },
                {
                    "name": "C#4",
                    "midi": 61,
                    "time": 179.57499999999897,
                    "velocity": 0.4330708661417323,
                    "duration": 0.3229166666666572
                },
                {
                    "name": "F3",
                    "midi": 53,
                    "time": 179.5770833333323,
                    "velocity": 0.2677165354330709,
                    "duration": 1.047916666666623
                },
                {
                    "name": "C#4",
                    "midi": 61,
                    "time": 180.0666666666656,
                    "velocity": 0.5118110236220472,
                    "duration": 0.23333333333332007
                },
                {
                    "name": "A#4",
                    "midi": 70,
                    "time": 180.54374999999894,
                    "velocity": 0.6141732283464567,
                    "duration": 1.1062499999999886
                },
                {
                    "name": "C#4",
                    "midi": 61,
                    "time": 180.55208333333226,
                    "velocity": 0.4015748031496063,
                    "duration": 0.35000000000002274
                },
                {
                    "name": "F#3",
                    "midi": 54,
                    "time": 180.5541666666656,
                    "velocity": 0.30708661417322836,
                    "duration": 1.3791666666666913
                },
                {
                    "name": "C#4",
                    "midi": 61,
                    "time": 181.07083333333227,
                    "velocity": 0.3779527559055118,
                    "duration": 0.45208333333332007
                },
                {
                    "name": "F3",
                    "midi": 53,
                    "time": 181.1041666666656,
                    "velocity": 0.31496062992125984,
                    "duration": 0.6479166666666742
                },
                {
                    "name": "F#4",
                    "midi": 66,
                    "time": 181.66874999999894,
                    "velocity": 0.5511811023622047,
                    "duration": 0.6354166666666856
                },
                {
                    "name": "G#3",
                    "midi": 56,
                    "time": 181.6979166666656,
                    "velocity": 0.13385826771653545,
                    "duration": 0.4770833333333542
                },
                {
                    "name": "C4",
                    "midi": 60,
                    "time": 181.6979166666656,
                    "velocity": 0.3779527559055118,
                    "duration": 0.6791666666666742
                },
                {
                    "name": "D#3",
                    "midi": 51,
                    "time": 181.70208333333227,
                    "velocity": 0.36220472440944884,
                    "duration": 1.1604166666666629
                },
                {
                    "name": "F4",
                    "midi": 65,
                    "time": 182.24374999999895,
                    "velocity": 0.5905511811023622,
                    "duration": 0.2916666666666572
                },
                {
                    "name": "G#3",
                    "midi": 56,
                    "time": 182.26666666666563,
                    "velocity": 0.4409448818897638,
                    "duration": 0.24166666666664582
                },
                {
                    "name": "F#4",
                    "midi": 66,
                    "time": 182.46874999999895,
                    "velocity": 0.7086614173228346,
                    "duration": 0.30624999999997726
                },
                {
                    "name": "G#4",
                    "midi": 68,
                    "time": 182.74583333333229,
                    "velocity": 0.6535433070866141,
                    "duration": 0.8374999999999488
                },
                {
                    "name": "F3",
                    "midi": 53,
                    "time": 182.74999999999895,
                    "velocity": 0.3228346456692913,
                    "duration": 0.3604166666666515
                },
                {
                    "name": "C#3",
                    "midi": 49,
                    "time": 182.74999999999895,
                    "velocity": 0.44881889763779526,
                    "duration": 0.8041666666666174
                },
                {
                    "name": "C#4",
                    "midi": 61,
                    "time": 182.76458333333227,
                    "velocity": 0.48031496062992124,
                    "duration": 0.34583333333333144
                },
                {
                    "name": "F3",
                    "midi": 53,
                    "time": 183.20833333333226,
                    "velocity": 0.49606299212598426,
                    "duration": 0.34166666666664014
                },
                {
                    "name": "C#4",
                    "midi": 61,
                    "time": 183.41041666666558,
                    "velocity": 0.7716535433070866,
                    "duration": 0.45208333333329165
                },
                {
                    "name": "F3",
                    "midi": 53,
                    "time": 183.6562499999989,
                    "velocity": 0.3937007874015748,
                    "duration": 0.35208333333332575
                },
                {
                    "name": "G#4",
                    "midi": 68,
                    "time": 183.66666666666555,
                    "velocity": 0.6771653543307087,
                    "duration": 0.7687500000000114
                },
                {
                    "name": "C#3",
                    "midi": 49,
                    "time": 183.6770833333322,
                    "velocity": 0.3700787401574803,
                    "duration": 0.5916666666666686
                },
                {
                    "name": "F3",
                    "midi": 53,
                    "time": 184.1395833333322,
                    "velocity": 0.6377952755905512,
                    "duration": 0.48750000000001137
                },
                {
                    "name": "C#4",
                    "midi": 61,
                    "time": 184.34791666666555,
                    "velocity": 0.7795275590551181,
                    "duration": 0.18541666666666856
                },
                {
                    "name": "D#3",
                    "midi": 51,
                    "time": 184.66041666666555,
                    "velocity": 0.49606299212598426,
                    "duration": 0.6479166666666742
                },
                {
                    "name": "F#2",
                    "midi": 42,
                    "time": 184.66666666666555,
                    "velocity": 0.44881889763779526,
                    "duration": 0.43958333333333144
                },
                {
                    "name": "A#4",
                    "midi": 70,
                    "time": 184.7083333333322,
                    "velocity": 0.7322834645669292,
                    "duration": 0.45625000000001137
                },
                {
                    "name": "B3",
                    "midi": 59,
                    "time": 184.7145833333322,
                    "velocity": 0.6220472440944882,
                    "duration": 0.5395833333333542
                },
                {
                    "name": "F#3",
                    "midi": 54,
                    "time": 185.10208333333222,
                    "velocity": 0.4409448818897638,
                    "duration": 0.14375000000001137
                },
                {
                    "name": "F#4",
                    "midi": 66,
                    "time": 185.10208333333222,
                    "velocity": 0.8110236220472441,
                    "duration": 0.41874999999998863
                },
                {
                    "name": "D#4",
                    "midi": 63,
                    "time": 185.44166666666555,
                    "velocity": 0.7637795275590551,
                    "duration": 0.21666666666664014
                },
                {
                    "name": "A#3",
                    "midi": 58,
                    "time": 185.4437499999989,
                    "velocity": 0.49606299212598426,
                    "duration": 0.38333333333329733
                },
                {
                    "name": "C#3",
                    "midi": 49,
                    "time": 185.8416666666655,
                    "velocity": 0.3228346456692913,
                    "duration": 0.6874999999999716
                },
                {
                    "name": "G#4",
                    "midi": 68,
                    "time": 185.85833333333218,
                    "velocity": 0.6220472440944882,
                    "duration": 0.8958333333332575
                },
                {
                    "name": "F3",
                    "midi": 53,
                    "time": 185.86249999999885,
                    "velocity": 0.36220472440944884,
                    "duration": 0.36249999999998295
                },
                {
                    "name": "C#4",
                    "midi": 61,
                    "time": 185.86458333333218,
                    "velocity": 0.4566929133858268,
                    "duration": 0.518749999999983
                },
                {
                    "name": "F3",
                    "midi": 53,
                    "time": 186.42916666666548,
                    "velocity": 0.25984251968503935,
                    "duration": 0.11041666666665151
                },
                {
                    "name": "C#4",
                    "midi": 61,
                    "time": 186.61666666666545,
                    "velocity": 0.6062992125984252,
                    "duration": 0.3666666666666174
                },
                {
                    "name": "G#2",
                    "midi": 44,
                    "time": 186.88749999999877,
                    "velocity": 0.3779527559055118,
                    "duration": 0.739583333333286
                },
                {
                    "name": "G#4",
                    "midi": 68,
                    "time": 186.92916666666542,
                    "velocity": 0.5590551181102362,
                    "duration": 1.5729166666666288
                },
                {
                    "name": "C#2",
                    "midi": 37,
                    "time": 186.93958333333208,
                    "velocity": 0.2440944881889764,
                    "duration": 0.6229166666666401
                },
                {
                    "name": "C#3",
                    "midi": 49,
                    "time": 187.55624999999873,
                    "velocity": 0.47244094488188976,
                    "duration": 0.5645833333333314
                },
                {
                    "name": "F3",
                    "midi": 53,
                    "time": 188.10208333333205,
                    "velocity": 0.6220472440944882,
                    "duration": 0.6104166666666799
                },
                {
                    "name": "F#3",
                    "midi": 54,
                    "time": 188.64374999999873,
                    "velocity": 0.7637795275590551,
                    "duration": 0.8020833333333428
                },
                {
                    "name": "G#3",
                    "midi": 56,
                    "time": 189.3229166666654,
                    "velocity": 0.3779527559055118,
                    "duration": 0.5437500000000455
                },
                {
                    "name": "G#4",
                    "midi": 68,
                    "time": 189.33124999999873,
                    "velocity": 0.5984251968503937,
                    "duration": 0.9875000000000682
                },
                {
                    "name": "C#4",
                    "midi": 61,
                    "time": 189.3479166666654,
                    "velocity": 0.4645669291338583,
                    "duration": 0.572916666666714
                },
                {
                    "name": "C#3",
                    "midi": 49,
                    "time": 189.34999999999874,
                    "velocity": 0.28346456692913385,
                    "duration": 2.7250000000000796
                },
                {
                    "name": "E4",
                    "midi": 64,
                    "time": 189.34999999999874,
                    "velocity": 0.5826771653543307,
                    "duration": 1.202083333333377
                },
                {
                    "name": "G#3",
                    "midi": 56,
                    "time": 189.97708333333213,
                    "velocity": 0.5590551181102362,
                    "duration": 0.28333333333333144
                },
                {
                    "name": "C#4",
                    "midi": 61,
                    "time": 190.2249999999988,
                    "velocity": 0.7480314960629921,
                    "duration": 0.3604166666666515
                },
                {
                    "name": "G#3",
                    "midi": 56,
                    "time": 190.48333333333213,
                    "velocity": 0.4094488188976378,
                    "duration": 0.25
                },
                {
                    "name": "G#4",
                    "midi": 68,
                    "time": 190.48333333333213,
                    "velocity": 0.7637795275590551,
                    "duration": 0.7833333333333314
                },
                {
                    "name": "G#3",
                    "midi": 56,
                    "time": 190.93958333333214,
                    "velocity": 0.6850393700787402,
                    "duration": 0.49791666666666856
                },
                {
                    "name": "C#4",
                    "midi": 61,
                    "time": 191.12708333333214,
                    "velocity": 0.7952755905511811,
                    "duration": 0.37291666666666856
                },
                {
                    "name": "A#4",
                    "midi": 70,
                    "time": 191.38958333333213,
                    "velocity": 0.7795275590551181,
                    "duration": 0.3854166666666856
                },
                {
                    "name": "F#3",
                    "midi": 54,
                    "time": 191.39166666666546,
                    "velocity": 0.6062992125984252,
                    "duration": 0.3166666666666913
                },
                {
                    "name": "F#4",
                    "midi": 66,
                    "time": 191.72083333333214,
                    "velocity": 0.7874015748031497,
                    "duration": 0.3270833333333485
                },
                {
                    "name": "F#3",
                    "midi": 54,
                    "time": 191.8541666666655,
                    "velocity": 0.6220472440944882,
                    "duration": 0.2708333333333428
                },
                {
                    "name": "C#4",
                    "midi": 61,
                    "time": 192.0166666666655,
                    "velocity": 0.8267716535433071,
                    "duration": 0.18750000000002842
                },
                {
                    "name": "F#3",
                    "midi": 54,
                    "time": 192.3458333333322,
                    "velocity": 0.48031496062992124,
                    "duration": 0.48333333333332007
                },
                {
                    "name": "B2",
                    "midi": 47,
                    "time": 192.36874999999887,
                    "velocity": 0.3937007874015748,
                    "duration": 1.0874999999999488
                },
                {
                    "name": "B4",
                    "midi": 71,
                    "time": 192.37499999999886,
                    "velocity": 0.7244094488188977,
                    "duration": 1.4624999999999773
                },
                {
                    "name": "D#4",
                    "midi": 63,
                    "time": 192.39999999999887,
                    "velocity": 0.6535433070866141,
                    "duration": 2.2562499999999943
                },
                {
                    "name": "F#3",
                    "midi": 54,
                    "time": 192.96458333333217,
                    "velocity": 0.4094488188976378,
                    "duration": 0.32499999999998863
                },
                {
                    "name": "C#3",
                    "midi": 49,
                    "time": 193.4229166666655,
                    "velocity": 0.5984251968503937,
                    "duration": 0.9729166666666913
                },
                {
                    "name": "F#3",
                    "midi": 54,
                    "time": 193.4229166666655,
                    "velocity": 0.5433070866141733,
                    "duration": 0.39166666666667993
                },
                {
                    "name": "A#4",
                    "midi": 70,
                    "time": 193.88333333333216,
                    "velocity": 0.8188976377952756,
                    "duration": 0.5458333333333485
                },
                {
                    "name": "F#3",
                    "midi": 54,
                    "time": 193.9041666666655,
                    "velocity": 0.5590551181102362,
                    "duration": 0.25
                },
                {
                    "name": "A#3",
                    "midi": 58,
                    "time": 194.3479166666655,
                    "velocity": 0.5118110236220472,
                    "duration": 1.6520833333333371
                },
                {
                    "name": "F#4",
                    "midi": 66,
                    "time": 194.35208333333216,
                    "velocity": 0.8110236220472441,
                    "duration": 0.5729166666666856
                },
                {
                    "name": "D#3",
                    "midi": 51,
                    "time": 194.3791666666655,
                    "velocity": 0.5275590551181102,
                    "duration": 1.0374999999999943
                },
                {
                    "name": "A#4",
                    "midi": 70,
                    "time": 194.87291666666553,
                    "velocity": 0.6850393700787402,
                    "duration": 1.141666666666623
                },
                {
                    "name": "C#4",
                    "midi": 61,
                    "time": 194.88541666666552,
                    "velocity": 0.5826771653543307,
                    "duration": 0.2916666666666572
                },
                {
                    "name": "G#2",
                    "midi": 44,
                    "time": 195.40833333333217,
                    "velocity": 0.41732283464566927,
                    "duration": 0.44999999999998863
                },
                {
                    "name": "B3",
                    "midi": 59,
                    "time": 195.41458333333216,
                    "velocity": 0.5669291338582677,
                    "duration": 0.4020833333333371
                },
                {
                    "name": "G#4",
                    "midi": 68,
                    "time": 196.0354166666655,
                    "velocity": 0.5196850393700787,
                    "duration": 0.26249999999998863
                },
                {
                    "name": "F#4",
                    "midi": 66,
                    "time": 196.07083333333216,
                    "velocity": 0.48031496062992124,
                    "duration": 0.20624999999998295
                },
                {
                    "name": "B3",
                    "midi": 59,
                    "time": 196.08124999999882,
                    "velocity": 0.3858267716535433,
                    "duration": 0.6374999999999886
                },
                {
                    "name": "C#3",
                    "midi": 49,
                    "time": 196.67499999999882,
                    "velocity": 0.25984251968503935,
                    "duration": 0.7083333333333428
                },
                {
                    "name": "G#3",
                    "midi": 56,
                    "time": 196.6979166666655,
                    "velocity": 0.33070866141732286,
                    "duration": 0.7958333333333485
                },
                {
                    "name": "F4",
                    "midi": 65,
                    "time": 196.7041666666655,
                    "velocity": 0.5354330708661418,
                    "duration": 1.7416666666667027
                },
                {
                    "name": "D#4",
                    "midi": 63,
                    "time": 196.70833333333215,
                    "velocity": 0.49606299212598426,
                    "duration": 0.606250000000017
                },
                {
                    "name": "C#4",
                    "midi": 61,
                    "time": 197.29374999999882,
                    "velocity": 0.6299212598425197,
                    "duration": 0.22916666666668561
                },
                {
                    "name": "B3",
                    "midi": 59,
                    "time": 197.51041666666552,
                    "velocity": 0.5196850393700787,
                    "duration": 0.35833333333332007
                },
                {
                    "name": "A#3",
                    "midi": 58,
                    "time": 197.77083333333218,
                    "velocity": 0.4251968503937008,
                    "duration": 0.3812499999999943
                },
                {
                    "name": "F#2",
                    "midi": 42,
                    "time": 197.7729166666655,
                    "velocity": 0.3543307086614173,
                    "duration": 1.3854166666666856
                },
                {
                    "name": "C#3",
                    "midi": 49,
                    "time": 197.7791666666655,
                    "velocity": 0.3464566929133858,
                    "duration": 1.4166666666666856
                },
                {
                    "name": "A#3",
                    "midi": 58,
                    "time": 198.29791666666551,
                    "velocity": 0.3543307086614173,
                    "duration": 0.15208333333333712
                },
                {
                    "name": "F#4",
                    "midi": 66,
                    "time": 198.89166666666551,
                    "velocity": 0.3543307086614173,
                    "duration": 0.46666666666666856
                },
                {
                    "name": "A#3",
                    "midi": 58,
                    "time": 198.89583333333218,
                    "velocity": 0.2755905511811024,
                    "duration": 0.34375
                },
                {
                    "name": "C#4",
                    "midi": 61,
                    "time": 199.63541666666552,
                    "velocity": 0.33070866141732286,
                    "duration": 0.6395833333333201
                },
                {
                    "name": "F4",
                    "midi": 65,
                    "time": 200.27499999999884,
                    "velocity": 0.3543307086614173,
                    "duration": 0.8604166666666799
                },
                {
                    "name": "F#4",
                    "midi": 66,
                    "time": 200.9458333333322,
                    "velocity": 0.30708661417322836,
                    "duration": 0.53125
                },
                {
                    "name": "G#4",
                    "midi": 68,
                    "time": 201.79166666666552,
                    "velocity": 0.14173228346456693,
                    "duration": 0.4458333333332689
                },
                {
                    "name": "B4",
                    "midi": 71,
                    "time": 201.8041666666655,
                    "velocity": 0.30708661417322836,
                    "duration": 0.4229166666666231
                },
                {
                    "name": "C#6",
                    "midi": 85,
                    "time": 201.81458333333217,
                    "velocity": 0.3700787401574803,
                    "duration": 0.9499999999999318
                },
                {
                    "name": "F5",
                    "midi": 77,
                    "time": 201.81874999999883,
                    "velocity": 0.33070866141732286,
                    "duration": 0.4020833333333087
                },
                {
                    "name": "F4",
                    "midi": 65,
                    "time": 201.8291666666655,
                    "velocity": 0.23622047244094488,
                    "duration": 0.41041666666663446
                },
                {
                    "name": "C#5",
                    "midi": 73,
                    "time": 201.8437499999988,
                    "velocity": 0.15748031496062992,
                    "duration": 0.3791666666666629
                },
                {
                    "name": "F5",
                    "midi": 77,
                    "time": 202.47708333333213,
                    "velocity": 0.2283464566929134,
                    "duration": 0.13333333333332575
                },
                {
                    "name": "C#5",
                    "midi": 73,
                    "time": 202.47916666666546,
                    "velocity": 0.3464566929133858,
                    "duration": 0.13958333333332007
                },
                {
                    "name": "G#4",
                    "midi": 68,
                    "time": 202.4812499999988,
                    "velocity": 0.23622047244094488,
                    "duration": 0.1520833333333087
                },
                {
                    "name": "F4",
                    "midi": 65,
                    "time": 202.48333333333213,
                    "velocity": 0.2677165354330709,
                    "duration": 0.1416666666666515
                },
                {
                    "name": "B4",
                    "midi": 71,
                    "time": 202.48333333333213,
                    "velocity": 0.3937007874015748,
                    "duration": 0.15416666666664014
                },
                {
                    "name": "G#5",
                    "midi": 80,
                    "time": 202.74166666666542,
                    "velocity": 0.6062992125984252,
                    "duration": 0.3375000000000057
                },
                {
                    "name": "C#6",
                    "midi": 85,
                    "time": 203.0145833333321,
                    "velocity": 0.6771653543307087,
                    "duration": 0.8208333333332973
                },
                {
                    "name": "G#4",
                    "midi": 68,
                    "time": 203.03124999999878,
                    "velocity": 0.28346456692913385,
                    "duration": 0.17083333333332007
                },
                {
                    "name": "D#5",
                    "midi": 75,
                    "time": 203.03541666666544,
                    "velocity": 0.29133858267716534,
                    "duration": 0.20208333333332007
                },
                {
                    "name": "B4",
                    "midi": 71,
                    "time": 203.04999999999876,
                    "velocity": 0.25196850393700787,
                    "duration": 0.15625
                },
                {
                    "name": "C#5",
                    "midi": 73,
                    "time": 203.0583333333321,
                    "velocity": 0.3464566929133858,
                    "duration": 0.24791666666666856
                },
                {
                    "name": "D#4",
                    "midi": 63,
                    "time": 203.06041666666542,
                    "velocity": 0.18110236220472442,
                    "duration": 0.09166666666666856
                },
                {
                    "name": "D#4",
                    "midi": 63,
                    "time": 203.5354166666654,
                    "velocity": 0.4094488188976378,
                    "duration": 0.07916666666665151
                },
                {
                    "name": "G#4",
                    "midi": 68,
                    "time": 203.53958333333208,
                    "velocity": 0.3937007874015748,
                    "duration": 0.1354166666666572
                },
                {
                    "name": "C#5",
                    "midi": 73,
                    "time": 203.5479166666654,
                    "velocity": 0.5590551181102362,
                    "duration": 0.25
                },
                {
                    "name": "D#5",
                    "midi": 75,
                    "time": 203.55208333333206,
                    "velocity": 0.4251968503937008,
                    "duration": 0.09583333333333144
                },
                {
                    "name": "B4",
                    "midi": 71,
                    "time": 203.57083333333208,
                    "velocity": 0.3464566929133858,
                    "duration": 0.10624999999998863
                },
                {
                    "name": "G#5",
                    "midi": 80,
                    "time": 203.78124999999872,
                    "velocity": 0.7244094488188977,
                    "duration": 0.42916666666670267
                },
                {
                    "name": "F4",
                    "midi": 65,
                    "time": 204.08333333333206,
                    "velocity": 0.03937007874015748,
                    "duration": 0.4208333333333769
                },
                {
                    "name": "G#4",
                    "midi": 68,
                    "time": 204.11458333333206,
                    "velocity": 0.44881889763779526,
                    "duration": 0.435416666666697
                },
                {
                    "name": "B4",
                    "midi": 71,
                    "time": 204.13333333333208,
                    "velocity": 0.29133858267716534,
                    "duration": 0.372916666666697
                },
                {
                    "name": "C#5",
                    "midi": 73,
                    "time": 204.14999999999876,
                    "velocity": 0.4251968503937008,
                    "duration": 0.36250000000001137
                },
                {
                    "name": "F5",
                    "midi": 77,
                    "time": 204.15624999999875,
                    "velocity": 0.3937007874015748,
                    "duration": 0.3583333333333485
                },
                {
                    "name": "D#6",
                    "midi": 87,
                    "time": 204.16249999999874,
                    "velocity": 0.7007874015748031,
                    "duration": 0.36666666666667425
                },
                {
                    "name": "B5",
                    "midi": 83,
                    "time": 204.5083333333321,
                    "velocity": 0.6850393700787402,
                    "duration": 0.37708333333333144
                },
                {
                    "name": "G#4",
                    "midi": 68,
                    "time": 204.67499999999876,
                    "velocity": 0.36220472440944884,
                    "duration": 0.16249999999999432
                },
                {
                    "name": "C#5",
                    "midi": 73,
                    "time": 204.67499999999876,
                    "velocity": 0.5590551181102362,
                    "duration": 0.13124999999999432
                },
                {
                    "name": "F5",
                    "midi": 77,
                    "time": 204.67916666666542,
                    "velocity": 0.4015748031496063,
                    "duration": 0.09375
                },
                {
                    "name": "B4",
                    "midi": 71,
                    "time": 204.70624999999876,
                    "velocity": 0.4015748031496063,
                    "duration": 0.07708333333332007
                },
                {
                    "name": "G#5",
                    "midi": 80,
                    "time": 204.83541666666542,
                    "velocity": 0.7559055118110236,
                    "duration": 0.2916666666666856
                },
                {
                    "name": "C#6",
                    "midi": 85,
                    "time": 205.1645833333321,
                    "velocity": 0.6614173228346457,
                    "duration": 0.7979166666665662
                },
                {
                    "name": "G#4",
                    "midi": 68,
                    "time": 205.17499999999876,
                    "velocity": 0.4015748031496063,
                    "duration": 0.28958333333329733
                },
                {
                    "name": "D#5",
                    "midi": 75,
                    "time": 205.17499999999876,
                    "velocity": 0.3700787401574803,
                    "duration": 0.29166666666662877
                },
                {
                    "name": "D#4",
                    "midi": 63,
                    "time": 205.1833333333321,
                    "velocity": 0.30708661417322836,
                    "duration": 0.2624999999999602
                },
                {
                    "name": "C#5",
                    "midi": 73,
                    "time": 205.1916666666654,
                    "velocity": 0.5118110236220472,
                    "duration": 0.25416666666663446
                },
                {
                    "name": "B4",
                    "midi": 71,
                    "time": 205.20208333333207,
                    "velocity": 0.4330708661417323,
                    "duration": 0.2770833333333087
                },
                {
                    "name": "G#4",
                    "midi": 68,
                    "time": 205.68333333333206,
                    "velocity": 0.4330708661417323,
                    "duration": 0.1624999999999659
                },
                {
                    "name": "D#4",
                    "midi": 63,
                    "time": 205.68333333333206,
                    "velocity": 0.3464566929133858,
                    "duration": 0.11041666666665151
                },
                {
                    "name": "D#5",
                    "midi": 75,
                    "time": 205.69583333333205,
                    "velocity": 0.3779527559055118,
                    "duration": 0.10624999999998863
                },
                {
                    "name": "C#5",
                    "midi": 73,
                    "time": 205.69791666666538,
                    "velocity": 0.48031496062992124,
                    "duration": 0.252083333333303
                },
                {
                    "name": "B4",
                    "midi": 71,
                    "time": 205.70833333333204,
                    "velocity": 0.41732283464566927,
                    "duration": 0.15416666666666856
                },
                {
                    "name": "G#5",
                    "midi": 80,
                    "time": 205.9062499999987,
                    "velocity": 0.6535433070866141,
                    "duration": 0.31666666666660603
                },
                {
                    "name": "G#4",
                    "midi": 68,
                    "time": 206.14166666666534,
                    "velocity": 0.33858267716535434,
                    "duration": 0.28124999999994316
                },
                {
                    "name": "C#6",
                    "midi": 85,
                    "time": 206.15624999999866,
                    "velocity": 0.5196850393700787,
                    "duration": 1.608333333333178
                },
                {
                    "name": "F5",
                    "midi": 77,
                    "time": 206.15624999999866,
                    "velocity": 0.44881889763779526,
                    "duration": 0.283333333333303
                },
                {
                    "name": "B4",
                    "midi": 71,
                    "time": 206.158333333332,
                    "velocity": 0.4251968503937008,
                    "duration": 0.2812499999999716
                },
                {
                    "name": "F4",
                    "midi": 65,
                    "time": 206.16874999999865,
                    "velocity": 0.3464566929133858,
                    "duration": 0.2458333333333087
                },
                {
                    "name": "C#5",
                    "midi": 73,
                    "time": 206.18124999999864,
                    "velocity": 0.31496062992125984,
                    "duration": 0.31041666666666856
                },
                {
                    "name": "C#5",
                    "midi": 73,
                    "time": 206.68749999999864,
                    "velocity": 0.4645669291338583,
                    "duration": 0.12499999999997158
                },
                {
                    "name": "G#4",
                    "midi": 68,
                    "time": 206.68958333333197,
                    "velocity": 0.29133858267716534,
                    "duration": 0.15624999999997158
                },
                {
                    "name": "B4",
                    "midi": 71,
                    "time": 206.6979166666653,
                    "velocity": 0.3858267716535433,
                    "duration": 0.1833333333333087
                },
                {
                    "name": "F4",
                    "midi": 65,
                    "time": 206.69999999999862,
                    "velocity": 0.2204724409448819,
                    "duration": 0.13958333333332007
                },
                {
                    "name": "F5",
                    "midi": 77,
                    "time": 206.7041666666653,
                    "velocity": 0.2992125984251969,
                    "duration": 0.12708333333333144
                },
                {
                    "name": "C#5",
                    "midi": 73,
                    "time": 207.17708333333192,
                    "velocity": 0.3858267716535433,
                    "duration": 0.11458333333331439
                },
                {
                    "name": "G#4",
                    "midi": 68,
                    "time": 207.18333333333192,
                    "velocity": 0.30708661417322836,
                    "duration": 0.1416666666666231
                },
                {
                    "name": "D#4",
                    "midi": 63,
                    "time": 207.2062499999986,
                    "velocity": 0.2677165354330709,
                    "duration": 0.11249999999995453
                },
                {
                    "name": "D#5",
                    "midi": 75,
                    "time": 207.20833333333192,
                    "velocity": 0.25984251968503935,
                    "duration": 0.09374999999997158
                },
                {
                    "name": "B4",
                    "midi": 71,
                    "time": 207.21458333333192,
                    "velocity": 0.2677165354330709,
                    "duration": 0.0999999999999659
                },
                {
                    "name": "G#4",
                    "midi": 68,
                    "time": 207.66458333333188,
                    "velocity": 0.23622047244094488,
                    "duration": 0.14583333333328596
                },
                {
                    "name": "D#5",
                    "midi": 75,
                    "time": 207.6791666666652,
                    "velocity": 0.25196850393700787,
                    "duration": 0.0687499999999659
                },
                {
                    "name": "B4",
                    "midi": 71,
                    "time": 207.69166666666518,
                    "velocity": 0.29133858267716534,
                    "duration": 0.08541666666664582
                },
                {
                    "name": "C#5",
                    "midi": 73,
                    "time": 207.69374999999852,
                    "velocity": 0.4015748031496063,
                    "duration": 0.11458333333331439
                },
                {
                    "name": "D#4",
                    "midi": 63,
                    "time": 207.73333333333184,
                    "velocity": 0.047244094488188976,
                    "duration": 0.09166666666664014
                },
                {
                    "name": "F5",
                    "midi": 77,
                    "time": 208.3083333333318,
                    "velocity": 0.3228346456692913,
                    "duration": 0.45625000000001137
                },
                {
                    "name": "C#5",
                    "midi": 73,
                    "time": 208.32499999999848,
                    "velocity": 0.23622047244094488,
                    "duration": 0.48333333333332007
                },
                {
                    "name": "F4",
                    "midi": 65,
                    "time": 208.3333333333318,
                    "velocity": 0.13385826771653545,
                    "duration": 0.41875000000001705
                },
                {
                    "name": "B4",
                    "midi": 71,
                    "time": 208.33749999999847,
                    "velocity": 0.2677165354330709,
                    "duration": 0.4208333333333485
                },
                {
                    "name": "F5",
                    "midi": 77,
                    "time": 208.9145833333318,
                    "velocity": 0.5196850393700787,
                    "duration": 0.14374999999998295
                },
                {
                    "name": "C#5",
                    "midi": 73,
                    "time": 208.92291666666512,
                    "velocity": 0.49606299212598426,
                    "duration": 0.23333333333332007
                },
                {
                    "name": "G#2",
                    "midi": 44,
                    "time": 208.94166666666513,
                    "velocity": 0.36220472440944884,
                    "duration": 0.42083333333332007
                },
                {
                    "name": "F4",
                    "midi": 65,
                    "time": 208.94791666666512,
                    "velocity": 0.15748031496062992,
                    "duration": 0.10833333333332007
                },
                {
                    "name": "C#2",
                    "midi": 37,
                    "time": 208.95624999999845,
                    "velocity": 0.4094488188976378,
                    "duration": 0.3791666666666629
                },
                {
                    "name": "B4",
                    "midi": 71,
                    "time": 208.9604166666651,
                    "velocity": 0.33858267716535434,
                    "duration": 0.16249999999999432
                },
                {
                    "name": "D#5",
                    "midi": 75,
                    "time": 209.4604166666651,
                    "velocity": 0.6614173228346457,
                    "duration": 0.29166666666662877
                },
                {
                    "name": "B4",
                    "midi": 71,
                    "time": 209.47083333333177,
                    "velocity": 0.4409448818897638,
                    "duration": 0.19374999999999432
                },
                {
                    "name": "D#4",
                    "midi": 63,
                    "time": 209.47083333333177,
                    "velocity": 0.4330708661417323,
                    "duration": 0.15000000000000568
                },
                {
                    "name": "C#5",
                    "midi": 73,
                    "time": 209.4729166666651,
                    "velocity": 0.5669291338582677,
                    "duration": 0.2354166666666515
                },
                {
                    "name": "D#5",
                    "midi": 75,
                    "time": 209.8999999999984,
                    "velocity": 0.6614173228346457,
                    "duration": 0.1729166666666515
                },
                {
                    "name": "D#4",
                    "midi": 63,
                    "time": 209.9166666666651,
                    "velocity": 0.47244094488188976,
                    "duration": 0.0687499999999659
                },
                {
                    "name": "G#3",
                    "midi": 56,
                    "time": 209.9312499999984,
                    "velocity": 0.5826771653543307,
                    "duration": 0.21249999999997726
                },
                {
                    "name": "B4",
                    "midi": 71,
                    "time": 209.93541666666508,
                    "velocity": 0.4330708661417323,
                    "duration": 0.07083333333332575
                },
                {
                    "name": "C#5",
                    "midi": 73,
                    "time": 209.93958333333174,
                    "velocity": 0.47244094488188976,
                    "duration": 0.1416666666666515
                },
                {
                    "name": "C#3",
                    "midi": 49,
                    "time": 209.9499999999984,
                    "velocity": 0.5118110236220472,
                    "duration": 0.15625
                },
                {
                    "name": "F5",
                    "midi": 77,
                    "time": 210.4187499999984,
                    "velocity": 0.6377952755905512,
                    "duration": 0.2750000000000057
                },
                {
                    "name": "C#5",
                    "midi": 73,
                    "time": 210.4249999999984,
                    "velocity": 0.5275590551181102,
                    "duration": 0.2770833333333371
                },
                {
                    "name": "G#4",
                    "midi": 68,
                    "time": 210.4437499999984,
                    "velocity": 0.4330708661417323,
                    "duration": 0.4124999999999943
                },
                {
                    "name": "F4",
                    "midi": 65,
                    "time": 210.44791666666507,
                    "velocity": 0.3937007874015748,
                    "duration": 0.19583333333332575
                },
                {
                    "name": "B4",
                    "midi": 71,
                    "time": 210.45208333333173,
                    "velocity": 0.4645669291338583,
                    "duration": 0.21041666666667425
                },
                {
                    "name": "C#4",
                    "midi": 61,
                    "time": 210.4562499999984,
                    "velocity": 0.47244094488188976,
                    "duration": 2.283333333333303
                },
                {
                    "name": "F5",
                    "midi": 77,
                    "time": 210.89166666666506,
                    "velocity": 0.6299212598425197,
                    "duration": 0.12708333333333144
                },
                {
                    "name": "C#5",
                    "midi": 73,
                    "time": 210.90208333333172,
                    "velocity": 0.6141732283464567,
                    "duration": 0.18541666666666856
                },
                {
                    "name": "B4",
                    "midi": 71,
                    "time": 210.92291666666506,
                    "velocity": 0.5196850393700787,
                    "duration": 0.15416666666666856
                },
                {
                    "name": "D#5",
                    "midi": 75,
                    "time": 211.36041666666506,
                    "velocity": 0.5511811023622047,
                    "duration": 0.17500000000001137
                },
                {
                    "name": "D#4",
                    "midi": 63,
                    "time": 211.37916666666507,
                    "velocity": 0.4330708661417323,
                    "duration": 0.09166666666666856
                },
                {
                    "name": "C#5",
                    "midi": 73,
                    "time": 211.3812499999984,
                    "velocity": 0.5433070866141733,
                    "duration": 0.15625
                },
                {
                    "name": "B4",
                    "midi": 71,
                    "time": 211.3812499999984,
                    "velocity": 0.49606299212598426,
                    "duration": 0.1395833333333485
                },
                {
                    "name": "D#5",
                    "midi": 75,
                    "time": 211.7999999999984,
                    "velocity": 0.3700787401574803,
                    "duration": 0.12499999999997158
                },
                {
                    "name": "D#4",
                    "midi": 63,
                    "time": 211.82083333333173,
                    "velocity": 0.30708661417322836,
                    "duration": 0.06458333333330302
                },
                {
                    "name": "B4",
                    "midi": 71,
                    "time": 211.82708333333173,
                    "velocity": 0.3779527559055118,
                    "duration": 0.10833333333329165
                },
                {
                    "name": "C#5",
                    "midi": 73,
                    "time": 211.84166666666505,
                    "velocity": 0.3858267716535433,
                    "duration": 0.12291666666664014
                },
                {
                    "name": "F5",
                    "midi": 77,
                    "time": 212.30416666666503,
                    "velocity": 0.41732283464566927,
                    "duration": 0.18958333333333144
                },
                {
                    "name": "C#5",
                    "midi": 73,
                    "time": 212.30624999999836,
                    "velocity": 0.48031496062992124,
                    "duration": 0.15208333333333712
                },
                {
                    "name": "B4",
                    "midi": 71,
                    "time": 212.3270833333317,
                    "velocity": 0.36220472440944884,
                    "duration": 0.125
                },
                {
                    "name": "F4",
                    "midi": 65,
                    "time": 212.3333333333317,
                    "velocity": 0.10236220472440945,
                    "duration": 0.13958333333332007
                },
                {
                    "name": "C#5",
                    "midi": 73,
                    "time": 212.78333333333168,
                    "velocity": 0.4094488188976378,
                    "duration": 0.18125000000000568
                },
                {
                    "name": "F5",
                    "midi": 77,
                    "time": 212.78749999999835,
                    "velocity": 0.2992125984251969,
                    "duration": 0.17916666666667425
                },
                {
                    "name": "F4",
                    "midi": 65,
                    "time": 212.822916666665,
                    "velocity": 0.11023622047244094,
                    "duration": 0.10833333333334849
                },
                {
                    "name": "B4",
                    "midi": 71,
                    "time": 212.8395833333317,
                    "velocity": 0.1732283464566929,
                    "duration": 0.08750000000000568
                },
                {
                    "name": "D#5",
                    "midi": 75,
                    "time": 213.26874999999836,
                    "velocity": 0.3937007874015748,
                    "duration": 0.16458333333335418
                },
                {
                    "name": "D#4",
                    "midi": 63,
                    "time": 213.27499999999836,
                    "velocity": 0.33070866141732286,
                    "duration": 0.11875000000000568
                },
                {
                    "name": "B4",
                    "midi": 71,
                    "time": 213.30416666666503,
                    "velocity": 0.2283464566929134,
                    "duration": 0.16250000000002274
                },
                {
                    "name": "C#5",
                    "midi": 73,
                    "time": 213.3333333333317,
                    "velocity": 0.13385826771653545,
                    "duration": 0.08125000000001137
                },
                {
                    "name": "D#4",
                    "midi": 63,
                    "time": 213.80416666666505,
                    "velocity": 0.25984251968503935,
                    "duration": 0.16041666666666288
                },
                {
                    "name": "D#5",
                    "midi": 75,
                    "time": 213.81874999999837,
                    "velocity": 0.30708661417322836,
                    "duration": 0.21666666666666856
                },
                {
                    "name": "C#5",
                    "midi": 73,
                    "time": 213.8208333333317,
                    "velocity": 0.2755905511811024,
                    "duration": 0.18958333333333144
                },
                {
                    "name": "B4",
                    "midi": 71,
                    "time": 213.83958333333172,
                    "velocity": 0.2204724409448819,
                    "duration": 0.11041666666667993
                },
                {
                    "name": "C#6",
                    "midi": 85,
                    "time": 214.51666666666503,
                    "velocity": 0.5196850393700787,
                    "duration": 0.8208333333332689
                },
                {
                    "name": "G#4",
                    "midi": 68,
                    "time": 214.52291666666503,
                    "velocity": 0.11023622047244094,
                    "duration": 0.3562499999999602
                },
                {
                    "name": "B4",
                    "midi": 71,
                    "time": 214.53541666666501,
                    "velocity": 0.2283464566929134,
                    "duration": 0.3437499999999716
                },
                {
                    "name": "E5",
                    "midi": 76,
                    "time": 214.541666666665,
                    "velocity": 0.25196850393700787,
                    "duration": 0.33124999999998295
                },
                {
                    "name": "C#5",
                    "midi": 73,
                    "time": 214.54583333333167,
                    "velocity": 0.25984251968503935,
                    "duration": 0.32083333333332575
                },
                {
                    "name": "E4",
                    "midi": 64,
                    "time": 214.55624999999833,
                    "velocity": 0.28346456692913385,
                    "duration": 0.31041666666666856
                },
                {
                    "name": "C#5",
                    "midi": 73,
                    "time": 215.097916666665,
                    "velocity": 0.3937007874015748,
                    "duration": 0.1208333333333087
                },
                {
                    "name": "G#4",
                    "midi": 68,
                    "time": 215.122916666665,
                    "velocity": 0.30708661417322836,
                    "duration": 0.14583333333331439
                },
                {
                    "name": "E5",
                    "midi": 76,
                    "time": 215.13333333333165,
                    "velocity": 0.2677165354330709,
                    "duration": 0.11041666666665151
                },
                {
                    "name": "E4",
                    "midi": 64,
                    "time": 215.13541666666498,
                    "velocity": 0.28346456692913385,
                    "duration": 0.10833333333332007
                },
                {
                    "name": "B4",
                    "midi": 71,
                    "time": 215.1437499999983,
                    "velocity": 0.3779527559055118,
                    "duration": 0.12083333333333712
                },
                {
                    "name": "G#5",
                    "midi": 80,
                    "time": 215.33541666666497,
                    "velocity": 0.5433070866141733,
                    "duration": 0.27916666666664014
                },
                {
                    "name": "C#6",
                    "midi": 85,
                    "time": 215.59166666666496,
                    "velocity": 0.6220472440944882,
                    "duration": 0.7958333333332916
                },
                {
                    "name": "D#5",
                    "midi": 75,
                    "time": 215.59791666666496,
                    "velocity": 0.4251968503937008,
                    "duration": 0.17083333333329165
                },
                {
                    "name": "G#4",
                    "midi": 68,
                    "time": 215.60416666666495,
                    "velocity": 0.33858267716535434,
                    "duration": 0.1416666666666515
                },
                {
                    "name": "B4",
                    "midi": 71,
                    "time": 215.61874999999827,
                    "velocity": 0.4015748031496063,
                    "duration": 0.1416666666666515
                },
                {
                    "name": "C#5",
                    "midi": 73,
                    "time": 215.62291666666493,
                    "velocity": 0.49606299212598426,
                    "duration": 0.16249999999999432
                },
                {
                    "name": "D#4",
                    "midi": 63,
                    "time": 215.62291666666493,
                    "velocity": 0.2992125984251969,
                    "duration": 0.08125000000001137
                },
                {
                    "name": "D#4",
                    "midi": 63,
                    "time": 216.07291666666492,
                    "velocity": 0.3228346456692913,
                    "duration": 0.10208333333332575
                },
                {
                    "name": "G#4",
                    "midi": 68,
                    "time": 216.07499999999825,
                    "velocity": 0.4094488188976378,
                    "duration": 0.15833333333333144
                },
                {
                    "name": "D#5",
                    "midi": 75,
                    "time": 216.08958333333157,
                    "velocity": 0.31496062992125984,
                    "duration": 0.07708333333334849
                },
                {
                    "name": "C#5",
                    "midi": 73,
                    "time": 216.0916666666649,
                    "velocity": 0.5590551181102362,
                    "duration": 0.25625000000002274
                },
                {
                    "name": "B4",
                    "midi": 71,
                    "time": 216.11249999999825,
                    "velocity": 0.28346456692913385,
                    "duration": 0.09375
                },
                {
                    "name": "G#5",
                    "midi": 80,
                    "time": 216.28124999999827,
                    "velocity": 0.6929133858267716,
                    "duration": 0.4229166666666231
                },
                {
                    "name": "C#5",
                    "midi": 73,
                    "time": 216.53541666666493,
                    "velocity": 0.4330708661417323,
                    "duration": 0.4812499999999318
                },
                {
                    "name": "G#4",
                    "midi": 68,
                    "time": 216.5645833333316,
                    "velocity": 0.31496062992125984,
                    "duration": 0.34999999999993747
                },
                {
                    "name": "E4",
                    "midi": 64,
                    "time": 216.57291666666492,
                    "velocity": 0.3937007874015748,
                    "duration": 0.32708333333329165
                },
                {
                    "name": "B4",
                    "midi": 71,
                    "time": 216.58124999999825,
                    "velocity": 0.4015748031496063,
                    "duration": 0.32083333333329733
                },
                {
                    "name": "E5",
                    "midi": 76,
                    "time": 216.59583333333157,
                    "velocity": 0.4251968503937008,
                    "duration": 0.31041666666664014
                },
                {
                    "name": "D#6",
                    "midi": 87,
                    "time": 216.5979166666649,
                    "velocity": 0.6299212598425197,
                    "duration": 0.3874999999999602
                },
                {
                    "name": "B5",
                    "midi": 83,
                    "time": 216.9749999999982,
                    "velocity": 0.6771653543307087,
                    "duration": 0.35833333333329165
                },
                {
                    "name": "C#5",
                    "midi": 73,
                    "time": 217.07916666666486,
                    "velocity": 0.09448818897637795,
                    "duration": 0.4062499999999716
                },
                {
                    "name": "E4",
                    "midi": 64,
                    "time": 217.12499999999818,
                    "velocity": 0.4094488188976378,
                    "duration": 0.16249999999999432
                },
                {
                    "name": "G#4",
                    "midi": 68,
                    "time": 217.1270833333315,
                    "velocity": 0.47244094488188976,
                    "duration": 0.19999999999998863
                },
                {
                    "name": "E5",
                    "midi": 76,
                    "time": 217.14166666666483,
                    "velocity": 0.4409448818897638,
                    "duration": 0.1458333333333428
                },
                {
                    "name": "B4",
                    "midi": 71,
                    "time": 217.1458333333315,
                    "velocity": 0.5196850393700787,
                    "duration": 0.19583333333332575
                },
                {
                    "name": "G#5",
                    "midi": 80,
                    "time": 217.2645833333315,
                    "velocity": 0.7480314960629921,
                    "duration": 0.4062499999999716
                },
                {
                    "name": "G#4",
                    "midi": 68,
                    "time": 217.58541666666483,
                    "velocity": 0.4015748031496063,
                    "duration": 0.3291666666666515
                },
                {
                    "name": "C#6",
                    "midi": 85,
                    "time": 217.59791666666482,
                    "velocity": 0.6456692913385826,
                    "duration": 0.816666666666606
                },
                {
                    "name": "D#5",
                    "midi": 75,
                    "time": 217.60208333333148,
                    "velocity": 0.4094488188976378,
                    "duration": 0.3229166666666572
                },
                {
                    "name": "B4",
                    "midi": 71,
                    "time": 217.60833333333147,
                    "velocity": 0.3937007874015748,
                    "duration": 0.31458333333333144
                },
                {
                    "name": "C#5",
                    "midi": 73,
                    "time": 217.6104166666648,
                    "velocity": 0.25984251968503935,
                    "duration": 0.9833333333332916
                },
                {
                    "name": "D#4",
                    "midi": 63,
                    "time": 217.6166666666648,
                    "velocity": 0.47244094488188976,
                    "duration": 0.2895833333333542
                },
                {
                    "name": "D#4",
                    "midi": 63,
                    "time": 218.11874999999813,
                    "velocity": 0.4645669291338583,
                    "duration": 0.11458333333331439
                },
                {
                    "name": "G#4",
                    "midi": 68,
                    "time": 218.12083333333146,
                    "velocity": 0.4566929133858268,
                    "duration": 0.1687499999999602
                },
                {
                    "name": "D#5",
                    "midi": 75,
                    "time": 218.1291666666648,
                    "velocity": 0.1968503937007874,
                    "duration": 0.09583333333333144
                },
                {
                    "name": "B4",
                    "midi": 71,
                    "time": 218.13541666666478,
                    "velocity": 0.47244094488188976,
                    "duration": 0.13958333333332007
                },
                {
                    "name": "G#5",
                    "midi": 80,
                    "time": 218.35208333333142,
                    "velocity": 0.6614173228346457,
                    "duration": 0.38749999999998863
                },
                {
                    "name": "C#6",
                    "midi": 85,
                    "time": 218.62083333333143,
                    "velocity": 0.4881889763779528,
                    "duration": 1.633333333333212
                },
                {
                    "name": "G#4",
                    "midi": 68,
                    "time": 218.62291666666476,
                    "velocity": 0.11023622047244094,
                    "duration": 0.37916666666663446
                },
                {
                    "name": "B4",
                    "midi": 71,
                    "time": 218.63333333333142,
                    "velocity": 0.3228346456692913,
                    "duration": 0.35833333333332007
                },
                {
                    "name": "C#5",
                    "midi": 73,
                    "time": 218.63333333333142,
                    "velocity": 0.4094488188976378,
                    "duration": 0.3749999999999716
                },
                {
                    "name": "E5",
                    "midi": 76,
                    "time": 218.63541666666475,
                    "velocity": 0.29133858267716534,
                    "duration": 0.3541666666666572
                },
                {
                    "name": "E4",
                    "midi": 64,
                    "time": 218.63749999999808,
                    "velocity": 0.2992125984251969,
                    "duration": 0.35208333333332575
                },
                {
                    "name": "G#4",
                    "midi": 68,
                    "time": 219.1895833333314,
                    "velocity": 0.3464566929133858,
                    "duration": 0.2104166666666174
                },
                {
                    "name": "C#5",
                    "midi": 73,
                    "time": 219.19374999999806,
                    "velocity": 0.30708661417322836,
                    "duration": 0.1208333333333087
                },
                {
                    "name": "E4",
                    "midi": 64,
                    "time": 219.20416666666472,
                    "velocity": 0.16535433070866143,
                    "duration": 0.16041666666663446
                },
                {
                    "name": "B4",
                    "midi": 71,
                    "time": 219.21458333333138,
                    "velocity": 0.3700787401574803,
                    "duration": 0.1833333333333087
                },
                {
                    "name": "E5",
                    "midi": 76,
                    "time": 219.2166666666647,
                    "velocity": 0.14173228346456693,
                    "duration": 0.1354166666666572
                },
                {
                    "name": "G#4",
                    "midi": 68,
                    "time": 219.6979166666647,
                    "velocity": 0.33858267716535434,
                    "duration": 0.14583333333331439
                },
                {
                    "name": "D#5",
                    "midi": 75,
                    "time": 219.70208333333136,
                    "velocity": 0.2992125984251969,
                    "duration": 0.11041666666665151
                },
                {
                    "name": "D#4",
                    "midi": 63,
                    "time": 219.7041666666647,
                    "velocity": 0.4015748031496063,
                    "duration": 0.12708333333333144
                },
                {
                    "name": "C#5",
                    "midi": 73,
                    "time": 219.70624999999802,
                    "velocity": 0.3700787401574803,
                    "duration": 0.09583333333333144
                },
                {
                    "name": "B4",
                    "midi": 71,
                    "time": 219.718749999998,
                    "velocity": 0.31496062992125984,
                    "duration": 0.11458333333334281
                },
                {
                    "name": "G#4",
                    "midi": 68,
                    "time": 220.187499999998,
                    "velocity": 0.30708661417322836,
                    "duration": 0.17708333333331439
                },
                {
                    "name": "C#5",
                    "midi": 73,
                    "time": 220.18958333333134,
                    "velocity": 0.3858267716535433,
                    "duration": 0.1520833333333087
                },
                {
                    "name": "B4",
                    "midi": 71,
                    "time": 220.199999999998,
                    "velocity": 0.30708661417322836,
                    "duration": 0.13333333333332575
                },
                {
                    "name": "D#5",
                    "midi": 75,
                    "time": 220.21041666666466,
                    "velocity": 0.1732283464566929,
                    "duration": 0.052083333333314386
                },
                {
                    "name": "D#4",
                    "midi": 63,
                    "time": 220.28541666666464,
                    "velocity": 0.03937007874015748,
                    "duration": 0.13333333333335418
                },
                {
                    "name": "B4",
                    "midi": 71,
                    "time": 220.89791666666466,
                    "velocity": 0.28346456692913385,
                    "duration": 0.45624999999998295
                },
                {
                    "name": "E5",
                    "midi": 76,
                    "time": 220.90208333333132,
                    "velocity": 0.30708661417322836,
                    "duration": 0.45208333333332007
                },
                {
                    "name": "E4",
                    "midi": 64,
                    "time": 220.91666666666464,
                    "velocity": 0.2125984251968504,
                    "duration": 0.40833333333333144
                },
                {
                    "name": "C#5",
                    "midi": 73,
                    "time": 220.94374999999798,
                    "velocity": 0.3779527559055118,
                    "duration": 0.4270833333333428
                },
                {
                    "name": "G#2",
                    "midi": 44,
                    "time": 221.52083333333132,
                    "velocity": 0.3228346456692913,
                    "duration": 0.32708333333332007
                },
                {
                    "name": "E5",
                    "midi": 76,
                    "time": 221.52916666666465,
                    "velocity": 0.3228346456692913,
                    "duration": 0.12291666666664014
                },
                {
                    "name": "C#2",
                    "midi": 37,
                    "time": 221.52916666666465,
                    "velocity": 0.33070866141732286,
                    "duration": 0.29374999999998863
                },
                {
                    "name": "C#5",
                    "midi": 73,
                    "time": 221.53749999999798,
                    "velocity": 0.4881889763779528,
                    "duration": 0.16458333333332575
                },
                {
                    "name": "B4",
                    "midi": 71,
                    "time": 221.54999999999797,
                    "velocity": 0.31496062992125984,
                    "duration": 0.15208333333333712
                },
                {
                    "name": "D#4",
                    "midi": 63,
                    "time": 222.05208333333132,
                    "velocity": 0.3937007874015748,
                    "duration": 0.16874999999998863
                },
                {
                    "name": "D#5",
                    "midi": 75,
                    "time": 222.05833333333132,
                    "velocity": 0.5275590551181102,
                    "duration": 0.26249999999998863
                },
                {
                    "name": "C#5",
                    "midi": 73,
                    "time": 222.06041666666465,
                    "velocity": 0.41732283464566927,
                    "duration": 0.25208333333333144
                },
                {
                    "name": "B4",
                    "midi": 71,
                    "time": 222.06041666666465,
                    "velocity": 0.4881889763779528,
                    "duration": 0.21666666666666856
                },
                {
                    "name": "D#5",
                    "midi": 75,
                    "time": 222.5020833333313,
                    "velocity": 0.5669291338582677,
                    "duration": 0.21041666666664582
                },
                {
                    "name": "D#4",
                    "midi": 63,
                    "time": 222.51041666666464,
                    "velocity": 0.4409448818897638,
                    "duration": 0.1416666666666515
                },
                {
                    "name": "C#3",
                    "midi": 49,
                    "time": 222.5208333333313,
                    "velocity": 0.48031496062992124,
                    "duration": 0.07083333333332575
                },
                {
                    "name": "B4",
                    "midi": 71,
                    "time": 222.5208333333313,
                    "velocity": 0.47244094488188976,
                    "duration": 0.16874999999998863
                },
                {
                    "name": "C#5",
                    "midi": 73,
                    "time": 222.52291666666463,
                    "velocity": 0.5669291338582677,
                    "duration": 0.23124999999998863
                },
                {
                    "name": "G#3",
                    "midi": 56,
                    "time": 222.52916666666462,
                    "velocity": 0.4566929133858268,
                    "duration": 0.08125000000001137
                },
                {
                    "name": "G#4",
                    "midi": 68,
                    "time": 223.09583333333129,
                    "velocity": 0.6535433070866141,
                    "duration": 2.879166666666606
                },
                {
                    "name": "E5",
                    "midi": 76,
                    "time": 223.11874999999796,
                    "velocity": 0.4251968503937008,
                    "duration": 0.3395833333333087
                },
                {
                    "name": "C#5",
                    "midi": 73,
                    "time": 223.12499999999795,
                    "velocity": 0.3937007874015748,
                    "duration": 0.33749999999997726
                },
                {
                    "name": "E4",
                    "midi": 64,
                    "time": 223.12708333333129,
                    "velocity": 0.2440944881889764,
                    "duration": 0.3187499999999943
                },
                {
                    "name": "C#4",
                    "midi": 61,
                    "time": 223.12708333333129,
                    "velocity": 0.44881889763779526,
                    "duration": 0.7562499999999659
                },
                {
                    "name": "B4",
                    "midi": 71,
                    "time": 223.12916666666462,
                    "velocity": 0.3228346456692913,
                    "duration": 0.3125
                },
                {
                    "name": "E5",
                    "midi": 76,
                    "time": 223.72708333333125,
                    "velocity": 0.41732283464566927,
                    "duration": 0.15625
                },
                {
                    "name": "E4",
                    "midi": 64,
                    "time": 223.73958333333124,
                    "velocity": 0.2440944881889764,
                    "duration": 0.09166666666666856
                },
                {
                    "name": "C#5",
                    "midi": 73,
                    "time": 223.74166666666457,
                    "velocity": 0.5196850393700787,
                    "duration": 0.16666666666668561
                },
                {
                    "name": "B4",
                    "midi": 71,
                    "time": 223.7437499999979,
                    "velocity": 0.49606299212598426,
                    "duration": 0.13750000000001705
                },
                {
                    "name": "D#5",
                    "midi": 75,
                    "time": 224.24374999999793,
                    "velocity": 0.5275590551181102,
                    "duration": 0.18124999999997726
                },
                {
                    "name": "D#4",
                    "midi": 63,
                    "time": 224.25208333333126,
                    "velocity": 0.4330708661417323,
                    "duration": 0.10833333333332007
                },
                {
                    "name": "C#5",
                    "midi": 73,
                    "time": 224.25624999999792,
                    "velocity": 0.47244094488188976,
                    "duration": 0.17708333333331439
                },
                {
                    "name": "B4",
                    "midi": 71,
                    "time": 224.26458333333125,
                    "velocity": 0.48031496062992124,
                    "duration": 0.13958333333332007
                },
                {
                    "name": "D#5",
                    "midi": 75,
                    "time": 224.7124999999979,
                    "velocity": 0.33858267716535434,
                    "duration": 0.14583333333331439
                },
                {
                    "name": "B4",
                    "midi": 71,
                    "time": 224.72083333333123,
                    "velocity": 0.4251968503937008,
                    "duration": 0.10416666666665719
                },
                {
                    "name": "D#4",
                    "midi": 63,
                    "time": 224.7249999999979,
                    "velocity": 0.3464566929133858,
                    "duration": 0.11666666666667425
                },
                {
                    "name": "C#5",
                    "midi": 73,
                    "time": 224.73749999999788,
                    "velocity": 0.4881889763779528,
                    "duration": 0.11666666666667425
                },
                {
                    "name": "D#5",
                    "midi": 75,
                    "time": 225.25416666666456,
                    "velocity": 0.3937007874015748,
                    "duration": 0.3229166666666856
                },
                {
                    "name": "D#4",
                    "midi": 63,
                    "time": 225.25833333333122,
                    "velocity": 0.25984251968503935,
                    "duration": 0.27083333333337123
                },
                {
                    "name": "B4",
                    "midi": 71,
                    "time": 225.27916666666457,
                    "velocity": 0.3858267716535433,
                    "duration": 0.2583333333333542
                },
                {
                    "name": "A4",
                    "midi": 69,
                    "time": 225.29583333333125,
                    "velocity": 0.3228346456692913,
                    "duration": 0.2541666666666629
                },
                {
                    "name": "D#5",
                    "midi": 75,
                    "time": 225.90416666666457,
                    "velocity": 0.23622047244094488,
                    "duration": 0.17708333333331439
                },
                {
                    "name": "F#4",
                    "midi": 66,
                    "time": 225.9124999999979,
                    "velocity": 0.6614173228346457,
                    "duration": 1.1166666666666742
                },
                {
                    "name": "B4",
                    "midi": 71,
                    "time": 225.94791666666455,
                    "velocity": 0.25984251968503935,
                    "duration": 0.15625
                },
                {
                    "name": "A4",
                    "midi": 69,
                    "time": 225.96458333333123,
                    "velocity": 0.16535433070866143,
                    "duration": 0.16874999999998863
                },
                {
                    "name": "C#5",
                    "midi": 73,
                    "time": 226.60416666666455,
                    "velocity": 0.1968503937007874,
                    "duration": 0.4208333333333485
                },
                {
                    "name": "G4",
                    "midi": 67,
                    "time": 226.6624999999979,
                    "velocity": 0.1889763779527559,
                    "duration": 0.34583333333333144
                },
                {
                    "name": "C#4",
                    "midi": 61,
                    "time": 226.67291666666455,
                    "velocity": 0.03937007874015748,
                    "duration": 0.32500000000001705
                },
                {
                    "name": "A4",
                    "midi": 69,
                    "time": 226.69166666666456,
                    "velocity": 0.07086614173228346,
                    "duration": 0.3375000000000057
                },
                {
                    "name": "E4",
                    "midi": 64,
                    "time": 227.40208333333123,
                    "velocity": 0.3779527559055118,
                    "duration": 0.13333333333332575
                },
                {
                    "name": "C#5",
                    "midi": 73,
                    "time": 227.4062499999979,
                    "velocity": 0.13385826771653545,
                    "duration": 0.2750000000000057
                },
                {
                    "name": "A4",
                    "midi": 69,
                    "time": 227.49791666666457,
                    "velocity": 0.05511811023622047,
                    "duration": 0.19374999999999432
                },
                {
                    "name": "G4",
                    "midi": 67,
                    "time": 227.4999999999979,
                    "velocity": 0.07086614173228346,
                    "duration": 0.2041666666666515
                },
                {
                    "name": "C#4",
                    "midi": 61,
                    "time": 227.51249999999789,
                    "velocity": 0.03937007874015748,
                    "duration": 0.16666666666668561
                },
                {
                    "name": "A#3",
                    "midi": 58,
                    "time": 228.37916666666456,
                    "velocity": 0.31496062992125984,
                    "duration": 0.3979166666666458
                },
                {
                    "name": "F#2",
                    "midi": 42,
                    "time": 228.3812499999979,
                    "velocity": 0.23622047244094488,
                    "duration": 1.1812499999999773
                },
                {
                    "name": "G#4",
                    "midi": 68,
                    "time": 228.38749999999789,
                    "velocity": 0.4015748031496063,
                    "duration": 1.075000000000017
                },
                {
                    "name": "C#3",
                    "midi": 49,
                    "time": 228.38958333333122,
                    "velocity": 0.3700787401574803,
                    "duration": 1.1270833333333314
                },
                {
                    "name": "F#4",
                    "midi": 66,
                    "time": 228.4020833333312,
                    "velocity": 0.5118110236220472,
                    "duration": 1.1125000000000114
                },
                {
                    "name": "A#3",
                    "midi": 58,
                    "time": 229.17499999999788,
                    "velocity": 0.47244094488188976,
                    "duration": 0.2958333333333485
                },
                {
                    "name": "C#4",
                    "midi": 61,
                    "time": 229.44166666666456,
                    "velocity": 0.6929133858267716,
                    "duration": 0.24791666666664014
                },
                {
                    "name": "A#4",
                    "midi": 70,
                    "time": 229.72916666666453,
                    "velocity": 0.7322834645669292,
                    "duration": 0.5937499999999716
                },
                {
                    "name": "F#4",
                    "midi": 66,
                    "time": 229.73124999999786,
                    "velocity": 0.4094488188976378,
                    "duration": 0.8520833333332973
                },
                {
                    "name": "C#3",
                    "midi": 49,
                    "time": 229.7333333333312,
                    "velocity": 0.33858267716535434,
                    "duration": 0.6520833333333087
                },
                {
                    "name": "F#2",
                    "midi": 42,
                    "time": 229.7416666666645,
                    "velocity": 0.16535433070866143,
                    "duration": 0.6520833333333087
                },
                {
                    "name": "A#3",
                    "midi": 58,
                    "time": 229.7416666666645,
                    "velocity": 0.4330708661417323,
                    "duration": 0.2854166666666629
                },
                {
                    "name": "A#3",
                    "midi": 58,
                    "time": 230.2916666666645,
                    "velocity": 0.4566929133858268,
                    "duration": 0.28125
                },
                {
                    "name": "C#4",
                    "midi": 61,
                    "time": 230.52291666666449,
                    "velocity": 0.7007874015748031,
                    "duration": 0.2291666666666572
                },
                {
                    "name": "D#2",
                    "midi": 39,
                    "time": 230.75416666666447,
                    "velocity": 0.49606299212598426,
                    "duration": 0.27916666666664014
                },
                {
                    "name": "A#2",
                    "midi": 46,
                    "time": 230.77708333333115,
                    "velocity": 0.4251968503937008,
                    "duration": 0.30208333333328596
                },
                {
                    "name": "F#4",
                    "midi": 66,
                    "time": 230.87083333333112,
                    "velocity": 0.5984251968503937,
                    "duration": 0.5104166666666288
                },
                {
                    "name": "A#3",
                    "midi": 58,
                    "time": 230.87499999999778,
                    "velocity": 0.5118110236220472,
                    "duration": 0.15416666666666856
                },
                {
                    "name": "F4",
                    "midi": 65,
                    "time": 230.8895833333311,
                    "velocity": 0.5748031496062992,
                    "duration": 0.44999999999998863
                },
                {
                    "name": "D#4",
                    "midi": 63,
                    "time": 231.3333333333311,
                    "velocity": 0.5590551181102362,
                    "duration": 0.3437499999999716
                },
                {
                    "name": "A#3",
                    "midi": 58,
                    "time": 231.44999999999774,
                    "velocity": 0.5905511811023622,
                    "duration": 0.07499999999998863
                },
                {
                    "name": "A#3",
                    "midi": 58,
                    "time": 231.66874999999774,
                    "velocity": 0.6299212598425197,
                    "duration": 0.18125000000000568
                },
                {
                    "name": "C#3",
                    "midi": 49,
                    "time": 231.9229166666644,
                    "velocity": 0.3543307086614173,
                    "duration": 1.8708333333333655
                },
                {
                    "name": "F#2",
                    "midi": 42,
                    "time": 231.93333333333106,
                    "velocity": 0.1968503937007874,
                    "duration": 1.9062500000000284
                },
                {
                    "name": "G#4",
                    "midi": 68,
                    "time": 231.99583333333106,
                    "velocity": 0.5748031496062992,
                    "duration": 0.7541666666666913
                },
                {
                    "name": "A#3",
                    "midi": 58,
                    "time": 232.00624999999772,
                    "velocity": 0.44881889763779526,
                    "duration": 0.3000000000000398
                },
                {
                    "name": "F#4",
                    "midi": 66,
                    "time": 232.02499999999773,
                    "velocity": 0.5826771653543307,
                    "duration": 0.7770833333333655
                },
                {
                    "name": "A#3",
                    "midi": 58,
                    "time": 232.52499999999776,
                    "velocity": 0.5669291338582677,
                    "duration": 0.2541666666666629
                },
                {
                    "name": "C#4",
                    "midi": 61,
                    "time": 232.72708333333108,
                    "velocity": 0.7795275590551181,
                    "duration": 0.2500000000000284
                },
                {
                    "name": "F#4",
                    "midi": 66,
                    "time": 233.04791666666443,
                    "velocity": 0.7244094488188977,
                    "duration": 0.9395833333333314
                },
                {
                    "name": "A#4",
                    "midi": 70,
                    "time": 233.04791666666443,
                    "velocity": 0.7874015748031497,
                    "duration": 0.7208333333333314
                },
                {
                    "name": "A#3",
                    "midi": 58,
                    "time": 233.05624999999776,
                    "velocity": 0.5826771653543307,
                    "duration": 0.3708333333333371
                },
                {
                    "name": "A#3",
                    "midi": 58,
                    "time": 233.7020833333311,
                    "velocity": 0.4015748031496063,
                    "duration": 0.33541666666667425
                },
                {
                    "name": "C#4",
                    "midi": 61,
                    "time": 233.95416666666443,
                    "velocity": 0.6535433070866141,
                    "duration": 0.23541666666667993
                },
                {
                    "name": "D#2",
                    "midi": 39,
                    "time": 234.2270833333311,
                    "velocity": 0.30708661417322836,
                    "duration": 0.3437499999999716
                },
                {
                    "name": "A#2",
                    "midi": 46,
                    "time": 234.2395833333311,
                    "velocity": 0.33858267716535434,
                    "duration": 0.3749999999999716
                },
                {
                    "name": "F#4",
                    "midi": 66,
                    "time": 234.30416666666443,
                    "velocity": 0.5354330708661418,
                    "duration": 0.5874999999999773
                },
                {
                    "name": "A#3",
                    "midi": 58,
                    "time": 234.31041666666442,
                    "velocity": 0.4094488188976378,
                    "duration": 0.27499999999997726
                },
                {
                    "name": "F4",
                    "midi": 65,
                    "time": 234.32499999999774,
                    "velocity": 0.5354330708661418,
                    "duration": 0.549999999999983
                },
                {
                    "name": "D#4",
                    "midi": 63,
                    "time": 234.73958333333107,
                    "velocity": 0.4881889763779528,
                    "duration": 0.4958333333333371
                },
                {
                    "name": "A#3",
                    "midi": 58,
                    "time": 234.93124999999773,
                    "velocity": 0.4330708661417323,
                    "duration": 0.08541666666667425
                },
                {
                    "name": "F#4",
                    "midi": 66,
                    "time": 235.01874999999774,
                    "velocity": 0.03937007874015748,
                    "duration": 0.09583333333333144
                },
                {
                    "name": "A#3",
                    "midi": 58,
                    "time": 235.1791666666644,
                    "velocity": 0.48031496062992124,
                    "duration": 0.2395833333333428
                },
                {
                    "name": "G#4",
                    "midi": 68,
                    "time": 235.72291666666442,
                    "velocity": 0.4015748031496063,
                    "duration": 0.5375000000000227
                },
                {
                    "name": "F#4",
                    "midi": 66,
                    "time": 235.7395833333311,
                    "velocity": 0.47244094488188976,
                    "duration": 0.5458333333333485
                },
                {
                    "name": "F#2",
                    "midi": 42,
                    "time": 235.7520833333311,
                    "velocity": 0.29133858267716534,
                    "duration": 0.9062500000000284
                },
                {
                    "name": "B3",
                    "midi": 59,
                    "time": 235.75416666666442,
                    "velocity": 0.3937007874015748,
                    "duration": 0.49583333333336554
                },
                {
                    "name": "D#4",
                    "midi": 63,
                    "time": 235.75624999999775,
                    "velocity": 0.3937007874015748,
                    "duration": 0.5208333333333712
                },
                {
                    "name": "B1",
                    "midi": 35,
                    "time": 235.77499999999776,
                    "velocity": 0.2677165354330709,
                    "duration": 0.8333333333333428
                },
                {
                    "name": "D#4",
                    "midi": 63,
                    "time": 236.41666666666444,
                    "velocity": 0.3937007874015748,
                    "duration": 0.21458333333333712
                },
                {
                    "name": "F#4",
                    "midi": 66,
                    "time": 236.41666666666444,
                    "velocity": 0.5039370078740157,
                    "duration": 0.2395833333333428
                },
                {
                    "name": "B3",
                    "midi": 59,
                    "time": 236.42291666666443,
                    "velocity": 0.36220472440944884,
                    "duration": 0.21041666666667425
                },
                {
                    "name": "G#4",
                    "midi": 68,
                    "time": 236.42291666666443,
                    "velocity": 0.47244094488188976,
                    "duration": 0.23125000000001705
                },
                {
                    "name": "G#4",
                    "midi": 68,
                    "time": 236.8999999999978,
                    "velocity": 0.5275590551181102,
                    "duration": 0.20833333333331439
                },
                {
                    "name": "B3",
                    "midi": 59,
                    "time": 236.90624999999778,
                    "velocity": 0.44881889763779526,
                    "duration": 0.17083333333332007
                },
                {
                    "name": "F#4",
                    "midi": 66,
                    "time": 236.90624999999778,
                    "velocity": 0.6062992125984252,
                    "duration": 0.1875
                },
                {
                    "name": "D#4",
                    "midi": 63,
                    "time": 236.91874999999777,
                    "velocity": 0.5354330708661418,
                    "duration": 0.1354166666666572
                },
                {
                    "name": "F#3",
                    "midi": 54,
                    "time": 237.34166666666442,
                    "velocity": 0.5984251968503937,
                    "duration": 0.48333333333329165
                },
                {
                    "name": "B3",
                    "midi": 59,
                    "time": 237.34166666666442,
                    "velocity": 0.4330708661417323,
                    "duration": 0.26874999999998295
                },
                {
                    "name": "G#4",
                    "midi": 68,
                    "time": 237.3458333333311,
                    "velocity": 0.5354330708661418,
                    "duration": 0.25
                },
                {
                    "name": "F#4",
                    "midi": 66,
                    "time": 237.3458333333311,
                    "velocity": 0.6220472440944882,
                    "duration": 0.2812499999999716
                },
                {
                    "name": "D#4",
                    "midi": 63,
                    "time": 237.34791666666442,
                    "velocity": 0.49606299212598426,
                    "duration": 0.2708333333333144
                },
                {
                    "name": "B2",
                    "midi": 47,
                    "time": 237.3708333333311,
                    "velocity": 0.4566929133858268,
                    "duration": 0.7208333333332746
                },
                {
                    "name": "G#4",
                    "midi": 68,
                    "time": 237.8312499999977,
                    "velocity": 0.6299212598425197,
                    "duration": 0.21249999999997726
                },
                {
                    "name": "B3",
                    "midi": 59,
                    "time": 237.8312499999977,
                    "velocity": 0.6377952755905512,
                    "duration": 0.1979166666666572
                },
                {
                    "name": "F#4",
                    "midi": 66,
                    "time": 237.83541666666437,
                    "velocity": 0.6614173228346457,
                    "duration": 0.23124999999998863
                },
                {
                    "name": "A#3",
                    "midi": 58,
                    "time": 237.84166666666437,
                    "velocity": 0.6692913385826772,
                    "duration": 0.33541666666667425
                },
                {
                    "name": "D#4",
                    "midi": 63,
                    "time": 237.84583333333103,
                    "velocity": 0.5748031496062992,
                    "duration": 0.19374999999999432
                },
                {
                    "name": "G#4",
                    "midi": 68,
                    "time": 238.2749999999977,
                    "velocity": 0.6850393700787402,
                    "duration": 0.22708333333332575
                },
                {
                    "name": "B3",
                    "midi": 59,
                    "time": 238.27708333333103,
                    "velocity": 0.6929133858267716,
                    "duration": 0.19583333333332575
                },
                {
                    "name": "F#3",
                    "midi": 54,
                    "time": 238.27708333333103,
                    "velocity": 0.7480314960629921,
                    "duration": 0.5437499999999602
                },
                {
                    "name": "F#4",
                    "midi": 66,
                    "time": 238.27916666666437,
                    "velocity": 0.7007874015748031,
                    "duration": 0.2604166666666572
                },
                {
                    "name": "D#4",
                    "midi": 63,
                    "time": 238.2874999999977,
                    "velocity": 0.6377952755905512,
                    "duration": 0.2083333333333428
                },
                {
                    "name": "B2",
                    "midi": 47,
                    "time": 238.29999999999768,
                    "velocity": 0.44881889763779526,
                    "duration": 0.5395833333333258
                },
                {
                    "name": "G#4",
                    "midi": 68,
                    "time": 238.7499999999977,
                    "velocity": 0.6771653543307087,
                    "duration": 0.21041666666664582
                },
                {
                    "name": "B3",
                    "midi": 59,
                    "time": 238.7562499999977,
                    "velocity": 0.6929133858267716,
                    "duration": 0.13749999999998863
                },
                {
                    "name": "F#4",
                    "midi": 66,
                    "time": 238.75833333333102,
                    "velocity": 0.7086614173228346,
                    "duration": 0.17916666666664582
                },
                {
                    "name": "G#3",
                    "midi": 56,
                    "time": 238.7624999999977,
                    "velocity": 0.7716535433070866,
                    "duration": 0.864583333333286
                },
                {
                    "name": "D#4",
                    "midi": 63,
                    "time": 238.7624999999977,
                    "velocity": 0.6614173228346457,
                    "duration": 0.17708333333331439
                },
                {
                    "name": "B4",
                    "midi": 71,
                    "time": 239.31249999999767,
                    "velocity": 0.6535433070866141,
                    "duration": 0.14583333333331439
                },
                {
                    "name": "D#4",
                    "midi": 63,
                    "time": 239.333333333331,
                    "velocity": 0.5275590551181102,
                    "duration": 0.0999999999999659
                },
                {
                    "name": "F#4",
                    "midi": 66,
                    "time": 239.34374999999767,
                    "velocity": 0.5984251968503937,
                    "duration": 0.11458333333331439
                },
                {
                    "name": "G#4",
                    "midi": 68,
                    "time": 239.352083333331,
                    "velocity": 0.44881889763779526,
                    "duration": 0.10833333333332007
                },
                {
                    "name": "D#5",
                    "midi": 75,
                    "time": 239.80416666666432,
                    "velocity": 0.6850393700787402,
                    "duration": 0.1312499999999659
                },
                {
                    "name": "F#4",
                    "midi": 66,
                    "time": 239.80833333333098,
                    "velocity": 0.5984251968503937,
                    "duration": 0.09375
                },
                {
                    "name": "G#4",
                    "midi": 68,
                    "time": 239.8166666666643,
                    "velocity": 0.5511811023622047,
                    "duration": 0.08958333333333712
                },
                {
                    "name": "B4",
                    "midi": 71,
                    "time": 239.8166666666643,
                    "velocity": 0.5196850393700787,
                    "duration": 0.10416666666665719
                },
                {
                    "name": "B3",
                    "midi": 59,
                    "time": 240.0166666666643,
                    "velocity": 0.7086614173228346,
                    "duration": 0.2583333333333542
                },
                {
                    "name": "D#5",
                    "midi": 75,
                    "time": 240.22083333333097,
                    "velocity": 0.7007874015748031,
                    "duration": 0.14374999999998295
                },
                {
                    "name": "G#4",
                    "midi": 68,
                    "time": 240.2229166666643,
                    "velocity": 0.6850393700787402,
                    "duration": 0.09999999999999432
                },
                {
                    "name": "F#5",
                    "midi": 78,
                    "time": 240.2229166666643,
                    "velocity": 0.7007874015748031,
                    "duration": 0.13124999999999432
                },
                {
                    "name": "B4",
                    "midi": 71,
                    "time": 240.24166666666432,
                    "velocity": 0.5354330708661418,
                    "duration": 0.07083333333332575
                },
                {
                    "name": "D#4",
                    "midi": 63,
                    "time": 240.24374999999765,
                    "velocity": 0.7874015748031497,
                    "duration": 0.27499999999997726
                },
                {
                    "name": "F#4",
                    "midi": 66,
                    "time": 240.4374999999976,
                    "velocity": 0.8503937007874016,
                    "duration": 0.3062500000000057
                },
                {
                    "name": "G#5",
                    "midi": 80,
                    "time": 240.66458333333097,
                    "velocity": 0.7480314960629921,
                    "duration": 0.33124999999998295
                },
                {
                    "name": "F#5",
                    "midi": 78,
                    "time": 240.6666666666643,
                    "velocity": 0.7322834645669292,
                    "duration": 0.3437499999999716
                },
                {
                    "name": "B4",
                    "midi": 71,
                    "time": 240.66874999999763,
                    "velocity": 0.7086614173228346,
                    "duration": 0.3020833333333144
                },
                {
                    "name": "D#5",
                    "midi": 75,
                    "time": 240.67083333333096,
                    "velocity": 0.7480314960629921,
                    "duration": 0.3333333333333144
                },
                {
                    "name": "G#4",
                    "midi": 68,
                    "time": 240.68333333333095,
                    "velocity": 0.8188976377952756,
                    "duration": 0.4895833333333144
                },
                {
                    "name": "A#5",
                    "midi": 82,
                    "time": 241.15416666666428,
                    "velocity": 0.889763779527559,
                    "duration": 0.408333333333303
                },
                {
                    "name": "B4",
                    "midi": 71,
                    "time": 241.16041666666428,
                    "velocity": 0.7952755905511811,
                    "duration": 0.3541666666666572
                },
                {
                    "name": "D#5",
                    "midi": 75,
                    "time": 241.16666666666427,
                    "velocity": 0.7322834645669292,
                    "duration": 0.3479166666666629
                },
                {
                    "name": "F#5",
                    "midi": 78,
                    "time": 241.17083333333093,
                    "velocity": 0.6614173228346457,
                    "duration": 0.35208333333332575
                },
                {
                    "name": "B3",
                    "midi": 59,
                    "time": 241.17916666666426,
                    "velocity": 0.7086614173228346,
                    "duration": 0.549999999999983
                },
                {
                    "name": "A#4",
                    "midi": 70,
                    "time": 241.40416666666425,
                    "velocity": 0.889763779527559,
                    "duration": 0.2562499999999943
                },
                {
                    "name": "B5",
                    "midi": 83,
                    "time": 241.74999999999758,
                    "velocity": 0.7559055118110236,
                    "duration": 0.3020833333333144
                },
                {
                    "name": "G#4",
                    "midi": 68,
                    "time": 241.74999999999758,
                    "velocity": 0.8976377952755905,
                    "duration": 2.127083333333303
                },
                {
                    "name": "F#5",
                    "midi": 78,
                    "time": 241.75208333333092,
                    "velocity": 0.7716535433070866,
                    "duration": 0.4062499999999716
                },
                {
                    "name": "D#5",
                    "midi": 75,
                    "time": 241.76249999999757,
                    "velocity": 0.7874015748031497,
                    "duration": 0.40416666666664014
                },
                {
                    "name": "B4",
                    "midi": 71,
                    "time": 241.76666666666424,
                    "velocity": 0.6692913385826772,
                    "duration": 0.40416666666664014
                },
                {
                    "name": "G#5",
                    "midi": 80,
                    "time": 241.79166666666424,
                    "velocity": 0.3543307086614173,
                    "duration": 0.04166666666665719
                },
                {
                    "name": "B5",
                    "midi": 83,
                    "time": 242.29374999999754,
                    "velocity": 0.8110236220472441,
                    "duration": 0.34583333333333144
                },
                {
                    "name": "F#5",
                    "midi": 78,
                    "time": 242.29583333333088,
                    "velocity": 0.8188976377952756,
                    "duration": 0.3708333333333371
                },
                {
                    "name": "B4",
                    "midi": 71,
                    "time": 242.29999999999754,
                    "velocity": 0.8110236220472441,
                    "duration": 0.2604166666666572
                },
                {
                    "name": "D#5",
                    "midi": 75,
                    "time": 242.30208333333087,
                    "velocity": 0.8346456692913385,
                    "duration": 0.35625000000001705
                },
                {
                    "name": "B5",
                    "midi": 83,
                    "time": 242.7666666666642,
                    "velocity": 0.8503937007874016,
                    "duration": 0.33125000000001137
                },
                {
                    "name": "F#5",
                    "midi": 78,
                    "time": 242.77083333333087,
                    "velocity": 0.8818897637795275,
                    "duration": 0.3541666666666856
                },
                {
                    "name": "B4",
                    "midi": 71,
                    "time": 242.7729166666642,
                    "velocity": 0.8818897637795275,
                    "duration": 0.3062500000000057
                },
                {
                    "name": "D#5",
                    "midi": 75,
                    "time": 242.77499999999753,
                    "velocity": 0.8503937007874016,
                    "duration": 0.3270833333333485
                },
                {
                    "name": "B5",
                    "midi": 83,
                    "time": 243.24166666666423,
                    "velocity": 0.889763779527559,
                    "duration": 0.19166666666666288
                },
                {
                    "name": "F#5",
                    "midi": 78,
                    "time": 243.24166666666423,
                    "velocity": 0.8818897637795275,
                    "duration": 0.18958333333333144
                },
                {
                    "name": "B4",
                    "midi": 71,
                    "time": 243.2458333333309,
                    "velocity": 0.9133858267716536,
                    "duration": 0.08958333333333712
                },
                {
                    "name": "D#5",
                    "midi": 75,
                    "time": 243.24791666666422,
                    "velocity": 0.8818897637795275,
                    "duration": 0.15208333333333712
                },
                {
                    "name": "C#6",
                    "midi": 85,
                    "time": 243.82916666666424,
                    "velocity": 0.889763779527559,
                    "duration": 0.3499999999999943
                },
                {
                    "name": "B5",
                    "midi": 83,
                    "time": 243.83541666666423,
                    "velocity": 0.7637795275590551,
                    "duration": 0.43541666666666856
                },
                {
                    "name": "F#4",
                    "midi": 66,
                    "time": 243.83749999999756,
                    "velocity": 0.905511811023622,
                    "duration": 0.6500000000000057
                },
                {
                    "name": "D#5",
                    "midi": 75,
                    "time": 243.83749999999756,
                    "velocity": 0.8503937007874016,
                    "duration": 0.37291666666666856
                },
                {
                    "name": "F#5",
                    "midi": 78,
                    "time": 243.84374999999756,
                    "velocity": 0.7322834645669292,
                    "duration": 0.40833333333333144
                },
                {
                    "name": "D#5",
                    "midi": 75,
                    "time": 244.54374999999757,
                    "velocity": 0.6299212598425197,
                    "duration": 0.11041666666665151
                },
                {
                    "name": "D#6",
                    "midi": 87,
                    "time": 244.5458333333309,
                    "velocity": 0.8110236220472441,
                    "duration": 0.29999999999998295
                },
                {
                    "name": "F#5",
                    "midi": 78,
                    "time": 244.55624999999756,
                    "velocity": 0.5984251968503937,
                    "duration": 0.14374999999998295
                },
                {
                    "name": "B5",
                    "midi": 83,
                    "time": 244.55624999999756,
                    "velocity": 0.5511811023622047,
                    "duration": 0.3062500000000057
                },
                {
                    "name": "B2",
                    "midi": 47,
                    "time": 245.79166666666424,
                    "velocity": 0.4251968503937008,
                    "duration": 0.9625000000000057
                },
                {
                    "name": "D#5",
                    "midi": 75,
                    "time": 246.53333333333092,
                    "velocity": 0.6299212598425197,
                    "duration": 0.15208333333333712
                },
                {
                    "name": "F#4",
                    "midi": 66,
                    "time": 247.23958333333093,
                    "velocity": 0.5590551181102362,
                    "duration": 0.7937499999999318
                },
                {
                    "name": "G#3",
                    "midi": 56,
                    "time": 247.24999999999758,
                    "velocity": 0.29133858267716534,
                    "duration": 0.45624999999998295
                },
                {
                    "name": "D#3",
                    "midi": 51,
                    "time": 247.26041666666424,
                    "velocity": 0.33858267716535434,
                    "duration": 0.8062499999999488
                },
                {
                    "name": "B3",
                    "midi": 59,
                    "time": 247.27708333333092,
                    "velocity": 0.3937007874015748,
                    "duration": 0.4437499999999659
                },
                {
                    "name": "G#3",
                    "midi": 56,
                    "time": 247.8291666666642,
                    "velocity": 0.5275590551181102,
                    "duration": 0.13333333333332575
                },
                {
                    "name": "B3",
                    "midi": 59,
                    "time": 247.84374999999753,
                    "velocity": 0.5511811023622047,
                    "duration": 0.11875000000000568
                },
                {
                    "name": "F4",
                    "midi": 65,
                    "time": 248.29166666666418,
                    "velocity": 0.6929133858267716,
                    "duration": 0.6145833333333428
                },
                {
                    "name": "C#3",
                    "midi": 49,
                    "time": 248.2999999999975,
                    "velocity": 0.5039370078740157,
                    "duration": 0.5041666666666913
                },
                {
                    "name": "G#3",
                    "midi": 56,
                    "time": 248.30833333333084,
                    "velocity": 0.4566929133858268,
                    "duration": 0.34583333333335986
                },
                {
                    "name": "C#4",
                    "midi": 61,
                    "time": 248.32499999999752,
                    "velocity": 0.6299212598425197,
                    "duration": 0.3125
                },
                {
                    "name": "B2",
                    "midi": 47,
                    "time": 248.7416666666642,
                    "velocity": 0.6850393700787402,
                    "duration": 0.5749999999999602
                },
                {
                    "name": "G#3",
                    "midi": 56,
                    "time": 248.74374999999753,
                    "velocity": 0.6377952755905512,
                    "duration": 0.35624999999998863
                },
                {
                    "name": "C#4",
                    "midi": 61,
                    "time": 248.75624999999752,
                    "velocity": 0.7480314960629921,
                    "duration": 0.26666666666667993
                },
                {
                    "name": "A#2",
                    "midi": 46,
                    "time": 249.17708333333084,
                    "velocity": 0.5275590551181102,
                    "duration": 0.7604166666666003
                },
                {
                    "name": "G#4",
                    "midi": 68,
                    "time": 249.21666666666417,
                    "velocity": 0.7244094488188977,
                    "duration": 1.3583333333332632
                },
                {
                    "name": "G#3",
                    "midi": 56,
                    "time": 249.23958333333084,
                    "velocity": 0.41732283464566927,
                    "duration": 0.38333333333329733
                },
                {
                    "name": "C#4",
                    "midi": 61,
                    "time": 249.24583333333084,
                    "velocity": 0.6377952755905512,
                    "duration": 0.36874999999997726
                },
                {
                    "name": "C#4",
                    "midi": 61,
                    "time": 249.76041666666413,
                    "velocity": 0.5039370078740157,
                    "duration": 0.1666666666666572
                },
                {
                    "name": "G#3",
                    "midi": 56,
                    "time": 249.7645833333308,
                    "velocity": 0.28346456692913385,
                    "duration": 0.1833333333333087
                },
                {
                    "name": "A#3",
                    "midi": 58,
                    "time": 250.21249999999742,
                    "velocity": 0.3858267716535433,
                    "duration": 0.21041666666667425
                },
                {
                    "name": "C#4",
                    "midi": 61,
                    "time": 250.2187499999974,
                    "velocity": 0.47244094488188976,
                    "duration": 0.14791666666667425
                },
                {
                    "name": "G#3",
                    "midi": 56,
                    "time": 250.2249999999974,
                    "velocity": 0.2440944881889764,
                    "duration": 0.14375000000001137
                },
                {
                    "name": "C#4",
                    "midi": 61,
                    "time": 250.72083333333077,
                    "velocity": 0.5748031496062992,
                    "duration": 0.11250000000001137
                },
                {
                    "name": "F#4",
                    "midi": 66,
                    "time": 250.72083333333077,
                    "velocity": 0.5984251968503937,
                    "duration": 0.15833333333333144
                },
                {
                    "name": "F#3",
                    "midi": 54,
                    "time": 250.74999999999744,
                    "velocity": 0.41732283464566927,
                    "duration": 0.2604166666666572
                },
                {
                    "name": "D#3",
                    "midi": 51,
                    "time": 251.38958333333076,
                    "velocity": 0.4881889763779528,
                    "duration": 0.6312499999999943
                },
                {
                    "name": "C#4",
                    "midi": 61,
                    "time": 251.40624999999744,
                    "velocity": 0.4015748031496063,
                    "duration": 0.5374999999999943
                },
                {
                    "name": "F#4",
                    "midi": 66,
                    "time": 251.41249999999744,
                    "velocity": 0.5118110236220472,
                    "duration": 0.6249999999999716
                },
                {
                    "name": "B4",
                    "midi": 71,
                    "time": 251.4166666666641,
                    "velocity": 0.5196850393700787,
                    "duration": 0.47708333333332575
                },
                {
                    "name": "F3",
                    "midi": 53,
                    "time": 252.03333333333075,
                    "velocity": 0.3858267716535433,
                    "duration": 0.6374999999999886
                },
                {
                    "name": "G#4",
                    "midi": 68,
                    "time": 252.07291666666407,
                    "velocity": 0.5905511811023622,
                    "duration": 0.5833333333333428
                },
                {
                    "name": "C#5",
                    "midi": 73,
                    "time": 252.0812499999974,
                    "velocity": 0.5984251968503937,
                    "duration": 0.4312500000000057
                },
                {
                    "name": "C#4",
                    "midi": 61,
                    "time": 252.10208333333074,
                    "velocity": 0.28346456692913385,
                    "duration": 0.3958333333333428
                },
                {
                    "name": "A#4",
                    "midi": 70,
                    "time": 252.59166666666408,
                    "velocity": 0.7716535433070866,
                    "duration": 0.5624999999999432
                },
                {
                    "name": "C#4",
                    "midi": 61,
                    "time": 252.5999999999974,
                    "velocity": 0.48031496062992124,
                    "duration": 0.36874999999997726
                },
                {
                    "name": "F#3",
                    "midi": 54,
                    "time": 252.60208333333074,
                    "velocity": 0.5433070866141733,
                    "duration": 1.131249999999909
                },
                {
                    "name": "D#3",
                    "midi": 51,
                    "time": 253.0708333333307,
                    "velocity": 0.47244094488188976,
                    "duration": 0.6520833333332803
                },
                {
                    "name": "F#4",
                    "midi": 66,
                    "time": 253.07916666666404,
                    "velocity": 0.7952755905511811,
                    "duration": 0.44999999999998863
                },
                {
                    "name": "C#4",
                    "midi": 61,
                    "time": 253.09166666666403,
                    "velocity": 0.4881889763779528,
                    "duration": 0.4104166666666629
                },
                {
                    "name": "C#3",
                    "midi": 49,
                    "time": 253.572916666664,
                    "velocity": 0.2283464566929134,
                    "duration": 1.6499999999999773
                },
                {
                    "name": "G#3",
                    "midi": 56,
                    "time": 253.63124999999735,
                    "velocity": 0.2992125984251969,
                    "duration": 1.612499999999983
                },
                {
                    "name": "F#4",
                    "midi": 66,
                    "time": 253.63958333333068,
                    "velocity": 0.4330708661417323,
                    "duration": 0.7979166666666231
                },
                {
                    "name": "C#5",
                    "midi": 73,
                    "time": 253.64374999999734,
                    "velocity": 0.6299212598425197,
                    "duration": 1.7208333333333314
                },
                {
                    "name": "C#4",
                    "midi": 61,
                    "time": 253.647916666664,
                    "velocity": 0.4409448818897638,
                    "duration": 0.408333333333303
                },
                {
                    "name": "C#4",
                    "midi": 61,
                    "time": 254.22708333333063,
                    "velocity": 0.4015748031496063,
                    "duration": 0.2395833333333428
                },
                {
                    "name": "F4",
                    "midi": 65,
                    "time": 254.8937499999973,
                    "velocity": 0.3700787401574803,
                    "duration": 0.40208333333336554
                },
                {
                    "name": "C#4",
                    "midi": 61,
                    "time": 254.91666666666399,
                    "velocity": 0.07874015748031496,
                    "duration": 0.3229166666666856
                },
                {
                    "name": "F#4",
                    "midi": 66,
                    "time": 255.660416666664,
                    "velocity": 0.5354330708661418,
                    "duration": 0.4333333333333371
                },
                {
                    "name": "D#4",
                    "midi": 63,
                    "time": 255.679166666664,
                    "velocity": 0.4094488188976378,
                    "duration": 0.8291666666667084
                },
                {
                    "name": "F4",
                    "midi": 65,
                    "time": 255.69999999999735,
                    "velocity": 0.31496062992125984,
                    "duration": 0.2291666666666572
                },
                {
                    "name": "B3",
                    "midi": 59,
                    "time": 255.70833333333067,
                    "velocity": 0.33070866141732286,
                    "duration": 0.5875000000000057
                },
                {
                    "name": "C#4",
                    "midi": 61,
                    "time": 256.304166666664,
                    "velocity": 0.5196850393700787,
                    "duration": 0.23958333333337123
                },
                {
                    "name": "A#4",
                    "midi": 70,
                    "time": 256.30624999999736,
                    "velocity": 0.5826771653543307,
                    "duration": 0.6375000000000455
                },
                {
                    "name": "A#3",
                    "midi": 58,
                    "time": 256.3124999999974,
                    "velocity": 0.31496062992125984,
                    "duration": 0.2333333333333485
                },
                {
                    "name": "F#4",
                    "midi": 66,
                    "time": 256.83333333333076,
                    "velocity": 0.7244094488188977,
                    "duration": 0.6750000000000114
                },
                {
                    "name": "D#4",
                    "midi": 63,
                    "time": 256.8354166666641,
                    "velocity": 0.5590551181102362,
                    "duration": 0.2166666666665833
                },
                {
                    "name": "B3",
                    "midi": 59,
                    "time": 256.85208333333077,
                    "velocity": 0.4409448818897638,
                    "duration": 0.18749999999994316
                },
                {
                    "name": "G#3",
                    "midi": 56,
                    "time": 256.86458333333076,
                    "velocity": 0.49606299212598426,
                    "duration": 0.2104166666666174
                },
                {
                    "name": "B4",
                    "midi": 71,
                    "time": 257.01458333333073,
                    "velocity": 0.6850393700787402,
                    "duration": 0.26875000000001137
                },
                {
                    "name": "C#5",
                    "midi": 73,
                    "time": 257.2687499999974,
                    "velocity": 0.6299212598425197,
                    "duration": 1.1395833333333485
                },
                {
                    "name": "A#3",
                    "midi": 58,
                    "time": 257.29374999999743,
                    "velocity": 0.33070866141732286,
                    "duration": 0.19583333333332575
                },
                {
                    "name": "F#3",
                    "midi": 54,
                    "time": 257.2979166666641,
                    "velocity": 0.47244094488188976,
                    "duration": 0.16250000000002274
                },
                {
                    "name": "C#4",
                    "midi": 61,
                    "time": 257.3145833333308,
                    "velocity": 0.33858267716535434,
                    "duration": 0.18124999999997726
                },
                {
                    "name": "A#4",
                    "midi": 70,
                    "time": 257.78333333333075,
                    "velocity": 0.6929133858267716,
                    "duration": 0.7479166666666401
                },
                {
                    "name": "D#4",
                    "midi": 63,
                    "time": 258.32708333333073,
                    "velocity": 0.47244094488188976,
                    "duration": 0.41458333333332575
                },
                {
                    "name": "B3",
                    "midi": 59,
                    "time": 258.3395833333307,
                    "velocity": 0.36220472440944884,
                    "duration": 0.5916666666666401
                },
                {
                    "name": "D#5",
                    "midi": 75,
                    "time": 258.35833333333073,
                    "velocity": 0.6299212598425197,
                    "duration": 0.5937499999999432
                },
                {
                    "name": "G#4",
                    "midi": 68,
                    "time": 258.6520833333307,
                    "velocity": 0.6929133858267716,
                    "duration": 0.25
                },
                {
                    "name": "F#5",
                    "midi": 78,
                    "time": 258.8749999999974,
                    "velocity": 0.7559055118110236,
                    "duration": 0.39999999999997726
                },
                {
                    "name": "F#4",
                    "midi": 66,
                    "time": 258.8833333333307,
                    "velocity": 0.6929133858267716,
                    "duration": 0.18958333333330302
                },
                {
                    "name": "F4",
                    "midi": 65,
                    "time": 259.054166666664,
                    "velocity": 0.7086614173228346,
                    "duration": 0.279166666666697
                },
                {
                    "name": "D#4",
                    "midi": 63,
                    "time": 259.279166666664,
                    "velocity": 0.6299212598425197,
                    "duration": 0.42916666666667425
                },
                {
                    "name": "B4",
                    "midi": 71,
                    "time": 259.28541666666405,
                    "velocity": 0.6771653543307087,
                    "duration": 0.5520833333333144
                },
                {
                    "name": "G#3",
                    "midi": 56,
                    "time": 259.2895833333307,
                    "velocity": 0.5669291338582677,
                    "duration": 0.42916666666667425
                },
                {
                    "name": "F4",
                    "midi": 65,
                    "time": 259.70624999999734,
                    "velocity": 0.6692913385826772,
                    "duration": 0.09166666666669698
                },
                {
                    "name": "A#4",
                    "midi": 70,
                    "time": 259.885416666664,
                    "velocity": 0.7716535433070866,
                    "duration": 0.32916666666670835
                },
                {
                    "name": "F#4",
                    "midi": 66,
                    "time": 259.93333333333067,
                    "velocity": 0.7007874015748031,
                    "duration": 0.06458333333335986
                },
                {
                    "name": "F#3",
                    "midi": 54,
                    "time": 259.9395833333307,
                    "velocity": 0.6299212598425197,
                    "duration": 0.07083333333332575
                },
                {
                    "name": "G#4",
                    "midi": 68,
                    "time": 260.14166666666404,
                    "velocity": 0.7559055118110236,
                    "duration": 0.3958333333334281
                },
                {
                    "name": "F3",
                    "midi": 53,
                    "time": 260.14791666666406,
                    "velocity": 0.5826771653543307,
                    "duration": 0.2937500000000455
                },
                {
                    "name": "G#4",
                    "midi": 68,
                    "time": 260.65416666666414,
                    "velocity": 0.7559055118110236,
                    "duration": 0.8312500000000114
                },
                {
                    "name": "F#3",
                    "midi": 54,
                    "time": 261.16041666666416,
                    "velocity": 0.4015748031496063,
                    "duration": 0.6749999999998977
                },
                {
                    "name": "C#4",
                    "midi": 61,
                    "time": 261.20208333333085,
                    "velocity": 0.4566929133858268,
                    "duration": 0.5124999999999318
                },
                {
                    "name": "A#4",
                    "midi": 70,
                    "time": 261.20833333333087,
                    "velocity": 0.7007874015748031,
                    "duration": 0.6999999999998749
                },
                {
                    "name": "F#4",
                    "midi": 66,
                    "time": 261.59166666666414,
                    "velocity": 0.6692913385826772,
                    "duration": 0.18541666666664014
                },
                {
                    "name": "F4",
                    "midi": 65,
                    "time": 261.8062499999974,
                    "velocity": 0.6692913385826772,
                    "duration": 0.19791666666662877
                },
                {
                    "name": "D#4",
                    "midi": 63,
                    "time": 261.97916666666407,
                    "velocity": 0.7874015748031497,
                    "duration": 0.08124999999995453
                },
                {
                    "name": "C#4",
                    "midi": 61,
                    "time": 262.21249999999736,
                    "velocity": 0.5984251968503937,
                    "duration": 0.40625000000005684
                },
                {
                    "name": "F#4",
                    "midi": 66,
                    "time": 262.2208333333307,
                    "velocity": 0.7401574803149606,
                    "duration": 0.07916666666665151
                },
                {
                    "name": "G#3",
                    "midi": 56,
                    "time": 262.2395833333307,
                    "velocity": 0.4330708661417323,
                    "duration": 0.8104166666667538
                },
                {
                    "name": "D#3",
                    "midi": 51,
                    "time": 262.247916666664,
                    "velocity": 0.2047244094488189,
                    "duration": 0.5708333333333826
                },
                {
                    "name": "G#4",
                    "midi": 68,
                    "time": 262.27499999999736,
                    "velocity": 0.6220472440944882,
                    "duration": 0.09166666666664014
                },
                {
                    "name": "F#4",
                    "midi": 66,
                    "time": 262.3583333333307,
                    "velocity": 0.5275590551181102,
                    "duration": 0.35416666666674246
                },
                {
                    "name": "C4",
                    "midi": 60,
                    "time": 262.64791666666406,
                    "velocity": 0.5984251968503937,
                    "duration": 0.39583333333337123
                },
                {
                    "name": "F4",
                    "midi": 65,
                    "time": 262.65833333333075,
                    "velocity": 0.6929133858267716,
                    "duration": 0.21041666666667425
                },
                {
                    "name": "F#4",
                    "midi": 66,
                    "time": 262.82499999999743,
                    "velocity": 0.8346456692913385,
                    "duration": 0.23125000000004547
                },
                {
                    "name": "F3",
                    "midi": 53,
                    "time": 263.04999999999745,
                    "velocity": 0.3700787401574803,
                    "duration": 0.36666666666667425
                },
                {
                    "name": "C#4",
                    "midi": 61,
                    "time": 263.0708333333308,
                    "velocity": 0.5826771653543307,
                    "duration": 0.37291666666664014
                },
                {
                    "name": "G#4",
                    "midi": 68,
                    "time": 263.0708333333308,
                    "velocity": 0.6771653543307087,
                    "duration": 0.7708333333333712
                },
                {
                    "name": "C#3",
                    "midi": 49,
                    "time": 263.09166666666414,
                    "velocity": 0.4330708661417323,
                    "duration": 1.4333333333335077
                },
                {
                    "name": "F3",
                    "midi": 53,
                    "time": 263.5520833333308,
                    "velocity": 0.4881889763779528,
                    "duration": 0.25208333333335986
                },
                {
                    "name": "C#4",
                    "midi": 61,
                    "time": 263.7395833333308,
                    "velocity": 0.6692913385826772,
                    "duration": 0.17083333333340533
                },
                {
                    "name": "F3",
                    "midi": 53,
                    "time": 264.0062499999976,
                    "velocity": 0.4015748031496063,
                    "duration": 0.30208333333337123
                },
                {
                    "name": "C#4",
                    "midi": 61,
                    "time": 264.0062499999976,
                    "velocity": 0.4094488188976378,
                    "duration": 0.3041666666667311
                },
                {
                    "name": "G#4",
                    "midi": 68,
                    "time": 264.00833333333094,
                    "velocity": 0.6692913385826772,
                    "duration": 0.9250000000000682
                },
                {
                    "name": "F3",
                    "midi": 53,
                    "time": 264.470833333331,
                    "velocity": 0.5196850393700787,
                    "duration": 0.19375000000002274
                },
                {
                    "name": "C#4",
                    "midi": 61,
                    "time": 264.63124999999764,
                    "velocity": 0.5118110236220472,
                    "duration": 0.15625
                },
                {
                    "name": "B2",
                    "midi": 47,
                    "time": 264.91874999999766,
                    "velocity": 0.4645669291338583,
                    "duration": 0.44791666666662877
                },
                {
                    "name": "F#2",
                    "midi": 42,
                    "time": 264.94166666666433,
                    "velocity": 0.2283464566929134,
                    "duration": 0.36874999999997726
                },
                {
                    "name": "A#4",
                    "midi": 70,
                    "time": 265.008333333331,
                    "velocity": 0.5669291338582677,
                    "duration": 0.4249999999999545
                },
                {
                    "name": "B3",
                    "midi": 59,
                    "time": 265.027083333331,
                    "velocity": 0.5118110236220472,
                    "duration": 0.35416666666662877
                },
                {
                    "name": "D#3",
                    "midi": 51,
                    "time": 265.24999999999767,
                    "velocity": 0.5984251968503937,
                    "duration": 0.34166666666664014
                },
                {
                    "name": "F#4",
                    "midi": 66,
                    "time": 265.37083333333095,
                    "velocity": 0.7401574803149606,
                    "duration": 0.3687500000000341
                },
                {
                    "name": "F#3",
                    "midi": 54,
                    "time": 265.5187499999976,
                    "velocity": 0.6141732283464567,
                    "duration": 0.11458333333337123
                },
                {
                    "name": "D#4",
                    "midi": 63,
                    "time": 265.683333333331,
                    "velocity": 0.7244094488188977,
                    "duration": 0.13125000000002274
                },
                {
                    "name": "A#3",
                    "midi": 58,
                    "time": 265.808333333331,
                    "velocity": 0.5905511811023622,
                    "duration": 0.28125
                },
                {
                    "name": "G#4",
                    "midi": 68,
                    "time": 266.0999999999977,
                    "velocity": 0.6299212598425197,
                    "duration": 0.8437499999998863
                },
                {
                    "name": "C#3",
                    "midi": 49,
                    "time": 266.10416666666436,
                    "velocity": 0.3779527559055118,
                    "duration": 0.6499999999999204
                },
                {
                    "name": "C#4",
                    "midi": 61,
                    "time": 266.108333333331,
                    "velocity": 0.4566929133858268,
                    "duration": 0.45833333333325754
                },
                {
                    "name": "F3",
                    "midi": 53,
                    "time": 266.1312499999977,
                    "velocity": 0.3779527559055118,
                    "duration": 0.3208333333332689
                },
                {
                    "name": "F3",
                    "midi": 53,
                    "time": 266.64166666666426,
                    "velocity": 0.49606299212598426,
                    "duration": 0.10624999999998863
                },
                {
                    "name": "C#4",
                    "midi": 61,
                    "time": 266.8562499999976,
                    "velocity": 0.4881889763779528,
                    "duration": 0.6458333333333144
                },
                {
                    "name": "G#2",
                    "midi": 44,
                    "time": 267.17499999999757,
                    "velocity": 0.3858267716535433,
                    "duration": 0.3687500000000341
                },
                {
                    "name": "C#2",
                    "midi": 37,
                    "time": 267.17916666666423,
                    "velocity": 0.36220472440944884,
                    "duration": 0.31458333333335986
                },
                {
                    "name": "G#4",
                    "midi": 68,
                    "time": 267.22916666666424,
                    "velocity": 0.4881889763779528,
                    "duration": 0.4104166666667197
                },
                {
                    "name": "C#3",
                    "midi": 49,
                    "time": 267.88333333333094,
                    "velocity": 0.5118110236220472,
                    "duration": 1.1958333333333826
                },
                {
                    "name": "F3",
                    "midi": 53,
                    "time": 268.4166666666643,
                    "velocity": 0.5354330708661418,
                    "duration": 0.5145833333333485
                },
                {
                    "name": "F#3",
                    "midi": 54,
                    "time": 268.8937499999976,
                    "velocity": 0.7165354330708661,
                    "duration": 0.36250000000001137
                },
                {
                    "name": "G#4",
                    "midi": 68,
                    "time": 269.4729166666643,
                    "velocity": 0.5511811023622047,
                    "duration": 0.8395833333332803
                },
                {
                    "name": "C#3",
                    "midi": 49,
                    "time": 269.4812499999976,
                    "velocity": 0.4094488188976378,
                    "duration": 1.7020833333332916
                },
                {
                    "name": "G#3",
                    "midi": 56,
                    "time": 269.4895833333309,
                    "velocity": 0.4330708661417323,
                    "duration": 0.4187499999999318
                },
                {
                    "name": "C#4",
                    "midi": 61,
                    "time": 269.5020833333309,
                    "velocity": 0.2440944881889764,
                    "duration": 0.5729166666666288
                },
                {
                    "name": "E4",
                    "midi": 64,
                    "time": 269.51041666666424,
                    "velocity": 0.3700787401574803,
                    "duration": 1.0020833333333599
                },
                {
                    "name": "G#3",
                    "midi": 56,
                    "time": 270.10624999999754,
                    "velocity": 0.6692913385826772,
                    "duration": 1.0416666666666856
                },
                {
                    "name": "C#4",
                    "midi": 61,
                    "time": 270.3270833333309,
                    "velocity": 0.8110236220472441,
                    "duration": 0.1708333333333485
                },
                {
                    "name": "C#4",
                    "midi": 61,
                    "time": 270.6145833333309,
                    "velocity": 0.6850393700787402,
                    "duration": 0.2854166666666629
                },
                {
                    "name": "G#4",
                    "midi": 68,
                    "time": 270.6249999999976,
                    "velocity": 0.7795275590551181,
                    "duration": 0.6187499999999204
                },
                {
                    "name": "E4",
                    "midi": 64,
                    "time": 270.6458333333309,
                    "velocity": 0.5669291338582677,
                    "duration": 0.3291666666666515
                },
                {
                    "name": "B3",
                    "midi": 59,
                    "time": 271.07291666666424,
                    "velocity": 0.7637795275590551,
                    "duration": 0.13541666666662877
                },
                {
                    "name": "C#4",
                    "midi": 61,
                    "time": 271.2874999999975,
                    "velocity": 0.8188976377952756,
                    "duration": 0.1791666666666174
                },
                {
                    "name": "G#4",
                    "midi": 68,
                    "time": 271.3666666666642,
                    "velocity": 0.09448818897637795,
                    "duration": 0.08333333333331439
                },
                {
                    "name": "F#2",
                    "midi": 42,
                    "time": 271.5541666666641,
                    "velocity": 0.5826771653543307,
                    "duration": 0.4145833333333826
                },
                {
                    "name": "A#4",
                    "midi": 70,
                    "time": 271.61249999999745,
                    "velocity": 0.7322834645669292,
                    "duration": 0.43750000000005684
                },
                {
                    "name": "A#3",
                    "midi": 58,
                    "time": 271.6145833333308,
                    "velocity": 0.5984251968503937,
                    "duration": 0.560416666666697
                },
                {
                    "name": "F#4",
                    "midi": 66,
                    "time": 271.9874999999975,
                    "velocity": 0.8188976377952756,
                    "duration": 0.3583333333333485
                },
                {
                    "name": "G#3",
                    "midi": 56,
                    "time": 272.12083333333084,
                    "velocity": 0.6614173228346457,
                    "duration": 0.4812500000000455
                },
                {
                    "name": "C#4",
                    "midi": 61,
                    "time": 272.27708333333084,
                    "velocity": 0.8188976377952756,
                    "duration": 0.17708333333337123
                },
                {
                    "name": "F#3",
                    "midi": 54,
                    "time": 272.57708333333085,
                    "velocity": 0.5118110236220472,
                    "duration": 0.5458333333333485
                },
                {
                    "name": "B2",
                    "midi": 47,
                    "time": 272.5916666666642,
                    "velocity": 0.3779527559055118,
                    "duration": 1.6645833333333826
                },
                {
                    "name": "D#4",
                    "midi": 63,
                    "time": 272.6833333333309,
                    "velocity": 0.6929133858267716,
                    "duration": 1.2729166666666742
                },
                {
                    "name": "B4",
                    "midi": 71,
                    "time": 272.6895833333309,
                    "velocity": 0.6456692913385826,
                    "duration": 0.9791666666666288
                },
                {
                    "name": "F#3",
                    "midi": 54,
                    "time": 273.2854166666642,
                    "velocity": 0.7480314960629921,
                    "duration": 0.5041666666666629
                },
                {
                    "name": "B3",
                    "midi": 59,
                    "time": 273.73749999999757,
                    "velocity": 0.7716535433070866,
                    "duration": 0.17708333333331439
                },
                {
                    "name": "A#3",
                    "midi": 58,
                    "time": 274.1812499999976,
                    "velocity": 0.6929133858267716,
                    "duration": 0.8854166666666288
                },
                {
                    "name": "A#4",
                    "midi": 70,
                    "time": 274.1937499999976,
                    "velocity": 0.8188976377952756,
                    "duration": 0.5208333333333144
                },
                {
                    "name": "G#2",
                    "midi": 44,
                    "time": 274.6812499999976,
                    "velocity": 0.48031496062992124,
                    "duration": 0.535416666666606
                },
                {
                    "name": "F#4",
                    "midi": 66,
                    "time": 274.7020833333309,
                    "velocity": 0.7401574803149606,
                    "duration": 0.6625000000000227
                },
                {
                    "name": "B3",
                    "midi": 59,
                    "time": 274.71041666666423,
                    "velocity": 0.4645669291338583,
                    "duration": 0.7208333333333599
                },
                {
                    "name": "D#4",
                    "midi": 63,
                    "time": 274.71041666666423,
                    "velocity": 0.6299212598425197,
                    "duration": 0.6729166666667084
                },
                {
                    "name": "A#4",
                    "midi": 70,
                    "time": 275.2270833333309,
                    "velocity": 0.7322834645669292,
                    "duration": 1.095833333333303
                },
                {
                    "name": "G#3",
                    "midi": 56,
                    "time": 275.2333333333309,
                    "velocity": 0.5275590551181102,
                    "duration": 0.29791666666670835
                },
                {
                    "name": "F#3",
                    "midi": 54,
                    "time": 275.4937499999976,
                    "velocity": 0.5669291338582677,
                    "duration": 0.28750000000002274
                },
                {
                    "name": "B3",
                    "midi": 59,
                    "time": 275.76458333333096,
                    "velocity": 0.5354330708661418,
                    "duration": 0.8458333333332462
                },
                {
                    "name": "C#3",
                    "midi": 49,
                    "time": 275.7729166666643,
                    "velocity": 0.47244094488188976,
                    "duration": 0.6041666666665719
                },
                {
                    "name": "E3",
                    "midi": 52,
                    "time": 275.7854166666643,
                    "velocity": 0.5196850393700787,
                    "duration": 0.5083333333332689
                },
                {
                    "name": "G#4",
                    "midi": 68,
                    "time": 276.26041666666424,
                    "velocity": 0.6614173228346457,
                    "duration": 0.16041666666660603
                },
                {
                    "name": "F3",
                    "midi": 53,
                    "time": 276.26874999999757,
                    "velocity": 0.4015748031496063,
                    "duration": 0.1791666666666174
                },
                {
                    "name": "C#2",
                    "midi": 37,
                    "time": 276.7979166666642,
                    "velocity": 0.3700787401574803,
                    "duration": 0.7958333333334622
                },
                {
                    "name": "F4",
                    "midi": 65,
                    "time": 276.80416666666423,
                    "velocity": 0.47244094488188976,
                    "duration": 1.8604166666666515
                },
                {
                    "name": "D#4",
                    "midi": 63,
                    "time": 276.8145833333309,
                    "velocity": 0.48031496062992124,
                    "duration": 0.33333333333337123
                },
                {
                    "name": "B3",
                    "midi": 59,
                    "time": 276.8187499999976,
                    "velocity": 0.3228346456692913,
                    "duration": 0.5541666666667311
                },
                {
                    "name": "A#3",
                    "midi": 58,
                    "time": 277.414583333331,
                    "velocity": 0.28346456692913385,
                    "duration": 0.125
                },
                {
                    "name": "C#4",
                    "midi": 61,
                    "time": 277.41666666666436,
                    "velocity": 0.5275590551181102,
                    "duration": 0.17708333333331439
                },
                {
                    "name": "G#3",
                    "midi": 56,
                    "time": 277.6729166666643,
                    "velocity": 0.47244094488188976,
                    "duration": 0.1416666666666515
                },
                {
                    "name": "B3",
                    "midi": 59,
                    "time": 277.68124999999765,
                    "velocity": 0.44881889763779526,
                    "duration": 0.15625
                },
                {
                    "name": "A#3",
                    "midi": 58,
                    "time": 278.0104166666643,
                    "velocity": 0.44881889763779526,
                    "duration": 0.6895833333332462
                },
                {
                    "name": "F#2",
                    "midi": 42,
                    "time": 278.0104166666643,
                    "velocity": 0.2992125984251969,
                    "duration": 1.479166666666515
                },
                {
                    "name": "C#3",
                    "midi": 49,
                    "time": 278.0229166666643,
                    "velocity": 0.23622047244094488,
                    "duration": 0.31249999999994316
                },
                {
                    "name": "F#3",
                    "midi": 54,
                    "time": 278.0541666666643,
                    "velocity": 0.15748031496062992,
                    "duration": 0.6187499999999204
                },
                {
                    "name": "C#3",
                    "midi": 49,
                    "time": 278.5479166666642,
                    "velocity": 0.3779527559055118,
                    "duration": 0.16666666666668561
                },
                {
                    "name": "A#3",
                    "midi": 58,
                    "time": 279.2145833333309,
                    "velocity": 0.33858267716535434,
                    "duration": 0.4562499999998977
                },
                {
                    "name": "C#3",
                    "midi": 49,
                    "time": 279.2145833333309,
                    "velocity": 0.2440944881889764,
                    "duration": 0.30416666666656056
                },
                {
                    "name": "F#4",
                    "midi": 66,
                    "time": 279.21874999999756,
                    "velocity": 0.30708661417322836,
                    "duration": 0.5291666666665833
                },
                {
                    "name": "F#3",
                    "midi": 54,
                    "time": 279.24374999999753,
                    "velocity": 0.11023622047244094,
                    "duration": 0.31874999999990905
                },
                {
                    "name": "C#4",
                    "midi": 61,
                    "time": 280.0208333333308,
                    "velocity": 0.3779527559055118,
                    "duration": 0.6229166666666401
                },
                {
                    "name": "F4",
                    "midi": 65,
                    "time": 280.6187499999975,
                    "velocity": 0.36220472440944884,
                    "duration": 0.8125
                },
                {
                    "name": "F#4",
                    "midi": 66,
                    "time": 281.4083333333308,
                    "velocity": 0.47244094488188976,
                    "duration": 0.341666666666697
                },
                {
                    "name": "C#6",
                    "midi": 85,
                    "time": 282.3666666666642,
                    "velocity": 0.41732283464566927,
                    "duration": 0.8645833333333712
                },
                {
                    "name": "C#5",
                    "midi": 73,
                    "time": 282.3729166666642,
                    "velocity": 0.31496062992125984,
                    "duration": 0.35000000000002274
                },
                {
                    "name": "G#4",
                    "midi": 68,
                    "time": 282.37708333333086,
                    "velocity": 0.14960629921259844,
                    "duration": 0.39791666666667425
                },
                {
                    "name": "F4",
                    "midi": 65,
                    "time": 282.3854166666642,
                    "velocity": 0.1889763779527559,
                    "duration": 0.36458333333337123
                },
                {
                    "name": "B4",
                    "midi": 71,
                    "time": 282.3979166666642,
                    "velocity": 0.2992125984251969,
                    "duration": 0.3875000000000455
                },
                {
                    "name": "F5",
                    "midi": 77,
                    "time": 282.40833333333086,
                    "velocity": 0.15748031496062992,
                    "duration": 0.3895833333333485
                },
                {
                    "name": "C#5",
                    "midi": 73,
                    "time": 282.98333333333085,
                    "velocity": 0.30708661417322836,
                    "duration": 0.11666666666667425
                },
                {
                    "name": "F4",
                    "midi": 65,
                    "time": 282.9979166666642,
                    "velocity": 0.28346456692913385,
                    "duration": 0.12708333333335986
                },
                {
                    "name": "F5",
                    "midi": 77,
                    "time": 283.0104166666642,
                    "velocity": 0.2755905511811024,
                    "duration": 0.09583333333335986
                },
                {
                    "name": "G#4",
                    "midi": 68,
                    "time": 283.0104166666642,
                    "velocity": 0.36220472440944884,
                    "duration": 0.1479166666667311
                },
                {
                    "name": "B4",
                    "midi": 71,
                    "time": 283.02708333333084,
                    "velocity": 0.3543307086614173,
                    "duration": 0.12916666666671972
                },
                {
                    "name": "G#5",
                    "midi": 80,
                    "time": 283.20624999999757,
                    "velocity": 0.5354330708661418,
                    "duration": 0.2625000000000455
                },
                {
                    "name": "D#5",
                    "midi": 75,
                    "time": 283.4416666666642,
                    "velocity": 0.4566929133858268,
                    "duration": 0.22291666666671972
                },
                {
                    "name": "C#6",
                    "midi": 85,
                    "time": 283.4437499999976,
                    "velocity": 0.5984251968503937,
                    "duration": 0.7291666666667425
                },
                {
                    "name": "G#4",
                    "midi": 68,
                    "time": 283.45416666666426,
                    "velocity": 0.4015748031496063,
                    "duration": 0.1729166666666515
                },
                {
                    "name": "D#4",
                    "midi": 63,
                    "time": 283.45416666666426,
                    "velocity": 0.4566929133858268,
                    "duration": 0.13749999999998863
                },
                {
                    "name": "B4",
                    "midi": 71,
                    "time": 283.46666666666425,
                    "velocity": 0.3543307086614173,
                    "duration": 0.17500000000001137
                },
                {
                    "name": "C#5",
                    "midi": 73,
                    "time": 283.48541666666426,
                    "velocity": 0.23622047244094488,
                    "duration": 0.19166666666666288
                },
                {
                    "name": "D#4",
                    "midi": 63,
                    "time": 283.8895833333309,
                    "velocity": 0.3228346456692913,
                    "duration": 0.07500000000004547
                },
                {
                    "name": "G#4",
                    "midi": 68,
                    "time": 283.8999999999976,
                    "velocity": 0.3779527559055118,
                    "duration": 0.13541666666668561
                },
                {
                    "name": "C#5",
                    "midi": 73,
                    "time": 283.9083333333309,
                    "velocity": 0.5354330708661418,
                    "duration": 0.1812500000000341
                },
                {
                    "name": "D#5",
                    "midi": 75,
                    "time": 283.9104166666643,
                    "velocity": 0.3779527559055118,
                    "duration": 0.08333333333331439
                },
                {
                    "name": "B4",
                    "midi": 71,
                    "time": 283.9499999999976,
                    "velocity": 0.23622047244094488,
                    "duration": 0.09375
                },
                {
                    "name": "G#5",
                    "midi": 80,
                    "time": 284.1354166666643,
                    "velocity": 0.5669291338582677,
                    "duration": 0.3875000000000455
                },
                {
                    "name": "G#4",
                    "midi": 68,
                    "time": 284.464583333331,
                    "velocity": 0.2047244094488189,
                    "duration": 0.4020833333334508
                },
                {
                    "name": "B4",
                    "midi": 71,
                    "time": 284.46874999999767,
                    "velocity": 0.25196850393700787,
                    "duration": 0.36875000000009095
                },
                {
                    "name": "C#5",
                    "midi": 73,
                    "time": 284.47291666666433,
                    "velocity": 0.25984251968503935,
                    "duration": 0.3645833333334281
                },
                {
                    "name": "F5",
                    "midi": 77,
                    "time": 284.49166666666434,
                    "velocity": 0.25196850393700787,
                    "duration": 0.34375000000005684
                },
                {
                    "name": "F4",
                    "midi": 65,
                    "time": 284.495833333331,
                    "velocity": 0.05511811023622047,
                    "duration": 0.3437500000001137
                },
                {
                    "name": "D#6",
                    "midi": 87,
                    "time": 284.5062499999977,
                    "velocity": 0.6377952755905512,
                    "duration": 0.33750000000009095
                },
                {
                    "name": "B5",
                    "midi": 83,
                    "time": 284.84583333333114,
                    "velocity": 0.5433070866141733,
                    "duration": 0.36458333333325754
                },
                {
                    "name": "C#5",
                    "midi": 73,
                    "time": 284.9999999999978,
                    "velocity": 0.4251968503937008,
                    "duration": 0.12916666666660603
                },
                {
                    "name": "G#4",
                    "midi": 68,
                    "time": 285.0124999999978,
                    "velocity": 0.2755905511811024,
                    "duration": 0.12291666666664014
                },
                {
                    "name": "B4",
                    "midi": 71,
                    "time": 285.0208333333311,
                    "velocity": 0.33070866141732286,
                    "duration": 0.08333333333331439
                },
                {
                    "name": "G#5",
                    "midi": 80,
                    "time": 285.1479166666644,
                    "velocity": 0.6850393700787402,
                    "duration": 0.37083333333339397
                },
                {
                    "name": "G#4",
                    "midi": 68,
                    "time": 285.45624999999774,
                    "velocity": 0.3700787401574803,
                    "duration": 0.2562500000000796
                },
                {
                    "name": "C#6",
                    "midi": 85,
                    "time": 285.46458333333106,
                    "velocity": 0.5669291338582677,
                    "duration": 0.6833333333334508
                },
                {
                    "name": "D#5",
                    "midi": 75,
                    "time": 285.4708333333311,
                    "velocity": 0.2204724409448819,
                    "duration": 0.27500000000009095
                },
                {
                    "name": "D#4",
                    "midi": 63,
                    "time": 285.47291666666445,
                    "velocity": 0.31496062992125984,
                    "duration": 0.2625000000000455
                },
                {
                    "name": "C#5",
                    "midi": 73,
                    "time": 285.4770833333311,
                    "velocity": 0.4330708661417323,
                    "duration": 0.26458333333340533
                },
                {
                    "name": "B4",
                    "midi": 71,
                    "time": 285.49166666666446,
                    "velocity": 0.3464566929133858,
                    "duration": 0.23958333333337123
                },
                {
                    "name": "D#4",
                    "midi": 63,
                    "time": 285.91874999999783,
                    "velocity": 0.4645669291338583,
                    "duration": 0.09166666666675383
                },
                {
                    "name": "G#4",
                    "midi": 68,
                    "time": 285.9333333333312,
                    "velocity": 0.48031496062992124,
                    "duration": 0.15416666666669698
                },
                {
                    "name": "D#5",
                    "midi": 75,
                    "time": 285.9479166666645,
                    "velocity": 0.31496062992125984,
                    "duration": 0.07916666666670835
                },
                {
                    "name": "C#5",
                    "midi": 73,
                    "time": 285.9499999999979,
                    "velocity": 0.4251968503937008,
                    "duration": 0.2104166666666174
                },
                {
                    "name": "B4",
                    "midi": 71,
                    "time": 285.96458333333123,
                    "velocity": 0.36220472440944884,
                    "duration": 0.09375
                },
                {
                    "name": "G#5",
                    "midi": 80,
                    "time": 286.1270833333312,
                    "velocity": 0.5826771653543307,
                    "duration": 0.3229166666666856
                },
                {
                    "name": "C#6",
                    "midi": 85,
                    "time": 286.3687499999978,
                    "velocity": 0.48031496062992124,
                    "duration": 1.5395833333335531
                },
                {
                    "name": "G#4",
                    "midi": 68,
                    "time": 286.3791666666645,
                    "velocity": 0.25196850393700787,
                    "duration": 0.3166666666667197
                },
                {
                    "name": "C#5",
                    "midi": 73,
                    "time": 286.38749999999783,
                    "velocity": 0.28346456692913385,
                    "duration": 0.3104166666667538
                },
                {
                    "name": "B4",
                    "midi": 71,
                    "time": 286.3916666666645,
                    "velocity": 0.33070866141732286,
                    "duration": 0.3104166666667538
                },
                {
                    "name": "F4",
                    "midi": 65,
                    "time": 286.39374999999785,
                    "velocity": 0.33070866141732286,
                    "duration": 0.28750000000002274
                },
                {
                    "name": "F5",
                    "midi": 77,
                    "time": 286.3999999999979,
                    "velocity": 0.23622047244094488,
                    "duration": 0.30208333333337123
                },
                {
                    "name": "G#4",
                    "midi": 68,
                    "time": 286.8562499999979,
                    "velocity": 0.4094488188976378,
                    "duration": 0.17291666666670835
                },
                {
                    "name": "F4",
                    "midi": 65,
                    "time": 286.85833333333125,
                    "velocity": 0.2283464566929134,
                    "duration": 0.1500000000000341
                },
                {
                    "name": "B4",
                    "midi": 71,
                    "time": 286.86458333333127,
                    "velocity": 0.4094488188976378,
                    "duration": 0.19166666666666288
                },
                {
                    "name": "C#5",
                    "midi": 73,
                    "time": 286.8666666666646,
                    "velocity": 0.33070866141732286,
                    "duration": 0.1729166666666515
                },
                {
                    "name": "F5",
                    "midi": 77,
                    "time": 286.87291666666465,
                    "velocity": 0.1889763779527559,
                    "duration": 0.11041666666665151
                },
                {
                    "name": "G#4",
                    "midi": 68,
                    "time": 287.3229166666646,
                    "velocity": 0.33858267716535434,
                    "duration": 0.13958333333340533
                },
                {
                    "name": "D#5",
                    "midi": 75,
                    "time": 287.3312499999979,
                    "velocity": 0.2440944881889764,
                    "duration": 0.12291666666675383
                },
                {
                    "name": "D#4",
                    "midi": 63,
                    "time": 287.33333333333127,
                    "velocity": 0.41732283464566927,
                    "duration": 0.1187500000000341
                },
                {
                    "name": "C#5",
                    "midi": 73,
                    "time": 287.3354166666646,
                    "velocity": 0.4330708661417323,
                    "duration": 0.11666666666667425
                },
                {
                    "name": "B4",
                    "midi": 71,
                    "time": 287.3395833333313,
                    "velocity": 0.36220472440944884,
                    "duration": 0.1187500000000341
                },
                {
                    "name": "G#4",
                    "midi": 68,
                    "time": 287.83124999999797,
                    "velocity": 0.25984251968503935,
                    "duration": 0.15416666666675383
                },
                {
                    "name": "D#5",
                    "midi": 75,
                    "time": 287.8354166666646,
                    "velocity": 0.28346456692913385,
                    "duration": 0.0708333333333826
                },
                {
                    "name": "C#5",
                    "midi": 73,
                    "time": 287.837499999998,
                    "velocity": 0.41732283464566927,
                    "duration": 0.12291666666675383
                },
                {
                    "name": "D#4",
                    "midi": 63,
                    "time": 287.86249999999797,
                    "velocity": 0.11811023622047244,
                    "duration": 0.20000000000010232
                },
                {
                    "name": "B4",
                    "midi": 71,
                    "time": 287.8645833333313,
                    "velocity": 0.2677165354330709,
                    "duration": 0.08541666666673109
                },
                {
                    "name": "F4",
                    "midi": 65,
                    "time": 288.41666666666475,
                    "velocity": 0.4330708661417323,
                    "duration": 0.20833333333337123
                },
                {
                    "name": "F5",
                    "midi": 77,
                    "time": 288.4187499999981,
                    "velocity": 0.3700787401574803,
                    "duration": 0.32916666666670835
                },
                {
                    "name": "C#5",
                    "midi": 73,
                    "time": 288.4187499999981,
                    "velocity": 0.31496062992125984,
                    "duration": 0.31875000000002274
                },
                {
                    "name": "B4",
                    "midi": 71,
                    "time": 288.44791666666475,
                    "velocity": 0.28346456692913385,
                    "duration": 0.23958333333337123
                },
                {
                    "name": "F5",
                    "midi": 77,
                    "time": 289.0854166666648,
                    "velocity": 0.44881889763779526,
                    "duration": 0.11458333333342807
                },
                {
                    "name": "C#5",
                    "midi": 73,
                    "time": 289.08749999999816,
                    "velocity": 0.4330708661417323,
                    "duration": 0.1479166666667311
                },
                {
                    "name": "F4",
                    "midi": 65,
                    "time": 289.09999999999815,
                    "velocity": 0.2125984251968504,
                    "duration": 0.08541666666673109
                },
                {
                    "name": "C#2",
                    "midi": 37,
                    "time": 289.11041666666483,
                    "velocity": 0.4645669291338583,
                    "duration": 0.043750000000045475
                },
                {
                    "name": "B4",
                    "midi": 71,
                    "time": 289.1124999999982,
                    "velocity": 0.3858267716535433,
                    "duration": 0.09166666666669698
                },
                {
                    "name": "G#2",
                    "midi": 44,
                    "time": 289.1229166666649,
                    "velocity": 0.31496062992125984,
                    "duration": 0.04374999999998863
                },
                {
                    "name": "D#5",
                    "midi": 75,
                    "time": 289.6374999999982,
                    "velocity": 0.5275590551181102,
                    "duration": 0.3104166666667538
                },
                {
                    "name": "B4",
                    "midi": 71,
                    "time": 289.6520833333316,
                    "velocity": 0.47244094488188976,
                    "duration": 0.2208333333334167
                },
                {
                    "name": "C#5",
                    "midi": 73,
                    "time": 289.65416666666493,
                    "velocity": 0.5275590551181102,
                    "duration": 0.279166666666697
                },
                {
                    "name": "D#4",
                    "midi": 63,
                    "time": 289.66041666666496,
                    "velocity": 0.3700787401574803,
                    "duration": 0.13125000000002274
                },
                {
                    "name": "D#5",
                    "midi": 75,
                    "time": 290.1020833333316,
                    "velocity": 0.6062992125984252,
                    "duration": 0.1250000000001137
                },
                {
                    "name": "G#3",
                    "midi": 56,
                    "time": 290.1062499999983,
                    "velocity": 0.5511811023622047,
                    "duration": 0.05000000000006821
                },
                {
                    "name": "C#3",
                    "midi": 49,
                    "time": 290.10833333333164,
                    "velocity": 0.6141732283464567,
                    "duration": 0.043750000000045475
                },
                {
                    "name": "D#4",
                    "midi": 63,
                    "time": 290.122916666665,
                    "velocity": 0.29133858267716534,
                    "duration": 0.07500000000004547
                },
                {
                    "name": "B4",
                    "midi": 71,
                    "time": 290.12708333333165,
                    "velocity": 0.4330708661417323,
                    "duration": 0.08958333333339397
                },
                {
                    "name": "C#5",
                    "midi": 73,
                    "time": 290.129166666665,
                    "velocity": 0.5669291338582677,
                    "duration": 0.13750000000004547
                },
                {
                    "name": "G#4",
                    "midi": 68,
                    "time": 290.5833333333317,
                    "velocity": 0.5275590551181102,
                    "duration": 0.2895833333333826
                },
                {
                    "name": "C#5",
                    "midi": 73,
                    "time": 290.59791666666507,
                    "velocity": 0.4330708661417323,
                    "duration": 0.15208333333328028
                },
                {
                    "name": "F5",
                    "midi": 77,
                    "time": 290.59999999999843,
                    "velocity": 0.5511811023622047,
                    "duration": 0.18958333333330302
                },
                {
                    "name": "F4",
                    "midi": 65,
                    "time": 290.6166666666651,
                    "velocity": 0.2283464566929134,
                    "duration": 0.13541666666662877
                },
                {
                    "name": "C#4",
                    "midi": 61,
                    "time": 290.62083333333175,
                    "velocity": 0.4566929133858268,
                    "duration": 0.25
                },
                {
                    "name": "B4",
                    "midi": 71,
                    "time": 290.6374999999984,
                    "velocity": 0.33858267716535434,
                    "duration": 0.08749999999997726
                },
                {
                    "name": "F5",
                    "midi": 77,
                    "time": 291.0729166666651,
                    "velocity": 0.5039370078740157,
                    "duration": 0.15625000000005684
                },
                {
                    "name": "C#5",
                    "midi": 73,
                    "time": 291.07499999999845,
                    "velocity": 0.49606299212598426,
                    "duration": 0.15208333333333712
                },
                {
                    "name": "F4",
                    "midi": 65,
                    "time": 291.08749999999844,
                    "velocity": 0.29133858267716534,
                    "duration": 0.09375
                },
                {
                    "name": "B4",
                    "midi": 71,
                    "time": 291.1166666666651,
                    "velocity": 0.3228346456692913,
                    "duration": 0.0708333333333826
                },
                {
                    "name": "D#5",
                    "midi": 75,
                    "time": 291.5083333333318,
                    "velocity": 0.4409448818897638,
                    "duration": 0.17083333333329165
                },
                {
                    "name": "D#4",
                    "midi": 63,
                    "time": 291.51249999999845,
                    "velocity": 0.4251968503937008,
                    "duration": 0.11041666666665151
                },
                {
                    "name": "B4",
                    "midi": 71,
                    "time": 291.5395833333318,
                    "velocity": 0.2992125984251969,
                    "duration": 0.1312499999999659
                },
                {
                    "name": "C#5",
                    "midi": 73,
                    "time": 291.54374999999845,
                    "velocity": 0.3858267716535433,
                    "duration": 0.09583333333330302
                },
                {
                    "name": "D#4",
                    "midi": 63,
                    "time": 291.97083333333177,
                    "velocity": 0.36220472440944884,
                    "duration": 0.1416666666666515
                },
                {
                    "name": "D#5",
                    "midi": 75,
                    "time": 291.9729166666651,
                    "velocity": 0.41732283464566927,
                    "duration": 0.1999999999999318
                },
                {
                    "name": "B4",
                    "midi": 71,
                    "time": 291.9895833333318,
                    "velocity": 0.3937007874015748,
                    "duration": 0.12708333333330302
                },
                {
                    "name": "C#5",
                    "midi": 73,
                    "time": 291.99374999999844,
                    "velocity": 0.3464566929133858,
                    "duration": 0.10208333333332575
                },
                {
                    "name": "C#5",
                    "midi": 73,
                    "time": 292.4249999999984,
                    "velocity": 0.41732283464566927,
                    "duration": 0.14583333333331439
                },
                {
                    "name": "F4",
                    "midi": 65,
                    "time": 292.43333333333175,
                    "velocity": 0.2204724409448819,
                    "duration": 0.14999999999997726
                },
                {
                    "name": "F5",
                    "midi": 77,
                    "time": 292.4374999999984,
                    "velocity": 0.3228346456692913,
                    "duration": 0.1875
                },
                {
                    "name": "B4",
                    "midi": 71,
                    "time": 292.4604166666651,
                    "velocity": 0.2125984251968504,
                    "duration": 0.11458333333331439
                },
                {
                    "name": "F5",
                    "midi": 77,
                    "time": 292.8999999999984,
                    "velocity": 0.23622047244094488,
                    "duration": 0.16875000000004547
                },
                {
                    "name": "C#5",
                    "midi": 73,
                    "time": 292.9062499999984,
                    "velocity": 0.3700787401574803,
                    "duration": 0.13333333333332575
                },
                {
                    "name": "B4",
                    "midi": 71,
                    "time": 292.91458333333173,
                    "velocity": 0.31496062992125984,
                    "duration": 0.12708333333335986
                },
                {
                    "name": "F4",
                    "midi": 65,
                    "time": 292.9166666666651,
                    "velocity": 0.2677165354330709,
                    "duration": 0.1416666666666515
                },
                {
                    "name": "C#5",
                    "midi": 73,
                    "time": 293.3979166666651,
                    "velocity": 0.3228346456692913,
                    "duration": 0.15000000000009095
                },
                {
                    "name": "D#4",
                    "midi": 63,
                    "time": 293.4041666666651,
                    "velocity": 0.2677165354330709,
                    "duration": 0.1395833333333485
                },
                {
                    "name": "D#5",
                    "midi": 75,
                    "time": 293.40624999999847,
                    "velocity": 0.31496062992125984,
                    "duration": 0.1479166666667311
                },
                {
                    "name": "B4",
                    "midi": 71,
                    "time": 293.4145833333318,
                    "velocity": 0.23622047244094488,
                    "duration": 0.13125000000002274
                },
                {
                    "name": "D#4",
                    "midi": 63,
                    "time": 293.9541666666652,
                    "velocity": 0.2677165354330709,
                    "duration": 0.12708333333335986
                },
                {
                    "name": "C#5",
                    "midi": 73,
                    "time": 293.95624999999853,
                    "velocity": 0.2283464566929134,
                    "duration": 0.13541666666668561
                },
                {
                    "name": "D#5",
                    "midi": 75,
                    "time": 293.9583333333319,
                    "velocity": 0.2677165354330709,
                    "duration": 0.15625
                },
                {
                    "name": "B4",
                    "midi": 71,
                    "time": 293.9770833333319,
                    "velocity": 0.14960629921259844,
                    "duration": 0.09166666666664014
                },
                {
                    "name": "C#6",
                    "midi": 85,
                    "time": 294.67291666666523,
                    "velocity": 0.4409448818897638,
                    "duration": 0.8250000000001023
                },
                {
                    "name": "G#4",
                    "midi": 68,
                    "time": 294.6749999999986,
                    "velocity": 0.1889763779527559,
                    "duration": 0.38333333333332575
                },
                {
                    "name": "C#5",
                    "midi": 73,
                    "time": 294.69791666666526,
                    "velocity": 0.2283464566929134,
                    "duration": 0.3020833333333144
                },
                {
                    "name": "B4",
                    "midi": 71,
                    "time": 294.7020833333319,
                    "velocity": 0.25984251968503935,
                    "duration": 0.3499999999999659
                },
                {
                    "name": "E5",
                    "midi": 76,
                    "time": 294.7187499999986,
                    "velocity": 0.14960629921259844,
                    "duration": 0.3541666666666856
                },
                {
                    "name": "E4",
                    "midi": 64,
                    "time": 294.72916666666526,
                    "velocity": 0.16535433070866143,
                    "duration": 0.31041666666664014
                },
                {
                    "name": "C#5",
                    "midi": 73,
                    "time": 295.25208333333194,
                    "velocity": 0.3464566929133858,
                    "duration": 0.11041666666670835
                },
                {
                    "name": "G#4",
                    "midi": 68,
                    "time": 295.2749999999986,
                    "velocity": 0.2204724409448819,
                    "duration": 0.12500000000005684
                },
                {
                    "name": "E5",
                    "midi": 76,
                    "time": 295.2854166666653,
                    "velocity": 0.11023622047244094,
                    "duration": 0.11250000000001137
                },
                {
                    "name": "B4",
                    "midi": 71,
                    "time": 295.2916666666653,
                    "velocity": 0.2440944881889764,
                    "duration": 0.125
                },
                {
                    "name": "E4",
                    "midi": 64,
                    "time": 295.302083333332,
                    "velocity": 0.11811023622047244,
                    "duration": 0.07708333333329165
                },
                {
                    "name": "G#5",
                    "midi": 80,
                    "time": 295.483333333332,
                    "velocity": 0.5118110236220472,
                    "duration": 0.2645833333333485
                },
                {
                    "name": "C#6",
                    "midi": 85,
                    "time": 295.7416666666653,
                    "velocity": 0.5826771653543307,
                    "duration": 0.7395833333335986
                },
                {
                    "name": "G#4",
                    "midi": 68,
                    "time": 295.74791666666533,
                    "velocity": 0.23622047244094488,
                    "duration": 0.18541666666681067
                },
                {
                    "name": "D#5",
                    "midi": 75,
                    "time": 295.758333333332,
                    "velocity": 0.30708661417322836,
                    "duration": 0.1729166666667652
                },
                {
                    "name": "D#4",
                    "midi": 63,
                    "time": 295.7624999999987,
                    "velocity": 0.33858267716535434,
                    "duration": 0.1437500000000682
                },
                {
                    "name": "B4",
                    "midi": 71,
                    "time": 295.77291666666537,
                    "velocity": 0.2992125984251969,
                    "duration": 0.1479166666667311
                },
                {
                    "name": "C#5",
                    "midi": 73,
                    "time": 295.7749999999987,
                    "velocity": 0.33858267716535434,
                    "duration": 0.12916666666666288
                },
                {
                    "name": "D#4",
                    "midi": 63,
                    "time": 296.1999999999988,
                    "velocity": 0.23622047244094488,
                    "duration": 0.07291666666674246
                },
                {
                    "name": "G#4",
                    "midi": 68,
                    "time": 296.20208333333215,
                    "velocity": 0.31496062992125984,
                    "duration": 0.13541666666674246
                },
                {
                    "name": "D#5",
                    "midi": 75,
                    "time": 296.21249999999884,
                    "velocity": 0.33858267716535434,
                    "duration": 0.05208333333337123
                },
                {
                    "name": "C#5",
                    "midi": 73,
                    "time": 296.2166666666655,
                    "velocity": 0.4409448818897638,
                    "duration": 0.1583333333334167
                },
                {
                    "name": "B4",
                    "midi": 71,
                    "time": 296.24999999999886,
                    "velocity": 0.14173228346456693,
                    "duration": 0.06458333333335986
                },
                {
                    "name": "G#5",
                    "midi": 80,
                    "time": 296.42291666666557,
                    "velocity": 0.6299212598425197,
                    "duration": 0.42708333333337123
                },
                {
                    "name": "G#4",
                    "midi": 68,
                    "time": 296.6874999999989,
                    "velocity": 0.30708661417322836,
                    "duration": 0.32916666666670835
                },
                {
                    "name": "B4",
                    "midi": 71,
                    "time": 296.69374999999894,
                    "velocity": 0.3858267716535433,
                    "duration": 0.31041666666664014
                },
                {
                    "name": "D#6",
                    "midi": 87,
                    "time": 296.7041666666656,
                    "velocity": 0.6456692913385826,
                    "duration": 0.3854166666666856
                },
                {
                    "name": "E5",
                    "midi": 76,
                    "time": 296.7041666666656,
                    "velocity": 0.36220472440944884,
                    "duration": 0.30624999999997726
                },
                {
                    "name": "E4",
                    "midi": 64,
                    "time": 296.71249999999895,
                    "velocity": 0.2755905511811024,
                    "duration": 0.27499999999997726
                },
                {
                    "name": "B5",
                    "midi": 83,
                    "time": 297.0833333333323,
                    "velocity": 0.6141732283464567,
                    "duration": 0.3354166666667311
                },
                {
                    "name": "E4",
                    "midi": 64,
                    "time": 297.2270833333323,
                    "velocity": 0.3858267716535433,
                    "duration": 0.12500000000005684
                },
                {
                    "name": "G#4",
                    "midi": 68,
                    "time": 297.23124999999897,
                    "velocity": 0.3858267716535433,
                    "duration": 0.1500000000000341
                },
                {
                    "name": "E5",
                    "midi": 76,
                    "time": 297.2333333333323,
                    "velocity": 0.4015748031496063,
                    "duration": 0.10416666666668561
                },
                {
                    "name": "B4",
                    "midi": 71,
                    "time": 297.243749999999,
                    "velocity": 0.44881889763779526,
                    "duration": 0.14375000000001137
                },
                {
                    "name": "G#5",
                    "midi": 80,
                    "time": 297.368749999999,
                    "velocity": 0.7401574803149606,
                    "duration": 0.3541666666666856
                },
                {
                    "name": "C#6",
                    "midi": 85,
                    "time": 297.66666666666566,
                    "velocity": 0.5275590551181102,
                    "duration": 0.7770833333335077
                },
                {
                    "name": "G#4",
                    "midi": 68,
                    "time": 297.687499999999,
                    "velocity": 0.2992125984251969,
                    "duration": 0.31666666666677656
                },
                {
                    "name": "C#5",
                    "midi": 73,
                    "time": 297.69166666666564,
                    "velocity": 0.3700787401574803,
                    "duration": 0.2270833333333826
                },
                {
                    "name": "D#4",
                    "midi": 63,
                    "time": 297.693749999999,
                    "velocity": 0.4330708661417323,
                    "duration": 0.2895833333333826
                },
                {
                    "name": "D#5",
                    "midi": 75,
                    "time": 297.69583333333236,
                    "velocity": 0.2125984251968504,
                    "duration": 0.2895833333333826
                },
                {
                    "name": "B4",
                    "midi": 71,
                    "time": 297.70833333333235,
                    "velocity": 0.2125984251968504,
                    "duration": 0.2979166666667652
                },
                {
                    "name": "D#4",
                    "midi": 63,
                    "time": 298.1541666666658,
                    "velocity": 0.41732283464566927,
                    "duration": 0.1020833333333826
                },
                {
                    "name": "D#5",
                    "midi": 75,
                    "time": 298.1624999999991,
                    "velocity": 0.3543307086614173,
                    "duration": 0.09166666666669698
                },
                {
                    "name": "G#4",
                    "midi": 68,
                    "time": 298.17083333333244,
                    "velocity": 0.33858267716535434,
                    "duration": 0.13750000000004547
                },
                {
                    "name": "C#5",
                    "midi": 73,
                    "time": 298.1854166666658,
                    "velocity": 0.30708661417322836,
                    "duration": 0.09583333333335986
                },
                {
                    "name": "B4",
                    "midi": 71,
                    "time": 298.23124999999914,
                    "velocity": 0.07086614173228346,
                    "duration": 0.09375
                },
                {
                    "name": "G#5",
                    "midi": 80,
                    "time": 298.3791666666658,
                    "velocity": 0.6299212598425197,
                    "duration": 0.28125000000005684
                },
                {
                    "name": "C#6",
                    "midi": 85,
                    "time": 298.65416666666584,
                    "velocity": 0.4330708661417323,
                    "duration": 1.5166666666669357
                },
                {
                    "name": "G#4",
                    "midi": 68,
                    "time": 298.66458333333253,
                    "velocity": 0.3464566929133858,
                    "duration": 0.3312499999999545
                },
                {
                    "name": "E4",
                    "midi": 64,
                    "time": 298.66458333333253,
                    "velocity": 0.2677165354330709,
                    "duration": 0.3020833333333144
                },
                {
                    "name": "B4",
                    "midi": 71,
                    "time": 298.6687499999992,
                    "velocity": 0.3858267716535433,
                    "duration": 0.3312499999999545
                },
                {
                    "name": "E5",
                    "midi": 76,
                    "time": 298.6749999999992,
                    "velocity": 0.31496062992125984,
                    "duration": 0.32708333333329165
                },
                {
                    "name": "C#5",
                    "midi": 73,
                    "time": 298.6770833333326,
                    "velocity": 0.3228346456692913,
                    "duration": 0.2687499999999545
                },
                {
                    "name": "C#5",
                    "midi": 73,
                    "time": 299.17499999999916,
                    "velocity": 0.36220472440944884,
                    "duration": 0.10833333333340533
                },
                {
                    "name": "G#4",
                    "midi": 68,
                    "time": 299.1812499999992,
                    "velocity": 0.2125984251968504,
                    "duration": 0.15625000000005684
                },
                {
                    "name": "E5",
                    "midi": 76,
                    "time": 299.18333333333254,
                    "velocity": 0.33070866141732286,
                    "duration": 0.12083333333333712
                },
                {
                    "name": "E4",
                    "midi": 64,
                    "time": 299.18958333333256,
                    "velocity": 0.36220472440944884,
                    "duration": 0.11666666666667425
                },
                {
                    "name": "B4",
                    "midi": 71,
                    "time": 299.1979166666659,
                    "velocity": 0.3700787401574803,
                    "duration": 0.14583333333337123
                },
                {
                    "name": "G#4",
                    "midi": 68,
                    "time": 299.63749999999925,
                    "velocity": 0.2677165354330709,
                    "duration": 0.19583333333343944
                },
                {
                    "name": "C#5",
                    "midi": 73,
                    "time": 299.6395833333326,
                    "velocity": 0.33858267716535434,
                    "duration": 0.11666666666673109
                },
                {
                    "name": "D#5",
                    "midi": 75,
                    "time": 299.65416666666596,
                    "velocity": 0.23622047244094488,
                    "duration": 0.13541666666674246
                },
                {
                    "name": "D#4",
                    "midi": 63,
                    "time": 299.6562499999993,
                    "velocity": 0.3937007874015748,
                    "duration": 0.1437500000000682
                },
                {
                    "name": "B4",
                    "midi": 71,
                    "time": 299.6583333333327,
                    "velocity": 0.28346456692913385,
                    "duration": 0.16666666666668561
                },
                {
                    "name": "G#4",
                    "midi": 68,
                    "time": 300.12916666666604,
                    "velocity": 0.25196850393700787,
                    "duration": 0.15625000000005684
                },
                {
                    "name": "C#5",
                    "midi": 73,
                    "time": 300.13749999999936,
                    "velocity": 0.33858267716535434,
                    "duration": 0.13541666666674246
                },
                {
                    "name": "B4",
                    "midi": 71,
                    "time": 300.1437499999994,
                    "velocity": 0.36220472440944884,
                    "duration": 0.1187500000000341
                },
                {
                    "name": "D#5",
                    "midi": 75,
                    "time": 300.14583333333275,
                    "velocity": 0.25984251968503935,
                    "duration": 0.07291666666668561
                },
                {
                    "name": "D#4",
                    "midi": 63,
                    "time": 300.15624999999943,
                    "velocity": 0.16535433070866143,
                    "duration": 0.1416666666666515
                },
                {
                    "name": "B4",
                    "midi": 71,
                    "time": 300.72708333333276,
                    "velocity": 0.41732283464566927,
                    "duration": 0.27708333333339397
                },
                {
                    "name": "E5",
                    "midi": 76,
                    "time": 300.7291666666661,
                    "velocity": 0.4645669291338583,
                    "duration": 0.2854166666667197
                },
                {
                    "name": "C#5",
                    "midi": 73,
                    "time": 300.73749999999944,
                    "velocity": 0.47244094488188976,
                    "duration": 0.3000000000000682
                },
                {
                    "name": "E4",
                    "midi": 64,
                    "time": 300.7520833333328,
                    "velocity": 0.3464566929133858,
                    "duration": 0.15416666666669698
                },
                {
                    "name": "G#2",
                    "midi": 44,
                    "time": 301.38749999999953,
                    "velocity": 0.5039370078740157,
                    "duration": 0.09791666666671972
                },
                {
                    "name": "C#2",
                    "midi": 37,
                    "time": 301.3979166666662,
                    "velocity": 0.3858267716535433,
                    "duration": 0.11041666666670835
                },
                {
                    "name": "E5",
                    "midi": 76,
                    "time": 301.4020833333329,
                    "velocity": 0.44881889763779526,
                    "duration": 0.1645833333333826
                },
                {
                    "name": "C#5",
                    "midi": 73,
                    "time": 301.41249999999957,
                    "velocity": 0.3779527559055118,
                    "duration": 0.19375000000002274
                },
                {
                    "name": "B4",
                    "midi": 71,
                    "time": 301.4291666666662,
                    "velocity": 0.2755905511811024,
                    "duration": 0.15833333333335986
                },
                {
                    "name": "E4",
                    "midi": 64,
                    "time": 301.4395833333329,
                    "velocity": 0.06299212598425197,
                    "duration": 0.09375
                },
                {
                    "name": "D#5",
                    "midi": 75,
                    "time": 301.95208333333295,
                    "velocity": 0.5669291338582677,
                    "duration": 0.2541666666667197
                },
                {
                    "name": "B4",
                    "midi": 71,
                    "time": 301.9541666666663,
                    "velocity": 0.4015748031496063,
                    "duration": 0.1812500000000341
                },
                {
                    "name": "C#5",
                    "midi": 73,
                    "time": 301.9541666666663,
                    "velocity": 0.47244094488188976,
                    "duration": 0.22083333333335986
                },
                {
                    "name": "D#4",
                    "midi": 63,
                    "time": 301.97083333333296,
                    "velocity": 0.2283464566929134,
                    "duration": 0.13125000000002274
                },
                {
                    "name": "D#5",
                    "midi": 75,
                    "time": 302.41874999999965,
                    "velocity": 0.47244094488188976,
                    "duration": 0.18541666666675383
                },
                {
                    "name": "D#4",
                    "midi": 63,
                    "time": 302.420833333333,
                    "velocity": 0.4330708661417323,
                    "duration": 0.10416666666674246
                },
                {
                    "name": "B4",
                    "midi": 71,
                    "time": 302.43541666666636,
                    "velocity": 0.4645669291338583,
                    "duration": 0.0875000000000341
                },
                {
                    "name": "C#3",
                    "midi": 49,
                    "time": 302.4374999999997,
                    "velocity": 0.6062992125984252,
                    "duration": 0.05000000000001137
                },
                {
                    "name": "G#3",
                    "midi": 56,
                    "time": 302.4416666666664,
                    "velocity": 0.5984251968503937,
                    "duration": 0.07499999999998863
                },
                {
                    "name": "C#5",
                    "midi": 73,
                    "time": 302.4499999999997,
                    "velocity": 0.5118110236220472,
                    "duration": 0.12916666666671972
                },
                {
                    "name": "G#4",
                    "midi": 68,
                    "time": 303.0166666666664,
                    "velocity": 0.6299212598425197,
                    "duration": 2.4395833333334735
                },
                {
                    "name": "E5",
                    "midi": 76,
                    "time": 303.0333333333331,
                    "velocity": 0.4409448818897638,
                    "duration": 0.20416666666670835
                },
                {
                    "name": "C#5",
                    "midi": 73,
                    "time": 303.04374999999976,
                    "velocity": 0.33070866141732286,
                    "duration": 0.15625000000005684
                },
                {
                    "name": "C#4",
                    "midi": 61,
                    "time": 303.05624999999975,
                    "velocity": 0.41732283464566927,
                    "duration": 0.6958333333333826
                },
                {
                    "name": "B4",
                    "midi": 71,
                    "time": 303.0645833333331,
                    "velocity": 0.28346456692913385,
                    "duration": 0.12916666666671972
                },
                {
                    "name": "E4",
                    "midi": 64,
                    "time": 303.06666666666644,
                    "velocity": 0.2283464566929134,
                    "duration": 0.16250000000002274
                },
                {
                    "name": "E5",
                    "midi": 76,
                    "time": 303.56458333333313,
                    "velocity": 0.5748031496062992,
                    "duration": 0.14374999999995453
                },
                {
                    "name": "C#5",
                    "midi": 73,
                    "time": 303.5791666666665,
                    "velocity": 0.5511811023622047,
                    "duration": 0.1416666666666515
                },
                {
                    "name": "B4",
                    "midi": 71,
                    "time": 303.5874999999998,
                    "velocity": 0.49606299212598426,
                    "duration": 0.12708333333330302
                },
                {
                    "name": "E4",
                    "midi": 64,
                    "time": 303.6124999999998,
                    "velocity": 0.07874015748031496,
                    "duration": 0.052083333333314386
                },
                {
                    "name": "D#5",
                    "midi": 75,
                    "time": 304.0166666666665,
                    "velocity": 0.6299212598425197,
                    "duration": 0.1729166666666515
                },
                {
                    "name": "D#4",
                    "midi": 63,
                    "time": 304.03333333333313,
                    "velocity": 0.5039370078740157,
                    "duration": 0.10000000000002274
                },
                {
                    "name": "B4",
                    "midi": 71,
                    "time": 304.03958333333316,
                    "velocity": 0.5354330708661418,
                    "duration": 0.12291666666664014
                },
                {
                    "name": "C#5",
                    "midi": 73,
                    "time": 304.0437499999998,
                    "velocity": 0.5196850393700787,
                    "duration": 0.14583333333331439
                },
                {
                    "name": "D#5",
                    "midi": 75,
                    "time": 304.4687499999998,
                    "velocity": 0.5984251968503937,
                    "duration": 0.1479166666667311
                },
                {
                    "name": "D#4",
                    "midi": 63,
                    "time": 304.47083333333313,
                    "velocity": 0.5354330708661418,
                    "duration": 0.12083333333339397
                },
                {
                    "name": "B4",
                    "midi": 71,
                    "time": 304.4749999999998,
                    "velocity": 0.5196850393700787,
                    "duration": 0.09583333333335986
                },
                {
                    "name": "C#5",
                    "midi": 73,
                    "time": 304.49791666666647,
                    "velocity": 0.5905511811023622,
                    "duration": 0.07500000000004547
                },
                {
                    "name": "D#5",
                    "midi": 75,
                    "time": 304.96249999999986,
                    "velocity": 0.4881889763779528,
                    "duration": 0.3395833333333371
                },
                {
                    "name": "B4",
                    "midi": 71,
                    "time": 304.98541666666654,
                    "velocity": 0.4094488188976378,
                    "duration": 0.33125000000001137
                },
                {
                    "name": "D#4",
                    "midi": 63,
                    "time": 304.9895833333332,
                    "velocity": 0.18110236220472442,
                    "duration": 0.341666666666697
                },
                {
                    "name": "A4",
                    "midi": 69,
                    "time": 304.9979166666665,
                    "velocity": 0.3700787401574803,
                    "duration": 0.33958333333339397
                },
                {
                    "name": "D#5",
                    "midi": 75,
                    "time": 305.54583333333323,
                    "velocity": 0.3779527559055118,
                    "duration": 0.12708333333335986
                },
                {
                    "name": "F#4",
                    "midi": 66,
                    "time": 305.55208333333326,
                    "velocity": 0.5984251968503937,
                    "duration": 0.5458333333333485
                },
                {
                    "name": "A4",
                    "midi": 69,
                    "time": 305.5999999999999,
                    "velocity": 0.16535433070866143,
                    "duration": 0.07291666666668561
                },
                {
                    "name": "C#5",
                    "midi": 73,
                    "time": 306.1395833333333,
                    "velocity": 0.33858267716535434,
                    "duration": 0.26458333333340533
                },
                {
                    "name": "C#4",
                    "midi": 61,
                    "time": 306.1458333333333,
                    "velocity": 0.2047244094488189,
                    "duration": 0.20000000000004547
                },
                {
                    "name": "G4",
                    "midi": 67,
                    "time": 306.17291666666665,
                    "velocity": 0.36220472440944884,
                    "duration": 0.21666666666669698
                },
                {
                    "name": "A4",
                    "midi": 69,
                    "time": 306.18333333333334,
                    "velocity": 0.2204724409448819,
                    "duration": 0.21458333333333712
                },
                {
                    "name": "E4",
                    "midi": 64,
                    "time": 306.8854166666667,
                    "velocity": 0.3228346456692913,
                    "duration": 0.12291666666669698
                },
                {
                    "name": "C#5",
                    "midi": 73,
                    "time": 306.9125,
                    "velocity": 0.05511811023622047,
                    "duration": 0.21666666666669698
                },
                {
                    "name": "A4",
                    "midi": 69,
                    "time": 306.95000000000005,
                    "velocity": 0.11811023622047244,
                    "duration": 0.19791666666668561
                },
                {
                    "name": "G4",
                    "midi": 67,
                    "time": 306.9541666666667,
                    "velocity": 0.07874015748031496,
                    "duration": 0.2270833333333826
                },
                {
                    "name": "G#4",
                    "midi": 68,
                    "time": 307.7708333333334,
                    "velocity": 0.29133858267716534,
                    "duration": 0.9770833333333258
                },
                {
                    "name": "F#2",
                    "midi": 42,
                    "time": 307.8166666666668,
                    "velocity": 0.2992125984251969,
                    "duration": 1.033333333333303
                },
                {
                    "name": "C#3",
                    "midi": 49,
                    "time": 307.8166666666668,
                    "velocity": 0.28346456692913385,
                    "duration": 0.970833333333303
                },
                {
                    "name": "A#3",
                    "midi": 58,
                    "time": 307.8229166666668,
                    "velocity": 0.16535433070866143,
                    "duration": 0.3187499999999659
                },
                {
                    "name": "F#4",
                    "midi": 66,
                    "time": 307.8354166666668,
                    "velocity": 0.33858267716535434,
                    "duration": 0.9208333333332916
                },
                {
                    "name": "A#3",
                    "midi": 58,
                    "time": 308.4625000000001,
                    "velocity": 0.47244094488188976,
                    "duration": 0.1875
                },
                {
                    "name": "C#4",
                    "midi": 61,
                    "time": 308.7208333333334,
                    "velocity": 0.6377952755905512,
                    "duration": 0.32291666666674246
                },
                {
                    "name": "A#4",
                    "midi": 70,
                    "time": 309.01875000000007,
                    "velocity": 0.6614173228346457,
                    "duration": 0.5395833333333826
                },
                {
                    "name": "F#2",
                    "midi": 42,
                    "time": 309.0208333333334,
                    "velocity": 0.2283464566929134,
                    "duration": 0.5875000000000341
                },
                {
                    "name": "C#3",
                    "midi": 49,
                    "time": 309.0229166666668,
                    "velocity": 0.3779527559055118,
                    "duration": 0.5666666666666629
                },
                {
                    "name": "F#4",
                    "midi": 66,
                    "time": 309.0333333333335,
                    "velocity": 0.5118110236220472,
                    "duration": 0.6750000000000114
                },
                {
                    "name": "A#3",
                    "midi": 58,
                    "time": 309.03750000000014,
                    "velocity": 0.3228346456692913,
                    "duration": 0.24583333333333712
                },
                {
                    "name": "A#3",
                    "midi": 58,
                    "time": 309.5416666666668,
                    "velocity": 0.6456692913385826,
                    "duration": 0.25
                },
                {
                    "name": "C#4",
                    "midi": 61,
                    "time": 309.72500000000014,
                    "velocity": 0.7559055118110236,
                    "duration": 0.2104166666666174
                },
                {
                    "name": "D#2",
                    "midi": 39,
                    "time": 309.9104166666668,
                    "velocity": 0.5118110236220472,
                    "duration": 0.31041666666664014
                },
                {
                    "name": "A#2",
                    "midi": 46,
                    "time": 309.93541666666675,
                    "velocity": 0.4330708661417323,
                    "duration": 0.32499999999998863
                },
                {
                    "name": "F#4",
                    "midi": 66,
                    "time": 309.9937500000001,
                    "velocity": 0.6456692913385826,
                    "duration": 0.4770833333333826
                },
                {
                    "name": "A#3",
                    "midi": 58,
                    "time": 310.0000000000001,
                    "velocity": 0.49606299212598426,
                    "duration": 0.26249999999998863
                },
                {
                    "name": "F4",
                    "midi": 65,
                    "time": 310.00833333333344,
                    "velocity": 0.6062992125984252,
                    "duration": 0.4312500000000341
                },
                {
                    "name": "D#4",
                    "midi": 63,
                    "time": 310.37083333333345,
                    "velocity": 0.6535433070866141,
                    "duration": 0.36666666666667425
                },
                {
                    "name": "A#3",
                    "midi": 58,
                    "time": 310.52500000000015,
                    "velocity": 0.48031496062992124,
                    "duration": 0.08749999999997726
                },
                {
                    "name": "A#3",
                    "midi": 58,
                    "time": 310.71250000000015,
                    "velocity": 0.5118110236220472,
                    "duration": 0.15625
                },
                {
                    "name": "F#2",
                    "midi": 42,
                    "time": 311.06250000000017,
                    "velocity": 0.29133858267716534,
                    "duration": 1.6375000000000455
                },
                {
                    "name": "C#3",
                    "midi": 49,
                    "time": 311.06666666666683,
                    "velocity": 0.33858267716535434,
                    "duration": 0.7083333333333144
                },
                {
                    "name": "G#4",
                    "midi": 68,
                    "time": 311.12500000000017,
                    "velocity": 0.5118110236220472,
                    "duration": 0.6812499999999773
                },
                {
                    "name": "A#3",
                    "midi": 58,
                    "time": 311.1333333333335,
                    "velocity": 0.3779527559055118,
                    "duration": 0.3125
                },
                {
                    "name": "F#4",
                    "midi": 66,
                    "time": 311.15000000000015,
                    "velocity": 0.5590551181102362,
                    "duration": 0.8229166666666856
                },
                {
                    "name": "A#3",
                    "midi": 58,
                    "time": 311.61875000000015,
                    "velocity": 0.5590551181102362,
                    "duration": 0.22708333333332575
                },
                {
                    "name": "C#4",
                    "midi": 61,
                    "time": 311.79583333333346,
                    "velocity": 0.7716535433070866,
                    "duration": 0.30625000000009095
                },
                {
                    "name": "A#4",
                    "midi": 70,
                    "time": 312.04166666666686,
                    "velocity": 0.7795275590551181,
                    "duration": 0.6062499999999886
                },
                {
                    "name": "C#3",
                    "midi": 49,
                    "time": 312.05208333333354,
                    "velocity": 0.3543307086614173,
                    "duration": 0.33125000000001137
                },
                {
                    "name": "F#4",
                    "midi": 66,
                    "time": 312.0562500000002,
                    "velocity": 0.33858267716535434,
                    "duration": 0.8499999999999659
                },
                {
                    "name": "A#3",
                    "midi": 58,
                    "time": 312.06458333333353,
                    "velocity": 0.5984251968503937,
                    "duration": 0.29791666666670835
                },
                {
                    "name": "C#3",
                    "midi": 49,
                    "time": 312.53333333333353,
                    "velocity": 0.4566929133858268,
                    "duration": 0.16458333333332575
                },
                {
                    "name": "A#3",
                    "midi": 58,
                    "time": 312.81458333333353,
                    "velocity": 0.29133858267716534,
                    "duration": 0.19166666666666288
                },
                {
                    "name": "C#4",
                    "midi": 61,
                    "time": 312.8187500000002,
                    "velocity": 0.6062992125984252,
                    "duration": 0.341666666666697
                },
                {
                    "name": "A#2",
                    "midi": 46,
                    "time": 313.15416666666687,
                    "velocity": 0.30708661417322836,
                    "duration": 0.4395833333334167
                },
                {
                    "name": "F#4",
                    "midi": 66,
                    "time": 313.15416666666687,
                    "velocity": 0.5748031496062992,
                    "duration": 0.889583333333519
                },
                {
                    "name": "A#3",
                    "midi": 58,
                    "time": 313.16250000000025,
                    "velocity": 0.15748031496062992,
                    "duration": 0.5520833333333712
                },
                {
                    "name": "D#2",
                    "midi": 39,
                    "time": 313.17500000000024,
                    "velocity": 0.33070866141732286,
                    "duration": 0.7354166666667652
                },
                {
                    "name": "F4",
                    "midi": 65,
                    "time": 313.19375000000025,
                    "velocity": 0.44881889763779526,
                    "duration": 0.9687500000001137
                },
                {
                    "name": "D#4",
                    "midi": 63,
                    "time": 313.60416666666697,
                    "velocity": 0.5669291338582677,
                    "duration": 0.6020833333333826
                },
                {
                    "name": "A#2",
                    "midi": 46,
                    "time": 313.779166666667,
                    "velocity": 0.36220472440944884,
                    "duration": 0.14166666666670835
                },
                {
                    "name": "A#3",
                    "midi": 58,
                    "time": 313.9625000000004,
                    "velocity": 0.4881889763779528,
                    "duration": 0.37291666666664014
                },
                {
                    "name": "F#2",
                    "midi": 42,
                    "time": 314.41250000000036,
                    "velocity": 0.25984251968503935,
                    "duration": 1.1250000000000568
                },
                {
                    "name": "B1",
                    "midi": 35,
                    "time": 314.43750000000034,
                    "velocity": 0.2992125984251969,
                    "duration": 1.0020833333334167
                },
                {
                    "name": "B3",
                    "midi": 59,
                    "time": 314.466666666667,
                    "velocity": 0.2204724409448819,
                    "duration": 0.5833333333334281
                },
                {
                    "name": "G#4",
                    "midi": 68,
                    "time": 314.47708333333367,
                    "velocity": 0.3543307086614173,
                    "duration": 0.5666666666667197
                },
                {
                    "name": "D#4",
                    "midi": 63,
                    "time": 314.4833333333337,
                    "velocity": 0.4251968503937008,
                    "duration": 0.5770833333334053
                },
                {
                    "name": "F#4",
                    "midi": 66,
                    "time": 314.4958333333337,
                    "velocity": 0.5275590551181102,
                    "duration": 0.5937500000000568
                },
                {
                    "name": "B3",
                    "midi": 59,
                    "time": 315.1541666666671,
                    "velocity": 0.3228346456692913,
                    "duration": 0.3020833333333144
                },
                {
                    "name": "D#4",
                    "midi": 63,
                    "time": 315.1625000000004,
                    "velocity": 0.5118110236220472,
                    "duration": 0.32083333333332575
                },
                {
                    "name": "F#4",
                    "midi": 66,
                    "time": 315.1645833333338,
                    "velocity": 0.5748031496062992,
                    "duration": 0.3187499999999659
                },
                {
                    "name": "G#4",
                    "midi": 68,
                    "time": 315.1645833333338,
                    "velocity": 0.31496062992125984,
                    "duration": 0.2999999999999545
                },
                {
                    "name": "D#4",
                    "midi": 63,
                    "time": 315.65208333333374,
                    "velocity": 0.44881889763779526,
                    "duration": 0.22083333333335986
                },
                {
                    "name": "F#4",
                    "midi": 66,
                    "time": 315.65833333333376,
                    "velocity": 0.5590551181102362,
                    "duration": 0.2770833333333371
                },
                {
                    "name": "G#4",
                    "midi": 68,
                    "time": 315.65833333333376,
                    "velocity": 0.5433070866141733,
                    "duration": 0.2604166666666856
                },
                {
                    "name": "B3",
                    "midi": 59,
                    "time": 315.6604166666671,
                    "velocity": 0.3858267716535433,
                    "duration": 0.24374999999997726
                },
                {
                    "name": "F#3",
                    "midi": 54,
                    "time": 316.0687500000004,
                    "velocity": 0.5275590551181102,
                    "duration": 0.45833333333337123
                },
                {
                    "name": "G#4",
                    "midi": 68,
                    "time": 316.0729166666671,
                    "velocity": 0.5590551181102362,
                    "duration": 0.2604166666666856
                },
                {
                    "name": "B2",
                    "midi": 47,
                    "time": 316.07500000000044,
                    "velocity": 0.4409448818897638,
                    "duration": 0.8479166666667766
                },
                {
                    "name": "F#4",
                    "midi": 66,
                    "time": 316.08125000000047,
                    "velocity": 0.5511811023622047,
                    "duration": 0.2770833333332803
                },
                {
                    "name": "D#4",
                    "midi": 63,
                    "time": 316.08541666666713,
                    "velocity": 0.48031496062992124,
                    "duration": 0.23958333333331439
                },
                {
                    "name": "B3",
                    "midi": 59,
                    "time": 316.08541666666713,
                    "velocity": 0.2755905511811024,
                    "duration": 0.22291666666666288
                },
                {
                    "name": "G#4",
                    "midi": 68,
                    "time": 316.52500000000043,
                    "velocity": 0.5511811023622047,
                    "duration": 0.23958333333342807
                },
                {
                    "name": "B3",
                    "midi": 59,
                    "time": 316.53125000000045,
                    "velocity": 0.4251968503937008,
                    "duration": 0.17708333333337123
                },
                {
                    "name": "F#4",
                    "midi": 66,
                    "time": 316.5333333333338,
                    "velocity": 0.5511811023622047,
                    "duration": 0.24583333333339397
                },
                {
                    "name": "A#3",
                    "midi": 58,
                    "time": 316.5437500000005,
                    "velocity": 0.6299212598425197,
                    "duration": 0.17916666666667425
                },
                {
                    "name": "D#4",
                    "midi": 63,
                    "time": 316.5437500000005,
                    "velocity": 0.4881889763779528,
                    "duration": 0.18541666666669698
                },
                {
                    "name": "G#4",
                    "midi": 68,
                    "time": 316.98125000000056,
                    "velocity": 0.6299212598425197,
                    "duration": 0.30000000000001137
                },
                {
                    "name": "F#4",
                    "midi": 66,
                    "time": 316.9854166666672,
                    "velocity": 0.6535433070866141,
                    "duration": 0.34375000000005684
                },
                {
                    "name": "F#3",
                    "midi": 54,
                    "time": 316.9854166666672,
                    "velocity": 0.7559055118110236,
                    "duration": 0.5104166666667425
                },
                {
                    "name": "B3",
                    "midi": 59,
                    "time": 316.9979166666672,
                    "velocity": 0.3858267716535433,
                    "duration": 0.28125
                },
                {
                    "name": "D#4",
                    "midi": 63,
                    "time": 317.00208333333387,
                    "velocity": 0.5275590551181102,
                    "duration": 0.3208333333333826
                },
                {
                    "name": "B2",
                    "midi": 47,
                    "time": 317.01250000000056,
                    "velocity": 0.4645669291338583,
                    "duration": 0.5729166666667425
                },
                {
                    "name": "G#3",
                    "midi": 56,
                    "time": 317.4437500000006,
                    "velocity": 0.7952755905511811,
                    "duration": 1.1500000000002046
                },
                {
                    "name": "G#4",
                    "midi": 68,
                    "time": 317.4437500000006,
                    "velocity": 0.6377952755905512,
                    "duration": 0.1958333333333826
                },
                {
                    "name": "D#4",
                    "midi": 63,
                    "time": 317.4562500000006,
                    "velocity": 0.5354330708661418,
                    "duration": 0.16875000000004547
                },
                {
                    "name": "B3",
                    "midi": 59,
                    "time": 317.4562500000006,
                    "velocity": 0.47244094488188976,
                    "duration": 0.12083333333339397
                },
                {
                    "name": "F#4",
                    "midi": 66,
                    "time": 317.45833333333394,
                    "velocity": 0.6141732283464567,
                    "duration": 0.1708333333333485
                },
                {
                    "name": "B4",
                    "midi": 71,
                    "time": 317.96250000000066,
                    "velocity": 0.5669291338582677,
                    "duration": 0.15625000000005684
                },
                {
                    "name": "D#4",
                    "midi": 63,
                    "time": 317.97500000000065,
                    "velocity": 0.48031496062992124,
                    "duration": 0.11666666666667425
                },
                {
                    "name": "G#4",
                    "midi": 68,
                    "time": 317.9791666666673,
                    "velocity": 0.48031496062992124,
                    "duration": 0.1333333333333826
                },
                {
                    "name": "F#4",
                    "midi": 66,
                    "time": 317.989583333334,
                    "velocity": 0.5354330708661418,
                    "duration": 0.12083333333333712
                },
                {
                    "name": "D#5",
                    "midi": 75,
                    "time": 318.4312500000007,
                    "velocity": 0.5748031496062992,
                    "duration": 0.11666666666673109
                },
                {
                    "name": "F#4",
                    "midi": 66,
                    "time": 318.44583333333406,
                    "velocity": 0.36220472440944884,
                    "duration": 0.08541666666673109
                },
                {
                    "name": "G#4",
                    "midi": 68,
                    "time": 318.4520833333341,
                    "velocity": 0.3858267716535433,
                    "duration": 0.07500000000004547
                },
                {
                    "name": "B4",
                    "midi": 71,
                    "time": 318.4583333333341,
                    "velocity": 0.4645669291338583,
                    "duration": 0.08541666666667425
                },
                {
                    "name": "B3",
                    "midi": 59,
                    "time": 318.6333333333341,
                    "velocity": 0.6456692913385826,
                    "duration": 0.20833333333337123
                },
                {
                    "name": "G#4",
                    "midi": 68,
                    "time": 318.83958333333413,
                    "velocity": 0.5590551181102362,
                    "duration": 0.10625000000004547
                },
                {
                    "name": "F#5",
                    "midi": 78,
                    "time": 318.84375000000085,
                    "velocity": 0.5984251968503937,
                    "duration": 0.1312499999999659
                },
                {
                    "name": "D#4",
                    "midi": 63,
                    "time": 318.8479166666675,
                    "velocity": 0.7244094488188977,
                    "duration": 0.21875
                },
                {
                    "name": "D#5",
                    "midi": 75,
                    "time": 318.8479166666675,
                    "velocity": 0.5984251968503937,
                    "duration": 0.13333333333332575
                },
                {
                    "name": "B4",
                    "midi": 71,
                    "time": 318.85625000000084,
                    "velocity": 0.47244094488188976,
                    "duration": 0.08958333333333712
                },
                {
                    "name": "F#4",
                    "midi": 66,
                    "time": 319.05208333333417,
                    "velocity": 0.6929133858267716,
                    "duration": 0.19166666666666288
                },
                {
                    "name": "G#5",
                    "midi": 80,
                    "time": 319.2562500000008,
                    "velocity": 0.6299212598425197,
                    "duration": 0.31458333333335986
                },
                {
                    "name": "B4",
                    "midi": 71,
                    "time": 319.2583333333342,
                    "velocity": 0.5669291338582677,
                    "duration": 0.3333333333333144
                },
                {
                    "name": "D#5",
                    "midi": 75,
                    "time": 319.2583333333342,
                    "velocity": 0.6141732283464567,
                    "duration": 0.3624999999999545
                },
                {
                    "name": "F#5",
                    "midi": 78,
                    "time": 319.2583333333342,
                    "velocity": 0.6377952755905512,
                    "duration": 0.37499999999994316
                },
                {
                    "name": "G#4",
                    "midi": 68,
                    "time": 319.2791666666675,
                    "velocity": 0.7401574803149606,
                    "duration": 0.43124999999997726
                },
                {
                    "name": "B3",
                    "midi": 59,
                    "time": 319.6875000000008,
                    "velocity": 0.6614173228346457,
                    "duration": 0.5562500000001478
                },
                {
                    "name": "F#5",
                    "midi": 78,
                    "time": 319.6979166666675,
                    "velocity": 0.6062992125984252,
                    "duration": 0.17500000000001137
                },
                {
                    "name": "A#5",
                    "midi": 82,
                    "time": 319.7062500000008,
                    "velocity": 0.7559055118110236,
                    "duration": 0.20416666666670835
                },
                {
                    "name": "D#5",
                    "midi": 75,
                    "time": 319.7166666666675,
                    "velocity": 0.5826771653543307,
                    "duration": 0.14791666666667425
                },
                {
                    "name": "B4",
                    "midi": 71,
                    "time": 319.71875000000085,
                    "velocity": 0.5748031496062992,
                    "duration": 0.14583333333331439
                },
                {
                    "name": "A#4",
                    "midi": 70,
                    "time": 319.90625000000085,
                    "velocity": 0.7795275590551181,
                    "duration": 0.14791666666667425
                },
                {
                    "name": "B5",
                    "midi": 83,
                    "time": 320.1937500000009,
                    "velocity": 0.6141732283464567,
                    "duration": 0.3500000000000796
                },
                {
                    "name": "F#5",
                    "midi": 78,
                    "time": 320.2000000000009,
                    "velocity": 0.7007874015748031,
                    "duration": 0.3937500000000682
                },
                {
                    "name": "G#4",
                    "midi": 68,
                    "time": 320.20208333333426,
                    "velocity": 0.84251968503937,
                    "duration": 1.9687500000002842
                },
                {
                    "name": "D#5",
                    "midi": 75,
                    "time": 320.20208333333426,
                    "velocity": 0.7086614173228346,
                    "duration": 0.3791666666667197
                },
                {
                    "name": "B4",
                    "midi": 71,
                    "time": 320.2083333333343,
                    "velocity": 0.6614173228346457,
                    "duration": 0.35000000000002274
                },
                {
                    "name": "F#5",
                    "midi": 78,
                    "time": 320.66041666666763,
                    "velocity": 0.6850393700787402,
                    "duration": 0.33750000000009095
                },
                {
                    "name": "B5",
                    "midi": 83,
                    "time": 320.662500000001,
                    "velocity": 0.8031496062992126,
                    "duration": 0.2895833333333826
                },
                {
                    "name": "D#5",
                    "midi": 75,
                    "time": 320.668750000001,
                    "velocity": 0.6929133858267716,
                    "duration": 0.31875000000002274
                },
                {
                    "name": "B4",
                    "midi": 71,
                    "time": 320.6708333333344,
                    "velocity": 0.7322834645669292,
                    "duration": 0.2854166666666629
                },
                {
                    "name": "B5",
                    "midi": 83,
                    "time": 321.0937500000011,
                    "velocity": 0.84251968503937,
                    "duration": 0.3416666666667538
                },
                {
                    "name": "B4",
                    "midi": 71,
                    "time": 321.09791666666774,
                    "velocity": 0.84251968503937,
                    "duration": 0.32291666666674246
                },
                {
                    "name": "F#5",
                    "midi": 78,
                    "time": 321.1000000000011,
                    "velocity": 0.84251968503937,
                    "duration": 0.3833333333333826
                },
                {
                    "name": "D#5",
                    "midi": 75,
                    "time": 321.1062500000011,
                    "velocity": 0.7952755905511811,
                    "duration": 0.3541666666666856
                },
                {
                    "name": "B5",
                    "midi": 83,
                    "time": 321.55625000000117,
                    "velocity": 0.8582677165354331,
                    "duration": 0.2125000000000341
                },
                {
                    "name": "F#5",
                    "midi": 78,
                    "time": 321.55833333333453,
                    "velocity": 0.7795275590551181,
                    "duration": 0.22291666666666288
                },
                {
                    "name": "B4",
                    "midi": 71,
                    "time": 321.5604166666679,
                    "velocity": 0.8818897637795275,
                    "duration": 0.13333333333332575
                },
                {
                    "name": "D#5",
                    "midi": 75,
                    "time": 321.56458333333455,
                    "velocity": 0.8503937007874016,
                    "duration": 0.1875
                },
                {
                    "name": "B5",
                    "midi": 83,
                    "time": 322.07916666666785,
                    "velocity": 0.7244094488188977,
                    "duration": 0.4812500000000455
                },
                {
                    "name": "F#4",
                    "midi": 66,
                    "time": 322.0812500000012,
                    "velocity": 0.8188976377952756,
                    "duration": 0.7583333333333826
                },
                {
                    "name": "C#6",
                    "midi": 85,
                    "time": 322.08541666666787,
                    "velocity": 0.8503937007874016,
                    "duration": 0.3583333333333485
                },
                {
                    "name": "D#5",
                    "midi": 75,
                    "time": 322.08958333333453,
                    "velocity": 0.6929133858267716,
                    "duration": 0.404166666666697
                },
                {
                    "name": "F#5",
                    "midi": 78,
                    "time": 322.0937500000012,
                    "velocity": 0.6614173228346457,
                    "duration": 0.42916666666667425
                },
                {
                    "name": "D#6",
                    "midi": 87,
                    "time": 322.7895833333346,
                    "velocity": 0.7952755905511811,
                    "duration": 0.2666666666666515
                },
                {
                    "name": "F#5",
                    "midi": 78,
                    "time": 322.7958333333346,
                    "velocity": 0.5590551181102362,
                    "duration": 0.11458333333331439
                },
                {
                    "name": "B5",
                    "midi": 83,
                    "time": 322.8145833333346,
                    "velocity": 0.5118110236220472,
                    "duration": 0.2895833333332689
                },
                {
                    "name": "D#5",
                    "midi": 75,
                    "time": 322.82291666666794,
                    "velocity": 0.47244094488188976,
                    "duration": 0.06041666666664014
                },
                {
                    "name": "B2",
                    "midi": 47,
                    "time": 323.8937500000012,
                    "velocity": 0.4566929133858268,
                    "duration": 1.3958333333333144
                },
                {
                    "name": "D#5",
                    "midi": 75,
                    "time": 324.59791666666786,
                    "velocity": 0.6377952755905512,
                    "duration": 0.14999999999997726
                },
                {
                    "name": "D#3",
                    "midi": 51,
                    "time": 325.2270833333345,
                    "velocity": 0.5039370078740157,
                    "duration": 0.9562500000000114
                },
                {
                    "name": "F#4",
                    "midi": 66,
                    "time": 325.2291666666679,
                    "velocity": 0.5511811023622047,
                    "duration": 0.7541666666666629
                },
                {
                    "name": "G#3",
                    "midi": 56,
                    "time": 325.2500000000012,
                    "velocity": 0.2125984251968504,
                    "duration": 0.3937499999999545
                },
                {
                    "name": "B3",
                    "midi": 59,
                    "time": 325.25416666666786,
                    "velocity": 0.4330708661417323,
                    "duration": 0.3916666666666515
                },
                {
                    "name": "G#3",
                    "midi": 56,
                    "time": 325.73541666666785,
                    "velocity": 0.4566929133858268,
                    "duration": 0.2333333333333485
                },
                {
                    "name": "B3",
                    "midi": 59,
                    "time": 325.74583333333453,
                    "velocity": 0.4330708661417323,
                    "duration": 0.16458333333332575
                },
                {
                    "name": "F4",
                    "midi": 65,
                    "time": 326.1645833333345,
                    "velocity": 0.6377952755905512,
                    "duration": 0.6333333333334394
                },
                {
                    "name": "C#3",
                    "midi": 49,
                    "time": 326.1770833333345,
                    "velocity": 0.5196850393700787,
                    "duration": 0.49375000000009095
                },
                {
                    "name": "G#3",
                    "midi": 56,
                    "time": 326.1854166666679,
                    "velocity": 0.4015748031496063,
                    "duration": 0.33125000000001137
                },
                {
                    "name": "C#4",
                    "midi": 61,
                    "time": 326.18958333333455,
                    "velocity": 0.6062992125984252,
                    "duration": 0.341666666666697
                },
                {
                    "name": "B2",
                    "midi": 47,
                    "time": 326.6000000000013,
                    "velocity": 0.5826771653543307,
                    "duration": 0.6354166666666288
                },
                {
                    "name": "G#3",
                    "midi": 56,
                    "time": 326.61041666666796,
                    "velocity": 0.5905511811023622,
                    "duration": 0.29166666666662877
                },
                {
                    "name": "C#4",
                    "midi": 61,
                    "time": 326.6145833333346,
                    "velocity": 0.49606299212598426,
                    "duration": 0.2666666666666515
                },
                {
                    "name": "A#2",
                    "midi": 46,
                    "time": 327.1208333333346,
                    "velocity": 0.48031496062992124,
                    "duration": 1.0166666666667084
                },
                {
                    "name": "G#4",
                    "midi": 68,
                    "time": 327.1312500000013,
                    "velocity": 0.7559055118110236,
                    "duration": 1.1000000000000796
                },
                {
                    "name": "C#4",
                    "midi": 61,
                    "time": 327.1479166666679,
                    "velocity": 0.5984251968503937,
                    "duration": 0.35000000000002274
                },
                {
                    "name": "G#3",
                    "midi": 56,
                    "time": 327.1604166666679,
                    "velocity": 0.2992125984251969,
                    "duration": 0.37708333333335986
                },
                {
                    "name": "C#4",
                    "midi": 61,
                    "time": 327.72916666666794,
                    "velocity": 0.5433070866141733,
                    "duration": 0.21041666666667425
                },
                {
                    "name": "G#3",
                    "midi": 56,
                    "time": 327.7416666666679,
                    "velocity": 0.3543307086614173,
                    "duration": 0.22916666666668561
                },
                {
                    "name": "A#3",
                    "midi": 58,
                    "time": 328.17083333333466,
                    "velocity": 0.3779527559055118,
                    "duration": 0.8562500000001023
                },
                {
                    "name": "C#4",
                    "midi": 61,
                    "time": 328.18125000000134,
                    "velocity": 0.5118110236220472,
                    "duration": 0.17500000000001137
                },
                {
                    "name": "G#3",
                    "midi": 56,
                    "time": 328.191666666668,
                    "velocity": 0.14173228346456693,
                    "duration": 0.1624999999999659
                },
                {
                    "name": "F#4",
                    "midi": 66,
                    "time": 328.735416666668,
                    "velocity": 0.48031496062992124,
                    "duration": 0.27708333333339397
                },
                {
                    "name": "C#4",
                    "midi": 61,
                    "time": 328.76250000000135,
                    "velocity": 0.48031496062992124,
                    "duration": 0.21875000000005684
                },
                {
                    "name": "F#3",
                    "midi": 54,
                    "time": 328.7645833333347,
                    "velocity": 0.3779527559055118,
                    "duration": 0.14375000000001137
                },
                {
                    "name": "D#3",
                    "midi": 51,
                    "time": 329.4291666666681,
                    "velocity": 0.4409448818897638,
                    "duration": 0.5145833333334053
                },
                {
                    "name": "B4",
                    "midi": 71,
                    "time": 329.4354166666681,
                    "velocity": 0.5118110236220472,
                    "duration": 0.3541666666666856
                },
                {
                    "name": "F#4",
                    "midi": 66,
                    "time": 329.4375000000015,
                    "velocity": 0.4330708661417323,
                    "duration": 0.46875
                },
                {
                    "name": "C#4",
                    "midi": 61,
                    "time": 329.46250000000146,
                    "velocity": 0.2204724409448819,
                    "duration": 0.375
                },
                {
                    "name": "F3",
                    "midi": 53,
                    "time": 329.97708333333486,
                    "velocity": 0.5196850393700787,
                    "duration": 0.53125
                },
                {
                    "name": "C#5",
                    "midi": 73,
                    "time": 329.9937500000015,
                    "velocity": 0.6692913385826772,
                    "duration": 0.34375
                },
                {
                    "name": "G#4",
                    "midi": 68,
                    "time": 329.9979166666682,
                    "velocity": 0.5590551181102362,
                    "duration": 0.46041666666667425
                },
                {
                    "name": "C#4",
                    "midi": 61,
                    "time": 330.0125000000015,
                    "velocity": 0.3937007874015748,
                    "duration": 0.32499999999998863
                },
                {
                    "name": "F#3",
                    "midi": 54,
                    "time": 330.47916666666816,
                    "velocity": 0.5118110236220472,
                    "duration": 0.8562500000000455
                },
                {
                    "name": "A#4",
                    "midi": 70,
                    "time": 330.4812500000015,
                    "velocity": 0.7086614173228346,
                    "duration": 0.5062499999999659
                },
                {
                    "name": "C#4",
                    "midi": 61,
                    "time": 330.4916666666682,
                    "velocity": 0.5118110236220472,
                    "duration": 0.4020833333332803
                },
                {
                    "name": "D#3",
                    "midi": 51,
                    "time": 331.0500000000015,
                    "velocity": 0.3779527559055118,
                    "duration": 0.7229166666667197
                },
                {
                    "name": "F#4",
                    "midi": 66,
                    "time": 331.05208333333485,
                    "velocity": 0.6299212598425197,
                    "duration": 0.42500000000001137
                },
                {
                    "name": "C#4",
                    "midi": 61,
                    "time": 331.06458333333484,
                    "velocity": 0.36220472440944884,
                    "duration": 0.40833333333335986
                },
                {
                    "name": "C#3",
                    "midi": 49,
                    "time": 331.7479166666682,
                    "velocity": 0.2755905511811024,
                    "duration": 1.641666666666822
                },
                {
                    "name": "F#4",
                    "midi": 66,
                    "time": 331.76041666666816,
                    "velocity": 0.41732283464566927,
                    "duration": 0.8395833333334508
                },
                {
                    "name": "C#5",
                    "midi": 73,
                    "time": 331.7625000000015,
                    "velocity": 0.3779527559055118,
                    "duration": 1.8291666666667652
                },
                {
                    "name": "G#3",
                    "midi": 56,
                    "time": 331.77916666666823,
                    "velocity": 0.2047244094488189,
                    "duration": 1.647916666666731
                },
                {
                    "name": "C#4",
                    "midi": 61,
                    "time": 331.78750000000156,
                    "velocity": 0.12598425196850394,
                    "duration": 0.4250000000000682
                },
                {
                    "name": "C#4",
                    "midi": 61,
                    "time": 332.38750000000164,
                    "velocity": 0.2755905511811024,
                    "duration": 0.21458333333333712
                },
                {
                    "name": "F4",
                    "midi": 65,
                    "time": 333.0541666666683,
                    "velocity": 0.28346456692913385,
                    "duration": 0.4333333333332803
                },
                {
                    "name": "C#4",
                    "midi": 61,
                    "time": 333.0562500000017,
                    "velocity": 0.14173228346456693,
                    "duration": 0.35833333333329165
                },
                {
                    "name": "F#4",
                    "midi": 66,
                    "time": 333.98958333333496,
                    "velocity": 0.41732283464566927,
                    "duration": 0.4000000000000341
                },
                {
                    "name": "D#4",
                    "midi": 63,
                    "time": 334.03333333333495,
                    "velocity": 0.3858267716535433,
                    "duration": 0.681250000000091
                },
                {
                    "name": "F4",
                    "midi": 65,
                    "time": 334.0354166666683,
                    "velocity": 0.25196850393700787,
                    "duration": 0.26666666666670835
                },
                {
                    "name": "B3",
                    "midi": 59,
                    "time": 334.03750000000167,
                    "velocity": 0.3228346456692913,
                    "duration": 0.4645833333333371
                },
                {
                    "name": "C#4",
                    "midi": 61,
                    "time": 334.66666666666833,
                    "velocity": 0.4094488188976378,
                    "duration": 0.24375000000009095
                },
                {
                    "name": "F#4",
                    "midi": 66,
                    "time": 334.6687500000017,
                    "velocity": 0.41732283464566927,
                    "duration": 0.2541666666667197
                },
                {
                    "name": "A#3",
                    "midi": 58,
                    "time": 334.6750000000017,
                    "velocity": 0.2047244094488189,
                    "duration": 0.19791666666668561
                },
                {
                    "name": "A#4",
                    "midi": 70,
                    "time": 334.69166666666837,
                    "velocity": 0.6456692913385826,
                    "duration": 0.6625000000001364
                },
                {
                    "name": "F#4",
                    "midi": 66,
                    "time": 335.1916666666684,
                    "velocity": 0.7244094488188977,
                    "duration": 0.6895833333334735
                },
                {
                    "name": "D#4",
                    "midi": 63,
                    "time": 335.2062500000018,
                    "velocity": 0.5511811023622047,
                    "duration": 0.25833333333343944
                },
                {
                    "name": "B3",
                    "midi": 59,
                    "time": 335.2208333333351,
                    "velocity": 0.44881889763779526,
                    "duration": 0.22291666666671972
                },
                {
                    "name": "G#3",
                    "midi": 56,
                    "time": 335.2229166666685,
                    "velocity": 0.4645669291338583,
                    "duration": 0.2520833333334167
                },
                {
                    "name": "B4",
                    "midi": 71,
                    "time": 335.38750000000186,
                    "velocity": 0.7244094488188977,
                    "duration": 0.2916666666666856
                },
                {
                    "name": "C#5",
                    "midi": 73,
                    "time": 335.66666666666856,
                    "velocity": 0.7086614173228346,
                    "duration": 0.9604166666667311
                },
                {
                    "name": "F#3",
                    "midi": 54,
                    "time": 335.6812500000019,
                    "velocity": 0.48031496062992124,
                    "duration": 0.15416666666669698
                },
                {
                    "name": "A#3",
                    "midi": 58,
                    "time": 335.69791666666856,
                    "velocity": 0.3937007874015748,
                    "duration": 0.15416666666669698
                },
                {
                    "name": "C#4",
                    "midi": 61,
                    "time": 335.7000000000019,
                    "velocity": 0.4015748031496063,
                    "duration": 0.16458333333332575
                },
                {
                    "name": "A#4",
                    "midi": 70,
                    "time": 336.1187500000019,
                    "velocity": 0.7401574803149606,
                    "duration": 0.5854166666667311
                },
                {
                    "name": "D#4",
                    "midi": 63,
                    "time": 336.5145833333352,
                    "velocity": 0.4330708661417323,
                    "duration": 0.4104166666667197
                },
                {
                    "name": "B3",
                    "midi": 59,
                    "time": 336.5166666666686,
                    "velocity": 0.3700787401574803,
                    "duration": 0.5645833333333599
                },
                {
                    "name": "D#5",
                    "midi": 75,
                    "time": 336.5541666666686,
                    "velocity": 0.7165354330708661,
                    "duration": 0.5416666666666856
                },
                {
                    "name": "G#4",
                    "midi": 68,
                    "time": 336.8145833333353,
                    "velocity": 0.7086614173228346,
                    "duration": 0.24791666666664014
                },
                {
                    "name": "F#5",
                    "midi": 78,
                    "time": 337.03125000000193,
                    "velocity": 0.7480314960629921,
                    "duration": 0.22291666666671972
                },
                {
                    "name": "F#4",
                    "midi": 66,
                    "time": 337.0604166666686,
                    "velocity": 0.6614173228346457,
                    "duration": 0.16875000000010232
                },
                {
                    "name": "F4",
                    "midi": 65,
                    "time": 337.22291666666865,
                    "velocity": 0.7007874015748031,
                    "duration": 0.3708333333333371
                },
                {
                    "name": "D#4",
                    "midi": 63,
                    "time": 337.4791666666687,
                    "velocity": 0.5511811023622047,
                    "duration": 0.4749999999999659
                },
                {
                    "name": "B4",
                    "midi": 71,
                    "time": 337.4791666666687,
                    "velocity": 0.7086614173228346,
                    "duration": 0.6729166666665947
                },
                {
                    "name": "G#3",
                    "midi": 56,
                    "time": 337.49166666666866,
                    "velocity": 0.47244094488188976,
                    "duration": 0.43541666666664014
                },
                {
                    "name": "F4",
                    "midi": 65,
                    "time": 337.92291666666864,
                    "velocity": 0.6220472440944882,
                    "duration": 0.09166666666664014
                },
                {
                    "name": "A#4",
                    "midi": 70,
                    "time": 338.12500000000193,
                    "velocity": 0.6850393700787402,
                    "duration": 0.2020833333333485
                },
                {
                    "name": "F#4",
                    "midi": 66,
                    "time": 338.1416666666686,
                    "velocity": 0.6535433070866141,
                    "duration": 0.12083333333333712
                },
                {
                    "name": "F#3",
                    "midi": 54,
                    "time": 338.15625000000193,
                    "velocity": 0.5118110236220472,
                    "duration": 0.125
                },
                {
                    "name": "G#4",
                    "midi": 68,
                    "time": 338.4083333333353,
                    "velocity": 0.6141732283464567,
                    "duration": 0.35416666666662877
                },
                {
                    "name": "F3",
                    "midi": 53,
                    "time": 338.4291666666686,
                    "velocity": 0.49606299212598426,
                    "duration": 0.2666666666666515
                },
                {
                    "name": "G#4",
                    "midi": 68,
                    "time": 338.98750000000194,
                    "velocity": 0.7007874015748031,
                    "duration": 0.8645833333333144
                },
                {
                    "name": "C#4",
                    "midi": 61,
                    "time": 339.56875000000196,
                    "velocity": 0.4409448818897638,
                    "duration": 0.4229166666666515
                },
                {
                    "name": "F#3",
                    "midi": 54,
                    "time": 339.5770833333353,
                    "velocity": 0.2992125984251969,
                    "duration": 0.5104166666666856
                },
                {
                    "name": "A#4",
                    "midi": 70,
                    "time": 339.5854166666686,
                    "velocity": 0.5905511811023622,
                    "duration": 0.7583333333333826
                },
                {
                    "name": "F#4",
                    "midi": 66,
                    "time": 339.9854166666686,
                    "velocity": 0.6220472440944882,
                    "duration": 0.1020833333333826
                },
                {
                    "name": "F4",
                    "midi": 65,
                    "time": 340.250000000002,
                    "velocity": 0.6141732283464567,
                    "duration": 0.24374999999997726
                },
                {
                    "name": "D#4",
                    "midi": 63,
                    "time": 340.47291666666865,
                    "velocity": 0.7401574803149606,
                    "duration": 0.07499999999998863
                },
                {
                    "name": "C#4",
                    "midi": 61,
                    "time": 340.731250000002,
                    "velocity": 0.48031496062992124,
                    "duration": 0.44166666666660603
                },
                {
                    "name": "F#4",
                    "midi": 66,
                    "time": 340.737500000002,
                    "velocity": 0.7086614173228346,
                    "duration": 0.07708333333329165
                },
                {
                    "name": "D#3",
                    "midi": 51,
                    "time": 340.76458333333534,
                    "velocity": 0.30708661417322836,
                    "duration": 0.6187499999999204
                },
                {
                    "name": "G#3",
                    "midi": 56,
                    "time": 340.76458333333534,
                    "velocity": 0.31496062992125984,
                    "duration": 0.7604166666665719
                },
                {
                    "name": "G#4",
                    "midi": 68,
                    "time": 340.793750000002,
                    "velocity": 0.5984251968503937,
                    "duration": 0.13541666666662877
                },
                {
                    "name": "F#4",
                    "midi": 66,
                    "time": 340.8895833333353,
                    "velocity": 0.5275590551181102,
                    "duration": 0.39999999999997726
                },
                {
                    "name": "C4",
                    "midi": 60,
                    "time": 341.2125000000019,
                    "velocity": 0.5826771653543307,
                    "duration": 0.32083333333332575
                },
                {
                    "name": "F4",
                    "midi": 65,
                    "time": 341.2229166666686,
                    "velocity": 0.6771653543307087,
                    "duration": 0.21875
                },
                {
                    "name": "F#4",
                    "midi": 66,
                    "time": 341.39583333333525,
                    "velocity": 0.8346456692913385,
                    "duration": 0.21666666666664014
                },
                {
                    "name": "G#4",
                    "midi": 68,
                    "time": 341.6416666666685,
                    "velocity": 0.6929133858267716,
                    "duration": 0.7312499999999886
                },
                {
                    "name": "F3",
                    "midi": 53,
                    "time": 341.65000000000185,
                    "velocity": 0.4330708661417323,
                    "duration": 0.32083333333332575
                },
                {
                    "name": "C#4",
                    "midi": 61,
                    "time": 341.66041666666854,
                    "velocity": 0.4881889763779528,
                    "duration": 0.345833333333303
                },
                {
                    "name": "C#3",
                    "midi": 49,
                    "time": 341.6958333333352,
                    "velocity": 0.33070866141732286,
                    "duration": 1.4375
                },
                {
                    "name": "F3",
                    "midi": 53,
                    "time": 342.0979166666685,
                    "velocity": 0.5590551181102362,
                    "duration": 0.19166666666666288
                },
                {
                    "name": "C#4",
                    "midi": 61,
                    "time": 342.3041666666685,
                    "velocity": 0.7165354330708661,
                    "duration": 0.1875
                },
                {
                    "name": "C#4",
                    "midi": 61,
                    "time": 342.53750000000184,
                    "velocity": 0.3779527559055118,
                    "duration": 0.39375000000001137
                },
                {
                    "name": "G#4",
                    "midi": 68,
                    "time": 342.5604166666685,
                    "velocity": 0.7401574803149606,
                    "duration": 0.8145833333334167
                },
                {
                    "name": "F3",
                    "midi": 53,
                    "time": 342.5604166666685,
                    "velocity": 0.3779527559055118,
                    "duration": 0.33125000000001137
                },
                {
                    "name": "F3",
                    "midi": 53,
                    "time": 343.06666666666854,
                    "velocity": 0.5196850393700787,
                    "duration": 0.23541666666670835
                },
                {
                    "name": "C#4",
                    "midi": 61,
                    "time": 343.2687500000019,
                    "velocity": 0.5433070866141733,
                    "duration": 0.15208333333339397
                },
                {
                    "name": "F#2",
                    "midi": 42,
                    "time": 343.55833333333527,
                    "velocity": 0.31496062992125984,
                    "duration": 0.4125000000000796
                },
                {
                    "name": "B2",
                    "midi": 47,
                    "time": 343.56250000000193,
                    "velocity": 0.3858267716535433,
                    "duration": 0.5062500000001364
                },
                {
                    "name": "B3",
                    "midi": 59,
                    "time": 343.6354166666686,
                    "velocity": 0.4645669291338583,
                    "duration": 0.4375000000001137
                },
                {
                    "name": "A#4",
                    "midi": 70,
                    "time": 343.637500000002,
                    "velocity": 0.5748031496062992,
                    "duration": 0.4541666666667652
                },
                {
                    "name": "D#3",
                    "midi": 51,
                    "time": 343.9354166666687,
                    "velocity": 0.49606299212598426,
                    "duration": 0.3270833333333485
                },
                {
                    "name": "F#4",
                    "midi": 66,
                    "time": 344.0354166666687,
                    "velocity": 0.6614173228346457,
                    "duration": 0.4375
                },
                {
                    "name": "F#3",
                    "midi": 54,
                    "time": 344.2145833333354,
                    "velocity": 0.4251968503937008,
                    "duration": 0.10416666666662877
                },
                {
                    "name": "D#4",
                    "midi": 63,
                    "time": 344.38750000000203,
                    "velocity": 0.6299212598425197,
                    "duration": 0.19999999999998863
                },
                {
                    "name": "A#3",
                    "midi": 58,
                    "time": 344.5291666666687,
                    "velocity": 0.4015748031496063,
                    "duration": 0.29374999999998863
                },
                {
                    "name": "C#3",
                    "midi": 49,
                    "time": 344.8541666666687,
                    "velocity": 0.2204724409448819,
                    "duration": 0.6208333333333371
                },
                {
                    "name": "C#4",
                    "midi": 61,
                    "time": 344.85833333333534,
                    "velocity": 0.44881889763779526,
                    "duration": 0.42291666666670835
                },
                {
                    "name": "G#4",
                    "midi": 68,
                    "time": 344.86458333333536,
                    "velocity": 0.5354330708661418,
                    "duration": 0.7041666666666515
                },
                {
                    "name": "F3",
                    "midi": 53,
                    "time": 344.8708333333354,
                    "velocity": 0.3700787401574803,
                    "duration": 0.31041666666664014
                },
                {
                    "name": "F3",
                    "midi": 53,
                    "time": 345.3729166666687,
                    "velocity": 0.4645669291338583,
                    "duration": 0.08333333333331439
                },
                {
                    "name": "C#4",
                    "midi": 61,
                    "time": 345.57500000000203,
                    "velocity": 0.5118110236220472,
                    "duration": 0.44375000000002274
                },
                {
                    "name": "C#2",
                    "midi": 37,
                    "time": 345.868750000002,
                    "velocity": 0.3779527559055118,
                    "duration": 0.2645833333333485
                },
                {
                    "name": "G#2",
                    "midi": 44,
                    "time": 345.8833333333354,
                    "velocity": 0.4094488188976378,
                    "duration": 0.28958333333332575
                },
                {
                    "name": "G#4",
                    "midi": 68,
                    "time": 345.89375000000206,
                    "velocity": 0.5511811023622047,
                    "duration": 0.34375
                },
                {
                    "name": "C#3",
                    "midi": 49,
                    "time": 346.5875000000021,
                    "velocity": 0.36220472440944884,
                    "duration": 0.6791666666666742
                },
                {
                    "name": "F3",
                    "midi": 53,
                    "time": 347.14166666666875,
                    "velocity": 0.4330708661417323,
                    "duration": 0.7979166666667084
                },
                {
                    "name": "F#3",
                    "midi": 54,
                    "time": 347.6562500000021,
                    "velocity": 0.5511811023622047,
                    "duration": 0.6895833333334167
                },
                {
                    "name": "C#3",
                    "midi": 49,
                    "time": 348.1854166666688,
                    "velocity": 0.1968503937007874,
                    "duration": 1.7708333333333712
                },
                {
                    "name": "G#3",
                    "midi": 56,
                    "time": 348.20000000000215,
                    "velocity": 0.4094488188976378,
                    "duration": 0.39583333333337123
                },
                {
                    "name": "G#4",
                    "midi": 68,
                    "time": 348.20625000000217,
                    "velocity": 0.5118110236220472,
                    "duration": 0.7562499999999659
                },
                {
                    "name": "C#4",
                    "midi": 61,
                    "time": 348.2250000000022,
                    "velocity": 0.33070866141732286,
                    "duration": 0.5541666666666742
                },
                {
                    "name": "E4",
                    "midi": 64,
                    "time": 348.24166666666883,
                    "velocity": 0.4330708661417323,
                    "duration": 0.9479166666666288
                },
                {
                    "name": "G#3",
                    "midi": 56,
                    "time": 348.8708333333355,
                    "velocity": 0.6141732283464567,
                    "duration": 0.970833333333303
                },
                {
                    "name": "C#4",
                    "midi": 61,
                    "time": 349.09583333333546,
                    "velocity": 0.7007874015748031,
                    "duration": 0.16250000000002274
                },
                {
                    "name": "C#4",
                    "midi": 61,
                    "time": 349.38541666666885,
                    "velocity": 0.6141732283464567,
                    "duration": 0.35833333333329165
                },
                {
                    "name": "G#4",
                    "midi": 68,
                    "time": 349.40416666666886,
                    "velocity": 0.7559055118110236,
                    "duration": 0.6624999999999659
                },
                {
                    "name": "E4",
                    "midi": 64,
                    "time": 349.42500000000217,
                    "velocity": 0.5275590551181102,
                    "duration": 0.43124999999997726
                },
                {
                    "name": "B3",
                    "midi": 59,
                    "time": 349.85625000000215,
                    "velocity": 0.7165354330708661,
                    "duration": 0.10416666666668561
                },
                {
                    "name": "C#4",
                    "midi": 61,
                    "time": 350.06250000000216,
                    "velocity": 0.7874015748031497,
                    "duration": 0.17916666666667425
                },
                {
                    "name": "F#2",
                    "midi": 42,
                    "time": 350.32291666666885,
                    "velocity": 0.6220472440944882,
                    "duration": 0.41874999999998863
                },
                {
                    "name": "A#4",
                    "midi": 70,
                    "time": 350.3833333333355,
                    "velocity": 0.7165354330708661,
                    "duration": 0.6458333333333712
                },
                {
                    "name": "A#3",
                    "midi": 58,
                    "time": 350.38541666666885,
                    "velocity": 0.6062992125984252,
                    "duration": 0.49166666666667425
                },
                {
                    "name": "F#4",
                    "midi": 66,
                    "time": 350.78125000000216,
                    "velocity": 0.7952755905511811,
                    "duration": 0.3208333333333826
                },
                {
                    "name": "G#3",
                    "midi": 56,
                    "time": 350.9187500000022,
                    "velocity": 0.7007874015748031,
                    "duration": 0.2645833333333485
                },
                {
                    "name": "C#4",
                    "midi": 61,
                    "time": 351.09166666666886,
                    "velocity": 0.8267716535433071,
                    "duration": 0.22083333333335986
                },
                {
                    "name": "B2",
                    "midi": 47,
                    "time": 351.40208333333555,
                    "velocity": 0.6220472440944882,
                    "duration": 1.6583333333333599
                },
                {
                    "name": "F#3",
                    "midi": 54,
                    "time": 351.4041666666689,
                    "velocity": 0.6456692913385826,
                    "duration": 0.40208333333339397
                },
                {
                    "name": "B4",
                    "midi": 71,
                    "time": 351.43125000000225,
                    "velocity": 0.7322834645669292,
                    "duration": 0.9145833333333258
                },
                {
                    "name": "D#4",
                    "midi": 63,
                    "time": 351.4458333333356,
                    "velocity": 0.6929133858267716,
                    "duration": 1.162499999999966
                },
                {
                    "name": "F#3",
                    "midi": 54,
                    "time": 351.9208333333356,
                    "velocity": 0.7874015748031497,
                    "duration": 0.36874999999997726
                },
                {
                    "name": "B3",
                    "midi": 59,
                    "time": 352.3666666666689,
                    "velocity": 0.7874015748031497,
                    "duration": 0.16458333333332575
                },
                {
                    "name": "A#3",
                    "midi": 58,
                    "time": 352.93125000000225,
                    "velocity": 0.6692913385826772,
                    "duration": 1.1187499999999773
                },
                {
                    "name": "A#4",
                    "midi": 70,
                    "time": 352.9354166666689,
                    "velocity": 0.7874015748031497,
                    "duration": 0.6020833333333258
                },
                {
                    "name": "G#2",
                    "midi": 44,
                    "time": 353.5500000000022,
                    "velocity": 0.7086614173228346,
                    "duration": 0.7541666666666629
                },
                {
                    "name": "F#4",
                    "midi": 66,
                    "time": 353.5729166666689,
                    "velocity": 0.7480314960629921,
                    "duration": 0.7979166666666515
                },
                {
                    "name": "D#4",
                    "midi": 63,
                    "time": 353.5833333333356,
                    "velocity": 0.5984251968503937,
                    "duration": 1.0312499999999432
                },
                {
                    "name": "B3",
                    "midi": 59,
                    "time": 353.6020833333356,
                    "velocity": 0.2755905511811024,
                    "duration": 1.0458333333332916
                },
                {
                    "name": "G#3",
                    "midi": 56,
                    "time": 354.24583333333555,
                    "velocity": 0.5669291338582677,
                    "duration": 0.35208333333332575
                },
                {
                    "name": "A#4",
                    "midi": 70,
                    "time": 354.2479166666689,
                    "velocity": 0.7637795275590551,
                    "duration": 1.0791666666666515
                },
                {
                    "name": "F#3",
                    "midi": 54,
                    "time": 354.5312500000022,
                    "velocity": 0.7007874015748031,
                    "duration": 0.27708333333339397
                },
                {
                    "name": "B3",
                    "midi": 59,
                    "time": 354.77500000000225,
                    "velocity": 0.6141732283464567,
                    "duration": 0.7541666666666629
                },
                {
                    "name": "E3",
                    "midi": 52,
                    "time": 354.79583333333557,
                    "velocity": 0.5984251968503937,
                    "duration": 0.49791666666664014
                },
                {
                    "name": "C#3",
                    "midi": 49,
                    "time": 354.8020833333356,
                    "velocity": 0.5275590551181102,
                    "duration": 0.5708333333333258
                },
                {
                    "name": "G#4",
                    "midi": 68,
                    "time": 355.2729166666689,
                    "velocity": 0.7637795275590551,
                    "duration": 0.14166666666670835
                },
                {
                    "name": "F3",
                    "midi": 53,
                    "time": 355.2854166666689,
                    "velocity": 0.44881889763779526,
                    "duration": 0.16875000000004547
                },
                {
                    "name": "F4",
                    "midi": 65,
                    "time": 355.8291666666689,
                    "velocity": 0.6614173228346457,
                    "duration": 2.0229166666668448
                },
                {
                    "name": "C#2",
                    "midi": 37,
                    "time": 355.83541666666895,
                    "velocity": 0.48031496062992124,
                    "duration": 1.3041666666668448
                },
                {
                    "name": "B3",
                    "midi": 59,
                    "time": 355.84583333333563,
                    "velocity": 0.47244094488188976,
                    "duration": 0.6000000000000796
                },
                {
                    "name": "D#4",
                    "midi": 63,
                    "time": 355.847916666669,
                    "velocity": 0.5511811023622047,
                    "duration": 0.30416666666667425
                },
                {
                    "name": "C#4",
                    "midi": 61,
                    "time": 356.4395833333357,
                    "velocity": 0.5748031496062992,
                    "duration": 0.20000000000004547
                },
                {
                    "name": "A#3",
                    "midi": 58,
                    "time": 356.4500000000024,
                    "velocity": 0.41732283464566927,
                    "duration": 0.12083333333333712
                },
                {
                    "name": "G#3",
                    "midi": 56,
                    "time": 356.7291666666691,
                    "velocity": 0.5118110236220472,
                    "duration": 0.17500000000001137
                },
                {
                    "name": "B3",
                    "midi": 59,
                    "time": 356.7375000000024,
                    "velocity": 0.49606299212598426,
                    "duration": 0.20625000000001137
                },
                {
                    "name": "C#3",
                    "midi": 49,
                    "time": 357.11666666666906,
                    "velocity": 0.33858267716535434,
                    "duration": 0.42291666666670835
                },
                {
                    "name": "A#3",
                    "midi": 58,
                    "time": 357.1229166666691,
                    "velocity": 0.49606299212598426,
                    "duration": 0.779166666666697
                },
                {
                    "name": "F#2",
                    "midi": 42,
                    "time": 357.1291666666691,
                    "velocity": 0.41732283464566927,
                    "duration": 3.306250000000091
                },
                {
                    "name": "F#3",
                    "midi": 54,
                    "time": 357.13541666666913,
                    "velocity": 0.3464566929133858,
                    "duration": 0.71875
                },
                {
                    "name": "C#3",
                    "midi": 49,
                    "time": 357.6854166666691,
                    "velocity": 0.48031496062992124,
                    "duration": 0.18958333333335986
                },
                {
                    "name": "C#3",
                    "midi": 49,
                    "time": 358.3395833333358,
                    "velocity": 0.2440944881889764,
                    "duration": 0.4500000000000455
                },
                {
                    "name": "F#4",
                    "midi": 66,
                    "time": 358.3458333333358,
                    "velocity": 0.4409448818897638,
                    "duration": 1.6708333333334053
                },
                {
                    "name": "A#3",
                    "midi": 58,
                    "time": 358.3458333333358,
                    "velocity": 0.4015748031496063,
                    "duration": 1.527083333333394
                },
                {
                    "name": "F#3",
                    "midi": 54,
                    "time": 358.3562500000025,
                    "velocity": 0.2283464566929134,
                    "duration": 1.3562500000000455
                },
                {
                    "name": "C#3",
                    "midi": 49,
                    "time": 359.1020833333358,
                    "velocity": 0.28346456692913385,
                    "duration": 0.2604166666666856
                },
                {
                    "name": "C#3",
                    "midi": 49,
                    "time": 359.97083333333586,
                    "velocity": 0.09448818897637795,
                    "duration": 0.5562499999999773
                },
                {
                    "name": "F#5",
                    "midi": 78,
                    "time": 361.1541666666692,
                    "velocity": 0.8503937007874016,
                    "duration": 0.5520833333334281
                },
                {
                    "name": "B4",
                    "midi": 71,
                    "time": 361.15625000000256,
                    "velocity": 0.8110236220472441,
                    "duration": 0.5520833333334281
                },
                {
                    "name": "F5",
                    "midi": 77,
                    "time": 361.16666666666924,
                    "velocity": 0.7322834645669292,
                    "duration": 0.2354166666666515
                },
                {
                    "name": "D5",
                    "midi": 74,
                    "time": 361.17916666666923,
                    "velocity": 0.7165354330708661,
                    "duration": 0.5145833333334053
                },
                {
                    "name": "C#5",
                    "midi": 73,
                    "time": 361.65625000000256,
                    "velocity": 0.6850393700787402,
                    "duration": 0.07708333333346218
                },
                {
                    "name": "A4",
                    "midi": 69,
                    "time": 361.6583333333359,
                    "velocity": 0.5905511811023622,
                    "duration": 0.06875000000007958
                },
                {
                    "name": "F#5",
                    "midi": 78,
                    "time": 362.08958333333607,
                    "velocity": 0.8346456692913385,
                    "duration": 0.5833333333333712
                },
                {
                    "name": "G#4",
                    "midi": 68,
                    "time": 362.09375000000273,
                    "velocity": 0.8267716535433071,
                    "duration": 0.49583333333339397
                },
                {
                    "name": "D5",
                    "midi": 74,
                    "time": 362.0979166666694,
                    "velocity": 0.7165354330708661,
                    "duration": 0.4000000000000341
                },
                {
                    "name": "B4",
                    "midi": 71,
                    "time": 362.1062500000027,
                    "velocity": 0.6771653543307087,
                    "duration": 0.16875000000004547
                },
                {
                    "name": "C#5",
                    "midi": 73,
                    "time": 362.54791666666944,
                    "velocity": 0.6614173228346457,
                    "duration": 0.38958333333340533
                },
                {
                    "name": "F#4",
                    "midi": 66,
                    "time": 362.5520833333361,
                    "velocity": 0.7795275590551181,
                    "duration": 0.587500000000091
                },
                {
                    "name": "A4",
                    "midi": 69,
                    "time": 362.55416666666946,
                    "velocity": 0.6141732283464567,
                    "duration": 0.32708333333340533
                },
                {
                    "name": "A5",
                    "midi": 81,
                    "time": 362.99791666666954,
                    "velocity": 0.889763779527559,
                    "duration": 0.3479166666666629
                },
                {
                    "name": "B3",
                    "midi": 59,
                    "time": 363.4166666666695,
                    "velocity": 0.7401574803149606,
                    "duration": 0.43333333333339397
                },
                {
                    "name": "D5",
                    "midi": 74,
                    "time": 363.43750000000284,
                    "velocity": 0.5984251968503937,
                    "duration": 0.2625000000000455
                },
                {
                    "name": "A4",
                    "midi": 69,
                    "time": 363.44375000000286,
                    "velocity": 0.44881889763779526,
                    "duration": 0.16041666666666288
                },
                {
                    "name": "G#5",
                    "midi": 80,
                    "time": 363.62291666666954,
                    "velocity": 0.8267716535433071,
                    "duration": 0.1791666666667311
                },
                {
                    "name": "F#5",
                    "midi": 78,
                    "time": 363.82500000000294,
                    "velocity": 0.7165354330708661,
                    "duration": 0.29166666666662877
                },
                {
                    "name": "E4",
                    "midi": 64,
                    "time": 363.83333333333627,
                    "velocity": 0.6614173228346457,
                    "duration": 0.4104166666666629
                },
                {
                    "name": "D5",
                    "midi": 74,
                    "time": 363.8416666666696,
                    "velocity": 0.6771653543307087,
                    "duration": 0.16041666666666288
                },
                {
                    "name": "G#4",
                    "midi": 68,
                    "time": 363.8416666666696,
                    "velocity": 0.6929133858267716,
                    "duration": 0.2708333333333144
                },
                {
                    "name": "E5",
                    "midi": 76,
                    "time": 363.9979166666696,
                    "velocity": 0.7559055118110236,
                    "duration": 0.2895833333333826
                },
                {
                    "name": "F#3",
                    "midi": 54,
                    "time": 364.2187500000029,
                    "velocity": 0.7716535433070866,
                    "duration": 0.06666666666671972
                },
                {
                    "name": "F#5",
                    "midi": 78,
                    "time": 364.2270833333362,
                    "velocity": 0.7716535433070866,
                    "duration": 0.27500000000009095
                },
                {
                    "name": "A4",
                    "midi": 69,
                    "time": 364.2354166666696,
                    "velocity": 0.5984251968503937,
                    "duration": 0.14166666666670835
                },
                {
                    "name": "C#5",
                    "midi": 73,
                    "time": 364.23958333333627,
                    "velocity": 0.6614173228346457,
                    "duration": 0.22291666666671972
                },
                {
                    "name": "G#5",
                    "midi": 80,
                    "time": 364.418750000003,
                    "velocity": 0.7874015748031497,
                    "duration": 0.14375000000001137
                },
                {
                    "name": "B3",
                    "midi": 59,
                    "time": 364.625000000003,
                    "velocity": 0.5669291338582677,
                    "duration": 0.1416666666666515
                },
                {
                    "name": "F4",
                    "midi": 65,
                    "time": 364.637500000003,
                    "velocity": 0.6614173228346457,
                    "duration": 0.10624999999998863
                },
                {
                    "name": "A5",
                    "midi": 81,
                    "time": 364.637500000003,
                    "velocity": 0.8031496062992126,
                    "duration": 0.08958333333333712
                },
                {
                    "name": "D4",
                    "midi": 62,
                    "time": 364.64166666666966,
                    "velocity": 0.5984251968503937,
                    "duration": 0.11041666666665151
                },
                {
                    "name": "F#4",
                    "midi": 66,
                    "time": 364.643750000003,
                    "velocity": 0.7874015748031497,
                    "duration": 0.14999999999997726
                },
                {
                    "name": "B5",
                    "midi": 83,
                    "time": 364.82083333333634,
                    "velocity": 0.7716535433070866,
                    "duration": 0.08958333333333712
                },
                {
                    "name": "C#6",
                    "midi": 85,
                    "time": 365.0333333333363,
                    "velocity": 0.8661417322834646,
                    "duration": 0.07916666666670835
                },
                {
                    "name": "A3",
                    "midi": 57,
                    "time": 365.037500000003,
                    "velocity": 0.5275590551181102,
                    "duration": 0.0958333333334167
                },
                {
                    "name": "C#4",
                    "midi": 61,
                    "time": 365.037500000003,
                    "velocity": 0.7401574803149606,
                    "duration": 0.07291666666668561
                },
                {
                    "name": "F#4",
                    "midi": 66,
                    "time": 365.03958333333634,
                    "velocity": 0.7322834645669292,
                    "duration": 0.08333333333337123
                },
                {
                    "name": "F#4",
                    "midi": 66,
                    "time": 365.44166666666973,
                    "velocity": 0.8188976377952756,
                    "duration": 0.6604166666667766
                },
                {
                    "name": "G#3",
                    "midi": 56,
                    "time": 365.4458333333364,
                    "velocity": 0.6614173228346457,
                    "duration": 0.26041666666674246
                },
                {
                    "name": "B3",
                    "midi": 59,
                    "time": 365.4458333333364,
                    "velocity": 0.6456692913385826,
                    "duration": 0.24791666666675383
                },
                {
                    "name": "C#6",
                    "midi": 85,
                    "time": 365.44791666666976,
                    "velocity": 0.889763779527559,
                    "duration": 0.6395833333334053
                },
                {
                    "name": "D4",
                    "midi": 62,
                    "time": 365.4500000000031,
                    "velocity": 0.7559055118110236,
                    "duration": 0.22500000000002274
                },
                {
                    "name": "F#3",
                    "midi": 54,
                    "time": 365.88333333333645,
                    "velocity": 0.7244094488188977,
                    "duration": 0.16874999999998863
                },
                {
                    "name": "C#4",
                    "midi": 61,
                    "time": 365.8875000000031,
                    "velocity": 0.7007874015748031,
                    "duration": 0.18750000000005684
                },
                {
                    "name": "A3",
                    "midi": 57,
                    "time": 365.8875000000031,
                    "velocity": 0.4881889763779528,
                    "duration": 0.16666666666668561
                },
                {
                    "name": "A5",
                    "midi": 81,
                    "time": 366.06875000000315,
                    "velocity": 0.7322834645669292,
                    "duration": 0.25625000000002274
                },
                {
                    "name": "A4",
                    "midi": 69,
                    "time": 366.27500000000316,
                    "velocity": 0.7637795275590551,
                    "duration": 0.589583333333394
                },
                {
                    "name": "F#5",
                    "midi": 78,
                    "time": 366.28750000000315,
                    "velocity": 0.84251968503937,
                    "duration": 0.24166666666667425
                },
                {
                    "name": "C#5",
                    "midi": 73,
                    "time": 366.4645833333365,
                    "velocity": 0.8503937007874016,
                    "duration": 0.2249999999999659
                },
                {
                    "name": "D4",
                    "midi": 62,
                    "time": 366.68333333333646,
                    "velocity": 0.4094488188976378,
                    "duration": 0.3729166666667538
                },
                {
                    "name": "B3",
                    "midi": 59,
                    "time": 366.6958333333365,
                    "velocity": 0.4015748031496063,
                    "duration": 1.0791666666667084
                },
                {
                    "name": "D5",
                    "midi": 74,
                    "time": 366.70208333333653,
                    "velocity": 0.6456692913385826,
                    "duration": 1.0395833333333258
                },
                {
                    "name": "G#4",
                    "midi": 68,
                    "time": 367.0270833333366,
                    "velocity": 0.5905511811023622,
                    "duration": 0.31041666666664014
                },
                {
                    "name": "F#4",
                    "midi": 66,
                    "time": 367.26041666666987,
                    "velocity": 0.7086614173228346,
                    "duration": 0.19375000000002274
                },
                {
                    "name": "E4",
                    "midi": 64,
                    "time": 367.4312500000032,
                    "velocity": 0.7401574803149606,
                    "duration": 0.27499999999997726
                },
                {
                    "name": "F#4",
                    "midi": 66,
                    "time": 367.63541666666987,
                    "velocity": 0.8503937007874016,
                    "duration": 0.24166666666667425
                },
                {
                    "name": "E5",
                    "midi": 76,
                    "time": 367.8166666666699,
                    "velocity": 0.8740157480314961,
                    "duration": 0.2874999999999659
                },
                {
                    "name": "G#4",
                    "midi": 68,
                    "time": 368.02291666666986,
                    "velocity": 0.7637795275590551,
                    "duration": 0.09583333333335986
                },
                {
                    "name": "F#5",
                    "midi": 78,
                    "time": 368.05416666666986,
                    "velocity": 0.8503937007874016,
                    "duration": 0.3062500000000341
                },
                {
                    "name": "G#5",
                    "midi": 80,
                    "time": 368.22708333333657,
                    "velocity": 0.84251968503937,
                    "duration": 0.23124999999998863
                },
                {
                    "name": "D4",
                    "midi": 62,
                    "time": 368.4333333333366,
                    "velocity": 0.6377952755905512,
                    "duration": 0.06249999999994316
                },
                {
                    "name": "E3",
                    "midi": 52,
                    "time": 368.43750000000324,
                    "velocity": 0.5511811023622047,
                    "duration": 0.049999999999954525
                },
                {
                    "name": "B5",
                    "midi": 83,
                    "time": 368.45000000000323,
                    "velocity": 0.6535433070866141,
                    "duration": 0.14999999999997726
                },
                {
                    "name": "G#5",
                    "midi": 80,
                    "time": 368.63333333333657,
                    "velocity": 0.6850393700787402,
                    "duration": 0.23124999999998863
                },
                {
                    "name": "G#4",
                    "midi": 68,
                    "time": 368.8187500000032,
                    "velocity": 0.7952755905511811,
                    "duration": 0.5395833333334394
                },
                {
                    "name": "E5",
                    "midi": 76,
                    "time": 368.8416666666699,
                    "velocity": 0.6929133858267716,
                    "duration": 0.15833333333335986
                },
                {
                    "name": "B4",
                    "midi": 71,
                    "time": 368.9937500000032,
                    "velocity": 0.6929133858267716,
                    "duration": 0.29583333333340533
                },
                {
                    "name": "A3",
                    "midi": 57,
                    "time": 369.2104166666699,
                    "velocity": 0.3464566929133858,
                    "duration": 0.933333333333394
                },
                {
                    "name": "C#4",
                    "midi": 61,
                    "time": 369.2125000000033,
                    "velocity": 0.5433070866141733,
                    "duration": 0.3854166666666856
                },
                {
                    "name": "C#5",
                    "midi": 73,
                    "time": 369.23750000000325,
                    "velocity": 0.6929133858267716,
                    "duration": 0.7250000000000796
                },
                {
                    "name": "F#4",
                    "midi": 66,
                    "time": 369.4562500000033,
                    "velocity": 0.6614173228346457,
                    "duration": 0.21458333333333712
                },
                {
                    "name": "E4",
                    "midi": 64,
                    "time": 369.6562500000033,
                    "velocity": 0.6614173228346457,
                    "duration": 0.19791666666668561
                },
                {
                    "name": "D4",
                    "midi": 62,
                    "time": 369.82916666667,
                    "velocity": 0.7637795275590551,
                    "duration": 0.2666666666666515
                },
                {
                    "name": "E4",
                    "midi": 64,
                    "time": 370.01250000000334,
                    "velocity": 0.7952755905511811,
                    "duration": 0.2270833333332689
                },
                {
                    "name": "D5",
                    "midi": 74,
                    "time": 370.1875000000033,
                    "velocity": 0.7716535433070866,
                    "duration": 0.2666666666666515
                },
                {
                    "name": "F#4",
                    "midi": 66,
                    "time": 370.3895833333366,
                    "velocity": 0.7952755905511811,
                    "duration": 0.10625000000004547
                },
                {
                    "name": "E5",
                    "midi": 76,
                    "time": 370.4083333333366,
                    "velocity": 0.8582677165354331,
                    "duration": 0.22500000000002274
                },
                {
                    "name": "F#5",
                    "midi": 78,
                    "time": 370.57916666666995,
                    "velocity": 0.8188976377952756,
                    "duration": 0.279166666666697
                },
                {
                    "name": "D3",
                    "midi": 50,
                    "time": 370.7937500000033,
                    "velocity": 0.5590551181102362,
                    "duration": 0.09583333333335986
                },
                {
                    "name": "A5",
                    "midi": 81,
                    "time": 370.80833333333663,
                    "velocity": 0.7007874015748031,
                    "duration": 0.19583333333332575
                },
                {
                    "name": "C#4",
                    "midi": 61,
                    "time": 370.80833333333663,
                    "velocity": 0.6850393700787402,
                    "duration": 0.08125000000001137
                },
                {
                    "name": "F#5",
                    "midi": 78,
                    "time": 371.0083333333366,
                    "velocity": 0.6456692913385826,
                    "duration": 0.25625000000002274
                },
                {
                    "name": "F#4",
                    "midi": 66,
                    "time": 371.20208333333665,
                    "velocity": 0.6299212598425197,
                    "duration": 0.4937500000000341
                },
                {
                    "name": "D5",
                    "midi": 74,
                    "time": 371.21666666667,
                    "velocity": 0.6377952755905512,
                    "duration": 0.20833333333331439
                },
                {
                    "name": "A4",
                    "midi": 69,
                    "time": 371.3875000000033,
                    "velocity": 0.7086614173228346,
                    "duration": 0.2645833333333485
                },
                {
                    "name": "G#3",
                    "midi": 56,
                    "time": 371.60416666667,
                    "velocity": 0.4015748031496063,
                    "duration": 0.8125000000001137
                },
                {
                    "name": "B4",
                    "midi": 71,
                    "time": 371.61041666667,
                    "velocity": 0.6614173228346457,
                    "duration": 0.5395833333333826
                },
                {
                    "name": "B3",
                    "midi": 59,
                    "time": 371.62708333333666,
                    "velocity": 0.4094488188976378,
                    "duration": 0.23125000000004547
                },
                {
                    "name": "E4",
                    "midi": 64,
                    "time": 371.8208333333367,
                    "velocity": 0.6062992125984252,
                    "duration": 0.2416666666667311
                },
                {
                    "name": "D4",
                    "midi": 62,
                    "time": 372.0250000000034,
                    "velocity": 0.6141732283464567,
                    "duration": 0.2020833333333485
                },
                {
                    "name": "C#4",
                    "midi": 61,
                    "time": 372.1812500000034,
                    "velocity": 0.7244094488188977,
                    "duration": 0.21666666666669698
                },
                {
                    "name": "D4",
                    "midi": 62,
                    "time": 372.3979166666701,
                    "velocity": 0.7244094488188977,
                    "duration": 0.10000000000002274
                },
                {
                    "name": "G#4",
                    "midi": 68,
                    "time": 372.5645833333367,
                    "velocity": 0.7637795275590551,
                    "duration": 0.16250000000002274
                },
                {
                    "name": "A4",
                    "midi": 69,
                    "time": 372.76875000000337,
                    "velocity": 0.7244094488188977,
                    "duration": 0.17708333333337123
                },
                {
                    "name": "C#4",
                    "midi": 61,
                    "time": 372.7770833333367,
                    "velocity": 0.7952755905511811,
                    "duration": 0.09791666666671972
                },
                {
                    "name": "F#4",
                    "midi": 66,
                    "time": 372.77916666667005,
                    "velocity": 0.7480314960629921,
                    "duration": 0.19166666666666288
                },
                {
                    "name": "D3",
                    "midi": 50,
                    "time": 372.7812500000034,
                    "velocity": 0.6692913385826772,
                    "duration": 0.07083333333332575
                },
                {
                    "name": "B4",
                    "midi": 71,
                    "time": 372.9416666666701,
                    "velocity": 0.7637795275590551,
                    "duration": 0.10833333333329165
                },
                {
                    "name": "E2",
                    "midi": 40,
                    "time": 373.1375000000034,
                    "velocity": 0.7165354330708661,
                    "duration": 0.06666666666671972
                },
                {
                    "name": "E3",
                    "midi": 52,
                    "time": 373.13958333333676,
                    "velocity": 0.7559055118110236,
                    "duration": 0.06458333333335986
                },
                {
                    "name": "C#4",
                    "midi": 61,
                    "time": 373.15208333333675,
                    "velocity": 0.8188976377952756,
                    "duration": 0.041666666666685614
                },
                {
                    "name": "C#5",
                    "midi": 73,
                    "time": 373.1541666666701,
                    "velocity": 0.8503937007874016,
                    "duration": 0.12708333333335986
                },
                {
                    "name": "G#4",
                    "midi": 68,
                    "time": 373.16041666667013,
                    "velocity": 0.7637795275590551,
                    "duration": 0.08958333333333712
                },
                {
                    "name": "B4",
                    "midi": 71,
                    "time": 373.3833333333368,
                    "velocity": 0.7086614173228346,
                    "duration": 0.26249999999998863
                },
                {
                    "name": "C#5",
                    "midi": 73,
                    "time": 373.5708333333368,
                    "velocity": 0.8661417322834646,
                    "duration": 0.1937499999999659
                },
                {
                    "name": "D5",
                    "midi": 74,
                    "time": 373.76458333333676,
                    "velocity": 0.7716535433070866,
                    "duration": 0.17916666666667425
                },
                {
                    "name": "E5",
                    "midi": 76,
                    "time": 373.96458333333675,
                    "velocity": 0.8188976377952756,
                    "duration": 0.10208333333332575
                },
                {
                    "name": "D5",
                    "midi": 74,
                    "time": 374.1500000000034,
                    "velocity": 0.9133858267716536,
                    "duration": 0.19166666666671972
                },
                {
                    "name": "C#5",
                    "midi": 73,
                    "time": 374.15416666667005,
                    "velocity": 0.8267716535433071,
                    "duration": 0.10625000000004547
                },
                {
                    "name": "A4",
                    "midi": 69,
                    "time": 374.16250000000343,
                    "velocity": 0.6614173228346457,
                    "duration": 0.1416666666666515
                },
                {
                    "name": "E5",
                    "midi": 76,
                    "time": 374.33750000000344,
                    "velocity": 0.8346456692913385,
                    "duration": 0.11041666666670835
                },
                {
                    "name": "B4",
                    "midi": 71,
                    "time": 374.34375000000347,
                    "velocity": 0.7559055118110236,
                    "duration": 0.12916666666666288
                },
                {
                    "name": "G#4",
                    "midi": 68,
                    "time": 374.3583333333368,
                    "velocity": 0.6692913385826772,
                    "duration": 0.11458333333331439
                },
                {
                    "name": "F#5",
                    "midi": 78,
                    "time": 374.5187500000035,
                    "velocity": 0.8976377952755905,
                    "duration": 0.22083333333347355
                },
                {
                    "name": "A4",
                    "midi": 69,
                    "time": 374.5187500000035,
                    "velocity": 0.6771653543307087,
                    "duration": 0.19583333333343944
                },
                {
                    "name": "F#4",
                    "midi": 66,
                    "time": 374.5250000000035,
                    "velocity": 0.7322834645669292,
                    "duration": 0.16875000000004547
                },
                {
                    "name": "C#5",
                    "midi": 73,
                    "time": 374.5291666666702,
                    "velocity": 0.8346456692913385,
                    "duration": 0.1395833333333485
                },
                {
                    "name": "G#4",
                    "midi": 68,
                    "time": 374.7083333333369,
                    "velocity": 0.7637795275590551,
                    "duration": 0.0875000000000341
                },
                {
                    "name": "G#5",
                    "midi": 80,
                    "time": 374.71041666667026,
                    "velocity": 0.8346456692913385,
                    "duration": 0.10833333333334849
                },
                {
                    "name": "E4",
                    "midi": 64,
                    "time": 374.7166666666703,
                    "velocity": 0.6377952755905512,
                    "duration": 0.11458333333331439
                },
                {
                    "name": "G#5",
                    "midi": 80,
                    "time": 374.9000000000036,
                    "velocity": 0.8346456692913385,
                    "duration": 0.13125000000002274
                },
                {
                    "name": "D5",
                    "midi": 74,
                    "time": 375.0979166666703,
                    "velocity": 0.7007874015748031,
                    "duration": 0.05416666666673109
                },
                {
                    "name": "A5",
                    "midi": 81,
                    "time": 375.0979166666703,
                    "velocity": 0.889763779527559,
                    "duration": 0.08958333333339397
                },
                {
                    "name": "D4",
                    "midi": 62,
                    "time": 375.10000000000366,
                    "velocity": 0.7244094488188977,
                    "duration": 0.0708333333333826
                },
                {
                    "name": "F#5",
                    "midi": 78,
                    "time": 375.10833333333704,
                    "velocity": 0.8267716535433071,
                    "duration": 0.07083333333332575
                },
                {
                    "name": "C#5",
                    "midi": 73,
                    "time": 375.10833333333704,
                    "velocity": 0.8346456692913385,
                    "duration": 0.05833333333333712
                },
                {
                    "name": "B5",
                    "midi": 83,
                    "time": 375.2625000000037,
                    "velocity": 0.7244094488188977,
                    "duration": 0.10416666666668561
                },
                {
                    "name": "E3",
                    "midi": 52,
                    "time": 375.47083333333705,
                    "velocity": 0.7086614173228346,
                    "duration": 0.07291666666674246
                },
                {
                    "name": "E4",
                    "midi": 64,
                    "time": 375.48125000000374,
                    "velocity": 0.7322834645669292,
                    "duration": 0.056250000000034106
                },
                {
                    "name": "C#6",
                    "midi": 85,
                    "time": 375.4854166666704,
                    "velocity": 0.905511811023622,
                    "duration": 0.11458333333337123
                },
                {
                    "name": "G#5",
                    "midi": 80,
                    "time": 375.48750000000376,
                    "velocity": 0.8582677165354331,
                    "duration": 0.07708333333334849
                },
                {
                    "name": "C#5",
                    "midi": 73,
                    "time": 375.48750000000376,
                    "velocity": 0.8346456692913385,
                    "duration": 0.03125
                },
                {
                    "name": "B5",
                    "midi": 83,
                    "time": 375.69791666667044,
                    "velocity": 0.7716535433070866,
                    "duration": 0.16250000000002274
                },
                {
                    "name": "C#6",
                    "midi": 85,
                    "time": 375.8875000000038,
                    "velocity": 0.937007874015748,
                    "duration": 0.14375000000001137
                },
                {
                    "name": "B5",
                    "midi": 83,
                    "time": 375.91458333333713,
                    "velocity": 0.23622047244094488,
                    "duration": 0.04791666666665151
                },
                {
                    "name": "D6",
                    "midi": 86,
                    "time": 376.0500000000038,
                    "velocity": 0.8188976377952756,
                    "duration": 0.15833333333335986
                },
                {
                    "name": "E6",
                    "midi": 88,
                    "time": 376.2583333333372,
                    "velocity": 0.9133858267716536,
                    "duration": 0.10833333333334849
                },
                {
                    "name": "C#6",
                    "midi": 85,
                    "time": 376.45000000000385,
                    "velocity": 0.889763779527559,
                    "duration": 0.13125000000007958
                },
                {
                    "name": "D6",
                    "midi": 86,
                    "time": 376.4520833333372,
                    "velocity": 0.9212598425196851,
                    "duration": 0.1708333333333485
                },
                {
                    "name": "A5",
                    "midi": 81,
                    "time": 376.45833333333724,
                    "velocity": 0.7795275590551181,
                    "duration": 0.13541666666668561
                },
                {
                    "name": "E6",
                    "midi": 88,
                    "time": 376.64791666667054,
                    "velocity": 0.8582677165354331,
                    "duration": 0.11250000000001137
                },
                {
                    "name": "B5",
                    "midi": 83,
                    "time": 376.65625000000387,
                    "velocity": 0.7401574803149606,
                    "duration": 0.10833333333334849
                },
                {
                    "name": "G#5",
                    "midi": 80,
                    "time": 376.6604166666705,
                    "velocity": 0.7244094488188977,
                    "duration": 0.11041666666670835
                },
                {
                    "name": "A5",
                    "midi": 81,
                    "time": 376.83333333333724,
                    "velocity": 0.8346456692913385,
                    "duration": 0.21041666666667425
                },
                {
                    "name": "F#5",
                    "midi": 78,
                    "time": 376.8354166666706,
                    "velocity": 0.8267716535433071,
                    "duration": 0.17500000000001137
                },
                {
                    "name": "F#6",
                    "midi": 90,
                    "time": 376.8416666666706,
                    "velocity": 0.905511811023622,
                    "duration": 0.18958333333330302
                },
                {
                    "name": "C#6",
                    "midi": 85,
                    "time": 376.85000000000394,
                    "velocity": 0.84251968503937,
                    "duration": 0.13541666666668561
                },
                {
                    "name": "G#5",
                    "midi": 80,
                    "time": 377.0541666666706,
                    "velocity": 0.8188976377952756,
                    "duration": 0.054166666666674246
                },
                {
                    "name": "E5",
                    "midi": 76,
                    "time": 377.05833333333726,
                    "velocity": 0.7165354330708661,
                    "duration": 0.06875000000002274
                },
                {
                    "name": "G#6",
                    "midi": 92,
                    "time": 377.05833333333726,
                    "velocity": 0.8818897637795275,
                    "duration": 0.07291666666668561
                },
                {
                    "name": "F#5",
                    "midi": 78,
                    "time": 377.0916666666706,
                    "velocity": 0.33070866141732286,
                    "duration": 0.041666666666685614
                },
                {
                    "name": "C#5",
                    "midi": 73,
                    "time": 377.5145833333373,
                    "velocity": 0.905511811023622,
                    "duration": 0.14583333333337123
                },
                {
                    "name": "A4",
                    "midi": 69,
                    "time": 377.52083333333735,
                    "velocity": 0.8110236220472441,
                    "duration": 0.12291666666669698
                },
                {
                    "name": "F#3",
                    "midi": 54,
                    "time": 377.5229166666707,
                    "velocity": 0.9763779527559056,
                    "duration": 0.07708333333334849
                },
                {
                    "name": "D#4",
                    "midi": 63,
                    "time": 377.5229166666707,
                    "velocity": 0.9133858267716536,
                    "duration": 0.10208333333332575
                },
                {
                    "name": "C#5",
                    "midi": 73,
                    "time": 377.9729166666707,
                    "velocity": 0.9291338582677166,
                    "duration": 0.47708333333343944
                },
                {
                    "name": "G#3",
                    "midi": 56,
                    "time": 377.9729166666707,
                    "velocity": 0.889763779527559,
                    "duration": 0.49166666666678793
                },
                {
                    "name": "D#4",
                    "midi": 63,
                    "time": 377.9791666666707,
                    "velocity": 0.9291338582677166,
                    "duration": 0.47291666666677656
                },
                {
                    "name": "G#4",
                    "midi": 68,
                    "time": 377.9812500000041,
                    "velocity": 0.8976377952755905,
                    "duration": 0.4875000000000682
                },
                {
                    "name": "D#3",
                    "midi": 51,
                    "time": 378.40833333333745,
                    "velocity": 0.8661417322834646,
                    "duration": 0.10416666666668561
                },
                {
                    "name": "G#2",
                    "midi": 44,
                    "time": 378.4145833333375,
                    "velocity": 0.84251968503937,
                    "duration": 0.12291666666664014
                },
                {
                    "name": "B4",
                    "midi": 71,
                    "time": 378.8229166666708,
                    "velocity": 0.9212598425196851,
                    "duration": 0.4666666666667538
                },
                {
                    "name": "G#4",
                    "midi": 68,
                    "time": 378.82500000000414,
                    "velocity": 0.905511811023622,
                    "duration": 0.45833333333337123
                },
                {
                    "name": "D#4",
                    "midi": 63,
                    "time": 378.8291666666708,
                    "velocity": 0.9291338582677166,
                    "duration": 0.4312500000000341
                },
                {
                    "name": "G#3",
                    "midi": 56,
                    "time": 378.83125000000416,
                    "velocity": 0.9448818897637795,
                    "duration": 0.43958333333335986
                },
                {
                    "name": "D#3",
                    "midi": 51,
                    "time": 379.26041666667084,
                    "velocity": 0.889763779527559,
                    "duration": 0.06666666666671972
                },
                {
                    "name": "G#2",
                    "midi": 44,
                    "time": 379.26875000000416,
                    "velocity": 0.8661417322834646,
                    "duration": 0.0708333333333826
                },
                {
                    "name": "C#5",
                    "midi": 73,
                    "time": 379.69375000000423,
                    "velocity": 0.968503937007874,
                    "duration": 1.3437500000001137
                },
                {
                    "name": "F4",
                    "midi": 65,
                    "time": 379.70208333333755,
                    "velocity": 0.9448818897637795,
                    "duration": 1.2604166666667425
                },
                {
                    "name": "G#4",
                    "midi": 68,
                    "time": 379.70208333333755,
                    "velocity": 0.905511811023622,
                    "duration": 1.2937500000001023
                },
                {
                    "name": "G#2",
                    "midi": 44,
                    "time": 380.1541666666709,
                    "velocity": 0.9133858267716536,
                    "duration": 0.05833333333333712
                },
                {
                    "name": "C#2",
                    "midi": 37,
                    "time": 380.15833333333757,
                    "velocity": 0.968503937007874,
                    "duration": 0.06458333333335986
                },
                {
                    "name": "G#3",
                    "midi": 56,
                    "time": 380.66666666667095,
                    "velocity": 0.9133858267716536,
                    "duration": 0.06666666666666288
                },
                {
                    "name": "C#3",
                    "midi": 49,
                    "time": 380.672916666671,
                    "velocity": 0.8582677165354331,
                    "duration": 0.08333333333331439
                },
                {
                    "name": "C#3",
                    "midi": 49,
                    "time": 381.27708333333766,
                    "velocity": 0.9133858267716536,
                    "duration": 0.5812500000000682
                },
                {
                    "name": "C3",
                    "midi": 48,
                    "time": 381.28750000000434,
                    "velocity": 0.7952755905511811,
                    "duration": 0.2020833333333485
                },
                {
                    "name": "F#2",
                    "midi": 42,
                    "time": 381.2895833333377,
                    "velocity": 0.7322834645669292,
                    "duration": 0.2354166666666515
                },
                {
                    "name": "A2",
                    "midi": 45,
                    "time": 381.2958333333377,
                    "velocity": 0.6771653543307087,
                    "duration": 0.15416666666664014
                },
                {
                    "name": "G#2",
                    "midi": 44,
                    "time": 381.74375000000435,
                    "velocity": 0.6850393700787402,
                    "duration": 0.10833333333334849
                },
                {
                    "name": "E2",
                    "midi": 40,
                    "time": 381.75416666667104,
                    "velocity": 0.6614173228346457,
                    "duration": 0.08333333333331439
                },
                {
                    "name": "C#3",
                    "midi": 49,
                    "time": 382.1750000000044,
                    "velocity": 0.8582677165354331,
                    "duration": 0.8458333333334167
                },
                {
                    "name": "F#2",
                    "midi": 42,
                    "time": 382.19166666667104,
                    "velocity": 0.6299212598425197,
                    "duration": 0.1729166666667652
                },
                {
                    "name": "D#2",
                    "midi": 39,
                    "time": 382.20000000000437,
                    "velocity": 0.6377952755905512,
                    "duration": 0.1583333333334167
                },
                {
                    "name": "A2",
                    "midi": 45,
                    "time": 382.2020833333377,
                    "velocity": 0.5984251968503937,
                    "duration": 0.10625000000004547
                },
                {
                    "name": "G#2",
                    "midi": 44,
                    "time": 382.6083333333378,
                    "velocity": 0.6377952755905512,
                    "duration": 0.3375000000000341
                },
                {
                    "name": "E2",
                    "midi": 40,
                    "time": 382.6145833333378,
                    "velocity": 0.6141732283464567,
                    "duration": 0.32083333333332575
                },
                {
                    "name": "C#2",
                    "midi": 37,
                    "time": 382.61666666667116,
                    "velocity": 0.7244094488188977,
                    "duration": 0.2729166666666174
                },
                {
                    "name": "E3",
                    "midi": 52,
                    "time": 383.0625000000045,
                    "velocity": 0.8031496062992126,
                    "duration": 0.5499999999999545
                },
                {
                    "name": "A2",
                    "midi": 45,
                    "time": 383.47291666667115,
                    "velocity": 0.6614173228346457,
                    "duration": 0.42291666666659467
                },
                {
                    "name": "F#2",
                    "midi": 42,
                    "time": 383.48541666667114,
                    "velocity": 0.6299212598425197,
                    "duration": 0.8520833333333258
                },
                {
                    "name": "D#3",
                    "midi": 51,
                    "time": 383.66458333333776,
                    "velocity": 0.7559055118110236,
                    "duration": 0.2437500000000341
                },
                {
                    "name": "E3",
                    "midi": 52,
                    "time": 383.8812500000044,
                    "velocity": 0.7165354330708661,
                    "duration": 0.23541666666670835
                },
                {
                    "name": "C#3",
                    "midi": 49,
                    "time": 383.9083333333378,
                    "velocity": 0.5669291338582677,
                    "duration": 0.13333333333332575
                },
                {
                    "name": "F#3",
                    "midi": 54,
                    "time": 384.06875000000446,
                    "velocity": 0.7795275590551181,
                    "duration": 0.2604166666666856
                },
                {
                    "name": "D#3",
                    "midi": 51,
                    "time": 384.07916666667114,
                    "velocity": 0.7559055118110236,
                    "duration": 0.1729166666666515
                },
                {
                    "name": "B2",
                    "midi": 47,
                    "time": 384.1041666666711,
                    "velocity": 0.5905511811023622,
                    "duration": 1.0104166666668561
                },
                {
                    "name": "E2",
                    "midi": 40,
                    "time": 384.2895833333378,
                    "velocity": 0.5275590551181102,
                    "duration": 0.829166666666822
                },
                {
                    "name": "G#3",
                    "midi": 56,
                    "time": 384.2916666666712,
                    "velocity": 0.7795275590551181,
                    "duration": 0.1937499999999659
                },
                {
                    "name": "E3",
                    "midi": 52,
                    "time": 384.3000000000045,
                    "velocity": 0.6850393700787402,
                    "duration": 0.21875
                },
                {
                    "name": "F#3",
                    "midi": 54,
                    "time": 384.46250000000447,
                    "velocity": 0.7244094488188977,
                    "duration": 0.2416666666667311
                },
                {
                    "name": "D#3",
                    "midi": 51,
                    "time": 384.4791666666711,
                    "velocity": 0.7007874015748031,
                    "duration": 0.2104166666667311
                },
                {
                    "name": "G#3",
                    "midi": 56,
                    "time": 384.6916666666712,
                    "velocity": 0.7165354330708661,
                    "duration": 0.12916666666666288
                },
                {
                    "name": "E3",
                    "midi": 52,
                    "time": 384.70625000000456,
                    "velocity": 0.6220472440944882,
                    "duration": 0.13333333333332575
                },
                {
                    "name": "A3",
                    "midi": 57,
                    "time": 384.8666666666712,
                    "velocity": 0.6929133858267716,
                    "duration": 0.13125000000002274
                },
                {
                    "name": "F#3",
                    "midi": 54,
                    "time": 384.9020833333379,
                    "velocity": 0.6692913385826772,
                    "duration": 0.1187500000000341
                },
                {
                    "name": "B3",
                    "midi": 59,
                    "time": 385.10208333333793,
                    "velocity": 0.7716535433070866,
                    "duration": 0.07500000000004547
                },
                {
                    "name": "E3",
                    "midi": 52,
                    "time": 385.10833333333795,
                    "velocity": 0.7007874015748031,
                    "duration": 0.07708333333334849
                },
                {
                    "name": "G#2",
                    "midi": 44,
                    "time": 385.12708333333796,
                    "velocity": 0.6062992125984252,
                    "duration": 0.12083333333333712
                },
                {
                    "name": "A2",
                    "midi": 45,
                    "time": 385.5291666666713,
                    "velocity": 0.6141732283464567,
                    "duration": 0.09791666666666288
                },
                {
                    "name": "C#3",
                    "midi": 49,
                    "time": 385.5416666666713,
                    "velocity": 0.6456692913385826,
                    "duration": 0.07083333333332575
                },
                {
                    "name": "F#2",
                    "midi": 42,
                    "time": 385.54583333333795,
                    "velocity": 0.5984251968503937,
                    "duration": 0.0625
                },
                {
                    "name": "E3",
                    "midi": 52,
                    "time": 385.55625000000464,
                    "velocity": 0.4251968503937008,
                    "duration": 0.07499999999998863
                },
                {
                    "name": "B2",
                    "midi": 47,
                    "time": 385.95208333333795,
                    "velocity": 0.4645669291338583,
                    "duration": 0.8770833333333599
                },
                {
                    "name": "E3",
                    "midi": 52,
                    "time": 385.9687500000046,
                    "velocity": 0.6456692913385826,
                    "duration": 0.42708333333337123
                },
                {
                    "name": "F#2",
                    "midi": 42,
                    "time": 385.97708333333793,
                    "velocity": 0.4881889763779528,
                    "duration": 0.5875000000000341
                },
                {
                    "name": "D#3",
                    "midi": 51,
                    "time": 386.3937500000046,
                    "velocity": 0.5984251968503937,
                    "duration": 0.32916666666670835
                },
                {
                    "name": "B1",
                    "midi": 35,
                    "time": 386.883333333338,
                    "velocity": 0.6456692913385826,
                    "duration": 0.4520833333333485
                },
                {
                    "name": "D#3",
                    "midi": 51,
                    "time": 387.089583333338,
                    "velocity": 0.7244094488188977,
                    "duration": 0.3895833333333485
                },
                {
                    "name": "B2",
                    "midi": 47,
                    "time": 387.28125000000466,
                    "velocity": 0.5196850393700787,
                    "duration": 0.9083333333333599
                },
                {
                    "name": "G#3",
                    "midi": 56,
                    "time": 387.2875000000047,
                    "velocity": 0.7086614173228346,
                    "duration": 0.24166666666667425
                },
                {
                    "name": "B3",
                    "midi": 59,
                    "time": 387.445833333338,
                    "velocity": 0.7244094488188977,
                    "duration": 0.279166666666697
                },
                {
                    "name": "C#2",
                    "midi": 37,
                    "time": 387.6437500000047,
                    "velocity": 0.7559055118110236,
                    "duration": 0.8437500000000568
                },
                {
                    "name": "D#4",
                    "midi": 63,
                    "time": 387.66666666667135,
                    "velocity": 0.7795275590551181,
                    "duration": 0.2541666666666629
                },
                {
                    "name": "E3",
                    "midi": 52,
                    "time": 387.683333333338,
                    "velocity": 0.5433070866141733,
                    "duration": 0.42500000000001137
                },
                {
                    "name": "C#4",
                    "midi": 61,
                    "time": 387.839583333338,
                    "velocity": 0.8267716535433071,
                    "duration": 0.28750000000002274
                },
                {
                    "name": "B3",
                    "midi": 59,
                    "time": 388.039583333338,
                    "velocity": 0.7165354330708661,
                    "duration": 0.24791666666669698
                },
                {
                    "name": "A#3",
                    "midi": 58,
                    "time": 388.20416666667137,
                    "velocity": 0.84251968503937,
                    "duration": 0.1875
                },
                {
                    "name": "A#3",
                    "midi": 58,
                    "time": 388.4500000000047,
                    "velocity": 0.7165354330708661,
                    "duration": 0.7083333333333712
                },
                {
                    "name": "C#3",
                    "midi": 49,
                    "time": 388.45625000000473,
                    "velocity": 0.6929133858267716,
                    "duration": 0.8479166666667766
                },
                {
                    "name": "G#3",
                    "midi": 56,
                    "time": 388.46458333333806,
                    "velocity": 0.7480314960629921,
                    "duration": 0.6625000000000227
                },
                {
                    "name": "E2",
                    "midi": 40,
                    "time": 388.48333333333807,
                    "velocity": 0.5275590551181102,
                    "duration": 0.44583333333332575
                },
                {
                    "name": "B3",
                    "midi": 59,
                    "time": 388.89375000000473,
                    "velocity": 0.7165354330708661,
                    "duration": 0.25
                },
                {
                    "name": "C#4",
                    "midi": 61,
                    "time": 389.0604166666714,
                    "velocity": 0.7795275590551181,
                    "duration": 0.18333333333333712
                },
                {
                    "name": "D#4",
                    "midi": 63,
                    "time": 389.2958333333381,
                    "velocity": 0.6929133858267716,
                    "duration": 0.33541666666667425
                },
                {
                    "name": "A#2",
                    "midi": 46,
                    "time": 389.2979166666715,
                    "velocity": 0.5275590551181102,
                    "duration": 0.1729166666666515
                },
                {
                    "name": "D#2",
                    "midi": 39,
                    "time": 389.3041666666715,
                    "velocity": 0.5433070866141733,
                    "duration": 0.13749999999998863
                },
                {
                    "name": "F#3",
                    "midi": 54,
                    "time": 389.30833333333817,
                    "velocity": 0.5275590551181102,
                    "duration": 0.20624999999995453
                },
                {
                    "name": "A#3",
                    "midi": 58,
                    "time": 389.7750000000048,
                    "velocity": 0.4094488188976378,
                    "duration": 0.2020833333333485
                },
                {
                    "name": "D#3",
                    "midi": 51,
                    "time": 389.78333333333813,
                    "velocity": 0.4881889763779528,
                    "duration": 0.18958333333335986
                },
                {
                    "name": "F#4",
                    "midi": 66,
                    "time": 390.2229166666715,
                    "velocity": 0.5118110236220472,
                    "duration": 0.5437500000000455
                },
                {
                    "name": "D#6",
                    "midi": 87,
                    "time": 390.6354166666715,
                    "velocity": 0.6299212598425197,
                    "duration": 0.14791666666667425
                },
                {
                    "name": "E5",
                    "midi": 76,
                    "time": 390.6479166666715,
                    "velocity": 0.4409448818897638,
                    "duration": 0.4000000000000341
                },
                {
                    "name": "B4",
                    "midi": 71,
                    "time": 390.6479166666715,
                    "velocity": 0.3937007874015748,
                    "duration": 0.4604166666667311
                },
                {
                    "name": "G#5",
                    "midi": 80,
                    "time": 390.65416666667153,
                    "velocity": 0.48031496062992124,
                    "duration": 0.125
                },
                {
                    "name": "C#4",
                    "midi": 61,
                    "time": 390.6562500000049,
                    "velocity": 0.4094488188976378,
                    "duration": 0.16041666666666288
                },
                {
                    "name": "A#4",
                    "midi": 70,
                    "time": 391.0625000000049,
                    "velocity": 0.47244094488188976,
                    "duration": 0.09375
                },
                {
                    "name": "D#5",
                    "midi": 75,
                    "time": 391.0812500000049,
                    "velocity": 0.4409448818897638,
                    "duration": 0.4395833333334167
                },
                {
                    "name": "D#4",
                    "midi": 63,
                    "time": 391.0875000000049,
                    "velocity": 0.4566929133858268,
                    "duration": 0.11250000000001137
                },
                {
                    "name": "C#5",
                    "midi": 73,
                    "time": 391.0916666666716,
                    "velocity": 0.3464566929133858,
                    "duration": 0.37708333333335986
                },
                {
                    "name": "F#4",
                    "midi": 66,
                    "time": 391.0916666666716,
                    "velocity": 0.3858267716535433,
                    "duration": 0.07083333333332575
                },
                {
                    "name": "A#3",
                    "midi": 58,
                    "time": 391.51041666667163,
                    "velocity": 0.48031496062992124,
                    "duration": 0.14583333333337123
                },
                {
                    "name": "D#3",
                    "midi": 51,
                    "time": 391.512500000005,
                    "velocity": 0.5590551181102362,
                    "duration": 0.13749999999998863
                },
                {
                    "name": "F#4",
                    "midi": 66,
                    "time": 391.925000000005,
                    "velocity": 0.4566929133858268,
                    "duration": 0.13541666666668561
                },
                {
                    "name": "D#6",
                    "midi": 87,
                    "time": 392.3229166666717,
                    "velocity": 0.5905511811023622,
                    "duration": 0.09791666666671972
                },
                {
                    "name": "B4",
                    "midi": 71,
                    "time": 392.3291666666717,
                    "velocity": 0.3779527559055118,
                    "duration": 0.46875000000005684
                },
                {
                    "name": "G#5",
                    "midi": 80,
                    "time": 392.3416666666717,
                    "velocity": 0.48031496062992124,
                    "duration": 0.09375000000005684
                },
                {
                    "name": "E5",
                    "midi": 76,
                    "time": 392.3416666666717,
                    "velocity": 0.36220472440944884,
                    "duration": 0.36458333333337123
                },
                {
                    "name": "C#4",
                    "midi": 61,
                    "time": 392.3520833333384,
                    "velocity": 0.2440944881889764,
                    "duration": 0.0708333333333826
                },
                {
                    "name": "C#5",
                    "midi": 73,
                    "time": 392.7791666666717,
                    "velocity": 0.3937007874015748,
                    "duration": 0.27291666666678793
                },
                {
                    "name": "A#4",
                    "midi": 70,
                    "time": 392.78125000000506,
                    "velocity": 0.4094488188976378,
                    "duration": 0.07500000000010232
                },
                {
                    "name": "D#5",
                    "midi": 75,
                    "time": 392.79166666667174,
                    "velocity": 0.4881889763779528,
                    "duration": 0.30625000000009095
                },
                {
                    "name": "D#4",
                    "midi": 63,
                    "time": 392.79791666667177,
                    "velocity": 0.4409448818897638,
                    "duration": 0.10833333333340533
                },
                {
                    "name": "F#4",
                    "midi": 66,
                    "time": 392.8000000000051,
                    "velocity": 0.3858267716535433,
                    "duration": 0.07291666666668561
                },
                {
                    "name": "A#3",
                    "midi": 58,
                    "time": 393.2187500000052,
                    "velocity": 0.5354330708661418,
                    "duration": 0.08125000000001137
                },
                {
                    "name": "D#3",
                    "midi": 51,
                    "time": 393.22083333333853,
                    "velocity": 0.5826771653543307,
                    "duration": 0.0625
                },
                {
                    "name": "F#4",
                    "midi": 66,
                    "time": 393.6500000000052,
                    "velocity": 0.5590551181102362,
                    "duration": 0.06666666666666288
                },
                {
                    "name": "D#6",
                    "midi": 87,
                    "time": 394.05416666667185,
                    "velocity": 0.6850393700787402,
                    "duration": 0.08958333333339397
                },
                {
                    "name": "C#4",
                    "midi": 61,
                    "time": 394.06458333333853,
                    "velocity": 0.5039370078740157,
                    "duration": 0.09166666666669698
                },
                {
                    "name": "B4",
                    "midi": 71,
                    "time": 394.0666666666719,
                    "velocity": 0.4094488188976378,
                    "duration": 0.40625
                },
                {
                    "name": "E5",
                    "midi": 76,
                    "time": 394.0875000000052,
                    "velocity": 0.2755905511811024,
                    "duration": 0.18333333333333712
                },
                {
                    "name": "G#5",
                    "midi": 80,
                    "time": 394.09375000000523,
                    "velocity": 0.3858267716535433,
                    "duration": 0.054166666666674246
                },
                {
                    "name": "D#5",
                    "midi": 75,
                    "time": 394.50000000000523,
                    "velocity": 0.49606299212598426,
                    "duration": 0.404166666666697
                },
                {
                    "name": "C#5",
                    "midi": 73,
                    "time": 394.5041666666719,
                    "velocity": 0.48031496062992124,
                    "duration": 0.372916666666697
                },
                {
                    "name": "A#4",
                    "midi": 70,
                    "time": 394.50625000000525,
                    "velocity": 0.4015748031496063,
                    "duration": 0.052083333333314386
                },
                {
                    "name": "D#4",
                    "midi": 63,
                    "time": 394.53125000000523,
                    "velocity": 0.3779527559055118,
                    "duration": 0.08958333333333712
                },
                {
                    "name": "F#4",
                    "midi": 66,
                    "time": 394.5333333333386,
                    "velocity": 0.3779527559055118,
                    "duration": 0.05624999999997726
                },
                {
                    "name": "D#2",
                    "midi": 39,
                    "time": 394.9916666666719,
                    "velocity": 0.49606299212598426,
                    "duration": 0.03750000000002274
                },
                {
                    "name": "A#2",
                    "midi": 46,
                    "time": 394.99375000000526,
                    "velocity": 0.3858267716535433,
                    "duration": 0.04374999999998863
                },
                {
                    "name": "A#2",
                    "midi": 46,
                    "time": 395.8854166666719,
                    "velocity": 0.5275590551181102,
                    "duration": 0.33125000000001137
                },
                {
                    "name": "D#2",
                    "midi": 39,
                    "time": 395.9166666666719,
                    "velocity": 0.41732283464566927,
                    "duration": 0.25833333333332575
                },
                {
                    "name": "D#3",
                    "midi": 51,
                    "time": 396.86041666667194,
                    "velocity": 0.7559055118110236,
                    "duration": 0.5458333333334053
                },
                {
                    "name": "G#2",
                    "midi": 44,
                    "time": 396.87916666667195,
                    "velocity": 0.6771653543307087,
                    "duration": 0.15208333333333712
                },
                {
                    "name": "D3",
                    "midi": 50,
                    "time": 396.91041666667195,
                    "velocity": 0.49606299212598426,
                    "duration": 0.1875
                },
                {
                    "name": "F#2",
                    "midi": 42,
                    "time": 397.29583333333863,
                    "velocity": 0.6850393700787402,
                    "duration": 0.06458333333335986
                },
                {
                    "name": "A#2",
                    "midi": 46,
                    "time": 397.30416666667196,
                    "velocity": 0.6456692913385826,
                    "duration": 0.039583333333325754
                },
                {
                    "name": "D#3",
                    "midi": 51,
                    "time": 397.72916666667203,
                    "velocity": 0.7874015748031497,
                    "duration": 0.8875000000001023
                },
                {
                    "name": "F2",
                    "midi": 41,
                    "time": 397.7437500000054,
                    "velocity": 0.5984251968503937,
                    "duration": 0.14375000000001137
                },
                {
                    "name": "B2",
                    "midi": 47,
                    "time": 397.74791666667204,
                    "velocity": 0.5984251968503937,
                    "duration": 0.13333333333332575
                },
                {
                    "name": "G#2",
                    "midi": 44,
                    "time": 397.74791666667204,
                    "velocity": 0.5590551181102362,
                    "duration": 0.05833333333333712
                },
                {
                    "name": "A#2",
                    "midi": 46,
                    "time": 398.17291666667205,
                    "velocity": 0.36220472440944884,
                    "duration": 0.3812500000000796
                },
                {
                    "name": "D#2",
                    "midi": 39,
                    "time": 398.19166666667206,
                    "velocity": 0.3937007874015748,
                    "duration": 0.3479166666667197
                },
                {
                    "name": "F#2",
                    "midi": 42,
                    "time": 398.2062500000054,
                    "velocity": 0.3779527559055118,
                    "duration": 0.06875000000002274
                },
                {
                    "name": "F#3",
                    "midi": 54,
                    "time": 398.60625000000545,
                    "velocity": 0.6850393700787402,
                    "duration": 0.6395833333334053
                },
                {
                    "name": "B2",
                    "midi": 47,
                    "time": 399.04375000000545,
                    "velocity": 0.4645669291338583,
                    "duration": 0.5916666666667538
                },
                {
                    "name": "G#2",
                    "midi": 44,
                    "time": 399.0458333333388,
                    "velocity": 0.4330708661417323,
                    "duration": 0.860416666666822
                },
                {
                    "name": "F3",
                    "midi": 53,
                    "time": 399.2312500000055,
                    "velocity": 0.5118110236220472,
                    "duration": 0.19166666666666288
                },
                {
                    "name": "F#3",
                    "midi": 54,
                    "time": 399.4187500000055,
                    "velocity": 0.7086614173228346,
                    "duration": 0.21875000000005684
                },
                {
                    "name": "G#3",
                    "midi": 56,
                    "time": 399.6000000000055,
                    "velocity": 0.7480314960629921,
                    "duration": 0.27291666666678793
                },
                {
                    "name": "F3",
                    "midi": 53,
                    "time": 399.60208333333884,
                    "velocity": 0.6062992125984252,
                    "duration": 0.16666666666674246
                },
                {
                    "name": "A#3",
                    "midi": 58,
                    "time": 399.81666666667223,
                    "velocity": 0.7244094488188977,
                    "duration": 0.2604166666666856
                },
                {
                    "name": "F#3",
                    "midi": 54,
                    "time": 399.8187500000056,
                    "velocity": 0.6929133858267716,
                    "duration": 0.20625000000001137
                },
                {
                    "name": "C#3",
                    "midi": 49,
                    "time": 399.82291666667226,
                    "velocity": 0.5354330708661418,
                    "duration": 0.7229166666667197
                },
                {
                    "name": "F#2",
                    "midi": 42,
                    "time": 399.84375000000557,
                    "velocity": 0.4566929133858268,
                    "duration": 0.7645833333334622
                },
                {
                    "name": "G#3",
                    "midi": 56,
                    "time": 399.98958333333894,
                    "velocity": 0.7952755905511811,
                    "duration": 0.2666666666666515
                },
                {
                    "name": "F3",
                    "midi": 53,
                    "time": 400.00833333333895,
                    "velocity": 0.5669291338582677,
                    "duration": 0.17708333333331439
                },
                {
                    "name": "A#3",
                    "midi": 58,
                    "time": 400.2020833333389,
                    "velocity": 0.7322834645669292,
                    "duration": 0.14375000000001137
                },
                {
                    "name": "F#3",
                    "midi": 54,
                    "time": 400.2062500000056,
                    "velocity": 0.7401574803149606,
                    "duration": 0.2125000000000341
                },
                {
                    "name": "B3",
                    "midi": 59,
                    "time": 400.35416666667226,
                    "velocity": 0.6850393700787402,
                    "duration": 0.12916666666671972
                },
                {
                    "name": "G#3",
                    "midi": 56,
                    "time": 400.4000000000056,
                    "velocity": 0.7244094488188977,
                    "duration": 0.12708333333335986
                },
                {
                    "name": "C#4",
                    "midi": 61,
                    "time": 400.583333333339,
                    "velocity": 0.8818897637795275,
                    "duration": 0.10000000000002274
                },
                {
                    "name": "F#3",
                    "midi": 54,
                    "time": 400.58750000000566,
                    "velocity": 0.8346456692913385,
                    "duration": 0.10000000000002274
                },
                {
                    "name": "A#2",
                    "midi": 46,
                    "time": 400.5937500000057,
                    "velocity": 0.6929133858267716,
                    "duration": 0.27916666666664014
                },
                {
                    "name": "F#3",
                    "midi": 54,
                    "time": 400.989583333339,
                    "velocity": 0.8188976377952756,
                    "duration": 0.11458333333331439
                },
                {
                    "name": "G#2",
                    "midi": 44,
                    "time": 400.99375000000566,
                    "velocity": 0.8110236220472441,
                    "duration": 0.07291666666662877
                },
                {
                    "name": "B2",
                    "midi": 47,
                    "time": 400.9979166666723,
                    "velocity": 0.7559055118110236,
                    "duration": 0.11666666666667425
                },
                {
                    "name": "D#3",
                    "midi": 51,
                    "time": 401.0104166666723,
                    "velocity": 0.7322834645669292,
                    "duration": 0.09166666666664014
                },
                {
                    "name": "C#3",
                    "midi": 49,
                    "time": 401.41250000000565,
                    "velocity": 0.6929133858267716,
                    "duration": 0.5458333333332916
                },
                {
                    "name": "F#3",
                    "midi": 54,
                    "time": 401.42291666667234,
                    "velocity": 0.6771653543307087,
                    "duration": 0.377083333333303
                },
                {
                    "name": "G#2",
                    "midi": 44,
                    "time": 401.439583333339,
                    "velocity": 0.5826771653543307,
                    "duration": 0.47291666666660603
                },
                {
                    "name": "F3",
                    "midi": 53,
                    "time": 401.88333333333895,
                    "velocity": 0.5669291338582677,
                    "duration": 0.16458333333332575
                },
                {
                    "name": "C#2",
                    "midi": 37,
                    "time": 402.2916666666723,
                    "velocity": 0.5748031496062992,
                    "duration": 0.745833333333394
                },
                {
                    "name": "F3",
                    "midi": 53,
                    "time": 402.495833333339,
                    "velocity": 0.6220472440944882,
                    "duration": 0.3020833333333144
                },
                {
                    "name": "C#3",
                    "midi": 49,
                    "time": 402.6687500000057,
                    "velocity": 0.5590551181102362,
                    "duration": 1.0666666666667197
                },
                {
                    "name": "A#3",
                    "midi": 58,
                    "time": 402.689583333339,
                    "velocity": 0.7401574803149606,
                    "duration": 0.22083333333335986
                },
                {
                    "name": "C#4",
                    "midi": 61,
                    "time": 402.852083333339,
                    "velocity": 0.7874015748031497,
                    "duration": 0.2583333333333826
                },
                {
                    "name": "D#2",
                    "midi": 39,
                    "time": 403.027083333339,
                    "velocity": 0.6062992125984252,
                    "duration": 0.8666666666667311
                },
                {
                    "name": "F#3",
                    "midi": 54,
                    "time": 403.0791666666724,
                    "velocity": 0.7007874015748031,
                    "duration": 0.4791666666666856
                },
                {
                    "name": "F4",
                    "midi": 65,
                    "time": 403.08333333333906,
                    "velocity": 0.6850393700787402,
                    "duration": 0.27083333333337123
                },
                {
                    "name": "D#4",
                    "midi": 63,
                    "time": 403.2770833333391,
                    "velocity": 0.7874015748031497,
                    "duration": 0.29374999999998863
                },
                {
                    "name": "C#4",
                    "midi": 61,
                    "time": 403.4791666666724,
                    "velocity": 0.8503937007874016,
                    "duration": 0.2687499999999545
                },
                {
                    "name": "C4",
                    "midi": 60,
                    "time": 403.66666666667237,
                    "velocity": 0.8110236220472441,
                    "duration": 0.16458333333332575
                },
                {
                    "name": "D#3",
                    "midi": 51,
                    "time": 403.88958333333903,
                    "velocity": 0.84251968503937,
                    "duration": 0.4791666666667993
                },
                {
                    "name": "C4",
                    "midi": 60,
                    "time": 403.8916666666724,
                    "velocity": 0.7952755905511811,
                    "duration": 0.4812500000001023
                },
                {
                    "name": "F#2",
                    "midi": 42,
                    "time": 403.9000000000058,
                    "velocity": 0.7244094488188977,
                    "duration": 0.4604166666667311
                },
                {
                    "name": "A#3",
                    "midi": 58,
                    "time": 403.90208333333914,
                    "velocity": 0.7637795275590551,
                    "duration": 0.6458333333333712
                },
                {
                    "name": "C#4",
                    "midi": 61,
                    "time": 404.3104166666725,
                    "velocity": 0.8188976377952756,
                    "duration": 0.2750000000000341
                },
                {
                    "name": "D#4",
                    "midi": 63,
                    "time": 404.47083333333916,
                    "velocity": 0.8267716535433071,
                    "duration": 0.2062500000000682
                },
                {
                    "name": "F2",
                    "midi": 41,
                    "time": 404.6812500000059,
                    "velocity": 0.6614173228346457,
                    "duration": 0.12708333333335986
                },
                {
                    "name": "C3",
                    "midi": 48,
                    "time": 404.69583333333924,
                    "velocity": 0.5905511811023622,
                    "duration": 0.13749999999998863
                },
                {
                    "name": "F4",
                    "midi": 65,
                    "time": 404.7083333333392,
                    "velocity": 0.7322834645669292,
                    "duration": 0.2437500000000341
                },
                {
                    "name": "G#3",
                    "midi": 56,
                    "time": 404.7083333333392,
                    "velocity": 0.7637795275590551,
                    "duration": 0.16666666666668561
                },
                {
                    "name": "F3",
                    "midi": 53,
                    "time": 405.2000000000059,
                    "velocity": 0.3858267716535433,
                    "duration": 0.26666666666670835
                },
                {
                    "name": "C4",
                    "midi": 60,
                    "time": 405.21458333333925,
                    "velocity": 0.2677165354330709,
                    "duration": 0.4000000000000341
                },
                {
                    "name": "G#4",
                    "midi": 68,
                    "time": 405.63750000000596,
                    "velocity": 0.5433070866141733,
                    "duration": 0.12083333333333712
                },
                {
                    "name": "F6",
                    "midi": 89,
                    "time": 406.0520833333393,
                    "velocity": 0.6062992125984252,
                    "duration": 0.08125000000001137
                },
                {
                    "name": "F#5",
                    "midi": 78,
                    "time": 406.06250000000597,
                    "velocity": 0.5118110236220472,
                    "duration": 0.10624999999998863
                },
                {
                    "name": "C#5",
                    "midi": 73,
                    "time": 406.0708333333393,
                    "velocity": 0.5354330708661418,
                    "duration": 0.12708333333330302
                },
                {
                    "name": "A#5",
                    "midi": 82,
                    "time": 406.07500000000596,
                    "velocity": 0.5984251968503937,
                    "duration": 0.052083333333314386
                },
                {
                    "name": "D#4",
                    "midi": 63,
                    "time": 406.1041666666726,
                    "velocity": 0.31496062992125984,
                    "duration": 0.08541666666667425
                },
                {
                    "name": "D#5",
                    "midi": 75,
                    "time": 406.52500000000595,
                    "velocity": 0.33858267716535434,
                    "duration": 0.19375000000007958
                },
                {
                    "name": "F5",
                    "midi": 77,
                    "time": 406.52500000000595,
                    "velocity": 0.5039370078740157,
                    "duration": 0.2562500000000796
                },
                {
                    "name": "G#4",
                    "midi": 68,
                    "time": 406.5270833333393,
                    "velocity": 0.4409448818897638,
                    "duration": 0.10625000000004547
                },
                {
                    "name": "C5",
                    "midi": 72,
                    "time": 406.53125000000597,
                    "velocity": 0.4015748031496063,
                    "duration": 0.08333333333337123
                },
                {
                    "name": "F4",
                    "midi": 65,
                    "time": 406.53541666667263,
                    "velocity": 0.33070866141732286,
                    "duration": 0.11250000000006821
                },
                {
                    "name": "C4",
                    "midi": 60,
                    "time": 406.97708333333935,
                    "velocity": 0.5433070866141733,
                    "duration": 0.16041666666666288
                },
                {
                    "name": "F3",
                    "midi": 53,
                    "time": 406.9791666666727,
                    "velocity": 0.4409448818897638,
                    "duration": 0.1416666666666515
                },
                {
                    "name": "G#4",
                    "midi": 68,
                    "time": 407.3666666666727,
                    "velocity": 0.5354330708661418,
                    "duration": 0.09375
                },
                {
                    "name": "C#5",
                    "midi": 73,
                    "time": 407.77708333333936,
                    "velocity": 0.48031496062992124,
                    "duration": 0.13541666666674246
                },
                {
                    "name": "F6",
                    "midi": 89,
                    "time": 407.781250000006,
                    "velocity": 0.5196850393700787,
                    "duration": 0.058333333333393966
                },
                {
                    "name": "F#5",
                    "midi": 78,
                    "time": 407.7854166666727,
                    "velocity": 0.4409448818897638,
                    "duration": 0.1437500000000682
                },
                {
                    "name": "A#5",
                    "midi": 82,
                    "time": 407.78750000000605,
                    "velocity": 0.5511811023622047,
                    "duration": 0.09166666666669698
                },
                {
                    "name": "D#4",
                    "midi": 63,
                    "time": 407.7895833333394,
                    "velocity": 0.4094488188976378,
                    "duration": 0.24166666666667425
                },
                {
                    "name": "D#5",
                    "midi": 75,
                    "time": 408.20000000000607,
                    "velocity": 0.5669291338582677,
                    "duration": 0.1270833333334167
                },
                {
                    "name": "F5",
                    "midi": 77,
                    "time": 408.20416666667273,
                    "velocity": 0.5984251968503937,
                    "duration": 0.17708333333342807
                },
                {
                    "name": "C5",
                    "midi": 72,
                    "time": 408.2083333333394,
                    "velocity": 0.4566929133858268,
                    "duration": 0.058333333333393966
                },
                {
                    "name": "G#4",
                    "midi": 68,
                    "time": 408.21041666667276,
                    "velocity": 0.4645669291338583,
                    "duration": 0.07500000000004547
                },
                {
                    "name": "F4",
                    "midi": 65,
                    "time": 408.22083333333944,
                    "velocity": 0.28346456692913385,
                    "duration": 0.07916666666670835
                },
                {
                    "name": "F3",
                    "midi": 53,
                    "time": 408.6291666666728,
                    "velocity": 0.5511811023622047,
                    "duration": 0.08541666666667425
                },
                {
                    "name": "C4",
                    "midi": 60,
                    "time": 408.6375000000061,
                    "velocity": 0.5748031496062992,
                    "duration": 0.07291666666668561
                },
                {
                    "name": "G#4",
                    "midi": 68,
                    "time": 409.06250000000614,
                    "velocity": 0.4881889763779528,
                    "duration": 0.08541666666667425
                },
                {
                    "name": "F#5",
                    "midi": 78,
                    "time": 409.4958333333395,
                    "velocity": 0.47244094488188976,
                    "duration": 0.10625000000004547
                },
                {
                    "name": "A#5",
                    "midi": 82,
                    "time": 409.5041666666728,
                    "velocity": 0.5590551181102362,
                    "duration": 0.06458333333335986
                },
                {
                    "name": "F6",
                    "midi": 89,
                    "time": 409.50625000000616,
                    "velocity": 0.2992125984251969,
                    "duration": 0.054166666666674246
                },
                {
                    "name": "C#5",
                    "midi": 73,
                    "time": 409.5104166666728,
                    "velocity": 0.33858267716535434,
                    "duration": 0.04583333333334849
                },
                {
                    "name": "D#4",
                    "midi": 63,
                    "time": 409.52916666667284,
                    "velocity": 0.30708661417322836,
                    "duration": 0.19375000000002274
                },
                {
                    "name": "G#4",
                    "midi": 68,
                    "time": 409.9687500000062,
                    "velocity": 0.4566929133858268,
                    "duration": 0.08333333333331439
                },
                {
                    "name": "F5",
                    "midi": 77,
                    "time": 409.97291666667286,
                    "velocity": 0.5275590551181102,
                    "duration": 0.09166666666664014
                },
                {
                    "name": "D#5",
                    "midi": 75,
                    "time": 409.9770833333395,
                    "velocity": 0.41732283464566927,
                    "duration": 0.07916666666665151
                },
                {
                    "name": "C5",
                    "midi": 72,
                    "time": 409.9770833333395,
                    "velocity": 0.4881889763779528,
                    "duration": 0.054166666666674246
                },
                {
                    "name": "F4",
                    "midi": 65,
                    "time": 409.9937500000062,
                    "velocity": 0.31496062992125984,
                    "duration": 0.07499999999998863
                },
                {
                    "name": "C3",
                    "midi": 48,
                    "time": 410.4708333333395,
                    "velocity": 0.3937007874015748,
                    "duration": 0.6770833333333712
                },
                {
                    "name": "F2",
                    "midi": 41,
                    "time": 410.54791666667285,
                    "velocity": 0.41732283464566927,
                    "duration": 0.5354166666666629
                },
                {
                    "name": "C3",
                    "midi": 48,
                    "time": 411.34583333333956,
                    "velocity": 0.5826771653543307,
                    "duration": 0.06666666666666288
                },
                {
                    "name": "F2",
                    "midi": 41,
                    "time": 411.35625000000624,
                    "velocity": 0.5275590551181102,
                    "duration": 0.04374999999998863
                },
                {
                    "name": "E3",
                    "midi": 52,
                    "time": 412.26250000000624,
                    "velocity": 0.5669291338582677,
                    "duration": 0.19791666666668561
                },
                {
                    "name": "A#2",
                    "midi": 46,
                    "time": 412.2645833333396,
                    "velocity": 0.5275590551181102,
                    "duration": 0.2041666666666515
                },
                {
                    "name": "C#3",
                    "midi": 49,
                    "time": 412.2645833333396,
                    "velocity": 0.5511811023622047,
                    "duration": 0.1729166666666515
                },
                {
                    "name": "F3",
                    "midi": 53,
                    "time": 412.2645833333396,
                    "velocity": 0.5354330708661418,
                    "duration": 0.5083333333333258
                },
                {
                    "name": "C3",
                    "midi": 48,
                    "time": 412.69791666667294,
                    "velocity": 0.6377952755905512,
                    "duration": 0.08749999999997726
                },
                {
                    "name": "G#2",
                    "midi": 44,
                    "time": 412.7104166666729,
                    "velocity": 0.5826771653543307,
                    "duration": 0.06666666666666288
                },
                {
                    "name": "F3",
                    "midi": 53,
                    "time": 413.14583333333957,
                    "velocity": 0.7165354330708661,
                    "duration": 0.8875000000001592
                },
                {
                    "name": "F#2",
                    "midi": 42,
                    "time": 413.1541666666729,
                    "velocity": 0.6220472440944882,
                    "duration": 0.1583333333334167
                },
                {
                    "name": "C#3",
                    "midi": 49,
                    "time": 413.15625000000625,
                    "velocity": 0.6220472440944882,
                    "duration": 0.15625000000005684
                },
                {
                    "name": "A#2",
                    "midi": 46,
                    "time": 413.1583333333396,
                    "velocity": 0.5826771653543307,
                    "duration": 0.14791666666667425
                },
                {
                    "name": "F2",
                    "midi": 41,
                    "time": 413.6062500000063,
                    "velocity": 0.6299212598425197,
                    "duration": 0.35000000000002274
                },
                {
                    "name": "G#2",
                    "midi": 44,
                    "time": 413.6062500000063,
                    "velocity": 0.6456692913385826,
                    "duration": 0.40625000000005684
                },
                {
                    "name": "C3",
                    "midi": 48,
                    "time": 413.60833333333966,
                    "velocity": 0.6062992125984252,
                    "duration": 0.4020833333333371
                },
                {
                    "name": "G#3",
                    "midi": 56,
                    "time": 414.05208333333974,
                    "velocity": 0.8503937007874016,
                    "duration": 0.5270833333332803
                },
                {
                    "name": "C#3",
                    "midi": 49,
                    "time": 414.4562500000064,
                    "velocity": 0.6771653543307087,
                    "duration": 0.3499999999999659
                },
                {
                    "name": "A#2",
                    "midi": 46,
                    "time": 414.45833333333974,
                    "velocity": 0.6535433070866141,
                    "duration": 0.7687500000000682
                },
                {
                    "name": "F#3",
                    "midi": 54,
                    "time": 414.6437500000064,
                    "velocity": 0.7165354330708661,
                    "duration": 0.11458333333331439
                },
                {
                    "name": "F3",
                    "midi": 53,
                    "time": 414.8645833333397,
                    "velocity": 0.6377952755905512,
                    "duration": 0.13750000000004547
                },
                {
                    "name": "G#3",
                    "midi": 56,
                    "time": 414.8708333333397,
                    "velocity": 0.7874015748031497,
                    "duration": 0.1333333333333826
                },
                {
                    "name": "D#3",
                    "midi": 51,
                    "time": 415.0229166666731,
                    "velocity": 0.7007874015748031,
                    "duration": 0.17916666666667425
                },
                {
                    "name": "A#3",
                    "midi": 58,
                    "time": 415.0312500000064,
                    "velocity": 0.7795275590551181,
                    "duration": 0.17291666666670835
                },
                {
                    "name": "C#3",
                    "midi": 49,
                    "time": 415.24166666667315,
                    "velocity": 0.6456692913385826,
                    "duration": 1.4166666666667425
                },
                {
                    "name": "G#2",
                    "midi": 44,
                    "time": 415.2479166666732,
                    "velocity": 0.5433070866141733,
                    "duration": 1.1312500000000227
                },
                {
                    "name": "B3",
                    "midi": 59,
                    "time": 415.2541666666732,
                    "velocity": 0.7952755905511811,
                    "duration": 0.252083333333303
                },
                {
                    "name": "F3",
                    "midi": 53,
                    "time": 415.2666666666732,
                    "velocity": 0.6850393700787402,
                    "duration": 1.4187500000000455
                },
                {
                    "name": "A#3",
                    "midi": 58,
                    "time": 415.43958333333984,
                    "velocity": 0.8346456692913385,
                    "duration": 0.23750000000001137
                },
                {
                    "name": "B3",
                    "midi": 59,
                    "time": 415.62708333333984,
                    "velocity": 0.7322834645669292,
                    "duration": 0.2333333333333485
                },
                {
                    "name": "C#4",
                    "midi": 61,
                    "time": 415.8083333333399,
                    "velocity": 0.889763779527559,
                    "duration": 0.13333333333332575
                },
                {
                    "name": "D#4",
                    "midi": 63,
                    "time": 416.0229166666732,
                    "velocity": 0.8976377952755905,
                    "duration": 0.1479166666666174
                },
                {
                    "name": "B3",
                    "midi": 59,
                    "time": 416.4291666666732,
                    "velocity": 0.8582677165354331,
                    "duration": 0.19166666666666288
                },
                {
                    "name": "A2",
                    "midi": 45,
                    "time": 416.43541666667323,
                    "velocity": 0.6929133858267716,
                    "duration": 0.33125000000001137
                },
                {
                    "name": "A#2",
                    "midi": 46,
                    "time": 416.84166666667323,
                    "velocity": 0.7322834645669292,
                    "duration": 0.23124999999998863
                },
                {
                    "name": "B3",
                    "midi": 59,
                    "time": 416.84791666667326,
                    "velocity": 0.8740157480314961,
                    "duration": 0.21458333333328028
                },
                {
                    "name": "D3",
                    "midi": 50,
                    "time": 416.84791666667326,
                    "velocity": 0.7716535433070866,
                    "duration": 1.0041666666666629
                },
                {
                    "name": "F3",
                    "midi": 53,
                    "time": 416.8562500000066,
                    "velocity": 0.8031496062992126,
                    "duration": 0.21458333333328028
                },
                {
                    "name": "G#2",
                    "midi": 44,
                    "time": 417.0270833333399,
                    "velocity": 0.6692913385826772,
                    "duration": 0.3062500000000341
                },
                {
                    "name": "A#3",
                    "midi": 58,
                    "time": 417.0354166666732,
                    "velocity": 0.7874015748031497,
                    "duration": 0.07708333333334849
                },
                {
                    "name": "F#2",
                    "midi": 42,
                    "time": 417.2541666666732,
                    "velocity": 0.7401574803149606,
                    "duration": 0.15208333333339397
                },
                {
                    "name": "A#3",
                    "midi": 58,
                    "time": 417.25833333333986,
                    "velocity": 0.8818897637795275,
                    "duration": 0.6000000000000796
                },
                {
                    "name": "D#4",
                    "midi": 63,
                    "time": 417.26875000000655,
                    "velocity": 0.8976377952755905,
                    "duration": 0.1958333333333826
                },
                {
                    "name": "F4",
                    "midi": 65,
                    "time": 417.4375000000066,
                    "velocity": 0.7637795275590551,
                    "duration": 0.2770833333333371
                },
                {
                    "name": "F2",
                    "midi": 41,
                    "time": 417.44166666667326,
                    "velocity": 0.7559055118110236,
                    "duration": 0.11666666666667425
                },
                {
                    "name": "F#4",
                    "midi": 66,
                    "time": 417.65000000000657,
                    "velocity": 0.8976377952755905,
                    "duration": 0.1708333333333485
                },
                {
                    "name": "D#2",
                    "midi": 39,
                    "time": 417.65208333333993,
                    "velocity": 0.8976377952755905,
                    "duration": 0.48541666666670835
                },
                {
                    "name": "F4",
                    "midi": 65,
                    "time": 417.83541666667327,
                    "velocity": 0.7244094488188977,
                    "duration": 0.15625
                },
                {
                    "name": "F#4",
                    "midi": 66,
                    "time": 418.04791666667325,
                    "velocity": 0.9291338582677166,
                    "duration": 0.2270833333333826
                },
                {
                    "name": "A#3",
                    "midi": 58,
                    "time": 418.05833333334,
                    "velocity": 0.8267716535433071,
                    "duration": 0.28125
                },
                {
                    "name": "D#4",
                    "midi": 63,
                    "time": 418.06250000000665,
                    "velocity": 0.7874015748031497,
                    "duration": 0.2979166666666515
                },
                {
                    "name": "C#2",
                    "midi": 37,
                    "time": 418.2125000000066,
                    "velocity": 0.8818897637795275,
                    "duration": 0.12083333333333712
                },
                {
                    "name": "G#4",
                    "midi": 68,
                    "time": 418.22083333333995,
                    "velocity": 0.8661417322834646,
                    "duration": 0.12708333333335986
                },
                {
                    "name": "C2",
                    "midi": 36,
                    "time": 418.42708333333997,
                    "velocity": 0.8976377952755905,
                    "duration": 0.7291666666666288
                },
                {
                    "name": "A#4",
                    "midi": 70,
                    "time": 418.4312500000066,
                    "velocity": 0.889763779527559,
                    "duration": 0.10625000000004547
                },
                {
                    "name": "D#4",
                    "midi": 63,
                    "time": 418.4312500000066,
                    "velocity": 0.7874015748031497,
                    "duration": 0.12083333333339397
                },
                {
                    "name": "A#3",
                    "midi": 58,
                    "time": 418.43333333334,
                    "velocity": 0.8503937007874016,
                    "duration": 0.14791666666667425
                },
                {
                    "name": "C3",
                    "midi": 48,
                    "time": 418.52708333334,
                    "velocity": 0.44881889763779526,
                    "duration": 0.4729166666666629
                },
                {
                    "name": "F#4",
                    "midi": 66,
                    "time": 418.8666666666733,
                    "velocity": 0.9291338582677166,
                    "duration": 0.26041666666662877
                },
                {
                    "name": "A#3",
                    "midi": 58,
                    "time": 418.87500000000665,
                    "velocity": 0.8976377952755905,
                    "duration": 0.23958333333331439
                },
                {
                    "name": "D#4",
                    "midi": 63,
                    "time": 418.8812500000067,
                    "velocity": 0.8267716535433071,
                    "duration": 0.20624999999995453
                },
                {
                    "name": "C#2",
                    "midi": 37,
                    "time": 419.2895833333399,
                    "velocity": 0.8661417322834646,
                    "duration": 1.1375000000001592
                },
                {
                    "name": "C#3",
                    "midi": 49,
                    "time": 419.2916666666733,
                    "velocity": 0.937007874015748,
                    "duration": 1.1895833333334735
                },
                {
                    "name": "F#4",
                    "midi": 66,
                    "time": 419.2916666666733,
                    "velocity": 0.9133858267716536,
                    "duration": 0.1479166666667311
                },
                {
                    "name": "G#3",
                    "midi": 56,
                    "time": 419.29375000000664,
                    "velocity": 0.9133858267716536,
                    "duration": 0.07916666666665151
                },
                {
                    "name": "C#4",
                    "midi": 61,
                    "time": 419.2979166666733,
                    "velocity": 0.8661417322834646,
                    "duration": 0.10833333333334849
                },
                {
                    "name": "C#5",
                    "midi": 73,
                    "time": 419.72083333334,
                    "velocity": 0.968503937007874,
                    "duration": 0.29583333333340533
                },
                {
                    "name": "F4",
                    "midi": 65,
                    "time": 419.72291666667337,
                    "velocity": 0.889763779527559,
                    "duration": 0.5708333333333826
                },
                {
                    "name": "D#5",
                    "midi": 75,
                    "time": 419.91250000000673,
                    "velocity": 0.889763779527559,
                    "duration": 0.17916666666667425
                },
                {
                    "name": "F5",
                    "midi": 77,
                    "time": 420.1437500000067,
                    "velocity": 0.8818897637795275,
                    "duration": 0.14375000000001137
                },
                {
                    "name": "D#5",
                    "midi": 75,
                    "time": 420.34583333334007,
                    "velocity": 0.8503937007874016,
                    "duration": 0.17500000000001137
                },
                {
                    "name": "F5",
                    "midi": 77,
                    "time": 420.52500000000674,
                    "velocity": 0.8582677165354331,
                    "duration": 0.24791666666664014
                },
                {
                    "name": "D#3",
                    "midi": 51,
                    "time": 420.6791666666734,
                    "velocity": 0.9448818897637795,
                    "duration": 0.13749999999998863
                },
                {
                    "name": "D#2",
                    "midi": 39,
                    "time": 420.6854166666734,
                    "velocity": 0.8818897637795275,
                    "duration": 0.09166666666664014
                },
                {
                    "name": "F#5",
                    "midi": 78,
                    "time": 420.72083333334007,
                    "velocity": 0.8976377952755905,
                    "duration": 0.13541666666662877
                },
                {
                    "name": "F3",
                    "midi": 53,
                    "time": 420.94166666667337,
                    "velocity": 0.8818897637795275,
                    "duration": 0.8020833333334281
                },
                {
                    "name": "F2",
                    "midi": 41,
                    "time": 420.94375000000673,
                    "velocity": 0.8503937007874016,
                    "duration": 0.8354166666667311
                },
                {
                    "name": "G#5",
                    "midi": 80,
                    "time": 420.9541666666734,
                    "velocity": 0.8503937007874016,
                    "duration": 0.07500000000004547
                },
                {
                    "name": "G#4",
                    "midi": 68,
                    "time": 420.9562500000068,
                    "velocity": 0.8503937007874016,
                    "duration": 0.08333333333337123
                },
                {
                    "name": "B4",
                    "midi": 71,
                    "time": 421.4520833333401,
                    "velocity": 0.8188976377952756,
                    "duration": 0.7208333333333599
                },
                {
                    "name": "C#4",
                    "midi": 61,
                    "time": 421.46041666667344,
                    "velocity": 0.8267716535433071,
                    "duration": 0.9500000000000455
                },
                {
                    "name": "G4",
                    "midi": 67,
                    "time": 421.46666666667346,
                    "velocity": 0.6929133858267716,
                    "duration": 0.8354166666666742
                },
                {
                    "name": "E3",
                    "midi": 52,
                    "time": 421.9062500000068,
                    "velocity": 0.6141732283464567,
                    "duration": 0.4729166666666629
                },
                {
                    "name": "E2",
                    "midi": 40,
                    "time": 421.92500000000683,
                    "velocity": 0.47244094488188976,
                    "duration": 0.49166666666667425
                },
                {
                    "name": "A#4",
                    "midi": 70,
                    "time": 422.32083333334015,
                    "velocity": 0.6456692913385826,
                    "duration": 0.11458333333337123
                },
                {
                    "name": "F#4",
                    "midi": 66,
                    "time": 422.3250000000068,
                    "velocity": 0.5433070866141733,
                    "duration": 0.1187500000000341
                },
                {
                    "name": "A1",
                    "midi": 33,
                    "time": 422.7541666666735,
                    "velocity": 0.5433070866141733,
                    "duration": 0.11250000000006821
                },
                {
                    "name": "A2",
                    "midi": 45,
                    "time": 422.7604166666735,
                    "velocity": 0.47244094488188976,
                    "duration": 0.1479166666667311
                },
                {
                    "name": "C#3",
                    "midi": 49,
                    "time": 422.9541666666736,
                    "velocity": 0.7165354330708661,
                    "duration": 0.22500000000002274
                },
                {
                    "name": "F#3",
                    "midi": 54,
                    "time": 423.1791666666736,
                    "velocity": 0.7244094488188977,
                    "duration": 0.2645833333333485
                },
                {
                    "name": "A4",
                    "midi": 69,
                    "time": 423.20625000000695,
                    "velocity": 0.7401574803149606,
                    "duration": 0.07708333333334849
                },
                {
                    "name": "A3",
                    "midi": 57,
                    "time": 423.3979166666736,
                    "velocity": 0.5984251968503937,
                    "duration": 0.5479166666666515
                },
                {
                    "name": "B2",
                    "midi": 47,
                    "time": 423.66250000000696,
                    "velocity": 0.5590551181102362,
                    "duration": 0.4916666666666174
                },
                {
                    "name": "C#4",
                    "midi": 61,
                    "time": 423.6666666666736,
                    "velocity": 0.6929133858267716,
                    "duration": 0.3083333333332803
                },
                {
                    "name": "B1",
                    "midi": 35,
                    "time": 423.67291666667364,
                    "velocity": 0.5354330708661418,
                    "duration": 0.38541666666662877
                },
                {
                    "name": "D3",
                    "midi": 50,
                    "time": 423.6770833333403,
                    "velocity": 0.5669291338582677,
                    "duration": 0.3312499999999545
                },
                {
                    "name": "B3",
                    "midi": 59,
                    "time": 423.8875000000069,
                    "velocity": 0.6850393700787402,
                    "duration": 0.27916666666664014
                },
                {
                    "name": "A3",
                    "midi": 57,
                    "time": 424.08333333334025,
                    "velocity": 0.6850393700787402,
                    "duration": 0.23124999999998863
                },
                {
                    "name": "G#3",
                    "midi": 56,
                    "time": 424.23958333334025,
                    "velocity": 0.8346456692913385,
                    "duration": 0.15416666666664014
                },
                {
                    "name": "G#3",
                    "midi": 56,
                    "time": 424.4562500000069,
                    "velocity": 0.6771653543307087,
                    "duration": 0.7270833333333826
                },
                {
                    "name": "D3",
                    "midi": 50,
                    "time": 424.4666666666736,
                    "velocity": 0.6299212598425197,
                    "duration": 0.5083333333333258
                },
                {
                    "name": "D2",
                    "midi": 38,
                    "time": 424.48958333334025,
                    "velocity": 0.2992125984251969,
                    "duration": 0.49166666666667425
                },
                {
                    "name": "F#3",
                    "midi": 54,
                    "time": 424.4937500000069,
                    "velocity": 0.5511811023622047,
                    "duration": 0.6708333333333485
                },
                {
                    "name": "A3",
                    "midi": 57,
                    "time": 424.8916666666736,
                    "velocity": 0.5511811023622047,
                    "duration": 0.279166666666697
                },
                {
                    "name": "B3",
                    "midi": 59,
                    "time": 425.11458333334025,
                    "velocity": 0.5590551181102362,
                    "duration": 0.27291666666667425
                },
                {
                    "name": "C#3",
                    "midi": 49,
                    "time": 425.4458333333402,
                    "velocity": 0.7952755905511811,
                    "duration": 1.770833333333485
                },
                {
                    "name": "C#2",
                    "midi": 37,
                    "time": 425.4520833333402,
                    "velocity": 0.7874015748031497,
                    "duration": 1.6958333333334394
                },
                {
                    "name": "C#4",
                    "midi": 61,
                    "time": 425.4750000000069,
                    "velocity": 0.6299212598425197,
                    "duration": 0.24166666666667425
                },
                {
                    "name": "E3",
                    "midi": 52,
                    "time": 425.48958333334025,
                    "velocity": 0.49606299212598426,
                    "duration": 0.16874999999998863
                },
                {
                    "name": "D6",
                    "midi": 86,
                    "time": 426.10208333334026,
                    "velocity": 0.8503937007874016,
                    "duration": 0.4979166666667538
                },
                {
                    "name": "C#6",
                    "midi": 85,
                    "time": 426.1062500000069,
                    "velocity": 0.7716535433070866,
                    "duration": 0.4145833333333826
                },
                {
                    "name": "A5",
                    "midi": 81,
                    "time": 426.11250000000695,
                    "velocity": 0.7874015748031497,
                    "duration": 0.46875000000005684
                },
                {
                    "name": "G#5",
                    "midi": 80,
                    "time": 426.54791666667364,
                    "velocity": 0.6377952755905512,
                    "duration": 0.08333333333337123
                },
                {
                    "name": "B5",
                    "midi": 83,
                    "time": 426.550000000007,
                    "velocity": 0.6614173228346457,
                    "duration": 0.1187500000000341
                },
                {
                    "name": "D6",
                    "midi": 86,
                    "time": 426.943750000007,
                    "velocity": 0.8818897637795275,
                    "duration": 0.45416666666670835
                },
                {
                    "name": "A5",
                    "midi": 81,
                    "time": 426.95208333334034,
                    "velocity": 0.7401574803149606,
                    "duration": 0.11458333333331439
                },
                {
                    "name": "F#5",
                    "midi": 78,
                    "time": 426.956250000007,
                    "velocity": 0.7480314960629921,
                    "duration": 0.13749999999998863
                },
                {
                    "name": "G#5",
                    "midi": 80,
                    "time": 427.3479166666737,
                    "velocity": 0.7559055118110236,
                    "duration": 0.21666666666664014
                },
                {
                    "name": "E5",
                    "midi": 76,
                    "time": 427.35625000000704,
                    "velocity": 0.6929133858267716,
                    "duration": 0.14791666666667425
                },
                {
                    "name": "D6",
                    "midi": 86,
                    "time": 427.525000000007,
                    "velocity": 0.7795275590551181,
                    "duration": 0.11250000000001137
                },
                {
                    "name": "A3",
                    "midi": 57,
                    "time": 427.55208333334036,
                    "velocity": 0.6299212598425197,
                    "duration": 0.14583333333331439
                },
                {
                    "name": "D4",
                    "midi": 62,
                    "time": 427.6333333333404,
                    "velocity": 0.2992125984251969,
                    "duration": 0.1958333333333826
                },
                {
                    "name": "F#4",
                    "midi": 66,
                    "time": 427.77083333334036,
                    "velocity": 0.5905511811023622,
                    "duration": 0.07291666666674246
                },
                {
                    "name": "C#6",
                    "midi": 85,
                    "time": 427.7854166666737,
                    "velocity": 0.8346456692913385,
                    "duration": 0.16666666666668561
                },
                {
                    "name": "F#5",
                    "midi": 78,
                    "time": 427.7895833333404,
                    "velocity": 0.7401574803149606,
                    "duration": 0.5750000000000455
                },
                {
                    "name": "A4",
                    "midi": 69,
                    "time": 427.79166666667373,
                    "velocity": 0.7244094488188977,
                    "duration": 0.043750000000045475
                },
                {
                    "name": "D5",
                    "midi": 74,
                    "time": 427.7958333333404,
                    "velocity": 0.6692913385826772,
                    "duration": 0.10416666666668561
                },
                {
                    "name": "B5",
                    "midi": 83,
                    "time": 427.9729166666737,
                    "velocity": 0.5984251968503937,
                    "duration": 0.40833333333335986
                },
                {
                    "name": "C#2",
                    "midi": 37,
                    "time": 428.08333333334036,
                    "velocity": 0.6771653543307087,
                    "duration": 0.09375
                },
                {
                    "name": "C#3",
                    "midi": 49,
                    "time": 428.14583333334036,
                    "velocity": 0.5118110236220472,
                    "duration": 0.07291666666668561
                },
                {
                    "name": "C#6",
                    "midi": 85,
                    "time": 428.36250000000706,
                    "velocity": 0.7874015748031497,
                    "duration": 0.1708333333333485
                },
                {
                    "name": "G#4",
                    "midi": 68,
                    "time": 428.3645833333404,
                    "velocity": 0.7952755905511811,
                    "duration": 0.04791666666665151
                },
                {
                    "name": "E5",
                    "midi": 76,
                    "time": 428.37291666667375,
                    "velocity": 0.7086614173228346,
                    "duration": 0.16041666666666288
                },
                {
                    "name": "C#6",
                    "midi": 85,
                    "time": 428.81041666667375,
                    "velocity": 0.7716535433070866,
                    "duration": 0.4604166666666174
                },
                {
                    "name": "G#5",
                    "midi": 80,
                    "time": 428.82291666667373,
                    "velocity": 0.7322834645669292,
                    "duration": 0.36666666666667425
                },
                {
                    "name": "B5",
                    "midi": 83,
                    "time": 428.8250000000071,
                    "velocity": 0.7165354330708661,
                    "duration": 0.36874999999997726
                },
                {
                    "name": "F#5",
                    "midi": 78,
                    "time": 429.2145833333404,
                    "velocity": 0.7244094488188977,
                    "duration": 0.09375
                },
                {
                    "name": "A5",
                    "midi": 81,
                    "time": 429.21875000000705,
                    "velocity": 0.6850393700787402,
                    "duration": 0.08333333333331439
                },
                {
                    "name": "C#6",
                    "midi": 85,
                    "time": 429.6166666666737,
                    "velocity": 0.9133858267716536,
                    "duration": 0.4791666666666856
                },
                {
                    "name": "G#5",
                    "midi": 80,
                    "time": 429.6333333333404,
                    "velocity": 0.7874015748031497,
                    "duration": 0.20000000000004547
                },
                {
                    "name": "E5",
                    "midi": 76,
                    "time": 429.63541666667373,
                    "velocity": 0.7165354330708661,
                    "duration": 0.16041666666666288
                },
                {
                    "name": "F#5",
                    "midi": 78,
                    "time": 430.05000000000706,
                    "velocity": 0.8267716535433071,
                    "duration": 0.19375000000002274
                },
                {
                    "name": "D5",
                    "midi": 74,
                    "time": 430.0562500000071,
                    "velocity": 0.7559055118110236,
                    "duration": 0.10624999999998863
                },
                {
                    "name": "C#6",
                    "midi": 85,
                    "time": 430.2020833333404,
                    "velocity": 0.8346456692913385,
                    "duration": 0.10624999999998863
                },
                {
                    "name": "G#3",
                    "midi": 56,
                    "time": 430.2437500000071,
                    "velocity": 0.6299212598425197,
                    "duration": 0.16666666666662877
                },
                {
                    "name": "C#4",
                    "midi": 61,
                    "time": 430.31250000000705,
                    "velocity": 0.5748031496062992,
                    "duration": 0.15416666666664014
                },
                {
                    "name": "C#5",
                    "midi": 73,
                    "time": 430.4229166666737,
                    "velocity": 0.8188976377952756,
                    "duration": 0.08333333333331439
                },
                {
                    "name": "G#4",
                    "midi": 68,
                    "time": 430.4229166666737,
                    "velocity": 0.7244094488188977,
                    "duration": 0.03125
                },
                {
                    "name": "B5",
                    "midi": 83,
                    "time": 430.42708333334036,
                    "velocity": 0.6614173228346457,
                    "duration": 0.22916666666674246
                },
                {
                    "name": "E5",
                    "midi": 76,
                    "time": 430.4354166666737,
                    "velocity": 0.6614173228346457,
                    "duration": 0.12708333333335986
                },
                {
                    "name": "A5",
                    "midi": 81,
                    "time": 430.6062500000071,
                    "velocity": 0.7559055118110236,
                    "duration": 0.3708333333333371
                },
                {
                    "name": "C#2",
                    "midi": 37,
                    "time": 430.6812500000071,
                    "velocity": 0.6377952755905512,
                    "duration": 0.10208333333332575
                },
                {
                    "name": "F#4",
                    "midi": 66,
                    "time": 430.9625000000071,
                    "velocity": 0.905511811023622,
                    "duration": 0.054166666666674246
                },
                {
                    "name": "B5",
                    "midi": 83,
                    "time": 430.96666666667375,
                    "velocity": 0.7637795275590551,
                    "duration": 0.20833333333337123
                },
                {
                    "name": "D5",
                    "midi": 74,
                    "time": 430.97708333334043,
                    "velocity": 0.7322834645669292,
                    "duration": 0.19583333333332575
                },
                {
                    "name": "B5",
                    "midi": 83,
                    "time": 431.4500000000071,
                    "velocity": 0.7637795275590551,
                    "duration": 0.49374999999997726
                },
                {
                    "name": "A5",
                    "midi": 81,
                    "time": 431.45208333334045,
                    "velocity": 0.7322834645669292,
                    "duration": 0.4583333333333144
                },
                {
                    "name": "F#5",
                    "midi": 78,
                    "time": 431.46458333334044,
                    "velocity": 0.7716535433070866,
                    "duration": 0.38749999999998863
                },
                {
                    "name": "G#5",
                    "midi": 80,
                    "time": 431.8562500000071,
                    "velocity": 0.6850393700787402,
                    "duration": 0.11041666666665151
                },
                {
                    "name": "E5",
                    "midi": 76,
                    "time": 431.8625000000071,
                    "velocity": 0.5984251968503937,
                    "duration": 0.0687499999999659
                },
                {
                    "name": "B5",
                    "midi": 83,
                    "time": 432.2416666666737,
                    "velocity": 0.8818897637795275,
                    "duration": 0.5104166666667425
                },
                {
                    "name": "F#5",
                    "midi": 78,
                    "time": 432.26041666667373,
                    "velocity": 0.7795275590551181,
                    "duration": 0.11666666666673109
                },
                {
                    "name": "D5",
                    "midi": 74,
                    "time": 432.2625000000071,
                    "velocity": 0.7086614173228346,
                    "duration": 0.06458333333335986
                },
                {
                    "name": "E5",
                    "midi": 76,
                    "time": 432.6791666666738,
                    "velocity": 0.7795275590551181,
                    "duration": 0.1812500000000341
                },
                {
                    "name": "C#5",
                    "midi": 73,
                    "time": 432.68333333334044,
                    "velocity": 0.8188976377952756,
                    "duration": 0.1187500000000341
                },
                {
                    "name": "B5",
                    "midi": 83,
                    "time": 432.82708333334045,
                    "velocity": 0.7165354330708661,
                    "duration": 0.10416666666674246
                },
                {
                    "name": "F#3",
                    "midi": 54,
                    "time": 432.86666666667384,
                    "velocity": 0.6850393700787402,
                    "duration": 0.13958333333340533
                },
                {
                    "name": "B3",
                    "midi": 59,
                    "time": 432.92708333334053,
                    "velocity": 0.48031496062992124,
                    "duration": 0.15416666666681067
                },
                {
                    "name": "D4",
                    "midi": 62,
                    "time": 432.9812500000072,
                    "velocity": 0.3464566929133858,
                    "duration": 0.08333333333342807
                },
                {
                    "name": "F#4",
                    "midi": 66,
                    "time": 433.01250000000726,
                    "velocity": 0.8818897637795275,
                    "duration": 0.06250000000005684
                },
                {
                    "name": "D5",
                    "midi": 74,
                    "time": 433.0583333333406,
                    "velocity": 0.7874015748031497,
                    "duration": 0.11250000000006821
                },
                {
                    "name": "A5",
                    "midi": 81,
                    "time": 433.0583333333406,
                    "velocity": 0.8031496062992126,
                    "duration": 0.17083333333340533
                },
                {
                    "name": "B4",
                    "midi": 71,
                    "time": 433.060416666674,
                    "velocity": 0.7401574803149606,
                    "duration": 0.09583333333335986
                },
                {
                    "name": "G#5",
                    "midi": 80,
                    "time": 433.24375000000737,
                    "velocity": 0.7322834645669292,
                    "duration": 0.2937499999999318
                },
                {
                    "name": "C#2",
                    "midi": 37,
                    "time": 433.304166666674,
                    "velocity": 0.6377952755905512,
                    "duration": 0.09166666666664014
                },
                {
                    "name": "C#3",
                    "midi": 49,
                    "time": 433.3583333333406,
                    "velocity": 0.6929133858267716,
                    "duration": 0.06875000000002274
                },
                {
                    "name": "E4",
                    "midi": 64,
                    "time": 433.57083333334066,
                    "velocity": 0.6456692913385826,
                    "duration": 0.041666666666685614
                },
                {
                    "name": "A5",
                    "midi": 81,
                    "time": 433.579166666674,
                    "velocity": 0.7874015748031497,
                    "duration": 0.2437500000000341
                },
                {
                    "name": "C#5",
                    "midi": 73,
                    "time": 433.58958333334067,
                    "velocity": 0.7244094488188977,
                    "duration": 0.34583333333335986
                },
                {
                    "name": "G#5",
                    "midi": 80,
                    "time": 433.83958333334067,
                    "velocity": 0.6614173228346457,
                    "duration": 0.14166666666670835
                },
                {
                    "name": "D4",
                    "midi": 62,
                    "time": 434.0958333333407,
                    "velocity": 0.8582677165354331,
                    "duration": 1.585416666666788
                },
                {
                    "name": "F#5",
                    "midi": 78,
                    "time": 434.1062500000074,
                    "velocity": 0.7795275590551181,
                    "duration": 0.25833333333332575
                },
                {
                    "name": "E5",
                    "midi": 76,
                    "time": 434.31875000000736,
                    "velocity": 0.7007874015748031,
                    "duration": 0.2958333333333485
                },
                {
                    "name": "F#5",
                    "midi": 78,
                    "time": 434.52500000000737,
                    "velocity": 0.8346456692913385,
                    "duration": 0.24791666666669698
                },
                {
                    "name": "E5",
                    "midi": 76,
                    "time": 434.6958333333407,
                    "velocity": 0.7795275590551181,
                    "duration": 0.13333333333332575
                },
                {
                    "name": "D5",
                    "midi": 74,
                    "time": 434.9145833333407,
                    "velocity": 0.7952755905511811,
                    "duration": 0.22291666666666288
                },
                {
                    "name": "B4",
                    "midi": 71,
                    "time": 434.92916666667406,
                    "velocity": 0.6141732283464567,
                    "duration": 0.15625
                },
                {
                    "name": "C#5",
                    "midi": 73,
                    "time": 435.0812500000074,
                    "velocity": 0.7952755905511811,
                    "duration": 0.17083333333329165
                },
                {
                    "name": "F#4",
                    "midi": 66,
                    "time": 435.31875000000736,
                    "velocity": 0.5669291338582677,
                    "duration": 0.32083333333343944
                },
                {
                    "name": "G#4",
                    "midi": 68,
                    "time": 435.3229166666741,
                    "velocity": 0.7480314960629921,
                    "duration": 0.26666666666670835
                },
                {
                    "name": "B4",
                    "midi": 71,
                    "time": 435.33333333334076,
                    "velocity": 0.6771653543307087,
                    "duration": 0.11250000000001137
                },
                {
                    "name": "C#5",
                    "midi": 73,
                    "time": 435.4125000000074,
                    "velocity": 0.7244094488188977,
                    "duration": 0.1187500000000341
                },
                {
                    "name": "B4",
                    "midi": 71,
                    "time": 435.5145833333408,
                    "velocity": 0.6062992125984252,
                    "duration": 0.2604166666666856
                },
                {
                    "name": "A4",
                    "midi": 69,
                    "time": 435.74583333334084,
                    "velocity": 0.6141732283464567,
                    "duration": 0.14999999999997726
                },
                {
                    "name": "B4",
                    "midi": 71,
                    "time": 435.8895833333408,
                    "velocity": 0.5984251968503937,
                    "duration": 0.10000000000002274
                },
                {
                    "name": "C#2",
                    "midi": 37,
                    "time": 436.08958333334084,
                    "velocity": 0.49606299212598426,
                    "duration": 0.13750000000004547
                },
                {
                    "name": "C#3",
                    "midi": 49,
                    "time": 436.1729166666742,
                    "velocity": 0.49606299212598426,
                    "duration": 0.08958333333339397
                },
                {
                    "name": "C#5",
                    "midi": 73,
                    "time": 436.2041666666742,
                    "velocity": 0.6692913385826772,
                    "duration": 0.13750000000004547
                },
                {
                    "name": "E4",
                    "midi": 64,
                    "time": 436.21041666667423,
                    "velocity": 0.48031496062992124,
                    "duration": 0.07916666666670835
                },
                {
                    "name": "C#6",
                    "midi": 85,
                    "time": 436.7833333333409,
                    "velocity": 0.4881889763779528,
                    "duration": 0.2333333333333485
                },
                {
                    "name": "G#5",
                    "midi": 80,
                    "time": 436.80208333334093,
                    "velocity": 0.4330708661417323,
                    "duration": 0.46875
                },
                {
                    "name": "D6",
                    "midi": 86,
                    "time": 436.8166666666743,
                    "velocity": 0.6141732283464567,
                    "duration": 0.17500000000001137
                },
                {
                    "name": "A5",
                    "midi": 81,
                    "time": 437.0312500000076,
                    "velocity": 0.6377952755905512,
                    "duration": 0.25833333333332575
                },
                {
                    "name": "F#5",
                    "midi": 78,
                    "time": 437.2437500000076,
                    "velocity": 0.5590551181102362,
                    "duration": 0.06666666666666288
                },
                {
                    "name": "D5",
                    "midi": 74,
                    "time": 437.2500000000076,
                    "velocity": 0.5590551181102362,
                    "duration": 0.14999999999997726
                },
                {
                    "name": "A4",
                    "midi": 69,
                    "time": 437.40416666667426,
                    "velocity": 0.5669291338582677,
                    "duration": 0.11041666666665151
                },
                {
                    "name": "A4",
                    "midi": 69,
                    "time": 437.6208333333409,
                    "velocity": 0.5984251968503937,
                    "duration": 0.18958333333335986
                },
                {
                    "name": "C#5",
                    "midi": 73,
                    "time": 437.6270833333409,
                    "velocity": 0.6929133858267716,
                    "duration": 0.22083333333335986
                },
                {
                    "name": "G#4",
                    "midi": 68,
                    "time": 437.6375000000076,
                    "velocity": 0.6062992125984252,
                    "duration": 0.404166666666697
                },
                {
                    "name": "D5",
                    "midi": 74,
                    "time": 437.79791666667427,
                    "velocity": 0.6692913385826772,
                    "duration": 0.15833333333335986
                },
                {
                    "name": "B4",
                    "midi": 71,
                    "time": 438.020833333341,
                    "velocity": 0.5984251968503937,
                    "duration": 0.07083333333332575
                },
                {
                    "name": "F#4",
                    "midi": 66,
                    "time": 438.02500000000765,
                    "velocity": 0.6456692913385826,
                    "duration": 0.07291666666668561
                },
                {
                    "name": "A5",
                    "midi": 81,
                    "time": 438.0416666666743,
                    "velocity": 0.6062992125984252,
                    "duration": 0.11458333333337123
                },
                {
                    "name": "D6",
                    "midi": 86,
                    "time": 438.233333333341,
                    "velocity": 0.6535433070866141,
                    "duration": 0.10833333333334849
                },
                {
                    "name": "A3",
                    "midi": 57,
                    "time": 438.33541666667435,
                    "velocity": 0.4881889763779528,
                    "duration": 0.14583333333331439
                },
                {
                    "name": "D4",
                    "midi": 62,
                    "time": 438.41666666667436,
                    "velocity": 0.5118110236220472,
                    "duration": 0.20625000000001137
                },
                {
                    "name": "F#4",
                    "midi": 66,
                    "time": 438.5187500000077,
                    "velocity": 0.5669291338582677,
                    "duration": 0.09583333333335986
                },
                {
                    "name": "A4",
                    "midi": 69,
                    "time": 438.570833333341,
                    "velocity": 0.48031496062992124,
                    "duration": 0.05208333333337123
                },
                {
                    "name": "F#5",
                    "midi": 78,
                    "time": 438.589583333341,
                    "velocity": 0.4881889763779528,
                    "duration": 0.2979166666666515
                },
                {
                    "name": "D5",
                    "midi": 74,
                    "time": 438.59166666667437,
                    "velocity": 0.3937007874015748,
                    "duration": 0.10624999999998863
                },
                {
                    "name": "C#6",
                    "midi": 85,
                    "time": 438.59375000000773,
                    "velocity": 0.5669291338582677,
                    "duration": 0.15624999999994316
                },
                {
                    "name": "B5",
                    "midi": 83,
                    "time": 438.802083333341,
                    "velocity": 0.6456692913385826,
                    "duration": 0.4229166666666515
                },
                {
                    "name": "C#2",
                    "midi": 37,
                    "time": 438.9041666666743,
                    "velocity": 0.2992125984251969,
                    "duration": 0.1166666666666174
                },
                {
                    "name": "C#3",
                    "midi": 49,
                    "time": 438.9916666666743,
                    "velocity": 0.6929133858267716,
                    "duration": 0.05833333333333712
                },
                {
                    "name": "C#6",
                    "midi": 85,
                    "time": 439.2375000000076,
                    "velocity": 0.6929133858267716,
                    "duration": 0.12291666666669698
                },
                {
                    "name": "E5",
                    "midi": 76,
                    "time": 439.2479166666743,
                    "velocity": 0.5905511811023622,
                    "duration": 0.07916666666665151
                },
                {
                    "name": "G#4",
                    "midi": 68,
                    "time": 439.26458333334097,
                    "velocity": 0.6771653543307087,
                    "duration": 0.07708333333334849
                },
                {
                    "name": "C#6",
                    "midi": 85,
                    "time": 439.852083333341,
                    "velocity": 0.6299212598425197,
                    "duration": 0.17083333333340533
                },
                {
                    "name": "F#5",
                    "midi": 78,
                    "time": 439.8625000000077,
                    "velocity": 0.5275590551181102,
                    "duration": 0.1500000000000341
                },
                {
                    "name": "B5",
                    "midi": 83,
                    "time": 439.86458333334105,
                    "velocity": 0.5118110236220472,
                    "duration": 0.10833333333334849
                },
                {
                    "name": "G#5",
                    "midi": 80,
                    "time": 440.06250000000773,
                    "velocity": 0.6220472440944882,
                    "duration": 0.19166666666671972
                },
                {
                    "name": "A5",
                    "midi": 81,
                    "time": 440.2520833333411,
                    "velocity": 0.5984251968503937,
                    "duration": 0.04583333333334849
                },
                {
                    "name": "C#5",
                    "midi": 73,
                    "time": 440.25416666667445,
                    "velocity": 0.7795275590551181,
                    "duration": 0.1312499999999659
                },
                {
                    "name": "E5",
                    "midi": 76,
                    "time": 440.26666666667444,
                    "velocity": 0.5354330708661418,
                    "duration": 0.05833333333333712
                },
                {
                    "name": "G#4",
                    "midi": 68,
                    "time": 440.4166666666744,
                    "velocity": 0.7086614173228346,
                    "duration": 0.11874999999997726
                },
                {
                    "name": "F#4",
                    "midi": 66,
                    "time": 440.6354166666744,
                    "velocity": 0.6771653543307087,
                    "duration": 0.33125000000012506
                },
                {
                    "name": "B4",
                    "midi": 71,
                    "time": 440.6375000000078,
                    "velocity": 0.6377952755905512,
                    "duration": 0.19375000000007958
                },
                {
                    "name": "G#4",
                    "midi": 68,
                    "time": 440.64791666667446,
                    "velocity": 0.6929133858267716,
                    "duration": 0.16250000000007958
                },
                {
                    "name": "C#5",
                    "midi": 73,
                    "time": 440.8041666666745,
                    "velocity": 0.7559055118110236,
                    "duration": 0.1708333333333485
                },
                {
                    "name": "A4",
                    "midi": 69,
                    "time": 441.01666666667455,
                    "velocity": 0.5511811023622047,
                    "duration": 0.05624999999997726
                },
                {
                    "name": "G#5",
                    "midi": 80,
                    "time": 441.0208333333412,
                    "velocity": 0.6299212598425197,
                    "duration": 0.10208333333326891
                },
                {
                    "name": "E4",
                    "midi": 64,
                    "time": 441.04166666667453,
                    "velocity": 0.33070866141732286,
                    "duration": 0.052083333333314386
                },
                {
                    "name": "C#6",
                    "midi": 85,
                    "time": 441.1979166666745,
                    "velocity": 0.6299212598425197,
                    "duration": 0.10000000000002274
                },
                {
                    "name": "G#3",
                    "midi": 56,
                    "time": 441.30208333334116,
                    "velocity": 0.5826771653543307,
                    "duration": 0.22708333333343944
                },
                {
                    "name": "C#4",
                    "midi": 61,
                    "time": 441.35000000000787,
                    "velocity": 0.5748031496062992,
                    "duration": 0.15416666666675383
                },
                {
                    "name": "E4",
                    "midi": 64,
                    "time": 441.4291666666746,
                    "velocity": 0.2992125984251969,
                    "duration": 0.054166666666674246
                },
                {
                    "name": "G#4",
                    "midi": 68,
                    "time": 441.4291666666746,
                    "velocity": 0.6850393700787402,
                    "duration": 0.041666666666685614
                },
                {
                    "name": "B5",
                    "midi": 83,
                    "time": 441.4854166666746,
                    "velocity": 0.5905511811023622,
                    "duration": 0.2125000000000341
                },
                {
                    "name": "C#5",
                    "midi": 73,
                    "time": 441.50208333334126,
                    "velocity": 0.48031496062992124,
                    "duration": 0.09166666666669698
                },
                {
                    "name": "E5",
                    "midi": 76,
                    "time": 441.5166666666746,
                    "velocity": 0.5039370078740157,
                    "duration": 0.20833333333337123
                },
                {
                    "name": "A5",
                    "midi": 81,
                    "time": 441.6916666666746,
                    "velocity": 0.6535433070866141,
                    "duration": 0.36458333333337123
                },
                {
                    "name": "C#2",
                    "midi": 37,
                    "time": 441.7541666666747,
                    "velocity": 0.4566929133858268,
                    "duration": 0.10208333333332575
                },
                {
                    "name": "C#3",
                    "midi": 49,
                    "time": 441.83333333334133,
                    "velocity": 0.6377952755905512,
                    "duration": 0.05833333333333712
                },
                {
                    "name": "B5",
                    "midi": 83,
                    "time": 442.0979166666747,
                    "velocity": 0.5905511811023622,
                    "duration": 0.10208333333332575
                },
                {
                    "name": "F#4",
                    "midi": 66,
                    "time": 442.10208333334134,
                    "velocity": 0.5826771653543307,
                    "duration": 0.08333333333331439
                },
                {
                    "name": "D5",
                    "midi": 74,
                    "time": 442.112500000008,
                    "velocity": 0.4330708661417323,
                    "duration": 0.06041666666664014
                },
                {
                    "name": "E5",
                    "midi": 76,
                    "time": 442.77916666667466,
                    "velocity": 0.4645669291338583,
                    "duration": 0.11458333333337123
                },
                {
                    "name": "A5",
                    "midi": 81,
                    "time": 442.7854166666747,
                    "velocity": 0.3464566929133858,
                    "duration": 0.10208333333332575
                },
                {
                    "name": "B5",
                    "midi": 83,
                    "time": 442.7854166666747,
                    "velocity": 0.5354330708661418,
                    "duration": 0.12083333333333712
                },
                {
                    "name": "F#5",
                    "midi": 78,
                    "time": 443.056250000008,
                    "velocity": 0.7007874015748031,
                    "duration": 0.11250000000001137
                },
                {
                    "name": "G#5",
                    "midi": 80,
                    "time": 443.2541666666747,
                    "velocity": 0.6299212598425197,
                    "duration": 0.0625
                },
                {
                    "name": "B4",
                    "midi": 71,
                    "time": 443.27083333334133,
                    "velocity": 0.5118110236220472,
                    "duration": 0.12291666666669698
                },
                {
                    "name": "D5",
                    "midi": 74,
                    "time": 443.2833333333413,
                    "velocity": 0.47244094488188976,
                    "duration": 0.10416666666668561
                },
                {
                    "name": "F#4",
                    "midi": 66,
                    "time": 443.437500000008,
                    "velocity": 0.7637795275590551,
                    "duration": 0.10208333333332575
                },
                {
                    "name": "A4",
                    "midi": 69,
                    "time": 443.650000000008,
                    "velocity": 0.5275590551181102,
                    "duration": 0.3979166666667311
                },
                {
                    "name": "F#4",
                    "midi": 66,
                    "time": 443.65416666667466,
                    "velocity": 0.7322834645669292,
                    "duration": 0.15833333333335986
                },
                {
                    "name": "B4",
                    "midi": 71,
                    "time": 443.8229166666747,
                    "velocity": 0.7244094488188977,
                    "duration": 0.1708333333333485
                },
                {
                    "name": "G#4",
                    "midi": 68,
                    "time": 444.01458333334136,
                    "velocity": 0.6614173228346457,
                    "duration": 0.0875000000000341
                },
                {
                    "name": "D4",
                    "midi": 62,
                    "time": 444.0416666666747,
                    "velocity": 0.5039370078740157,
                    "duration": 0.05833333333333712
                },
                {
                    "name": "F#5",
                    "midi": 78,
                    "time": 444.04375000000806,
                    "velocity": 0.7244094488188977,
                    "duration": 0.11041666666665151
                },
                {
                    "name": "B5",
                    "midi": 83,
                    "time": 444.2270833333414,
                    "velocity": 0.6614173228346457,
                    "duration": 0.09166666666664014
                },
                {
                    "name": "F#3",
                    "midi": 54,
                    "time": 444.3520833333414,
                    "velocity": 0.5196850393700787,
                    "duration": 0.2645833333333485
                },
                {
                    "name": "B3",
                    "midi": 59,
                    "time": 444.41875000000806,
                    "velocity": 0.25984251968503935,
                    "duration": 0.15416666666669698
                },
                {
                    "name": "D4",
                    "midi": 62,
                    "time": 444.44166666667473,
                    "velocity": 0.4330708661417323,
                    "duration": 0.11458333333337123
                },
                {
                    "name": "F#4",
                    "midi": 66,
                    "time": 444.4750000000081,
                    "velocity": 0.6850393700787402,
                    "duration": 0.07291666666668561
                },
                {
                    "name": "D5",
                    "midi": 74,
                    "time": 444.49791666667477,
                    "velocity": 0.5039370078740157,
                    "duration": 0.1875
                },
                {
                    "name": "A5",
                    "midi": 81,
                    "time": 444.50208333334143,
                    "velocity": 0.6614173228346457,
                    "duration": 0.16041666666666288
                },
                {
                    "name": "B4",
                    "midi": 71,
                    "time": 444.5125000000081,
                    "velocity": 0.4330708661417323,
                    "duration": 0.1312499999999659
                },
                {
                    "name": "G#5",
                    "midi": 80,
                    "time": 444.72083333334143,
                    "velocity": 0.7165354330708661,
                    "duration": 0.24791666666675383
                },
                {
                    "name": "C#2",
                    "midi": 37,
                    "time": 444.8479166666748,
                    "velocity": 0.5748031496062992,
                    "duration": 0.12291666666675383
                },
                {
                    "name": "C#3",
                    "midi": 49,
                    "time": 444.9583333333415,
                    "velocity": 0.5748031496062992,
                    "duration": 0.05000000000006821
                },
                {
                    "name": "A5",
                    "midi": 81,
                    "time": 445.16875000000823,
                    "velocity": 0.6141732283464567,
                    "duration": 0.3083333333333371
                },
                {
                    "name": "C#5",
                    "midi": 73,
                    "time": 445.18750000000824,
                    "velocity": 0.49606299212598426,
                    "duration": 0.36250000000001137
                },
                {
                    "name": "E4",
                    "midi": 64,
                    "time": 445.1979166666749,
                    "velocity": 0.5354330708661418,
                    "duration": 0.5458333333332916
                },
                {
                    "name": "G#5",
                    "midi": 80,
                    "time": 445.45625000000825,
                    "velocity": 0.7401574803149606,
                    "duration": 0.13541666666668561
                },
                {
                    "name": "D4",
                    "midi": 62,
                    "time": 445.68541666667494,
                    "velocity": 0.5984251968503937,
                    "duration": 2.331250000000182
                },
                {
                    "name": "F#5",
                    "midi": 78,
                    "time": 445.7145833333416,
                    "velocity": 0.7244094488188977,
                    "duration": 0.21875
                },
                {
                    "name": "C#5",
                    "midi": 73,
                    "time": 445.7479166666749,
                    "velocity": 0.5039370078740157,
                    "duration": 0.44583333333332575
                },
                {
                    "name": "E5",
                    "midi": 76,
                    "time": 445.91875000000823,
                    "velocity": 0.7165354330708661,
                    "duration": 0.24583333333333712
                },
                {
                    "name": "F#5",
                    "midi": 78,
                    "time": 446.11250000000825,
                    "velocity": 0.7559055118110236,
                    "duration": 0.18124999999997726
                },
                {
                    "name": "E5",
                    "midi": 76,
                    "time": 446.2875000000082,
                    "velocity": 0.7637795275590551,
                    "duration": 0.11458333333337123
                },
                {
                    "name": "D5",
                    "midi": 74,
                    "time": 446.4854166666749,
                    "velocity": 0.7165354330708661,
                    "duration": 0.22083333333335986
                },
                {
                    "name": "B4",
                    "midi": 71,
                    "time": 446.50833333334157,
                    "velocity": 0.5984251968503937,
                    "duration": 0.2125000000000341
                },
                {
                    "name": "C#5",
                    "midi": 73,
                    "time": 446.65625000000824,
                    "velocity": 0.8503937007874016,
                    "duration": 0.21666666666669698
                },
                {
                    "name": "F#4",
                    "midi": 66,
                    "time": 446.94166666667496,
                    "velocity": 0.48031496062992124,
                    "duration": 1.0625000000001705
                },
                {
                    "name": "G#4",
                    "midi": 68,
                    "time": 446.9437500000083,
                    "velocity": 0.5984251968503937,
                    "duration": 0.3562500000001023
                },
                {
                    "name": "B4",
                    "midi": 71,
                    "time": 446.954166666675,
                    "velocity": 0.5669291338582677,
                    "duration": 0.09583333333335986
                },
                {
                    "name": "C#5",
                    "midi": 73,
                    "time": 447.029166666675,
                    "velocity": 0.7716535433070866,
                    "duration": 0.10416666666674246
                },
                {
                    "name": "B4",
                    "midi": 71,
                    "time": 447.12291666667505,
                    "velocity": 0.5748031496062992,
                    "duration": 0.3270833333333485
                },
                {
                    "name": "A4",
                    "midi": 69,
                    "time": 447.4187500000084,
                    "velocity": 0.5905511811023622,
                    "duration": 0.19166666666666288
                },
                {
                    "name": "B4",
                    "midi": 71,
                    "time": 447.5937500000084,
                    "velocity": 0.47244094488188976,
                    "duration": 0.3083333333333371
                },
                {
                    "name": "C#5",
                    "midi": 73,
                    "time": 447.8937500000084,
                    "velocity": 0.5275590551181102,
                    "duration": 0.18750000000005684
                },
                {
                    "name": "C#4",
                    "midi": 61,
                    "time": 447.90208333334175,
                    "velocity": 0.36220472440944884,
                    "duration": 0.19583333333343944
                },
                {
                    "name": "E4",
                    "midi": 64,
                    "time": 447.91041666667513,
                    "velocity": 0.3228346456692913,
                    "duration": 0.17708333333337123
                },
                {
                    "name": "G#4",
                    "midi": 68,
                    "time": 447.91875000000846,
                    "velocity": 0.3700787401574803,
                    "duration": 0.16666666666668561
                },
                {
                    "name": "C#4",
                    "midi": 61,
                    "time": 448.63125000000855,
                    "velocity": 0.6141732283464567,
                    "duration": 0.5750000000000455
                },
                {
                    "name": "A2",
                    "midi": 45,
                    "time": 448.6458333333419,
                    "velocity": 0.4330708661417323,
                    "duration": 0.5145833333332916
                },
                {
                    "name": "F#3",
                    "midi": 54,
                    "time": 448.6541666666752,
                    "velocity": 0.4015748031496063,
                    "duration": 0.17083333333329165
                },
                {
                    "name": "A3",
                    "midi": 57,
                    "time": 448.6708333333419,
                    "velocity": 0.36220472440944884,
                    "duration": 0.345833333333303
                },
                {
                    "name": "D3",
                    "midi": 50,
                    "time": 449.0937500000085,
                    "velocity": 0.3937007874015748,
                    "duration": 0.11041666666670835
                },
                {
                    "name": "E3",
                    "midi": 52,
                    "time": 449.1062500000085,
                    "velocity": 0.3858267716535433,
                    "duration": 0.09166666666669698
                },
                {
                    "name": "G3",
                    "midi": 55,
                    "time": 449.1083333333419,
                    "velocity": 0.4251968503937008,
                    "duration": 0.12708333333335986
                },
                {
                    "name": "A3",
                    "midi": 57,
                    "time": 449.2895833333419,
                    "velocity": 0.3937007874015748,
                    "duration": 0.18541666666664014
                },
                {
                    "name": "A2",
                    "midi": 45,
                    "time": 449.49375000000856,
                    "velocity": 0.5669291338582677,
                    "duration": 0.06666666666666288
                },
                {
                    "name": "B3",
                    "midi": 59,
                    "time": 449.5145833333419,
                    "velocity": 0.5354330708661418,
                    "duration": 0.19999999999998863
                },
                {
                    "name": "E3",
                    "midi": 52,
                    "time": 449.52708333334186,
                    "velocity": 0.1889763779527559,
                    "duration": 0.08333333333337123
                },
                {
                    "name": "G3",
                    "midi": 55,
                    "time": 449.5333333333419,
                    "velocity": 0.25196850393700787,
                    "duration": 0.08541666666667425
                },
                {
                    "name": "C#4",
                    "midi": 61,
                    "time": 449.6770833333419,
                    "velocity": 0.7244094488188977,
                    "duration": 0.12291666666664014
                },
                {
                    "name": "C#2",
                    "midi": 37,
                    "time": 449.8791666666752,
                    "velocity": 0.5905511811023622,
                    "duration": 0.05416666666673109
                },
                {
                    "name": "G#2",
                    "midi": 44,
                    "time": 449.88125000000855,
                    "velocity": 0.6220472440944882,
                    "duration": 0.0708333333333826
                },
                {
                    "name": "C#4",
                    "midi": 61,
                    "time": 449.8958333333419,
                    "velocity": 0.6692913385826772,
                    "duration": 0.0875000000000341
                },
                {
                    "name": "G#3",
                    "midi": 56,
                    "time": 449.89791666667526,
                    "velocity": 0.6614173228346457,
                    "duration": 0.08541666666667425
                },
                {
                    "name": "E3",
                    "midi": 52,
                    "time": 449.90833333334194,
                    "velocity": 0.4330708661417323,
                    "duration": 0.04374999999998863
                },
                {
                    "name": "D3",
                    "midi": 50,
                    "time": 450.3750000000086,
                    "velocity": 0.5669291338582677,
                    "duration": 0.44583333333355313
                },
                {
                    "name": "B4",
                    "midi": 71,
                    "time": 450.37708333334194,
                    "velocity": 0.8110236220472441,
                    "duration": 0.46250000000020464
                },
                {
                    "name": "A4",
                    "midi": 69,
                    "time": 450.38750000000863,
                    "velocity": 0.7086614173228346,
                    "duration": 0.0958333333334167
                },
                {
                    "name": "D4",
                    "midi": 62,
                    "time": 450.3979166666753,
                    "velocity": 0.6456692913385826,
                    "duration": 0.05208333333337123
                },
                {
                    "name": "F#4",
                    "midi": 66,
                    "time": 450.4000000000087,
                    "velocity": 0.7401574803149606,
                    "duration": 0.041666666666685614
                },
                {
                    "name": "G4",
                    "midi": 67,
                    "time": 450.8000000000087,
                    "velocity": 0.6850393700787402,
                    "duration": 0.09791666666671972
                },
                {
                    "name": "G3",
                    "midi": 55,
                    "time": 450.8041666666754,
                    "velocity": 0.6141732283464567,
                    "duration": 0.06041666666669698
                },
                {
                    "name": "C4",
                    "midi": 60,
                    "time": 450.8062500000088,
                    "velocity": 0.6614173228346457,
                    "duration": 0.04583333333334849
                },
                {
                    "name": "E4",
                    "midi": 64,
                    "time": 450.8062500000088,
                    "velocity": 0.6220472440944882,
                    "duration": 0.07083333333332575
                },
                {
                    "name": "G4",
                    "midi": 67,
                    "time": 450.9729166666754,
                    "velocity": 0.47244094488188976,
                    "duration": 0.07916666666665151
                },
                {
                    "name": "A4",
                    "midi": 69,
                    "time": 451.18958333334206,
                    "velocity": 0.8031496062992126,
                    "duration": 0.10416666666674246
                },
                {
                    "name": "D3",
                    "midi": 50,
                    "time": 451.18958333334206,
                    "velocity": 0.6929133858267716,
                    "duration": 0.07500000000010232
                },
                {
                    "name": "F#4",
                    "midi": 66,
                    "time": 451.2083333333421,
                    "velocity": 0.6299212598425197,
                    "duration": 0.06875000000002274
                },
                {
                    "name": "C4",
                    "midi": 60,
                    "time": 451.2104166666755,
                    "velocity": 0.5118110236220472,
                    "duration": 0.041666666666685614
                },
                {
                    "name": "E4",
                    "midi": 64,
                    "time": 451.21250000000884,
                    "velocity": 0.5196850393700787,
                    "duration": 0.04791666666665151
                },
                {
                    "name": "B4",
                    "midi": 71,
                    "time": 451.3770833333421,
                    "velocity": 0.8031496062992126,
                    "duration": 0.125
                },
                {
                    "name": "B2",
                    "midi": 47,
                    "time": 451.5770833333421,
                    "velocity": 0.5590551181102362,
                    "duration": 0.0958333333334167
                },
                {
                    "name": "F#3",
                    "midi": 54,
                    "time": 451.58125000000877,
                    "velocity": 0.7244094488188977,
                    "duration": 0.047916666666765195
                },
                {
                    "name": "B3",
                    "midi": 59,
                    "time": 451.5895833333421,
                    "velocity": 0.6614173228346457,
                    "duration": 0.03750000000007958
                },
                {
                    "name": "B4",
                    "midi": 71,
                    "time": 451.59166666667545,
                    "velocity": 0.84251968503937,
                    "duration": 0.06666666666671972
                },
                {
                    "name": "D4",
                    "midi": 62,
                    "time": 451.5979166666755,
                    "velocity": 0.7874015748031497,
                    "duration": 0.043750000000045475
                },
                {
                    "name": "F#4",
                    "midi": 66,
                    "time": 451.60000000000883,
                    "velocity": 0.7952755905511811,
                    "duration": 0.04583333333334849
                },
                {
                    "name": "C#4",
                    "midi": 61,
                    "time": 452.0520833333422,
                    "velocity": 0.7086614173228346,
                    "duration": 0.48333333333329165
                },
                {
                    "name": "A2",
                    "midi": 45,
                    "time": 452.05625000000884,
                    "velocity": 0.5669291338582677,
                    "duration": 0.44999999999998863
                },
                {
                    "name": "F#3",
                    "midi": 54,
                    "time": 452.07500000000886,
                    "velocity": 0.4330708661417323,
                    "duration": 0.125
                },
                {
                    "name": "A3",
                    "midi": 57,
                    "time": 452.0895833333422,
                    "velocity": 0.4094488188976378,
                    "duration": 0.3291666666666515
                },
                {
                    "name": "D3",
                    "midi": 50,
                    "time": 452.44375000000883,
                    "velocity": 0.6850393700787402,
                    "duration": 0.07083333333332575
                },
                {
                    "name": "G3",
                    "midi": 55,
                    "time": 452.4541666666755,
                    "velocity": 0.6062992125984252,
                    "duration": 0.10416666666662877
                },
                {
                    "name": "E3",
                    "midi": 52,
                    "time": 452.4583333333422,
                    "velocity": 0.6220472440944882,
                    "duration": 0.0687499999999659
                },
                {
                    "name": "A3",
                    "midi": 57,
                    "time": 452.61041666667546,
                    "velocity": 0.7007874015748031,
                    "duration": 0.11458333333331439
                },
                {
                    "name": "B3",
                    "midi": 59,
                    "time": 452.8062500000088,
                    "velocity": 0.8346456692913385,
                    "duration": 0.12291666666669698
                },
                {
                    "name": "G3",
                    "midi": 55,
                    "time": 452.82083333334214,
                    "velocity": 0.7559055118110236,
                    "duration": 0.08333333333337123
                },
                {
                    "name": "A2",
                    "midi": 45,
                    "time": 452.82916666667546,
                    "velocity": 0.6850393700787402,
                    "duration": 0.058333333333393966
                },
                {
                    "name": "E3",
                    "midi": 52,
                    "time": 452.8312500000088,
                    "velocity": 0.6614173228346457,
                    "duration": 0.041666666666685614
                },
                {
                    "name": "C#4",
                    "midi": 61,
                    "time": 452.9875000000088,
                    "velocity": 0.7244094488188977,
                    "duration": 0.11250000000001137
                },
                {
                    "name": "C#4",
                    "midi": 61,
                    "time": 453.21458333334215,
                    "velocity": 0.7401574803149606,
                    "duration": 0.10000000000002274
                },
                {
                    "name": "C#2",
                    "midi": 37,
                    "time": 453.2166666666755,
                    "velocity": 0.5669291338582677,
                    "duration": 0.04583333333334849
                },
                {
                    "name": "G#2",
                    "midi": 44,
                    "time": 453.21875000000887,
                    "velocity": 0.5826771653543307,
                    "duration": 0.04791666666665151
                },
                {
                    "name": "G#3",
                    "midi": 56,
                    "time": 453.22291666667553,
                    "velocity": 0.6692913385826772,
                    "duration": 0.07499999999998863
                },
                {
                    "name": "E3",
                    "midi": 52,
                    "time": 453.2270833333422,
                    "velocity": 0.5118110236220472,
                    "duration": 0.04374999999998863
                },
                {
                    "name": "B4",
                    "midi": 71,
                    "time": 453.6541666666755,
                    "velocity": 0.8818897637795275,
                    "duration": 0.44166666666677656
                },
                {
                    "name": "D3",
                    "midi": 50,
                    "time": 453.6625000000089,
                    "velocity": 0.8582677165354331,
                    "duration": 0.4145833333333826
                },
                {
                    "name": "A4",
                    "midi": 69,
                    "time": 453.6625000000089,
                    "velocity": 0.7795275590551181,
                    "duration": 0.12916666666666288
                },
                {
                    "name": "F#4",
                    "midi": 66,
                    "time": 453.66666666667555,
                    "velocity": 0.8818897637795275,
                    "duration": 0.07708333333334849
                },
                {
                    "name": "D4",
                    "midi": 62,
                    "time": 453.6687500000089,
                    "velocity": 0.8503937007874016,
                    "duration": 0.05624999999997726
                },
                {
                    "name": "G4",
                    "midi": 67,
                    "time": 454.05208333334224,
                    "velocity": 0.7165354330708661,
                    "duration": 0.10625000000004547
                },
                {
                    "name": "G3",
                    "midi": 55,
                    "time": 454.06041666667556,
                    "velocity": 0.7086614173228346,
                    "duration": 0.07291666666668561
                },
                {
                    "name": "C4",
                    "midi": 60,
                    "time": 454.0625000000089,
                    "velocity": 0.7086614173228346,
                    "duration": 0.0625
                },
                {
                    "name": "E4",
                    "midi": 64,
                    "time": 454.0729166666756,
                    "velocity": 0.6456692913385826,
                    "duration": 0.0625
                },
                {
                    "name": "G4",
                    "midi": 67,
                    "time": 454.23541666667563,
                    "velocity": 0.8110236220472441,
                    "duration": 0.08333333333331439
                },
                {
                    "name": "D3",
                    "midi": 50,
                    "time": 454.46250000000896,
                    "velocity": 0.8503937007874016,
                    "duration": 0.09374999999994316
                },
                {
                    "name": "A4",
                    "midi": 69,
                    "time": 454.4666666666756,
                    "velocity": 0.8582677165354331,
                    "duration": 0.10416666666662877
                },
                {
                    "name": "E4",
                    "midi": 64,
                    "time": 454.4708333333423,
                    "velocity": 0.8188976377952756,
                    "duration": 0.0854166666666174
                },
                {
                    "name": "C4",
                    "midi": 60,
                    "time": 454.47500000000895,
                    "velocity": 0.7952755905511811,
                    "duration": 0.0541666666666174
                },
                {
                    "name": "G4",
                    "midi": 67,
                    "time": 454.5041666666756,
                    "velocity": 0.41732283464566927,
                    "duration": 0.05833333333333712
                },
                {
                    "name": "B4",
                    "midi": 71,
                    "time": 454.67500000000894,
                    "velocity": 0.889763779527559,
                    "duration": 0.11458333333331439
                },
                {
                    "name": "B2",
                    "midi": 47,
                    "time": 454.8791666666756,
                    "velocity": 0.5590551181102362,
                    "duration": 0.1104166666667652
                },
                {
                    "name": "F#3",
                    "midi": 54,
                    "time": 454.90416666667556,
                    "velocity": 0.84251968503937,
                    "duration": 0.06041666666675383
                },
                {
                    "name": "B4",
                    "midi": 71,
                    "time": 454.9083333333422,
                    "velocity": 0.889763779527559,
                    "duration": 0.07500000000010232
                },
                {
                    "name": "F#4",
                    "midi": 66,
                    "time": 454.9104166666756,
                    "velocity": 0.889763779527559,
                    "duration": 0.058333333333393966
                },
                {
                    "name": "B3",
                    "midi": 59,
                    "time": 454.91458333334225,
                    "velocity": 0.7952755905511811,
                    "duration": 0.033333333333416704
                },
                {
                    "name": "D4",
                    "midi": 62,
                    "time": 454.9166666666756,
                    "velocity": 0.8740157480314961,
                    "duration": 0.05416666666673109
                },
                {
                    "name": "B0",
                    "midi": 23,
                    "time": 455.43750000000904,
                    "velocity": 0.7874015748031497,
                    "duration": 0.06875000000002274
                },
                {
                    "name": "F#4",
                    "midi": 66,
                    "time": 455.4395833333424,
                    "velocity": 0.8346456692913385,
                    "duration": 0.6270833333334167
                },
                {
                    "name": "B1",
                    "midi": 35,
                    "time": 455.44375000000906,
                    "velocity": 0.6299212598425197,
                    "duration": 0.0625
                },
                {
                    "name": "D4",
                    "midi": 62,
                    "time": 455.4500000000091,
                    "velocity": 0.7244094488188977,
                    "duration": 0.5812500000000682
                },
                {
                    "name": "B3",
                    "midi": 59,
                    "time": 455.4583333333424,
                    "velocity": 0.6220472440944882,
                    "duration": 0.21041666666667425
                },
                {
                    "name": "C#2",
                    "midi": 37,
                    "time": 455.7625000000091,
                    "velocity": 0.7480314960629921,
                    "duration": 0.08125000000001137
                },
                {
                    "name": "C#1",
                    "midi": 25,
                    "time": 455.76666666667575,
                    "velocity": 0.7007874015748031,
                    "duration": 0.12291666666669698
                },
                {
                    "name": "C#4",
                    "midi": 61,
                    "time": 456.00208333334245,
                    "velocity": 0.7559055118110236,
                    "duration": 0.07708333333340533
                },
                {
                    "name": "A3",
                    "midi": 57,
                    "time": 456.0041666666758,
                    "velocity": 0.6535433070866141,
                    "duration": 0.04583333333334849
                },
                {
                    "name": "D2",
                    "midi": 38,
                    "time": 456.0083333333425,
                    "velocity": 0.5984251968503937,
                    "duration": 0.06041666666669698
                },
                {
                    "name": "D1",
                    "midi": 26,
                    "time": 456.0229166666758,
                    "velocity": 0.3779527559055118,
                    "duration": 0.04374999999998863
                },
                {
                    "name": "E2",
                    "midi": 40,
                    "time": 456.2104166666759,
                    "velocity": 0.8110236220472441,
                    "duration": 0.06458333333335986
                },
                {
                    "name": "E1",
                    "midi": 28,
                    "time": 456.21250000000924,
                    "velocity": 0.84251968503937,
                    "duration": 0.054166666666674246
                },
                {
                    "name": "F#1",
                    "midi": 30,
                    "time": 456.42083333334256,
                    "velocity": 0.7637795275590551,
                    "duration": 0.08125000000006821
                },
                {
                    "name": "A4",
                    "midi": 69,
                    "time": 456.42083333334256,
                    "velocity": 0.8582677165354331,
                    "duration": 0.4229166666666515
                },
                {
                    "name": "F#2",
                    "midi": 42,
                    "time": 456.4229166666759,
                    "velocity": 0.7952755905511811,
                    "duration": 0.06666666666671972
                },
                {
                    "name": "F#4",
                    "midi": 66,
                    "time": 456.4250000000093,
                    "velocity": 0.84251968503937,
                    "duration": 0.14999999999997726
                },
                {
                    "name": "D4",
                    "midi": 62,
                    "time": 456.42708333334264,
                    "velocity": 0.84251968503937,
                    "duration": 0.08749999999997726
                },
                {
                    "name": "G2",
                    "midi": 43,
                    "time": 456.6125000000092,
                    "velocity": 0.7322834645669292,
                    "duration": 0.07291666666668561
                },
                {
                    "name": "G1",
                    "midi": 31,
                    "time": 456.61875000000924,
                    "velocity": 0.7007874015748031,
                    "duration": 0.054166666666674246
                },
                {
                    "name": "E4",
                    "midi": 64,
                    "time": 456.81666666667587,
                    "velocity": 0.6377952755905512,
                    "duration": 0.07916666666665151
                },
                {
                    "name": "C#4",
                    "midi": 61,
                    "time": 456.81875000000923,
                    "velocity": 0.5984251968503937,
                    "duration": 0.049999999999954525
                },
                {
                    "name": "A2",
                    "midi": 45,
                    "time": 456.8229166666759,
                    "velocity": 0.8110236220472441,
                    "duration": 0.06458333333330302
                },
                {
                    "name": "A1",
                    "midi": 33,
                    "time": 456.82708333334256,
                    "velocity": 0.84251968503937,
                    "duration": 0.052083333333314386
                },
                {
                    "name": "B2",
                    "midi": 47,
                    "time": 456.99583333334255,
                    "velocity": 0.7244094488188977,
                    "duration": 0.06666666666666288
                },
                {
                    "name": "B1",
                    "midi": 35,
                    "time": 457.0000000000092,
                    "velocity": 0.7795275590551181,
                    "duration": 0.03541666666666288
                },
                {
                    "name": "C#2",
                    "midi": 37,
                    "time": 457.2083333333426,
                    "velocity": 0.8582677165354331,
                    "duration": 0.07708333333346218
                },
                {
                    "name": "C#3",
                    "midi": 49,
                    "time": 457.2083333333426,
                    "velocity": 0.9133858267716536,
                    "duration": 0.07916666666682204
                },
                {
                    "name": "C#5",
                    "midi": 73,
                    "time": 457.21041666667594,
                    "velocity": 0.8976377952755905,
                    "duration": 0.44166666666689025
                },
                {
                    "name": "F#4",
                    "midi": 66,
                    "time": 457.21666666667596,
                    "velocity": 0.8582677165354331,
                    "duration": 0.14375000000012506
                },
                {
                    "name": "A4",
                    "midi": 69,
                    "time": 457.2187500000093,
                    "velocity": 0.7637795275590551,
                    "duration": 0.3291666666667652
                },
                {
                    "name": "D3",
                    "midi": 50,
                    "time": 457.38333333334276,
                    "velocity": 0.7874015748031497,
                    "duration": 0.07291666666668561
                },
                {
                    "name": "D2",
                    "midi": 38,
                    "time": 457.3854166666761,
                    "velocity": 0.7637795275590551,
                    "duration": 0.06458333333330302
                },
                {
                    "name": "G4",
                    "midi": 67,
                    "time": 457.5895833333428,
                    "velocity": 0.6535433070866141,
                    "duration": 0.0645833333334167
                },
                {
                    "name": "E3",
                    "midi": 52,
                    "time": 457.5958333333428,
                    "velocity": 0.8031496062992126,
                    "duration": 0.06041666666675383
                },
                {
                    "name": "E2",
                    "midi": 40,
                    "time": 457.5958333333428,
                    "velocity": 0.8031496062992126,
                    "duration": 0.056250000000034106
                },
                {
                    "name": "E4",
                    "midi": 64,
                    "time": 457.59791666667616,
                    "velocity": 0.5748031496062992,
                    "duration": 0.041666666666685614
                },
                {
                    "name": "F#3",
                    "midi": 54,
                    "time": 457.7854166666762,
                    "velocity": 0.937007874015748,
                    "duration": 0.0708333333333826
                },
                {
                    "name": "F#2",
                    "midi": 42,
                    "time": 457.79166666667624,
                    "velocity": 0.8818897637795275,
                    "duration": 0.054166666666674246
                },
                {
                    "name": "F#5",
                    "midi": 78,
                    "time": 457.97916666667624,
                    "velocity": 0.8661417322834646,
                    "duration": 0.6479166666668448
                },
                {
                    "name": "D5",
                    "midi": 74,
                    "time": 457.98541666667626,
                    "velocity": 0.7874015748031497,
                    "duration": 0.372916666666697
                },
                {
                    "name": "B4",
                    "midi": 71,
                    "time": 457.9875000000096,
                    "velocity": 0.7795275590551181,
                    "duration": 0.13750000000004547
                },
                {
                    "name": "G3",
                    "midi": 55,
                    "time": 457.9979166666763,
                    "velocity": 0.84251968503937,
                    "duration": 0.0708333333333826
                },
                {
                    "name": "G2",
                    "midi": 43,
                    "time": 458.00000000000966,
                    "velocity": 0.8110236220472441,
                    "duration": 0.06666666666666288
                },
                {
                    "name": "A3",
                    "midi": 57,
                    "time": 458.1729166666763,
                    "velocity": 0.8110236220472441,
                    "duration": 0.07499999999998863
                },
                {
                    "name": "A2",
                    "midi": 45,
                    "time": 458.177083333343,
                    "velocity": 0.8110236220472441,
                    "duration": 0.06666666666666288
                },
                {
                    "name": "C#5",
                    "midi": 73,
                    "time": 458.37708333334297,
                    "velocity": 0.8188976377952756,
                    "duration": 0.1437500000000682
                },
                {
                    "name": "A4",
                    "midi": 69,
                    "time": 458.3854166666763,
                    "velocity": 0.7637795275590551,
                    "duration": 0.11875000000009095
                },
                {
                    "name": "B3",
                    "midi": 59,
                    "time": 458.3854166666763,
                    "velocity": 0.8503937007874016,
                    "duration": 0.06875000000007958
                },
                {
                    "name": "B2",
                    "midi": 47,
                    "time": 458.38750000000965,
                    "velocity": 0.8582677165354331,
                    "duration": 0.06458333333335986
                },
                {
                    "name": "C#4",
                    "midi": 61,
                    "time": 458.58958333334306,
                    "velocity": 0.9133858267716536,
                    "duration": 0.07500000000004547
                },
                {
                    "name": "C#3",
                    "midi": 49,
                    "time": 458.5937500000097,
                    "velocity": 0.905511811023622,
                    "duration": 0.06458333333335986
                },
                {
                    "name": "F#5",
                    "midi": 78,
                    "time": 458.7875000000098,
                    "velocity": 0.8346456692913385,
                    "duration": 0.7583333333334963
                },
                {
                    "name": "B4",
                    "midi": 71,
                    "time": 458.78958333334316,
                    "velocity": 0.8031496062992126,
                    "duration": 0.23125000000004547
                },
                {
                    "name": "D5",
                    "midi": 74,
                    "time": 458.7937500000098,
                    "velocity": 0.7401574803149606,
                    "duration": 0.22083333333335986
                },
                {
                    "name": "G4",
                    "midi": 67,
                    "time": 458.7979166666765,
                    "velocity": 0.8031496062992126,
                    "duration": 0.19375000000002274
                },
                {
                    "name": "D4",
                    "midi": 62,
                    "time": 458.81458333334314,
                    "velocity": 0.84251968503937,
                    "duration": 0.06458333333335986
                },
                {
                    "name": "D3",
                    "midi": 50,
                    "time": 458.8166666666765,
                    "velocity": 0.8740157480314961,
                    "duration": 0.06666666666666288
                },
                {
                    "name": "E4",
                    "midi": 64,
                    "time": 459.01875000000985,
                    "velocity": 0.8818897637795275,
                    "duration": 0.08333333333337123
                },
                {
                    "name": "E3",
                    "midi": 52,
                    "time": 459.0208333333432,
                    "velocity": 0.8503937007874016,
                    "duration": 0.06666666666666288
                },
                {
                    "name": "C#5",
                    "midi": 73,
                    "time": 459.3229166666765,
                    "velocity": 0.9291338582677166,
                    "duration": 0.21666666666675383
                },
                {
                    "name": "A4",
                    "midi": 69,
                    "time": 459.3250000000099,
                    "velocity": 0.8582677165354331,
                    "duration": 0.20208333333340533
                },
                {
                    "name": "F#4",
                    "midi": 66,
                    "time": 459.3312500000099,
                    "velocity": 0.9448818897637795,
                    "duration": 0.6895833333333599
                },
                {
                    "name": "F#3",
                    "midi": 54,
                    "time": 459.33333333334326,
                    "velocity": 0.8976377952755905,
                    "duration": 0.7229166666666629
                },
                {
                    "name": "A5",
                    "midi": 81,
                    "time": 459.92500000000996,
                    "velocity": 0.9763779527559056,
                    "duration": 0.4874999999999545
                },
                {
                    "name": "B3",
                    "midi": 59,
                    "time": 460.4145833333433,
                    "velocity": 0.9291338582677166,
                    "duration": 0.19791666666668561
                },
                {
                    "name": "B2",
                    "midi": 47,
                    "time": 460.41875000000994,
                    "velocity": 0.8818897637795275,
                    "duration": 0.1395833333333485
                },
                {
                    "name": "D5",
                    "midi": 74,
                    "time": 460.4208333333433,
                    "velocity": 0.8031496062992126,
                    "duration": 0.3062500000000341
                },
                {
                    "name": "A4",
                    "midi": 69,
                    "time": 460.42500000000996,
                    "velocity": 0.7086614173228346,
                    "duration": 0.16041666666666288
                },
                {
                    "name": "G5",
                    "midi": 79,
                    "time": 460.6583333333433,
                    "velocity": 0.8976377952755905,
                    "duration": 0.19791666666668561
                },
                {
                    "name": "G4",
                    "midi": 67,
                    "time": 460.94791666667663,
                    "velocity": 0.8976377952755905,
                    "duration": 0.06041666666669698
                },
                {
                    "name": "F#5",
                    "midi": 78,
                    "time": 460.94791666667663,
                    "velocity": 0.889763779527559,
                    "duration": 0.2270833333333826
                },
                {
                    "name": "E4",
                    "midi": 64,
                    "time": 460.95416666667666,
                    "velocity": 0.8818897637795275,
                    "duration": 0.15416666666669698
                },
                {
                    "name": "E3",
                    "midi": 52,
                    "time": 460.9583333333433,
                    "velocity": 0.8110236220472441,
                    "duration": 0.20625000000001137
                },
                {
                    "name": "D5",
                    "midi": 74,
                    "time": 460.9708333333433,
                    "velocity": 0.7244094488188977,
                    "duration": 0.18958333333335986
                },
                {
                    "name": "E5",
                    "midi": 76,
                    "time": 461.18750000001,
                    "velocity": 0.7401574803149606,
                    "duration": 0.31041666666681067
                },
                {
                    "name": "F#5",
                    "midi": 78,
                    "time": 461.4354166666767,
                    "velocity": 0.889763779527559,
                    "duration": 0.2750000000001478
                },
                {
                    "name": "F#2",
                    "midi": 42,
                    "time": 461.43750000001006,
                    "velocity": 0.7795275590551181,
                    "duration": 0.06875000000007958
                },
                {
                    "name": "A4",
                    "midi": 69,
                    "time": 461.4437500000101,
                    "velocity": 0.7874015748031497,
                    "duration": 0.1437500000000682
                },
                {
                    "name": "F#3",
                    "midi": 54,
                    "time": 461.44583333334344,
                    "velocity": 0.8582677165354331,
                    "duration": 0.09375000000005684
                },
                {
                    "name": "C#5",
                    "midi": 73,
                    "time": 461.45208333334347,
                    "velocity": 0.7322834645669292,
                    "duration": 0.25000000000005684
                },
                {
                    "name": "G5",
                    "midi": 79,
                    "time": 461.6520833333435,
                    "velocity": 0.8661417322834646,
                    "duration": 0.15833333333335986
                },
                {
                    "name": "B3",
                    "midi": 59,
                    "time": 461.8479166666769,
                    "velocity": 0.6614173228346457,
                    "duration": 0.14583333333337123
                },
                {
                    "name": "D4",
                    "midi": 62,
                    "time": 461.86458333334355,
                    "velocity": 0.6220472440944882,
                    "duration": 0.11041666666670835
                },
                {
                    "name": "F4",
                    "midi": 65,
                    "time": 461.8687500000102,
                    "velocity": 0.7559055118110236,
                    "duration": 0.09166666666669698
                },
                {
                    "name": "F#4",
                    "midi": 66,
                    "time": 461.87500000001023,
                    "velocity": 0.8818897637795275,
                    "duration": 0.1958333333333826
                },
                {
                    "name": "A5",
                    "midi": 81,
                    "time": 461.8791666666769,
                    "velocity": 0.84251968503937,
                    "duration": 0.08333333333337123
                },
                {
                    "name": "B5",
                    "midi": 83,
                    "time": 462.04791666667694,
                    "velocity": 0.8740157480314961,
                    "duration": 0.08958333333333712
                },
                {
                    "name": "A3",
                    "midi": 57,
                    "time": 462.24375000001027,
                    "velocity": 0.6220472440944882,
                    "duration": 0.08750000000009095
                },
                {
                    "name": "C#4",
                    "midi": 61,
                    "time": 462.2583333333436,
                    "velocity": 0.8267716535433071,
                    "duration": 0.06875000000002274
                },
                {
                    "name": "F#4",
                    "midi": 66,
                    "time": 462.2583333333436,
                    "velocity": 0.8582677165354331,
                    "duration": 0.08541666666673109
                },
                {
                    "name": "C#6",
                    "midi": 85,
                    "time": 462.260416666677,
                    "velocity": 0.9448818897637795,
                    "duration": 0.08958333333339397
                },
                {
                    "name": "C#6",
                    "midi": 85,
                    "time": 462.67500000001036,
                    "velocity": 0.952755905511811,
                    "duration": 0.6916666666667766
                },
                {
                    "name": "F#4",
                    "midi": 66,
                    "time": 462.6770833333437,
                    "velocity": 0.905511811023622,
                    "duration": 0.4020833333333371
                },
                {
                    "name": "B3",
                    "midi": 59,
                    "time": 462.6958333333437,
                    "velocity": 0.5984251968503937,
                    "duration": 0.2916666666666856
                },
                {
                    "name": "G3",
                    "midi": 55,
                    "time": 462.70416666667705,
                    "velocity": 0.2283464566929134,
                    "duration": 0.30416666666667425
                },
                {
                    "name": "D4",
                    "midi": 62,
                    "time": 462.7104166666771,
                    "velocity": 0.6771653543307087,
                    "duration": 0.31041666666664014
                },
                {
                    "name": "F#4",
                    "midi": 66,
                    "time": 463.1562500000104,
                    "velocity": 0.7952755905511811,
                    "duration": 0.3562500000001023
                },
                {
                    "name": "A3",
                    "midi": 57,
                    "time": 463.1666666666771,
                    "velocity": 0.6141732283464567,
                    "duration": 0.29166666666674246
                },
                {
                    "name": "C#4",
                    "midi": 61,
                    "time": 463.17083333334375,
                    "velocity": 0.8110236220472441,
                    "duration": 0.3250000000001023
                },
                {
                    "name": "F#3",
                    "midi": 54,
                    "time": 463.17083333334375,
                    "velocity": 0.7559055118110236,
                    "duration": 0.28125000000005684
                },
                {
                    "name": "A5",
                    "midi": 81,
                    "time": 463.4104166666771,
                    "velocity": 0.7165354330708661,
                    "duration": 0.3000000000000682
                },
                {
                    "name": "F#5",
                    "midi": 78,
                    "time": 463.66458333334384,
                    "velocity": 0.8503937007874016,
                    "duration": 0.2583333333333826
                },
                {
                    "name": "A4",
                    "midi": 69,
                    "time": 463.6750000000105,
                    "velocity": 0.7007874015748031,
                    "duration": 0.4729166666667197
                },
                {
                    "name": "C#5",
                    "midi": 73,
                    "time": 463.85833333334386,
                    "velocity": 0.8582677165354331,
                    "duration": 0.18958333333335986
                },
                {
                    "name": "B3",
                    "midi": 59,
                    "time": 464.04583333334386,
                    "velocity": 0.5669291338582677,
                    "duration": 1.2166666666668107
                },
                {
                    "name": "D4",
                    "midi": 62,
                    "time": 464.0500000000106,
                    "velocity": 0.6456692913385826,
                    "duration": 0.24583333333333712
                },
                {
                    "name": "D5",
                    "midi": 74,
                    "time": 464.0687500000106,
                    "velocity": 0.7244094488188977,
                    "duration": 0.9083333333333599
                },
                {
                    "name": "G#4",
                    "midi": 68,
                    "time": 464.2770833333439,
                    "velocity": 0.6929133858267716,
                    "duration": 0.28125
                },
                {
                    "name": "F#4",
                    "midi": 66,
                    "time": 464.4687500000106,
                    "velocity": 0.7795275590551181,
                    "duration": 0.20833333333337123
                },
                {
                    "name": "E4",
                    "midi": 64,
                    "time": 464.6312500000106,
                    "velocity": 0.7874015748031497,
                    "duration": 0.28750000000002274
                },
                {
                    "name": "F#4",
                    "midi": 66,
                    "time": 464.84583333334393,
                    "velocity": 0.905511811023622,
                    "duration": 0.18541666666669698
                },
                {
                    "name": "E5",
                    "midi": 76,
                    "time": 465.02083333334394,
                    "velocity": 0.8976377952755905,
                    "duration": 0.20625000000001137
                },
                {
                    "name": "G#4",
                    "midi": 68,
                    "time": 465.23750000001064,
                    "velocity": 0.8346456692913385,
                    "duration": 0.08333333333337123
                },
                {
                    "name": "F#5",
                    "midi": 78,
                    "time": 465.24583333334397,
                    "velocity": 0.8818897637795275,
                    "duration": 0.23541666666670835
                },
                {
                    "name": "G#5",
                    "midi": 80,
                    "time": 465.41041666667735,
                    "velocity": 0.889763779527559,
                    "duration": 0.27500000000009095
                },
                {
                    "name": "E3",
                    "midi": 52,
                    "time": 465.67083333334404,
                    "velocity": 0.7244094488188977,
                    "duration": 0.08750000000009095
                },
                {
                    "name": "D4",
                    "midi": 62,
                    "time": 465.67708333334406,
                    "velocity": 0.7244094488188977,
                    "duration": 0.07916666666670835
                },
                {
                    "name": "B5",
                    "midi": 83,
                    "time": 465.6833333333441,
                    "velocity": 0.7007874015748031,
                    "duration": 0.2104166666667311
                },
                {
                    "name": "G#5",
                    "midi": 80,
                    "time": 465.8937500000108,
                    "velocity": 0.7401574803149606,
                    "duration": 0.2541666666666629
                },
                {
                    "name": "G#4",
                    "midi": 68,
                    "time": 466.1229166666775,
                    "velocity": 0.6929133858267716,
                    "duration": 0.5208333333333712
                },
                {
                    "name": "E5",
                    "midi": 76,
                    "time": 466.1312500000108,
                    "velocity": 0.6929133858267716,
                    "duration": 0.18541666666664014
                },
                {
                    "name": "B4",
                    "midi": 71,
                    "time": 466.3000000000108,
                    "velocity": 0.7401574803149606,
                    "duration": 0.28750000000002274
                },
                {
                    "name": "C#4",
                    "midi": 61,
                    "time": 466.4875000000108,
                    "velocity": 0.5590551181102362,
                    "duration": 0.45208333333340533
                },
                {
                    "name": "A3",
                    "midi": 57,
                    "time": 466.49375000001083,
                    "velocity": 0.4251968503937008,
                    "duration": 0.5562500000000341
                },
                {
                    "name": "C#5",
                    "midi": 73,
                    "time": 466.5395833333442,
                    "velocity": 0.7952755905511811,
                    "duration": 0.8812500000000227
                },
                {
                    "name": "F#4",
                    "midi": 66,
                    "time": 466.76875000001087,
                    "velocity": 0.7244094488188977,
                    "duration": 0.19791666666668561
                },
                {
                    "name": "E4",
                    "midi": 64,
                    "time": 466.9500000000109,
                    "velocity": 0.7165354330708661,
                    "duration": 0.21874999999994316
                },
                {
                    "name": "A3",
                    "midi": 57,
                    "time": 467.1104166666775,
                    "velocity": 0.13385826771653545,
                    "duration": 0.3479166666667197
                },
                {
                    "name": "D4",
                    "midi": 62,
                    "time": 467.11875000001083,
                    "velocity": 0.7952755905511811,
                    "duration": 0.2541666666667197
                },
                {
                    "name": "E4",
                    "midi": 64,
                    "time": 467.3083333333442,
                    "velocity": 0.8582677165354331,
                    "duration": 0.18541666666669698
                },
                {
                    "name": "D5",
                    "midi": 74,
                    "time": 467.48541666667757,
                    "velocity": 0.7952755905511811,
                    "duration": 0.23749999999995453
                },
                {
                    "name": "F#4",
                    "midi": 66,
                    "time": 467.69791666667754,
                    "velocity": 0.8267716535433071,
                    "duration": 0.09166666666664014
                },
                {
                    "name": "E5",
                    "midi": 76,
                    "time": 467.71041666667753,
                    "velocity": 0.8503937007874016,
                    "duration": 0.21874999999994316
                },
                {
                    "name": "F#5",
                    "midi": 78,
                    "time": 467.8729166666775,
                    "velocity": 0.84251968503937,
                    "duration": 0.2666666666666515
                },
                {
                    "name": "D3",
                    "midi": 50,
                    "time": 468.0833333333441,
                    "velocity": 0.6456692913385826,
                    "duration": 0.07500000000004547
                },
                {
                    "name": "A5",
                    "midi": 81,
                    "time": 468.0937500000108,
                    "velocity": 0.7401574803149606,
                    "duration": 0.1875
                },
                {
                    "name": "C#4",
                    "midi": 61,
                    "time": 468.09583333334416,
                    "velocity": 0.7007874015748031,
                    "duration": 0.08958333333333712
                },
                {
                    "name": "F#5",
                    "midi": 78,
                    "time": 468.2687500000108,
                    "velocity": 0.7637795275590551,
                    "duration": 0.24791666666669698
                },
                {
                    "name": "F#4",
                    "midi": 66,
                    "time": 468.4812500000108,
                    "velocity": 0.7874015748031497,
                    "duration": 0.5375000000000227
                },
                {
                    "name": "D5",
                    "midi": 74,
                    "time": 468.48333333334415,
                    "velocity": 0.7086614173228346,
                    "duration": 0.17291666666670835
                },
                {
                    "name": "A4",
                    "midi": 69,
                    "time": 468.6541666666775,
                    "velocity": 0.7007874015748031,
                    "duration": 0.2666666666666515
                },
                {
                    "name": "B4",
                    "midi": 71,
                    "time": 468.8833333333442,
                    "velocity": 0.7165354330708661,
                    "duration": 0.6520833333332803
                },
                {
                    "name": "G#3",
                    "midi": 56,
                    "time": 468.89583333334417,
                    "velocity": 0.4409448818897638,
                    "duration": 0.9333333333333371
                },
                {
                    "name": "B3",
                    "midi": 59,
                    "time": 468.90000000001083,
                    "velocity": 0.49606299212598426,
                    "duration": 0.2708333333333144
                },
                {
                    "name": "E4",
                    "midi": 64,
                    "time": 469.1479166666775,
                    "velocity": 0.6614173228346457,
                    "duration": 0.25833333333332575
                },
                {
                    "name": "D4",
                    "midi": 62,
                    "time": 469.35833333334415,
                    "velocity": 0.7165354330708661,
                    "duration": 0.20208333333329165
                },
                {
                    "name": "C#4",
                    "midi": 61,
                    "time": 469.5125000000108,
                    "velocity": 0.8346456692913385,
                    "duration": 0.26666666666670835
                },
                {
                    "name": "D4",
                    "midi": 62,
                    "time": 469.7416666666775,
                    "velocity": 0.84251968503937,
                    "duration": 0.12083333333339397
                },
                {
                    "name": "C#5",
                    "midi": 73,
                    "time": 469.95000000001085,
                    "velocity": 0.8661417322834646,
                    "duration": 0.4312500000000341
                },
                {
                    "name": "G#4",
                    "midi": 68,
                    "time": 470.21250000001083,
                    "velocity": 0.8503937007874016,
                    "duration": 0.0625
                },
                {
                    "name": "B4",
                    "midi": 71,
                    "time": 470.2229166666775,
                    "velocity": 0.7401574803149606,
                    "duration": 0.14583333333337123
                },
                {
                    "name": "D5",
                    "midi": 74,
                    "time": 470.2229166666775,
                    "velocity": 0.7244094488188977,
                    "duration": 0.1875
                },
                {
                    "name": "G#3",
                    "midi": 56,
                    "time": 470.2270833333442,
                    "velocity": 0.6929133858267716,
                    "duration": 0.06666666666666288
                },
                {
                    "name": "F#4",
                    "midi": 66,
                    "time": 470.23125000001085,
                    "velocity": 0.8110236220472441,
                    "duration": 0.12708333333335986
                },
                {
                    "name": "E5",
                    "midi": 76,
                    "time": 470.43750000001086,
                    "velocity": 0.84251968503937,
                    "duration": 0.13333333333332575
                },
                {
                    "name": "A3",
                    "midi": 57,
                    "time": 470.7083333333442,
                    "velocity": 0.8110236220472441,
                    "duration": 0.17083333333340533
                },
                {
                    "name": "A2",
                    "midi": 45,
                    "time": 470.7104166666776,
                    "velocity": 0.8031496062992126,
                    "duration": 0.1500000000000341
                },
                {
                    "name": "F#5",
                    "midi": 78,
                    "time": 470.7208333333443,
                    "velocity": 0.8818897637795275,
                    "duration": 0.20833333333337123
                },
                {
                    "name": "F#4",
                    "midi": 66,
                    "time": 470.72291666667763,
                    "velocity": 0.889763779527559,
                    "duration": 0.07708333333334849
                },
                {
                    "name": "C#5",
                    "midi": 73,
                    "time": 470.72916666667766,
                    "velocity": 0.7795275590551181,
                    "duration": 0.14583333333331439
                },
                {
                    "name": "E5",
                    "midi": 76,
                    "time": 471.03125000001097,
                    "velocity": 0.7244094488188977,
                    "duration": 0.25833333333332575
                },
                {
                    "name": "F#5",
                    "midi": 78,
                    "time": 471.2354166666776,
                    "velocity": 0.889763779527559,
                    "duration": 0.22916666666668561
                },
                {
                    "name": "G#5",
                    "midi": 80,
                    "time": 471.41666666667766,
                    "velocity": 0.84251968503937,
                    "duration": 0.13333333333332575
                },
                {
                    "name": "A5",
                    "midi": 81,
                    "time": 471.60416666667766,
                    "velocity": 0.8818897637795275,
                    "duration": 0.24583333333333712
                },
                {
                    "name": "F#5",
                    "midi": 78,
                    "time": 471.78958333334435,
                    "velocity": 0.84251968503937,
                    "duration": 0.12916666666666288
                },
                {
                    "name": "G#5",
                    "midi": 80,
                    "time": 471.793750000011,
                    "velocity": 0.905511811023622,
                    "duration": 0.1812500000000341
                },
                {
                    "name": "D5",
                    "midi": 74,
                    "time": 471.80208333334434,
                    "velocity": 0.6614173228346457,
                    "duration": 0.1708333333333485
                },
                {
                    "name": "A5",
                    "midi": 81,
                    "time": 472.0020833333444,
                    "velocity": 0.8740157480314961,
                    "duration": 0.12083333333333712
                },
                {
                    "name": "C#5",
                    "midi": 73,
                    "time": 472.0145833333444,
                    "velocity": 0.7637795275590551,
                    "duration": 0.14583333333337123
                },
                {
                    "name": "E5",
                    "midi": 76,
                    "time": 472.0229166666777,
                    "velocity": 0.7637795275590551,
                    "duration": 0.12291666666669698
                },
                {
                    "name": "D5",
                    "midi": 74,
                    "time": 472.19166666667775,
                    "velocity": 0.7559055118110236,
                    "duration": 0.22500000000007958
                },
                {
                    "name": "B4",
                    "midi": 71,
                    "time": 472.1958333333444,
                    "velocity": 0.7165354330708661,
                    "duration": 0.17083333333340533
                },
                {
                    "name": "B5",
                    "midi": 83,
                    "time": 472.2062500000111,
                    "velocity": 0.7637795275590551,
                    "duration": 0.15625000000005684
                },
                {
                    "name": "F#5",
                    "midi": 78,
                    "time": 472.22083333334444,
                    "velocity": 0.8110236220472441,
                    "duration": 0.12083333333333712
                },
                {
                    "name": "A4",
                    "midi": 69,
                    "time": 472.39583333334446,
                    "velocity": 0.7007874015748031,
                    "duration": 0.09166666666669698
                },
                {
                    "name": "C#5",
                    "midi": 73,
                    "time": 472.3979166666778,
                    "velocity": 0.8267716535433071,
                    "duration": 0.09166666666669698
                },
                {
                    "name": "C#6",
                    "midi": 85,
                    "time": 472.40416666667784,
                    "velocity": 0.8976377952755905,
                    "duration": 0.12083333333333712
                },
                {
                    "name": "C#6",
                    "midi": 85,
                    "time": 472.59166666667784,
                    "velocity": 0.7637795275590551,
                    "duration": 0.17500000000001137
                },
                {
                    "name": "G#5",
                    "midi": 80,
                    "time": 472.8125000000112,
                    "velocity": 0.9133858267716536,
                    "duration": 0.058333333333393966
                },
                {
                    "name": "G#4",
                    "midi": 68,
                    "time": 472.81458333334456,
                    "velocity": 0.8267716535433071,
                    "duration": 0.06666666666671972
                },
                {
                    "name": "D6",
                    "midi": 86,
                    "time": 472.8187500000113,
                    "velocity": 0.8503937007874016,
                    "duration": 0.08958333333333712
                },
                {
                    "name": "B5",
                    "midi": 83,
                    "time": 472.8187500000113,
                    "velocity": 0.7795275590551181,
                    "duration": 0.06875000000002274
                },
                {
                    "name": "F#5",
                    "midi": 78,
                    "time": 472.8270833333446,
                    "velocity": 0.7874015748031497,
                    "duration": 0.039583333333325754
                },
                {
                    "name": "E6",
                    "midi": 88,
                    "time": 473.004166666678,
                    "velocity": 0.8503937007874016,
                    "duration": 0.09583333333335986
                },
                {
                    "name": "A4",
                    "midi": 69,
                    "time": 473.204166666678,
                    "velocity": 0.8818897637795275,
                    "duration": 0.07708333333334849
                },
                {
                    "name": "A3",
                    "midi": 57,
                    "time": 473.2062500000114,
                    "velocity": 0.8110236220472441,
                    "duration": 0.07499999999998863
                },
                {
                    "name": "F#6",
                    "midi": 90,
                    "time": 473.22291666667803,
                    "velocity": 0.9291338582677166,
                    "duration": 0.14374999999995453
                },
                {
                    "name": "C#6",
                    "midi": 85,
                    "time": 473.2270833333447,
                    "velocity": 0.889763779527559,
                    "duration": 0.08333333333331439
                },
                {
                    "name": "F#5",
                    "midi": 78,
                    "time": 473.22916666667805,
                    "velocity": 0.8661417322834646,
                    "duration": 0.03541666666666288
                },
                {
                    "name": "E6",
                    "midi": 88,
                    "time": 473.46250000001135,
                    "velocity": 0.6929133858267716,
                    "duration": 0.12291666666664014
                },
                {
                    "name": "F#6",
                    "midi": 90,
                    "time": 473.63958333334466,
                    "velocity": 0.9133858267716536,
                    "duration": 0.16250000000002274
                },
                {
                    "name": "G#6",
                    "midi": 92,
                    "time": 473.8020833333447,
                    "velocity": 0.8661417322834646,
                    "duration": 0.11666666666667425
                },
                {
                    "name": "A6",
                    "midi": 93,
                    "time": 474.0083333333447,
                    "velocity": 0.9212598425196851,
                    "duration": 0.24791666666675383
                },
                {
                    "name": "G#6",
                    "midi": 92,
                    "time": 474.21666666667807,
                    "velocity": 0.9291338582677166,
                    "duration": 0.17708333333342807
                },
                {
                    "name": "F#6",
                    "midi": 90,
                    "time": 474.2187500000114,
                    "velocity": 0.905511811023622,
                    "duration": 0.13750000000004547
                },
                {
                    "name": "D6",
                    "midi": 86,
                    "time": 474.2291666666781,
                    "velocity": 0.7559055118110236,
                    "duration": 0.15416666666669698
                },
                {
                    "name": "A6",
                    "midi": 93,
                    "time": 474.4250000000115,
                    "velocity": 0.8188976377952756,
                    "duration": 0.11250000000001137
                },
                {
                    "name": "C#6",
                    "midi": 85,
                    "time": 474.4437500000115,
                    "velocity": 0.7952755905511811,
                    "duration": 0.1395833333333485
                },
                {
                    "name": "E6",
                    "midi": 88,
                    "time": 474.44791666667817,
                    "velocity": 0.8031496062992126,
                    "duration": 0.12916666666666288
                },
                {
                    "name": "D6",
                    "midi": 86,
                    "time": 474.64583333334485,
                    "velocity": 0.8503937007874016,
                    "duration": 0.2812500000001137
                },
                {
                    "name": "B6",
                    "midi": 95,
                    "time": 474.6479166666782,
                    "velocity": 0.8818897637795275,
                    "duration": 0.1479166666667311
                },
                {
                    "name": "F#6",
                    "midi": 90,
                    "time": 474.6500000000116,
                    "velocity": 0.937007874015748,
                    "duration": 0.2625000000000455
                },
                {
                    "name": "B5",
                    "midi": 83,
                    "time": 474.65208333334493,
                    "velocity": 0.7559055118110236,
                    "duration": 0.23541666666670835
                },
                {
                    "name": "C#6",
                    "midi": 85,
                    "time": 474.9250000000116,
                    "velocity": 0.8818897637795275,
                    "duration": 0.08541666666673109
                },
                {
                    "name": "A5",
                    "midi": 81,
                    "time": 474.9291666666783,
                    "velocity": 0.8031496062992126,
                    "duration": 0.08958333333333712
                },
                {
                    "name": "C#7",
                    "midi": 97,
                    "time": 474.93750000001165,
                    "velocity": 0.9448818897637795,
                    "duration": 0.08958333333333712
                },
                {
                    "name": "F#5",
                    "midi": 78,
                    "time": 475.627083333345,
                    "velocity": 0.9133858267716536,
                    "duration": 0.41458333333343944
                },
                {
                    "name": "G#4",
                    "midi": 68,
                    "time": 475.6312500000117,
                    "velocity": 0.8661417322834646,
                    "duration": 0.41458333333343944
                },
                {
                    "name": "B2",
                    "midi": 47,
                    "time": 475.6375000000117,
                    "velocity": 0.8503937007874016,
                    "duration": 0.3062500000000341
                },
                {
                    "name": "B3",
                    "midi": 59,
                    "time": 475.6375000000117,
                    "velocity": 0.9291338582677166,
                    "duration": 0.37500000000005684
                },
                {
                    "name": "D5",
                    "midi": 74,
                    "time": 475.63958333334506,
                    "velocity": 0.8110236220472441,
                    "duration": 0.42083333333340533
                },
                {
                    "name": "F#4",
                    "midi": 66,
                    "time": 475.63958333334506,
                    "velocity": 0.952755905511811,
                    "duration": 0.4000000000000341
                },
                {
                    "name": "F#5",
                    "midi": 78,
                    "time": 476.35416666667845,
                    "velocity": 0.937007874015748,
                    "duration": 0.7708333333335418
                },
                {
                    "name": "C#4",
                    "midi": 61,
                    "time": 476.3562500000118,
                    "velocity": 0.952755905511811,
                    "duration": 0.2041666666667652
                },
                {
                    "name": "C#3",
                    "midi": 49,
                    "time": 476.3583333333452,
                    "velocity": 0.8110236220472441,
                    "duration": 0.25833333333343944
                },
                {
                    "name": "F#4",
                    "midi": 66,
                    "time": 476.3583333333452,
                    "velocity": 0.9448818897637795,
                    "duration": 0.7833333333335304
                },
                {
                    "name": "G#4",
                    "midi": 68,
                    "time": 476.36041666667853,
                    "velocity": 0.8818897637795275,
                    "duration": 0.7729166666667879
                },
                {
                    "name": "G#3",
                    "midi": 56,
                    "time": 476.3625000000119,
                    "velocity": 0.8503937007874016,
                    "duration": 0.21666666666669698
                },
                {
                    "name": "C#5",
                    "midi": 73,
                    "time": 476.3625000000119,
                    "velocity": 0.8582677165354331,
                    "duration": 0.7770833333334508
                },
                {
                    "name": "C#2",
                    "midi": 37,
                    "time": 476.96250000001197,
                    "velocity": 0.8976377952755905,
                    "duration": 0.08333333333337123
                },
                {
                    "name": "G#2",
                    "midi": 44,
                    "time": 476.96458333334533,
                    "velocity": 0.9133858267716536,
                    "duration": 0.07083333333332575
                },
                {
                    "name": "G#4",
                    "midi": 68,
                    "time": 477.55000000001206,
                    "velocity": 0.8110236220472441,
                    "duration": 1.206250000000125
                },
                {
                    "name": "E5",
                    "midi": 76,
                    "time": 477.5562500000121,
                    "velocity": 0.84251968503937,
                    "duration": 1.1937500000000796
                },
                {
                    "name": "C#3",
                    "midi": 49,
                    "time": 477.55833333334544,
                    "velocity": 0.6299212598425197,
                    "duration": 0.39375000000001137
                },
                {
                    "name": "E4",
                    "midi": 64,
                    "time": 477.55833333334544,
                    "velocity": 0.8740157480314961,
                    "duration": 1.027083333333394
                },
                {
                    "name": "C#5",
                    "midi": 73,
                    "time": 477.5604166666788,
                    "velocity": 0.8267716535433071,
                    "duration": 1.2395833333333712
                },
                {
                    "name": "G#3",
                    "midi": 56,
                    "time": 477.5604166666788,
                    "velocity": 0.8661417322834646,
                    "duration": 0.3395833333333371
                },
                {
                    "name": "C#4",
                    "midi": 61,
                    "time": 477.56250000001216,
                    "velocity": 0.952755905511811,
                    "duration": 0.3083333333333371
                },
                {
                    "name": "D5",
                    "midi": 74,
                    "time": 477.58541666667884,
                    "velocity": 0.48031496062992124,
                    "duration": 0.04583333333334849
                },
                {
                    "name": "G#2",
                    "midi": 44,
                    "time": 478.31458333334547,
                    "velocity": 0.9448818897637795,
                    "duration": 0.09583333333335986
                },
                {
                    "name": "C#2",
                    "midi": 37,
                    "time": 478.31458333334547,
                    "velocity": 0.8976377952755905,
                    "duration": 0.11041666666670835
                },
                {
                    "name": "F#5",
                    "midi": 78,
                    "time": 479.23958333334554,
                    "velocity": 0.9291338582677166,
                    "duration": 4.331250000000182
                },
                {
                    "name": "F#4",
                    "midi": 66,
                    "time": 479.2416666666789,
                    "velocity": 0.984251968503937,
                    "duration": 4.358333333333519
                },
                {
                    "name": "A#4",
                    "midi": 70,
                    "time": 479.24375000001226,
                    "velocity": 0.9133858267716536,
                    "duration": 4.354166666666799
                },
                {
                    "name": "C#4",
                    "midi": 61,
                    "time": 479.2458333333456,
                    "velocity": 0.984251968503937,
                    "duration": 0.5458333333333485
                },
                {
                    "name": "C#5",
                    "midi": 73,
                    "time": 479.2458333333456,
                    "velocity": 0.8582677165354331,
                    "duration": 4.354166666666799
                },
                {
                    "name": "F#3",
                    "midi": 54,
                    "time": 479.2500000000123,
                    "velocity": 0.905511811023622,
                    "duration": 0.5833333333333712
                },
                {
                    "name": "C#3",
                    "midi": 49,
                    "time": 479.2500000000123,
                    "velocity": 0.8110236220472441,
                    "duration": 0.6250000000000568
                },
                {
                    "name": "C#2",
                    "midi": 37,
                    "time": 480.241666666679,
                    "velocity": 0.9448818897637795,
                    "duration": 0.6770833333333712
                },
                {
                    "name": "F#1",
                    "midi": 30,
                    "time": 480.24791666667903,
                    "velocity": 0.8976377952755905,
                    "duration": 0.6374999999999886
                },
                {
                    "name": "C#3",
                    "midi": 49,
                    "time": 481.31041666667903,
                    "velocity": 0.937007874015748,
                    "duration": 0.09375
                },
                {
                    "name": "F#2",
                    "midi": 42,
                    "time": 481.3208333333457,
                    "velocity": 0.8503937007874016,
                    "duration": 0.10208333333332575
                }
            ],
            "controlChanges": {
                "1": [
                    {
                        "number": 1,
                        "time": 1.4124999999999999,
                        "value": 0
                    }
                ],
                "6": [
                    {
                        "number": 6,
                        "time": 1.5208333333333333,
                        "value": 0.4881889763779528
                    },
                    {
                        "number": 6,
                        "time": 1.5333333333333332,
                        "value": 0.4251968503937008
                    },
                    {
                        "number": 6,
                        "time": 1.5458333333333332,
                        "value": 0.4881889763779528
                    },
                    {
                        "number": 6,
                        "time": 1.5583333333333331,
                        "value": 0.47244094488188976
                    },
                    {
                        "number": 6,
                        "time": 1.570833333333333,
                        "value": 0.5511811023622047
                    }
                ],
                "7": [
                    {
                        "number": 7,
                        "time": 0.8125,
                        "value": 0.7874015748031497
                    }
                ],
                "10": [
                    {
                        "number": 10,
                        "time": 1.2125,
                        "value": 0.5039370078740157
                    }
                ],
                "11": [
                    {
                        "number": 11,
                        "time": 1.0125,
                        "value": 0.6299212598425197
                    }
                ],
                "32": [
                    {
                        "number": 32,
                        "time": 0.6041666666666667,
                        "value": 0.007874015748031496
                    }
                ],
                "64": [
                    {
                        "number": 64,
                        "time": 2.66875,
                        "value": 0.49606299212598426
                    },
                    {
                        "number": 64,
                        "time": 2.672916666666667,
                        "value": 1
                    },
                    {
                        "number": 64,
                        "time": 3.0833333333333335,
                        "value": 0.49606299212598426
                    },
                    {
                        "number": 64,
                        "time": 3.0895833333333336,
                        "value": 0
                    },
                    {
                        "number": 64,
                        "time": 3.5229166666666667,
                        "value": 0.49606299212598426
                    },
                    {
                        "number": 64,
                        "time": 3.525,
                        "value": 1
                    },
                    {
                        "number": 64,
                        "time": 3.941666666666667,
                        "value": 0.49606299212598426
                    },
                    {
                        "number": 64,
                        "time": 3.9562500000000003,
                        "value": 0
                    },
                    {
                        "number": 64,
                        "time": 4.38125,
                        "value": 1
                    },
                    {
                        "number": 64,
                        "time": 5.189583333333334,
                        "value": 0.49606299212598426
                    },
                    {
                        "number": 64,
                        "time": 5.2,
                        "value": 0
                    },
                    {
                        "number": 64,
                        "time": 5.283333333333333,
                        "value": 0.49606299212598426
                    },
                    {
                        "number": 64,
                        "time": 5.310416666666667,
                        "value": 1
                    },
                    {
                        "number": 64,
                        "time": 5.5249999999999995,
                        "value": 0.49606299212598426
                    },
                    {
                        "number": 64,
                        "time": 5.535416666666666,
                        "value": 0
                    },
                    {
                        "number": 64,
                        "time": 5.631249999999999,
                        "value": 0.49606299212598426
                    },
                    {
                        "number": 64,
                        "time": 5.652083333333332,
                        "value": 1
                    },
                    {
                        "number": 64,
                        "time": 5.8666666666666645,
                        "value": 0.49606299212598426
                    },
                    {
                        "number": 64,
                        "time": 5.908333333333331,
                        "value": 1
                    },
                    {
                        "number": 64,
                        "time": 6.4187499999999975,
                        "value": 0.49606299212598426
                    },
                    {
                        "number": 64,
                        "time": 6.431249999999998,
                        "value": 0
                    },
                    {
                        "number": 64,
                        "time": 6.83333333333333,
                        "value": 0.49606299212598426
                    },
                    {
                        "number": 64,
                        "time": 6.837499999999997,
                        "value": 1
                    },
                    {
                        "number": 64,
                        "time": 7.287499999999996,
                        "value": 0.49606299212598426
                    },
                    {
                        "number": 64,
                        "time": 7.299999999999996,
                        "value": 0
                    },
                    {
                        "number": 64,
                        "time": 7.3645833333333295,
                        "value": 0.49606299212598426
                    },
                    {
                        "number": 64,
                        "time": 7.393749999999996,
                        "value": 1
                    },
                    {
                        "number": 64,
                        "time": 7.679166666666662,
                        "value": 0.49606299212598426
                    },
                    {
                        "number": 64,
                        "time": 7.691666666666662,
                        "value": 0
                    },
                    {
                        "number": 64,
                        "time": 7.781249999999996,
                        "value": 0.49606299212598426
                    },
                    {
                        "number": 64,
                        "time": 7.802083333333329,
                        "value": 1
                    },
                    {
                        "number": 64,
                        "time": 8.210416666666662,
                        "value": 0.49606299212598426
                    },
                    {
                        "number": 64,
                        "time": 8.218749999999995,
                        "value": 0
                    },
                    {
                        "number": 64,
                        "time": 8.256249999999994,
                        "value": 0.49606299212598426
                    },
                    {
                        "number": 64,
                        "time": 8.281249999999995,
                        "value": 1
                    },
                    {
                        "number": 64,
                        "time": 9.039583333333326,
                        "value": 0.49606299212598426
                    },
                    {
                        "number": 64,
                        "time": 9.064583333333324,
                        "value": 0
                    },
                    {
                        "number": 64,
                        "time": 9.352083333333322,
                        "value": 0.49606299212598426
                    },
                    {
                        "number": 64,
                        "time": 9.354166666666655,
                        "value": 1
                    },
                    {
                        "number": 64,
                        "time": 10.562499999999986,
                        "value": 0.49606299212598426
                    },
                    {
                        "number": 64,
                        "time": 10.572916666666652,
                        "value": 0
                    },
                    {
                        "number": 64,
                        "time": 10.670833333333318,
                        "value": 0.49606299212598426
                    },
                    {
                        "number": 64,
                        "time": 10.691666666666652,
                        "value": 1
                    },
                    {
                        "number": 64,
                        "time": 11.399999999999984,
                        "value": 0.49606299212598426
                    },
                    {
                        "number": 64,
                        "time": 11.412499999999984,
                        "value": 0
                    },
                    {
                        "number": 64,
                        "time": 11.752083333333317,
                        "value": 0.49606299212598426
                    },
                    {
                        "number": 64,
                        "time": 11.756249999999984,
                        "value": 1
                    },
                    {
                        "number": 64,
                        "time": 12.608333333333311,
                        "value": 0.49606299212598426
                    },
                    {
                        "number": 64,
                        "time": 12.633333333333312,
                        "value": 0
                    },
                    {
                        "number": 64,
                        "time": 12.989583333333313,
                        "value": 0.49606299212598426
                    },
                    {
                        "number": 64,
                        "time": 12.997916666666645,
                        "value": 1
                    },
                    {
                        "number": 64,
                        "time": 13.439583333333312,
                        "value": 0.49606299212598426
                    },
                    {
                        "number": 64,
                        "time": 13.458333333333313,
                        "value": 0
                    },
                    {
                        "number": 64,
                        "time": 13.562499999999979,
                        "value": 0.49606299212598426
                    },
                    {
                        "number": 64,
                        "time": 13.587499999999979,
                        "value": 1
                    },
                    {
                        "number": 64,
                        "time": 13.910416666666645,
                        "value": 0.49606299212598426
                    },
                    {
                        "number": 64,
                        "time": 13.920833333333311,
                        "value": 0
                    },
                    {
                        "number": 64,
                        "time": 14.087499999999977,
                        "value": 0.49606299212598426
                    },
                    {
                        "number": 64,
                        "time": 14.099999999999977,
                        "value": 1
                    },
                    {
                        "number": 64,
                        "time": 14.395833333333306,
                        "value": 0.49606299212598426
                    },
                    {
                        "number": 64,
                        "time": 14.404166666666638,
                        "value": 0
                    },
                    {
                        "number": 64,
                        "time": 14.52499999999997,
                        "value": 0.49606299212598426
                    },
                    {
                        "number": 64,
                        "time": 14.535416666666636,
                        "value": 1
                    },
                    {
                        "number": 64,
                        "time": 14.899999999999968,
                        "value": 0.49606299212598426
                    },
                    {
                        "number": 64,
                        "time": 14.9145833333333,
                        "value": 0
                    },
                    {
                        "number": 64,
                        "time": 15.3708333333333,
                        "value": 0.49606299212598426
                    },
                    {
                        "number": 64,
                        "time": 15.3770833333333,
                        "value": 1
                    },
                    {
                        "number": 64,
                        "time": 15.74166666666663,
                        "value": 0.49606299212598426
                    },
                    {
                        "number": 64,
                        "time": 15.749999999999963,
                        "value": 0
                    },
                    {
                        "number": 64,
                        "time": 16.062499999999957,
                        "value": 0.49606299212598426
                    },
                    {
                        "number": 64,
                        "time": 16.064583333333292,
                        "value": 1
                    },
                    {
                        "number": 64,
                        "time": 16.247916666666626,
                        "value": 0.49606299212598426
                    },
                    {
                        "number": 64,
                        "time": 16.258333333333294,
                        "value": 0
                    },
                    {
                        "number": 64,
                        "time": 16.456249999999958,
                        "value": 0.49606299212598426
                    },
                    {
                        "number": 64,
                        "time": 16.460416666666625,
                        "value": 1
                    },
                    {
                        "number": 64,
                        "time": 16.79791666666663,
                        "value": 0.49606299212598426
                    },
                    {
                        "number": 64,
                        "time": 16.806249999999963,
                        "value": 0
                    },
                    {
                        "number": 64,
                        "time": 16.874999999999964,
                        "value": 0.49606299212598426
                    },
                    {
                        "number": 64,
                        "time": 16.889583333333302,
                        "value": 1
                    },
                    {
                        "number": 64,
                        "time": 17.318749999999973,
                        "value": 0.49606299212598426
                    },
                    {
                        "number": 64,
                        "time": 17.33541666666664,
                        "value": 0
                    },
                    {
                        "number": 64,
                        "time": 17.877083333333307,
                        "value": 0.49606299212598426
                    },
                    {
                        "number": 64,
                        "time": 17.881249999999973,
                        "value": 1
                    },
                    {
                        "number": 64,
                        "time": 18.118749999999974,
                        "value": 0.49606299212598426
                    },
                    {
                        "number": 64,
                        "time": 18.12916666666664,
                        "value": 0
                    },
                    {
                        "number": 64,
                        "time": 18.418749999999974,
                        "value": 0.49606299212598426
                    },
                    {
                        "number": 64,
                        "time": 18.418749999999974,
                        "value": 1
                    },
                    {
                        "number": 64,
                        "time": 18.68333333333331,
                        "value": 0.49606299212598426
                    },
                    {
                        "number": 64,
                        "time": 18.73333333333331,
                        "value": 0
                    },
                    {
                        "number": 64,
                        "time": 18.914583333333315,
                        "value": 0.49606299212598426
                    },
                    {
                        "number": 64,
                        "time": 18.927083333333314,
                        "value": 1
                    },
                    {
                        "number": 64,
                        "time": 19.033333333333317,
                        "value": 0.49606299212598426
                    },
                    {
                        "number": 64,
                        "time": 19.045833333333317,
                        "value": 0
                    },
                    {
                        "number": 64,
                        "time": 19.410416666666652,
                        "value": 0.49606299212598426
                    },
                    {
                        "number": 64,
                        "time": 19.414583333333322,
                        "value": 1
                    },
                    {
                        "number": 64,
                        "time": 20.139583333333327,
                        "value": 0.49606299212598426
                    },
                    {
                        "number": 64,
                        "time": 20.158333333333328,
                        "value": 0
                    },
                    {
                        "number": 64,
                        "time": 20.391666666666666,
                        "value": 0.49606299212598426
                    },
                    {
                        "number": 64,
                        "time": 20.402083333333334,
                        "value": 1
                    },
                    {
                        "number": 64,
                        "time": 21.137500000000003,
                        "value": 0.49606299212598426
                    },
                    {
                        "number": 64,
                        "time": 21.150000000000002,
                        "value": 0
                    },
                    {
                        "number": 64,
                        "time": 21.67291666666667,
                        "value": 0.49606299212598426
                    },
                    {
                        "number": 64,
                        "time": 21.675000000000004,
                        "value": 1
                    },
                    {
                        "number": 64,
                        "time": 22.643750000000008,
                        "value": 0.49606299212598426
                    },
                    {
                        "number": 64,
                        "time": 22.65000000000001,
                        "value": 0
                    },
                    {
                        "number": 64,
                        "time": 22.862500000000015,
                        "value": 0.49606299212598426
                    },
                    {
                        "number": 64,
                        "time": 22.86666666666668,
                        "value": 1
                    },
                    {
                        "number": 64,
                        "time": 23.239583333333346,
                        "value": 0.49606299212598426
                    },
                    {
                        "number": 64,
                        "time": 23.245833333333348,
                        "value": 0
                    },
                    {
                        "number": 64,
                        "time": 23.681250000000016,
                        "value": 0.49606299212598426
                    },
                    {
                        "number": 64,
                        "time": 23.687500000000018,
                        "value": 1
                    },
                    {
                        "number": 64,
                        "time": 24.104166666666686,
                        "value": 0.49606299212598426
                    },
                    {
                        "number": 64,
                        "time": 24.120833333333355,
                        "value": 0
                    },
                    {
                        "number": 64,
                        "time": 24.572916666666693,
                        "value": 0.49606299212598426
                    },
                    {
                        "number": 64,
                        "time": 24.575000000000028,
                        "value": 1
                    },
                    {
                        "number": 64,
                        "time": 25.34583333333336,
                        "value": 0.49606299212598426
                    },
                    {
                        "number": 64,
                        "time": 25.360416666666694,
                        "value": 0
                    },
                    {
                        "number": 64,
                        "time": 25.460416666666696,
                        "value": 0.49606299212598426
                    },
                    {
                        "number": 64,
                        "time": 25.48958333333336,
                        "value": 1
                    },
                    {
                        "number": 64,
                        "time": 25.67500000000003,
                        "value": 0.49606299212598426
                    },
                    {
                        "number": 64,
                        "time": 25.69375000000003,
                        "value": 0
                    },
                    {
                        "number": 64,
                        "time": 25.770833333333364,
                        "value": 0.49606299212598426
                    },
                    {
                        "number": 64,
                        "time": 25.8041666666667,
                        "value": 1
                    },
                    {
                        "number": 64,
                        "time": 25.841666666666704,
                        "value": 0.49606299212598426
                    },
                    {
                        "number": 64,
                        "time": 25.881250000000037,
                        "value": 0
                    },
                    {
                        "number": 64,
                        "time": 26.054166666666706,
                        "value": 0.49606299212598426
                    },
                    {
                        "number": 64,
                        "time": 26.07500000000004,
                        "value": 1
                    },
                    {
                        "number": 64,
                        "time": 26.583333333333368,
                        "value": 0.49606299212598426
                    },
                    {
                        "number": 64,
                        "time": 26.595833333333367,
                        "value": 0
                    },
                    {
                        "number": 64,
                        "time": 27.025000000000038,
                        "value": 0.49606299212598426
                    },
                    {
                        "number": 64,
                        "time": 27.029166666666704,
                        "value": 1
                    },
                    {
                        "number": 64,
                        "time": 27.466666666666708,
                        "value": 0.49606299212598426
                    },
                    {
                        "number": 64,
                        "time": 27.479166666666707,
                        "value": 0
                    },
                    {
                        "number": 64,
                        "time": 27.589583333333373,
                        "value": 0.49606299212598426
                    },
                    {
                        "number": 64,
                        "time": 27.614583333333375,
                        "value": 1
                    },
                    {
                        "number": 64,
                        "time": 27.856250000000042,
                        "value": 0.49606299212598426
                    },
                    {
                        "number": 64,
                        "time": 27.954166666666712,
                        "value": 1
                    },
                    {
                        "number": 64,
                        "time": 28.33333333333338,
                        "value": 0.49606299212598426
                    },
                    {
                        "number": 64,
                        "time": 28.356250000000045,
                        "value": 0
                    },
                    {
                        "number": 64,
                        "time": 28.43958333333338,
                        "value": 0.49606299212598426
                    },
                    {
                        "number": 64,
                        "time": 28.47083333333338,
                        "value": 1
                    },
                    {
                        "number": 64,
                        "time": 29.13958333333338,
                        "value": 0.49606299212598426
                    },
                    {
                        "number": 64,
                        "time": 29.15833333333338,
                        "value": 0
                    },
                    {
                        "number": 64,
                        "time": 29.50833333333338,
                        "value": 0.49606299212598426
                    },
                    {
                        "number": 64,
                        "time": 29.512500000000045,
                        "value": 1
                    },
                    {
                        "number": 64,
                        "time": 30.75416666666672,
                        "value": 0.49606299212598426
                    },
                    {
                        "number": 64,
                        "time": 30.76666666666672,
                        "value": 0
                    },
                    {
                        "number": 64,
                        "time": 30.885416666666718,
                        "value": 0.49606299212598426
                    },
                    {
                        "number": 64,
                        "time": 30.91250000000005,
                        "value": 1
                    },
                    {
                        "number": 64,
                        "time": 31.562500000000057,
                        "value": 0.49606299212598426
                    },
                    {
                        "number": 64,
                        "time": 31.579166666666723,
                        "value": 0
                    },
                    {
                        "number": 64,
                        "time": 31.877083333333385,
                        "value": 0.49606299212598426
                    },
                    {
                        "number": 64,
                        "time": 31.88541666666672,
                        "value": 1
                    },
                    {
                        "number": 64,
                        "time": 32.73750000000005,
                        "value": 0.49606299212598426
                    },
                    {
                        "number": 64,
                        "time": 32.77083333333338,
                        "value": 0
                    },
                    {
                        "number": 64,
                        "time": 33.10416666666671,
                        "value": 0.49606299212598426
                    },
                    {
                        "number": 64,
                        "time": 33.11250000000004,
                        "value": 1
                    },
                    {
                        "number": 64,
                        "time": 33.84791666666672,
                        "value": 0.49606299212598426
                    },
                    {
                        "number": 64,
                        "time": 33.862500000000054,
                        "value": 0
                    },
                    {
                        "number": 64,
                        "time": 34.20000000000005,
                        "value": 0.49606299212598426
                    },
                    {
                        "number": 64,
                        "time": 34.206250000000054,
                        "value": 1
                    },
                    {
                        "number": 64,
                        "time": 34.52500000000005,
                        "value": 0.49606299212598426
                    },
                    {
                        "number": 64,
                        "time": 34.53750000000005,
                        "value": 0
                    },
                    {
                        "number": 64,
                        "time": 34.61875000000005,
                        "value": 0.49606299212598426
                    },
                    {
                        "number": 64,
                        "time": 34.635416666666714,
                        "value": 1
                    },
                    {
                        "number": 64,
                        "time": 34.95625000000005,
                        "value": 0.49606299212598426
                    },
                    {
                        "number": 64,
                        "time": 34.975000000000044,
                        "value": 0
                    },
                    {
                        "number": 64,
                        "time": 35.46250000000005,
                        "value": 0.49606299212598426
                    },
                    {
                        "number": 64,
                        "time": 35.46666666666672,
                        "value": 1
                    },
                    {
                        "number": 64,
                        "time": 35.70000000000005,
                        "value": 0.49606299212598426
                    },
                    {
                        "number": 64,
                        "time": 35.71041666666672,
                        "value": 0
                    },
                    {
                        "number": 64,
                        "time": 36.17291666666671,
                        "value": 0.49606299212598426
                    },
                    {
                        "number": 64,
                        "time": 36.17500000000004,
                        "value": 1
                    },
                    {
                        "number": 64,
                        "time": 36.37500000000004,
                        "value": 0.49606299212598426
                    },
                    {
                        "number": 64,
                        "time": 36.39166666666671,
                        "value": 0
                    },
                    {
                        "number": 64,
                        "time": 36.96875000000006,
                        "value": 1
                    },
                    {
                        "number": 64,
                        "time": 37.46666666666672,
                        "value": 0.49606299212598426
                    },
                    {
                        "number": 64,
                        "time": 37.485416666666715,
                        "value": 0
                    },
                    {
                        "number": 64,
                        "time": 37.789583333333375,
                        "value": 0.49606299212598426
                    },
                    {
                        "number": 64,
                        "time": 37.79166666666671,
                        "value": 1
                    },
                    {
                        "number": 64,
                        "time": 38.162500000000044,
                        "value": 0.49606299212598426
                    },
                    {
                        "number": 64,
                        "time": 38.17083333333338,
                        "value": 0
                    },
                    {
                        "number": 64,
                        "time": 38.533333333333374,
                        "value": 0.49606299212598426
                    },
                    {
                        "number": 64,
                        "time": 38.535416666666706,
                        "value": 1
                    },
                    {
                        "number": 64,
                        "time": 38.75833333333337,
                        "value": 0.49606299212598426
                    },
                    {
                        "number": 64,
                        "time": 38.777083333333366,
                        "value": 0
                    },
                    {
                        "number": 64,
                        "time": 39.51250000000003,
                        "value": 0.49606299212598426
                    },
                    {
                        "number": 64,
                        "time": 39.51458333333336,
                        "value": 1
                    },
                    {
                        "number": 64,
                        "time": 40.125000000000036,
                        "value": 0.49606299212598426
                    },
                    {
                        "number": 64,
                        "time": 40.14583333333337,
                        "value": 0
                    },
                    {
                        "number": 64,
                        "time": 40.408333333333374,
                        "value": 0.49606299212598426
                    },
                    {
                        "number": 64,
                        "time": 40.41666666666671,
                        "value": 1
                    },
                    {
                        "number": 64,
                        "time": 40.98958333333337,
                        "value": 0.49606299212598426
                    },
                    {
                        "number": 64,
                        "time": 41.01250000000004,
                        "value": 0
                    },
                    {
                        "number": 64,
                        "time": 41.7291666666667,
                        "value": 0.49606299212598426
                    },
                    {
                        "number": 64,
                        "time": 41.73125000000003,
                        "value": 1
                    },
                    {
                        "number": 64,
                        "time": 42.68958333333337,
                        "value": 0.49606299212598426
                    },
                    {
                        "number": 64,
                        "time": 42.70000000000003,
                        "value": 0
                    },
                    {
                        "number": 64,
                        "time": 48.6333333333334,
                        "value": 0.49606299212598426
                    },
                    {
                        "number": 64,
                        "time": 48.745833333333394,
                        "value": 1
                    },
                    {
                        "number": 64,
                        "time": 49.31666666666673,
                        "value": 0.49606299212598426
                    },
                    {
                        "number": 64,
                        "time": 49.335416666666724,
                        "value": 0
                    },
                    {
                        "number": 64,
                        "time": 49.51666666666672,
                        "value": 0.49606299212598426
                    },
                    {
                        "number": 64,
                        "time": 49.53333333333339,
                        "value": 1
                    },
                    {
                        "number": 64,
                        "time": 50.05833333333339,
                        "value": 0.49606299212598426
                    },
                    {
                        "number": 64,
                        "time": 50.07083333333339,
                        "value": 0
                    },
                    {
                        "number": 64,
                        "time": 50.210416666666724,
                        "value": 0.49606299212598426
                    },
                    {
                        "number": 64,
                        "time": 50.22291666666673,
                        "value": 1
                    },
                    {
                        "number": 64,
                        "time": 50.812500000000064,
                        "value": 0.49606299212598426
                    },
                    {
                        "number": 64,
                        "time": 50.8208333333334,
                        "value": 0
                    },
                    {
                        "number": 64,
                        "time": 50.92916666666673,
                        "value": 0.49606299212598426
                    },
                    {
                        "number": 64,
                        "time": 50.939583333333395,
                        "value": 1
                    },
                    {
                        "number": 64,
                        "time": 51.43333333333341,
                        "value": 0.49606299212598426
                    },
                    {
                        "number": 64,
                        "time": 51.43750000000008,
                        "value": 0
                    },
                    {
                        "number": 64,
                        "time": 51.581250000000075,
                        "value": 0.49606299212598426
                    },
                    {
                        "number": 64,
                        "time": 51.58750000000008,
                        "value": 1
                    },
                    {
                        "number": 64,
                        "time": 52.66250000000009,
                        "value": 0.49606299212598426
                    },
                    {
                        "number": 64,
                        "time": 52.67500000000009,
                        "value": 0
                    },
                    {
                        "number": 64,
                        "time": 52.73750000000008,
                        "value": 0.49606299212598426
                    },
                    {
                        "number": 64,
                        "time": 52.76875000000008,
                        "value": 1
                    },
                    {
                        "number": 64,
                        "time": 53.114583333333414,
                        "value": 0.49606299212598426
                    },
                    {
                        "number": 64,
                        "time": 53.15833333333342,
                        "value": 1
                    },
                    {
                        "number": 64,
                        "time": 54.47083333333341,
                        "value": 0.49606299212598426
                    },
                    {
                        "number": 64,
                        "time": 54.489583333333414,
                        "value": 0
                    },
                    {
                        "number": 64,
                        "time": 54.522916666666745,
                        "value": 0.49606299212598426
                    },
                    {
                        "number": 64,
                        "time": 54.56041666666675,
                        "value": 1
                    },
                    {
                        "number": 64,
                        "time": 54.808333333333415,
                        "value": 0.49606299212598426
                    },
                    {
                        "number": 64,
                        "time": 54.85625000000008,
                        "value": 1
                    },
                    {
                        "number": 64,
                        "time": 55.70208333333341,
                        "value": 0.49606299212598426
                    },
                    {
                        "number": 64,
                        "time": 55.72500000000008,
                        "value": 0
                    },
                    {
                        "number": 64,
                        "time": 55.74583333333341,
                        "value": 0.49606299212598426
                    },
                    {
                        "number": 64,
                        "time": 55.78750000000008,
                        "value": 1
                    },
                    {
                        "number": 64,
                        "time": 56.152083333333415,
                        "value": 0.49606299212598426
                    },
                    {
                        "number": 64,
                        "time": 56.21041666666675,
                        "value": 1
                    },
                    {
                        "number": 64,
                        "time": 56.84375000000008,
                        "value": 0.49606299212598426
                    },
                    {
                        "number": 64,
                        "time": 56.94791666666674,
                        "value": 0
                    },
                    {
                        "number": 64,
                        "time": 57.054166666666745,
                        "value": 0.49606299212598426
                    },
                    {
                        "number": 64,
                        "time": 57.09375000000008,
                        "value": 1
                    },
                    {
                        "number": 64,
                        "time": 58.40000000000008,
                        "value": 0.49606299212598426
                    },
                    {
                        "number": 64,
                        "time": 58.460416666666745,
                        "value": 0
                    },
                    {
                        "number": 64,
                        "time": 61.83333333333342,
                        "value": 0.49606299212598426
                    },
                    {
                        "number": 64,
                        "time": 61.86875000000009,
                        "value": 1
                    },
                    {
                        "number": 64,
                        "time": 62.21041666666675,
                        "value": 0.49606299212598426
                    },
                    {
                        "number": 64,
                        "time": 62.26666666666676,
                        "value": 0
                    },
                    {
                        "number": 64,
                        "time": 63.552083333333435,
                        "value": 0.49606299212598426
                    },
                    {
                        "number": 64,
                        "time": 63.5750000000001,
                        "value": 1
                    },
                    {
                        "number": 64,
                        "time": 64.0250000000001,
                        "value": 0.49606299212598426
                    },
                    {
                        "number": 64,
                        "time": 64.07083333333344,
                        "value": 0
                    },
                    {
                        "number": 64,
                        "time": 64.20416666666678,
                        "value": 0.49606299212598426
                    },
                    {
                        "number": 64,
                        "time": 64.24583333333345,
                        "value": 1
                    },
                    {
                        "number": 64,
                        "time": 64.88958333333345,
                        "value": 0.49606299212598426
                    },
                    {
                        "number": 64,
                        "time": 64.92291666666678,
                        "value": 0
                    },
                    {
                        "number": 64,
                        "time": 65.08333333333346,
                        "value": 0.49606299212598426
                    },
                    {
                        "number": 64,
                        "time": 65.11250000000013,
                        "value": 1
                    },
                    {
                        "number": 64,
                        "time": 65.69375000000012,
                        "value": 0.49606299212598426
                    },
                    {
                        "number": 64,
                        "time": 65.71250000000012,
                        "value": 0
                    },
                    {
                        "number": 64,
                        "time": 65.84375000000011,
                        "value": 0.49606299212598426
                    },
                    {
                        "number": 64,
                        "time": 65.86250000000011,
                        "value": 1
                    },
                    {
                        "number": 64,
                        "time": 66.35000000000014,
                        "value": 0.49606299212598426
                    },
                    {
                        "number": 64,
                        "time": 66.35833333333348,
                        "value": 0
                    },
                    {
                        "number": 64,
                        "time": 66.48750000000015,
                        "value": 0.49606299212598426
                    },
                    {
                        "number": 64,
                        "time": 66.49583333333348,
                        "value": 1
                    },
                    {
                        "number": 64,
                        "time": 66.95208333333349,
                        "value": 0.49606299212598426
                    },
                    {
                        "number": 64,
                        "time": 66.95833333333348,
                        "value": 0
                    },
                    {
                        "number": 64,
                        "time": 67.20625000000014,
                        "value": 0.49606299212598426
                    },
                    {
                        "number": 64,
                        "time": 67.20833333333347,
                        "value": 1
                    },
                    {
                        "number": 64,
                        "time": 68.25625000000012,
                        "value": 0.49606299212598426
                    },
                    {
                        "number": 64,
                        "time": 68.26875000000011,
                        "value": 0
                    },
                    {
                        "number": 64,
                        "time": 68.31458333333345,
                        "value": 0.49606299212598426
                    },
                    {
                        "number": 64,
                        "time": 68.33958333333345,
                        "value": 1
                    },
                    {
                        "number": 64,
                        "time": 68.65208333333344,
                        "value": 0.49606299212598426
                    },
                    {
                        "number": 64,
                        "time": 68.6687500000001,
                        "value": 0
                    },
                    {
                        "number": 64,
                        "time": 68.6875000000001,
                        "value": 0.49606299212598426
                    },
                    {
                        "number": 64,
                        "time": 68.7125000000001,
                        "value": 1
                    },
                    {
                        "number": 64,
                        "time": 69.6000000000001,
                        "value": 0.49606299212598426
                    },
                    {
                        "number": 64,
                        "time": 69.6125000000001,
                        "value": 0
                    },
                    {
                        "number": 64,
                        "time": 69.65416666666677,
                        "value": 0.49606299212598426
                    },
                    {
                        "number": 64,
                        "time": 69.68333333333344,
                        "value": 1
                    },
                    {
                        "number": 64,
                        "time": 70.04583333333343,
                        "value": 0.49606299212598426
                    },
                    {
                        "number": 64,
                        "time": 70.0750000000001,
                        "value": 1
                    },
                    {
                        "number": 64,
                        "time": 70.4000000000001,
                        "value": 0.49606299212598426
                    },
                    {
                        "number": 64,
                        "time": 70.4500000000001,
                        "value": 1
                    },
                    {
                        "number": 64,
                        "time": 71.6895833333334,
                        "value": 0.49606299212598426
                    },
                    {
                        "number": 64,
                        "time": 71.70000000000007,
                        "value": 0
                    },
                    {
                        "number": 64,
                        "time": 71.79375000000007,
                        "value": 0.49606299212598426
                    },
                    {
                        "number": 64,
                        "time": 71.81250000000007,
                        "value": 1
                    },
                    {
                        "number": 64,
                        "time": 74.16666666666673,
                        "value": 0.49606299212598426
                    },
                    {
                        "number": 64,
                        "time": 74.16666666666673,
                        "value": 1
                    },
                    {
                        "number": 64,
                        "time": 74.4395833333334,
                        "value": 0.49606299212598426
                    },
                    {
                        "number": 64,
                        "time": 74.4458333333334,
                        "value": 0
                    },
                    {
                        "number": 64,
                        "time": 74.87916666666672,
                        "value": 1
                    },
                    {
                        "number": 64,
                        "time": 75.30625000000005,
                        "value": 0.49606299212598426
                    },
                    {
                        "number": 64,
                        "time": 75.31458333333337,
                        "value": 0
                    },
                    {
                        "number": 64,
                        "time": 78.56875000000001,
                        "value": 0.49606299212598426
                    },
                    {
                        "number": 64,
                        "time": 78.58333333333334,
                        "value": 1
                    },
                    {
                        "number": 64,
                        "time": 78.89166666666667,
                        "value": 0.49606299212598426
                    },
                    {
                        "number": 64,
                        "time": 78.90208333333334,
                        "value": 0
                    },
                    {
                        "number": 64,
                        "time": 79.31041666666667,
                        "value": 0.49606299212598426
                    },
                    {
                        "number": 64,
                        "time": 79.3125,
                        "value": 1
                    },
                    {
                        "number": 64,
                        "time": 79.47291666666666,
                        "value": 0.49606299212598426
                    },
                    {
                        "number": 64,
                        "time": 79.47916666666666,
                        "value": 0
                    },
                    {
                        "number": 64,
                        "time": 79.6875,
                        "value": 0.49606299212598426
                    },
                    {
                        "number": 64,
                        "time": 79.69166666666666,
                        "value": 1
                    },
                    {
                        "number": 64,
                        "time": 80.13333333333333,
                        "value": 0.49606299212598426
                    },
                    {
                        "number": 64,
                        "time": 80.14166666666667,
                        "value": 0
                    },
                    {
                        "number": 64,
                        "time": 80.51249999999999,
                        "value": 1
                    },
                    {
                        "number": 64,
                        "time": 80.89374999999997,
                        "value": 0.49606299212598426
                    },
                    {
                        "number": 64,
                        "time": 80.89999999999996,
                        "value": 0
                    },
                    {
                        "number": 64,
                        "time": 80.97499999999995,
                        "value": 0.49606299212598426
                    },
                    {
                        "number": 64,
                        "time": 80.98541666666662,
                        "value": 1
                    },
                    {
                        "number": 64,
                        "time": 81.33749999999995,
                        "value": 0.49606299212598426
                    },
                    {
                        "number": 64,
                        "time": 81.34166666666661,
                        "value": 0
                    },
                    {
                        "number": 64,
                        "time": 81.7729166666666,
                        "value": 1
                    },
                    {
                        "number": 64,
                        "time": 82.6187499999999,
                        "value": 0.49606299212598426
                    },
                    {
                        "number": 64,
                        "time": 82.63333333333324,
                        "value": 0
                    },
                    {
                        "number": 64,
                        "time": 83.02083333333323,
                        "value": 0.49606299212598426
                    },
                    {
                        "number": 64,
                        "time": 83.02083333333323,
                        "value": 1
                    },
                    {
                        "number": 64,
                        "time": 83.51666666666657,
                        "value": 0.49606299212598426
                    },
                    {
                        "number": 64,
                        "time": 83.5312499999999,
                        "value": 0
                    },
                    {
                        "number": 64,
                        "time": 83.70208333333323,
                        "value": 0.49606299212598426
                    },
                    {
                        "number": 64,
                        "time": 83.7374999999999,
                        "value": 1
                    },
                    {
                        "number": 64,
                        "time": 84.27291666666657,
                        "value": 0.49606299212598426
                    },
                    {
                        "number": 64,
                        "time": 84.27916666666657,
                        "value": 0
                    },
                    {
                        "number": 64,
                        "time": 84.36874999999989,
                        "value": 0.49606299212598426
                    },
                    {
                        "number": 64,
                        "time": 84.3812499999999,
                        "value": 1
                    },
                    {
                        "number": 64,
                        "time": 85.26041666666656,
                        "value": 0.49606299212598426
                    },
                    {
                        "number": 64,
                        "time": 85.27499999999989,
                        "value": 0
                    },
                    {
                        "number": 64,
                        "time": 85.39583333333323,
                        "value": 0.49606299212598426
                    },
                    {
                        "number": 64,
                        "time": 85.41874999999989,
                        "value": 1
                    },
                    {
                        "number": 64,
                        "time": 86.08124999999988,
                        "value": 0.49606299212598426
                    },
                    {
                        "number": 64,
                        "time": 86.09583333333322,
                        "value": 0
                    },
                    {
                        "number": 64,
                        "time": 86.25208333333322,
                        "value": 0.49606299212598426
                    },
                    {
                        "number": 64,
                        "time": 86.26666666666655,
                        "value": 1
                    },
                    {
                        "number": 64,
                        "time": 86.79583333333322,
                        "value": 0.49606299212598426
                    },
                    {
                        "number": 64,
                        "time": 86.82708333333322,
                        "value": 0
                    },
                    {
                        "number": 64,
                        "time": 87.1270833333332,
                        "value": 0.49606299212598426
                    },
                    {
                        "number": 64,
                        "time": 87.14374999999987,
                        "value": 1
                    },
                    {
                        "number": 64,
                        "time": 87.70416666666655,
                        "value": 0.49606299212598426
                    },
                    {
                        "number": 64,
                        "time": 87.71458333333322,
                        "value": 0
                    },
                    {
                        "number": 64,
                        "time": 87.80624999999989,
                        "value": 0.49606299212598426
                    },
                    {
                        "number": 64,
                        "time": 87.8312499999999,
                        "value": 1
                    },
                    {
                        "number": 64,
                        "time": 88.51458333333323,
                        "value": 0.49606299212598426
                    },
                    {
                        "number": 64,
                        "time": 88.51666666666657,
                        "value": 0
                    },
                    {
                        "number": 64,
                        "time": 88.65208333333322,
                        "value": 0.49606299212598426
                    },
                    {
                        "number": 64,
                        "time": 88.65833333333322,
                        "value": 1
                    },
                    {
                        "number": 64,
                        "time": 89.7020833333332,
                        "value": 0.49606299212598426
                    },
                    {
                        "number": 64,
                        "time": 89.71249999999988,
                        "value": 0
                    },
                    {
                        "number": 64,
                        "time": 89.7520833333332,
                        "value": 0.49606299212598426
                    },
                    {
                        "number": 64,
                        "time": 89.77291666666653,
                        "value": 1
                    },
                    {
                        "number": 64,
                        "time": 91.85208333333318,
                        "value": 0.49606299212598426
                    },
                    {
                        "number": 64,
                        "time": 91.86041666666652,
                        "value": 0
                    },
                    {
                        "number": 64,
                        "time": 91.92708333333319,
                        "value": 0.49606299212598426
                    },
                    {
                        "number": 64,
                        "time": 91.94583333333318,
                        "value": 1
                    },
                    {
                        "number": 64,
                        "time": 94.78958333333321,
                        "value": 0.49606299212598426
                    },
                    {
                        "number": 64,
                        "time": 94.80416666666655,
                        "value": 0
                    },
                    {
                        "number": 64,
                        "time": 94.83541666666655,
                        "value": 0.49606299212598426
                    },
                    {
                        "number": 64,
                        "time": 94.8583333333332,
                        "value": 1
                    },
                    {
                        "number": 64,
                        "time": 96.41458333333318,
                        "value": 0.49606299212598426
                    },
                    {
                        "number": 64,
                        "time": 96.46666666666651,
                        "value": 1
                    },
                    {
                        "number": 64,
                        "time": 97.72916666666653,
                        "value": 0.49606299212598426
                    },
                    {
                        "number": 64,
                        "time": 97.76666666666654,
                        "value": 1
                    },
                    {
                        "number": 64,
                        "time": 98.26249999999986,
                        "value": 0.49606299212598426
                    },
                    {
                        "number": 64,
                        "time": 98.2770833333332,
                        "value": 0
                    },
                    {
                        "number": 64,
                        "time": 98.37083333333318,
                        "value": 0.49606299212598426
                    },
                    {
                        "number": 64,
                        "time": 98.39999999999985,
                        "value": 1
                    },
                    {
                        "number": 64,
                        "time": 100.47291666666649,
                        "value": 0.49606299212598426
                    },
                    {
                        "number": 64,
                        "time": 100.5291666666665,
                        "value": 1
                    },
                    {
                        "number": 64,
                        "time": 100.85416666666649,
                        "value": 0.49606299212598426
                    },
                    {
                        "number": 64,
                        "time": 100.87499999999982,
                        "value": 0.49606299212598426
                    },
                    {
                        "number": 64,
                        "time": 100.87916666666648,
                        "value": 1
                    },
                    {
                        "number": 64,
                        "time": 100.91458333333314,
                        "value": 1
                    },
                    {
                        "number": 64,
                        "time": 101.93333333333315,
                        "value": 1
                    },
                    {
                        "number": 64,
                        "time": 101.94374999999982,
                        "value": 1
                    },
                    {
                        "number": 64,
                        "time": 103.2916666666665,
                        "value": 0.49606299212598426
                    },
                    {
                        "number": 64,
                        "time": 103.3041666666665,
                        "value": 0
                    },
                    {
                        "number": 64,
                        "time": 103.37499999999984,
                        "value": 0.49606299212598426
                    },
                    {
                        "number": 64,
                        "time": 103.39583333333317,
                        "value": 1
                    },
                    {
                        "number": 64,
                        "time": 106.16041666666648,
                        "value": 0.49606299212598426
                    },
                    {
                        "number": 64,
                        "time": 106.22083333333313,
                        "value": 1
                    },
                    {
                        "number": 64,
                        "time": 106.66249999999981,
                        "value": 0.49606299212598426
                    },
                    {
                        "number": 64,
                        "time": 106.69583333333316,
                        "value": 1
                    },
                    {
                        "number": 64,
                        "time": 108.67708333333317,
                        "value": 0.49606299212598426
                    },
                    {
                        "number": 64,
                        "time": 108.7229166666665,
                        "value": 1
                    },
                    {
                        "number": 64,
                        "time": 109.6979166666665,
                        "value": 0.49606299212598426
                    },
                    {
                        "number": 64,
                        "time": 109.7791666666665,
                        "value": 1
                    },
                    {
                        "number": 64,
                        "time": 110.11249999999983,
                        "value": 0.49606299212598426
                    },
                    {
                        "number": 64,
                        "time": 110.14791666666649,
                        "value": 0
                    },
                    {
                        "number": 64,
                        "time": 110.47083333333316,
                        "value": 0.49606299212598426
                    },
                    {
                        "number": 64,
                        "time": 110.47083333333316,
                        "value": 1
                    },
                    {
                        "number": 64,
                        "time": 110.85833333333315,
                        "value": 0.49606299212598426
                    },
                    {
                        "number": 64,
                        "time": 110.87083333333315,
                        "value": 0
                    },
                    {
                        "number": 64,
                        "time": 111.1499999999998,
                        "value": 0.49606299212598426
                    },
                    {
                        "number": 64,
                        "time": 111.15416666666647,
                        "value": 1
                    },
                    {
                        "number": 64,
                        "time": 111.41041666666648,
                        "value": 0.49606299212598426
                    },
                    {
                        "number": 64,
                        "time": 111.42083333333315,
                        "value": 0
                    },
                    {
                        "number": 64,
                        "time": 111.56874999999981,
                        "value": 0.49606299212598426
                    },
                    {
                        "number": 64,
                        "time": 111.57708333333315,
                        "value": 1
                    },
                    {
                        "number": 64,
                        "time": 111.80833333333312,
                        "value": 0.49606299212598426
                    },
                    {
                        "number": 64,
                        "time": 111.82291666666646,
                        "value": 0
                    },
                    {
                        "number": 64,
                        "time": 112.14999999999978,
                        "value": 1
                    },
                    {
                        "number": 64,
                        "time": 112.61458333333312,
                        "value": 0.49606299212598426
                    },
                    {
                        "number": 64,
                        "time": 112.62291666666644,
                        "value": 0
                    },
                    {
                        "number": 64,
                        "time": 113.48541666666642,
                        "value": 0.49606299212598426
                    },
                    {
                        "number": 64,
                        "time": 113.48749999999976,
                        "value": 1
                    },
                    {
                        "number": 64,
                        "time": 113.61666666666642,
                        "value": 0.49606299212598426
                    },
                    {
                        "number": 64,
                        "time": 113.63749999999975,
                        "value": 0
                    },
                    {
                        "number": 64,
                        "time": 113.99583333333308,
                        "value": 0.49606299212598426
                    },
                    {
                        "number": 64,
                        "time": 114.00208333333308,
                        "value": 1
                    },
                    {
                        "number": 64,
                        "time": 114.5124999999997,
                        "value": 0.49606299212598426
                    },
                    {
                        "number": 64,
                        "time": 114.5312499999997,
                        "value": 0
                    },
                    {
                        "number": 64,
                        "time": 114.77708333333304,
                        "value": 0.49606299212598426
                    },
                    {
                        "number": 64,
                        "time": 114.7937499999997,
                        "value": 1
                    },
                    {
                        "number": 64,
                        "time": 115.00416666666635,
                        "value": 0.49606299212598426
                    },
                    {
                        "number": 64,
                        "time": 115.01874999999968,
                        "value": 0
                    },
                    {
                        "number": 64,
                        "time": 115.16041666666635,
                        "value": 0.49606299212598426
                    },
                    {
                        "number": 64,
                        "time": 115.17499999999968,
                        "value": 1
                    },
                    {
                        "number": 64,
                        "time": 115.32499999999969,
                        "value": 0.49606299212598426
                    },
                    {
                        "number": 64,
                        "time": 115.33958333333302,
                        "value": 0
                    },
                    {
                        "number": 64,
                        "time": 115.62291666666636,
                        "value": 0.49606299212598426
                    },
                    {
                        "number": 64,
                        "time": 115.62708333333302,
                        "value": 1
                    },
                    {
                        "number": 64,
                        "time": 116.06666666666634,
                        "value": 0.49606299212598426
                    },
                    {
                        "number": 64,
                        "time": 116.077083333333,
                        "value": 0
                    },
                    {
                        "number": 64,
                        "time": 116.48124999999966,
                        "value": 0.49606299212598426
                    },
                    {
                        "number": 64,
                        "time": 116.483333333333,
                        "value": 1
                    },
                    {
                        "number": 64,
                        "time": 116.683333333333,
                        "value": 0.49606299212598426
                    },
                    {
                        "number": 64,
                        "time": 116.695833333333,
                        "value": 0
                    },
                    {
                        "number": 64,
                        "time": 116.87916666666632,
                        "value": 0.49606299212598426
                    },
                    {
                        "number": 64,
                        "time": 116.88749999999966,
                        "value": 1
                    },
                    {
                        "number": 64,
                        "time": 117.30416666666632,
                        "value": 0.49606299212598426
                    },
                    {
                        "number": 64,
                        "time": 117.32083333333298,
                        "value": 0
                    },
                    {
                        "number": 64,
                        "time": 117.46874999999964,
                        "value": 0.49606299212598426
                    },
                    {
                        "number": 64,
                        "time": 117.48749999999966,
                        "value": 1
                    },
                    {
                        "number": 64,
                        "time": 118.052083333333,
                        "value": 0.49606299212598426
                    },
                    {
                        "number": 64,
                        "time": 118.06666666666634,
                        "value": 0
                    },
                    {
                        "number": 64,
                        "time": 118.427083333333,
                        "value": 0.49606299212598426
                    },
                    {
                        "number": 64,
                        "time": 118.43124999999966,
                        "value": 1
                    },
                    {
                        "number": 64,
                        "time": 118.839583333333,
                        "value": 0.49606299212598426
                    },
                    {
                        "number": 64,
                        "time": 118.870833333333,
                        "value": 0
                    },
                    {
                        "number": 64,
                        "time": 119.28958333333298,
                        "value": 0.49606299212598426
                    },
                    {
                        "number": 64,
                        "time": 119.29166666666632,
                        "value": 1
                    },
                    {
                        "number": 64,
                        "time": 119.53749999999965,
                        "value": 0.49606299212598426
                    },
                    {
                        "number": 64,
                        "time": 119.56041666666631,
                        "value": 0
                    },
                    {
                        "number": 64,
                        "time": 119.58333333333297,
                        "value": 0.49606299212598426
                    },
                    {
                        "number": 64,
                        "time": 119.61458333333297,
                        "value": 1
                    },
                    {
                        "number": 64,
                        "time": 120.00624999999961,
                        "value": 0.49606299212598426
                    },
                    {
                        "number": 64,
                        "time": 120.01666666666628,
                        "value": 0
                    },
                    {
                        "number": 64,
                        "time": 120.09999999999961,
                        "value": 0.49606299212598426
                    },
                    {
                        "number": 64,
                        "time": 120.12083333333294,
                        "value": 1
                    },
                    {
                        "number": 64,
                        "time": 120.36041666666625,
                        "value": 0.49606299212598426
                    },
                    {
                        "number": 64,
                        "time": 120.37916666666625,
                        "value": 0
                    },
                    {
                        "number": 64,
                        "time": 120.41666666666625,
                        "value": 0.49606299212598426
                    },
                    {
                        "number": 64,
                        "time": 120.44999999999958,
                        "value": 1
                    },
                    {
                        "number": 64,
                        "time": 120.79791666666623,
                        "value": 0.49606299212598426
                    },
                    {
                        "number": 64,
                        "time": 120.81874999999955,
                        "value": 0
                    },
                    {
                        "number": 64,
                        "time": 120.90833333333288,
                        "value": 0.49606299212598426
                    },
                    {
                        "number": 64,
                        "time": 120.92708333333287,
                        "value": 1
                    },
                    {
                        "number": 64,
                        "time": 121.41874999999953,
                        "value": 0.49606299212598426
                    },
                    {
                        "number": 64,
                        "time": 121.42708333333287,
                        "value": 0
                    },
                    {
                        "number": 64,
                        "time": 121.51458333333288,
                        "value": 0.49606299212598426
                    },
                    {
                        "number": 64,
                        "time": 121.53333333333289,
                        "value": 1
                    },
                    {
                        "number": 64,
                        "time": 121.78958333333289,
                        "value": 0.49606299212598426
                    },
                    {
                        "number": 64,
                        "time": 121.82083333333289,
                        "value": 0
                    },
                    {
                        "number": 64,
                        "time": 121.94583333333289,
                        "value": 0.49606299212598426
                    },
                    {
                        "number": 64,
                        "time": 121.95833333333289,
                        "value": 1
                    },
                    {
                        "number": 64,
                        "time": 122.97499999999954,
                        "value": 0.49606299212598426
                    },
                    {
                        "number": 64,
                        "time": 122.99791666666621,
                        "value": 0
                    },
                    {
                        "number": 64,
                        "time": 123.01666666666621,
                        "value": 0.49606299212598426
                    },
                    {
                        "number": 64,
                        "time": 123.04583333333288,
                        "value": 1
                    },
                    {
                        "number": 64,
                        "time": 123.37499999999953,
                        "value": 0.49606299212598426
                    },
                    {
                        "number": 64,
                        "time": 123.38958333333287,
                        "value": 0
                    },
                    {
                        "number": 64,
                        "time": 123.42708333333286,
                        "value": 0.49606299212598426
                    },
                    {
                        "number": 64,
                        "time": 123.45624999999953,
                        "value": 1
                    },
                    {
                        "number": 64,
                        "time": 123.88958333333287,
                        "value": 0.49606299212598426
                    },
                    {
                        "number": 64,
                        "time": 123.9416666666662,
                        "value": 1
                    },
                    {
                        "number": 64,
                        "time": 124.48124999999949,
                        "value": 0.49606299212598426
                    },
                    {
                        "number": 64,
                        "time": 124.49791666666616,
                        "value": 0
                    },
                    {
                        "number": 64,
                        "time": 124.81666666666614,
                        "value": 0.49606299212598426
                    },
                    {
                        "number": 64,
                        "time": 124.81874999999947,
                        "value": 1
                    },
                    {
                        "number": 64,
                        "time": 125.32499999999948,
                        "value": 0.49606299212598426
                    },
                    {
                        "number": 64,
                        "time": 125.33541666666615,
                        "value": 0
                    },
                    {
                        "number": 64,
                        "time": 125.41666666666615,
                        "value": 0.49606299212598426
                    },
                    {
                        "number": 64,
                        "time": 125.43749999999947,
                        "value": 1
                    },
                    {
                        "number": 64,
                        "time": 126.39583333333282,
                        "value": 0.49606299212598426
                    },
                    {
                        "number": 64,
                        "time": 126.40833333333282,
                        "value": 0
                    },
                    {
                        "number": 64,
                        "time": 126.47916666666616,
                        "value": 0.49606299212598426
                    },
                    {
                        "number": 64,
                        "time": 126.51874999999949,
                        "value": 1
                    },
                    {
                        "number": 64,
                        "time": 127.06666666666615,
                        "value": 0.49606299212598426
                    },
                    {
                        "number": 64,
                        "time": 127.07708333333282,
                        "value": 0
                    },
                    {
                        "number": 64,
                        "time": 127.51666666666615,
                        "value": 0.49606299212598426
                    },
                    {
                        "number": 64,
                        "time": 127.51874999999949,
                        "value": 1
                    },
                    {
                        "number": 64,
                        "time": 128.75624999999948,
                        "value": 0.49606299212598426
                    },
                    {
                        "number": 64,
                        "time": 128.7645833333328,
                        "value": 0
                    },
                    {
                        "number": 64,
                        "time": 128.87291666666616,
                        "value": 0.49606299212598426
                    },
                    {
                        "number": 64,
                        "time": 128.88541666666615,
                        "value": 1
                    },
                    {
                        "number": 64,
                        "time": 129.6624999999995,
                        "value": 0.49606299212598426
                    },
                    {
                        "number": 64,
                        "time": 129.67291666666617,
                        "value": 0
                    },
                    {
                        "number": 64,
                        "time": 129.9187499999995,
                        "value": 0.49606299212598426
                    },
                    {
                        "number": 64,
                        "time": 129.92916666666616,
                        "value": 1
                    },
                    {
                        "number": 64,
                        "time": 131.13124999999948,
                        "value": 0.49606299212598426
                    },
                    {
                        "number": 64,
                        "time": 131.14166666666614,
                        "value": 0
                    },
                    {
                        "number": 64,
                        "time": 131.26249999999945,
                        "value": 0.49606299212598426
                    },
                    {
                        "number": 64,
                        "time": 131.28749999999945,
                        "value": 1
                    },
                    {
                        "number": 64,
                        "time": 131.8020833333328,
                        "value": 0.49606299212598426
                    },
                    {
                        "number": 64,
                        "time": 131.8208333333328,
                        "value": 0
                    },
                    {
                        "number": 64,
                        "time": 131.86041666666614,
                        "value": 0.49606299212598426
                    },
                    {
                        "number": 64,
                        "time": 131.9083333333328,
                        "value": 1
                    },
                    {
                        "number": 64,
                        "time": 132.40833333333276,
                        "value": 0.49606299212598426
                    },
                    {
                        "number": 64,
                        "time": 132.4104166666661,
                        "value": 1
                    },
                    {
                        "number": 64,
                        "time": 132.80208333333277,
                        "value": 0.49606299212598426
                    },
                    {
                        "number": 64,
                        "time": 132.80833333333277,
                        "value": 0
                    },
                    {
                        "number": 64,
                        "time": 132.8854166666661,
                        "value": 0.49606299212598426
                    },
                    {
                        "number": 64,
                        "time": 132.89791666666608,
                        "value": 1
                    },
                    {
                        "number": 64,
                        "time": 133.4166666666661,
                        "value": 0.49606299212598426
                    },
                    {
                        "number": 64,
                        "time": 133.43333333333277,
                        "value": 0
                    },
                    {
                        "number": 64,
                        "time": 133.75416666666612,
                        "value": 0.49606299212598426
                    },
                    {
                        "number": 64,
                        "time": 133.76249999999945,
                        "value": 1
                    },
                    {
                        "number": 64,
                        "time": 133.87916666666612,
                        "value": 0.49606299212598426
                    },
                    {
                        "number": 64,
                        "time": 133.90624999999946,
                        "value": 0
                    },
                    {
                        "number": 64,
                        "time": 133.92083333333278,
                        "value": 0.49606299212598426
                    },
                    {
                        "number": 64,
                        "time": 133.94999999999945,
                        "value": 1
                    },
                    {
                        "number": 64,
                        "time": 134.2291666666661,
                        "value": 0.49606299212598426
                    },
                    {
                        "number": 64,
                        "time": 134.24166666666608,
                        "value": 0
                    },
                    {
                        "number": 64,
                        "time": 134.34166666666604,
                        "value": 0.49606299212598426
                    },
                    {
                        "number": 64,
                        "time": 134.35833333333272,
                        "value": 1
                    },
                    {
                        "number": 64,
                        "time": 134.71249999999938,
                        "value": 0.49606299212598426
                    },
                    {
                        "number": 64,
                        "time": 134.73541666666605,
                        "value": 0
                    },
                    {
                        "number": 64,
                        "time": 134.8624999999994,
                        "value": 0.49606299212598426
                    },
                    {
                        "number": 64,
                        "time": 134.88541666666606,
                        "value": 1
                    },
                    {
                        "number": 64,
                        "time": 135.26666666666605,
                        "value": 0.49606299212598426
                    },
                    {
                        "number": 64,
                        "time": 135.27916666666604,
                        "value": 0
                    },
                    {
                        "number": 64,
                        "time": 135.35624999999936,
                        "value": 0.49606299212598426
                    },
                    {
                        "number": 64,
                        "time": 135.38124999999937,
                        "value": 1
                    },
                    {
                        "number": 64,
                        "time": 136.22499999999937,
                        "value": 0.49606299212598426
                    },
                    {
                        "number": 64,
                        "time": 136.2395833333327,
                        "value": 0
                    },
                    {
                        "number": 64,
                        "time": 136.3833333333327,
                        "value": 0.49606299212598426
                    },
                    {
                        "number": 64,
                        "time": 136.40624999999937,
                        "value": 1
                    },
                    {
                        "number": 64,
                        "time": 136.94791666666598,
                        "value": 0.49606299212598426
                    },
                    {
                        "number": 64,
                        "time": 137.00208333333265,
                        "value": 0
                    },
                    {
                        "number": 64,
                        "time": 137.10208333333264,
                        "value": 0.49606299212598426
                    },
                    {
                        "number": 64,
                        "time": 137.13541666666598,
                        "value": 1
                    },
                    {
                        "number": 64,
                        "time": 137.5249999999993,
                        "value": 0.49606299212598426
                    },
                    {
                        "number": 64,
                        "time": 137.5562499999993,
                        "value": 0
                    },
                    {
                        "number": 64,
                        "time": 137.85416666666598,
                        "value": 0.49606299212598426
                    },
                    {
                        "number": 64,
                        "time": 137.8687499999993,
                        "value": 1
                    },
                    {
                        "number": 64,
                        "time": 138.22708333333262,
                        "value": 0.49606299212598426
                    },
                    {
                        "number": 64,
                        "time": 138.2499999999993,
                        "value": 0
                    },
                    {
                        "number": 64,
                        "time": 138.4812499999993,
                        "value": 0.49606299212598426
                    },
                    {
                        "number": 64,
                        "time": 138.48333333333264,
                        "value": 1
                    },
                    {
                        "number": 64,
                        "time": 139.7520833333326,
                        "value": 0.49606299212598426
                    },
                    {
                        "number": 64,
                        "time": 139.7583333333326,
                        "value": 0
                    },
                    {
                        "number": 64,
                        "time": 139.85624999999925,
                        "value": 0.49606299212598426
                    },
                    {
                        "number": 64,
                        "time": 139.86874999999924,
                        "value": 1
                    },
                    {
                        "number": 64,
                        "time": 141.72083333333256,
                        "value": 0.49606299212598426
                    },
                    {
                        "number": 64,
                        "time": 141.72083333333256,
                        "value": 1
                    },
                    {
                        "number": 64,
                        "time": 145.5916666666659,
                        "value": 0.49606299212598426
                    },
                    {
                        "number": 64,
                        "time": 147.36249999999924,
                        "value": 0
                    },
                    {
                        "number": 64,
                        "time": 147.62916666666592,
                        "value": 0.49606299212598426
                    },
                    {
                        "number": 64,
                        "time": 147.71041666666594,
                        "value": 1
                    },
                    {
                        "number": 64,
                        "time": 149.7729166666659,
                        "value": 0.49606299212598426
                    },
                    {
                        "number": 64,
                        "time": 149.8291666666659,
                        "value": 1
                    },
                    {
                        "number": 64,
                        "time": 151.7687499999992,
                        "value": 0.49606299212598426
                    },
                    {
                        "number": 64,
                        "time": 151.82916666666586,
                        "value": 1
                    },
                    {
                        "number": 64,
                        "time": 152.77916666666584,
                        "value": 0.49606299212598426
                    },
                    {
                        "number": 64,
                        "time": 152.87916666666584,
                        "value": 1
                    },
                    {
                        "number": 64,
                        "time": 153.78958333333247,
                        "value": 0.49606299212598426
                    },
                    {
                        "number": 64,
                        "time": 153.84374999999915,
                        "value": 1
                    },
                    {
                        "number": 64,
                        "time": 154.97708333333244,
                        "value": 0.49606299212598426
                    },
                    {
                        "number": 64,
                        "time": 155.07083333333244,
                        "value": 1
                    },
                    {
                        "number": 64,
                        "time": 156.0562499999991,
                        "value": 0.49606299212598426
                    },
                    {
                        "number": 64,
                        "time": 156.16249999999908,
                        "value": 1
                    },
                    {
                        "number": 64,
                        "time": 157.02291666666574,
                        "value": 0.49606299212598426
                    },
                    {
                        "number": 64,
                        "time": 157.0770833333324,
                        "value": 1
                    },
                    {
                        "number": 64,
                        "time": 157.99791666666576,
                        "value": 0.49606299212598426
                    },
                    {
                        "number": 64,
                        "time": 158.07916666666577,
                        "value": 1
                    },
                    {
                        "number": 64,
                        "time": 159.20833333333235,
                        "value": 0.49606299212598426
                    },
                    {
                        "number": 64,
                        "time": 159.23333333333235,
                        "value": 0
                    },
                    {
                        "number": 64,
                        "time": 159.26458333333235,
                        "value": 0.49606299212598426
                    },
                    {
                        "number": 64,
                        "time": 159.31458333333237,
                        "value": 1
                    },
                    {
                        "number": 64,
                        "time": 160.49583333333234,
                        "value": 0.49606299212598426
                    },
                    {
                        "number": 64,
                        "time": 160.65208333333234,
                        "value": 1
                    },
                    {
                        "number": 64,
                        "time": 162.81249999999898,
                        "value": 0.49606299212598426
                    },
                    {
                        "number": 64,
                        "time": 162.83333333333232,
                        "value": 0
                    },
                    {
                        "number": 64,
                        "time": 163.00416666666564,
                        "value": 0.49606299212598426
                    },
                    {
                        "number": 64,
                        "time": 163.01666666666563,
                        "value": 1
                    },
                    {
                        "number": 64,
                        "time": 163.8979166666656,
                        "value": 0.49606299212598426
                    },
                    {
                        "number": 64,
                        "time": 163.91874999999894,
                        "value": 0
                    },
                    {
                        "number": 64,
                        "time": 163.94999999999894,
                        "value": 0.49606299212598426
                    },
                    {
                        "number": 64,
                        "time": 163.9916666666656,
                        "value": 1
                    },
                    {
                        "number": 64,
                        "time": 164.7916666666656,
                        "value": 0.49606299212598426
                    },
                    {
                        "number": 64,
                        "time": 164.88958333333227,
                        "value": 1
                    },
                    {
                        "number": 64,
                        "time": 165.80416666666562,
                        "value": 0.49606299212598426
                    },
                    {
                        "number": 64,
                        "time": 165.82291666666563,
                        "value": 0
                    },
                    {
                        "number": 64,
                        "time": 165.95416666666563,
                        "value": 0.49606299212598426
                    },
                    {
                        "number": 64,
                        "time": 165.97499999999897,
                        "value": 1
                    },
                    {
                        "number": 64,
                        "time": 166.6958333333323,
                        "value": 0.49606299212598426
                    },
                    {
                        "number": 64,
                        "time": 166.79166666666563,
                        "value": 1
                    },
                    {
                        "number": 64,
                        "time": 167.85624999999897,
                        "value": 0.49606299212598426
                    },
                    {
                        "number": 64,
                        "time": 167.93541666666565,
                        "value": 1
                    },
                    {
                        "number": 64,
                        "time": 168.78124999999898,
                        "value": 0.49606299212598426
                    },
                    {
                        "number": 64,
                        "time": 168.83541666666565,
                        "value": 1
                    },
                    {
                        "number": 64,
                        "time": 170.00833333333233,
                        "value": 0.49606299212598426
                    },
                    {
                        "number": 64,
                        "time": 170.09583333333234,
                        "value": 1
                    },
                    {
                        "number": 64,
                        "time": 171.13958333333235,
                        "value": 0.49606299212598426
                    },
                    {
                        "number": 64,
                        "time": 171.2229166666657,
                        "value": 1
                    },
                    {
                        "number": 64,
                        "time": 172.4708333333324,
                        "value": 0.49606299212598426
                    },
                    {
                        "number": 64,
                        "time": 172.57499999999905,
                        "value": 1
                    },
                    {
                        "number": 64,
                        "time": 173.8791666666657,
                        "value": 0.49606299212598426
                    },
                    {
                        "number": 64,
                        "time": 173.99583333333237,
                        "value": 0
                    },
                    {
                        "number": 64,
                        "time": 175.0791666666657,
                        "value": 0.49606299212598426
                    },
                    {
                        "number": 64,
                        "time": 175.0916666666657,
                        "value": 1
                    },
                    {
                        "number": 64,
                        "time": 176.8166666666656,
                        "value": 0.49606299212598426
                    },
                    {
                        "number": 64,
                        "time": 176.85208333333227,
                        "value": 0
                    },
                    {
                        "number": 64,
                        "time": 176.88958333333227,
                        "value": 0.49606299212598426
                    },
                    {
                        "number": 64,
                        "time": 176.92708333333226,
                        "value": 1
                    },
                    {
                        "number": 64,
                        "time": 177.73749999999893,
                        "value": 0.49606299212598426
                    },
                    {
                        "number": 64,
                        "time": 177.78124999999895,
                        "value": 1
                    },
                    {
                        "number": 64,
                        "time": 178.7666666666656,
                        "value": 0.49606299212598426
                    },
                    {
                        "number": 64,
                        "time": 178.8791666666656,
                        "value": 1
                    },
                    {
                        "number": 64,
                        "time": 179.64791666666562,
                        "value": 0.49606299212598426
                    },
                    {
                        "number": 64,
                        "time": 179.77291666666562,
                        "value": 1
                    },
                    {
                        "number": 64,
                        "time": 180.6729166666656,
                        "value": 0.49606299212598426
                    },
                    {
                        "number": 64,
                        "time": 180.75208333333228,
                        "value": 1
                    },
                    {
                        "number": 64,
                        "time": 181.8020833333323,
                        "value": 0.49606299212598426
                    },
                    {
                        "number": 64,
                        "time": 181.9104166666656,
                        "value": 1
                    },
                    {
                        "number": 64,
                        "time": 182.8354166666656,
                        "value": 0.49606299212598426
                    },
                    {
                        "number": 64,
                        "time": 182.86249999999893,
                        "value": 0
                    },
                    {
                        "number": 64,
                        "time": 182.9291666666656,
                        "value": 0.49606299212598426
                    },
                    {
                        "number": 64,
                        "time": 182.9666666666656,
                        "value": 1
                    },
                    {
                        "number": 64,
                        "time": 183.82499999999888,
                        "value": 0.49606299212598426
                    },
                    {
                        "number": 64,
                        "time": 183.9437499999989,
                        "value": 1
                    },
                    {
                        "number": 64,
                        "time": 184.7770833333322,
                        "value": 0.49606299212598426
                    },
                    {
                        "number": 64,
                        "time": 184.79166666666552,
                        "value": 0
                    },
                    {
                        "number": 64,
                        "time": 184.9020833333322,
                        "value": 0.49606299212598426
                    },
                    {
                        "number": 64,
                        "time": 184.91874999999888,
                        "value": 1
                    },
                    {
                        "number": 64,
                        "time": 186.00208333333217,
                        "value": 0.49606299212598426
                    },
                    {
                        "number": 64,
                        "time": 186.01874999999885,
                        "value": 0
                    },
                    {
                        "number": 64,
                        "time": 186.08958333333217,
                        "value": 0.49606299212598426
                    },
                    {
                        "number": 64,
                        "time": 186.1229166666655,
                        "value": 1
                    },
                    {
                        "number": 64,
                        "time": 187.0541666666654,
                        "value": 0.49606299212598426
                    },
                    {
                        "number": 64,
                        "time": 187.07708333333207,
                        "value": 0
                    },
                    {
                        "number": 64,
                        "time": 187.09583333333208,
                        "value": 0.49606299212598426
                    },
                    {
                        "number": 64,
                        "time": 187.13958333333207,
                        "value": 1
                    },
                    {
                        "number": 64,
                        "time": 189.4729166666654,
                        "value": 0.49606299212598426
                    },
                    {
                        "number": 64,
                        "time": 189.4895833333321,
                        "value": 0
                    },
                    {
                        "number": 64,
                        "time": 189.6395833333321,
                        "value": 0.49606299212598426
                    },
                    {
                        "number": 64,
                        "time": 189.65624999999878,
                        "value": 1
                    },
                    {
                        "number": 64,
                        "time": 191.39583333333212,
                        "value": 0.49606299212598426
                    },
                    {
                        "number": 64,
                        "time": 191.4187499999988,
                        "value": 0
                    },
                    {
                        "number": 64,
                        "time": 191.50208333333214,
                        "value": 0.49606299212598426
                    },
                    {
                        "number": 64,
                        "time": 191.53541666666547,
                        "value": 1
                    },
                    {
                        "number": 64,
                        "time": 192.50624999999886,
                        "value": 0.49606299212598426
                    },
                    {
                        "number": 64,
                        "time": 192.52083333333218,
                        "value": 0
                    },
                    {
                        "number": 64,
                        "time": 192.6541666666655,
                        "value": 0.49606299212598426
                    },
                    {
                        "number": 64,
                        "time": 192.67083333333218,
                        "value": 1
                    },
                    {
                        "number": 64,
                        "time": 193.51458333333215,
                        "value": 0.49606299212598426
                    },
                    {
                        "number": 64,
                        "time": 193.57708333333215,
                        "value": 1
                    },
                    {
                        "number": 64,
                        "time": 194.44791666666552,
                        "value": 0.49606299212598426
                    },
                    {
                        "number": 64,
                        "time": 194.52916666666553,
                        "value": 1
                    },
                    {
                        "number": 64,
                        "time": 195.4729166666655,
                        "value": 0.49606299212598426
                    },
                    {
                        "number": 64,
                        "time": 195.4916666666655,
                        "value": 0
                    },
                    {
                        "number": 64,
                        "time": 195.5229166666655,
                        "value": 0.49606299212598426
                    },
                    {
                        "number": 64,
                        "time": 195.56458333333217,
                        "value": 1
                    },
                    {
                        "number": 64,
                        "time": 196.88333333333213,
                        "value": 0.49606299212598426
                    },
                    {
                        "number": 64,
                        "time": 196.9937499999988,
                        "value": 1
                    },
                    {
                        "number": 64,
                        "time": 197.86249999999885,
                        "value": 0.49606299212598426
                    },
                    {
                        "number": 64,
                        "time": 197.95833333333218,
                        "value": 1
                    },
                    {
                        "number": 64,
                        "time": 198.94791666666552,
                        "value": 0.49606299212598426
                    },
                    {
                        "number": 64,
                        "time": 199.01666666666551,
                        "value": 1
                    },
                    {
                        "number": 64,
                        "time": 201.9124999999988,
                        "value": 0.49606299212598426
                    },
                    {
                        "number": 64,
                        "time": 201.93958333333214,
                        "value": 1
                    },
                    {
                        "number": 64,
                        "time": 204.23749999999876,
                        "value": 0.49606299212598426
                    },
                    {
                        "number": 64,
                        "time": 204.2583333333321,
                        "value": 1
                    },
                    {
                        "number": 64,
                        "time": 205.26458333333207,
                        "value": 0.49606299212598426
                    },
                    {
                        "number": 64,
                        "time": 205.3104166666654,
                        "value": 1
                    },
                    {
                        "number": 64,
                        "time": 206.2104166666653,
                        "value": 0.49606299212598426
                    },
                    {
                        "number": 64,
                        "time": 206.28958333333196,
                        "value": 1
                    },
                    {
                        "number": 64,
                        "time": 208.41874999999848,
                        "value": 0.49606299212598426
                    },
                    {
                        "number": 64,
                        "time": 208.44791666666515,
                        "value": 1
                    },
                    {
                        "number": 64,
                        "time": 214.59583333333165,
                        "value": 0.49606299212598426
                    },
                    {
                        "number": 64,
                        "time": 214.69374999999832,
                        "value": 1
                    },
                    {
                        "number": 64,
                        "time": 217.69999999999814,
                        "value": 0.49606299212598426
                    },
                    {
                        "number": 64,
                        "time": 217.73333333333147,
                        "value": 1
                    },
                    {
                        "number": 64,
                        "time": 221.00624999999798,
                        "value": 0.49606299212598426
                    },
                    {
                        "number": 64,
                        "time": 221.03124999999798,
                        "value": 1
                    },
                    {
                        "number": 64,
                        "time": 228.5208333333312,
                        "value": 0.49606299212598426
                    },
                    {
                        "number": 64,
                        "time": 228.55624999999787,
                        "value": 1
                    },
                    {
                        "number": 64,
                        "time": 230.85208333333114,
                        "value": 0.49606299212598426
                    },
                    {
                        "number": 64,
                        "time": 230.86666666666446,
                        "value": 0
                    },
                    {
                        "number": 64,
                        "time": 230.91874999999777,
                        "value": 0.49606299212598426
                    },
                    {
                        "number": 64,
                        "time": 230.9458333333311,
                        "value": 1
                    },
                    {
                        "number": 64,
                        "time": 232.0541666666644,
                        "value": 0.49606299212598426
                    },
                    {
                        "number": 64,
                        "time": 232.07499999999774,
                        "value": 0
                    },
                    {
                        "number": 64,
                        "time": 232.10624999999774,
                        "value": 0.49606299212598426
                    },
                    {
                        "number": 64,
                        "time": 232.15624999999775,
                        "value": 1
                    },
                    {
                        "number": 64,
                        "time": 234.34791666666442,
                        "value": 0.49606299212598426
                    },
                    {
                        "number": 64,
                        "time": 234.35833333333107,
                        "value": 0
                    },
                    {
                        "number": 64,
                        "time": 234.4479166666644,
                        "value": 0.49606299212598426
                    },
                    {
                        "number": 64,
                        "time": 234.4708333333311,
                        "value": 1
                    },
                    {
                        "number": 64,
                        "time": 235.94166666666442,
                        "value": 0.49606299212598426
                    },
                    {
                        "number": 64,
                        "time": 235.96041666666443,
                        "value": 0
                    },
                    {
                        "number": 64,
                        "time": 236.07291666666444,
                        "value": 0.49606299212598426
                    },
                    {
                        "number": 64,
                        "time": 236.09166666666445,
                        "value": 1
                    },
                    {
                        "number": 64,
                        "time": 238.770833333331,
                        "value": 0.49606299212598426
                    },
                    {
                        "number": 64,
                        "time": 238.78124999999767,
                        "value": 0
                    },
                    {
                        "number": 64,
                        "time": 238.84791666666433,
                        "value": 0.49606299212598426
                    },
                    {
                        "number": 64,
                        "time": 238.870833333331,
                        "value": 1
                    },
                    {
                        "number": 64,
                        "time": 241.84791666666422,
                        "value": 0.49606299212598426
                    },
                    {
                        "number": 64,
                        "time": 241.85833333333088,
                        "value": 0
                    },
                    {
                        "number": 64,
                        "time": 241.94374999999755,
                        "value": 0.49606299212598426
                    },
                    {
                        "number": 64,
                        "time": 241.96249999999756,
                        "value": 1
                    },
                    {
                        "number": 64,
                        "time": 245.43749999999756,
                        "value": 0.49606299212598426
                    },
                    {
                        "number": 64,
                        "time": 245.55416666666423,
                        "value": 0
                    },
                    {
                        "number": 64,
                        "time": 246.41249999999758,
                        "value": 0.49606299212598426
                    },
                    {
                        "number": 64,
                        "time": 246.43333333333092,
                        "value": 1
                    },
                    {
                        "number": 64,
                        "time": 247.38124999999758,
                        "value": 0.49606299212598426
                    },
                    {
                        "number": 64,
                        "time": 247.47291666666425,
                        "value": 1
                    },
                    {
                        "number": 64,
                        "time": 248.39791666666417,
                        "value": 0.49606299212598426
                    },
                    {
                        "number": 64,
                        "time": 248.48541666666418,
                        "value": 1
                    },
                    {
                        "number": 64,
                        "time": 249.33958333333084,
                        "value": 0.49606299212598426
                    },
                    {
                        "number": 64,
                        "time": 249.36458333333084,
                        "value": 0
                    },
                    {
                        "number": 64,
                        "time": 249.43958333333083,
                        "value": 0.49606299212598426
                    },
                    {
                        "number": 64,
                        "time": 249.47708333333082,
                        "value": 1
                    },
                    {
                        "number": 64,
                        "time": 251.46458333333078,
                        "value": 0.49606299212598426
                    },
                    {
                        "number": 64,
                        "time": 251.47083333333077,
                        "value": 1
                    },
                    {
                        "number": 64,
                        "time": 251.60208333333077,
                        "value": 0.49606299212598426
                    },
                    {
                        "number": 64,
                        "time": 251.6166666666641,
                        "value": 0
                    },
                    {
                        "number": 64,
                        "time": 251.65208333333075,
                        "value": 0.49606299212598426
                    },
                    {
                        "number": 64,
                        "time": 251.67083333333076,
                        "value": 1
                    },
                    {
                        "number": 64,
                        "time": 252.16041666666408,
                        "value": 0.49606299212598426
                    },
                    {
                        "number": 64,
                        "time": 252.19166666666408,
                        "value": 1
                    },
                    {
                        "number": 64,
                        "time": 252.70833333333073,
                        "value": 0.49606299212598426
                    },
                    {
                        "number": 64,
                        "time": 252.73541666666407,
                        "value": 1
                    },
                    {
                        "number": 64,
                        "time": 253.78958333333065,
                        "value": 0.49606299212598426
                    },
                    {
                        "number": 64,
                        "time": 253.88541666666399,
                        "value": 1
                    },
                    {
                        "number": 64,
                        "time": 254.941666666664,
                        "value": 0.49606299212598426
                    },
                    {
                        "number": 64,
                        "time": 255.04374999999732,
                        "value": 1
                    },
                    {
                        "number": 64,
                        "time": 255.76874999999734,
                        "value": 0.49606299212598426
                    },
                    {
                        "number": 64,
                        "time": 255.86249999999734,
                        "value": 1
                    },
                    {
                        "number": 64,
                        "time": 256.4270833333307,
                        "value": 0.49606299212598426
                    },
                    {
                        "number": 64,
                        "time": 256.4499999999974,
                        "value": 0
                    },
                    {
                        "number": 64,
                        "time": 256.82708333333073,
                        "value": 0.49606299212598426
                    },
                    {
                        "number": 64,
                        "time": 256.83333333333076,
                        "value": 1
                    },
                    {
                        "number": 64,
                        "time": 257.31249999999744,
                        "value": 0.49606299212598426
                    },
                    {
                        "number": 64,
                        "time": 257.3229166666641,
                        "value": 0
                    },
                    {
                        "number": 64,
                        "time": 257.43749999999744,
                        "value": 0.49606299212598426
                    },
                    {
                        "number": 64,
                        "time": 257.45624999999745,
                        "value": 1
                    },
                    {
                        "number": 64,
                        "time": 257.7874999999974,
                        "value": 0.49606299212598426
                    },
                    {
                        "number": 64,
                        "time": 257.7979166666641,
                        "value": 0
                    },
                    {
                        "number": 64,
                        "time": 258.40833333333075,
                        "value": 0.49606299212598426
                    },
                    {
                        "number": 64,
                        "time": 258.4124999999974,
                        "value": 1
                    },
                    {
                        "number": 64,
                        "time": 259.33749999999736,
                        "value": 0.49606299212598426
                    },
                    {
                        "number": 64,
                        "time": 259.3458333333307,
                        "value": 0
                    },
                    {
                        "number": 64,
                        "time": 259.49583333333067,
                        "value": 0.49606299212598426
                    },
                    {
                        "number": 64,
                        "time": 259.510416666664,
                        "value": 1
                    },
                    {
                        "number": 64,
                        "time": 260.15833333333075,
                        "value": 0.49606299212598426
                    },
                    {
                        "number": 64,
                        "time": 260.16666666666407,
                        "value": 0
                    },
                    {
                        "number": 64,
                        "time": 260.29583333333073,
                        "value": 0.49606299212598426
                    },
                    {
                        "number": 64,
                        "time": 260.3104166666641,
                        "value": 1
                    },
                    {
                        "number": 64,
                        "time": 261.2916666666642,
                        "value": 0.49606299212598426
                    },
                    {
                        "number": 64,
                        "time": 261.33958333333084,
                        "value": 1
                    },
                    {
                        "number": 64,
                        "time": 262.3895833333307,
                        "value": 0.49606299212598426
                    },
                    {
                        "number": 64,
                        "time": 262.4083333333307,
                        "value": 0
                    },
                    {
                        "number": 64,
                        "time": 262.47291666666405,
                        "value": 0.49606299212598426
                    },
                    {
                        "number": 64,
                        "time": 262.5187499999974,
                        "value": 1
                    },
                    {
                        "number": 64,
                        "time": 263.1770833333308,
                        "value": 0.49606299212598426
                    },
                    {
                        "number": 64,
                        "time": 263.19166666666416,
                        "value": 0
                    },
                    {
                        "number": 64,
                        "time": 263.31041666666414,
                        "value": 0.49606299212598426
                    },
                    {
                        "number": 64,
                        "time": 263.33124999999745,
                        "value": 1
                    },
                    {
                        "number": 64,
                        "time": 264.0624999999976,
                        "value": 0.49606299212598426
                    },
                    {
                        "number": 64,
                        "time": 264.0812499999976,
                        "value": 0
                    },
                    {
                        "number": 64,
                        "time": 264.13958333333096,
                        "value": 0.49606299212598426
                    },
                    {
                        "number": 64,
                        "time": 264.1874999999976,
                        "value": 1
                    },
                    {
                        "number": 64,
                        "time": 265.0499999999977,
                        "value": 0.49606299212598426
                    },
                    {
                        "number": 64,
                        "time": 265.06458333333103,
                        "value": 0
                    },
                    {
                        "number": 64,
                        "time": 265.152083333331,
                        "value": 0.49606299212598426
                    },
                    {
                        "number": 64,
                        "time": 265.18749999999767,
                        "value": 1
                    },
                    {
                        "number": 64,
                        "time": 266.24791666666437,
                        "value": 0.49606299212598426
                    },
                    {
                        "number": 64,
                        "time": 266.264583333331,
                        "value": 0
                    },
                    {
                        "number": 64,
                        "time": 266.383333333331,
                        "value": 0.49606299212598426
                    },
                    {
                        "number": 64,
                        "time": 266.4041666666643,
                        "value": 1
                    },
                    {
                        "number": 64,
                        "time": 267.26666666666426,
                        "value": 0.49606299212598426
                    },
                    {
                        "number": 64,
                        "time": 267.2812499999976,
                        "value": 0
                    },
                    {
                        "number": 64,
                        "time": 267.35208333333094,
                        "value": 0.49606299212598426
                    },
                    {
                        "number": 64,
                        "time": 267.3812499999976,
                        "value": 1
                    },
                    {
                        "number": 64,
                        "time": 269.59166666666425,
                        "value": 0.49606299212598426
                    },
                    {
                        "number": 64,
                        "time": 269.60416666666424,
                        "value": 0
                    },
                    {
                        "number": 64,
                        "time": 269.71874999999756,
                        "value": 0.49606299212598426
                    },
                    {
                        "number": 64,
                        "time": 269.7354166666642,
                        "value": 1
                    },
                    {
                        "number": 64,
                        "time": 271.7187499999975,
                        "value": 0.49606299212598426
                    },
                    {
                        "number": 64,
                        "time": 271.7270833333308,
                        "value": 0
                    },
                    {
                        "number": 64,
                        "time": 271.7999999999975,
                        "value": 0.49606299212598426
                    },
                    {
                        "number": 64,
                        "time": 271.8249999999975,
                        "value": 1
                    },
                    {
                        "number": 64,
                        "time": 272.88541666666424,
                        "value": 0.49606299212598426
                    },
                    {
                        "number": 64,
                        "time": 272.89791666666423,
                        "value": 0
                    },
                    {
                        "number": 64,
                        "time": 273.01249999999754,
                        "value": 0.49606299212598426
                    },
                    {
                        "number": 64,
                        "time": 273.03333333333086,
                        "value": 1
                    },
                    {
                        "number": 64,
                        "time": 274.77499999999753,
                        "value": 0.49606299212598426
                    },
                    {
                        "number": 64,
                        "time": 274.7916666666642,
                        "value": 0
                    },
                    {
                        "number": 64,
                        "time": 274.9437499999975,
                        "value": 0.49606299212598426
                    },
                    {
                        "number": 64,
                        "time": 274.95833333333087,
                        "value": 1
                    },
                    {
                        "number": 64,
                        "time": 275.88333333333094,
                        "value": 0.49606299212598426
                    },
                    {
                        "number": 64,
                        "time": 275.90208333333095,
                        "value": 0
                    },
                    {
                        "number": 64,
                        "time": 275.9937499999976,
                        "value": 0.49606299212598426
                    },
                    {
                        "number": 64,
                        "time": 276.0249999999976,
                        "value": 1
                    },
                    {
                        "number": 64,
                        "time": 276.91458333333094,
                        "value": 0.49606299212598426
                    },
                    {
                        "number": 64,
                        "time": 276.9916666666643,
                        "value": 1
                    },
                    {
                        "number": 64,
                        "time": 278.1374999999976,
                        "value": 0.49606299212598426
                    },
                    {
                        "number": 64,
                        "time": 278.15416666666425,
                        "value": 0
                    },
                    {
                        "number": 64,
                        "time": 278.2770833333309,
                        "value": 0.49606299212598426
                    },
                    {
                        "number": 64,
                        "time": 278.2979166666642,
                        "value": 1
                    },
                    {
                        "number": 64,
                        "time": 279.2687499999975,
                        "value": 0.49606299212598426
                    },
                    {
                        "number": 64,
                        "time": 279.29791666666415,
                        "value": 0
                    },
                    {
                        "number": 64,
                        "time": 279.34999999999746,
                        "value": 0.49606299212598426
                    },
                    {
                        "number": 64,
                        "time": 279.39374999999745,
                        "value": 1
                    },
                    {
                        "number": 64,
                        "time": 280.71874999999744,
                        "value": 0.49606299212598426
                    },
                    {
                        "number": 64,
                        "time": 280.7645833333308,
                        "value": 0
                    },
                    {
                        "number": 64,
                        "time": 281.27916666666414,
                        "value": 0.49606299212598426
                    },
                    {
                        "number": 64,
                        "time": 281.2958333333308,
                        "value": 1
                    },
                    {
                        "number": 64,
                        "time": 282.4749999999975,
                        "value": 0.49606299212598426
                    },
                    {
                        "number": 64,
                        "time": 282.55624999999753,
                        "value": 1
                    },
                    {
                        "number": 64,
                        "time": 283.47708333333094,
                        "value": 0.49606299212598426
                    },
                    {
                        "number": 64,
                        "time": 283.5062499999976,
                        "value": 1
                    },
                    {
                        "number": 64,
                        "time": 284.52916666666437,
                        "value": 0.49606299212598426
                    },
                    {
                        "number": 64,
                        "time": 284.58333333333104,
                        "value": 1
                    },
                    {
                        "number": 64,
                        "time": 285.53333333333114,
                        "value": 0.49606299212598426
                    },
                    {
                        "number": 64,
                        "time": 285.5666666666645,
                        "value": 1
                    },
                    {
                        "number": 64,
                        "time": 286.4583333333312,
                        "value": 0.49606299212598426
                    },
                    {
                        "number": 64,
                        "time": 286.49791666666454,
                        "value": 1
                    },
                    {
                        "number": 64,
                        "time": 288.4645833333314,
                        "value": 0.49606299212598426
                    },
                    {
                        "number": 64,
                        "time": 288.46666666666476,
                        "value": 1
                    },
                    {
                        "number": 64,
                        "time": 294.75416666666524,
                        "value": 0.49606299212598426
                    },
                    {
                        "number": 64,
                        "time": 294.8416666666652,
                        "value": 1
                    },
                    {
                        "number": 64,
                        "time": 297.75833333333236,
                        "value": 0.49606299212598426
                    },
                    {
                        "number": 64,
                        "time": 297.7958333333324,
                        "value": 1
                    },
                    {
                        "number": 64,
                        "time": 298.7604166666659,
                        "value": 0.49606299212598426
                    },
                    {
                        "number": 64,
                        "time": 298.7687499999992,
                        "value": 1
                    },
                    {
                        "number": 64,
                        "time": 300.7645833333328,
                        "value": 0.49606299212598426
                    },
                    {
                        "number": 64,
                        "time": 300.79791666666614,
                        "value": 1
                    },
                    {
                        "number": 64,
                        "time": 305.04791666666654,
                        "value": 0.49606299212598426
                    },
                    {
                        "number": 64,
                        "time": 305.11041666666654,
                        "value": 1
                    },
                    {
                        "number": 64,
                        "time": 307.92291666666677,
                        "value": 0.49606299212598426
                    },
                    {
                        "number": 64,
                        "time": 308.00833333333344,
                        "value": 1
                    },
                    {
                        "number": 64,
                        "time": 310.0437500000001,
                        "value": 0.49606299212598426
                    },
                    {
                        "number": 64,
                        "time": 310.05833333333345,
                        "value": 0
                    },
                    {
                        "number": 64,
                        "time": 310.1041666666668,
                        "value": 0.49606299212598426
                    },
                    {
                        "number": 64,
                        "time": 310.13333333333344,
                        "value": 1
                    },
                    {
                        "number": 64,
                        "time": 311.2520833333335,
                        "value": 0.49606299212598426
                    },
                    {
                        "number": 64,
                        "time": 311.3104166666668,
                        "value": 1
                    },
                    {
                        "number": 64,
                        "time": 313.3250000000003,
                        "value": 0.49606299212598426
                    },
                    {
                        "number": 64,
                        "time": 313.4062500000003,
                        "value": 1
                    },
                    {
                        "number": 64,
                        "time": 314.58125000000035,
                        "value": 0.49606299212598426
                    },
                    {
                        "number": 64,
                        "time": 314.60000000000036,
                        "value": 0
                    },
                    {
                        "number": 64,
                        "time": 314.647916666667,
                        "value": 0.49606299212598426
                    },
                    {
                        "number": 64,
                        "time": 314.6895833333337,
                        "value": 1
                    },
                    {
                        "number": 64,
                        "time": 317.4854166666673,
                        "value": 0.49606299212598426
                    },
                    {
                        "number": 64,
                        "time": 317.52708333333396,
                        "value": 1
                    },
                    {
                        "number": 64,
                        "time": 320.2916666666676,
                        "value": 0.49606299212598426
                    },
                    {
                        "number": 64,
                        "time": 320.3104166666676,
                        "value": 0
                    },
                    {
                        "number": 64,
                        "time": 320.37916666666763,
                        "value": 0.49606299212598426
                    },
                    {
                        "number": 64,
                        "time": 320.40000000000094,
                        "value": 1
                    },
                    {
                        "number": 64,
                        "time": 323.5062500000012,
                        "value": 0.49606299212598426
                    },
                    {
                        "number": 64,
                        "time": 323.62916666666786,
                        "value": 0
                    },
                    {
                        "number": 64,
                        "time": 324.5812500000012,
                        "value": 0.49606299212598426
                    },
                    {
                        "number": 64,
                        "time": 324.58541666666787,
                        "value": 1
                    },
                    {
                        "number": 64,
                        "time": 325.3458333333345,
                        "value": 0.49606299212598426
                    },
                    {
                        "number": 64,
                        "time": 325.43125000000117,
                        "value": 1
                    },
                    {
                        "number": 64,
                        "time": 326.2875000000012,
                        "value": 0.49606299212598426
                    },
                    {
                        "number": 64,
                        "time": 326.38958333333454,
                        "value": 1
                    },
                    {
                        "number": 64,
                        "time": 327.2437500000012,
                        "value": 0.49606299212598426
                    },
                    {
                        "number": 64,
                        "time": 327.28125000000125,
                        "value": 0
                    },
                    {
                        "number": 64,
                        "time": 327.3291666666679,
                        "value": 0.49606299212598426
                    },
                    {
                        "number": 64,
                        "time": 327.3708333333346,
                        "value": 1
                    },
                    {
                        "number": 64,
                        "time": 330.6229166666682,
                        "value": 0.49606299212598426
                    },
                    {
                        "number": 64,
                        "time": 330.70833333333485,
                        "value": 1
                    },
                    {
                        "number": 64,
                        "time": 331.1416666666682,
                        "value": 0.49606299212598426
                    },
                    {
                        "number": 64,
                        "time": 331.22708333333486,
                        "value": 1
                    },
                    {
                        "number": 64,
                        "time": 331.9145833333349,
                        "value": 0.49606299212598426
                    },
                    {
                        "number": 64,
                        "time": 332.04583333333494,
                        "value": 1
                    },
                    {
                        "number": 64,
                        "time": 333.13125000000167,
                        "value": 0.49606299212598426
                    },
                    {
                        "number": 64,
                        "time": 333.20625000000166,
                        "value": 1
                    },
                    {
                        "number": 64,
                        "time": 334.07916666666836,
                        "value": 0.49606299212598426
                    },
                    {
                        "number": 64,
                        "time": 334.177083333335,
                        "value": 1
                    },
                    {
                        "number": 64,
                        "time": 335.24583333333516,
                        "value": 0.49606299212598426
                    },
                    {
                        "number": 64,
                        "time": 335.25625000000184,
                        "value": 0
                    },
                    {
                        "number": 64,
                        "time": 335.45000000000186,
                        "value": 0.49606299212598426
                    },
                    {
                        "number": 64,
                        "time": 335.4583333333352,
                        "value": 1
                    },
                    {
                        "number": 64,
                        "time": 335.6520833333352,
                        "value": 0.49606299212598426
                    },
                    {
                        "number": 64,
                        "time": 335.66041666666854,
                        "value": 0
                    },
                    {
                        "number": 64,
                        "time": 335.7354166666686,
                        "value": 0.49606299212598426
                    },
                    {
                        "number": 64,
                        "time": 335.75000000000193,
                        "value": 1
                    },
                    {
                        "number": 64,
                        "time": 336.58958333333527,
                        "value": 0.49606299212598426
                    },
                    {
                        "number": 64,
                        "time": 336.6083333333353,
                        "value": 0
                    },
                    {
                        "number": 64,
                        "time": 336.7083333333353,
                        "value": 0.49606299212598426
                    },
                    {
                        "number": 64,
                        "time": 336.72500000000196,
                        "value": 1
                    },
                    {
                        "number": 64,
                        "time": 337.53541666666865,
                        "value": 0.49606299212598426
                    },
                    {
                        "number": 64,
                        "time": 337.5520833333353,
                        "value": 0
                    },
                    {
                        "number": 64,
                        "time": 337.606250000002,
                        "value": 0.49606299212598426
                    },
                    {
                        "number": 64,
                        "time": 337.643750000002,
                        "value": 1
                    },
                    {
                        "number": 64,
                        "time": 338.4479166666686,
                        "value": 0.49606299212598426
                    },
                    {
                        "number": 64,
                        "time": 338.4604166666686,
                        "value": 0
                    },
                    {
                        "number": 64,
                        "time": 338.53958333333526,
                        "value": 0.49606299212598426
                    },
                    {
                        "number": 64,
                        "time": 338.5687500000019,
                        "value": 1
                    },
                    {
                        "number": 64,
                        "time": 339.6166666666686,
                        "value": 0.49606299212598426
                    },
                    {
                        "number": 64,
                        "time": 339.69583333333526,
                        "value": 1
                    },
                    {
                        "number": 64,
                        "time": 340.90625000000193,
                        "value": 0.49606299212598426
                    },
                    {
                        "number": 64,
                        "time": 340.97708333333526,
                        "value": 1
                    },
                    {
                        "number": 64,
                        "time": 341.7666666666685,
                        "value": 0.49606299212598426
                    },
                    {
                        "number": 64,
                        "time": 341.7916666666685,
                        "value": 0
                    },
                    {
                        "number": 64,
                        "time": 341.81875000000184,
                        "value": 0.49606299212598426
                    },
                    {
                        "number": 64,
                        "time": 341.8645833333352,
                        "value": 1
                    },
                    {
                        "number": 64,
                        "time": 342.6458333333352,
                        "value": 0.49606299212598426
                    },
                    {
                        "number": 64,
                        "time": 342.7500000000019,
                        "value": 1
                    },
                    {
                        "number": 64,
                        "time": 343.71041666666866,
                        "value": 0.49606299212598426
                    },
                    {
                        "number": 64,
                        "time": 343.73541666666864,
                        "value": 0
                    },
                    {
                        "number": 64,
                        "time": 343.8083333333353,
                        "value": 0.49606299212598426
                    },
                    {
                        "number": 64,
                        "time": 343.8416666666687,
                        "value": 1
                    },
                    {
                        "number": 64,
                        "time": 344.9958333333354,
                        "value": 0.49606299212598426
                    },
                    {
                        "number": 64,
                        "time": 345.03125000000205,
                        "value": 0
                    },
                    {
                        "number": 64,
                        "time": 345.0645833333354,
                        "value": 0.49606299212598426
                    },
                    {
                        "number": 64,
                        "time": 345.1208333333354,
                        "value": 1
                    },
                    {
                        "number": 64,
                        "time": 345.850000000002,
                        "value": 0.49606299212598426
                    },
                    {
                        "number": 64,
                        "time": 345.95625000000206,
                        "value": 1
                    },
                    {
                        "number": 64,
                        "time": 348.4437500000022,
                        "value": 0.49606299212598426
                    },
                    {
                        "number": 64,
                        "time": 348.45625000000217,
                        "value": 1
                    },
                    {
                        "number": 64,
                        "time": 349.45833333333553,
                        "value": 0.49606299212598426
                    },
                    {
                        "number": 64,
                        "time": 349.4750000000022,
                        "value": 0
                    },
                    {
                        "number": 64,
                        "time": 349.50000000000216,
                        "value": 0.49606299212598426
                    },
                    {
                        "number": 64,
                        "time": 349.5395833333355,
                        "value": 1
                    },
                    {
                        "number": 64,
                        "time": 350.4416666666688,
                        "value": 0.49606299212598426
                    },
                    {
                        "number": 64,
                        "time": 350.4520833333355,
                        "value": 0
                    },
                    {
                        "number": 64,
                        "time": 350.51875000000217,
                        "value": 0.49606299212598426
                    },
                    {
                        "number": 64,
                        "time": 350.5458333333355,
                        "value": 1
                    },
                    {
                        "number": 64,
                        "time": 351.59791666666894,
                        "value": 0.49606299212598426
                    },
                    {
                        "number": 64,
                        "time": 351.6083333333356,
                        "value": 0
                    },
                    {
                        "number": 64,
                        "time": 351.7250000000023,
                        "value": 0.49606299212598426
                    },
                    {
                        "number": 64,
                        "time": 351.74166666666895,
                        "value": 1
                    },
                    {
                        "number": 64,
                        "time": 353.6958333333356,
                        "value": 0.49606299212598426
                    },
                    {
                        "number": 64,
                        "time": 353.7041666666689,
                        "value": 0
                    },
                    {
                        "number": 64,
                        "time": 353.7916666666689,
                        "value": 0.49606299212598426
                    },
                    {
                        "number": 64,
                        "time": 353.8104166666689,
                        "value": 1
                    },
                    {
                        "number": 64,
                        "time": 354.8812500000023,
                        "value": 0.49606299212598426
                    },
                    {
                        "number": 64,
                        "time": 354.89791666666895,
                        "value": 0
                    },
                    {
                        "number": 64,
                        "time": 354.9770833333356,
                        "value": 0.49606299212598426
                    },
                    {
                        "number": 64,
                        "time": 355.00625000000224,
                        "value": 1
                    },
                    {
                        "number": 64,
                        "time": 355.96875000000233,
                        "value": 0.49606299212598426
                    },
                    {
                        "number": 64,
                        "time": 355.9833333333357,
                        "value": 0
                    },
                    {
                        "number": 64,
                        "time": 356.03125000000233,
                        "value": 0.49606299212598426
                    },
                    {
                        "number": 64,
                        "time": 356.066666666669,
                        "value": 1
                    },
                    {
                        "number": 64,
                        "time": 357.23125000000243,
                        "value": 0.49606299212598426
                    },
                    {
                        "number": 64,
                        "time": 357.2458333333358,
                        "value": 0
                    },
                    {
                        "number": 64,
                        "time": 357.35625000000243,
                        "value": 0.49606299212598426
                    },
                    {
                        "number": 64,
                        "time": 357.3812500000024,
                        "value": 1
                    },
                    {
                        "number": 64,
                        "time": 358.5083333333358,
                        "value": 0.49606299212598426
                    },
                    {
                        "number": 64,
                        "time": 358.5500000000025,
                        "value": 0
                    },
                    {
                        "number": 64,
                        "time": 358.58958333333584,
                        "value": 0.49606299212598426
                    },
                    {
                        "number": 64,
                        "time": 358.6437500000025,
                        "value": 1
                    },
                    {
                        "number": 64,
                        "time": 361.1895833333359,
                        "value": 0.49606299212598426
                    },
                    {
                        "number": 64,
                        "time": 361.19791666666924,
                        "value": 0
                    },
                    {
                        "number": 64,
                        "time": 361.6687500000026,
                        "value": 0.49606299212598426
                    },
                    {
                        "number": 64,
                        "time": 361.6750000000026,
                        "value": 1
                    },
                    {
                        "number": 64,
                        "time": 361.714583333336,
                        "value": 0.49606299212598426
                    },
                    {
                        "number": 64,
                        "time": 361.7354166666694,
                        "value": 0
                    },
                    {
                        "number": 64,
                        "time": 362.11250000000274,
                        "value": 0.49606299212598426
                    },
                    {
                        "number": 64,
                        "time": 362.11875000000276,
                        "value": 1
                    },
                    {
                        "number": 64,
                        "time": 362.4520833333361,
                        "value": 0.49606299212598426
                    },
                    {
                        "number": 64,
                        "time": 362.46458333333607,
                        "value": 0
                    },
                    {
                        "number": 64,
                        "time": 362.72291666666945,
                        "value": 0.49606299212598426
                    },
                    {
                        "number": 64,
                        "time": 362.73333333333613,
                        "value": 1
                    },
                    {
                        "number": 64,
                        "time": 362.8604166666695,
                        "value": 0.49606299212598426
                    },
                    {
                        "number": 64,
                        "time": 362.8666666666695,
                        "value": 0
                    },
                    {
                        "number": 64,
                        "time": 362.9791666666695,
                        "value": 0.49606299212598426
                    },
                    {
                        "number": 64,
                        "time": 362.98541666666955,
                        "value": 1
                    },
                    {
                        "number": 64,
                        "time": 363.78541666666956,
                        "value": 0.49606299212598426
                    },
                    {
                        "number": 64,
                        "time": 363.7916666666696,
                        "value": 0
                    },
                    {
                        "number": 64,
                        "time": 363.85833333333625,
                        "value": 0.49606299212598426
                    },
                    {
                        "number": 64,
                        "time": 363.88958333333625,
                        "value": 1
                    },
                    {
                        "number": 64,
                        "time": 364.0937500000029,
                        "value": 0.49606299212598426
                    },
                    {
                        "number": 64,
                        "time": 364.1041666666696,
                        "value": 0
                    },
                    {
                        "number": 64,
                        "time": 364.2062500000029,
                        "value": 0.49606299212598426
                    },
                    {
                        "number": 64,
                        "time": 364.2291666666696,
                        "value": 1
                    },
                    {
                        "number": 64,
                        "time": 364.512500000003,
                        "value": 0.49606299212598426
                    },
                    {
                        "number": 64,
                        "time": 364.52916666666965,
                        "value": 0
                    },
                    {
                        "number": 64,
                        "time": 364.57708333333636,
                        "value": 0.49606299212598426
                    },
                    {
                        "number": 64,
                        "time": 364.612500000003,
                        "value": 1
                    },
                    {
                        "number": 64,
                        "time": 365.068750000003,
                        "value": 0.49606299212598426
                    },
                    {
                        "number": 64,
                        "time": 365.07916666666966,
                        "value": 0
                    },
                    {
                        "number": 64,
                        "time": 365.4604166666698,
                        "value": 0.49606299212598426
                    },
                    {
                        "number": 64,
                        "time": 365.46458333333646,
                        "value": 1
                    },
                    {
                        "number": 64,
                        "time": 365.9062500000031,
                        "value": 0.49606299212598426
                    },
                    {
                        "number": 64,
                        "time": 365.92500000000314,
                        "value": 0
                    },
                    {
                        "number": 64,
                        "time": 365.9541666666698,
                        "value": 0.49606299212598426
                    },
                    {
                        "number": 64,
                        "time": 365.9854166666698,
                        "value": 1
                    },
                    {
                        "number": 64,
                        "time": 366.3020833333365,
                        "value": 0.49606299212598426
                    },
                    {
                        "number": 64,
                        "time": 366.3333333333365,
                        "value": 0
                    },
                    {
                        "number": 64,
                        "time": 366.4645833333365,
                        "value": 0.49606299212598426
                    },
                    {
                        "number": 64,
                        "time": 366.48541666666983,
                        "value": 1
                    },
                    {
                        "number": 64,
                        "time": 366.7250000000032,
                        "value": 0.49606299212598426
                    },
                    {
                        "number": 64,
                        "time": 366.7479166666699,
                        "value": 0
                    },
                    {
                        "number": 64,
                        "time": 366.8062500000032,
                        "value": 0.49606299212598426
                    },
                    {
                        "number": 64,
                        "time": 366.85208333333657,
                        "value": 1
                    },
                    {
                        "number": 64,
                        "time": 367.6645833333365,
                        "value": 0.49606299212598426
                    },
                    {
                        "number": 64,
                        "time": 367.67916666666986,
                        "value": 0
                    },
                    {
                        "number": 64,
                        "time": 368.05416666666986,
                        "value": 0.49606299212598426
                    },
                    {
                        "number": 64,
                        "time": 368.0562500000032,
                        "value": 1
                    },
                    {
                        "number": 64,
                        "time": 369.2645833333366,
                        "value": 0.49606299212598426
                    },
                    {
                        "number": 64,
                        "time": 369.2750000000033,
                        "value": 0
                    },
                    {
                        "number": 64,
                        "time": 369.3750000000033,
                        "value": 0.49606299212598426
                    },
                    {
                        "number": 64,
                        "time": 369.39791666666997,
                        "value": 1
                    },
                    {
                        "number": 64,
                        "time": 370.12708333333666,
                        "value": 0.49606299212598426
                    },
                    {
                        "number": 64,
                        "time": 370.14791666666997,
                        "value": 0
                    },
                    {
                        "number": 64,
                        "time": 370.41250000000326,
                        "value": 0.49606299212598426
                    },
                    {
                        "number": 64,
                        "time": 370.4187500000033,
                        "value": 1
                    },
                    {
                        "number": 64,
                        "time": 371.63541666667,
                        "value": 0.49606299212598426
                    },
                    {
                        "number": 64,
                        "time": 371.65416666667,
                        "value": 0
                    },
                    {
                        "number": 64,
                        "time": 371.73541666667,
                        "value": 0.49606299212598426
                    },
                    {
                        "number": 64,
                        "time": 371.77083333333667,
                        "value": 1
                    },
                    {
                        "number": 64,
                        "time": 372.5187500000034,
                        "value": 0.49606299212598426
                    },
                    {
                        "number": 64,
                        "time": 372.53958333333674,
                        "value": 0
                    },
                    {
                        "number": 64,
                        "time": 372.7312500000034,
                        "value": 0.49606299212598426
                    },
                    {
                        "number": 64,
                        "time": 372.74791666667005,
                        "value": 1
                    },
                    {
                        "number": 64,
                        "time": 373.0833333333367,
                        "value": 0.49606299212598426
                    },
                    {
                        "number": 64,
                        "time": 373.0979166666701,
                        "value": 0
                    },
                    {
                        "number": 64,
                        "time": 373.1645833333368,
                        "value": 0.49606299212598426
                    },
                    {
                        "number": 64,
                        "time": 373.1854166666701,
                        "value": 1
                    },
                    {
                        "number": 64,
                        "time": 373.5208333333368,
                        "value": 0.49606299212598426
                    },
                    {
                        "number": 64,
                        "time": 373.5395833333368,
                        "value": 0
                    },
                    {
                        "number": 64,
                        "time": 374.1604166666701,
                        "value": 0.49606299212598426
                    },
                    {
                        "number": 64,
                        "time": 374.17083333333676,
                        "value": 1
                    },
                    {
                        "number": 64,
                        "time": 374.3895833333368,
                        "value": 0.49606299212598426
                    },
                    {
                        "number": 64,
                        "time": 374.39583333333684,
                        "value": 0
                    },
                    {
                        "number": 64,
                        "time": 374.52708333333686,
                        "value": 0.49606299212598426
                    },
                    {
                        "number": 64,
                        "time": 374.5395833333369,
                        "value": 1
                    },
                    {
                        "number": 64,
                        "time": 374.72083333333694,
                        "value": 0.49606299212598426
                    },
                    {
                        "number": 64,
                        "time": 374.72708333333696,
                        "value": 0
                    },
                    {
                        "number": 64,
                        "time": 375.102083333337,
                        "value": 0.49606299212598426
                    },
                    {
                        "number": 64,
                        "time": 375.1041666666704,
                        "value": 1
                    },
                    {
                        "number": 64,
                        "time": 375.4187500000037,
                        "value": 0.49606299212598426
                    },
                    {
                        "number": 64,
                        "time": 375.42916666667037,
                        "value": 0
                    },
                    {
                        "number": 64,
                        "time": 375.4854166666704,
                        "value": 0.49606299212598426
                    },
                    {
                        "number": 64,
                        "time": 375.50000000000375,
                        "value": 1
                    },
                    {
                        "number": 64,
                        "time": 375.94583333333713,
                        "value": 0.49606299212598426
                    },
                    {
                        "number": 64,
                        "time": 375.96458333333715,
                        "value": 0
                    },
                    {
                        "number": 64,
                        "time": 376.4687500000039,
                        "value": 0.49606299212598426
                    },
                    {
                        "number": 64,
                        "time": 376.4729166666706,
                        "value": 1
                    },
                    {
                        "number": 64,
                        "time": 376.6916666666705,
                        "value": 0.49606299212598426
                    },
                    {
                        "number": 64,
                        "time": 376.7020833333372,
                        "value": 0
                    },
                    {
                        "number": 64,
                        "time": 376.8458333333373,
                        "value": 0.49606299212598426
                    },
                    {
                        "number": 64,
                        "time": 376.85625000000397,
                        "value": 1
                    },
                    {
                        "number": 64,
                        "time": 377.187500000004,
                        "value": 0.49606299212598426
                    },
                    {
                        "number": 64,
                        "time": 377.20000000000397,
                        "value": 0
                    },
                    {
                        "number": 64,
                        "time": 377.55000000000405,
                        "value": 0.49606299212598426
                    },
                    {
                        "number": 64,
                        "time": 377.5541666666707,
                        "value": 1
                    },
                    {
                        "number": 64,
                        "time": 377.69375000000406,
                        "value": 0.49606299212598426
                    },
                    {
                        "number": 64,
                        "time": 377.70625000000405,
                        "value": 0
                    },
                    {
                        "number": 64,
                        "time": 377.97708333333736,
                        "value": 0.49606299212598426
                    },
                    {
                        "number": 64,
                        "time": 377.98333333333744,
                        "value": 1
                    },
                    {
                        "number": 64,
                        "time": 378.6937500000041,
                        "value": 0.49606299212598426
                    },
                    {
                        "number": 64,
                        "time": 378.71041666667077,
                        "value": 0
                    },
                    {
                        "number": 64,
                        "time": 378.92500000000416,
                        "value": 0.49606299212598426
                    },
                    {
                        "number": 64,
                        "time": 378.9395833333375,
                        "value": 1
                    },
                    {
                        "number": 64,
                        "time": 379.64166666667086,
                        "value": 0.49606299212598426
                    },
                    {
                        "number": 64,
                        "time": 379.6562500000042,
                        "value": 0
                    },
                    {
                        "number": 64,
                        "time": 380.1979166666709,
                        "value": 1
                    },
                    {
                        "number": 64,
                        "time": 381.129166666671,
                        "value": 0.49606299212598426
                    },
                    {
                        "number": 64,
                        "time": 381.1500000000043,
                        "value": 0
                    },
                    {
                        "number": 64,
                        "time": 382.2020833333377,
                        "value": 0.49606299212598426
                    },
                    {
                        "number": 64,
                        "time": 382.2125000000044,
                        "value": 1
                    },
                    {
                        "number": 64,
                        "time": 382.6333333333378,
                        "value": 0.49606299212598426
                    },
                    {
                        "number": 64,
                        "time": 382.6458333333378,
                        "value": 0
                    },
                    {
                        "number": 64,
                        "time": 383.5458333333378,
                        "value": 0.49606299212598426
                    },
                    {
                        "number": 64,
                        "time": 383.5520833333378,
                        "value": 1
                    },
                    {
                        "number": 64,
                        "time": 383.81458333333774,
                        "value": 0.49606299212598426
                    },
                    {
                        "number": 64,
                        "time": 383.8312500000044,
                        "value": 0
                    },
                    {
                        "number": 64,
                        "time": 383.8979166666711,
                        "value": 0.49606299212598426
                    },
                    {
                        "number": 64,
                        "time": 383.9270833333378,
                        "value": 1
                    },
                    {
                        "number": 64,
                        "time": 384.24791666667113,
                        "value": 0.49606299212598426
                    },
                    {
                        "number": 64,
                        "time": 384.2625000000045,
                        "value": 0
                    },
                    {
                        "number": 64,
                        "time": 384.3750000000045,
                        "value": 0.49606299212598426
                    },
                    {
                        "number": 64,
                        "time": 384.4020833333378,
                        "value": 1
                    },
                    {
                        "number": 64,
                        "time": 384.6000000000045,
                        "value": 0.49606299212598426
                    },
                    {
                        "number": 64,
                        "time": 384.61458333333786,
                        "value": 0
                    },
                    {
                        "number": 64,
                        "time": 384.80000000000456,
                        "value": 0.49606299212598426
                    },
                    {
                        "number": 64,
                        "time": 384.8458333333379,
                        "value": 1
                    },
                    {
                        "number": 64,
                        "time": 385.0020833333379,
                        "value": 0.49606299212598426
                    },
                    {
                        "number": 64,
                        "time": 385.02708333333794,
                        "value": 0
                    },
                    {
                        "number": 64,
                        "time": 385.164583333338,
                        "value": 0.49606299212598426
                    },
                    {
                        "number": 64,
                        "time": 385.208333333338,
                        "value": 1
                    },
                    {
                        "number": 64,
                        "time": 385.29375000000465,
                        "value": 0.49606299212598426
                    },
                    {
                        "number": 64,
                        "time": 385.3604166666713,
                        "value": 0
                    },
                    {
                        "number": 64,
                        "time": 385.88750000000465,
                        "value": 0.49606299212598426
                    },
                    {
                        "number": 64,
                        "time": 385.9479166666713,
                        "value": 1
                    },
                    {
                        "number": 64,
                        "time": 386.2833333333379,
                        "value": 0.49606299212598426
                    },
                    {
                        "number": 64,
                        "time": 386.3250000000046,
                        "value": 0
                    },
                    {
                        "number": 64,
                        "time": 386.45208333333795,
                        "value": 0.49606299212598426
                    },
                    {
                        "number": 64,
                        "time": 386.4916666666713,
                        "value": 1
                    },
                    {
                        "number": 64,
                        "time": 386.86666666667134,
                        "value": 0.49606299212598426
                    },
                    {
                        "number": 64,
                        "time": 386.93750000000466,
                        "value": 0
                    },
                    {
                        "number": 64,
                        "time": 387.0479166666713,
                        "value": 0.49606299212598426
                    },
                    {
                        "number": 64,
                        "time": 387.1104166666713,
                        "value": 1
                    },
                    {
                        "number": 64,
                        "time": 387.68750000000466,
                        "value": 0.49606299212598426
                    },
                    {
                        "number": 64,
                        "time": 387.7229166666713,
                        "value": 0
                    },
                    {
                        "number": 64,
                        "time": 388.120833333338,
                        "value": 0.49606299212598426
                    },
                    {
                        "number": 64,
                        "time": 388.139583333338,
                        "value": 1
                    },
                    {
                        "number": 64,
                        "time": 388.58125000000473,
                        "value": 0.49606299212598426
                    },
                    {
                        "number": 64,
                        "time": 388.60833333333807,
                        "value": 0
                    },
                    {
                        "number": 64,
                        "time": 388.7395833333381,
                        "value": 0.49606299212598426
                    },
                    {
                        "number": 64,
                        "time": 388.7604166666714,
                        "value": 1
                    },
                    {
                        "number": 64,
                        "time": 389.1041666666714,
                        "value": 0.49606299212598426
                    },
                    {
                        "number": 64,
                        "time": 389.1229166666714,
                        "value": 0
                    },
                    {
                        "number": 64,
                        "time": 389.2708333333381,
                        "value": 0.49606299212598426
                    },
                    {
                        "number": 64,
                        "time": 389.2812500000048,
                        "value": 1
                    },
                    {
                        "number": 64,
                        "time": 389.7937500000048,
                        "value": 0.49606299212598426
                    },
                    {
                        "number": 64,
                        "time": 389.80208333333815,
                        "value": 0
                    },
                    {
                        "number": 64,
                        "time": 389.90833333333813,
                        "value": 0.49606299212598426
                    },
                    {
                        "number": 64,
                        "time": 389.9187500000048,
                        "value": 1
                    },
                    {
                        "number": 64,
                        "time": 391.512500000005,
                        "value": 0.49606299212598426
                    },
                    {
                        "number": 64,
                        "time": 391.52916666667164,
                        "value": 0
                    },
                    {
                        "number": 64,
                        "time": 391.56041666667164,
                        "value": 0.49606299212598426
                    },
                    {
                        "number": 64,
                        "time": 391.587500000005,
                        "value": 1
                    },
                    {
                        "number": 64,
                        "time": 392.76250000000505,
                        "value": 0.49606299212598426
                    },
                    {
                        "number": 64,
                        "time": 392.8333333333385,
                        "value": 1
                    },
                    {
                        "number": 64,
                        "time": 393.9833333333385,
                        "value": 0.49606299212598426
                    },
                    {
                        "number": 64,
                        "time": 394.0791666666719,
                        "value": 1
                    },
                    {
                        "number": 64,
                        "time": 394.50625000000525,
                        "value": 0.49606299212598426
                    },
                    {
                        "number": 64,
                        "time": 394.5666666666719,
                        "value": 1
                    },
                    {
                        "number": 64,
                        "time": 396.8625000000053,
                        "value": 0.49606299212598426
                    },
                    {
                        "number": 64,
                        "time": 396.9354166666719,
                        "value": 1
                    },
                    {
                        "number": 64,
                        "time": 397.3395833333386,
                        "value": 0.49606299212598426
                    },
                    {
                        "number": 64,
                        "time": 397.354166666672,
                        "value": 0
                    },
                    {
                        "number": 64,
                        "time": 397.72500000000537,
                        "value": 0.49606299212598426
                    },
                    {
                        "number": 64,
                        "time": 397.7312500000054,
                        "value": 1
                    },
                    {
                        "number": 64,
                        "time": 398.20208333333875,
                        "value": 0.49606299212598426
                    },
                    {
                        "number": 64,
                        "time": 398.2166666666721,
                        "value": 0
                    },
                    {
                        "number": 64,
                        "time": 398.53333333333876,
                        "value": 0.49606299212598426
                    },
                    {
                        "number": 64,
                        "time": 398.54166666667214,
                        "value": 1
                    },
                    {
                        "number": 64,
                        "time": 399.1145833333388,
                        "value": 0.49606299212598426
                    },
                    {
                        "number": 64,
                        "time": 399.1375000000055,
                        "value": 0
                    },
                    {
                        "number": 64,
                        "time": 399.2708333333388,
                        "value": 0.49606299212598426
                    },
                    {
                        "number": 64,
                        "time": 399.2854166666722,
                        "value": 1
                    },
                    {
                        "number": 64,
                        "time": 399.84791666667223,
                        "value": 0.49606299212598426
                    },
                    {
                        "number": 64,
                        "time": 399.8625000000056,
                        "value": 0
                    },
                    {
                        "number": 64,
                        "time": 399.95833333333894,
                        "value": 0.49606299212598426
                    },
                    {
                        "number": 64,
                        "time": 399.9833333333389,
                        "value": 1
                    },
                    {
                        "number": 64,
                        "time": 400.6187500000057,
                        "value": 0.49606299212598426
                    },
                    {
                        "number": 64,
                        "time": 400.63541666667237,
                        "value": 0
                    },
                    {
                        "number": 64,
                        "time": 401.4604166666723,
                        "value": 0.49606299212598426
                    },
                    {
                        "number": 64,
                        "time": 401.46250000000566,
                        "value": 1
                    },
                    {
                        "number": 64,
                        "time": 401.670833333339,
                        "value": 0.49606299212598426
                    },
                    {
                        "number": 64,
                        "time": 401.6854166666723,
                        "value": 0
                    },
                    {
                        "number": 64,
                        "time": 401.74583333333896,
                        "value": 0.49606299212598426
                    },
                    {
                        "number": 64,
                        "time": 401.76875000000564,
                        "value": 1
                    },
                    {
                        "number": 64,
                        "time": 402.2854166666723,
                        "value": 0.49606299212598426
                    },
                    {
                        "number": 64,
                        "time": 402.29791666667234,
                        "value": 0
                    },
                    {
                        "number": 64,
                        "time": 402.583333333339,
                        "value": 0.49606299212598426
                    },
                    {
                        "number": 64,
                        "time": 402.602083333339,
                        "value": 1
                    },
                    {
                        "number": 64,
                        "time": 403.00416666667235,
                        "value": 0.49606299212598426
                    },
                    {
                        "number": 64,
                        "time": 403.0291666666724,
                        "value": 0
                    },
                    {
                        "number": 64,
                        "time": 403.59583333333904,
                        "value": 0.49606299212598426
                    },
                    {
                        "number": 64,
                        "time": 403.6000000000057,
                        "value": 1
                    },
                    {
                        "number": 64,
                        "time": 403.9375000000058,
                        "value": 0.49606299212598426
                    },
                    {
                        "number": 64,
                        "time": 403.95208333333915,
                        "value": 0
                    },
                    {
                        "number": 64,
                        "time": 404.09583333333916,
                        "value": 0.49606299212598426
                    },
                    {
                        "number": 64,
                        "time": 404.1125000000058,
                        "value": 1
                    },
                    {
                        "number": 64,
                        "time": 404.6020833333392,
                        "value": 0.49606299212598426
                    },
                    {
                        "number": 64,
                        "time": 404.6083333333392,
                        "value": 0
                    },
                    {
                        "number": 64,
                        "time": 404.7312500000059,
                        "value": 0.49606299212598426
                    },
                    {
                        "number": 64,
                        "time": 404.7416666666726,
                        "value": 1
                    },
                    {
                        "number": 64,
                        "time": 405.2416666666726,
                        "value": 0.49606299212598426
                    },
                    {
                        "number": 64,
                        "time": 405.2479166666726,
                        "value": 0
                    },
                    {
                        "number": 64,
                        "time": 405.38125000000593,
                        "value": 0.49606299212598426
                    },
                    {
                        "number": 64,
                        "time": 405.3916666666726,
                        "value": 1
                    },
                    {
                        "number": 64,
                        "time": 406.5166666666726,
                        "value": 0.49606299212598426
                    },
                    {
                        "number": 64,
                        "time": 406.581250000006,
                        "value": 1
                    },
                    {
                        "number": 64,
                        "time": 406.931250000006,
                        "value": 0.49606299212598426
                    },
                    {
                        "number": 64,
                        "time": 406.950000000006,
                        "value": 0
                    },
                    {
                        "number": 64,
                        "time": 406.96666666667267,
                        "value": 0.49606299212598426
                    },
                    {
                        "number": 64,
                        "time": 407.000000000006,
                        "value": 1
                    },
                    {
                        "number": 64,
                        "time": 407.7229166666727,
                        "value": 0.49606299212598426
                    },
                    {
                        "number": 64,
                        "time": 407.775000000006,
                        "value": 1
                    },
                    {
                        "number": 64,
                        "time": 408.2125000000061,
                        "value": 0.49606299212598426
                    },
                    {
                        "number": 64,
                        "time": 408.2625000000061,
                        "value": 1
                    },
                    {
                        "number": 64,
                        "time": 408.5854166666728,
                        "value": 0.49606299212598426
                    },
                    {
                        "number": 64,
                        "time": 408.63333333333946,
                        "value": 1
                    },
                    {
                        "number": 64,
                        "time": 409.9437500000062,
                        "value": 0.49606299212598426
                    },
                    {
                        "number": 64,
                        "time": 409.99791666667284,
                        "value": 1
                    },
                    {
                        "number": 64,
                        "time": 412.2562500000062,
                        "value": 0.49606299212598426
                    },
                    {
                        "number": 64,
                        "time": 412.3187500000063,
                        "value": 1
                    },
                    {
                        "number": 64,
                        "time": 412.7229166666729,
                        "value": 0.49606299212598426
                    },
                    {
                        "number": 64,
                        "time": 412.72916666667294,
                        "value": 0
                    },
                    {
                        "number": 64,
                        "time": 413.15625000000625,
                        "value": 0.49606299212598426
                    },
                    {
                        "number": 64,
                        "time": 413.160416666673,
                        "value": 1
                    },
                    {
                        "number": 64,
                        "time": 413.610416666673,
                        "value": 0.49606299212598426
                    },
                    {
                        "number": 64,
                        "time": 413.61875000000634,
                        "value": 0
                    },
                    {
                        "number": 64,
                        "time": 414.03125000000637,
                        "value": 0.49606299212598426
                    },
                    {
                        "number": 64,
                        "time": 414.0333333333397,
                        "value": 1
                    },
                    {
                        "number": 64,
                        "time": 414.3562500000064,
                        "value": 0.49606299212598426
                    },
                    {
                        "number": 64,
                        "time": 414.37291666667306,
                        "value": 0
                    },
                    {
                        "number": 64,
                        "time": 414.49791666667306,
                        "value": 0.49606299212598426
                    },
                    {
                        "number": 64,
                        "time": 414.52291666667304,
                        "value": 1
                    },
                    {
                        "number": 64,
                        "time": 414.6937500000064,
                        "value": 0.49606299212598426
                    },
                    {
                        "number": 64,
                        "time": 414.72291666667303,
                        "value": 0
                    },
                    {
                        "number": 64,
                        "time": 416.05208333333985,
                        "value": 0.49606299212598426
                    },
                    {
                        "number": 64,
                        "time": 416.06458333333984,
                        "value": 1
                    },
                    {
                        "number": 64,
                        "time": 416.1937500000065,
                        "value": 0.49606299212598426
                    },
                    {
                        "number": 64,
                        "time": 416.2354166666732,
                        "value": 0
                    },
                    {
                        "number": 64,
                        "time": 416.8854166666732,
                        "value": 0.49606299212598426
                    },
                    {
                        "number": 64,
                        "time": 416.8979166666732,
                        "value": 1
                    },
                    {
                        "number": 64,
                        "time": 417.1395833333399,
                        "value": 0.49606299212598426
                    },
                    {
                        "number": 64,
                        "time": 417.1520833333399,
                        "value": 0
                    },
                    {
                        "number": 64,
                        "time": 417.52291666667327,
                        "value": 0.49606299212598426
                    },
                    {
                        "number": 64,
                        "time": 417.5312500000066,
                        "value": 1
                    },
                    {
                        "number": 64,
                        "time": 417.74375000000657,
                        "value": 0.49606299212598426
                    },
                    {
                        "number": 64,
                        "time": 417.75625000000656,
                        "value": 0
                    },
                    {
                        "number": 64,
                        "time": 418.0500000000066,
                        "value": 0.49606299212598426
                    },
                    {
                        "number": 64,
                        "time": 418.05208333333997,
                        "value": 1
                    },
                    {
                        "number": 64,
                        "time": 418.48750000000666,
                        "value": 0.49606299212598426
                    },
                    {
                        "number": 64,
                        "time": 418.49791666667335,
                        "value": 0
                    },
                    {
                        "number": 64,
                        "time": 418.90625000000665,
                        "value": 1
                    },
                    {
                        "number": 64,
                        "time": 419.2812500000066,
                        "value": 0.49606299212598426
                    },
                    {
                        "number": 64,
                        "time": 419.30208333333997,
                        "value": 0
                    },
                    {
                        "number": 64,
                        "time": 419.3625000000066,
                        "value": 0.49606299212598426
                    },
                    {
                        "number": 64,
                        "time": 419.3791666666733,
                        "value": 1
                    },
                    {
                        "number": 64,
                        "time": 419.7437500000067,
                        "value": 0.49606299212598426
                    },
                    {
                        "number": 64,
                        "time": 419.7500000000067,
                        "value": 0
                    },
                    {
                        "number": 64,
                        "time": 419.88958333334006,
                        "value": 0.49606299212598426
                    },
                    {
                        "number": 64,
                        "time": 419.8979166666734,
                        "value": 1
                    },
                    {
                        "number": 64,
                        "time": 420.10833333334006,
                        "value": 0.49606299212598426
                    },
                    {
                        "number": 64,
                        "time": 420.11875000000674,
                        "value": 0
                    },
                    {
                        "number": 64,
                        "time": 420.15833333334007,
                        "value": 0.49606299212598426
                    },
                    {
                        "number": 64,
                        "time": 420.1729166666734,
                        "value": 1
                    },
                    {
                        "number": 64,
                        "time": 421.03958333334015,
                        "value": 0.49606299212598426
                    },
                    {
                        "number": 64,
                        "time": 421.0562500000068,
                        "value": 0
                    },
                    {
                        "number": 64,
                        "time": 421.6083333333401,
                        "value": 0.49606299212598426
                    },
                    {
                        "number": 64,
                        "time": 421.6104166666735,
                        "value": 1
                    },
                    {
                        "number": 64,
                        "time": 422.0750000000068,
                        "value": 0.49606299212598426
                    },
                    {
                        "number": 64,
                        "time": 422.0875000000068,
                        "value": 0
                    },
                    {
                        "number": 64,
                        "time": 422.25833333334015,
                        "value": 0.49606299212598426
                    },
                    {
                        "number": 64,
                        "time": 422.27083333334014,
                        "value": 1
                    },
                    {
                        "number": 64,
                        "time": 422.7604166666735,
                        "value": 0.49606299212598426
                    },
                    {
                        "number": 64,
                        "time": 422.76666666667353,
                        "value": 0
                    },
                    {
                        "number": 64,
                        "time": 422.86041666667353,
                        "value": 0.49606299212598426
                    },
                    {
                        "number": 64,
                        "time": 422.8729166666736,
                        "value": 1
                    },
                    {
                        "number": 64,
                        "time": 423.7583333333403,
                        "value": 0.49606299212598426
                    },
                    {
                        "number": 64,
                        "time": 423.77500000000697,
                        "value": 0
                    },
                    {
                        "number": 64,
                        "time": 423.86250000000695,
                        "value": 0.49606299212598426
                    },
                    {
                        "number": 64,
                        "time": 423.8916666666736,
                        "value": 1
                    },
                    {
                        "number": 64,
                        "time": 424.5041666666736,
                        "value": 0.49606299212598426
                    },
                    {
                        "number": 64,
                        "time": 424.5166666666736,
                        "value": 0
                    },
                    {
                        "number": 64,
                        "time": 424.6916666666736,
                        "value": 0.49606299212598426
                    },
                    {
                        "number": 64,
                        "time": 424.7041666666736,
                        "value": 1
                    },
                    {
                        "number": 64,
                        "time": 425.4041666666736,
                        "value": 0.49606299212598426
                    },
                    {
                        "number": 64,
                        "time": 425.4208333333402,
                        "value": 0
                    },
                    {
                        "number": 64,
                        "time": 425.4875000000069,
                        "value": 0.49606299212598426
                    },
                    {
                        "number": 64,
                        "time": 425.5187500000069,
                        "value": 1
                    },
                    {
                        "number": 64,
                        "time": 426.12291666667363,
                        "value": 0.49606299212598426
                    },
                    {
                        "number": 64,
                        "time": 426.13125000000696,
                        "value": 0
                    },
                    {
                        "number": 64,
                        "time": 426.54791666667364,
                        "value": 0.49606299212598426
                    },
                    {
                        "number": 64,
                        "time": 426.54791666667364,
                        "value": 1
                    },
                    {
                        "number": 64,
                        "time": 426.868750000007,
                        "value": 0.49606299212598426
                    },
                    {
                        "number": 64,
                        "time": 426.87708333334035,
                        "value": 0
                    },
                    {
                        "number": 64,
                        "time": 426.97291666667365,
                        "value": 0.49606299212598426
                    },
                    {
                        "number": 64,
                        "time": 426.98541666667364,
                        "value": 1
                    },
                    {
                        "number": 64,
                        "time": 428.0604166666737,
                        "value": 0.49606299212598426
                    },
                    {
                        "number": 64,
                        "time": 428.0708333333404,
                        "value": 0
                    },
                    {
                        "number": 64,
                        "time": 428.14583333334036,
                        "value": 0.49606299212598426
                    },
                    {
                        "number": 64,
                        "time": 428.1645833333404,
                        "value": 1
                    },
                    {
                        "number": 64,
                        "time": 430.3041666666737,
                        "value": 0.49606299212598426
                    },
                    {
                        "number": 64,
                        "time": 430.31875000000707,
                        "value": 0
                    },
                    {
                        "number": 64,
                        "time": 430.36250000000706,
                        "value": 0.49606299212598426
                    },
                    {
                        "number": 64,
                        "time": 430.39375000000706,
                        "value": 1
                    },
                    {
                        "number": 64,
                        "time": 430.556250000007,
                        "value": 0.49606299212598426
                    },
                    {
                        "number": 64,
                        "time": 430.5958333333404,
                        "value": 1
                    },
                    {
                        "number": 64,
                        "time": 432.9250000000072,
                        "value": 0.49606299212598426
                    },
                    {
                        "number": 64,
                        "time": 432.9375000000072,
                        "value": 0
                    },
                    {
                        "number": 64,
                        "time": 432.9729166666739,
                        "value": 0.49606299212598426
                    },
                    {
                        "number": 64,
                        "time": 433.0041666666739,
                        "value": 1
                    },
                    {
                        "number": 64,
                        "time": 433.291666666674,
                        "value": 0.49606299212598426
                    },
                    {
                        "number": 64,
                        "time": 433.33333333334065,
                        "value": 1
                    },
                    {
                        "number": 64,
                        "time": 435.3208333333407,
                        "value": 0.49606299212598426
                    },
                    {
                        "number": 64,
                        "time": 435.35833333334074,
                        "value": 1
                    },
                    {
                        "number": 64,
                        "time": 436.1000000000075,
                        "value": 0.49606299212598426
                    },
                    {
                        "number": 64,
                        "time": 436.10625000000755,
                        "value": 0
                    },
                    {
                        "number": 64,
                        "time": 436.2145833333409,
                        "value": 0.49606299212598426
                    },
                    {
                        "number": 64,
                        "time": 436.22916666667425,
                        "value": 1
                    },
                    {
                        "number": 64,
                        "time": 438.4562500000077,
                        "value": 0.49606299212598426
                    },
                    {
                        "number": 64,
                        "time": 438.464583333341,
                        "value": 1
                    },
                    {
                        "number": 64,
                        "time": 438.9229166666743,
                        "value": 0.49606299212598426
                    },
                    {
                        "number": 64,
                        "time": 438.93125000000765,
                        "value": 0
                    },
                    {
                        "number": 64,
                        "time": 439.01666666667427,
                        "value": 0.49606299212598426
                    },
                    {
                        "number": 64,
                        "time": 439.0312500000076,
                        "value": 1
                    },
                    {
                        "number": 64,
                        "time": 440.63333333334106,
                        "value": 0.49606299212598426
                    },
                    {
                        "number": 64,
                        "time": 440.6520833333411,
                        "value": 0
                    },
                    {
                        "number": 64,
                        "time": 440.72083333334115,
                        "value": 0.49606299212598426
                    },
                    {
                        "number": 64,
                        "time": 440.76250000000783,
                        "value": 1
                    },
                    {
                        "number": 64,
                        "time": 441.3291666666745,
                        "value": 0.49606299212598426
                    },
                    {
                        "number": 64,
                        "time": 441.34375000000784,
                        "value": 0
                    },
                    {
                        "number": 64,
                        "time": 441.39166666667455,
                        "value": 0.49606299212598426
                    },
                    {
                        "number": 64,
                        "time": 441.4270833333412,
                        "value": 1
                    },
                    {
                        "number": 64,
                        "time": 441.731250000008,
                        "value": 0.49606299212598426
                    },
                    {
                        "number": 64,
                        "time": 441.73958333334133,
                        "value": 0
                    },
                    {
                        "number": 64,
                        "time": 441.81041666667466,
                        "value": 0.49606299212598426
                    },
                    {
                        "number": 64,
                        "time": 441.83333333334133,
                        "value": 1
                    },
                    {
                        "number": 64,
                        "time": 444.41250000000804,
                        "value": 0.49606299212598426
                    },
                    {
                        "number": 64,
                        "time": 444.4250000000081,
                        "value": 0
                    },
                    {
                        "number": 64,
                        "time": 444.4854166666748,
                        "value": 0.49606299212598426
                    },
                    {
                        "number": 64,
                        "time": 444.52083333334144,
                        "value": 1
                    },
                    {
                        "number": 64,
                        "time": 444.87500000000813,
                        "value": 0.49606299212598426
                    },
                    {
                        "number": 64,
                        "time": 444.8854166666748,
                        "value": 0
                    },
                    {
                        "number": 64,
                        "time": 444.92291666667484,
                        "value": 0.49606299212598426
                    },
                    {
                        "number": 64,
                        "time": 444.9458333333415,
                        "value": 1
                    },
                    {
                        "number": 64,
                        "time": 446.95000000000834,
                        "value": 0.49606299212598426
                    },
                    {
                        "number": 64,
                        "time": 446.9750000000083,
                        "value": 0
                    },
                    {
                        "number": 64,
                        "time": 446.991666666675,
                        "value": 0.49606299212598426
                    },
                    {
                        "number": 64,
                        "time": 447.0395833333417,
                        "value": 1
                    },
                    {
                        "number": 64,
                        "time": 447.88333333334174,
                        "value": 0.49606299212598426
                    },
                    {
                        "number": 64,
                        "time": 447.9041666666751,
                        "value": 0
                    },
                    {
                        "number": 64,
                        "time": 447.99166666667514,
                        "value": 0.49606299212598426
                    },
                    {
                        "number": 64,
                        "time": 448.0187500000085,
                        "value": 1
                    },
                    {
                        "number": 64,
                        "time": 448.58125000000854,
                        "value": 0.49606299212598426
                    },
                    {
                        "number": 64,
                        "time": 448.5937500000085,
                        "value": 0
                    },
                    {
                        "number": 64,
                        "time": 448.6916666666752,
                        "value": 0.49606299212598426
                    },
                    {
                        "number": 64,
                        "time": 448.7104166666752,
                        "value": 1
                    },
                    {
                        "number": 64,
                        "time": 449.0354166666752,
                        "value": 0.49606299212598426
                    },
                    {
                        "number": 64,
                        "time": 449.0541666666752,
                        "value": 0
                    },
                    {
                        "number": 64,
                        "time": 449.1166666666752,
                        "value": 0.49606299212598426
                    },
                    {
                        "number": 64,
                        "time": 449.1479166666752,
                        "value": 1
                    },
                    {
                        "number": 64,
                        "time": 449.31666666667525,
                        "value": 0.49606299212598426
                    },
                    {
                        "number": 64,
                        "time": 449.3333333333419,
                        "value": 0
                    },
                    {
                        "number": 64,
                        "time": 449.4458333333419,
                        "value": 0.49606299212598426
                    },
                    {
                        "number": 64,
                        "time": 449.46250000000856,
                        "value": 1
                    },
                    {
                        "number": 64,
                        "time": 449.6979166666752,
                        "value": 0.49606299212598426
                    },
                    {
                        "number": 64,
                        "time": 449.7104166666752,
                        "value": 0
                    },
                    {
                        "number": 64,
                        "time": 449.83958333334186,
                        "value": 0.49606299212598426
                    },
                    {
                        "number": 64,
                        "time": 449.85208333334185,
                        "value": 1
                    },
                    {
                        "number": 64,
                        "time": 450.0187500000086,
                        "value": 0.49606299212598426
                    },
                    {
                        "number": 64,
                        "time": 450.03333333334194,
                        "value": 0
                    },
                    {
                        "number": 64,
                        "time": 450.3812500000086,
                        "value": 1
                    },
                    {
                        "number": 64,
                        "time": 450.80208333334207,
                        "value": 0.49606299212598426
                    },
                    {
                        "number": 64,
                        "time": 450.8145833333421,
                        "value": 0
                    },
                    {
                        "number": 64,
                        "time": 451.1958333333421,
                        "value": 0.49606299212598426
                    },
                    {
                        "number": 64,
                        "time": 451.19791666667544,
                        "value": 1
                    },
                    {
                        "number": 64,
                        "time": 451.4270833333421,
                        "value": 0.49606299212598426
                    },
                    {
                        "number": 64,
                        "time": 451.43541666667545,
                        "value": 0
                    },
                    {
                        "number": 64,
                        "time": 451.5541666666754,
                        "value": 0.49606299212598426
                    },
                    {
                        "number": 64,
                        "time": 451.5645833333421,
                        "value": 1
                    },
                    {
                        "number": 64,
                        "time": 451.73333333334216,
                        "value": 0.49606299212598426
                    },
                    {
                        "number": 64,
                        "time": 451.74375000000884,
                        "value": 0
                    },
                    {
                        "number": 64,
                        "time": 452.05625000000884,
                        "value": 0.49606299212598426
                    },
                    {
                        "number": 64,
                        "time": 452.06666666667553,
                        "value": 1
                    },
                    {
                        "number": 64,
                        "time": 452.45000000000886,
                        "value": 0.49606299212598426
                    },
                    {
                        "number": 64,
                        "time": 452.4583333333422,
                        "value": 0
                    },
                    {
                        "number": 64,
                        "time": 453.23125000000886,
                        "value": 0.49606299212598426
                    },
                    {
                        "number": 64,
                        "time": 453.2354166666755,
                        "value": 1
                    },
                    {
                        "number": 64,
                        "time": 453.4166666666755,
                        "value": 0.49606299212598426
                    },
                    {
                        "number": 64,
                        "time": 453.43125000000884,
                        "value": 0
                    },
                    {
                        "number": 64,
                        "time": 453.6479166666755,
                        "value": 0.49606299212598426
                    },
                    {
                        "number": 64,
                        "time": 453.65625000000887,
                        "value": 1
                    },
                    {
                        "number": 64,
                        "time": 454.0375000000089,
                        "value": 0.49606299212598426
                    },
                    {
                        "number": 64,
                        "time": 454.0458333333422,
                        "value": 0
                    },
                    {
                        "number": 64,
                        "time": 454.94375000000895,
                        "value": 0.49606299212598426
                    },
                    {
                        "number": 64,
                        "time": 454.9458333333423,
                        "value": 1
                    },
                    {
                        "number": 64,
                        "time": 455.0583333333424,
                        "value": 0.49606299212598426
                    },
                    {
                        "number": 64,
                        "time": 455.1291666666757,
                        "value": 0
                    },
                    {
                        "number": 64,
                        "time": 455.4354166666757,
                        "value": 0.49606299212598426
                    },
                    {
                        "number": 64,
                        "time": 455.4583333333424,
                        "value": 1
                    },
                    {
                        "number": 64,
                        "time": 455.70416666667575,
                        "value": 0.49606299212598426
                    },
                    {
                        "number": 64,
                        "time": 455.7291666666757,
                        "value": 0
                    },
                    {
                        "number": 64,
                        "time": 455.96041666667577,
                        "value": 0.49606299212598426
                    },
                    {
                        "number": 64,
                        "time": 456.0000000000091,
                        "value": 1
                    },
                    {
                        "number": 64,
                        "time": 456.03125000000915,
                        "value": 0.49606299212598426
                    },
                    {
                        "number": 64,
                        "time": 456.0666666666758,
                        "value": 0
                    },
                    {
                        "number": 64,
                        "time": 456.3958333333426,
                        "value": 0.49606299212598426
                    },
                    {
                        "number": 64,
                        "time": 456.4250000000093,
                        "value": 1
                    },
                    {
                        "number": 64,
                        "time": 456.58750000000924,
                        "value": 0.49606299212598426
                    },
                    {
                        "number": 64,
                        "time": 456.60833333334256,
                        "value": 0
                    },
                    {
                        "number": 64,
                        "time": 456.75625000000923,
                        "value": 0.49606299212598426
                    },
                    {
                        "number": 64,
                        "time": 456.79583333334256,
                        "value": 1
                    },
                    {
                        "number": 64,
                        "time": 457.02916666667585,
                        "value": 0.49606299212598426
                    },
                    {
                        "number": 64,
                        "time": 457.0812500000092,
                        "value": 0
                    },
                    {
                        "number": 64,
                        "time": 457.22500000000935,
                        "value": 0.49606299212598426
                    },
                    {
                        "number": 64,
                        "time": 457.247916666676,
                        "value": 1
                    },
                    {
                        "number": 64,
                        "time": 457.40625000000944,
                        "value": 0.49606299212598426
                    },
                    {
                        "number": 64,
                        "time": 457.4916666666761,
                        "value": 1
                    },
                    {
                        "number": 64,
                        "time": 457.8562500000096,
                        "value": 0.49606299212598426
                    },
                    {
                        "number": 64,
                        "time": 457.8687500000096,
                        "value": 0
                    },
                    {
                        "number": 64,
                        "time": 457.9916666666763,
                        "value": 0.49606299212598426
                    },
                    {
                        "number": 64,
                        "time": 458.008333333343,
                        "value": 1
                    },
                    {
                        "number": 64,
                        "time": 458.333333333343,
                        "value": 0.49606299212598426
                    },
                    {
                        "number": 64,
                        "time": 458.402083333343,
                        "value": 1
                    },
                    {
                        "number": 64,
                        "time": 458.7583333333431,
                        "value": 0.49606299212598426
                    },
                    {
                        "number": 64,
                        "time": 458.7687500000098,
                        "value": 0
                    },
                    {
                        "number": 64,
                        "time": 458.84583333334314,
                        "value": 0.49606299212598426
                    },
                    {
                        "number": 64,
                        "time": 458.8687500000098,
                        "value": 1
                    },
                    {
                        "number": 64,
                        "time": 459.30625000000987,
                        "value": 0.49606299212598426
                    },
                    {
                        "number": 64,
                        "time": 459.3145833333432,
                        "value": 0
                    },
                    {
                        "number": 64,
                        "time": 459.4166666666766,
                        "value": 0.49606299212598426
                    },
                    {
                        "number": 64,
                        "time": 459.42708333334326,
                        "value": 1
                    },
                    {
                        "number": 64,
                        "time": 459.7770833333433,
                        "value": 0.49606299212598426
                    },
                    {
                        "number": 64,
                        "time": 459.7833333333433,
                        "value": 0
                    },
                    {
                        "number": 64,
                        "time": 459.96875000000995,
                        "value": 1
                    },
                    {
                        "number": 64,
                        "time": 460.9895833333433,
                        "value": 0.49606299212598426
                    },
                    {
                        "number": 64,
                        "time": 460.99791666667664,
                        "value": 0
                    },
                    {
                        "number": 64,
                        "time": 461.03958333334333,
                        "value": 0.49606299212598426
                    },
                    {
                        "number": 64,
                        "time": 461.06666666667667,
                        "value": 1
                    },
                    {
                        "number": 64,
                        "time": 461.37916666667667,
                        "value": 0.49606299212598426
                    },
                    {
                        "number": 64,
                        "time": 461.3854166666767,
                        "value": 0
                    },
                    {
                        "number": 64,
                        "time": 461.4541666666768,
                        "value": 0.49606299212598426
                    },
                    {
                        "number": 64,
                        "time": 461.4770833333435,
                        "value": 1
                    },
                    {
                        "number": 64,
                        "time": 462.3187500000103,
                        "value": 0.49606299212598426
                    },
                    {
                        "number": 64,
                        "time": 462.329166666677,
                        "value": 0
                    },
                    {
                        "number": 64,
                        "time": 462.70416666667705,
                        "value": 0.49606299212598426
                    },
                    {
                        "number": 64,
                        "time": 462.7062500000104,
                        "value": 1
                    },
                    {
                        "number": 64,
                        "time": 463.26458333334375,
                        "value": 0.49606299212598426
                    },
                    {
                        "number": 64,
                        "time": 463.27500000001044,
                        "value": 0
                    },
                    {
                        "number": 64,
                        "time": 463.3645833333438,
                        "value": 0.49606299212598426
                    },
                    {
                        "number": 64,
                        "time": 463.38541666667714,
                        "value": 1
                    },
                    {
                        "number": 64,
                        "time": 464.1625000000106,
                        "value": 0.49606299212598426
                    },
                    {
                        "number": 64,
                        "time": 464.1729166666773,
                        "value": 0
                    },
                    {
                        "number": 64,
                        "time": 464.2645833333439,
                        "value": 0.49606299212598426
                    },
                    {
                        "number": 64,
                        "time": 464.29375000001056,
                        "value": 1
                    },
                    {
                        "number": 64,
                        "time": 464.87708333334393,
                        "value": 0.49606299212598426
                    },
                    {
                        "number": 64,
                        "time": 464.8916666666773,
                        "value": 0
                    },
                    {
                        "number": 64,
                        "time": 465.2604166666773,
                        "value": 0.49606299212598426
                    },
                    {
                        "number": 64,
                        "time": 465.2625000000107,
                        "value": 1
                    },
                    {
                        "number": 64,
                        "time": 466.6020833333442,
                        "value": 0.49606299212598426
                    },
                    {
                        "number": 64,
                        "time": 466.61250000001087,
                        "value": 0
                    },
                    {
                        "number": 64,
                        "time": 466.7020833333442,
                        "value": 0.49606299212598426
                    },
                    {
                        "number": 64,
                        "time": 466.73125000001085,
                        "value": 1
                    },
                    {
                        "number": 64,
                        "time": 467.4312500000109,
                        "value": 0.49606299212598426
                    },
                    {
                        "number": 64,
                        "time": 467.44583333334424,
                        "value": 0
                    },
                    {
                        "number": 64,
                        "time": 467.63541666667754,
                        "value": 0.49606299212598426
                    },
                    {
                        "number": 64,
                        "time": 467.64791666667753,
                        "value": 1
                    },
                    {
                        "number": 64,
                        "time": 468.92708333334417,
                        "value": 0.49606299212598426
                    },
                    {
                        "number": 64,
                        "time": 468.93958333334416,
                        "value": 0
                    },
                    {
                        "number": 64,
                        "time": 469.0437500000108,
                        "value": 0.49606299212598426
                    },
                    {
                        "number": 64,
                        "time": 469.07916666667745,
                        "value": 1
                    },
                    {
                        "number": 64,
                        "time": 469.7187500000108,
                        "value": 0.49606299212598426
                    },
                    {
                        "number": 64,
                        "time": 469.73333333334415,
                        "value": 0
                    },
                    {
                        "number": 64,
                        "time": 469.7791666666775,
                        "value": 0.49606299212598426
                    },
                    {
                        "number": 64,
                        "time": 469.8187500000108,
                        "value": 1
                    },
                    {
                        "number": 64,
                        "time": 470.0666666666775,
                        "value": 0.49606299212598426
                    },
                    {
                        "number": 64,
                        "time": 470.09583333334416,
                        "value": 0
                    },
                    {
                        "number": 64,
                        "time": 470.1666666666775,
                        "value": 0.49606299212598426
                    },
                    {
                        "number": 64,
                        "time": 470.20833333334417,
                        "value": 1
                    },
                    {
                        "number": 64,
                        "time": 470.69791666667754,
                        "value": 0.49606299212598426
                    },
                    {
                        "number": 64,
                        "time": 470.7083333333442,
                        "value": 0
                    },
                    {
                        "number": 64,
                        "time": 470.77916666667767,
                        "value": 0.49606299212598426
                    },
                    {
                        "number": 64,
                        "time": 470.800000000011,
                        "value": 1
                    },
                    {
                        "number": 64,
                        "time": 471.5479166666776,
                        "value": 0.49606299212598426
                    },
                    {
                        "number": 64,
                        "time": 471.56250000001097,
                        "value": 0
                    },
                    {
                        "number": 64,
                        "time": 471.78333333334433,
                        "value": 0.49606299212598426
                    },
                    {
                        "number": 64,
                        "time": 471.806250000011,
                        "value": 1
                    },
                    {
                        "number": 64,
                        "time": 472.17083333334443,
                        "value": 0.49606299212598426
                    },
                    {
                        "number": 64,
                        "time": 472.1875000000111,
                        "value": 0
                    },
                    {
                        "number": 64,
                        "time": 472.32708333334443,
                        "value": 0.49606299212598426
                    },
                    {
                        "number": 64,
                        "time": 472.35625000001113,
                        "value": 1
                    },
                    {
                        "number": 64,
                        "time": 472.75416666667786,
                        "value": 0.49606299212598426
                    },
                    {
                        "number": 64,
                        "time": 472.8166666666779,
                        "value": 1
                    },
                    {
                        "number": 64,
                        "time": 473.18125000001135,
                        "value": 0.49606299212598426
                    },
                    {
                        "number": 64,
                        "time": 473.1958333333447,
                        "value": 0
                    },
                    {
                        "number": 64,
                        "time": 473.22291666667803,
                        "value": 0.49606299212598426
                    },
                    {
                        "number": 64,
                        "time": 473.2458333333447,
                        "value": 1
                    },
                    {
                        "number": 64,
                        "time": 474.03750000001133,
                        "value": 0.49606299212598426
                    },
                    {
                        "number": 64,
                        "time": 474.0520833333447,
                        "value": 0
                    },
                    {
                        "number": 64,
                        "time": 474.2145833333447,
                        "value": 0.49606299212598426
                    },
                    {
                        "number": 64,
                        "time": 474.2229166666781,
                        "value": 1
                    },
                    {
                        "number": 64,
                        "time": 474.8500000000116,
                        "value": 0.49606299212598426
                    },
                    {
                        "number": 64,
                        "time": 474.85625000001164,
                        "value": 0
                    },
                    {
                        "number": 64,
                        "time": 474.945833333345,
                        "value": 0.49606299212598426
                    },
                    {
                        "number": 64,
                        "time": 474.95625000001166,
                        "value": 1
                    },
                    {
                        "number": 64,
                        "time": 475.60625000001164,
                        "value": 0.49606299212598426
                    },
                    {
                        "number": 64,
                        "time": 475.61250000001166,
                        "value": 0
                    },
                    {
                        "number": 64,
                        "time": 475.8666666666784,
                        "value": 0.49606299212598426
                    },
                    {
                        "number": 64,
                        "time": 475.87083333334505,
                        "value": 1
                    },
                    {
                        "number": 64,
                        "time": 476.33333333334514,
                        "value": 0.49606299212598426
                    },
                    {
                        "number": 64,
                        "time": 476.34166666667846,
                        "value": 0
                    },
                    {
                        "number": 64,
                        "time": 476.48333333334523,
                        "value": 0.49606299212598426
                    },
                    {
                        "number": 64,
                        "time": 476.49166666667855,
                        "value": 1
                    },
                    {
                        "number": 64,
                        "time": 477.62500000001216,
                        "value": 0.49606299212598426
                    },
                    {
                        "number": 64,
                        "time": 477.63541666667885,
                        "value": 0
                    },
                    {
                        "number": 64,
                        "time": 477.7583333333455,
                        "value": 0.49606299212598426
                    },
                    {
                        "number": 64,
                        "time": 477.77500000001214,
                        "value": 1
                    },
                    {
                        "number": 64,
                        "time": 479.29791666667893,
                        "value": 0.49606299212598426
                    },
                    {
                        "number": 64,
                        "time": 479.3104166666789,
                        "value": 0
                    },
                    {
                        "number": 64,
                        "time": 479.51666666667893,
                        "value": 0.49606299212598426
                    },
                    {
                        "number": 64,
                        "time": 479.53541666667894,
                        "value": 1
                    },
                    {
                        "number": 64,
                        "time": 483.5958333333457,
                        "value": 0.49606299212598426
                    },
                    {
                        "number": 64,
                        "time": 483.61666666667907,
                        "value": 0
                    }
                ],
                "67": [
                    {
                        "number": 67,
                        "time": 51.43125000000008,
                        "value": 1
                    },
                    {
                        "number": 67,
                        "time": 54.00416666666675,
                        "value": 1
                    },
                    {
                        "number": 67,
                        "time": 56.829166666666744,
                        "value": 0
                    },
                    {
                        "number": 67,
                        "time": 58.57500000000009,
                        "value": 0
                    },
                    {
                        "number": 67,
                        "time": 66.96875000000014,
                        "value": 1
                    },
                    {
                        "number": 67,
                        "time": 74.02916666666674,
                        "value": 0
                    },
                    {
                        "number": 67,
                        "time": 200.51666666666551,
                        "value": 1
                    },
                    {
                        "number": 67,
                        "time": 200.96666666666553,
                        "value": 1
                    },
                    {
                        "number": 67,
                        "time": 222.431249999998,
                        "value": 0
                    },
                    {
                        "number": 67,
                        "time": 225.3562499999979,
                        "value": 1
                    },
                    {
                        "number": 67,
                        "time": 235.83541666666443,
                        "value": 1
                    },
                    {
                        "number": 67,
                        "time": 239.17291666666435,
                        "value": 0
                    },
                    {
                        "number": 67,
                        "time": 239.42708333333098,
                        "value": 1
                    },
                    {
                        "number": 67,
                        "time": 239.47083333333097,
                        "value": 0
                    },
                    {
                        "number": 67,
                        "time": 281.6020833333308,
                        "value": 1
                    },
                    {
                        "number": 67,
                        "time": 318.070833333334,
                        "value": 0
                    },
                    {
                        "number": 67,
                        "time": 389.5583333333381,
                        "value": 1
                    },
                    {
                        "number": 67,
                        "time": 397.78541666667206,
                        "value": 0
                    },
                    {
                        "number": 67,
                        "time": 405.2125000000059,
                        "value": 1
                    },
                    {
                        "number": 67,
                        "time": 412.2375000000062,
                        "value": 0
                    },
                    {
                        "number": 67,
                        "time": 435.9812500000075,
                        "value": 1
                    },
                    {
                        "number": 67,
                        "time": 448.5000000000085,
                        "value": 0
                    }
                ],
                "91": [
                    {
                        "number": 91,
                        "time": 1.4124999999999999,
                        "value": 0.7086614173228346
                    }
                ],
                "98": [
                    {
                        "number": 98,
                        "time": 1.5166666666666666,
                        "value": 0.25196850393700787
                    },
                    {
                        "number": 98,
                        "time": 1.5291666666666666,
                        "value": 0.25984251968503935
                    },
                    {
                        "number": 98,
                        "time": 1.5416666666666665,
                        "value": 0.7795275590551181
                    },
                    {
                        "number": 98,
                        "time": 1.5541666666666665,
                        "value": 0.7874015748031497
                    },
                    {
                        "number": 98,
                        "time": 1.5666666666666664,
                        "value": 0.8031496062992126
                    }
                ],
                "99": [
                    {
                        "number": 99,
                        "time": 1.5125,
                        "value": 0.007874015748031496
                    },
                    {
                        "number": 99,
                        "time": 1.525,
                        "value": 0.007874015748031496
                    },
                    {
                        "number": 99,
                        "time": 1.5374999999999999,
                        "value": 0.007874015748031496
                    },
                    {
                        "number": 99,
                        "time": 1.5499999999999998,
                        "value": 0.007874015748031496
                    },
                    {
                        "number": 99,
                        "time": 1.5624999999999998,
                        "value": 0.007874015748031496
                    }
                ]
            },
            "id": 1,
            "name": "PIANO",
            "instrumentNumber": 0,
            "instrument": "acoustic grand piano",
            "instrumentFamily": "piano",
            "channelNumber": 0,
            "isPercussion": false
        }
    ]
}