{
    "header": {
        "PPQ": 1024,
        "timeSignature": [
            3,
            4
        ],
        "bpm": 96,
        "name": "Ravel's 3 Chansons:2. Trois beaux oiseaux du Paradis"
    },
    "startTime": 0,
    "duration": 96.25,
    "tracks": [
        {
            "startTime": 0,
            "duration": 0,
            "length": 0,
            "notes": [],
            "controlChanges": {},
            "id": 0,
            "name": "Ravel's 3 Chansons:2. Trois beaux oiseaux du Paradis"
        },
        {
            "startTime": 8.125,
            "duration": 92.5,
            "length": 72,
            "notes": [
                {
                    "name": "C4",
                    "midi": 60,
                    "time": 8.125,
                    "velocity": 0.5984251968503937,
                    "duration": 0.3125
                },
                {
                    "name": "D#4",
                    "midi": 63,
                    "time": 8.4375,
                    "velocity": 0.5984251968503937,
                    "duration": 0.3125
                },
                {
                    "name": "G4",
                    "midi": 67,
                    "time": 8.75,
                    "velocity": 0.5984251968503937,
                    "duration": 1.25
                },
                {
                    "name": "F4",
                    "midi": 65,
                    "time": 10,
                    "velocity": 0.5984251968503937,
                    "duration": 1.25
                },
                {
                    "name": "D#4",
                    "midi": 63,
                    "time": 11.25,
                    "velocity": 0.5984251968503937,
                    "duration": 1.875
                },
                {
                    "name": "D4",
                    "midi": 62,
                    "time": 13.125,
                    "velocity": 0.5984251968503937,
                    "duration": 1.25
                },
                {
                    "name": "D#4",
                    "midi": 63,
                    "time": 14.375,
                    "velocity": 0.5984251968503937,
                    "duration": 1.25
                },
                {
                    "name": "C4",
                    "midi": 60,
                    "time": 15.625,
                    "velocity": 0.5984251968503937,
                    "duration": 0.9375
                },
                {
                    "name": "G4",
                    "midi": 67,
                    "time": 16.875,
                    "velocity": 0.5984251968503937,
                    "duration": 1.25
                },
                {
                    "name": "A#4",
                    "midi": 70,
                    "time": 18.125,
                    "velocity": 0.5984251968503937,
                    "duration": 0.625
                },
                {
                    "name": "C5",
                    "midi": 72,
                    "time": 18.75,
                    "velocity": 0.5984251968503937,
                    "duration": 1.1248779296875
                },
                {
                    "name": "A#4",
                    "midi": 70,
                    "time": 20,
                    "velocity": 0.5984251968503937,
                    "duration": 0.625
                },
                {
                    "name": "D#4",
                    "midi": 63,
                    "time": 20.625,
                    "velocity": 0.5984251968503937,
                    "duration": 1.25
                },
                {
                    "name": "A#4",
                    "midi": 70,
                    "time": 21.875,
                    "velocity": 0.5984251968503937,
                    "duration": 0.625
                },
                {
                    "name": "D#4",
                    "midi": 63,
                    "time": 22.5,
                    "velocity": 0.5984251968503937,
                    "duration": 1.1248779296875
                },
                {
                    "name": "D#4",
                    "midi": 63,
                    "time": 23.75,
                    "velocity": 0.5984251968503937,
                    "duration": 0.625
                },
                {
                    "name": "D4",
                    "midi": 62,
                    "time": 24.375,
                    "velocity": 0.5984251968503937,
                    "duration": 1.25
                },
                {
                    "name": "C#4",
                    "midi": 61,
                    "time": 25.625,
                    "velocity": 0.5984251968503937,
                    "duration": 0.625
                },
                {
                    "name": "D#4",
                    "midi": 63,
                    "time": 26.25,
                    "velocity": 0.5984251968503937,
                    "duration": 1.1248779296875
                },
                {
                    "name": "D4",
                    "midi": 62,
                    "time": 27.5,
                    "velocity": 0.5984251968503937,
                    "duration": 1.5625
                },
                {
                    "name": "F4",
                    "midi": 65,
                    "time": 29.0625,
                    "velocity": 0.5984251968503937,
                    "duration": 0.3125
                },
                {
                    "name": "A4",
                    "midi": 69,
                    "time": 29.375,
                    "velocity": 0.5984251968503937,
                    "duration": 0.625
                },
                {
                    "name": "F4",
                    "midi": 65,
                    "time": 30,
                    "velocity": 0.5984251968503937,
                    "duration": 0.3125
                },
                {
                    "name": "A4",
                    "midi": 69,
                    "time": 30.3125,
                    "velocity": 0.5984251968503937,
                    "duration": 0.3125
                },
                {
                    "name": "G4",
                    "midi": 67,
                    "time": 30.625,
                    "velocity": 0.6220472440944882,
                    "duration": 0.625
                },
                {
                    "name": "C5",
                    "midi": 72,
                    "time": 31.25,
                    "velocity": 0.6377952755905512,
                    "duration": 0.625
                },
                {
                    "name": "E5",
                    "midi": 76,
                    "time": 31.875,
                    "velocity": 0.6614173228346457,
                    "duration": 0.625
                },
                {
                    "name": "G5",
                    "midi": 79,
                    "time": 32.5,
                    "velocity": 0.5984251968503937,
                    "duration": 1.25
                },
                {
                    "name": "F5",
                    "midi": 77,
                    "time": 33.75,
                    "velocity": 0.5984251968503937,
                    "duration": 1.25
                },
                {
                    "name": "D#5",
                    "midi": 75,
                    "time": 35,
                    "velocity": 0.5984251968503937,
                    "duration": 1.25
                },
                {
                    "name": "C#5",
                    "midi": 73,
                    "time": 36.25,
                    "velocity": 0.5984251968503937,
                    "duration": 1.875
                },
                {
                    "name": "D#5",
                    "midi": 75,
                    "time": 38.125,
                    "velocity": 0.5984251968503937,
                    "duration": 0.625
                },
                {
                    "name": "C5",
                    "midi": 72,
                    "time": 38.75,
                    "velocity": 0.5984251968503937,
                    "duration": 0.625
                },
                {
                    "name": "A#4",
                    "midi": 70,
                    "time": 39.375,
                    "velocity": 0.5984251968503937,
                    "duration": 0.625
                },
                {
                    "name": "G4",
                    "midi": 67,
                    "time": 40,
                    "velocity": 0.5984251968503937,
                    "duration": 0.4998779296875
                },
                {
                    "name": "G4",
                    "midi": 67,
                    "time": 40.625,
                    "velocity": 0.5984251968503937,
                    "duration": 1.25
                },
                {
                    "name": "F4",
                    "midi": 65,
                    "time": 41.875,
                    "velocity": 0.5984251968503937,
                    "duration": 1.25
                },
                {
                    "name": "D#4",
                    "midi": 63,
                    "time": 43.125,
                    "velocity": 0.5984251968503937,
                    "duration": 1.875
                },
                {
                    "name": "D4",
                    "midi": 62,
                    "time": 45,
                    "velocity": 0.5984251968503937,
                    "duration": 1.25
                },
                {
                    "name": "D#4",
                    "midi": 63,
                    "time": 46.25,
                    "velocity": 0.5984251968503937,
                    "duration": 2.1875
                },
                {
                    "name": "C5",
                    "midi": 72,
                    "time": 51.875,
                    "velocity": 0.5984251968503937,
                    "duration": 0.625
                },
                {
                    "name": "D#5",
                    "midi": 75,
                    "time": 52.5,
                    "velocity": 0.5984251968503937,
                    "duration": 1.25
                },
                {
                    "name": "C5",
                    "midi": 72,
                    "time": 53.75,
                    "velocity": 0.5984251968503937,
                    "duration": 0.625
                },
                {
                    "name": "D#5",
                    "midi": 75,
                    "time": 54.375,
                    "velocity": 0.5984251968503937,
                    "duration": 1.25
                },
                {
                    "name": "B4",
                    "midi": 71,
                    "time": 55.625,
                    "velocity": 0.5984251968503937,
                    "duration": 0.625
                },
                {
                    "name": "A#4",
                    "midi": 70,
                    "time": 56.25,
                    "velocity": 0.5984251968503937,
                    "duration": 0.625
                },
                {
                    "name": "G4",
                    "midi": 67,
                    "time": 56.875,
                    "velocity": 0.5984251968503937,
                    "duration": 0.625
                },
                {
                    "name": "F4",
                    "midi": 65,
                    "time": 57.5,
                    "velocity": 0.5984251968503937,
                    "duration": 0.625
                },
                {
                    "name": "D#4",
                    "midi": 63,
                    "time": 58.125,
                    "velocity": 0.5984251968503937,
                    "duration": 1.25
                },
                {
                    "name": "D4",
                    "midi": 62,
                    "time": 59.375,
                    "velocity": 0.5984251968503937,
                    "duration": 1.25
                },
                {
                    "name": "A#3",
                    "midi": 58,
                    "time": 60.625,
                    "velocity": 0.5984251968503937,
                    "duration": 0.3125
                },
                {
                    "name": "G4",
                    "midi": 67,
                    "time": 63.125,
                    "velocity": 0.5984251968503937,
                    "duration": 0.9375
                },
                {
                    "name": "G5",
                    "midi": 79,
                    "time": 64.0625,
                    "velocity": 0.5984251968503937,
                    "duration": 1.5625
                },
                {
                    "name": "F5",
                    "midi": 77,
                    "time": 65.625,
                    "velocity": 0.5984251968503937,
                    "duration": 1.25
                },
                {
                    "name": "D#5",
                    "midi": 75,
                    "time": 66.875,
                    "velocity": 0.5984251968503937,
                    "duration": 1.25
                },
                {
                    "name": "C#5",
                    "midi": 73,
                    "time": 68.125,
                    "velocity": 0.5984251968503937,
                    "duration": 1.875
                },
                {
                    "name": "D#5",
                    "midi": 75,
                    "time": 70,
                    "velocity": 0.5984251968503937,
                    "duration": 0.625
                },
                {
                    "name": "C5",
                    "midi": 72,
                    "time": 70.625,
                    "velocity": 0.5984251968503937,
                    "duration": 0.625
                },
                {
                    "name": "A#4",
                    "midi": 70,
                    "time": 71.25,
                    "velocity": 0.5984251968503937,
                    "duration": 0.625
                },
                {
                    "name": "G4",
                    "midi": 67,
                    "time": 71.875,
                    "velocity": 0.5984251968503937,
                    "duration": 0.4998779296875
                },
                {
                    "name": "G4",
                    "midi": 67,
                    "time": 72.5,
                    "velocity": 0.5984251968503937,
                    "duration": 1.25
                },
                {
                    "name": "F4",
                    "midi": 65,
                    "time": 73.75,
                    "velocity": 0.5984251968503937,
                    "duration": 1.25
                },
                {
                    "name": "D#4",
                    "midi": 63,
                    "time": 75,
                    "velocity": 0.5984251968503937,
                    "duration": 1.875
                },
                {
                    "name": "D4",
                    "midi": 62,
                    "time": 76.875,
                    "velocity": 0.5984251968503937,
                    "duration": 1.25
                },
                {
                    "name": "D#4",
                    "midi": 63,
                    "time": 78.125,
                    "velocity": 0.5984251968503937,
                    "duration": 1.25
                },
                {
                    "name": "C4",
                    "midi": 60,
                    "time": 79.375,
                    "velocity": 0.5984251968503937,
                    "duration": 0.625
                },
                {
                    "name": "A#3",
                    "midi": 58,
                    "time": 80,
                    "velocity": 0.5984251968503937,
                    "duration": 0.625
                },
                {
                    "name": "C4",
                    "midi": 60,
                    "time": 80.625,
                    "velocity": 0.5984251968503937,
                    "duration": 0.3125
                },
                {
                    "name": "C4",
                    "midi": 60,
                    "time": 88.125,
                    "velocity": 0.5984251968503937,
                    "duration": 0.3125
                },
                {
                    "name": "D#4",
                    "midi": 63,
                    "time": 88.4375,
                    "velocity": 0.5984251968503937,
                    "duration": 0.3125
                },
                {
                    "name": "G4",
                    "midi": 67,
                    "time": 88.75,
                    "velocity": 0.5984251968503937,
                    "duration": 2.8125
                },
                {
                    "name": "G#4",
                    "midi": 68,
                    "time": 91.5625,
                    "velocity": 0.5984251968503937,
                    "duration": 0.9375
                }
            ],
            "controlChanges": {
                "1": [
                    {
                        "number": 1,
                        "time": 0,
                        "value": 0.03937007874015748
                    }
                ],
                "7": [
                    {
                        "number": 7,
                        "time": 0.56640625,
                        "value": 0.36220472440944884
                    },
                    {
                        "number": 7,
                        "time": 14.4140625,
                        "value": 0.3543307086614173
                    },
                    {
                        "number": 7,
                        "time": 15.020751953125,
                        "value": 0.3464566929133858
                    },
                    {
                        "number": 7,
                        "time": 15.68359375,
                        "value": 0.33858267716535434
                    },
                    {
                        "number": 7,
                        "time": 15.743408203125,
                        "value": 0.33070866141732286
                    },
                    {
                        "number": 7,
                        "time": 15.80322265625,
                        "value": 0.3228346456692913
                    },
                    {
                        "number": 7,
                        "time": 15.863037109375,
                        "value": 0.31496062992125984
                    },
                    {
                        "number": 7,
                        "time": 15.914306640625,
                        "value": 0.30708661417322836
                    },
                    {
                        "number": 7,
                        "time": 15.97412109375,
                        "value": 0.2992125984251969
                    },
                    {
                        "number": 7,
                        "time": 16.033935546875,
                        "value": 0.29133858267716534
                    },
                    {
                        "number": 7,
                        "time": 16.085205078125,
                        "value": 0.28346456692913385
                    },
                    {
                        "number": 7,
                        "time": 16.14501953125,
                        "value": 0.2755905511811024
                    },
                    {
                        "number": 7,
                        "time": 16.204833984375,
                        "value": 0.2677165354330709
                    },
                    {
                        "number": 7,
                        "time": 16.2646484375,
                        "value": 0.25984251968503935
                    },
                    {
                        "number": 7,
                        "time": 16.31591796875,
                        "value": 0.25196850393700787
                    },
                    {
                        "number": 7,
                        "time": 16.375732421875,
                        "value": 0.2440944881889764
                    },
                    {
                        "number": 7,
                        "time": 16.435546875,
                        "value": 0.23622047244094488
                    },
                    {
                        "number": 7,
                        "time": 16.48681640625,
                        "value": 0.2283464566929134
                    },
                    {
                        "number": 7,
                        "time": 16.546630859375,
                        "value": 0.2204724409448819
                    },
                    {
                        "number": 7,
                        "time": 16.85546875,
                        "value": 0.47244094488188976
                    },
                    {
                        "number": 7,
                        "time": 16.953125,
                        "value": 0.47244094488188976
                    },
                    {
                        "number": 7,
                        "time": 17.030029296875,
                        "value": 0.48031496062992124
                    },
                    {
                        "number": 7,
                        "time": 17.10693359375,
                        "value": 0.4881889763779528
                    },
                    {
                        "number": 7,
                        "time": 17.183837890625,
                        "value": 0.49606299212598426
                    },
                    {
                        "number": 7,
                        "time": 17.2607421875,
                        "value": 0.5039370078740157
                    },
                    {
                        "number": 7,
                        "time": 17.337646484375,
                        "value": 0.5118110236220472
                    },
                    {
                        "number": 7,
                        "time": 17.41455078125,
                        "value": 0.5196850393700787
                    },
                    {
                        "number": 7,
                        "time": 17.491455078125,
                        "value": 0.5275590551181102
                    },
                    {
                        "number": 7,
                        "time": 17.568359375,
                        "value": 0.5354330708661418
                    },
                    {
                        "number": 7,
                        "time": 17.645263671875,
                        "value": 0.5433070866141733
                    },
                    {
                        "number": 7,
                        "time": 17.72216796875,
                        "value": 0.5511811023622047
                    },
                    {
                        "number": 7,
                        "time": 17.799072265625,
                        "value": 0.5590551181102362
                    },
                    {
                        "number": 7,
                        "time": 17.8759765625,
                        "value": 0.5669291338582677
                    },
                    {
                        "number": 7,
                        "time": 17.952880859375,
                        "value": 0.5748031496062992
                    },
                    {
                        "number": 7,
                        "time": 18.02978515625,
                        "value": 0.5826771653543307
                    },
                    {
                        "number": 7,
                        "time": 18.106689453125,
                        "value": 0.5905511811023622
                    },
                    {
                        "number": 7,
                        "time": 18.18359375,
                        "value": 0.5984251968503937
                    },
                    {
                        "number": 7,
                        "time": 18.260498046875,
                        "value": 0.6062992125984252
                    },
                    {
                        "number": 7,
                        "time": 18.33740234375,
                        "value": 0.6141732283464567
                    },
                    {
                        "number": 7,
                        "time": 18.414306640625,
                        "value": 0.6220472440944882
                    },
                    {
                        "number": 7,
                        "time": 18.4912109375,
                        "value": 0.6299212598425197
                    },
                    {
                        "number": 7,
                        "time": 18.5595703125,
                        "value": 0.6377952755905512
                    },
                    {
                        "number": 7,
                        "time": 18.636474609375,
                        "value": 0.6456692913385826
                    },
                    {
                        "number": 7,
                        "time": 18.71337890625,
                        "value": 0.6535433070866141
                    },
                    {
                        "number": 7,
                        "time": 18.7890625,
                        "value": 0.6535433070866141
                    },
                    {
                        "number": 7,
                        "time": 18.831787109375,
                        "value": 0.6456692913385826
                    },
                    {
                        "number": 7,
                        "time": 18.865966796875,
                        "value": 0.6377952755905512
                    },
                    {
                        "number": 7,
                        "time": 18.900146484375,
                        "value": 0.6299212598425197
                    },
                    {
                        "number": 7,
                        "time": 18.94287109375,
                        "value": 0.6220472440944882
                    },
                    {
                        "number": 7,
                        "time": 18.97705078125,
                        "value": 0.6141732283464567
                    },
                    {
                        "number": 7,
                        "time": 19.01123046875,
                        "value": 0.6062992125984252
                    },
                    {
                        "number": 7,
                        "time": 19.053955078125,
                        "value": 0.5984251968503937
                    },
                    {
                        "number": 7,
                        "time": 19.088134765625,
                        "value": 0.5905511811023622
                    },
                    {
                        "number": 7,
                        "time": 19.122314453125,
                        "value": 0.5826771653543307
                    },
                    {
                        "number": 7,
                        "time": 19.1650390625,
                        "value": 0.5748031496062992
                    },
                    {
                        "number": 7,
                        "time": 19.19921875,
                        "value": 0.5669291338582677
                    },
                    {
                        "number": 7,
                        "time": 19.2333984375,
                        "value": 0.5590551181102362
                    },
                    {
                        "number": 7,
                        "time": 19.267578125,
                        "value": 0.5511811023622047
                    },
                    {
                        "number": 7,
                        "time": 19.310302734375,
                        "value": 0.5433070866141733
                    },
                    {
                        "number": 7,
                        "time": 19.344482421875,
                        "value": 0.5354330708661418
                    },
                    {
                        "number": 7,
                        "time": 19.378662109375,
                        "value": 0.5275590551181102
                    },
                    {
                        "number": 7,
                        "time": 19.43359375,
                        "value": 0.5196850393700787
                    },
                    {
                        "number": 7,
                        "time": 19.459228515625,
                        "value": 0.5118110236220472
                    },
                    {
                        "number": 7,
                        "time": 19.48486328125,
                        "value": 0.5039370078740157
                    },
                    {
                        "number": 7,
                        "time": 19.501953125,
                        "value": 0.49606299212598426
                    },
                    {
                        "number": 7,
                        "time": 19.527587890625,
                        "value": 0.4881889763779528
                    },
                    {
                        "number": 7,
                        "time": 19.55322265625,
                        "value": 0.48031496062992124
                    },
                    {
                        "number": 7,
                        "time": 19.5703125,
                        "value": 0.47244094488188976
                    },
                    {
                        "number": 7,
                        "time": 19.595947265625,
                        "value": 0.4645669291338583
                    },
                    {
                        "number": 7,
                        "time": 19.62158203125,
                        "value": 0.4566929133858268
                    },
                    {
                        "number": 7,
                        "time": 19.638671875,
                        "value": 0.44881889763779526
                    },
                    {
                        "number": 7,
                        "time": 19.664306640625,
                        "value": 0.4409448818897638
                    },
                    {
                        "number": 7,
                        "time": 19.681396484375,
                        "value": 0.4330708661417323
                    },
                    {
                        "number": 7,
                        "time": 19.70703125,
                        "value": 0.4251968503937008
                    },
                    {
                        "number": 7,
                        "time": 19.732666015625,
                        "value": 0.41732283464566927
                    },
                    {
                        "number": 7,
                        "time": 19.749755859375,
                        "value": 0.4094488188976378
                    },
                    {
                        "number": 7,
                        "time": 19.775390625,
                        "value": 0.4015748031496063
                    },
                    {
                        "number": 7,
                        "time": 19.801025390625,
                        "value": 0.3937007874015748
                    },
                    {
                        "number": 7,
                        "time": 19.818115234375,
                        "value": 0.3858267716535433
                    },
                    {
                        "number": 7,
                        "time": 19.84375,
                        "value": 0.3779527559055118
                    },
                    {
                        "number": 7,
                        "time": 19.86083984375,
                        "value": 0.3700787401574803
                    },
                    {
                        "number": 7,
                        "time": 20.9375,
                        "value": 0.3779527559055118
                    },
                    {
                        "number": 7,
                        "time": 21.065673828125,
                        "value": 0.3858267716535433
                    },
                    {
                        "number": 7,
                        "time": 21.185302734375,
                        "value": 0.3937007874015748
                    },
                    {
                        "number": 7,
                        "time": 21.304931640625,
                        "value": 0.4015748031496063
                    },
                    {
                        "number": 7,
                        "time": 21.424560546875,
                        "value": 0.4094488188976378
                    },
                    {
                        "number": 7,
                        "time": 21.544189453125,
                        "value": 0.41732283464566927
                    },
                    {
                        "number": 7,
                        "time": 21.663818359375,
                        "value": 0.4251968503937008
                    },
                    {
                        "number": 7,
                        "time": 21.783447265625,
                        "value": 0.4330708661417323
                    },
                    {
                        "number": 7,
                        "time": 21.903076171875,
                        "value": 0.4409448818897638
                    },
                    {
                        "number": 7,
                        "time": 22.022705078125,
                        "value": 0.44881889763779526
                    },
                    {
                        "number": 7,
                        "time": 22.142333984375,
                        "value": 0.4566929133858268
                    },
                    {
                        "number": 7,
                        "time": 22.261962890625,
                        "value": 0.4645669291338583
                    },
                    {
                        "number": 7,
                        "time": 22.381591796875,
                        "value": 0.47244094488188976
                    },
                    {
                        "number": 7,
                        "time": 22.5390625,
                        "value": 0.48031496062992124
                    },
                    {
                        "number": 7,
                        "time": 22.633056640625,
                        "value": 0.47244094488188976
                    },
                    {
                        "number": 7,
                        "time": 22.718505859375,
                        "value": 0.4645669291338583
                    },
                    {
                        "number": 7,
                        "time": 22.803955078125,
                        "value": 0.4566929133858268
                    },
                    {
                        "number": 7,
                        "time": 22.889404296875,
                        "value": 0.44881889763779526
                    },
                    {
                        "number": 7,
                        "time": 22.974853515625,
                        "value": 0.4409448818897638
                    },
                    {
                        "number": 7,
                        "time": 23.060302734375,
                        "value": 0.4330708661417323
                    },
                    {
                        "number": 7,
                        "time": 23.14453125,
                        "value": 0.4251968503937008
                    },
                    {
                        "number": 7,
                        "time": 23.204345703125,
                        "value": 0.41732283464566927
                    },
                    {
                        "number": 7,
                        "time": 23.26416015625,
                        "value": 0.4094488188976378
                    },
                    {
                        "number": 7,
                        "time": 23.3154296875,
                        "value": 0.4015748031496063
                    },
                    {
                        "number": 7,
                        "time": 23.375244140625,
                        "value": 0.3937007874015748
                    },
                    {
                        "number": 7,
                        "time": 23.43505859375,
                        "value": 0.3858267716535433
                    },
                    {
                        "number": 7,
                        "time": 23.486328125,
                        "value": 0.3779527559055118
                    },
                    {
                        "number": 7,
                        "time": 23.546142578125,
                        "value": 0.3700787401574803
                    },
                    {
                        "number": 7,
                        "time": 23.597412109375,
                        "value": 0.36220472440944884
                    },
                    {
                        "number": 7,
                        "time": 23.7109375,
                        "value": 0.4566929133858268
                    },
                    {
                        "number": 7,
                        "time": 23.7890625,
                        "value": 0.4566929133858268
                    },
                    {
                        "number": 7,
                        "time": 23.94287109375,
                        "value": 0.4645669291338583
                    },
                    {
                        "number": 7,
                        "time": 24.0966796875,
                        "value": 0.47244094488188976
                    },
                    {
                        "number": 7,
                        "time": 24.25048828125,
                        "value": 0.48031496062992124
                    },
                    {
                        "number": 7,
                        "time": 24.404296875,
                        "value": 0.4881889763779528
                    },
                    {
                        "number": 7,
                        "time": 24.55810546875,
                        "value": 0.49606299212598426
                    },
                    {
                        "number": 7,
                        "time": 24.7119140625,
                        "value": 0.5039370078740157
                    },
                    {
                        "number": 7,
                        "time": 24.86572265625,
                        "value": 0.5118110236220472
                    },
                    {
                        "number": 7,
                        "time": 25.01953125,
                        "value": 0.5196850393700787
                    },
                    {
                        "number": 7,
                        "time": 25.17333984375,
                        "value": 0.5275590551181102
                    },
                    {
                        "number": 7,
                        "time": 25.3271484375,
                        "value": 0.5354330708661418
                    },
                    {
                        "number": 7,
                        "time": 25.472412109375,
                        "value": 0.5433070866141733
                    },
                    {
                        "number": 7,
                        "time": 26.328125,
                        "value": 0.5354330708661418
                    },
                    {
                        "number": 7,
                        "time": 26.405029296875,
                        "value": 0.5275590551181102
                    },
                    {
                        "number": 7,
                        "time": 26.48193359375,
                        "value": 0.5196850393700787
                    },
                    {
                        "number": 7,
                        "time": 26.55029296875,
                        "value": 0.5118110236220472
                    },
                    {
                        "number": 7,
                        "time": 26.627197265625,
                        "value": 0.5039370078740157
                    },
                    {
                        "number": 7,
                        "time": 26.695556640625,
                        "value": 0.49606299212598426
                    },
                    {
                        "number": 7,
                        "time": 26.7724609375,
                        "value": 0.4881889763779528
                    },
                    {
                        "number": 7,
                        "time": 26.8408203125,
                        "value": 0.48031496062992124
                    },
                    {
                        "number": 7,
                        "time": 26.9140625,
                        "value": 0.47244094488188976
                    },
                    {
                        "number": 7,
                        "time": 26.939697265625,
                        "value": 0.4645669291338583
                    },
                    {
                        "number": 7,
                        "time": 26.96533203125,
                        "value": 0.4566929133858268
                    },
                    {
                        "number": 7,
                        "time": 26.990966796875,
                        "value": 0.44881889763779526
                    },
                    {
                        "number": 7,
                        "time": 27.008056640625,
                        "value": 0.4409448818897638
                    },
                    {
                        "number": 7,
                        "time": 27.03369140625,
                        "value": 0.4330708661417323
                    },
                    {
                        "number": 7,
                        "time": 27.059326171875,
                        "value": 0.4251968503937008
                    },
                    {
                        "number": 7,
                        "time": 27.0849609375,
                        "value": 0.41732283464566927
                    },
                    {
                        "number": 7,
                        "time": 27.10205078125,
                        "value": 0.4094488188976378
                    },
                    {
                        "number": 7,
                        "time": 27.127685546875,
                        "value": 0.4015748031496063
                    },
                    {
                        "number": 7,
                        "time": 27.1533203125,
                        "value": 0.3937007874015748
                    },
                    {
                        "number": 7,
                        "time": 27.178955078125,
                        "value": 0.3858267716535433
                    },
                    {
                        "number": 7,
                        "time": 27.196044921875,
                        "value": 0.3779527559055118
                    },
                    {
                        "number": 7,
                        "time": 27.2216796875,
                        "value": 0.3700787401574803
                    },
                    {
                        "number": 7,
                        "time": 27.247314453125,
                        "value": 0.36220472440944884
                    },
                    {
                        "number": 7,
                        "time": 27.65625,
                        "value": 0.3700787401574803
                    },
                    {
                        "number": 7,
                        "time": 27.698974609375,
                        "value": 0.3779527559055118
                    },
                    {
                        "number": 7,
                        "time": 27.74169921875,
                        "value": 0.3858267716535433
                    },
                    {
                        "number": 7,
                        "time": 27.77587890625,
                        "value": 0.3937007874015748
                    },
                    {
                        "number": 7,
                        "time": 27.818603515625,
                        "value": 0.4015748031496063
                    },
                    {
                        "number": 7,
                        "time": 27.852783203125,
                        "value": 0.4094488188976378
                    },
                    {
                        "number": 7,
                        "time": 27.8955078125,
                        "value": 0.41732283464566927
                    },
                    {
                        "number": 7,
                        "time": 27.9296875,
                        "value": 0.4251968503937008
                    },
                    {
                        "number": 7,
                        "time": 27.972412109375,
                        "value": 0.4330708661417323
                    },
                    {
                        "number": 7,
                        "time": 28.006591796875,
                        "value": 0.4409448818897638
                    },
                    {
                        "number": 7,
                        "time": 28.04931640625,
                        "value": 0.44881889763779526
                    },
                    {
                        "number": 7,
                        "time": 28.08349609375,
                        "value": 0.4566929133858268
                    },
                    {
                        "number": 7,
                        "time": 28.126220703125,
                        "value": 0.4645669291338583
                    },
                    {
                        "number": 7,
                        "time": 28.160400390625,
                        "value": 0.47244094488188976
                    },
                    {
                        "number": 7,
                        "time": 28.203125,
                        "value": 0.48031496062992124
                    },
                    {
                        "number": 7,
                        "time": 28.2373046875,
                        "value": 0.4881889763779528
                    },
                    {
                        "number": 7,
                        "time": 28.280029296875,
                        "value": 0.49606299212598426
                    },
                    {
                        "number": 7,
                        "time": 28.314208984375,
                        "value": 0.5039370078740157
                    },
                    {
                        "number": 7,
                        "time": 28.35693359375,
                        "value": 0.5118110236220472
                    },
                    {
                        "number": 7,
                        "time": 28.39111328125,
                        "value": 0.5196850393700787
                    },
                    {
                        "number": 7,
                        "time": 28.433837890625,
                        "value": 0.5275590551181102
                    },
                    {
                        "number": 7,
                        "time": 28.468017578125,
                        "value": 0.5354330708661418
                    },
                    {
                        "number": 7,
                        "time": 28.5107421875,
                        "value": 0.5433070866141733
                    },
                    {
                        "number": 7,
                        "time": 28.544921875,
                        "value": 0.5511811023622047
                    },
                    {
                        "number": 7,
                        "time": 28.587646484375,
                        "value": 0.5590551181102362
                    },
                    {
                        "number": 7,
                        "time": 28.63037109375,
                        "value": 0.5669291338582677
                    },
                    {
                        "number": 7,
                        "time": 28.66455078125,
                        "value": 0.5748031496062992
                    },
                    {
                        "number": 7,
                        "time": 28.707275390625,
                        "value": 0.5826771653543307
                    },
                    {
                        "number": 7,
                        "time": 28.741455078125,
                        "value": 0.5905511811023622
                    },
                    {
                        "number": 7,
                        "time": 28.7841796875,
                        "value": 0.5984251968503937
                    },
                    {
                        "number": 7,
                        "time": 28.818359375,
                        "value": 0.6062992125984252
                    },
                    {
                        "number": 7,
                        "time": 28.861083984375,
                        "value": 0.6141732283464567
                    },
                    {
                        "number": 7,
                        "time": 28.895263671875,
                        "value": 0.6220472440944882
                    },
                    {
                        "number": 7,
                        "time": 28.93798828125,
                        "value": 0.6299212598425197
                    },
                    {
                        "number": 7,
                        "time": 28.97216796875,
                        "value": 0.6377952755905512
                    },
                    {
                        "number": 7,
                        "time": 29.014892578125,
                        "value": 0.6456692913385826
                    },
                    {
                        "number": 7,
                        "time": 29.049072265625,
                        "value": 0.6535433070866141
                    },
                    {
                        "number": 7,
                        "time": 29.091796875,
                        "value": 0.6614173228346457
                    },
                    {
                        "number": 7,
                        "time": 29.1259765625,
                        "value": 0.6692913385826772
                    },
                    {
                        "number": 7,
                        "time": 29.168701171875,
                        "value": 0.6771653543307087
                    },
                    {
                        "number": 7,
                        "time": 29.202880859375,
                        "value": 0.6850393700787402
                    },
                    {
                        "number": 7,
                        "time": 29.24560546875,
                        "value": 0.6929133858267716
                    },
                    {
                        "number": 7,
                        "time": 29.27978515625,
                        "value": 0.7007874015748031
                    },
                    {
                        "number": 7,
                        "time": 29.322509765625,
                        "value": 0.7086614173228346
                    },
                    {
                        "number": 7,
                        "time": 29.356689453125,
                        "value": 0.7165354330708661
                    },
                    {
                        "number": 7,
                        "time": 30.703125,
                        "value": 0.7244094488188977
                    },
                    {
                        "number": 7,
                        "time": 30.762939453125,
                        "value": 0.7322834645669292
                    },
                    {
                        "number": 7,
                        "time": 30.814208984375,
                        "value": 0.7401574803149606
                    },
                    {
                        "number": 7,
                        "time": 30.865478515625,
                        "value": 0.7480314960629921
                    },
                    {
                        "number": 7,
                        "time": 30.916748046875,
                        "value": 0.7559055118110236
                    },
                    {
                        "number": 7,
                        "time": 30.968017578125,
                        "value": 0.7637795275590551
                    },
                    {
                        "number": 7,
                        "time": 31.019287109375,
                        "value": 0.7716535433070866
                    },
                    {
                        "number": 7,
                        "time": 31.070556640625,
                        "value": 0.7795275590551181
                    },
                    {
                        "number": 7,
                        "time": 31.13037109375,
                        "value": 0.7874015748031497
                    },
                    {
                        "number": 7,
                        "time": 31.181640625,
                        "value": 0.7952755905511811
                    },
                    {
                        "number": 7,
                        "time": 31.23291015625,
                        "value": 0.8031496062992126
                    },
                    {
                        "number": 7,
                        "time": 31.2841796875,
                        "value": 0.8110236220472441
                    },
                    {
                        "number": 7,
                        "time": 31.33544921875,
                        "value": 0.8188976377952756
                    },
                    {
                        "number": 7,
                        "time": 31.3671875,
                        "value": 0.8267716535433071
                    },
                    {
                        "number": 7,
                        "time": 31.409912109375,
                        "value": 0.8346456692913385
                    },
                    {
                        "number": 7,
                        "time": 31.45263671875,
                        "value": 0.84251968503937
                    },
                    {
                        "number": 7,
                        "time": 31.495361328125,
                        "value": 0.8503937007874016
                    },
                    {
                        "number": 7,
                        "time": 31.5380859375,
                        "value": 0.8582677165354331
                    },
                    {
                        "number": 7,
                        "time": 31.572265625,
                        "value": 0.8661417322834646
                    },
                    {
                        "number": 7,
                        "time": 31.614990234375,
                        "value": 0.8740157480314961
                    },
                    {
                        "number": 7,
                        "time": 31.65771484375,
                        "value": 0.8818897637795275
                    },
                    {
                        "number": 7,
                        "time": 31.700439453125,
                        "value": 0.889763779527559
                    },
                    {
                        "number": 7,
                        "time": 31.7431640625,
                        "value": 0.8976377952755905
                    },
                    {
                        "number": 7,
                        "time": 31.77734375,
                        "value": 0.905511811023622
                    },
                    {
                        "number": 7,
                        "time": 31.820068359375,
                        "value": 0.9133858267716536
                    },
                    {
                        "number": 7,
                        "time": 31.86279296875,
                        "value": 0.9212598425196851
                    },
                    {
                        "number": 7,
                        "time": 31.905517578125,
                        "value": 0.9291338582677166
                    },
                    {
                        "number": 7,
                        "time": 31.939697265625,
                        "value": 0.937007874015748
                    },
                    {
                        "number": 7,
                        "time": 31.982421875,
                        "value": 0.9448818897637795
                    },
                    {
                        "number": 7,
                        "time": 32.025146484375,
                        "value": 0.952755905511811
                    },
                    {
                        "number": 7,
                        "time": 32.06787109375,
                        "value": 0.9606299212598425
                    },
                    {
                        "number": 7,
                        "time": 32.110595703125,
                        "value": 0.968503937007874
                    },
                    {
                        "number": 7,
                        "time": 32.144775390625,
                        "value": 0.9763779527559056
                    },
                    {
                        "number": 7,
                        "time": 32.1875,
                        "value": 0.984251968503937
                    },
                    {
                        "number": 7,
                        "time": 32.230224609375,
                        "value": 0.9921259842519685
                    },
                    {
                        "number": 7,
                        "time": 32.283935546875,
                        "value": 0.9606299212598425
                    },
                    {
                        "number": 7,
                        "time": 32.3046875,
                        "value": 1
                    },
                    {
                        "number": 7,
                        "time": 32.313232421875,
                        "value": 0.984251968503937
                    },
                    {
                        "number": 7,
                        "time": 32.32177734375,
                        "value": 0.9606299212598425
                    },
                    {
                        "number": 7,
                        "time": 32.330322265625,
                        "value": 0.937007874015748
                    },
                    {
                        "number": 7,
                        "time": 32.3388671875,
                        "value": 0.9133858267716536
                    },
                    {
                        "number": 7,
                        "time": 32.347412109375,
                        "value": 0.889763779527559
                    },
                    {
                        "number": 7,
                        "time": 32.35595703125,
                        "value": 0.8661417322834646
                    },
                    {
                        "number": 7,
                        "time": 32.364501953125,
                        "value": 0.84251968503937
                    },
                    {
                        "number": 7,
                        "time": 32.373046875,
                        "value": 0.8188976377952756
                    },
                    {
                        "number": 7,
                        "time": 32.381591796875,
                        "value": 0.7952755905511811
                    },
                    {
                        "number": 7,
                        "time": 32.39013671875,
                        "value": 0.7716535433070866
                    },
                    {
                        "number": 7,
                        "time": 32.398681640625,
                        "value": 0.7401574803149606
                    },
                    {
                        "number": 7,
                        "time": 32.4072265625,
                        "value": 0.7165354330708661
                    },
                    {
                        "number": 7,
                        "time": 32.415771484375,
                        "value": 0.6929133858267716
                    },
                    {
                        "number": 7,
                        "time": 32.42431640625,
                        "value": 0.6692913385826772
                    },
                    {
                        "number": 7,
                        "time": 32.432861328125,
                        "value": 0.6456692913385826
                    },
                    {
                        "number": 7,
                        "time": 32.44140625,
                        "value": 0.6220472440944882
                    },
                    {
                        "number": 7,
                        "time": 32.449951171875,
                        "value": 0.5984251968503937
                    },
                    {
                        "number": 7,
                        "time": 32.45849609375,
                        "value": 0.5748031496062992
                    },
                    {
                        "number": 7,
                        "time": 32.467041015625,
                        "value": 0.5511811023622047
                    },
                    {
                        "number": 7,
                        "time": 32.4755859375,
                        "value": 0.5275590551181102
                    },
                    {
                        "number": 7,
                        "time": 32.484130859375,
                        "value": 0.49606299212598426
                    },
                    {
                        "number": 7,
                        "time": 32.49267578125,
                        "value": 0.47244094488188976
                    },
                    {
                        "number": 7,
                        "time": 32.501220703125,
                        "value": 0.44881889763779526
                    },
                    {
                        "number": 7,
                        "time": 32.509765625,
                        "value": 0.4251968503937008
                    },
                    {
                        "number": 7,
                        "time": 32.518310546875,
                        "value": 0.4015748031496063
                    },
                    {
                        "number": 7,
                        "time": 32.52685546875,
                        "value": 0.3779527559055118
                    },
                    {
                        "number": 7,
                        "time": 32.535400390625,
                        "value": 0.3543307086614173
                    },
                    {
                        "number": 7,
                        "time": 45.5078125,
                        "value": 0.33070866141732286
                    },
                    {
                        "number": 7,
                        "time": 45.7470703125,
                        "value": 0.3228346456692913
                    },
                    {
                        "number": 7,
                        "time": 45.977783203125,
                        "value": 0.31496062992125984
                    },
                    {
                        "number": 7,
                        "time": 46.217041015625,
                        "value": 0.30708661417322836
                    },
                    {
                        "number": 7,
                        "time": 46.44775390625,
                        "value": 0.2992125984251969
                    },
                    {
                        "number": 7,
                        "time": 46.68701171875,
                        "value": 0.29133858267716534
                    },
                    {
                        "number": 7,
                        "time": 46.9140625,
                        "value": 0.28346456692913385
                    },
                    {
                        "number": 7,
                        "time": 46.99951171875,
                        "value": 0.2755905511811024
                    },
                    {
                        "number": 7,
                        "time": 47.076416015625,
                        "value": 0.2677165354330709
                    },
                    {
                        "number": 7,
                        "time": 47.1533203125,
                        "value": 0.25984251968503935
                    },
                    {
                        "number": 7,
                        "time": 47.230224609375,
                        "value": 0.25196850393700787
                    },
                    {
                        "number": 7,
                        "time": 47.30712890625,
                        "value": 0.2440944881889764
                    },
                    {
                        "number": 7,
                        "time": 47.384033203125,
                        "value": 0.23622047244094488
                    },
                    {
                        "number": 7,
                        "time": 47.4609375,
                        "value": 0.2283464566929134
                    },
                    {
                        "number": 7,
                        "time": 47.54638671875,
                        "value": 0.2204724409448819
                    },
                    {
                        "number": 7,
                        "time": 47.623291015625,
                        "value": 0.2125984251968504
                    },
                    {
                        "number": 7,
                        "time": 47.7001953125,
                        "value": 0.2047244094488189
                    },
                    {
                        "number": 7,
                        "time": 47.777099609375,
                        "value": 0.1968503937007874
                    },
                    {
                        "number": 7,
                        "time": 51.8359375,
                        "value": 0.30708661417322836
                    },
                    {
                        "number": 7,
                        "time": 51.875,
                        "value": 0.30708661417322836
                    },
                    {
                        "number": 7,
                        "time": 51.92626953125,
                        "value": 0.31496062992125984
                    },
                    {
                        "number": 7,
                        "time": 51.968994140625,
                        "value": 0.3228346456692913
                    },
                    {
                        "number": 7,
                        "time": 52.01171875,
                        "value": 0.33070866141732286
                    },
                    {
                        "number": 7,
                        "time": 52.054443359375,
                        "value": 0.33858267716535434
                    },
                    {
                        "number": 7,
                        "time": 52.09716796875,
                        "value": 0.3464566929133858
                    },
                    {
                        "number": 7,
                        "time": 52.1484375,
                        "value": 0.3543307086614173
                    },
                    {
                        "number": 7,
                        "time": 52.191162109375,
                        "value": 0.36220472440944884
                    },
                    {
                        "number": 7,
                        "time": 52.23388671875,
                        "value": 0.3700787401574803
                    },
                    {
                        "number": 7,
                        "time": 52.276611328125,
                        "value": 0.3779527559055118
                    },
                    {
                        "number": 7,
                        "time": 52.3193359375,
                        "value": 0.3858267716535433
                    },
                    {
                        "number": 7,
                        "time": 52.362060546875,
                        "value": 0.3937007874015748
                    },
                    {
                        "number": 7,
                        "time": 52.413330078125,
                        "value": 0.4015748031496063
                    },
                    {
                        "number": 7,
                        "time": 52.4560546875,
                        "value": 0.4094488188976378
                    },
                    {
                        "number": 7,
                        "time": 52.498779296875,
                        "value": 0.41732283464566927
                    },
                    {
                        "number": 7,
                        "time": 52.5390625,
                        "value": 0.41732283464566927
                    },
                    {
                        "number": 7,
                        "time": 52.65869140625,
                        "value": 0.4094488188976378
                    },
                    {
                        "number": 7,
                        "time": 52.7783203125,
                        "value": 0.4015748031496063
                    },
                    {
                        "number": 7,
                        "time": 52.89794921875,
                        "value": 0.3937007874015748
                    },
                    {
                        "number": 7,
                        "time": 53.009033203125,
                        "value": 0.3858267716535433
                    },
                    {
                        "number": 7,
                        "time": 53.128662109375,
                        "value": 0.3779527559055118
                    },
                    {
                        "number": 7,
                        "time": 53.248291015625,
                        "value": 0.3700787401574803
                    },
                    {
                        "number": 7,
                        "time": 53.359375,
                        "value": 0.36220472440944884
                    },
                    {
                        "number": 7,
                        "time": 53.47900390625,
                        "value": 0.3543307086614173
                    },
                    {
                        "number": 7,
                        "time": 53.5986328125,
                        "value": 0.3464566929133858
                    },
                    {
                        "number": 7,
                        "time": 53.71826171875,
                        "value": 0.33858267716535434
                    },
                    {
                        "number": 7,
                        "time": 53.7890625,
                        "value": 0.33070866141732286
                    },
                    {
                        "number": 7,
                        "time": 53.831787109375,
                        "value": 0.33858267716535434
                    },
                    {
                        "number": 7,
                        "time": 53.87451171875,
                        "value": 0.3464566929133858
                    },
                    {
                        "number": 7,
                        "time": 53.917236328125,
                        "value": 0.3543307086614173
                    },
                    {
                        "number": 7,
                        "time": 53.9599609375,
                        "value": 0.36220472440944884
                    },
                    {
                        "number": 7,
                        "time": 54.002685546875,
                        "value": 0.3700787401574803
                    },
                    {
                        "number": 7,
                        "time": 54.04541015625,
                        "value": 0.3779527559055118
                    },
                    {
                        "number": 7,
                        "time": 54.088134765625,
                        "value": 0.3858267716535433
                    },
                    {
                        "number": 7,
                        "time": 54.130859375,
                        "value": 0.3937007874015748
                    },
                    {
                        "number": 7,
                        "time": 54.1650390625,
                        "value": 0.4015748031496063
                    },
                    {
                        "number": 7,
                        "time": 54.207763671875,
                        "value": 0.4094488188976378
                    },
                    {
                        "number": 7,
                        "time": 54.25048828125,
                        "value": 0.41732283464566927
                    },
                    {
                        "number": 7,
                        "time": 54.293212890625,
                        "value": 0.4251968503937008
                    },
                    {
                        "number": 7,
                        "time": 54.3359375,
                        "value": 0.4330708661417323
                    },
                    {
                        "number": 7,
                        "time": 54.378662109375,
                        "value": 0.4409448818897638
                    },
                    {
                        "number": 7,
                        "time": 54.4140625,
                        "value": 0.44881889763779526
                    },
                    {
                        "number": 7,
                        "time": 54.559326171875,
                        "value": 0.4409448818897638
                    },
                    {
                        "number": 7,
                        "time": 54.70458984375,
                        "value": 0.4330708661417323
                    },
                    {
                        "number": 7,
                        "time": 54.84130859375,
                        "value": 0.4251968503937008
                    },
                    {
                        "number": 7,
                        "time": 54.986572265625,
                        "value": 0.41732283464566927
                    },
                    {
                        "number": 7,
                        "time": 55.123291015625,
                        "value": 0.4094488188976378
                    },
                    {
                        "number": 7,
                        "time": 55.2685546875,
                        "value": 0.4015748031496063
                    },
                    {
                        "number": 7,
                        "time": 55.4052734375,
                        "value": 0.3937007874015748
                    },
                    {
                        "number": 7,
                        "time": 55.550537109375,
                        "value": 0.3858267716535433
                    },
                    {
                        "number": 7,
                        "time": 55.687255859375,
                        "value": 0.3779527559055118
                    },
                    {
                        "number": 7,
                        "time": 55.83251953125,
                        "value": 0.3700787401574803
                    },
                    {
                        "number": 7,
                        "time": 55.96923828125,
                        "value": 0.36220472440944884
                    },
                    {
                        "number": 7,
                        "time": 56.114501953125,
                        "value": 0.3543307086614173
                    },
                    {
                        "number": 7,
                        "time": 58.1640625,
                        "value": 0.3464566929133858
                    },
                    {
                        "number": 7,
                        "time": 58.206787109375,
                        "value": 0.3543307086614173
                    },
                    {
                        "number": 7,
                        "time": 58.240966796875,
                        "value": 0.36220472440944884
                    },
                    {
                        "number": 7,
                        "time": 58.275146484375,
                        "value": 0.3700787401574803
                    },
                    {
                        "number": 7,
                        "time": 58.309326171875,
                        "value": 0.3779527559055118
                    },
                    {
                        "number": 7,
                        "time": 58.343505859375,
                        "value": 0.3858267716535433
                    },
                    {
                        "number": 7,
                        "time": 58.377685546875,
                        "value": 0.3937007874015748
                    },
                    {
                        "number": 7,
                        "time": 58.411865234375,
                        "value": 0.4015748031496063
                    },
                    {
                        "number": 7,
                        "time": 58.446044921875,
                        "value": 0.4094488188976378
                    },
                    {
                        "number": 7,
                        "time": 58.480224609375,
                        "value": 0.41732283464566927
                    },
                    {
                        "number": 7,
                        "time": 58.514404296875,
                        "value": 0.4251968503937008
                    },
                    {
                        "number": 7,
                        "time": 58.548583984375,
                        "value": 0.4330708661417323
                    },
                    {
                        "number": 7,
                        "time": 58.582763671875,
                        "value": 0.4409448818897638
                    },
                    {
                        "number": 7,
                        "time": 58.616943359375,
                        "value": 0.44881889763779526
                    },
                    {
                        "number": 7,
                        "time": 58.651123046875,
                        "value": 0.4566929133858268
                    },
                    {
                        "number": 7,
                        "time": 58.685302734375,
                        "value": 0.4645669291338583
                    },
                    {
                        "number": 7,
                        "time": 58.72802734375,
                        "value": 0.47244094488188976
                    },
                    {
                        "number": 7,
                        "time": 58.76220703125,
                        "value": 0.48031496062992124
                    },
                    {
                        "number": 7,
                        "time": 58.79638671875,
                        "value": 0.4881889763779528
                    },
                    {
                        "number": 7,
                        "time": 58.83056640625,
                        "value": 0.49606299212598426
                    },
                    {
                        "number": 7,
                        "time": 58.86474609375,
                        "value": 0.5039370078740157
                    },
                    {
                        "number": 7,
                        "time": 58.89892578125,
                        "value": 0.5118110236220472
                    },
                    {
                        "number": 7,
                        "time": 58.93310546875,
                        "value": 0.5196850393700787
                    },
                    {
                        "number": 7,
                        "time": 58.96728515625,
                        "value": 0.5275590551181102
                    },
                    {
                        "number": 7,
                        "time": 59.00146484375,
                        "value": 0.5354330708661418
                    },
                    {
                        "number": 7,
                        "time": 59.03564453125,
                        "value": 0.5433070866141733
                    },
                    {
                        "number": 7,
                        "time": 59.06982421875,
                        "value": 0.5511811023622047
                    },
                    {
                        "number": 7,
                        "time": 59.10400390625,
                        "value": 0.5590551181102362
                    },
                    {
                        "number": 7,
                        "time": 59.13818359375,
                        "value": 0.5669291338582677
                    },
                    {
                        "number": 7,
                        "time": 59.17236328125,
                        "value": 0.5748031496062992
                    },
                    {
                        "number": 7,
                        "time": 59.20654296875,
                        "value": 0.5826771653543307
                    },
                    {
                        "number": 7,
                        "time": 59.24072265625,
                        "value": 0.5905511811023622
                    },
                    {
                        "number": 7,
                        "time": 59.283447265625,
                        "value": 0.5984251968503937
                    },
                    {
                        "number": 7,
                        "time": 59.317626953125,
                        "value": 0.6062992125984252
                    },
                    {
                        "number": 7,
                        "time": 59.351806640625,
                        "value": 0.6141732283464567
                    },
                    {
                        "number": 7,
                        "time": 59.385986328125,
                        "value": 0.6220472440944882
                    },
                    {
                        "number": 7,
                        "time": 60.0390625,
                        "value": 0.6299212598425197
                    },
                    {
                        "number": 7,
                        "time": 60.064697265625,
                        "value": 0.6220472440944882
                    },
                    {
                        "number": 7,
                        "time": 60.09033203125,
                        "value": 0.6141732283464567
                    },
                    {
                        "number": 7,
                        "time": 60.107421875,
                        "value": 0.6062992125984252
                    },
                    {
                        "number": 7,
                        "time": 60.133056640625,
                        "value": 0.5984251968503937
                    },
                    {
                        "number": 7,
                        "time": 60.150146484375,
                        "value": 0.5905511811023622
                    },
                    {
                        "number": 7,
                        "time": 60.17578125,
                        "value": 0.5826771653543307
                    },
                    {
                        "number": 7,
                        "time": 60.19287109375,
                        "value": 0.5748031496062992
                    },
                    {
                        "number": 7,
                        "time": 60.218505859375,
                        "value": 0.5669291338582677
                    },
                    {
                        "number": 7,
                        "time": 60.235595703125,
                        "value": 0.5590551181102362
                    },
                    {
                        "number": 7,
                        "time": 60.26123046875,
                        "value": 0.5511811023622047
                    },
                    {
                        "number": 7,
                        "time": 60.286865234375,
                        "value": 0.5433070866141733
                    },
                    {
                        "number": 7,
                        "time": 60.303955078125,
                        "value": 0.5354330708661418
                    },
                    {
                        "number": 7,
                        "time": 60.32958984375,
                        "value": 0.5275590551181102
                    },
                    {
                        "number": 7,
                        "time": 60.3466796875,
                        "value": 0.5196850393700787
                    },
                    {
                        "number": 7,
                        "time": 60.372314453125,
                        "value": 0.5118110236220472
                    },
                    {
                        "number": 7,
                        "time": 60.389404296875,
                        "value": 0.5039370078740157
                    },
                    {
                        "number": 7,
                        "time": 60.4150390625,
                        "value": 0.49606299212598426
                    },
                    {
                        "number": 7,
                        "time": 60.43212890625,
                        "value": 0.4881889763779528
                    },
                    {
                        "number": 7,
                        "time": 60.457763671875,
                        "value": 0.48031496062992124
                    },
                    {
                        "number": 7,
                        "time": 60.4833984375,
                        "value": 0.47244094488188976
                    },
                    {
                        "number": 7,
                        "time": 60.50048828125,
                        "value": 0.4645669291338583
                    },
                    {
                        "number": 7,
                        "time": 60.526123046875,
                        "value": 0.4566929133858268
                    },
                    {
                        "number": 7,
                        "time": 60.543212890625,
                        "value": 0.44881889763779526
                    },
                    {
                        "number": 7,
                        "time": 60.56884765625,
                        "value": 0.4409448818897638
                    },
                    {
                        "number": 7,
                        "time": 60.5859375,
                        "value": 0.4330708661417323
                    },
                    {
                        "number": 7,
                        "time": 60.611572265625,
                        "value": 0.4251968503937008
                    },
                    {
                        "number": 7,
                        "time": 60.628662109375,
                        "value": 0.41732283464566927
                    },
                    {
                        "number": 7,
                        "time": 60.654296875,
                        "value": 0.4094488188976378
                    },
                    {
                        "number": 7,
                        "time": 60.679931640625,
                        "value": 0.4015748031496063
                    },
                    {
                        "number": 7,
                        "time": 60.697021484375,
                        "value": 0.3937007874015748
                    },
                    {
                        "number": 7,
                        "time": 60.72265625,
                        "value": 0.3858267716535433
                    },
                    {
                        "number": 7,
                        "time": 60.73974609375,
                        "value": 0.3779527559055118
                    },
                    {
                        "number": 7,
                        "time": 60.765380859375,
                        "value": 0.3700787401574803
                    },
                    {
                        "number": 7,
                        "time": 62.421875,
                        "value": 0.29133858267716534
                    },
                    {
                        "number": 7,
                        "time": 63.0078125,
                        "value": 0.3228346456692913
                    },
                    {
                        "number": 7,
                        "time": 63.0859375,
                        "value": 0.2992125984251969
                    },
                    {
                        "number": 7,
                        "time": 63.1640625,
                        "value": 0.30708661417322836
                    },
                    {
                        "number": 7,
                        "time": 63.18115234375,
                        "value": 0.31496062992125984
                    },
                    {
                        "number": 7,
                        "time": 63.1982421875,
                        "value": 0.3228346456692913
                    },
                    {
                        "number": 7,
                        "time": 63.206787109375,
                        "value": 0.33070866141732286
                    },
                    {
                        "number": 7,
                        "time": 63.223876953125,
                        "value": 0.33858267716535434
                    },
                    {
                        "number": 7,
                        "time": 63.240966796875,
                        "value": 0.3464566929133858
                    },
                    {
                        "number": 7,
                        "time": 63.24951171875,
                        "value": 0.3543307086614173
                    },
                    {
                        "number": 7,
                        "time": 63.2666015625,
                        "value": 0.36220472440944884
                    },
                    {
                        "number": 7,
                        "time": 63.275146484375,
                        "value": 0.3700787401574803
                    },
                    {
                        "number": 7,
                        "time": 63.292236328125,
                        "value": 0.3779527559055118
                    },
                    {
                        "number": 7,
                        "time": 63.309326171875,
                        "value": 0.3858267716535433
                    },
                    {
                        "number": 7,
                        "time": 63.31787109375,
                        "value": 0.3937007874015748
                    },
                    {
                        "number": 7,
                        "time": 63.3349609375,
                        "value": 0.4015748031496063
                    },
                    {
                        "number": 7,
                        "time": 63.35205078125,
                        "value": 0.4094488188976378
                    },
                    {
                        "number": 7,
                        "time": 63.360595703125,
                        "value": 0.41732283464566927
                    },
                    {
                        "number": 7,
                        "time": 63.377685546875,
                        "value": 0.4251968503937008
                    },
                    {
                        "number": 7,
                        "time": 63.38623046875,
                        "value": 0.4330708661417323
                    },
                    {
                        "number": 7,
                        "time": 63.4033203125,
                        "value": 0.4409448818897638
                    },
                    {
                        "number": 7,
                        "time": 63.42041015625,
                        "value": 0.44881889763779526
                    },
                    {
                        "number": 7,
                        "time": 63.428955078125,
                        "value": 0.4566929133858268
                    },
                    {
                        "number": 7,
                        "time": 63.446044921875,
                        "value": 0.4645669291338583
                    },
                    {
                        "number": 7,
                        "time": 63.45458984375,
                        "value": 0.47244094488188976
                    },
                    {
                        "number": 7,
                        "time": 63.4716796875,
                        "value": 0.48031496062992124
                    },
                    {
                        "number": 7,
                        "time": 63.48876953125,
                        "value": 0.4881889763779528
                    },
                    {
                        "number": 7,
                        "time": 63.497314453125,
                        "value": 0.49606299212598426
                    },
                    {
                        "number": 7,
                        "time": 63.514404296875,
                        "value": 0.5039370078740157
                    },
                    {
                        "number": 7,
                        "time": 63.531494140625,
                        "value": 0.5118110236220472
                    },
                    {
                        "number": 7,
                        "time": 63.5400390625,
                        "value": 0.5196850393700787
                    },
                    {
                        "number": 7,
                        "time": 63.55712890625,
                        "value": 0.5275590551181102
                    },
                    {
                        "number": 7,
                        "time": 63.565673828125,
                        "value": 0.5354330708661418
                    },
                    {
                        "number": 7,
                        "time": 63.582763671875,
                        "value": 0.5433070866141733
                    },
                    {
                        "number": 7,
                        "time": 63.599853515625,
                        "value": 0.5511811023622047
                    },
                    {
                        "number": 7,
                        "time": 63.6083984375,
                        "value": 0.5590551181102362
                    },
                    {
                        "number": 7,
                        "time": 63.62548828125,
                        "value": 0.5669291338582677
                    },
                    {
                        "number": 7,
                        "time": 63.634033203125,
                        "value": 0.5748031496062992
                    },
                    {
                        "number": 7,
                        "time": 63.651123046875,
                        "value": 0.5826771653543307
                    },
                    {
                        "number": 7,
                        "time": 63.668212890625,
                        "value": 0.5905511811023622
                    },
                    {
                        "number": 7,
                        "time": 63.6767578125,
                        "value": 0.5984251968503937
                    },
                    {
                        "number": 7,
                        "time": 63.69384765625,
                        "value": 0.6062992125984252
                    },
                    {
                        "number": 7,
                        "time": 63.7109375,
                        "value": 0.6141732283464567
                    },
                    {
                        "number": 7,
                        "time": 63.719482421875,
                        "value": 0.6220472440944882
                    },
                    {
                        "number": 7,
                        "time": 63.736572265625,
                        "value": 0.6299212598425197
                    },
                    {
                        "number": 7,
                        "time": 63.7451171875,
                        "value": 0.6377952755905512
                    },
                    {
                        "number": 7,
                        "time": 63.76220703125,
                        "value": 0.6456692913385826
                    },
                    {
                        "number": 7,
                        "time": 63.779296875,
                        "value": 0.6535433070866141
                    },
                    {
                        "number": 7,
                        "time": 63.787841796875,
                        "value": 0.6614173228346457
                    },
                    {
                        "number": 7,
                        "time": 63.804931640625,
                        "value": 0.6692913385826772
                    },
                    {
                        "number": 7,
                        "time": 63.822021484375,
                        "value": 0.6771653543307087
                    },
                    {
                        "number": 7,
                        "time": 63.83056640625,
                        "value": 0.6850393700787402
                    },
                    {
                        "number": 7,
                        "time": 63.84765625,
                        "value": 0.6929133858267716
                    },
                    {
                        "number": 7,
                        "time": 63.856201171875,
                        "value": 0.7007874015748031
                    },
                    {
                        "number": 7,
                        "time": 63.873291015625,
                        "value": 0.7086614173228346
                    },
                    {
                        "number": 7,
                        "time": 63.890380859375,
                        "value": 0.7165354330708661
                    },
                    {
                        "number": 7,
                        "time": 63.89892578125,
                        "value": 0.7244094488188977
                    },
                    {
                        "number": 7,
                        "time": 63.916015625,
                        "value": 0.7322834645669292
                    },
                    {
                        "number": 7,
                        "time": 63.924560546875,
                        "value": 0.7401574803149606
                    },
                    {
                        "number": 7,
                        "time": 63.941650390625,
                        "value": 0.7480314960629921
                    },
                    {
                        "number": 7,
                        "time": 63.958740234375,
                        "value": 0.7559055118110236
                    },
                    {
                        "number": 7,
                        "time": 63.96728515625,
                        "value": 0.7637795275590551
                    },
                    {
                        "number": 7,
                        "time": 63.984375,
                        "value": 0.7716535433070866
                    },
                    {
                        "number": 7,
                        "time": 64.00146484375,
                        "value": 0.7795275590551181
                    },
                    {
                        "number": 7,
                        "time": 64.010009765625,
                        "value": 0.7874015748031497
                    },
                    {
                        "number": 7,
                        "time": 64.027099609375,
                        "value": 0.7952755905511811
                    },
                    {
                        "number": 7,
                        "time": 64.03564453125,
                        "value": 0.8031496062992126
                    },
                    {
                        "number": 7,
                        "time": 64.052734375,
                        "value": 0.8110236220472441
                    },
                    {
                        "number": 7,
                        "time": 64.0625,
                        "value": 0.8267716535433071
                    },
                    {
                        "number": 7,
                        "time": 64.071044921875,
                        "value": 0.8188976377952756
                    },
                    {
                        "number": 7,
                        "time": 64.07958984375,
                        "value": 0.8031496062992126
                    },
                    {
                        "number": 7,
                        "time": 64.088134765625,
                        "value": 0.7874015748031497
                    },
                    {
                        "number": 7,
                        "time": 64.0966796875,
                        "value": 0.7795275590551181
                    },
                    {
                        "number": 7,
                        "time": 64.105224609375,
                        "value": 0.7637795275590551
                    },
                    {
                        "number": 7,
                        "time": 64.11376953125,
                        "value": 0.7480314960629921
                    },
                    {
                        "number": 7,
                        "time": 64.122314453125,
                        "value": 0.7401574803149606
                    },
                    {
                        "number": 7,
                        "time": 64.130859375,
                        "value": 0.7244094488188977
                    },
                    {
                        "number": 7,
                        "time": 64.139404296875,
                        "value": 0.7086614173228346
                    },
                    {
                        "number": 7,
                        "time": 64.14794921875,
                        "value": 0.7007874015748031
                    },
                    {
                        "number": 7,
                        "time": 64.156494140625,
                        "value": 0.6850393700787402
                    },
                    {
                        "number": 7,
                        "time": 64.1650390625,
                        "value": 0.6692913385826772
                    },
                    {
                        "number": 7,
                        "time": 64.173583984375,
                        "value": 0.6535433070866141
                    },
                    {
                        "number": 7,
                        "time": 64.18212890625,
                        "value": 0.6456692913385826
                    },
                    {
                        "number": 7,
                        "time": 64.190673828125,
                        "value": 0.6299212598425197
                    },
                    {
                        "number": 7,
                        "time": 64.19921875,
                        "value": 0.6141732283464567
                    },
                    {
                        "number": 7,
                        "time": 64.207763671875,
                        "value": 0.6062992125984252
                    },
                    {
                        "number": 7,
                        "time": 64.21630859375,
                        "value": 0.5905511811023622
                    },
                    {
                        "number": 7,
                        "time": 64.224853515625,
                        "value": 0.5748031496062992
                    },
                    {
                        "number": 7,
                        "time": 64.2333984375,
                        "value": 0.5669291338582677
                    },
                    {
                        "number": 7,
                        "time": 64.241943359375,
                        "value": 0.5511811023622047
                    },
                    {
                        "number": 7,
                        "time": 64.25048828125,
                        "value": 0.5354330708661418
                    },
                    {
                        "number": 7,
                        "time": 64.259033203125,
                        "value": 0.5275590551181102
                    },
                    {
                        "number": 7,
                        "time": 64.267578125,
                        "value": 0.5118110236220472
                    },
                    {
                        "number": 7,
                        "time": 64.276123046875,
                        "value": 0.49606299212598426
                    },
                    {
                        "number": 7,
                        "time": 64.28466796875,
                        "value": 0.48031496062992124
                    },
                    {
                        "number": 7,
                        "time": 64.293212890625,
                        "value": 0.47244094488188976
                    },
                    {
                        "number": 7,
                        "time": 64.3017578125,
                        "value": 0.4566929133858268
                    },
                    {
                        "number": 7,
                        "time": 64.310302734375,
                        "value": 0.4409448818897638
                    },
                    {
                        "number": 7,
                        "time": 64.31884765625,
                        "value": 0.4330708661417323
                    },
                    {
                        "number": 7,
                        "time": 64.327392578125,
                        "value": 0.41732283464566927
                    },
                    {
                        "number": 7,
                        "time": 64.3359375,
                        "value": 0.4015748031496063
                    },
                    {
                        "number": 7,
                        "time": 64.344482421875,
                        "value": 0.3937007874015748
                    },
                    {
                        "number": 7,
                        "time": 64.35302734375,
                        "value": 0.3779527559055118
                    },
                    {
                        "number": 7,
                        "time": 64.361572265625,
                        "value": 0.36220472440944884
                    },
                    {
                        "number": 7,
                        "time": 64.3701171875,
                        "value": 0.3464566929133858
                    },
                    {
                        "number": 7,
                        "time": 88.0859375,
                        "value": 0.3700787401574803
                    },
                    {
                        "number": 7,
                        "time": 88.10302734375,
                        "value": 0.3779527559055118
                    },
                    {
                        "number": 7,
                        "time": 88.111572265625,
                        "value": 0.3858267716535433
                    },
                    {
                        "number": 7,
                        "time": 88.128662109375,
                        "value": 0.3937007874015748
                    },
                    {
                        "number": 7,
                        "time": 88.13720703125,
                        "value": 0.4015748031496063
                    },
                    {
                        "number": 7,
                        "time": 88.154296875,
                        "value": 0.4094488188976378
                    },
                    {
                        "number": 7,
                        "time": 88.162841796875,
                        "value": 0.41732283464566927
                    },
                    {
                        "number": 7,
                        "time": 88.179931640625,
                        "value": 0.4251968503937008
                    },
                    {
                        "number": 7,
                        "time": 88.1884765625,
                        "value": 0.4330708661417323
                    },
                    {
                        "number": 7,
                        "time": 88.20556640625,
                        "value": 0.4409448818897638
                    },
                    {
                        "number": 7,
                        "time": 88.214111328125,
                        "value": 0.44881889763779526
                    },
                    {
                        "number": 7,
                        "time": 88.231201171875,
                        "value": 0.4566929133858268
                    },
                    {
                        "number": 7,
                        "time": 88.23974609375,
                        "value": 0.4645669291338583
                    },
                    {
                        "number": 7,
                        "time": 88.2568359375,
                        "value": 0.47244094488188976
                    },
                    {
                        "number": 7,
                        "time": 88.265380859375,
                        "value": 0.48031496062992124
                    },
                    {
                        "number": 7,
                        "time": 88.282470703125,
                        "value": 0.4881889763779528
                    },
                    {
                        "number": 7,
                        "time": 88.291015625,
                        "value": 0.49606299212598426
                    },
                    {
                        "number": 7,
                        "time": 88.299560546875,
                        "value": 0.5039370078740157
                    },
                    {
                        "number": 7,
                        "time": 88.316650390625,
                        "value": 0.5118110236220472
                    },
                    {
                        "number": 7,
                        "time": 88.3251953125,
                        "value": 0.5196850393700787
                    },
                    {
                        "number": 7,
                        "time": 88.34228515625,
                        "value": 0.5275590551181102
                    },
                    {
                        "number": 7,
                        "time": 88.350830078125,
                        "value": 0.5354330708661418
                    },
                    {
                        "number": 7,
                        "time": 88.367919921875,
                        "value": 0.5433070866141733
                    },
                    {
                        "number": 7,
                        "time": 88.37646484375,
                        "value": 0.5511811023622047
                    },
                    {
                        "number": 7,
                        "time": 88.3935546875,
                        "value": 0.5590551181102362
                    },
                    {
                        "number": 7,
                        "time": 88.402099609375,
                        "value": 0.5669291338582677
                    },
                    {
                        "number": 7,
                        "time": 88.419189453125,
                        "value": 0.5748031496062992
                    },
                    {
                        "number": 7,
                        "time": 88.427734375,
                        "value": 0.5826771653543307
                    },
                    {
                        "number": 7,
                        "time": 88.44482421875,
                        "value": 0.5905511811023622
                    },
                    {
                        "number": 7,
                        "time": 88.453369140625,
                        "value": 0.5984251968503937
                    },
                    {
                        "number": 7,
                        "time": 88.470458984375,
                        "value": 0.6062992125984252
                    },
                    {
                        "number": 7,
                        "time": 88.47900390625,
                        "value": 0.6141732283464567
                    },
                    {
                        "number": 7,
                        "time": 88.49609375,
                        "value": 0.6220472440944882
                    },
                    {
                        "number": 7,
                        "time": 88.504638671875,
                        "value": 0.6299212598425197
                    },
                    {
                        "number": 7,
                        "time": 88.51318359375,
                        "value": 0.6377952755905512
                    },
                    {
                        "number": 7,
                        "time": 88.5302734375,
                        "value": 0.6456692913385826
                    },
                    {
                        "number": 7,
                        "time": 88.538818359375,
                        "value": 0.6535433070866141
                    },
                    {
                        "number": 7,
                        "time": 88.555908203125,
                        "value": 0.6614173228346457
                    },
                    {
                        "number": 7,
                        "time": 88.564453125,
                        "value": 0.6692913385826772
                    },
                    {
                        "number": 7,
                        "time": 88.58154296875,
                        "value": 0.6771653543307087
                    },
                    {
                        "number": 7,
                        "time": 88.590087890625,
                        "value": 0.6850393700787402
                    },
                    {
                        "number": 7,
                        "time": 88.607177734375,
                        "value": 0.6929133858267716
                    },
                    {
                        "number": 7,
                        "time": 88.61572265625,
                        "value": 0.7007874015748031
                    },
                    {
                        "number": 7,
                        "time": 88.6328125,
                        "value": 0.7086614173228346
                    },
                    {
                        "number": 7,
                        "time": 88.641357421875,
                        "value": 0.7165354330708661
                    },
                    {
                        "number": 7,
                        "time": 88.658447265625,
                        "value": 0.7244094488188977
                    },
                    {
                        "number": 7,
                        "time": 88.6669921875,
                        "value": 0.7322834645669292
                    },
                    {
                        "number": 7,
                        "time": 88.68408203125,
                        "value": 0.7401574803149606
                    },
                    {
                        "number": 7,
                        "time": 88.692626953125,
                        "value": 0.7480314960629921
                    },
                    {
                        "number": 7,
                        "time": 88.701171875,
                        "value": 0.7559055118110236
                    },
                    {
                        "number": 7,
                        "time": 88.71826171875,
                        "value": 0.7637795275590551
                    },
                    {
                        "number": 7,
                        "time": 88.726806640625,
                        "value": 0.7716535433070866
                    },
                    {
                        "number": 7,
                        "time": 88.743896484375,
                        "value": 0.7795275590551181
                    },
                    {
                        "number": 7,
                        "time": 88.75244140625,
                        "value": 0.7874015748031497
                    },
                    {
                        "number": 7,
                        "time": 88.76953125,
                        "value": 0.7952755905511811
                    },
                    {
                        "number": 7,
                        "time": 88.778076171875,
                        "value": 0.8031496062992126
                    },
                    {
                        "number": 7,
                        "time": 88.7890625,
                        "value": 0.8110236220472441
                    },
                    {
                        "number": 7,
                        "time": 88.797607421875,
                        "value": 0.7952755905511811
                    },
                    {
                        "number": 7,
                        "time": 88.80615234375,
                        "value": 0.7716535433070866
                    },
                    {
                        "number": 7,
                        "time": 88.814697265625,
                        "value": 0.7559055118110236
                    },
                    {
                        "number": 7,
                        "time": 88.8232421875,
                        "value": 0.7322834645669292
                    },
                    {
                        "number": 7,
                        "time": 88.831787109375,
                        "value": 0.7086614173228346
                    },
                    {
                        "number": 7,
                        "time": 88.84033203125,
                        "value": 0.6929133858267716
                    },
                    {
                        "number": 7,
                        "time": 88.848876953125,
                        "value": 0.6692913385826772
                    },
                    {
                        "number": 7,
                        "time": 88.857421875,
                        "value": 0.6456692913385826
                    },
                    {
                        "number": 7,
                        "time": 88.865966796875,
                        "value": 0.6299212598425197
                    },
                    {
                        "number": 7,
                        "time": 88.87451171875,
                        "value": 0.6062992125984252
                    },
                    {
                        "number": 7,
                        "time": 88.883056640625,
                        "value": 0.5905511811023622
                    },
                    {
                        "number": 7,
                        "time": 88.8916015625,
                        "value": 0.5669291338582677
                    },
                    {
                        "number": 7,
                        "time": 88.900146484375,
                        "value": 0.5433070866141733
                    },
                    {
                        "number": 7,
                        "time": 88.90869140625,
                        "value": 0.5275590551181102
                    },
                    {
                        "number": 7,
                        "time": 88.917236328125,
                        "value": 0.5039370078740157
                    },
                    {
                        "number": 7,
                        "time": 88.92578125,
                        "value": 0.48031496062992124
                    },
                    {
                        "number": 7,
                        "time": 88.934326171875,
                        "value": 0.4645669291338583
                    },
                    {
                        "number": 7,
                        "time": 88.94287109375,
                        "value": 0.4409448818897638
                    },
                    {
                        "number": 7,
                        "time": 88.951416015625,
                        "value": 0.4251968503937008
                    },
                    {
                        "number": 7,
                        "time": 88.9599609375,
                        "value": 0.4015748031496063
                    },
                    {
                        "number": 7,
                        "time": 88.968505859375,
                        "value": 0.3779527559055118
                    },
                    {
                        "number": 7,
                        "time": 88.97705078125,
                        "value": 0.36220472440944884
                    },
                    {
                        "number": 7,
                        "time": 89.0234375,
                        "value": 0.3464566929133858
                    },
                    {
                        "number": 7,
                        "time": 89.6044921875,
                        "value": 0.33858267716535434
                    },
                    {
                        "number": 7,
                        "time": 90.185546875,
                        "value": 0.33070866141732286
                    },
                    {
                        "number": 7,
                        "time": 90.7666015625,
                        "value": 0.3228346456692913
                    },
                    {
                        "number": 7,
                        "time": 91.34765625,
                        "value": 0.31496062992125984
                    },
                    {
                        "number": 7,
                        "time": 91.9287109375,
                        "value": 0.30708661417322836
                    }
                ],
                "10": [
                    {
                        "number": 10,
                        "time": 0,
                        "value": 0.23622047244094488
                    }
                ],
                "91": [
                    {
                        "number": 91,
                        "time": 0,
                        "value": 0.7874015748031497
                    }
                ],
                "93": [
                    {
                        "number": 93,
                        "time": 0,
                        "value": 1
                    }
                ],
                "121": [
                    {
                        "number": 121,
                        "time": 0,
                        "value": 1
                    },
                    {
                        "number": 121,
                        "time": 96.875,
                        "value": 1
                    }
                ]
            },
            "id": 1,
            "name": "Sopranos",
            "instrumentNumber": 53,
            "instrument": "voice oohs",
            "instrumentFamily": "ensemble",
            "channelNumber": 1,
            "isPercussion": false
        },
        {
            "startTime": 0.625,
            "duration": 96.25,
            "length": 76,
            "notes": [
                {
                    "name": "F4",
                    "midi": 65,
                    "time": 0.625,
                    "velocity": 0.5984251968503937,
                    "duration": 1.25
                },
                {
                    "name": "G4",
                    "midi": 67,
                    "time": 1.875,
                    "velocity": 0.5984251968503937,
                    "duration": 0.625
                },
                {
                    "name": "F4",
                    "midi": 65,
                    "time": 2.5,
                    "velocity": 0.5984251968503937,
                    "duration": 1.25
                },
                {
                    "name": "D#4",
                    "midi": 63,
                    "time": 3.75,
                    "velocity": 0.5984251968503937,
                    "duration": 1.25
                },
                {
                    "name": "C#4",
                    "midi": 61,
                    "time": 5,
                    "velocity": 0.5984251968503937,
                    "duration": 1.25
                },
                {
                    "name": "D#4",
                    "midi": 63,
                    "time": 6.25,
                    "velocity": 0.5984251968503937,
                    "duration": 0.625
                },
                {
                    "name": "C4",
                    "midi": 60,
                    "time": 6.875,
                    "velocity": 0.5984251968503937,
                    "duration": 0.625
                },
                {
                    "name": "A#3",
                    "midi": 58,
                    "time": 7.5,
                    "velocity": 0.5984251968503937,
                    "duration": 0.625
                },
                {
                    "name": "C4",
                    "midi": 60,
                    "time": 8.125,
                    "velocity": 0.5984251968503937,
                    "duration": 0.4998779296875
                },
                {
                    "name": "C4",
                    "midi": 60,
                    "time": 8.75,
                    "velocity": 0.5984251968503937,
                    "duration": 1.25
                },
                {
                    "name": "A#3",
                    "midi": 58,
                    "time": 10,
                    "velocity": 0.5984251968503937,
                    "duration": 1.25
                },
                {
                    "name": "G#3",
                    "midi": 56,
                    "time": 11.25,
                    "velocity": 0.5984251968503937,
                    "duration": 1.875
                },
                {
                    "name": "G3",
                    "midi": 55,
                    "time": 13.125,
                    "velocity": 0.5984251968503937,
                    "duration": 1.25
                },
                {
                    "name": "G#3",
                    "midi": 56,
                    "time": 14.375,
                    "velocity": 0.5984251968503937,
                    "duration": 2.1875
                },
                {
                    "name": "D#4",
                    "midi": 63,
                    "time": 16.875,
                    "velocity": 0.5984251968503937,
                    "duration": 1.25
                },
                {
                    "name": "G4",
                    "midi": 67,
                    "time": 18.125,
                    "velocity": 0.5984251968503937,
                    "duration": 0.625
                },
                {
                    "name": "G#4",
                    "midi": 68,
                    "time": 18.75,
                    "velocity": 0.5984251968503937,
                    "duration": 0.625
                },
                {
                    "name": "G4",
                    "midi": 67,
                    "time": 19.375,
                    "velocity": 0.5984251968503937,
                    "duration": 0.4376220703125
                },
                {
                    "name": "G4",
                    "midi": 67,
                    "time": 20,
                    "velocity": 0.5984251968503937,
                    "duration": 0.3125
                },
                {
                    "name": "D#4",
                    "midi": 63,
                    "time": 20.3125,
                    "velocity": 0.5984251968503937,
                    "duration": 0.3125
                },
                {
                    "name": "A#3",
                    "midi": 58,
                    "time": 20.625,
                    "velocity": 0.5984251968503937,
                    "duration": 0.625
                },
                {
                    "name": "G3",
                    "midi": 55,
                    "time": 21.25,
                    "velocity": 0.5984251968503937,
                    "duration": 0.3125
                },
                {
                    "name": "A#3",
                    "midi": 58,
                    "time": 21.5625,
                    "velocity": 0.5984251968503937,
                    "duration": 0.3125
                },
                {
                    "name": "G4",
                    "midi": 67,
                    "time": 21.875,
                    "velocity": 0.5984251968503937,
                    "duration": 0.3125
                },
                {
                    "name": "D#4",
                    "midi": 63,
                    "time": 22.1875,
                    "velocity": 0.5984251968503937,
                    "duration": 0.3125
                },
                {
                    "name": "A#3",
                    "midi": 58,
                    "time": 22.5,
                    "velocity": 0.5984251968503937,
                    "duration": 0.625
                },
                {
                    "name": "A3",
                    "midi": 57,
                    "time": 23.125,
                    "velocity": 0.5984251968503937,
                    "duration": 0.4376220703125
                },
                {
                    "name": "C4",
                    "midi": 60,
                    "time": 23.75,
                    "velocity": 0.5984251968503937,
                    "duration": 0.625
                },
                {
                    "name": "A#3",
                    "midi": 58,
                    "time": 24.375,
                    "velocity": 0.5984251968503937,
                    "duration": 1.875
                },
                {
                    "name": "C4",
                    "midi": 60,
                    "time": 26.25,
                    "velocity": 0.5984251968503937,
                    "duration": 1.1248779296875
                },
                {
                    "name": "A#3",
                    "midi": 58,
                    "time": 27.5,
                    "velocity": 0.5984251968503937,
                    "duration": 1.5625
                },
                {
                    "name": "D4",
                    "midi": 62,
                    "time": 29.0625,
                    "velocity": 0.5984251968503937,
                    "duration": 0.3125
                },
                {
                    "name": "F4",
                    "midi": 65,
                    "time": 29.375,
                    "velocity": 0.5984251968503937,
                    "duration": 0.625
                },
                {
                    "name": "D4",
                    "midi": 62,
                    "time": 30,
                    "velocity": 0.5984251968503937,
                    "duration": 0.3125
                },
                {
                    "name": "F4",
                    "midi": 65,
                    "time": 30.3125,
                    "velocity": 0.5984251968503937,
                    "duration": 0.3125
                },
                {
                    "name": "E4",
                    "midi": 64,
                    "time": 30.625,
                    "velocity": 0.6220472440944882,
                    "duration": 0.625
                },
                {
                    "name": "G4",
                    "midi": 67,
                    "time": 31.25,
                    "velocity": 0.6377952755905512,
                    "duration": 0.625
                },
                {
                    "name": "C5",
                    "midi": 72,
                    "time": 31.875,
                    "velocity": 0.6614173228346457,
                    "duration": 0.9375
                },
                {
                    "name": "C4",
                    "midi": 60,
                    "time": 40,
                    "velocity": 0.5984251968503937,
                    "duration": 0.3125
                },
                {
                    "name": "D#4",
                    "midi": 63,
                    "time": 40.3125,
                    "velocity": 0.5984251968503937,
                    "duration": 0.3125
                },
                {
                    "name": "C4",
                    "midi": 60,
                    "time": 40.625,
                    "velocity": 0.5984251968503937,
                    "duration": 1.25
                },
                {
                    "name": "A#3",
                    "midi": 58,
                    "time": 41.875,
                    "velocity": 0.5984251968503937,
                    "duration": 1.25
                },
                {
                    "name": "G#3",
                    "midi": 56,
                    "time": 43.125,
                    "velocity": 0.5984251968503937,
                    "duration": 1.875
                },
                {
                    "name": "G3",
                    "midi": 55,
                    "time": 45,
                    "velocity": 0.5984251968503937,
                    "duration": 1.25
                },
                {
                    "name": "G#3",
                    "midi": 56,
                    "time": 46.25,
                    "velocity": 0.5984251968503937,
                    "duration": 1.7498779296875
                },
                {
                    "name": "D#4",
                    "midi": 63,
                    "time": 48.125,
                    "velocity": 0.5984251968503937,
                    "duration": 1.25
                },
                {
                    "name": "C4",
                    "midi": 60,
                    "time": 49.375,
                    "velocity": 0.5984251968503937,
                    "duration": 0.625
                },
                {
                    "name": "A#3",
                    "midi": 58,
                    "time": 50,
                    "velocity": 0.5984251968503937,
                    "duration": 0.625
                },
                {
                    "name": "C4",
                    "midi": 60,
                    "time": 50.625,
                    "velocity": 0.5984251968503937,
                    "duration": 0.9375
                },
                {
                    "name": "G#4",
                    "midi": 68,
                    "time": 51.875,
                    "velocity": 0.5984251968503937,
                    "duration": 0.625
                },
                {
                    "name": "A4",
                    "midi": 69,
                    "time": 52.5,
                    "velocity": 0.5984251968503937,
                    "duration": 1.25
                },
                {
                    "name": "G#4",
                    "midi": 68,
                    "time": 53.75,
                    "velocity": 0.5984251968503937,
                    "duration": 0.625
                },
                {
                    "name": "A4",
                    "midi": 69,
                    "time": 54.375,
                    "velocity": 0.5984251968503937,
                    "duration": 1.25
                },
                {
                    "name": "G#4",
                    "midi": 68,
                    "time": 55.625,
                    "velocity": 0.5984251968503937,
                    "duration": 0.625
                },
                {
                    "name": "G4",
                    "midi": 67,
                    "time": 56.25,
                    "velocity": 0.5984251968503937,
                    "duration": 0.625
                },
                {
                    "name": "D4",
                    "midi": 62,
                    "time": 56.875,
                    "velocity": 0.5984251968503937,
                    "duration": 0.625
                },
                {
                    "name": "C#4",
                    "midi": 61,
                    "time": 57.5,
                    "velocity": 0.5984251968503937,
                    "duration": 0.625
                },
                {
                    "name": "C4",
                    "midi": 60,
                    "time": 58.125,
                    "velocity": 0.5984251968503937,
                    "duration": 1.25
                },
                {
                    "name": "A#3",
                    "midi": 58,
                    "time": 59.375,
                    "velocity": 0.5984251968503937,
                    "duration": 1.875
                },
                {
                    "name": "A3",
                    "midi": 57,
                    "time": 61.25,
                    "velocity": 0.5984251968503937,
                    "duration": 1.25
                },
                {
                    "name": "G3",
                    "midi": 55,
                    "time": 62.5,
                    "velocity": 0.5984251968503937,
                    "duration": 0.625
                },
                {
                    "name": "E4",
                    "midi": 64,
                    "time": 63.125,
                    "velocity": 0.5984251968503937,
                    "duration": 0.9375
                },
                {
                    "name": "C5",
                    "midi": 72,
                    "time": 64.0625,
                    "velocity": 0.5984251968503937,
                    "duration": 0.625
                },
                {
                    "name": "C4",
                    "midi": 60,
                    "time": 71.875,
                    "velocity": 0.5984251968503937,
                    "duration": 0.3125
                },
                {
                    "name": "D#4",
                    "midi": 63,
                    "time": 72.1875,
                    "velocity": 0.5984251968503937,
                    "duration": 0.3125
                },
                {
                    "name": "C4",
                    "midi": 60,
                    "time": 72.5,
                    "velocity": 0.5984251968503937,
                    "duration": 1.25
                },
                {
                    "name": "A#3",
                    "midi": 58,
                    "time": 73.75,
                    "velocity": 0.5984251968503937,
                    "duration": 1.25
                },
                {
                    "name": "G#3",
                    "midi": 56,
                    "time": 75,
                    "velocity": 0.5984251968503937,
                    "duration": 1.875
                },
                {
                    "name": "G3",
                    "midi": 55,
                    "time": 76.875,
                    "velocity": 0.5984251968503937,
                    "duration": 1.25
                },
                {
                    "name": "G#3",
                    "midi": 56,
                    "time": 78.125,
                    "velocity": 0.5984251968503937,
                    "duration": 2.8125
                },
                {
                    "name": "C4",
                    "midi": 60,
                    "time": 88.75,
                    "velocity": 0.5984251968503937,
                    "duration": 1.25
                },
                {
                    "name": "F4",
                    "midi": 65,
                    "time": 90,
                    "velocity": 0.5984251968503937,
                    "duration": 2.1875
                },
                {
                    "name": "D#4",
                    "midi": 63,
                    "time": 92.1875,
                    "velocity": 0.5984251968503937,
                    "duration": 0.9375
                },
                {
                    "name": "C#4",
                    "midi": 61,
                    "time": 93.125,
                    "velocity": 0.5984251968503937,
                    "duration": 1.25
                },
                {
                    "name": "D#4",
                    "midi": 63,
                    "time": 94.375,
                    "velocity": 0.5984251968503937,
                    "duration": 0.625
                },
                {
                    "name": "F4",
                    "midi": 65,
                    "time": 95,
                    "velocity": 0.5984251968503937,
                    "duration": 1.25
                }
            ],
            "controlChanges": {
                "1": [
                    {
                        "number": 1,
                        "time": 0,
                        "value": 0.03937007874015748
                    }
                ],
                "7": [
                    {
                        "number": 7,
                        "time": 0.56640625,
                        "value": 0.36220472440944884
                    },
                    {
                        "number": 7,
                        "time": 14.4140625,
                        "value": 0.3543307086614173
                    },
                    {
                        "number": 7,
                        "time": 15.020751953125,
                        "value": 0.3464566929133858
                    },
                    {
                        "number": 7,
                        "time": 15.68359375,
                        "value": 0.33858267716535434
                    },
                    {
                        "number": 7,
                        "time": 15.743408203125,
                        "value": 0.33070866141732286
                    },
                    {
                        "number": 7,
                        "time": 15.80322265625,
                        "value": 0.3228346456692913
                    },
                    {
                        "number": 7,
                        "time": 15.863037109375,
                        "value": 0.31496062992125984
                    },
                    {
                        "number": 7,
                        "time": 15.914306640625,
                        "value": 0.30708661417322836
                    },
                    {
                        "number": 7,
                        "time": 15.97412109375,
                        "value": 0.2992125984251969
                    },
                    {
                        "number": 7,
                        "time": 16.033935546875,
                        "value": 0.29133858267716534
                    },
                    {
                        "number": 7,
                        "time": 16.085205078125,
                        "value": 0.28346456692913385
                    },
                    {
                        "number": 7,
                        "time": 16.14501953125,
                        "value": 0.2755905511811024
                    },
                    {
                        "number": 7,
                        "time": 16.204833984375,
                        "value": 0.2677165354330709
                    },
                    {
                        "number": 7,
                        "time": 16.2646484375,
                        "value": 0.25984251968503935
                    },
                    {
                        "number": 7,
                        "time": 16.31591796875,
                        "value": 0.25196850393700787
                    },
                    {
                        "number": 7,
                        "time": 16.375732421875,
                        "value": 0.2440944881889764
                    },
                    {
                        "number": 7,
                        "time": 16.435546875,
                        "value": 0.23622047244094488
                    },
                    {
                        "number": 7,
                        "time": 16.48681640625,
                        "value": 0.2283464566929134
                    },
                    {
                        "number": 7,
                        "time": 16.546630859375,
                        "value": 0.2204724409448819
                    },
                    {
                        "number": 7,
                        "time": 16.85546875,
                        "value": 0.47244094488188976
                    },
                    {
                        "number": 7,
                        "time": 16.953125,
                        "value": 0.47244094488188976
                    },
                    {
                        "number": 7,
                        "time": 17.030029296875,
                        "value": 0.48031496062992124
                    },
                    {
                        "number": 7,
                        "time": 17.10693359375,
                        "value": 0.4881889763779528
                    },
                    {
                        "number": 7,
                        "time": 17.183837890625,
                        "value": 0.49606299212598426
                    },
                    {
                        "number": 7,
                        "time": 17.2607421875,
                        "value": 0.5039370078740157
                    },
                    {
                        "number": 7,
                        "time": 17.337646484375,
                        "value": 0.5118110236220472
                    },
                    {
                        "number": 7,
                        "time": 17.41455078125,
                        "value": 0.5196850393700787
                    },
                    {
                        "number": 7,
                        "time": 17.491455078125,
                        "value": 0.5275590551181102
                    },
                    {
                        "number": 7,
                        "time": 17.568359375,
                        "value": 0.5354330708661418
                    },
                    {
                        "number": 7,
                        "time": 17.645263671875,
                        "value": 0.5433070866141733
                    },
                    {
                        "number": 7,
                        "time": 17.72216796875,
                        "value": 0.5511811023622047
                    },
                    {
                        "number": 7,
                        "time": 17.799072265625,
                        "value": 0.5590551181102362
                    },
                    {
                        "number": 7,
                        "time": 17.8759765625,
                        "value": 0.5669291338582677
                    },
                    {
                        "number": 7,
                        "time": 17.952880859375,
                        "value": 0.5748031496062992
                    },
                    {
                        "number": 7,
                        "time": 18.02978515625,
                        "value": 0.5826771653543307
                    },
                    {
                        "number": 7,
                        "time": 18.106689453125,
                        "value": 0.5905511811023622
                    },
                    {
                        "number": 7,
                        "time": 18.18359375,
                        "value": 0.5984251968503937
                    },
                    {
                        "number": 7,
                        "time": 18.260498046875,
                        "value": 0.6062992125984252
                    },
                    {
                        "number": 7,
                        "time": 18.33740234375,
                        "value": 0.6141732283464567
                    },
                    {
                        "number": 7,
                        "time": 18.414306640625,
                        "value": 0.6220472440944882
                    },
                    {
                        "number": 7,
                        "time": 18.4912109375,
                        "value": 0.6299212598425197
                    },
                    {
                        "number": 7,
                        "time": 18.5595703125,
                        "value": 0.6377952755905512
                    },
                    {
                        "number": 7,
                        "time": 18.636474609375,
                        "value": 0.6456692913385826
                    },
                    {
                        "number": 7,
                        "time": 18.71337890625,
                        "value": 0.6535433070866141
                    },
                    {
                        "number": 7,
                        "time": 18.7890625,
                        "value": 0.6535433070866141
                    },
                    {
                        "number": 7,
                        "time": 18.831787109375,
                        "value": 0.6456692913385826
                    },
                    {
                        "number": 7,
                        "time": 18.865966796875,
                        "value": 0.6377952755905512
                    },
                    {
                        "number": 7,
                        "time": 18.900146484375,
                        "value": 0.6299212598425197
                    },
                    {
                        "number": 7,
                        "time": 18.94287109375,
                        "value": 0.6220472440944882
                    },
                    {
                        "number": 7,
                        "time": 18.97705078125,
                        "value": 0.6141732283464567
                    },
                    {
                        "number": 7,
                        "time": 19.01123046875,
                        "value": 0.6062992125984252
                    },
                    {
                        "number": 7,
                        "time": 19.053955078125,
                        "value": 0.5984251968503937
                    },
                    {
                        "number": 7,
                        "time": 19.088134765625,
                        "value": 0.5905511811023622
                    },
                    {
                        "number": 7,
                        "time": 19.122314453125,
                        "value": 0.5826771653543307
                    },
                    {
                        "number": 7,
                        "time": 19.1650390625,
                        "value": 0.5748031496062992
                    },
                    {
                        "number": 7,
                        "time": 19.19921875,
                        "value": 0.5669291338582677
                    },
                    {
                        "number": 7,
                        "time": 19.2333984375,
                        "value": 0.5590551181102362
                    },
                    {
                        "number": 7,
                        "time": 19.267578125,
                        "value": 0.5511811023622047
                    },
                    {
                        "number": 7,
                        "time": 19.310302734375,
                        "value": 0.5433070866141733
                    },
                    {
                        "number": 7,
                        "time": 19.344482421875,
                        "value": 0.5354330708661418
                    },
                    {
                        "number": 7,
                        "time": 19.378662109375,
                        "value": 0.5275590551181102
                    },
                    {
                        "number": 7,
                        "time": 19.43359375,
                        "value": 0.5196850393700787
                    },
                    {
                        "number": 7,
                        "time": 19.459228515625,
                        "value": 0.5118110236220472
                    },
                    {
                        "number": 7,
                        "time": 19.48486328125,
                        "value": 0.5039370078740157
                    },
                    {
                        "number": 7,
                        "time": 19.501953125,
                        "value": 0.49606299212598426
                    },
                    {
                        "number": 7,
                        "time": 19.527587890625,
                        "value": 0.4881889763779528
                    },
                    {
                        "number": 7,
                        "time": 19.55322265625,
                        "value": 0.48031496062992124
                    },
                    {
                        "number": 7,
                        "time": 19.5703125,
                        "value": 0.47244094488188976
                    },
                    {
                        "number": 7,
                        "time": 19.595947265625,
                        "value": 0.4645669291338583
                    },
                    {
                        "number": 7,
                        "time": 19.62158203125,
                        "value": 0.4566929133858268
                    },
                    {
                        "number": 7,
                        "time": 19.638671875,
                        "value": 0.44881889763779526
                    },
                    {
                        "number": 7,
                        "time": 19.664306640625,
                        "value": 0.4409448818897638
                    },
                    {
                        "number": 7,
                        "time": 19.681396484375,
                        "value": 0.4330708661417323
                    },
                    {
                        "number": 7,
                        "time": 19.70703125,
                        "value": 0.4251968503937008
                    },
                    {
                        "number": 7,
                        "time": 19.732666015625,
                        "value": 0.41732283464566927
                    },
                    {
                        "number": 7,
                        "time": 19.749755859375,
                        "value": 0.4094488188976378
                    },
                    {
                        "number": 7,
                        "time": 19.775390625,
                        "value": 0.4015748031496063
                    },
                    {
                        "number": 7,
                        "time": 19.801025390625,
                        "value": 0.3937007874015748
                    },
                    {
                        "number": 7,
                        "time": 19.818115234375,
                        "value": 0.3858267716535433
                    },
                    {
                        "number": 7,
                        "time": 19.84375,
                        "value": 0.3779527559055118
                    },
                    {
                        "number": 7,
                        "time": 19.86083984375,
                        "value": 0.3700787401574803
                    },
                    {
                        "number": 7,
                        "time": 20.9375,
                        "value": 0.3779527559055118
                    },
                    {
                        "number": 7,
                        "time": 21.065673828125,
                        "value": 0.3858267716535433
                    },
                    {
                        "number": 7,
                        "time": 21.185302734375,
                        "value": 0.3937007874015748
                    },
                    {
                        "number": 7,
                        "time": 21.304931640625,
                        "value": 0.4015748031496063
                    },
                    {
                        "number": 7,
                        "time": 21.424560546875,
                        "value": 0.4094488188976378
                    },
                    {
                        "number": 7,
                        "time": 21.544189453125,
                        "value": 0.41732283464566927
                    },
                    {
                        "number": 7,
                        "time": 21.663818359375,
                        "value": 0.4251968503937008
                    },
                    {
                        "number": 7,
                        "time": 21.783447265625,
                        "value": 0.4330708661417323
                    },
                    {
                        "number": 7,
                        "time": 21.903076171875,
                        "value": 0.4409448818897638
                    },
                    {
                        "number": 7,
                        "time": 22.022705078125,
                        "value": 0.44881889763779526
                    },
                    {
                        "number": 7,
                        "time": 22.142333984375,
                        "value": 0.4566929133858268
                    },
                    {
                        "number": 7,
                        "time": 22.261962890625,
                        "value": 0.4645669291338583
                    },
                    {
                        "number": 7,
                        "time": 22.381591796875,
                        "value": 0.47244094488188976
                    },
                    {
                        "number": 7,
                        "time": 22.5390625,
                        "value": 0.48031496062992124
                    },
                    {
                        "number": 7,
                        "time": 22.633056640625,
                        "value": 0.47244094488188976
                    },
                    {
                        "number": 7,
                        "time": 22.718505859375,
                        "value": 0.4645669291338583
                    },
                    {
                        "number": 7,
                        "time": 22.803955078125,
                        "value": 0.4566929133858268
                    },
                    {
                        "number": 7,
                        "time": 22.889404296875,
                        "value": 0.44881889763779526
                    },
                    {
                        "number": 7,
                        "time": 22.974853515625,
                        "value": 0.4409448818897638
                    },
                    {
                        "number": 7,
                        "time": 23.060302734375,
                        "value": 0.4330708661417323
                    },
                    {
                        "number": 7,
                        "time": 23.14453125,
                        "value": 0.4251968503937008
                    },
                    {
                        "number": 7,
                        "time": 23.204345703125,
                        "value": 0.41732283464566927
                    },
                    {
                        "number": 7,
                        "time": 23.26416015625,
                        "value": 0.4094488188976378
                    },
                    {
                        "number": 7,
                        "time": 23.3154296875,
                        "value": 0.4015748031496063
                    },
                    {
                        "number": 7,
                        "time": 23.375244140625,
                        "value": 0.3937007874015748
                    },
                    {
                        "number": 7,
                        "time": 23.43505859375,
                        "value": 0.3858267716535433
                    },
                    {
                        "number": 7,
                        "time": 23.486328125,
                        "value": 0.3779527559055118
                    },
                    {
                        "number": 7,
                        "time": 23.546142578125,
                        "value": 0.3700787401574803
                    },
                    {
                        "number": 7,
                        "time": 23.597412109375,
                        "value": 0.36220472440944884
                    },
                    {
                        "number": 7,
                        "time": 23.7109375,
                        "value": 0.4566929133858268
                    },
                    {
                        "number": 7,
                        "time": 23.7890625,
                        "value": 0.4566929133858268
                    },
                    {
                        "number": 7,
                        "time": 23.94287109375,
                        "value": 0.4645669291338583
                    },
                    {
                        "number": 7,
                        "time": 24.0966796875,
                        "value": 0.47244094488188976
                    },
                    {
                        "number": 7,
                        "time": 24.25048828125,
                        "value": 0.48031496062992124
                    },
                    {
                        "number": 7,
                        "time": 24.404296875,
                        "value": 0.4881889763779528
                    },
                    {
                        "number": 7,
                        "time": 24.55810546875,
                        "value": 0.49606299212598426
                    },
                    {
                        "number": 7,
                        "time": 24.7119140625,
                        "value": 0.5039370078740157
                    },
                    {
                        "number": 7,
                        "time": 24.86572265625,
                        "value": 0.5118110236220472
                    },
                    {
                        "number": 7,
                        "time": 25.01953125,
                        "value": 0.5196850393700787
                    },
                    {
                        "number": 7,
                        "time": 25.17333984375,
                        "value": 0.5275590551181102
                    },
                    {
                        "number": 7,
                        "time": 25.3271484375,
                        "value": 0.5354330708661418
                    },
                    {
                        "number": 7,
                        "time": 25.472412109375,
                        "value": 0.5433070866141733
                    },
                    {
                        "number": 7,
                        "time": 26.328125,
                        "value": 0.5354330708661418
                    },
                    {
                        "number": 7,
                        "time": 26.405029296875,
                        "value": 0.5275590551181102
                    },
                    {
                        "number": 7,
                        "time": 26.48193359375,
                        "value": 0.5196850393700787
                    },
                    {
                        "number": 7,
                        "time": 26.55029296875,
                        "value": 0.5118110236220472
                    },
                    {
                        "number": 7,
                        "time": 26.627197265625,
                        "value": 0.5039370078740157
                    },
                    {
                        "number": 7,
                        "time": 26.695556640625,
                        "value": 0.49606299212598426
                    },
                    {
                        "number": 7,
                        "time": 26.7724609375,
                        "value": 0.4881889763779528
                    },
                    {
                        "number": 7,
                        "time": 26.8408203125,
                        "value": 0.48031496062992124
                    },
                    {
                        "number": 7,
                        "time": 26.9140625,
                        "value": 0.47244094488188976
                    },
                    {
                        "number": 7,
                        "time": 26.939697265625,
                        "value": 0.4645669291338583
                    },
                    {
                        "number": 7,
                        "time": 26.96533203125,
                        "value": 0.4566929133858268
                    },
                    {
                        "number": 7,
                        "time": 26.990966796875,
                        "value": 0.44881889763779526
                    },
                    {
                        "number": 7,
                        "time": 27.008056640625,
                        "value": 0.4409448818897638
                    },
                    {
                        "number": 7,
                        "time": 27.03369140625,
                        "value": 0.4330708661417323
                    },
                    {
                        "number": 7,
                        "time": 27.059326171875,
                        "value": 0.4251968503937008
                    },
                    {
                        "number": 7,
                        "time": 27.0849609375,
                        "value": 0.41732283464566927
                    },
                    {
                        "number": 7,
                        "time": 27.10205078125,
                        "value": 0.4094488188976378
                    },
                    {
                        "number": 7,
                        "time": 27.127685546875,
                        "value": 0.4015748031496063
                    },
                    {
                        "number": 7,
                        "time": 27.1533203125,
                        "value": 0.3937007874015748
                    },
                    {
                        "number": 7,
                        "time": 27.178955078125,
                        "value": 0.3858267716535433
                    },
                    {
                        "number": 7,
                        "time": 27.196044921875,
                        "value": 0.3779527559055118
                    },
                    {
                        "number": 7,
                        "time": 27.2216796875,
                        "value": 0.3700787401574803
                    },
                    {
                        "number": 7,
                        "time": 27.247314453125,
                        "value": 0.36220472440944884
                    },
                    {
                        "number": 7,
                        "time": 27.65625,
                        "value": 0.3700787401574803
                    },
                    {
                        "number": 7,
                        "time": 27.698974609375,
                        "value": 0.3779527559055118
                    },
                    {
                        "number": 7,
                        "time": 27.74169921875,
                        "value": 0.3858267716535433
                    },
                    {
                        "number": 7,
                        "time": 27.77587890625,
                        "value": 0.3937007874015748
                    },
                    {
                        "number": 7,
                        "time": 27.818603515625,
                        "value": 0.4015748031496063
                    },
                    {
                        "number": 7,
                        "time": 27.852783203125,
                        "value": 0.4094488188976378
                    },
                    {
                        "number": 7,
                        "time": 27.8955078125,
                        "value": 0.41732283464566927
                    },
                    {
                        "number": 7,
                        "time": 27.9296875,
                        "value": 0.4251968503937008
                    },
                    {
                        "number": 7,
                        "time": 27.972412109375,
                        "value": 0.4330708661417323
                    },
                    {
                        "number": 7,
                        "time": 28.006591796875,
                        "value": 0.4409448818897638
                    },
                    {
                        "number": 7,
                        "time": 28.04931640625,
                        "value": 0.44881889763779526
                    },
                    {
                        "number": 7,
                        "time": 28.08349609375,
                        "value": 0.4566929133858268
                    },
                    {
                        "number": 7,
                        "time": 28.126220703125,
                        "value": 0.4645669291338583
                    },
                    {
                        "number": 7,
                        "time": 28.160400390625,
                        "value": 0.47244094488188976
                    },
                    {
                        "number": 7,
                        "time": 28.203125,
                        "value": 0.48031496062992124
                    },
                    {
                        "number": 7,
                        "time": 28.2373046875,
                        "value": 0.4881889763779528
                    },
                    {
                        "number": 7,
                        "time": 28.280029296875,
                        "value": 0.49606299212598426
                    },
                    {
                        "number": 7,
                        "time": 28.314208984375,
                        "value": 0.5039370078740157
                    },
                    {
                        "number": 7,
                        "time": 28.35693359375,
                        "value": 0.5118110236220472
                    },
                    {
                        "number": 7,
                        "time": 28.39111328125,
                        "value": 0.5196850393700787
                    },
                    {
                        "number": 7,
                        "time": 28.433837890625,
                        "value": 0.5275590551181102
                    },
                    {
                        "number": 7,
                        "time": 28.468017578125,
                        "value": 0.5354330708661418
                    },
                    {
                        "number": 7,
                        "time": 28.5107421875,
                        "value": 0.5433070866141733
                    },
                    {
                        "number": 7,
                        "time": 28.544921875,
                        "value": 0.5511811023622047
                    },
                    {
                        "number": 7,
                        "time": 28.587646484375,
                        "value": 0.5590551181102362
                    },
                    {
                        "number": 7,
                        "time": 28.63037109375,
                        "value": 0.5669291338582677
                    },
                    {
                        "number": 7,
                        "time": 28.66455078125,
                        "value": 0.5748031496062992
                    },
                    {
                        "number": 7,
                        "time": 28.707275390625,
                        "value": 0.5826771653543307
                    },
                    {
                        "number": 7,
                        "time": 28.741455078125,
                        "value": 0.5905511811023622
                    },
                    {
                        "number": 7,
                        "time": 28.7841796875,
                        "value": 0.5984251968503937
                    },
                    {
                        "number": 7,
                        "time": 28.818359375,
                        "value": 0.6062992125984252
                    },
                    {
                        "number": 7,
                        "time": 28.861083984375,
                        "value": 0.6141732283464567
                    },
                    {
                        "number": 7,
                        "time": 28.895263671875,
                        "value": 0.6220472440944882
                    },
                    {
                        "number": 7,
                        "time": 28.93798828125,
                        "value": 0.6299212598425197
                    },
                    {
                        "number": 7,
                        "time": 28.97216796875,
                        "value": 0.6377952755905512
                    },
                    {
                        "number": 7,
                        "time": 29.014892578125,
                        "value": 0.6456692913385826
                    },
                    {
                        "number": 7,
                        "time": 29.049072265625,
                        "value": 0.6535433070866141
                    },
                    {
                        "number": 7,
                        "time": 29.091796875,
                        "value": 0.6614173228346457
                    },
                    {
                        "number": 7,
                        "time": 29.1259765625,
                        "value": 0.6692913385826772
                    },
                    {
                        "number": 7,
                        "time": 29.168701171875,
                        "value": 0.6771653543307087
                    },
                    {
                        "number": 7,
                        "time": 29.202880859375,
                        "value": 0.6850393700787402
                    },
                    {
                        "number": 7,
                        "time": 29.24560546875,
                        "value": 0.6929133858267716
                    },
                    {
                        "number": 7,
                        "time": 29.27978515625,
                        "value": 0.7007874015748031
                    },
                    {
                        "number": 7,
                        "time": 29.322509765625,
                        "value": 0.7086614173228346
                    },
                    {
                        "number": 7,
                        "time": 29.356689453125,
                        "value": 0.7165354330708661
                    },
                    {
                        "number": 7,
                        "time": 30.703125,
                        "value": 0.7244094488188977
                    },
                    {
                        "number": 7,
                        "time": 30.762939453125,
                        "value": 0.7322834645669292
                    },
                    {
                        "number": 7,
                        "time": 30.814208984375,
                        "value": 0.7401574803149606
                    },
                    {
                        "number": 7,
                        "time": 30.865478515625,
                        "value": 0.7480314960629921
                    },
                    {
                        "number": 7,
                        "time": 30.916748046875,
                        "value": 0.7559055118110236
                    },
                    {
                        "number": 7,
                        "time": 30.968017578125,
                        "value": 0.7637795275590551
                    },
                    {
                        "number": 7,
                        "time": 31.019287109375,
                        "value": 0.7716535433070866
                    },
                    {
                        "number": 7,
                        "time": 31.070556640625,
                        "value": 0.7795275590551181
                    },
                    {
                        "number": 7,
                        "time": 31.13037109375,
                        "value": 0.7874015748031497
                    },
                    {
                        "number": 7,
                        "time": 31.181640625,
                        "value": 0.7952755905511811
                    },
                    {
                        "number": 7,
                        "time": 31.23291015625,
                        "value": 0.8031496062992126
                    },
                    {
                        "number": 7,
                        "time": 31.2841796875,
                        "value": 0.8110236220472441
                    },
                    {
                        "number": 7,
                        "time": 31.33544921875,
                        "value": 0.8188976377952756
                    },
                    {
                        "number": 7,
                        "time": 31.3671875,
                        "value": 0.8267716535433071
                    },
                    {
                        "number": 7,
                        "time": 31.409912109375,
                        "value": 0.8346456692913385
                    },
                    {
                        "number": 7,
                        "time": 31.45263671875,
                        "value": 0.84251968503937
                    },
                    {
                        "number": 7,
                        "time": 31.495361328125,
                        "value": 0.8503937007874016
                    },
                    {
                        "number": 7,
                        "time": 31.5380859375,
                        "value": 0.8582677165354331
                    },
                    {
                        "number": 7,
                        "time": 31.572265625,
                        "value": 0.8661417322834646
                    },
                    {
                        "number": 7,
                        "time": 31.614990234375,
                        "value": 0.8740157480314961
                    },
                    {
                        "number": 7,
                        "time": 31.65771484375,
                        "value": 0.8818897637795275
                    },
                    {
                        "number": 7,
                        "time": 31.700439453125,
                        "value": 0.889763779527559
                    },
                    {
                        "number": 7,
                        "time": 31.7431640625,
                        "value": 0.8976377952755905
                    },
                    {
                        "number": 7,
                        "time": 31.77734375,
                        "value": 0.905511811023622
                    },
                    {
                        "number": 7,
                        "time": 31.820068359375,
                        "value": 0.9133858267716536
                    },
                    {
                        "number": 7,
                        "time": 31.86279296875,
                        "value": 0.9212598425196851
                    },
                    {
                        "number": 7,
                        "time": 31.905517578125,
                        "value": 0.9291338582677166
                    },
                    {
                        "number": 7,
                        "time": 31.939697265625,
                        "value": 0.937007874015748
                    },
                    {
                        "number": 7,
                        "time": 31.982421875,
                        "value": 0.9448818897637795
                    },
                    {
                        "number": 7,
                        "time": 32.025146484375,
                        "value": 0.952755905511811
                    },
                    {
                        "number": 7,
                        "time": 32.06787109375,
                        "value": 0.9606299212598425
                    },
                    {
                        "number": 7,
                        "time": 32.110595703125,
                        "value": 0.968503937007874
                    },
                    {
                        "number": 7,
                        "time": 32.144775390625,
                        "value": 0.9763779527559056
                    },
                    {
                        "number": 7,
                        "time": 32.1875,
                        "value": 0.984251968503937
                    },
                    {
                        "number": 7,
                        "time": 32.230224609375,
                        "value": 0.9921259842519685
                    },
                    {
                        "number": 7,
                        "time": 32.283935546875,
                        "value": 0.9606299212598425
                    },
                    {
                        "number": 7,
                        "time": 32.3046875,
                        "value": 1
                    },
                    {
                        "number": 7,
                        "time": 32.313232421875,
                        "value": 0.984251968503937
                    },
                    {
                        "number": 7,
                        "time": 32.32177734375,
                        "value": 0.9606299212598425
                    },
                    {
                        "number": 7,
                        "time": 32.330322265625,
                        "value": 0.937007874015748
                    },
                    {
                        "number": 7,
                        "time": 32.3388671875,
                        "value": 0.9133858267716536
                    },
                    {
                        "number": 7,
                        "time": 32.347412109375,
                        "value": 0.889763779527559
                    },
                    {
                        "number": 7,
                        "time": 32.35595703125,
                        "value": 0.8661417322834646
                    },
                    {
                        "number": 7,
                        "time": 32.364501953125,
                        "value": 0.84251968503937
                    },
                    {
                        "number": 7,
                        "time": 32.373046875,
                        "value": 0.8188976377952756
                    },
                    {
                        "number": 7,
                        "time": 32.381591796875,
                        "value": 0.7952755905511811
                    },
                    {
                        "number": 7,
                        "time": 32.39013671875,
                        "value": 0.7716535433070866
                    },
                    {
                        "number": 7,
                        "time": 32.398681640625,
                        "value": 0.7401574803149606
                    },
                    {
                        "number": 7,
                        "time": 32.4072265625,
                        "value": 0.7165354330708661
                    },
                    {
                        "number": 7,
                        "time": 32.415771484375,
                        "value": 0.6929133858267716
                    },
                    {
                        "number": 7,
                        "time": 32.42431640625,
                        "value": 0.6692913385826772
                    },
                    {
                        "number": 7,
                        "time": 32.432861328125,
                        "value": 0.6456692913385826
                    },
                    {
                        "number": 7,
                        "time": 32.44140625,
                        "value": 0.6220472440944882
                    },
                    {
                        "number": 7,
                        "time": 32.449951171875,
                        "value": 0.5984251968503937
                    },
                    {
                        "number": 7,
                        "time": 32.45849609375,
                        "value": 0.5748031496062992
                    },
                    {
                        "number": 7,
                        "time": 32.467041015625,
                        "value": 0.5511811023622047
                    },
                    {
                        "number": 7,
                        "time": 32.4755859375,
                        "value": 0.5275590551181102
                    },
                    {
                        "number": 7,
                        "time": 32.484130859375,
                        "value": 0.49606299212598426
                    },
                    {
                        "number": 7,
                        "time": 32.49267578125,
                        "value": 0.47244094488188976
                    },
                    {
                        "number": 7,
                        "time": 32.501220703125,
                        "value": 0.44881889763779526
                    },
                    {
                        "number": 7,
                        "time": 32.509765625,
                        "value": 0.4251968503937008
                    },
                    {
                        "number": 7,
                        "time": 32.518310546875,
                        "value": 0.4015748031496063
                    },
                    {
                        "number": 7,
                        "time": 32.52685546875,
                        "value": 0.3779527559055118
                    },
                    {
                        "number": 7,
                        "time": 32.535400390625,
                        "value": 0.3543307086614173
                    },
                    {
                        "number": 7,
                        "time": 45.5078125,
                        "value": 0.33070866141732286
                    },
                    {
                        "number": 7,
                        "time": 45.7470703125,
                        "value": 0.3228346456692913
                    },
                    {
                        "number": 7,
                        "time": 45.977783203125,
                        "value": 0.31496062992125984
                    },
                    {
                        "number": 7,
                        "time": 46.217041015625,
                        "value": 0.30708661417322836
                    },
                    {
                        "number": 7,
                        "time": 46.44775390625,
                        "value": 0.2992125984251969
                    },
                    {
                        "number": 7,
                        "time": 46.68701171875,
                        "value": 0.29133858267716534
                    },
                    {
                        "number": 7,
                        "time": 46.9140625,
                        "value": 0.28346456692913385
                    },
                    {
                        "number": 7,
                        "time": 46.99951171875,
                        "value": 0.2755905511811024
                    },
                    {
                        "number": 7,
                        "time": 47.076416015625,
                        "value": 0.2677165354330709
                    },
                    {
                        "number": 7,
                        "time": 47.1533203125,
                        "value": 0.25984251968503935
                    },
                    {
                        "number": 7,
                        "time": 47.230224609375,
                        "value": 0.25196850393700787
                    },
                    {
                        "number": 7,
                        "time": 47.30712890625,
                        "value": 0.2440944881889764
                    },
                    {
                        "number": 7,
                        "time": 47.384033203125,
                        "value": 0.23622047244094488
                    },
                    {
                        "number": 7,
                        "time": 47.4609375,
                        "value": 0.2283464566929134
                    },
                    {
                        "number": 7,
                        "time": 47.54638671875,
                        "value": 0.2204724409448819
                    },
                    {
                        "number": 7,
                        "time": 47.623291015625,
                        "value": 0.2125984251968504
                    },
                    {
                        "number": 7,
                        "time": 47.7001953125,
                        "value": 0.2047244094488189
                    },
                    {
                        "number": 7,
                        "time": 47.777099609375,
                        "value": 0.1968503937007874
                    },
                    {
                        "number": 7,
                        "time": 48.125,
                        "value": 0.3779527559055118
                    },
                    {
                        "number": 7,
                        "time": 48.8671875,
                        "value": 0.3858267716535433
                    },
                    {
                        "number": 7,
                        "time": 49.08935546875,
                        "value": 0.3937007874015748
                    },
                    {
                        "number": 7,
                        "time": 49.3115234375,
                        "value": 0.4015748031496063
                    },
                    {
                        "number": 7,
                        "time": 49.53369140625,
                        "value": 0.4094488188976378
                    },
                    {
                        "number": 7,
                        "time": 49.747314453125,
                        "value": 0.41732283464566927
                    },
                    {
                        "number": 7,
                        "time": 49.969482421875,
                        "value": 0.4251968503937008
                    },
                    {
                        "number": 7,
                        "time": 50.191650390625,
                        "value": 0.4330708661417323
                    },
                    {
                        "number": 7,
                        "time": 50.5859375,
                        "value": 0.41732283464566927
                    },
                    {
                        "number": 7,
                        "time": 50.654296875,
                        "value": 0.4094488188976378
                    },
                    {
                        "number": 7,
                        "time": 50.72265625,
                        "value": 0.4015748031496063
                    },
                    {
                        "number": 7,
                        "time": 50.791015625,
                        "value": 0.3937007874015748
                    },
                    {
                        "number": 7,
                        "time": 50.850830078125,
                        "value": 0.3858267716535433
                    },
                    {
                        "number": 7,
                        "time": 50.919189453125,
                        "value": 0.3779527559055118
                    },
                    {
                        "number": 7,
                        "time": 50.987548828125,
                        "value": 0.3700787401574803
                    },
                    {
                        "number": 7,
                        "time": 51.055908203125,
                        "value": 0.36220472440944884
                    },
                    {
                        "number": 7,
                        "time": 51.11572265625,
                        "value": 0.3543307086614173
                    },
                    {
                        "number": 7,
                        "time": 51.18408203125,
                        "value": 0.3464566929133858
                    },
                    {
                        "number": 7,
                        "time": 51.25244140625,
                        "value": 0.33858267716535434
                    },
                    {
                        "number": 7,
                        "time": 51.32080078125,
                        "value": 0.33070866141732286
                    },
                    {
                        "number": 7,
                        "time": 51.380615234375,
                        "value": 0.3228346456692913
                    },
                    {
                        "number": 7,
                        "time": 51.8359375,
                        "value": 0.30708661417322836
                    },
                    {
                        "number": 7,
                        "time": 51.875,
                        "value": 0.30708661417322836
                    },
                    {
                        "number": 7,
                        "time": 51.92626953125,
                        "value": 0.31496062992125984
                    },
                    {
                        "number": 7,
                        "time": 51.968994140625,
                        "value": 0.3228346456692913
                    },
                    {
                        "number": 7,
                        "time": 52.01171875,
                        "value": 0.33070866141732286
                    },
                    {
                        "number": 7,
                        "time": 52.054443359375,
                        "value": 0.33858267716535434
                    },
                    {
                        "number": 7,
                        "time": 52.09716796875,
                        "value": 0.3464566929133858
                    },
                    {
                        "number": 7,
                        "time": 52.1484375,
                        "value": 0.3543307086614173
                    },
                    {
                        "number": 7,
                        "time": 52.191162109375,
                        "value": 0.36220472440944884
                    },
                    {
                        "number": 7,
                        "time": 52.23388671875,
                        "value": 0.3700787401574803
                    },
                    {
                        "number": 7,
                        "time": 52.276611328125,
                        "value": 0.3779527559055118
                    },
                    {
                        "number": 7,
                        "time": 52.3193359375,
                        "value": 0.3858267716535433
                    },
                    {
                        "number": 7,
                        "time": 52.362060546875,
                        "value": 0.3937007874015748
                    },
                    {
                        "number": 7,
                        "time": 52.413330078125,
                        "value": 0.4015748031496063
                    },
                    {
                        "number": 7,
                        "time": 52.4560546875,
                        "value": 0.4094488188976378
                    },
                    {
                        "number": 7,
                        "time": 52.498779296875,
                        "value": 0.41732283464566927
                    },
                    {
                        "number": 7,
                        "time": 52.5390625,
                        "value": 0.41732283464566927
                    },
                    {
                        "number": 7,
                        "time": 52.65869140625,
                        "value": 0.4094488188976378
                    },
                    {
                        "number": 7,
                        "time": 52.7783203125,
                        "value": 0.4015748031496063
                    },
                    {
                        "number": 7,
                        "time": 52.89794921875,
                        "value": 0.3937007874015748
                    },
                    {
                        "number": 7,
                        "time": 53.009033203125,
                        "value": 0.3858267716535433
                    },
                    {
                        "number": 7,
                        "time": 53.128662109375,
                        "value": 0.3779527559055118
                    },
                    {
                        "number": 7,
                        "time": 53.248291015625,
                        "value": 0.3700787401574803
                    },
                    {
                        "number": 7,
                        "time": 53.359375,
                        "value": 0.36220472440944884
                    },
                    {
                        "number": 7,
                        "time": 53.47900390625,
                        "value": 0.3543307086614173
                    },
                    {
                        "number": 7,
                        "time": 53.5986328125,
                        "value": 0.3464566929133858
                    },
                    {
                        "number": 7,
                        "time": 53.71826171875,
                        "value": 0.33858267716535434
                    },
                    {
                        "number": 7,
                        "time": 53.7890625,
                        "value": 0.33070866141732286
                    },
                    {
                        "number": 7,
                        "time": 53.831787109375,
                        "value": 0.33858267716535434
                    },
                    {
                        "number": 7,
                        "time": 53.87451171875,
                        "value": 0.3464566929133858
                    },
                    {
                        "number": 7,
                        "time": 53.917236328125,
                        "value": 0.3543307086614173
                    },
                    {
                        "number": 7,
                        "time": 53.9599609375,
                        "value": 0.36220472440944884
                    },
                    {
                        "number": 7,
                        "time": 54.002685546875,
                        "value": 0.3700787401574803
                    },
                    {
                        "number": 7,
                        "time": 54.04541015625,
                        "value": 0.3779527559055118
                    },
                    {
                        "number": 7,
                        "time": 54.088134765625,
                        "value": 0.3858267716535433
                    },
                    {
                        "number": 7,
                        "time": 54.130859375,
                        "value": 0.3937007874015748
                    },
                    {
                        "number": 7,
                        "time": 54.1650390625,
                        "value": 0.4015748031496063
                    },
                    {
                        "number": 7,
                        "time": 54.207763671875,
                        "value": 0.4094488188976378
                    },
                    {
                        "number": 7,
                        "time": 54.25048828125,
                        "value": 0.41732283464566927
                    },
                    {
                        "number": 7,
                        "time": 54.293212890625,
                        "value": 0.4251968503937008
                    },
                    {
                        "number": 7,
                        "time": 54.3359375,
                        "value": 0.4330708661417323
                    },
                    {
                        "number": 7,
                        "time": 54.378662109375,
                        "value": 0.4409448818897638
                    },
                    {
                        "number": 7,
                        "time": 54.4140625,
                        "value": 0.44881889763779526
                    },
                    {
                        "number": 7,
                        "time": 54.559326171875,
                        "value": 0.4409448818897638
                    },
                    {
                        "number": 7,
                        "time": 54.70458984375,
                        "value": 0.4330708661417323
                    },
                    {
                        "number": 7,
                        "time": 54.84130859375,
                        "value": 0.4251968503937008
                    },
                    {
                        "number": 7,
                        "time": 54.986572265625,
                        "value": 0.41732283464566927
                    },
                    {
                        "number": 7,
                        "time": 55.123291015625,
                        "value": 0.4094488188976378
                    },
                    {
                        "number": 7,
                        "time": 55.2685546875,
                        "value": 0.4015748031496063
                    },
                    {
                        "number": 7,
                        "time": 55.4052734375,
                        "value": 0.3937007874015748
                    },
                    {
                        "number": 7,
                        "time": 55.550537109375,
                        "value": 0.3858267716535433
                    },
                    {
                        "number": 7,
                        "time": 55.687255859375,
                        "value": 0.3779527559055118
                    },
                    {
                        "number": 7,
                        "time": 55.83251953125,
                        "value": 0.3700787401574803
                    },
                    {
                        "number": 7,
                        "time": 55.96923828125,
                        "value": 0.36220472440944884
                    },
                    {
                        "number": 7,
                        "time": 56.114501953125,
                        "value": 0.3543307086614173
                    },
                    {
                        "number": 7,
                        "time": 58.1640625,
                        "value": 0.3464566929133858
                    },
                    {
                        "number": 7,
                        "time": 58.206787109375,
                        "value": 0.3543307086614173
                    },
                    {
                        "number": 7,
                        "time": 58.240966796875,
                        "value": 0.36220472440944884
                    },
                    {
                        "number": 7,
                        "time": 58.275146484375,
                        "value": 0.3700787401574803
                    },
                    {
                        "number": 7,
                        "time": 58.309326171875,
                        "value": 0.3779527559055118
                    },
                    {
                        "number": 7,
                        "time": 58.343505859375,
                        "value": 0.3858267716535433
                    },
                    {
                        "number": 7,
                        "time": 58.377685546875,
                        "value": 0.3937007874015748
                    },
                    {
                        "number": 7,
                        "time": 58.411865234375,
                        "value": 0.4015748031496063
                    },
                    {
                        "number": 7,
                        "time": 58.446044921875,
                        "value": 0.4094488188976378
                    },
                    {
                        "number": 7,
                        "time": 58.480224609375,
                        "value": 0.41732283464566927
                    },
                    {
                        "number": 7,
                        "time": 58.514404296875,
                        "value": 0.4251968503937008
                    },
                    {
                        "number": 7,
                        "time": 58.548583984375,
                        "value": 0.4330708661417323
                    },
                    {
                        "number": 7,
                        "time": 58.582763671875,
                        "value": 0.4409448818897638
                    },
                    {
                        "number": 7,
                        "time": 58.616943359375,
                        "value": 0.44881889763779526
                    },
                    {
                        "number": 7,
                        "time": 58.651123046875,
                        "value": 0.4566929133858268
                    },
                    {
                        "number": 7,
                        "time": 58.685302734375,
                        "value": 0.4645669291338583
                    },
                    {
                        "number": 7,
                        "time": 58.72802734375,
                        "value": 0.47244094488188976
                    },
                    {
                        "number": 7,
                        "time": 58.76220703125,
                        "value": 0.48031496062992124
                    },
                    {
                        "number": 7,
                        "time": 58.79638671875,
                        "value": 0.4881889763779528
                    },
                    {
                        "number": 7,
                        "time": 58.83056640625,
                        "value": 0.49606299212598426
                    },
                    {
                        "number": 7,
                        "time": 58.86474609375,
                        "value": 0.5039370078740157
                    },
                    {
                        "number": 7,
                        "time": 58.89892578125,
                        "value": 0.5118110236220472
                    },
                    {
                        "number": 7,
                        "time": 58.93310546875,
                        "value": 0.5196850393700787
                    },
                    {
                        "number": 7,
                        "time": 58.96728515625,
                        "value": 0.5275590551181102
                    },
                    {
                        "number": 7,
                        "time": 59.00146484375,
                        "value": 0.5354330708661418
                    },
                    {
                        "number": 7,
                        "time": 59.03564453125,
                        "value": 0.5433070866141733
                    },
                    {
                        "number": 7,
                        "time": 59.06982421875,
                        "value": 0.5511811023622047
                    },
                    {
                        "number": 7,
                        "time": 59.10400390625,
                        "value": 0.5590551181102362
                    },
                    {
                        "number": 7,
                        "time": 59.13818359375,
                        "value": 0.5669291338582677
                    },
                    {
                        "number": 7,
                        "time": 59.17236328125,
                        "value": 0.5748031496062992
                    },
                    {
                        "number": 7,
                        "time": 59.20654296875,
                        "value": 0.5826771653543307
                    },
                    {
                        "number": 7,
                        "time": 59.24072265625,
                        "value": 0.5905511811023622
                    },
                    {
                        "number": 7,
                        "time": 59.283447265625,
                        "value": 0.5984251968503937
                    },
                    {
                        "number": 7,
                        "time": 59.317626953125,
                        "value": 0.6062992125984252
                    },
                    {
                        "number": 7,
                        "time": 59.351806640625,
                        "value": 0.6141732283464567
                    },
                    {
                        "number": 7,
                        "time": 59.385986328125,
                        "value": 0.6220472440944882
                    },
                    {
                        "number": 7,
                        "time": 60,
                        "value": 0.6062992125984252
                    },
                    {
                        "number": 7,
                        "time": 60.076904296875,
                        "value": 0.5984251968503937
                    },
                    {
                        "number": 7,
                        "time": 60.145263671875,
                        "value": 0.5905511811023622
                    },
                    {
                        "number": 7,
                        "time": 60.22216796875,
                        "value": 0.5826771653543307
                    },
                    {
                        "number": 7,
                        "time": 60.29052734375,
                        "value": 0.5748031496062992
                    },
                    {
                        "number": 7,
                        "time": 60.367431640625,
                        "value": 0.5669291338582677
                    },
                    {
                        "number": 7,
                        "time": 60.435791015625,
                        "value": 0.5590551181102362
                    },
                    {
                        "number": 7,
                        "time": 60.5126953125,
                        "value": 0.5511811023622047
                    },
                    {
                        "number": 7,
                        "time": 60.5810546875,
                        "value": 0.5433070866141733
                    },
                    {
                        "number": 7,
                        "time": 60.657958984375,
                        "value": 0.5354330708661418
                    },
                    {
                        "number": 7,
                        "time": 60.726318359375,
                        "value": 0.5275590551181102
                    },
                    {
                        "number": 7,
                        "time": 60.80322265625,
                        "value": 0.5196850393700787
                    },
                    {
                        "number": 7,
                        "time": 60.87158203125,
                        "value": 0.5118110236220472
                    },
                    {
                        "number": 7,
                        "time": 60.948486328125,
                        "value": 0.5039370078740157
                    },
                    {
                        "number": 7,
                        "time": 61.016845703125,
                        "value": 0.49606299212598426
                    },
                    {
                        "number": 7,
                        "time": 61.09375,
                        "value": 0.4881889763779528
                    },
                    {
                        "number": 7,
                        "time": 61.162109375,
                        "value": 0.48031496062992124
                    },
                    {
                        "number": 7,
                        "time": 61.239013671875,
                        "value": 0.47244094488188976
                    },
                    {
                        "number": 7,
                        "time": 61.307373046875,
                        "value": 0.4645669291338583
                    },
                    {
                        "number": 7,
                        "time": 61.38427734375,
                        "value": 0.4566929133858268
                    },
                    {
                        "number": 7,
                        "time": 61.45263671875,
                        "value": 0.44881889763779526
                    },
                    {
                        "number": 7,
                        "time": 61.529541015625,
                        "value": 0.4409448818897638
                    },
                    {
                        "number": 7,
                        "time": 61.597900390625,
                        "value": 0.4330708661417323
                    },
                    {
                        "number": 7,
                        "time": 61.6748046875,
                        "value": 0.4251968503937008
                    },
                    {
                        "number": 7,
                        "time": 61.7431640625,
                        "value": 0.41732283464566927
                    },
                    {
                        "number": 7,
                        "time": 61.820068359375,
                        "value": 0.4094488188976378
                    },
                    {
                        "number": 7,
                        "time": 61.888427734375,
                        "value": 0.4015748031496063
                    },
                    {
                        "number": 7,
                        "time": 61.96533203125,
                        "value": 0.3937007874015748
                    },
                    {
                        "number": 7,
                        "time": 62.03369140625,
                        "value": 0.3858267716535433
                    },
                    {
                        "number": 7,
                        "time": 62.110595703125,
                        "value": 0.3779527559055118
                    },
                    {
                        "number": 7,
                        "time": 62.178955078125,
                        "value": 0.3700787401574803
                    },
                    {
                        "number": 7,
                        "time": 62.255859375,
                        "value": 0.36220472440944884
                    },
                    {
                        "number": 7,
                        "time": 62.32421875,
                        "value": 0.3543307086614173
                    },
                    {
                        "number": 7,
                        "time": 62.401123046875,
                        "value": 0.3464566929133858
                    },
                    {
                        "number": 7,
                        "time": 62.469482421875,
                        "value": 0.33858267716535434
                    },
                    {
                        "number": 7,
                        "time": 63.0859375,
                        "value": 0.2992125984251969
                    },
                    {
                        "number": 7,
                        "time": 63.1640625,
                        "value": 0.30708661417322836
                    },
                    {
                        "number": 7,
                        "time": 63.18115234375,
                        "value": 0.31496062992125984
                    },
                    {
                        "number": 7,
                        "time": 63.1982421875,
                        "value": 0.3228346456692913
                    },
                    {
                        "number": 7,
                        "time": 63.206787109375,
                        "value": 0.33070866141732286
                    },
                    {
                        "number": 7,
                        "time": 63.223876953125,
                        "value": 0.33858267716535434
                    },
                    {
                        "number": 7,
                        "time": 63.240966796875,
                        "value": 0.3464566929133858
                    },
                    {
                        "number": 7,
                        "time": 63.24951171875,
                        "value": 0.3543307086614173
                    },
                    {
                        "number": 7,
                        "time": 63.2666015625,
                        "value": 0.36220472440944884
                    },
                    {
                        "number": 7,
                        "time": 63.275146484375,
                        "value": 0.3700787401574803
                    },
                    {
                        "number": 7,
                        "time": 63.292236328125,
                        "value": 0.3779527559055118
                    },
                    {
                        "number": 7,
                        "time": 63.309326171875,
                        "value": 0.3858267716535433
                    },
                    {
                        "number": 7,
                        "time": 63.31787109375,
                        "value": 0.3937007874015748
                    },
                    {
                        "number": 7,
                        "time": 63.3349609375,
                        "value": 0.4015748031496063
                    },
                    {
                        "number": 7,
                        "time": 63.35205078125,
                        "value": 0.4094488188976378
                    },
                    {
                        "number": 7,
                        "time": 63.360595703125,
                        "value": 0.41732283464566927
                    },
                    {
                        "number": 7,
                        "time": 63.377685546875,
                        "value": 0.4251968503937008
                    },
                    {
                        "number": 7,
                        "time": 63.38623046875,
                        "value": 0.4330708661417323
                    },
                    {
                        "number": 7,
                        "time": 63.4033203125,
                        "value": 0.4409448818897638
                    },
                    {
                        "number": 7,
                        "time": 63.42041015625,
                        "value": 0.44881889763779526
                    },
                    {
                        "number": 7,
                        "time": 63.428955078125,
                        "value": 0.4566929133858268
                    },
                    {
                        "number": 7,
                        "time": 63.446044921875,
                        "value": 0.4645669291338583
                    },
                    {
                        "number": 7,
                        "time": 63.45458984375,
                        "value": 0.47244094488188976
                    },
                    {
                        "number": 7,
                        "time": 63.4716796875,
                        "value": 0.48031496062992124
                    },
                    {
                        "number": 7,
                        "time": 63.48876953125,
                        "value": 0.4881889763779528
                    },
                    {
                        "number": 7,
                        "time": 63.497314453125,
                        "value": 0.49606299212598426
                    },
                    {
                        "number": 7,
                        "time": 63.514404296875,
                        "value": 0.5039370078740157
                    },
                    {
                        "number": 7,
                        "time": 63.531494140625,
                        "value": 0.5118110236220472
                    },
                    {
                        "number": 7,
                        "time": 63.5400390625,
                        "value": 0.5196850393700787
                    },
                    {
                        "number": 7,
                        "time": 63.55712890625,
                        "value": 0.5275590551181102
                    },
                    {
                        "number": 7,
                        "time": 63.565673828125,
                        "value": 0.5354330708661418
                    },
                    {
                        "number": 7,
                        "time": 63.582763671875,
                        "value": 0.5433070866141733
                    },
                    {
                        "number": 7,
                        "time": 63.599853515625,
                        "value": 0.5511811023622047
                    },
                    {
                        "number": 7,
                        "time": 63.6083984375,
                        "value": 0.5590551181102362
                    },
                    {
                        "number": 7,
                        "time": 63.62548828125,
                        "value": 0.5669291338582677
                    },
                    {
                        "number": 7,
                        "time": 63.634033203125,
                        "value": 0.5748031496062992
                    },
                    {
                        "number": 7,
                        "time": 63.651123046875,
                        "value": 0.5826771653543307
                    },
                    {
                        "number": 7,
                        "time": 63.668212890625,
                        "value": 0.5905511811023622
                    },
                    {
                        "number": 7,
                        "time": 63.6767578125,
                        "value": 0.5984251968503937
                    },
                    {
                        "number": 7,
                        "time": 63.69384765625,
                        "value": 0.6062992125984252
                    },
                    {
                        "number": 7,
                        "time": 63.7109375,
                        "value": 0.6141732283464567
                    },
                    {
                        "number": 7,
                        "time": 63.719482421875,
                        "value": 0.6220472440944882
                    },
                    {
                        "number": 7,
                        "time": 63.736572265625,
                        "value": 0.6299212598425197
                    },
                    {
                        "number": 7,
                        "time": 63.7451171875,
                        "value": 0.6377952755905512
                    },
                    {
                        "number": 7,
                        "time": 63.76220703125,
                        "value": 0.6456692913385826
                    },
                    {
                        "number": 7,
                        "time": 63.779296875,
                        "value": 0.6535433070866141
                    },
                    {
                        "number": 7,
                        "time": 63.787841796875,
                        "value": 0.6614173228346457
                    },
                    {
                        "number": 7,
                        "time": 63.804931640625,
                        "value": 0.6692913385826772
                    },
                    {
                        "number": 7,
                        "time": 63.822021484375,
                        "value": 0.6771653543307087
                    },
                    {
                        "number": 7,
                        "time": 63.83056640625,
                        "value": 0.6850393700787402
                    },
                    {
                        "number": 7,
                        "time": 63.84765625,
                        "value": 0.6929133858267716
                    },
                    {
                        "number": 7,
                        "time": 63.856201171875,
                        "value": 0.7007874015748031
                    },
                    {
                        "number": 7,
                        "time": 63.873291015625,
                        "value": 0.7086614173228346
                    },
                    {
                        "number": 7,
                        "time": 63.890380859375,
                        "value": 0.7165354330708661
                    },
                    {
                        "number": 7,
                        "time": 63.89892578125,
                        "value": 0.7244094488188977
                    },
                    {
                        "number": 7,
                        "time": 63.916015625,
                        "value": 0.7322834645669292
                    },
                    {
                        "number": 7,
                        "time": 63.924560546875,
                        "value": 0.7401574803149606
                    },
                    {
                        "number": 7,
                        "time": 63.941650390625,
                        "value": 0.7480314960629921
                    },
                    {
                        "number": 7,
                        "time": 63.958740234375,
                        "value": 0.7559055118110236
                    },
                    {
                        "number": 7,
                        "time": 63.96728515625,
                        "value": 0.7637795275590551
                    },
                    {
                        "number": 7,
                        "time": 63.984375,
                        "value": 0.7716535433070866
                    },
                    {
                        "number": 7,
                        "time": 64.00146484375,
                        "value": 0.7795275590551181
                    },
                    {
                        "number": 7,
                        "time": 64.010009765625,
                        "value": 0.7874015748031497
                    },
                    {
                        "number": 7,
                        "time": 64.027099609375,
                        "value": 0.7952755905511811
                    },
                    {
                        "number": 7,
                        "time": 64.03564453125,
                        "value": 0.8031496062992126
                    },
                    {
                        "number": 7,
                        "time": 64.052734375,
                        "value": 0.8110236220472441
                    },
                    {
                        "number": 7,
                        "time": 64.0625,
                        "value": 0.8267716535433071
                    },
                    {
                        "number": 7,
                        "time": 64.071044921875,
                        "value": 0.8188976377952756
                    },
                    {
                        "number": 7,
                        "time": 64.07958984375,
                        "value": 0.8031496062992126
                    },
                    {
                        "number": 7,
                        "time": 64.088134765625,
                        "value": 0.7874015748031497
                    },
                    {
                        "number": 7,
                        "time": 64.0966796875,
                        "value": 0.7795275590551181
                    },
                    {
                        "number": 7,
                        "time": 64.105224609375,
                        "value": 0.7637795275590551
                    },
                    {
                        "number": 7,
                        "time": 64.11376953125,
                        "value": 0.7480314960629921
                    },
                    {
                        "number": 7,
                        "time": 64.122314453125,
                        "value": 0.7401574803149606
                    },
                    {
                        "number": 7,
                        "time": 64.130859375,
                        "value": 0.7244094488188977
                    },
                    {
                        "number": 7,
                        "time": 64.139404296875,
                        "value": 0.7086614173228346
                    },
                    {
                        "number": 7,
                        "time": 64.14794921875,
                        "value": 0.7007874015748031
                    },
                    {
                        "number": 7,
                        "time": 64.156494140625,
                        "value": 0.6850393700787402
                    },
                    {
                        "number": 7,
                        "time": 64.1650390625,
                        "value": 0.6692913385826772
                    },
                    {
                        "number": 7,
                        "time": 64.173583984375,
                        "value": 0.6535433070866141
                    },
                    {
                        "number": 7,
                        "time": 64.18212890625,
                        "value": 0.6456692913385826
                    },
                    {
                        "number": 7,
                        "time": 64.190673828125,
                        "value": 0.6299212598425197
                    },
                    {
                        "number": 7,
                        "time": 64.19921875,
                        "value": 0.6141732283464567
                    },
                    {
                        "number": 7,
                        "time": 64.207763671875,
                        "value": 0.6062992125984252
                    },
                    {
                        "number": 7,
                        "time": 64.21630859375,
                        "value": 0.5905511811023622
                    },
                    {
                        "number": 7,
                        "time": 64.224853515625,
                        "value": 0.5748031496062992
                    },
                    {
                        "number": 7,
                        "time": 64.2333984375,
                        "value": 0.5669291338582677
                    },
                    {
                        "number": 7,
                        "time": 64.241943359375,
                        "value": 0.5511811023622047
                    },
                    {
                        "number": 7,
                        "time": 64.25048828125,
                        "value": 0.5354330708661418
                    },
                    {
                        "number": 7,
                        "time": 64.259033203125,
                        "value": 0.5275590551181102
                    },
                    {
                        "number": 7,
                        "time": 64.267578125,
                        "value": 0.5118110236220472
                    },
                    {
                        "number": 7,
                        "time": 64.276123046875,
                        "value": 0.49606299212598426
                    },
                    {
                        "number": 7,
                        "time": 64.28466796875,
                        "value": 0.48031496062992124
                    },
                    {
                        "number": 7,
                        "time": 64.293212890625,
                        "value": 0.47244094488188976
                    },
                    {
                        "number": 7,
                        "time": 64.3017578125,
                        "value": 0.4566929133858268
                    },
                    {
                        "number": 7,
                        "time": 64.310302734375,
                        "value": 0.4409448818897638
                    },
                    {
                        "number": 7,
                        "time": 64.31884765625,
                        "value": 0.4330708661417323
                    },
                    {
                        "number": 7,
                        "time": 64.327392578125,
                        "value": 0.41732283464566927
                    },
                    {
                        "number": 7,
                        "time": 64.3359375,
                        "value": 0.4015748031496063
                    },
                    {
                        "number": 7,
                        "time": 64.344482421875,
                        "value": 0.3937007874015748
                    },
                    {
                        "number": 7,
                        "time": 64.35302734375,
                        "value": 0.3779527559055118
                    },
                    {
                        "number": 7,
                        "time": 64.361572265625,
                        "value": 0.36220472440944884
                    },
                    {
                        "number": 7,
                        "time": 64.3701171875,
                        "value": 0.3464566929133858
                    },
                    {
                        "number": 7,
                        "time": 88.6328125,
                        "value": 0.7559055118110236
                    },
                    {
                        "number": 7,
                        "time": 88.7890625,
                        "value": 0.7637795275590551
                    },
                    {
                        "number": 7,
                        "time": 88.797607421875,
                        "value": 0.7480314960629921
                    },
                    {
                        "number": 7,
                        "time": 88.80615234375,
                        "value": 0.7322834645669292
                    },
                    {
                        "number": 7,
                        "time": 88.814697265625,
                        "value": 0.7086614173228346
                    },
                    {
                        "number": 7,
                        "time": 88.8232421875,
                        "value": 0.6929133858267716
                    },
                    {
                        "number": 7,
                        "time": 88.831787109375,
                        "value": 0.6692913385826772
                    },
                    {
                        "number": 7,
                        "time": 88.84033203125,
                        "value": 0.6535433070866141
                    },
                    {
                        "number": 7,
                        "time": 88.848876953125,
                        "value": 0.6299212598425197
                    },
                    {
                        "number": 7,
                        "time": 88.857421875,
                        "value": 0.6141732283464567
                    },
                    {
                        "number": 7,
                        "time": 88.865966796875,
                        "value": 0.5905511811023622
                    },
                    {
                        "number": 7,
                        "time": 88.87451171875,
                        "value": 0.5748031496062992
                    },
                    {
                        "number": 7,
                        "time": 88.883056640625,
                        "value": 0.5511811023622047
                    },
                    {
                        "number": 7,
                        "time": 88.8916015625,
                        "value": 0.5354330708661418
                    },
                    {
                        "number": 7,
                        "time": 88.900146484375,
                        "value": 0.5118110236220472
                    },
                    {
                        "number": 7,
                        "time": 88.90869140625,
                        "value": 0.49606299212598426
                    },
                    {
                        "number": 7,
                        "time": 88.917236328125,
                        "value": 0.47244094488188976
                    },
                    {
                        "number": 7,
                        "time": 88.92578125,
                        "value": 0.4566929133858268
                    },
                    {
                        "number": 7,
                        "time": 88.934326171875,
                        "value": 0.4330708661417323
                    },
                    {
                        "number": 7,
                        "time": 88.94287109375,
                        "value": 0.41732283464566927
                    },
                    {
                        "number": 7,
                        "time": 88.951416015625,
                        "value": 0.3937007874015748
                    },
                    {
                        "number": 7,
                        "time": 88.9599609375,
                        "value": 0.3779527559055118
                    },
                    {
                        "number": 7,
                        "time": 88.968505859375,
                        "value": 0.3543307086614173
                    },
                    {
                        "number": 7,
                        "time": 88.97705078125,
                        "value": 0.33858267716535434
                    },
                    {
                        "number": 7,
                        "time": 88.984375,
                        "value": 0.31496062992125984
                    },
                    {
                        "number": 7,
                        "time": 89.71923828125,
                        "value": 0.30708661417322836
                    },
                    {
                        "number": 7,
                        "time": 90.4541015625,
                        "value": 0.2992125984251969
                    },
                    {
                        "number": 7,
                        "time": 91.18896484375,
                        "value": 0.29133858267716534
                    },
                    {
                        "number": 7,
                        "time": 91.9140625,
                        "value": 0.2992125984251969
                    },
                    {
                        "number": 7,
                        "time": 93.125,
                        "value": 0.29133858267716534
                    },
                    {
                        "number": 7,
                        "time": 93.3984375,
                        "value": 0.28346456692913385
                    },
                    {
                        "number": 7,
                        "time": 93.663330078125,
                        "value": 0.2755905511811024
                    },
                    {
                        "number": 7,
                        "time": 93.92822265625,
                        "value": 0.2677165354330709
                    },
                    {
                        "number": 7,
                        "time": 94.193115234375,
                        "value": 0.25984251968503935
                    },
                    {
                        "number": 7,
                        "time": 94.4580078125,
                        "value": 0.25196850393700787
                    },
                    {
                        "number": 7,
                        "time": 94.722900390625,
                        "value": 0.2440944881889764
                    },
                    {
                        "number": 7,
                        "time": 94.98779296875,
                        "value": 0.23622047244094488
                    },
                    {
                        "number": 7,
                        "time": 95.252685546875,
                        "value": 0.2283464566929134
                    },
                    {
                        "number": 7,
                        "time": 95.4296875,
                        "value": 0.2125984251968504
                    },
                    {
                        "number": 7,
                        "time": 95.48095703125,
                        "value": 0.2047244094488189
                    },
                    {
                        "number": 7,
                        "time": 95.5322265625,
                        "value": 0.1968503937007874
                    },
                    {
                        "number": 7,
                        "time": 95.58349609375,
                        "value": 0.1889763779527559
                    },
                    {
                        "number": 7,
                        "time": 95.634765625,
                        "value": 0.18110236220472442
                    },
                    {
                        "number": 7,
                        "time": 95.68603515625,
                        "value": 0.1732283464566929
                    },
                    {
                        "number": 7,
                        "time": 95.7373046875,
                        "value": 0.16535433070866143
                    },
                    {
                        "number": 7,
                        "time": 95.78857421875,
                        "value": 0.15748031496062992
                    },
                    {
                        "number": 7,
                        "time": 95.83984375,
                        "value": 0.14960629921259844
                    },
                    {
                        "number": 7,
                        "time": 95.89111328125,
                        "value": 0.14173228346456693
                    },
                    {
                        "number": 7,
                        "time": 95.9423828125,
                        "value": 0.13385826771653545
                    },
                    {
                        "number": 7,
                        "time": 95.99365234375,
                        "value": 0.12598425196850394
                    },
                    {
                        "number": 7,
                        "time": 96.036376953125,
                        "value": 0.11811023622047244
                    },
                    {
                        "number": 7,
                        "time": 96.087646484375,
                        "value": 0.11023622047244094
                    },
                    {
                        "number": 7,
                        "time": 96.138916015625,
                        "value": 0.10236220472440945
                    },
                    {
                        "number": 7,
                        "time": 96.190185546875,
                        "value": 0.09448818897637795
                    },
                    {
                        "number": 7,
                        "time": 96.241455078125,
                        "value": 0.08661417322834646
                    }
                ],
                "10": [
                    {
                        "number": 10,
                        "time": 0,
                        "value": 0.3937007874015748
                    }
                ],
                "91": [
                    {
                        "number": 91,
                        "time": 0,
                        "value": 0.8661417322834646
                    }
                ],
                "93": [
                    {
                        "number": 93,
                        "time": 0,
                        "value": 1
                    }
                ],
                "121": [
                    {
                        "number": 121,
                        "time": 0,
                        "value": 1
                    },
                    {
                        "number": 121,
                        "time": 96.875,
                        "value": 1
                    }
                ]
            },
            "id": 2,
            "name": "Contraltos",
            "instrumentNumber": 53,
            "instrument": "voice oohs",
            "instrumentFamily": "ensemble",
            "channelNumber": 2,
            "isPercussion": false
        },
        {
            "startTime": 8.75,
            "duration": 89.0625,
            "length": 62,
            "notes": [
                {
                    "name": "C3",
                    "midi": 48,
                    "time": 8.75,
                    "velocity": 0.5984251968503937,
                    "duration": 7.8125
                },
                {
                    "name": "G#3",
                    "midi": 56,
                    "time": 16.875,
                    "velocity": 0.5984251968503937,
                    "duration": 1.25
                },
                {
                    "name": "C4",
                    "midi": 60,
                    "time": 18.125,
                    "velocity": 0.5984251968503937,
                    "duration": 0.625
                },
                {
                    "name": "C#4",
                    "midi": 61,
                    "time": 18.75,
                    "velocity": 0.5984251968503937,
                    "duration": 0.625
                },
                {
                    "name": "D#4",
                    "midi": 63,
                    "time": 19.375,
                    "velocity": 0.5984251968503937,
                    "duration": 0.4376220703125
                },
                {
                    "name": "C4",
                    "midi": 60,
                    "time": 20,
                    "velocity": 0.5984251968503937,
                    "duration": 0.625
                },
                {
                    "name": "F3",
                    "midi": 53,
                    "time": 20.625,
                    "velocity": 0.5984251968503937,
                    "duration": 1.25
                },
                {
                    "name": "C4",
                    "midi": 60,
                    "time": 21.875,
                    "velocity": 0.5984251968503937,
                    "duration": 0.625
                },
                {
                    "name": "F3",
                    "midi": 53,
                    "time": 22.5,
                    "velocity": 0.5984251968503937,
                    "duration": 1.1248779296875
                },
                {
                    "name": "G#3",
                    "midi": 56,
                    "time": 23.75,
                    "velocity": 0.5984251968503937,
                    "duration": 0.625
                },
                {
                    "name": "G3",
                    "midi": 55,
                    "time": 24.375,
                    "velocity": 0.5984251968503937,
                    "duration": 1.25
                },
                {
                    "name": "F3",
                    "midi": 53,
                    "time": 25.625,
                    "velocity": 0.5984251968503937,
                    "duration": 0.625
                },
                {
                    "name": "G3",
                    "midi": 55,
                    "time": 26.25,
                    "velocity": 0.5984251968503937,
                    "duration": 1.1248779296875
                },
                {
                    "name": "F3",
                    "midi": 53,
                    "time": 27.5,
                    "velocity": 0.5984251968503937,
                    "duration": 1.5625
                },
                {
                    "name": "A#3",
                    "midi": 58,
                    "time": 29.0625,
                    "velocity": 0.5984251968503937,
                    "duration": 0.3125
                },
                {
                    "name": "D4",
                    "midi": 62,
                    "time": 29.375,
                    "velocity": 0.5984251968503937,
                    "duration": 0.625
                },
                {
                    "name": "A#3",
                    "midi": 58,
                    "time": 30,
                    "velocity": 0.5984251968503937,
                    "duration": 0.3125
                },
                {
                    "name": "D4",
                    "midi": 62,
                    "time": 30.3125,
                    "velocity": 0.5984251968503937,
                    "duration": 0.3125
                },
                {
                    "name": "C4",
                    "midi": 60,
                    "time": 30.625,
                    "velocity": 0.6220472440944882,
                    "duration": 0.625
                },
                {
                    "name": "E4",
                    "midi": 64,
                    "time": 31.25,
                    "velocity": 0.6377952755905512,
                    "duration": 0.625
                },
                {
                    "name": "G4",
                    "midi": 67,
                    "time": 31.875,
                    "velocity": 0.6614173228346457,
                    "duration": 1.875
                },
                {
                    "name": "F4",
                    "midi": 65,
                    "time": 33.75,
                    "velocity": 0.5984251968503937,
                    "duration": 1.25
                },
                {
                    "name": "D#4",
                    "midi": 63,
                    "time": 35,
                    "velocity": 0.5984251968503937,
                    "duration": 1.25
                },
                {
                    "name": "C#4",
                    "midi": 61,
                    "time": 36.25,
                    "velocity": 0.5984251968503937,
                    "duration": 1.875
                },
                {
                    "name": "D#4",
                    "midi": 63,
                    "time": 38.125,
                    "velocity": 0.5984251968503937,
                    "duration": 0.625
                },
                {
                    "name": "C4",
                    "midi": 60,
                    "time": 38.75,
                    "velocity": 0.5984251968503937,
                    "duration": 0.625
                },
                {
                    "name": "A#3",
                    "midi": 58,
                    "time": 39.375,
                    "velocity": 0.5984251968503937,
                    "duration": 0.625
                },
                {
                    "name": "G3",
                    "midi": 55,
                    "time": 40,
                    "velocity": 0.5984251968503937,
                    "duration": 0.4998779296875
                },
                {
                    "name": "G3",
                    "midi": 55,
                    "time": 40.625,
                    "velocity": 0.5984251968503937,
                    "duration": 1.25
                },
                {
                    "name": "F3",
                    "midi": 53,
                    "time": 41.875,
                    "velocity": 0.5984251968503937,
                    "duration": 1.25
                },
                {
                    "name": "D#3",
                    "midi": 51,
                    "time": 43.125,
                    "velocity": 0.5984251968503937,
                    "duration": 1.875
                },
                {
                    "name": "D3",
                    "midi": 50,
                    "time": 45,
                    "velocity": 0.5984251968503937,
                    "duration": 1.25
                },
                {
                    "name": "D#3",
                    "midi": 51,
                    "time": 46.25,
                    "velocity": 0.5984251968503937,
                    "duration": 1.25
                },
                {
                    "name": "F3",
                    "midi": 53,
                    "time": 47.5,
                    "velocity": 0.5984251968503937,
                    "duration": 0.4998779296875
                },
                {
                    "name": "G#3",
                    "midi": 56,
                    "time": 48.125,
                    "velocity": 0.5984251968503937,
                    "duration": 1.875
                },
                {
                    "name": "G3",
                    "midi": 55,
                    "time": 50,
                    "velocity": 0.5984251968503937,
                    "duration": 0.625
                },
                {
                    "name": "G#3",
                    "midi": 56,
                    "time": 50.625,
                    "velocity": 0.5984251968503937,
                    "duration": 0.9375
                },
                {
                    "name": "G#3",
                    "midi": 56,
                    "time": 55.625,
                    "velocity": 0.5984251968503937,
                    "duration": 0.625
                },
                {
                    "name": "D#3",
                    "midi": 51,
                    "time": 56.25,
                    "velocity": 0.5984251968503937,
                    "duration": 1.875
                },
                {
                    "name": "G3",
                    "midi": 55,
                    "time": 58.125,
                    "velocity": 0.5984251968503937,
                    "duration": 1.25
                },
                {
                    "name": "F3",
                    "midi": 53,
                    "time": 59.375,
                    "velocity": 0.5984251968503937,
                    "duration": 3.125
                },
                {
                    "name": "E3",
                    "midi": 52,
                    "time": 62.5,
                    "velocity": 0.5984251968503937,
                    "duration": 0.625
                },
                {
                    "name": "C4",
                    "midi": 60,
                    "time": 63.125,
                    "velocity": 0.5984251968503937,
                    "duration": 0.9375
                },
                {
                    "name": "G4",
                    "midi": 67,
                    "time": 64.0625,
                    "velocity": 0.5984251968503937,
                    "duration": 1.5625
                },
                {
                    "name": "F4",
                    "midi": 65,
                    "time": 65.625,
                    "velocity": 0.5984251968503937,
                    "duration": 1.25
                },
                {
                    "name": "D#4",
                    "midi": 63,
                    "time": 66.875,
                    "velocity": 0.5984251968503937,
                    "duration": 1.25
                },
                {
                    "name": "C#4",
                    "midi": 61,
                    "time": 68.125,
                    "velocity": 0.5984251968503937,
                    "duration": 1.875
                },
                {
                    "name": "D#4",
                    "midi": 63,
                    "time": 70,
                    "velocity": 0.5984251968503937,
                    "duration": 0.625
                },
                {
                    "name": "C4",
                    "midi": 60,
                    "time": 70.625,
                    "velocity": 0.5984251968503937,
                    "duration": 0.625
                },
                {
                    "name": "A#3",
                    "midi": 58,
                    "time": 71.25,
                    "velocity": 0.5984251968503937,
                    "duration": 0.625
                },
                {
                    "name": "C4",
                    "midi": 60,
                    "time": 71.875,
                    "velocity": 0.5984251968503937,
                    "duration": 0.4998779296875
                },
                {
                    "name": "F3",
                    "midi": 53,
                    "time": 72.5,
                    "velocity": 0.5984251968503937,
                    "duration": 8.125
                },
                {
                    "name": "G#3",
                    "midi": 56,
                    "time": 80.625,
                    "velocity": 0.5984251968503937,
                    "duration": 1.25
                },
                {
                    "name": "F#3",
                    "midi": 54,
                    "time": 81.875,
                    "velocity": 0.5984251968503937,
                    "duration": 1.25
                },
                {
                    "name": "F3",
                    "midi": 53,
                    "time": 83.125,
                    "velocity": 0.5984251968503937,
                    "duration": 1.25
                },
                {
                    "name": "E3",
                    "midi": 52,
                    "time": 84.375,
                    "velocity": 0.5984251968503937,
                    "duration": 1.875
                },
                {
                    "name": "D#3",
                    "midi": 51,
                    "time": 86.25,
                    "velocity": 0.5984251968503937,
                    "duration": 0.625
                },
                {
                    "name": "D3",
                    "midi": 50,
                    "time": 86.875,
                    "velocity": 0.5984251968503937,
                    "duration": 0.625
                },
                {
                    "name": "C#3",
                    "midi": 49,
                    "time": 87.5,
                    "velocity": 0.5984251968503937,
                    "duration": 0.625
                },
                {
                    "name": "C3",
                    "midi": 48,
                    "time": 88.125,
                    "velocity": 0.5984251968503937,
                    "duration": 0.3125
                },
                {
                    "name": "D#3",
                    "midi": 51,
                    "time": 88.4375,
                    "velocity": 0.5984251968503937,
                    "duration": 0.3125
                },
                {
                    "name": "G3",
                    "midi": 55,
                    "time": 88.75,
                    "velocity": 0.5984251968503937,
                    "duration": 0.3125
                }
            ],
            "controlChanges": {
                "1": [
                    {
                        "number": 1,
                        "time": 0,
                        "value": 0.03937007874015748
                    }
                ],
                "7": [
                    {
                        "number": 7,
                        "time": 0.56640625,
                        "value": 0.36220472440944884
                    },
                    {
                        "number": 7,
                        "time": 14.4140625,
                        "value": 0.3543307086614173
                    },
                    {
                        "number": 7,
                        "time": 15.020751953125,
                        "value": 0.3464566929133858
                    },
                    {
                        "number": 7,
                        "time": 15.68359375,
                        "value": 0.33858267716535434
                    },
                    {
                        "number": 7,
                        "time": 15.743408203125,
                        "value": 0.33070866141732286
                    },
                    {
                        "number": 7,
                        "time": 15.80322265625,
                        "value": 0.3228346456692913
                    },
                    {
                        "number": 7,
                        "time": 15.863037109375,
                        "value": 0.31496062992125984
                    },
                    {
                        "number": 7,
                        "time": 15.914306640625,
                        "value": 0.30708661417322836
                    },
                    {
                        "number": 7,
                        "time": 15.97412109375,
                        "value": 0.2992125984251969
                    },
                    {
                        "number": 7,
                        "time": 16.033935546875,
                        "value": 0.29133858267716534
                    },
                    {
                        "number": 7,
                        "time": 16.085205078125,
                        "value": 0.28346456692913385
                    },
                    {
                        "number": 7,
                        "time": 16.14501953125,
                        "value": 0.2755905511811024
                    },
                    {
                        "number": 7,
                        "time": 16.204833984375,
                        "value": 0.2677165354330709
                    },
                    {
                        "number": 7,
                        "time": 16.2646484375,
                        "value": 0.25984251968503935
                    },
                    {
                        "number": 7,
                        "time": 16.31591796875,
                        "value": 0.25196850393700787
                    },
                    {
                        "number": 7,
                        "time": 16.375732421875,
                        "value": 0.2440944881889764
                    },
                    {
                        "number": 7,
                        "time": 16.435546875,
                        "value": 0.23622047244094488
                    },
                    {
                        "number": 7,
                        "time": 16.48681640625,
                        "value": 0.2283464566929134
                    },
                    {
                        "number": 7,
                        "time": 16.546630859375,
                        "value": 0.2204724409448819
                    },
                    {
                        "number": 7,
                        "time": 16.85546875,
                        "value": 0.47244094488188976
                    },
                    {
                        "number": 7,
                        "time": 16.953125,
                        "value": 0.47244094488188976
                    },
                    {
                        "number": 7,
                        "time": 17.030029296875,
                        "value": 0.48031496062992124
                    },
                    {
                        "number": 7,
                        "time": 17.10693359375,
                        "value": 0.4881889763779528
                    },
                    {
                        "number": 7,
                        "time": 17.183837890625,
                        "value": 0.49606299212598426
                    },
                    {
                        "number": 7,
                        "time": 17.2607421875,
                        "value": 0.5039370078740157
                    },
                    {
                        "number": 7,
                        "time": 17.337646484375,
                        "value": 0.5118110236220472
                    },
                    {
                        "number": 7,
                        "time": 17.41455078125,
                        "value": 0.5196850393700787
                    },
                    {
                        "number": 7,
                        "time": 17.491455078125,
                        "value": 0.5275590551181102
                    },
                    {
                        "number": 7,
                        "time": 17.568359375,
                        "value": 0.5354330708661418
                    },
                    {
                        "number": 7,
                        "time": 17.645263671875,
                        "value": 0.5433070866141733
                    },
                    {
                        "number": 7,
                        "time": 17.72216796875,
                        "value": 0.5511811023622047
                    },
                    {
                        "number": 7,
                        "time": 17.799072265625,
                        "value": 0.5590551181102362
                    },
                    {
                        "number": 7,
                        "time": 17.8759765625,
                        "value": 0.5669291338582677
                    },
                    {
                        "number": 7,
                        "time": 17.952880859375,
                        "value": 0.5748031496062992
                    },
                    {
                        "number": 7,
                        "time": 18.02978515625,
                        "value": 0.5826771653543307
                    },
                    {
                        "number": 7,
                        "time": 18.106689453125,
                        "value": 0.5905511811023622
                    },
                    {
                        "number": 7,
                        "time": 18.18359375,
                        "value": 0.5984251968503937
                    },
                    {
                        "number": 7,
                        "time": 18.260498046875,
                        "value": 0.6062992125984252
                    },
                    {
                        "number": 7,
                        "time": 18.33740234375,
                        "value": 0.6141732283464567
                    },
                    {
                        "number": 7,
                        "time": 18.414306640625,
                        "value": 0.6220472440944882
                    },
                    {
                        "number": 7,
                        "time": 18.4912109375,
                        "value": 0.6299212598425197
                    },
                    {
                        "number": 7,
                        "time": 18.5595703125,
                        "value": 0.6377952755905512
                    },
                    {
                        "number": 7,
                        "time": 18.636474609375,
                        "value": 0.6456692913385826
                    },
                    {
                        "number": 7,
                        "time": 18.71337890625,
                        "value": 0.6535433070866141
                    },
                    {
                        "number": 7,
                        "time": 18.7890625,
                        "value": 0.6535433070866141
                    },
                    {
                        "number": 7,
                        "time": 18.831787109375,
                        "value": 0.6456692913385826
                    },
                    {
                        "number": 7,
                        "time": 18.865966796875,
                        "value": 0.6377952755905512
                    },
                    {
                        "number": 7,
                        "time": 18.900146484375,
                        "value": 0.6299212598425197
                    },
                    {
                        "number": 7,
                        "time": 18.94287109375,
                        "value": 0.6220472440944882
                    },
                    {
                        "number": 7,
                        "time": 18.97705078125,
                        "value": 0.6141732283464567
                    },
                    {
                        "number": 7,
                        "time": 19.01123046875,
                        "value": 0.6062992125984252
                    },
                    {
                        "number": 7,
                        "time": 19.053955078125,
                        "value": 0.5984251968503937
                    },
                    {
                        "number": 7,
                        "time": 19.088134765625,
                        "value": 0.5905511811023622
                    },
                    {
                        "number": 7,
                        "time": 19.122314453125,
                        "value": 0.5826771653543307
                    },
                    {
                        "number": 7,
                        "time": 19.1650390625,
                        "value": 0.5748031496062992
                    },
                    {
                        "number": 7,
                        "time": 19.19921875,
                        "value": 0.5669291338582677
                    },
                    {
                        "number": 7,
                        "time": 19.2333984375,
                        "value": 0.5590551181102362
                    },
                    {
                        "number": 7,
                        "time": 19.267578125,
                        "value": 0.5511811023622047
                    },
                    {
                        "number": 7,
                        "time": 19.310302734375,
                        "value": 0.5433070866141733
                    },
                    {
                        "number": 7,
                        "time": 19.344482421875,
                        "value": 0.5354330708661418
                    },
                    {
                        "number": 7,
                        "time": 19.378662109375,
                        "value": 0.5275590551181102
                    },
                    {
                        "number": 7,
                        "time": 19.43359375,
                        "value": 0.5196850393700787
                    },
                    {
                        "number": 7,
                        "time": 19.459228515625,
                        "value": 0.5118110236220472
                    },
                    {
                        "number": 7,
                        "time": 19.48486328125,
                        "value": 0.5039370078740157
                    },
                    {
                        "number": 7,
                        "time": 19.501953125,
                        "value": 0.49606299212598426
                    },
                    {
                        "number": 7,
                        "time": 19.527587890625,
                        "value": 0.4881889763779528
                    },
                    {
                        "number": 7,
                        "time": 19.55322265625,
                        "value": 0.48031496062992124
                    },
                    {
                        "number": 7,
                        "time": 19.5703125,
                        "value": 0.47244094488188976
                    },
                    {
                        "number": 7,
                        "time": 19.595947265625,
                        "value": 0.4645669291338583
                    },
                    {
                        "number": 7,
                        "time": 19.62158203125,
                        "value": 0.4566929133858268
                    },
                    {
                        "number": 7,
                        "time": 19.638671875,
                        "value": 0.44881889763779526
                    },
                    {
                        "number": 7,
                        "time": 19.664306640625,
                        "value": 0.4409448818897638
                    },
                    {
                        "number": 7,
                        "time": 19.681396484375,
                        "value": 0.4330708661417323
                    },
                    {
                        "number": 7,
                        "time": 19.70703125,
                        "value": 0.4251968503937008
                    },
                    {
                        "number": 7,
                        "time": 19.732666015625,
                        "value": 0.41732283464566927
                    },
                    {
                        "number": 7,
                        "time": 19.749755859375,
                        "value": 0.4094488188976378
                    },
                    {
                        "number": 7,
                        "time": 19.775390625,
                        "value": 0.4015748031496063
                    },
                    {
                        "number": 7,
                        "time": 19.801025390625,
                        "value": 0.3937007874015748
                    },
                    {
                        "number": 7,
                        "time": 19.818115234375,
                        "value": 0.3858267716535433
                    },
                    {
                        "number": 7,
                        "time": 19.84375,
                        "value": 0.3779527559055118
                    },
                    {
                        "number": 7,
                        "time": 19.86083984375,
                        "value": 0.3700787401574803
                    },
                    {
                        "number": 7,
                        "time": 20.9375,
                        "value": 0.3779527559055118
                    },
                    {
                        "number": 7,
                        "time": 21.065673828125,
                        "value": 0.3858267716535433
                    },
                    {
                        "number": 7,
                        "time": 21.185302734375,
                        "value": 0.3937007874015748
                    },
                    {
                        "number": 7,
                        "time": 21.304931640625,
                        "value": 0.4015748031496063
                    },
                    {
                        "number": 7,
                        "time": 21.424560546875,
                        "value": 0.4094488188976378
                    },
                    {
                        "number": 7,
                        "time": 21.544189453125,
                        "value": 0.41732283464566927
                    },
                    {
                        "number": 7,
                        "time": 21.663818359375,
                        "value": 0.4251968503937008
                    },
                    {
                        "number": 7,
                        "time": 21.783447265625,
                        "value": 0.4330708661417323
                    },
                    {
                        "number": 7,
                        "time": 21.903076171875,
                        "value": 0.4409448818897638
                    },
                    {
                        "number": 7,
                        "time": 22.022705078125,
                        "value": 0.44881889763779526
                    },
                    {
                        "number": 7,
                        "time": 22.142333984375,
                        "value": 0.4566929133858268
                    },
                    {
                        "number": 7,
                        "time": 22.261962890625,
                        "value": 0.4645669291338583
                    },
                    {
                        "number": 7,
                        "time": 22.381591796875,
                        "value": 0.47244094488188976
                    },
                    {
                        "number": 7,
                        "time": 22.5390625,
                        "value": 0.48031496062992124
                    },
                    {
                        "number": 7,
                        "time": 22.633056640625,
                        "value": 0.47244094488188976
                    },
                    {
                        "number": 7,
                        "time": 22.718505859375,
                        "value": 0.4645669291338583
                    },
                    {
                        "number": 7,
                        "time": 22.803955078125,
                        "value": 0.4566929133858268
                    },
                    {
                        "number": 7,
                        "time": 22.889404296875,
                        "value": 0.44881889763779526
                    },
                    {
                        "number": 7,
                        "time": 22.974853515625,
                        "value": 0.4409448818897638
                    },
                    {
                        "number": 7,
                        "time": 23.060302734375,
                        "value": 0.4330708661417323
                    },
                    {
                        "number": 7,
                        "time": 23.14453125,
                        "value": 0.4251968503937008
                    },
                    {
                        "number": 7,
                        "time": 23.204345703125,
                        "value": 0.41732283464566927
                    },
                    {
                        "number": 7,
                        "time": 23.26416015625,
                        "value": 0.4094488188976378
                    },
                    {
                        "number": 7,
                        "time": 23.3154296875,
                        "value": 0.4015748031496063
                    },
                    {
                        "number": 7,
                        "time": 23.375244140625,
                        "value": 0.3937007874015748
                    },
                    {
                        "number": 7,
                        "time": 23.43505859375,
                        "value": 0.3858267716535433
                    },
                    {
                        "number": 7,
                        "time": 23.486328125,
                        "value": 0.3779527559055118
                    },
                    {
                        "number": 7,
                        "time": 23.546142578125,
                        "value": 0.3700787401574803
                    },
                    {
                        "number": 7,
                        "time": 23.597412109375,
                        "value": 0.36220472440944884
                    },
                    {
                        "number": 7,
                        "time": 23.7109375,
                        "value": 0.4566929133858268
                    },
                    {
                        "number": 7,
                        "time": 23.7890625,
                        "value": 0.4566929133858268
                    },
                    {
                        "number": 7,
                        "time": 23.94287109375,
                        "value": 0.4645669291338583
                    },
                    {
                        "number": 7,
                        "time": 24.0966796875,
                        "value": 0.47244094488188976
                    },
                    {
                        "number": 7,
                        "time": 24.25048828125,
                        "value": 0.48031496062992124
                    },
                    {
                        "number": 7,
                        "time": 24.404296875,
                        "value": 0.4881889763779528
                    },
                    {
                        "number": 7,
                        "time": 24.55810546875,
                        "value": 0.49606299212598426
                    },
                    {
                        "number": 7,
                        "time": 24.7119140625,
                        "value": 0.5039370078740157
                    },
                    {
                        "number": 7,
                        "time": 24.86572265625,
                        "value": 0.5118110236220472
                    },
                    {
                        "number": 7,
                        "time": 25.01953125,
                        "value": 0.5196850393700787
                    },
                    {
                        "number": 7,
                        "time": 25.17333984375,
                        "value": 0.5275590551181102
                    },
                    {
                        "number": 7,
                        "time": 25.3271484375,
                        "value": 0.5354330708661418
                    },
                    {
                        "number": 7,
                        "time": 25.472412109375,
                        "value": 0.5433070866141733
                    },
                    {
                        "number": 7,
                        "time": 26.328125,
                        "value": 0.5354330708661418
                    },
                    {
                        "number": 7,
                        "time": 26.405029296875,
                        "value": 0.5275590551181102
                    },
                    {
                        "number": 7,
                        "time": 26.48193359375,
                        "value": 0.5196850393700787
                    },
                    {
                        "number": 7,
                        "time": 26.55029296875,
                        "value": 0.5118110236220472
                    },
                    {
                        "number": 7,
                        "time": 26.627197265625,
                        "value": 0.5039370078740157
                    },
                    {
                        "number": 7,
                        "time": 26.695556640625,
                        "value": 0.49606299212598426
                    },
                    {
                        "number": 7,
                        "time": 26.7724609375,
                        "value": 0.4881889763779528
                    },
                    {
                        "number": 7,
                        "time": 26.8408203125,
                        "value": 0.48031496062992124
                    },
                    {
                        "number": 7,
                        "time": 26.9140625,
                        "value": 0.47244094488188976
                    },
                    {
                        "number": 7,
                        "time": 26.939697265625,
                        "value": 0.4645669291338583
                    },
                    {
                        "number": 7,
                        "time": 26.96533203125,
                        "value": 0.4566929133858268
                    },
                    {
                        "number": 7,
                        "time": 26.990966796875,
                        "value": 0.44881889763779526
                    },
                    {
                        "number": 7,
                        "time": 27.008056640625,
                        "value": 0.4409448818897638
                    },
                    {
                        "number": 7,
                        "time": 27.03369140625,
                        "value": 0.4330708661417323
                    },
                    {
                        "number": 7,
                        "time": 27.059326171875,
                        "value": 0.4251968503937008
                    },
                    {
                        "number": 7,
                        "time": 27.0849609375,
                        "value": 0.41732283464566927
                    },
                    {
                        "number": 7,
                        "time": 27.10205078125,
                        "value": 0.4094488188976378
                    },
                    {
                        "number": 7,
                        "time": 27.127685546875,
                        "value": 0.4015748031496063
                    },
                    {
                        "number": 7,
                        "time": 27.1533203125,
                        "value": 0.3937007874015748
                    },
                    {
                        "number": 7,
                        "time": 27.178955078125,
                        "value": 0.3858267716535433
                    },
                    {
                        "number": 7,
                        "time": 27.196044921875,
                        "value": 0.3779527559055118
                    },
                    {
                        "number": 7,
                        "time": 27.2216796875,
                        "value": 0.3700787401574803
                    },
                    {
                        "number": 7,
                        "time": 27.247314453125,
                        "value": 0.36220472440944884
                    },
                    {
                        "number": 7,
                        "time": 27.65625,
                        "value": 0.3700787401574803
                    },
                    {
                        "number": 7,
                        "time": 27.698974609375,
                        "value": 0.3779527559055118
                    },
                    {
                        "number": 7,
                        "time": 27.74169921875,
                        "value": 0.3858267716535433
                    },
                    {
                        "number": 7,
                        "time": 27.77587890625,
                        "value": 0.3937007874015748
                    },
                    {
                        "number": 7,
                        "time": 27.818603515625,
                        "value": 0.4015748031496063
                    },
                    {
                        "number": 7,
                        "time": 27.852783203125,
                        "value": 0.4094488188976378
                    },
                    {
                        "number": 7,
                        "time": 27.8955078125,
                        "value": 0.41732283464566927
                    },
                    {
                        "number": 7,
                        "time": 27.9296875,
                        "value": 0.4251968503937008
                    },
                    {
                        "number": 7,
                        "time": 27.972412109375,
                        "value": 0.4330708661417323
                    },
                    {
                        "number": 7,
                        "time": 28.006591796875,
                        "value": 0.4409448818897638
                    },
                    {
                        "number": 7,
                        "time": 28.04931640625,
                        "value": 0.44881889763779526
                    },
                    {
                        "number": 7,
                        "time": 28.08349609375,
                        "value": 0.4566929133858268
                    },
                    {
                        "number": 7,
                        "time": 28.126220703125,
                        "value": 0.4645669291338583
                    },
                    {
                        "number": 7,
                        "time": 28.160400390625,
                        "value": 0.47244094488188976
                    },
                    {
                        "number": 7,
                        "time": 28.203125,
                        "value": 0.48031496062992124
                    },
                    {
                        "number": 7,
                        "time": 28.2373046875,
                        "value": 0.4881889763779528
                    },
                    {
                        "number": 7,
                        "time": 28.280029296875,
                        "value": 0.49606299212598426
                    },
                    {
                        "number": 7,
                        "time": 28.314208984375,
                        "value": 0.5039370078740157
                    },
                    {
                        "number": 7,
                        "time": 28.35693359375,
                        "value": 0.5118110236220472
                    },
                    {
                        "number": 7,
                        "time": 28.39111328125,
                        "value": 0.5196850393700787
                    },
                    {
                        "number": 7,
                        "time": 28.433837890625,
                        "value": 0.5275590551181102
                    },
                    {
                        "number": 7,
                        "time": 28.468017578125,
                        "value": 0.5354330708661418
                    },
                    {
                        "number": 7,
                        "time": 28.5107421875,
                        "value": 0.5433070866141733
                    },
                    {
                        "number": 7,
                        "time": 28.544921875,
                        "value": 0.5511811023622047
                    },
                    {
                        "number": 7,
                        "time": 28.587646484375,
                        "value": 0.5590551181102362
                    },
                    {
                        "number": 7,
                        "time": 28.63037109375,
                        "value": 0.5669291338582677
                    },
                    {
                        "number": 7,
                        "time": 28.66455078125,
                        "value": 0.5748031496062992
                    },
                    {
                        "number": 7,
                        "time": 28.707275390625,
                        "value": 0.5826771653543307
                    },
                    {
                        "number": 7,
                        "time": 28.741455078125,
                        "value": 0.5905511811023622
                    },
                    {
                        "number": 7,
                        "time": 28.7841796875,
                        "value": 0.5984251968503937
                    },
                    {
                        "number": 7,
                        "time": 28.818359375,
                        "value": 0.6062992125984252
                    },
                    {
                        "number": 7,
                        "time": 28.861083984375,
                        "value": 0.6141732283464567
                    },
                    {
                        "number": 7,
                        "time": 28.895263671875,
                        "value": 0.6220472440944882
                    },
                    {
                        "number": 7,
                        "time": 28.93798828125,
                        "value": 0.6299212598425197
                    },
                    {
                        "number": 7,
                        "time": 28.97216796875,
                        "value": 0.6377952755905512
                    },
                    {
                        "number": 7,
                        "time": 29.014892578125,
                        "value": 0.6456692913385826
                    },
                    {
                        "number": 7,
                        "time": 29.049072265625,
                        "value": 0.6535433070866141
                    },
                    {
                        "number": 7,
                        "time": 29.091796875,
                        "value": 0.6614173228346457
                    },
                    {
                        "number": 7,
                        "time": 29.1259765625,
                        "value": 0.6692913385826772
                    },
                    {
                        "number": 7,
                        "time": 29.168701171875,
                        "value": 0.6771653543307087
                    },
                    {
                        "number": 7,
                        "time": 29.202880859375,
                        "value": 0.6850393700787402
                    },
                    {
                        "number": 7,
                        "time": 29.24560546875,
                        "value": 0.6929133858267716
                    },
                    {
                        "number": 7,
                        "time": 29.27978515625,
                        "value": 0.7007874015748031
                    },
                    {
                        "number": 7,
                        "time": 29.322509765625,
                        "value": 0.7086614173228346
                    },
                    {
                        "number": 7,
                        "time": 29.356689453125,
                        "value": 0.7165354330708661
                    },
                    {
                        "number": 7,
                        "time": 30.703125,
                        "value": 0.7244094488188977
                    },
                    {
                        "number": 7,
                        "time": 30.762939453125,
                        "value": 0.7322834645669292
                    },
                    {
                        "number": 7,
                        "time": 30.814208984375,
                        "value": 0.7401574803149606
                    },
                    {
                        "number": 7,
                        "time": 30.865478515625,
                        "value": 0.7480314960629921
                    },
                    {
                        "number": 7,
                        "time": 30.916748046875,
                        "value": 0.7559055118110236
                    },
                    {
                        "number": 7,
                        "time": 30.968017578125,
                        "value": 0.7637795275590551
                    },
                    {
                        "number": 7,
                        "time": 31.019287109375,
                        "value": 0.7716535433070866
                    },
                    {
                        "number": 7,
                        "time": 31.070556640625,
                        "value": 0.7795275590551181
                    },
                    {
                        "number": 7,
                        "time": 31.13037109375,
                        "value": 0.7874015748031497
                    },
                    {
                        "number": 7,
                        "time": 31.181640625,
                        "value": 0.7952755905511811
                    },
                    {
                        "number": 7,
                        "time": 31.23291015625,
                        "value": 0.8031496062992126
                    },
                    {
                        "number": 7,
                        "time": 31.2841796875,
                        "value": 0.8110236220472441
                    },
                    {
                        "number": 7,
                        "time": 31.33544921875,
                        "value": 0.8188976377952756
                    },
                    {
                        "number": 7,
                        "time": 31.3671875,
                        "value": 0.8267716535433071
                    },
                    {
                        "number": 7,
                        "time": 31.409912109375,
                        "value": 0.8346456692913385
                    },
                    {
                        "number": 7,
                        "time": 31.45263671875,
                        "value": 0.84251968503937
                    },
                    {
                        "number": 7,
                        "time": 31.495361328125,
                        "value": 0.8503937007874016
                    },
                    {
                        "number": 7,
                        "time": 31.5380859375,
                        "value": 0.8582677165354331
                    },
                    {
                        "number": 7,
                        "time": 31.572265625,
                        "value": 0.8661417322834646
                    },
                    {
                        "number": 7,
                        "time": 31.614990234375,
                        "value": 0.8740157480314961
                    },
                    {
                        "number": 7,
                        "time": 31.65771484375,
                        "value": 0.8818897637795275
                    },
                    {
                        "number": 7,
                        "time": 31.700439453125,
                        "value": 0.889763779527559
                    },
                    {
                        "number": 7,
                        "time": 31.7431640625,
                        "value": 0.8976377952755905
                    },
                    {
                        "number": 7,
                        "time": 31.77734375,
                        "value": 0.905511811023622
                    },
                    {
                        "number": 7,
                        "time": 31.820068359375,
                        "value": 0.9133858267716536
                    },
                    {
                        "number": 7,
                        "time": 31.86279296875,
                        "value": 0.9212598425196851
                    },
                    {
                        "number": 7,
                        "time": 31.905517578125,
                        "value": 0.9291338582677166
                    },
                    {
                        "number": 7,
                        "time": 31.939697265625,
                        "value": 0.937007874015748
                    },
                    {
                        "number": 7,
                        "time": 31.982421875,
                        "value": 0.9448818897637795
                    },
                    {
                        "number": 7,
                        "time": 32.025146484375,
                        "value": 0.952755905511811
                    },
                    {
                        "number": 7,
                        "time": 32.06787109375,
                        "value": 0.9606299212598425
                    },
                    {
                        "number": 7,
                        "time": 32.110595703125,
                        "value": 0.968503937007874
                    },
                    {
                        "number": 7,
                        "time": 32.144775390625,
                        "value": 0.9763779527559056
                    },
                    {
                        "number": 7,
                        "time": 32.1875,
                        "value": 0.984251968503937
                    },
                    {
                        "number": 7,
                        "time": 32.230224609375,
                        "value": 0.9921259842519685
                    },
                    {
                        "number": 7,
                        "time": 32.283935546875,
                        "value": 0.9606299212598425
                    },
                    {
                        "number": 7,
                        "time": 32.3046875,
                        "value": 1
                    },
                    {
                        "number": 7,
                        "time": 32.313232421875,
                        "value": 0.984251968503937
                    },
                    {
                        "number": 7,
                        "time": 32.32177734375,
                        "value": 0.9606299212598425
                    },
                    {
                        "number": 7,
                        "time": 32.330322265625,
                        "value": 0.937007874015748
                    },
                    {
                        "number": 7,
                        "time": 32.3388671875,
                        "value": 0.9133858267716536
                    },
                    {
                        "number": 7,
                        "time": 32.347412109375,
                        "value": 0.889763779527559
                    },
                    {
                        "number": 7,
                        "time": 32.35595703125,
                        "value": 0.8661417322834646
                    },
                    {
                        "number": 7,
                        "time": 32.364501953125,
                        "value": 0.84251968503937
                    },
                    {
                        "number": 7,
                        "time": 32.373046875,
                        "value": 0.8188976377952756
                    },
                    {
                        "number": 7,
                        "time": 32.381591796875,
                        "value": 0.7952755905511811
                    },
                    {
                        "number": 7,
                        "time": 32.39013671875,
                        "value": 0.7716535433070866
                    },
                    {
                        "number": 7,
                        "time": 32.398681640625,
                        "value": 0.7401574803149606
                    },
                    {
                        "number": 7,
                        "time": 32.4072265625,
                        "value": 0.7165354330708661
                    },
                    {
                        "number": 7,
                        "time": 32.415771484375,
                        "value": 0.6929133858267716
                    },
                    {
                        "number": 7,
                        "time": 32.42431640625,
                        "value": 0.6692913385826772
                    },
                    {
                        "number": 7,
                        "time": 32.432861328125,
                        "value": 0.6456692913385826
                    },
                    {
                        "number": 7,
                        "time": 32.44140625,
                        "value": 0.6220472440944882
                    },
                    {
                        "number": 7,
                        "time": 32.449951171875,
                        "value": 0.5984251968503937
                    },
                    {
                        "number": 7,
                        "time": 32.45849609375,
                        "value": 0.5748031496062992
                    },
                    {
                        "number": 7,
                        "time": 32.467041015625,
                        "value": 0.5511811023622047
                    },
                    {
                        "number": 7,
                        "time": 32.4755859375,
                        "value": 0.5275590551181102
                    },
                    {
                        "number": 7,
                        "time": 32.484130859375,
                        "value": 0.49606299212598426
                    },
                    {
                        "number": 7,
                        "time": 32.49267578125,
                        "value": 0.47244094488188976
                    },
                    {
                        "number": 7,
                        "time": 32.501220703125,
                        "value": 0.44881889763779526
                    },
                    {
                        "number": 7,
                        "time": 32.509765625,
                        "value": 0.4251968503937008
                    },
                    {
                        "number": 7,
                        "time": 32.518310546875,
                        "value": 0.4015748031496063
                    },
                    {
                        "number": 7,
                        "time": 32.52685546875,
                        "value": 0.3779527559055118
                    },
                    {
                        "number": 7,
                        "time": 32.535400390625,
                        "value": 0.3543307086614173
                    },
                    {
                        "number": 7,
                        "time": 45.5078125,
                        "value": 0.33070866141732286
                    },
                    {
                        "number": 7,
                        "time": 45.7470703125,
                        "value": 0.3228346456692913
                    },
                    {
                        "number": 7,
                        "time": 45.977783203125,
                        "value": 0.31496062992125984
                    },
                    {
                        "number": 7,
                        "time": 46.217041015625,
                        "value": 0.30708661417322836
                    },
                    {
                        "number": 7,
                        "time": 46.44775390625,
                        "value": 0.2992125984251969
                    },
                    {
                        "number": 7,
                        "time": 46.68701171875,
                        "value": 0.29133858267716534
                    },
                    {
                        "number": 7,
                        "time": 46.9140625,
                        "value": 0.28346456692913385
                    },
                    {
                        "number": 7,
                        "time": 46.99951171875,
                        "value": 0.2755905511811024
                    },
                    {
                        "number": 7,
                        "time": 47.076416015625,
                        "value": 0.2677165354330709
                    },
                    {
                        "number": 7,
                        "time": 47.1533203125,
                        "value": 0.25984251968503935
                    },
                    {
                        "number": 7,
                        "time": 47.230224609375,
                        "value": 0.25196850393700787
                    },
                    {
                        "number": 7,
                        "time": 47.30712890625,
                        "value": 0.2440944881889764
                    },
                    {
                        "number": 7,
                        "time": 47.384033203125,
                        "value": 0.23622047244094488
                    },
                    {
                        "number": 7,
                        "time": 47.4609375,
                        "value": 0.2283464566929134
                    },
                    {
                        "number": 7,
                        "time": 47.54638671875,
                        "value": 0.2204724409448819
                    },
                    {
                        "number": 7,
                        "time": 47.623291015625,
                        "value": 0.2125984251968504
                    },
                    {
                        "number": 7,
                        "time": 47.7001953125,
                        "value": 0.2047244094488189
                    },
                    {
                        "number": 7,
                        "time": 47.777099609375,
                        "value": 0.1968503937007874
                    },
                    {
                        "number": 7,
                        "time": 48.125,
                        "value": 0.3779527559055118
                    },
                    {
                        "number": 7,
                        "time": 48.8671875,
                        "value": 0.3858267716535433
                    },
                    {
                        "number": 7,
                        "time": 49.08935546875,
                        "value": 0.3937007874015748
                    },
                    {
                        "number": 7,
                        "time": 49.3115234375,
                        "value": 0.4015748031496063
                    },
                    {
                        "number": 7,
                        "time": 49.53369140625,
                        "value": 0.4094488188976378
                    },
                    {
                        "number": 7,
                        "time": 49.747314453125,
                        "value": 0.41732283464566927
                    },
                    {
                        "number": 7,
                        "time": 49.969482421875,
                        "value": 0.4251968503937008
                    },
                    {
                        "number": 7,
                        "time": 50.191650390625,
                        "value": 0.4330708661417323
                    },
                    {
                        "number": 7,
                        "time": 50.4052734375,
                        "value": 0.4409448818897638
                    },
                    {
                        "number": 7,
                        "time": 50.625,
                        "value": 0.44881889763779526
                    },
                    {
                        "number": 7,
                        "time": 50.6640625,
                        "value": 0.4409448818897638
                    },
                    {
                        "number": 7,
                        "time": 50.71533203125,
                        "value": 0.4330708661417323
                    },
                    {
                        "number": 7,
                        "time": 50.7666015625,
                        "value": 0.4251968503937008
                    },
                    {
                        "number": 7,
                        "time": 50.81787109375,
                        "value": 0.41732283464566927
                    },
                    {
                        "number": 7,
                        "time": 50.860595703125,
                        "value": 0.4094488188976378
                    },
                    {
                        "number": 7,
                        "time": 50.911865234375,
                        "value": 0.4015748031496063
                    },
                    {
                        "number": 7,
                        "time": 50.963134765625,
                        "value": 0.3937007874015748
                    },
                    {
                        "number": 7,
                        "time": 51.005859375,
                        "value": 0.3858267716535433
                    },
                    {
                        "number": 7,
                        "time": 51.05712890625,
                        "value": 0.3779527559055118
                    },
                    {
                        "number": 7,
                        "time": 51.1083984375,
                        "value": 0.3700787401574803
                    },
                    {
                        "number": 7,
                        "time": 51.15966796875,
                        "value": 0.36220472440944884
                    },
                    {
                        "number": 7,
                        "time": 51.202392578125,
                        "value": 0.3543307086614173
                    },
                    {
                        "number": 7,
                        "time": 51.253662109375,
                        "value": 0.3464566929133858
                    },
                    {
                        "number": 7,
                        "time": 51.304931640625,
                        "value": 0.33858267716535434
                    },
                    {
                        "number": 7,
                        "time": 51.34765625,
                        "value": 0.33070866141732286
                    },
                    {
                        "number": 7,
                        "time": 51.39892578125,
                        "value": 0.3228346456692913
                    },
                    {
                        "number": 7,
                        "time": 55.5078125,
                        "value": 0.28346456692913385
                    },
                    {
                        "number": 7,
                        "time": 55.83251953125,
                        "value": 0.29133858267716534
                    },
                    {
                        "number": 7,
                        "time": 56.148681640625,
                        "value": 0.2992125984251969
                    },
                    {
                        "number": 7,
                        "time": 56.46484375,
                        "value": 0.30708661417322836
                    },
                    {
                        "number": 7,
                        "time": 56.781005859375,
                        "value": 0.31496062992125984
                    },
                    {
                        "number": 7,
                        "time": 57.09716796875,
                        "value": 0.3228346456692913
                    },
                    {
                        "number": 7,
                        "time": 57.413330078125,
                        "value": 0.33070866141732286
                    },
                    {
                        "number": 7,
                        "time": 57.7294921875,
                        "value": 0.33858267716535434
                    },
                    {
                        "number": 7,
                        "time": 58.1640625,
                        "value": 0.3464566929133858
                    },
                    {
                        "number": 7,
                        "time": 58.206787109375,
                        "value": 0.3543307086614173
                    },
                    {
                        "number": 7,
                        "time": 58.240966796875,
                        "value": 0.36220472440944884
                    },
                    {
                        "number": 7,
                        "time": 58.275146484375,
                        "value": 0.3700787401574803
                    },
                    {
                        "number": 7,
                        "time": 58.309326171875,
                        "value": 0.3779527559055118
                    },
                    {
                        "number": 7,
                        "time": 58.343505859375,
                        "value": 0.3858267716535433
                    },
                    {
                        "number": 7,
                        "time": 58.377685546875,
                        "value": 0.3937007874015748
                    },
                    {
                        "number": 7,
                        "time": 58.411865234375,
                        "value": 0.4015748031496063
                    },
                    {
                        "number": 7,
                        "time": 58.446044921875,
                        "value": 0.4094488188976378
                    },
                    {
                        "number": 7,
                        "time": 58.480224609375,
                        "value": 0.41732283464566927
                    },
                    {
                        "number": 7,
                        "time": 58.514404296875,
                        "value": 0.4251968503937008
                    },
                    {
                        "number": 7,
                        "time": 58.548583984375,
                        "value": 0.4330708661417323
                    },
                    {
                        "number": 7,
                        "time": 58.582763671875,
                        "value": 0.4409448818897638
                    },
                    {
                        "number": 7,
                        "time": 58.616943359375,
                        "value": 0.44881889763779526
                    },
                    {
                        "number": 7,
                        "time": 58.651123046875,
                        "value": 0.4566929133858268
                    },
                    {
                        "number": 7,
                        "time": 58.685302734375,
                        "value": 0.4645669291338583
                    },
                    {
                        "number": 7,
                        "time": 58.72802734375,
                        "value": 0.47244094488188976
                    },
                    {
                        "number": 7,
                        "time": 58.76220703125,
                        "value": 0.48031496062992124
                    },
                    {
                        "number": 7,
                        "time": 58.79638671875,
                        "value": 0.4881889763779528
                    },
                    {
                        "number": 7,
                        "time": 58.83056640625,
                        "value": 0.49606299212598426
                    },
                    {
                        "number": 7,
                        "time": 58.86474609375,
                        "value": 0.5039370078740157
                    },
                    {
                        "number": 7,
                        "time": 58.89892578125,
                        "value": 0.5118110236220472
                    },
                    {
                        "number": 7,
                        "time": 58.93310546875,
                        "value": 0.5196850393700787
                    },
                    {
                        "number": 7,
                        "time": 58.96728515625,
                        "value": 0.5275590551181102
                    },
                    {
                        "number": 7,
                        "time": 59.00146484375,
                        "value": 0.5354330708661418
                    },
                    {
                        "number": 7,
                        "time": 59.03564453125,
                        "value": 0.5433070866141733
                    },
                    {
                        "number": 7,
                        "time": 59.06982421875,
                        "value": 0.5511811023622047
                    },
                    {
                        "number": 7,
                        "time": 59.10400390625,
                        "value": 0.5590551181102362
                    },
                    {
                        "number": 7,
                        "time": 59.13818359375,
                        "value": 0.5669291338582677
                    },
                    {
                        "number": 7,
                        "time": 59.17236328125,
                        "value": 0.5748031496062992
                    },
                    {
                        "number": 7,
                        "time": 59.20654296875,
                        "value": 0.5826771653543307
                    },
                    {
                        "number": 7,
                        "time": 59.24072265625,
                        "value": 0.5905511811023622
                    },
                    {
                        "number": 7,
                        "time": 59.283447265625,
                        "value": 0.5984251968503937
                    },
                    {
                        "number": 7,
                        "time": 59.317626953125,
                        "value": 0.6062992125984252
                    },
                    {
                        "number": 7,
                        "time": 59.351806640625,
                        "value": 0.6141732283464567
                    },
                    {
                        "number": 7,
                        "time": 59.385986328125,
                        "value": 0.6220472440944882
                    },
                    {
                        "number": 7,
                        "time": 60,
                        "value": 0.6062992125984252
                    },
                    {
                        "number": 7,
                        "time": 60.076904296875,
                        "value": 0.5984251968503937
                    },
                    {
                        "number": 7,
                        "time": 60.145263671875,
                        "value": 0.5905511811023622
                    },
                    {
                        "number": 7,
                        "time": 60.22216796875,
                        "value": 0.5826771653543307
                    },
                    {
                        "number": 7,
                        "time": 60.29052734375,
                        "value": 0.5748031496062992
                    },
                    {
                        "number": 7,
                        "time": 60.367431640625,
                        "value": 0.5669291338582677
                    },
                    {
                        "number": 7,
                        "time": 60.435791015625,
                        "value": 0.5590551181102362
                    },
                    {
                        "number": 7,
                        "time": 60.5126953125,
                        "value": 0.5511811023622047
                    },
                    {
                        "number": 7,
                        "time": 60.5810546875,
                        "value": 0.5433070866141733
                    },
                    {
                        "number": 7,
                        "time": 60.657958984375,
                        "value": 0.5354330708661418
                    },
                    {
                        "number": 7,
                        "time": 60.726318359375,
                        "value": 0.5275590551181102
                    },
                    {
                        "number": 7,
                        "time": 60.80322265625,
                        "value": 0.5196850393700787
                    },
                    {
                        "number": 7,
                        "time": 60.87158203125,
                        "value": 0.5118110236220472
                    },
                    {
                        "number": 7,
                        "time": 60.948486328125,
                        "value": 0.5039370078740157
                    },
                    {
                        "number": 7,
                        "time": 61.016845703125,
                        "value": 0.49606299212598426
                    },
                    {
                        "number": 7,
                        "time": 61.09375,
                        "value": 0.4881889763779528
                    },
                    {
                        "number": 7,
                        "time": 61.162109375,
                        "value": 0.48031496062992124
                    },
                    {
                        "number": 7,
                        "time": 61.239013671875,
                        "value": 0.47244094488188976
                    },
                    {
                        "number": 7,
                        "time": 61.307373046875,
                        "value": 0.4645669291338583
                    },
                    {
                        "number": 7,
                        "time": 61.38427734375,
                        "value": 0.4566929133858268
                    },
                    {
                        "number": 7,
                        "time": 61.45263671875,
                        "value": 0.44881889763779526
                    },
                    {
                        "number": 7,
                        "time": 61.529541015625,
                        "value": 0.4409448818897638
                    },
                    {
                        "number": 7,
                        "time": 61.597900390625,
                        "value": 0.4330708661417323
                    },
                    {
                        "number": 7,
                        "time": 61.6748046875,
                        "value": 0.4251968503937008
                    },
                    {
                        "number": 7,
                        "time": 61.7431640625,
                        "value": 0.41732283464566927
                    },
                    {
                        "number": 7,
                        "time": 61.820068359375,
                        "value": 0.4094488188976378
                    },
                    {
                        "number": 7,
                        "time": 61.888427734375,
                        "value": 0.4015748031496063
                    },
                    {
                        "number": 7,
                        "time": 61.96533203125,
                        "value": 0.3937007874015748
                    },
                    {
                        "number": 7,
                        "time": 62.03369140625,
                        "value": 0.3858267716535433
                    },
                    {
                        "number": 7,
                        "time": 62.110595703125,
                        "value": 0.3779527559055118
                    },
                    {
                        "number": 7,
                        "time": 62.178955078125,
                        "value": 0.3700787401574803
                    },
                    {
                        "number": 7,
                        "time": 62.255859375,
                        "value": 0.36220472440944884
                    },
                    {
                        "number": 7,
                        "time": 62.32421875,
                        "value": 0.3543307086614173
                    },
                    {
                        "number": 7,
                        "time": 62.401123046875,
                        "value": 0.3464566929133858
                    },
                    {
                        "number": 7,
                        "time": 62.469482421875,
                        "value": 0.33858267716535434
                    },
                    {
                        "number": 7,
                        "time": 62.5390625,
                        "value": 0.33858267716535434
                    },
                    {
                        "number": 7,
                        "time": 62.650146484375,
                        "value": 0.33070866141732286
                    },
                    {
                        "number": 7,
                        "time": 62.76123046875,
                        "value": 0.3228346456692913
                    },
                    {
                        "number": 7,
                        "time": 62.872314453125,
                        "value": 0.31496062992125984
                    },
                    {
                        "number": 7,
                        "time": 62.9833984375,
                        "value": 0.30708661417322836
                    },
                    {
                        "number": 7,
                        "time": 63.0859375,
                        "value": 0.2992125984251969
                    },
                    {
                        "number": 7,
                        "time": 63.1640625,
                        "value": 0.30708661417322836
                    },
                    {
                        "number": 7,
                        "time": 63.18115234375,
                        "value": 0.31496062992125984
                    },
                    {
                        "number": 7,
                        "time": 63.1982421875,
                        "value": 0.3228346456692913
                    },
                    {
                        "number": 7,
                        "time": 63.206787109375,
                        "value": 0.33070866141732286
                    },
                    {
                        "number": 7,
                        "time": 63.223876953125,
                        "value": 0.33858267716535434
                    },
                    {
                        "number": 7,
                        "time": 63.240966796875,
                        "value": 0.3464566929133858
                    },
                    {
                        "number": 7,
                        "time": 63.24951171875,
                        "value": 0.3543307086614173
                    },
                    {
                        "number": 7,
                        "time": 63.2666015625,
                        "value": 0.36220472440944884
                    },
                    {
                        "number": 7,
                        "time": 63.275146484375,
                        "value": 0.3700787401574803
                    },
                    {
                        "number": 7,
                        "time": 63.292236328125,
                        "value": 0.3779527559055118
                    },
                    {
                        "number": 7,
                        "time": 63.309326171875,
                        "value": 0.3858267716535433
                    },
                    {
                        "number": 7,
                        "time": 63.31787109375,
                        "value": 0.3937007874015748
                    },
                    {
                        "number": 7,
                        "time": 63.3349609375,
                        "value": 0.4015748031496063
                    },
                    {
                        "number": 7,
                        "time": 63.35205078125,
                        "value": 0.4094488188976378
                    },
                    {
                        "number": 7,
                        "time": 63.360595703125,
                        "value": 0.41732283464566927
                    },
                    {
                        "number": 7,
                        "time": 63.377685546875,
                        "value": 0.4251968503937008
                    },
                    {
                        "number": 7,
                        "time": 63.38623046875,
                        "value": 0.4330708661417323
                    },
                    {
                        "number": 7,
                        "time": 63.4033203125,
                        "value": 0.4409448818897638
                    },
                    {
                        "number": 7,
                        "time": 63.42041015625,
                        "value": 0.44881889763779526
                    },
                    {
                        "number": 7,
                        "time": 63.428955078125,
                        "value": 0.4566929133858268
                    },
                    {
                        "number": 7,
                        "time": 63.446044921875,
                        "value": 0.4645669291338583
                    },
                    {
                        "number": 7,
                        "time": 63.45458984375,
                        "value": 0.47244094488188976
                    },
                    {
                        "number": 7,
                        "time": 63.4716796875,
                        "value": 0.48031496062992124
                    },
                    {
                        "number": 7,
                        "time": 63.48876953125,
                        "value": 0.4881889763779528
                    },
                    {
                        "number": 7,
                        "time": 63.497314453125,
                        "value": 0.49606299212598426
                    },
                    {
                        "number": 7,
                        "time": 63.514404296875,
                        "value": 0.5039370078740157
                    },
                    {
                        "number": 7,
                        "time": 63.531494140625,
                        "value": 0.5118110236220472
                    },
                    {
                        "number": 7,
                        "time": 63.5400390625,
                        "value": 0.5196850393700787
                    },
                    {
                        "number": 7,
                        "time": 63.55712890625,
                        "value": 0.5275590551181102
                    },
                    {
                        "number": 7,
                        "time": 63.565673828125,
                        "value": 0.5354330708661418
                    },
                    {
                        "number": 7,
                        "time": 63.582763671875,
                        "value": 0.5433070866141733
                    },
                    {
                        "number": 7,
                        "time": 63.599853515625,
                        "value": 0.5511811023622047
                    },
                    {
                        "number": 7,
                        "time": 63.6083984375,
                        "value": 0.5590551181102362
                    },
                    {
                        "number": 7,
                        "time": 63.62548828125,
                        "value": 0.5669291338582677
                    },
                    {
                        "number": 7,
                        "time": 63.634033203125,
                        "value": 0.5748031496062992
                    },
                    {
                        "number": 7,
                        "time": 63.651123046875,
                        "value": 0.5826771653543307
                    },
                    {
                        "number": 7,
                        "time": 63.668212890625,
                        "value": 0.5905511811023622
                    },
                    {
                        "number": 7,
                        "time": 63.6767578125,
                        "value": 0.5984251968503937
                    },
                    {
                        "number": 7,
                        "time": 63.69384765625,
                        "value": 0.6062992125984252
                    },
                    {
                        "number": 7,
                        "time": 63.7109375,
                        "value": 0.6141732283464567
                    },
                    {
                        "number": 7,
                        "time": 63.719482421875,
                        "value": 0.6220472440944882
                    },
                    {
                        "number": 7,
                        "time": 63.736572265625,
                        "value": 0.6299212598425197
                    },
                    {
                        "number": 7,
                        "time": 63.7451171875,
                        "value": 0.6377952755905512
                    },
                    {
                        "number": 7,
                        "time": 63.76220703125,
                        "value": 0.6456692913385826
                    },
                    {
                        "number": 7,
                        "time": 63.779296875,
                        "value": 0.6535433070866141
                    },
                    {
                        "number": 7,
                        "time": 63.787841796875,
                        "value": 0.6614173228346457
                    },
                    {
                        "number": 7,
                        "time": 63.804931640625,
                        "value": 0.6692913385826772
                    },
                    {
                        "number": 7,
                        "time": 63.822021484375,
                        "value": 0.6771653543307087
                    },
                    {
                        "number": 7,
                        "time": 63.83056640625,
                        "value": 0.6850393700787402
                    },
                    {
                        "number": 7,
                        "time": 63.84765625,
                        "value": 0.6929133858267716
                    },
                    {
                        "number": 7,
                        "time": 63.856201171875,
                        "value": 0.7007874015748031
                    },
                    {
                        "number": 7,
                        "time": 63.873291015625,
                        "value": 0.7086614173228346
                    },
                    {
                        "number": 7,
                        "time": 63.890380859375,
                        "value": 0.7165354330708661
                    },
                    {
                        "number": 7,
                        "time": 63.89892578125,
                        "value": 0.7244094488188977
                    },
                    {
                        "number": 7,
                        "time": 63.916015625,
                        "value": 0.7322834645669292
                    },
                    {
                        "number": 7,
                        "time": 63.924560546875,
                        "value": 0.7401574803149606
                    },
                    {
                        "number": 7,
                        "time": 63.941650390625,
                        "value": 0.7480314960629921
                    },
                    {
                        "number": 7,
                        "time": 63.958740234375,
                        "value": 0.7559055118110236
                    },
                    {
                        "number": 7,
                        "time": 63.96728515625,
                        "value": 0.7637795275590551
                    },
                    {
                        "number": 7,
                        "time": 63.984375,
                        "value": 0.7716535433070866
                    },
                    {
                        "number": 7,
                        "time": 64.00146484375,
                        "value": 0.7795275590551181
                    },
                    {
                        "number": 7,
                        "time": 64.010009765625,
                        "value": 0.7874015748031497
                    },
                    {
                        "number": 7,
                        "time": 64.027099609375,
                        "value": 0.7952755905511811
                    },
                    {
                        "number": 7,
                        "time": 64.03564453125,
                        "value": 0.8031496062992126
                    },
                    {
                        "number": 7,
                        "time": 64.052734375,
                        "value": 0.8110236220472441
                    },
                    {
                        "number": 7,
                        "time": 64.0625,
                        "value": 0.8267716535433071
                    },
                    {
                        "number": 7,
                        "time": 64.071044921875,
                        "value": 0.8188976377952756
                    },
                    {
                        "number": 7,
                        "time": 64.07958984375,
                        "value": 0.8031496062992126
                    },
                    {
                        "number": 7,
                        "time": 64.088134765625,
                        "value": 0.7874015748031497
                    },
                    {
                        "number": 7,
                        "time": 64.0966796875,
                        "value": 0.7795275590551181
                    },
                    {
                        "number": 7,
                        "time": 64.105224609375,
                        "value": 0.7637795275590551
                    },
                    {
                        "number": 7,
                        "time": 64.11376953125,
                        "value": 0.7480314960629921
                    },
                    {
                        "number": 7,
                        "time": 64.122314453125,
                        "value": 0.7401574803149606
                    },
                    {
                        "number": 7,
                        "time": 64.130859375,
                        "value": 0.7244094488188977
                    },
                    {
                        "number": 7,
                        "time": 64.139404296875,
                        "value": 0.7086614173228346
                    },
                    {
                        "number": 7,
                        "time": 64.14794921875,
                        "value": 0.7007874015748031
                    },
                    {
                        "number": 7,
                        "time": 64.156494140625,
                        "value": 0.6850393700787402
                    },
                    {
                        "number": 7,
                        "time": 64.1650390625,
                        "value": 0.6692913385826772
                    },
                    {
                        "number": 7,
                        "time": 64.173583984375,
                        "value": 0.6535433070866141
                    },
                    {
                        "number": 7,
                        "time": 64.18212890625,
                        "value": 0.6456692913385826
                    },
                    {
                        "number": 7,
                        "time": 64.190673828125,
                        "value": 0.6299212598425197
                    },
                    {
                        "number": 7,
                        "time": 64.19921875,
                        "value": 0.6141732283464567
                    },
                    {
                        "number": 7,
                        "time": 64.207763671875,
                        "value": 0.6062992125984252
                    },
                    {
                        "number": 7,
                        "time": 64.21630859375,
                        "value": 0.5905511811023622
                    },
                    {
                        "number": 7,
                        "time": 64.224853515625,
                        "value": 0.5748031496062992
                    },
                    {
                        "number": 7,
                        "time": 64.2333984375,
                        "value": 0.5669291338582677
                    },
                    {
                        "number": 7,
                        "time": 64.241943359375,
                        "value": 0.5511811023622047
                    },
                    {
                        "number": 7,
                        "time": 64.25048828125,
                        "value": 0.5354330708661418
                    },
                    {
                        "number": 7,
                        "time": 64.259033203125,
                        "value": 0.5275590551181102
                    },
                    {
                        "number": 7,
                        "time": 64.267578125,
                        "value": 0.5118110236220472
                    },
                    {
                        "number": 7,
                        "time": 64.276123046875,
                        "value": 0.49606299212598426
                    },
                    {
                        "number": 7,
                        "time": 64.28466796875,
                        "value": 0.48031496062992124
                    },
                    {
                        "number": 7,
                        "time": 64.293212890625,
                        "value": 0.47244094488188976
                    },
                    {
                        "number": 7,
                        "time": 64.3017578125,
                        "value": 0.4566929133858268
                    },
                    {
                        "number": 7,
                        "time": 64.310302734375,
                        "value": 0.4409448818897638
                    },
                    {
                        "number": 7,
                        "time": 64.31884765625,
                        "value": 0.4330708661417323
                    },
                    {
                        "number": 7,
                        "time": 64.327392578125,
                        "value": 0.41732283464566927
                    },
                    {
                        "number": 7,
                        "time": 64.3359375,
                        "value": 0.4015748031496063
                    },
                    {
                        "number": 7,
                        "time": 64.344482421875,
                        "value": 0.3937007874015748
                    },
                    {
                        "number": 7,
                        "time": 64.35302734375,
                        "value": 0.3779527559055118
                    },
                    {
                        "number": 7,
                        "time": 64.361572265625,
                        "value": 0.36220472440944884
                    },
                    {
                        "number": 7,
                        "time": 64.3701171875,
                        "value": 0.3464566929133858
                    },
                    {
                        "number": 7,
                        "time": 80.625,
                        "value": 0.4251968503937008
                    },
                    {
                        "number": 7,
                        "time": 84.1796875,
                        "value": 0.41732283464566927
                    },
                    {
                        "number": 7,
                        "time": 84.67529296875,
                        "value": 0.4094488188976378
                    },
                    {
                        "number": 7,
                        "time": 85.162353515625,
                        "value": 0.4015748031496063
                    },
                    {
                        "number": 7,
                        "time": 85.6494140625,
                        "value": 0.3937007874015748
                    },
                    {
                        "number": 7,
                        "time": 86.136474609375,
                        "value": 0.3858267716535433
                    },
                    {
                        "number": 7,
                        "time": 86.62353515625,
                        "value": 0.3779527559055118
                    },
                    {
                        "number": 7,
                        "time": 87.110595703125,
                        "value": 0.3700787401574803
                    },
                    {
                        "number": 7,
                        "time": 87.59765625,
                        "value": 0.36220472440944884
                    },
                    {
                        "number": 7,
                        "time": 88.125,
                        "value": 0.36220472440944884
                    },
                    {
                        "number": 7,
                        "time": 88.14208984375,
                        "value": 0.3700787401574803
                    },
                    {
                        "number": 7,
                        "time": 88.150634765625,
                        "value": 0.3779527559055118
                    },
                    {
                        "number": 7,
                        "time": 88.167724609375,
                        "value": 0.3858267716535433
                    },
                    {
                        "number": 7,
                        "time": 88.17626953125,
                        "value": 0.3937007874015748
                    },
                    {
                        "number": 7,
                        "time": 88.193359375,
                        "value": 0.4015748031496063
                    },
                    {
                        "number": 7,
                        "time": 88.201904296875,
                        "value": 0.4094488188976378
                    },
                    {
                        "number": 7,
                        "time": 88.218994140625,
                        "value": 0.41732283464566927
                    },
                    {
                        "number": 7,
                        "time": 88.2275390625,
                        "value": 0.4251968503937008
                    },
                    {
                        "number": 7,
                        "time": 88.24462890625,
                        "value": 0.4330708661417323
                    },
                    {
                        "number": 7,
                        "time": 88.253173828125,
                        "value": 0.4409448818897638
                    },
                    {
                        "number": 7,
                        "time": 88.270263671875,
                        "value": 0.44881889763779526
                    },
                    {
                        "number": 7,
                        "time": 88.27880859375,
                        "value": 0.4566929133858268
                    },
                    {
                        "number": 7,
                        "time": 88.2958984375,
                        "value": 0.4645669291338583
                    },
                    {
                        "number": 7,
                        "time": 88.304443359375,
                        "value": 0.47244094488188976
                    },
                    {
                        "number": 7,
                        "time": 88.321533203125,
                        "value": 0.48031496062992124
                    },
                    {
                        "number": 7,
                        "time": 88.330078125,
                        "value": 0.4881889763779528
                    },
                    {
                        "number": 7,
                        "time": 88.34716796875,
                        "value": 0.49606299212598426
                    },
                    {
                        "number": 7,
                        "time": 88.355712890625,
                        "value": 0.5039370078740157
                    },
                    {
                        "number": 7,
                        "time": 88.372802734375,
                        "value": 0.5118110236220472
                    },
                    {
                        "number": 7,
                        "time": 88.38134765625,
                        "value": 0.5196850393700787
                    },
                    {
                        "number": 7,
                        "time": 88.3984375,
                        "value": 0.5275590551181102
                    },
                    {
                        "number": 7,
                        "time": 88.406982421875,
                        "value": 0.5354330708661418
                    },
                    {
                        "number": 7,
                        "time": 88.424072265625,
                        "value": 0.5433070866141733
                    },
                    {
                        "number": 7,
                        "time": 88.4326171875,
                        "value": 0.5511811023622047
                    },
                    {
                        "number": 7,
                        "time": 88.44970703125,
                        "value": 0.5590551181102362
                    },
                    {
                        "number": 7,
                        "time": 88.458251953125,
                        "value": 0.5669291338582677
                    },
                    {
                        "number": 7,
                        "time": 88.475341796875,
                        "value": 0.5748031496062992
                    },
                    {
                        "number": 7,
                        "time": 88.48388671875,
                        "value": 0.5826771653543307
                    },
                    {
                        "number": 7,
                        "time": 88.5009765625,
                        "value": 0.5905511811023622
                    },
                    {
                        "number": 7,
                        "time": 88.509521484375,
                        "value": 0.5984251968503937
                    },
                    {
                        "number": 7,
                        "time": 88.526611328125,
                        "value": 0.6062992125984252
                    },
                    {
                        "number": 7,
                        "time": 88.53515625,
                        "value": 0.6141732283464567
                    },
                    {
                        "number": 7,
                        "time": 88.55224609375,
                        "value": 0.6220472440944882
                    },
                    {
                        "number": 7,
                        "time": 88.560791015625,
                        "value": 0.6299212598425197
                    },
                    {
                        "number": 7,
                        "time": 88.577880859375,
                        "value": 0.6377952755905512
                    },
                    {
                        "number": 7,
                        "time": 88.58642578125,
                        "value": 0.6456692913385826
                    },
                    {
                        "number": 7,
                        "time": 88.603515625,
                        "value": 0.6535433070866141
                    },
                    {
                        "number": 7,
                        "time": 88.612060546875,
                        "value": 0.6614173228346457
                    },
                    {
                        "number": 7,
                        "time": 88.629150390625,
                        "value": 0.6692913385826772
                    },
                    {
                        "number": 7,
                        "time": 88.6376953125,
                        "value": 0.6771653543307087
                    },
                    {
                        "number": 7,
                        "time": 88.65478515625,
                        "value": 0.6850393700787402
                    },
                    {
                        "number": 7,
                        "time": 88.663330078125,
                        "value": 0.6929133858267716
                    },
                    {
                        "number": 7,
                        "time": 88.680419921875,
                        "value": 0.7007874015748031
                    },
                    {
                        "number": 7,
                        "time": 88.68896484375,
                        "value": 0.7086614173228346
                    },
                    {
                        "number": 7,
                        "time": 88.7060546875,
                        "value": 0.7165354330708661
                    },
                    {
                        "number": 7,
                        "time": 88.714599609375,
                        "value": 0.7244094488188977
                    },
                    {
                        "number": 7,
                        "time": 88.731689453125,
                        "value": 0.7322834645669292
                    },
                    {
                        "number": 7,
                        "time": 88.740234375,
                        "value": 0.7401574803149606
                    },
                    {
                        "number": 7,
                        "time": 88.75732421875,
                        "value": 0.7480314960629921
                    },
                    {
                        "number": 7,
                        "time": 88.765869140625,
                        "value": 0.7559055118110236
                    },
                    {
                        "number": 7,
                        "time": 88.782958984375,
                        "value": 0.7637795275590551
                    },
                    {
                        "number": 7,
                        "time": 88.79150390625,
                        "value": 0.7716535433070866
                    },
                    {
                        "number": 7,
                        "time": 88.80859375,
                        "value": 0.7795275590551181
                    },
                    {
                        "number": 7,
                        "time": 88.817138671875,
                        "value": 0.7874015748031497
                    },
                    {
                        "number": 7,
                        "time": 88.834228515625,
                        "value": 0.7952755905511811
                    },
                    {
                        "number": 7,
                        "time": 88.8427734375,
                        "value": 0.8031496062992126
                    },
                    {
                        "number": 7,
                        "time": 88.85986328125,
                        "value": 0.8110236220472441
                    },
                    {
                        "number": 7,
                        "time": 88.868408203125,
                        "value": 0.8188976377952756
                    },
                    {
                        "number": 7,
                        "time": 88.885498046875,
                        "value": 0.8267716535433071
                    },
                    {
                        "number": 7,
                        "time": 88.89404296875,
                        "value": 0.8346456692913385
                    }
                ],
                "10": [
                    {
                        "number": 10,
                        "time": 0,
                        "value": 0.5511811023622047
                    }
                ],
                "91": [
                    {
                        "number": 91,
                        "time": 0,
                        "value": 0.8661417322834646
                    }
                ],
                "93": [
                    {
                        "number": 93,
                        "time": 0,
                        "value": 1
                    }
                ],
                "121": [
                    {
                        "number": 121,
                        "time": 0,
                        "value": 1
                    },
                    {
                        "number": 121,
                        "time": 96.875,
                        "value": 1
                    }
                ]
            },
            "id": 3,
            "name": "Tenors",
            "instrumentNumber": 53,
            "instrument": "voice oohs",
            "instrumentFamily": "ensemble",
            "channelNumber": 3,
            "isPercussion": false
        },
        {
            "startTime": 8.75,
            "duration": 89.0625,
            "length": 15,
            "notes": [
                {
                    "name": "F2",
                    "midi": 41,
                    "time": 8.75,
                    "velocity": 0.5984251968503937,
                    "duration": 7.8125
                },
                {
                    "name": "G#2",
                    "midi": 44,
                    "time": 23.75,
                    "velocity": 0.5984251968503937,
                    "duration": 0.625
                },
                {
                    "name": "D#2",
                    "midi": 39,
                    "time": 24.375,
                    "velocity": 0.5984251968503937,
                    "duration": 1.875
                },
                {
                    "name": "G#2",
                    "midi": 44,
                    "time": 26.25,
                    "velocity": 0.5984251968503937,
                    "duration": 1.1248779296875
                },
                {
                    "name": "G#2",
                    "midi": 44,
                    "time": 27.5,
                    "velocity": 0.5984251968503937,
                    "duration": 0.625
                },
                {
                    "name": "G2",
                    "midi": 43,
                    "time": 28.125,
                    "velocity": 0.5984251968503937,
                    "duration": 1.25
                },
                {
                    "name": "G3",
                    "midi": 55,
                    "time": 29.375,
                    "velocity": 0.5984251968503937,
                    "duration": 1.25
                },
                {
                    "name": "C4",
                    "midi": 60,
                    "time": 30.625,
                    "velocity": 0.6220472440944882,
                    "duration": 2.1875
                },
                {
                    "name": "F2",
                    "midi": 41,
                    "time": 40.625,
                    "velocity": 0.5984251968503937,
                    "duration": 7.1875
                },
                {
                    "name": "G#2",
                    "midi": 44,
                    "time": 58.125,
                    "velocity": 0.5984251968503937,
                    "duration": 1.25
                },
                {
                    "name": "G#2",
                    "midi": 44,
                    "time": 59.375,
                    "velocity": 0.5984251968503937,
                    "duration": 0.625
                },
                {
                    "name": "G2",
                    "midi": 43,
                    "time": 60,
                    "velocity": 0.5984251968503937,
                    "duration": 2.5
                },
                {
                    "name": "C3",
                    "midi": 48,
                    "time": 62.5,
                    "velocity": 0.5984251968503937,
                    "duration": 0.625
                },
                {
                    "name": "C4",
                    "midi": 60,
                    "time": 63.125,
                    "velocity": 0.5984251968503937,
                    "duration": 0.3125
                },
                {
                    "name": "F2",
                    "midi": 41,
                    "time": 80.625,
                    "velocity": 0.5984251968503937,
                    "duration": 8.4375
                }
            ],
            "controlChanges": {
                "1": [
                    {
                        "number": 1,
                        "time": 0,
                        "value": 0.03937007874015748
                    }
                ],
                "7": [
                    {
                        "number": 7,
                        "time": 0.56640625,
                        "value": 0.36220472440944884
                    },
                    {
                        "number": 7,
                        "time": 14.4140625,
                        "value": 0.3543307086614173
                    },
                    {
                        "number": 7,
                        "time": 15.020751953125,
                        "value": 0.3464566929133858
                    },
                    {
                        "number": 7,
                        "time": 15.68359375,
                        "value": 0.33858267716535434
                    },
                    {
                        "number": 7,
                        "time": 15.743408203125,
                        "value": 0.33070866141732286
                    },
                    {
                        "number": 7,
                        "time": 15.80322265625,
                        "value": 0.3228346456692913
                    },
                    {
                        "number": 7,
                        "time": 15.863037109375,
                        "value": 0.31496062992125984
                    },
                    {
                        "number": 7,
                        "time": 15.914306640625,
                        "value": 0.30708661417322836
                    },
                    {
                        "number": 7,
                        "time": 15.97412109375,
                        "value": 0.2992125984251969
                    },
                    {
                        "number": 7,
                        "time": 16.033935546875,
                        "value": 0.29133858267716534
                    },
                    {
                        "number": 7,
                        "time": 16.085205078125,
                        "value": 0.28346456692913385
                    },
                    {
                        "number": 7,
                        "time": 16.14501953125,
                        "value": 0.2755905511811024
                    },
                    {
                        "number": 7,
                        "time": 16.204833984375,
                        "value": 0.2677165354330709
                    },
                    {
                        "number": 7,
                        "time": 16.2646484375,
                        "value": 0.25984251968503935
                    },
                    {
                        "number": 7,
                        "time": 16.31591796875,
                        "value": 0.25196850393700787
                    },
                    {
                        "number": 7,
                        "time": 16.375732421875,
                        "value": 0.2440944881889764
                    },
                    {
                        "number": 7,
                        "time": 16.435546875,
                        "value": 0.23622047244094488
                    },
                    {
                        "number": 7,
                        "time": 16.48681640625,
                        "value": 0.2283464566929134
                    },
                    {
                        "number": 7,
                        "time": 16.546630859375,
                        "value": 0.2204724409448819
                    },
                    {
                        "number": 7,
                        "time": 23.4375,
                        "value": 0.4409448818897638
                    },
                    {
                        "number": 7,
                        "time": 23.7109375,
                        "value": 0.4566929133858268
                    },
                    {
                        "number": 7,
                        "time": 23.7890625,
                        "value": 0.4566929133858268
                    },
                    {
                        "number": 7,
                        "time": 23.94287109375,
                        "value": 0.4645669291338583
                    },
                    {
                        "number": 7,
                        "time": 24.0966796875,
                        "value": 0.47244094488188976
                    },
                    {
                        "number": 7,
                        "time": 24.25048828125,
                        "value": 0.48031496062992124
                    },
                    {
                        "number": 7,
                        "time": 24.404296875,
                        "value": 0.4881889763779528
                    },
                    {
                        "number": 7,
                        "time": 24.55810546875,
                        "value": 0.49606299212598426
                    },
                    {
                        "number": 7,
                        "time": 24.7119140625,
                        "value": 0.5039370078740157
                    },
                    {
                        "number": 7,
                        "time": 24.86572265625,
                        "value": 0.5118110236220472
                    },
                    {
                        "number": 7,
                        "time": 25.01953125,
                        "value": 0.5196850393700787
                    },
                    {
                        "number": 7,
                        "time": 25.17333984375,
                        "value": 0.5275590551181102
                    },
                    {
                        "number": 7,
                        "time": 25.3271484375,
                        "value": 0.5354330708661418
                    },
                    {
                        "number": 7,
                        "time": 25.472412109375,
                        "value": 0.5433070866141733
                    },
                    {
                        "number": 7,
                        "time": 26.328125,
                        "value": 0.5354330708661418
                    },
                    {
                        "number": 7,
                        "time": 26.405029296875,
                        "value": 0.5275590551181102
                    },
                    {
                        "number": 7,
                        "time": 26.48193359375,
                        "value": 0.5196850393700787
                    },
                    {
                        "number": 7,
                        "time": 26.55029296875,
                        "value": 0.5118110236220472
                    },
                    {
                        "number": 7,
                        "time": 26.627197265625,
                        "value": 0.5039370078740157
                    },
                    {
                        "number": 7,
                        "time": 26.695556640625,
                        "value": 0.49606299212598426
                    },
                    {
                        "number": 7,
                        "time": 26.7724609375,
                        "value": 0.4881889763779528
                    },
                    {
                        "number": 7,
                        "time": 26.8408203125,
                        "value": 0.48031496062992124
                    },
                    {
                        "number": 7,
                        "time": 26.9140625,
                        "value": 0.47244094488188976
                    },
                    {
                        "number": 7,
                        "time": 26.939697265625,
                        "value": 0.4645669291338583
                    },
                    {
                        "number": 7,
                        "time": 26.96533203125,
                        "value": 0.4566929133858268
                    },
                    {
                        "number": 7,
                        "time": 26.990966796875,
                        "value": 0.44881889763779526
                    },
                    {
                        "number": 7,
                        "time": 27.008056640625,
                        "value": 0.4409448818897638
                    },
                    {
                        "number": 7,
                        "time": 27.03369140625,
                        "value": 0.4330708661417323
                    },
                    {
                        "number": 7,
                        "time": 27.059326171875,
                        "value": 0.4251968503937008
                    },
                    {
                        "number": 7,
                        "time": 27.0849609375,
                        "value": 0.41732283464566927
                    },
                    {
                        "number": 7,
                        "time": 27.10205078125,
                        "value": 0.4094488188976378
                    },
                    {
                        "number": 7,
                        "time": 27.127685546875,
                        "value": 0.4015748031496063
                    },
                    {
                        "number": 7,
                        "time": 27.1533203125,
                        "value": 0.3937007874015748
                    },
                    {
                        "number": 7,
                        "time": 27.178955078125,
                        "value": 0.3858267716535433
                    },
                    {
                        "number": 7,
                        "time": 27.196044921875,
                        "value": 0.3779527559055118
                    },
                    {
                        "number": 7,
                        "time": 27.2216796875,
                        "value": 0.3700787401574803
                    },
                    {
                        "number": 7,
                        "time": 27.247314453125,
                        "value": 0.36220472440944884
                    },
                    {
                        "number": 7,
                        "time": 27.65625,
                        "value": 0.3700787401574803
                    },
                    {
                        "number": 7,
                        "time": 27.698974609375,
                        "value": 0.3779527559055118
                    },
                    {
                        "number": 7,
                        "time": 27.74169921875,
                        "value": 0.3858267716535433
                    },
                    {
                        "number": 7,
                        "time": 27.77587890625,
                        "value": 0.3937007874015748
                    },
                    {
                        "number": 7,
                        "time": 27.818603515625,
                        "value": 0.4015748031496063
                    },
                    {
                        "number": 7,
                        "time": 27.852783203125,
                        "value": 0.4094488188976378
                    },
                    {
                        "number": 7,
                        "time": 27.8955078125,
                        "value": 0.41732283464566927
                    },
                    {
                        "number": 7,
                        "time": 27.9296875,
                        "value": 0.4251968503937008
                    },
                    {
                        "number": 7,
                        "time": 27.972412109375,
                        "value": 0.4330708661417323
                    },
                    {
                        "number": 7,
                        "time": 28.006591796875,
                        "value": 0.4409448818897638
                    },
                    {
                        "number": 7,
                        "time": 28.04931640625,
                        "value": 0.44881889763779526
                    },
                    {
                        "number": 7,
                        "time": 28.08349609375,
                        "value": 0.4566929133858268
                    },
                    {
                        "number": 7,
                        "time": 28.126220703125,
                        "value": 0.4645669291338583
                    },
                    {
                        "number": 7,
                        "time": 28.160400390625,
                        "value": 0.47244094488188976
                    },
                    {
                        "number": 7,
                        "time": 28.203125,
                        "value": 0.48031496062992124
                    },
                    {
                        "number": 7,
                        "time": 28.2373046875,
                        "value": 0.4881889763779528
                    },
                    {
                        "number": 7,
                        "time": 28.280029296875,
                        "value": 0.49606299212598426
                    },
                    {
                        "number": 7,
                        "time": 28.314208984375,
                        "value": 0.5039370078740157
                    },
                    {
                        "number": 7,
                        "time": 28.35693359375,
                        "value": 0.5118110236220472
                    },
                    {
                        "number": 7,
                        "time": 28.39111328125,
                        "value": 0.5196850393700787
                    },
                    {
                        "number": 7,
                        "time": 28.433837890625,
                        "value": 0.5275590551181102
                    },
                    {
                        "number": 7,
                        "time": 28.468017578125,
                        "value": 0.5354330708661418
                    },
                    {
                        "number": 7,
                        "time": 28.5107421875,
                        "value": 0.5433070866141733
                    },
                    {
                        "number": 7,
                        "time": 28.544921875,
                        "value": 0.5511811023622047
                    },
                    {
                        "number": 7,
                        "time": 28.587646484375,
                        "value": 0.5590551181102362
                    },
                    {
                        "number": 7,
                        "time": 28.63037109375,
                        "value": 0.5669291338582677
                    },
                    {
                        "number": 7,
                        "time": 28.66455078125,
                        "value": 0.5748031496062992
                    },
                    {
                        "number": 7,
                        "time": 28.707275390625,
                        "value": 0.5826771653543307
                    },
                    {
                        "number": 7,
                        "time": 28.741455078125,
                        "value": 0.5905511811023622
                    },
                    {
                        "number": 7,
                        "time": 28.7841796875,
                        "value": 0.5984251968503937
                    },
                    {
                        "number": 7,
                        "time": 28.818359375,
                        "value": 0.6062992125984252
                    },
                    {
                        "number": 7,
                        "time": 28.861083984375,
                        "value": 0.6141732283464567
                    },
                    {
                        "number": 7,
                        "time": 28.895263671875,
                        "value": 0.6220472440944882
                    },
                    {
                        "number": 7,
                        "time": 28.93798828125,
                        "value": 0.6299212598425197
                    },
                    {
                        "number": 7,
                        "time": 28.97216796875,
                        "value": 0.6377952755905512
                    },
                    {
                        "number": 7,
                        "time": 29.014892578125,
                        "value": 0.6456692913385826
                    },
                    {
                        "number": 7,
                        "time": 29.049072265625,
                        "value": 0.6535433070866141
                    },
                    {
                        "number": 7,
                        "time": 29.091796875,
                        "value": 0.6614173228346457
                    },
                    {
                        "number": 7,
                        "time": 29.1259765625,
                        "value": 0.6692913385826772
                    },
                    {
                        "number": 7,
                        "time": 29.168701171875,
                        "value": 0.6771653543307087
                    },
                    {
                        "number": 7,
                        "time": 29.202880859375,
                        "value": 0.6850393700787402
                    },
                    {
                        "number": 7,
                        "time": 29.24560546875,
                        "value": 0.6929133858267716
                    },
                    {
                        "number": 7,
                        "time": 29.27978515625,
                        "value": 0.7007874015748031
                    },
                    {
                        "number": 7,
                        "time": 29.322509765625,
                        "value": 0.7086614173228346
                    },
                    {
                        "number": 7,
                        "time": 29.356689453125,
                        "value": 0.7165354330708661
                    },
                    {
                        "number": 7,
                        "time": 30.703125,
                        "value": 0.7244094488188977
                    },
                    {
                        "number": 7,
                        "time": 30.762939453125,
                        "value": 0.7322834645669292
                    },
                    {
                        "number": 7,
                        "time": 30.814208984375,
                        "value": 0.7401574803149606
                    },
                    {
                        "number": 7,
                        "time": 30.865478515625,
                        "value": 0.7480314960629921
                    },
                    {
                        "number": 7,
                        "time": 30.916748046875,
                        "value": 0.7559055118110236
                    },
                    {
                        "number": 7,
                        "time": 30.968017578125,
                        "value": 0.7637795275590551
                    },
                    {
                        "number": 7,
                        "time": 31.019287109375,
                        "value": 0.7716535433070866
                    },
                    {
                        "number": 7,
                        "time": 31.070556640625,
                        "value": 0.7795275590551181
                    },
                    {
                        "number": 7,
                        "time": 31.13037109375,
                        "value": 0.7874015748031497
                    },
                    {
                        "number": 7,
                        "time": 31.181640625,
                        "value": 0.7952755905511811
                    },
                    {
                        "number": 7,
                        "time": 31.23291015625,
                        "value": 0.8031496062992126
                    },
                    {
                        "number": 7,
                        "time": 31.2841796875,
                        "value": 0.8110236220472441
                    },
                    {
                        "number": 7,
                        "time": 31.33544921875,
                        "value": 0.8188976377952756
                    },
                    {
                        "number": 7,
                        "time": 31.3671875,
                        "value": 0.8267716535433071
                    },
                    {
                        "number": 7,
                        "time": 31.409912109375,
                        "value": 0.8346456692913385
                    },
                    {
                        "number": 7,
                        "time": 31.45263671875,
                        "value": 0.84251968503937
                    },
                    {
                        "number": 7,
                        "time": 31.495361328125,
                        "value": 0.8503937007874016
                    },
                    {
                        "number": 7,
                        "time": 31.5380859375,
                        "value": 0.8582677165354331
                    },
                    {
                        "number": 7,
                        "time": 31.572265625,
                        "value": 0.8661417322834646
                    },
                    {
                        "number": 7,
                        "time": 31.614990234375,
                        "value": 0.8740157480314961
                    },
                    {
                        "number": 7,
                        "time": 31.65771484375,
                        "value": 0.8818897637795275
                    },
                    {
                        "number": 7,
                        "time": 31.700439453125,
                        "value": 0.889763779527559
                    },
                    {
                        "number": 7,
                        "time": 31.7431640625,
                        "value": 0.8976377952755905
                    },
                    {
                        "number": 7,
                        "time": 31.77734375,
                        "value": 0.905511811023622
                    },
                    {
                        "number": 7,
                        "time": 31.820068359375,
                        "value": 0.9133858267716536
                    },
                    {
                        "number": 7,
                        "time": 31.86279296875,
                        "value": 0.9212598425196851
                    },
                    {
                        "number": 7,
                        "time": 31.905517578125,
                        "value": 0.9291338582677166
                    },
                    {
                        "number": 7,
                        "time": 31.939697265625,
                        "value": 0.937007874015748
                    },
                    {
                        "number": 7,
                        "time": 31.982421875,
                        "value": 0.9448818897637795
                    },
                    {
                        "number": 7,
                        "time": 32.025146484375,
                        "value": 0.952755905511811
                    },
                    {
                        "number": 7,
                        "time": 32.06787109375,
                        "value": 0.9606299212598425
                    },
                    {
                        "number": 7,
                        "time": 32.110595703125,
                        "value": 0.968503937007874
                    },
                    {
                        "number": 7,
                        "time": 32.144775390625,
                        "value": 0.9763779527559056
                    },
                    {
                        "number": 7,
                        "time": 32.1875,
                        "value": 0.984251968503937
                    },
                    {
                        "number": 7,
                        "time": 32.230224609375,
                        "value": 0.9921259842519685
                    },
                    {
                        "number": 7,
                        "time": 32.283935546875,
                        "value": 0.9606299212598425
                    },
                    {
                        "number": 7,
                        "time": 32.3046875,
                        "value": 1
                    },
                    {
                        "number": 7,
                        "time": 32.313232421875,
                        "value": 0.984251968503937
                    },
                    {
                        "number": 7,
                        "time": 32.32177734375,
                        "value": 0.9606299212598425
                    },
                    {
                        "number": 7,
                        "time": 32.330322265625,
                        "value": 0.937007874015748
                    },
                    {
                        "number": 7,
                        "time": 32.3388671875,
                        "value": 0.9133858267716536
                    },
                    {
                        "number": 7,
                        "time": 32.347412109375,
                        "value": 0.889763779527559
                    },
                    {
                        "number": 7,
                        "time": 32.35595703125,
                        "value": 0.8661417322834646
                    },
                    {
                        "number": 7,
                        "time": 32.364501953125,
                        "value": 0.84251968503937
                    },
                    {
                        "number": 7,
                        "time": 32.373046875,
                        "value": 0.8188976377952756
                    },
                    {
                        "number": 7,
                        "time": 32.381591796875,
                        "value": 0.7952755905511811
                    },
                    {
                        "number": 7,
                        "time": 32.39013671875,
                        "value": 0.7716535433070866
                    },
                    {
                        "number": 7,
                        "time": 32.398681640625,
                        "value": 0.7401574803149606
                    },
                    {
                        "number": 7,
                        "time": 32.4072265625,
                        "value": 0.7165354330708661
                    },
                    {
                        "number": 7,
                        "time": 32.415771484375,
                        "value": 0.6929133858267716
                    },
                    {
                        "number": 7,
                        "time": 32.42431640625,
                        "value": 0.6692913385826772
                    },
                    {
                        "number": 7,
                        "time": 32.432861328125,
                        "value": 0.6456692913385826
                    },
                    {
                        "number": 7,
                        "time": 32.44140625,
                        "value": 0.6220472440944882
                    },
                    {
                        "number": 7,
                        "time": 32.449951171875,
                        "value": 0.5984251968503937
                    },
                    {
                        "number": 7,
                        "time": 32.45849609375,
                        "value": 0.5748031496062992
                    },
                    {
                        "number": 7,
                        "time": 32.467041015625,
                        "value": 0.5511811023622047
                    },
                    {
                        "number": 7,
                        "time": 32.4755859375,
                        "value": 0.5275590551181102
                    },
                    {
                        "number": 7,
                        "time": 32.484130859375,
                        "value": 0.49606299212598426
                    },
                    {
                        "number": 7,
                        "time": 32.49267578125,
                        "value": 0.47244094488188976
                    },
                    {
                        "number": 7,
                        "time": 32.501220703125,
                        "value": 0.44881889763779526
                    },
                    {
                        "number": 7,
                        "time": 32.509765625,
                        "value": 0.4251968503937008
                    },
                    {
                        "number": 7,
                        "time": 32.518310546875,
                        "value": 0.4015748031496063
                    },
                    {
                        "number": 7,
                        "time": 32.52685546875,
                        "value": 0.3779527559055118
                    },
                    {
                        "number": 7,
                        "time": 32.535400390625,
                        "value": 0.3543307086614173
                    },
                    {
                        "number": 7,
                        "time": 34.296875,
                        "value": 0.33070866141732286
                    },
                    {
                        "number": 7,
                        "time": 45.5078125,
                        "value": 0.33070866141732286
                    },
                    {
                        "number": 7,
                        "time": 45.7470703125,
                        "value": 0.3228346456692913
                    },
                    {
                        "number": 7,
                        "time": 45.977783203125,
                        "value": 0.31496062992125984
                    },
                    {
                        "number": 7,
                        "time": 46.217041015625,
                        "value": 0.30708661417322836
                    },
                    {
                        "number": 7,
                        "time": 46.44775390625,
                        "value": 0.2992125984251969
                    },
                    {
                        "number": 7,
                        "time": 46.68701171875,
                        "value": 0.29133858267716534
                    },
                    {
                        "number": 7,
                        "time": 46.9140625,
                        "value": 0.28346456692913385
                    },
                    {
                        "number": 7,
                        "time": 46.99951171875,
                        "value": 0.2755905511811024
                    },
                    {
                        "number": 7,
                        "time": 47.076416015625,
                        "value": 0.2677165354330709
                    },
                    {
                        "number": 7,
                        "time": 47.1533203125,
                        "value": 0.25984251968503935
                    },
                    {
                        "number": 7,
                        "time": 47.230224609375,
                        "value": 0.25196850393700787
                    },
                    {
                        "number": 7,
                        "time": 47.30712890625,
                        "value": 0.2440944881889764
                    },
                    {
                        "number": 7,
                        "time": 47.384033203125,
                        "value": 0.23622047244094488
                    },
                    {
                        "number": 7,
                        "time": 47.4609375,
                        "value": 0.2283464566929134
                    },
                    {
                        "number": 7,
                        "time": 47.54638671875,
                        "value": 0.2204724409448819
                    },
                    {
                        "number": 7,
                        "time": 47.623291015625,
                        "value": 0.2125984251968504
                    },
                    {
                        "number": 7,
                        "time": 47.7001953125,
                        "value": 0.2047244094488189
                    },
                    {
                        "number": 7,
                        "time": 47.777099609375,
                        "value": 0.1968503937007874
                    },
                    {
                        "number": 7,
                        "time": 58.0078125,
                        "value": 0.31496062992125984
                    },
                    {
                        "number": 7,
                        "time": 58.050537109375,
                        "value": 0.3228346456692913
                    },
                    {
                        "number": 7,
                        "time": 58.084716796875,
                        "value": 0.33070866141732286
                    },
                    {
                        "number": 7,
                        "time": 58.118896484375,
                        "value": 0.33858267716535434
                    },
                    {
                        "number": 7,
                        "time": 58.153076171875,
                        "value": 0.3464566929133858
                    },
                    {
                        "number": 7,
                        "time": 58.187255859375,
                        "value": 0.3543307086614173
                    },
                    {
                        "number": 7,
                        "time": 58.221435546875,
                        "value": 0.36220472440944884
                    },
                    {
                        "number": 7,
                        "time": 58.255615234375,
                        "value": 0.3700787401574803
                    },
                    {
                        "number": 7,
                        "time": 58.289794921875,
                        "value": 0.3779527559055118
                    },
                    {
                        "number": 7,
                        "time": 58.33251953125,
                        "value": 0.3858267716535433
                    },
                    {
                        "number": 7,
                        "time": 58.36669921875,
                        "value": 0.3937007874015748
                    },
                    {
                        "number": 7,
                        "time": 58.40087890625,
                        "value": 0.4015748031496063
                    },
                    {
                        "number": 7,
                        "time": 58.43505859375,
                        "value": 0.4094488188976378
                    },
                    {
                        "number": 7,
                        "time": 58.46923828125,
                        "value": 0.41732283464566927
                    },
                    {
                        "number": 7,
                        "time": 58.50341796875,
                        "value": 0.4251968503937008
                    },
                    {
                        "number": 7,
                        "time": 58.53759765625,
                        "value": 0.4330708661417323
                    },
                    {
                        "number": 7,
                        "time": 58.57177734375,
                        "value": 0.4409448818897638
                    },
                    {
                        "number": 7,
                        "time": 58.60595703125,
                        "value": 0.44881889763779526
                    },
                    {
                        "number": 7,
                        "time": 58.648681640625,
                        "value": 0.4566929133858268
                    },
                    {
                        "number": 7,
                        "time": 58.682861328125,
                        "value": 0.4645669291338583
                    },
                    {
                        "number": 7,
                        "time": 58.717041015625,
                        "value": 0.47244094488188976
                    },
                    {
                        "number": 7,
                        "time": 58.751220703125,
                        "value": 0.48031496062992124
                    },
                    {
                        "number": 7,
                        "time": 58.785400390625,
                        "value": 0.4881889763779528
                    },
                    {
                        "number": 7,
                        "time": 58.819580078125,
                        "value": 0.49606299212598426
                    },
                    {
                        "number": 7,
                        "time": 58.853759765625,
                        "value": 0.5039370078740157
                    },
                    {
                        "number": 7,
                        "time": 58.887939453125,
                        "value": 0.5118110236220472
                    },
                    {
                        "number": 7,
                        "time": 58.922119140625,
                        "value": 0.5196850393700787
                    },
                    {
                        "number": 7,
                        "time": 58.96484375,
                        "value": 0.5275590551181102
                    },
                    {
                        "number": 7,
                        "time": 58.9990234375,
                        "value": 0.5354330708661418
                    },
                    {
                        "number": 7,
                        "time": 59.033203125,
                        "value": 0.5433070866141733
                    },
                    {
                        "number": 7,
                        "time": 59.0673828125,
                        "value": 0.5511811023622047
                    },
                    {
                        "number": 7,
                        "time": 59.1015625,
                        "value": 0.5590551181102362
                    },
                    {
                        "number": 7,
                        "time": 59.1357421875,
                        "value": 0.5669291338582677
                    },
                    {
                        "number": 7,
                        "time": 59.169921875,
                        "value": 0.5748031496062992
                    },
                    {
                        "number": 7,
                        "time": 59.2041015625,
                        "value": 0.5826771653543307
                    },
                    {
                        "number": 7,
                        "time": 59.23828125,
                        "value": 0.5905511811023622
                    },
                    {
                        "number": 7,
                        "time": 59.281005859375,
                        "value": 0.5984251968503937
                    },
                    {
                        "number": 7,
                        "time": 59.315185546875,
                        "value": 0.6062992125984252
                    },
                    {
                        "number": 7,
                        "time": 59.349365234375,
                        "value": 0.6141732283464567
                    },
                    {
                        "number": 7,
                        "time": 59.383544921875,
                        "value": 0.6220472440944882
                    },
                    {
                        "number": 7,
                        "time": 60,
                        "value": 0.6062992125984252
                    },
                    {
                        "number": 7,
                        "time": 60.076904296875,
                        "value": 0.5984251968503937
                    },
                    {
                        "number": 7,
                        "time": 60.145263671875,
                        "value": 0.5905511811023622
                    },
                    {
                        "number": 7,
                        "time": 60.22216796875,
                        "value": 0.5826771653543307
                    },
                    {
                        "number": 7,
                        "time": 60.29052734375,
                        "value": 0.5748031496062992
                    },
                    {
                        "number": 7,
                        "time": 60.367431640625,
                        "value": 0.5669291338582677
                    },
                    {
                        "number": 7,
                        "time": 60.435791015625,
                        "value": 0.5590551181102362
                    },
                    {
                        "number": 7,
                        "time": 60.5126953125,
                        "value": 0.5511811023622047
                    },
                    {
                        "number": 7,
                        "time": 60.5810546875,
                        "value": 0.5433070866141733
                    },
                    {
                        "number": 7,
                        "time": 60.657958984375,
                        "value": 0.5354330708661418
                    },
                    {
                        "number": 7,
                        "time": 60.726318359375,
                        "value": 0.5275590551181102
                    },
                    {
                        "number": 7,
                        "time": 60.80322265625,
                        "value": 0.5196850393700787
                    },
                    {
                        "number": 7,
                        "time": 60.87158203125,
                        "value": 0.5118110236220472
                    },
                    {
                        "number": 7,
                        "time": 60.948486328125,
                        "value": 0.5039370078740157
                    },
                    {
                        "number": 7,
                        "time": 61.016845703125,
                        "value": 0.49606299212598426
                    },
                    {
                        "number": 7,
                        "time": 61.09375,
                        "value": 0.4881889763779528
                    },
                    {
                        "number": 7,
                        "time": 61.162109375,
                        "value": 0.48031496062992124
                    },
                    {
                        "number": 7,
                        "time": 61.239013671875,
                        "value": 0.47244094488188976
                    },
                    {
                        "number": 7,
                        "time": 61.307373046875,
                        "value": 0.4645669291338583
                    },
                    {
                        "number": 7,
                        "time": 61.38427734375,
                        "value": 0.4566929133858268
                    },
                    {
                        "number": 7,
                        "time": 61.45263671875,
                        "value": 0.44881889763779526
                    },
                    {
                        "number": 7,
                        "time": 61.529541015625,
                        "value": 0.4409448818897638
                    },
                    {
                        "number": 7,
                        "time": 61.597900390625,
                        "value": 0.4330708661417323
                    },
                    {
                        "number": 7,
                        "time": 61.6748046875,
                        "value": 0.4251968503937008
                    },
                    {
                        "number": 7,
                        "time": 61.7431640625,
                        "value": 0.41732283464566927
                    },
                    {
                        "number": 7,
                        "time": 61.820068359375,
                        "value": 0.4094488188976378
                    },
                    {
                        "number": 7,
                        "time": 61.888427734375,
                        "value": 0.4015748031496063
                    },
                    {
                        "number": 7,
                        "time": 61.96533203125,
                        "value": 0.3937007874015748
                    },
                    {
                        "number": 7,
                        "time": 62.03369140625,
                        "value": 0.3858267716535433
                    },
                    {
                        "number": 7,
                        "time": 62.110595703125,
                        "value": 0.3779527559055118
                    },
                    {
                        "number": 7,
                        "time": 62.178955078125,
                        "value": 0.3700787401574803
                    },
                    {
                        "number": 7,
                        "time": 62.255859375,
                        "value": 0.36220472440944884
                    },
                    {
                        "number": 7,
                        "time": 62.32421875,
                        "value": 0.3543307086614173
                    },
                    {
                        "number": 7,
                        "time": 62.401123046875,
                        "value": 0.3464566929133858
                    },
                    {
                        "number": 7,
                        "time": 62.469482421875,
                        "value": 0.33858267716535434
                    },
                    {
                        "number": 7,
                        "time": 62.65625,
                        "value": 0.33858267716535434
                    },
                    {
                        "number": 7,
                        "time": 62.716064453125,
                        "value": 0.33070866141732286
                    },
                    {
                        "number": 7,
                        "time": 62.77587890625,
                        "value": 0.3228346456692913
                    },
                    {
                        "number": 7,
                        "time": 62.8271484375,
                        "value": 0.31496062992125984
                    },
                    {
                        "number": 7,
                        "time": 62.886962890625,
                        "value": 0.30708661417322836
                    },
                    {
                        "number": 7,
                        "time": 62.94677734375,
                        "value": 0.2992125984251969
                    },
                    {
                        "number": 7,
                        "time": 62.998046875,
                        "value": 0.29133858267716534
                    },
                    {
                        "number": 7,
                        "time": 63.057861328125,
                        "value": 0.28346456692913385
                    },
                    {
                        "number": 7,
                        "time": 63.109130859375,
                        "value": 0.2755905511811024
                    },
                    {
                        "number": 7,
                        "time": 80.2734375,
                        "value": 0.41732283464566927
                    },
                    {
                        "number": 7,
                        "time": 80.625,
                        "value": 0.4251968503937008
                    },
                    {
                        "number": 7,
                        "time": 84.1796875,
                        "value": 0.41732283464566927
                    },
                    {
                        "number": 7,
                        "time": 84.67529296875,
                        "value": 0.4094488188976378
                    },
                    {
                        "number": 7,
                        "time": 85.162353515625,
                        "value": 0.4015748031496063
                    },
                    {
                        "number": 7,
                        "time": 85.6494140625,
                        "value": 0.3937007874015748
                    },
                    {
                        "number": 7,
                        "time": 86.136474609375,
                        "value": 0.3858267716535433
                    },
                    {
                        "number": 7,
                        "time": 86.62353515625,
                        "value": 0.3779527559055118
                    },
                    {
                        "number": 7,
                        "time": 87.110595703125,
                        "value": 0.3700787401574803
                    },
                    {
                        "number": 7,
                        "time": 87.59765625,
                        "value": 0.36220472440944884
                    },
                    {
                        "number": 7,
                        "time": 88.125,
                        "value": 0.36220472440944884
                    },
                    {
                        "number": 7,
                        "time": 88.14208984375,
                        "value": 0.3700787401574803
                    },
                    {
                        "number": 7,
                        "time": 88.150634765625,
                        "value": 0.3779527559055118
                    },
                    {
                        "number": 7,
                        "time": 88.167724609375,
                        "value": 0.3858267716535433
                    },
                    {
                        "number": 7,
                        "time": 88.17626953125,
                        "value": 0.3937007874015748
                    },
                    {
                        "number": 7,
                        "time": 88.193359375,
                        "value": 0.4015748031496063
                    },
                    {
                        "number": 7,
                        "time": 88.201904296875,
                        "value": 0.4094488188976378
                    },
                    {
                        "number": 7,
                        "time": 88.218994140625,
                        "value": 0.41732283464566927
                    },
                    {
                        "number": 7,
                        "time": 88.2275390625,
                        "value": 0.4251968503937008
                    },
                    {
                        "number": 7,
                        "time": 88.24462890625,
                        "value": 0.4330708661417323
                    },
                    {
                        "number": 7,
                        "time": 88.253173828125,
                        "value": 0.4409448818897638
                    },
                    {
                        "number": 7,
                        "time": 88.270263671875,
                        "value": 0.44881889763779526
                    },
                    {
                        "number": 7,
                        "time": 88.27880859375,
                        "value": 0.4566929133858268
                    },
                    {
                        "number": 7,
                        "time": 88.2958984375,
                        "value": 0.4645669291338583
                    },
                    {
                        "number": 7,
                        "time": 88.304443359375,
                        "value": 0.47244094488188976
                    },
                    {
                        "number": 7,
                        "time": 88.321533203125,
                        "value": 0.48031496062992124
                    },
                    {
                        "number": 7,
                        "time": 88.330078125,
                        "value": 0.4881889763779528
                    },
                    {
                        "number": 7,
                        "time": 88.34716796875,
                        "value": 0.49606299212598426
                    },
                    {
                        "number": 7,
                        "time": 88.355712890625,
                        "value": 0.5039370078740157
                    },
                    {
                        "number": 7,
                        "time": 88.372802734375,
                        "value": 0.5118110236220472
                    },
                    {
                        "number": 7,
                        "time": 88.38134765625,
                        "value": 0.5196850393700787
                    },
                    {
                        "number": 7,
                        "time": 88.3984375,
                        "value": 0.5275590551181102
                    },
                    {
                        "number": 7,
                        "time": 88.406982421875,
                        "value": 0.5354330708661418
                    },
                    {
                        "number": 7,
                        "time": 88.424072265625,
                        "value": 0.5433070866141733
                    },
                    {
                        "number": 7,
                        "time": 88.4326171875,
                        "value": 0.5511811023622047
                    },
                    {
                        "number": 7,
                        "time": 88.44970703125,
                        "value": 0.5590551181102362
                    },
                    {
                        "number": 7,
                        "time": 88.458251953125,
                        "value": 0.5669291338582677
                    },
                    {
                        "number": 7,
                        "time": 88.475341796875,
                        "value": 0.5748031496062992
                    },
                    {
                        "number": 7,
                        "time": 88.48388671875,
                        "value": 0.5826771653543307
                    },
                    {
                        "number": 7,
                        "time": 88.5009765625,
                        "value": 0.5905511811023622
                    },
                    {
                        "number": 7,
                        "time": 88.509521484375,
                        "value": 0.5984251968503937
                    },
                    {
                        "number": 7,
                        "time": 88.526611328125,
                        "value": 0.6062992125984252
                    },
                    {
                        "number": 7,
                        "time": 88.53515625,
                        "value": 0.6141732283464567
                    },
                    {
                        "number": 7,
                        "time": 88.55224609375,
                        "value": 0.6220472440944882
                    },
                    {
                        "number": 7,
                        "time": 88.560791015625,
                        "value": 0.6299212598425197
                    },
                    {
                        "number": 7,
                        "time": 88.577880859375,
                        "value": 0.6377952755905512
                    },
                    {
                        "number": 7,
                        "time": 88.58642578125,
                        "value": 0.6456692913385826
                    },
                    {
                        "number": 7,
                        "time": 88.603515625,
                        "value": 0.6535433070866141
                    },
                    {
                        "number": 7,
                        "time": 88.612060546875,
                        "value": 0.6614173228346457
                    },
                    {
                        "number": 7,
                        "time": 88.629150390625,
                        "value": 0.6692913385826772
                    },
                    {
                        "number": 7,
                        "time": 88.6376953125,
                        "value": 0.6771653543307087
                    },
                    {
                        "number": 7,
                        "time": 88.65478515625,
                        "value": 0.6850393700787402
                    },
                    {
                        "number": 7,
                        "time": 88.663330078125,
                        "value": 0.6929133858267716
                    },
                    {
                        "number": 7,
                        "time": 88.680419921875,
                        "value": 0.7007874015748031
                    },
                    {
                        "number": 7,
                        "time": 88.68896484375,
                        "value": 0.7086614173228346
                    },
                    {
                        "number": 7,
                        "time": 88.7060546875,
                        "value": 0.7165354330708661
                    },
                    {
                        "number": 7,
                        "time": 88.714599609375,
                        "value": 0.7244094488188977
                    },
                    {
                        "number": 7,
                        "time": 88.731689453125,
                        "value": 0.7322834645669292
                    },
                    {
                        "number": 7,
                        "time": 88.740234375,
                        "value": 0.7401574803149606
                    },
                    {
                        "number": 7,
                        "time": 88.75732421875,
                        "value": 0.7480314960629921
                    },
                    {
                        "number": 7,
                        "time": 88.765869140625,
                        "value": 0.7559055118110236
                    },
                    {
                        "number": 7,
                        "time": 88.782958984375,
                        "value": 0.7637795275590551
                    },
                    {
                        "number": 7,
                        "time": 88.79150390625,
                        "value": 0.7716535433070866
                    },
                    {
                        "number": 7,
                        "time": 88.80859375,
                        "value": 0.7795275590551181
                    },
                    {
                        "number": 7,
                        "time": 88.817138671875,
                        "value": 0.7874015748031497
                    },
                    {
                        "number": 7,
                        "time": 88.834228515625,
                        "value": 0.7952755905511811
                    },
                    {
                        "number": 7,
                        "time": 88.8427734375,
                        "value": 0.8031496062992126
                    },
                    {
                        "number": 7,
                        "time": 88.85986328125,
                        "value": 0.8110236220472441
                    },
                    {
                        "number": 7,
                        "time": 88.868408203125,
                        "value": 0.8188976377952756
                    },
                    {
                        "number": 7,
                        "time": 88.885498046875,
                        "value": 0.8267716535433071
                    },
                    {
                        "number": 7,
                        "time": 88.89404296875,
                        "value": 0.8346456692913385
                    }
                ],
                "10": [
                    {
                        "number": 10,
                        "time": 0,
                        "value": 0.7086614173228346
                    }
                ],
                "91": [
                    {
                        "number": 91,
                        "time": 0,
                        "value": 0.7874015748031497
                    }
                ],
                "93": [
                    {
                        "number": 93,
                        "time": 0,
                        "value": 1
                    }
                ],
                "121": [
                    {
                        "number": 121,
                        "time": 0,
                        "value": 1
                    },
                    {
                        "number": 121,
                        "time": 96.875,
                        "value": 1
                    }
                ]
            },
            "id": 4,
            "name": "Basses",
            "instrumentNumber": 53,
            "instrument": "voice oohs",
            "instrumentFamily": "ensemble",
            "channelNumber": 4,
            "isPercussion": false
        },
        {
            "startTime": 0.625,
            "duration": 95.625,
            "length": 204,
            "notes": [
                {
                    "name": "C5",
                    "midi": 72,
                    "time": 0.625,
                    "velocity": 0.7007874015748031,
                    "duration": 0.625
                },
                {
                    "name": "A#4",
                    "midi": 70,
                    "time": 1.25,
                    "velocity": 0.7007874015748031,
                    "duration": 0.9375
                },
                {
                    "name": "D#5",
                    "midi": 75,
                    "time": 2.1875,
                    "velocity": 0.7007874015748031,
                    "duration": 0.3125
                },
                {
                    "name": "C#5",
                    "midi": 73,
                    "time": 2.5,
                    "velocity": 0.7007874015748031,
                    "duration": 0.3125
                },
                {
                    "name": "C5",
                    "midi": 72,
                    "time": 2.8125,
                    "velocity": 0.7007874015748031,
                    "duration": 0.3125
                },
                {
                    "name": "A#4",
                    "midi": 70,
                    "time": 3.125,
                    "velocity": 0.7007874015748031,
                    "duration": 0.3125
                },
                {
                    "name": "G#4",
                    "midi": 68,
                    "time": 3.4375,
                    "velocity": 0.7007874015748031,
                    "duration": 0.3125
                },
                {
                    "name": "C5",
                    "midi": 72,
                    "time": 3.75,
                    "velocity": 0.7007874015748031,
                    "duration": 0.4998779296875
                },
                {
                    "name": "F4",
                    "midi": 65,
                    "time": 4.375,
                    "velocity": 0.7007874015748031,
                    "duration": 0.3125
                },
                {
                    "name": "G#4",
                    "midi": 68,
                    "time": 4.6875,
                    "velocity": 0.7007874015748031,
                    "duration": 0.3125
                },
                {
                    "name": "A#4",
                    "midi": 70,
                    "time": 5,
                    "velocity": 0.7007874015748031,
                    "duration": 0.625
                },
                {
                    "name": "C5",
                    "midi": 72,
                    "time": 5.625,
                    "velocity": 0.7007874015748031,
                    "duration": 0.9375
                },
                {
                    "name": "G4",
                    "midi": 67,
                    "time": 6.5625,
                    "velocity": 0.7007874015748031,
                    "duration": 0.3125
                },
                {
                    "name": "G#4",
                    "midi": 68,
                    "time": 6.875,
                    "velocity": 0.7007874015748031,
                    "duration": 0.3125
                },
                {
                    "name": "G4",
                    "midi": 67,
                    "time": 7.1875,
                    "velocity": 0.7007874015748031,
                    "duration": 0.3125
                },
                {
                    "name": "D#4",
                    "midi": 63,
                    "time": 7.5,
                    "velocity": 0.7007874015748031,
                    "duration": 0.625
                },
                {
                    "name": "C4",
                    "midi": 60,
                    "time": 8.125,
                    "velocity": 0.7007874015748031,
                    "duration": 0.4998779296875
                },
                {
                    "name": "C5",
                    "midi": 72,
                    "time": 8.75,
                    "velocity": 0.7007874015748031,
                    "duration": 0.625
                },
                {
                    "name": "A#4",
                    "midi": 70,
                    "time": 9.375,
                    "velocity": 0.7007874015748031,
                    "duration": 0.9375
                },
                {
                    "name": "D#5",
                    "midi": 75,
                    "time": 10.3125,
                    "velocity": 0.7007874015748031,
                    "duration": 0.3125
                },
                {
                    "name": "C#5",
                    "midi": 73,
                    "time": 10.625,
                    "velocity": 0.7007874015748031,
                    "duration": 0.3125
                },
                {
                    "name": "C5",
                    "midi": 72,
                    "time": 10.9375,
                    "velocity": 0.7007874015748031,
                    "duration": 0.3125
                },
                {
                    "name": "A#4",
                    "midi": 70,
                    "time": 11.25,
                    "velocity": 0.7007874015748031,
                    "duration": 0.3125
                },
                {
                    "name": "G#4",
                    "midi": 68,
                    "time": 11.5625,
                    "velocity": 0.7007874015748031,
                    "duration": 0.3125
                },
                {
                    "name": "C5",
                    "midi": 72,
                    "time": 11.875,
                    "velocity": 0.7007874015748031,
                    "duration": 0.4998779296875
                },
                {
                    "name": "F4",
                    "midi": 65,
                    "time": 12.5,
                    "velocity": 0.7007874015748031,
                    "duration": 0.3125
                },
                {
                    "name": "G#4",
                    "midi": 68,
                    "time": 12.8125,
                    "velocity": 0.7007874015748031,
                    "duration": 0.3125
                },
                {
                    "name": "A#4",
                    "midi": 70,
                    "time": 13.125,
                    "velocity": 0.7007874015748031,
                    "duration": 0.625
                },
                {
                    "name": "C5",
                    "midi": 72,
                    "time": 13.75,
                    "velocity": 0.7007874015748031,
                    "duration": 0.625
                },
                {
                    "name": "G4",
                    "midi": 67,
                    "time": 14.375,
                    "velocity": 0.7007874015748031,
                    "duration": 0.625
                },
                {
                    "name": "F4",
                    "midi": 65,
                    "time": 15,
                    "velocity": 0.7007874015748031,
                    "duration": 0.9375
                },
                {
                    "name": "G#4",
                    "midi": 68,
                    "time": 16.25,
                    "velocity": 0.7007874015748031,
                    "duration": 0.3125
                },
                {
                    "name": "A#4",
                    "midi": 70,
                    "time": 16.5625,
                    "velocity": 0.7007874015748031,
                    "duration": 0.3125
                },
                {
                    "name": "C5",
                    "midi": 72,
                    "time": 16.875,
                    "velocity": 0.7007874015748031,
                    "duration": 0.625
                },
                {
                    "name": "D#5",
                    "midi": 75,
                    "time": 17.5,
                    "velocity": 0.7007874015748031,
                    "duration": 0.3125
                },
                {
                    "name": "F5",
                    "midi": 77,
                    "time": 17.8125,
                    "velocity": 0.7007874015748031,
                    "duration": 0.3125
                },
                {
                    "name": "D#5",
                    "midi": 75,
                    "time": 18.125,
                    "velocity": 0.7007874015748031,
                    "duration": 0.3125
                },
                {
                    "name": "A#4",
                    "midi": 70,
                    "time": 18.4375,
                    "velocity": 0.7007874015748031,
                    "duration": 0.3125
                },
                {
                    "name": "F5",
                    "midi": 77,
                    "time": 18.75,
                    "velocity": 0.7007874015748031,
                    "duration": 0.3125
                },
                {
                    "name": "C5",
                    "midi": 72,
                    "time": 19.0625,
                    "velocity": 0.7007874015748031,
                    "duration": 0.3125
                },
                {
                    "name": "C5",
                    "midi": 72,
                    "time": 19.375,
                    "velocity": 0.7007874015748031,
                    "duration": 0.4376220703125
                },
                {
                    "name": "D#5",
                    "midi": 75,
                    "time": 20,
                    "velocity": 0.7007874015748031,
                    "duration": 0.3125
                },
                {
                    "name": "C5",
                    "midi": 72,
                    "time": 20.3125,
                    "velocity": 0.7007874015748031,
                    "duration": 0.3125
                },
                {
                    "name": "G4",
                    "midi": 67,
                    "time": 20.625,
                    "velocity": 0.7007874015748031,
                    "duration": 0.625
                },
                {
                    "name": "F4",
                    "midi": 65,
                    "time": 21.25,
                    "velocity": 0.7007874015748031,
                    "duration": 0.3125
                },
                {
                    "name": "G4",
                    "midi": 67,
                    "time": 21.5625,
                    "velocity": 0.7007874015748031,
                    "duration": 0.3125
                },
                {
                    "name": "D#5",
                    "midi": 75,
                    "time": 21.875,
                    "velocity": 0.7007874015748031,
                    "duration": 0.3125
                },
                {
                    "name": "C5",
                    "midi": 72,
                    "time": 22.1875,
                    "velocity": 0.7007874015748031,
                    "duration": 0.3125
                },
                {
                    "name": "G4",
                    "midi": 67,
                    "time": 22.5,
                    "velocity": 0.7007874015748031,
                    "duration": 0.625
                },
                {
                    "name": "F4",
                    "midi": 65,
                    "time": 23.125,
                    "velocity": 0.7007874015748031,
                    "duration": 0.4376220703125
                },
                {
                    "name": "D#4",
                    "midi": 63,
                    "time": 23.75,
                    "velocity": 0.7007874015748031,
                    "duration": 0.3125
                },
                {
                    "name": "F4",
                    "midi": 65,
                    "time": 24.0625,
                    "velocity": 0.7007874015748031,
                    "duration": 0.3125
                },
                {
                    "name": "G4",
                    "midi": 67,
                    "time": 24.375,
                    "velocity": 0.7007874015748031,
                    "duration": 0.625
                },
                {
                    "name": "A#4",
                    "midi": 70,
                    "time": 25,
                    "velocity": 0.7007874015748031,
                    "duration": 0.3125
                },
                {
                    "name": "C5",
                    "midi": 72,
                    "time": 25.3125,
                    "velocity": 0.7007874015748031,
                    "duration": 0.3125
                },
                {
                    "name": "A#4",
                    "midi": 70,
                    "time": 25.625,
                    "velocity": 0.7007874015748031,
                    "duration": 0.3125
                },
                {
                    "name": "F4",
                    "midi": 65,
                    "time": 25.9375,
                    "velocity": 0.7007874015748031,
                    "duration": 0.3125
                },
                {
                    "name": "C5",
                    "midi": 72,
                    "time": 26.25,
                    "velocity": 0.7007874015748031,
                    "duration": 0.3125
                },
                {
                    "name": "G4",
                    "midi": 67,
                    "time": 26.5625,
                    "velocity": 0.7007874015748031,
                    "duration": 0.3125
                },
                {
                    "name": "G4",
                    "midi": 67,
                    "time": 26.875,
                    "velocity": 0.7007874015748031,
                    "duration": 0.3125
                },
                {
                    "name": "G4",
                    "midi": 67,
                    "time": 27.1875,
                    "velocity": 0.7007874015748031,
                    "duration": 0.218505859375
                },
                {
                    "name": "A#4",
                    "midi": 70,
                    "time": 27.5,
                    "velocity": 0.7007874015748031,
                    "duration": 0.3125
                },
                {
                    "name": "F4",
                    "midi": 65,
                    "time": 27.8125,
                    "velocity": 0.7007874015748031,
                    "duration": 0.3125
                },
                {
                    "name": "D4",
                    "midi": 62,
                    "time": 28.125,
                    "velocity": 0.7007874015748031,
                    "duration": 0.3125
                },
                {
                    "name": "F4",
                    "midi": 65,
                    "time": 28.4375,
                    "velocity": 0.7007874015748031,
                    "duration": 0.3125
                },
                {
                    "name": "G4",
                    "midi": 67,
                    "time": 28.75,
                    "velocity": 0.7007874015748031,
                    "duration": 0.3125
                },
                {
                    "name": "A#4",
                    "midi": 70,
                    "time": 29.0625,
                    "velocity": 0.7007874015748031,
                    "duration": 0.3125
                },
                {
                    "name": "D5",
                    "midi": 74,
                    "time": 29.375,
                    "velocity": 0.7007874015748031,
                    "duration": 0.625
                },
                {
                    "name": "A#4",
                    "midi": 70,
                    "time": 30,
                    "velocity": 0.7007874015748031,
                    "duration": 0.3125
                },
                {
                    "name": "D5",
                    "midi": 74,
                    "time": 30.3125,
                    "velocity": 0.7007874015748031,
                    "duration": 0.3125
                },
                {
                    "name": "C5",
                    "midi": 72,
                    "time": 30.625,
                    "velocity": 0.7007874015748031,
                    "duration": 1.25
                },
                {
                    "name": "C5",
                    "midi": 72,
                    "time": 32.5,
                    "velocity": 0.7007874015748031,
                    "duration": 0.625
                },
                {
                    "name": "A#4",
                    "midi": 70,
                    "time": 33.125,
                    "velocity": 0.7007874015748031,
                    "duration": 0.9375
                },
                {
                    "name": "D#5",
                    "midi": 75,
                    "time": 34.0625,
                    "velocity": 0.7007874015748031,
                    "duration": 0.3125
                },
                {
                    "name": "C#5",
                    "midi": 73,
                    "time": 34.375,
                    "velocity": 0.7007874015748031,
                    "duration": 0.3125
                },
                {
                    "name": "C5",
                    "midi": 72,
                    "time": 34.6875,
                    "velocity": 0.7007874015748031,
                    "duration": 0.3125
                },
                {
                    "name": "A#4",
                    "midi": 70,
                    "time": 35,
                    "velocity": 0.7007874015748031,
                    "duration": 0.3125
                },
                {
                    "name": "G#4",
                    "midi": 68,
                    "time": 35.3125,
                    "velocity": 0.7007874015748031,
                    "duration": 0.3125
                },
                {
                    "name": "C5",
                    "midi": 72,
                    "time": 35.625,
                    "velocity": 0.7007874015748031,
                    "duration": 0.4998779296875
                },
                {
                    "name": "F4",
                    "midi": 65,
                    "time": 36.25,
                    "velocity": 0.7007874015748031,
                    "duration": 0.3125
                },
                {
                    "name": "G#4",
                    "midi": 68,
                    "time": 36.5625,
                    "velocity": 0.7007874015748031,
                    "duration": 0.3125
                },
                {
                    "name": "A#4",
                    "midi": 70,
                    "time": 36.875,
                    "velocity": 0.7007874015748031,
                    "duration": 0.625
                },
                {
                    "name": "C5",
                    "midi": 72,
                    "time": 37.5,
                    "velocity": 0.7007874015748031,
                    "duration": 0.9375
                },
                {
                    "name": "G4",
                    "midi": 67,
                    "time": 38.4375,
                    "velocity": 0.7007874015748031,
                    "duration": 0.3125
                },
                {
                    "name": "G#4",
                    "midi": 68,
                    "time": 38.75,
                    "velocity": 0.7007874015748031,
                    "duration": 0.3125
                },
                {
                    "name": "G4",
                    "midi": 67,
                    "time": 39.0625,
                    "velocity": 0.7007874015748031,
                    "duration": 0.3125
                },
                {
                    "name": "D#4",
                    "midi": 63,
                    "time": 39.375,
                    "velocity": 0.7007874015748031,
                    "duration": 0.625
                },
                {
                    "name": "C4",
                    "midi": 60,
                    "time": 40,
                    "velocity": 0.7007874015748031,
                    "duration": 0.4998779296875
                },
                {
                    "name": "C5",
                    "midi": 72,
                    "time": 40.625,
                    "velocity": 0.7007874015748031,
                    "duration": 0.625
                },
                {
                    "name": "A#4",
                    "midi": 70,
                    "time": 41.25,
                    "velocity": 0.7007874015748031,
                    "duration": 0.9375
                },
                {
                    "name": "D#5",
                    "midi": 75,
                    "time": 42.1875,
                    "velocity": 0.7007874015748031,
                    "duration": 0.3125
                },
                {
                    "name": "C#5",
                    "midi": 73,
                    "time": 42.5,
                    "velocity": 0.7007874015748031,
                    "duration": 0.3125
                },
                {
                    "name": "C5",
                    "midi": 72,
                    "time": 42.8125,
                    "velocity": 0.7007874015748031,
                    "duration": 0.3125
                },
                {
                    "name": "A#4",
                    "midi": 70,
                    "time": 43.125,
                    "velocity": 0.7007874015748031,
                    "duration": 0.3125
                },
                {
                    "name": "G#4",
                    "midi": 68,
                    "time": 43.4375,
                    "velocity": 0.7007874015748031,
                    "duration": 0.3125
                },
                {
                    "name": "C5",
                    "midi": 72,
                    "time": 43.75,
                    "velocity": 0.7007874015748031,
                    "duration": 0.4998779296875
                },
                {
                    "name": "F4",
                    "midi": 65,
                    "time": 44.375,
                    "velocity": 0.7007874015748031,
                    "duration": 0.3125
                },
                {
                    "name": "G#4",
                    "midi": 68,
                    "time": 44.6875,
                    "velocity": 0.7007874015748031,
                    "duration": 0.3125
                },
                {
                    "name": "A#4",
                    "midi": 70,
                    "time": 45,
                    "velocity": 0.7007874015748031,
                    "duration": 0.625
                },
                {
                    "name": "C5",
                    "midi": 72,
                    "time": 45.625,
                    "velocity": 0.7007874015748031,
                    "duration": 0.625
                },
                {
                    "name": "G4",
                    "midi": 67,
                    "time": 46.25,
                    "velocity": 0.7007874015748031,
                    "duration": 0.625
                },
                {
                    "name": "F4",
                    "midi": 65,
                    "time": 46.875,
                    "velocity": 0.7007874015748031,
                    "duration": 0.9375
                },
                {
                    "name": "G#3",
                    "midi": 56,
                    "time": 48.125,
                    "velocity": 0.7007874015748031,
                    "duration": 0.3125
                },
                {
                    "name": "A#3",
                    "midi": 58,
                    "time": 48.4375,
                    "velocity": 0.7007874015748031,
                    "duration": 0.3125
                },
                {
                    "name": "C4",
                    "midi": 60,
                    "time": 48.75,
                    "velocity": 0.7007874015748031,
                    "duration": 0.625
                },
                {
                    "name": "D#4",
                    "midi": 63,
                    "time": 49.375,
                    "velocity": 0.7007874015748031,
                    "duration": 0.3125
                },
                {
                    "name": "F4",
                    "midi": 65,
                    "time": 49.6875,
                    "velocity": 0.7007874015748031,
                    "duration": 0.3125
                },
                {
                    "name": "D#4",
                    "midi": 63,
                    "time": 50,
                    "velocity": 0.7007874015748031,
                    "duration": 0.3125
                },
                {
                    "name": "A#3",
                    "midi": 58,
                    "time": 50.3125,
                    "velocity": 0.7007874015748031,
                    "duration": 0.3125
                },
                {
                    "name": "F4",
                    "midi": 65,
                    "time": 50.625,
                    "velocity": 0.7007874015748031,
                    "duration": 0.3125
                },
                {
                    "name": "C4",
                    "midi": 60,
                    "time": 50.9375,
                    "velocity": 0.7007874015748031,
                    "duration": 0.3125
                },
                {
                    "name": "C4",
                    "midi": 60,
                    "time": 51.25,
                    "velocity": 0.7007874015748031,
                    "duration": 0.4376220703125
                },
                {
                    "name": "D#4",
                    "midi": 63,
                    "time": 51.875,
                    "velocity": 0.7007874015748031,
                    "duration": 0.3125
                },
                {
                    "name": "F4",
                    "midi": 65,
                    "time": 52.1875,
                    "velocity": 0.7007874015748031,
                    "duration": 0.3125
                },
                {
                    "name": "G4",
                    "midi": 67,
                    "time": 52.5,
                    "velocity": 0.7007874015748031,
                    "duration": 0.625
                },
                {
                    "name": "F4",
                    "midi": 65,
                    "time": 53.125,
                    "velocity": 0.7007874015748031,
                    "duration": 0.3125
                },
                {
                    "name": "D#4",
                    "midi": 63,
                    "time": 53.4375,
                    "velocity": 0.7007874015748031,
                    "duration": 0.3125
                },
                {
                    "name": "A#3",
                    "midi": 58,
                    "time": 53.75,
                    "velocity": 0.7007874015748031,
                    "duration": 0.3125
                },
                {
                    "name": "C4",
                    "midi": 60,
                    "time": 54.0625,
                    "velocity": 0.7007874015748031,
                    "duration": 0.3125
                },
                {
                    "name": "G4",
                    "midi": 67,
                    "time": 54.375,
                    "velocity": 0.7007874015748031,
                    "duration": 0.625
                },
                {
                    "name": "F4",
                    "midi": 65,
                    "time": 55,
                    "velocity": 0.7007874015748031,
                    "duration": 0.4376220703125
                },
                {
                    "name": "D#4",
                    "midi": 63,
                    "time": 55.625,
                    "velocity": 0.7007874015748031,
                    "duration": 0.3125
                },
                {
                    "name": "F4",
                    "midi": 65,
                    "time": 55.9375,
                    "velocity": 0.7007874015748031,
                    "duration": 0.3125
                },
                {
                    "name": "G4",
                    "midi": 67,
                    "time": 56.25,
                    "velocity": 0.7007874015748031,
                    "duration": 0.625
                },
                {
                    "name": "A#4",
                    "midi": 70,
                    "time": 56.875,
                    "velocity": 0.7007874015748031,
                    "duration": 0.3125
                },
                {
                    "name": "C5",
                    "midi": 72,
                    "time": 57.1875,
                    "velocity": 0.7007874015748031,
                    "duration": 0.3125
                },
                {
                    "name": "A#4",
                    "midi": 70,
                    "time": 57.5,
                    "velocity": 0.7007874015748031,
                    "duration": 0.3125
                },
                {
                    "name": "F4",
                    "midi": 65,
                    "time": 57.8125,
                    "velocity": 0.7007874015748031,
                    "duration": 0.3125
                },
                {
                    "name": "C5",
                    "midi": 72,
                    "time": 58.125,
                    "velocity": 0.7007874015748031,
                    "duration": 0.3125
                },
                {
                    "name": "G4",
                    "midi": 67,
                    "time": 58.4375,
                    "velocity": 0.7007874015748031,
                    "duration": 0.3125
                },
                {
                    "name": "D#5",
                    "midi": 75,
                    "time": 58.75,
                    "velocity": 0.7007874015748031,
                    "duration": 0.3125
                },
                {
                    "name": "D#5",
                    "midi": 75,
                    "time": 59.0625,
                    "velocity": 0.5826771653543307,
                    "duration": 0.218505859375
                },
                {
                    "name": "A#4",
                    "midi": 70,
                    "time": 59.375,
                    "velocity": 0.7007874015748031,
                    "duration": 0.3125
                },
                {
                    "name": "C5",
                    "midi": 72,
                    "time": 59.6875,
                    "velocity": 0.7007874015748031,
                    "duration": 0.3125
                },
                {
                    "name": "D5",
                    "midi": 74,
                    "time": 60,
                    "velocity": 0.7007874015748031,
                    "duration": 0.3125
                },
                {
                    "name": "A#4",
                    "midi": 70,
                    "time": 60.3125,
                    "velocity": 0.7007874015748031,
                    "duration": 0.3125
                },
                {
                    "name": "F4",
                    "midi": 65,
                    "time": 60.625,
                    "velocity": 0.7007874015748031,
                    "duration": 0.3125
                },
                {
                    "name": "D4",
                    "midi": 62,
                    "time": 60.9375,
                    "velocity": 0.7007874015748031,
                    "duration": 0.3125
                },
                {
                    "name": "D4",
                    "midi": 62,
                    "time": 61.25,
                    "velocity": 0.7007874015748031,
                    "duration": 0.625
                },
                {
                    "name": "A#3",
                    "midi": 58,
                    "time": 61.875,
                    "velocity": 0.7007874015748031,
                    "duration": 0.3125
                },
                {
                    "name": "D4",
                    "midi": 62,
                    "time": 62.1875,
                    "velocity": 0.7007874015748031,
                    "duration": 0.3125
                },
                {
                    "name": "C4",
                    "midi": 60,
                    "time": 62.5,
                    "velocity": 0.7007874015748031,
                    "duration": 0.9375
                },
                {
                    "name": "C5",
                    "midi": 72,
                    "time": 64.375,
                    "velocity": 0.7007874015748031,
                    "duration": 0.625
                },
                {
                    "name": "A#4",
                    "midi": 70,
                    "time": 65,
                    "velocity": 0.7007874015748031,
                    "duration": 0.9375
                },
                {
                    "name": "D#5",
                    "midi": 75,
                    "time": 65.9375,
                    "velocity": 0.7007874015748031,
                    "duration": 0.3125
                },
                {
                    "name": "C#5",
                    "midi": 73,
                    "time": 66.25,
                    "velocity": 0.7007874015748031,
                    "duration": 0.3125
                },
                {
                    "name": "C5",
                    "midi": 72,
                    "time": 66.5625,
                    "velocity": 0.7007874015748031,
                    "duration": 0.3125
                },
                {
                    "name": "A#4",
                    "midi": 70,
                    "time": 66.875,
                    "velocity": 0.7007874015748031,
                    "duration": 0.3125
                },
                {
                    "name": "G#4",
                    "midi": 68,
                    "time": 67.1875,
                    "velocity": 0.7007874015748031,
                    "duration": 0.3125
                },
                {
                    "name": "C5",
                    "midi": 72,
                    "time": 67.5,
                    "velocity": 0.7007874015748031,
                    "duration": 0.4998779296875
                },
                {
                    "name": "F4",
                    "midi": 65,
                    "time": 68.125,
                    "velocity": 0.7007874015748031,
                    "duration": 0.3125
                },
                {
                    "name": "G#4",
                    "midi": 68,
                    "time": 68.4375,
                    "velocity": 0.7007874015748031,
                    "duration": 0.3125
                },
                {
                    "name": "A#4",
                    "midi": 70,
                    "time": 68.75,
                    "velocity": 0.7007874015748031,
                    "duration": 0.625
                },
                {
                    "name": "C5",
                    "midi": 72,
                    "time": 69.375,
                    "velocity": 0.7007874015748031,
                    "duration": 0.9375
                },
                {
                    "name": "G4",
                    "midi": 67,
                    "time": 70.3125,
                    "velocity": 0.7007874015748031,
                    "duration": 0.3125
                },
                {
                    "name": "G#4",
                    "midi": 68,
                    "time": 70.625,
                    "velocity": 0.7007874015748031,
                    "duration": 0.3125
                },
                {
                    "name": "G4",
                    "midi": 67,
                    "time": 70.9375,
                    "velocity": 0.7007874015748031,
                    "duration": 0.3125
                },
                {
                    "name": "D#4",
                    "midi": 63,
                    "time": 71.25,
                    "velocity": 0.7007874015748031,
                    "duration": 0.625
                },
                {
                    "name": "C4",
                    "midi": 60,
                    "time": 71.875,
                    "velocity": 0.7007874015748031,
                    "duration": 0.4998779296875
                },
                {
                    "name": "C5",
                    "midi": 72,
                    "time": 72.5,
                    "velocity": 0.7007874015748031,
                    "duration": 0.625
                },
                {
                    "name": "A#4",
                    "midi": 70,
                    "time": 73.125,
                    "velocity": 0.7007874015748031,
                    "duration": 0.9375
                },
                {
                    "name": "D#5",
                    "midi": 75,
                    "time": 74.0625,
                    "velocity": 0.7007874015748031,
                    "duration": 0.3125
                },
                {
                    "name": "C#5",
                    "midi": 73,
                    "time": 74.375,
                    "velocity": 0.7007874015748031,
                    "duration": 0.3125
                },
                {
                    "name": "C5",
                    "midi": 72,
                    "time": 74.6875,
                    "velocity": 0.7007874015748031,
                    "duration": 0.3125
                },
                {
                    "name": "A#4",
                    "midi": 70,
                    "time": 75,
                    "velocity": 0.7007874015748031,
                    "duration": 0.3125
                },
                {
                    "name": "G#4",
                    "midi": 68,
                    "time": 75.3125,
                    "velocity": 0.7007874015748031,
                    "duration": 0.3125
                },
                {
                    "name": "C5",
                    "midi": 72,
                    "time": 75.625,
                    "velocity": 0.7007874015748031,
                    "duration": 0.4998779296875
                },
                {
                    "name": "F4",
                    "midi": 65,
                    "time": 76.25,
                    "velocity": 0.7007874015748031,
                    "duration": 0.3125
                },
                {
                    "name": "G#4",
                    "midi": 68,
                    "time": 76.5625,
                    "velocity": 0.7007874015748031,
                    "duration": 0.3125
                },
                {
                    "name": "A#4",
                    "midi": 70,
                    "time": 76.875,
                    "velocity": 0.7007874015748031,
                    "duration": 0.625
                },
                {
                    "name": "C5",
                    "midi": 72,
                    "time": 77.5,
                    "velocity": 0.7007874015748031,
                    "duration": 0.625
                },
                {
                    "name": "G4",
                    "midi": 67,
                    "time": 78.125,
                    "velocity": 0.7007874015748031,
                    "duration": 0.625
                },
                {
                    "name": "F4",
                    "midi": 65,
                    "time": 78.75,
                    "velocity": 0.7007874015748031,
                    "duration": 1.5625
                },
                {
                    "name": "C4",
                    "midi": 60,
                    "time": 80.625,
                    "velocity": 0.7007874015748031,
                    "duration": 0.625
                },
                {
                    "name": "A#3",
                    "midi": 58,
                    "time": 81.25,
                    "velocity": 0.7007874015748031,
                    "duration": 0.9375
                },
                {
                    "name": "D#4",
                    "midi": 63,
                    "time": 82.1875,
                    "velocity": 0.7007874015748031,
                    "duration": 0.3125
                },
                {
                    "name": "C#4",
                    "midi": 61,
                    "time": 82.5,
                    "velocity": 0.7007874015748031,
                    "duration": 0.3125
                },
                {
                    "name": "C4",
                    "midi": 60,
                    "time": 82.8125,
                    "velocity": 0.7007874015748031,
                    "duration": 0.3125
                },
                {
                    "name": "A#3",
                    "midi": 58,
                    "time": 83.125,
                    "velocity": 0.7007874015748031,
                    "duration": 0.3125
                },
                {
                    "name": "G#3",
                    "midi": 56,
                    "time": 83.4375,
                    "velocity": 0.7007874015748031,
                    "duration": 0.3125
                },
                {
                    "name": "C4",
                    "midi": 60,
                    "time": 83.75,
                    "velocity": 0.7007874015748031,
                    "duration": 0.4998779296875
                },
                {
                    "name": "F3",
                    "midi": 53,
                    "time": 84.375,
                    "velocity": 0.7007874015748031,
                    "duration": 0.3125
                },
                {
                    "name": "G#3",
                    "midi": 56,
                    "time": 84.6875,
                    "velocity": 0.7007874015748031,
                    "duration": 0.3125
                },
                {
                    "name": "A#3",
                    "midi": 58,
                    "time": 85,
                    "velocity": 0.7007874015748031,
                    "duration": 0.625
                },
                {
                    "name": "C4",
                    "midi": 60,
                    "time": 85.625,
                    "velocity": 0.7007874015748031,
                    "duration": 0.9375
                },
                {
                    "name": "G3",
                    "midi": 55,
                    "time": 86.5625,
                    "velocity": 0.7007874015748031,
                    "duration": 0.3125
                },
                {
                    "name": "G#3",
                    "midi": 56,
                    "time": 86.875,
                    "velocity": 0.7007874015748031,
                    "duration": 0.3125
                },
                {
                    "name": "G3",
                    "midi": 55,
                    "time": 87.1875,
                    "velocity": 0.7007874015748031,
                    "duration": 0.3125
                },
                {
                    "name": "D#3",
                    "midi": 51,
                    "time": 87.5,
                    "velocity": 0.7007874015748031,
                    "duration": 0.625
                },
                {
                    "name": "C3",
                    "midi": 48,
                    "time": 88.125,
                    "velocity": 0.7007874015748031,
                    "duration": 0.4998779296875
                },
                {
                    "name": "C5",
                    "midi": 72,
                    "time": 89.0625,
                    "velocity": 0.7007874015748031,
                    "duration": 0.625
                },
                {
                    "name": "A#4",
                    "midi": 70,
                    "time": 89.6875,
                    "velocity": 0.7007874015748031,
                    "duration": 0.625
                },
                {
                    "name": "D#5",
                    "midi": 75,
                    "time": 90.3125,
                    "velocity": 0.7007874015748031,
                    "duration": 0.3125
                },
                {
                    "name": "C#5",
                    "midi": 73,
                    "time": 90.625,
                    "velocity": 0.7007874015748031,
                    "duration": 0.3125
                },
                {
                    "name": "C5",
                    "midi": 72,
                    "time": 90.9375,
                    "velocity": 0.7007874015748031,
                    "duration": 0.3125
                },
                {
                    "name": "A#4",
                    "midi": 70,
                    "time": 91.25,
                    "velocity": 0.7007874015748031,
                    "duration": 0.3125
                },
                {
                    "name": "G#4",
                    "midi": 68,
                    "time": 91.5625,
                    "velocity": 0.7007874015748031,
                    "duration": 0.3125
                },
                {
                    "name": "C5",
                    "midi": 72,
                    "time": 91.875,
                    "velocity": 0.7007874015748031,
                    "duration": 0.4998779296875
                },
                {
                    "name": "F4",
                    "midi": 65,
                    "time": 92.5,
                    "velocity": 0.7007874015748031,
                    "duration": 0.3125
                },
                {
                    "name": "G#4",
                    "midi": 68,
                    "time": 92.8125,
                    "velocity": 0.7007874015748031,
                    "duration": 0.3125
                },
                {
                    "name": "A#4",
                    "midi": 70,
                    "time": 93.125,
                    "velocity": 0.7007874015748031,
                    "duration": 0.625
                },
                {
                    "name": "C5",
                    "midi": 72,
                    "time": 93.75,
                    "velocity": 0.7007874015748031,
                    "duration": 0.9375
                },
                {
                    "name": "G4",
                    "midi": 67,
                    "time": 94.6875,
                    "velocity": 0.7007874015748031,
                    "duration": 0.3125
                },
                {
                    "name": "F4",
                    "midi": 65,
                    "time": 95,
                    "velocity": 0.7007874015748031,
                    "duration": 0.625
                }
            ],
            "controlChanges": {
                "1": [
                    {
                        "number": 1,
                        "time": 0,
                        "value": 0.07874015748031496
                    }
                ],
                "7": [
                    {
                        "number": 7,
                        "time": 0.56640625,
                        "value": 0.3937007874015748
                    },
                    {
                        "number": 7,
                        "time": 0.72265625,
                        "value": 0.4094488188976378
                    },
                    {
                        "number": 7,
                        "time": 0.8416748046875,
                        "value": 0.41732283464566927
                    },
                    {
                        "number": 7,
                        "time": 0.9600830078125,
                        "value": 0.4251968503937008
                    },
                    {
                        "number": 7,
                        "time": 1.0784912109375,
                        "value": 0.4330708661417323
                    },
                    {
                        "number": 7,
                        "time": 1.1968994140625,
                        "value": 0.4409448818897638
                    },
                    {
                        "number": 7,
                        "time": 1.3153076171875,
                        "value": 0.44881889763779526
                    },
                    {
                        "number": 7,
                        "time": 1.4337158203125,
                        "value": 0.4566929133858268
                    },
                    {
                        "number": 7,
                        "time": 1.5521240234375,
                        "value": 0.4645669291338583
                    },
                    {
                        "number": 7,
                        "time": 1.671142578125,
                        "value": 0.47244094488188976
                    },
                    {
                        "number": 7,
                        "time": 1.78955078125,
                        "value": 0.48031496062992124
                    },
                    {
                        "number": 7,
                        "time": 1.907958984375,
                        "value": 0.4881889763779528
                    },
                    {
                        "number": 7,
                        "time": 2.0263671875,
                        "value": 0.49606299212598426
                    },
                    {
                        "number": 7,
                        "time": 2.144775390625,
                        "value": 0.5039370078740157
                    },
                    {
                        "number": 7,
                        "time": 2.26318359375,
                        "value": 0.5118110236220472
                    },
                    {
                        "number": 7,
                        "time": 2.381591796875,
                        "value": 0.5196850393700787
                    },
                    {
                        "number": 7,
                        "time": 2.5,
                        "value": 0.5275590551181102
                    },
                    {
                        "number": 7,
                        "time": 2.5848388671875,
                        "value": 0.5196850393700787
                    },
                    {
                        "number": 7,
                        "time": 2.669677734375,
                        "value": 0.5118110236220472
                    },
                    {
                        "number": 7,
                        "time": 2.75390625,
                        "value": 0.5039370078740157
                    },
                    {
                        "number": 7,
                        "time": 2.8387451171875,
                        "value": 0.49606299212598426
                    },
                    {
                        "number": 7,
                        "time": 2.923583984375,
                        "value": 0.4881889763779528
                    },
                    {
                        "number": 7,
                        "time": 3.0078125,
                        "value": 0.48031496062992124
                    },
                    {
                        "number": 7,
                        "time": 3.0926513671875,
                        "value": 0.47244094488188976
                    },
                    {
                        "number": 7,
                        "time": 3.177490234375,
                        "value": 0.4645669291338583
                    },
                    {
                        "number": 7,
                        "time": 3.26171875,
                        "value": 0.4566929133858268
                    },
                    {
                        "number": 7,
                        "time": 3.3465576171875,
                        "value": 0.44881889763779526
                    },
                    {
                        "number": 7,
                        "time": 3.431396484375,
                        "value": 0.4409448818897638
                    },
                    {
                        "number": 7,
                        "time": 3.515625,
                        "value": 0.4330708661417323
                    },
                    {
                        "number": 7,
                        "time": 3.6004638671875,
                        "value": 0.4251968503937008
                    },
                    {
                        "number": 7,
                        "time": 3.685302734375,
                        "value": 0.41732283464566927
                    },
                    {
                        "number": 7,
                        "time": 3.76953125,
                        "value": 0.4094488188976378
                    },
                    {
                        "number": 7,
                        "time": 3.8543701171875,
                        "value": 0.4015748031496063
                    },
                    {
                        "number": 7,
                        "time": 3.939208984375,
                        "value": 0.3937007874015748
                    },
                    {
                        "number": 7,
                        "time": 4.0234375,
                        "value": 0.3858267716535433
                    },
                    {
                        "number": 7,
                        "time": 4.98046875,
                        "value": 0.3937007874015748
                    },
                    {
                        "number": 7,
                        "time": 5.040283203125,
                        "value": 0.4015748031496063
                    },
                    {
                        "number": 7,
                        "time": 5.10009765625,
                        "value": 0.4094488188976378
                    },
                    {
                        "number": 7,
                        "time": 5.159912109375,
                        "value": 0.41732283464566927
                    },
                    {
                        "number": 7,
                        "time": 5.2197265625,
                        "value": 0.4251968503937008
                    },
                    {
                        "number": 7,
                        "time": 5.279541015625,
                        "value": 0.4330708661417323
                    },
                    {
                        "number": 7,
                        "time": 5.33935546875,
                        "value": 0.4409448818897638
                    },
                    {
                        "number": 7,
                        "time": 5.390625,
                        "value": 0.44881889763779526
                    },
                    {
                        "number": 7,
                        "time": 5.450439453125,
                        "value": 0.4566929133858268
                    },
                    {
                        "number": 7,
                        "time": 5.51025390625,
                        "value": 0.4645669291338583
                    },
                    {
                        "number": 7,
                        "time": 5.570068359375,
                        "value": 0.47244094488188976
                    },
                    {
                        "number": 7,
                        "time": 5.6298828125,
                        "value": 0.48031496062992124
                    },
                    {
                        "number": 7,
                        "time": 6.8359375,
                        "value": 0.48031496062992124
                    },
                    {
                        "number": 7,
                        "time": 6.929931640625,
                        "value": 0.47244094488188976
                    },
                    {
                        "number": 7,
                        "time": 7.02392578125,
                        "value": 0.4645669291338583
                    },
                    {
                        "number": 7,
                        "time": 7.117919921875,
                        "value": 0.4566929133858268
                    },
                    {
                        "number": 7,
                        "time": 7.2119140625,
                        "value": 0.44881889763779526
                    },
                    {
                        "number": 7,
                        "time": 7.29736328125,
                        "value": 0.4409448818897638
                    },
                    {
                        "number": 7,
                        "time": 7.391357421875,
                        "value": 0.4330708661417323
                    },
                    {
                        "number": 7,
                        "time": 7.4853515625,
                        "value": 0.4251968503937008
                    },
                    {
                        "number": 7,
                        "time": 7.579345703125,
                        "value": 0.41732283464566927
                    },
                    {
                        "number": 7,
                        "time": 7.664794921875,
                        "value": 0.4094488188976378
                    },
                    {
                        "number": 7,
                        "time": 7.7587890625,
                        "value": 0.4015748031496063
                    },
                    {
                        "number": 7,
                        "time": 7.852783203125,
                        "value": 0.3937007874015748
                    },
                    {
                        "number": 7,
                        "time": 7.94677734375,
                        "value": 0.3858267716535433
                    },
                    {
                        "number": 7,
                        "time": 8.040771484375,
                        "value": 0.3779527559055118
                    },
                    {
                        "number": 7,
                        "time": 8.125,
                        "value": 0.3700787401574803
                    },
                    {
                        "number": 7,
                        "time": 8.1591796875,
                        "value": 0.36220472440944884
                    },
                    {
                        "number": 7,
                        "time": 8.184814453125,
                        "value": 0.3543307086614173
                    },
                    {
                        "number": 7,
                        "time": 8.218994140625,
                        "value": 0.3464566929133858
                    },
                    {
                        "number": 7,
                        "time": 8.24462890625,
                        "value": 0.33858267716535434
                    },
                    {
                        "number": 7,
                        "time": 8.27880859375,
                        "value": 0.33070866141732286
                    },
                    {
                        "number": 7,
                        "time": 8.304443359375,
                        "value": 0.3228346456692913
                    },
                    {
                        "number": 7,
                        "time": 8.330078125,
                        "value": 0.31496062992125984
                    },
                    {
                        "number": 7,
                        "time": 8.3642578125,
                        "value": 0.30708661417322836
                    },
                    {
                        "number": 7,
                        "time": 8.389892578125,
                        "value": 0.2992125984251969
                    },
                    {
                        "number": 7,
                        "time": 8.424072265625,
                        "value": 0.29133858267716534
                    },
                    {
                        "number": 7,
                        "time": 8.44970703125,
                        "value": 0.28346456692913385
                    },
                    {
                        "number": 7,
                        "time": 8.73046875,
                        "value": 0.4015748031496063
                    },
                    {
                        "number": 7,
                        "time": 8.75,
                        "value": 0.4015748031496063
                    },
                    {
                        "number": 7,
                        "time": 8.83544921875,
                        "value": 0.4094488188976378
                    },
                    {
                        "number": 7,
                        "time": 8.912353515625,
                        "value": 0.41732283464566927
                    },
                    {
                        "number": 7,
                        "time": 8.9892578125,
                        "value": 0.4251968503937008
                    },
                    {
                        "number": 7,
                        "time": 9.066162109375,
                        "value": 0.4330708661417323
                    },
                    {
                        "number": 7,
                        "time": 9.151611328125,
                        "value": 0.4409448818897638
                    },
                    {
                        "number": 7,
                        "time": 9.228515625,
                        "value": 0.44881889763779526
                    },
                    {
                        "number": 7,
                        "time": 9.305419921875,
                        "value": 0.4566929133858268
                    },
                    {
                        "number": 7,
                        "time": 9.38232421875,
                        "value": 0.4645669291338583
                    },
                    {
                        "number": 7,
                        "time": 9.4677734375,
                        "value": 0.47244094488188976
                    },
                    {
                        "number": 7,
                        "time": 9.544677734375,
                        "value": 0.48031496062992124
                    },
                    {
                        "number": 7,
                        "time": 9.62158203125,
                        "value": 0.4881889763779528
                    },
                    {
                        "number": 7,
                        "time": 9.698486328125,
                        "value": 0.49606299212598426
                    },
                    {
                        "number": 7,
                        "time": 9.783935546875,
                        "value": 0.5039370078740157
                    },
                    {
                        "number": 7,
                        "time": 9.86083984375,
                        "value": 0.5118110236220472
                    },
                    {
                        "number": 7,
                        "time": 9.937744140625,
                        "value": 0.5196850393700787
                    },
                    {
                        "number": 7,
                        "time": 10.0146484375,
                        "value": 0.5275590551181102
                    },
                    {
                        "number": 7,
                        "time": 10.10009765625,
                        "value": 0.5354330708661418
                    },
                    {
                        "number": 7,
                        "time": 10.177001953125,
                        "value": 0.5433070866141733
                    },
                    {
                        "number": 7,
                        "time": 10.25390625,
                        "value": 0.5511811023622047
                    },
                    {
                        "number": 7,
                        "time": 10.330810546875,
                        "value": 0.5590551181102362
                    },
                    {
                        "number": 7,
                        "time": 10.40771484375,
                        "value": 0.5669291338582677
                    },
                    {
                        "number": 7,
                        "time": 10.4931640625,
                        "value": 0.5748031496062992
                    },
                    {
                        "number": 7,
                        "time": 10.570068359375,
                        "value": 0.5826771653543307
                    },
                    {
                        "number": 7,
                        "time": 10.64453125,
                        "value": 0.5905511811023622
                    },
                    {
                        "number": 7,
                        "time": 10.72998046875,
                        "value": 0.5826771653543307
                    },
                    {
                        "number": 7,
                        "time": 10.806884765625,
                        "value": 0.5748031496062992
                    },
                    {
                        "number": 7,
                        "time": 10.8837890625,
                        "value": 0.5669291338582677
                    },
                    {
                        "number": 7,
                        "time": 10.960693359375,
                        "value": 0.5590551181102362
                    },
                    {
                        "number": 7,
                        "time": 11.03759765625,
                        "value": 0.5511811023622047
                    },
                    {
                        "number": 7,
                        "time": 11.114501953125,
                        "value": 0.5433070866141733
                    },
                    {
                        "number": 7,
                        "time": 11.19140625,
                        "value": 0.5354330708661418
                    },
                    {
                        "number": 7,
                        "time": 11.27685546875,
                        "value": 0.5275590551181102
                    },
                    {
                        "number": 7,
                        "time": 11.353759765625,
                        "value": 0.5196850393700787
                    },
                    {
                        "number": 7,
                        "time": 11.4306640625,
                        "value": 0.5118110236220472
                    },
                    {
                        "number": 7,
                        "time": 11.507568359375,
                        "value": 0.5039370078740157
                    },
                    {
                        "number": 7,
                        "time": 11.58447265625,
                        "value": 0.49606299212598426
                    },
                    {
                        "number": 7,
                        "time": 11.661376953125,
                        "value": 0.4881889763779528
                    },
                    {
                        "number": 7,
                        "time": 11.73828125,
                        "value": 0.48031496062992124
                    },
                    {
                        "number": 7,
                        "time": 11.82373046875,
                        "value": 0.47244094488188976
                    },
                    {
                        "number": 7,
                        "time": 11.93359375,
                        "value": 0.4566929133858268
                    },
                    {
                        "number": 7,
                        "time": 11.993408203125,
                        "value": 0.44881889763779526
                    },
                    {
                        "number": 7,
                        "time": 12.05322265625,
                        "value": 0.4409448818897638
                    },
                    {
                        "number": 7,
                        "time": 12.1044921875,
                        "value": 0.4330708661417323
                    },
                    {
                        "number": 7,
                        "time": 12.164306640625,
                        "value": 0.4251968503937008
                    },
                    {
                        "number": 7,
                        "time": 12.215576171875,
                        "value": 0.41732283464566927
                    },
                    {
                        "number": 7,
                        "time": 12.275390625,
                        "value": 0.4094488188976378
                    },
                    {
                        "number": 7,
                        "time": 13.125,
                        "value": 0.4094488188976378
                    },
                    {
                        "number": 7,
                        "time": 13.3642578125,
                        "value": 0.4015748031496063
                    },
                    {
                        "number": 7,
                        "time": 13.594970703125,
                        "value": 0.3937007874015748
                    },
                    {
                        "number": 7,
                        "time": 13.834228515625,
                        "value": 0.3858267716535433
                    },
                    {
                        "number": 7,
                        "time": 14.06494140625,
                        "value": 0.3779527559055118
                    },
                    {
                        "number": 7,
                        "time": 14.30419921875,
                        "value": 0.3700787401574803
                    },
                    {
                        "number": 7,
                        "time": 14.534912109375,
                        "value": 0.36220472440944884
                    },
                    {
                        "number": 7,
                        "time": 14.765625,
                        "value": 0.3543307086614173
                    },
                    {
                        "number": 7,
                        "time": 15.01953125,
                        "value": 0.3464566929133858
                    },
                    {
                        "number": 7,
                        "time": 15.096435546875,
                        "value": 0.33858267716535434
                    },
                    {
                        "number": 7,
                        "time": 15.17333984375,
                        "value": 0.33070866141732286
                    },
                    {
                        "number": 7,
                        "time": 15.250244140625,
                        "value": 0.3228346456692913
                    },
                    {
                        "number": 7,
                        "time": 15.3271484375,
                        "value": 0.31496062992125984
                    },
                    {
                        "number": 7,
                        "time": 15.404052734375,
                        "value": 0.30708661417322836
                    },
                    {
                        "number": 7,
                        "time": 15.48095703125,
                        "value": 0.2992125984251969
                    },
                    {
                        "number": 7,
                        "time": 15.557861328125,
                        "value": 0.29133858267716534
                    },
                    {
                        "number": 7,
                        "time": 15.634765625,
                        "value": 0.28346456692913385
                    },
                    {
                        "number": 7,
                        "time": 15.711669921875,
                        "value": 0.2755905511811024
                    },
                    {
                        "number": 7,
                        "time": 15.78857421875,
                        "value": 0.2677165354330709
                    },
                    {
                        "number": 7,
                        "time": 15.865478515625,
                        "value": 0.25984251968503935
                    },
                    {
                        "number": 7,
                        "time": 16.2109375,
                        "value": 0.5511811023622047
                    },
                    {
                        "number": 7,
                        "time": 16.26953125,
                        "value": 0.5590551181102362
                    },
                    {
                        "number": 7,
                        "time": 16.38916015625,
                        "value": 0.5669291338582677
                    },
                    {
                        "number": 7,
                        "time": 16.5087890625,
                        "value": 0.5748031496062992
                    },
                    {
                        "number": 7,
                        "time": 16.62841796875,
                        "value": 0.5826771653543307
                    },
                    {
                        "number": 7,
                        "time": 16.739501953125,
                        "value": 0.5905511811023622
                    },
                    {
                        "number": 7,
                        "time": 16.859130859375,
                        "value": 0.5984251968503937
                    },
                    {
                        "number": 7,
                        "time": 16.978759765625,
                        "value": 0.6062992125984252
                    },
                    {
                        "number": 7,
                        "time": 17.08984375,
                        "value": 0.6141732283464567
                    },
                    {
                        "number": 7,
                        "time": 17.20947265625,
                        "value": 0.6220472440944882
                    },
                    {
                        "number": 7,
                        "time": 17.3291015625,
                        "value": 0.6299212598425197
                    },
                    {
                        "number": 7,
                        "time": 17.44873046875,
                        "value": 0.6377952755905512
                    },
                    {
                        "number": 7,
                        "time": 17.559814453125,
                        "value": 0.6456692913385826
                    },
                    {
                        "number": 7,
                        "time": 17.679443359375,
                        "value": 0.6535433070866141
                    },
                    {
                        "number": 7,
                        "time": 17.799072265625,
                        "value": 0.6614173228346457
                    },
                    {
                        "number": 7,
                        "time": 17.91015625,
                        "value": 0.6692913385826772
                    },
                    {
                        "number": 7,
                        "time": 18.02978515625,
                        "value": 0.6771653543307087
                    },
                    {
                        "number": 7,
                        "time": 18.14453125,
                        "value": 0.6850393700787402
                    },
                    {
                        "number": 7,
                        "time": 18.2470703125,
                        "value": 0.6771653543307087
                    },
                    {
                        "number": 7,
                        "time": 18.349609375,
                        "value": 0.6692913385826772
                    },
                    {
                        "number": 7,
                        "time": 18.4521484375,
                        "value": 0.6614173228346457
                    },
                    {
                        "number": 7,
                        "time": 18.5546875,
                        "value": 0.6535433070866141
                    },
                    {
                        "number": 7,
                        "time": 18.6572265625,
                        "value": 0.6456692913385826
                    },
                    {
                        "number": 7,
                        "time": 18.759765625,
                        "value": 0.6377952755905512
                    },
                    {
                        "number": 7,
                        "time": 18.8623046875,
                        "value": 0.6299212598425197
                    },
                    {
                        "number": 7,
                        "time": 18.96484375,
                        "value": 0.6220472440944882
                    },
                    {
                        "number": 7,
                        "time": 19.0673828125,
                        "value": 0.6141732283464567
                    },
                    {
                        "number": 7,
                        "time": 19.169921875,
                        "value": 0.6062992125984252
                    },
                    {
                        "number": 7,
                        "time": 19.2724609375,
                        "value": 0.5984251968503937
                    },
                    {
                        "number": 7,
                        "time": 19.375,
                        "value": 0.5905511811023622
                    },
                    {
                        "number": 7,
                        "time": 19.39453125,
                        "value": 0.5905511811023622
                    },
                    {
                        "number": 7,
                        "time": 19.420166015625,
                        "value": 0.5826771653543307
                    },
                    {
                        "number": 7,
                        "time": 19.437255859375,
                        "value": 0.5748031496062992
                    },
                    {
                        "number": 7,
                        "time": 19.454345703125,
                        "value": 0.5669291338582677
                    },
                    {
                        "number": 7,
                        "time": 19.471435546875,
                        "value": 0.5590551181102362
                    },
                    {
                        "number": 7,
                        "time": 19.488525390625,
                        "value": 0.5511811023622047
                    },
                    {
                        "number": 7,
                        "time": 19.505615234375,
                        "value": 0.5433070866141733
                    },
                    {
                        "number": 7,
                        "time": 19.53125,
                        "value": 0.5354330708661418
                    },
                    {
                        "number": 7,
                        "time": 19.54833984375,
                        "value": 0.5275590551181102
                    },
                    {
                        "number": 7,
                        "time": 19.5654296875,
                        "value": 0.5196850393700787
                    },
                    {
                        "number": 7,
                        "time": 19.58251953125,
                        "value": 0.5118110236220472
                    },
                    {
                        "number": 7,
                        "time": 19.599609375,
                        "value": 0.5039370078740157
                    },
                    {
                        "number": 7,
                        "time": 19.61669921875,
                        "value": 0.49606299212598426
                    },
                    {
                        "number": 7,
                        "time": 19.642333984375,
                        "value": 0.4881889763779528
                    },
                    {
                        "number": 7,
                        "time": 19.659423828125,
                        "value": 0.48031496062992124
                    },
                    {
                        "number": 7,
                        "time": 19.676513671875,
                        "value": 0.47244094488188976
                    },
                    {
                        "number": 7,
                        "time": 19.693603515625,
                        "value": 0.4645669291338583
                    },
                    {
                        "number": 7,
                        "time": 19.710693359375,
                        "value": 0.4566929133858268
                    },
                    {
                        "number": 7,
                        "time": 19.727783203125,
                        "value": 0.44881889763779526
                    },
                    {
                        "number": 7,
                        "time": 20.01953125,
                        "value": 0.4330708661417323
                    },
                    {
                        "number": 7,
                        "time": 20.20751953125,
                        "value": 0.4409448818897638
                    },
                    {
                        "number": 7,
                        "time": 20.3955078125,
                        "value": 0.44881889763779526
                    },
                    {
                        "number": 7,
                        "time": 20.58349609375,
                        "value": 0.4566929133858268
                    },
                    {
                        "number": 7,
                        "time": 20.771484375,
                        "value": 0.4645669291338583
                    },
                    {
                        "number": 7,
                        "time": 20.95947265625,
                        "value": 0.47244094488188976
                    },
                    {
                        "number": 7,
                        "time": 21.1474609375,
                        "value": 0.48031496062992124
                    },
                    {
                        "number": 7,
                        "time": 21.33544921875,
                        "value": 0.4881889763779528
                    },
                    {
                        "number": 7,
                        "time": 21.5234375,
                        "value": 0.49606299212598426
                    },
                    {
                        "number": 7,
                        "time": 21.71142578125,
                        "value": 0.5039370078740157
                    },
                    {
                        "number": 7,
                        "time": 21.89453125,
                        "value": 0.5118110236220472
                    },
                    {
                        "number": 7,
                        "time": 22.022705078125,
                        "value": 0.5039370078740157
                    },
                    {
                        "number": 7,
                        "time": 22.15087890625,
                        "value": 0.49606299212598426
                    },
                    {
                        "number": 7,
                        "time": 22.2705078125,
                        "value": 0.4881889763779528
                    },
                    {
                        "number": 7,
                        "time": 22.398681640625,
                        "value": 0.48031496062992124
                    },
                    {
                        "number": 7,
                        "time": 22.52685546875,
                        "value": 0.47244094488188976
                    },
                    {
                        "number": 7,
                        "time": 22.646484375,
                        "value": 0.4645669291338583
                    },
                    {
                        "number": 7,
                        "time": 22.774658203125,
                        "value": 0.4566929133858268
                    },
                    {
                        "number": 7,
                        "time": 22.90283203125,
                        "value": 0.44881889763779526
                    },
                    {
                        "number": 7,
                        "time": 23.0224609375,
                        "value": 0.4409448818897638
                    },
                    {
                        "number": 7,
                        "time": 23.14453125,
                        "value": 0.4330708661417323
                    },
                    {
                        "number": 7,
                        "time": 23.170166015625,
                        "value": 0.4251968503937008
                    },
                    {
                        "number": 7,
                        "time": 23.187255859375,
                        "value": 0.41732283464566927
                    },
                    {
                        "number": 7,
                        "time": 23.212890625,
                        "value": 0.4094488188976378
                    },
                    {
                        "number": 7,
                        "time": 23.22998046875,
                        "value": 0.4015748031496063
                    },
                    {
                        "number": 7,
                        "time": 23.255615234375,
                        "value": 0.3937007874015748
                    },
                    {
                        "number": 7,
                        "time": 23.272705078125,
                        "value": 0.3858267716535433
                    },
                    {
                        "number": 7,
                        "time": 23.289794921875,
                        "value": 0.3779527559055118
                    },
                    {
                        "number": 7,
                        "time": 23.3154296875,
                        "value": 0.3700787401574803
                    },
                    {
                        "number": 7,
                        "time": 23.33251953125,
                        "value": 0.36220472440944884
                    },
                    {
                        "number": 7,
                        "time": 23.358154296875,
                        "value": 0.3543307086614173
                    },
                    {
                        "number": 7,
                        "time": 23.375244140625,
                        "value": 0.3464566929133858
                    },
                    {
                        "number": 7,
                        "time": 23.40087890625,
                        "value": 0.33858267716535434
                    },
                    {
                        "number": 7,
                        "time": 23.41796875,
                        "value": 0.33070866141732286
                    },
                    {
                        "number": 7,
                        "time": 23.43505859375,
                        "value": 0.3228346456692913
                    },
                    {
                        "number": 7,
                        "time": 23.460693359375,
                        "value": 0.31496062992125984
                    },
                    {
                        "number": 7,
                        "time": 23.7109375,
                        "value": 0.5511811023622047
                    },
                    {
                        "number": 7,
                        "time": 23.7890625,
                        "value": 0.5511811023622047
                    },
                    {
                        "number": 7,
                        "time": 23.90869140625,
                        "value": 0.5590551181102362
                    },
                    {
                        "number": 7,
                        "time": 24.019775390625,
                        "value": 0.5669291338582677
                    },
                    {
                        "number": 7,
                        "time": 24.130859375,
                        "value": 0.5748031496062992
                    },
                    {
                        "number": 7,
                        "time": 24.241943359375,
                        "value": 0.5826771653543307
                    },
                    {
                        "number": 7,
                        "time": 24.35302734375,
                        "value": 0.5905511811023622
                    },
                    {
                        "number": 7,
                        "time": 24.47265625,
                        "value": 0.5984251968503937
                    },
                    {
                        "number": 7,
                        "time": 24.583740234375,
                        "value": 0.6062992125984252
                    },
                    {
                        "number": 7,
                        "time": 24.69482421875,
                        "value": 0.6141732283464567
                    },
                    {
                        "number": 7,
                        "time": 24.805908203125,
                        "value": 0.6220472440944882
                    },
                    {
                        "number": 7,
                        "time": 24.9169921875,
                        "value": 0.6299212598425197
                    },
                    {
                        "number": 7,
                        "time": 25.03662109375,
                        "value": 0.6377952755905512
                    },
                    {
                        "number": 7,
                        "time": 25.147705078125,
                        "value": 0.6456692913385826
                    },
                    {
                        "number": 7,
                        "time": 25.2587890625,
                        "value": 0.6535433070866141
                    },
                    {
                        "number": 7,
                        "time": 25.369873046875,
                        "value": 0.6614173228346457
                    },
                    {
                        "number": 7,
                        "time": 25.48095703125,
                        "value": 0.6692913385826772
                    },
                    {
                        "number": 7,
                        "time": 25.6005859375,
                        "value": 0.6771653543307087
                    },
                    {
                        "number": 7,
                        "time": 25.711669921875,
                        "value": 0.6850393700787402
                    },
                    {
                        "number": 7,
                        "time": 25.82275390625,
                        "value": 0.6929133858267716
                    },
                    {
                        "number": 7,
                        "time": 25.933837890625,
                        "value": 0.7007874015748031
                    },
                    {
                        "number": 7,
                        "time": 26.044921875,
                        "value": 0.7086614173228346
                    },
                    {
                        "number": 7,
                        "time": 26.16455078125,
                        "value": 0.7165354330708661
                    },
                    {
                        "number": 7,
                        "time": 26.2890625,
                        "value": 0.7086614173228346
                    },
                    {
                        "number": 7,
                        "time": 26.3232421875,
                        "value": 0.7007874015748031
                    },
                    {
                        "number": 7,
                        "time": 26.348876953125,
                        "value": 0.6929133858267716
                    },
                    {
                        "number": 7,
                        "time": 26.37451171875,
                        "value": 0.6850393700787402
                    },
                    {
                        "number": 7,
                        "time": 26.400146484375,
                        "value": 0.6771653543307087
                    },
                    {
                        "number": 7,
                        "time": 26.42578125,
                        "value": 0.6692913385826772
                    },
                    {
                        "number": 7,
                        "time": 26.451416015625,
                        "value": 0.6614173228346457
                    },
                    {
                        "number": 7,
                        "time": 26.47705078125,
                        "value": 0.6535433070866141
                    },
                    {
                        "number": 7,
                        "time": 26.502685546875,
                        "value": 0.6456692913385826
                    },
                    {
                        "number": 7,
                        "time": 26.5283203125,
                        "value": 0.6377952755905512
                    },
                    {
                        "number": 7,
                        "time": 26.5625,
                        "value": 0.6299212598425197
                    },
                    {
                        "number": 7,
                        "time": 26.588134765625,
                        "value": 0.6220472440944882
                    },
                    {
                        "number": 7,
                        "time": 26.61376953125,
                        "value": 0.6141732283464567
                    },
                    {
                        "number": 7,
                        "time": 26.639404296875,
                        "value": 0.6062992125984252
                    },
                    {
                        "number": 7,
                        "time": 26.6650390625,
                        "value": 0.5984251968503937
                    },
                    {
                        "number": 7,
                        "time": 26.690673828125,
                        "value": 0.5905511811023622
                    },
                    {
                        "number": 7,
                        "time": 26.71630859375,
                        "value": 0.5826771653543307
                    },
                    {
                        "number": 7,
                        "time": 26.741943359375,
                        "value": 0.5748031496062992
                    },
                    {
                        "number": 7,
                        "time": 26.767578125,
                        "value": 0.5669291338582677
                    },
                    {
                        "number": 7,
                        "time": 26.8017578125,
                        "value": 0.5590551181102362
                    },
                    {
                        "number": 7,
                        "time": 26.827392578125,
                        "value": 0.5511811023622047
                    },
                    {
                        "number": 7,
                        "time": 26.85302734375,
                        "value": 0.5433070866141733
                    },
                    {
                        "number": 7,
                        "time": 26.878662109375,
                        "value": 0.5354330708661418
                    },
                    {
                        "number": 7,
                        "time": 26.904296875,
                        "value": 0.5275590551181102
                    },
                    {
                        "number": 7,
                        "time": 26.929931640625,
                        "value": 0.5196850393700787
                    },
                    {
                        "number": 7,
                        "time": 26.95556640625,
                        "value": 0.5118110236220472
                    },
                    {
                        "number": 7,
                        "time": 26.981201171875,
                        "value": 0.5039370078740157
                    },
                    {
                        "number": 7,
                        "time": 27.0068359375,
                        "value": 0.49606299212598426
                    },
                    {
                        "number": 7,
                        "time": 27.032470703125,
                        "value": 0.4881889763779528
                    },
                    {
                        "number": 7,
                        "time": 27.066650390625,
                        "value": 0.48031496062992124
                    },
                    {
                        "number": 7,
                        "time": 27.09228515625,
                        "value": 0.47244094488188976
                    },
                    {
                        "number": 7,
                        "time": 27.117919921875,
                        "value": 0.4645669291338583
                    },
                    {
                        "number": 7,
                        "time": 27.1435546875,
                        "value": 0.4566929133858268
                    },
                    {
                        "number": 7,
                        "time": 27.169189453125,
                        "value": 0.44881889763779526
                    },
                    {
                        "number": 7,
                        "time": 27.19482421875,
                        "value": 0.4409448818897638
                    },
                    {
                        "number": 7,
                        "time": 27.220458984375,
                        "value": 0.4330708661417323
                    },
                    {
                        "number": 7,
                        "time": 27.24609375,
                        "value": 0.4251968503937008
                    },
                    {
                        "number": 7,
                        "time": 27.271728515625,
                        "value": 0.41732283464566927
                    },
                    {
                        "number": 7,
                        "time": 27.305908203125,
                        "value": 0.4094488188976378
                    },
                    {
                        "number": 7,
                        "time": 27.5,
                        "value": 0.4094488188976378
                    },
                    {
                        "number": 7,
                        "time": 27.542724609375,
                        "value": 0.41732283464566927
                    },
                    {
                        "number": 7,
                        "time": 27.58544921875,
                        "value": 0.4251968503937008
                    },
                    {
                        "number": 7,
                        "time": 27.628173828125,
                        "value": 0.4330708661417323
                    },
                    {
                        "number": 7,
                        "time": 27.662353515625,
                        "value": 0.4409448818897638
                    },
                    {
                        "number": 7,
                        "time": 27.705078125,
                        "value": 0.44881889763779526
                    },
                    {
                        "number": 7,
                        "time": 27.747802734375,
                        "value": 0.4566929133858268
                    },
                    {
                        "number": 7,
                        "time": 27.781982421875,
                        "value": 0.4645669291338583
                    },
                    {
                        "number": 7,
                        "time": 27.82470703125,
                        "value": 0.47244094488188976
                    },
                    {
                        "number": 7,
                        "time": 27.867431640625,
                        "value": 0.48031496062992124
                    },
                    {
                        "number": 7,
                        "time": 27.901611328125,
                        "value": 0.4881889763779528
                    },
                    {
                        "number": 7,
                        "time": 27.9443359375,
                        "value": 0.49606299212598426
                    },
                    {
                        "number": 7,
                        "time": 27.987060546875,
                        "value": 0.5039370078740157
                    },
                    {
                        "number": 7,
                        "time": 28.021240234375,
                        "value": 0.5118110236220472
                    },
                    {
                        "number": 7,
                        "time": 28.06396484375,
                        "value": 0.5196850393700787
                    },
                    {
                        "number": 7,
                        "time": 28.106689453125,
                        "value": 0.5275590551181102
                    },
                    {
                        "number": 7,
                        "time": 28.140869140625,
                        "value": 0.5354330708661418
                    },
                    {
                        "number": 7,
                        "time": 28.18359375,
                        "value": 0.5433070866141733
                    },
                    {
                        "number": 7,
                        "time": 28.226318359375,
                        "value": 0.5511811023622047
                    },
                    {
                        "number": 7,
                        "time": 28.260498046875,
                        "value": 0.5590551181102362
                    },
                    {
                        "number": 7,
                        "time": 28.30322265625,
                        "value": 0.5669291338582677
                    },
                    {
                        "number": 7,
                        "time": 28.345947265625,
                        "value": 0.5748031496062992
                    },
                    {
                        "number": 7,
                        "time": 28.380126953125,
                        "value": 0.5826771653543307
                    },
                    {
                        "number": 7,
                        "time": 28.4228515625,
                        "value": 0.5905511811023622
                    },
                    {
                        "number": 7,
                        "time": 28.465576171875,
                        "value": 0.5984251968503937
                    },
                    {
                        "number": 7,
                        "time": 28.499755859375,
                        "value": 0.6062992125984252
                    },
                    {
                        "number": 7,
                        "time": 28.54248046875,
                        "value": 0.6141732283464567
                    },
                    {
                        "number": 7,
                        "time": 28.585205078125,
                        "value": 0.6220472440944882
                    },
                    {
                        "number": 7,
                        "time": 28.619384765625,
                        "value": 0.6299212598425197
                    },
                    {
                        "number": 7,
                        "time": 28.662109375,
                        "value": 0.6377952755905512
                    },
                    {
                        "number": 7,
                        "time": 28.704833984375,
                        "value": 0.6456692913385826
                    },
                    {
                        "number": 7,
                        "time": 28.739013671875,
                        "value": 0.6535433070866141
                    },
                    {
                        "number": 7,
                        "time": 28.78173828125,
                        "value": 0.6614173228346457
                    },
                    {
                        "number": 7,
                        "time": 28.824462890625,
                        "value": 0.6692913385826772
                    },
                    {
                        "number": 7,
                        "time": 28.858642578125,
                        "value": 0.6771653543307087
                    },
                    {
                        "number": 7,
                        "time": 28.9013671875,
                        "value": 0.6850393700787402
                    },
                    {
                        "number": 7,
                        "time": 28.944091796875,
                        "value": 0.6929133858267716
                    },
                    {
                        "number": 7,
                        "time": 28.978271484375,
                        "value": 0.7007874015748031
                    },
                    {
                        "number": 7,
                        "time": 29.02099609375,
                        "value": 0.7086614173228346
                    },
                    {
                        "number": 7,
                        "time": 29.063720703125,
                        "value": 0.7165354330708661
                    },
                    {
                        "number": 7,
                        "time": 29.097900390625,
                        "value": 0.7244094488188977
                    },
                    {
                        "number": 7,
                        "time": 29.140625,
                        "value": 0.7322834645669292
                    },
                    {
                        "number": 7,
                        "time": 29.183349609375,
                        "value": 0.7401574803149606
                    },
                    {
                        "number": 7,
                        "time": 29.217529296875,
                        "value": 0.7480314960629921
                    },
                    {
                        "number": 7,
                        "time": 29.26025390625,
                        "value": 0.7559055118110236
                    },
                    {
                        "number": 7,
                        "time": 29.302978515625,
                        "value": 0.7637795275590551
                    },
                    {
                        "number": 7,
                        "time": 29.337158203125,
                        "value": 0.7716535433070866
                    },
                    {
                        "number": 7,
                        "time": 29.375,
                        "value": 0.7795275590551181
                    },
                    {
                        "number": 7,
                        "time": 29.520263671875,
                        "value": 0.7874015748031497
                    },
                    {
                        "number": 7,
                        "time": 29.66552734375,
                        "value": 0.7952755905511811
                    },
                    {
                        "number": 7,
                        "time": 29.80224609375,
                        "value": 0.8031496062992126
                    },
                    {
                        "number": 7,
                        "time": 29.947509765625,
                        "value": 0.8110236220472441
                    },
                    {
                        "number": 7,
                        "time": 30.084228515625,
                        "value": 0.8188976377952756
                    },
                    {
                        "number": 7,
                        "time": 30.2294921875,
                        "value": 0.8267716535433071
                    },
                    {
                        "number": 7,
                        "time": 30.3662109375,
                        "value": 0.8346456692913385
                    },
                    {
                        "number": 7,
                        "time": 30.511474609375,
                        "value": 0.84251968503937
                    },
                    {
                        "number": 7,
                        "time": 32.4609375,
                        "value": 0.3464566929133858
                    },
                    {
                        "number": 7,
                        "time": 33.28125,
                        "value": 0.3464566929133858
                    },
                    {
                        "number": 7,
                        "time": 33.375244140625,
                        "value": 0.3543307086614173
                    },
                    {
                        "number": 7,
                        "time": 33.46923828125,
                        "value": 0.36220472440944884
                    },
                    {
                        "number": 7,
                        "time": 33.5546875,
                        "value": 0.3700787401574803
                    },
                    {
                        "number": 7,
                        "time": 33.648681640625,
                        "value": 0.3779527559055118
                    },
                    {
                        "number": 7,
                        "time": 33.74267578125,
                        "value": 0.3858267716535433
                    },
                    {
                        "number": 7,
                        "time": 33.828125,
                        "value": 0.3937007874015748
                    },
                    {
                        "number": 7,
                        "time": 33.922119140625,
                        "value": 0.4015748031496063
                    },
                    {
                        "number": 7,
                        "time": 34.01611328125,
                        "value": 0.4094488188976378
                    },
                    {
                        "number": 7,
                        "time": 34.1015625,
                        "value": 0.41732283464566927
                    },
                    {
                        "number": 7,
                        "time": 34.195556640625,
                        "value": 0.4251968503937008
                    },
                    {
                        "number": 7,
                        "time": 34.28955078125,
                        "value": 0.4330708661417323
                    },
                    {
                        "number": 7,
                        "time": 34.375,
                        "value": 0.4409448818897638
                    },
                    {
                        "number": 7,
                        "time": 34.49462890625,
                        "value": 0.4330708661417323
                    },
                    {
                        "number": 7,
                        "time": 34.605712890625,
                        "value": 0.4251968503937008
                    },
                    {
                        "number": 7,
                        "time": 34.725341796875,
                        "value": 0.41732283464566927
                    },
                    {
                        "number": 7,
                        "time": 34.83642578125,
                        "value": 0.4094488188976378
                    },
                    {
                        "number": 7,
                        "time": 34.9560546875,
                        "value": 0.4015748031496063
                    },
                    {
                        "number": 7,
                        "time": 35.067138671875,
                        "value": 0.3937007874015748
                    },
                    {
                        "number": 7,
                        "time": 35.17822265625,
                        "value": 0.3858267716535433
                    },
                    {
                        "number": 7,
                        "time": 35.2978515625,
                        "value": 0.3779527559055118
                    },
                    {
                        "number": 7,
                        "time": 35.408935546875,
                        "value": 0.3700787401574803
                    },
                    {
                        "number": 7,
                        "time": 35.528564453125,
                        "value": 0.36220472440944884
                    },
                    {
                        "number": 7,
                        "time": 35.6396484375,
                        "value": 0.3543307086614173
                    },
                    {
                        "number": 7,
                        "time": 35.750732421875,
                        "value": 0.3464566929133858
                    },
                    {
                        "number": 7,
                        "time": 35.870361328125,
                        "value": 0.33858267716535434
                    },
                    {
                        "number": 7,
                        "time": 35.9814453125,
                        "value": 0.33070866141732286
                    },
                    {
                        "number": 7,
                        "time": 37.91015625,
                        "value": 0.33858267716535434
                    },
                    {
                        "number": 7,
                        "time": 38.021240234375,
                        "value": 0.3464566929133858
                    },
                    {
                        "number": 7,
                        "time": 38.13232421875,
                        "value": 0.3543307086614173
                    },
                    {
                        "number": 7,
                        "time": 38.23486328125,
                        "value": 0.36220472440944884
                    },
                    {
                        "number": 7,
                        "time": 38.345947265625,
                        "value": 0.3700787401574803
                    },
                    {
                        "number": 7,
                        "time": 38.448486328125,
                        "value": 0.3779527559055118
                    },
                    {
                        "number": 7,
                        "time": 38.5595703125,
                        "value": 0.3858267716535433
                    },
                    {
                        "number": 7,
                        "time": 38.662109375,
                        "value": 0.3937007874015748
                    },
                    {
                        "number": 7,
                        "time": 38.76953125,
                        "value": 0.4015748031496063
                    },
                    {
                        "number": 7,
                        "time": 38.92333984375,
                        "value": 0.3937007874015748
                    },
                    {
                        "number": 7,
                        "time": 39.0771484375,
                        "value": 0.3858267716535433
                    },
                    {
                        "number": 7,
                        "time": 39.23095703125,
                        "value": 0.3779527559055118
                    },
                    {
                        "number": 7,
                        "time": 39.384765625,
                        "value": 0.3700787401574803
                    },
                    {
                        "number": 7,
                        "time": 39.53857421875,
                        "value": 0.36220472440944884
                    },
                    {
                        "number": 7,
                        "time": 39.6923828125,
                        "value": 0.3543307086614173
                    },
                    {
                        "number": 7,
                        "time": 39.84619140625,
                        "value": 0.3464566929133858
                    },
                    {
                        "number": 7,
                        "time": 39.991455078125,
                        "value": 0.33858267716535434
                    },
                    {
                        "number": 7,
                        "time": 40.145263671875,
                        "value": 0.33070866141732286
                    },
                    {
                        "number": 7,
                        "time": 40.299072265625,
                        "value": 0.3228346456692913
                    },
                    {
                        "number": 7,
                        "time": 40.72265625,
                        "value": 0.3228346456692913
                    },
                    {
                        "number": 7,
                        "time": 40.87646484375,
                        "value": 0.33070866141732286
                    },
                    {
                        "number": 7,
                        "time": 41.0302734375,
                        "value": 0.33858267716535434
                    },
                    {
                        "number": 7,
                        "time": 41.175537109375,
                        "value": 0.3464566929133858
                    },
                    {
                        "number": 7,
                        "time": 41.329345703125,
                        "value": 0.3543307086614173
                    },
                    {
                        "number": 7,
                        "time": 41.474609375,
                        "value": 0.36220472440944884
                    },
                    {
                        "number": 7,
                        "time": 41.62841796875,
                        "value": 0.3700787401574803
                    },
                    {
                        "number": 7,
                        "time": 41.773681640625,
                        "value": 0.3779527559055118
                    },
                    {
                        "number": 7,
                        "time": 41.927490234375,
                        "value": 0.3858267716535433
                    },
                    {
                        "number": 7,
                        "time": 42.07275390625,
                        "value": 0.3937007874015748
                    },
                    {
                        "number": 7,
                        "time": 42.2265625,
                        "value": 0.4015748031496063
                    },
                    {
                        "number": 7,
                        "time": 42.371826171875,
                        "value": 0.4094488188976378
                    },
                    {
                        "number": 7,
                        "time": 42.51953125,
                        "value": 0.41732283464566927
                    },
                    {
                        "number": 7,
                        "time": 42.65625,
                        "value": 0.4094488188976378
                    },
                    {
                        "number": 7,
                        "time": 42.79296875,
                        "value": 0.4015748031496063
                    },
                    {
                        "number": 7,
                        "time": 42.9296875,
                        "value": 0.3937007874015748
                    },
                    {
                        "number": 7,
                        "time": 43.06640625,
                        "value": 0.3858267716535433
                    },
                    {
                        "number": 7,
                        "time": 43.203125,
                        "value": 0.3779527559055118
                    },
                    {
                        "number": 7,
                        "time": 43.331298828125,
                        "value": 0.3700787401574803
                    },
                    {
                        "number": 7,
                        "time": 43.468017578125,
                        "value": 0.36220472440944884
                    },
                    {
                        "number": 7,
                        "time": 43.604736328125,
                        "value": 0.3543307086614173
                    },
                    {
                        "number": 7,
                        "time": 43.741455078125,
                        "value": 0.3464566929133858
                    },
                    {
                        "number": 7,
                        "time": 43.878173828125,
                        "value": 0.33858267716535434
                    },
                    {
                        "number": 7,
                        "time": 44.014892578125,
                        "value": 0.33070866141732286
                    },
                    {
                        "number": 7,
                        "time": 44.14306640625,
                        "value": 0.3228346456692913
                    },
                    {
                        "number": 7,
                        "time": 44.375,
                        "value": 0.3228346456692913
                    },
                    {
                        "number": 7,
                        "time": 44.486083984375,
                        "value": 0.33070866141732286
                    },
                    {
                        "number": 7,
                        "time": 44.59716796875,
                        "value": 0.33858267716535434
                    },
                    {
                        "number": 7,
                        "time": 44.69970703125,
                        "value": 0.3464566929133858
                    },
                    {
                        "number": 7,
                        "time": 44.810791015625,
                        "value": 0.3543307086614173
                    },
                    {
                        "number": 7,
                        "time": 44.913330078125,
                        "value": 0.36220472440944884
                    },
                    {
                        "number": 7,
                        "time": 45.0244140625,
                        "value": 0.3700787401574803
                    },
                    {
                        "number": 7,
                        "time": 45.126953125,
                        "value": 0.3779527559055118
                    },
                    {
                        "number": 7,
                        "time": 45.238037109375,
                        "value": 0.3858267716535433
                    },
                    {
                        "number": 7,
                        "time": 45.34912109375,
                        "value": 0.3937007874015748
                    },
                    {
                        "number": 7,
                        "time": 45.45166015625,
                        "value": 0.4015748031496063
                    },
                    {
                        "number": 7,
                        "time": 45.562744140625,
                        "value": 0.4094488188976378
                    },
                    {
                        "number": 7,
                        "time": 45.6640625,
                        "value": 0.41732283464566927
                    },
                    {
                        "number": 7,
                        "time": 45.80078125,
                        "value": 0.4094488188976378
                    },
                    {
                        "number": 7,
                        "time": 45.928955078125,
                        "value": 0.4015748031496063
                    },
                    {
                        "number": 7,
                        "time": 46.065673828125,
                        "value": 0.3937007874015748
                    },
                    {
                        "number": 7,
                        "time": 46.19384765625,
                        "value": 0.3858267716535433
                    },
                    {
                        "number": 7,
                        "time": 46.33056640625,
                        "value": 0.3779527559055118
                    },
                    {
                        "number": 7,
                        "time": 46.458740234375,
                        "value": 0.3700787401574803
                    },
                    {
                        "number": 7,
                        "time": 46.595458984375,
                        "value": 0.36220472440944884
                    },
                    {
                        "number": 7,
                        "time": 46.7236328125,
                        "value": 0.3543307086614173
                    },
                    {
                        "number": 7,
                        "time": 46.85546875,
                        "value": 0.3464566929133858
                    },
                    {
                        "number": 7,
                        "time": 46.983642578125,
                        "value": 0.33858267716535434
                    },
                    {
                        "number": 7,
                        "time": 47.11181640625,
                        "value": 0.33070866141732286
                    },
                    {
                        "number": 7,
                        "time": 47.2314453125,
                        "value": 0.3228346456692913
                    },
                    {
                        "number": 7,
                        "time": 47.359619140625,
                        "value": 0.31496062992125984
                    },
                    {
                        "number": 7,
                        "time": 47.479248046875,
                        "value": 0.30708661417322836
                    },
                    {
                        "number": 7,
                        "time": 47.607421875,
                        "value": 0.2992125984251969
                    },
                    {
                        "number": 7,
                        "time": 47.72705078125,
                        "value": 0.29133858267716534
                    },
                    {
                        "number": 7,
                        "time": 48.0859375,
                        "value": 0.5433070866141733
                    },
                    {
                        "number": 7,
                        "time": 48.80859375,
                        "value": 0.5590551181102362
                    },
                    {
                        "number": 7,
                        "time": 48.9111328125,
                        "value": 0.5669291338582677
                    },
                    {
                        "number": 7,
                        "time": 49.013671875,
                        "value": 0.5748031496062992
                    },
                    {
                        "number": 7,
                        "time": 49.1162109375,
                        "value": 0.5826771653543307
                    },
                    {
                        "number": 7,
                        "time": 49.21875,
                        "value": 0.5905511811023622
                    },
                    {
                        "number": 7,
                        "time": 49.3212890625,
                        "value": 0.5984251968503937
                    },
                    {
                        "number": 7,
                        "time": 49.423828125,
                        "value": 0.6062992125984252
                    },
                    {
                        "number": 7,
                        "time": 49.5263671875,
                        "value": 0.6141732283464567
                    },
                    {
                        "number": 7,
                        "time": 49.62890625,
                        "value": 0.6220472440944882
                    },
                    {
                        "number": 7,
                        "time": 49.7314453125,
                        "value": 0.6299212598425197
                    },
                    {
                        "number": 7,
                        "time": 49.833984375,
                        "value": 0.6377952755905512
                    },
                    {
                        "number": 7,
                        "time": 49.9365234375,
                        "value": 0.6456692913385826
                    },
                    {
                        "number": 7,
                        "time": 50.0390625,
                        "value": 0.6535433070866141
                    },
                    {
                        "number": 7,
                        "time": 50.1416015625,
                        "value": 0.6614173228346457
                    },
                    {
                        "number": 7,
                        "time": 50.244140625,
                        "value": 0.6692913385826772
                    },
                    {
                        "number": 7,
                        "time": 50.3466796875,
                        "value": 0.6771653543307087
                    },
                    {
                        "number": 7,
                        "time": 50.440673828125,
                        "value": 0.6850393700787402
                    },
                    {
                        "number": 7,
                        "time": 50.543212890625,
                        "value": 0.6929133858267716
                    },
                    {
                        "number": 7,
                        "time": 50.68359375,
                        "value": 0.6929133858267716
                    },
                    {
                        "number": 7,
                        "time": 50.743408203125,
                        "value": 0.6850393700787402
                    },
                    {
                        "number": 7,
                        "time": 50.794677734375,
                        "value": 0.6771653543307087
                    },
                    {
                        "number": 7,
                        "time": 50.845947265625,
                        "value": 0.6692913385826772
                    },
                    {
                        "number": 7,
                        "time": 50.897216796875,
                        "value": 0.6614173228346457
                    },
                    {
                        "number": 7,
                        "time": 50.948486328125,
                        "value": 0.6535433070866141
                    },
                    {
                        "number": 7,
                        "time": 50.999755859375,
                        "value": 0.6456692913385826
                    },
                    {
                        "number": 7,
                        "time": 51.051025390625,
                        "value": 0.6377952755905512
                    },
                    {
                        "number": 7,
                        "time": 51.102294921875,
                        "value": 0.6299212598425197
                    },
                    {
                        "number": 7,
                        "time": 51.153564453125,
                        "value": 0.6220472440944882
                    },
                    {
                        "number": 7,
                        "time": 51.204833984375,
                        "value": 0.6141732283464567
                    },
                    {
                        "number": 7,
                        "time": 51.25,
                        "value": 0.6062992125984252
                    },
                    {
                        "number": 7,
                        "time": 51.2841796875,
                        "value": 0.5984251968503937
                    },
                    {
                        "number": 7,
                        "time": 51.309814453125,
                        "value": 0.5905511811023622
                    },
                    {
                        "number": 7,
                        "time": 51.343994140625,
                        "value": 0.5826771653543307
                    },
                    {
                        "number": 7,
                        "time": 51.36962890625,
                        "value": 0.5748031496062992
                    },
                    {
                        "number": 7,
                        "time": 51.40380859375,
                        "value": 0.5669291338582677
                    },
                    {
                        "number": 7,
                        "time": 51.429443359375,
                        "value": 0.5590551181102362
                    },
                    {
                        "number": 7,
                        "time": 51.455078125,
                        "value": 0.5511811023622047
                    },
                    {
                        "number": 7,
                        "time": 51.4892578125,
                        "value": 0.5433070866141733
                    },
                    {
                        "number": 7,
                        "time": 51.514892578125,
                        "value": 0.5354330708661418
                    },
                    {
                        "number": 7,
                        "time": 51.549072265625,
                        "value": 0.5275590551181102
                    },
                    {
                        "number": 7,
                        "time": 51.57470703125,
                        "value": 0.5196850393700787
                    },
                    {
                        "number": 7,
                        "time": 51.60888671875,
                        "value": 0.5118110236220472
                    },
                    {
                        "number": 7,
                        "time": 51.634521484375,
                        "value": 0.5039370078740157
                    },
                    {
                        "number": 7,
                        "time": 51.66015625,
                        "value": 0.49606299212598426
                    },
                    {
                        "number": 7,
                        "time": 51.8359375,
                        "value": 0.4330708661417323
                    },
                    {
                        "number": 7,
                        "time": 52.51953125,
                        "value": 0.4330708661417323
                    },
                    {
                        "number": 7,
                        "time": 52.63916015625,
                        "value": 0.4409448818897638
                    },
                    {
                        "number": 7,
                        "time": 52.7587890625,
                        "value": 0.44881889763779526
                    },
                    {
                        "number": 7,
                        "time": 52.87841796875,
                        "value": 0.4566929133858268
                    },
                    {
                        "number": 7,
                        "time": 52.998046875,
                        "value": 0.4645669291338583
                    },
                    {
                        "number": 7,
                        "time": 53.11767578125,
                        "value": 0.47244094488188976
                    },
                    {
                        "number": 7,
                        "time": 53.2373046875,
                        "value": 0.48031496062992124
                    },
                    {
                        "number": 7,
                        "time": 53.348388671875,
                        "value": 0.4881889763779528
                    },
                    {
                        "number": 7,
                        "time": 53.468017578125,
                        "value": 0.49606299212598426
                    },
                    {
                        "number": 7,
                        "time": 53.587646484375,
                        "value": 0.5039370078740157
                    },
                    {
                        "number": 7,
                        "time": 53.707275390625,
                        "value": 0.5118110236220472
                    },
                    {
                        "number": 7,
                        "time": 53.826904296875,
                        "value": 0.5196850393700787
                    },
                    {
                        "number": 7,
                        "time": 53.946533203125,
                        "value": 0.5275590551181102
                    },
                    {
                        "number": 7,
                        "time": 54.066162109375,
                        "value": 0.5354330708661418
                    },
                    {
                        "number": 7,
                        "time": 54.17724609375,
                        "value": 0.5433070866141733
                    },
                    {
                        "number": 7,
                        "time": 54.296875,
                        "value": 0.5511811023622047
                    },
                    {
                        "number": 7,
                        "time": 54.4140625,
                        "value": 0.5590551181102362
                    },
                    {
                        "number": 7,
                        "time": 54.46533203125,
                        "value": 0.5511811023622047
                    },
                    {
                        "number": 7,
                        "time": 54.508056640625,
                        "value": 0.5433070866141733
                    },
                    {
                        "number": 7,
                        "time": 54.559326171875,
                        "value": 0.5354330708661418
                    },
                    {
                        "number": 7,
                        "time": 54.60205078125,
                        "value": 0.5275590551181102
                    },
                    {
                        "number": 7,
                        "time": 54.6533203125,
                        "value": 0.5196850393700787
                    },
                    {
                        "number": 7,
                        "time": 54.696044921875,
                        "value": 0.5118110236220472
                    },
                    {
                        "number": 7,
                        "time": 54.747314453125,
                        "value": 0.5039370078740157
                    },
                    {
                        "number": 7,
                        "time": 54.7900390625,
                        "value": 0.49606299212598426
                    },
                    {
                        "number": 7,
                        "time": 54.832763671875,
                        "value": 0.4881889763779528
                    },
                    {
                        "number": 7,
                        "time": 54.884033203125,
                        "value": 0.48031496062992124
                    },
                    {
                        "number": 7,
                        "time": 54.9267578125,
                        "value": 0.47244094488188976
                    },
                    {
                        "number": 7,
                        "time": 54.97802734375,
                        "value": 0.4645669291338583
                    },
                    {
                        "number": 7,
                        "time": 55.020751953125,
                        "value": 0.4566929133858268
                    },
                    {
                        "number": 7,
                        "time": 55.072021484375,
                        "value": 0.44881889763779526
                    },
                    {
                        "number": 7,
                        "time": 55.11474609375,
                        "value": 0.4409448818897638
                    },
                    {
                        "number": 7,
                        "time": 55.166015625,
                        "value": 0.4330708661417323
                    },
                    {
                        "number": 7,
                        "time": 55.208740234375,
                        "value": 0.4251968503937008
                    },
                    {
                        "number": 7,
                        "time": 55.25146484375,
                        "value": 0.41732283464566927
                    },
                    {
                        "number": 7,
                        "time": 55.302734375,
                        "value": 0.4094488188976378
                    },
                    {
                        "number": 7,
                        "time": 55.345458984375,
                        "value": 0.4015748031496063
                    },
                    {
                        "number": 7,
                        "time": 56.9921875,
                        "value": 0.4094488188976378
                    },
                    {
                        "number": 7,
                        "time": 57.069091796875,
                        "value": 0.41732283464566927
                    },
                    {
                        "number": 7,
                        "time": 57.137451171875,
                        "value": 0.4251968503937008
                    },
                    {
                        "number": 7,
                        "time": 57.205810546875,
                        "value": 0.4330708661417323
                    },
                    {
                        "number": 7,
                        "time": 57.28271484375,
                        "value": 0.4409448818897638
                    },
                    {
                        "number": 7,
                        "time": 57.35107421875,
                        "value": 0.44881889763779526
                    },
                    {
                        "number": 7,
                        "time": 57.41943359375,
                        "value": 0.4566929133858268
                    },
                    {
                        "number": 7,
                        "time": 57.48779296875,
                        "value": 0.4645669291338583
                    },
                    {
                        "number": 7,
                        "time": 57.564697265625,
                        "value": 0.47244094488188976
                    },
                    {
                        "number": 7,
                        "time": 57.633056640625,
                        "value": 0.48031496062992124
                    },
                    {
                        "number": 7,
                        "time": 57.701416015625,
                        "value": 0.4881889763779528
                    },
                    {
                        "number": 7,
                        "time": 57.7783203125,
                        "value": 0.49606299212598426
                    },
                    {
                        "number": 7,
                        "time": 57.8466796875,
                        "value": 0.5039370078740157
                    },
                    {
                        "number": 7,
                        "time": 57.9150390625,
                        "value": 0.5118110236220472
                    },
                    {
                        "number": 7,
                        "time": 57.9833984375,
                        "value": 0.5196850393700787
                    },
                    {
                        "number": 7,
                        "time": 58.060302734375,
                        "value": 0.5275590551181102
                    },
                    {
                        "number": 7,
                        "time": 58.125,
                        "value": 0.5354330708661418
                    },
                    {
                        "number": 7,
                        "time": 58.150634765625,
                        "value": 0.5433070866141733
                    },
                    {
                        "number": 7,
                        "time": 58.17626953125,
                        "value": 0.5511811023622047
                    },
                    {
                        "number": 7,
                        "time": 58.201904296875,
                        "value": 0.5590551181102362
                    },
                    {
                        "number": 7,
                        "time": 58.2275390625,
                        "value": 0.5669291338582677
                    },
                    {
                        "number": 7,
                        "time": 58.253173828125,
                        "value": 0.5748031496062992
                    },
                    {
                        "number": 7,
                        "time": 58.27880859375,
                        "value": 0.5826771653543307
                    },
                    {
                        "number": 7,
                        "time": 58.304443359375,
                        "value": 0.5905511811023622
                    },
                    {
                        "number": 7,
                        "time": 58.330078125,
                        "value": 0.5984251968503937
                    },
                    {
                        "number": 7,
                        "time": 58.34716796875,
                        "value": 0.6062992125984252
                    },
                    {
                        "number": 7,
                        "time": 58.372802734375,
                        "value": 0.6141732283464567
                    },
                    {
                        "number": 7,
                        "time": 58.3984375,
                        "value": 0.6220472440944882
                    },
                    {
                        "number": 7,
                        "time": 58.424072265625,
                        "value": 0.6299212598425197
                    },
                    {
                        "number": 7,
                        "time": 58.44970703125,
                        "value": 0.6377952755905512
                    },
                    {
                        "number": 7,
                        "time": 58.475341796875,
                        "value": 0.6456692913385826
                    },
                    {
                        "number": 7,
                        "time": 58.5009765625,
                        "value": 0.6535433070866141
                    },
                    {
                        "number": 7,
                        "time": 58.526611328125,
                        "value": 0.6614173228346457
                    },
                    {
                        "number": 7,
                        "time": 58.543701171875,
                        "value": 0.6692913385826772
                    },
                    {
                        "number": 7,
                        "time": 58.5693359375,
                        "value": 0.6771653543307087
                    },
                    {
                        "number": 7,
                        "time": 58.594970703125,
                        "value": 0.6850393700787402
                    },
                    {
                        "number": 7,
                        "time": 58.62060546875,
                        "value": 0.6929133858267716
                    },
                    {
                        "number": 7,
                        "time": 58.646240234375,
                        "value": 0.7007874015748031
                    },
                    {
                        "number": 7,
                        "time": 58.671875,
                        "value": 0.7086614173228346
                    },
                    {
                        "number": 7,
                        "time": 58.697509765625,
                        "value": 0.7165354330708661
                    },
                    {
                        "number": 7,
                        "time": 58.72314453125,
                        "value": 0.7244094488188977
                    },
                    {
                        "number": 7,
                        "time": 58.740234375,
                        "value": 0.7322834645669292
                    },
                    {
                        "number": 7,
                        "time": 58.765869140625,
                        "value": 0.7401574803149606
                    },
                    {
                        "number": 7,
                        "time": 58.828125,
                        "value": 0.7480314960629921
                    },
                    {
                        "number": 7,
                        "time": 59.033203125,
                        "value": 0.7559055118110236
                    },
                    {
                        "number": 7,
                        "time": 59.23828125,
                        "value": 0.7637795275590551
                    },
                    {
                        "number": 7,
                        "time": 59.443359375,
                        "value": 0.7716535433070866
                    },
                    {
                        "number": 7,
                        "time": 59.6484375,
                        "value": 0.7795275590551181
                    },
                    {
                        "number": 7,
                        "time": 59.853515625,
                        "value": 0.7874015748031497
                    },
                    {
                        "number": 7,
                        "time": 60.05859375,
                        "value": 0.7952755905511811
                    },
                    {
                        "number": 7,
                        "time": 60.1953125,
                        "value": 0.8031496062992126
                    },
                    {
                        "number": 7,
                        "time": 60.238037109375,
                        "value": 0.7952755905511811
                    },
                    {
                        "number": 7,
                        "time": 60.28076171875,
                        "value": 0.7874015748031497
                    },
                    {
                        "number": 7,
                        "time": 60.323486328125,
                        "value": 0.7795275590551181
                    },
                    {
                        "number": 7,
                        "time": 60.3662109375,
                        "value": 0.7716535433070866
                    },
                    {
                        "number": 7,
                        "time": 60.408935546875,
                        "value": 0.7637795275590551
                    },
                    {
                        "number": 7,
                        "time": 60.45166015625,
                        "value": 0.7559055118110236
                    },
                    {
                        "number": 7,
                        "time": 60.494384765625,
                        "value": 0.7480314960629921
                    },
                    {
                        "number": 7,
                        "time": 60.537109375,
                        "value": 0.7401574803149606
                    },
                    {
                        "number": 7,
                        "time": 60.579833984375,
                        "value": 0.7322834645669292
                    },
                    {
                        "number": 7,
                        "time": 60.62255859375,
                        "value": 0.7244094488188977
                    },
                    {
                        "number": 7,
                        "time": 60.665283203125,
                        "value": 0.7165354330708661
                    },
                    {
                        "number": 7,
                        "time": 60.7080078125,
                        "value": 0.7086614173228346
                    },
                    {
                        "number": 7,
                        "time": 60.750732421875,
                        "value": 0.7007874015748031
                    },
                    {
                        "number": 7,
                        "time": 60.79345703125,
                        "value": 0.6929133858267716
                    },
                    {
                        "number": 7,
                        "time": 60.836181640625,
                        "value": 0.6850393700787402
                    },
                    {
                        "number": 7,
                        "time": 60.87890625,
                        "value": 0.6771653543307087
                    },
                    {
                        "number": 7,
                        "time": 60.921630859375,
                        "value": 0.6692913385826772
                    },
                    {
                        "number": 7,
                        "time": 60.96435546875,
                        "value": 0.6614173228346457
                    },
                    {
                        "number": 7,
                        "time": 61.007080078125,
                        "value": 0.6535433070866141
                    },
                    {
                        "number": 7,
                        "time": 61.0498046875,
                        "value": 0.6456692913385826
                    },
                    {
                        "number": 7,
                        "time": 61.092529296875,
                        "value": 0.6377952755905512
                    },
                    {
                        "number": 7,
                        "time": 61.13525390625,
                        "value": 0.6299212598425197
                    },
                    {
                        "number": 7,
                        "time": 61.177978515625,
                        "value": 0.6220472440944882
                    },
                    {
                        "number": 7,
                        "time": 61.220703125,
                        "value": 0.6141732283464567
                    },
                    {
                        "number": 7,
                        "time": 61.263427734375,
                        "value": 0.6062992125984252
                    },
                    {
                        "number": 7,
                        "time": 61.30615234375,
                        "value": 0.5984251968503937
                    },
                    {
                        "number": 7,
                        "time": 61.348876953125,
                        "value": 0.5905511811023622
                    },
                    {
                        "number": 7,
                        "time": 61.3916015625,
                        "value": 0.5826771653543307
                    },
                    {
                        "number": 7,
                        "time": 61.434326171875,
                        "value": 0.5748031496062992
                    },
                    {
                        "number": 7,
                        "time": 61.47705078125,
                        "value": 0.5669291338582677
                    },
                    {
                        "number": 7,
                        "time": 61.519775390625,
                        "value": 0.5590551181102362
                    },
                    {
                        "number": 7,
                        "time": 61.5625,
                        "value": 0.5511811023622047
                    },
                    {
                        "number": 7,
                        "time": 61.605224609375,
                        "value": 0.5433070866141733
                    },
                    {
                        "number": 7,
                        "time": 61.64794921875,
                        "value": 0.5354330708661418
                    },
                    {
                        "number": 7,
                        "time": 61.68212890625,
                        "value": 0.5275590551181102
                    },
                    {
                        "number": 7,
                        "time": 61.724853515625,
                        "value": 0.5196850393700787
                    },
                    {
                        "number": 7,
                        "time": 61.767578125,
                        "value": 0.5118110236220472
                    },
                    {
                        "number": 7,
                        "time": 61.810302734375,
                        "value": 0.5039370078740157
                    },
                    {
                        "number": 7,
                        "time": 61.85302734375,
                        "value": 0.49606299212598426
                    },
                    {
                        "number": 7,
                        "time": 61.89453125,
                        "value": 0.4881889763779528
                    },
                    {
                        "number": 7,
                        "time": 61.962890625,
                        "value": 0.48031496062992124
                    },
                    {
                        "number": 7,
                        "time": 62.03125,
                        "value": 0.47244094488188976
                    },
                    {
                        "number": 7,
                        "time": 62.091064453125,
                        "value": 0.4645669291338583
                    },
                    {
                        "number": 7,
                        "time": 62.159423828125,
                        "value": 0.4566929133858268
                    },
                    {
                        "number": 7,
                        "time": 62.21923828125,
                        "value": 0.44881889763779526
                    },
                    {
                        "number": 7,
                        "time": 62.28759765625,
                        "value": 0.4409448818897638
                    },
                    {
                        "number": 7,
                        "time": 62.347412109375,
                        "value": 0.4330708661417323
                    },
                    {
                        "number": 7,
                        "time": 62.415771484375,
                        "value": 0.4251968503937008
                    },
                    {
                        "number": 7,
                        "time": 62.4755859375,
                        "value": 0.41732283464566927
                    },
                    {
                        "number": 7,
                        "time": 62.55859375,
                        "value": 0.4094488188976378
                    },
                    {
                        "number": 7,
                        "time": 62.635498046875,
                        "value": 0.4015748031496063
                    },
                    {
                        "number": 7,
                        "time": 62.703857421875,
                        "value": 0.3937007874015748
                    },
                    {
                        "number": 7,
                        "time": 62.772216796875,
                        "value": 0.3858267716535433
                    },
                    {
                        "number": 7,
                        "time": 62.840576171875,
                        "value": 0.3779527559055118
                    },
                    {
                        "number": 7,
                        "time": 62.908935546875,
                        "value": 0.3700787401574803
                    },
                    {
                        "number": 7,
                        "time": 62.977294921875,
                        "value": 0.36220472440944884
                    },
                    {
                        "number": 7,
                        "time": 63.05419921875,
                        "value": 0.3543307086614173
                    },
                    {
                        "number": 7,
                        "time": 63.12255859375,
                        "value": 0.3464566929133858
                    },
                    {
                        "number": 7,
                        "time": 63.19091796875,
                        "value": 0.33858267716535434
                    },
                    {
                        "number": 7,
                        "time": 63.25927734375,
                        "value": 0.33070866141732286
                    },
                    {
                        "number": 7,
                        "time": 63.32763671875,
                        "value": 0.3228346456692913
                    },
                    {
                        "number": 7,
                        "time": 63.39599609375,
                        "value": 0.31496062992125984
                    },
                    {
                        "number": 7,
                        "time": 63.472900390625,
                        "value": 0.30708661417322836
                    },
                    {
                        "number": 7,
                        "time": 64.31640625,
                        "value": 0.36220472440944884
                    },
                    {
                        "number": 7,
                        "time": 65.68359375,
                        "value": 0.3700787401574803
                    },
                    {
                        "number": 7,
                        "time": 65.76904296875,
                        "value": 0.3779527559055118
                    },
                    {
                        "number": 7,
                        "time": 65.845947265625,
                        "value": 0.3858267716535433
                    },
                    {
                        "number": 7,
                        "time": 65.931396484375,
                        "value": 0.3937007874015748
                    },
                    {
                        "number": 7,
                        "time": 66.00830078125,
                        "value": 0.4015748031496063
                    },
                    {
                        "number": 7,
                        "time": 66.09375,
                        "value": 0.4094488188976378
                    },
                    {
                        "number": 7,
                        "time": 66.170654296875,
                        "value": 0.41732283464566927
                    },
                    {
                        "number": 7,
                        "time": 66.26953125,
                        "value": 0.4251968503937008
                    },
                    {
                        "number": 7,
                        "time": 66.42333984375,
                        "value": 0.41732283464566927
                    },
                    {
                        "number": 7,
                        "time": 66.568603515625,
                        "value": 0.4094488188976378
                    },
                    {
                        "number": 7,
                        "time": 66.7138671875,
                        "value": 0.4015748031496063
                    },
                    {
                        "number": 7,
                        "time": 66.859130859375,
                        "value": 0.3937007874015748
                    },
                    {
                        "number": 7,
                        "time": 67.00439453125,
                        "value": 0.3858267716535433
                    },
                    {
                        "number": 7,
                        "time": 67.149658203125,
                        "value": 0.3779527559055118
                    },
                    {
                        "number": 7,
                        "time": 67.294921875,
                        "value": 0.3700787401574803
                    },
                    {
                        "number": 7,
                        "time": 67.440185546875,
                        "value": 0.36220472440944884
                    },
                    {
                        "number": 7,
                        "time": 67.58544921875,
                        "value": 0.3543307086614173
                    },
                    {
                        "number": 7,
                        "time": 67.730712890625,
                        "value": 0.3464566929133858
                    },
                    {
                        "number": 7,
                        "time": 70.625,
                        "value": 0.3543307086614173
                    },
                    {
                        "number": 7,
                        "time": 71.05224609375,
                        "value": 0.3464566929133858
                    },
                    {
                        "number": 7,
                        "time": 71.4794921875,
                        "value": 0.33858267716535434
                    },
                    {
                        "number": 7,
                        "time": 71.89453125,
                        "value": 0.33070866141732286
                    },
                    {
                        "number": 7,
                        "time": 71.962890625,
                        "value": 0.3228346456692913
                    },
                    {
                        "number": 7,
                        "time": 72.022705078125,
                        "value": 0.31496062992125984
                    },
                    {
                        "number": 7,
                        "time": 72.08251953125,
                        "value": 0.30708661417322836
                    },
                    {
                        "number": 7,
                        "time": 72.142333984375,
                        "value": 0.2992125984251969
                    },
                    {
                        "number": 7,
                        "time": 72.2021484375,
                        "value": 0.29133858267716534
                    },
                    {
                        "number": 7,
                        "time": 72.261962890625,
                        "value": 0.28346456692913385
                    },
                    {
                        "number": 7,
                        "time": 72.32177734375,
                        "value": 0.2755905511811024
                    },
                    {
                        "number": 7,
                        "time": 72.4609375,
                        "value": 0.33858267716535434
                    },
                    {
                        "number": 7,
                        "time": 72.51953125,
                        "value": 0.33858267716535434
                    },
                    {
                        "number": 7,
                        "time": 72.55859375,
                        "value": 0.33858267716535434
                    },
                    {
                        "number": 7,
                        "time": 72.823486328125,
                        "value": 0.3464566929133858
                    },
                    {
                        "number": 7,
                        "time": 73.08837890625,
                        "value": 0.3543307086614173
                    },
                    {
                        "number": 7,
                        "time": 73.353271484375,
                        "value": 0.36220472440944884
                    },
                    {
                        "number": 7,
                        "time": 73.609619140625,
                        "value": 0.3700787401574803
                    },
                    {
                        "number": 7,
                        "time": 73.87451171875,
                        "value": 0.3779527559055118
                    },
                    {
                        "number": 7,
                        "time": 74.139404296875,
                        "value": 0.3858267716535433
                    },
                    {
                        "number": 7,
                        "time": 74.39453125,
                        "value": 0.3779527559055118
                    },
                    {
                        "number": 7,
                        "time": 74.642333984375,
                        "value": 0.3700787401574803
                    },
                    {
                        "number": 7,
                        "time": 74.89013671875,
                        "value": 0.36220472440944884
                    },
                    {
                        "number": 7,
                        "time": 75.137939453125,
                        "value": 0.3543307086614173
                    },
                    {
                        "number": 7,
                        "time": 75.377197265625,
                        "value": 0.3464566929133858
                    },
                    {
                        "number": 7,
                        "time": 75.625,
                        "value": 0.33858267716535434
                    },
                    {
                        "number": 7,
                        "time": 75.872802734375,
                        "value": 0.33070866141732286
                    },
                    {
                        "number": 7,
                        "time": 76.40625,
                        "value": 0.33070866141732286
                    },
                    {
                        "number": 7,
                        "time": 76.52587890625,
                        "value": 0.33858267716535434
                    },
                    {
                        "number": 7,
                        "time": 76.636962890625,
                        "value": 0.3464566929133858
                    },
                    {
                        "number": 7,
                        "time": 76.748046875,
                        "value": 0.3543307086614173
                    },
                    {
                        "number": 7,
                        "time": 76.859130859375,
                        "value": 0.36220472440944884
                    },
                    {
                        "number": 7,
                        "time": 76.97021484375,
                        "value": 0.3700787401574803
                    },
                    {
                        "number": 7,
                        "time": 77.081298828125,
                        "value": 0.3779527559055118
                    },
                    {
                        "number": 7,
                        "time": 77.1923828125,
                        "value": 0.3858267716535433
                    },
                    {
                        "number": 7,
                        "time": 77.303466796875,
                        "value": 0.3937007874015748
                    },
                    {
                        "number": 7,
                        "time": 77.41455078125,
                        "value": 0.4015748031496063
                    },
                    {
                        "number": 7,
                        "time": 77.51953125,
                        "value": 0.4094488188976378
                    },
                    {
                        "number": 7,
                        "time": 77.67333984375,
                        "value": 0.4015748031496063
                    },
                    {
                        "number": 7,
                        "time": 77.8271484375,
                        "value": 0.3937007874015748
                    },
                    {
                        "number": 7,
                        "time": 77.98095703125,
                        "value": 0.3858267716535433
                    },
                    {
                        "number": 7,
                        "time": 78.134765625,
                        "value": 0.3779527559055118
                    },
                    {
                        "number": 7,
                        "time": 78.28857421875,
                        "value": 0.3700787401574803
                    },
                    {
                        "number": 7,
                        "time": 78.4423828125,
                        "value": 0.36220472440944884
                    },
                    {
                        "number": 7,
                        "time": 78.59619140625,
                        "value": 0.3543307086614173
                    },
                    {
                        "number": 7,
                        "time": 78.75,
                        "value": 0.3464566929133858
                    },
                    {
                        "number": 7,
                        "time": 78.86962890625,
                        "value": 0.33858267716535434
                    },
                    {
                        "number": 7,
                        "time": 78.9892578125,
                        "value": 0.33070866141732286
                    },
                    {
                        "number": 7,
                        "time": 79.10888671875,
                        "value": 0.3228346456692913
                    },
                    {
                        "number": 7,
                        "time": 79.228515625,
                        "value": 0.31496062992125984
                    },
                    {
                        "number": 7,
                        "time": 79.34814453125,
                        "value": 0.30708661417322836
                    },
                    {
                        "number": 7,
                        "time": 79.4677734375,
                        "value": 0.2992125984251969
                    },
                    {
                        "number": 7,
                        "time": 79.58740234375,
                        "value": 0.29133858267716534
                    },
                    {
                        "number": 7,
                        "time": 79.70703125,
                        "value": 0.28346456692913385
                    },
                    {
                        "number": 7,
                        "time": 79.82666015625,
                        "value": 0.2755905511811024
                    },
                    {
                        "number": 7,
                        "time": 79.937744140625,
                        "value": 0.2677165354330709
                    },
                    {
                        "number": 7,
                        "time": 80.057373046875,
                        "value": 0.25984251968503935
                    },
                    {
                        "number": 7,
                        "time": 80.177001953125,
                        "value": 0.25196850393700787
                    },
                    {
                        "number": 7,
                        "time": 80.5859375,
                        "value": 0.5039370078740157
                    },
                    {
                        "number": 7,
                        "time": 80.99609375,
                        "value": 0.5039370078740157
                    },
                    {
                        "number": 7,
                        "time": 81.11572265625,
                        "value": 0.5118110236220472
                    },
                    {
                        "number": 7,
                        "time": 81.2353515625,
                        "value": 0.5196850393700787
                    },
                    {
                        "number": 7,
                        "time": 81.35498046875,
                        "value": 0.5275590551181102
                    },
                    {
                        "number": 7,
                        "time": 81.466064453125,
                        "value": 0.5354330708661418
                    },
                    {
                        "number": 7,
                        "time": 81.585693359375,
                        "value": 0.5433070866141733
                    },
                    {
                        "number": 7,
                        "time": 81.705322265625,
                        "value": 0.5511811023622047
                    },
                    {
                        "number": 7,
                        "time": 81.81640625,
                        "value": 0.5590551181102362
                    },
                    {
                        "number": 7,
                        "time": 81.93603515625,
                        "value": 0.5669291338582677
                    },
                    {
                        "number": 7,
                        "time": 82.0556640625,
                        "value": 0.5748031496062992
                    },
                    {
                        "number": 7,
                        "time": 82.17529296875,
                        "value": 0.5826771653543307
                    },
                    {
                        "number": 7,
                        "time": 82.286376953125,
                        "value": 0.5905511811023622
                    },
                    {
                        "number": 7,
                        "time": 82.406005859375,
                        "value": 0.5984251968503937
                    },
                    {
                        "number": 7,
                        "time": 82.55859375,
                        "value": 0.5905511811023622
                    },
                    {
                        "number": 7,
                        "time": 82.6953125,
                        "value": 0.5826771653543307
                    },
                    {
                        "number": 7,
                        "time": 82.823486328125,
                        "value": 0.5748031496062992
                    },
                    {
                        "number": 7,
                        "time": 82.95166015625,
                        "value": 0.5669291338582677
                    },
                    {
                        "number": 7,
                        "time": 83.079833984375,
                        "value": 0.5590551181102362
                    },
                    {
                        "number": 7,
                        "time": 83.2080078125,
                        "value": 0.5511811023622047
                    },
                    {
                        "number": 7,
                        "time": 83.336181640625,
                        "value": 0.5433070866141733
                    },
                    {
                        "number": 7,
                        "time": 83.46435546875,
                        "value": 0.5354330708661418
                    },
                    {
                        "number": 7,
                        "time": 83.592529296875,
                        "value": 0.5275590551181102
                    },
                    {
                        "number": 7,
                        "time": 83.729248046875,
                        "value": 0.5196850393700787
                    },
                    {
                        "number": 7,
                        "time": 83.857421875,
                        "value": 0.5118110236220472
                    },
                    {
                        "number": 7,
                        "time": 83.985595703125,
                        "value": 0.5039370078740157
                    },
                    {
                        "number": 7,
                        "time": 84.11376953125,
                        "value": 0.49606299212598426
                    },
                    {
                        "number": 7,
                        "time": 84.78515625,
                        "value": 0.5118110236220472
                    },
                    {
                        "number": 7,
                        "time": 84.853515625,
                        "value": 0.5196850393700787
                    },
                    {
                        "number": 7,
                        "time": 84.913330078125,
                        "value": 0.5275590551181102
                    },
                    {
                        "number": 7,
                        "time": 84.97314453125,
                        "value": 0.5354330708661418
                    },
                    {
                        "number": 7,
                        "time": 85.04150390625,
                        "value": 0.5433070866141733
                    },
                    {
                        "number": 7,
                        "time": 85.101318359375,
                        "value": 0.5511811023622047
                    },
                    {
                        "number": 7,
                        "time": 85.1611328125,
                        "value": 0.5590551181102362
                    },
                    {
                        "number": 7,
                        "time": 85.220947265625,
                        "value": 0.5669291338582677
                    },
                    {
                        "number": 7,
                        "time": 85.289306640625,
                        "value": 0.5748031496062992
                    },
                    {
                        "number": 7,
                        "time": 85.34912109375,
                        "value": 0.5826771653543307
                    },
                    {
                        "number": 7,
                        "time": 85.408935546875,
                        "value": 0.5905511811023622
                    },
                    {
                        "number": 7,
                        "time": 85.477294921875,
                        "value": 0.5984251968503937
                    },
                    {
                        "number": 7,
                        "time": 85.537109375,
                        "value": 0.6062992125984252
                    },
                    {
                        "number": 7,
                        "time": 85.596923828125,
                        "value": 0.6141732283464567
                    },
                    {
                        "number": 7,
                        "time": 85.65673828125,
                        "value": 0.6220472440944882
                    },
                    {
                        "number": 7,
                        "time": 85.72509765625,
                        "value": 0.6299212598425197
                    },
                    {
                        "number": 7,
                        "time": 85.78125,
                        "value": 0.6377952755905512
                    },
                    {
                        "number": 7,
                        "time": 85.8837890625,
                        "value": 0.6299212598425197
                    },
                    {
                        "number": 7,
                        "time": 85.986328125,
                        "value": 0.6220472440944882
                    },
                    {
                        "number": 7,
                        "time": 86.080322265625,
                        "value": 0.6141732283464567
                    },
                    {
                        "number": 7,
                        "time": 86.182861328125,
                        "value": 0.6062992125984252
                    },
                    {
                        "number": 7,
                        "time": 86.27685546875,
                        "value": 0.5984251968503937
                    },
                    {
                        "number": 7,
                        "time": 86.37939453125,
                        "value": 0.5905511811023622
                    },
                    {
                        "number": 7,
                        "time": 86.473388671875,
                        "value": 0.5826771653543307
                    },
                    {
                        "number": 7,
                        "time": 86.575927734375,
                        "value": 0.5748031496062992
                    },
                    {
                        "number": 7,
                        "time": 86.678466796875,
                        "value": 0.5669291338582677
                    },
                    {
                        "number": 7,
                        "time": 86.7724609375,
                        "value": 0.5590551181102362
                    },
                    {
                        "number": 7,
                        "time": 86.875,
                        "value": 0.5511811023622047
                    },
                    {
                        "number": 7,
                        "time": 86.968994140625,
                        "value": 0.5433070866141733
                    },
                    {
                        "number": 7,
                        "time": 87.071533203125,
                        "value": 0.5354330708661418
                    },
                    {
                        "number": 7,
                        "time": 87.16552734375,
                        "value": 0.5275590551181102
                    },
                    {
                        "number": 7,
                        "time": 87.26806640625,
                        "value": 0.5196850393700787
                    },
                    {
                        "number": 7,
                        "time": 87.37060546875,
                        "value": 0.5118110236220472
                    },
                    {
                        "number": 7,
                        "time": 87.51953125,
                        "value": 0.5039370078740157
                    },
                    {
                        "number": 7,
                        "time": 87.587890625,
                        "value": 0.49606299212598426
                    },
                    {
                        "number": 7,
                        "time": 87.647705078125,
                        "value": 0.4881889763779528
                    },
                    {
                        "number": 7,
                        "time": 87.716064453125,
                        "value": 0.48031496062992124
                    },
                    {
                        "number": 7,
                        "time": 87.77587890625,
                        "value": 0.47244094488188976
                    },
                    {
                        "number": 7,
                        "time": 87.84423828125,
                        "value": 0.4645669291338583
                    },
                    {
                        "number": 7,
                        "time": 87.904052734375,
                        "value": 0.4566929133858268
                    },
                    {
                        "number": 7,
                        "time": 87.972412109375,
                        "value": 0.44881889763779526
                    },
                    {
                        "number": 7,
                        "time": 88.0322265625,
                        "value": 0.4409448818897638
                    },
                    {
                        "number": 7,
                        "time": 88.1005859375,
                        "value": 0.4330708661417323
                    },
                    {
                        "number": 7,
                        "time": 88.160400390625,
                        "value": 0.4251968503937008
                    },
                    {
                        "number": 7,
                        "time": 88.228759765625,
                        "value": 0.41732283464566927
                    },
                    {
                        "number": 7,
                        "time": 88.28857421875,
                        "value": 0.4094488188976378
                    },
                    {
                        "number": 7,
                        "time": 88.35693359375,
                        "value": 0.4015748031496063
                    },
                    {
                        "number": 7,
                        "time": 88.416748046875,
                        "value": 0.3937007874015748
                    },
                    {
                        "number": 7,
                        "time": 88.485107421875,
                        "value": 0.3858267716535433
                    },
                    {
                        "number": 7,
                        "time": 88.544921875,
                        "value": 0.3779527559055118
                    },
                    {
                        "number": 7,
                        "time": 88.61328125,
                        "value": 0.3700787401574803
                    },
                    {
                        "number": 7,
                        "time": 88.9453125,
                        "value": 0.47244094488188976
                    },
                    {
                        "number": 7,
                        "time": 90.64453125,
                        "value": 0.47244094488188976
                    },
                    {
                        "number": 7,
                        "time": 90.79833984375,
                        "value": 0.4645669291338583
                    },
                    {
                        "number": 7,
                        "time": 90.943603515625,
                        "value": 0.4566929133858268
                    },
                    {
                        "number": 7,
                        "time": 91.0888671875,
                        "value": 0.44881889763779526
                    },
                    {
                        "number": 7,
                        "time": 91.234130859375,
                        "value": 0.4409448818897638
                    },
                    {
                        "number": 7,
                        "time": 91.37939453125,
                        "value": 0.4330708661417323
                    },
                    {
                        "number": 7,
                        "time": 91.524658203125,
                        "value": 0.4251968503937008
                    },
                    {
                        "number": 7,
                        "time": 91.669921875,
                        "value": 0.41732283464566927
                    },
                    {
                        "number": 7,
                        "time": 91.82373046875,
                        "value": 0.4094488188976378
                    },
                    {
                        "number": 7,
                        "time": 91.968994140625,
                        "value": 0.4015748031496063
                    },
                    {
                        "number": 7,
                        "time": 92.1142578125,
                        "value": 0.3937007874015748
                    },
                    {
                        "number": 7,
                        "time": 92.259521484375,
                        "value": 0.3858267716535433
                    },
                    {
                        "number": 7,
                        "time": 92.63671875,
                        "value": 0.3858267716535433
                    },
                    {
                        "number": 7,
                        "time": 92.92724609375,
                        "value": 0.3779527559055118
                    },
                    {
                        "number": 7,
                        "time": 93.209228515625,
                        "value": 0.3700787401574803
                    },
                    {
                        "number": 7,
                        "time": 93.4912109375,
                        "value": 0.36220472440944884
                    },
                    {
                        "number": 7,
                        "time": 93.76953125,
                        "value": 0.3543307086614173
                    },
                    {
                        "number": 7,
                        "time": 93.863525390625,
                        "value": 0.3464566929133858
                    },
                    {
                        "number": 7,
                        "time": 93.948974609375,
                        "value": 0.33858267716535434
                    },
                    {
                        "number": 7,
                        "time": 94.034423828125,
                        "value": 0.33070866141732286
                    },
                    {
                        "number": 7,
                        "time": 94.12841796875,
                        "value": 0.3228346456692913
                    },
                    {
                        "number": 7,
                        "time": 94.2138671875,
                        "value": 0.31496062992125984
                    },
                    {
                        "number": 7,
                        "time": 94.29931640625,
                        "value": 0.30708661417322836
                    },
                    {
                        "number": 7,
                        "time": 94.384765625,
                        "value": 0.2992125984251969
                    },
                    {
                        "number": 7,
                        "time": 94.478759765625,
                        "value": 0.29133858267716534
                    },
                    {
                        "number": 7,
                        "time": 94.564208984375,
                        "value": 0.28346456692913385
                    },
                    {
                        "number": 7,
                        "time": 94.649658203125,
                        "value": 0.2755905511811024
                    },
                    {
                        "number": 7,
                        "time": 94.74365234375,
                        "value": 0.2677165354330709
                    },
                    {
                        "number": 7,
                        "time": 94.8291015625,
                        "value": 0.25984251968503935
                    },
                    {
                        "number": 7,
                        "time": 94.91455078125,
                        "value": 0.25196850393700787
                    },
                    {
                        "number": 7,
                        "time": 95,
                        "value": 0.2440944881889764
                    },
                    {
                        "number": 7,
                        "time": 95.1727294921875,
                        "value": 0.23622047244094488
                    },
                    {
                        "number": 7,
                        "time": 95.2056884765625,
                        "value": 0.2283464566929134
                    },
                    {
                        "number": 7,
                        "time": 95.2386474609375,
                        "value": 0.2125984251968504
                    },
                    {
                        "number": 7,
                        "time": 95.2716064453125,
                        "value": 0.1968503937007874
                    },
                    {
                        "number": 7,
                        "time": 95.3045654296875,
                        "value": 0.18110236220472442
                    },
                    {
                        "number": 7,
                        "time": 95.3375244140625,
                        "value": 0.16535433070866143
                    },
                    {
                        "number": 7,
                        "time": 95.3704833984375,
                        "value": 0.14960629921259844
                    },
                    {
                        "number": 7,
                        "time": 95.4034423828125,
                        "value": 0.13385826771653545
                    },
                    {
                        "number": 7,
                        "time": 95.4364013671875,
                        "value": 0.11811023622047244
                    },
                    {
                        "number": 7,
                        "time": 95.4693603515625,
                        "value": 0.10236220472440945
                    },
                    {
                        "number": 7,
                        "time": 95.5023193359375,
                        "value": 0.09448818897637795
                    },
                    {
                        "number": 7,
                        "time": 95.5352783203125,
                        "value": 0.07874015748031496
                    },
                    {
                        "number": 7,
                        "time": 95.5682373046875,
                        "value": 0.06299212598425197
                    },
                    {
                        "number": 7,
                        "time": 95.6011962890625,
                        "value": 0.047244094488188976
                    },
                    {
                        "number": 7,
                        "time": 95.6219482421875,
                        "value": 0.047244094488188976
                    }
                ],
                "10": [
                    {
                        "number": 10,
                        "time": 0,
                        "value": 0.5039370078740157
                    },
                    {
                        "number": 10,
                        "time": 48.046875,
                        "value": 0.5826771653543307
                    },
                    {
                        "number": 10,
                        "time": 55.546875,
                        "value": 0.36220472440944884
                    },
                    {
                        "number": 10,
                        "time": 64.3359375,
                        "value": 0.5039370078740157
                    },
                    {
                        "number": 10,
                        "time": 80.5078125,
                        "value": 0.7716535433070866
                    },
                    {
                        "number": 10,
                        "time": 88.7890625,
                        "value": 0.5039370078740157
                    }
                ],
                "91": [
                    {
                        "number": 91,
                        "time": 0,
                        "value": 0.6299212598425197
                    }
                ],
                "121": [
                    {
                        "number": 121,
                        "time": 0,
                        "value": 1
                    },
                    {
                        "number": 121,
                        "time": 96.875,
                        "value": 1
                    }
                ]
            },
            "id": 5,
            "name": "Solos",
            "instrumentNumber": 52,
            "instrument": "choir aahs",
            "instrumentFamily": "ensemble",
            "channelNumber": 0,
            "isPercussion": false
        },
        {
            "startTime": 0,
            "duration": 0,
            "length": 0,
            "notes": [],
            "controlChanges": {},
            "id": 6,
            "name": "seq by David Siu dss@po.cwru.edu"
        }
    ]
}