{
    "header": {
        "PPQ": 384,
        "bpm": 120.25012025012025,
        "timeSignature": [
            4,
            4
        ],
        "name": ""
    },
    "startTime": 0,
    "duration": 213.55488000000133,
    "tracks": [
        {
            "startTime": 0,
            "duration": 0,
            "length": 0,
            "notes": [],
            "controlChanges": {},
            "id": 0
        },
        {
            "startTime": 0,
            "duration": 213.55488000000133,
            "length": 579,
            "notes": [
                {
                    "name": "A4",
                    "midi": 69,
                    "time": 0,
                    "velocity": 1,
                    "duration": 0.49896
                },
                {
                    "name": "G4",
                    "midi": 67,
                    "time": 0.49896,
                    "velocity": 1,
                    "duration": 0.24947999999999998
                },
                {
                    "name": "A4",
                    "midi": 69,
                    "time": 0.74844,
                    "velocity": 1,
                    "duration": 0.24948000000000004
                },
                {
                    "name": "E4",
                    "midi": 64,
                    "time": 0.99792,
                    "velocity": 1,
                    "duration": 0.49895999999999996
                },
                {
                    "name": "D4",
                    "midi": 62,
                    "time": 1.49688,
                    "velocity": 1,
                    "duration": 0.49896000000000007
                },
                {
                    "name": "A4",
                    "midi": 69,
                    "time": 1.99584,
                    "velocity": 1,
                    "duration": 0.24947999999999992
                },
                {
                    "name": "F4",
                    "midi": 65,
                    "time": 2.24532,
                    "velocity": 1,
                    "duration": 0.24948000000000015
                },
                {
                    "name": "C5",
                    "midi": 72,
                    "time": 2.4948,
                    "velocity": 1,
                    "duration": 0.24948000000000015
                },
                {
                    "name": "E5",
                    "midi": 76,
                    "time": 2.7442800000000003,
                    "velocity": 1,
                    "duration": 0.24948000000000015
                },
                {
                    "name": "D5",
                    "midi": 74,
                    "time": 2.9937600000000004,
                    "velocity": 1,
                    "duration": 0.9979200000000001
                },
                {
                    "name": "F5",
                    "midi": 77,
                    "time": 3.9916800000000006,
                    "velocity": 1,
                    "duration": 0.4989600000000003
                },
                {
                    "name": "E5",
                    "midi": 76,
                    "time": 4.490640000000001,
                    "velocity": 1,
                    "duration": 0.24948000000000015
                },
                {
                    "name": "A5",
                    "midi": 81,
                    "time": 4.740120000000001,
                    "velocity": 1,
                    "duration": 0.24948000000000015
                },
                {
                    "name": "G5",
                    "midi": 79,
                    "time": 4.989600000000001,
                    "velocity": 1,
                    "duration": 0.4989600000000003
                },
                {
                    "name": "F5",
                    "midi": 77,
                    "time": 5.488560000000001,
                    "velocity": 1,
                    "duration": 0.24948000000000015
                },
                {
                    "name": "E5",
                    "midi": 76,
                    "time": 5.738040000000002,
                    "velocity": 1,
                    "duration": 0.24948000000000015
                },
                {
                    "name": "D5",
                    "midi": 74,
                    "time": 5.987520000000002,
                    "velocity": 1,
                    "duration": 0.24948000000000015
                },
                {
                    "name": "A5",
                    "midi": 81,
                    "time": 6.237000000000002,
                    "velocity": 1,
                    "duration": 0.24948000000000015
                },
                {
                    "name": "C6",
                    "midi": 84,
                    "time": 6.486480000000002,
                    "velocity": 1,
                    "duration": 1.49688
                },
                {
                    "name": "D#6",
                    "midi": 87,
                    "time": 7.983360000000002,
                    "velocity": 1,
                    "duration": 0.4989599999999994
                },
                {
                    "name": "A#5",
                    "midi": 82,
                    "time": 8.482320000000001,
                    "velocity": 1,
                    "duration": 0.24948000000000015
                },
                {
                    "name": "D#6",
                    "midi": 87,
                    "time": 8.731800000000002,
                    "velocity": 1,
                    "duration": 0.24948000000000015
                },
                {
                    "name": "F5",
                    "midi": 77,
                    "time": 8.981280000000002,
                    "velocity": 1,
                    "duration": 0.4989600000000003
                },
                {
                    "name": "D#5",
                    "midi": 75,
                    "time": 9.480240000000002,
                    "velocity": 1,
                    "duration": 0.4989600000000003
                },
                {
                    "name": "G#5",
                    "midi": 80,
                    "time": 9.979200000000002,
                    "velocity": 1,
                    "duration": 0.24948000000000015
                },
                {
                    "name": "C#5",
                    "midi": 73,
                    "time": 10.228680000000002,
                    "velocity": 1,
                    "duration": 0.24948000000000015
                },
                {
                    "name": "C#5",
                    "midi": 73,
                    "time": 10.478160000000003,
                    "velocity": 1,
                    "duration": 0.24948000000000015
                },
                {
                    "name": "F5",
                    "midi": 77,
                    "time": 10.727640000000003,
                    "velocity": 1,
                    "duration": 0.24948000000000015
                },
                {
                    "name": "A#4",
                    "midi": 70,
                    "time": 10.977120000000003,
                    "velocity": 1,
                    "duration": 0.4989600000000003
                },
                {
                    "name": "G#4",
                    "midi": 68,
                    "time": 11.476080000000003,
                    "velocity": 1,
                    "duration": 0.4989600000000003
                },
                {
                    "name": "G#4",
                    "midi": 68,
                    "time": 11.975040000000003,
                    "velocity": 1,
                    "duration": 0.24948000000000015
                },
                {
                    "name": "C5",
                    "midi": 72,
                    "time": 12.224520000000004,
                    "velocity": 1,
                    "duration": 0.24948000000000015
                },
                {
                    "name": "F4",
                    "midi": 65,
                    "time": 12.474000000000004,
                    "velocity": 1,
                    "duration": 0.4989600000000003
                },
                {
                    "name": "G#4",
                    "midi": 68,
                    "time": 12.972960000000004,
                    "velocity": 1,
                    "duration": 0.24948000000000015
                },
                {
                    "name": "C5",
                    "midi": 72,
                    "time": 13.222440000000004,
                    "velocity": 1,
                    "duration": 0.24948000000000015
                },
                {
                    "name": "F4",
                    "midi": 65,
                    "time": 13.471920000000004,
                    "velocity": 1,
                    "duration": 0.7484400000000004
                },
                {
                    "name": "D4",
                    "midi": 62,
                    "time": 14.220360000000005,
                    "velocity": 1,
                    "duration": 0.24948000000000015
                },
                {
                    "name": "D#4",
                    "midi": 63,
                    "time": 14.469840000000005,
                    "velocity": 1,
                    "duration": 0.24948000000000015
                },
                {
                    "name": "F4",
                    "midi": 65,
                    "time": 14.719320000000005,
                    "velocity": 1,
                    "duration": 0.24948000000000015
                },
                {
                    "name": "G4",
                    "midi": 67,
                    "time": 14.968800000000005,
                    "velocity": 1,
                    "duration": 0.4989600000000003
                },
                {
                    "name": "D6",
                    "midi": 86,
                    "time": 15.966720000000006,
                    "velocity": 1,
                    "duration": 0.4989600000000003
                },
                {
                    "name": "A5",
                    "midi": 81,
                    "time": 16.465680000000006,
                    "velocity": 1,
                    "duration": 0.4989600000000003
                },
                {
                    "name": "G5",
                    "midi": 79,
                    "time": 16.964640000000006,
                    "velocity": 1,
                    "duration": 0.4989600000000003
                },
                {
                    "name": "F5",
                    "midi": 77,
                    "time": 17.463600000000007,
                    "velocity": 1,
                    "duration": 0.4989600000000003
                },
                {
                    "name": "E5",
                    "midi": 76,
                    "time": 17.962560000000007,
                    "velocity": 1,
                    "duration": 0.4989600000000003
                },
                {
                    "name": "D5",
                    "midi": 74,
                    "time": 18.461520000000007,
                    "velocity": 1,
                    "duration": 0.24947999999999837
                },
                {
                    "name": "E5",
                    "midi": 76,
                    "time": 18.711000000000006,
                    "velocity": 1,
                    "duration": 0.24947999999999837
                },
                {
                    "name": "F5",
                    "midi": 77,
                    "time": 18.960480000000004,
                    "velocity": 1,
                    "duration": 0.24947999999999837
                },
                {
                    "name": "G5",
                    "midi": 79,
                    "time": 19.209960000000002,
                    "velocity": 1,
                    "duration": 0.24947999999999837
                },
                {
                    "name": "A5",
                    "midi": 81,
                    "time": 19.45944,
                    "velocity": 1,
                    "duration": 0.4989600000000003
                },
                {
                    "name": "A3",
                    "midi": 57,
                    "time": 19.9584,
                    "velocity": 1,
                    "duration": 0.4989600000000003
                },
                {
                    "name": "B3",
                    "midi": 59,
                    "time": 20.45736,
                    "velocity": 1,
                    "duration": 0.4989600000000003
                },
                {
                    "name": "C4",
                    "midi": 60,
                    "time": 20.95632,
                    "velocity": 1,
                    "duration": 0.4989600000000003
                },
                {
                    "name": "D4",
                    "midi": 62,
                    "time": 21.455280000000002,
                    "velocity": 1,
                    "duration": 0.4989600000000003
                },
                {
                    "name": "C4",
                    "midi": 60,
                    "time": 21.954240000000002,
                    "velocity": 1,
                    "duration": 0.9979200000000006
                },
                {
                    "name": "B3",
                    "midi": 59,
                    "time": 22.952160000000003,
                    "velocity": 1,
                    "duration": 0.4989600000000003
                },
                {
                    "name": "F4",
                    "midi": 65,
                    "time": 23.451120000000003,
                    "velocity": 1,
                    "duration": 0.4989600000000003
                },
                {
                    "name": "D6",
                    "midi": 86,
                    "time": 23.950080000000003,
                    "velocity": 1,
                    "duration": 0.4989600000000003
                },
                {
                    "name": "A5",
                    "midi": 81,
                    "time": 24.449040000000004,
                    "velocity": 1,
                    "duration": 0.4989600000000003
                },
                {
                    "name": "G5",
                    "midi": 79,
                    "time": 24.948000000000004,
                    "velocity": 1,
                    "duration": 0.4989600000000003
                },
                {
                    "name": "F5",
                    "midi": 77,
                    "time": 25.446960000000004,
                    "velocity": 1,
                    "duration": 0.4989600000000003
                },
                {
                    "name": "A3",
                    "midi": 57,
                    "time": 25.945920000000005,
                    "velocity": 1,
                    "duration": 0.4989600000000003
                },
                {
                    "name": "B3",
                    "midi": 59,
                    "time": 26.444880000000005,
                    "velocity": 1,
                    "duration": 0.4989600000000003
                },
                {
                    "name": "C4",
                    "midi": 60,
                    "time": 26.943840000000005,
                    "velocity": 1,
                    "duration": 0.4989600000000003
                },
                {
                    "name": "D4",
                    "midi": 62,
                    "time": 27.442800000000005,
                    "velocity": 1,
                    "duration": 0.4989600000000003
                },
                {
                    "name": "D6",
                    "midi": 86,
                    "time": 27.941760000000006,
                    "velocity": 1,
                    "duration": 0.4989600000000003
                },
                {
                    "name": "A5",
                    "midi": 81,
                    "time": 28.440720000000006,
                    "velocity": 1,
                    "duration": 0.4989600000000003
                },
                {
                    "name": "G5",
                    "midi": 79,
                    "time": 28.939680000000006,
                    "velocity": 1,
                    "duration": 0.4989600000000003
                },
                {
                    "name": "F5",
                    "midi": 77,
                    "time": 29.438640000000007,
                    "velocity": 1,
                    "duration": 0.4989600000000003
                },
                {
                    "name": "A3",
                    "midi": 57,
                    "time": 29.937600000000007,
                    "velocity": 1,
                    "duration": 0.4989600000000003
                },
                {
                    "name": "B3",
                    "midi": 59,
                    "time": 30.436560000000007,
                    "velocity": 1,
                    "duration": 0.4989600000000003
                },
                {
                    "name": "C4",
                    "midi": 60,
                    "time": 30.935520000000007,
                    "velocity": 1,
                    "duration": 0.4989600000000003
                },
                {
                    "name": "D4",
                    "midi": 62,
                    "time": 31.434480000000008,
                    "velocity": 1,
                    "duration": 0.4989600000000003
                },
                {
                    "name": "C6",
                    "midi": 84,
                    "time": 31.933440000000008,
                    "velocity": 1,
                    "duration": 0.4989600000000003
                },
                {
                    "name": "A5",
                    "midi": 81,
                    "time": 32.43240000000001,
                    "velocity": 1,
                    "duration": 0.49895999999999674
                },
                {
                    "name": "E5",
                    "midi": 76,
                    "time": 32.931360000000005,
                    "velocity": 1,
                    "duration": 0.49895999999999674
                },
                {
                    "name": "D5",
                    "midi": 74,
                    "time": 33.43032,
                    "velocity": 1,
                    "duration": 0.49895999999999674
                },
                {
                    "name": "A5",
                    "midi": 81,
                    "time": 33.92928,
                    "velocity": 1,
                    "duration": 0.24947999999999837
                },
                {
                    "name": "F5",
                    "midi": 77,
                    "time": 34.17876,
                    "velocity": 1,
                    "duration": 0.24947999999999837
                },
                {
                    "name": "C6",
                    "midi": 84,
                    "time": 34.428239999999995,
                    "velocity": 1,
                    "duration": 0.24947999999999837
                },
                {
                    "name": "E6",
                    "midi": 88,
                    "time": 34.677719999999994,
                    "velocity": 1,
                    "duration": 0.24947999999999837
                },
                {
                    "name": "D6",
                    "midi": 86,
                    "time": 34.92719999999999,
                    "velocity": 1,
                    "duration": 0.9979200000000006
                },
                {
                    "name": "F6",
                    "midi": 89,
                    "time": 35.92511999999999,
                    "velocity": 1,
                    "duration": 0.49895999999999674
                },
                {
                    "name": "E6",
                    "midi": 88,
                    "time": 36.42407999999999,
                    "velocity": 1,
                    "duration": 0.24947999999999837
                },
                {
                    "name": "A6",
                    "midi": 93,
                    "time": 36.67355999999999,
                    "velocity": 1,
                    "duration": 0.24947999999999837
                },
                {
                    "name": "G6",
                    "midi": 91,
                    "time": 36.923039999999986,
                    "velocity": 1,
                    "duration": 0.49895999999999674
                },
                {
                    "name": "F6",
                    "midi": 89,
                    "time": 37.42199999999998,
                    "velocity": 1,
                    "duration": 0.24947999999999837
                },
                {
                    "name": "E6",
                    "midi": 88,
                    "time": 37.67147999999998,
                    "velocity": 1,
                    "duration": 0.24947999999999837
                },
                {
                    "name": "D6",
                    "midi": 86,
                    "time": 37.92095999999998,
                    "velocity": 1,
                    "duration": 0.49895999999999674
                },
                {
                    "name": "C6",
                    "midi": 84,
                    "time": 38.419919999999976,
                    "velocity": 1,
                    "duration": 0.24947999999999837
                },
                {
                    "name": "F6",
                    "midi": 89,
                    "time": 38.669399999999975,
                    "velocity": 1,
                    "duration": 0.24947999999999837
                },
                {
                    "name": "D6",
                    "midi": 86,
                    "time": 38.91887999999997,
                    "velocity": 1,
                    "duration": 0.49895999999999674
                },
                {
                    "name": "C6",
                    "midi": 84,
                    "time": 39.41783999999997,
                    "velocity": 1,
                    "duration": 0.24947999999999837
                },
                {
                    "name": "A#5",
                    "midi": 82,
                    "time": 39.66731999999997,
                    "velocity": 1,
                    "duration": 0.24947999999999837
                },
                {
                    "name": "A5",
                    "midi": 81,
                    "time": 39.91679999999997,
                    "velocity": 1,
                    "duration": 1.4968799999999973
                },
                {
                    "name": "F5",
                    "midi": 77,
                    "time": 41.413679999999964,
                    "velocity": 1,
                    "duration": 0.49895999999999674
                },
                {
                    "name": "A5",
                    "midi": 81,
                    "time": 41.91263999999996,
                    "velocity": 1,
                    "duration": 1.4968799999999973
                },
                {
                    "name": "F5",
                    "midi": 77,
                    "time": 43.40951999999996,
                    "velocity": 1,
                    "duration": 0.49895999999999674
                },
                {
                    "name": "A5",
                    "midi": 81,
                    "time": 43.908479999999955,
                    "velocity": 1,
                    "duration": 1.4968799999999973
                },
                {
                    "name": "F5",
                    "midi": 77,
                    "time": 45.40535999999995,
                    "velocity": 1,
                    "duration": 0.49895999999999674
                },
                {
                    "name": "A5",
                    "midi": 81,
                    "time": 45.90431999999995,
                    "velocity": 1,
                    "duration": 0.7484400000000022
                },
                {
                    "name": "G5",
                    "midi": 79,
                    "time": 46.65275999999995,
                    "velocity": 1,
                    "duration": 0.24947999999999837
                },
                {
                    "name": "A5",
                    "midi": 81,
                    "time": 46.90223999999995,
                    "velocity": 1,
                    "duration": 0.7484400000000022
                },
                {
                    "name": "E5",
                    "midi": 76,
                    "time": 47.65067999999995,
                    "velocity": 1,
                    "duration": 0.24947999999999837
                },
                {
                    "name": "E5",
                    "midi": 76,
                    "time": 47.90015999999995,
                    "velocity": 1,
                    "duration": 0.24947999999999837
                },
                {
                    "name": "F5",
                    "midi": 77,
                    "time": 48.14963999999995,
                    "velocity": 1,
                    "duration": 0.24947999999999837
                },
                {
                    "name": "A5",
                    "midi": 81,
                    "time": 48.39911999999995,
                    "velocity": 1,
                    "duration": 0.24947999999999837
                },
                {
                    "name": "D6",
                    "midi": 86,
                    "time": 48.648599999999945,
                    "velocity": 1,
                    "duration": 0.24947999999999837
                },
                {
                    "name": "A5",
                    "midi": 81,
                    "time": 48.89807999999994,
                    "velocity": 1,
                    "duration": 0.7484400000000022
                },
                {
                    "name": "G5",
                    "midi": 79,
                    "time": 49.646519999999946,
                    "velocity": 1,
                    "duration": 0.24947999999999837
                },
                {
                    "name": "A5",
                    "midi": 81,
                    "time": 49.895999999999944,
                    "velocity": 1,
                    "duration": 0.7484400000000022
                },
                {
                    "name": "E5",
                    "midi": 76,
                    "time": 50.644439999999946,
                    "velocity": 1,
                    "duration": 0.24947999999999837
                },
                {
                    "name": "E5",
                    "midi": 76,
                    "time": 50.893919999999945,
                    "velocity": 1,
                    "duration": 0.24947999999999837
                },
                {
                    "name": "F5",
                    "midi": 77,
                    "time": 51.14339999999994,
                    "velocity": 1,
                    "duration": 0.24947999999999837
                },
                {
                    "name": "A5",
                    "midi": 81,
                    "time": 51.39287999999994,
                    "velocity": 1,
                    "duration": 0.24947999999999837
                },
                {
                    "name": "D6",
                    "midi": 86,
                    "time": 51.64235999999994,
                    "velocity": 1,
                    "duration": 0.24947999999999837
                },
                {
                    "name": "C6",
                    "midi": 84,
                    "time": 51.89183999999994,
                    "velocity": 1,
                    "duration": 0.49895999999999674
                },
                {
                    "name": "B5",
                    "midi": 83,
                    "time": 52.390799999999935,
                    "velocity": 1,
                    "duration": 0.24947999999999837
                },
                {
                    "name": "C6",
                    "midi": 84,
                    "time": 52.64027999999993,
                    "velocity": 1,
                    "duration": 0.24947999999999837
                },
                {
                    "name": "G#5",
                    "midi": 80,
                    "time": 52.88975999999993,
                    "velocity": 1,
                    "duration": 0.49895999999999674
                },
                {
                    "name": "A5",
                    "midi": 81,
                    "time": 53.38871999999993,
                    "velocity": 1,
                    "duration": 0.49895999999999674
                },
                {
                    "name": "C6",
                    "midi": 84,
                    "time": 53.887679999999925,
                    "velocity": 1,
                    "duration": 0.12474000000000274
                },
                {
                    "name": "C6",
                    "midi": 84,
                    "time": 54.01241999999993,
                    "velocity": 1,
                    "duration": 0.12474000000000274
                },
                {
                    "name": "B5",
                    "midi": 83,
                    "time": 54.13715999999993,
                    "velocity": 1,
                    "duration": 0.12474000000000274
                },
                {
                    "name": "B5",
                    "midi": 83,
                    "time": 54.26189999999993,
                    "velocity": 1,
                    "duration": 0.12474000000000274
                },
                {
                    "name": "G#5",
                    "midi": 80,
                    "time": 54.386639999999936,
                    "velocity": 1,
                    "duration": 0.12474000000000274
                },
                {
                    "name": "G#5",
                    "midi": 80,
                    "time": 54.51137999999994,
                    "velocity": 1,
                    "duration": 0.12474000000000274
                },
                {
                    "name": "G#4",
                    "midi": 68,
                    "time": 54.63611999999994,
                    "velocity": 1,
                    "duration": 0.12474000000000274
                },
                {
                    "name": "G#4",
                    "midi": 68,
                    "time": 54.760859999999944,
                    "velocity": 1,
                    "duration": 0.12474000000000274
                },
                {
                    "name": "F#4",
                    "midi": 66,
                    "time": 54.88559999999995,
                    "velocity": 1,
                    "duration": 0.12474000000000274
                },
                {
                    "name": "G#4",
                    "midi": 68,
                    "time": 55.01033999999995,
                    "velocity": 1,
                    "duration": 0.12474000000000274
                },
                {
                    "name": "F#4",
                    "midi": 66,
                    "time": 55.13507999999995,
                    "velocity": 1,
                    "duration": 0.12474000000000274
                },
                {
                    "name": "E4",
                    "midi": 64,
                    "time": 55.259819999999955,
                    "velocity": 1,
                    "duration": 0.12474000000000274
                },
                {
                    "name": "E4",
                    "midi": 64,
                    "time": 55.38455999999996,
                    "velocity": 1,
                    "duration": 0.12474000000000274
                },
                {
                    "name": "F#4",
                    "midi": 66,
                    "time": 55.50929999999996,
                    "velocity": 1,
                    "duration": 0.12474000000000274
                },
                {
                    "name": "E4",
                    "midi": 64,
                    "time": 55.63403999999996,
                    "velocity": 1,
                    "duration": 0.12474000000000274
                },
                {
                    "name": "D4",
                    "midi": 62,
                    "time": 55.758779999999966,
                    "velocity": 1,
                    "duration": 0.12474000000000274
                },
                {
                    "name": "F4",
                    "midi": 65,
                    "time": 55.88351999999997,
                    "velocity": 1,
                    "duration": 0.12474000000000274
                },
                {
                    "name": "F4",
                    "midi": 65,
                    "time": 56.00825999999997,
                    "velocity": 1,
                    "duration": 0.12474000000000274
                },
                {
                    "name": "F4",
                    "midi": 65,
                    "time": 56.132999999999974,
                    "velocity": 1,
                    "duration": 0.12474000000000274
                },
                {
                    "name": "F4",
                    "midi": 65,
                    "time": 56.25773999999998,
                    "velocity": 1,
                    "duration": 0.12474000000000274
                },
                {
                    "name": "F4",
                    "midi": 65,
                    "time": 56.38247999999998,
                    "velocity": 1,
                    "duration": 0.12474000000000274
                },
                {
                    "name": "F4",
                    "midi": 65,
                    "time": 56.50721999999998,
                    "velocity": 1,
                    "duration": 0.12474000000000274
                },
                {
                    "name": "F4",
                    "midi": 65,
                    "time": 56.631959999999985,
                    "velocity": 1,
                    "duration": 0.12474000000000274
                },
                {
                    "name": "F4",
                    "midi": 65,
                    "time": 56.75669999999999,
                    "velocity": 1,
                    "duration": 0.12474000000000274
                },
                {
                    "name": "F#4",
                    "midi": 66,
                    "time": 56.88143999999999,
                    "velocity": 1,
                    "duration": 0.12474000000000274
                },
                {
                    "name": "G#4",
                    "midi": 68,
                    "time": 57.00617999999999,
                    "velocity": 1,
                    "duration": 0.12474000000000274
                },
                {
                    "name": "F#4",
                    "midi": 66,
                    "time": 57.130919999999996,
                    "velocity": 1,
                    "duration": 0.12474000000000274
                },
                {
                    "name": "E4",
                    "midi": 64,
                    "time": 57.25566,
                    "velocity": 1,
                    "duration": 0.12474000000000274
                },
                {
                    "name": "E4",
                    "midi": 64,
                    "time": 57.3804,
                    "velocity": 1,
                    "duration": 0.12474000000000274
                },
                {
                    "name": "F#4",
                    "midi": 66,
                    "time": 57.505140000000004,
                    "velocity": 1,
                    "duration": 0.12474000000000274
                },
                {
                    "name": "E4",
                    "midi": 64,
                    "time": 57.62988000000001,
                    "velocity": 1,
                    "duration": 0.12474000000000274
                },
                {
                    "name": "D4",
                    "midi": 62,
                    "time": 57.75462000000001,
                    "velocity": 1,
                    "duration": 0.12474000000000274
                },
                {
                    "name": "D4",
                    "midi": 62,
                    "time": 57.87936000000001,
                    "velocity": 1,
                    "duration": 0.12474000000000274
                },
                {
                    "name": "D4",
                    "midi": 62,
                    "time": 58.004100000000015,
                    "velocity": 1,
                    "duration": 0.12474000000000274
                },
                {
                    "name": "D4",
                    "midi": 62,
                    "time": 58.12884000000002,
                    "velocity": 1,
                    "duration": 0.12474000000000274
                },
                {
                    "name": "D4",
                    "midi": 62,
                    "time": 58.25358000000002,
                    "velocity": 1,
                    "duration": 0.12474000000000274
                },
                {
                    "name": "D4",
                    "midi": 62,
                    "time": 58.37832000000002,
                    "velocity": 1,
                    "duration": 0.12474000000000274
                },
                {
                    "name": "D4",
                    "midi": 62,
                    "time": 58.503060000000026,
                    "velocity": 1,
                    "duration": 0.12474000000000274
                },
                {
                    "name": "D4",
                    "midi": 62,
                    "time": 58.62780000000003,
                    "velocity": 1,
                    "duration": 0.12474000000000274
                },
                {
                    "name": "D4",
                    "midi": 62,
                    "time": 58.75254000000003,
                    "velocity": 1,
                    "duration": 0.12474000000000274
                },
                {
                    "name": "C4",
                    "midi": 60,
                    "time": 58.877280000000034,
                    "velocity": 1,
                    "duration": 0.24947999999999837
                },
                {
                    "name": "G#3",
                    "midi": 56,
                    "time": 59.875200000000035,
                    "velocity": 1,
                    "duration": 0.9979200000000006
                },
                {
                    "name": "C4",
                    "midi": 60,
                    "time": 60.873120000000036,
                    "velocity": 1,
                    "duration": 0.9979200000000006
                },
                {
                    "name": "G#3",
                    "midi": 56,
                    "time": 61.871040000000036,
                    "velocity": 1,
                    "duration": 0.12474000000000274
                },
                {
                    "name": "A#3",
                    "midi": 58,
                    "time": 61.99578000000004,
                    "velocity": 1,
                    "duration": 0.12474000000000274
                },
                {
                    "name": "B3",
                    "midi": 59,
                    "time": 62.12052000000004,
                    "velocity": 1,
                    "duration": 0.12474000000000274
                },
                {
                    "name": "C#4",
                    "midi": 61,
                    "time": 62.245260000000044,
                    "velocity": 1,
                    "duration": 0.12474000000000274
                },
                {
                    "name": "B3",
                    "midi": 59,
                    "time": 62.37000000000005,
                    "velocity": 1,
                    "duration": 0.12474000000000274
                },
                {
                    "name": "C#4",
                    "midi": 61,
                    "time": 62.49474000000005,
                    "velocity": 1,
                    "duration": 0.12474000000000274
                },
                {
                    "name": "D4",
                    "midi": 62,
                    "time": 62.61948000000005,
                    "velocity": 1,
                    "duration": 0.12474000000000274
                },
                {
                    "name": "E4",
                    "midi": 64,
                    "time": 62.744220000000055,
                    "velocity": 1,
                    "duration": 0.12474000000000274
                },
                {
                    "name": "D4",
                    "midi": 62,
                    "time": 62.86896000000006,
                    "velocity": 1,
                    "duration": 0.12474000000000274
                },
                {
                    "name": "E4",
                    "midi": 64,
                    "time": 62.99370000000006,
                    "velocity": 1,
                    "duration": 0.12474000000000274
                },
                {
                    "name": "F4",
                    "midi": 65,
                    "time": 63.118440000000064,
                    "velocity": 1,
                    "duration": 0.12474000000000274
                },
                {
                    "name": "G4",
                    "midi": 67,
                    "time": 63.243180000000066,
                    "velocity": 1,
                    "duration": 0.12474000000000274
                },
                {
                    "name": "F4",
                    "midi": 65,
                    "time": 63.36792000000007,
                    "velocity": 1,
                    "duration": 0.12474000000000274
                },
                {
                    "name": "G4",
                    "midi": 67,
                    "time": 63.49266000000007,
                    "velocity": 1,
                    "duration": 0.12474000000000274
                },
                {
                    "name": "G#4",
                    "midi": 68,
                    "time": 63.617400000000075,
                    "velocity": 1,
                    "duration": 0.12474000000000274
                },
                {
                    "name": "A#4",
                    "midi": 70,
                    "time": 63.74214000000008,
                    "velocity": 1,
                    "duration": 0.12474000000000274
                },
                {
                    "name": "B4",
                    "midi": 71,
                    "time": 63.86688000000008,
                    "velocity": 1,
                    "duration": 0.9979199999999935
                },
                {
                    "name": "F4",
                    "midi": 65,
                    "time": 64.86480000000007,
                    "velocity": 1,
                    "duration": 0.9979199999999935
                },
                {
                    "name": "F4",
                    "midi": 65,
                    "time": 65.86272000000007,
                    "velocity": 1,
                    "duration": 0.12474000000000274
                },
                {
                    "name": "G4",
                    "midi": 67,
                    "time": 65.98746000000007,
                    "velocity": 1,
                    "duration": 0.12474000000000274
                },
                {
                    "name": "G#4",
                    "midi": 68,
                    "time": 66.11220000000007,
                    "velocity": 1,
                    "duration": 0.12474000000000274
                },
                {
                    "name": "A#4",
                    "midi": 70,
                    "time": 66.23694000000008,
                    "velocity": 1,
                    "duration": 0.12474000000000274
                },
                {
                    "name": "G#4",
                    "midi": 68,
                    "time": 66.36168000000008,
                    "velocity": 1,
                    "duration": 0.12474000000000274
                },
                {
                    "name": "A#4",
                    "midi": 70,
                    "time": 66.48642000000008,
                    "velocity": 1,
                    "duration": 0.12474000000000274
                },
                {
                    "name": "B4",
                    "midi": 71,
                    "time": 66.61116000000008,
                    "velocity": 1,
                    "duration": 0.12474000000000274
                },
                {
                    "name": "C#5",
                    "midi": 73,
                    "time": 66.73590000000009,
                    "velocity": 1,
                    "duration": 0.12474000000000274
                },
                {
                    "name": "B4",
                    "midi": 71,
                    "time": 66.86064000000009,
                    "velocity": 1,
                    "duration": 0.12474000000000274
                },
                {
                    "name": "C#5",
                    "midi": 73,
                    "time": 66.98538000000009,
                    "velocity": 1,
                    "duration": 0.12474000000000274
                },
                {
                    "name": "D5",
                    "midi": 74,
                    "time": 67.1101200000001,
                    "velocity": 1,
                    "duration": 0.12474000000000274
                },
                {
                    "name": "E5",
                    "midi": 76,
                    "time": 67.2348600000001,
                    "velocity": 1,
                    "duration": 0.12474000000000274
                },
                {
                    "name": "D5",
                    "midi": 74,
                    "time": 67.3596000000001,
                    "velocity": 1,
                    "duration": 0.12474000000000274
                },
                {
                    "name": "E5",
                    "midi": 76,
                    "time": 67.4843400000001,
                    "velocity": 1,
                    "duration": 0.12474000000000274
                },
                {
                    "name": "F5",
                    "midi": 77,
                    "time": 67.6090800000001,
                    "velocity": 1,
                    "duration": 0.12474000000000274
                },
                {
                    "name": "G5",
                    "midi": 79,
                    "time": 67.73382000000011,
                    "velocity": 1,
                    "duration": 0.12474000000000274
                },
                {
                    "name": "E6",
                    "midi": 88,
                    "time": 67.85856000000011,
                    "velocity": 1,
                    "duration": 0.49895999999999674
                },
                {
                    "name": "D#6",
                    "midi": 87,
                    "time": 68.35752000000011,
                    "velocity": 1,
                    "duration": 0.24948000000000548
                },
                {
                    "name": "E6",
                    "midi": 88,
                    "time": 68.60700000000011,
                    "velocity": 1,
                    "duration": 0.24948000000000548
                },
                {
                    "name": "B5",
                    "midi": 83,
                    "time": 68.85648000000012,
                    "velocity": 1,
                    "duration": 0.49895999999999674
                },
                {
                    "name": "A#5",
                    "midi": 82,
                    "time": 69.35544000000012,
                    "velocity": 1,
                    "duration": 0.49895999999999674
                },
                {
                    "name": "E6",
                    "midi": 88,
                    "time": 69.85440000000011,
                    "velocity": 1,
                    "duration": 0.24948000000000548
                },
                {
                    "name": "D#6",
                    "midi": 87,
                    "time": 70.10388000000012,
                    "velocity": 1,
                    "duration": 0.24948000000000548
                },
                {
                    "name": "D#6",
                    "midi": 87,
                    "time": 70.35336000000012,
                    "velocity": 1,
                    "duration": 0.24948000000000548
                },
                {
                    "name": "E6",
                    "midi": 88,
                    "time": 70.60284000000013,
                    "velocity": 1,
                    "duration": 0.24948000000000548
                },
                {
                    "name": "B5",
                    "midi": 83,
                    "time": 70.85232000000013,
                    "velocity": 1,
                    "duration": 0.49895999999999674
                },
                {
                    "name": "A#5",
                    "midi": 82,
                    "time": 71.35128000000013,
                    "velocity": 1,
                    "duration": 0.49895999999999674
                },
                {
                    "name": "E6",
                    "midi": 88,
                    "time": 71.85024000000013,
                    "velocity": 1,
                    "duration": 0.49895999999999674
                },
                {
                    "name": "D#6",
                    "midi": 87,
                    "time": 72.34920000000012,
                    "velocity": 1,
                    "duration": 0.24948000000000548
                },
                {
                    "name": "E6",
                    "midi": 88,
                    "time": 72.59868000000013,
                    "velocity": 1,
                    "duration": 0.24948000000000548
                },
                {
                    "name": "D#6",
                    "midi": 87,
                    "time": 72.84816000000014,
                    "velocity": 1,
                    "duration": 0.49895999999999674
                },
                {
                    "name": "C#6",
                    "midi": 85,
                    "time": 73.34712000000013,
                    "velocity": 1,
                    "duration": 0.1663199999999989
                },
                {
                    "name": "D#6",
                    "midi": 87,
                    "time": 73.51344000000013,
                    "velocity": 1,
                    "duration": 0.1663199999999989
                },
                {
                    "name": "E6",
                    "midi": 88,
                    "time": 73.67976000000013,
                    "velocity": 1,
                    "duration": 0.1663199999999989
                },
                {
                    "name": "E6",
                    "midi": 88,
                    "time": 73.84608000000013,
                    "velocity": 1,
                    "duration": 0.49895999999999674
                },
                {
                    "name": "D#6",
                    "midi": 87,
                    "time": 74.34504000000013,
                    "velocity": 1,
                    "duration": 0.24948000000000548
                },
                {
                    "name": "E6",
                    "midi": 88,
                    "time": 74.59452000000013,
                    "velocity": 1,
                    "duration": 0.24948000000000548
                },
                {
                    "name": "D#6",
                    "midi": 87,
                    "time": 74.84400000000014,
                    "velocity": 1,
                    "duration": 0.49895999999999674
                },
                {
                    "name": "C#6",
                    "midi": 85,
                    "time": 75.34296000000013,
                    "velocity": 1,
                    "duration": 0.1663199999999989
                },
                {
                    "name": "D#6",
                    "midi": 87,
                    "time": 75.50928000000013,
                    "velocity": 1,
                    "duration": 0.1663199999999989
                },
                {
                    "name": "E6",
                    "midi": 88,
                    "time": 75.67560000000013,
                    "velocity": 1,
                    "duration": 0.1663199999999989
                },
                {
                    "name": "E6",
                    "midi": 88,
                    "time": 75.84192000000013,
                    "velocity": 1,
                    "duration": 0.12474000000000274
                },
                {
                    "name": "F#6",
                    "midi": 90,
                    "time": 75.96666000000013,
                    "velocity": 1,
                    "duration": 0.12474000000000274
                },
                {
                    "name": "E6",
                    "midi": 88,
                    "time": 76.09140000000014,
                    "velocity": 1,
                    "duration": 0.12474000000000274
                },
                {
                    "name": "B5",
                    "midi": 83,
                    "time": 76.21614000000014,
                    "velocity": 1,
                    "duration": 0.12474000000000274
                },
                {
                    "name": "B5",
                    "midi": 83,
                    "time": 76.34088000000014,
                    "velocity": 1,
                    "duration": 0.12474000000000274
                },
                {
                    "name": "G5",
                    "midi": 79,
                    "time": 76.83984000000014,
                    "velocity": 1,
                    "duration": 0.12474000000000274
                },
                {
                    "name": "B5",
                    "midi": 83,
                    "time": 76.96458000000014,
                    "velocity": 1,
                    "duration": 0.12474000000000274
                },
                {
                    "name": "G5",
                    "midi": 79,
                    "time": 77.08932000000014,
                    "velocity": 1,
                    "duration": 0.12474000000000274
                },
                {
                    "name": "E5",
                    "midi": 76,
                    "time": 77.21406000000015,
                    "velocity": 1,
                    "duration": 0.12474000000000274
                },
                {
                    "name": "E5",
                    "midi": 76,
                    "time": 77.33880000000015,
                    "velocity": 1,
                    "duration": 0.12474000000000274
                },
                {
                    "name": "B4",
                    "midi": 71,
                    "time": 77.83776000000015,
                    "velocity": 1,
                    "duration": 0.12474000000000274
                },
                {
                    "name": "C#5",
                    "midi": 73,
                    "time": 77.96250000000015,
                    "velocity": 1,
                    "duration": 0.12474000000000274
                },
                {
                    "name": "B4",
                    "midi": 71,
                    "time": 78.08724000000015,
                    "velocity": 1,
                    "duration": 0.12474000000000274
                },
                {
                    "name": "G4",
                    "midi": 67,
                    "time": 78.21198000000015,
                    "velocity": 1,
                    "duration": 0.12474000000000274
                },
                {
                    "name": "G4",
                    "midi": 67,
                    "time": 78.33672000000016,
                    "velocity": 1,
                    "duration": 0.12474000000000274
                },
                {
                    "name": "E4",
                    "midi": 64,
                    "time": 78.83568000000015,
                    "velocity": 1,
                    "duration": 0.12474000000000274
                },
                {
                    "name": "F#4",
                    "midi": 66,
                    "time": 78.96042000000016,
                    "velocity": 1,
                    "duration": 0.12474000000000274
                },
                {
                    "name": "E4",
                    "midi": 64,
                    "time": 79.08516000000016,
                    "velocity": 1,
                    "duration": 0.12474000000000274
                },
                {
                    "name": "B3",
                    "midi": 59,
                    "time": 79.20990000000016,
                    "velocity": 1,
                    "duration": 0.12474000000000274
                },
                {
                    "name": "E4",
                    "midi": 64,
                    "time": 79.33464000000016,
                    "velocity": 1,
                    "duration": 0.49895999999999674
                },
                {
                    "name": "G4",
                    "midi": 67,
                    "time": 79.83360000000016,
                    "velocity": 1,
                    "duration": 0.49895999999999674
                },
                {
                    "name": "E4",
                    "midi": 64,
                    "time": 81.33048000000015,
                    "velocity": 1,
                    "duration": 0.49895999999999674
                },
                {
                    "name": "G4",
                    "midi": 67,
                    "time": 81.82944000000015,
                    "velocity": 1,
                    "duration": 0.49895999999999674
                },
                {
                    "name": "E4",
                    "midi": 64,
                    "time": 83.32632000000014,
                    "velocity": 1,
                    "duration": 0.49895999999999674
                },
                {
                    "name": "G4",
                    "midi": 67,
                    "time": 83.82528000000013,
                    "velocity": 1,
                    "duration": 0.9979199999999935
                },
                {
                    "name": "D4",
                    "midi": 62,
                    "time": 84.82320000000013,
                    "velocity": 1,
                    "duration": 0.9979199999999935
                },
                {
                    "name": "A4",
                    "midi": 69,
                    "time": 85.82112000000012,
                    "velocity": 1,
                    "duration": 0.9979199999999935
                },
                {
                    "name": "A4",
                    "midi": 69,
                    "time": 89.81280000000011,
                    "velocity": 1,
                    "duration": 0.49895999999999674
                },
                {
                    "name": "G4",
                    "midi": 67,
                    "time": 90.3117600000001,
                    "velocity": 1,
                    "duration": 0.24948000000000548
                },
                {
                    "name": "A4",
                    "midi": 69,
                    "time": 90.56124000000011,
                    "velocity": 1,
                    "duration": 0.24948000000000548
                },
                {
                    "name": "E4",
                    "midi": 64,
                    "time": 90.81072000000012,
                    "velocity": 1,
                    "duration": 0.49895999999999674
                },
                {
                    "name": "G4",
                    "midi": 67,
                    "time": 91.30968000000011,
                    "velocity": 1,
                    "duration": 0.49895999999999674
                },
                {
                    "name": "A4",
                    "midi": 69,
                    "time": 91.80864000000011,
                    "velocity": 1,
                    "duration": 0.49895999999999674
                },
                {
                    "name": "A5",
                    "midi": 81,
                    "time": 93.80448000000011,
                    "velocity": 1,
                    "duration": 0.49895999999999674
                },
                {
                    "name": "G5",
                    "midi": 79,
                    "time": 94.30344000000011,
                    "velocity": 1,
                    "duration": 0.24948000000000548
                },
                {
                    "name": "A5",
                    "midi": 81,
                    "time": 94.55292000000011,
                    "velocity": 1,
                    "duration": 0.24948000000000548
                },
                {
                    "name": "E5",
                    "midi": 76,
                    "time": 94.80240000000012,
                    "velocity": 1,
                    "duration": 0.49895999999999674
                },
                {
                    "name": "G5",
                    "midi": 79,
                    "time": 95.30136000000012,
                    "velocity": 1,
                    "duration": 0.49895999999999674
                },
                {
                    "name": "A5",
                    "midi": 81,
                    "time": 95.80032000000011,
                    "velocity": 1,
                    "duration": 0.24948000000000548
                },
                {
                    "name": "G5",
                    "midi": 79,
                    "time": 96.04980000000012,
                    "velocity": 1,
                    "duration": 0.24948000000000548
                },
                {
                    "name": "G5",
                    "midi": 79,
                    "time": 96.29928000000012,
                    "velocity": 1,
                    "duration": 0.24948000000000548
                },
                {
                    "name": "A5",
                    "midi": 81,
                    "time": 96.54876000000013,
                    "velocity": 1,
                    "duration": 0.24948000000000548
                },
                {
                    "name": "E5",
                    "midi": 76,
                    "time": 96.79824000000013,
                    "velocity": 1,
                    "duration": 0.49895999999999674
                },
                {
                    "name": "G5",
                    "midi": 79,
                    "time": 97.29720000000013,
                    "velocity": 1,
                    "duration": 0.49895999999999674
                },
                {
                    "name": "A5",
                    "midi": 81,
                    "time": 97.79616000000013,
                    "velocity": 1,
                    "duration": 0.49895999999999674
                },
                {
                    "name": "A4",
                    "midi": 69,
                    "time": 100.29096000000013,
                    "velocity": 1,
                    "duration": 0.49895999999999674
                },
                {
                    "name": "E5",
                    "midi": 76,
                    "time": 100.29096000000013,
                    "velocity": 1,
                    "duration": 0.49895999999999674
                },
                {
                    "name": "A4",
                    "midi": 69,
                    "time": 100.78992000000012,
                    "velocity": 1,
                    "duration": 0.49895999999999674
                },
                {
                    "name": "A5",
                    "midi": 81,
                    "time": 100.78992000000012,
                    "velocity": 1,
                    "duration": 0.49895999999999674
                },
                {
                    "name": "A4",
                    "midi": 69,
                    "time": 102.28680000000011,
                    "velocity": 1,
                    "duration": 0.49895999999999674
                },
                {
                    "name": "E5",
                    "midi": 76,
                    "time": 102.28680000000011,
                    "velocity": 1,
                    "duration": 0.49895999999999674
                },
                {
                    "name": "A4",
                    "midi": 69,
                    "time": 102.78576000000011,
                    "velocity": 1,
                    "duration": 0.49895999999999674
                },
                {
                    "name": "A5",
                    "midi": 81,
                    "time": 102.78576000000011,
                    "velocity": 1,
                    "duration": 0.49895999999999674
                },
                {
                    "name": "A5",
                    "midi": 81,
                    "time": 104.2826400000001,
                    "velocity": 1,
                    "duration": 0.49895999999999674
                },
                {
                    "name": "A4",
                    "midi": 69,
                    "time": 104.2826400000001,
                    "velocity": 1,
                    "duration": 0.49895999999999674
                },
                {
                    "name": "A4",
                    "midi": 69,
                    "time": 105.2805600000001,
                    "velocity": 1,
                    "duration": 0.49895999999999674
                },
                {
                    "name": "A5",
                    "midi": 81,
                    "time": 105.2805600000001,
                    "velocity": 1,
                    "duration": 0.49895999999999674
                },
                {
                    "name": "A4",
                    "midi": 69,
                    "time": 106.27848000000009,
                    "velocity": 1,
                    "duration": 0.49895999999999674
                },
                {
                    "name": "A5",
                    "midi": 81,
                    "time": 107.77536000000008,
                    "velocity": 1,
                    "duration": 0.49895999999999674
                },
                {
                    "name": "E6",
                    "midi": 88,
                    "time": 108.27432000000007,
                    "velocity": 1,
                    "duration": 0.9979199999999935
                },
                {
                    "name": "D6",
                    "midi": 86,
                    "time": 109.27224000000007,
                    "velocity": 1,
                    "duration": 0.1663199999999989
                },
                {
                    "name": "E6",
                    "midi": 88,
                    "time": 109.43856000000007,
                    "velocity": 1,
                    "duration": 0.1663199999999989
                },
                {
                    "name": "F6",
                    "midi": 89,
                    "time": 109.60488000000007,
                    "velocity": 1,
                    "duration": 0.1663199999999989
                },
                {
                    "name": "E6",
                    "midi": 88,
                    "time": 109.77120000000006,
                    "velocity": 1,
                    "duration": 0.49895999999999674
                },
                {
                    "name": "D6",
                    "midi": 86,
                    "time": 110.27016000000006,
                    "velocity": 1,
                    "duration": 0.24948000000000548
                },
                {
                    "name": "C6",
                    "midi": 84,
                    "time": 110.51964000000007,
                    "velocity": 1,
                    "duration": 0.24948000000000548
                },
                {
                    "name": "A#5",
                    "midi": 82,
                    "time": 110.76912000000007,
                    "velocity": 1,
                    "duration": 0.49895999999999674
                },
                {
                    "name": "C6",
                    "midi": 84,
                    "time": 111.26808000000007,
                    "velocity": 1,
                    "duration": 0.24948000000000548
                },
                {
                    "name": "D6",
                    "midi": 86,
                    "time": 111.51756000000007,
                    "velocity": 1,
                    "duration": 0.24948000000000548
                },
                {
                    "name": "E6",
                    "midi": 88,
                    "time": 111.76704000000008,
                    "velocity": 1,
                    "duration": 1.4968800000000044
                },
                {
                    "name": "D6",
                    "midi": 86,
                    "time": 113.26392000000008,
                    "velocity": 1,
                    "duration": 0.1663199999999989
                },
                {
                    "name": "E6",
                    "midi": 88,
                    "time": 113.43024000000008,
                    "velocity": 1,
                    "duration": 0.1663199999999989
                },
                {
                    "name": "F6",
                    "midi": 89,
                    "time": 113.59656000000008,
                    "velocity": 1,
                    "duration": 0.1663199999999989
                },
                {
                    "name": "E6",
                    "midi": 88,
                    "time": 113.76288000000008,
                    "velocity": 1,
                    "duration": 0.49895999999999674
                },
                {
                    "name": "D6",
                    "midi": 86,
                    "time": 114.26184000000008,
                    "velocity": 1,
                    "duration": 0.24948000000000548
                },
                {
                    "name": "C6",
                    "midi": 84,
                    "time": 114.51132000000008,
                    "velocity": 1,
                    "duration": 0.24948000000000548
                },
                {
                    "name": "A#5",
                    "midi": 82,
                    "time": 114.76080000000009,
                    "velocity": 1,
                    "duration": 0.49895999999999674
                },
                {
                    "name": "C6",
                    "midi": 84,
                    "time": 115.25976000000009,
                    "velocity": 1,
                    "duration": 0.24948000000000548
                },
                {
                    "name": "D6",
                    "midi": 86,
                    "time": 115.50924000000009,
                    "velocity": 1,
                    "duration": 0.24948000000000548
                },
                {
                    "name": "D6",
                    "midi": 86,
                    "time": 115.7587200000001,
                    "velocity": 1,
                    "duration": 1.247399999999999
                },
                {
                    "name": "A#5",
                    "midi": 82,
                    "time": 117.0061200000001,
                    "velocity": 1,
                    "duration": 0.24948000000000548
                },
                {
                    "name": "C6",
                    "midi": 84,
                    "time": 117.2556000000001,
                    "velocity": 1,
                    "duration": 0.24948000000000548
                },
                {
                    "name": "D6",
                    "midi": 86,
                    "time": 117.5050800000001,
                    "velocity": 1,
                    "duration": 0.24948000000000548
                },
                {
                    "name": "D6",
                    "midi": 86,
                    "time": 117.75456000000011,
                    "velocity": 1,
                    "duration": 0.49895999999999674
                },
                {
                    "name": "A#5",
                    "midi": 82,
                    "time": 118.25352000000011,
                    "velocity": 1,
                    "duration": 0.24948000000000548
                },
                {
                    "name": "A5",
                    "midi": 81,
                    "time": 118.50300000000011,
                    "velocity": 1,
                    "duration": 0.24948000000000548
                },
                {
                    "name": "F5",
                    "midi": 77,
                    "time": 118.75248000000012,
                    "velocity": 1,
                    "duration": 0.49895999999999674
                },
                {
                    "name": "G5",
                    "midi": 79,
                    "time": 119.25144000000012,
                    "velocity": 1,
                    "duration": 0.49895999999999674
                },
                {
                    "name": "A5",
                    "midi": 81,
                    "time": 119.75040000000011,
                    "velocity": 1,
                    "duration": 1.247399999999999
                },
                {
                    "name": "F5",
                    "midi": 77,
                    "time": 120.99780000000011,
                    "velocity": 1,
                    "duration": 0.24948000000000548
                },
                {
                    "name": "G5",
                    "midi": 79,
                    "time": 121.24728000000012,
                    "velocity": 1,
                    "duration": 0.24948000000000548
                },
                {
                    "name": "A5",
                    "midi": 81,
                    "time": 121.49676000000012,
                    "velocity": 1,
                    "duration": 0.24948000000000548
                },
                {
                    "name": "A5",
                    "midi": 81,
                    "time": 121.74624000000013,
                    "velocity": 1,
                    "duration": 1.4968800000000044
                },
                {
                    "name": "F5",
                    "midi": 77,
                    "time": 123.24312000000013,
                    "velocity": 1,
                    "duration": 0.49895999999999674
                },
                {
                    "name": "E5",
                    "midi": 76,
                    "time": 123.74208000000013,
                    "velocity": 1,
                    "duration": 1.4968800000000044
                },
                {
                    "name": "D5",
                    "midi": 74,
                    "time": 125.23896000000013,
                    "velocity": 1,
                    "duration": 0.49895999999999674
                },
                {
                    "name": "C5",
                    "midi": 72,
                    "time": 125.73792000000013,
                    "velocity": 1,
                    "duration": 0.49895999999999674
                },
                {
                    "name": "A4",
                    "midi": 69,
                    "time": 126.23688000000013,
                    "velocity": 1,
                    "duration": 0.9979199999999935
                },
                {
                    "name": "G4",
                    "midi": 67,
                    "time": 127.23480000000012,
                    "velocity": 1,
                    "duration": 0.49895999999999674
                },
                {
                    "name": "A4",
                    "midi": 69,
                    "time": 127.73376000000012,
                    "velocity": 1,
                    "duration": 0.12474000000000274
                },
                {
                    "name": "F4",
                    "midi": 65,
                    "time": 127.85850000000012,
                    "velocity": 1,
                    "duration": 0.12474000000000274
                },
                {
                    "name": "A4",
                    "midi": 69,
                    "time": 127.98324000000012,
                    "velocity": 1,
                    "duration": 0.12473999999998853
                },
                {
                    "name": "F4",
                    "midi": 65,
                    "time": 128.1079800000001,
                    "velocity": 1,
                    "duration": 0.12474000000000274
                },
                {
                    "name": "A4",
                    "midi": 69,
                    "time": 128.2327200000001,
                    "velocity": 1,
                    "duration": 0.12474000000000274
                },
                {
                    "name": "F4",
                    "midi": 65,
                    "time": 128.35746000000012,
                    "velocity": 1,
                    "duration": 0.12474000000000274
                },
                {
                    "name": "A4",
                    "midi": 69,
                    "time": 128.48220000000012,
                    "velocity": 1,
                    "duration": 0.12474000000000274
                },
                {
                    "name": "F4",
                    "midi": 65,
                    "time": 128.60694000000012,
                    "velocity": 1,
                    "duration": 0.12474000000000274
                },
                {
                    "name": "A4",
                    "midi": 69,
                    "time": 128.73168000000013,
                    "velocity": 1,
                    "duration": 0.12474000000000274
                },
                {
                    "name": "F4",
                    "midi": 65,
                    "time": 128.85642000000013,
                    "velocity": 1,
                    "duration": 0.12474000000000274
                },
                {
                    "name": "A4",
                    "midi": 69,
                    "time": 128.98116000000013,
                    "velocity": 1,
                    "duration": 0.12474000000000274
                },
                {
                    "name": "F4",
                    "midi": 65,
                    "time": 129.10590000000013,
                    "velocity": 1,
                    "duration": 0.12474000000000274
                },
                {
                    "name": "A4",
                    "midi": 69,
                    "time": 129.23064000000014,
                    "velocity": 1,
                    "duration": 0.12474000000000274
                },
                {
                    "name": "F4",
                    "midi": 65,
                    "time": 129.35538000000014,
                    "velocity": 1,
                    "duration": 0.12474000000000274
                },
                {
                    "name": "A4",
                    "midi": 69,
                    "time": 129.48012000000014,
                    "velocity": 1,
                    "duration": 0.12474000000000274
                },
                {
                    "name": "F4",
                    "midi": 65,
                    "time": 129.60486000000014,
                    "velocity": 1,
                    "duration": 0.12474000000000274
                },
                {
                    "name": "A4",
                    "midi": 69,
                    "time": 129.72960000000015,
                    "velocity": 1,
                    "duration": 0.12474000000000274
                },
                {
                    "name": "F4",
                    "midi": 65,
                    "time": 129.85434000000015,
                    "velocity": 1,
                    "duration": 0.12474000000000274
                },
                {
                    "name": "A4",
                    "midi": 69,
                    "time": 129.97908000000015,
                    "velocity": 1,
                    "duration": 0.12474000000000274
                },
                {
                    "name": "F4",
                    "midi": 65,
                    "time": 130.10382000000016,
                    "velocity": 1,
                    "duration": 0.12474000000000274
                },
                {
                    "name": "A4",
                    "midi": 69,
                    "time": 130.22856000000016,
                    "velocity": 1,
                    "duration": 0.12474000000000274
                },
                {
                    "name": "F4",
                    "midi": 65,
                    "time": 130.35330000000016,
                    "velocity": 1,
                    "duration": 0.12474000000000274
                },
                {
                    "name": "A4",
                    "midi": 69,
                    "time": 130.47804000000016,
                    "velocity": 1,
                    "duration": 0.12474000000000274
                },
                {
                    "name": "F4",
                    "midi": 65,
                    "time": 130.60278000000017,
                    "velocity": 1,
                    "duration": 0.12474000000000274
                },
                {
                    "name": "A4",
                    "midi": 69,
                    "time": 130.72752000000017,
                    "velocity": 1,
                    "duration": 0.12474000000000274
                },
                {
                    "name": "F4",
                    "midi": 65,
                    "time": 130.85226000000017,
                    "velocity": 1,
                    "duration": 0.12474000000000274
                },
                {
                    "name": "A4",
                    "midi": 69,
                    "time": 130.97700000000017,
                    "velocity": 1,
                    "duration": 0.12474000000000274
                },
                {
                    "name": "F4",
                    "midi": 65,
                    "time": 131.10174000000018,
                    "velocity": 1,
                    "duration": 0.12474000000000274
                },
                {
                    "name": "G4",
                    "midi": 67,
                    "time": 131.22648000000018,
                    "velocity": 1,
                    "duration": 0.12474000000000274
                },
                {
                    "name": "E4",
                    "midi": 64,
                    "time": 131.35122000000018,
                    "velocity": 1,
                    "duration": 0.12474000000000274
                },
                {
                    "name": "G4",
                    "midi": 67,
                    "time": 131.47596000000019,
                    "velocity": 1,
                    "duration": 0.12474000000000274
                },
                {
                    "name": "E4",
                    "midi": 64,
                    "time": 131.6007000000002,
                    "velocity": 1,
                    "duration": 0.12474000000000274
                },
                {
                    "name": "A4",
                    "midi": 69,
                    "time": 131.7254400000002,
                    "velocity": 1,
                    "duration": 0.49896000000001095
                },
                {
                    "name": "A4",
                    "midi": 69,
                    "time": 135.7171200000002,
                    "velocity": 1,
                    "duration": 1.4968800000000044
                },
                {
                    "name": "G4",
                    "midi": 67,
                    "time": 137.2140000000002,
                    "velocity": 1,
                    "duration": 0.16632000000001312
                },
                {
                    "name": "A4",
                    "midi": 69,
                    "time": 137.3803200000002,
                    "velocity": 1,
                    "duration": 0.16632000000001312
                },
                {
                    "name": "A#4",
                    "midi": 70,
                    "time": 137.54664000000022,
                    "velocity": 1,
                    "duration": 0.16632000000001312
                },
                {
                    "name": "A4",
                    "midi": 69,
                    "time": 137.71296000000024,
                    "velocity": 1,
                    "duration": 1.4968800000000044
                },
                {
                    "name": "G4",
                    "midi": 67,
                    "time": 139.20984000000024,
                    "velocity": 1,
                    "duration": 0.16632000000001312
                },
                {
                    "name": "A4",
                    "midi": 69,
                    "time": 139.37616000000025,
                    "velocity": 1,
                    "duration": 0.16632000000001312
                },
                {
                    "name": "A#4",
                    "midi": 70,
                    "time": 139.54248000000027,
                    "velocity": 1,
                    "duration": 0.16632000000001312
                },
                {
                    "name": "A4",
                    "midi": 69,
                    "time": 139.70880000000028,
                    "velocity": 1,
                    "duration": 0.49896000000001095
                },
                {
                    "name": "G4",
                    "midi": 67,
                    "time": 140.2077600000003,
                    "velocity": 1,
                    "duration": 0.24948000000000548
                },
                {
                    "name": "F4",
                    "midi": 65,
                    "time": 140.4572400000003,
                    "velocity": 1,
                    "duration": 0.24948000000000548
                },
                {
                    "name": "D#4",
                    "midi": 63,
                    "time": 140.7067200000003,
                    "velocity": 1,
                    "duration": 0.49896000000001095
                },
                {
                    "name": "F4",
                    "midi": 65,
                    "time": 141.2056800000003,
                    "velocity": 1,
                    "duration": 0.24948000000000548
                },
                {
                    "name": "G4",
                    "midi": 67,
                    "time": 141.45516000000032,
                    "velocity": 1,
                    "duration": 0.24948000000000548
                },
                {
                    "name": "A4",
                    "midi": 69,
                    "time": 141.70464000000032,
                    "velocity": 1,
                    "duration": 1.4968800000000044
                },
                {
                    "name": "G4",
                    "midi": 67,
                    "time": 143.20152000000033,
                    "velocity": 1,
                    "duration": 0.16632000000001312
                },
                {
                    "name": "A4",
                    "midi": 69,
                    "time": 143.36784000000034,
                    "velocity": 1,
                    "duration": 0.16632000000001312
                },
                {
                    "name": "A#4",
                    "midi": 70,
                    "time": 143.53416000000036,
                    "velocity": 1,
                    "duration": 0.16632000000001312
                },
                {
                    "name": "A4",
                    "midi": 69,
                    "time": 143.70048000000037,
                    "velocity": 1,
                    "duration": 1.4968800000000044
                },
                {
                    "name": "G4",
                    "midi": 67,
                    "time": 145.19736000000037,
                    "velocity": 1,
                    "duration": 0.16632000000001312
                },
                {
                    "name": "A4",
                    "midi": 69,
                    "time": 145.3636800000004,
                    "velocity": 1,
                    "duration": 0.16632000000001312
                },
                {
                    "name": "A#4",
                    "midi": 70,
                    "time": 145.5300000000004,
                    "velocity": 1,
                    "duration": 0.16632000000001312
                },
                {
                    "name": "C5",
                    "midi": 72,
                    "time": 145.6963200000004,
                    "velocity": 1,
                    "duration": 0.49896000000001095
                },
                {
                    "name": "A#4",
                    "midi": 70,
                    "time": 146.19528000000042,
                    "velocity": 1,
                    "duration": 0.24948000000000548
                },
                {
                    "name": "C5",
                    "midi": 72,
                    "time": 146.44476000000043,
                    "velocity": 1,
                    "duration": 0.24948000000000548
                },
                {
                    "name": "G4",
                    "midi": 67,
                    "time": 146.69424000000043,
                    "velocity": 1,
                    "duration": 0.49896000000001095
                },
                {
                    "name": "F4",
                    "midi": 65,
                    "time": 147.19320000000045,
                    "velocity": 1,
                    "duration": 0.49896000000001095
                },
                {
                    "name": "C5",
                    "midi": 72,
                    "time": 147.69216000000046,
                    "velocity": 1,
                    "duration": 0.24948000000000548
                },
                {
                    "name": "A#4",
                    "midi": 70,
                    "time": 147.94164000000046,
                    "velocity": 1,
                    "duration": 0.24948000000000548
                },
                {
                    "name": "A#4",
                    "midi": 70,
                    "time": 148.19112000000047,
                    "velocity": 1,
                    "duration": 0.24948000000000548
                },
                {
                    "name": "C5",
                    "midi": 72,
                    "time": 148.44060000000047,
                    "velocity": 1,
                    "duration": 0.24948000000000548
                },
                {
                    "name": "G4",
                    "midi": 67,
                    "time": 148.69008000000048,
                    "velocity": 1,
                    "duration": 0.49896000000001095
                },
                {
                    "name": "F4",
                    "midi": 65,
                    "time": 149.1890400000005,
                    "velocity": 1,
                    "duration": 0.49896000000001095
                },
                {
                    "name": "C5",
                    "midi": 72,
                    "time": 149.6880000000005,
                    "velocity": 1,
                    "duration": 0.49896000000001095
                },
                {
                    "name": "A#4",
                    "midi": 70,
                    "time": 150.1869600000005,
                    "velocity": 1,
                    "duration": 0.24948000000000548
                },
                {
                    "name": "G#4",
                    "midi": 68,
                    "time": 150.43644000000052,
                    "velocity": 1,
                    "duration": 0.24948000000000548
                },
                {
                    "name": "A#4",
                    "midi": 70,
                    "time": 150.68592000000052,
                    "velocity": 1,
                    "duration": 0.49896000000001095
                },
                {
                    "name": "C5",
                    "midi": 72,
                    "time": 151.18488000000053,
                    "velocity": 1,
                    "duration": 0.24948000000000548
                },
                {
                    "name": "D5",
                    "midi": 74,
                    "time": 151.43436000000054,
                    "velocity": 1,
                    "duration": 0.24948000000000548
                },
                {
                    "name": "D#5",
                    "midi": 75,
                    "time": 151.68384000000054,
                    "velocity": 1,
                    "duration": 1.4968800000000044
                },
                {
                    "name": "C#5",
                    "midi": 73,
                    "time": 153.18072000000055,
                    "velocity": 1,
                    "duration": 0.16632000000001312
                },
                {
                    "name": "D#5",
                    "midi": 75,
                    "time": 153.34704000000056,
                    "velocity": 1,
                    "duration": 0.16632000000001312
                },
                {
                    "name": "F5",
                    "midi": 77,
                    "time": 153.51336000000057,
                    "velocity": 1,
                    "duration": 0.16632000000001312
                },
                {
                    "name": "D#5",
                    "midi": 75,
                    "time": 153.6796800000006,
                    "velocity": 1,
                    "duration": 1.4968800000000044
                },
                {
                    "name": "C#5",
                    "midi": 73,
                    "time": 155.1765600000006,
                    "velocity": 1,
                    "duration": 0.16632000000001312
                },
                {
                    "name": "D#5",
                    "midi": 75,
                    "time": 155.3428800000006,
                    "velocity": 1,
                    "duration": 0.16632000000001312
                },
                {
                    "name": "F5",
                    "midi": 77,
                    "time": 155.50920000000062,
                    "velocity": 1,
                    "duration": 0.16632000000001312
                },
                {
                    "name": "D#5",
                    "midi": 75,
                    "time": 155.67552000000063,
                    "velocity": 1,
                    "duration": 0.49896000000001095
                },
                {
                    "name": "C#5",
                    "midi": 73,
                    "time": 156.17448000000064,
                    "velocity": 1,
                    "duration": 0.24948000000000548
                },
                {
                    "name": "A#4",
                    "midi": 70,
                    "time": 156.42396000000065,
                    "velocity": 1,
                    "duration": 0.24948000000000548
                },
                {
                    "name": "C#5",
                    "midi": 73,
                    "time": 156.67344000000065,
                    "velocity": 1,
                    "duration": 0.49896000000001095
                },
                {
                    "name": "D#5",
                    "midi": 75,
                    "time": 157.17240000000066,
                    "velocity": 1,
                    "duration": 0.24948000000000548
                },
                {
                    "name": "F#5",
                    "midi": 78,
                    "time": 157.42188000000067,
                    "velocity": 1,
                    "duration": 0.24948000000000548
                },
                {
                    "name": "C#6",
                    "midi": 85,
                    "time": 157.67136000000067,
                    "velocity": 1,
                    "duration": 0.49896000000001095
                },
                {
                    "name": "B5",
                    "midi": 83,
                    "time": 158.1703200000007,
                    "velocity": 1,
                    "duration": 0.24948000000000548
                },
                {
                    "name": "C#6",
                    "midi": 85,
                    "time": 158.4198000000007,
                    "velocity": 1,
                    "duration": 0.24948000000000548
                },
                {
                    "name": "G#5",
                    "midi": 80,
                    "time": 158.6692800000007,
                    "velocity": 1,
                    "duration": 0.49896000000001095
                },
                {
                    "name": "F#5",
                    "midi": 78,
                    "time": 159.1682400000007,
                    "velocity": 1,
                    "duration": 0.49896000000001095
                },
                {
                    "name": "C#6",
                    "midi": 85,
                    "time": 159.66720000000072,
                    "velocity": 1,
                    "duration": 0.24948000000000548
                },
                {
                    "name": "F#5",
                    "midi": 78,
                    "time": 159.91668000000072,
                    "velocity": 1,
                    "duration": 0.24948000000000548
                },
                {
                    "name": "B5",
                    "midi": 83,
                    "time": 160.16616000000073,
                    "velocity": 1,
                    "duration": 0.24948000000000548
                },
                {
                    "name": "E6",
                    "midi": 88,
                    "time": 160.41564000000074,
                    "velocity": 1,
                    "duration": 0.24948000000000548
                },
                {
                    "name": "C#6",
                    "midi": 85,
                    "time": 160.66512000000074,
                    "velocity": 1,
                    "duration": 0.49896000000001095
                },
                {
                    "name": "B5",
                    "midi": 83,
                    "time": 161.16408000000075,
                    "velocity": 1,
                    "duration": 0.24948000000000548
                },
                {
                    "name": "G#5",
                    "midi": 80,
                    "time": 161.41356000000076,
                    "velocity": 1,
                    "duration": 0.24948000000000548
                },
                {
                    "name": "F#5",
                    "midi": 78,
                    "time": 161.66304000000076,
                    "velocity": 1,
                    "duration": 0.49896000000001095
                },
                {
                    "name": "G#5",
                    "midi": 80,
                    "time": 162.16200000000077,
                    "velocity": 1,
                    "duration": 0.24948000000000548
                },
                {
                    "name": "F#5",
                    "midi": 78,
                    "time": 162.41148000000078,
                    "velocity": 1,
                    "duration": 0.24948000000000548
                },
                {
                    "name": "E5",
                    "midi": 76,
                    "time": 162.66096000000078,
                    "velocity": 1,
                    "duration": 0.24948000000000548
                },
                {
                    "name": "C#5",
                    "midi": 73,
                    "time": 162.9104400000008,
                    "velocity": 1,
                    "duration": 0.24948000000000548
                },
                {
                    "name": "B4",
                    "midi": 71,
                    "time": 163.1599200000008,
                    "velocity": 1,
                    "duration": 0.748439999999988
                },
                {
                    "name": "C#5",
                    "midi": 73,
                    "time": 163.90836000000078,
                    "velocity": 1,
                    "duration": 0.24948000000000548
                },
                {
                    "name": "F#4",
                    "midi": 66,
                    "time": 164.1578400000008,
                    "velocity": 1,
                    "duration": 0.748439999999988
                },
                {
                    "name": "G#4",
                    "midi": 68,
                    "time": 164.90628000000078,
                    "velocity": 1,
                    "duration": 0.24948000000000548
                },
                {
                    "name": "C#4",
                    "midi": 61,
                    "time": 165.15576000000078,
                    "velocity": 1,
                    "duration": 0.24948000000000548
                },
                {
                    "name": "B3",
                    "midi": 59,
                    "time": 165.4052400000008,
                    "velocity": 1,
                    "duration": 0.24948000000000548
                },
                {
                    "name": "A3",
                    "midi": 57,
                    "time": 165.6547200000008,
                    "velocity": 1,
                    "duration": 0.49896000000001095
                },
                {
                    "name": "A4",
                    "midi": 69,
                    "time": 167.6505600000008,
                    "velocity": 1,
                    "duration": 0.12474000000000274
                },
                {
                    "name": "A4",
                    "midi": 69,
                    "time": 167.7753000000008,
                    "velocity": 1,
                    "duration": 0.12474000000000274
                },
                {
                    "name": "C5",
                    "midi": 72,
                    "time": 167.9000400000008,
                    "velocity": 1,
                    "duration": 0.12474000000000274
                },
                {
                    "name": "C5",
                    "midi": 72,
                    "time": 168.02478000000082,
                    "velocity": 1,
                    "duration": 0.12474000000000274
                },
                {
                    "name": "D5",
                    "midi": 74,
                    "time": 168.14952000000082,
                    "velocity": 1,
                    "duration": 0.12474000000000274
                },
                {
                    "name": "D5",
                    "midi": 74,
                    "time": 168.27426000000082,
                    "velocity": 1,
                    "duration": 0.12474000000000274
                },
                {
                    "name": "F5",
                    "midi": 77,
                    "time": 168.39900000000083,
                    "velocity": 1,
                    "duration": 0.12474000000000274
                },
                {
                    "name": "F5",
                    "midi": 77,
                    "time": 168.52374000000083,
                    "velocity": 1,
                    "duration": 0.12474000000000274
                },
                {
                    "name": "C6",
                    "midi": 84,
                    "time": 168.64848000000083,
                    "velocity": 1,
                    "duration": 0.12474000000000274
                },
                {
                    "name": "C6",
                    "midi": 84,
                    "time": 168.77322000000083,
                    "velocity": 1,
                    "duration": 0.12474000000000274
                },
                {
                    "name": "A5",
                    "midi": 81,
                    "time": 168.89796000000084,
                    "velocity": 1,
                    "duration": 0.12474000000000274
                },
                {
                    "name": "A5",
                    "midi": 81,
                    "time": 169.02270000000084,
                    "velocity": 1,
                    "duration": 0.12474000000000274
                },
                {
                    "name": "F5",
                    "midi": 77,
                    "time": 169.14744000000084,
                    "velocity": 1,
                    "duration": 0.12474000000000274
                },
                {
                    "name": "F5",
                    "midi": 77,
                    "time": 169.27218000000084,
                    "velocity": 1,
                    "duration": 0.12474000000000274
                },
                {
                    "name": "A5",
                    "midi": 81,
                    "time": 169.39692000000085,
                    "velocity": 1,
                    "duration": 0.12474000000000274
                },
                {
                    "name": "A5",
                    "midi": 81,
                    "time": 169.52166000000085,
                    "velocity": 1,
                    "duration": 0.12474000000000274
                },
                {
                    "name": "C6",
                    "midi": 84,
                    "time": 169.64640000000085,
                    "velocity": 1,
                    "duration": 0.12474000000000274
                },
                {
                    "name": "C6",
                    "midi": 84,
                    "time": 169.77114000000086,
                    "velocity": 1,
                    "duration": 0.12474000000000274
                },
                {
                    "name": "A5",
                    "midi": 81,
                    "time": 169.89588000000086,
                    "velocity": 1,
                    "duration": 0.12474000000000274
                },
                {
                    "name": "A5",
                    "midi": 81,
                    "time": 170.02062000000086,
                    "velocity": 1,
                    "duration": 0.12474000000000274
                },
                {
                    "name": "F5",
                    "midi": 77,
                    "time": 170.14536000000086,
                    "velocity": 1,
                    "duration": 0.12474000000000274
                },
                {
                    "name": "F5",
                    "midi": 77,
                    "time": 170.27010000000087,
                    "velocity": 1,
                    "duration": 0.12474000000000274
                },
                {
                    "name": "A5",
                    "midi": 81,
                    "time": 170.39484000000087,
                    "velocity": 1,
                    "duration": 0.12474000000000274
                },
                {
                    "name": "A5",
                    "midi": 81,
                    "time": 170.51958000000087,
                    "velocity": 1,
                    "duration": 0.12474000000000274
                },
                {
                    "name": "C6",
                    "midi": 84,
                    "time": 170.64432000000087,
                    "velocity": 1,
                    "duration": 0.12474000000000274
                },
                {
                    "name": "C6",
                    "midi": 84,
                    "time": 170.76906000000088,
                    "velocity": 1,
                    "duration": 0.12474000000000274
                },
                {
                    "name": "A5",
                    "midi": 81,
                    "time": 170.89380000000088,
                    "velocity": 1,
                    "duration": 0.12474000000000274
                },
                {
                    "name": "A5",
                    "midi": 81,
                    "time": 171.01854000000088,
                    "velocity": 1,
                    "duration": 0.12474000000000274
                },
                {
                    "name": "F5",
                    "midi": 77,
                    "time": 171.14328000000089,
                    "velocity": 1,
                    "duration": 0.12474000000000274
                },
                {
                    "name": "F5",
                    "midi": 77,
                    "time": 171.2680200000009,
                    "velocity": 1,
                    "duration": 0.12474000000000274
                },
                {
                    "name": "A5",
                    "midi": 81,
                    "time": 171.3927600000009,
                    "velocity": 1,
                    "duration": 0.12474000000000274
                },
                {
                    "name": "A5",
                    "midi": 81,
                    "time": 171.5175000000009,
                    "velocity": 1,
                    "duration": 0.12474000000000274
                },
                {
                    "name": "C6",
                    "midi": 84,
                    "time": 171.6422400000009,
                    "velocity": 1,
                    "duration": 0.12474000000000274
                },
                {
                    "name": "C6",
                    "midi": 84,
                    "time": 171.7669800000009,
                    "velocity": 1,
                    "duration": 0.12474000000000274
                },
                {
                    "name": "A5",
                    "midi": 81,
                    "time": 171.8917200000009,
                    "velocity": 1,
                    "duration": 0.12474000000000274
                },
                {
                    "name": "A5",
                    "midi": 81,
                    "time": 172.0164600000009,
                    "velocity": 1,
                    "duration": 0.12474000000000274
                },
                {
                    "name": "F5",
                    "midi": 77,
                    "time": 172.1412000000009,
                    "velocity": 1,
                    "duration": 0.12474000000000274
                },
                {
                    "name": "F5",
                    "midi": 77,
                    "time": 172.2659400000009,
                    "velocity": 1,
                    "duration": 0.12474000000000274
                },
                {
                    "name": "A5",
                    "midi": 81,
                    "time": 172.3906800000009,
                    "velocity": 1,
                    "duration": 0.12474000000000274
                },
                {
                    "name": "A5",
                    "midi": 81,
                    "time": 172.51542000000092,
                    "velocity": 1,
                    "duration": 0.12474000000000274
                },
                {
                    "name": "C6",
                    "midi": 84,
                    "time": 172.64016000000092,
                    "velocity": 1,
                    "duration": 0.12474000000000274
                },
                {
                    "name": "C6",
                    "midi": 84,
                    "time": 172.76490000000092,
                    "velocity": 1,
                    "duration": 0.12474000000000274
                },
                {
                    "name": "A5",
                    "midi": 81,
                    "time": 172.88964000000092,
                    "velocity": 1,
                    "duration": 0.12474000000000274
                },
                {
                    "name": "A5",
                    "midi": 81,
                    "time": 173.01438000000093,
                    "velocity": 1,
                    "duration": 0.12474000000000274
                },
                {
                    "name": "F5",
                    "midi": 77,
                    "time": 173.13912000000093,
                    "velocity": 1,
                    "duration": 0.12474000000000274
                },
                {
                    "name": "F5",
                    "midi": 77,
                    "time": 173.26386000000093,
                    "velocity": 1,
                    "duration": 0.12474000000000274
                },
                {
                    "name": "A5",
                    "midi": 81,
                    "time": 173.38860000000093,
                    "velocity": 1,
                    "duration": 0.12474000000000274
                },
                {
                    "name": "A5",
                    "midi": 81,
                    "time": 173.51334000000094,
                    "velocity": 1,
                    "duration": 0.12474000000000274
                },
                {
                    "name": "C6",
                    "midi": 84,
                    "time": 173.63808000000094,
                    "velocity": 1,
                    "duration": 0.12474000000000274
                },
                {
                    "name": "C6",
                    "midi": 84,
                    "time": 173.76282000000094,
                    "velocity": 1,
                    "duration": 0.12474000000000274
                },
                {
                    "name": "A5",
                    "midi": 81,
                    "time": 173.88756000000095,
                    "velocity": 1,
                    "duration": 0.12474000000000274
                },
                {
                    "name": "A5",
                    "midi": 81,
                    "time": 174.01230000000095,
                    "velocity": 1,
                    "duration": 0.12474000000000274
                },
                {
                    "name": "F5",
                    "midi": 77,
                    "time": 174.13704000000095,
                    "velocity": 1,
                    "duration": 0.12474000000000274
                },
                {
                    "name": "F5",
                    "midi": 77,
                    "time": 174.26178000000095,
                    "velocity": 1,
                    "duration": 0.12474000000000274
                },
                {
                    "name": "A5",
                    "midi": 81,
                    "time": 174.38652000000096,
                    "velocity": 1,
                    "duration": 0.12474000000000274
                },
                {
                    "name": "A5",
                    "midi": 81,
                    "time": 174.51126000000096,
                    "velocity": 1,
                    "duration": 0.12474000000000274
                },
                {
                    "name": "F5",
                    "midi": 77,
                    "time": 174.63600000000096,
                    "velocity": 1,
                    "duration": 0.12474000000000274
                },
                {
                    "name": "F5",
                    "midi": 77,
                    "time": 174.76074000000096,
                    "velocity": 1,
                    "duration": 0.12474000000000274
                },
                {
                    "name": "D5",
                    "midi": 74,
                    "time": 174.88548000000097,
                    "velocity": 1,
                    "duration": 0.12474000000000274
                },
                {
                    "name": "D5",
                    "midi": 74,
                    "time": 175.01022000000097,
                    "velocity": 1,
                    "duration": 0.12474000000000274
                },
                {
                    "name": "C5",
                    "midi": 72,
                    "time": 175.13496000000097,
                    "velocity": 1,
                    "duration": 0.12474000000000274
                },
                {
                    "name": "C5",
                    "midi": 72,
                    "time": 175.25970000000098,
                    "velocity": 1,
                    "duration": 0.12474000000000274
                },
                {
                    "name": "D5",
                    "midi": 74,
                    "time": 175.38444000000098,
                    "velocity": 1,
                    "duration": 0.12474000000000274
                },
                {
                    "name": "D5",
                    "midi": 74,
                    "time": 175.50918000000098,
                    "velocity": 1,
                    "duration": 0.12474000000000274
                },
                {
                    "name": "C5",
                    "midi": 72,
                    "time": 175.63392000000098,
                    "velocity": 1,
                    "duration": 0.12474000000000274
                },
                {
                    "name": "C5",
                    "midi": 72,
                    "time": 175.758660000001,
                    "velocity": 1,
                    "duration": 0.12474000000000274
                },
                {
                    "name": "A4",
                    "midi": 69,
                    "time": 175.883400000001,
                    "velocity": 1,
                    "duration": 0.12474000000000274
                },
                {
                    "name": "A4",
                    "midi": 69,
                    "time": 176.008140000001,
                    "velocity": 1,
                    "duration": 0.12474000000000274
                },
                {
                    "name": "F4",
                    "midi": 65,
                    "time": 176.132880000001,
                    "velocity": 1,
                    "duration": 0.12474000000000274
                },
                {
                    "name": "F4",
                    "midi": 65,
                    "time": 176.257620000001,
                    "velocity": 1,
                    "duration": 0.12474000000000274
                },
                {
                    "name": "A4",
                    "midi": 69,
                    "time": 176.382360000001,
                    "velocity": 1,
                    "duration": 0.12474000000000274
                },
                {
                    "name": "A4",
                    "midi": 69,
                    "time": 176.507100000001,
                    "velocity": 1,
                    "duration": 0.12474000000000274
                },
                {
                    "name": "F4",
                    "midi": 65,
                    "time": 176.631840000001,
                    "velocity": 1,
                    "duration": 0.12474000000000274
                },
                {
                    "name": "F4",
                    "midi": 65,
                    "time": 176.756580000001,
                    "velocity": 1,
                    "duration": 0.12474000000000274
                },
                {
                    "name": "A4",
                    "midi": 69,
                    "time": 176.881320000001,
                    "velocity": 1,
                    "duration": 0.12474000000000274
                },
                {
                    "name": "A4",
                    "midi": 69,
                    "time": 177.006060000001,
                    "velocity": 1,
                    "duration": 0.12474000000000274
                },
                {
                    "name": "F4",
                    "midi": 65,
                    "time": 177.13080000000102,
                    "velocity": 1,
                    "duration": 0.12474000000000274
                },
                {
                    "name": "F4",
                    "midi": 65,
                    "time": 177.25554000000102,
                    "velocity": 1,
                    "duration": 0.12474000000000274
                },
                {
                    "name": "D4",
                    "midi": 62,
                    "time": 177.38028000000102,
                    "velocity": 1,
                    "duration": 0.12474000000000274
                },
                {
                    "name": "D4",
                    "midi": 62,
                    "time": 177.50502000000102,
                    "velocity": 1,
                    "duration": 0.12474000000000274
                },
                {
                    "name": "F4",
                    "midi": 65,
                    "time": 177.62976000000103,
                    "velocity": 1,
                    "duration": 0.12474000000000274
                },
                {
                    "name": "F4",
                    "midi": 65,
                    "time": 177.75450000000103,
                    "velocity": 1,
                    "duration": 0.12474000000000274
                },
                {
                    "name": "A4",
                    "midi": 69,
                    "time": 177.87924000000103,
                    "velocity": 1,
                    "duration": 0.12474000000000274
                },
                {
                    "name": "A4",
                    "midi": 69,
                    "time": 178.00398000000104,
                    "velocity": 1,
                    "duration": 0.12474000000000274
                },
                {
                    "name": "F4",
                    "midi": 65,
                    "time": 178.12872000000104,
                    "velocity": 1,
                    "duration": 0.12474000000000274
                },
                {
                    "name": "F4",
                    "midi": 65,
                    "time": 178.25346000000104,
                    "velocity": 1,
                    "duration": 0.12474000000000274
                },
                {
                    "name": "D4",
                    "midi": 62,
                    "time": 178.37820000000104,
                    "velocity": 1,
                    "duration": 0.12474000000000274
                },
                {
                    "name": "D4",
                    "midi": 62,
                    "time": 178.50294000000105,
                    "velocity": 1,
                    "duration": 0.12474000000000274
                },
                {
                    "name": "F4",
                    "midi": 65,
                    "time": 178.62768000000105,
                    "velocity": 1,
                    "duration": 0.12474000000000274
                },
                {
                    "name": "F4",
                    "midi": 65,
                    "time": 178.75242000000105,
                    "velocity": 1,
                    "duration": 0.12474000000000274
                },
                {
                    "name": "A4",
                    "midi": 69,
                    "time": 178.87716000000106,
                    "velocity": 1,
                    "duration": 0.12474000000000274
                },
                {
                    "name": "A4",
                    "midi": 69,
                    "time": 179.00190000000106,
                    "velocity": 1,
                    "duration": 0.12474000000000274
                },
                {
                    "name": "F4",
                    "midi": 65,
                    "time": 179.12664000000106,
                    "velocity": 1,
                    "duration": 0.12474000000000274
                },
                {
                    "name": "F4",
                    "midi": 65,
                    "time": 179.25138000000106,
                    "velocity": 1,
                    "duration": 0.12474000000000274
                },
                {
                    "name": "D4",
                    "midi": 62,
                    "time": 179.37612000000107,
                    "velocity": 1,
                    "duration": 0.12474000000000274
                },
                {
                    "name": "D4",
                    "midi": 62,
                    "time": 179.50086000000107,
                    "velocity": 1,
                    "duration": 0.12474000000000274
                },
                {
                    "name": "G#4",
                    "midi": 68,
                    "time": 179.62560000000107,
                    "velocity": 1,
                    "duration": 0.12474000000000274
                },
                {
                    "name": "G#4",
                    "midi": 68,
                    "time": 179.75034000000107,
                    "velocity": 1,
                    "duration": 0.12474000000000274
                },
                {
                    "name": "G#3",
                    "midi": 56,
                    "time": 179.87508000000108,
                    "velocity": 1,
                    "duration": 0.12474000000000274
                },
                {
                    "name": "G#3",
                    "midi": 56,
                    "time": 179.99982000000108,
                    "velocity": 1,
                    "duration": 0.12474000000000274
                },
                {
                    "name": "G#3",
                    "midi": 56,
                    "time": 180.12456000000108,
                    "velocity": 1,
                    "duration": 0.12474000000000274
                },
                {
                    "name": "G#3",
                    "midi": 56,
                    "time": 180.24930000000109,
                    "velocity": 1,
                    "duration": 0.12474000000000274
                },
                {
                    "name": "B3",
                    "midi": 59,
                    "time": 180.3740400000011,
                    "velocity": 1,
                    "duration": 0.12474000000000274
                },
                {
                    "name": "B3",
                    "midi": 59,
                    "time": 180.4987800000011,
                    "velocity": 1,
                    "duration": 0.12474000000000274
                },
                {
                    "name": "B3",
                    "midi": 59,
                    "time": 180.6235200000011,
                    "velocity": 1,
                    "duration": 0.12474000000000274
                },
                {
                    "name": "B3",
                    "midi": 59,
                    "time": 180.7482600000011,
                    "velocity": 1,
                    "duration": 0.12474000000000274
                },
                {
                    "name": "D#4",
                    "midi": 63,
                    "time": 180.8730000000011,
                    "velocity": 1,
                    "duration": 0.12474000000000274
                },
                {
                    "name": "D#4",
                    "midi": 63,
                    "time": 180.9977400000011,
                    "velocity": 1,
                    "duration": 0.12474000000000274
                },
                {
                    "name": "D#4",
                    "midi": 63,
                    "time": 181.1224800000011,
                    "velocity": 1,
                    "duration": 0.12474000000000274
                },
                {
                    "name": "D#4",
                    "midi": 63,
                    "time": 181.2472200000011,
                    "velocity": 1,
                    "duration": 0.12474000000000274
                },
                {
                    "name": "G#4",
                    "midi": 68,
                    "time": 181.3719600000011,
                    "velocity": 1,
                    "duration": 0.12474000000000274
                },
                {
                    "name": "G#4",
                    "midi": 68,
                    "time": 181.4967000000011,
                    "velocity": 1,
                    "duration": 0.12474000000000274
                },
                {
                    "name": "D#6",
                    "midi": 87,
                    "time": 183.11832000000112,
                    "velocity": 1,
                    "duration": 0.9979199999999935
                },
                {
                    "name": "B5",
                    "midi": 83,
                    "time": 184.1162400000011,
                    "velocity": 1,
                    "duration": 0.49896000000001095
                },
                {
                    "name": "A#5",
                    "midi": 82,
                    "time": 184.61520000000112,
                    "velocity": 1,
                    "duration": 0.49896000000001095
                },
                {
                    "name": "G#5",
                    "midi": 80,
                    "time": 185.11416000000114,
                    "velocity": 1,
                    "duration": 0.49896000000001095
                },
                {
                    "name": "G5",
                    "midi": 79,
                    "time": 185.61312000000115,
                    "velocity": 1,
                    "duration": 0.49896000000001095
                },
                {
                    "name": "F5",
                    "midi": 77,
                    "time": 186.11208000000116,
                    "velocity": 1,
                    "duration": 0.24948000000000548
                },
                {
                    "name": "G5",
                    "midi": 79,
                    "time": 186.36156000000116,
                    "velocity": 1,
                    "duration": 0.24948000000000548
                },
                {
                    "name": "G#5",
                    "midi": 80,
                    "time": 186.61104000000117,
                    "velocity": 1,
                    "duration": 0.24948000000000548
                },
                {
                    "name": "A#5",
                    "midi": 82,
                    "time": 186.86052000000117,
                    "velocity": 1,
                    "duration": 0.24948000000000548
                },
                {
                    "name": "B5",
                    "midi": 83,
                    "time": 187.11000000000118,
                    "velocity": 1,
                    "duration": 0.49896000000001095
                },
                {
                    "name": "D#6",
                    "midi": 87,
                    "time": 187.6089600000012,
                    "velocity": 1,
                    "duration": 1.4968800000000044
                },
                {
                    "name": "B5",
                    "midi": 83,
                    "time": 189.1058400000012,
                    "velocity": 1,
                    "duration": 0.49896000000001095
                },
                {
                    "name": "D#6",
                    "midi": 87,
                    "time": 189.6048000000012,
                    "velocity": 1,
                    "duration": 1.4968800000000044
                },
                {
                    "name": "B5",
                    "midi": 83,
                    "time": 191.1016800000012,
                    "velocity": 1,
                    "duration": 0.49896000000001095
                },
                {
                    "name": "D#6",
                    "midi": 87,
                    "time": 191.60064000000122,
                    "velocity": 1,
                    "duration": 0.49896000000001095
                },
                {
                    "name": "F6",
                    "midi": 89,
                    "time": 192.09960000000123,
                    "velocity": 1,
                    "duration": 0.8316000000000088
                },
                {
                    "name": "D#6",
                    "midi": 87,
                    "time": 192.93120000000124,
                    "velocity": 1,
                    "duration": 0.3326399999999978
                },
                {
                    "name": "F6",
                    "midi": 89,
                    "time": 193.26384000000124,
                    "velocity": 1,
                    "duration": 0.3326399999999978
                },
                {
                    "name": "F#6",
                    "midi": 90,
                    "time": 193.59648000000124,
                    "velocity": 1,
                    "duration": 1.4968800000000044
                },
                {
                    "name": "D#5",
                    "midi": 75,
                    "time": 196.09128000000126,
                    "velocity": 1,
                    "duration": 0.49896000000001095
                },
                {
                    "name": "F#5",
                    "midi": 78,
                    "time": 196.59024000000127,
                    "velocity": 1,
                    "duration": 0.49896000000001095
                },
                {
                    "name": "D#4",
                    "midi": 63,
                    "time": 198.08712000000128,
                    "velocity": 1,
                    "duration": 0.49896000000001095
                },
                {
                    "name": "F#4",
                    "midi": 66,
                    "time": 198.5860800000013,
                    "velocity": 1,
                    "duration": 0.49896000000001095
                },
                {
                    "name": "D#4",
                    "midi": 63,
                    "time": 209.8126800000013,
                    "velocity": 1,
                    "duration": 0.08315999999999235
                },
                {
                    "name": "B4",
                    "midi": 71,
                    "time": 209.8958400000013,
                    "velocity": 1,
                    "duration": 0.08315999999999235
                },
                {
                    "name": "F#5",
                    "midi": 78,
                    "time": 209.9790000000013,
                    "velocity": 1,
                    "duration": 0.08315999999999235
                },
                {
                    "name": "F#5",
                    "midi": 78,
                    "time": 210.06216000000128,
                    "velocity": 1,
                    "duration": 0.08315999999999235
                },
                {
                    "name": "B4",
                    "midi": 71,
                    "time": 210.14532000000128,
                    "velocity": 1,
                    "duration": 0.08315999999999235
                },
                {
                    "name": "D#4",
                    "midi": 63,
                    "time": 210.22848000000127,
                    "velocity": 1,
                    "duration": 0.08315999999999235
                },
                {
                    "name": "D#4",
                    "midi": 63,
                    "time": 210.31164000000126,
                    "velocity": 1,
                    "duration": 0.24948000000000548
                },
                {
                    "name": "D#5",
                    "midi": 75,
                    "time": 211.06008000000128,
                    "velocity": 1,
                    "duration": 0.49896000000001095
                },
                {
                    "name": "F#5",
                    "midi": 78,
                    "time": 211.5590400000013,
                    "velocity": 1,
                    "duration": 1.4968800000000044
                },
                {
                    "name": "F5",
                    "midi": 77,
                    "time": 213.0559200000013,
                    "velocity": 1,
                    "duration": 0.16632000000001312
                },
                {
                    "name": "F#5",
                    "midi": 78,
                    "time": 213.2222400000013,
                    "velocity": 1,
                    "duration": 0.16632000000001312
                },
                {
                    "name": "G#5",
                    "midi": 80,
                    "time": 213.38856000000132,
                    "velocity": 1,
                    "duration": 0.16632000000001312
                }
            ],
            "controlChanges": {
                "10": [
                    {
                        "number": 10,
                        "time": 0,
                        "value": 1
                    },
                    {
                        "number": 10,
                        "time": 15.966720000000006,
                        "value": 1
                    },
                    {
                        "number": 10,
                        "time": 31.933440000000008,
                        "value": 1
                    },
                    {
                        "number": 10,
                        "time": 39.91679999999997,
                        "value": 1
                    },
                    {
                        "number": 10,
                        "time": 45.90431999999995,
                        "value": 1
                    },
                    {
                        "number": 10,
                        "time": 53.887679999999925,
                        "value": 1
                    },
                    {
                        "number": 10,
                        "time": 61.871040000000036,
                        "value": 1
                    },
                    {
                        "number": 10,
                        "time": 67.85856000000011,
                        "value": 1
                    },
                    {
                        "number": 10,
                        "time": 75.84192000000013,
                        "value": 1
                    },
                    {
                        "number": 10,
                        "time": 85.82112000000012,
                        "value": 1
                    },
                    {
                        "number": 10,
                        "time": 99.79200000000013,
                        "value": 1
                    },
                    {
                        "number": 10,
                        "time": 107.77536000000008,
                        "value": 1
                    },
                    {
                        "number": 10,
                        "time": 123.74208000000013,
                        "value": 1
                    },
                    {
                        "number": 10,
                        "time": 135.7171200000002,
                        "value": 1
                    },
                    {
                        "number": 10,
                        "time": 151.68384000000054,
                        "value": 1
                    },
                    {
                        "number": 10,
                        "time": 165.6547200000008,
                        "value": 1
                    },
                    {
                        "number": 10,
                        "time": 181.62144000000112,
                        "value": 1
                    },
                    {
                        "number": 10,
                        "time": 195.59232000000125,
                        "value": 1
                    },
                    {
                        "number": 10,
                        "time": 209.5632000000013,
                        "value": 1
                    }
                ]
            },
            "id": 1,
            "name": "violin 1",
            "instrumentNumber": 40,
            "instrument": "violin",
            "instrumentFamily": "strings",
            "channelNumber": 0,
            "isPercussion": false
        },
        {
            "startTime": 0,
            "duration": 213.5548799999997,
            "length": 1089,
            "notes": [
                {
                    "name": "A3",
                    "midi": 57,
                    "time": 0,
                    "velocity": 1,
                    "duration": 0.49896
                },
                {
                    "name": "A#3",
                    "midi": 58,
                    "time": 0.49896,
                    "velocity": 1,
                    "duration": 0.49896
                },
                {
                    "name": "C4",
                    "midi": 60,
                    "time": 0.99792,
                    "velocity": 1,
                    "duration": 0.49895999999999996
                },
                {
                    "name": "D4",
                    "midi": 62,
                    "time": 1.49688,
                    "velocity": 1,
                    "duration": 0.49896000000000007
                },
                {
                    "name": "E4",
                    "midi": 64,
                    "time": 1.99584,
                    "velocity": 1,
                    "duration": 0.49896000000000007
                },
                {
                    "name": "F4",
                    "midi": 65,
                    "time": 2.4948,
                    "velocity": 1,
                    "duration": 0.49895999999999985
                },
                {
                    "name": "G4",
                    "midi": 67,
                    "time": 2.99376,
                    "velocity": 1,
                    "duration": 0.49895999999999985
                },
                {
                    "name": "A4",
                    "midi": 69,
                    "time": 3.49272,
                    "velocity": 1,
                    "duration": 0.49895999999999985
                },
                {
                    "name": "A#4",
                    "midi": 70,
                    "time": 3.9916799999999997,
                    "velocity": 1,
                    "duration": 0.4989600000000003
                },
                {
                    "name": "C5",
                    "midi": 72,
                    "time": 4.49064,
                    "velocity": 1,
                    "duration": 0.4989600000000003
                },
                {
                    "name": "D5",
                    "midi": 74,
                    "time": 4.9896,
                    "velocity": 1,
                    "duration": 0.4989600000000003
                },
                {
                    "name": "E5",
                    "midi": 76,
                    "time": 5.4885600000000005,
                    "velocity": 1,
                    "duration": 0.4989600000000003
                },
                {
                    "name": "F5",
                    "midi": 77,
                    "time": 5.987520000000001,
                    "velocity": 1,
                    "duration": 0.4989600000000003
                },
                {
                    "name": "G5",
                    "midi": 79,
                    "time": 6.486480000000001,
                    "velocity": 1,
                    "duration": 0.4989600000000003
                },
                {
                    "name": "D5",
                    "midi": 74,
                    "time": 6.985440000000001,
                    "velocity": 1,
                    "duration": 0.24948000000000015
                },
                {
                    "name": "A5",
                    "midi": 81,
                    "time": 7.234920000000002,
                    "velocity": 1,
                    "duration": 0.24948000000000015
                },
                {
                    "name": "G5",
                    "midi": 79,
                    "time": 7.484400000000002,
                    "velocity": 1,
                    "duration": 0.4989600000000003
                },
                {
                    "name": "F5",
                    "midi": 77,
                    "time": 7.983360000000002,
                    "velocity": 1,
                    "duration": 0.4989599999999994
                },
                {
                    "name": "D#5",
                    "midi": 75,
                    "time": 8.482320000000001,
                    "velocity": 1,
                    "duration": 0.4989600000000003
                },
                {
                    "name": "C5",
                    "midi": 72,
                    "time": 8.981280000000002,
                    "velocity": 1,
                    "duration": 0.4989600000000003
                },
                {
                    "name": "A#4",
                    "midi": 70,
                    "time": 9.480240000000002,
                    "velocity": 1,
                    "duration": 0.4989600000000003
                },
                {
                    "name": "G#4",
                    "midi": 68,
                    "time": 9.979200000000002,
                    "velocity": 1,
                    "duration": 0.4989600000000003
                },
                {
                    "name": "G4",
                    "midi": 67,
                    "time": 10.478160000000003,
                    "velocity": 1,
                    "duration": 0.4989600000000003
                },
                {
                    "name": "F4",
                    "midi": 65,
                    "time": 10.977120000000003,
                    "velocity": 1,
                    "duration": 0.4989600000000003
                },
                {
                    "name": "C#4",
                    "midi": 61,
                    "time": 11.476080000000003,
                    "velocity": 1,
                    "duration": 0.4989600000000003
                },
                {
                    "name": "D4",
                    "midi": 62,
                    "time": 11.975040000000003,
                    "velocity": 1,
                    "duration": 0.4989600000000003
                },
                {
                    "name": "C4",
                    "midi": 60,
                    "time": 12.474000000000004,
                    "velocity": 1,
                    "duration": 0.4989600000000003
                },
                {
                    "name": "D#4",
                    "midi": 63,
                    "time": 12.972960000000004,
                    "velocity": 1,
                    "duration": 0.4989600000000003
                },
                {
                    "name": "C4",
                    "midi": 60,
                    "time": 13.471920000000004,
                    "velocity": 1,
                    "duration": 0.4989600000000003
                },
                {
                    "name": "A#3",
                    "midi": 58,
                    "time": 13.970880000000005,
                    "velocity": 1,
                    "duration": 0.4989600000000003
                },
                {
                    "name": "G#3",
                    "midi": 56,
                    "time": 14.469840000000005,
                    "velocity": 1,
                    "duration": 0.4989600000000003
                },
                {
                    "name": "A#3",
                    "midi": 58,
                    "time": 14.968800000000005,
                    "velocity": 1,
                    "duration": 0.9979200000000006
                },
                {
                    "name": "A3",
                    "midi": 57,
                    "time": 15.966720000000006,
                    "velocity": 1,
                    "duration": 0.4989600000000003
                },
                {
                    "name": "B3",
                    "midi": 59,
                    "time": 16.465680000000006,
                    "velocity": 1,
                    "duration": 0.4989600000000003
                },
                {
                    "name": "C4",
                    "midi": 60,
                    "time": 16.964640000000006,
                    "velocity": 1,
                    "duration": 0.4989600000000003
                },
                {
                    "name": "D4",
                    "midi": 62,
                    "time": 17.463600000000007,
                    "velocity": 1,
                    "duration": 0.4989600000000003
                },
                {
                    "name": "C4",
                    "midi": 60,
                    "time": 17.962560000000007,
                    "velocity": 1,
                    "duration": 0.9979200000000006
                },
                {
                    "name": "B3",
                    "midi": 59,
                    "time": 18.960480000000008,
                    "velocity": 1,
                    "duration": 0.4989600000000003
                },
                {
                    "name": "F4",
                    "midi": 65,
                    "time": 19.459440000000008,
                    "velocity": 1,
                    "duration": 0.4989600000000003
                },
                {
                    "name": "D6",
                    "midi": 86,
                    "time": 19.958400000000008,
                    "velocity": 1,
                    "duration": 0.4989600000000003
                },
                {
                    "name": "A5",
                    "midi": 81,
                    "time": 20.45736000000001,
                    "velocity": 1,
                    "duration": 0.4989600000000003
                },
                {
                    "name": "G5",
                    "midi": 79,
                    "time": 20.95632000000001,
                    "velocity": 1,
                    "duration": 0.4989600000000003
                },
                {
                    "name": "F5",
                    "midi": 77,
                    "time": 21.45528000000001,
                    "velocity": 1,
                    "duration": 0.4989600000000003
                },
                {
                    "name": "E5",
                    "midi": 76,
                    "time": 21.95424000000001,
                    "velocity": 1,
                    "duration": 0.4989600000000003
                },
                {
                    "name": "D5",
                    "midi": 74,
                    "time": 22.45320000000001,
                    "velocity": 1,
                    "duration": 0.24947999999999837
                },
                {
                    "name": "E5",
                    "midi": 76,
                    "time": 22.702680000000008,
                    "velocity": 1,
                    "duration": 0.24947999999999837
                },
                {
                    "name": "F5",
                    "midi": 77,
                    "time": 22.952160000000006,
                    "velocity": 1,
                    "duration": 0.24947999999999837
                },
                {
                    "name": "G5",
                    "midi": 79,
                    "time": 23.201640000000005,
                    "velocity": 1,
                    "duration": 0.24947999999999837
                },
                {
                    "name": "A5",
                    "midi": 81,
                    "time": 23.451120000000003,
                    "velocity": 1,
                    "duration": 0.4989600000000003
                },
                {
                    "name": "A3",
                    "midi": 57,
                    "time": 23.950080000000003,
                    "velocity": 1,
                    "duration": 0.4989600000000003
                },
                {
                    "name": "B3",
                    "midi": 59,
                    "time": 24.449040000000004,
                    "velocity": 1,
                    "duration": 0.4989600000000003
                },
                {
                    "name": "C4",
                    "midi": 60,
                    "time": 24.948000000000004,
                    "velocity": 1,
                    "duration": 0.4989600000000003
                },
                {
                    "name": "D4",
                    "midi": 62,
                    "time": 25.446960000000004,
                    "velocity": 1,
                    "duration": 0.4989600000000003
                },
                {
                    "name": "D6",
                    "midi": 86,
                    "time": 25.945920000000005,
                    "velocity": 1,
                    "duration": 0.4989600000000003
                },
                {
                    "name": "A5",
                    "midi": 81,
                    "time": 26.444880000000005,
                    "velocity": 1,
                    "duration": 0.4989600000000003
                },
                {
                    "name": "G5",
                    "midi": 79,
                    "time": 26.943840000000005,
                    "velocity": 1,
                    "duration": 0.4989600000000003
                },
                {
                    "name": "F5",
                    "midi": 77,
                    "time": 27.442800000000005,
                    "velocity": 1,
                    "duration": 0.4989600000000003
                },
                {
                    "name": "A3",
                    "midi": 57,
                    "time": 27.941760000000006,
                    "velocity": 1,
                    "duration": 0.4989600000000003
                },
                {
                    "name": "B3",
                    "midi": 59,
                    "time": 28.440720000000006,
                    "velocity": 1,
                    "duration": 0.4989600000000003
                },
                {
                    "name": "C4",
                    "midi": 60,
                    "time": 28.939680000000006,
                    "velocity": 1,
                    "duration": 0.4989600000000003
                },
                {
                    "name": "D4",
                    "midi": 62,
                    "time": 29.438640000000007,
                    "velocity": 1,
                    "duration": 0.4989600000000003
                },
                {
                    "name": "D6",
                    "midi": 86,
                    "time": 29.937600000000007,
                    "velocity": 1,
                    "duration": 0.4989600000000003
                },
                {
                    "name": "A5",
                    "midi": 81,
                    "time": 30.436560000000007,
                    "velocity": 1,
                    "duration": 0.4989600000000003
                },
                {
                    "name": "G5",
                    "midi": 79,
                    "time": 30.935520000000007,
                    "velocity": 1,
                    "duration": 0.4989600000000003
                },
                {
                    "name": "F5",
                    "midi": 77,
                    "time": 31.434480000000008,
                    "velocity": 1,
                    "duration": 0.4989600000000003
                },
                {
                    "name": "C5",
                    "midi": 72,
                    "time": 31.933440000000008,
                    "velocity": 1,
                    "duration": 0.4989600000000003
                },
                {
                    "name": "A4",
                    "midi": 69,
                    "time": 32.43240000000001,
                    "velocity": 1,
                    "duration": 0.49895999999999674
                },
                {
                    "name": "A4",
                    "midi": 69,
                    "time": 32.931360000000005,
                    "velocity": 1,
                    "duration": 0.9979199999999935
                },
                {
                    "name": "E4",
                    "midi": 64,
                    "time": 32.931360000000005,
                    "velocity": 1,
                    "duration": 0.49895999999999674
                },
                {
                    "name": "D4",
                    "midi": 62,
                    "time": 33.43032,
                    "velocity": 1,
                    "duration": 0.49895999999999674
                },
                {
                    "name": "A4",
                    "midi": 69,
                    "time": 33.92928,
                    "velocity": 1,
                    "duration": 0.49895999999999674
                },
                {
                    "name": "E4",
                    "midi": 64,
                    "time": 33.92928,
                    "velocity": 1,
                    "duration": 0.49895999999999674
                },
                {
                    "name": "F4",
                    "midi": 65,
                    "time": 34.428239999999995,
                    "velocity": 1,
                    "duration": 0.49895999999999674
                },
                {
                    "name": "G4",
                    "midi": 67,
                    "time": 34.92719999999999,
                    "velocity": 1,
                    "duration": 0.49895999999999674
                },
                {
                    "name": "A4",
                    "midi": 69,
                    "time": 35.42615999999999,
                    "velocity": 1,
                    "duration": 0.49895999999999674
                },
                {
                    "name": "A#4",
                    "midi": 70,
                    "time": 35.925119999999986,
                    "velocity": 1,
                    "duration": 0.49895999999999674
                },
                {
                    "name": "C5",
                    "midi": 72,
                    "time": 36.42407999999998,
                    "velocity": 1,
                    "duration": 0.49895999999999674
                },
                {
                    "name": "D5",
                    "midi": 74,
                    "time": 36.92303999999998,
                    "velocity": 1,
                    "duration": 0.49895999999999674
                },
                {
                    "name": "E5",
                    "midi": 76,
                    "time": 37.421999999999976,
                    "velocity": 1,
                    "duration": 0.49895999999999674
                },
                {
                    "name": "F5",
                    "midi": 77,
                    "time": 37.92095999999997,
                    "velocity": 1,
                    "duration": 0.49895999999999674
                },
                {
                    "name": "G5",
                    "midi": 79,
                    "time": 38.41991999999997,
                    "velocity": 1,
                    "duration": 0.49895999999999674
                },
                {
                    "name": "A5",
                    "midi": 81,
                    "time": 38.918879999999966,
                    "velocity": 1,
                    "duration": 0.49895999999999674
                },
                {
                    "name": "E5",
                    "midi": 76,
                    "time": 39.41783999999996,
                    "velocity": 1,
                    "duration": 0.49895999999999674
                },
                {
                    "name": "B4",
                    "midi": 71,
                    "time": 40.415759999999956,
                    "velocity": 1,
                    "duration": 0.49895999999999674
                },
                {
                    "name": "C#5",
                    "midi": 73,
                    "time": 40.91471999999995,
                    "velocity": 1,
                    "duration": 0.9979200000000006
                },
                {
                    "name": "B4",
                    "midi": 71,
                    "time": 42.41159999999995,
                    "velocity": 1,
                    "duration": 0.49895999999999674
                },
                {
                    "name": "C#5",
                    "midi": 73,
                    "time": 42.91055999999995,
                    "velocity": 1,
                    "duration": 0.9979200000000006
                },
                {
                    "name": "B4",
                    "midi": 71,
                    "time": 44.407439999999944,
                    "velocity": 1,
                    "duration": 0.49895999999999674
                },
                {
                    "name": "C#5",
                    "midi": 73,
                    "time": 44.90639999999994,
                    "velocity": 1,
                    "duration": 0.9979200000000006
                },
                {
                    "name": "C#4",
                    "midi": 61,
                    "time": 45.90431999999994,
                    "velocity": 1,
                    "duration": 0.12474000000000274
                },
                {
                    "name": "D#4",
                    "midi": 63,
                    "time": 46.029059999999944,
                    "velocity": 1,
                    "duration": 0.12474000000000274
                },
                {
                    "name": "E4",
                    "midi": 64,
                    "time": 46.15379999999995,
                    "velocity": 1,
                    "duration": 0.12474000000000274
                },
                {
                    "name": "F#4",
                    "midi": 66,
                    "time": 46.27853999999995,
                    "velocity": 1,
                    "duration": 0.12474000000000274
                },
                {
                    "name": "E4",
                    "midi": 64,
                    "time": 46.40327999999995,
                    "velocity": 1,
                    "duration": 0.12474000000000274
                },
                {
                    "name": "F#4",
                    "midi": 66,
                    "time": 46.528019999999955,
                    "velocity": 1,
                    "duration": 0.12474000000000274
                },
                {
                    "name": "G4",
                    "midi": 67,
                    "time": 46.65275999999996,
                    "velocity": 1,
                    "duration": 0.12474000000000274
                },
                {
                    "name": "A4",
                    "midi": 69,
                    "time": 46.77749999999996,
                    "velocity": 1,
                    "duration": 0.12474000000000274
                },
                {
                    "name": "G4",
                    "midi": 67,
                    "time": 46.90223999999996,
                    "velocity": 1,
                    "duration": 0.12474000000000274
                },
                {
                    "name": "A4",
                    "midi": 69,
                    "time": 47.026979999999966,
                    "velocity": 1,
                    "duration": 0.12474000000000274
                },
                {
                    "name": "B4",
                    "midi": 71,
                    "time": 47.15171999999997,
                    "velocity": 1,
                    "duration": 0.12474000000000274
                },
                {
                    "name": "C5",
                    "midi": 72,
                    "time": 47.27645999999997,
                    "velocity": 1,
                    "duration": 0.12474000000000274
                },
                {
                    "name": "B4",
                    "midi": 71,
                    "time": 47.401199999999974,
                    "velocity": 1,
                    "duration": 0.12474000000000274
                },
                {
                    "name": "C5",
                    "midi": 72,
                    "time": 47.52593999999998,
                    "velocity": 1,
                    "duration": 0.12474000000000274
                },
                {
                    "name": "C#5",
                    "midi": 73,
                    "time": 47.65067999999998,
                    "velocity": 1,
                    "duration": 0.12474000000000274
                },
                {
                    "name": "D#5",
                    "midi": 75,
                    "time": 47.77541999999998,
                    "velocity": 1,
                    "duration": 0.12474000000000274
                },
                {
                    "name": "D5",
                    "midi": 74,
                    "time": 47.900159999999985,
                    "velocity": 1,
                    "duration": 0.12474000000000274
                },
                {
                    "name": "E5",
                    "midi": 76,
                    "time": 48.02489999999999,
                    "velocity": 1,
                    "duration": 0.12474000000000274
                },
                {
                    "name": "D5",
                    "midi": 74,
                    "time": 48.14963999999999,
                    "velocity": 1,
                    "duration": 0.12474000000000274
                },
                {
                    "name": "A4",
                    "midi": 69,
                    "time": 48.274379999999994,
                    "velocity": 1,
                    "duration": 0.12474000000000274
                },
                {
                    "name": "D4",
                    "midi": 62,
                    "time": 48.399119999999996,
                    "velocity": 1,
                    "duration": 0.12474000000000274
                },
                {
                    "name": "E4",
                    "midi": 64,
                    "time": 48.52386,
                    "velocity": 1,
                    "duration": 0.12474000000000274
                },
                {
                    "name": "D4",
                    "midi": 62,
                    "time": 48.6486,
                    "velocity": 1,
                    "duration": 0.12474000000000274
                },
                {
                    "name": "A3",
                    "midi": 57,
                    "time": 48.773340000000005,
                    "velocity": 1,
                    "duration": 0.12474000000000274
                },
                {
                    "name": "C#4",
                    "midi": 61,
                    "time": 48.89808000000001,
                    "velocity": 1,
                    "duration": 0.12474000000000274
                },
                {
                    "name": "D#4",
                    "midi": 63,
                    "time": 49.02282000000001,
                    "velocity": 1,
                    "duration": 0.12474000000000274
                },
                {
                    "name": "E4",
                    "midi": 64,
                    "time": 49.14756000000001,
                    "velocity": 1,
                    "duration": 0.12474000000000274
                },
                {
                    "name": "F#4",
                    "midi": 66,
                    "time": 49.272300000000016,
                    "velocity": 1,
                    "duration": 0.12474000000000274
                },
                {
                    "name": "E4",
                    "midi": 64,
                    "time": 49.39704000000002,
                    "velocity": 1,
                    "duration": 0.12474000000000274
                },
                {
                    "name": "F#4",
                    "midi": 66,
                    "time": 49.52178000000002,
                    "velocity": 1,
                    "duration": 0.12474000000000274
                },
                {
                    "name": "G4",
                    "midi": 67,
                    "time": 49.646520000000024,
                    "velocity": 1,
                    "duration": 0.12474000000000274
                },
                {
                    "name": "A4",
                    "midi": 69,
                    "time": 49.77126000000003,
                    "velocity": 1,
                    "duration": 0.12474000000000274
                },
                {
                    "name": "G4",
                    "midi": 67,
                    "time": 49.89600000000003,
                    "velocity": 1,
                    "duration": 0.12474000000000274
                },
                {
                    "name": "A4",
                    "midi": 69,
                    "time": 50.02074000000003,
                    "velocity": 1,
                    "duration": 0.12474000000000274
                },
                {
                    "name": "B4",
                    "midi": 71,
                    "time": 50.145480000000035,
                    "velocity": 1,
                    "duration": 0.12474000000000274
                },
                {
                    "name": "C5",
                    "midi": 72,
                    "time": 50.27022000000004,
                    "velocity": 1,
                    "duration": 0.12474000000000274
                },
                {
                    "name": "B4",
                    "midi": 71,
                    "time": 50.39496000000004,
                    "velocity": 1,
                    "duration": 0.12474000000000274
                },
                {
                    "name": "C5",
                    "midi": 72,
                    "time": 50.51970000000004,
                    "velocity": 1,
                    "duration": 0.12474000000000274
                },
                {
                    "name": "C#5",
                    "midi": 73,
                    "time": 50.644440000000046,
                    "velocity": 1,
                    "duration": 0.12474000000000274
                },
                {
                    "name": "D#5",
                    "midi": 75,
                    "time": 50.76918000000005,
                    "velocity": 1,
                    "duration": 0.12474000000000274
                },
                {
                    "name": "D5",
                    "midi": 74,
                    "time": 50.89392000000005,
                    "velocity": 1,
                    "duration": 0.12474000000000274
                },
                {
                    "name": "E5",
                    "midi": 76,
                    "time": 51.018660000000054,
                    "velocity": 1,
                    "duration": 0.12474000000000274
                },
                {
                    "name": "D5",
                    "midi": 74,
                    "time": 51.14340000000006,
                    "velocity": 1,
                    "duration": 0.12474000000000274
                },
                {
                    "name": "A4",
                    "midi": 69,
                    "time": 51.26814000000006,
                    "velocity": 1,
                    "duration": 0.12474000000000274
                },
                {
                    "name": "D4",
                    "midi": 62,
                    "time": 51.39288000000006,
                    "velocity": 1,
                    "duration": 0.12474000000000274
                },
                {
                    "name": "E4",
                    "midi": 64,
                    "time": 51.517620000000065,
                    "velocity": 1,
                    "duration": 0.12474000000000274
                },
                {
                    "name": "D4",
                    "midi": 62,
                    "time": 51.64236000000007,
                    "velocity": 1,
                    "duration": 0.12474000000000274
                },
                {
                    "name": "A3",
                    "midi": 57,
                    "time": 51.76710000000007,
                    "velocity": 1,
                    "duration": 0.12474000000000274
                },
                {
                    "name": "F4",
                    "midi": 65,
                    "time": 51.89184000000007,
                    "velocity": 1,
                    "duration": 0.12474000000000274
                },
                {
                    "name": "G4",
                    "midi": 67,
                    "time": 52.016580000000076,
                    "velocity": 1,
                    "duration": 0.12474000000000274
                },
                {
                    "name": "F4",
                    "midi": 65,
                    "time": 52.14132000000008,
                    "velocity": 1,
                    "duration": 0.12474000000000274
                },
                {
                    "name": "G4",
                    "midi": 67,
                    "time": 52.26606000000008,
                    "velocity": 1,
                    "duration": 0.12474000000000274
                },
                {
                    "name": "G#4",
                    "midi": 68,
                    "time": 52.390800000000084,
                    "velocity": 1,
                    "duration": 0.12474000000000274
                },
                {
                    "name": "C5",
                    "midi": 72,
                    "time": 52.51554000000009,
                    "velocity": 1,
                    "duration": 0.12474000000000274
                },
                {
                    "name": "G#4",
                    "midi": 68,
                    "time": 52.64028000000009,
                    "velocity": 1,
                    "duration": 0.12474000000000274
                },
                {
                    "name": "C5",
                    "midi": 72,
                    "time": 52.76502000000009,
                    "velocity": 1,
                    "duration": 0.12474000000000274
                },
                {
                    "name": "G#4",
                    "midi": 68,
                    "time": 52.889760000000095,
                    "velocity": 1,
                    "duration": 0.12474000000000274
                },
                {
                    "name": "A4",
                    "midi": 69,
                    "time": 53.0145000000001,
                    "velocity": 1,
                    "duration": 0.12474000000000274
                },
                {
                    "name": "B4",
                    "midi": 71,
                    "time": 53.1392400000001,
                    "velocity": 1,
                    "duration": 0.12474000000000274
                },
                {
                    "name": "C5",
                    "midi": 72,
                    "time": 53.2639800000001,
                    "velocity": 1,
                    "duration": 0.12474000000000274
                },
                {
                    "name": "B4",
                    "midi": 71,
                    "time": 53.388720000000106,
                    "velocity": 1,
                    "duration": 0.12474000000000274
                },
                {
                    "name": "C5",
                    "midi": 72,
                    "time": 53.51346000000011,
                    "velocity": 1,
                    "duration": 0.12474000000000274
                },
                {
                    "name": "D5",
                    "midi": 74,
                    "time": 53.63820000000011,
                    "velocity": 1,
                    "duration": 0.12474000000000274
                },
                {
                    "name": "D#5",
                    "midi": 75,
                    "time": 53.762940000000114,
                    "velocity": 1,
                    "duration": 0.12474000000000274
                },
                {
                    "name": "F#5",
                    "midi": 78,
                    "time": 53.88768000000012,
                    "velocity": 1,
                    "duration": 0.12474000000000274
                },
                {
                    "name": "G#5",
                    "midi": 80,
                    "time": 54.01242000000012,
                    "velocity": 1,
                    "duration": 0.12474000000000274
                },
                {
                    "name": "F#5",
                    "midi": 78,
                    "time": 54.13716000000012,
                    "velocity": 1,
                    "duration": 0.12474000000000274
                },
                {
                    "name": "E5",
                    "midi": 76,
                    "time": 54.261900000000125,
                    "velocity": 1,
                    "duration": 0.12474000000000274
                },
                {
                    "name": "E5",
                    "midi": 76,
                    "time": 54.38664000000013,
                    "velocity": 1,
                    "duration": 0.12474000000000274
                },
                {
                    "name": "F#5",
                    "midi": 78,
                    "time": 54.51138000000013,
                    "velocity": 1,
                    "duration": 0.12474000000000274
                },
                {
                    "name": "E5",
                    "midi": 76,
                    "time": 54.63612000000013,
                    "velocity": 1,
                    "duration": 0.12474000000000274
                },
                {
                    "name": "D5",
                    "midi": 74,
                    "time": 54.760860000000136,
                    "velocity": 1,
                    "duration": 0.12474000000000274
                },
                {
                    "name": "D4",
                    "midi": 62,
                    "time": 54.88560000000014,
                    "velocity": 1,
                    "duration": 0.12474000000000274
                },
                {
                    "name": "D5",
                    "midi": 74,
                    "time": 54.88560000000014,
                    "velocity": 1,
                    "duration": 0.12474000000000274
                },
                {
                    "name": "D4",
                    "midi": 62,
                    "time": 55.01034000000014,
                    "velocity": 1,
                    "duration": 0.12474000000000274
                },
                {
                    "name": "D5",
                    "midi": 74,
                    "time": 55.01034000000014,
                    "velocity": 1,
                    "duration": 0.12474000000000274
                },
                {
                    "name": "D4",
                    "midi": 62,
                    "time": 55.135080000000144,
                    "velocity": 1,
                    "duration": 0.12474000000000274
                },
                {
                    "name": "D4",
                    "midi": 62,
                    "time": 55.25982000000015,
                    "velocity": 1,
                    "duration": 0.12474000000000274
                },
                {
                    "name": "D4",
                    "midi": 62,
                    "time": 55.38456000000015,
                    "velocity": 1,
                    "duration": 0.12474000000000274
                },
                {
                    "name": "G#3",
                    "midi": 56,
                    "time": 55.38456000000015,
                    "velocity": 1,
                    "duration": 0.12474000000000274
                },
                {
                    "name": "G#3",
                    "midi": 56,
                    "time": 55.50930000000015,
                    "velocity": 1,
                    "duration": 0.12474000000000274
                },
                {
                    "name": "D4",
                    "midi": 62,
                    "time": 55.50930000000015,
                    "velocity": 1,
                    "duration": 0.12474000000000274
                },
                {
                    "name": "G#3",
                    "midi": 56,
                    "time": 55.634040000000155,
                    "velocity": 1,
                    "duration": 0.12474000000000274
                },
                {
                    "name": "G#3",
                    "midi": 56,
                    "time": 55.75878000000016,
                    "velocity": 1,
                    "duration": 0.12474000000000274
                },
                {
                    "name": "C4",
                    "midi": 60,
                    "time": 55.88352000000016,
                    "velocity": 1,
                    "duration": 0.12474000000000274
                },
                {
                    "name": "D4",
                    "midi": 62,
                    "time": 56.00826000000016,
                    "velocity": 1,
                    "duration": 0.12474000000000274
                },
                {
                    "name": "C4",
                    "midi": 60,
                    "time": 56.133000000000166,
                    "velocity": 1,
                    "duration": 0.12474000000000274
                },
                {
                    "name": "B3",
                    "midi": 59,
                    "time": 56.25774000000017,
                    "velocity": 1,
                    "duration": 0.12474000000000274
                },
                {
                    "name": "B3",
                    "midi": 59,
                    "time": 56.38248000000017,
                    "velocity": 1,
                    "duration": 0.12474000000000274
                },
                {
                    "name": "C4",
                    "midi": 60,
                    "time": 56.507220000000174,
                    "velocity": 1,
                    "duration": 0.12474000000000274
                },
                {
                    "name": "B3",
                    "midi": 59,
                    "time": 56.63196000000018,
                    "velocity": 1,
                    "duration": 0.12474000000000274
                },
                {
                    "name": "A3",
                    "midi": 57,
                    "time": 56.75670000000018,
                    "velocity": 1,
                    "duration": 0.12474000000000274
                },
                {
                    "name": "C4",
                    "midi": 60,
                    "time": 56.88144000000018,
                    "velocity": 1,
                    "duration": 0.7484400000000022
                },
                {
                    "name": "B3",
                    "midi": 59,
                    "time": 57.629880000000185,
                    "velocity": 1,
                    "duration": 0.24947999999999837
                },
                {
                    "name": "C4",
                    "midi": 60,
                    "time": 57.87936000000018,
                    "velocity": 1,
                    "duration": 0.7484400000000022
                },
                {
                    "name": "G#3",
                    "midi": 56,
                    "time": 58.627800000000185,
                    "velocity": 1,
                    "duration": 0.24947999999999837
                },
                {
                    "name": "G#3",
                    "midi": 56,
                    "time": 58.877280000000184,
                    "velocity": 1,
                    "duration": 0.24947999999999837
                },
                {
                    "name": "A3",
                    "midi": 57,
                    "time": 59.12676000000018,
                    "velocity": 1,
                    "duration": 0.24947999999999837
                },
                {
                    "name": "C4",
                    "midi": 60,
                    "time": 59.37624000000018,
                    "velocity": 1,
                    "duration": 0.24947999999999837
                },
                {
                    "name": "F4",
                    "midi": 65,
                    "time": 59.62572000000018,
                    "velocity": 1,
                    "duration": 0.24947999999999837
                },
                {
                    "name": "E4",
                    "midi": 64,
                    "time": 59.87520000000018,
                    "velocity": 1,
                    "duration": 0.49895999999999674
                },
                {
                    "name": "D4",
                    "midi": 62,
                    "time": 60.374160000000174,
                    "velocity": 1,
                    "duration": 0.24947999999999837
                },
                {
                    "name": "E4",
                    "midi": 64,
                    "time": 60.62364000000017,
                    "velocity": 1,
                    "duration": 0.24947999999999837
                },
                {
                    "name": "B3",
                    "midi": 59,
                    "time": 60.87312000000017,
                    "velocity": 1,
                    "duration": 0.49895999999999674
                },
                {
                    "name": "A3",
                    "midi": 57,
                    "time": 61.37208000000017,
                    "velocity": 1,
                    "duration": 0.1663199999999989
                },
                {
                    "name": "D4",
                    "midi": 62,
                    "time": 61.538400000000166,
                    "velocity": 1,
                    "duration": 0.1663199999999989
                },
                {
                    "name": "E4",
                    "midi": 64,
                    "time": 61.704720000000165,
                    "velocity": 1,
                    "duration": 0.1663199999999989
                },
                {
                    "name": "E4",
                    "midi": 64,
                    "time": 61.871040000000164,
                    "velocity": 1,
                    "duration": 0.49895999999999674
                },
                {
                    "name": "E5",
                    "midi": 76,
                    "time": 63.86688000000016,
                    "velocity": 1,
                    "duration": 0.49896000000000384
                },
                {
                    "name": "D5",
                    "midi": 74,
                    "time": 64.36584000000016,
                    "velocity": 1,
                    "duration": 0.24948000000000548
                },
                {
                    "name": "E5",
                    "midi": 76,
                    "time": 64.61532000000017,
                    "velocity": 1,
                    "duration": 0.24948000000000548
                },
                {
                    "name": "B4",
                    "midi": 71,
                    "time": 64.86480000000017,
                    "velocity": 1,
                    "duration": 0.49895999999999674
                },
                {
                    "name": "A4",
                    "midi": 69,
                    "time": 65.36376000000017,
                    "velocity": 1,
                    "duration": 0.1663199999999989
                },
                {
                    "name": "C5",
                    "midi": 72,
                    "time": 65.53008000000017,
                    "velocity": 1,
                    "duration": 0.1663199999999989
                },
                {
                    "name": "D5",
                    "midi": 74,
                    "time": 65.69640000000017,
                    "velocity": 1,
                    "duration": 0.1663199999999989
                },
                {
                    "name": "E5",
                    "midi": 76,
                    "time": 65.86272000000017,
                    "velocity": 1,
                    "duration": 0.49895999999999674
                },
                {
                    "name": "E4",
                    "midi": 64,
                    "time": 67.85856000000017,
                    "velocity": 1,
                    "duration": 0.9979199999999935
                },
                {
                    "name": "E5",
                    "midi": 76,
                    "time": 67.85856000000017,
                    "velocity": 1,
                    "duration": 0.9979199999999935
                },
                {
                    "name": "C#5",
                    "midi": 73,
                    "time": 68.85648000000016,
                    "velocity": 1,
                    "duration": 0.9979199999999935
                },
                {
                    "name": "E4",
                    "midi": 64,
                    "time": 68.85648000000016,
                    "velocity": 1,
                    "duration": 0.9979199999999935
                },
                {
                    "name": "E4",
                    "midi": 64,
                    "time": 69.85440000000015,
                    "velocity": 1,
                    "duration": 0.9979199999999935
                },
                {
                    "name": "E5",
                    "midi": 76,
                    "time": 69.85440000000015,
                    "velocity": 1,
                    "duration": 0.9979199999999935
                },
                {
                    "name": "C#5",
                    "midi": 73,
                    "time": 70.85232000000015,
                    "velocity": 1,
                    "duration": 0.9979199999999935
                },
                {
                    "name": "E4",
                    "midi": 64,
                    "time": 70.85232000000015,
                    "velocity": 1,
                    "duration": 0.9979199999999935
                },
                {
                    "name": "E5",
                    "midi": 76,
                    "time": 71.85024000000014,
                    "velocity": 1,
                    "duration": 0.06237000000000137
                },
                {
                    "name": "E5",
                    "midi": 76,
                    "time": 71.91261000000014,
                    "velocity": 1,
                    "duration": 0.06237000000000137
                },
                {
                    "name": "E5",
                    "midi": 76,
                    "time": 71.97498000000014,
                    "velocity": 1,
                    "duration": 0.06237000000000137
                },
                {
                    "name": "E5",
                    "midi": 76,
                    "time": 72.03735000000015,
                    "velocity": 1,
                    "duration": 0.06237000000000137
                },
                {
                    "name": "E5",
                    "midi": 76,
                    "time": 72.09972000000015,
                    "velocity": 1,
                    "duration": 0.06237000000000137
                },
                {
                    "name": "E5",
                    "midi": 76,
                    "time": 72.16209000000015,
                    "velocity": 1,
                    "duration": 0.06237000000000137
                },
                {
                    "name": "E5",
                    "midi": 76,
                    "time": 72.22446000000015,
                    "velocity": 1,
                    "duration": 0.06237000000000137
                },
                {
                    "name": "E5",
                    "midi": 76,
                    "time": 72.28683000000015,
                    "velocity": 1,
                    "duration": 0.06237000000000137
                },
                {
                    "name": "F#5",
                    "midi": 78,
                    "time": 72.34920000000015,
                    "velocity": 1,
                    "duration": 0.06237000000000137
                },
                {
                    "name": "F#5",
                    "midi": 78,
                    "time": 72.41157000000015,
                    "velocity": 1,
                    "duration": 0.06237000000000137
                },
                {
                    "name": "F#5",
                    "midi": 78,
                    "time": 72.47394000000016,
                    "velocity": 1,
                    "duration": 0.06237000000000137
                },
                {
                    "name": "F#5",
                    "midi": 78,
                    "time": 72.53631000000016,
                    "velocity": 1,
                    "duration": 0.06237000000000137
                },
                {
                    "name": "F#5",
                    "midi": 78,
                    "time": 72.59868000000016,
                    "velocity": 1,
                    "duration": 0.06237000000000137
                },
                {
                    "name": "F#5",
                    "midi": 78,
                    "time": 72.66105000000016,
                    "velocity": 1,
                    "duration": 0.06237000000000137
                },
                {
                    "name": "F#5",
                    "midi": 78,
                    "time": 72.72342000000016,
                    "velocity": 1,
                    "duration": 0.06237000000000137
                },
                {
                    "name": "F#5",
                    "midi": 78,
                    "time": 72.78579000000016,
                    "velocity": 1,
                    "duration": 0.06237000000000137
                },
                {
                    "name": "G5",
                    "midi": 79,
                    "time": 72.84816000000016,
                    "velocity": 1,
                    "duration": 0.06237000000000137
                },
                {
                    "name": "G5",
                    "midi": 79,
                    "time": 72.91053000000016,
                    "velocity": 1,
                    "duration": 0.06237000000000137
                },
                {
                    "name": "G5",
                    "midi": 79,
                    "time": 72.97290000000017,
                    "velocity": 1,
                    "duration": 0.06237000000000137
                },
                {
                    "name": "G5",
                    "midi": 79,
                    "time": 73.03527000000017,
                    "velocity": 1,
                    "duration": 0.06237000000000137
                },
                {
                    "name": "G5",
                    "midi": 79,
                    "time": 73.09764000000017,
                    "velocity": 1,
                    "duration": 0.06237000000000137
                },
                {
                    "name": "G5",
                    "midi": 79,
                    "time": 73.16001000000017,
                    "velocity": 1,
                    "duration": 0.06237000000000137
                },
                {
                    "name": "G5",
                    "midi": 79,
                    "time": 73.22238000000017,
                    "velocity": 1,
                    "duration": 0.06237000000000137
                },
                {
                    "name": "G5",
                    "midi": 79,
                    "time": 73.28475000000017,
                    "velocity": 1,
                    "duration": 0.06237000000000137
                },
                {
                    "name": "F#5",
                    "midi": 78,
                    "time": 73.34712000000017,
                    "velocity": 1,
                    "duration": 0.06237000000000137
                },
                {
                    "name": "F#5",
                    "midi": 78,
                    "time": 73.40949000000018,
                    "velocity": 1,
                    "duration": 0.06237000000000137
                },
                {
                    "name": "F#5",
                    "midi": 78,
                    "time": 73.47186000000018,
                    "velocity": 1,
                    "duration": 0.06237000000000137
                },
                {
                    "name": "F#5",
                    "midi": 78,
                    "time": 73.53423000000018,
                    "velocity": 1,
                    "duration": 0.06237000000000137
                },
                {
                    "name": "F#5",
                    "midi": 78,
                    "time": 73.59660000000018,
                    "velocity": 1,
                    "duration": 0.06237000000000137
                },
                {
                    "name": "F#5",
                    "midi": 78,
                    "time": 73.65897000000018,
                    "velocity": 1,
                    "duration": 0.06237000000000137
                },
                {
                    "name": "F#5",
                    "midi": 78,
                    "time": 73.72134000000018,
                    "velocity": 1,
                    "duration": 0.06237000000000137
                },
                {
                    "name": "F#5",
                    "midi": 78,
                    "time": 73.78371000000018,
                    "velocity": 1,
                    "duration": 0.06237000000000137
                },
                {
                    "name": "C#6",
                    "midi": 85,
                    "time": 73.84608000000019,
                    "velocity": 1,
                    "duration": 0.06237000000000137
                },
                {
                    "name": "C#6",
                    "midi": 85,
                    "time": 73.90845000000019,
                    "velocity": 1,
                    "duration": 0.06237000000000137
                },
                {
                    "name": "C#6",
                    "midi": 85,
                    "time": 73.97082000000019,
                    "velocity": 1,
                    "duration": 0.06237000000000137
                },
                {
                    "name": "C#6",
                    "midi": 85,
                    "time": 74.03319000000019,
                    "velocity": 1,
                    "duration": 0.06237000000000137
                },
                {
                    "name": "C#6",
                    "midi": 85,
                    "time": 74.09556000000019,
                    "velocity": 1,
                    "duration": 0.06237000000000137
                },
                {
                    "name": "C#6",
                    "midi": 85,
                    "time": 74.15793000000019,
                    "velocity": 1,
                    "duration": 0.06237000000000137
                },
                {
                    "name": "C#6",
                    "midi": 85,
                    "time": 74.2203000000002,
                    "velocity": 1,
                    "duration": 0.06237000000000137
                },
                {
                    "name": "C#6",
                    "midi": 85,
                    "time": 74.2826700000002,
                    "velocity": 1,
                    "duration": 0.06237000000000137
                },
                {
                    "name": "C6",
                    "midi": 84,
                    "time": 74.3450400000002,
                    "velocity": 1,
                    "duration": 0.06237000000000137
                },
                {
                    "name": "C6",
                    "midi": 84,
                    "time": 74.4074100000002,
                    "velocity": 1,
                    "duration": 0.06237000000000137
                },
                {
                    "name": "C6",
                    "midi": 84,
                    "time": 74.4697800000002,
                    "velocity": 1,
                    "duration": 0.06237000000000137
                },
                {
                    "name": "C6",
                    "midi": 84,
                    "time": 74.5321500000002,
                    "velocity": 1,
                    "duration": 0.06237000000000137
                },
                {
                    "name": "C6",
                    "midi": 84,
                    "time": 74.5945200000002,
                    "velocity": 1,
                    "duration": 0.06237000000000137
                },
                {
                    "name": "C6",
                    "midi": 84,
                    "time": 74.6568900000002,
                    "velocity": 1,
                    "duration": 0.06237000000000137
                },
                {
                    "name": "C6",
                    "midi": 84,
                    "time": 74.7192600000002,
                    "velocity": 1,
                    "duration": 0.06237000000000137
                },
                {
                    "name": "C6",
                    "midi": 84,
                    "time": 74.7816300000002,
                    "velocity": 1,
                    "duration": 0.06237000000000137
                },
                {
                    "name": "G#5",
                    "midi": 80,
                    "time": 74.84400000000021,
                    "velocity": 1,
                    "duration": 0.06237000000000137
                },
                {
                    "name": "G#5",
                    "midi": 80,
                    "time": 74.90637000000021,
                    "velocity": 1,
                    "duration": 0.06237000000000137
                },
                {
                    "name": "G#5",
                    "midi": 80,
                    "time": 74.96874000000021,
                    "velocity": 1,
                    "duration": 0.06237000000000137
                },
                {
                    "name": "G#5",
                    "midi": 80,
                    "time": 75.03111000000021,
                    "velocity": 1,
                    "duration": 0.06237000000000137
                },
                {
                    "name": "G#5",
                    "midi": 80,
                    "time": 75.09348000000021,
                    "velocity": 1,
                    "duration": 0.06237000000000137
                },
                {
                    "name": "G#5",
                    "midi": 80,
                    "time": 75.15585000000021,
                    "velocity": 1,
                    "duration": 0.06237000000000137
                },
                {
                    "name": "G#5",
                    "midi": 80,
                    "time": 75.21822000000022,
                    "velocity": 1,
                    "duration": 0.06237000000000137
                },
                {
                    "name": "G#5",
                    "midi": 80,
                    "time": 75.28059000000022,
                    "velocity": 1,
                    "duration": 0.06237000000000137
                },
                {
                    "name": "G5",
                    "midi": 79,
                    "time": 75.34296000000022,
                    "velocity": 1,
                    "duration": 0.06237000000000137
                },
                {
                    "name": "G5",
                    "midi": 79,
                    "time": 75.40533000000022,
                    "velocity": 1,
                    "duration": 0.06237000000000137
                },
                {
                    "name": "G5",
                    "midi": 79,
                    "time": 75.46770000000022,
                    "velocity": 1,
                    "duration": 0.06237000000000137
                },
                {
                    "name": "G5",
                    "midi": 79,
                    "time": 75.53007000000022,
                    "velocity": 1,
                    "duration": 0.06237000000000137
                },
                {
                    "name": "G5",
                    "midi": 79,
                    "time": 75.59244000000022,
                    "velocity": 1,
                    "duration": 0.06237000000000137
                },
                {
                    "name": "G5",
                    "midi": 79,
                    "time": 75.65481000000023,
                    "velocity": 1,
                    "duration": 0.06237000000000137
                },
                {
                    "name": "G5",
                    "midi": 79,
                    "time": 75.71718000000023,
                    "velocity": 1,
                    "duration": 0.06237000000000137
                },
                {
                    "name": "G5",
                    "midi": 79,
                    "time": 75.77955000000023,
                    "velocity": 1,
                    "duration": 0.06237000000000137
                },
                {
                    "name": "E5",
                    "midi": 76,
                    "time": 75.84192000000023,
                    "velocity": 1,
                    "duration": 0.49895999999999674
                },
                {
                    "name": "B5",
                    "midi": 83,
                    "time": 75.84192000000023,
                    "velocity": 1,
                    "duration": 0.49895999999999674
                },
                {
                    "name": "G4",
                    "midi": 67,
                    "time": 75.84192000000023,
                    "velocity": 1,
                    "duration": 0.49895999999999674
                },
                {
                    "name": "B5",
                    "midi": 83,
                    "time": 76.34088000000023,
                    "velocity": 1,
                    "duration": 0.12474000000000274
                },
                {
                    "name": "C#6",
                    "midi": 85,
                    "time": 76.46562000000023,
                    "velocity": 1,
                    "duration": 0.12474000000000274
                },
                {
                    "name": "B5",
                    "midi": 83,
                    "time": 76.59036000000023,
                    "velocity": 1,
                    "duration": 0.12474000000000274
                },
                {
                    "name": "G5",
                    "midi": 79,
                    "time": 76.71510000000023,
                    "velocity": 1,
                    "duration": 0.12474000000000274
                },
                {
                    "name": "G5",
                    "midi": 79,
                    "time": 76.83984000000024,
                    "velocity": 1,
                    "duration": 0.12474000000000274
                },
                {
                    "name": "E5",
                    "midi": 76,
                    "time": 77.33880000000023,
                    "velocity": 1,
                    "duration": 0.12474000000000274
                },
                {
                    "name": "F#5",
                    "midi": 78,
                    "time": 77.46354000000024,
                    "velocity": 1,
                    "duration": 0.12474000000000274
                },
                {
                    "name": "E5",
                    "midi": 76,
                    "time": 77.58828000000024,
                    "velocity": 1,
                    "duration": 0.12474000000000274
                },
                {
                    "name": "B4",
                    "midi": 71,
                    "time": 77.71302000000024,
                    "velocity": 1,
                    "duration": 0.12474000000000274
                },
                {
                    "name": "B4",
                    "midi": 71,
                    "time": 77.83776000000024,
                    "velocity": 1,
                    "duration": 0.12474000000000274
                },
                {
                    "name": "G4",
                    "midi": 67,
                    "time": 78.33672000000024,
                    "velocity": 1,
                    "duration": 0.12474000000000274
                },
                {
                    "name": "B4",
                    "midi": 71,
                    "time": 78.46146000000024,
                    "velocity": 1,
                    "duration": 0.12474000000000274
                },
                {
                    "name": "G4",
                    "midi": 67,
                    "time": 78.58620000000025,
                    "velocity": 1,
                    "duration": 0.12474000000000274
                },
                {
                    "name": "E4",
                    "midi": 64,
                    "time": 78.71094000000025,
                    "velocity": 1,
                    "duration": 0.12474000000000274
                },
                {
                    "name": "E4",
                    "midi": 64,
                    "time": 78.83568000000025,
                    "velocity": 1,
                    "duration": 0.12474000000000274
                },
                {
                    "name": "B3",
                    "midi": 59,
                    "time": 79.33464000000025,
                    "velocity": 1,
                    "duration": 0.12474000000000274
                },
                {
                    "name": "C#4",
                    "midi": 61,
                    "time": 79.45938000000025,
                    "velocity": 1,
                    "duration": 0.12474000000000274
                },
                {
                    "name": "B3",
                    "midi": 59,
                    "time": 79.58412000000025,
                    "velocity": 1,
                    "duration": 0.12474000000000274
                },
                {
                    "name": "C#4",
                    "midi": 61,
                    "time": 79.70886000000026,
                    "velocity": 1,
                    "duration": 0.12474000000000274
                },
                {
                    "name": "D4",
                    "midi": 62,
                    "time": 79.83360000000026,
                    "velocity": 1,
                    "duration": 0.12474000000000274
                },
                {
                    "name": "E4",
                    "midi": 64,
                    "time": 79.95834000000026,
                    "velocity": 1,
                    "duration": 0.12474000000000274
                },
                {
                    "name": "D4",
                    "midi": 62,
                    "time": 80.08308000000027,
                    "velocity": 1,
                    "duration": 0.12474000000000274
                },
                {
                    "name": "E4",
                    "midi": 64,
                    "time": 80.20782000000027,
                    "velocity": 1,
                    "duration": 0.12474000000000274
                },
                {
                    "name": "D4",
                    "midi": 62,
                    "time": 80.33256000000027,
                    "velocity": 1,
                    "duration": 0.12474000000000274
                },
                {
                    "name": "E4",
                    "midi": 64,
                    "time": 80.45730000000027,
                    "velocity": 1,
                    "duration": 0.12474000000000274
                },
                {
                    "name": "D4",
                    "midi": 62,
                    "time": 80.58204000000028,
                    "velocity": 1,
                    "duration": 0.12474000000000274
                },
                {
                    "name": "E4",
                    "midi": 64,
                    "time": 80.70678000000028,
                    "velocity": 1,
                    "duration": 0.12474000000000274
                },
                {
                    "name": "D4",
                    "midi": 62,
                    "time": 80.83152000000028,
                    "velocity": 1,
                    "duration": 0.12474000000000274
                },
                {
                    "name": "E4",
                    "midi": 64,
                    "time": 80.95626000000028,
                    "velocity": 1,
                    "duration": 0.12474000000000274
                },
                {
                    "name": "D4",
                    "midi": 62,
                    "time": 81.08100000000029,
                    "velocity": 1,
                    "duration": 0.12474000000000274
                },
                {
                    "name": "C#4",
                    "midi": 61,
                    "time": 81.20574000000029,
                    "velocity": 1,
                    "duration": 0.12474000000000274
                },
                {
                    "name": "B3",
                    "midi": 59,
                    "time": 81.33048000000029,
                    "velocity": 1,
                    "duration": 0.12474000000000274
                },
                {
                    "name": "C#4",
                    "midi": 61,
                    "time": 81.4552200000003,
                    "velocity": 1,
                    "duration": 0.12474000000000274
                },
                {
                    "name": "B3",
                    "midi": 59,
                    "time": 81.5799600000003,
                    "velocity": 1,
                    "duration": 0.12474000000000274
                },
                {
                    "name": "C#4",
                    "midi": 61,
                    "time": 81.7047000000003,
                    "velocity": 1,
                    "duration": 0.12474000000000274
                },
                {
                    "name": "D4",
                    "midi": 62,
                    "time": 81.8294400000003,
                    "velocity": 1,
                    "duration": 0.12474000000000274
                },
                {
                    "name": "E4",
                    "midi": 64,
                    "time": 81.9541800000003,
                    "velocity": 1,
                    "duration": 0.12474000000000274
                },
                {
                    "name": "D4",
                    "midi": 62,
                    "time": 82.07892000000031,
                    "velocity": 1,
                    "duration": 0.12474000000000274
                },
                {
                    "name": "E4",
                    "midi": 64,
                    "time": 82.20366000000031,
                    "velocity": 1,
                    "duration": 0.12474000000000274
                },
                {
                    "name": "D4",
                    "midi": 62,
                    "time": 82.32840000000031,
                    "velocity": 1,
                    "duration": 0.12474000000000274
                },
                {
                    "name": "E4",
                    "midi": 64,
                    "time": 82.45314000000032,
                    "velocity": 1,
                    "duration": 0.12474000000000274
                },
                {
                    "name": "D4",
                    "midi": 62,
                    "time": 82.57788000000032,
                    "velocity": 1,
                    "duration": 0.12474000000000274
                },
                {
                    "name": "E4",
                    "midi": 64,
                    "time": 82.70262000000032,
                    "velocity": 1,
                    "duration": 0.12474000000000274
                },
                {
                    "name": "D4",
                    "midi": 62,
                    "time": 82.82736000000033,
                    "velocity": 1,
                    "duration": 0.12474000000000274
                },
                {
                    "name": "E4",
                    "midi": 64,
                    "time": 82.95210000000033,
                    "velocity": 1,
                    "duration": 0.12474000000000274
                },
                {
                    "name": "D4",
                    "midi": 62,
                    "time": 83.07684000000033,
                    "velocity": 1,
                    "duration": 0.12474000000000274
                },
                {
                    "name": "C#4",
                    "midi": 61,
                    "time": 83.20158000000033,
                    "velocity": 1,
                    "duration": 0.12474000000000274
                },
                {
                    "name": "B3",
                    "midi": 59,
                    "time": 83.32632000000034,
                    "velocity": 1,
                    "duration": 0.12474000000000274
                },
                {
                    "name": "C#4",
                    "midi": 61,
                    "time": 83.45106000000034,
                    "velocity": 1,
                    "duration": 0.12474000000000274
                },
                {
                    "name": "B3",
                    "midi": 59,
                    "time": 83.57580000000034,
                    "velocity": 1,
                    "duration": 0.12474000000000274
                },
                {
                    "name": "C#4",
                    "midi": 61,
                    "time": 83.70054000000034,
                    "velocity": 1,
                    "duration": 0.12474000000000274
                },
                {
                    "name": "D4",
                    "midi": 62,
                    "time": 83.82528000000035,
                    "velocity": 1,
                    "duration": 0.9979199999999935
                },
                {
                    "name": "A#3",
                    "midi": 58,
                    "time": 84.82320000000034,
                    "velocity": 1,
                    "duration": 0.9979199999999935
                },
                {
                    "name": "C#4",
                    "midi": 61,
                    "time": 85.82112000000033,
                    "velocity": 1,
                    "duration": 0.9979199999999935
                },
                {
                    "name": "C#4",
                    "midi": 61,
                    "time": 89.81280000000032,
                    "velocity": 1,
                    "duration": 0.49895999999999674
                },
                {
                    "name": "A#3",
                    "midi": 58,
                    "time": 90.31176000000032,
                    "velocity": 1,
                    "duration": 0.49895999999999674
                },
                {
                    "name": "G#3",
                    "midi": 56,
                    "time": 90.81072000000032,
                    "velocity": 1,
                    "duration": 0.49895999999999674
                },
                {
                    "name": "A#3",
                    "midi": 58,
                    "time": 91.30968000000031,
                    "velocity": 1,
                    "duration": 0.49895999999999674
                },
                {
                    "name": "C#4",
                    "midi": 61,
                    "time": 91.80864000000031,
                    "velocity": 1,
                    "duration": 0.49895999999999674
                },
                {
                    "name": "C#5",
                    "midi": 73,
                    "time": 93.80448000000031,
                    "velocity": 1,
                    "duration": 0.49895999999999674
                },
                {
                    "name": "A#4",
                    "midi": 70,
                    "time": 94.30344000000031,
                    "velocity": 1,
                    "duration": 0.49895999999999674
                },
                {
                    "name": "G#4",
                    "midi": 68,
                    "time": 94.8024000000003,
                    "velocity": 1,
                    "duration": 0.49895999999999674
                },
                {
                    "name": "A#4",
                    "midi": 70,
                    "time": 95.3013600000003,
                    "velocity": 1,
                    "duration": 0.49895999999999674
                },
                {
                    "name": "C#5",
                    "midi": 73,
                    "time": 95.8003200000003,
                    "velocity": 1,
                    "duration": 0.49895999999999674
                },
                {
                    "name": "A#4",
                    "midi": 70,
                    "time": 96.2992800000003,
                    "velocity": 1,
                    "duration": 0.49895999999999674
                },
                {
                    "name": "G#4",
                    "midi": 68,
                    "time": 96.79824000000029,
                    "velocity": 1,
                    "duration": 0.49895999999999674
                },
                {
                    "name": "A#4",
                    "midi": 70,
                    "time": 97.29720000000029,
                    "velocity": 1,
                    "duration": 0.49895999999999674
                },
                {
                    "name": "C#5",
                    "midi": 73,
                    "time": 97.79616000000028,
                    "velocity": 1,
                    "duration": 0.24948000000000548
                },
                {
                    "name": "A4",
                    "midi": 69,
                    "time": 98.04564000000029,
                    "velocity": 1,
                    "duration": 0.24948000000000548
                },
                {
                    "name": "A4",
                    "midi": 69,
                    "time": 98.2951200000003,
                    "velocity": 1,
                    "duration": 0.24948000000000548
                },
                {
                    "name": "A4",
                    "midi": 69,
                    "time": 98.5446000000003,
                    "velocity": 1,
                    "duration": 0.24948000000000548
                },
                {
                    "name": "A4",
                    "midi": 69,
                    "time": 98.7940800000003,
                    "velocity": 1,
                    "duration": 0.24948000000000548
                },
                {
                    "name": "A4",
                    "midi": 69,
                    "time": 99.04356000000031,
                    "velocity": 1,
                    "duration": 0.24948000000000548
                },
                {
                    "name": "G4",
                    "midi": 67,
                    "time": 99.29304000000032,
                    "velocity": 1,
                    "duration": 0.1663199999999989
                },
                {
                    "name": "A4",
                    "midi": 69,
                    "time": 99.45936000000032,
                    "velocity": 1,
                    "duration": 0.1663199999999989
                },
                {
                    "name": "A#4",
                    "midi": 70,
                    "time": 99.62568000000032,
                    "velocity": 1,
                    "duration": 0.1663199999999989
                },
                {
                    "name": "A4",
                    "midi": 69,
                    "time": 99.79200000000031,
                    "velocity": 1,
                    "duration": 0.24948000000000548
                },
                {
                    "name": "A4",
                    "midi": 69,
                    "time": 100.04148000000032,
                    "velocity": 1,
                    "duration": 0.24948000000000548
                },
                {
                    "name": "A4",
                    "midi": 69,
                    "time": 100.29096000000033,
                    "velocity": 1,
                    "duration": 0.24948000000000548
                },
                {
                    "name": "A4",
                    "midi": 69,
                    "time": 100.54044000000033,
                    "velocity": 1,
                    "duration": 0.24948000000000548
                },
                {
                    "name": "A4",
                    "midi": 69,
                    "time": 100.78992000000034,
                    "velocity": 1,
                    "duration": 0.24948000000000548
                },
                {
                    "name": "A4",
                    "midi": 69,
                    "time": 101.03940000000034,
                    "velocity": 1,
                    "duration": 0.24948000000000548
                },
                {
                    "name": "G4",
                    "midi": 67,
                    "time": 101.28888000000035,
                    "velocity": 1,
                    "duration": 0.1663199999999989
                },
                {
                    "name": "A4",
                    "midi": 69,
                    "time": 101.45520000000035,
                    "velocity": 1,
                    "duration": 0.1663199999999989
                },
                {
                    "name": "A#4",
                    "midi": 70,
                    "time": 101.62152000000034,
                    "velocity": 1,
                    "duration": 0.1663199999999989
                },
                {
                    "name": "A4",
                    "midi": 69,
                    "time": 101.78784000000034,
                    "velocity": 1,
                    "duration": 0.24948000000000548
                },
                {
                    "name": "A4",
                    "midi": 69,
                    "time": 102.03732000000035,
                    "velocity": 1,
                    "duration": 0.24948000000000548
                },
                {
                    "name": "A4",
                    "midi": 69,
                    "time": 102.28680000000035,
                    "velocity": 1,
                    "duration": 0.24948000000000548
                },
                {
                    "name": "A4",
                    "midi": 69,
                    "time": 102.53628000000036,
                    "velocity": 1,
                    "duration": 0.24948000000000548
                },
                {
                    "name": "A4",
                    "midi": 69,
                    "time": 102.78576000000037,
                    "velocity": 1,
                    "duration": 0.24948000000000548
                },
                {
                    "name": "A4",
                    "midi": 69,
                    "time": 103.03524000000037,
                    "velocity": 1,
                    "duration": 0.24948000000000548
                },
                {
                    "name": "G4",
                    "midi": 67,
                    "time": 103.28472000000038,
                    "velocity": 1,
                    "duration": 0.1663199999999989
                },
                {
                    "name": "A4",
                    "midi": 69,
                    "time": 103.45104000000038,
                    "velocity": 1,
                    "duration": 0.1663199999999989
                },
                {
                    "name": "A#4",
                    "midi": 70,
                    "time": 103.61736000000037,
                    "velocity": 1,
                    "duration": 0.1663199999999989
                },
                {
                    "name": "A4",
                    "midi": 69,
                    "time": 103.78368000000037,
                    "velocity": 1,
                    "duration": 0.24948000000000548
                },
                {
                    "name": "A4",
                    "midi": 69,
                    "time": 104.03316000000038,
                    "velocity": 1,
                    "duration": 0.24948000000000548
                },
                {
                    "name": "A4",
                    "midi": 69,
                    "time": 104.28264000000038,
                    "velocity": 1,
                    "duration": 0.24948000000000548
                },
                {
                    "name": "A4",
                    "midi": 69,
                    "time": 104.53212000000039,
                    "velocity": 1,
                    "duration": 0.24948000000000548
                },
                {
                    "name": "A4",
                    "midi": 69,
                    "time": 104.7816000000004,
                    "velocity": 1,
                    "duration": 0.24948000000000548
                },
                {
                    "name": "A4",
                    "midi": 69,
                    "time": 105.0310800000004,
                    "velocity": 1,
                    "duration": 0.24948000000000548
                },
                {
                    "name": "A4",
                    "midi": 69,
                    "time": 105.2805600000004,
                    "velocity": 1,
                    "duration": 0.24948000000000548
                },
                {
                    "name": "A4",
                    "midi": 69,
                    "time": 105.53004000000041,
                    "velocity": 1,
                    "duration": 0.24948000000000548
                },
                {
                    "name": "A4",
                    "midi": 69,
                    "time": 105.77952000000042,
                    "velocity": 1,
                    "duration": 0.24948000000000548
                },
                {
                    "name": "A4",
                    "midi": 69,
                    "time": 106.02900000000042,
                    "velocity": 1,
                    "duration": 0.24948000000000548
                },
                {
                    "name": "A4",
                    "midi": 69,
                    "time": 106.27848000000043,
                    "velocity": 1,
                    "duration": 0.24948000000000548
                },
                {
                    "name": "A4",
                    "midi": 69,
                    "time": 106.27848000000043,
                    "velocity": 1,
                    "duration": 0.24948000000000548
                },
                {
                    "name": "A4",
                    "midi": 69,
                    "time": 106.52796000000043,
                    "velocity": 1,
                    "duration": 0.24948000000000548
                },
                {
                    "name": "A4",
                    "midi": 69,
                    "time": 106.52796000000043,
                    "velocity": 1,
                    "duration": 0.24948000000000548
                },
                {
                    "name": "A4",
                    "midi": 69,
                    "time": 106.77744000000044,
                    "velocity": 1,
                    "duration": 0.24948000000000548
                },
                {
                    "name": "A4",
                    "midi": 69,
                    "time": 106.77744000000044,
                    "velocity": 1,
                    "duration": 0.24948000000000548
                },
                {
                    "name": "A4",
                    "midi": 69,
                    "time": 107.02692000000044,
                    "velocity": 1,
                    "duration": 0.24948000000000548
                },
                {
                    "name": "A4",
                    "midi": 69,
                    "time": 107.02692000000044,
                    "velocity": 1,
                    "duration": 0.24948000000000548
                },
                {
                    "name": "A4",
                    "midi": 69,
                    "time": 107.27640000000045,
                    "velocity": 1,
                    "duration": 0.24948000000000548
                },
                {
                    "name": "A4",
                    "midi": 69,
                    "time": 107.27640000000045,
                    "velocity": 1,
                    "duration": 0.24948000000000548
                },
                {
                    "name": "A4",
                    "midi": 69,
                    "time": 107.52588000000046,
                    "velocity": 1,
                    "duration": 0.24948000000000548
                },
                {
                    "name": "A4",
                    "midi": 69,
                    "time": 107.52588000000046,
                    "velocity": 1,
                    "duration": 0.24948000000000548
                },
                {
                    "name": "A4",
                    "midi": 69,
                    "time": 107.77536000000046,
                    "velocity": 1,
                    "duration": 0.12474000000000274
                },
                {
                    "name": "F4",
                    "midi": 65,
                    "time": 107.90010000000046,
                    "velocity": 1,
                    "duration": 0.12474000000000274
                },
                {
                    "name": "A4",
                    "midi": 69,
                    "time": 108.02484000000047,
                    "velocity": 1,
                    "duration": 0.12474000000000274
                },
                {
                    "name": "F4",
                    "midi": 65,
                    "time": 108.14958000000047,
                    "velocity": 1,
                    "duration": 0.12474000000000274
                },
                {
                    "name": "A4",
                    "midi": 69,
                    "time": 108.27432000000047,
                    "velocity": 1,
                    "duration": 0.12474000000000274
                },
                {
                    "name": "F4",
                    "midi": 65,
                    "time": 108.39906000000047,
                    "velocity": 1,
                    "duration": 0.12474000000000274
                },
                {
                    "name": "A4",
                    "midi": 69,
                    "time": 108.52380000000048,
                    "velocity": 1,
                    "duration": 0.12474000000000274
                },
                {
                    "name": "F4",
                    "midi": 65,
                    "time": 108.64854000000048,
                    "velocity": 1,
                    "duration": 0.12474000000000274
                },
                {
                    "name": "A4",
                    "midi": 69,
                    "time": 108.77328000000048,
                    "velocity": 1,
                    "duration": 0.12474000000000274
                },
                {
                    "name": "F4",
                    "midi": 65,
                    "time": 108.89802000000049,
                    "velocity": 1,
                    "duration": 0.12474000000000274
                },
                {
                    "name": "A4",
                    "midi": 69,
                    "time": 109.02276000000049,
                    "velocity": 1,
                    "duration": 0.12474000000000274
                },
                {
                    "name": "F4",
                    "midi": 65,
                    "time": 109.14750000000049,
                    "velocity": 1,
                    "duration": 0.12474000000000274
                },
                {
                    "name": "A4",
                    "midi": 69,
                    "time": 109.2722400000005,
                    "velocity": 1,
                    "duration": 0.12474000000000274
                },
                {
                    "name": "F4",
                    "midi": 65,
                    "time": 109.3969800000005,
                    "velocity": 1,
                    "duration": 0.12474000000000274
                },
                {
                    "name": "A4",
                    "midi": 69,
                    "time": 109.5217200000005,
                    "velocity": 1,
                    "duration": 0.12474000000000274
                },
                {
                    "name": "F4",
                    "midi": 65,
                    "time": 109.6464600000005,
                    "velocity": 1,
                    "duration": 0.12474000000000274
                },
                {
                    "name": "A4",
                    "midi": 69,
                    "time": 109.7712000000005,
                    "velocity": 1,
                    "duration": 0.12474000000000274
                },
                {
                    "name": "F4",
                    "midi": 65,
                    "time": 109.89594000000051,
                    "velocity": 1,
                    "duration": 0.12474000000000274
                },
                {
                    "name": "A4",
                    "midi": 69,
                    "time": 110.02068000000051,
                    "velocity": 1,
                    "duration": 0.12474000000000274
                },
                {
                    "name": "F4",
                    "midi": 65,
                    "time": 110.14542000000051,
                    "velocity": 1,
                    "duration": 0.12474000000000274
                },
                {
                    "name": "A4",
                    "midi": 69,
                    "time": 110.27016000000052,
                    "velocity": 1,
                    "duration": 0.12474000000000274
                },
                {
                    "name": "F4",
                    "midi": 65,
                    "time": 110.39490000000052,
                    "velocity": 1,
                    "duration": 0.12474000000000274
                },
                {
                    "name": "A4",
                    "midi": 69,
                    "time": 110.51964000000052,
                    "velocity": 1,
                    "duration": 0.12474000000000274
                },
                {
                    "name": "F4",
                    "midi": 65,
                    "time": 110.64438000000052,
                    "velocity": 1,
                    "duration": 0.12474000000000274
                },
                {
                    "name": "A4",
                    "midi": 69,
                    "time": 110.76912000000053,
                    "velocity": 1,
                    "duration": 0.12474000000000274
                },
                {
                    "name": "F4",
                    "midi": 65,
                    "time": 110.89386000000053,
                    "velocity": 1,
                    "duration": 0.12474000000000274
                },
                {
                    "name": "A4",
                    "midi": 69,
                    "time": 111.01860000000053,
                    "velocity": 1,
                    "duration": 0.12474000000000274
                },
                {
                    "name": "F4",
                    "midi": 65,
                    "time": 111.14334000000053,
                    "velocity": 1,
                    "duration": 0.12474000000000274
                },
                {
                    "name": "G4",
                    "midi": 67,
                    "time": 111.26808000000054,
                    "velocity": 1,
                    "duration": 0.12474000000000274
                },
                {
                    "name": "E4",
                    "midi": 64,
                    "time": 111.39282000000054,
                    "velocity": 1,
                    "duration": 0.12474000000000274
                },
                {
                    "name": "G4",
                    "midi": 67,
                    "time": 111.51756000000054,
                    "velocity": 1,
                    "duration": 0.12474000000000274
                },
                {
                    "name": "E4",
                    "midi": 64,
                    "time": 111.64230000000055,
                    "velocity": 1,
                    "duration": 0.12474000000000274
                },
                {
                    "name": "A4",
                    "midi": 69,
                    "time": 111.76704000000055,
                    "velocity": 1,
                    "duration": 0.12474000000000274
                },
                {
                    "name": "F4",
                    "midi": 65,
                    "time": 111.89178000000055,
                    "velocity": 1,
                    "duration": 0.12474000000000274
                },
                {
                    "name": "A4",
                    "midi": 69,
                    "time": 112.01652000000055,
                    "velocity": 1,
                    "duration": 0.12474000000000274
                },
                {
                    "name": "F4",
                    "midi": 65,
                    "time": 112.14126000000056,
                    "velocity": 1,
                    "duration": 0.12474000000000274
                },
                {
                    "name": "A4",
                    "midi": 69,
                    "time": 112.26600000000056,
                    "velocity": 1,
                    "duration": 0.12474000000000274
                },
                {
                    "name": "F4",
                    "midi": 65,
                    "time": 112.39074000000056,
                    "velocity": 1,
                    "duration": 0.12474000000000274
                },
                {
                    "name": "A4",
                    "midi": 69,
                    "time": 112.51548000000057,
                    "velocity": 1,
                    "duration": 0.12474000000000274
                },
                {
                    "name": "F4",
                    "midi": 65,
                    "time": 112.64022000000057,
                    "velocity": 1,
                    "duration": 0.12474000000000274
                },
                {
                    "name": "A4",
                    "midi": 69,
                    "time": 112.76496000000057,
                    "velocity": 1,
                    "duration": 0.12474000000000274
                },
                {
                    "name": "F4",
                    "midi": 65,
                    "time": 112.88970000000057,
                    "velocity": 1,
                    "duration": 0.12474000000000274
                },
                {
                    "name": "A4",
                    "midi": 69,
                    "time": 113.01444000000058,
                    "velocity": 1,
                    "duration": 0.12474000000000274
                },
                {
                    "name": "F4",
                    "midi": 65,
                    "time": 113.13918000000058,
                    "velocity": 1,
                    "duration": 0.12474000000000274
                },
                {
                    "name": "A4",
                    "midi": 69,
                    "time": 113.26392000000058,
                    "velocity": 1,
                    "duration": 0.12474000000000274
                },
                {
                    "name": "F4",
                    "midi": 65,
                    "time": 113.38866000000058,
                    "velocity": 1,
                    "duration": 0.12474000000000274
                },
                {
                    "name": "A4",
                    "midi": 69,
                    "time": 113.51340000000059,
                    "velocity": 1,
                    "duration": 0.12474000000000274
                },
                {
                    "name": "F4",
                    "midi": 65,
                    "time": 113.63814000000059,
                    "velocity": 1,
                    "duration": 0.12474000000000274
                },
                {
                    "name": "A4",
                    "midi": 69,
                    "time": 113.76288000000059,
                    "velocity": 1,
                    "duration": 0.12474000000000274
                },
                {
                    "name": "F4",
                    "midi": 65,
                    "time": 113.8876200000006,
                    "velocity": 1,
                    "duration": 0.12474000000000274
                },
                {
                    "name": "A4",
                    "midi": 69,
                    "time": 114.0123600000006,
                    "velocity": 1,
                    "duration": 0.12474000000000274
                },
                {
                    "name": "F4",
                    "midi": 65,
                    "time": 114.1371000000006,
                    "velocity": 1,
                    "duration": 0.12474000000000274
                },
                {
                    "name": "A4",
                    "midi": 69,
                    "time": 114.2618400000006,
                    "velocity": 1,
                    "duration": 0.12474000000000274
                },
                {
                    "name": "F4",
                    "midi": 65,
                    "time": 114.3865800000006,
                    "velocity": 1,
                    "duration": 0.12474000000000274
                },
                {
                    "name": "A4",
                    "midi": 69,
                    "time": 114.51132000000061,
                    "velocity": 1,
                    "duration": 0.12474000000000274
                },
                {
                    "name": "F4",
                    "midi": 65,
                    "time": 114.63606000000061,
                    "velocity": 1,
                    "duration": 0.12474000000000274
                },
                {
                    "name": "A4",
                    "midi": 69,
                    "time": 114.76080000000061,
                    "velocity": 1,
                    "duration": 0.12474000000000274
                },
                {
                    "name": "F4",
                    "midi": 65,
                    "time": 114.88554000000062,
                    "velocity": 1,
                    "duration": 0.12474000000000274
                },
                {
                    "name": "A4",
                    "midi": 69,
                    "time": 115.01028000000062,
                    "velocity": 1,
                    "duration": 0.12474000000000274
                },
                {
                    "name": "F4",
                    "midi": 65,
                    "time": 115.13502000000062,
                    "velocity": 1,
                    "duration": 0.12474000000000274
                },
                {
                    "name": "G4",
                    "midi": 67,
                    "time": 115.25976000000063,
                    "velocity": 1,
                    "duration": 0.12474000000000274
                },
                {
                    "name": "E4",
                    "midi": 64,
                    "time": 115.38450000000063,
                    "velocity": 1,
                    "duration": 0.12474000000000274
                },
                {
                    "name": "G4",
                    "midi": 67,
                    "time": 115.50924000000063,
                    "velocity": 1,
                    "duration": 0.12474000000000274
                },
                {
                    "name": "E4",
                    "midi": 64,
                    "time": 115.63398000000063,
                    "velocity": 1,
                    "duration": 0.12474000000000274
                },
                {
                    "name": "G4",
                    "midi": 67,
                    "time": 115.75872000000064,
                    "velocity": 1,
                    "duration": 0.12474000000000274
                },
                {
                    "name": "D#4",
                    "midi": 63,
                    "time": 115.88346000000064,
                    "velocity": 1,
                    "duration": 0.12474000000000274
                },
                {
                    "name": "G4",
                    "midi": 67,
                    "time": 116.00820000000064,
                    "velocity": 1,
                    "duration": 0.12474000000000274
                },
                {
                    "name": "D#4",
                    "midi": 63,
                    "time": 116.13294000000064,
                    "velocity": 1,
                    "duration": 0.12474000000000274
                },
                {
                    "name": "G4",
                    "midi": 67,
                    "time": 116.25768000000065,
                    "velocity": 1,
                    "duration": 0.12474000000000274
                },
                {
                    "name": "D#4",
                    "midi": 63,
                    "time": 116.38242000000065,
                    "velocity": 1,
                    "duration": 0.12474000000000274
                },
                {
                    "name": "G4",
                    "midi": 67,
                    "time": 116.50716000000065,
                    "velocity": 1,
                    "duration": 0.12474000000000274
                },
                {
                    "name": "D#4",
                    "midi": 63,
                    "time": 116.63190000000066,
                    "velocity": 1,
                    "duration": 0.12474000000000274
                },
                {
                    "name": "G4",
                    "midi": 67,
                    "time": 116.75664000000066,
                    "velocity": 1,
                    "duration": 0.12474000000000274
                },
                {
                    "name": "D#4",
                    "midi": 63,
                    "time": 116.88138000000066,
                    "velocity": 1,
                    "duration": 0.12474000000000274
                },
                {
                    "name": "G4",
                    "midi": 67,
                    "time": 117.00612000000066,
                    "velocity": 1,
                    "duration": 0.12474000000000274
                },
                {
                    "name": "D#4",
                    "midi": 63,
                    "time": 117.13086000000067,
                    "velocity": 1,
                    "duration": 0.12474000000000274
                },
                {
                    "name": "G4",
                    "midi": 67,
                    "time": 117.25560000000067,
                    "velocity": 1,
                    "duration": 0.12474000000000274
                },
                {
                    "name": "D#4",
                    "midi": 63,
                    "time": 117.38034000000067,
                    "velocity": 1,
                    "duration": 0.12474000000000274
                },
                {
                    "name": "G4",
                    "midi": 67,
                    "time": 117.50508000000067,
                    "velocity": 1,
                    "duration": 0.12474000000000274
                },
                {
                    "name": "D#4",
                    "midi": 63,
                    "time": 117.62982000000068,
                    "velocity": 1,
                    "duration": 0.12474000000000274
                },
                {
                    "name": "G4",
                    "midi": 67,
                    "time": 117.75456000000068,
                    "velocity": 1,
                    "duration": 0.12474000000000274
                },
                {
                    "name": "D#4",
                    "midi": 63,
                    "time": 117.87930000000068,
                    "velocity": 1,
                    "duration": 0.12474000000000274
                },
                {
                    "name": "G4",
                    "midi": 67,
                    "time": 118.00404000000069,
                    "velocity": 1,
                    "duration": 0.12474000000000274
                },
                {
                    "name": "D#4",
                    "midi": 63,
                    "time": 118.12878000000069,
                    "velocity": 1,
                    "duration": 0.12474000000000274
                },
                {
                    "name": "G4",
                    "midi": 67,
                    "time": 118.25352000000069,
                    "velocity": 1,
                    "duration": 0.12474000000000274
                },
                {
                    "name": "D#4",
                    "midi": 63,
                    "time": 118.3782600000007,
                    "velocity": 1,
                    "duration": 0.12474000000000274
                },
                {
                    "name": "G4",
                    "midi": 67,
                    "time": 118.5030000000007,
                    "velocity": 1,
                    "duration": 0.12474000000000274
                },
                {
                    "name": "D#4",
                    "midi": 63,
                    "time": 118.6277400000007,
                    "velocity": 1,
                    "duration": 0.12474000000000274
                },
                {
                    "name": "G4",
                    "midi": 67,
                    "time": 118.7524800000007,
                    "velocity": 1,
                    "duration": 0.12474000000000274
                },
                {
                    "name": "D#4",
                    "midi": 63,
                    "time": 118.8772200000007,
                    "velocity": 1,
                    "duration": 0.12474000000000274
                },
                {
                    "name": "G4",
                    "midi": 67,
                    "time": 119.00196000000071,
                    "velocity": 1,
                    "duration": 0.12474000000000274
                },
                {
                    "name": "D#4",
                    "midi": 63,
                    "time": 119.12670000000071,
                    "velocity": 1,
                    "duration": 0.12474000000000274
                },
                {
                    "name": "G4",
                    "midi": 67,
                    "time": 119.25144000000071,
                    "velocity": 1,
                    "duration": 0.12474000000000274
                },
                {
                    "name": "D#4",
                    "midi": 63,
                    "time": 119.37618000000072,
                    "velocity": 1,
                    "duration": 0.12474000000000274
                },
                {
                    "name": "G4",
                    "midi": 67,
                    "time": 119.50092000000072,
                    "velocity": 1,
                    "duration": 0.12474000000000274
                },
                {
                    "name": "D#4",
                    "midi": 63,
                    "time": 119.62566000000072,
                    "velocity": 1,
                    "duration": 0.12474000000000274
                },
                {
                    "name": "B3",
                    "midi": 59,
                    "time": 119.75040000000072,
                    "velocity": 1,
                    "duration": 0.12474000000000274
                },
                {
                    "name": "F4",
                    "midi": 65,
                    "time": 119.87514000000073,
                    "velocity": 1,
                    "duration": 0.12474000000000274
                },
                {
                    "name": "A4",
                    "midi": 69,
                    "time": 119.99988000000073,
                    "velocity": 1,
                    "duration": 0.12474000000000274
                },
                {
                    "name": "F5",
                    "midi": 77,
                    "time": 120.12462000000073,
                    "velocity": 1,
                    "duration": 0.12474000000000274
                },
                {
                    "name": "F5",
                    "midi": 77,
                    "time": 120.24936000000073,
                    "velocity": 1,
                    "duration": 0.12474000000000274
                },
                {
                    "name": "A4",
                    "midi": 69,
                    "time": 120.37410000000074,
                    "velocity": 1,
                    "duration": 0.12474000000000274
                },
                {
                    "name": "F4",
                    "midi": 65,
                    "time": 120.49884000000074,
                    "velocity": 1,
                    "duration": 0.12474000000000274
                },
                {
                    "name": "B3",
                    "midi": 59,
                    "time": 120.62358000000074,
                    "velocity": 1,
                    "duration": 0.12474000000000274
                },
                {
                    "name": "B3",
                    "midi": 59,
                    "time": 120.74832000000075,
                    "velocity": 1,
                    "duration": 0.12474000000000274
                },
                {
                    "name": "F4",
                    "midi": 65,
                    "time": 120.87306000000075,
                    "velocity": 1,
                    "duration": 0.12474000000000274
                },
                {
                    "name": "A4",
                    "midi": 69,
                    "time": 120.99780000000075,
                    "velocity": 1,
                    "duration": 0.12474000000000274
                },
                {
                    "name": "F5",
                    "midi": 77,
                    "time": 121.12254000000075,
                    "velocity": 1,
                    "duration": 0.12474000000000274
                },
                {
                    "name": "F5",
                    "midi": 77,
                    "time": 121.24728000000076,
                    "velocity": 1,
                    "duration": 0.12474000000000274
                },
                {
                    "name": "A4",
                    "midi": 69,
                    "time": 121.37202000000076,
                    "velocity": 1,
                    "duration": 0.12474000000000274
                },
                {
                    "name": "F4",
                    "midi": 65,
                    "time": 121.49676000000076,
                    "velocity": 1,
                    "duration": 0.12474000000000274
                },
                {
                    "name": "B3",
                    "midi": 59,
                    "time": 121.62150000000076,
                    "velocity": 1,
                    "duration": 0.12474000000000274
                },
                {
                    "name": "C#4",
                    "midi": 61,
                    "time": 121.74624000000077,
                    "velocity": 1,
                    "duration": 0.12474000000000274
                },
                {
                    "name": "G4",
                    "midi": 67,
                    "time": 121.87098000000077,
                    "velocity": 1,
                    "duration": 0.12474000000000274
                },
                {
                    "name": "A4",
                    "midi": 69,
                    "time": 121.99572000000077,
                    "velocity": 1,
                    "duration": 0.12474000000000274
                },
                {
                    "name": "F5",
                    "midi": 77,
                    "time": 122.12046000000078,
                    "velocity": 1,
                    "duration": 0.12474000000000274
                },
                {
                    "name": "F5",
                    "midi": 77,
                    "time": 122.24520000000078,
                    "velocity": 1,
                    "duration": 0.12474000000000274
                },
                {
                    "name": "A4",
                    "midi": 69,
                    "time": 122.36994000000078,
                    "velocity": 1,
                    "duration": 0.12474000000000274
                },
                {
                    "name": "G4",
                    "midi": 67,
                    "time": 122.49468000000078,
                    "velocity": 1,
                    "duration": 0.12474000000000274
                },
                {
                    "name": "C#4",
                    "midi": 61,
                    "time": 122.61942000000079,
                    "velocity": 1,
                    "duration": 0.12474000000000274
                },
                {
                    "name": "C#4",
                    "midi": 61,
                    "time": 122.74416000000079,
                    "velocity": 1,
                    "duration": 0.12474000000000274
                },
                {
                    "name": "G4",
                    "midi": 67,
                    "time": 122.86890000000079,
                    "velocity": 1,
                    "duration": 0.12474000000000274
                },
                {
                    "name": "A4",
                    "midi": 69,
                    "time": 122.9936400000008,
                    "velocity": 1,
                    "duration": 0.12474000000000274
                },
                {
                    "name": "F5",
                    "midi": 77,
                    "time": 123.1183800000008,
                    "velocity": 1,
                    "duration": 0.12474000000000274
                },
                {
                    "name": "F5",
                    "midi": 77,
                    "time": 123.2431200000008,
                    "velocity": 1,
                    "duration": 0.12474000000000274
                },
                {
                    "name": "A4",
                    "midi": 69,
                    "time": 123.3678600000008,
                    "velocity": 1,
                    "duration": 0.12474000000000274
                },
                {
                    "name": "G4",
                    "midi": 67,
                    "time": 123.4926000000008,
                    "velocity": 1,
                    "duration": 0.12474000000000274
                },
                {
                    "name": "C#4",
                    "midi": 61,
                    "time": 123.61734000000081,
                    "velocity": 1,
                    "duration": 0.12474000000000274
                },
                {
                    "name": "A3",
                    "midi": 57,
                    "time": 123.74208000000081,
                    "velocity": 1,
                    "duration": 0.49895999999999674
                },
                {
                    "name": "E4",
                    "midi": 64,
                    "time": 124.24104000000081,
                    "velocity": 1,
                    "duration": 0.9979199999999935
                },
                {
                    "name": "D4",
                    "midi": 62,
                    "time": 125.2389600000008,
                    "velocity": 1,
                    "duration": 0.1663199999999989
                },
                {
                    "name": "E4",
                    "midi": 64,
                    "time": 125.4052800000008,
                    "velocity": 1,
                    "duration": 0.1663199999999989
                },
                {
                    "name": "F4",
                    "midi": 65,
                    "time": 125.5716000000008,
                    "velocity": 1,
                    "duration": 0.1663199999999989
                },
                {
                    "name": "E4",
                    "midi": 64,
                    "time": 125.7379200000008,
                    "velocity": 1,
                    "duration": 0.49895999999999674
                },
                {
                    "name": "D4",
                    "midi": 62,
                    "time": 126.2368800000008,
                    "velocity": 1,
                    "duration": 0.24948000000000548
                },
                {
                    "name": "C4",
                    "midi": 60,
                    "time": 126.4863600000008,
                    "velocity": 1,
                    "duration": 0.24948000000000548
                },
                {
                    "name": "A#3",
                    "midi": 58,
                    "time": 126.7358400000008,
                    "velocity": 1,
                    "duration": 0.49895999999999674
                },
                {
                    "name": "C4",
                    "midi": 60,
                    "time": 127.2348000000008,
                    "velocity": 1,
                    "duration": 0.24948000000000548
                },
                {
                    "name": "D4",
                    "midi": 62,
                    "time": 127.48428000000081,
                    "velocity": 1,
                    "duration": 0.24948000000000548
                },
                {
                    "name": "E4",
                    "midi": 64,
                    "time": 127.73376000000081,
                    "velocity": 1,
                    "duration": 1.4968800000000044
                },
                {
                    "name": "D4",
                    "midi": 62,
                    "time": 129.23064000000082,
                    "velocity": 1,
                    "duration": 0.16632000000001312
                },
                {
                    "name": "E4",
                    "midi": 64,
                    "time": 129.39696000000083,
                    "velocity": 1,
                    "duration": 0.16632000000001312
                },
                {
                    "name": "F4",
                    "midi": 65,
                    "time": 129.56328000000084,
                    "velocity": 1,
                    "duration": 0.16632000000001312
                },
                {
                    "name": "E4",
                    "midi": 64,
                    "time": 129.72960000000086,
                    "velocity": 1,
                    "duration": 0.49896000000001095
                },
                {
                    "name": "D4",
                    "midi": 62,
                    "time": 130.22856000000087,
                    "velocity": 1,
                    "duration": 0.24948000000000548
                },
                {
                    "name": "C4",
                    "midi": 60,
                    "time": 130.47804000000087,
                    "velocity": 1,
                    "duration": 0.24948000000000548
                },
                {
                    "name": "A#3",
                    "midi": 58,
                    "time": 130.72752000000088,
                    "velocity": 1,
                    "duration": 0.49896000000001095
                },
                {
                    "name": "C4",
                    "midi": 60,
                    "time": 131.2264800000009,
                    "velocity": 1,
                    "duration": 0.24948000000000548
                },
                {
                    "name": "D4",
                    "midi": 62,
                    "time": 131.4759600000009,
                    "velocity": 1,
                    "duration": 0.24948000000000548
                },
                {
                    "name": "E4",
                    "midi": 64,
                    "time": 131.7254400000009,
                    "velocity": 1,
                    "duration": 1.4968800000000044
                },
                {
                    "name": "D4",
                    "midi": 62,
                    "time": 133.2223200000009,
                    "velocity": 1,
                    "duration": 0.16632000000001312
                },
                {
                    "name": "E4",
                    "midi": 64,
                    "time": 133.38864000000092,
                    "velocity": 1,
                    "duration": 0.16632000000001312
                },
                {
                    "name": "F4",
                    "midi": 65,
                    "time": 133.55496000000093,
                    "velocity": 1,
                    "duration": 0.16632000000001312
                },
                {
                    "name": "E4",
                    "midi": 64,
                    "time": 133.72128000000095,
                    "velocity": 1,
                    "duration": 1.4968800000000044
                },
                {
                    "name": "D4",
                    "midi": 62,
                    "time": 135.21816000000095,
                    "velocity": 1,
                    "duration": 0.16632000000001312
                },
                {
                    "name": "E4",
                    "midi": 64,
                    "time": 135.38448000000096,
                    "velocity": 1,
                    "duration": 0.16632000000001312
                },
                {
                    "name": "F4",
                    "midi": 65,
                    "time": 135.55080000000098,
                    "velocity": 1,
                    "duration": 0.16632000000001312
                },
                {
                    "name": "D4",
                    "midi": 62,
                    "time": 135.717120000001,
                    "velocity": 1,
                    "duration": 1.4968800000000044
                },
                {
                    "name": "C4",
                    "midi": 60,
                    "time": 137.214000000001,
                    "velocity": 1,
                    "duration": 0.49896000000001095
                },
                {
                    "name": "D4",
                    "midi": 62,
                    "time": 137.712960000001,
                    "velocity": 1,
                    "duration": 1.4968800000000044
                },
                {
                    "name": "C4",
                    "midi": 60,
                    "time": 139.209840000001,
                    "velocity": 1,
                    "duration": 0.49896000000001095
                },
                {
                    "name": "D4",
                    "midi": 62,
                    "time": 139.70880000000102,
                    "velocity": 1,
                    "duration": 1.4968800000000044
                },
                {
                    "name": "C4",
                    "midi": 60,
                    "time": 141.20568000000102,
                    "velocity": 1,
                    "duration": 0.49896000000001095
                },
                {
                    "name": "D4",
                    "midi": 62,
                    "time": 141.70464000000104,
                    "velocity": 1,
                    "duration": 0.49896000000001095
                },
                {
                    "name": "C4",
                    "midi": 60,
                    "time": 142.20360000000105,
                    "velocity": 1,
                    "duration": 0.24948000000000548
                },
                {
                    "name": "D4",
                    "midi": 62,
                    "time": 142.45308000000105,
                    "velocity": 1,
                    "duration": 0.24948000000000548
                },
                {
                    "name": "A3",
                    "midi": 57,
                    "time": 142.70256000000106,
                    "velocity": 1,
                    "duration": 0.49896000000001095
                },
                {
                    "name": "C4",
                    "midi": 60,
                    "time": 143.20152000000107,
                    "velocity": 1,
                    "duration": 0.49896000000001095
                },
                {
                    "name": "D4",
                    "midi": 62,
                    "time": 143.70048000000108,
                    "velocity": 1,
                    "duration": 0.24948000000000548
                },
                {
                    "name": "A#3",
                    "midi": 58,
                    "time": 143.94996000000108,
                    "velocity": 1,
                    "duration": 0.24948000000000548
                },
                {
                    "name": "F4",
                    "midi": 65,
                    "time": 144.1994400000011,
                    "velocity": 1,
                    "duration": 0.24948000000000548
                },
                {
                    "name": "A4",
                    "midi": 69,
                    "time": 144.4489200000011,
                    "velocity": 1,
                    "duration": 0.24948000000000548
                },
                {
                    "name": "G4",
                    "midi": 67,
                    "time": 144.6984000000011,
                    "velocity": 1,
                    "duration": 0.49896000000001095
                },
                {
                    "name": "F4",
                    "midi": 65,
                    "time": 145.1973600000011,
                    "velocity": 1,
                    "duration": 0.24948000000000548
                },
                {
                    "name": "D4",
                    "midi": 62,
                    "time": 145.44684000000112,
                    "velocity": 1,
                    "duration": 0.24948000000000548
                },
                {
                    "name": "C4",
                    "midi": 60,
                    "time": 145.69632000000112,
                    "velocity": 1,
                    "duration": 1.4968800000000044
                },
                {
                    "name": "A#3",
                    "midi": 58,
                    "time": 147.19320000000113,
                    "velocity": 1,
                    "duration": 0.16632000000001312
                },
                {
                    "name": "C4",
                    "midi": 60,
                    "time": 147.35952000000114,
                    "velocity": 1,
                    "duration": 0.16632000000001312
                },
                {
                    "name": "D4",
                    "midi": 62,
                    "time": 147.52584000000115,
                    "velocity": 1,
                    "duration": 0.16632000000001312
                },
                {
                    "name": "C4",
                    "midi": 60,
                    "time": 147.69216000000117,
                    "velocity": 1,
                    "duration": 1.4968800000000044
                },
                {
                    "name": "A#3",
                    "midi": 58,
                    "time": 149.18904000000117,
                    "velocity": 1,
                    "duration": 0.16632000000001312
                },
                {
                    "name": "C4",
                    "midi": 60,
                    "time": 149.35536000000118,
                    "velocity": 1,
                    "duration": 0.16632000000001312
                },
                {
                    "name": "D4",
                    "midi": 62,
                    "time": 149.5216800000012,
                    "velocity": 1,
                    "duration": 0.16632000000001312
                },
                {
                    "name": "C4",
                    "midi": 60,
                    "time": 149.6880000000012,
                    "velocity": 1,
                    "duration": 0.9979199999999935
                },
                {
                    "name": "D4",
                    "midi": 62,
                    "time": 150.6859200000012,
                    "velocity": 1,
                    "duration": 0.49896000000001095
                },
                {
                    "name": "C4",
                    "midi": 60,
                    "time": 151.18488000000121,
                    "velocity": 1,
                    "duration": 0.49896000000001095
                },
                {
                    "name": "A#4",
                    "midi": 70,
                    "time": 151.68384000000123,
                    "velocity": 1,
                    "duration": 1.4968800000000044
                },
                {
                    "name": "A#3",
                    "midi": 58,
                    "time": 151.68384000000123,
                    "velocity": 1,
                    "duration": 1.4968800000000044
                },
                {
                    "name": "G#3",
                    "midi": 56,
                    "time": 153.18072000000123,
                    "velocity": 1,
                    "duration": 0.49896000000001095
                },
                {
                    "name": "G#4",
                    "midi": 68,
                    "time": 153.18072000000123,
                    "velocity": 1,
                    "duration": 0.49896000000001095
                },
                {
                    "name": "A#3",
                    "midi": 58,
                    "time": 153.67968000000124,
                    "velocity": 1,
                    "duration": 1.4968800000000044
                },
                {
                    "name": "A#4",
                    "midi": 70,
                    "time": 153.67968000000124,
                    "velocity": 1,
                    "duration": 1.4968800000000044
                },
                {
                    "name": "G#4",
                    "midi": 68,
                    "time": 155.17656000000125,
                    "velocity": 1,
                    "duration": 0.49896000000001095
                },
                {
                    "name": "G#3",
                    "midi": 56,
                    "time": 155.17656000000125,
                    "velocity": 1,
                    "duration": 0.49896000000001095
                },
                {
                    "name": "A#4",
                    "midi": 70,
                    "time": 155.67552000000126,
                    "velocity": 1,
                    "duration": 0.9979199999999935
                },
                {
                    "name": "A#3",
                    "midi": 58,
                    "time": 155.67552000000126,
                    "velocity": 1,
                    "duration": 0.9979199999999935
                },
                {
                    "name": "G#3",
                    "midi": 56,
                    "time": 156.67344000000125,
                    "velocity": 1,
                    "duration": 0.49896000000001095
                },
                {
                    "name": "G#4",
                    "midi": 68,
                    "time": 156.67344000000125,
                    "velocity": 1,
                    "duration": 0.49896000000001095
                },
                {
                    "name": "A#3",
                    "midi": 58,
                    "time": 157.17240000000126,
                    "velocity": 1,
                    "duration": 0.49896000000001095
                },
                {
                    "name": "A#4",
                    "midi": 70,
                    "time": 157.17240000000126,
                    "velocity": 1,
                    "duration": 0.49896000000001095
                },
                {
                    "name": "D4",
                    "midi": 62,
                    "time": 157.67136000000127,
                    "velocity": 1,
                    "duration": 1.4968800000000044
                },
                {
                    "name": "C#4",
                    "midi": 61,
                    "time": 159.16824000000128,
                    "velocity": 1,
                    "duration": 0.16632000000001312
                },
                {
                    "name": "D4",
                    "midi": 62,
                    "time": 159.3345600000013,
                    "velocity": 1,
                    "duration": 0.16632000000001312
                },
                {
                    "name": "E4",
                    "midi": 64,
                    "time": 159.5008800000013,
                    "velocity": 1,
                    "duration": 0.16632000000001312
                },
                {
                    "name": "D4",
                    "midi": 62,
                    "time": 159.66720000000132,
                    "velocity": 1,
                    "duration": 1.4968800000000044
                },
                {
                    "name": "C#4",
                    "midi": 61,
                    "time": 161.16408000000132,
                    "velocity": 1,
                    "duration": 0.16632000000001312
                },
                {
                    "name": "D4",
                    "midi": 62,
                    "time": 161.33040000000133,
                    "velocity": 1,
                    "duration": 0.16632000000001312
                },
                {
                    "name": "E4",
                    "midi": 64,
                    "time": 161.49672000000135,
                    "velocity": 1,
                    "duration": 0.16632000000001312
                },
                {
                    "name": "D4",
                    "midi": 62,
                    "time": 161.66304000000136,
                    "velocity": 1,
                    "duration": 1.4968800000000044
                },
                {
                    "name": "C#4",
                    "midi": 61,
                    "time": 163.15992000000136,
                    "velocity": 1,
                    "duration": 0.16632000000001312
                },
                {
                    "name": "D4",
                    "midi": 62,
                    "time": 163.32624000000138,
                    "velocity": 1,
                    "duration": 0.16632000000001312
                },
                {
                    "name": "E4",
                    "midi": 64,
                    "time": 163.4925600000014,
                    "velocity": 1,
                    "duration": 0.16632000000001312
                },
                {
                    "name": "D4",
                    "midi": 62,
                    "time": 163.6588800000014,
                    "velocity": 1,
                    "duration": 1.995839999999987
                },
                {
                    "name": "A3",
                    "midi": 57,
                    "time": 165.6547200000014,
                    "velocity": 1,
                    "duration": 0.12474000000000274
                },
                {
                    "name": "A3",
                    "midi": 57,
                    "time": 165.7794600000014,
                    "velocity": 1,
                    "duration": 0.12474000000000274
                },
                {
                    "name": "C4",
                    "midi": 60,
                    "time": 165.9042000000014,
                    "velocity": 1,
                    "duration": 0.12474000000000274
                },
                {
                    "name": "C4",
                    "midi": 60,
                    "time": 166.0289400000014,
                    "velocity": 1,
                    "duration": 0.12474000000000274
                },
                {
                    "name": "D4",
                    "midi": 62,
                    "time": 166.1536800000014,
                    "velocity": 1,
                    "duration": 0.12474000000000274
                },
                {
                    "name": "D4",
                    "midi": 62,
                    "time": 166.2784200000014,
                    "velocity": 1,
                    "duration": 0.12474000000000274
                },
                {
                    "name": "F4",
                    "midi": 65,
                    "time": 166.4031600000014,
                    "velocity": 1,
                    "duration": 0.12474000000000274
                },
                {
                    "name": "F4",
                    "midi": 65,
                    "time": 166.5279000000014,
                    "velocity": 1,
                    "duration": 0.12474000000000274
                },
                {
                    "name": "D4",
                    "midi": 62,
                    "time": 166.6526400000014,
                    "velocity": 1,
                    "duration": 0.12474000000000274
                },
                {
                    "name": "D4",
                    "midi": 62,
                    "time": 166.77738000000141,
                    "velocity": 1,
                    "duration": 0.12474000000000274
                },
                {
                    "name": "F4",
                    "midi": 65,
                    "time": 166.90212000000142,
                    "velocity": 1,
                    "duration": 0.12474000000000274
                },
                {
                    "name": "F4",
                    "midi": 65,
                    "time": 167.02686000000142,
                    "velocity": 1,
                    "duration": 0.12474000000000274
                },
                {
                    "name": "A4",
                    "midi": 69,
                    "time": 167.15160000000142,
                    "velocity": 1,
                    "duration": 0.12474000000000274
                },
                {
                    "name": "A4",
                    "midi": 69,
                    "time": 167.27634000000143,
                    "velocity": 1,
                    "duration": 0.12474000000000274
                },
                {
                    "name": "C5",
                    "midi": 72,
                    "time": 167.40108000000143,
                    "velocity": 1,
                    "duration": 0.12474000000000274
                },
                {
                    "name": "C5",
                    "midi": 72,
                    "time": 167.52582000000143,
                    "velocity": 1,
                    "duration": 0.12474000000000274
                },
                {
                    "name": "D4",
                    "midi": 62,
                    "time": 167.65056000000143,
                    "velocity": 1,
                    "duration": 0.12474000000000274
                },
                {
                    "name": "F4",
                    "midi": 65,
                    "time": 167.77530000000144,
                    "velocity": 1,
                    "duration": 0.12474000000000274
                },
                {
                    "name": "F4",
                    "midi": 65,
                    "time": 167.90004000000144,
                    "velocity": 1,
                    "duration": 0.12474000000000274
                },
                {
                    "name": "A4",
                    "midi": 69,
                    "time": 168.02478000000144,
                    "velocity": 1,
                    "duration": 0.12474000000000274
                },
                {
                    "name": "A4",
                    "midi": 69,
                    "time": 168.14952000000144,
                    "velocity": 1,
                    "duration": 0.12474000000000274
                },
                {
                    "name": "C5",
                    "midi": 72,
                    "time": 168.27426000000145,
                    "velocity": 1,
                    "duration": 0.12474000000000274
                },
                {
                    "name": "C5",
                    "midi": 72,
                    "time": 168.39900000000145,
                    "velocity": 1,
                    "duration": 0.12474000000000274
                },
                {
                    "name": "D5",
                    "midi": 74,
                    "time": 168.52374000000145,
                    "velocity": 1,
                    "duration": 0.12474000000000274
                },
                {
                    "name": "F5",
                    "midi": 77,
                    "time": 168.64848000000146,
                    "velocity": 1,
                    "duration": 0.12474000000000274
                },
                {
                    "name": "F5",
                    "midi": 77,
                    "time": 168.77322000000146,
                    "velocity": 1,
                    "duration": 0.12474000000000274
                },
                {
                    "name": "D5",
                    "midi": 74,
                    "time": 168.89796000000146,
                    "velocity": 1,
                    "duration": 0.12474000000000274
                },
                {
                    "name": "D5",
                    "midi": 74,
                    "time": 169.02270000000146,
                    "velocity": 1,
                    "duration": 0.12474000000000274
                },
                {
                    "name": "C5",
                    "midi": 72,
                    "time": 169.14744000000147,
                    "velocity": 1,
                    "duration": 0.12474000000000274
                },
                {
                    "name": "C5",
                    "midi": 72,
                    "time": 169.27218000000147,
                    "velocity": 1,
                    "duration": 0.12474000000000274
                },
                {
                    "name": "D5",
                    "midi": 74,
                    "time": 169.39692000000147,
                    "velocity": 1,
                    "duration": 0.12474000000000274
                },
                {
                    "name": "D5",
                    "midi": 74,
                    "time": 169.52166000000148,
                    "velocity": 1,
                    "duration": 0.12474000000000274
                },
                {
                    "name": "F5",
                    "midi": 77,
                    "time": 169.64640000000148,
                    "velocity": 1,
                    "duration": 0.12474000000000274
                },
                {
                    "name": "F5",
                    "midi": 77,
                    "time": 169.77114000000148,
                    "velocity": 1,
                    "duration": 0.12474000000000274
                },
                {
                    "name": "D5",
                    "midi": 74,
                    "time": 169.89588000000148,
                    "velocity": 1,
                    "duration": 0.12474000000000274
                },
                {
                    "name": "D5",
                    "midi": 74,
                    "time": 170.0206200000015,
                    "velocity": 1,
                    "duration": 0.12474000000000274
                },
                {
                    "name": "C5",
                    "midi": 72,
                    "time": 170.1453600000015,
                    "velocity": 1,
                    "duration": 0.12474000000000274
                },
                {
                    "name": "C5",
                    "midi": 72,
                    "time": 170.2701000000015,
                    "velocity": 1,
                    "duration": 0.12474000000000274
                },
                {
                    "name": "D5",
                    "midi": 74,
                    "time": 170.3948400000015,
                    "velocity": 1,
                    "duration": 0.12474000000000274
                },
                {
                    "name": "D5",
                    "midi": 74,
                    "time": 170.5195800000015,
                    "velocity": 1,
                    "duration": 0.12474000000000274
                },
                {
                    "name": "F5",
                    "midi": 77,
                    "time": 170.6443200000015,
                    "velocity": 1,
                    "duration": 0.12474000000000274
                },
                {
                    "name": "F5",
                    "midi": 77,
                    "time": 170.7690600000015,
                    "velocity": 1,
                    "duration": 0.12474000000000274
                },
                {
                    "name": "D5",
                    "midi": 74,
                    "time": 170.8938000000015,
                    "velocity": 1,
                    "duration": 0.12474000000000274
                },
                {
                    "name": "D5",
                    "midi": 74,
                    "time": 171.0185400000015,
                    "velocity": 1,
                    "duration": 0.12474000000000274
                },
                {
                    "name": "C5",
                    "midi": 72,
                    "time": 171.1432800000015,
                    "velocity": 1,
                    "duration": 0.12474000000000274
                },
                {
                    "name": "C5",
                    "midi": 72,
                    "time": 171.2680200000015,
                    "velocity": 1,
                    "duration": 0.12474000000000274
                },
                {
                    "name": "D5",
                    "midi": 74,
                    "time": 171.39276000000152,
                    "velocity": 1,
                    "duration": 0.12474000000000274
                },
                {
                    "name": "D5",
                    "midi": 74,
                    "time": 171.51750000000152,
                    "velocity": 1,
                    "duration": 0.12474000000000274
                },
                {
                    "name": "F5",
                    "midi": 77,
                    "time": 171.64224000000152,
                    "velocity": 1,
                    "duration": 0.12474000000000274
                },
                {
                    "name": "F5",
                    "midi": 77,
                    "time": 171.76698000000152,
                    "velocity": 1,
                    "duration": 0.12474000000000274
                },
                {
                    "name": "D5",
                    "midi": 74,
                    "time": 171.89172000000153,
                    "velocity": 1,
                    "duration": 0.12474000000000274
                },
                {
                    "name": "D5",
                    "midi": 74,
                    "time": 172.01646000000153,
                    "velocity": 1,
                    "duration": 0.12474000000000274
                },
                {
                    "name": "C5",
                    "midi": 72,
                    "time": 172.14120000000153,
                    "velocity": 1,
                    "duration": 0.12474000000000274
                },
                {
                    "name": "C5",
                    "midi": 72,
                    "time": 172.26594000000154,
                    "velocity": 1,
                    "duration": 0.12474000000000274
                },
                {
                    "name": "D5",
                    "midi": 74,
                    "time": 172.39068000000154,
                    "velocity": 1,
                    "duration": 0.12474000000000274
                },
                {
                    "name": "D5",
                    "midi": 74,
                    "time": 172.51542000000154,
                    "velocity": 1,
                    "duration": 0.12474000000000274
                },
                {
                    "name": "F5",
                    "midi": 77,
                    "time": 172.64016000000154,
                    "velocity": 1,
                    "duration": 0.12474000000000274
                },
                {
                    "name": "F5",
                    "midi": 77,
                    "time": 172.76490000000155,
                    "velocity": 1,
                    "duration": 0.12474000000000274
                },
                {
                    "name": "D5",
                    "midi": 74,
                    "time": 172.88964000000155,
                    "velocity": 1,
                    "duration": 0.12474000000000274
                },
                {
                    "name": "D5",
                    "midi": 74,
                    "time": 173.01438000000155,
                    "velocity": 1,
                    "duration": 0.12474000000000274
                },
                {
                    "name": "C5",
                    "midi": 72,
                    "time": 173.13912000000155,
                    "velocity": 1,
                    "duration": 0.12474000000000274
                },
                {
                    "name": "C5",
                    "midi": 72,
                    "time": 173.26386000000156,
                    "velocity": 1,
                    "duration": 0.12474000000000274
                },
                {
                    "name": "D5",
                    "midi": 74,
                    "time": 173.38860000000156,
                    "velocity": 1,
                    "duration": 0.12474000000000274
                },
                {
                    "name": "D5",
                    "midi": 74,
                    "time": 173.51334000000156,
                    "velocity": 1,
                    "duration": 0.12474000000000274
                },
                {
                    "name": "F5",
                    "midi": 77,
                    "time": 173.63808000000157,
                    "velocity": 1,
                    "duration": 0.12474000000000274
                },
                {
                    "name": "F5",
                    "midi": 77,
                    "time": 173.76282000000157,
                    "velocity": 1,
                    "duration": 0.12474000000000274
                },
                {
                    "name": "D5",
                    "midi": 74,
                    "time": 173.88756000000157,
                    "velocity": 1,
                    "duration": 0.12474000000000274
                },
                {
                    "name": "D5",
                    "midi": 74,
                    "time": 174.01230000000157,
                    "velocity": 1,
                    "duration": 0.12474000000000274
                },
                {
                    "name": "C5",
                    "midi": 72,
                    "time": 174.13704000000158,
                    "velocity": 1,
                    "duration": 0.12474000000000274
                },
                {
                    "name": "C5",
                    "midi": 72,
                    "time": 174.26178000000158,
                    "velocity": 1,
                    "duration": 0.12474000000000274
                },
                {
                    "name": "D5",
                    "midi": 74,
                    "time": 174.38652000000158,
                    "velocity": 1,
                    "duration": 0.12474000000000274
                },
                {
                    "name": "D5",
                    "midi": 74,
                    "time": 174.51126000000158,
                    "velocity": 1,
                    "duration": 0.12474000000000274
                },
                {
                    "name": "C5",
                    "midi": 72,
                    "time": 174.6360000000016,
                    "velocity": 1,
                    "duration": 0.12474000000000274
                },
                {
                    "name": "C5",
                    "midi": 72,
                    "time": 174.7607400000016,
                    "velocity": 1,
                    "duration": 0.12474000000000274
                },
                {
                    "name": "A4",
                    "midi": 69,
                    "time": 174.8854800000016,
                    "velocity": 1,
                    "duration": 0.12474000000000274
                },
                {
                    "name": "A4",
                    "midi": 69,
                    "time": 175.0102200000016,
                    "velocity": 1,
                    "duration": 0.12474000000000274
                },
                {
                    "name": "F4",
                    "midi": 65,
                    "time": 175.1349600000016,
                    "velocity": 1,
                    "duration": 0.12474000000000274
                },
                {
                    "name": "F4",
                    "midi": 65,
                    "time": 175.2597000000016,
                    "velocity": 1,
                    "duration": 0.12474000000000274
                },
                {
                    "name": "A4",
                    "midi": 69,
                    "time": 175.3844400000016,
                    "velocity": 1,
                    "duration": 0.12474000000000274
                },
                {
                    "name": "A4",
                    "midi": 69,
                    "time": 175.5091800000016,
                    "velocity": 1,
                    "duration": 0.12474000000000274
                },
                {
                    "name": "F4",
                    "midi": 65,
                    "time": 175.6339200000016,
                    "velocity": 1,
                    "duration": 0.12474000000000274
                },
                {
                    "name": "F4",
                    "midi": 65,
                    "time": 175.7586600000016,
                    "velocity": 1,
                    "duration": 0.12474000000000274
                },
                {
                    "name": "D4",
                    "midi": 62,
                    "time": 175.88340000000161,
                    "velocity": 1,
                    "duration": 0.12474000000000274
                },
                {
                    "name": "D4",
                    "midi": 62,
                    "time": 176.00814000000162,
                    "velocity": 1,
                    "duration": 0.12474000000000274
                },
                {
                    "name": "C4",
                    "midi": 60,
                    "time": 176.13288000000162,
                    "velocity": 1,
                    "duration": 0.12474000000000274
                },
                {
                    "name": "C4",
                    "midi": 60,
                    "time": 176.25762000000162,
                    "velocity": 1,
                    "duration": 0.12474000000000274
                },
                {
                    "name": "D4",
                    "midi": 62,
                    "time": 176.38236000000163,
                    "velocity": 1,
                    "duration": 0.12474000000000274
                },
                {
                    "name": "D4",
                    "midi": 62,
                    "time": 176.50710000000163,
                    "velocity": 1,
                    "duration": 0.12474000000000274
                },
                {
                    "name": "C4",
                    "midi": 60,
                    "time": 176.63184000000163,
                    "velocity": 1,
                    "duration": 0.12474000000000274
                },
                {
                    "name": "C4",
                    "midi": 60,
                    "time": 176.75658000000163,
                    "velocity": 1,
                    "duration": 0.12474000000000274
                },
                {
                    "name": "D4",
                    "midi": 62,
                    "time": 176.88132000000164,
                    "velocity": 1,
                    "duration": 0.12474000000000274
                },
                {
                    "name": "D4",
                    "midi": 62,
                    "time": 177.00606000000164,
                    "velocity": 1,
                    "duration": 0.12474000000000274
                },
                {
                    "name": "C4",
                    "midi": 60,
                    "time": 177.13080000000164,
                    "velocity": 1,
                    "duration": 0.12474000000000274
                },
                {
                    "name": "C4",
                    "midi": 60,
                    "time": 177.25554000000164,
                    "velocity": 1,
                    "duration": 0.12474000000000274
                },
                {
                    "name": "A3",
                    "midi": 57,
                    "time": 177.38028000000165,
                    "velocity": 1,
                    "duration": 0.12474000000000274
                },
                {
                    "name": "A3",
                    "midi": 57,
                    "time": 177.50502000000165,
                    "velocity": 1,
                    "duration": 0.12474000000000274
                },
                {
                    "name": "C4",
                    "midi": 60,
                    "time": 177.62976000000165,
                    "velocity": 1,
                    "duration": 0.12474000000000274
                },
                {
                    "name": "C4",
                    "midi": 60,
                    "time": 177.75450000000166,
                    "velocity": 1,
                    "duration": 0.12474000000000274
                },
                {
                    "name": "D4",
                    "midi": 62,
                    "time": 177.87924000000166,
                    "velocity": 1,
                    "duration": 0.12474000000000274
                },
                {
                    "name": "D4",
                    "midi": 62,
                    "time": 178.00398000000166,
                    "velocity": 1,
                    "duration": 0.12474000000000274
                },
                {
                    "name": "C4",
                    "midi": 60,
                    "time": 178.12872000000166,
                    "velocity": 1,
                    "duration": 0.12474000000000274
                },
                {
                    "name": "C4",
                    "midi": 60,
                    "time": 178.25346000000167,
                    "velocity": 1,
                    "duration": 0.12474000000000274
                },
                {
                    "name": "A3",
                    "midi": 57,
                    "time": 178.37820000000167,
                    "velocity": 1,
                    "duration": 0.12474000000000274
                },
                {
                    "name": "A3",
                    "midi": 57,
                    "time": 178.50294000000167,
                    "velocity": 1,
                    "duration": 0.12474000000000274
                },
                {
                    "name": "C4",
                    "midi": 60,
                    "time": 178.62768000000167,
                    "velocity": 1,
                    "duration": 0.12474000000000274
                },
                {
                    "name": "C4",
                    "midi": 60,
                    "time": 178.75242000000168,
                    "velocity": 1,
                    "duration": 0.12474000000000274
                },
                {
                    "name": "D4",
                    "midi": 62,
                    "time": 178.87716000000168,
                    "velocity": 1,
                    "duration": 0.12474000000000274
                },
                {
                    "name": "D4",
                    "midi": 62,
                    "time": 179.00190000000168,
                    "velocity": 1,
                    "duration": 0.12474000000000274
                },
                {
                    "name": "C4",
                    "midi": 60,
                    "time": 179.1266400000017,
                    "velocity": 1,
                    "duration": 0.12474000000000274
                },
                {
                    "name": "C4",
                    "midi": 60,
                    "time": 179.2513800000017,
                    "velocity": 1,
                    "duration": 0.12474000000000274
                },
                {
                    "name": "A3",
                    "midi": 57,
                    "time": 179.3761200000017,
                    "velocity": 1,
                    "duration": 0.12474000000000274
                },
                {
                    "name": "A3",
                    "midi": 57,
                    "time": 179.5008600000017,
                    "velocity": 1,
                    "duration": 0.12474000000000274
                },
                {
                    "name": "G#3",
                    "midi": 56,
                    "time": 179.6256000000017,
                    "velocity": 1,
                    "duration": 0.12474000000000274
                },
                {
                    "name": "A#3",
                    "midi": 58,
                    "time": 179.7503400000017,
                    "velocity": 1,
                    "duration": 0.12474000000000274
                },
                {
                    "name": "B3",
                    "midi": 59,
                    "time": 179.8750800000017,
                    "velocity": 1,
                    "duration": 0.12474000000000274
                },
                {
                    "name": "C#4",
                    "midi": 61,
                    "time": 179.9998200000017,
                    "velocity": 1,
                    "duration": 0.12474000000000274
                },
                {
                    "name": "B3",
                    "midi": 59,
                    "time": 180.1245600000017,
                    "velocity": 1,
                    "duration": 0.12474000000000274
                },
                {
                    "name": "C#4",
                    "midi": 61,
                    "time": 180.2493000000017,
                    "velocity": 1,
                    "duration": 0.12474000000000274
                },
                {
                    "name": "D#4",
                    "midi": 63,
                    "time": 180.3740400000017,
                    "velocity": 1,
                    "duration": 0.12474000000000274
                },
                {
                    "name": "F4",
                    "midi": 65,
                    "time": 180.49878000000172,
                    "velocity": 1,
                    "duration": 0.12474000000000274
                },
                {
                    "name": "D#4",
                    "midi": 63,
                    "time": 180.62352000000172,
                    "velocity": 1,
                    "duration": 0.12474000000000274
                },
                {
                    "name": "F4",
                    "midi": 65,
                    "time": 180.74826000000172,
                    "velocity": 1,
                    "duration": 0.12474000000000274
                },
                {
                    "name": "G4",
                    "midi": 67,
                    "time": 180.87300000000172,
                    "velocity": 1,
                    "duration": 0.12474000000000274
                },
                {
                    "name": "G#4",
                    "midi": 68,
                    "time": 180.99774000000173,
                    "velocity": 1,
                    "duration": 0.12474000000000274
                },
                {
                    "name": "G4",
                    "midi": 67,
                    "time": 181.12248000000173,
                    "velocity": 1,
                    "duration": 0.12474000000000274
                },
                {
                    "name": "G#4",
                    "midi": 68,
                    "time": 181.24722000000173,
                    "velocity": 1,
                    "duration": 0.12474000000000274
                },
                {
                    "name": "A#4",
                    "midi": 70,
                    "time": 181.37196000000174,
                    "velocity": 1,
                    "duration": 0.12474000000000274
                },
                {
                    "name": "B4",
                    "midi": 71,
                    "time": 181.49670000000174,
                    "velocity": 1,
                    "duration": 0.12474000000000274
                },
                {
                    "name": "G4",
                    "midi": 67,
                    "time": 181.62144000000174,
                    "velocity": 1,
                    "duration": 0.12474000000000274
                },
                {
                    "name": "G4",
                    "midi": 67,
                    "time": 181.74618000000174,
                    "velocity": 1,
                    "duration": 0.12474000000000274
                },
                {
                    "name": "G#4",
                    "midi": 68,
                    "time": 181.87092000000175,
                    "velocity": 1,
                    "duration": 0.12474000000000274
                },
                {
                    "name": "G#4",
                    "midi": 68,
                    "time": 181.99566000000175,
                    "velocity": 1,
                    "duration": 0.12474000000000274
                },
                {
                    "name": "A#4",
                    "midi": 70,
                    "time": 182.12040000000175,
                    "velocity": 1,
                    "duration": 0.12474000000000274
                },
                {
                    "name": "A#4",
                    "midi": 70,
                    "time": 182.24514000000175,
                    "velocity": 1,
                    "duration": 0.12474000000000274
                },
                {
                    "name": "B4",
                    "midi": 71,
                    "time": 182.36988000000176,
                    "velocity": 1,
                    "duration": 0.12474000000000274
                },
                {
                    "name": "B4",
                    "midi": 71,
                    "time": 182.49462000000176,
                    "velocity": 1,
                    "duration": 0.12474000000000274
                },
                {
                    "name": "A#4",
                    "midi": 70,
                    "time": 182.61936000000176,
                    "velocity": 1,
                    "duration": 0.12474000000000274
                },
                {
                    "name": "A#4",
                    "midi": 70,
                    "time": 182.74410000000177,
                    "velocity": 1,
                    "duration": 0.12474000000000274
                },
                {
                    "name": "B4",
                    "midi": 71,
                    "time": 182.86884000000177,
                    "velocity": 1,
                    "duration": 0.12474000000000274
                },
                {
                    "name": "B4",
                    "midi": 71,
                    "time": 182.99358000000177,
                    "velocity": 1,
                    "duration": 0.12474000000000274
                },
                {
                    "name": "C#5",
                    "midi": 73,
                    "time": 183.11832000000177,
                    "velocity": 1,
                    "duration": 0.12474000000000274
                },
                {
                    "name": "C#5",
                    "midi": 73,
                    "time": 183.24306000000178,
                    "velocity": 1,
                    "duration": 0.12474000000000274
                },
                {
                    "name": "D#5",
                    "midi": 75,
                    "time": 183.36780000000178,
                    "velocity": 1,
                    "duration": 0.12474000000000274
                },
                {
                    "name": "D#5",
                    "midi": 75,
                    "time": 183.49254000000178,
                    "velocity": 1,
                    "duration": 0.12474000000000274
                },
                {
                    "name": "F5",
                    "midi": 77,
                    "time": 183.61728000000178,
                    "velocity": 1,
                    "duration": 0.12474000000000274
                },
                {
                    "name": "F5",
                    "midi": 77,
                    "time": 183.7420200000018,
                    "velocity": 1,
                    "duration": 0.12474000000000274
                },
                {
                    "name": "D#5",
                    "midi": 75,
                    "time": 183.8667600000018,
                    "velocity": 1,
                    "duration": 0.12474000000000274
                },
                {
                    "name": "D#5",
                    "midi": 75,
                    "time": 183.9915000000018,
                    "velocity": 1,
                    "duration": 0.12474000000000274
                },
                {
                    "name": "B4",
                    "midi": 71,
                    "time": 184.1162400000018,
                    "velocity": 1,
                    "duration": 0.12474000000000274
                },
                {
                    "name": "B4",
                    "midi": 71,
                    "time": 184.2409800000018,
                    "velocity": 1,
                    "duration": 0.12474000000000274
                },
                {
                    "name": "D#5",
                    "midi": 75,
                    "time": 184.3657200000018,
                    "velocity": 1,
                    "duration": 0.12474000000000274
                },
                {
                    "name": "D#5",
                    "midi": 75,
                    "time": 184.4904600000018,
                    "velocity": 1,
                    "duration": 0.12474000000000274
                },
                {
                    "name": "F5",
                    "midi": 77,
                    "time": 184.6152000000018,
                    "velocity": 1,
                    "duration": 0.12474000000000274
                },
                {
                    "name": "F5",
                    "midi": 77,
                    "time": 184.7399400000018,
                    "velocity": 1,
                    "duration": 0.12474000000000274
                },
                {
                    "name": "D#5",
                    "midi": 75,
                    "time": 184.8646800000018,
                    "velocity": 1,
                    "duration": 0.12474000000000274
                },
                {
                    "name": "D#5",
                    "midi": 75,
                    "time": 184.98942000000181,
                    "velocity": 1,
                    "duration": 0.12474000000000274
                },
                {
                    "name": "B4",
                    "midi": 71,
                    "time": 185.11416000000182,
                    "velocity": 1,
                    "duration": 0.12474000000000274
                },
                {
                    "name": "B4",
                    "midi": 71,
                    "time": 185.23890000000182,
                    "velocity": 1,
                    "duration": 0.12474000000000274
                },
                {
                    "name": "D#5",
                    "midi": 75,
                    "time": 185.36364000000182,
                    "velocity": 1,
                    "duration": 0.12474000000000274
                },
                {
                    "name": "D#5",
                    "midi": 75,
                    "time": 185.48838000000183,
                    "velocity": 1,
                    "duration": 0.12474000000000274
                },
                {
                    "name": "F5",
                    "midi": 77,
                    "time": 185.61312000000183,
                    "velocity": 1,
                    "duration": 0.12474000000000274
                },
                {
                    "name": "F5",
                    "midi": 77,
                    "time": 185.73786000000183,
                    "velocity": 1,
                    "duration": 0.12474000000000274
                },
                {
                    "name": "D#5",
                    "midi": 75,
                    "time": 185.86260000000183,
                    "velocity": 1,
                    "duration": 0.12474000000000274
                },
                {
                    "name": "D#5",
                    "midi": 75,
                    "time": 185.98734000000184,
                    "velocity": 1,
                    "duration": 0.12474000000000274
                },
                {
                    "name": "B4",
                    "midi": 71,
                    "time": 186.11208000000184,
                    "velocity": 1,
                    "duration": 0.12474000000000274
                },
                {
                    "name": "B4",
                    "midi": 71,
                    "time": 186.23682000000184,
                    "velocity": 1,
                    "duration": 0.12474000000000274
                },
                {
                    "name": "D#5",
                    "midi": 75,
                    "time": 186.36156000000184,
                    "velocity": 1,
                    "duration": 0.12474000000000274
                },
                {
                    "name": "D#5",
                    "midi": 75,
                    "time": 186.48630000000185,
                    "velocity": 1,
                    "duration": 0.12474000000000274
                },
                {
                    "name": "F5",
                    "midi": 77,
                    "time": 186.61104000000185,
                    "velocity": 1,
                    "duration": 0.12474000000000274
                },
                {
                    "name": "F5",
                    "midi": 77,
                    "time": 186.73578000000185,
                    "velocity": 1,
                    "duration": 0.12474000000000274
                },
                {
                    "name": "D#5",
                    "midi": 75,
                    "time": 186.86052000000186,
                    "velocity": 1,
                    "duration": 0.12474000000000274
                },
                {
                    "name": "D#5",
                    "midi": 75,
                    "time": 186.98526000000186,
                    "velocity": 1,
                    "duration": 0.12474000000000274
                },
                {
                    "name": "B4",
                    "midi": 71,
                    "time": 187.11000000000186,
                    "velocity": 1,
                    "duration": 0.12474000000000274
                },
                {
                    "name": "B4",
                    "midi": 71,
                    "time": 187.23474000000186,
                    "velocity": 1,
                    "duration": 0.12474000000000274
                },
                {
                    "name": "D#5",
                    "midi": 75,
                    "time": 187.35948000000187,
                    "velocity": 1,
                    "duration": 0.12474000000000274
                },
                {
                    "name": "D#5",
                    "midi": 75,
                    "time": 187.48422000000187,
                    "velocity": 1,
                    "duration": 0.12474000000000274
                },
                {
                    "name": "F5",
                    "midi": 77,
                    "time": 187.60896000000187,
                    "velocity": 1,
                    "duration": 0.12474000000000274
                },
                {
                    "name": "F5",
                    "midi": 77,
                    "time": 187.73370000000187,
                    "velocity": 1,
                    "duration": 0.12474000000000274
                },
                {
                    "name": "D#5",
                    "midi": 75,
                    "time": 187.85844000000188,
                    "velocity": 1,
                    "duration": 0.12474000000000274
                },
                {
                    "name": "D#5",
                    "midi": 75,
                    "time": 187.98318000000188,
                    "velocity": 1,
                    "duration": 0.12474000000000274
                },
                {
                    "name": "B4",
                    "midi": 71,
                    "time": 188.10792000000188,
                    "velocity": 1,
                    "duration": 0.12474000000000274
                },
                {
                    "name": "B4",
                    "midi": 71,
                    "time": 188.23266000000189,
                    "velocity": 1,
                    "duration": 0.12474000000000274
                },
                {
                    "name": "D#5",
                    "midi": 75,
                    "time": 188.3574000000019,
                    "velocity": 1,
                    "duration": 0.12474000000000274
                },
                {
                    "name": "D#5",
                    "midi": 75,
                    "time": 188.4821400000019,
                    "velocity": 1,
                    "duration": 0.12474000000000274
                },
                {
                    "name": "F5",
                    "midi": 77,
                    "time": 188.6068800000019,
                    "velocity": 1,
                    "duration": 0.12474000000000274
                },
                {
                    "name": "F5",
                    "midi": 77,
                    "time": 188.7316200000019,
                    "velocity": 1,
                    "duration": 0.12474000000000274
                },
                {
                    "name": "D#5",
                    "midi": 75,
                    "time": 188.8563600000019,
                    "velocity": 1,
                    "duration": 0.12474000000000274
                },
                {
                    "name": "D#5",
                    "midi": 75,
                    "time": 188.9811000000019,
                    "velocity": 1,
                    "duration": 0.12474000000000274
                },
                {
                    "name": "B4",
                    "midi": 71,
                    "time": 189.1058400000019,
                    "velocity": 1,
                    "duration": 0.12474000000000274
                },
                {
                    "name": "B4",
                    "midi": 71,
                    "time": 189.2305800000019,
                    "velocity": 1,
                    "duration": 0.12474000000000274
                },
                {
                    "name": "D#5",
                    "midi": 75,
                    "time": 189.3553200000019,
                    "velocity": 1,
                    "duration": 0.12474000000000274
                },
                {
                    "name": "D#5",
                    "midi": 75,
                    "time": 189.4800600000019,
                    "velocity": 1,
                    "duration": 0.12474000000000274
                },
                {
                    "name": "F5",
                    "midi": 77,
                    "time": 189.60480000000192,
                    "velocity": 1,
                    "duration": 0.12474000000000274
                },
                {
                    "name": "F5",
                    "midi": 77,
                    "time": 189.72954000000192,
                    "velocity": 1,
                    "duration": 0.12474000000000274
                },
                {
                    "name": "D#5",
                    "midi": 75,
                    "time": 189.85428000000192,
                    "velocity": 1,
                    "duration": 0.12474000000000274
                },
                {
                    "name": "D#5",
                    "midi": 75,
                    "time": 189.97902000000192,
                    "velocity": 1,
                    "duration": 0.12474000000000274
                },
                {
                    "name": "B4",
                    "midi": 71,
                    "time": 190.10376000000193,
                    "velocity": 1,
                    "duration": 0.12474000000000274
                },
                {
                    "name": "B4",
                    "midi": 71,
                    "time": 190.22850000000193,
                    "velocity": 1,
                    "duration": 0.12474000000000274
                },
                {
                    "name": "G#4",
                    "midi": 68,
                    "time": 190.35324000000193,
                    "velocity": 1,
                    "duration": 0.12474000000000274
                },
                {
                    "name": "G#4",
                    "midi": 68,
                    "time": 190.47798000000193,
                    "velocity": 1,
                    "duration": 0.12474000000000274
                },
                {
                    "name": "F4",
                    "midi": 65,
                    "time": 190.60272000000194,
                    "velocity": 1,
                    "duration": 0.12474000000000274
                },
                {
                    "name": "F4",
                    "midi": 65,
                    "time": 190.72746000000194,
                    "velocity": 1,
                    "duration": 0.12474000000000274
                },
                {
                    "name": "G#4",
                    "midi": 68,
                    "time": 190.85220000000194,
                    "velocity": 1,
                    "duration": 0.12474000000000274
                },
                {
                    "name": "G#4",
                    "midi": 68,
                    "time": 190.97694000000195,
                    "velocity": 1,
                    "duration": 0.12474000000000274
                },
                {
                    "name": "F4",
                    "midi": 65,
                    "time": 191.10168000000195,
                    "velocity": 1,
                    "duration": 0.12474000000000274
                },
                {
                    "name": "F4",
                    "midi": 65,
                    "time": 191.22642000000195,
                    "velocity": 1,
                    "duration": 0.12474000000000274
                },
                {
                    "name": "D#4",
                    "midi": 63,
                    "time": 191.35116000000195,
                    "velocity": 1,
                    "duration": 0.12474000000000274
                },
                {
                    "name": "D#4",
                    "midi": 63,
                    "time": 191.47590000000196,
                    "velocity": 1,
                    "duration": 0.12474000000000274
                },
                {
                    "name": "D#4",
                    "midi": 63,
                    "time": 191.60064000000196,
                    "velocity": 1,
                    "duration": 0.12474000000000274
                },
                {
                    "name": "D#4",
                    "midi": 63,
                    "time": 191.72538000000196,
                    "velocity": 1,
                    "duration": 0.12474000000000274
                },
                {
                    "name": "F4",
                    "midi": 65,
                    "time": 191.85012000000197,
                    "velocity": 1,
                    "duration": 0.12474000000000274
                },
                {
                    "name": "F4",
                    "midi": 65,
                    "time": 191.97486000000197,
                    "velocity": 1,
                    "duration": 0.12474000000000274
                },
                {
                    "name": "D#4",
                    "midi": 63,
                    "time": 192.09960000000197,
                    "velocity": 1,
                    "duration": 0.12474000000000274
                },
                {
                    "name": "D#4",
                    "midi": 63,
                    "time": 192.22434000000197,
                    "velocity": 1,
                    "duration": 0.12474000000000274
                },
                {
                    "name": "B3",
                    "midi": 59,
                    "time": 192.34908000000198,
                    "velocity": 1,
                    "duration": 0.12474000000000274
                },
                {
                    "name": "B3",
                    "midi": 59,
                    "time": 192.47382000000198,
                    "velocity": 1,
                    "duration": 0.12474000000000274
                },
                {
                    "name": "D#4",
                    "midi": 63,
                    "time": 192.59856000000198,
                    "velocity": 1,
                    "duration": 0.12474000000000274
                },
                {
                    "name": "D#4",
                    "midi": 63,
                    "time": 192.72330000000198,
                    "velocity": 1,
                    "duration": 0.12474000000000274
                },
                {
                    "name": "F4",
                    "midi": 65,
                    "time": 192.848040000002,
                    "velocity": 1,
                    "duration": 0.12474000000000274
                },
                {
                    "name": "F4",
                    "midi": 65,
                    "time": 192.972780000002,
                    "velocity": 1,
                    "duration": 0.12474000000000274
                },
                {
                    "name": "D#4",
                    "midi": 63,
                    "time": 193.097520000002,
                    "velocity": 1,
                    "duration": 0.12474000000000274
                },
                {
                    "name": "D#4",
                    "midi": 63,
                    "time": 193.222260000002,
                    "velocity": 1,
                    "duration": 0.12474000000000274
                },
                {
                    "name": "B3",
                    "midi": 59,
                    "time": 193.347000000002,
                    "velocity": 1,
                    "duration": 0.12474000000000274
                },
                {
                    "name": "B3",
                    "midi": 59,
                    "time": 193.471740000002,
                    "velocity": 1,
                    "duration": 0.12474000000000274
                },
                {
                    "name": "A3",
                    "midi": 57,
                    "time": 193.596480000002,
                    "velocity": 1,
                    "duration": 0.12474000000000274
                },
                {
                    "name": "C4",
                    "midi": 60,
                    "time": 193.721220000002,
                    "velocity": 1,
                    "duration": 0.12474000000000274
                },
                {
                    "name": "A3",
                    "midi": 57,
                    "time": 193.845960000002,
                    "velocity": 1,
                    "duration": 0.12474000000000274
                },
                {
                    "name": "C4",
                    "midi": 60,
                    "time": 193.970700000002,
                    "velocity": 1,
                    "duration": 0.12474000000000274
                },
                {
                    "name": "B3",
                    "midi": 59,
                    "time": 194.09544000000201,
                    "velocity": 1,
                    "duration": 0.12474000000000274
                },
                {
                    "name": "D#4",
                    "midi": 63,
                    "time": 194.22018000000202,
                    "velocity": 1,
                    "duration": 0.12474000000000274
                },
                {
                    "name": "B3",
                    "midi": 59,
                    "time": 194.34492000000202,
                    "velocity": 1,
                    "duration": 0.12474000000000274
                },
                {
                    "name": "D#4",
                    "midi": 63,
                    "time": 194.46966000000202,
                    "velocity": 1,
                    "duration": 0.12474000000000274
                },
                {
                    "name": "A3",
                    "midi": 57,
                    "time": 194.59440000000203,
                    "velocity": 1,
                    "duration": 0.12474000000000274
                },
                {
                    "name": "C4",
                    "midi": 60,
                    "time": 194.71914000000203,
                    "velocity": 1,
                    "duration": 0.12474000000000274
                },
                {
                    "name": "A3",
                    "midi": 57,
                    "time": 194.84388000000203,
                    "velocity": 1,
                    "duration": 0.12474000000000274
                },
                {
                    "name": "C4",
                    "midi": 60,
                    "time": 194.96862000000203,
                    "velocity": 1,
                    "duration": 0.12474000000000274
                },
                {
                    "name": "B3",
                    "midi": 59,
                    "time": 195.09336000000204,
                    "velocity": 1,
                    "duration": 0.12474000000000274
                },
                {
                    "name": "D#4",
                    "midi": 63,
                    "time": 195.21810000000204,
                    "velocity": 1,
                    "duration": 0.12474000000000274
                },
                {
                    "name": "B3",
                    "midi": 59,
                    "time": 195.34284000000204,
                    "velocity": 1,
                    "duration": 0.12474000000000274
                },
                {
                    "name": "D#4",
                    "midi": 63,
                    "time": 195.46758000000204,
                    "velocity": 1,
                    "duration": 0.12474000000000274
                },
                {
                    "name": "A3",
                    "midi": 57,
                    "time": 195.59232000000205,
                    "velocity": 1,
                    "duration": 0.12474000000000274
                },
                {
                    "name": "C4",
                    "midi": 60,
                    "time": 195.71706000000205,
                    "velocity": 1,
                    "duration": 0.12474000000000274
                },
                {
                    "name": "A3",
                    "midi": 57,
                    "time": 195.84180000000205,
                    "velocity": 1,
                    "duration": 0.12474000000000274
                },
                {
                    "name": "C4",
                    "midi": 60,
                    "time": 195.96654000000206,
                    "velocity": 1,
                    "duration": 0.12474000000000274
                },
                {
                    "name": "B3",
                    "midi": 59,
                    "time": 196.09128000000206,
                    "velocity": 1,
                    "duration": 0.12474000000000274
                },
                {
                    "name": "D#4",
                    "midi": 63,
                    "time": 196.21602000000206,
                    "velocity": 1,
                    "duration": 0.12474000000000274
                },
                {
                    "name": "B3",
                    "midi": 59,
                    "time": 196.34076000000206,
                    "velocity": 1,
                    "duration": 0.12474000000000274
                },
                {
                    "name": "D#4",
                    "midi": 63,
                    "time": 196.46550000000207,
                    "velocity": 1,
                    "duration": 0.12474000000000274
                },
                {
                    "name": "A3",
                    "midi": 57,
                    "time": 196.59024000000207,
                    "velocity": 1,
                    "duration": 0.12474000000000274
                },
                {
                    "name": "C4",
                    "midi": 60,
                    "time": 196.71498000000207,
                    "velocity": 1,
                    "duration": 0.12474000000000274
                },
                {
                    "name": "A3",
                    "midi": 57,
                    "time": 196.83972000000207,
                    "velocity": 1,
                    "duration": 0.12474000000000274
                },
                {
                    "name": "C4",
                    "midi": 60,
                    "time": 196.96446000000208,
                    "velocity": 1,
                    "duration": 0.12474000000000274
                },
                {
                    "name": "B3",
                    "midi": 59,
                    "time": 197.08920000000208,
                    "velocity": 1,
                    "duration": 0.12474000000000274
                },
                {
                    "name": "D#4",
                    "midi": 63,
                    "time": 197.21394000000208,
                    "velocity": 1,
                    "duration": 0.12474000000000274
                },
                {
                    "name": "B3",
                    "midi": 59,
                    "time": 197.33868000000209,
                    "velocity": 1,
                    "duration": 0.12474000000000274
                },
                {
                    "name": "D#4",
                    "midi": 63,
                    "time": 197.4634200000021,
                    "velocity": 1,
                    "duration": 0.12474000000000274
                },
                {
                    "name": "A3",
                    "midi": 57,
                    "time": 197.5881600000021,
                    "velocity": 1,
                    "duration": 0.12474000000000274
                },
                {
                    "name": "C4",
                    "midi": 60,
                    "time": 197.7129000000021,
                    "velocity": 1,
                    "duration": 0.12474000000000274
                },
                {
                    "name": "A3",
                    "midi": 57,
                    "time": 197.8376400000021,
                    "velocity": 1,
                    "duration": 0.12474000000000274
                },
                {
                    "name": "C4",
                    "midi": 60,
                    "time": 197.9623800000021,
                    "velocity": 1,
                    "duration": 0.12474000000000274
                },
                {
                    "name": "B3",
                    "midi": 59,
                    "time": 198.0871200000021,
                    "velocity": 1,
                    "duration": 0.12474000000000274
                },
                {
                    "name": "D#4",
                    "midi": 63,
                    "time": 198.2118600000021,
                    "velocity": 1,
                    "duration": 0.12474000000000274
                },
                {
                    "name": "B3",
                    "midi": 59,
                    "time": 198.3366000000021,
                    "velocity": 1,
                    "duration": 0.12474000000000274
                },
                {
                    "name": "D#4",
                    "midi": 63,
                    "time": 198.4613400000021,
                    "velocity": 1,
                    "duration": 0.12474000000000274
                },
                {
                    "name": "A3",
                    "midi": 57,
                    "time": 198.5860800000021,
                    "velocity": 1,
                    "duration": 0.12474000000000274
                },
                {
                    "name": "C4",
                    "midi": 60,
                    "time": 198.71082000000212,
                    "velocity": 1,
                    "duration": 0.12474000000000274
                },
                {
                    "name": "A3",
                    "midi": 57,
                    "time": 198.83556000000212,
                    "velocity": 1,
                    "duration": 0.12474000000000274
                },
                {
                    "name": "C4",
                    "midi": 60,
                    "time": 198.96030000000212,
                    "velocity": 1,
                    "duration": 0.12474000000000274
                },
                {
                    "name": "B3",
                    "midi": 59,
                    "time": 199.08504000000212,
                    "velocity": 1,
                    "duration": 0.12474000000000274
                },
                {
                    "name": "D#4",
                    "midi": 63,
                    "time": 199.20978000000213,
                    "velocity": 1,
                    "duration": 0.12474000000000274
                },
                {
                    "name": "B3",
                    "midi": 59,
                    "time": 199.33452000000213,
                    "velocity": 1,
                    "duration": 0.12474000000000274
                },
                {
                    "name": "D#4",
                    "midi": 63,
                    "time": 199.45926000000213,
                    "velocity": 1,
                    "duration": 0.12474000000000274
                },
                {
                    "name": "A3",
                    "midi": 57,
                    "time": 199.58400000000213,
                    "velocity": 1,
                    "duration": 0.12474000000000274
                },
                {
                    "name": "C4",
                    "midi": 60,
                    "time": 199.70874000000214,
                    "velocity": 1,
                    "duration": 0.12474000000000274
                },
                {
                    "name": "A3",
                    "midi": 57,
                    "time": 199.83348000000214,
                    "velocity": 1,
                    "duration": 0.12474000000000274
                },
                {
                    "name": "C4",
                    "midi": 60,
                    "time": 199.95822000000214,
                    "velocity": 1,
                    "duration": 0.12474000000000274
                },
                {
                    "name": "B3",
                    "midi": 59,
                    "time": 200.08296000000215,
                    "velocity": 1,
                    "duration": 0.12474000000000274
                },
                {
                    "name": "D#4",
                    "midi": 63,
                    "time": 200.20770000000215,
                    "velocity": 1,
                    "duration": 0.12474000000000274
                },
                {
                    "name": "B3",
                    "midi": 59,
                    "time": 200.33244000000215,
                    "velocity": 1,
                    "duration": 0.12474000000000274
                },
                {
                    "name": "D#4",
                    "midi": 63,
                    "time": 200.45718000000215,
                    "velocity": 1,
                    "duration": 0.12474000000000274
                },
                {
                    "name": "A3",
                    "midi": 57,
                    "time": 200.58192000000216,
                    "velocity": 1,
                    "duration": 0.12474000000000274
                },
                {
                    "name": "C4",
                    "midi": 60,
                    "time": 200.70666000000216,
                    "velocity": 1,
                    "duration": 0.12474000000000274
                },
                {
                    "name": "A3",
                    "midi": 57,
                    "time": 200.83140000000216,
                    "velocity": 1,
                    "duration": 0.12474000000000274
                },
                {
                    "name": "C4",
                    "midi": 60,
                    "time": 200.95614000000216,
                    "velocity": 1,
                    "duration": 0.12474000000000274
                },
                {
                    "name": "A3",
                    "midi": 57,
                    "time": 201.08088000000217,
                    "velocity": 1,
                    "duration": 0.12474000000000274
                },
                {
                    "name": "C4",
                    "midi": 60,
                    "time": 201.20562000000217,
                    "velocity": 1,
                    "duration": 0.12474000000000274
                },
                {
                    "name": "A3",
                    "midi": 57,
                    "time": 201.33036000000217,
                    "velocity": 1,
                    "duration": 0.12474000000000274
                },
                {
                    "name": "C4",
                    "midi": 60,
                    "time": 201.45510000000218,
                    "velocity": 1,
                    "duration": 0.12474000000000274
                },
                {
                    "name": "B3",
                    "midi": 59,
                    "time": 201.57984000000218,
                    "velocity": 1,
                    "duration": 0.06236999999998716
                },
                {
                    "name": "A3",
                    "midi": 57,
                    "time": 201.64221000000217,
                    "velocity": 1,
                    "duration": 0.06236999999998716
                },
                {
                    "name": "B3",
                    "midi": 59,
                    "time": 201.70458000000215,
                    "velocity": 1,
                    "duration": 0.06236999999998716
                },
                {
                    "name": "A3",
                    "midi": 57,
                    "time": 201.76695000000214,
                    "velocity": 1,
                    "duration": 0.06236999999998716
                },
                {
                    "name": "B3",
                    "midi": 59,
                    "time": 201.82932000000213,
                    "velocity": 1,
                    "duration": 0.06236999999998716
                },
                {
                    "name": "A3",
                    "midi": 57,
                    "time": 201.89169000000211,
                    "velocity": 1,
                    "duration": 0.06236999999998716
                },
                {
                    "name": "B3",
                    "midi": 59,
                    "time": 201.9540600000021,
                    "velocity": 1,
                    "duration": 0.06236999999998716
                },
                {
                    "name": "A3",
                    "midi": 57,
                    "time": 202.0164300000021,
                    "velocity": 1,
                    "duration": 0.06236999999998716
                },
                {
                    "name": "B3",
                    "midi": 59,
                    "time": 202.07880000000208,
                    "velocity": 1,
                    "duration": 0.06236999999998716
                },
                {
                    "name": "A3",
                    "midi": 57,
                    "time": 202.14117000000206,
                    "velocity": 1,
                    "duration": 0.06236999999998716
                },
                {
                    "name": "B3",
                    "midi": 59,
                    "time": 202.20354000000205,
                    "velocity": 1,
                    "duration": 0.06236999999998716
                },
                {
                    "name": "A3",
                    "midi": 57,
                    "time": 202.26591000000204,
                    "velocity": 1,
                    "duration": 0.06236999999998716
                },
                {
                    "name": "B3",
                    "midi": 59,
                    "time": 202.32828000000202,
                    "velocity": 1,
                    "duration": 0.06236999999998716
                },
                {
                    "name": "A3",
                    "midi": 57,
                    "time": 202.390650000002,
                    "velocity": 1,
                    "duration": 0.06236999999998716
                },
                {
                    "name": "B3",
                    "midi": 59,
                    "time": 202.453020000002,
                    "velocity": 1,
                    "duration": 0.06236999999998716
                },
                {
                    "name": "A3",
                    "midi": 57,
                    "time": 202.515390000002,
                    "velocity": 1,
                    "duration": 0.06236999999998716
                },
                {
                    "name": "B3",
                    "midi": 59,
                    "time": 202.57776000000197,
                    "velocity": 1,
                    "duration": 0.06236999999998716
                },
                {
                    "name": "A3",
                    "midi": 57,
                    "time": 202.64013000000196,
                    "velocity": 1,
                    "duration": 0.06236999999998716
                },
                {
                    "name": "B3",
                    "midi": 59,
                    "time": 202.70250000000195,
                    "velocity": 1,
                    "duration": 0.06236999999998716
                },
                {
                    "name": "A3",
                    "midi": 57,
                    "time": 202.76487000000193,
                    "velocity": 1,
                    "duration": 0.06236999999998716
                },
                {
                    "name": "B3",
                    "midi": 59,
                    "time": 202.82724000000192,
                    "velocity": 1,
                    "duration": 0.06236999999998716
                },
                {
                    "name": "A3",
                    "midi": 57,
                    "time": 202.8896100000019,
                    "velocity": 1,
                    "duration": 0.06236999999998716
                },
                {
                    "name": "B3",
                    "midi": 59,
                    "time": 202.9519800000019,
                    "velocity": 1,
                    "duration": 0.06236999999998716
                },
                {
                    "name": "A3",
                    "midi": 57,
                    "time": 203.01435000000188,
                    "velocity": 1,
                    "duration": 0.06236999999998716
                },
                {
                    "name": "B3",
                    "midi": 59,
                    "time": 203.07672000000187,
                    "velocity": 1,
                    "duration": 0.06236999999998716
                },
                {
                    "name": "A3",
                    "midi": 57,
                    "time": 203.13909000000186,
                    "velocity": 1,
                    "duration": 0.06236999999998716
                },
                {
                    "name": "B3",
                    "midi": 59,
                    "time": 203.20146000000184,
                    "velocity": 1,
                    "duration": 0.06236999999998716
                },
                {
                    "name": "A3",
                    "midi": 57,
                    "time": 203.26383000000183,
                    "velocity": 1,
                    "duration": 0.06236999999998716
                },
                {
                    "name": "B3",
                    "midi": 59,
                    "time": 203.32620000000182,
                    "velocity": 1,
                    "duration": 0.06236999999998716
                },
                {
                    "name": "A3",
                    "midi": 57,
                    "time": 203.3885700000018,
                    "velocity": 1,
                    "duration": 0.06236999999998716
                },
                {
                    "name": "B3",
                    "midi": 59,
                    "time": 203.4509400000018,
                    "velocity": 1,
                    "duration": 0.06236999999998716
                },
                {
                    "name": "A3",
                    "midi": 57,
                    "time": 203.51331000000178,
                    "velocity": 1,
                    "duration": 0.06236999999998716
                },
                {
                    "name": "B3",
                    "midi": 59,
                    "time": 203.57568000000177,
                    "velocity": 1,
                    "duration": 0.06236999999998716
                },
                {
                    "name": "A3",
                    "midi": 57,
                    "time": 203.63805000000175,
                    "velocity": 1,
                    "duration": 0.06236999999998716
                },
                {
                    "name": "B3",
                    "midi": 59,
                    "time": 203.70042000000174,
                    "velocity": 1,
                    "duration": 0.06236999999998716
                },
                {
                    "name": "A3",
                    "midi": 57,
                    "time": 203.76279000000173,
                    "velocity": 1,
                    "duration": 0.06236999999998716
                },
                {
                    "name": "B3",
                    "midi": 59,
                    "time": 203.82516000000172,
                    "velocity": 1,
                    "duration": 0.06236999999998716
                },
                {
                    "name": "A3",
                    "midi": 57,
                    "time": 203.8875300000017,
                    "velocity": 1,
                    "duration": 0.06236999999998716
                },
                {
                    "name": "B3",
                    "midi": 59,
                    "time": 203.9499000000017,
                    "velocity": 1,
                    "duration": 0.06236999999998716
                },
                {
                    "name": "A3",
                    "midi": 57,
                    "time": 204.01227000000168,
                    "velocity": 1,
                    "duration": 0.06236999999998716
                },
                {
                    "name": "B3",
                    "midi": 59,
                    "time": 204.07464000000166,
                    "velocity": 1,
                    "duration": 0.06236999999998716
                },
                {
                    "name": "A3",
                    "midi": 57,
                    "time": 204.13701000000165,
                    "velocity": 1,
                    "duration": 0.06236999999998716
                },
                {
                    "name": "B3",
                    "midi": 59,
                    "time": 204.19938000000164,
                    "velocity": 1,
                    "duration": 0.06236999999998716
                },
                {
                    "name": "A3",
                    "midi": 57,
                    "time": 204.26175000000163,
                    "velocity": 1,
                    "duration": 0.06236999999998716
                },
                {
                    "name": "B3",
                    "midi": 59,
                    "time": 204.3241200000016,
                    "velocity": 1,
                    "duration": 0.06236999999998716
                },
                {
                    "name": "A3",
                    "midi": 57,
                    "time": 204.3864900000016,
                    "velocity": 1,
                    "duration": 0.06236999999998716
                },
                {
                    "name": "B3",
                    "midi": 59,
                    "time": 204.4488600000016,
                    "velocity": 1,
                    "duration": 0.06236999999998716
                },
                {
                    "name": "A3",
                    "midi": 57,
                    "time": 204.51123000000158,
                    "velocity": 1,
                    "duration": 0.06236999999998716
                },
                {
                    "name": "B3",
                    "midi": 59,
                    "time": 204.57360000000156,
                    "velocity": 1,
                    "duration": 0.06236999999998716
                },
                {
                    "name": "A3",
                    "midi": 57,
                    "time": 204.63597000000155,
                    "velocity": 1,
                    "duration": 0.06236999999998716
                },
                {
                    "name": "B3",
                    "midi": 59,
                    "time": 204.69834000000154,
                    "velocity": 1,
                    "duration": 0.06236999999998716
                },
                {
                    "name": "A3",
                    "midi": 57,
                    "time": 204.76071000000152,
                    "velocity": 1,
                    "duration": 0.06236999999998716
                },
                {
                    "name": "B3",
                    "midi": 59,
                    "time": 204.8230800000015,
                    "velocity": 1,
                    "duration": 0.06236999999998716
                },
                {
                    "name": "A3",
                    "midi": 57,
                    "time": 204.8854500000015,
                    "velocity": 1,
                    "duration": 0.06236999999998716
                },
                {
                    "name": "B3",
                    "midi": 59,
                    "time": 204.94782000000149,
                    "velocity": 1,
                    "duration": 0.06236999999998716
                },
                {
                    "name": "A3",
                    "midi": 57,
                    "time": 205.01019000000147,
                    "velocity": 1,
                    "duration": 0.06236999999998716
                },
                {
                    "name": "B3",
                    "midi": 59,
                    "time": 205.07256000000146,
                    "velocity": 1,
                    "duration": 0.06236999999998716
                },
                {
                    "name": "A3",
                    "midi": 57,
                    "time": 205.13493000000145,
                    "velocity": 1,
                    "duration": 0.06236999999998716
                },
                {
                    "name": "B3",
                    "midi": 59,
                    "time": 205.19730000000143,
                    "velocity": 1,
                    "duration": 0.06236999999998716
                },
                {
                    "name": "A3",
                    "midi": 57,
                    "time": 205.25967000000142,
                    "velocity": 1,
                    "duration": 0.06236999999998716
                },
                {
                    "name": "B3",
                    "midi": 59,
                    "time": 205.3220400000014,
                    "velocity": 1,
                    "duration": 0.06236999999998716
                },
                {
                    "name": "A3",
                    "midi": 57,
                    "time": 205.3844100000014,
                    "velocity": 1,
                    "duration": 0.06236999999998716
                },
                {
                    "name": "B3",
                    "midi": 59,
                    "time": 205.44678000000138,
                    "velocity": 1,
                    "duration": 0.06236999999998716
                },
                {
                    "name": "A3",
                    "midi": 57,
                    "time": 205.50915000000137,
                    "velocity": 1,
                    "duration": 0.06236999999998716
                },
                {
                    "name": "C4",
                    "midi": 60,
                    "time": 205.57152000000136,
                    "velocity": 1,
                    "duration": 0.06236999999998716
                },
                {
                    "name": "A3",
                    "midi": 57,
                    "time": 205.63389000000134,
                    "velocity": 1,
                    "duration": 0.06236999999998716
                },
                {
                    "name": "C4",
                    "midi": 60,
                    "time": 205.69626000000133,
                    "velocity": 1,
                    "duration": 0.06236999999998716
                },
                {
                    "name": "A3",
                    "midi": 57,
                    "time": 205.75863000000132,
                    "velocity": 1,
                    "duration": 0.06236999999998716
                },
                {
                    "name": "C4",
                    "midi": 60,
                    "time": 205.8210000000013,
                    "velocity": 1,
                    "duration": 0.06236999999998716
                },
                {
                    "name": "A3",
                    "midi": 57,
                    "time": 205.8833700000013,
                    "velocity": 1,
                    "duration": 0.06236999999998716
                },
                {
                    "name": "C4",
                    "midi": 60,
                    "time": 205.94574000000128,
                    "velocity": 1,
                    "duration": 0.06236999999998716
                },
                {
                    "name": "A3",
                    "midi": 57,
                    "time": 206.00811000000127,
                    "velocity": 1,
                    "duration": 0.06236999999998716
                },
                {
                    "name": "C4",
                    "midi": 60,
                    "time": 206.07048000000125,
                    "velocity": 1,
                    "duration": 0.06236999999998716
                },
                {
                    "name": "A3",
                    "midi": 57,
                    "time": 206.13285000000124,
                    "velocity": 1,
                    "duration": 0.06236999999998716
                },
                {
                    "name": "C4",
                    "midi": 60,
                    "time": 206.19522000000123,
                    "velocity": 1,
                    "duration": 0.06236999999998716
                },
                {
                    "name": "A3",
                    "midi": 57,
                    "time": 206.25759000000122,
                    "velocity": 1,
                    "duration": 0.06236999999998716
                },
                {
                    "name": "C4",
                    "midi": 60,
                    "time": 206.3199600000012,
                    "velocity": 1,
                    "duration": 0.06236999999998716
                },
                {
                    "name": "A3",
                    "midi": 57,
                    "time": 206.3823300000012,
                    "velocity": 1,
                    "duration": 0.06236999999998716
                },
                {
                    "name": "C4",
                    "midi": 60,
                    "time": 206.44470000000118,
                    "velocity": 1,
                    "duration": 0.06236999999998716
                },
                {
                    "name": "A3",
                    "midi": 57,
                    "time": 206.50707000000116,
                    "velocity": 1,
                    "duration": 0.06236999999998716
                },
                {
                    "name": "C#4",
                    "midi": 61,
                    "time": 206.56944000000115,
                    "velocity": 1,
                    "duration": 0.06236999999998716
                },
                {
                    "name": "A3",
                    "midi": 57,
                    "time": 206.63181000000114,
                    "velocity": 1,
                    "duration": 0.06236999999998716
                },
                {
                    "name": "C#4",
                    "midi": 61,
                    "time": 206.69418000000113,
                    "velocity": 1,
                    "duration": 0.06236999999998716
                },
                {
                    "name": "A3",
                    "midi": 57,
                    "time": 206.7565500000011,
                    "velocity": 1,
                    "duration": 0.06236999999998716
                },
                {
                    "name": "C#4",
                    "midi": 61,
                    "time": 206.8189200000011,
                    "velocity": 1,
                    "duration": 0.06236999999998716
                },
                {
                    "name": "A3",
                    "midi": 57,
                    "time": 206.8812900000011,
                    "velocity": 1,
                    "duration": 0.06236999999998716
                },
                {
                    "name": "C#4",
                    "midi": 61,
                    "time": 206.94366000000107,
                    "velocity": 1,
                    "duration": 0.06236999999998716
                },
                {
                    "name": "A3",
                    "midi": 57,
                    "time": 207.00603000000106,
                    "velocity": 1,
                    "duration": 0.06236999999998716
                },
                {
                    "name": "C#4",
                    "midi": 61,
                    "time": 207.06840000000105,
                    "velocity": 1,
                    "duration": 0.06236999999998716
                },
                {
                    "name": "A3",
                    "midi": 57,
                    "time": 207.13077000000104,
                    "velocity": 1,
                    "duration": 0.06236999999998716
                },
                {
                    "name": "C#4",
                    "midi": 61,
                    "time": 207.19314000000102,
                    "velocity": 1,
                    "duration": 0.06236999999998716
                },
                {
                    "name": "A3",
                    "midi": 57,
                    "time": 207.255510000001,
                    "velocity": 1,
                    "duration": 0.06236999999998716
                },
                {
                    "name": "C#4",
                    "midi": 61,
                    "time": 207.317880000001,
                    "velocity": 1,
                    "duration": 0.06236999999998716
                },
                {
                    "name": "A3",
                    "midi": 57,
                    "time": 207.38025000000098,
                    "velocity": 1,
                    "duration": 0.06236999999998716
                },
                {
                    "name": "C#4",
                    "midi": 61,
                    "time": 207.44262000000097,
                    "velocity": 1,
                    "duration": 0.06236999999998716
                },
                {
                    "name": "A3",
                    "midi": 57,
                    "time": 207.50499000000096,
                    "velocity": 1,
                    "duration": 0.06236999999998716
                },
                {
                    "name": "D4",
                    "midi": 62,
                    "time": 207.56736000000095,
                    "velocity": 1,
                    "duration": 0.06236999999998716
                },
                {
                    "name": "A3",
                    "midi": 57,
                    "time": 207.62973000000093,
                    "velocity": 1,
                    "duration": 0.06236999999998716
                },
                {
                    "name": "D4",
                    "midi": 62,
                    "time": 207.69210000000092,
                    "velocity": 1,
                    "duration": 0.06236999999998716
                },
                {
                    "name": "A3",
                    "midi": 57,
                    "time": 207.7544700000009,
                    "velocity": 1,
                    "duration": 0.06236999999998716
                },
                {
                    "name": "D4",
                    "midi": 62,
                    "time": 207.8168400000009,
                    "velocity": 1,
                    "duration": 0.06236999999998716
                },
                {
                    "name": "A3",
                    "midi": 57,
                    "time": 207.87921000000088,
                    "velocity": 1,
                    "duration": 0.06236999999998716
                },
                {
                    "name": "D4",
                    "midi": 62,
                    "time": 207.94158000000087,
                    "velocity": 1,
                    "duration": 0.06236999999998716
                },
                {
                    "name": "A3",
                    "midi": 57,
                    "time": 208.00395000000086,
                    "velocity": 1,
                    "duration": 0.06236999999998716
                },
                {
                    "name": "C#4",
                    "midi": 61,
                    "time": 208.06632000000084,
                    "velocity": 1,
                    "duration": 0.06236999999998716
                },
                {
                    "name": "A3",
                    "midi": 57,
                    "time": 208.12869000000083,
                    "velocity": 1,
                    "duration": 0.06236999999998716
                },
                {
                    "name": "C#4",
                    "midi": 61,
                    "time": 208.19106000000082,
                    "velocity": 1,
                    "duration": 0.06236999999998716
                },
                {
                    "name": "A3",
                    "midi": 57,
                    "time": 208.2534300000008,
                    "velocity": 1,
                    "duration": 0.06236999999998716
                },
                {
                    "name": "C#4",
                    "midi": 61,
                    "time": 208.3158000000008,
                    "velocity": 1,
                    "duration": 0.06236999999998716
                },
                {
                    "name": "A3",
                    "midi": 57,
                    "time": 208.37817000000078,
                    "velocity": 1,
                    "duration": 0.06236999999998716
                },
                {
                    "name": "C#4",
                    "midi": 61,
                    "time": 208.44054000000077,
                    "velocity": 1,
                    "duration": 0.06236999999998716
                },
                {
                    "name": "A3",
                    "midi": 57,
                    "time": 208.50291000000075,
                    "velocity": 1,
                    "duration": 0.06236999999998716
                },
                {
                    "name": "C4",
                    "midi": 60,
                    "time": 208.56528000000074,
                    "velocity": 1,
                    "duration": 0.06236999999998716
                },
                {
                    "name": "A3",
                    "midi": 57,
                    "time": 208.62765000000073,
                    "velocity": 1,
                    "duration": 0.06236999999998716
                },
                {
                    "name": "C4",
                    "midi": 60,
                    "time": 208.69002000000071,
                    "velocity": 1,
                    "duration": 0.06236999999998716
                },
                {
                    "name": "A3",
                    "midi": 57,
                    "time": 208.7523900000007,
                    "velocity": 1,
                    "duration": 0.06236999999998716
                },
                {
                    "name": "C4",
                    "midi": 60,
                    "time": 208.8147600000007,
                    "velocity": 1,
                    "duration": 0.06236999999998716
                },
                {
                    "name": "A3",
                    "midi": 57,
                    "time": 208.87713000000068,
                    "velocity": 1,
                    "duration": 0.06236999999998716
                },
                {
                    "name": "C4",
                    "midi": 60,
                    "time": 208.93950000000066,
                    "velocity": 1,
                    "duration": 0.06236999999998716
                },
                {
                    "name": "A3",
                    "midi": 57,
                    "time": 209.00187000000065,
                    "velocity": 1,
                    "duration": 0.06236999999998716
                },
                {
                    "name": "B3",
                    "midi": 59,
                    "time": 209.06424000000064,
                    "velocity": 1,
                    "duration": 0.06236999999998716
                },
                {
                    "name": "A3",
                    "midi": 57,
                    "time": 209.12661000000062,
                    "velocity": 1,
                    "duration": 0.06236999999998716
                },
                {
                    "name": "B3",
                    "midi": 59,
                    "time": 209.1889800000006,
                    "velocity": 1,
                    "duration": 0.06236999999998716
                },
                {
                    "name": "A3",
                    "midi": 57,
                    "time": 209.2513500000006,
                    "velocity": 1,
                    "duration": 0.06236999999998716
                },
                {
                    "name": "B3",
                    "midi": 59,
                    "time": 209.3137200000006,
                    "velocity": 1,
                    "duration": 0.06236999999998716
                },
                {
                    "name": "A3",
                    "midi": 57,
                    "time": 209.37609000000057,
                    "velocity": 1,
                    "duration": 0.06236999999998716
                },
                {
                    "name": "B3",
                    "midi": 59,
                    "time": 209.43846000000056,
                    "velocity": 1,
                    "duration": 0.06236999999998716
                },
                {
                    "name": "A3",
                    "midi": 57,
                    "time": 209.50083000000055,
                    "velocity": 1,
                    "duration": 0.06236999999998716
                },
                {
                    "name": "B3",
                    "midi": 59,
                    "time": 209.56320000000053,
                    "velocity": 1,
                    "duration": 0.06236999999998716
                },
                {
                    "name": "A3",
                    "midi": 57,
                    "time": 209.62557000000052,
                    "velocity": 1,
                    "duration": 0.06236999999998716
                },
                {
                    "name": "B3",
                    "midi": 59,
                    "time": 209.6879400000005,
                    "velocity": 1,
                    "duration": 0.06236999999998716
                },
                {
                    "name": "A3",
                    "midi": 57,
                    "time": 209.7503100000005,
                    "velocity": 1,
                    "duration": 0.06236999999998716
                },
                {
                    "name": "B3",
                    "midi": 59,
                    "time": 209.81268000000048,
                    "velocity": 1,
                    "duration": 0.06236999999998716
                },
                {
                    "name": "A3",
                    "midi": 57,
                    "time": 209.87505000000047,
                    "velocity": 1,
                    "duration": 0.06236999999998716
                },
                {
                    "name": "B3",
                    "midi": 59,
                    "time": 209.93742000000046,
                    "velocity": 1,
                    "duration": 0.06236999999998716
                },
                {
                    "name": "A3",
                    "midi": 57,
                    "time": 209.99979000000044,
                    "velocity": 1,
                    "duration": 0.06236999999998716
                },
                {
                    "name": "B3",
                    "midi": 59,
                    "time": 210.06216000000043,
                    "velocity": 1,
                    "duration": 0.06236999999998716
                },
                {
                    "name": "A3",
                    "midi": 57,
                    "time": 210.12453000000042,
                    "velocity": 1,
                    "duration": 0.06236999999998716
                },
                {
                    "name": "B3",
                    "midi": 59,
                    "time": 210.1869000000004,
                    "velocity": 1,
                    "duration": 0.06236999999998716
                },
                {
                    "name": "A3",
                    "midi": 57,
                    "time": 210.2492700000004,
                    "velocity": 1,
                    "duration": 0.06236999999998716
                },
                {
                    "name": "B3",
                    "midi": 59,
                    "time": 210.31164000000038,
                    "velocity": 1,
                    "duration": 0.06236999999998716
                },
                {
                    "name": "A3",
                    "midi": 57,
                    "time": 210.37401000000037,
                    "velocity": 1,
                    "duration": 0.06236999999998716
                },
                {
                    "name": "B3",
                    "midi": 59,
                    "time": 210.43638000000036,
                    "velocity": 1,
                    "duration": 0.06236999999998716
                },
                {
                    "name": "A3",
                    "midi": 57,
                    "time": 210.49875000000034,
                    "velocity": 1,
                    "duration": 0.06236999999998716
                },
                {
                    "name": "B3",
                    "midi": 59,
                    "time": 210.56112000000033,
                    "velocity": 1,
                    "duration": 0.06236999999998716
                },
                {
                    "name": "A3",
                    "midi": 57,
                    "time": 210.62349000000032,
                    "velocity": 1,
                    "duration": 0.06236999999998716
                },
                {
                    "name": "B3",
                    "midi": 59,
                    "time": 210.6858600000003,
                    "velocity": 1,
                    "duration": 0.06236999999998716
                },
                {
                    "name": "A3",
                    "midi": 57,
                    "time": 210.7482300000003,
                    "velocity": 1,
                    "duration": 0.06236999999998716
                },
                {
                    "name": "B3",
                    "midi": 59,
                    "time": 210.81060000000028,
                    "velocity": 1,
                    "duration": 0.06236999999998716
                },
                {
                    "name": "A3",
                    "midi": 57,
                    "time": 210.87297000000027,
                    "velocity": 1,
                    "duration": 0.06236999999998716
                },
                {
                    "name": "B3",
                    "midi": 59,
                    "time": 210.93534000000025,
                    "velocity": 1,
                    "duration": 0.06236999999998716
                },
                {
                    "name": "A3",
                    "midi": 57,
                    "time": 210.99771000000024,
                    "velocity": 1,
                    "duration": 0.06236999999998716
                },
                {
                    "name": "B3",
                    "midi": 59,
                    "time": 211.06008000000023,
                    "velocity": 1,
                    "duration": 0.06236999999998716
                },
                {
                    "name": "A3",
                    "midi": 57,
                    "time": 211.1224500000002,
                    "velocity": 1,
                    "duration": 0.06236999999998716
                },
                {
                    "name": "B3",
                    "midi": 59,
                    "time": 211.1848200000002,
                    "velocity": 1,
                    "duration": 0.06236999999998716
                },
                {
                    "name": "A3",
                    "midi": 57,
                    "time": 211.2471900000002,
                    "velocity": 1,
                    "duration": 0.06236999999998716
                },
                {
                    "name": "B3",
                    "midi": 59,
                    "time": 211.30956000000018,
                    "velocity": 1,
                    "duration": 0.06236999999998716
                },
                {
                    "name": "A3",
                    "midi": 57,
                    "time": 211.37193000000016,
                    "velocity": 1,
                    "duration": 0.06236999999998716
                },
                {
                    "name": "B3",
                    "midi": 59,
                    "time": 211.43430000000015,
                    "velocity": 1,
                    "duration": 0.06236999999998716
                },
                {
                    "name": "A3",
                    "midi": 57,
                    "time": 211.49667000000014,
                    "velocity": 1,
                    "duration": 0.06236999999998716
                },
                {
                    "name": "B3",
                    "midi": 59,
                    "time": 211.55904000000012,
                    "velocity": 1,
                    "duration": 0.06236999999998716
                },
                {
                    "name": "A3",
                    "midi": 57,
                    "time": 211.6214100000001,
                    "velocity": 1,
                    "duration": 0.06236999999998716
                },
                {
                    "name": "B3",
                    "midi": 59,
                    "time": 211.6837800000001,
                    "velocity": 1,
                    "duration": 0.06236999999998716
                },
                {
                    "name": "A3",
                    "midi": 57,
                    "time": 211.74615000000009,
                    "velocity": 1,
                    "duration": 0.06236999999998716
                },
                {
                    "name": "B3",
                    "midi": 59,
                    "time": 211.80852000000007,
                    "velocity": 1,
                    "duration": 0.06236999999998716
                },
                {
                    "name": "A3",
                    "midi": 57,
                    "time": 211.87089000000006,
                    "velocity": 1,
                    "duration": 0.06236999999998716
                },
                {
                    "name": "B3",
                    "midi": 59,
                    "time": 211.93326000000005,
                    "velocity": 1,
                    "duration": 0.06236999999998716
                },
                {
                    "name": "A3",
                    "midi": 57,
                    "time": 211.99563000000003,
                    "velocity": 1,
                    "duration": 0.06236999999998716
                },
                {
                    "name": "B3",
                    "midi": 59,
                    "time": 212.05800000000002,
                    "velocity": 1,
                    "duration": 0.06236999999998716
                },
                {
                    "name": "A3",
                    "midi": 57,
                    "time": 212.12037,
                    "velocity": 1,
                    "duration": 0.06236999999998716
                },
                {
                    "name": "B3",
                    "midi": 59,
                    "time": 212.18274,
                    "velocity": 1,
                    "duration": 0.06236999999998716
                },
                {
                    "name": "A3",
                    "midi": 57,
                    "time": 212.24510999999998,
                    "velocity": 1,
                    "duration": 0.06236999999998716
                },
                {
                    "name": "B3",
                    "midi": 59,
                    "time": 212.30747999999997,
                    "velocity": 1,
                    "duration": 0.06236999999998716
                },
                {
                    "name": "A3",
                    "midi": 57,
                    "time": 212.36984999999996,
                    "velocity": 1,
                    "duration": 0.06236999999998716
                },
                {
                    "name": "B3",
                    "midi": 59,
                    "time": 212.43221999999994,
                    "velocity": 1,
                    "duration": 0.06236999999998716
                },
                {
                    "name": "A3",
                    "midi": 57,
                    "time": 212.49458999999993,
                    "velocity": 1,
                    "duration": 0.06236999999998716
                },
                {
                    "name": "C4",
                    "midi": 60,
                    "time": 212.55695999999992,
                    "velocity": 1,
                    "duration": 0.06236999999998716
                },
                {
                    "name": "A3",
                    "midi": 57,
                    "time": 212.6193299999999,
                    "velocity": 1,
                    "duration": 0.06236999999998716
                },
                {
                    "name": "C4",
                    "midi": 60,
                    "time": 212.6816999999999,
                    "velocity": 1,
                    "duration": 0.06236999999998716
                },
                {
                    "name": "A3",
                    "midi": 57,
                    "time": 212.74406999999988,
                    "velocity": 1,
                    "duration": 0.06236999999998716
                },
                {
                    "name": "C4",
                    "midi": 60,
                    "time": 212.80643999999987,
                    "velocity": 1,
                    "duration": 0.06236999999998716
                },
                {
                    "name": "A3",
                    "midi": 57,
                    "time": 212.86880999999985,
                    "velocity": 1,
                    "duration": 0.06236999999998716
                },
                {
                    "name": "C4",
                    "midi": 60,
                    "time": 212.93117999999984,
                    "velocity": 1,
                    "duration": 0.06236999999998716
                },
                {
                    "name": "A3",
                    "midi": 57,
                    "time": 212.99354999999983,
                    "velocity": 1,
                    "duration": 0.06236999999998716
                },
                {
                    "name": "C4",
                    "midi": 60,
                    "time": 213.05591999999982,
                    "velocity": 1,
                    "duration": 0.06236999999998716
                },
                {
                    "name": "A3",
                    "midi": 57,
                    "time": 213.1182899999998,
                    "velocity": 1,
                    "duration": 0.06236999999998716
                },
                {
                    "name": "C4",
                    "midi": 60,
                    "time": 213.1806599999998,
                    "velocity": 1,
                    "duration": 0.06236999999998716
                },
                {
                    "name": "A3",
                    "midi": 57,
                    "time": 213.24302999999978,
                    "velocity": 1,
                    "duration": 0.06236999999998716
                },
                {
                    "name": "C4",
                    "midi": 60,
                    "time": 213.30539999999976,
                    "velocity": 1,
                    "duration": 0.06236999999998716
                },
                {
                    "name": "A3",
                    "midi": 57,
                    "time": 213.36776999999975,
                    "velocity": 1,
                    "duration": 0.06236999999998716
                },
                {
                    "name": "C4",
                    "midi": 60,
                    "time": 213.43013999999974,
                    "velocity": 1,
                    "duration": 0.06236999999998716
                },
                {
                    "name": "A3",
                    "midi": 57,
                    "time": 213.49250999999973,
                    "velocity": 1,
                    "duration": 0.06236999999998716
                }
            ],
            "controlChanges": {
                "10": [
                    {
                        "number": 10,
                        "time": 0,
                        "value": 0.7559055118110236
                    },
                    {
                        "number": 10,
                        "time": 15.966720000000006,
                        "value": 0.7559055118110236
                    },
                    {
                        "number": 10,
                        "time": 31.933440000000008,
                        "value": 0.7559055118110236
                    },
                    {
                        "number": 10,
                        "time": 39.91679999999996,
                        "value": 0.7559055118110236
                    },
                    {
                        "number": 10,
                        "time": 45.90431999999994,
                        "value": 0.7559055118110236
                    },
                    {
                        "number": 10,
                        "time": 53.88768000000012,
                        "value": 0.7559055118110236
                    },
                    {
                        "number": 10,
                        "time": 61.871040000000164,
                        "value": 0.7559055118110236
                    },
                    {
                        "number": 10,
                        "time": 67.85856000000017,
                        "value": 0.7559055118110236
                    },
                    {
                        "number": 10,
                        "time": 75.84192000000023,
                        "value": 0.7559055118110236
                    },
                    {
                        "number": 10,
                        "time": 85.82112000000033,
                        "value": 0.7559055118110236
                    },
                    {
                        "number": 10,
                        "time": 107.77536000000046,
                        "value": 0.7559055118110236
                    },
                    {
                        "number": 10,
                        "time": 123.74208000000081,
                        "value": 1
                    },
                    {
                        "number": 10,
                        "time": 135.717120000001,
                        "value": 0.7559055118110236
                    },
                    {
                        "number": 10,
                        "time": 151.68384000000123,
                        "value": 0.7559055118110236
                    },
                    {
                        "number": 10,
                        "time": 165.6547200000014,
                        "value": 0.7559055118110236
                    },
                    {
                        "number": 10,
                        "time": 181.62144000000174,
                        "value": 0.7559055118110236
                    },
                    {
                        "number": 10,
                        "time": 193.596480000002,
                        "value": 0.7559055118110236
                    },
                    {
                        "number": 10,
                        "time": 195.59232000000205,
                        "value": 0.7559055118110236
                    },
                    {
                        "number": 10,
                        "time": 197.5881600000021,
                        "value": 0.7559055118110236
                    },
                    {
                        "number": 10,
                        "time": 199.58400000000213,
                        "value": 0.7559055118110236
                    },
                    {
                        "number": 10,
                        "time": 201.57984000000218,
                        "value": 0.7559055118110236
                    },
                    {
                        "number": 10,
                        "time": 205.57152000000136,
                        "value": 0.7559055118110236
                    },
                    {
                        "number": 10,
                        "time": 209.56320000000053,
                        "value": 0.7559055118110236
                    }
                ]
            },
            "id": 2,
            "name": "violin 2",
            "instrumentNumber": 40,
            "instrument": "violin",
            "instrumentFamily": "strings",
            "channelNumber": 1,
            "isPercussion": false
        },
        {
            "startTime": 0,
            "duration": 213.05592000000178,
            "length": 724,
            "notes": [
                {
                    "name": "C3",
                    "midi": 48,
                    "time": 0,
                    "velocity": 1,
                    "duration": 0.99792
                },
                {
                    "name": "G3",
                    "midi": 55,
                    "time": 0.99792,
                    "velocity": 1,
                    "duration": 0.49895999999999996
                },
                {
                    "name": "F3",
                    "midi": 53,
                    "time": 1.49688,
                    "velocity": 1,
                    "duration": 0.49896000000000007
                },
                {
                    "name": "A#3",
                    "midi": 58,
                    "time": 1.99584,
                    "velocity": 1,
                    "duration": 1.99584
                },
                {
                    "name": "D4",
                    "midi": 62,
                    "time": 3.99168,
                    "velocity": 1,
                    "duration": 0.9979200000000001
                },
                {
                    "name": "F4",
                    "midi": 65,
                    "time": 4.9896,
                    "velocity": 1,
                    "duration": 0.4989600000000003
                },
                {
                    "name": "A#4",
                    "midi": 70,
                    "time": 5.4885600000000005,
                    "velocity": 1,
                    "duration": 0.4989600000000003
                },
                {
                    "name": "A#4",
                    "midi": 70,
                    "time": 5.987520000000001,
                    "velocity": 1,
                    "duration": 1.9958400000000003
                },
                {
                    "name": "C#5",
                    "midi": 73,
                    "time": 7.983360000000001,
                    "velocity": 1,
                    "duration": 0.24948000000000015
                },
                {
                    "name": "G#4",
                    "midi": 68,
                    "time": 8.232840000000001,
                    "velocity": 1,
                    "duration": 0.24948000000000015
                },
                {
                    "name": "G4",
                    "midi": 67,
                    "time": 8.482320000000001,
                    "velocity": 1,
                    "duration": 0.4989600000000003
                },
                {
                    "name": "G#4",
                    "midi": 68,
                    "time": 8.981280000000002,
                    "velocity": 1,
                    "duration": 0.4989600000000003
                },
                {
                    "name": "G4",
                    "midi": 67,
                    "time": 9.480240000000002,
                    "velocity": 1,
                    "duration": 0.4989600000000003
                },
                {
                    "name": "F4",
                    "midi": 65,
                    "time": 9.979200000000002,
                    "velocity": 1,
                    "duration": 0.4989600000000003
                },
                {
                    "name": "D#4",
                    "midi": 63,
                    "time": 10.478160000000003,
                    "velocity": 1,
                    "duration": 0.4989600000000003
                },
                {
                    "name": "C#4",
                    "midi": 61,
                    "time": 10.977120000000003,
                    "velocity": 1,
                    "duration": 0.4989600000000003
                },
                {
                    "name": "A#3",
                    "midi": 58,
                    "time": 11.476080000000003,
                    "velocity": 1,
                    "duration": 0.9979200000000006
                },
                {
                    "name": "G#3",
                    "midi": 56,
                    "time": 12.474000000000004,
                    "velocity": 1,
                    "duration": 0.4989600000000003
                },
                {
                    "name": "F3",
                    "midi": 53,
                    "time": 12.972960000000004,
                    "velocity": 1,
                    "duration": 0.4989600000000003
                },
                {
                    "name": "D#3",
                    "midi": 51,
                    "time": 13.471920000000004,
                    "velocity": 1,
                    "duration": 0.4989600000000003
                },
                {
                    "name": "D3",
                    "midi": 50,
                    "time": 13.970880000000005,
                    "velocity": 1,
                    "duration": 0.4989600000000003
                },
                {
                    "name": "C3",
                    "midi": 48,
                    "time": 14.469840000000005,
                    "velocity": 1,
                    "duration": 0.4989600000000003
                },
                {
                    "name": "D3",
                    "midi": 50,
                    "time": 14.968800000000005,
                    "velocity": 1,
                    "duration": 0.4989600000000003
                },
                {
                    "name": "G3",
                    "midi": 55,
                    "time": 15.467760000000006,
                    "velocity": 1,
                    "duration": 0.4989600000000003
                },
                {
                    "name": "F4",
                    "midi": 65,
                    "time": 15.966720000000006,
                    "velocity": 1,
                    "duration": 0.9979200000000006
                },
                {
                    "name": "G#4",
                    "midi": 68,
                    "time": 16.964640000000006,
                    "velocity": 1,
                    "duration": 1.9958400000000012
                },
                {
                    "name": "A4",
                    "midi": 69,
                    "time": 18.960480000000008,
                    "velocity": 1,
                    "duration": 0.4989600000000003
                },
                {
                    "name": "C#5",
                    "midi": 73,
                    "time": 19.459440000000008,
                    "velocity": 1,
                    "duration": 0.4989600000000003
                },
                {
                    "name": "F4",
                    "midi": 65,
                    "time": 19.958400000000008,
                    "velocity": 1,
                    "duration": 0.9979200000000006
                },
                {
                    "name": "G#4",
                    "midi": 68,
                    "time": 20.95632000000001,
                    "velocity": 1,
                    "duration": 1.9958400000000012
                },
                {
                    "name": "A4",
                    "midi": 69,
                    "time": 22.95216000000001,
                    "velocity": 1,
                    "duration": 0.4989600000000003
                },
                {
                    "name": "C#5",
                    "midi": 73,
                    "time": 23.45112000000001,
                    "velocity": 1,
                    "duration": 0.4989600000000003
                },
                {
                    "name": "F4",
                    "midi": 65,
                    "time": 23.95008000000001,
                    "velocity": 1,
                    "duration": 0.9979200000000006
                },
                {
                    "name": "G#4",
                    "midi": 68,
                    "time": 24.94800000000001,
                    "velocity": 1,
                    "duration": 0.9979200000000006
                },
                {
                    "name": "F4",
                    "midi": 65,
                    "time": 25.94592000000001,
                    "velocity": 1,
                    "duration": 0.9979200000000006
                },
                {
                    "name": "G#4",
                    "midi": 68,
                    "time": 26.943840000000012,
                    "velocity": 1,
                    "duration": 0.9979200000000006
                },
                {
                    "name": "F4",
                    "midi": 65,
                    "time": 27.941760000000013,
                    "velocity": 1,
                    "duration": 0.9979200000000006
                },
                {
                    "name": "G#4",
                    "midi": 68,
                    "time": 28.939680000000013,
                    "velocity": 1,
                    "duration": 0.9979200000000006
                },
                {
                    "name": "F4",
                    "midi": 65,
                    "time": 29.937600000000014,
                    "velocity": 1,
                    "duration": 0.9979200000000006
                },
                {
                    "name": "A#3",
                    "midi": 58,
                    "time": 30.935520000000015,
                    "velocity": 1,
                    "duration": 0.9979200000000006
                },
                {
                    "name": "A3",
                    "midi": 57,
                    "time": 31.933440000000015,
                    "velocity": 1,
                    "duration": 0.4989600000000003
                },
                {
                    "name": "G3",
                    "midi": 55,
                    "time": 32.432400000000015,
                    "velocity": 1,
                    "duration": 0.24947999999999837
                },
                {
                    "name": "A3",
                    "midi": 57,
                    "time": 32.681880000000014,
                    "velocity": 1,
                    "duration": 0.24947999999999837
                },
                {
                    "name": "G3",
                    "midi": 55,
                    "time": 32.93136000000001,
                    "velocity": 1,
                    "duration": 0.49895999999999674
                },
                {
                    "name": "F3",
                    "midi": 53,
                    "time": 33.43032000000001,
                    "velocity": 1,
                    "duration": 0.49895999999999674
                },
                {
                    "name": "A#3",
                    "midi": 58,
                    "time": 33.929280000000006,
                    "velocity": 1,
                    "duration": 1.9958400000000012
                },
                {
                    "name": "A#4",
                    "midi": 70,
                    "time": 38.419920000000005,
                    "velocity": 1,
                    "duration": 1.4968799999999973
                },
                {
                    "name": "A4",
                    "midi": 69,
                    "time": 39.9168,
                    "velocity": 1,
                    "duration": 0.9979200000000006
                },
                {
                    "name": "F4",
                    "midi": 65,
                    "time": 40.91472,
                    "velocity": 1,
                    "duration": 1.4968799999999973
                },
                {
                    "name": "A#3",
                    "midi": 58,
                    "time": 40.91472,
                    "velocity": 1,
                    "duration": 1.4968799999999973
                },
                {
                    "name": "A#3",
                    "midi": 58,
                    "time": 42.91056,
                    "velocity": 1,
                    "duration": 1.4968799999999973
                },
                {
                    "name": "F4",
                    "midi": 65,
                    "time": 42.91056,
                    "velocity": 1,
                    "duration": 1.4968799999999973
                },
                {
                    "name": "A#3",
                    "midi": 58,
                    "time": 44.90639999999999,
                    "velocity": 1,
                    "duration": 0.9979200000000006
                },
                {
                    "name": "F4",
                    "midi": 65,
                    "time": 44.90639999999999,
                    "velocity": 1,
                    "duration": 0.9979200000000006
                },
                {
                    "name": "E3",
                    "midi": 52,
                    "time": 45.90431999999999,
                    "velocity": 1,
                    "duration": 0.12474000000000274
                },
                {
                    "name": "E3",
                    "midi": 52,
                    "time": 46.029059999999994,
                    "velocity": 1,
                    "duration": 0.12474000000000274
                },
                {
                    "name": "G3",
                    "midi": 55,
                    "time": 46.1538,
                    "velocity": 1,
                    "duration": 0.12474000000000274
                },
                {
                    "name": "G3",
                    "midi": 55,
                    "time": 46.27854,
                    "velocity": 1,
                    "duration": 0.12474000000000274
                },
                {
                    "name": "A#3",
                    "midi": 58,
                    "time": 46.40328,
                    "velocity": 1,
                    "duration": 0.12474000000000274
                },
                {
                    "name": "A#3",
                    "midi": 58,
                    "time": 46.528020000000005,
                    "velocity": 1,
                    "duration": 0.12474000000000274
                },
                {
                    "name": "C#4",
                    "midi": 61,
                    "time": 46.65276000000001,
                    "velocity": 1,
                    "duration": 0.12474000000000274
                },
                {
                    "name": "C#4",
                    "midi": 61,
                    "time": 46.77750000000001,
                    "velocity": 1,
                    "duration": 0.12474000000000274
                },
                {
                    "name": "A#3",
                    "midi": 58,
                    "time": 46.90224000000001,
                    "velocity": 1,
                    "duration": 0.12474000000000274
                },
                {
                    "name": "A#3",
                    "midi": 58,
                    "time": 47.026980000000016,
                    "velocity": 1,
                    "duration": 0.12474000000000274
                },
                {
                    "name": "C#4",
                    "midi": 61,
                    "time": 47.15172000000002,
                    "velocity": 1,
                    "duration": 0.12474000000000274
                },
                {
                    "name": "C#4",
                    "midi": 61,
                    "time": 47.27646000000002,
                    "velocity": 1,
                    "duration": 0.12474000000000274
                },
                {
                    "name": "E4",
                    "midi": 64,
                    "time": 47.401200000000024,
                    "velocity": 1,
                    "duration": 0.12474000000000274
                },
                {
                    "name": "E4",
                    "midi": 64,
                    "time": 47.52594000000003,
                    "velocity": 1,
                    "duration": 0.12474000000000274
                },
                {
                    "name": "G4",
                    "midi": 67,
                    "time": 47.65068000000003,
                    "velocity": 1,
                    "duration": 0.12474000000000274
                },
                {
                    "name": "G4",
                    "midi": 67,
                    "time": 47.77542000000003,
                    "velocity": 1,
                    "duration": 0.12474000000000274
                },
                {
                    "name": "A4",
                    "midi": 69,
                    "time": 47.900160000000035,
                    "velocity": 1,
                    "duration": 0.12474000000000274
                },
                {
                    "name": "F4",
                    "midi": 65,
                    "time": 47.900160000000035,
                    "velocity": 1,
                    "duration": 0.12474000000000274
                },
                {
                    "name": "A4",
                    "midi": 69,
                    "time": 48.02490000000004,
                    "velocity": 1,
                    "duration": 0.12474000000000274
                },
                {
                    "name": "F4",
                    "midi": 65,
                    "time": 48.02490000000004,
                    "velocity": 1,
                    "duration": 0.12474000000000274
                },
                {
                    "name": "D4",
                    "midi": 62,
                    "time": 48.14964000000004,
                    "velocity": 1,
                    "duration": 0.12474000000000274
                },
                {
                    "name": "D4",
                    "midi": 62,
                    "time": 48.27438000000004,
                    "velocity": 1,
                    "duration": 0.12474000000000274
                },
                {
                    "name": "A3",
                    "midi": 57,
                    "time": 48.399120000000046,
                    "velocity": 1,
                    "duration": 0.12474000000000274
                },
                {
                    "name": "A3",
                    "midi": 57,
                    "time": 48.52386000000005,
                    "velocity": 1,
                    "duration": 0.12474000000000274
                },
                {
                    "name": "F3",
                    "midi": 53,
                    "time": 48.64860000000005,
                    "velocity": 1,
                    "duration": 0.12474000000000274
                },
                {
                    "name": "F3",
                    "midi": 53,
                    "time": 48.773340000000054,
                    "velocity": 1,
                    "duration": 0.12474000000000274
                },
                {
                    "name": "E3",
                    "midi": 52,
                    "time": 48.89808000000006,
                    "velocity": 1,
                    "duration": 0.12474000000000274
                },
                {
                    "name": "E3",
                    "midi": 52,
                    "time": 49.02282000000006,
                    "velocity": 1,
                    "duration": 0.12474000000000274
                },
                {
                    "name": "G3",
                    "midi": 55,
                    "time": 49.14756000000006,
                    "velocity": 1,
                    "duration": 0.12474000000000274
                },
                {
                    "name": "G3",
                    "midi": 55,
                    "time": 49.272300000000065,
                    "velocity": 1,
                    "duration": 0.12474000000000274
                },
                {
                    "name": "A#3",
                    "midi": 58,
                    "time": 49.39704000000007,
                    "velocity": 1,
                    "duration": 0.12474000000000274
                },
                {
                    "name": "A#3",
                    "midi": 58,
                    "time": 49.52178000000007,
                    "velocity": 1,
                    "duration": 0.12474000000000274
                },
                {
                    "name": "C#4",
                    "midi": 61,
                    "time": 49.64652000000007,
                    "velocity": 1,
                    "duration": 0.12474000000000274
                },
                {
                    "name": "C#4",
                    "midi": 61,
                    "time": 49.771260000000076,
                    "velocity": 1,
                    "duration": 0.12474000000000274
                },
                {
                    "name": "A#3",
                    "midi": 58,
                    "time": 49.89600000000008,
                    "velocity": 1,
                    "duration": 0.12474000000000274
                },
                {
                    "name": "A#3",
                    "midi": 58,
                    "time": 50.02074000000008,
                    "velocity": 1,
                    "duration": 0.12474000000000274
                },
                {
                    "name": "C#4",
                    "midi": 61,
                    "time": 50.145480000000084,
                    "velocity": 1,
                    "duration": 0.12474000000000274
                },
                {
                    "name": "C#4",
                    "midi": 61,
                    "time": 50.27022000000009,
                    "velocity": 1,
                    "duration": 0.12474000000000274
                },
                {
                    "name": "E4",
                    "midi": 64,
                    "time": 50.39496000000009,
                    "velocity": 1,
                    "duration": 0.12474000000000274
                },
                {
                    "name": "E4",
                    "midi": 64,
                    "time": 50.51970000000009,
                    "velocity": 1,
                    "duration": 0.12474000000000274
                },
                {
                    "name": "G4",
                    "midi": 67,
                    "time": 50.644440000000095,
                    "velocity": 1,
                    "duration": 0.12474000000000274
                },
                {
                    "name": "G4",
                    "midi": 67,
                    "time": 50.7691800000001,
                    "velocity": 1,
                    "duration": 0.12474000000000274
                },
                {
                    "name": "F4",
                    "midi": 65,
                    "time": 50.8939200000001,
                    "velocity": 1,
                    "duration": 0.12474000000000274
                },
                {
                    "name": "A4",
                    "midi": 69,
                    "time": 50.8939200000001,
                    "velocity": 1,
                    "duration": 0.12474000000000274
                },
                {
                    "name": "F4",
                    "midi": 65,
                    "time": 51.018660000000104,
                    "velocity": 1,
                    "duration": 0.12474000000000274
                },
                {
                    "name": "A4",
                    "midi": 69,
                    "time": 51.018660000000104,
                    "velocity": 1,
                    "duration": 0.12474000000000274
                },
                {
                    "name": "D4",
                    "midi": 62,
                    "time": 51.143400000000106,
                    "velocity": 1,
                    "duration": 0.12474000000000274
                },
                {
                    "name": "D4",
                    "midi": 62,
                    "time": 51.26814000000011,
                    "velocity": 1,
                    "duration": 0.12474000000000274
                },
                {
                    "name": "A3",
                    "midi": 57,
                    "time": 51.39288000000011,
                    "velocity": 1,
                    "duration": 0.12474000000000274
                },
                {
                    "name": "A3",
                    "midi": 57,
                    "time": 51.517620000000115,
                    "velocity": 1,
                    "duration": 0.12474000000000274
                },
                {
                    "name": "F3",
                    "midi": 53,
                    "time": 51.64236000000012,
                    "velocity": 1,
                    "duration": 0.12474000000000274
                },
                {
                    "name": "F3",
                    "midi": 53,
                    "time": 51.76710000000012,
                    "velocity": 1,
                    "duration": 0.12474000000000274
                },
                {
                    "name": "G#3",
                    "midi": 56,
                    "time": 51.89184000000012,
                    "velocity": 1,
                    "duration": 0.12474000000000274
                },
                {
                    "name": "G#3",
                    "midi": 56,
                    "time": 52.016580000000125,
                    "velocity": 1,
                    "duration": 0.12474000000000274
                },
                {
                    "name": "C4",
                    "midi": 60,
                    "time": 52.14132000000013,
                    "velocity": 1,
                    "duration": 0.12474000000000274
                },
                {
                    "name": "C4",
                    "midi": 60,
                    "time": 52.26606000000013,
                    "velocity": 1,
                    "duration": 0.12474000000000274
                },
                {
                    "name": "F4",
                    "midi": 65,
                    "time": 52.390800000000134,
                    "velocity": 1,
                    "duration": 0.12474000000000274
                },
                {
                    "name": "F4",
                    "midi": 65,
                    "time": 52.515540000000136,
                    "velocity": 1,
                    "duration": 0.12474000000000274
                },
                {
                    "name": "C4",
                    "midi": 60,
                    "time": 52.64028000000014,
                    "velocity": 1,
                    "duration": 0.12474000000000274
                },
                {
                    "name": "C4",
                    "midi": 60,
                    "time": 52.76502000000014,
                    "velocity": 1,
                    "duration": 0.12474000000000274
                },
                {
                    "name": "C4",
                    "midi": 60,
                    "time": 52.889760000000145,
                    "velocity": 1,
                    "duration": 0.12474000000000274
                },
                {
                    "name": "C4",
                    "midi": 60,
                    "time": 53.01450000000015,
                    "velocity": 1,
                    "duration": 0.12474000000000274
                },
                {
                    "name": "D#4",
                    "midi": 63,
                    "time": 53.13924000000015,
                    "velocity": 1,
                    "duration": 0.12474000000000274
                },
                {
                    "name": "D#4",
                    "midi": 63,
                    "time": 53.26398000000015,
                    "velocity": 1,
                    "duration": 0.12474000000000274
                },
                {
                    "name": "F#4",
                    "midi": 66,
                    "time": 53.388720000000156,
                    "velocity": 1,
                    "duration": 0.12474000000000274
                },
                {
                    "name": "F#4",
                    "midi": 66,
                    "time": 53.51346000000016,
                    "velocity": 1,
                    "duration": 0.12474000000000274
                },
                {
                    "name": "A4",
                    "midi": 69,
                    "time": 53.63820000000016,
                    "velocity": 1,
                    "duration": 0.12474000000000274
                },
                {
                    "name": "A4",
                    "midi": 69,
                    "time": 53.762940000000164,
                    "velocity": 1,
                    "duration": 0.12474000000000274
                },
                {
                    "name": "D4",
                    "midi": 62,
                    "time": 53.88768000000017,
                    "velocity": 1,
                    "duration": 0.7484400000000022
                },
                {
                    "name": "G#3",
                    "midi": 56,
                    "time": 53.88768000000017,
                    "velocity": 1,
                    "duration": 0.7484400000000022
                },
                {
                    "name": "C5",
                    "midi": 72,
                    "time": 53.88768000000017,
                    "velocity": 1,
                    "duration": 0.7484400000000022
                },
                {
                    "name": "B4",
                    "midi": 71,
                    "time": 54.63612000000017,
                    "velocity": 1,
                    "duration": 0.24947999999999837
                },
                {
                    "name": "C5",
                    "midi": 72,
                    "time": 54.88560000000017,
                    "velocity": 1,
                    "duration": 0.7484400000000022
                },
                {
                    "name": "G#4",
                    "midi": 68,
                    "time": 55.63404000000017,
                    "velocity": 1,
                    "duration": 0.24947999999999837
                },
                {
                    "name": "G#4",
                    "midi": 68,
                    "time": 55.88352000000017,
                    "velocity": 1,
                    "duration": 0.24947999999999837
                },
                {
                    "name": "A4",
                    "midi": 69,
                    "time": 56.133000000000166,
                    "velocity": 1,
                    "duration": 0.24947999999999837
                },
                {
                    "name": "C5",
                    "midi": 72,
                    "time": 56.382480000000164,
                    "velocity": 1,
                    "duration": 0.24947999999999837
                },
                {
                    "name": "F5",
                    "midi": 77,
                    "time": 56.63196000000016,
                    "velocity": 1,
                    "duration": 0.24947999999999837
                },
                {
                    "name": "G#3",
                    "midi": 56,
                    "time": 56.88144000000016,
                    "velocity": 1,
                    "duration": 0.12474000000000274
                },
                {
                    "name": "C5",
                    "midi": 72,
                    "time": 56.88144000000016,
                    "velocity": 1,
                    "duration": 0.12474000000000274
                },
                {
                    "name": "D4",
                    "midi": 62,
                    "time": 56.88144000000016,
                    "velocity": 1,
                    "duration": 0.12474000000000274
                },
                {
                    "name": "C5",
                    "midi": 72,
                    "time": 57.006180000000164,
                    "velocity": 1,
                    "duration": 0.12474000000000274
                },
                {
                    "name": "B4",
                    "midi": 71,
                    "time": 57.13092000000017,
                    "velocity": 1,
                    "duration": 0.12474000000000274
                },
                {
                    "name": "B4",
                    "midi": 71,
                    "time": 57.25566000000017,
                    "velocity": 1,
                    "duration": 0.12474000000000274
                },
                {
                    "name": "G4",
                    "midi": 67,
                    "time": 57.38040000000017,
                    "velocity": 1,
                    "duration": 0.12474000000000274
                },
                {
                    "name": "G4",
                    "midi": 67,
                    "time": 57.505140000000175,
                    "velocity": 1,
                    "duration": 0.12474000000000274
                },
                {
                    "name": "G3",
                    "midi": 55,
                    "time": 57.62988000000018,
                    "velocity": 1,
                    "duration": 0.12474000000000274
                },
                {
                    "name": "G3",
                    "midi": 55,
                    "time": 57.75462000000018,
                    "velocity": 1,
                    "duration": 0.12474000000000274
                },
                {
                    "name": "F#3",
                    "midi": 54,
                    "time": 57.87936000000018,
                    "velocity": 1,
                    "duration": 0.12474000000000274
                },
                {
                    "name": "G#3",
                    "midi": 56,
                    "time": 58.004100000000186,
                    "velocity": 1,
                    "duration": 0.12474000000000274
                },
                {
                    "name": "F#3",
                    "midi": 54,
                    "time": 58.12884000000019,
                    "velocity": 1,
                    "duration": 0.12474000000000274
                },
                {
                    "name": "E3",
                    "midi": 52,
                    "time": 58.25358000000019,
                    "velocity": 1,
                    "duration": 0.12474000000000274
                },
                {
                    "name": "E3",
                    "midi": 52,
                    "time": 58.378320000000194,
                    "velocity": 1,
                    "duration": 0.12474000000000274
                },
                {
                    "name": "F#3",
                    "midi": 54,
                    "time": 58.5030600000002,
                    "velocity": 1,
                    "duration": 0.12474000000000274
                },
                {
                    "name": "E3",
                    "midi": 52,
                    "time": 58.6278000000002,
                    "velocity": 1,
                    "duration": 0.12474000000000274
                },
                {
                    "name": "D3",
                    "midi": 50,
                    "time": 58.7525400000002,
                    "velocity": 1,
                    "duration": 0.12474000000000274
                },
                {
                    "name": "F3",
                    "midi": 53,
                    "time": 58.877280000000205,
                    "velocity": 1,
                    "duration": 0.12474000000000274
                },
                {
                    "name": "F3",
                    "midi": 53,
                    "time": 59.00202000000021,
                    "velocity": 1,
                    "duration": 0.12474000000000274
                },
                {
                    "name": "F3",
                    "midi": 53,
                    "time": 59.12676000000021,
                    "velocity": 1,
                    "duration": 0.12474000000000274
                },
                {
                    "name": "F3",
                    "midi": 53,
                    "time": 59.25150000000021,
                    "velocity": 1,
                    "duration": 0.12474000000000274
                },
                {
                    "name": "F3",
                    "midi": 53,
                    "time": 59.376240000000216,
                    "velocity": 1,
                    "duration": 0.12474000000000274
                },
                {
                    "name": "F3",
                    "midi": 53,
                    "time": 59.50098000000022,
                    "velocity": 1,
                    "duration": 0.12474000000000274
                },
                {
                    "name": "C4",
                    "midi": 60,
                    "time": 59.62572000000022,
                    "velocity": 1,
                    "duration": 0.12474000000000274
                },
                {
                    "name": "C4",
                    "midi": 60,
                    "time": 59.750460000000224,
                    "velocity": 1,
                    "duration": 0.12474000000000274
                },
                {
                    "name": "B3",
                    "midi": 59,
                    "time": 59.87520000000023,
                    "velocity": 1,
                    "duration": 0.9979200000000006
                },
                {
                    "name": "E3",
                    "midi": 52,
                    "time": 60.87312000000023,
                    "velocity": 1,
                    "duration": 0.9979200000000006
                },
                {
                    "name": "D3",
                    "midi": 50,
                    "time": 61.87104000000023,
                    "velocity": 1,
                    "duration": 0.12474000000000274
                },
                {
                    "name": "D3",
                    "midi": 50,
                    "time": 61.99578000000023,
                    "velocity": 1,
                    "duration": 0.12474000000000274
                },
                {
                    "name": "D#3",
                    "midi": 51,
                    "time": 62.12052000000023,
                    "velocity": 1,
                    "duration": 0.12474000000000274
                },
                {
                    "name": "D#3",
                    "midi": 51,
                    "time": 62.245260000000236,
                    "velocity": 1,
                    "duration": 0.12474000000000274
                },
                {
                    "name": "D#3",
                    "midi": 51,
                    "time": 62.37000000000024,
                    "velocity": 1,
                    "duration": 0.12474000000000274
                },
                {
                    "name": "D#3",
                    "midi": 51,
                    "time": 62.49474000000024,
                    "velocity": 1,
                    "duration": 0.12474000000000274
                },
                {
                    "name": "G#3",
                    "midi": 56,
                    "time": 62.619480000000245,
                    "velocity": 1,
                    "duration": 0.12474000000000274
                },
                {
                    "name": "G#3",
                    "midi": 56,
                    "time": 62.74422000000025,
                    "velocity": 1,
                    "duration": 0.12474000000000274
                },
                {
                    "name": "G#3",
                    "midi": 56,
                    "time": 62.86896000000025,
                    "velocity": 1,
                    "duration": 0.12474000000000274
                },
                {
                    "name": "G#3",
                    "midi": 56,
                    "time": 62.99370000000025,
                    "velocity": 1,
                    "duration": 0.12474000000000274
                },
                {
                    "name": "B3",
                    "midi": 59,
                    "time": 63.118440000000255,
                    "velocity": 1,
                    "duration": 0.12474000000000274
                },
                {
                    "name": "B3",
                    "midi": 59,
                    "time": 63.24318000000026,
                    "velocity": 1,
                    "duration": 0.12474000000000274
                },
                {
                    "name": "B3",
                    "midi": 59,
                    "time": 63.36792000000026,
                    "velocity": 1,
                    "duration": 0.12474000000000274
                },
                {
                    "name": "B3",
                    "midi": 59,
                    "time": 63.492660000000264,
                    "velocity": 1,
                    "duration": 0.12474000000000274
                },
                {
                    "name": "D4",
                    "midi": 62,
                    "time": 63.617400000000266,
                    "velocity": 1,
                    "duration": 0.12474000000000274
                },
                {
                    "name": "D4",
                    "midi": 62,
                    "time": 63.74214000000027,
                    "velocity": 1,
                    "duration": 0.12474000000000274
                },
                {
                    "name": "F4",
                    "midi": 65,
                    "time": 63.86688000000027,
                    "velocity": 1,
                    "duration": 0.9979200000000006
                },
                {
                    "name": "D#4",
                    "midi": 63,
                    "time": 64.86480000000027,
                    "velocity": 1,
                    "duration": 0.9979199999999935
                },
                {
                    "name": "B3",
                    "midi": 59,
                    "time": 65.86272000000027,
                    "velocity": 1,
                    "duration": 0.12474000000000274
                },
                {
                    "name": "B3",
                    "midi": 59,
                    "time": 65.98746000000027,
                    "velocity": 1,
                    "duration": 0.12474000000000274
                },
                {
                    "name": "D4",
                    "midi": 62,
                    "time": 66.11220000000027,
                    "velocity": 1,
                    "duration": 0.12474000000000274
                },
                {
                    "name": "D4",
                    "midi": 62,
                    "time": 66.23694000000027,
                    "velocity": 1,
                    "duration": 0.12474000000000274
                },
                {
                    "name": "D4",
                    "midi": 62,
                    "time": 66.36168000000028,
                    "velocity": 1,
                    "duration": 0.12474000000000274
                },
                {
                    "name": "D4",
                    "midi": 62,
                    "time": 66.48642000000028,
                    "velocity": 1,
                    "duration": 0.12474000000000274
                },
                {
                    "name": "F4",
                    "midi": 65,
                    "time": 66.61116000000028,
                    "velocity": 1,
                    "duration": 0.12474000000000274
                },
                {
                    "name": "F4",
                    "midi": 65,
                    "time": 66.73590000000029,
                    "velocity": 1,
                    "duration": 0.12474000000000274
                },
                {
                    "name": "F4",
                    "midi": 65,
                    "time": 66.86064000000029,
                    "velocity": 1,
                    "duration": 0.12474000000000274
                },
                {
                    "name": "F4",
                    "midi": 65,
                    "time": 66.98538000000029,
                    "velocity": 1,
                    "duration": 0.12474000000000274
                },
                {
                    "name": "G#4",
                    "midi": 68,
                    "time": 67.1101200000003,
                    "velocity": 1,
                    "duration": 0.12474000000000274
                },
                {
                    "name": "G#4",
                    "midi": 68,
                    "time": 67.2348600000003,
                    "velocity": 1,
                    "duration": 0.12474000000000274
                },
                {
                    "name": "G#4",
                    "midi": 68,
                    "time": 67.3596000000003,
                    "velocity": 1,
                    "duration": 0.12474000000000274
                },
                {
                    "name": "G#4",
                    "midi": 68,
                    "time": 67.4843400000003,
                    "velocity": 1,
                    "duration": 0.12474000000000274
                },
                {
                    "name": "B4",
                    "midi": 71,
                    "time": 67.6090800000003,
                    "velocity": 1,
                    "duration": 0.12474000000000274
                },
                {
                    "name": "B4",
                    "midi": 71,
                    "time": 67.7338200000003,
                    "velocity": 1,
                    "duration": 0.12474000000000274
                },
                {
                    "name": "G#3",
                    "midi": 56,
                    "time": 67.85856000000031,
                    "velocity": 1,
                    "duration": 0.9979199999999935
                },
                {
                    "name": "G#4",
                    "midi": 68,
                    "time": 67.85856000000031,
                    "velocity": 1,
                    "duration": 0.9979199999999935
                },
                {
                    "name": "G4",
                    "midi": 67,
                    "time": 68.8564800000003,
                    "velocity": 1,
                    "duration": 0.9979199999999935
                },
                {
                    "name": "G3",
                    "midi": 55,
                    "time": 68.8564800000003,
                    "velocity": 1,
                    "duration": 0.9979199999999935
                },
                {
                    "name": "G#4",
                    "midi": 68,
                    "time": 69.8544000000003,
                    "velocity": 1,
                    "duration": 0.9979199999999935
                },
                {
                    "name": "G#3",
                    "midi": 56,
                    "time": 69.8544000000003,
                    "velocity": 1,
                    "duration": 0.9979199999999935
                },
                {
                    "name": "G3",
                    "midi": 55,
                    "time": 70.85232000000029,
                    "velocity": 1,
                    "duration": 0.9979199999999935
                },
                {
                    "name": "G4",
                    "midi": 67,
                    "time": 70.85232000000029,
                    "velocity": 1,
                    "duration": 0.9979199999999935
                },
                {
                    "name": "G#4",
                    "midi": 68,
                    "time": 71.85024000000028,
                    "velocity": 1,
                    "duration": 0.06237000000000137
                },
                {
                    "name": "G#4",
                    "midi": 68,
                    "time": 71.91261000000029,
                    "velocity": 1,
                    "duration": 0.06237000000000137
                },
                {
                    "name": "G#4",
                    "midi": 68,
                    "time": 71.97498000000029,
                    "velocity": 1,
                    "duration": 0.06237000000000137
                },
                {
                    "name": "G#4",
                    "midi": 68,
                    "time": 72.03735000000029,
                    "velocity": 1,
                    "duration": 0.06237000000000137
                },
                {
                    "name": "G#4",
                    "midi": 68,
                    "time": 72.09972000000029,
                    "velocity": 1,
                    "duration": 0.06237000000000137
                },
                {
                    "name": "G#4",
                    "midi": 68,
                    "time": 72.16209000000029,
                    "velocity": 1,
                    "duration": 0.06237000000000137
                },
                {
                    "name": "G#4",
                    "midi": 68,
                    "time": 72.22446000000029,
                    "velocity": 1,
                    "duration": 0.06237000000000137
                },
                {
                    "name": "G#4",
                    "midi": 68,
                    "time": 72.2868300000003,
                    "velocity": 1,
                    "duration": 0.06237000000000137
                },
                {
                    "name": "G#4",
                    "midi": 68,
                    "time": 72.3492000000003,
                    "velocity": 1,
                    "duration": 0.06237000000000137
                },
                {
                    "name": "G#4",
                    "midi": 68,
                    "time": 72.4115700000003,
                    "velocity": 1,
                    "duration": 0.06237000000000137
                },
                {
                    "name": "G#4",
                    "midi": 68,
                    "time": 72.4739400000003,
                    "velocity": 1,
                    "duration": 0.06237000000000137
                },
                {
                    "name": "G#4",
                    "midi": 68,
                    "time": 72.5363100000003,
                    "velocity": 1,
                    "duration": 0.06237000000000137
                },
                {
                    "name": "G#4",
                    "midi": 68,
                    "time": 72.5986800000003,
                    "velocity": 1,
                    "duration": 0.06237000000000137
                },
                {
                    "name": "G#4",
                    "midi": 68,
                    "time": 72.6610500000003,
                    "velocity": 1,
                    "duration": 0.06237000000000137
                },
                {
                    "name": "G#4",
                    "midi": 68,
                    "time": 72.7234200000003,
                    "velocity": 1,
                    "duration": 0.06237000000000137
                },
                {
                    "name": "G#4",
                    "midi": 68,
                    "time": 72.7857900000003,
                    "velocity": 1,
                    "duration": 0.06237000000000137
                },
                {
                    "name": "B4",
                    "midi": 71,
                    "time": 72.8481600000003,
                    "velocity": 1,
                    "duration": 0.06237000000000137
                },
                {
                    "name": "B4",
                    "midi": 71,
                    "time": 72.9105300000003,
                    "velocity": 1,
                    "duration": 0.06237000000000137
                },
                {
                    "name": "B4",
                    "midi": 71,
                    "time": 72.97290000000031,
                    "velocity": 1,
                    "duration": 0.06237000000000137
                },
                {
                    "name": "B4",
                    "midi": 71,
                    "time": 73.03527000000031,
                    "velocity": 1,
                    "duration": 0.06237000000000137
                },
                {
                    "name": "B4",
                    "midi": 71,
                    "time": 73.09764000000031,
                    "velocity": 1,
                    "duration": 0.06237000000000137
                },
                {
                    "name": "B4",
                    "midi": 71,
                    "time": 73.16001000000031,
                    "velocity": 1,
                    "duration": 0.06237000000000137
                },
                {
                    "name": "B4",
                    "midi": 71,
                    "time": 73.22238000000031,
                    "velocity": 1,
                    "duration": 0.06237000000000137
                },
                {
                    "name": "B4",
                    "midi": 71,
                    "time": 73.28475000000032,
                    "velocity": 1,
                    "duration": 0.06237000000000137
                },
                {
                    "name": "A#4",
                    "midi": 70,
                    "time": 73.34712000000032,
                    "velocity": 1,
                    "duration": 0.06237000000000137
                },
                {
                    "name": "A#4",
                    "midi": 70,
                    "time": 73.40949000000032,
                    "velocity": 1,
                    "duration": 0.06237000000000137
                },
                {
                    "name": "A#4",
                    "midi": 70,
                    "time": 73.47186000000032,
                    "velocity": 1,
                    "duration": 0.06237000000000137
                },
                {
                    "name": "A#4",
                    "midi": 70,
                    "time": 73.53423000000032,
                    "velocity": 1,
                    "duration": 0.06237000000000137
                },
                {
                    "name": "A#4",
                    "midi": 70,
                    "time": 73.59660000000032,
                    "velocity": 1,
                    "duration": 0.06237000000000137
                },
                {
                    "name": "A#4",
                    "midi": 70,
                    "time": 73.65897000000032,
                    "velocity": 1,
                    "duration": 0.06237000000000137
                },
                {
                    "name": "A#4",
                    "midi": 70,
                    "time": 73.72134000000032,
                    "velocity": 1,
                    "duration": 0.06237000000000137
                },
                {
                    "name": "A#4",
                    "midi": 70,
                    "time": 73.78371000000033,
                    "velocity": 1,
                    "duration": 0.06237000000000137
                },
                {
                    "name": "C#5",
                    "midi": 73,
                    "time": 73.84608000000033,
                    "velocity": 1,
                    "duration": 0.06237000000000137
                },
                {
                    "name": "C#5",
                    "midi": 73,
                    "time": 73.90845000000033,
                    "velocity": 1,
                    "duration": 0.06237000000000137
                },
                {
                    "name": "C#5",
                    "midi": 73,
                    "time": 73.97082000000033,
                    "velocity": 1,
                    "duration": 0.06237000000000137
                },
                {
                    "name": "C#5",
                    "midi": 73,
                    "time": 74.03319000000033,
                    "velocity": 1,
                    "duration": 0.06237000000000137
                },
                {
                    "name": "C#5",
                    "midi": 73,
                    "time": 74.09556000000033,
                    "velocity": 1,
                    "duration": 0.06237000000000137
                },
                {
                    "name": "C#5",
                    "midi": 73,
                    "time": 74.15793000000033,
                    "velocity": 1,
                    "duration": 0.06237000000000137
                },
                {
                    "name": "C#5",
                    "midi": 73,
                    "time": 74.22030000000034,
                    "velocity": 1,
                    "duration": 0.06237000000000137
                },
                {
                    "name": "C#5",
                    "midi": 73,
                    "time": 74.28267000000034,
                    "velocity": 1,
                    "duration": 0.06237000000000137
                },
                {
                    "name": "C#5",
                    "midi": 73,
                    "time": 74.34504000000034,
                    "velocity": 1,
                    "duration": 0.06237000000000137
                },
                {
                    "name": "C#5",
                    "midi": 73,
                    "time": 74.40741000000034,
                    "velocity": 1,
                    "duration": 0.06237000000000137
                },
                {
                    "name": "C#5",
                    "midi": 73,
                    "time": 74.46978000000034,
                    "velocity": 1,
                    "duration": 0.06237000000000137
                },
                {
                    "name": "C#5",
                    "midi": 73,
                    "time": 74.53215000000034,
                    "velocity": 1,
                    "duration": 0.06237000000000137
                },
                {
                    "name": "C#5",
                    "midi": 73,
                    "time": 74.59452000000034,
                    "velocity": 1,
                    "duration": 0.06237000000000137
                },
                {
                    "name": "C#5",
                    "midi": 73,
                    "time": 74.65689000000035,
                    "velocity": 1,
                    "duration": 0.06237000000000137
                },
                {
                    "name": "C#5",
                    "midi": 73,
                    "time": 74.71926000000035,
                    "velocity": 1,
                    "duration": 0.06237000000000137
                },
                {
                    "name": "C#5",
                    "midi": 73,
                    "time": 74.78163000000035,
                    "velocity": 1,
                    "duration": 0.06237000000000137
                },
                {
                    "name": "E5",
                    "midi": 76,
                    "time": 74.84400000000035,
                    "velocity": 1,
                    "duration": 0.06237000000000137
                },
                {
                    "name": "E5",
                    "midi": 76,
                    "time": 74.90637000000035,
                    "velocity": 1,
                    "duration": 0.06237000000000137
                },
                {
                    "name": "E5",
                    "midi": 76,
                    "time": 74.96874000000035,
                    "velocity": 1,
                    "duration": 0.06237000000000137
                },
                {
                    "name": "E5",
                    "midi": 76,
                    "time": 75.03111000000035,
                    "velocity": 1,
                    "duration": 0.06237000000000137
                },
                {
                    "name": "E5",
                    "midi": 76,
                    "time": 75.09348000000035,
                    "velocity": 1,
                    "duration": 0.06237000000000137
                },
                {
                    "name": "E5",
                    "midi": 76,
                    "time": 75.15585000000036,
                    "velocity": 1,
                    "duration": 0.06237000000000137
                },
                {
                    "name": "E5",
                    "midi": 76,
                    "time": 75.21822000000036,
                    "velocity": 1,
                    "duration": 0.06237000000000137
                },
                {
                    "name": "E5",
                    "midi": 76,
                    "time": 75.28059000000036,
                    "velocity": 1,
                    "duration": 0.06237000000000137
                },
                {
                    "name": "E5",
                    "midi": 76,
                    "time": 75.34296000000036,
                    "velocity": 1,
                    "duration": 0.06237000000000137
                },
                {
                    "name": "E5",
                    "midi": 76,
                    "time": 75.40533000000036,
                    "velocity": 1,
                    "duration": 0.06237000000000137
                },
                {
                    "name": "E5",
                    "midi": 76,
                    "time": 75.46770000000036,
                    "velocity": 1,
                    "duration": 0.06237000000000137
                },
                {
                    "name": "E5",
                    "midi": 76,
                    "time": 75.53007000000036,
                    "velocity": 1,
                    "duration": 0.06237000000000137
                },
                {
                    "name": "E5",
                    "midi": 76,
                    "time": 75.59244000000037,
                    "velocity": 1,
                    "duration": 0.06237000000000137
                },
                {
                    "name": "E5",
                    "midi": 76,
                    "time": 75.65481000000037,
                    "velocity": 1,
                    "duration": 0.06237000000000137
                },
                {
                    "name": "E5",
                    "midi": 76,
                    "time": 75.71718000000037,
                    "velocity": 1,
                    "duration": 0.06237000000000137
                },
                {
                    "name": "E5",
                    "midi": 76,
                    "time": 75.77955000000037,
                    "velocity": 1,
                    "duration": 0.06237000000000137
                },
                {
                    "name": "G5",
                    "midi": 79,
                    "time": 75.84192000000037,
                    "velocity": 1,
                    "duration": 0.49895999999999674
                },
                {
                    "name": "B4",
                    "midi": 71,
                    "time": 75.84192000000037,
                    "velocity": 1,
                    "duration": 0.49895999999999674
                },
                {
                    "name": "C#4",
                    "midi": 61,
                    "time": 75.84192000000037,
                    "velocity": 1,
                    "duration": 0.49895999999999674
                },
                {
                    "name": "G3",
                    "midi": 55,
                    "time": 79.33464000000036,
                    "velocity": 1,
                    "duration": 0.12474000000000274
                },
                {
                    "name": "A3",
                    "midi": 57,
                    "time": 79.45938000000037,
                    "velocity": 1,
                    "duration": 0.12474000000000274
                },
                {
                    "name": "G3",
                    "midi": 55,
                    "time": 79.58412000000037,
                    "velocity": 1,
                    "duration": 0.12474000000000274
                },
                {
                    "name": "A3",
                    "midi": 57,
                    "time": 79.70886000000037,
                    "velocity": 1,
                    "duration": 0.12474000000000274
                },
                {
                    "name": "A#3",
                    "midi": 58,
                    "time": 79.83360000000037,
                    "velocity": 1,
                    "duration": 0.12474000000000274
                },
                {
                    "name": "C4",
                    "midi": 60,
                    "time": 79.95834000000038,
                    "velocity": 1,
                    "duration": 0.12474000000000274
                },
                {
                    "name": "A#3",
                    "midi": 58,
                    "time": 80.08308000000038,
                    "velocity": 1,
                    "duration": 0.12474000000000274
                },
                {
                    "name": "C4",
                    "midi": 60,
                    "time": 80.20782000000038,
                    "velocity": 1,
                    "duration": 0.12474000000000274
                },
                {
                    "name": "A#3",
                    "midi": 58,
                    "time": 80.33256000000038,
                    "velocity": 1,
                    "duration": 0.12474000000000274
                },
                {
                    "name": "C4",
                    "midi": 60,
                    "time": 80.45730000000039,
                    "velocity": 1,
                    "duration": 0.12474000000000274
                },
                {
                    "name": "A#3",
                    "midi": 58,
                    "time": 80.58204000000039,
                    "velocity": 1,
                    "duration": 0.12474000000000274
                },
                {
                    "name": "C4",
                    "midi": 60,
                    "time": 80.70678000000039,
                    "velocity": 1,
                    "duration": 0.12474000000000274
                },
                {
                    "name": "A#3",
                    "midi": 58,
                    "time": 80.8315200000004,
                    "velocity": 1,
                    "duration": 0.12474000000000274
                },
                {
                    "name": "C4",
                    "midi": 60,
                    "time": 80.9562600000004,
                    "velocity": 1,
                    "duration": 0.12474000000000274
                },
                {
                    "name": "A#3",
                    "midi": 58,
                    "time": 81.0810000000004,
                    "velocity": 1,
                    "duration": 0.12474000000000274
                },
                {
                    "name": "A3",
                    "midi": 57,
                    "time": 81.2057400000004,
                    "velocity": 1,
                    "duration": 0.12474000000000274
                },
                {
                    "name": "G3",
                    "midi": 55,
                    "time": 81.3304800000004,
                    "velocity": 1,
                    "duration": 0.12474000000000274
                },
                {
                    "name": "A3",
                    "midi": 57,
                    "time": 81.45522000000041,
                    "velocity": 1,
                    "duration": 0.12474000000000274
                },
                {
                    "name": "G3",
                    "midi": 55,
                    "time": 81.57996000000041,
                    "velocity": 1,
                    "duration": 0.12474000000000274
                },
                {
                    "name": "A3",
                    "midi": 57,
                    "time": 81.70470000000041,
                    "velocity": 1,
                    "duration": 0.12474000000000274
                },
                {
                    "name": "A#3",
                    "midi": 58,
                    "time": 81.82944000000042,
                    "velocity": 1,
                    "duration": 0.12474000000000274
                },
                {
                    "name": "C4",
                    "midi": 60,
                    "time": 81.95418000000042,
                    "velocity": 1,
                    "duration": 0.12474000000000274
                },
                {
                    "name": "A#3",
                    "midi": 58,
                    "time": 82.07892000000042,
                    "velocity": 1,
                    "duration": 0.12474000000000274
                },
                {
                    "name": "C4",
                    "midi": 60,
                    "time": 82.20366000000043,
                    "velocity": 1,
                    "duration": 0.12474000000000274
                },
                {
                    "name": "A#3",
                    "midi": 58,
                    "time": 82.32840000000043,
                    "velocity": 1,
                    "duration": 0.12474000000000274
                },
                {
                    "name": "C4",
                    "midi": 60,
                    "time": 82.45314000000043,
                    "velocity": 1,
                    "duration": 0.12474000000000274
                },
                {
                    "name": "A#3",
                    "midi": 58,
                    "time": 82.57788000000043,
                    "velocity": 1,
                    "duration": 0.12474000000000274
                },
                {
                    "name": "C4",
                    "midi": 60,
                    "time": 82.70262000000044,
                    "velocity": 1,
                    "duration": 0.12474000000000274
                },
                {
                    "name": "A#3",
                    "midi": 58,
                    "time": 82.82736000000044,
                    "velocity": 1,
                    "duration": 0.12474000000000274
                },
                {
                    "name": "C4",
                    "midi": 60,
                    "time": 82.95210000000044,
                    "velocity": 1,
                    "duration": 0.12474000000000274
                },
                {
                    "name": "A#3",
                    "midi": 58,
                    "time": 83.07684000000044,
                    "velocity": 1,
                    "duration": 0.12474000000000274
                },
                {
                    "name": "A3",
                    "midi": 57,
                    "time": 83.20158000000045,
                    "velocity": 1,
                    "duration": 0.12474000000000274
                },
                {
                    "name": "G3",
                    "midi": 55,
                    "time": 83.32632000000045,
                    "velocity": 1,
                    "duration": 0.12474000000000274
                },
                {
                    "name": "A3",
                    "midi": 57,
                    "time": 83.45106000000045,
                    "velocity": 1,
                    "duration": 0.12474000000000274
                },
                {
                    "name": "G3",
                    "midi": 55,
                    "time": 83.57580000000046,
                    "velocity": 1,
                    "duration": 0.12474000000000274
                },
                {
                    "name": "A3",
                    "midi": 57,
                    "time": 83.70054000000046,
                    "velocity": 1,
                    "duration": 0.12474000000000274
                },
                {
                    "name": "A#3",
                    "midi": 58,
                    "time": 83.82528000000046,
                    "velocity": 1,
                    "duration": 0.12474000000000274
                },
                {
                    "name": "C4",
                    "midi": 60,
                    "time": 83.95002000000046,
                    "velocity": 1,
                    "duration": 0.12474000000000274
                },
                {
                    "name": "A#3",
                    "midi": 58,
                    "time": 84.07476000000047,
                    "velocity": 1,
                    "duration": 0.12474000000000274
                },
                {
                    "name": "C4",
                    "midi": 60,
                    "time": 84.19950000000047,
                    "velocity": 1,
                    "duration": 0.12474000000000274
                },
                {
                    "name": "A#3",
                    "midi": 58,
                    "time": 84.32424000000047,
                    "velocity": 1,
                    "duration": 0.12474000000000274
                },
                {
                    "name": "C4",
                    "midi": 60,
                    "time": 84.44898000000047,
                    "velocity": 1,
                    "duration": 0.12474000000000274
                },
                {
                    "name": "A#3",
                    "midi": 58,
                    "time": 84.57372000000048,
                    "velocity": 1,
                    "duration": 0.12474000000000274
                },
                {
                    "name": "A3",
                    "midi": 57,
                    "time": 84.69846000000048,
                    "velocity": 1,
                    "duration": 0.12474000000000274
                },
                {
                    "name": "G3",
                    "midi": 55,
                    "time": 84.82320000000048,
                    "velocity": 1,
                    "duration": 0.12474000000000274
                },
                {
                    "name": "A3",
                    "midi": 57,
                    "time": 84.94794000000049,
                    "velocity": 1,
                    "duration": 0.12474000000000274
                },
                {
                    "name": "G3",
                    "midi": 55,
                    "time": 85.07268000000049,
                    "velocity": 1,
                    "duration": 0.12474000000000274
                },
                {
                    "name": "A3",
                    "midi": 57,
                    "time": 85.19742000000049,
                    "velocity": 1,
                    "duration": 0.12474000000000274
                },
                {
                    "name": "G3",
                    "midi": 55,
                    "time": 85.3221600000005,
                    "velocity": 1,
                    "duration": 0.12474000000000274
                },
                {
                    "name": "A3",
                    "midi": 57,
                    "time": 85.4469000000005,
                    "velocity": 1,
                    "duration": 0.12474000000000274
                },
                {
                    "name": "G3",
                    "midi": 55,
                    "time": 85.5716400000005,
                    "velocity": 1,
                    "duration": 0.12474000000000274
                },
                {
                    "name": "A3",
                    "midi": 57,
                    "time": 85.6963800000005,
                    "velocity": 1,
                    "duration": 0.12474000000000274
                },
                {
                    "name": "E3",
                    "midi": 52,
                    "time": 85.8211200000005,
                    "velocity": 1,
                    "duration": 0.9979199999999935
                },
                {
                    "name": "E4",
                    "midi": 64,
                    "time": 89.8128000000005,
                    "velocity": 1,
                    "duration": 0.49895999999999674
                },
                {
                    "name": "D4",
                    "midi": 62,
                    "time": 90.31176000000049,
                    "velocity": 1,
                    "duration": 0.49895999999999674
                },
                {
                    "name": "B3",
                    "midi": 59,
                    "time": 90.81072000000049,
                    "velocity": 1,
                    "duration": 0.49895999999999674
                },
                {
                    "name": "D4",
                    "midi": 62,
                    "time": 91.30968000000048,
                    "velocity": 1,
                    "duration": 0.49895999999999674
                },
                {
                    "name": "E4",
                    "midi": 64,
                    "time": 91.80864000000048,
                    "velocity": 1,
                    "duration": 0.49895999999999674
                },
                {
                    "name": "E5",
                    "midi": 76,
                    "time": 93.80448000000048,
                    "velocity": 1,
                    "duration": 0.49895999999999674
                },
                {
                    "name": "D5",
                    "midi": 74,
                    "time": 94.30344000000048,
                    "velocity": 1,
                    "duration": 0.49895999999999674
                },
                {
                    "name": "B4",
                    "midi": 71,
                    "time": 94.80240000000047,
                    "velocity": 1,
                    "duration": 0.49895999999999674
                },
                {
                    "name": "D5",
                    "midi": 74,
                    "time": 95.30136000000047,
                    "velocity": 1,
                    "duration": 0.49895999999999674
                },
                {
                    "name": "E5",
                    "midi": 76,
                    "time": 95.80032000000047,
                    "velocity": 1,
                    "duration": 0.49895999999999674
                },
                {
                    "name": "D5",
                    "midi": 74,
                    "time": 96.29928000000046,
                    "velocity": 1,
                    "duration": 0.49895999999999674
                },
                {
                    "name": "B4",
                    "midi": 71,
                    "time": 96.79824000000046,
                    "velocity": 1,
                    "duration": 0.49895999999999674
                },
                {
                    "name": "D5",
                    "midi": 74,
                    "time": 97.29720000000046,
                    "velocity": 1,
                    "duration": 0.49895999999999674
                },
                {
                    "name": "E5",
                    "midi": 76,
                    "time": 97.79616000000046,
                    "velocity": 1,
                    "duration": 0.49895999999999674
                },
                {
                    "name": "A#4",
                    "midi": 70,
                    "time": 99.29304000000045,
                    "velocity": 1,
                    "duration": 0.49895999999999674
                },
                {
                    "name": "E4",
                    "midi": 64,
                    "time": 99.79200000000044,
                    "velocity": 1,
                    "duration": 0.49895999999999674
                },
                {
                    "name": "A#4",
                    "midi": 70,
                    "time": 101.28888000000043,
                    "velocity": 1,
                    "duration": 0.49895999999999674
                },
                {
                    "name": "E4",
                    "midi": 64,
                    "time": 101.78784000000043,
                    "velocity": 1,
                    "duration": 0.49895999999999674
                },
                {
                    "name": "A#4",
                    "midi": 70,
                    "time": 103.28472000000042,
                    "velocity": 1,
                    "duration": 0.49895999999999674
                },
                {
                    "name": "E4",
                    "midi": 64,
                    "time": 103.78368000000042,
                    "velocity": 1,
                    "duration": 0.49895999999999674
                },
                {
                    "name": "A3",
                    "midi": 57,
                    "time": 107.77536000000042,
                    "velocity": 1,
                    "duration": 0.49895999999999674
                },
                {
                    "name": "E4",
                    "midi": 64,
                    "time": 108.27432000000042,
                    "velocity": 1,
                    "duration": 0.9979199999999935
                },
                {
                    "name": "D4",
                    "midi": 62,
                    "time": 109.27224000000041,
                    "velocity": 1,
                    "duration": 0.1663199999999989
                },
                {
                    "name": "E4",
                    "midi": 64,
                    "time": 109.43856000000041,
                    "velocity": 1,
                    "duration": 0.1663199999999989
                },
                {
                    "name": "F4",
                    "midi": 65,
                    "time": 109.6048800000004,
                    "velocity": 1,
                    "duration": 0.1663199999999989
                },
                {
                    "name": "E4",
                    "midi": 64,
                    "time": 109.7712000000004,
                    "velocity": 1,
                    "duration": 0.49895999999999674
                },
                {
                    "name": "D4",
                    "midi": 62,
                    "time": 110.2701600000004,
                    "velocity": 1,
                    "duration": 0.24948000000000548
                },
                {
                    "name": "C4",
                    "midi": 60,
                    "time": 110.51964000000041,
                    "velocity": 1,
                    "duration": 0.24948000000000548
                },
                {
                    "name": "A#3",
                    "midi": 58,
                    "time": 110.76912000000041,
                    "velocity": 1,
                    "duration": 0.49895999999999674
                },
                {
                    "name": "C4",
                    "midi": 60,
                    "time": 111.26808000000041,
                    "velocity": 1,
                    "duration": 0.24948000000000548
                },
                {
                    "name": "D4",
                    "midi": 62,
                    "time": 111.51756000000042,
                    "velocity": 1,
                    "duration": 0.24948000000000548
                },
                {
                    "name": "E4",
                    "midi": 64,
                    "time": 111.76704000000042,
                    "velocity": 1,
                    "duration": 1.4968800000000044
                },
                {
                    "name": "D4",
                    "midi": 62,
                    "time": 113.26392000000043,
                    "velocity": 1,
                    "duration": 0.1663199999999989
                },
                {
                    "name": "E4",
                    "midi": 64,
                    "time": 113.43024000000042,
                    "velocity": 1,
                    "duration": 0.1663199999999989
                },
                {
                    "name": "F4",
                    "midi": 65,
                    "time": 113.59656000000042,
                    "velocity": 1,
                    "duration": 0.1663199999999989
                },
                {
                    "name": "E4",
                    "midi": 64,
                    "time": 113.76288000000042,
                    "velocity": 1,
                    "duration": 0.49895999999999674
                },
                {
                    "name": "D4",
                    "midi": 62,
                    "time": 114.26184000000042,
                    "velocity": 1,
                    "duration": 0.24948000000000548
                },
                {
                    "name": "C4",
                    "midi": 60,
                    "time": 114.51132000000042,
                    "velocity": 1,
                    "duration": 0.24948000000000548
                },
                {
                    "name": "A#3",
                    "midi": 58,
                    "time": 114.76080000000043,
                    "velocity": 1,
                    "duration": 0.49895999999999674
                },
                {
                    "name": "C4",
                    "midi": 60,
                    "time": 115.25976000000043,
                    "velocity": 1,
                    "duration": 0.24948000000000548
                },
                {
                    "name": "D4",
                    "midi": 62,
                    "time": 115.50924000000043,
                    "velocity": 1,
                    "duration": 0.24948000000000548
                },
                {
                    "name": "D4",
                    "midi": 62,
                    "time": 115.75872000000044,
                    "velocity": 1,
                    "duration": 1.247399999999999
                },
                {
                    "name": "A#3",
                    "midi": 58,
                    "time": 117.00612000000044,
                    "velocity": 1,
                    "duration": 0.24948000000000548
                },
                {
                    "name": "C4",
                    "midi": 60,
                    "time": 117.25560000000044,
                    "velocity": 1,
                    "duration": 0.24948000000000548
                },
                {
                    "name": "D4",
                    "midi": 62,
                    "time": 117.50508000000045,
                    "velocity": 1,
                    "duration": 0.24948000000000548
                },
                {
                    "name": "D4",
                    "midi": 62,
                    "time": 117.75456000000045,
                    "velocity": 1,
                    "duration": 0.49895999999999674
                },
                {
                    "name": "A#3",
                    "midi": 58,
                    "time": 118.25352000000045,
                    "velocity": 1,
                    "duration": 0.24948000000000548
                },
                {
                    "name": "A3",
                    "midi": 57,
                    "time": 118.50300000000045,
                    "velocity": 1,
                    "duration": 0.24948000000000548
                },
                {
                    "name": "F3",
                    "midi": 53,
                    "time": 118.75248000000046,
                    "velocity": 1,
                    "duration": 0.49895999999999674
                },
                {
                    "name": "G3",
                    "midi": 55,
                    "time": 119.25144000000046,
                    "velocity": 1,
                    "duration": 0.49895999999999674
                },
                {
                    "name": "A3",
                    "midi": 57,
                    "time": 119.75040000000045,
                    "velocity": 1,
                    "duration": 1.247399999999999
                },
                {
                    "name": "F3",
                    "midi": 53,
                    "time": 120.99780000000045,
                    "velocity": 1,
                    "duration": 0.24948000000000548
                },
                {
                    "name": "G3",
                    "midi": 55,
                    "time": 121.24728000000046,
                    "velocity": 1,
                    "duration": 0.24948000000000548
                },
                {
                    "name": "A3",
                    "midi": 57,
                    "time": 121.49676000000046,
                    "velocity": 1,
                    "duration": 0.24948000000000548
                },
                {
                    "name": "A3",
                    "midi": 57,
                    "time": 121.74624000000047,
                    "velocity": 1,
                    "duration": 1.4968800000000044
                },
                {
                    "name": "F3",
                    "midi": 53,
                    "time": 123.24312000000047,
                    "velocity": 1,
                    "duration": 0.49895999999999674
                },
                {
                    "name": "A4",
                    "midi": 69,
                    "time": 123.74208000000047,
                    "velocity": 1,
                    "duration": 0.12474000000000274
                },
                {
                    "name": "F4",
                    "midi": 65,
                    "time": 123.86682000000047,
                    "velocity": 1,
                    "duration": 0.12474000000000274
                },
                {
                    "name": "A4",
                    "midi": 69,
                    "time": 123.99156000000048,
                    "velocity": 1,
                    "duration": 0.12474000000000274
                },
                {
                    "name": "F4",
                    "midi": 65,
                    "time": 124.11630000000048,
                    "velocity": 1,
                    "duration": 0.12474000000000274
                },
                {
                    "name": "A4",
                    "midi": 69,
                    "time": 124.24104000000048,
                    "velocity": 1,
                    "duration": 0.12474000000000274
                },
                {
                    "name": "F4",
                    "midi": 65,
                    "time": 124.36578000000048,
                    "velocity": 1,
                    "duration": 0.12474000000000274
                },
                {
                    "name": "A4",
                    "midi": 69,
                    "time": 124.49052000000049,
                    "velocity": 1,
                    "duration": 0.12474000000000274
                },
                {
                    "name": "F4",
                    "midi": 65,
                    "time": 124.61526000000049,
                    "velocity": 1,
                    "duration": 0.12474000000000274
                },
                {
                    "name": "A4",
                    "midi": 69,
                    "time": 124.74000000000049,
                    "velocity": 1,
                    "duration": 0.12474000000000274
                },
                {
                    "name": "F4",
                    "midi": 65,
                    "time": 124.8647400000005,
                    "velocity": 1,
                    "duration": 0.12474000000000274
                },
                {
                    "name": "A4",
                    "midi": 69,
                    "time": 124.9894800000005,
                    "velocity": 1,
                    "duration": 0.12474000000000274
                },
                {
                    "name": "F4",
                    "midi": 65,
                    "time": 125.1142200000005,
                    "velocity": 1,
                    "duration": 0.12474000000000274
                },
                {
                    "name": "A4",
                    "midi": 69,
                    "time": 125.2389600000005,
                    "velocity": 1,
                    "duration": 0.12474000000000274
                },
                {
                    "name": "F4",
                    "midi": 65,
                    "time": 125.3637000000005,
                    "velocity": 1,
                    "duration": 0.12474000000000274
                },
                {
                    "name": "A4",
                    "midi": 69,
                    "time": 125.48844000000051,
                    "velocity": 1,
                    "duration": 0.12474000000000274
                },
                {
                    "name": "F4",
                    "midi": 65,
                    "time": 125.61318000000051,
                    "velocity": 1,
                    "duration": 0.12474000000000274
                },
                {
                    "name": "A4",
                    "midi": 69,
                    "time": 125.73792000000051,
                    "velocity": 1,
                    "duration": 0.12474000000000274
                },
                {
                    "name": "F4",
                    "midi": 65,
                    "time": 125.86266000000052,
                    "velocity": 1,
                    "duration": 0.12474000000000274
                },
                {
                    "name": "A4",
                    "midi": 69,
                    "time": 125.98740000000052,
                    "velocity": 1,
                    "duration": 0.12474000000000274
                },
                {
                    "name": "F4",
                    "midi": 65,
                    "time": 126.11214000000052,
                    "velocity": 1,
                    "duration": 0.12474000000000274
                },
                {
                    "name": "A4",
                    "midi": 69,
                    "time": 126.23688000000053,
                    "velocity": 1,
                    "duration": 0.12474000000000274
                },
                {
                    "name": "F4",
                    "midi": 65,
                    "time": 126.36162000000053,
                    "velocity": 1,
                    "duration": 0.12474000000000274
                },
                {
                    "name": "A4",
                    "midi": 69,
                    "time": 126.48636000000053,
                    "velocity": 1,
                    "duration": 0.12474000000000274
                },
                {
                    "name": "F4",
                    "midi": 65,
                    "time": 126.61110000000053,
                    "velocity": 1,
                    "duration": 0.12474000000000274
                },
                {
                    "name": "A4",
                    "midi": 69,
                    "time": 126.73584000000054,
                    "velocity": 1,
                    "duration": 0.12474000000000274
                },
                {
                    "name": "F4",
                    "midi": 65,
                    "time": 126.86058000000054,
                    "velocity": 1,
                    "duration": 0.12474000000000274
                },
                {
                    "name": "A4",
                    "midi": 69,
                    "time": 126.98532000000054,
                    "velocity": 1,
                    "duration": 0.12474000000000274
                },
                {
                    "name": "F4",
                    "midi": 65,
                    "time": 127.11006000000054,
                    "velocity": 1,
                    "duration": 0.12474000000000274
                },
                {
                    "name": "G4",
                    "midi": 67,
                    "time": 127.23480000000055,
                    "velocity": 1,
                    "duration": 0.12474000000000274
                },
                {
                    "name": "E4",
                    "midi": 64,
                    "time": 127.35954000000055,
                    "velocity": 1,
                    "duration": 0.12474000000000274
                },
                {
                    "name": "G4",
                    "midi": 67,
                    "time": 127.48428000000055,
                    "velocity": 1,
                    "duration": 0.12474000000000274
                },
                {
                    "name": "E4",
                    "midi": 64,
                    "time": 127.60902000000056,
                    "velocity": 1,
                    "duration": 0.12474000000000274
                },
                {
                    "name": "E5",
                    "midi": 76,
                    "time": 127.73376000000056,
                    "velocity": 1,
                    "duration": 1.4968800000000044
                },
                {
                    "name": "D5",
                    "midi": 74,
                    "time": 129.23064000000056,
                    "velocity": 1,
                    "duration": 0.49896000000001095
                },
                {
                    "name": "C5",
                    "midi": 72,
                    "time": 129.72960000000057,
                    "velocity": 1,
                    "duration": 0.49896000000001095
                },
                {
                    "name": "A4",
                    "midi": 69,
                    "time": 130.22856000000058,
                    "velocity": 1,
                    "duration": 0.9979199999999935
                },
                {
                    "name": "G4",
                    "midi": 67,
                    "time": 131.22648000000058,
                    "velocity": 1,
                    "duration": 0.49896000000001095
                },
                {
                    "name": "A4",
                    "midi": 69,
                    "time": 131.7254400000006,
                    "velocity": 1,
                    "duration": 0.12474000000000274
                },
                {
                    "name": "F4",
                    "midi": 65,
                    "time": 131.8501800000006,
                    "velocity": 1,
                    "duration": 0.12474000000000274
                },
                {
                    "name": "A4",
                    "midi": 69,
                    "time": 131.9749200000006,
                    "velocity": 1,
                    "duration": 0.12474000000000274
                },
                {
                    "name": "F4",
                    "midi": 65,
                    "time": 132.0996600000006,
                    "velocity": 1,
                    "duration": 0.12474000000000274
                },
                {
                    "name": "A4",
                    "midi": 69,
                    "time": 132.2244000000006,
                    "velocity": 1,
                    "duration": 0.12474000000000274
                },
                {
                    "name": "F4",
                    "midi": 65,
                    "time": 132.3491400000006,
                    "velocity": 1,
                    "duration": 0.12474000000000274
                },
                {
                    "name": "A4",
                    "midi": 69,
                    "time": 132.4738800000006,
                    "velocity": 1,
                    "duration": 0.12474000000000274
                },
                {
                    "name": "F4",
                    "midi": 65,
                    "time": 132.5986200000006,
                    "velocity": 1,
                    "duration": 0.12474000000000274
                },
                {
                    "name": "A4",
                    "midi": 69,
                    "time": 132.7233600000006,
                    "velocity": 1,
                    "duration": 0.12474000000000274
                },
                {
                    "name": "F4",
                    "midi": 65,
                    "time": 132.8481000000006,
                    "velocity": 1,
                    "duration": 0.12474000000000274
                },
                {
                    "name": "A4",
                    "midi": 69,
                    "time": 132.97284000000062,
                    "velocity": 1,
                    "duration": 0.12474000000000274
                },
                {
                    "name": "F4",
                    "midi": 65,
                    "time": 133.09758000000062,
                    "velocity": 1,
                    "duration": 0.12474000000000274
                },
                {
                    "name": "A4",
                    "midi": 69,
                    "time": 133.22232000000062,
                    "velocity": 1,
                    "duration": 0.12474000000000274
                },
                {
                    "name": "F4",
                    "midi": 65,
                    "time": 133.34706000000062,
                    "velocity": 1,
                    "duration": 0.12474000000000274
                },
                {
                    "name": "A4",
                    "midi": 69,
                    "time": 133.47180000000063,
                    "velocity": 1,
                    "duration": 0.12474000000000274
                },
                {
                    "name": "F4",
                    "midi": 65,
                    "time": 133.59654000000063,
                    "velocity": 1,
                    "duration": 0.12474000000000274
                },
                {
                    "name": "A4",
                    "midi": 69,
                    "time": 133.72128000000063,
                    "velocity": 1,
                    "duration": 0.12474000000000274
                },
                {
                    "name": "F4",
                    "midi": 65,
                    "time": 133.84602000000064,
                    "velocity": 1,
                    "duration": 0.12474000000000274
                },
                {
                    "name": "A4",
                    "midi": 69,
                    "time": 133.97076000000064,
                    "velocity": 1,
                    "duration": 0.12474000000000274
                },
                {
                    "name": "F4",
                    "midi": 65,
                    "time": 134.09550000000064,
                    "velocity": 1,
                    "duration": 0.12474000000000274
                },
                {
                    "name": "A4",
                    "midi": 69,
                    "time": 134.22024000000064,
                    "velocity": 1,
                    "duration": 0.12474000000000274
                },
                {
                    "name": "F4",
                    "midi": 65,
                    "time": 134.34498000000065,
                    "velocity": 1,
                    "duration": 0.12474000000000274
                },
                {
                    "name": "A4",
                    "midi": 69,
                    "time": 134.46972000000065,
                    "velocity": 1,
                    "duration": 0.12474000000000274
                },
                {
                    "name": "F4",
                    "midi": 65,
                    "time": 134.59446000000065,
                    "velocity": 1,
                    "duration": 0.12474000000000274
                },
                {
                    "name": "A4",
                    "midi": 69,
                    "time": 134.71920000000065,
                    "velocity": 1,
                    "duration": 0.12474000000000274
                },
                {
                    "name": "F4",
                    "midi": 65,
                    "time": 134.84394000000066,
                    "velocity": 1,
                    "duration": 0.12474000000000274
                },
                {
                    "name": "A4",
                    "midi": 69,
                    "time": 134.96868000000066,
                    "velocity": 1,
                    "duration": 0.12474000000000274
                },
                {
                    "name": "F4",
                    "midi": 65,
                    "time": 135.09342000000066,
                    "velocity": 1,
                    "duration": 0.12474000000000274
                },
                {
                    "name": "A4",
                    "midi": 69,
                    "time": 135.21816000000067,
                    "velocity": 1,
                    "duration": 0.12474000000000274
                },
                {
                    "name": "F4",
                    "midi": 65,
                    "time": 135.34290000000067,
                    "velocity": 1,
                    "duration": 0.12474000000000274
                },
                {
                    "name": "A4",
                    "midi": 69,
                    "time": 135.46764000000067,
                    "velocity": 1,
                    "duration": 0.12474000000000274
                },
                {
                    "name": "F4",
                    "midi": 65,
                    "time": 135.59238000000067,
                    "velocity": 1,
                    "duration": 0.12474000000000274
                },
                {
                    "name": "F3",
                    "midi": 53,
                    "time": 135.71712000000068,
                    "velocity": 1,
                    "duration": 1.4968800000000044
                },
                {
                    "name": "D#3",
                    "midi": 51,
                    "time": 137.21400000000068,
                    "velocity": 1,
                    "duration": 0.49896000000001095
                },
                {
                    "name": "F3",
                    "midi": 53,
                    "time": 137.7129600000007,
                    "velocity": 1,
                    "duration": 1.4968800000000044
                },
                {
                    "name": "D#3",
                    "midi": 51,
                    "time": 139.2098400000007,
                    "velocity": 1,
                    "duration": 0.49896000000001095
                },
                {
                    "name": "F3",
                    "midi": 53,
                    "time": 139.7088000000007,
                    "velocity": 1,
                    "duration": 0.9979199999999935
                },
                {
                    "name": "G3",
                    "midi": 55,
                    "time": 140.7067200000007,
                    "velocity": 1,
                    "duration": 0.49896000000001095
                },
                {
                    "name": "A3",
                    "midi": 57,
                    "time": 141.2056800000007,
                    "velocity": 1,
                    "duration": 0.49896000000001095
                },
                {
                    "name": "F3",
                    "midi": 53,
                    "time": 141.70464000000072,
                    "velocity": 1,
                    "duration": 1.4968800000000044
                },
                {
                    "name": "D#3",
                    "midi": 51,
                    "time": 143.20152000000073,
                    "velocity": 1,
                    "duration": 0.49896000000001095
                },
                {
                    "name": "F3",
                    "midi": 53,
                    "time": 143.70048000000074,
                    "velocity": 1,
                    "duration": 0.9979199999999935
                },
                {
                    "name": "D4",
                    "midi": 62,
                    "time": 144.69840000000073,
                    "velocity": 1,
                    "duration": 0.49896000000001095
                },
                {
                    "name": "F3",
                    "midi": 53,
                    "time": 145.19736000000074,
                    "velocity": 1,
                    "duration": 0.49896000000001095
                },
                {
                    "name": "D#3",
                    "midi": 51,
                    "time": 145.69632000000075,
                    "velocity": 1,
                    "duration": 1.4968800000000044
                },
                {
                    "name": "D3",
                    "midi": 50,
                    "time": 147.19320000000076,
                    "velocity": 1,
                    "duration": 0.49896000000001095
                },
                {
                    "name": "D#3",
                    "midi": 51,
                    "time": 147.69216000000077,
                    "velocity": 1,
                    "duration": 1.4968800000000044
                },
                {
                    "name": "D3",
                    "midi": 50,
                    "time": 149.18904000000077,
                    "velocity": 1,
                    "duration": 0.49896000000001095
                },
                {
                    "name": "D#3",
                    "midi": 51,
                    "time": 149.68800000000078,
                    "velocity": 1,
                    "duration": 0.9979199999999935
                },
                {
                    "name": "F3",
                    "midi": 53,
                    "time": 150.68592000000078,
                    "velocity": 1,
                    "duration": 0.49896000000001095
                },
                {
                    "name": "D#3",
                    "midi": 51,
                    "time": 151.1848800000008,
                    "velocity": 1,
                    "duration": 0.49896000000001095
                },
                {
                    "name": "A#4",
                    "midi": 70,
                    "time": 151.6838400000008,
                    "velocity": 1,
                    "duration": 0.49896000000001095
                },
                {
                    "name": "G#4",
                    "midi": 68,
                    "time": 152.1828000000008,
                    "velocity": 1,
                    "duration": 0.24948000000000548
                },
                {
                    "name": "A#4",
                    "midi": 70,
                    "time": 152.43228000000082,
                    "velocity": 1,
                    "duration": 0.24948000000000548
                },
                {
                    "name": "F4",
                    "midi": 65,
                    "time": 152.68176000000082,
                    "velocity": 1,
                    "duration": 0.49896000000001095
                },
                {
                    "name": "D#4",
                    "midi": 63,
                    "time": 153.18072000000083,
                    "velocity": 1,
                    "duration": 0.49896000000001095
                },
                {
                    "name": "A#4",
                    "midi": 70,
                    "time": 153.67968000000084,
                    "velocity": 1,
                    "duration": 0.24948000000000548
                },
                {
                    "name": "G#4",
                    "midi": 68,
                    "time": 153.92916000000085,
                    "velocity": 1,
                    "duration": 0.24948000000000548
                },
                {
                    "name": "G#4",
                    "midi": 68,
                    "time": 154.17864000000085,
                    "velocity": 1,
                    "duration": 0.24948000000000548
                },
                {
                    "name": "A#4",
                    "midi": 70,
                    "time": 154.42812000000086,
                    "velocity": 1,
                    "duration": 0.24948000000000548
                },
                {
                    "name": "F4",
                    "midi": 65,
                    "time": 154.67760000000087,
                    "velocity": 1,
                    "duration": 0.49896000000001095
                },
                {
                    "name": "D#4",
                    "midi": 63,
                    "time": 155.17656000000088,
                    "velocity": 1,
                    "duration": 0.49896000000001095
                },
                {
                    "name": "A#4",
                    "midi": 70,
                    "time": 155.6755200000009,
                    "velocity": 1,
                    "duration": 0.9979199999999935
                },
                {
                    "name": "C#4",
                    "midi": 61,
                    "time": 156.67344000000088,
                    "velocity": 1,
                    "duration": 0.9979199999999935
                },
                {
                    "name": "E4",
                    "midi": 64,
                    "time": 157.67136000000087,
                    "velocity": 1,
                    "duration": 0.49896000000001095
                },
                {
                    "name": "G#3",
                    "midi": 56,
                    "time": 157.67136000000087,
                    "velocity": 1,
                    "duration": 0.49896000000001095
                },
                {
                    "name": "F#4",
                    "midi": 66,
                    "time": 158.17032000000088,
                    "velocity": 1,
                    "duration": 0.49896000000001095
                },
                {
                    "name": "A3",
                    "midi": 57,
                    "time": 158.17032000000088,
                    "velocity": 1,
                    "duration": 0.49896000000001095
                },
                {
                    "name": "B3",
                    "midi": 59,
                    "time": 158.6692800000009,
                    "velocity": 1,
                    "duration": 0.49896000000001095
                },
                {
                    "name": "G#4",
                    "midi": 68,
                    "time": 158.6692800000009,
                    "velocity": 1,
                    "duration": 0.49896000000001095
                },
                {
                    "name": "F#4",
                    "midi": 66,
                    "time": 159.1682400000009,
                    "velocity": 1,
                    "duration": 0.49896000000001095
                },
                {
                    "name": "A3",
                    "midi": 57,
                    "time": 159.1682400000009,
                    "velocity": 1,
                    "duration": 0.49896000000001095
                },
                {
                    "name": "G#3",
                    "midi": 56,
                    "time": 159.66720000000092,
                    "velocity": 1,
                    "duration": 0.49896000000001095
                },
                {
                    "name": "E4",
                    "midi": 64,
                    "time": 159.66720000000092,
                    "velocity": 1,
                    "duration": 0.49896000000001095
                },
                {
                    "name": "A3",
                    "midi": 57,
                    "time": 160.16616000000093,
                    "velocity": 1,
                    "duration": 0.49896000000001095
                },
                {
                    "name": "F#4",
                    "midi": 66,
                    "time": 160.16616000000093,
                    "velocity": 1,
                    "duration": 0.49896000000001095
                },
                {
                    "name": "G#4",
                    "midi": 68,
                    "time": 160.66512000000094,
                    "velocity": 1,
                    "duration": 0.49896000000001095
                },
                {
                    "name": "B3",
                    "midi": 59,
                    "time": 160.66512000000094,
                    "velocity": 1,
                    "duration": 0.49896000000001095
                },
                {
                    "name": "A3",
                    "midi": 57,
                    "time": 161.16408000000095,
                    "velocity": 1,
                    "duration": 0.49896000000001095
                },
                {
                    "name": "F#4",
                    "midi": 66,
                    "time": 161.16408000000095,
                    "velocity": 1,
                    "duration": 0.49896000000001095
                },
                {
                    "name": "G#3",
                    "midi": 56,
                    "time": 161.66304000000096,
                    "velocity": 1,
                    "duration": 0.49896000000001095
                },
                {
                    "name": "E4",
                    "midi": 64,
                    "time": 161.66304000000096,
                    "velocity": 1,
                    "duration": 0.49896000000001095
                },
                {
                    "name": "A3",
                    "midi": 57,
                    "time": 162.16200000000097,
                    "velocity": 1,
                    "duration": 0.49896000000001095
                },
                {
                    "name": "F#4",
                    "midi": 66,
                    "time": 162.16200000000097,
                    "velocity": 1,
                    "duration": 0.49896000000001095
                },
                {
                    "name": "G#4",
                    "midi": 68,
                    "time": 162.66096000000098,
                    "velocity": 1,
                    "duration": 0.49896000000001095
                },
                {
                    "name": "B3",
                    "midi": 59,
                    "time": 162.66096000000098,
                    "velocity": 1,
                    "duration": 0.49896000000001095
                },
                {
                    "name": "A3",
                    "midi": 57,
                    "time": 163.159920000001,
                    "velocity": 1,
                    "duration": 0.49896000000001095
                },
                {
                    "name": "F#4",
                    "midi": 66,
                    "time": 163.159920000001,
                    "velocity": 1,
                    "duration": 0.49896000000001095
                },
                {
                    "name": "E4",
                    "midi": 64,
                    "time": 163.658880000001,
                    "velocity": 1,
                    "duration": 0.9979199999999935
                },
                {
                    "name": "G#3",
                    "midi": 56,
                    "time": 163.658880000001,
                    "velocity": 1,
                    "duration": 0.9979199999999935
                },
                {
                    "name": "A3",
                    "midi": 57,
                    "time": 164.656800000001,
                    "velocity": 1,
                    "duration": 0.49896000000001095
                },
                {
                    "name": "E4",
                    "midi": 64,
                    "time": 164.656800000001,
                    "velocity": 1,
                    "duration": 0.49896000000001095
                },
                {
                    "name": "E4",
                    "midi": 64,
                    "time": 165.155760000001,
                    "velocity": 1,
                    "duration": 0.49896000000001095
                },
                {
                    "name": "G#3",
                    "midi": 56,
                    "time": 165.155760000001,
                    "velocity": 1,
                    "duration": 0.49896000000001095
                },
                {
                    "name": "D3",
                    "midi": 50,
                    "time": 165.65472000000102,
                    "velocity": 1,
                    "duration": 0.12474000000000274
                },
                {
                    "name": "F3",
                    "midi": 53,
                    "time": 165.77946000000102,
                    "velocity": 1,
                    "duration": 0.12474000000000274
                },
                {
                    "name": "D3",
                    "midi": 50,
                    "time": 165.90420000000103,
                    "velocity": 1,
                    "duration": 0.12474000000000274
                },
                {
                    "name": "F3",
                    "midi": 53,
                    "time": 166.02894000000103,
                    "velocity": 1,
                    "duration": 0.12474000000000274
                },
                {
                    "name": "F3",
                    "midi": 53,
                    "time": 166.15368000000103,
                    "velocity": 1,
                    "duration": 0.12474000000000274
                },
                {
                    "name": "A3",
                    "midi": 57,
                    "time": 166.27842000000103,
                    "velocity": 1,
                    "duration": 0.12474000000000274
                },
                {
                    "name": "F3",
                    "midi": 53,
                    "time": 166.40316000000104,
                    "velocity": 1,
                    "duration": 0.12474000000000274
                },
                {
                    "name": "A3",
                    "midi": 57,
                    "time": 166.52790000000104,
                    "velocity": 1,
                    "duration": 0.12474000000000274
                },
                {
                    "name": "A3",
                    "midi": 57,
                    "time": 166.65264000000104,
                    "velocity": 1,
                    "duration": 0.12474000000000274
                },
                {
                    "name": "C4",
                    "midi": 60,
                    "time": 166.77738000000105,
                    "velocity": 1,
                    "duration": 0.12474000000000274
                },
                {
                    "name": "A3",
                    "midi": 57,
                    "time": 166.90212000000105,
                    "velocity": 1,
                    "duration": 0.12474000000000274
                },
                {
                    "name": "C4",
                    "midi": 60,
                    "time": 167.02686000000105,
                    "velocity": 1,
                    "duration": 0.12474000000000274
                },
                {
                    "name": "C4",
                    "midi": 60,
                    "time": 167.15160000000105,
                    "velocity": 1,
                    "duration": 0.12474000000000274
                },
                {
                    "name": "D4",
                    "midi": 62,
                    "time": 167.27634000000106,
                    "velocity": 1,
                    "duration": 0.12474000000000274
                },
                {
                    "name": "C4",
                    "midi": 60,
                    "time": 167.40108000000106,
                    "velocity": 1,
                    "duration": 0.12474000000000274
                },
                {
                    "name": "D4",
                    "midi": 62,
                    "time": 167.52582000000106,
                    "velocity": 1,
                    "duration": 0.12474000000000274
                },
                {
                    "name": "A4",
                    "midi": 69,
                    "time": 167.65056000000106,
                    "velocity": 1,
                    "duration": 0.12474000000000274
                },
                {
                    "name": "C5",
                    "midi": 72,
                    "time": 169.14744000000107,
                    "velocity": 1,
                    "duration": 0.9979199999999935
                },
                {
                    "name": "A4",
                    "midi": 69,
                    "time": 170.14536000000106,
                    "velocity": 1,
                    "duration": 0.49896000000001095
                },
                {
                    "name": "G4",
                    "midi": 67,
                    "time": 170.64432000000107,
                    "velocity": 1,
                    "duration": 0.49896000000001095
                },
                {
                    "name": "F4",
                    "midi": 65,
                    "time": 171.14328000000108,
                    "velocity": 1,
                    "duration": 0.49896000000001095
                },
                {
                    "name": "E4",
                    "midi": 64,
                    "time": 171.6422400000011,
                    "velocity": 1,
                    "duration": 0.49896000000001095
                },
                {
                    "name": "D4",
                    "midi": 62,
                    "time": 172.1412000000011,
                    "velocity": 1,
                    "duration": 0.24948000000000548
                },
                {
                    "name": "E4",
                    "midi": 64,
                    "time": 172.3906800000011,
                    "velocity": 1,
                    "duration": 0.24948000000000548
                },
                {
                    "name": "F4",
                    "midi": 65,
                    "time": 172.64016000000112,
                    "velocity": 1,
                    "duration": 0.24948000000000548
                },
                {
                    "name": "G4",
                    "midi": 67,
                    "time": 172.88964000000112,
                    "velocity": 1,
                    "duration": 0.24948000000000548
                },
                {
                    "name": "A4",
                    "midi": 69,
                    "time": 173.13912000000113,
                    "velocity": 1,
                    "duration": 0.49896000000001095
                },
                {
                    "name": "C5",
                    "midi": 72,
                    "time": 173.63808000000114,
                    "velocity": 1,
                    "duration": 1.4968800000000044
                },
                {
                    "name": "A4",
                    "midi": 69,
                    "time": 175.13496000000114,
                    "velocity": 1,
                    "duration": 0.49896000000001095
                },
                {
                    "name": "C5",
                    "midi": 72,
                    "time": 175.63392000000115,
                    "velocity": 1,
                    "duration": 1.4968800000000044
                },
                {
                    "name": "A4",
                    "midi": 69,
                    "time": 177.13080000000116,
                    "velocity": 1,
                    "duration": 0.49896000000001095
                },
                {
                    "name": "C5",
                    "midi": 72,
                    "time": 177.62976000000117,
                    "velocity": 1,
                    "duration": 0.49896000000001095
                },
                {
                    "name": "D5",
                    "midi": 74,
                    "time": 178.12872000000118,
                    "velocity": 1,
                    "duration": 0.8316000000000088
                },
                {
                    "name": "C5",
                    "midi": 72,
                    "time": 178.9603200000012,
                    "velocity": 1,
                    "duration": 0.3326399999999978
                },
                {
                    "name": "D5",
                    "midi": 74,
                    "time": 179.2929600000012,
                    "velocity": 1,
                    "duration": 0.3326399999999978
                },
                {
                    "name": "D#5",
                    "midi": 75,
                    "time": 179.62560000000119,
                    "velocity": 1,
                    "duration": 0.748439999999988
                },
                {
                    "name": "B3",
                    "midi": 59,
                    "time": 181.62144000000117,
                    "velocity": 1,
                    "duration": 0.12474000000000274
                },
                {
                    "name": "B3",
                    "midi": 59,
                    "time": 181.74618000000117,
                    "velocity": 1,
                    "duration": 0.12474000000000274
                },
                {
                    "name": "D#4",
                    "midi": 63,
                    "time": 181.87092000000118,
                    "velocity": 1,
                    "duration": 0.12474000000000274
                },
                {
                    "name": "D#4",
                    "midi": 63,
                    "time": 181.99566000000118,
                    "velocity": 1,
                    "duration": 0.12474000000000274
                },
                {
                    "name": "D#4",
                    "midi": 63,
                    "time": 182.12040000000118,
                    "velocity": 1,
                    "duration": 0.12474000000000274
                },
                {
                    "name": "D#4",
                    "midi": 63,
                    "time": 182.2451400000012,
                    "velocity": 1,
                    "duration": 0.12474000000000274
                },
                {
                    "name": "G#4",
                    "midi": 68,
                    "time": 182.3698800000012,
                    "velocity": 1,
                    "duration": 0.12474000000000274
                },
                {
                    "name": "G#4",
                    "midi": 68,
                    "time": 182.4946200000012,
                    "velocity": 1,
                    "duration": 0.12474000000000274
                },
                {
                    "name": "B4",
                    "midi": 71,
                    "time": 182.6193600000012,
                    "velocity": 1,
                    "duration": 0.12474000000000274
                },
                {
                    "name": "B4",
                    "midi": 71,
                    "time": 182.7441000000012,
                    "velocity": 1,
                    "duration": 0.12474000000000274
                },
                {
                    "name": "G#4",
                    "midi": 68,
                    "time": 182.8688400000012,
                    "velocity": 1,
                    "duration": 0.12474000000000274
                },
                {
                    "name": "G#4",
                    "midi": 68,
                    "time": 182.9935800000012,
                    "velocity": 1,
                    "duration": 0.12474000000000274
                },
                {
                    "name": "F4",
                    "midi": 65,
                    "time": 183.1183200000012,
                    "velocity": 1,
                    "duration": 0.12474000000000274
                },
                {
                    "name": "F4",
                    "midi": 65,
                    "time": 183.2430600000012,
                    "velocity": 1,
                    "duration": 0.12474000000000274
                },
                {
                    "name": "G#4",
                    "midi": 68,
                    "time": 183.3678000000012,
                    "velocity": 1,
                    "duration": 0.12474000000000274
                },
                {
                    "name": "G#4",
                    "midi": 68,
                    "time": 183.4925400000012,
                    "velocity": 1,
                    "duration": 0.12474000000000274
                },
                {
                    "name": "B4",
                    "midi": 71,
                    "time": 183.61728000000122,
                    "velocity": 1,
                    "duration": 0.12474000000000274
                },
                {
                    "name": "B4",
                    "midi": 71,
                    "time": 183.74202000000122,
                    "velocity": 1,
                    "duration": 0.12474000000000274
                },
                {
                    "name": "G#4",
                    "midi": 68,
                    "time": 183.86676000000122,
                    "velocity": 1,
                    "duration": 0.12474000000000274
                },
                {
                    "name": "G#4",
                    "midi": 68,
                    "time": 183.99150000000122,
                    "velocity": 1,
                    "duration": 0.12474000000000274
                },
                {
                    "name": "F4",
                    "midi": 65,
                    "time": 184.11624000000123,
                    "velocity": 1,
                    "duration": 0.12474000000000274
                },
                {
                    "name": "F4",
                    "midi": 65,
                    "time": 184.24098000000123,
                    "velocity": 1,
                    "duration": 0.12474000000000274
                },
                {
                    "name": "G#4",
                    "midi": 68,
                    "time": 184.36572000000123,
                    "velocity": 1,
                    "duration": 0.12474000000000274
                },
                {
                    "name": "G#4",
                    "midi": 68,
                    "time": 184.49046000000124,
                    "velocity": 1,
                    "duration": 0.12474000000000274
                },
                {
                    "name": "B4",
                    "midi": 71,
                    "time": 184.61520000000124,
                    "velocity": 1,
                    "duration": 0.12474000000000274
                },
                {
                    "name": "B4",
                    "midi": 71,
                    "time": 184.73994000000124,
                    "velocity": 1,
                    "duration": 0.12474000000000274
                },
                {
                    "name": "G#4",
                    "midi": 68,
                    "time": 184.86468000000124,
                    "velocity": 1,
                    "duration": 0.12474000000000274
                },
                {
                    "name": "G#4",
                    "midi": 68,
                    "time": 184.98942000000125,
                    "velocity": 1,
                    "duration": 0.12474000000000274
                },
                {
                    "name": "F4",
                    "midi": 65,
                    "time": 185.11416000000125,
                    "velocity": 1,
                    "duration": 0.12474000000000274
                },
                {
                    "name": "F4",
                    "midi": 65,
                    "time": 185.23890000000125,
                    "velocity": 1,
                    "duration": 0.12474000000000274
                },
                {
                    "name": "G#4",
                    "midi": 68,
                    "time": 185.36364000000125,
                    "velocity": 1,
                    "duration": 0.12474000000000274
                },
                {
                    "name": "G#4",
                    "midi": 68,
                    "time": 185.48838000000126,
                    "velocity": 1,
                    "duration": 0.12474000000000274
                },
                {
                    "name": "B4",
                    "midi": 71,
                    "time": 185.61312000000126,
                    "velocity": 1,
                    "duration": 0.12474000000000274
                },
                {
                    "name": "B4",
                    "midi": 71,
                    "time": 185.73786000000126,
                    "velocity": 1,
                    "duration": 0.12474000000000274
                },
                {
                    "name": "G#4",
                    "midi": 68,
                    "time": 185.86260000000127,
                    "velocity": 1,
                    "duration": 0.12474000000000274
                },
                {
                    "name": "G#4",
                    "midi": 68,
                    "time": 185.98734000000127,
                    "velocity": 1,
                    "duration": 0.12474000000000274
                },
                {
                    "name": "F4",
                    "midi": 65,
                    "time": 186.11208000000127,
                    "velocity": 1,
                    "duration": 0.12474000000000274
                },
                {
                    "name": "F4",
                    "midi": 65,
                    "time": 186.23682000000127,
                    "velocity": 1,
                    "duration": 0.12474000000000274
                },
                {
                    "name": "G#4",
                    "midi": 68,
                    "time": 186.36156000000128,
                    "velocity": 1,
                    "duration": 0.12474000000000274
                },
                {
                    "name": "G#4",
                    "midi": 68,
                    "time": 186.48630000000128,
                    "velocity": 1,
                    "duration": 0.12474000000000274
                },
                {
                    "name": "B4",
                    "midi": 71,
                    "time": 186.61104000000128,
                    "velocity": 1,
                    "duration": 0.12474000000000274
                },
                {
                    "name": "B4",
                    "midi": 71,
                    "time": 186.73578000000128,
                    "velocity": 1,
                    "duration": 0.12474000000000274
                },
                {
                    "name": "G#4",
                    "midi": 68,
                    "time": 186.8605200000013,
                    "velocity": 1,
                    "duration": 0.12474000000000274
                },
                {
                    "name": "G#4",
                    "midi": 68,
                    "time": 186.9852600000013,
                    "velocity": 1,
                    "duration": 0.12474000000000274
                },
                {
                    "name": "F4",
                    "midi": 65,
                    "time": 187.1100000000013,
                    "velocity": 1,
                    "duration": 0.12474000000000274
                },
                {
                    "name": "F4",
                    "midi": 65,
                    "time": 187.2347400000013,
                    "velocity": 1,
                    "duration": 0.12474000000000274
                },
                {
                    "name": "G#4",
                    "midi": 68,
                    "time": 187.3594800000013,
                    "velocity": 1,
                    "duration": 0.12474000000000274
                },
                {
                    "name": "G#4",
                    "midi": 68,
                    "time": 187.4842200000013,
                    "velocity": 1,
                    "duration": 0.12474000000000274
                },
                {
                    "name": "B4",
                    "midi": 71,
                    "time": 187.6089600000013,
                    "velocity": 1,
                    "duration": 0.12474000000000274
                },
                {
                    "name": "B4",
                    "midi": 71,
                    "time": 187.7337000000013,
                    "velocity": 1,
                    "duration": 0.12474000000000274
                },
                {
                    "name": "G#4",
                    "midi": 68,
                    "time": 187.8584400000013,
                    "velocity": 1,
                    "duration": 0.12474000000000274
                },
                {
                    "name": "G#4",
                    "midi": 68,
                    "time": 187.9831800000013,
                    "velocity": 1,
                    "duration": 0.12474000000000274
                },
                {
                    "name": "F4",
                    "midi": 65,
                    "time": 188.10792000000131,
                    "velocity": 1,
                    "duration": 0.12474000000000274
                },
                {
                    "name": "F4",
                    "midi": 65,
                    "time": 188.23266000000132,
                    "velocity": 1,
                    "duration": 0.12474000000000274
                },
                {
                    "name": "G#4",
                    "midi": 68,
                    "time": 188.35740000000132,
                    "velocity": 1,
                    "duration": 0.12474000000000274
                },
                {
                    "name": "G#4",
                    "midi": 68,
                    "time": 188.48214000000132,
                    "velocity": 1,
                    "duration": 0.12474000000000274
                },
                {
                    "name": "B4",
                    "midi": 71,
                    "time": 188.60688000000133,
                    "velocity": 1,
                    "duration": 0.12474000000000274
                },
                {
                    "name": "B4",
                    "midi": 71,
                    "time": 188.73162000000133,
                    "velocity": 1,
                    "duration": 0.12474000000000274
                },
                {
                    "name": "G#4",
                    "midi": 68,
                    "time": 188.85636000000133,
                    "velocity": 1,
                    "duration": 0.12474000000000274
                },
                {
                    "name": "G#4",
                    "midi": 68,
                    "time": 188.98110000000133,
                    "velocity": 1,
                    "duration": 0.12474000000000274
                },
                {
                    "name": "F4",
                    "midi": 65,
                    "time": 189.10584000000134,
                    "velocity": 1,
                    "duration": 0.12474000000000274
                },
                {
                    "name": "F4",
                    "midi": 65,
                    "time": 189.23058000000134,
                    "velocity": 1,
                    "duration": 0.12474000000000274
                },
                {
                    "name": "G#4",
                    "midi": 68,
                    "time": 189.35532000000134,
                    "velocity": 1,
                    "duration": 0.12474000000000274
                },
                {
                    "name": "G#4",
                    "midi": 68,
                    "time": 189.48006000000134,
                    "velocity": 1,
                    "duration": 0.12474000000000274
                },
                {
                    "name": "B4",
                    "midi": 71,
                    "time": 189.60480000000135,
                    "velocity": 1,
                    "duration": 0.12474000000000274
                },
                {
                    "name": "B4",
                    "midi": 71,
                    "time": 189.72954000000135,
                    "velocity": 1,
                    "duration": 0.12474000000000274
                },
                {
                    "name": "G#4",
                    "midi": 68,
                    "time": 189.85428000000135,
                    "velocity": 1,
                    "duration": 0.12474000000000274
                },
                {
                    "name": "G#4",
                    "midi": 68,
                    "time": 189.97902000000136,
                    "velocity": 1,
                    "duration": 0.12474000000000274
                },
                {
                    "name": "F4",
                    "midi": 65,
                    "time": 190.10376000000136,
                    "velocity": 1,
                    "duration": 0.12474000000000274
                },
                {
                    "name": "F4",
                    "midi": 65,
                    "time": 190.22850000000136,
                    "velocity": 1,
                    "duration": 0.12474000000000274
                },
                {
                    "name": "D#4",
                    "midi": 63,
                    "time": 190.35324000000136,
                    "velocity": 1,
                    "duration": 0.12474000000000274
                },
                {
                    "name": "D#4",
                    "midi": 63,
                    "time": 190.47798000000137,
                    "velocity": 1,
                    "duration": 0.12474000000000274
                },
                {
                    "name": "B3",
                    "midi": 59,
                    "time": 190.60272000000137,
                    "velocity": 1,
                    "duration": 0.12474000000000274
                },
                {
                    "name": "B3",
                    "midi": 59,
                    "time": 190.72746000000137,
                    "velocity": 1,
                    "duration": 0.12474000000000274
                },
                {
                    "name": "D#4",
                    "midi": 63,
                    "time": 190.85220000000137,
                    "velocity": 1,
                    "duration": 0.12474000000000274
                },
                {
                    "name": "D#4",
                    "midi": 63,
                    "time": 190.97694000000138,
                    "velocity": 1,
                    "duration": 0.12474000000000274
                },
                {
                    "name": "B3",
                    "midi": 59,
                    "time": 191.10168000000138,
                    "velocity": 1,
                    "duration": 0.12474000000000274
                },
                {
                    "name": "B3",
                    "midi": 59,
                    "time": 191.22642000000138,
                    "velocity": 1,
                    "duration": 0.12474000000000274
                },
                {
                    "name": "G#3",
                    "midi": 56,
                    "time": 191.35116000000139,
                    "velocity": 1,
                    "duration": 0.12474000000000274
                },
                {
                    "name": "G#3",
                    "midi": 56,
                    "time": 191.4759000000014,
                    "velocity": 1,
                    "duration": 0.12474000000000274
                },
                {
                    "name": "G#3",
                    "midi": 56,
                    "time": 191.6006400000014,
                    "velocity": 1,
                    "duration": 0.12474000000000274
                },
                {
                    "name": "G#3",
                    "midi": 56,
                    "time": 191.7253800000014,
                    "velocity": 1,
                    "duration": 0.12474000000000274
                },
                {
                    "name": "B3",
                    "midi": 59,
                    "time": 191.8501200000014,
                    "velocity": 1,
                    "duration": 0.12474000000000274
                },
                {
                    "name": "B3",
                    "midi": 59,
                    "time": 191.9748600000014,
                    "velocity": 1,
                    "duration": 0.12474000000000274
                },
                {
                    "name": "G#3",
                    "midi": 56,
                    "time": 192.0996000000014,
                    "velocity": 1,
                    "duration": 0.12474000000000274
                },
                {
                    "name": "G#3",
                    "midi": 56,
                    "time": 192.2243400000014,
                    "velocity": 1,
                    "duration": 0.12474000000000274
                },
                {
                    "name": "F3",
                    "midi": 53,
                    "time": 192.3490800000014,
                    "velocity": 1,
                    "duration": 0.12474000000000274
                },
                {
                    "name": "F3",
                    "midi": 53,
                    "time": 192.4738200000014,
                    "velocity": 1,
                    "duration": 0.12474000000000274
                },
                {
                    "name": "G#3",
                    "midi": 56,
                    "time": 192.5985600000014,
                    "velocity": 1,
                    "duration": 0.12474000000000274
                },
                {
                    "name": "G#3",
                    "midi": 56,
                    "time": 192.72330000000142,
                    "velocity": 1,
                    "duration": 0.12474000000000274
                },
                {
                    "name": "B3",
                    "midi": 59,
                    "time": 192.84804000000142,
                    "velocity": 1,
                    "duration": 0.12474000000000274
                },
                {
                    "name": "B3",
                    "midi": 59,
                    "time": 192.97278000000142,
                    "velocity": 1,
                    "duration": 0.12474000000000274
                },
                {
                    "name": "G#3",
                    "midi": 56,
                    "time": 193.09752000000142,
                    "velocity": 1,
                    "duration": 0.12474000000000274
                },
                {
                    "name": "G#3",
                    "midi": 56,
                    "time": 193.22226000000143,
                    "velocity": 1,
                    "duration": 0.12474000000000274
                },
                {
                    "name": "F3",
                    "midi": 53,
                    "time": 193.34700000000143,
                    "velocity": 1,
                    "duration": 0.12474000000000274
                },
                {
                    "name": "F3",
                    "midi": 53,
                    "time": 193.47174000000143,
                    "velocity": 1,
                    "duration": 0.12474000000000274
                },
                {
                    "name": "D#3",
                    "midi": 51,
                    "time": 193.59648000000143,
                    "velocity": 1,
                    "duration": 0.12474000000000274
                },
                {
                    "name": "F3",
                    "midi": 53,
                    "time": 193.72122000000144,
                    "velocity": 1,
                    "duration": 0.12474000000000274
                },
                {
                    "name": "D#3",
                    "midi": 51,
                    "time": 193.84596000000144,
                    "velocity": 1,
                    "duration": 0.12474000000000274
                },
                {
                    "name": "F3",
                    "midi": 53,
                    "time": 193.97070000000144,
                    "velocity": 1,
                    "duration": 0.12474000000000274
                },
                {
                    "name": "F#3",
                    "midi": 54,
                    "time": 194.09544000000145,
                    "velocity": 1,
                    "duration": 0.12474000000000274
                },
                {
                    "name": "G#3",
                    "midi": 56,
                    "time": 194.22018000000145,
                    "velocity": 1,
                    "duration": 0.12474000000000274
                },
                {
                    "name": "F#3",
                    "midi": 54,
                    "time": 194.34492000000145,
                    "velocity": 1,
                    "duration": 0.12474000000000274
                },
                {
                    "name": "F3",
                    "midi": 53,
                    "time": 194.46966000000145,
                    "velocity": 1,
                    "duration": 0.12474000000000274
                },
                {
                    "name": "D#3",
                    "midi": 51,
                    "time": 194.59440000000146,
                    "velocity": 1,
                    "duration": 0.12474000000000274
                },
                {
                    "name": "F3",
                    "midi": 53,
                    "time": 194.71914000000146,
                    "velocity": 1,
                    "duration": 0.12474000000000274
                },
                {
                    "name": "D#3",
                    "midi": 51,
                    "time": 194.84388000000146,
                    "velocity": 1,
                    "duration": 0.12474000000000274
                },
                {
                    "name": "F3",
                    "midi": 53,
                    "time": 194.96862000000147,
                    "velocity": 1,
                    "duration": 0.12474000000000274
                },
                {
                    "name": "F#3",
                    "midi": 54,
                    "time": 195.09336000000147,
                    "velocity": 1,
                    "duration": 0.12474000000000274
                },
                {
                    "name": "G#3",
                    "midi": 56,
                    "time": 195.21810000000147,
                    "velocity": 1,
                    "duration": 0.12474000000000274
                },
                {
                    "name": "F#3",
                    "midi": 54,
                    "time": 195.34284000000147,
                    "velocity": 1,
                    "duration": 0.12474000000000274
                },
                {
                    "name": "F3",
                    "midi": 53,
                    "time": 195.46758000000148,
                    "velocity": 1,
                    "duration": 0.12474000000000274
                },
                {
                    "name": "D#3",
                    "midi": 51,
                    "time": 195.59232000000148,
                    "velocity": 1,
                    "duration": 0.12474000000000274
                },
                {
                    "name": "F3",
                    "midi": 53,
                    "time": 195.71706000000148,
                    "velocity": 1,
                    "duration": 0.12474000000000274
                },
                {
                    "name": "D#3",
                    "midi": 51,
                    "time": 195.84180000000148,
                    "velocity": 1,
                    "duration": 0.12474000000000274
                },
                {
                    "name": "F3",
                    "midi": 53,
                    "time": 195.9665400000015,
                    "velocity": 1,
                    "duration": 0.12474000000000274
                },
                {
                    "name": "F#3",
                    "midi": 54,
                    "time": 196.0912800000015,
                    "velocity": 1,
                    "duration": 0.12474000000000274
                },
                {
                    "name": "G#3",
                    "midi": 56,
                    "time": 196.2160200000015,
                    "velocity": 1,
                    "duration": 0.12474000000000274
                },
                {
                    "name": "F#3",
                    "midi": 54,
                    "time": 196.3407600000015,
                    "velocity": 1,
                    "duration": 0.12474000000000274
                },
                {
                    "name": "F3",
                    "midi": 53,
                    "time": 196.4655000000015,
                    "velocity": 1,
                    "duration": 0.12474000000000274
                },
                {
                    "name": "D#3",
                    "midi": 51,
                    "time": 196.5902400000015,
                    "velocity": 1,
                    "duration": 0.12474000000000274
                },
                {
                    "name": "F3",
                    "midi": 53,
                    "time": 196.7149800000015,
                    "velocity": 1,
                    "duration": 0.12474000000000274
                },
                {
                    "name": "D#3",
                    "midi": 51,
                    "time": 196.8397200000015,
                    "velocity": 1,
                    "duration": 0.12474000000000274
                },
                {
                    "name": "F3",
                    "midi": 53,
                    "time": 196.9644600000015,
                    "velocity": 1,
                    "duration": 0.12474000000000274
                },
                {
                    "name": "F#3",
                    "midi": 54,
                    "time": 197.0892000000015,
                    "velocity": 1,
                    "duration": 0.12474000000000274
                },
                {
                    "name": "G#3",
                    "midi": 56,
                    "time": 197.21394000000151,
                    "velocity": 1,
                    "duration": 0.12474000000000274
                },
                {
                    "name": "F#3",
                    "midi": 54,
                    "time": 197.33868000000152,
                    "velocity": 1,
                    "duration": 0.12474000000000274
                },
                {
                    "name": "F3",
                    "midi": 53,
                    "time": 197.46342000000152,
                    "velocity": 1,
                    "duration": 0.12474000000000274
                },
                {
                    "name": "D#3",
                    "midi": 51,
                    "time": 197.58816000000152,
                    "velocity": 1,
                    "duration": 0.12474000000000274
                },
                {
                    "name": "F3",
                    "midi": 53,
                    "time": 197.71290000000153,
                    "velocity": 1,
                    "duration": 0.12474000000000274
                },
                {
                    "name": "D#3",
                    "midi": 51,
                    "time": 197.83764000000153,
                    "velocity": 1,
                    "duration": 0.12474000000000274
                },
                {
                    "name": "F3",
                    "midi": 53,
                    "time": 197.96238000000153,
                    "velocity": 1,
                    "duration": 0.12474000000000274
                },
                {
                    "name": "F#3",
                    "midi": 54,
                    "time": 198.08712000000153,
                    "velocity": 1,
                    "duration": 0.12474000000000274
                },
                {
                    "name": "G#3",
                    "midi": 56,
                    "time": 198.21186000000154,
                    "velocity": 1,
                    "duration": 0.12474000000000274
                },
                {
                    "name": "F#3",
                    "midi": 54,
                    "time": 198.33660000000154,
                    "velocity": 1,
                    "duration": 0.12474000000000274
                },
                {
                    "name": "F3",
                    "midi": 53,
                    "time": 198.46134000000154,
                    "velocity": 1,
                    "duration": 0.12474000000000274
                },
                {
                    "name": "D#3",
                    "midi": 51,
                    "time": 198.58608000000154,
                    "velocity": 1,
                    "duration": 0.12474000000000274
                },
                {
                    "name": "F3",
                    "midi": 53,
                    "time": 198.71082000000155,
                    "velocity": 1,
                    "duration": 0.12474000000000274
                },
                {
                    "name": "D#3",
                    "midi": 51,
                    "time": 198.83556000000155,
                    "velocity": 1,
                    "duration": 0.12474000000000274
                },
                {
                    "name": "F3",
                    "midi": 53,
                    "time": 198.96030000000155,
                    "velocity": 1,
                    "duration": 0.12474000000000274
                },
                {
                    "name": "F#3",
                    "midi": 54,
                    "time": 199.08504000000156,
                    "velocity": 1,
                    "duration": 0.12474000000000274
                },
                {
                    "name": "G#3",
                    "midi": 56,
                    "time": 199.20978000000156,
                    "velocity": 1,
                    "duration": 0.12474000000000274
                },
                {
                    "name": "F#3",
                    "midi": 54,
                    "time": 199.33452000000156,
                    "velocity": 1,
                    "duration": 0.12474000000000274
                },
                {
                    "name": "F3",
                    "midi": 53,
                    "time": 199.45926000000156,
                    "velocity": 1,
                    "duration": 0.12474000000000274
                },
                {
                    "name": "D#3",
                    "midi": 51,
                    "time": 199.58400000000157,
                    "velocity": 1,
                    "duration": 0.12474000000000274
                },
                {
                    "name": "F3",
                    "midi": 53,
                    "time": 199.70874000000157,
                    "velocity": 1,
                    "duration": 0.12474000000000274
                },
                {
                    "name": "D#3",
                    "midi": 51,
                    "time": 199.83348000000157,
                    "velocity": 1,
                    "duration": 0.12474000000000274
                },
                {
                    "name": "F3",
                    "midi": 53,
                    "time": 199.95822000000157,
                    "velocity": 1,
                    "duration": 0.12474000000000274
                },
                {
                    "name": "F#3",
                    "midi": 54,
                    "time": 200.08296000000158,
                    "velocity": 1,
                    "duration": 0.12474000000000274
                },
                {
                    "name": "G#3",
                    "midi": 56,
                    "time": 200.20770000000158,
                    "velocity": 1,
                    "duration": 0.12474000000000274
                },
                {
                    "name": "F#3",
                    "midi": 54,
                    "time": 200.33244000000158,
                    "velocity": 1,
                    "duration": 0.12474000000000274
                },
                {
                    "name": "F3",
                    "midi": 53,
                    "time": 200.45718000000159,
                    "velocity": 1,
                    "duration": 0.12474000000000274
                },
                {
                    "name": "D#3",
                    "midi": 51,
                    "time": 200.5819200000016,
                    "velocity": 1,
                    "duration": 0.12474000000000274
                },
                {
                    "name": "F3",
                    "midi": 53,
                    "time": 200.7066600000016,
                    "velocity": 1,
                    "duration": 0.12474000000000274
                },
                {
                    "name": "D#3",
                    "midi": 51,
                    "time": 200.8314000000016,
                    "velocity": 1,
                    "duration": 0.12474000000000274
                },
                {
                    "name": "F3",
                    "midi": 53,
                    "time": 200.9561400000016,
                    "velocity": 1,
                    "duration": 0.12474000000000274
                },
                {
                    "name": "D#3",
                    "midi": 51,
                    "time": 201.0808800000016,
                    "velocity": 1,
                    "duration": 0.12474000000000274
                },
                {
                    "name": "F3",
                    "midi": 53,
                    "time": 201.2056200000016,
                    "velocity": 1,
                    "duration": 0.12474000000000274
                },
                {
                    "name": "D#3",
                    "midi": 51,
                    "time": 201.3303600000016,
                    "velocity": 1,
                    "duration": 0.12474000000000274
                },
                {
                    "name": "F3",
                    "midi": 53,
                    "time": 201.4551000000016,
                    "velocity": 1,
                    "duration": 0.12474000000000274
                },
                {
                    "name": "D#3",
                    "midi": 51,
                    "time": 201.5798400000016,
                    "velocity": 1,
                    "duration": 0.24948000000000548
                },
                {
                    "name": "D#4",
                    "midi": 63,
                    "time": 202.07880000000162,
                    "velocity": 1,
                    "duration": 0.49896000000001095
                },
                {
                    "name": "F#4",
                    "midi": 66,
                    "time": 202.57776000000163,
                    "velocity": 1,
                    "duration": 1.4968800000000044
                },
                {
                    "name": "F4",
                    "midi": 65,
                    "time": 204.07464000000164,
                    "velocity": 1,
                    "duration": 0.16632000000001312
                },
                {
                    "name": "F#4",
                    "midi": 66,
                    "time": 204.24096000000165,
                    "velocity": 1,
                    "duration": 0.16632000000001312
                },
                {
                    "name": "G#4",
                    "midi": 68,
                    "time": 204.40728000000166,
                    "velocity": 1,
                    "duration": 0.16632000000001312
                },
                {
                    "name": "F#4",
                    "midi": 66,
                    "time": 204.57360000000168,
                    "velocity": 1,
                    "duration": 1.4968800000000044
                },
                {
                    "name": "F4",
                    "midi": 65,
                    "time": 206.07048000000168,
                    "velocity": 1,
                    "duration": 0.16632000000001312
                },
                {
                    "name": "F#4",
                    "midi": 66,
                    "time": 206.2368000000017,
                    "velocity": 1,
                    "duration": 0.16632000000001312
                },
                {
                    "name": "G#4",
                    "midi": 68,
                    "time": 206.4031200000017,
                    "velocity": 1,
                    "duration": 0.16632000000001312
                },
                {
                    "name": "F#4",
                    "midi": 66,
                    "time": 206.56944000000172,
                    "velocity": 1,
                    "duration": 0.49896000000001095
                },
                {
                    "name": "A4",
                    "midi": 69,
                    "time": 207.06840000000173,
                    "velocity": 1,
                    "duration": 0.9979199999999935
                },
                {
                    "name": "F#4",
                    "midi": 66,
                    "time": 208.06632000000172,
                    "velocity": 1,
                    "duration": 0.49896000000001095
                },
                {
                    "name": "F4",
                    "midi": 65,
                    "time": 208.56528000000174,
                    "velocity": 1,
                    "duration": 0.49896000000001095
                },
                {
                    "name": "D#4",
                    "midi": 63,
                    "time": 209.06424000000175,
                    "velocity": 1,
                    "duration": 0.49896000000001095
                },
                {
                    "name": "A4",
                    "midi": 69,
                    "time": 212.55696000000177,
                    "velocity": 1,
                    "duration": 0.49896000000001095
                },
                {
                    "name": "D#4",
                    "midi": 63,
                    "time": 212.55696000000177,
                    "velocity": 1,
                    "duration": 0.49896000000001095
                },
                {
                    "name": "D#3",
                    "midi": 51,
                    "time": 212.55696000000177,
                    "velocity": 1,
                    "duration": 0.49896000000001095
                },
                {
                    "name": "F#4",
                    "midi": 66,
                    "time": 212.55696000000177,
                    "velocity": 1,
                    "duration": 0.49896000000001095
                }
            ],
            "controlChanges": {
                "10": [
                    {
                        "number": 10,
                        "time": 0,
                        "value": 0.25196850393700787
                    },
                    {
                        "number": 10,
                        "time": 15.966720000000006,
                        "value": 0.25196850393700787
                    },
                    {
                        "number": 10,
                        "time": 31.933440000000015,
                        "value": 0.25196850393700787
                    },
                    {
                        "number": 10,
                        "time": 39.9168,
                        "value": 0.25196850393700787
                    },
                    {
                        "number": 10,
                        "time": 45.90431999999999,
                        "value": 0.25196850393700787
                    },
                    {
                        "number": 10,
                        "time": 53.88768000000017,
                        "value": 0.25196850393700787
                    },
                    {
                        "number": 10,
                        "time": 61.87104000000023,
                        "value": 0.25196850393700787
                    },
                    {
                        "number": 10,
                        "time": 67.85856000000031,
                        "value": 0.25196850393700787
                    },
                    {
                        "number": 10,
                        "time": 75.84192000000037,
                        "value": 0.25196850393700787
                    },
                    {
                        "number": 10,
                        "time": 85.8211200000005,
                        "value": 0.25196850393700787
                    },
                    {
                        "number": 10,
                        "time": 107.77536000000042,
                        "value": 0.25196850393700787
                    },
                    {
                        "number": 10,
                        "time": 123.74208000000047,
                        "value": 0.25196850393700787
                    },
                    {
                        "number": 10,
                        "time": 135.71712000000068,
                        "value": 0.25196850393700787
                    },
                    {
                        "number": 10,
                        "time": 151.6838400000008,
                        "value": 0.25196850393700787
                    },
                    {
                        "number": 10,
                        "time": 165.65472000000102,
                        "value": 0.25196850393700787
                    },
                    {
                        "number": 10,
                        "time": 181.62144000000117,
                        "value": 0.25196850393700787
                    },
                    {
                        "number": 10,
                        "time": 193.59648000000143,
                        "value": 0.25196850393700787
                    },
                    {
                        "number": 10,
                        "time": 195.59232000000148,
                        "value": 0.25196850393700787
                    },
                    {
                        "number": 10,
                        "time": 197.58816000000152,
                        "value": 0.25196850393700787
                    },
                    {
                        "number": 10,
                        "time": 199.58400000000157,
                        "value": 0.25196850393700787
                    },
                    {
                        "number": 10,
                        "time": 201.5798400000016,
                        "value": 0.25196850393700787
                    },
                    {
                        "number": 10,
                        "time": 209.56320000000176,
                        "value": 0.25196850393700787
                    }
                ]
            },
            "id": 3,
            "name": "viola",
            "instrumentNumber": 45,
            "instrument": "pizzicato strings",
            "instrumentFamily": "strings",
            "channelNumber": 2,
            "isPercussion": false
        },
        {
            "startTime": 0,
            "duration": 213.55488000000025,
            "length": 294,
            "notes": [
                {
                    "name": "F2",
                    "midi": 41,
                    "time": 0,
                    "velocity": 1,
                    "duration": 0.49896
                },
                {
                    "name": "G2",
                    "midi": 43,
                    "time": 0.49896,
                    "velocity": 1,
                    "duration": 0.49896
                },
                {
                    "name": "A2",
                    "midi": 45,
                    "time": 0.99792,
                    "velocity": 1,
                    "duration": 0.49895999999999996
                },
                {
                    "name": "A#2",
                    "midi": 46,
                    "time": 1.49688,
                    "velocity": 1,
                    "duration": 0.49896000000000007
                },
                {
                    "name": "C3",
                    "midi": 48,
                    "time": 1.99584,
                    "velocity": 1,
                    "duration": 0.49896000000000007
                },
                {
                    "name": "D3",
                    "midi": 50,
                    "time": 2.4948,
                    "velocity": 1,
                    "duration": 0.49895999999999985
                },
                {
                    "name": "E3",
                    "midi": 52,
                    "time": 2.99376,
                    "velocity": 1,
                    "duration": 0.49895999999999985
                },
                {
                    "name": "F3",
                    "midi": 53,
                    "time": 3.49272,
                    "velocity": 1,
                    "duration": 0.49895999999999985
                },
                {
                    "name": "G3",
                    "midi": 55,
                    "time": 3.9916799999999997,
                    "velocity": 1,
                    "duration": 0.4989600000000003
                },
                {
                    "name": "A3",
                    "midi": 57,
                    "time": 4.49064,
                    "velocity": 1,
                    "duration": 0.4989600000000003
                },
                {
                    "name": "A#3",
                    "midi": 58,
                    "time": 4.9896,
                    "velocity": 1,
                    "duration": 0.4989600000000003
                },
                {
                    "name": "C4",
                    "midi": 60,
                    "time": 5.4885600000000005,
                    "velocity": 1,
                    "duration": 0.4989600000000003
                },
                {
                    "name": "D4",
                    "midi": 62,
                    "time": 5.987520000000001,
                    "velocity": 1,
                    "duration": 0.4989600000000003
                },
                {
                    "name": "E4",
                    "midi": 64,
                    "time": 6.486480000000001,
                    "velocity": 1,
                    "duration": 0.4989600000000003
                },
                {
                    "name": "F4",
                    "midi": 65,
                    "time": 6.985440000000001,
                    "velocity": 1,
                    "duration": 0.4989600000000003
                },
                {
                    "name": "E4",
                    "midi": 64,
                    "time": 7.484400000000002,
                    "velocity": 1,
                    "duration": 0.4989600000000003
                },
                {
                    "name": "D#4",
                    "midi": 63,
                    "time": 7.983360000000002,
                    "velocity": 1,
                    "duration": 0.9979199999999997
                },
                {
                    "name": "C#4",
                    "midi": 61,
                    "time": 8.981280000000002,
                    "velocity": 1,
                    "duration": 0.9979200000000006
                },
                {
                    "name": "C4",
                    "midi": 60,
                    "time": 9.979200000000002,
                    "velocity": 1,
                    "duration": 0.4989600000000003
                },
                {
                    "name": "A#3",
                    "midi": 58,
                    "time": 10.478160000000003,
                    "velocity": 1,
                    "duration": 0.4989600000000003
                },
                {
                    "name": "G#3",
                    "midi": 56,
                    "time": 10.977120000000003,
                    "velocity": 1,
                    "duration": 0.4989600000000003
                },
                {
                    "name": "F3",
                    "midi": 53,
                    "time": 11.476080000000003,
                    "velocity": 1,
                    "duration": 0.9979200000000006
                },
                {
                    "name": "D#3",
                    "midi": 51,
                    "time": 12.474000000000004,
                    "velocity": 1,
                    "duration": 0.4989600000000003
                },
                {
                    "name": "C3",
                    "midi": 48,
                    "time": 12.972960000000004,
                    "velocity": 1,
                    "duration": 0.4989600000000003
                },
                {
                    "name": "G#2",
                    "midi": 44,
                    "time": 13.471920000000004,
                    "velocity": 1,
                    "duration": 0.4989600000000003
                },
                {
                    "name": "G#2",
                    "midi": 44,
                    "time": 13.970880000000005,
                    "velocity": 1,
                    "duration": 0.9979200000000006
                },
                {
                    "name": "G2",
                    "midi": 43,
                    "time": 14.968800000000005,
                    "velocity": 1,
                    "duration": 0.9979200000000006
                },
                {
                    "name": "D3",
                    "midi": 50,
                    "time": 15.966720000000006,
                    "velocity": 1,
                    "duration": 0.9979200000000006
                },
                {
                    "name": "G2",
                    "midi": 43,
                    "time": 15.966720000000006,
                    "velocity": 1,
                    "duration": 0.9979200000000006
                },
                {
                    "name": "A#2",
                    "midi": 46,
                    "time": 16.964640000000006,
                    "velocity": 1,
                    "duration": 0.9979200000000006
                },
                {
                    "name": "F3",
                    "midi": 53,
                    "time": 16.964640000000006,
                    "velocity": 1,
                    "duration": 0.9979200000000006
                },
                {
                    "name": "D3",
                    "midi": 50,
                    "time": 17.962560000000007,
                    "velocity": 1,
                    "duration": 1.4968800000000009
                },
                {
                    "name": "F3",
                    "midi": 53,
                    "time": 19.459440000000008,
                    "velocity": 1,
                    "duration": 0.4989600000000003
                },
                {
                    "name": "A#2",
                    "midi": 46,
                    "time": 19.459440000000008,
                    "velocity": 1,
                    "duration": 0.4989600000000003
                },
                {
                    "name": "G2",
                    "midi": 43,
                    "time": 19.958400000000008,
                    "velocity": 1,
                    "duration": 0.9979200000000006
                },
                {
                    "name": "D3",
                    "midi": 50,
                    "time": 19.958400000000008,
                    "velocity": 1,
                    "duration": 0.9979200000000006
                },
                {
                    "name": "F3",
                    "midi": 53,
                    "time": 20.95632000000001,
                    "velocity": 1,
                    "duration": 0.9979200000000006
                },
                {
                    "name": "A#2",
                    "midi": 46,
                    "time": 20.95632000000001,
                    "velocity": 1,
                    "duration": 0.9979200000000006
                },
                {
                    "name": "D3",
                    "midi": 50,
                    "time": 21.95424000000001,
                    "velocity": 1,
                    "duration": 1.4968800000000009
                },
                {
                    "name": "A#2",
                    "midi": 46,
                    "time": 23.45112000000001,
                    "velocity": 1,
                    "duration": 0.4989600000000003
                },
                {
                    "name": "F3",
                    "midi": 53,
                    "time": 23.45112000000001,
                    "velocity": 1,
                    "duration": 0.4989600000000003
                },
                {
                    "name": "D3",
                    "midi": 50,
                    "time": 23.95008000000001,
                    "velocity": 1,
                    "duration": 0.9979200000000006
                },
                {
                    "name": "G2",
                    "midi": 43,
                    "time": 23.95008000000001,
                    "velocity": 1,
                    "duration": 0.9979200000000006
                },
                {
                    "name": "A#2",
                    "midi": 46,
                    "time": 24.94800000000001,
                    "velocity": 1,
                    "duration": 0.9979200000000006
                },
                {
                    "name": "D3",
                    "midi": 50,
                    "time": 25.94592000000001,
                    "velocity": 1,
                    "duration": 0.9979200000000006
                },
                {
                    "name": "G2",
                    "midi": 43,
                    "time": 25.94592000000001,
                    "velocity": 1,
                    "duration": 0.9979200000000006
                },
                {
                    "name": "A#2",
                    "midi": 46,
                    "time": 26.943840000000012,
                    "velocity": 1,
                    "duration": 0.9979200000000006
                },
                {
                    "name": "D3",
                    "midi": 50,
                    "time": 27.941760000000013,
                    "velocity": 1,
                    "duration": 0.9979200000000006
                },
                {
                    "name": "G2",
                    "midi": 43,
                    "time": 27.941760000000013,
                    "velocity": 1,
                    "duration": 0.9979200000000006
                },
                {
                    "name": "A#2",
                    "midi": 46,
                    "time": 28.939680000000013,
                    "velocity": 1,
                    "duration": 0.9979200000000006
                },
                {
                    "name": "D3",
                    "midi": 50,
                    "time": 29.937600000000014,
                    "velocity": 1,
                    "duration": 0.9979200000000006
                },
                {
                    "name": "G2",
                    "midi": 43,
                    "time": 29.937600000000014,
                    "velocity": 1,
                    "duration": 0.9979200000000006
                },
                {
                    "name": "C3",
                    "midi": 48,
                    "time": 30.935520000000015,
                    "velocity": 1,
                    "duration": 0.9979200000000006
                },
                {
                    "name": "F2",
                    "midi": 41,
                    "time": 31.933440000000015,
                    "velocity": 1,
                    "duration": 0.997919999999997
                },
                {
                    "name": "A2",
                    "midi": 45,
                    "time": 32.93136000000001,
                    "velocity": 1,
                    "duration": 0.49895999999999674
                },
                {
                    "name": "A#2",
                    "midi": 46,
                    "time": 33.43032000000001,
                    "velocity": 1,
                    "duration": 0.49895999999999674
                },
                {
                    "name": "C3",
                    "midi": 48,
                    "time": 33.929280000000006,
                    "velocity": 1,
                    "duration": 0.49895999999999674
                },
                {
                    "name": "D3",
                    "midi": 50,
                    "time": 34.42824,
                    "velocity": 1,
                    "duration": 0.49895999999999674
                },
                {
                    "name": "E3",
                    "midi": 52,
                    "time": 34.9272,
                    "velocity": 1,
                    "duration": 0.49895999999999674
                },
                {
                    "name": "F3",
                    "midi": 53,
                    "time": 35.426159999999996,
                    "velocity": 1,
                    "duration": 0.49895999999999674
                },
                {
                    "name": "G3",
                    "midi": 55,
                    "time": 35.92511999999999,
                    "velocity": 1,
                    "duration": 0.49895999999999674
                },
                {
                    "name": "A3",
                    "midi": 57,
                    "time": 36.42407999999999,
                    "velocity": 1,
                    "duration": 0.49895999999999674
                },
                {
                    "name": "A#3",
                    "midi": 58,
                    "time": 36.923039999999986,
                    "velocity": 1,
                    "duration": 0.49895999999999674
                },
                {
                    "name": "C4",
                    "midi": 60,
                    "time": 37.42199999999998,
                    "velocity": 1,
                    "duration": 0.49895999999999674
                },
                {
                    "name": "D4",
                    "midi": 62,
                    "time": 37.92095999999998,
                    "velocity": 1,
                    "duration": 0.49895999999999674
                },
                {
                    "name": "E4",
                    "midi": 64,
                    "time": 38.419919999999976,
                    "velocity": 1,
                    "duration": 0.49895999999999674
                },
                {
                    "name": "F4",
                    "midi": 65,
                    "time": 38.91887999999997,
                    "velocity": 1,
                    "duration": 0.49895999999999674
                },
                {
                    "name": "G4",
                    "midi": 67,
                    "time": 39.41783999999997,
                    "velocity": 1,
                    "duration": 0.49895999999999674
                },
                {
                    "name": "A4",
                    "midi": 69,
                    "time": 39.91679999999997,
                    "velocity": 1,
                    "duration": 0.49895999999999674
                },
                {
                    "name": "G2",
                    "midi": 43,
                    "time": 41.91263999999996,
                    "velocity": 1,
                    "duration": 0.49895999999999674
                },
                {
                    "name": "G2",
                    "midi": 43,
                    "time": 44.906399999999955,
                    "velocity": 1,
                    "duration": 0.49895999999999674
                },
                {
                    "name": "C2",
                    "midi": 36,
                    "time": 45.90431999999995,
                    "velocity": 1,
                    "duration": 1.4968799999999973
                },
                {
                    "name": "C3",
                    "midi": 48,
                    "time": 47.401199999999946,
                    "velocity": 1,
                    "duration": 0.49895999999999674
                },
                {
                    "name": "C4",
                    "midi": 60,
                    "time": 47.90015999999994,
                    "velocity": 1,
                    "duration": 0.49895999999999674
                },
                {
                    "name": "C3",
                    "midi": 48,
                    "time": 48.39911999999994,
                    "velocity": 1,
                    "duration": 0.49895999999999674
                },
                {
                    "name": "C2",
                    "midi": 36,
                    "time": 48.898079999999936,
                    "velocity": 1,
                    "duration": 1.4968799999999973
                },
                {
                    "name": "C3",
                    "midi": 48,
                    "time": 50.394959999999934,
                    "velocity": 1,
                    "duration": 0.49895999999999674
                },
                {
                    "name": "C4",
                    "midi": 60,
                    "time": 50.89391999999993,
                    "velocity": 1,
                    "duration": 0.49895999999999674
                },
                {
                    "name": "C3",
                    "midi": 48,
                    "time": 51.39287999999993,
                    "velocity": 1,
                    "duration": 0.49895999999999674
                },
                {
                    "name": "D3",
                    "midi": 50,
                    "time": 51.891839999999924,
                    "velocity": 1,
                    "duration": 0.9979200000000006
                },
                {
                    "name": "D#3",
                    "midi": 51,
                    "time": 52.889759999999924,
                    "velocity": 1,
                    "duration": 0.9979200000000006
                },
                {
                    "name": "E2",
                    "midi": 40,
                    "time": 53.887679999999925,
                    "velocity": 1,
                    "duration": 0.49895999999999674
                },
                {
                    "name": "E3",
                    "midi": 52,
                    "time": 54.38663999999992,
                    "velocity": 1,
                    "duration": 0.9979200000000006
                },
                {
                    "name": "E3",
                    "midi": 52,
                    "time": 55.38455999999992,
                    "velocity": 1,
                    "duration": 0.9979200000000006
                },
                {
                    "name": "E2",
                    "midi": 40,
                    "time": 56.38247999999992,
                    "velocity": 1,
                    "duration": 0.9979200000000006
                },
                {
                    "name": "E3",
                    "midi": 52,
                    "time": 57.38039999999992,
                    "velocity": 1,
                    "duration": 0.9979200000000006
                },
                {
                    "name": "E2",
                    "midi": 40,
                    "time": 58.378319999999924,
                    "velocity": 1,
                    "duration": 0.49895999999999674
                },
                {
                    "name": "C3",
                    "midi": 48,
                    "time": 58.87727999999992,
                    "velocity": 1,
                    "duration": 0.12474000000000274
                },
                {
                    "name": "D3",
                    "midi": 50,
                    "time": 59.00201999999992,
                    "velocity": 1,
                    "duration": 0.12474000000000274
                },
                {
                    "name": "C3",
                    "midi": 48,
                    "time": 59.126759999999926,
                    "velocity": 1,
                    "duration": 0.12474000000000274
                },
                {
                    "name": "B2",
                    "midi": 47,
                    "time": 59.25149999999993,
                    "velocity": 1,
                    "duration": 0.12474000000000274
                },
                {
                    "name": "A2",
                    "midi": 45,
                    "time": 59.37623999999993,
                    "velocity": 1,
                    "duration": 0.12474000000000274
                },
                {
                    "name": "B2",
                    "midi": 47,
                    "time": 59.500979999999934,
                    "velocity": 1,
                    "duration": 0.12474000000000274
                },
                {
                    "name": "A2",
                    "midi": 45,
                    "time": 59.62571999999994,
                    "velocity": 1,
                    "duration": 0.12474000000000274
                },
                {
                    "name": "G2",
                    "midi": 43,
                    "time": 59.75045999999994,
                    "velocity": 1,
                    "duration": 0.12474000000000274
                },
                {
                    "name": "F2",
                    "midi": 41,
                    "time": 59.87519999999994,
                    "velocity": 1,
                    "duration": 0.9979200000000006
                },
                {
                    "name": "F#2",
                    "midi": 42,
                    "time": 60.87311999999994,
                    "velocity": 1,
                    "duration": 0.9979200000000006
                },
                {
                    "name": "F2",
                    "midi": 41,
                    "time": 61.871039999999944,
                    "velocity": 1,
                    "duration": 0.49895999999999674
                },
                {
                    "name": "G#3",
                    "midi": 56,
                    "time": 63.86687999999994,
                    "velocity": 1,
                    "duration": 0.9979199999999935
                },
                {
                    "name": "A3",
                    "midi": 57,
                    "time": 64.86479999999993,
                    "velocity": 1,
                    "duration": 0.9979199999999935
                },
                {
                    "name": "G#3",
                    "midi": 56,
                    "time": 65.86271999999992,
                    "velocity": 1,
                    "duration": 0.49895999999999674
                },
                {
                    "name": "C#2",
                    "midi": 37,
                    "time": 67.85855999999993,
                    "velocity": 1,
                    "duration": 0.9979199999999935
                },
                {
                    "name": "E2",
                    "midi": 40,
                    "time": 68.85647999999992,
                    "velocity": 1,
                    "duration": 0.9979199999999935
                },
                {
                    "name": "C#3",
                    "midi": 49,
                    "time": 69.85439999999991,
                    "velocity": 1,
                    "duration": 0.9979199999999935
                },
                {
                    "name": "E3",
                    "midi": 52,
                    "time": 70.8523199999999,
                    "velocity": 1,
                    "duration": 0.9979199999999935
                },
                {
                    "name": "C#4",
                    "midi": 61,
                    "time": 71.8502399999999,
                    "velocity": 1,
                    "duration": 0.06237000000000137
                },
                {
                    "name": "C#4",
                    "midi": 61,
                    "time": 71.9126099999999,
                    "velocity": 1,
                    "duration": 0.06237000000000137
                },
                {
                    "name": "C#4",
                    "midi": 61,
                    "time": 71.9749799999999,
                    "velocity": 1,
                    "duration": 0.06237000000000137
                },
                {
                    "name": "C#4",
                    "midi": 61,
                    "time": 72.0373499999999,
                    "velocity": 1,
                    "duration": 0.06237000000000137
                },
                {
                    "name": "C#4",
                    "midi": 61,
                    "time": 72.0997199999999,
                    "velocity": 1,
                    "duration": 0.06237000000000137
                },
                {
                    "name": "C#4",
                    "midi": 61,
                    "time": 72.1620899999999,
                    "velocity": 1,
                    "duration": 0.06237000000000137
                },
                {
                    "name": "C#4",
                    "midi": 61,
                    "time": 72.22445999999991,
                    "velocity": 1,
                    "duration": 0.06237000000000137
                },
                {
                    "name": "C#4",
                    "midi": 61,
                    "time": 72.28682999999991,
                    "velocity": 1,
                    "duration": 0.06237000000000137
                },
                {
                    "name": "D#4",
                    "midi": 63,
                    "time": 72.34919999999991,
                    "velocity": 1,
                    "duration": 0.06237000000000137
                },
                {
                    "name": "D#4",
                    "midi": 63,
                    "time": 72.41156999999991,
                    "velocity": 1,
                    "duration": 0.06237000000000137
                },
                {
                    "name": "D#4",
                    "midi": 63,
                    "time": 72.47393999999991,
                    "velocity": 1,
                    "duration": 0.06237000000000137
                },
                {
                    "name": "D#4",
                    "midi": 63,
                    "time": 72.53630999999992,
                    "velocity": 1,
                    "duration": 0.06237000000000137
                },
                {
                    "name": "D#4",
                    "midi": 63,
                    "time": 72.59867999999992,
                    "velocity": 1,
                    "duration": 0.06237000000000137
                },
                {
                    "name": "D#4",
                    "midi": 63,
                    "time": 72.66104999999992,
                    "velocity": 1,
                    "duration": 0.06237000000000137
                },
                {
                    "name": "D#4",
                    "midi": 63,
                    "time": 72.72341999999992,
                    "velocity": 1,
                    "duration": 0.06237000000000137
                },
                {
                    "name": "D#4",
                    "midi": 63,
                    "time": 72.78578999999992,
                    "velocity": 1,
                    "duration": 0.06237000000000137
                },
                {
                    "name": "E4",
                    "midi": 64,
                    "time": 72.84815999999992,
                    "velocity": 1,
                    "duration": 0.06237000000000137
                },
                {
                    "name": "E4",
                    "midi": 64,
                    "time": 72.91052999999992,
                    "velocity": 1,
                    "duration": 0.06237000000000137
                },
                {
                    "name": "E4",
                    "midi": 64,
                    "time": 72.97289999999992,
                    "velocity": 1,
                    "duration": 0.06237000000000137
                },
                {
                    "name": "E4",
                    "midi": 64,
                    "time": 73.03526999999993,
                    "velocity": 1,
                    "duration": 0.06237000000000137
                },
                {
                    "name": "E4",
                    "midi": 64,
                    "time": 73.09763999999993,
                    "velocity": 1,
                    "duration": 0.06237000000000137
                },
                {
                    "name": "E4",
                    "midi": 64,
                    "time": 73.16000999999993,
                    "velocity": 1,
                    "duration": 0.06237000000000137
                },
                {
                    "name": "E4",
                    "midi": 64,
                    "time": 73.22237999999993,
                    "velocity": 1,
                    "duration": 0.06237000000000137
                },
                {
                    "name": "E4",
                    "midi": 64,
                    "time": 73.28474999999993,
                    "velocity": 1,
                    "duration": 0.06237000000000137
                },
                {
                    "name": "F#4",
                    "midi": 66,
                    "time": 73.34711999999993,
                    "velocity": 1,
                    "duration": 0.06237000000000137
                },
                {
                    "name": "F#4",
                    "midi": 66,
                    "time": 73.40948999999993,
                    "velocity": 1,
                    "duration": 0.06237000000000137
                },
                {
                    "name": "F#4",
                    "midi": 66,
                    "time": 73.47185999999994,
                    "velocity": 1,
                    "duration": 0.06237000000000137
                },
                {
                    "name": "F#4",
                    "midi": 66,
                    "time": 73.53422999999994,
                    "velocity": 1,
                    "duration": 0.06237000000000137
                },
                {
                    "name": "F#4",
                    "midi": 66,
                    "time": 73.59659999999994,
                    "velocity": 1,
                    "duration": 0.06237000000000137
                },
                {
                    "name": "F#4",
                    "midi": 66,
                    "time": 73.65896999999994,
                    "velocity": 1,
                    "duration": 0.06237000000000137
                },
                {
                    "name": "F#4",
                    "midi": 66,
                    "time": 73.72133999999994,
                    "velocity": 1,
                    "duration": 0.06237000000000137
                },
                {
                    "name": "F#4",
                    "midi": 66,
                    "time": 73.78370999999994,
                    "velocity": 1,
                    "duration": 0.06237000000000137
                },
                {
                    "name": "G4",
                    "midi": 67,
                    "time": 73.84607999999994,
                    "velocity": 1,
                    "duration": 0.06237000000000137
                },
                {
                    "name": "G4",
                    "midi": 67,
                    "time": 73.90844999999995,
                    "velocity": 1,
                    "duration": 0.06237000000000137
                },
                {
                    "name": "G4",
                    "midi": 67,
                    "time": 73.97081999999995,
                    "velocity": 1,
                    "duration": 0.06237000000000137
                },
                {
                    "name": "G4",
                    "midi": 67,
                    "time": 74.03318999999995,
                    "velocity": 1,
                    "duration": 0.06237000000000137
                },
                {
                    "name": "G4",
                    "midi": 67,
                    "time": 74.09555999999995,
                    "velocity": 1,
                    "duration": 0.06237000000000137
                },
                {
                    "name": "G4",
                    "midi": 67,
                    "time": 74.15792999999995,
                    "velocity": 1,
                    "duration": 0.06237000000000137
                },
                {
                    "name": "G4",
                    "midi": 67,
                    "time": 74.22029999999995,
                    "velocity": 1,
                    "duration": 0.06237000000000137
                },
                {
                    "name": "G4",
                    "midi": 67,
                    "time": 74.28266999999995,
                    "velocity": 1,
                    "duration": 0.06237000000000137
                },
                {
                    "name": "A4",
                    "midi": 69,
                    "time": 74.34503999999995,
                    "velocity": 1,
                    "duration": 0.06237000000000137
                },
                {
                    "name": "A4",
                    "midi": 69,
                    "time": 74.40740999999996,
                    "velocity": 1,
                    "duration": 0.06237000000000137
                },
                {
                    "name": "A4",
                    "midi": 69,
                    "time": 74.46977999999996,
                    "velocity": 1,
                    "duration": 0.06237000000000137
                },
                {
                    "name": "A4",
                    "midi": 69,
                    "time": 74.53214999999996,
                    "velocity": 1,
                    "duration": 0.06237000000000137
                },
                {
                    "name": "A4",
                    "midi": 69,
                    "time": 74.59451999999996,
                    "velocity": 1,
                    "duration": 0.06237000000000137
                },
                {
                    "name": "A4",
                    "midi": 69,
                    "time": 74.65688999999996,
                    "velocity": 1,
                    "duration": 0.06237000000000137
                },
                {
                    "name": "A4",
                    "midi": 69,
                    "time": 74.71925999999996,
                    "velocity": 1,
                    "duration": 0.06237000000000137
                },
                {
                    "name": "A4",
                    "midi": 69,
                    "time": 74.78162999999996,
                    "velocity": 1,
                    "duration": 0.06237000000000137
                },
                {
                    "name": "A#4",
                    "midi": 70,
                    "time": 74.84399999999997,
                    "velocity": 1,
                    "duration": 0.06237000000000137
                },
                {
                    "name": "A#4",
                    "midi": 70,
                    "time": 74.90636999999997,
                    "velocity": 1,
                    "duration": 0.06237000000000137
                },
                {
                    "name": "A#4",
                    "midi": 70,
                    "time": 74.96873999999997,
                    "velocity": 1,
                    "duration": 0.06237000000000137
                },
                {
                    "name": "A#4",
                    "midi": 70,
                    "time": 75.03110999999997,
                    "velocity": 1,
                    "duration": 0.06237000000000137
                },
                {
                    "name": "A#4",
                    "midi": 70,
                    "time": 75.09347999999997,
                    "velocity": 1,
                    "duration": 0.06237000000000137
                },
                {
                    "name": "A#4",
                    "midi": 70,
                    "time": 75.15584999999997,
                    "velocity": 1,
                    "duration": 0.06237000000000137
                },
                {
                    "name": "A#4",
                    "midi": 70,
                    "time": 75.21821999999997,
                    "velocity": 1,
                    "duration": 0.06237000000000137
                },
                {
                    "name": "A#4",
                    "midi": 70,
                    "time": 75.28058999999998,
                    "velocity": 1,
                    "duration": 0.06237000000000137
                },
                {
                    "name": "C5",
                    "midi": 72,
                    "time": 75.34295999999998,
                    "velocity": 1,
                    "duration": 0.06237000000000137
                },
                {
                    "name": "C5",
                    "midi": 72,
                    "time": 75.40532999999998,
                    "velocity": 1,
                    "duration": 0.06237000000000137
                },
                {
                    "name": "C5",
                    "midi": 72,
                    "time": 75.46769999999998,
                    "velocity": 1,
                    "duration": 0.06237000000000137
                },
                {
                    "name": "C5",
                    "midi": 72,
                    "time": 75.53006999999998,
                    "velocity": 1,
                    "duration": 0.06237000000000137
                },
                {
                    "name": "C5",
                    "midi": 72,
                    "time": 75.59243999999998,
                    "velocity": 1,
                    "duration": 0.06237000000000137
                },
                {
                    "name": "C5",
                    "midi": 72,
                    "time": 75.65480999999998,
                    "velocity": 1,
                    "duration": 0.06237000000000137
                },
                {
                    "name": "C5",
                    "midi": 72,
                    "time": 75.71717999999998,
                    "velocity": 1,
                    "duration": 0.06237000000000137
                },
                {
                    "name": "C5",
                    "midi": 72,
                    "time": 75.77954999999999,
                    "velocity": 1,
                    "duration": 0.06237000000000137
                },
                {
                    "name": "C#5",
                    "midi": 73,
                    "time": 75.84191999999999,
                    "velocity": 1,
                    "duration": 0.49895999999999674
                },
                {
                    "name": "C#3",
                    "midi": 49,
                    "time": 79.33463999999998,
                    "velocity": 1,
                    "duration": 0.49895999999999674
                },
                {
                    "name": "E3",
                    "midi": 52,
                    "time": 79.83359999999998,
                    "velocity": 1,
                    "duration": 0.49895999999999674
                },
                {
                    "name": "C#3",
                    "midi": 49,
                    "time": 81.33047999999997,
                    "velocity": 1,
                    "duration": 0.49895999999999674
                },
                {
                    "name": "E3",
                    "midi": 52,
                    "time": 81.82943999999996,
                    "velocity": 1,
                    "duration": 0.49895999999999674
                },
                {
                    "name": "C#3",
                    "midi": 49,
                    "time": 83.32631999999995,
                    "velocity": 1,
                    "duration": 0.49895999999999674
                },
                {
                    "name": "E3",
                    "midi": 52,
                    "time": 83.82527999999995,
                    "velocity": 1,
                    "duration": 0.9979199999999935
                },
                {
                    "name": "D#3",
                    "midi": 51,
                    "time": 84.82319999999994,
                    "velocity": 1,
                    "duration": 0.9979199999999935
                },
                {
                    "name": "A2",
                    "midi": 45,
                    "time": 85.82111999999994,
                    "velocity": 1,
                    "duration": 0.12474000000000274
                },
                {
                    "name": "A#2",
                    "midi": 46,
                    "time": 85.94585999999994,
                    "velocity": 1,
                    "duration": 0.12474000000000274
                },
                {
                    "name": "A2",
                    "midi": 45,
                    "time": 86.07059999999994,
                    "velocity": 1,
                    "duration": 0.12474000000000274
                },
                {
                    "name": "A#2",
                    "midi": 46,
                    "time": 86.19533999999994,
                    "velocity": 1,
                    "duration": 0.12474000000000274
                },
                {
                    "name": "A2",
                    "midi": 45,
                    "time": 86.32007999999995,
                    "velocity": 1,
                    "duration": 0.12474000000000274
                },
                {
                    "name": "A#2",
                    "midi": 46,
                    "time": 86.44481999999995,
                    "velocity": 1,
                    "duration": 0.12474000000000274
                },
                {
                    "name": "A2",
                    "midi": 45,
                    "time": 86.56955999999995,
                    "velocity": 1,
                    "duration": 0.12474000000000274
                },
                {
                    "name": "A#2",
                    "midi": 46,
                    "time": 86.69429999999996,
                    "velocity": 1,
                    "duration": 0.12474000000000274
                },
                {
                    "name": "A2",
                    "midi": 45,
                    "time": 86.81903999999996,
                    "velocity": 1,
                    "duration": 0.12474000000000274
                },
                {
                    "name": "A#2",
                    "midi": 46,
                    "time": 86.94377999999996,
                    "velocity": 1,
                    "duration": 0.12474000000000274
                },
                {
                    "name": "A2",
                    "midi": 45,
                    "time": 87.06851999999996,
                    "velocity": 1,
                    "duration": 0.12474000000000274
                },
                {
                    "name": "A#2",
                    "midi": 46,
                    "time": 87.19325999999997,
                    "velocity": 1,
                    "duration": 0.12474000000000274
                },
                {
                    "name": "A2",
                    "midi": 45,
                    "time": 87.31799999999997,
                    "velocity": 1,
                    "duration": 0.12474000000000274
                },
                {
                    "name": "A#2",
                    "midi": 46,
                    "time": 87.44273999999997,
                    "velocity": 1,
                    "duration": 0.12474000000000274
                },
                {
                    "name": "A2",
                    "midi": 45,
                    "time": 87.56747999999997,
                    "velocity": 1,
                    "duration": 0.12474000000000274
                },
                {
                    "name": "A#2",
                    "midi": 46,
                    "time": 87.69221999999998,
                    "velocity": 1,
                    "duration": 0.12474000000000274
                },
                {
                    "name": "A2",
                    "midi": 45,
                    "time": 87.81695999999998,
                    "velocity": 1,
                    "duration": 0.24948000000000548
                },
                {
                    "name": "A#2",
                    "midi": 46,
                    "time": 88.06643999999999,
                    "velocity": 1,
                    "duration": 0.24948000000000548
                },
                {
                    "name": "C#3",
                    "midi": 49,
                    "time": 88.31591999999999,
                    "velocity": 1,
                    "duration": 0.24948000000000548
                },
                {
                    "name": "D3",
                    "midi": 50,
                    "time": 88.5654,
                    "velocity": 1,
                    "duration": 0.24948000000000548
                },
                {
                    "name": "E3",
                    "midi": 52,
                    "time": 88.81488,
                    "velocity": 1,
                    "duration": 0.24948000000000548
                },
                {
                    "name": "F3",
                    "midi": 53,
                    "time": 89.06436000000001,
                    "velocity": 1,
                    "duration": 0.24948000000000548
                },
                {
                    "name": "G3",
                    "midi": 55,
                    "time": 89.31384000000001,
                    "velocity": 1,
                    "duration": 0.24948000000000548
                },
                {
                    "name": "G#3",
                    "midi": 56,
                    "time": 89.56332000000002,
                    "velocity": 1,
                    "duration": 0.24948000000000548
                },
                {
                    "name": "A3",
                    "midi": 57,
                    "time": 89.81280000000002,
                    "velocity": 1,
                    "duration": 2.2453200000000066
                },
                {
                    "name": "B3",
                    "midi": 59,
                    "time": 92.05812000000003,
                    "velocity": 1,
                    "duration": 0.24948000000000548
                },
                {
                    "name": "C#4",
                    "midi": 61,
                    "time": 92.30760000000004,
                    "velocity": 1,
                    "duration": 0.24948000000000548
                },
                {
                    "name": "D4",
                    "midi": 62,
                    "time": 92.55708000000004,
                    "velocity": 1,
                    "duration": 0.24948000000000548
                },
                {
                    "name": "E4",
                    "midi": 64,
                    "time": 92.80656000000005,
                    "velocity": 1,
                    "duration": 0.24948000000000548
                },
                {
                    "name": "F4",
                    "midi": 65,
                    "time": 93.05604000000005,
                    "velocity": 1,
                    "duration": 0.24948000000000548
                },
                {
                    "name": "G4",
                    "midi": 67,
                    "time": 93.30552000000006,
                    "velocity": 1,
                    "duration": 0.24948000000000548
                },
                {
                    "name": "G#4",
                    "midi": 68,
                    "time": 93.55500000000006,
                    "velocity": 1,
                    "duration": 0.24948000000000548
                },
                {
                    "name": "A4",
                    "midi": 69,
                    "time": 93.80448000000007,
                    "velocity": 1,
                    "duration": 0.49895999999999674
                },
                {
                    "name": "G4",
                    "midi": 67,
                    "time": 94.30344000000007,
                    "velocity": 1,
                    "duration": 0.49895999999999674
                },
                {
                    "name": "E4",
                    "midi": 64,
                    "time": 94.80240000000006,
                    "velocity": 1,
                    "duration": 0.49895999999999674
                },
                {
                    "name": "G4",
                    "midi": 67,
                    "time": 95.30136000000006,
                    "velocity": 1,
                    "duration": 0.49895999999999674
                },
                {
                    "name": "A4",
                    "midi": 69,
                    "time": 95.80032000000006,
                    "velocity": 1,
                    "duration": 0.49895999999999674
                },
                {
                    "name": "G4",
                    "midi": 67,
                    "time": 96.29928000000005,
                    "velocity": 1,
                    "duration": 0.49895999999999674
                },
                {
                    "name": "E4",
                    "midi": 64,
                    "time": 96.79824000000005,
                    "velocity": 1,
                    "duration": 0.49895999999999674
                },
                {
                    "name": "G4",
                    "midi": 67,
                    "time": 97.29720000000005,
                    "velocity": 1,
                    "duration": 0.49895999999999674
                },
                {
                    "name": "A4",
                    "midi": 69,
                    "time": 97.79616000000004,
                    "velocity": 1,
                    "duration": 0.49895999999999674
                },
                {
                    "name": "D#4",
                    "midi": 63,
                    "time": 99.29304000000003,
                    "velocity": 1,
                    "duration": 0.49895999999999674
                },
                {
                    "name": "A3",
                    "midi": 57,
                    "time": 99.79200000000003,
                    "velocity": 1,
                    "duration": 0.49895999999999674
                },
                {
                    "name": "D#4",
                    "midi": 63,
                    "time": 101.28888000000002,
                    "velocity": 1,
                    "duration": 0.49895999999999674
                },
                {
                    "name": "A3",
                    "midi": 57,
                    "time": 101.78784000000002,
                    "velocity": 1,
                    "duration": 0.49895999999999674
                },
                {
                    "name": "D#4",
                    "midi": 63,
                    "time": 103.28472000000001,
                    "velocity": 1,
                    "duration": 0.49895999999999674
                },
                {
                    "name": "A3",
                    "midi": 57,
                    "time": 103.78368,
                    "velocity": 1,
                    "duration": 0.49895999999999674
                },
                {
                    "name": "A2",
                    "midi": 45,
                    "time": 108.27432,
                    "velocity": 1,
                    "duration": 0.49895999999999674
                },
                {
                    "name": "D2",
                    "midi": 38,
                    "time": 108.77328,
                    "velocity": 1,
                    "duration": 0.49895999999999674
                },
                {
                    "name": "A2",
                    "midi": 45,
                    "time": 112.26599999999999,
                    "velocity": 1,
                    "duration": 0.49895999999999674
                },
                {
                    "name": "D2",
                    "midi": 38,
                    "time": 112.76495999999999,
                    "velocity": 1,
                    "duration": 0.49895999999999674
                },
                {
                    "name": "B2",
                    "midi": 47,
                    "time": 116.25767999999998,
                    "velocity": 1,
                    "duration": 0.49895999999999674
                },
                {
                    "name": "D#2",
                    "midi": 39,
                    "time": 116.75663999999998,
                    "velocity": 1,
                    "duration": 0.49895999999999674
                },
                {
                    "name": "D3",
                    "midi": 50,
                    "time": 120.24935999999997,
                    "velocity": 1,
                    "duration": 0.49895999999999674
                },
                {
                    "name": "G2",
                    "midi": 43,
                    "time": 120.74831999999996,
                    "velocity": 1,
                    "duration": 0.49895999999999674
                },
                {
                    "name": "A3",
                    "midi": 57,
                    "time": 122.24519999999995,
                    "velocity": 1,
                    "duration": 0.49895999999999674
                },
                {
                    "name": "A2",
                    "midi": 45,
                    "time": 122.74415999999995,
                    "velocity": 1,
                    "duration": 0.49895999999999674
                },
                {
                    "name": "A2",
                    "midi": 45,
                    "time": 124.24103999999994,
                    "velocity": 1,
                    "duration": 0.49895999999999674
                },
                {
                    "name": "D2",
                    "midi": 38,
                    "time": 124.73999999999994,
                    "velocity": 1,
                    "duration": 0.49895999999999674
                },
                {
                    "name": "G2",
                    "midi": 43,
                    "time": 126.73583999999994,
                    "velocity": 1,
                    "duration": 0.49895999999999674
                },
                {
                    "name": "D3",
                    "midi": 50,
                    "time": 126.73583999999994,
                    "velocity": 1,
                    "duration": 0.49895999999999674
                },
                {
                    "name": "A2",
                    "midi": 45,
                    "time": 128.23271999999994,
                    "velocity": 1,
                    "duration": 0.49896000000001095
                },
                {
                    "name": "D2",
                    "midi": 38,
                    "time": 128.73167999999995,
                    "velocity": 1,
                    "duration": 0.49896000000001095
                },
                {
                    "name": "D3",
                    "midi": 50,
                    "time": 130.72751999999997,
                    "velocity": 1,
                    "duration": 0.49896000000001095
                },
                {
                    "name": "G2",
                    "midi": 43,
                    "time": 130.72751999999997,
                    "velocity": 1,
                    "duration": 0.49896000000001095
                },
                {
                    "name": "A2",
                    "midi": 45,
                    "time": 132.22439999999997,
                    "velocity": 1,
                    "duration": 0.49896000000001095
                },
                {
                    "name": "D2",
                    "midi": 38,
                    "time": 132.72335999999999,
                    "velocity": 1,
                    "duration": 0.49896000000001095
                },
                {
                    "name": "A#2",
                    "midi": 46,
                    "time": 135.71712,
                    "velocity": 1,
                    "duration": 5.987519999999989
                },
                {
                    "name": "A#2",
                    "midi": 46,
                    "time": 141.70463999999998,
                    "velocity": 1,
                    "duration": 3.9916800000000023
                },
                {
                    "name": "G#2",
                    "midi": 44,
                    "time": 145.69632,
                    "velocity": 1,
                    "duration": 5.987519999999989
                },
                {
                    "name": "C#3",
                    "midi": 49,
                    "time": 151.68383999999998,
                    "velocity": 1,
                    "duration": 5.987519999999989
                },
                {
                    "name": "F#2",
                    "midi": 42,
                    "time": 151.68383999999998,
                    "velocity": 1,
                    "duration": 5.987519999999989
                },
                {
                    "name": "B2",
                    "midi": 47,
                    "time": 157.67135999999996,
                    "velocity": 1,
                    "duration": 7.983360000000005
                },
                {
                    "name": "E2",
                    "midi": 40,
                    "time": 157.67135999999996,
                    "velocity": 1,
                    "duration": 7.983360000000005
                },
                {
                    "name": "A2",
                    "midi": 45,
                    "time": 165.65471999999997,
                    "velocity": 1,
                    "duration": 0.49896000000001095
                },
                {
                    "name": "D2",
                    "midi": 38,
                    "time": 165.65471999999997,
                    "velocity": 1,
                    "duration": 0.49896000000001095
                },
                {
                    "name": "G#3",
                    "midi": 56,
                    "time": 179.6256,
                    "velocity": 1,
                    "duration": 0.49896000000001095
                },
                {
                    "name": "B2",
                    "midi": 47,
                    "time": 179.6256,
                    "velocity": 1,
                    "duration": 0.49896000000001095
                },
                {
                    "name": "F2",
                    "midi": 41,
                    "time": 179.6256,
                    "velocity": 1,
                    "duration": 0.49896000000001095
                },
                {
                    "name": "D#4",
                    "midi": 63,
                    "time": 183.11832,
                    "velocity": 1,
                    "duration": 0.9979199999999935
                },
                {
                    "name": "B3",
                    "midi": 59,
                    "time": 184.11624,
                    "velocity": 1,
                    "duration": 0.49896000000001095
                },
                {
                    "name": "A#3",
                    "midi": 58,
                    "time": 184.61520000000002,
                    "velocity": 1,
                    "duration": 0.49896000000001095
                },
                {
                    "name": "G#3",
                    "midi": 56,
                    "time": 185.11416000000003,
                    "velocity": 1,
                    "duration": 0.49896000000001095
                },
                {
                    "name": "G3",
                    "midi": 55,
                    "time": 185.61312000000004,
                    "velocity": 1,
                    "duration": 0.49896000000001095
                },
                {
                    "name": "F3",
                    "midi": 53,
                    "time": 186.11208000000005,
                    "velocity": 1,
                    "duration": 0.24948000000000548
                },
                {
                    "name": "G3",
                    "midi": 55,
                    "time": 186.36156000000005,
                    "velocity": 1,
                    "duration": 0.24948000000000548
                },
                {
                    "name": "G#3",
                    "midi": 56,
                    "time": 186.61104000000006,
                    "velocity": 1,
                    "duration": 0.24948000000000548
                },
                {
                    "name": "A#3",
                    "midi": 58,
                    "time": 186.86052000000007,
                    "velocity": 1,
                    "duration": 0.24948000000000548
                },
                {
                    "name": "B3",
                    "midi": 59,
                    "time": 187.11000000000007,
                    "velocity": 1,
                    "duration": 0.49896000000001095
                },
                {
                    "name": "D#4",
                    "midi": 63,
                    "time": 187.60896000000008,
                    "velocity": 1,
                    "duration": 1.4968800000000044
                },
                {
                    "name": "B3",
                    "midi": 59,
                    "time": 189.1058400000001,
                    "velocity": 1,
                    "duration": 0.49896000000001095
                },
                {
                    "name": "D#4",
                    "midi": 63,
                    "time": 189.6048000000001,
                    "velocity": 1,
                    "duration": 1.4968800000000044
                },
                {
                    "name": "B3",
                    "midi": 59,
                    "time": 191.1016800000001,
                    "velocity": 1,
                    "duration": 0.49896000000001095
                },
                {
                    "name": "D#4",
                    "midi": 63,
                    "time": 191.6006400000001,
                    "velocity": 1,
                    "duration": 0.49896000000001095
                },
                {
                    "name": "F4",
                    "midi": 65,
                    "time": 192.09960000000012,
                    "velocity": 1,
                    "duration": 0.8316000000000088
                },
                {
                    "name": "D#4",
                    "midi": 63,
                    "time": 192.93120000000013,
                    "velocity": 1,
                    "duration": 0.3326399999999978
                },
                {
                    "name": "F4",
                    "midi": 65,
                    "time": 193.26384000000013,
                    "velocity": 1,
                    "duration": 0.3326399999999978
                },
                {
                    "name": "F#4",
                    "midi": 66,
                    "time": 193.59648000000013,
                    "velocity": 1,
                    "duration": 1.4968800000000044
                },
                {
                    "name": "F2",
                    "midi": 41,
                    "time": 195.59232000000014,
                    "velocity": 1,
                    "duration": 0.49896000000001095
                },
                {
                    "name": "F2",
                    "midi": 41,
                    "time": 197.58816000000016,
                    "velocity": 1,
                    "duration": 0.49896000000001095
                },
                {
                    "name": "F2",
                    "midi": 41,
                    "time": 199.58400000000017,
                    "velocity": 1,
                    "duration": 0.49896000000001095
                },
                {
                    "name": "D#2",
                    "midi": 39,
                    "time": 201.5798400000002,
                    "velocity": 1,
                    "duration": 0.49896000000001095
                },
                {
                    "name": "D#2",
                    "midi": 39,
                    "time": 203.5756800000002,
                    "velocity": 1,
                    "duration": 0.49896000000001095
                },
                {
                    "name": "D#2",
                    "midi": 39,
                    "time": 207.5673600000002,
                    "velocity": 1,
                    "duration": 0.49896000000001095
                },
                {
                    "name": "D#2",
                    "midi": 39,
                    "time": 209.56320000000022,
                    "velocity": 1,
                    "duration": 0.08315999999999235
                },
                {
                    "name": "B2",
                    "midi": 47,
                    "time": 209.64636000000021,
                    "velocity": 1,
                    "duration": 0.08315999999999235
                },
                {
                    "name": "F#3",
                    "midi": 54,
                    "time": 209.7295200000002,
                    "velocity": 1,
                    "duration": 0.08315999999999235
                },
                {
                    "name": "F#3",
                    "midi": 54,
                    "time": 209.8126800000002,
                    "velocity": 1,
                    "duration": 0.24948000000000548
                },
                {
                    "name": "F#3",
                    "midi": 54,
                    "time": 210.3116400000002,
                    "velocity": 1,
                    "duration": 0.08315999999999235
                },
                {
                    "name": "B2",
                    "midi": 47,
                    "time": 210.3948000000002,
                    "velocity": 1,
                    "duration": 0.08315999999999235
                },
                {
                    "name": "D#2",
                    "midi": 39,
                    "time": 210.4779600000002,
                    "velocity": 1,
                    "duration": 0.08315999999999235
                },
                {
                    "name": "D#2",
                    "midi": 39,
                    "time": 210.5611200000002,
                    "velocity": 1,
                    "duration": 0.24948000000000548
                },
                {
                    "name": "D#4",
                    "midi": 63,
                    "time": 211.0600800000002,
                    "velocity": 1,
                    "duration": 0.49896000000001095
                },
                {
                    "name": "F#4",
                    "midi": 66,
                    "time": 211.5590400000002,
                    "velocity": 1,
                    "duration": 1.4968800000000044
                },
                {
                    "name": "F4",
                    "midi": 65,
                    "time": 213.0559200000002,
                    "velocity": 1,
                    "duration": 0.16632000000001312
                },
                {
                    "name": "F#4",
                    "midi": 66,
                    "time": 213.22224000000023,
                    "velocity": 1,
                    "duration": 0.16632000000001312
                },
                {
                    "name": "G#4",
                    "midi": 68,
                    "time": 213.38856000000024,
                    "velocity": 1,
                    "duration": 0.16632000000001312
                }
            ],
            "controlChanges": {
                "10": [
                    {
                        "number": 10,
                        "time": 0,
                        "value": 0
                    },
                    {
                        "number": 10,
                        "time": 15.966720000000006,
                        "value": 0
                    },
                    {
                        "number": 10,
                        "time": 31.933440000000015,
                        "value": 0
                    },
                    {
                        "number": 10,
                        "time": 39.91679999999997,
                        "value": 0
                    },
                    {
                        "number": 10,
                        "time": 41.91263999999996,
                        "value": 0
                    },
                    {
                        "number": 10,
                        "time": 45.90431999999995,
                        "value": 0
                    },
                    {
                        "number": 10,
                        "time": 53.887679999999925,
                        "value": 0
                    },
                    {
                        "number": 10,
                        "time": 61.871039999999944,
                        "value": 0
                    },
                    {
                        "number": 10,
                        "time": 67.85855999999993,
                        "value": 0
                    },
                    {
                        "number": 10,
                        "time": 75.84191999999999,
                        "value": 0
                    },
                    {
                        "number": 10,
                        "time": 85.82111999999994,
                        "value": 0
                    },
                    {
                        "number": 10,
                        "time": 107.77536,
                        "value": 0
                    },
                    {
                        "number": 10,
                        "time": 135.71712,
                        "value": 0
                    },
                    {
                        "number": 10,
                        "time": 165.65471999999997,
                        "value": 0
                    },
                    {
                        "number": 10,
                        "time": 179.6256,
                        "value": 0
                    },
                    {
                        "number": 10,
                        "time": 181.62144,
                        "value": 0
                    },
                    {
                        "number": 10,
                        "time": 195.59232000000014,
                        "value": 0
                    },
                    {
                        "number": 10,
                        "time": 209.56320000000022,
                        "value": 0
                    }
                ]
            },
            "id": 4,
            "name": "cello",
            "instrumentNumber": 42,
            "instrument": "cello",
            "instrumentFamily": "strings",
            "channelNumber": 3,
            "isPercussion": false
        }
    ]
}