{
    "header": {
        "PPQ": 480,
        "timeSignature": [
            4,
            4
        ],
        "bpm": 60,
        "name": "Seq-1"
    },
    "startTime": 0,
    "duration": 92.54166666666669,
    "tracks": [
        {
            "startTime": 0,
            "duration": 0,
            "length": 0,
            "notes": [],
            "controlChanges": {},
            "id": 0,
            "name": "Seq-1"
        },
        {
            "startTime": 0,
            "duration": 87.20000000000002,
            "length": 695,
            "notes": [
                {
                    "name": "C#4",
                    "midi": 61,
                    "time": 0,
                    "velocity": 0.47244094488188976,
                    "duration": 0.09166666666666666
                },
                {
                    "name": "E4",
                    "midi": 64,
                    "time": 0,
                    "velocity": 0.47244094488188976,
                    "duration": 0.09166666666666666
                },
                {
                    "name": "G#4",
                    "midi": 68,
                    "time": 0.1875,
                    "velocity": 0.47244094488188976,
                    "duration": 0.09583333333333333
                },
                {
                    "name": "C#5",
                    "midi": 73,
                    "time": 0.375,
                    "velocity": 0.47244094488188976,
                    "duration": 0.09166666666666667
                },
                {
                    "name": "C#4",
                    "midi": 61,
                    "time": 0.375,
                    "velocity": 0.47244094488188976,
                    "duration": 0.09166666666666667
                },
                {
                    "name": "G#4",
                    "midi": 68,
                    "time": 0.5625,
                    "velocity": 0.47244094488188976,
                    "duration": 0.09583333333333333
                },
                {
                    "name": "C#4",
                    "midi": 61,
                    "time": 0.75,
                    "velocity": 0.47244094488188976,
                    "duration": 0.09166666666666667
                },
                {
                    "name": "E4",
                    "midi": 64,
                    "time": 0.75,
                    "velocity": 0.47244094488188976,
                    "duration": 0.09166666666666667
                },
                {
                    "name": "G#4",
                    "midi": 68,
                    "time": 0.9375,
                    "velocity": 0.47244094488188976,
                    "duration": 0.09583333333333344
                },
                {
                    "name": "C#5",
                    "midi": 73,
                    "time": 1.125,
                    "velocity": 0.47244094488188976,
                    "duration": 0.09166666666666656
                },
                {
                    "name": "C#4",
                    "midi": 61,
                    "time": 1.125,
                    "velocity": 0.47244094488188976,
                    "duration": 0.09166666666666656
                },
                {
                    "name": "G#4",
                    "midi": 68,
                    "time": 1.3125,
                    "velocity": 0.47244094488188976,
                    "duration": 0.09583333333333344
                },
                {
                    "name": "A#4",
                    "midi": 70,
                    "time": 1.5,
                    "velocity": 0.47244094488188976,
                    "duration": 0.09166666666666656
                },
                {
                    "name": "F#4",
                    "midi": 66,
                    "time": 1.5,
                    "velocity": 0.47244094488188976,
                    "duration": 0.09166666666666656
                },
                {
                    "name": "F#3",
                    "midi": 54,
                    "time": 1.6875,
                    "velocity": 0.47244094488188976,
                    "duration": 0.04583333333333339
                },
                {
                    "name": "C#5",
                    "midi": 73,
                    "time": 1.6875,
                    "velocity": 0.47244094488188976,
                    "duration": 0.09583333333333344
                },
                {
                    "name": "G#4",
                    "midi": 68,
                    "time": 1.875,
                    "velocity": 0.47244094488188976,
                    "duration": 0.09166666666666656
                },
                {
                    "name": "E4",
                    "midi": 64,
                    "time": 1.875,
                    "velocity": 0.47244094488188976,
                    "duration": 0.09166666666666656
                },
                {
                    "name": "G#3",
                    "midi": 56,
                    "time": 2.0625,
                    "velocity": 0.47244094488188976,
                    "duration": 0.04583333333333339
                },
                {
                    "name": "C#5",
                    "midi": 73,
                    "time": 2.0625,
                    "velocity": 0.47244094488188976,
                    "duration": 0.09583333333333321
                },
                {
                    "name": "D#4",
                    "midi": 63,
                    "time": 2.25,
                    "velocity": 0.47244094488188976,
                    "duration": 0.09166666666666679
                },
                {
                    "name": "F#4",
                    "midi": 66,
                    "time": 2.25,
                    "velocity": 0.47244094488188976,
                    "duration": 0.09166666666666679
                },
                {
                    "name": "G#3",
                    "midi": 56,
                    "time": 2.4375,
                    "velocity": 0.47244094488188976,
                    "duration": 0.04583333333333339
                },
                {
                    "name": "B4",
                    "midi": 71,
                    "time": 2.4375,
                    "velocity": 0.47244094488188976,
                    "duration": 0.09583333333333321
                },
                {
                    "name": "E4",
                    "midi": 64,
                    "time": 2.625,
                    "velocity": 0.47244094488188976,
                    "duration": 0.09166666666666679
                },
                {
                    "name": "C#5",
                    "midi": 73,
                    "time": 2.625,
                    "velocity": 0.47244094488188976,
                    "duration": 0.09166666666666679
                },
                {
                    "name": "C#3",
                    "midi": 49,
                    "time": 2.625,
                    "velocity": 0.47244094488188976,
                    "duration": 0.09166666666666679
                },
                {
                    "name": "G#4",
                    "midi": 68,
                    "time": 2.8125,
                    "velocity": 0.47244094488188976,
                    "duration": 0.09583333333333321
                },
                {
                    "name": "C#4",
                    "midi": 61,
                    "time": 3,
                    "velocity": 0.47244094488188976,
                    "duration": 0.09166666666666679
                },
                {
                    "name": "E4",
                    "midi": 64,
                    "time": 3,
                    "velocity": 0.47244094488188976,
                    "duration": 0.09166666666666679
                },
                {
                    "name": "C#2",
                    "midi": 37,
                    "time": 3,
                    "velocity": 0.5118110236220472,
                    "duration": 0.3041666666666667
                },
                {
                    "name": "G#4",
                    "midi": 68,
                    "time": 3.1875,
                    "velocity": 0.47244094488188976,
                    "duration": 0.09583333333333321
                },
                {
                    "name": "C#5",
                    "midi": 73,
                    "time": 3.375,
                    "velocity": 0.47244094488188976,
                    "duration": 0.09166666666666679
                },
                {
                    "name": "G#4",
                    "midi": 68,
                    "time": 3.5625,
                    "velocity": 0.47244094488188976,
                    "duration": 0.09583333333333321
                },
                {
                    "name": "C#4",
                    "midi": 61,
                    "time": 3.75,
                    "velocity": 0.47244094488188976,
                    "duration": 0.09166666666666679
                },
                {
                    "name": "E4",
                    "midi": 64,
                    "time": 3.75,
                    "velocity": 0.47244094488188976,
                    "duration": 0.09166666666666679
                },
                {
                    "name": "E5",
                    "midi": 76,
                    "time": 3.75,
                    "velocity": 0.47244094488188976,
                    "duration": 0.09166666666666679
                },
                {
                    "name": "G#5",
                    "midi": 80,
                    "time": 3.75,
                    "velocity": 0.47244094488188976,
                    "duration": 0.09166666666666679
                },
                {
                    "name": "G#4",
                    "midi": 68,
                    "time": 3.9375,
                    "velocity": 0.47244094488188976,
                    "duration": 0.09583333333333321
                },
                {
                    "name": "C#5",
                    "midi": 73,
                    "time": 4.125,
                    "velocity": 0.47244094488188976,
                    "duration": 0.09166666666666679
                },
                {
                    "name": "E5",
                    "midi": 76,
                    "time": 4.125,
                    "velocity": 0.5511811023622047,
                    "duration": 0.75
                },
                {
                    "name": "G#5",
                    "midi": 80,
                    "time": 4.125,
                    "velocity": 0.5511811023622047,
                    "duration": 0.75
                },
                {
                    "name": "G#4",
                    "midi": 68,
                    "time": 4.3125,
                    "velocity": 0.47244094488188976,
                    "duration": 0.09583333333333321
                },
                {
                    "name": "C#4",
                    "midi": 61,
                    "time": 4.5,
                    "velocity": 0.47244094488188976,
                    "duration": 0.09166666666666679
                },
                {
                    "name": "E4",
                    "midi": 64,
                    "time": 4.5,
                    "velocity": 0.47244094488188976,
                    "duration": 0.09166666666666679
                },
                {
                    "name": "G#4",
                    "midi": 68,
                    "time": 4.6875,
                    "velocity": 0.47244094488188976,
                    "duration": 0.09583333333333321
                },
                {
                    "name": "A#5",
                    "midi": 82,
                    "time": 4.875,
                    "velocity": 0.5511811023622047,
                    "duration": 0.125
                },
                {
                    "name": "E5",
                    "midi": 76,
                    "time": 4.875,
                    "velocity": 0.5511811023622047,
                    "duration": 0.2833333333333332
                },
                {
                    "name": "C#5",
                    "midi": 73,
                    "time": 4.875,
                    "velocity": 0.5511811023622047,
                    "duration": 0.3624999999999998
                },
                {
                    "name": "A#4",
                    "midi": 70,
                    "time": 4.875,
                    "velocity": 0.5511811023622047,
                    "duration": 0.3624999999999998
                },
                {
                    "name": "G#5",
                    "midi": 80,
                    "time": 5,
                    "velocity": 0.5118110236220472,
                    "duration": 0.125
                },
                {
                    "name": "F#4",
                    "midi": 66,
                    "time": 5.0625,
                    "velocity": 0.47244094488188976,
                    "duration": 0.09583333333333321
                },
                {
                    "name": "F#5",
                    "midi": 78,
                    "time": 5.125,
                    "velocity": 0.4881889763779528,
                    "duration": 0.09166666666666679
                },
                {
                    "name": "G#4",
                    "midi": 68,
                    "time": 5.25,
                    "velocity": 0.47244094488188976,
                    "duration": 0.09166666666666679
                },
                {
                    "name": "E5",
                    "midi": 76,
                    "time": 5.25,
                    "velocity": 0.47244094488188976,
                    "duration": 0.2333333333333334
                },
                {
                    "name": "C#5",
                    "midi": 73,
                    "time": 5.25,
                    "velocity": 0.47244094488188976,
                    "duration": 0.25416666666666643
                },
                {
                    "name": "C#4",
                    "midi": 61,
                    "time": 5.25,
                    "velocity": 0.47244094488188976,
                    "duration": 0.34999999999999964
                },
                {
                    "name": "E4",
                    "midi": 64,
                    "time": 5.4375,
                    "velocity": 0.47244094488188976,
                    "duration": 0.09583333333333321
                },
                {
                    "name": "C#5",
                    "midi": 73,
                    "time": 5.625,
                    "velocity": 0.47244094488188976,
                    "duration": 0.09166666666666679
                },
                {
                    "name": "C#5",
                    "midi": 73,
                    "time": 5.625,
                    "velocity": 0.47244094488188976,
                    "duration": 0.1875
                },
                {
                    "name": "G#4",
                    "midi": 68,
                    "time": 5.625,
                    "velocity": 0.47244094488188976,
                    "duration": 0.1875
                },
                {
                    "name": "E4",
                    "midi": 64,
                    "time": 5.8125,
                    "velocity": 0.47244094488188976,
                    "duration": 0.09583333333333321
                },
                {
                    "name": "E5",
                    "midi": 76,
                    "time": 5.8125,
                    "velocity": 0.47244094488188976,
                    "duration": 0.1875
                },
                {
                    "name": "C#4",
                    "midi": 61,
                    "time": 6,
                    "velocity": 0.47244094488188976,
                    "duration": 0.09166666666666679
                },
                {
                    "name": "D#4",
                    "midi": 63,
                    "time": 6,
                    "velocity": 0.47244094488188976,
                    "duration": 0.09166666666666679
                },
                {
                    "name": "D#5",
                    "midi": 75,
                    "time": 6,
                    "velocity": 0.47244094488188976,
                    "duration": 0.09166666666666679
                },
                {
                    "name": "F#5",
                    "midi": 78,
                    "time": 6,
                    "velocity": 0.47244094488188976,
                    "duration": 0.09166666666666679
                },
                {
                    "name": "F#4",
                    "midi": 66,
                    "time": 6.1875,
                    "velocity": 0.47244094488188976,
                    "duration": 0.09583333333333321
                },
                {
                    "name": "C#5",
                    "midi": 73,
                    "time": 6.375,
                    "velocity": 0.47244094488188976,
                    "duration": 0.09166666666666679
                },
                {
                    "name": "C#6",
                    "midi": 85,
                    "time": 6.375,
                    "velocity": 0.47244094488188976,
                    "duration": 0.1875
                },
                {
                    "name": "F#4",
                    "midi": 66,
                    "time": 6.5625,
                    "velocity": 0.47244094488188976,
                    "duration": 0.09583333333333321
                },
                {
                    "name": "C#4",
                    "midi": 61,
                    "time": 6.75,
                    "velocity": 0.47244094488188976,
                    "duration": 0.09166666666666679
                },
                {
                    "name": "E4",
                    "midi": 64,
                    "time": 6.75,
                    "velocity": 0.47244094488188976,
                    "duration": 0.09166666666666679
                },
                {
                    "name": "E5",
                    "midi": 76,
                    "time": 6.75,
                    "velocity": 0.47244094488188976,
                    "duration": 0.09166666666666679
                },
                {
                    "name": "G#5",
                    "midi": 80,
                    "time": 6.75,
                    "velocity": 0.47244094488188976,
                    "duration": 0.09166666666666679
                },
                {
                    "name": "G#4",
                    "midi": 68,
                    "time": 6.9375,
                    "velocity": 0.47244094488188976,
                    "duration": 0.09583333333333321
                },
                {
                    "name": "C#5",
                    "midi": 73,
                    "time": 7.125,
                    "velocity": 0.47244094488188976,
                    "duration": 0.09166666666666679
                },
                {
                    "name": "C#6",
                    "midi": 85,
                    "time": 7.125,
                    "velocity": 0.47244094488188976,
                    "duration": 0.1875
                },
                {
                    "name": "G#4",
                    "midi": 68,
                    "time": 7.3125,
                    "velocity": 0.47244094488188976,
                    "duration": 0.09583333333333321
                },
                {
                    "name": "E4",
                    "midi": 64,
                    "time": 7.5,
                    "velocity": 0.47244094488188976,
                    "duration": 0.09166666666666679
                },
                {
                    "name": "B3",
                    "midi": 59,
                    "time": 7.5,
                    "velocity": 0.47244094488188976,
                    "duration": 0.09166666666666679
                },
                {
                    "name": "C#5",
                    "midi": 73,
                    "time": 7.5,
                    "velocity": 0.47244094488188976,
                    "duration": 0.09166666666666679
                },
                {
                    "name": "E5",
                    "midi": 76,
                    "time": 7.516666666666667,
                    "velocity": 0.47244094488188976,
                    "duration": 0.09166666666666679
                },
                {
                    "name": "G#5",
                    "midi": 80,
                    "time": 7.533333333333333,
                    "velocity": 0.47244094488188976,
                    "duration": 0.09166666666666679
                },
                {
                    "name": "B5",
                    "midi": 83,
                    "time": 7.545833333333333,
                    "velocity": 0.47244094488188976,
                    "duration": 0.09583333333333321
                },
                {
                    "name": "C#6",
                    "midi": 85,
                    "time": 7.5625,
                    "velocity": 0.47244094488188976,
                    "duration": 0.09583333333333321
                },
                {
                    "name": "G#4",
                    "midi": 68,
                    "time": 7.6875,
                    "velocity": 0.47244094488188976,
                    "duration": 0.09583333333333321
                },
                {
                    "name": "C#5",
                    "midi": 73,
                    "time": 7.875,
                    "velocity": 0.47244094488188976,
                    "duration": 0.09166666666666679
                },
                {
                    "name": "B5",
                    "midi": 83,
                    "time": 7.875,
                    "velocity": 0.5511811023622047,
                    "duration": 0.75
                },
                {
                    "name": "C#6",
                    "midi": 85,
                    "time": 7.875,
                    "velocity": 0.5511811023622047,
                    "duration": 0.75
                },
                {
                    "name": "G#4",
                    "midi": 68,
                    "time": 8.0625,
                    "velocity": 0.47244094488188976,
                    "duration": 0.09583333333333321
                },
                {
                    "name": "E4",
                    "midi": 64,
                    "time": 8.25,
                    "velocity": 0.47244094488188976,
                    "duration": 0.09166666666666679
                },
                {
                    "name": "B3",
                    "midi": 59,
                    "time": 8.25,
                    "velocity": 0.5118110236220472,
                    "duration": 0.375
                },
                {
                    "name": "G#4",
                    "midi": 68,
                    "time": 8.4375,
                    "velocity": 0.47244094488188976,
                    "duration": 0.09583333333333321
                },
                {
                    "name": "C#5",
                    "midi": 73,
                    "time": 8.625,
                    "velocity": 0.47244094488188976,
                    "duration": 0.09166666666666679
                },
                {
                    "name": "A#5",
                    "midi": 82,
                    "time": 8.625,
                    "velocity": 0.5511811023622047,
                    "duration": 0.125
                },
                {
                    "name": "E5",
                    "midi": 76,
                    "time": 8.625,
                    "velocity": 0.5511811023622047,
                    "duration": 0.75
                },
                {
                    "name": "C#6",
                    "midi": 85,
                    "time": 8.625,
                    "velocity": 0.5511811023622047,
                    "duration": 0.75
                },
                {
                    "name": "G#5",
                    "midi": 80,
                    "time": 8.75,
                    "velocity": 0.5354330708661418,
                    "duration": 0.125
                },
                {
                    "name": "G#4",
                    "midi": 68,
                    "time": 8.8125,
                    "velocity": 0.47244094488188976,
                    "duration": 0.09583333333333321
                },
                {
                    "name": "F#5",
                    "midi": 78,
                    "time": 8.875,
                    "velocity": 0.5039370078740157,
                    "duration": 0.125
                },
                {
                    "name": "E4",
                    "midi": 64,
                    "time": 9,
                    "velocity": 0.47244094488188976,
                    "duration": 0.09166666666666679
                },
                {
                    "name": "G#5",
                    "midi": 80,
                    "time": 9,
                    "velocity": 0.47244094488188976,
                    "duration": 0.2375000000000007
                },
                {
                    "name": "A#3",
                    "midi": 58,
                    "time": 9,
                    "velocity": 0.5118110236220472,
                    "duration": 0.3541666666666661
                },
                {
                    "name": "G#4",
                    "midi": 68,
                    "time": 9.1875,
                    "velocity": 0.47244094488188976,
                    "duration": 0.09583333333333321
                },
                {
                    "name": "C#5",
                    "midi": 73,
                    "time": 9.375,
                    "velocity": 0.47244094488188976,
                    "duration": 0.09166666666666679
                },
                {
                    "name": "F#5",
                    "midi": 78,
                    "time": 9.375,
                    "velocity": 0.5511811023622047,
                    "duration": 0.125
                },
                {
                    "name": "C#6",
                    "midi": 85,
                    "time": 9.375,
                    "velocity": 0.5511811023622047,
                    "duration": 0.75
                },
                {
                    "name": "G#5",
                    "midi": 80,
                    "time": 9.375,
                    "velocity": 0.5511811023622047,
                    "duration": 0.75
                },
                {
                    "name": "E5",
                    "midi": 76,
                    "time": 9.5,
                    "velocity": 0.5118110236220472,
                    "duration": 0.125
                },
                {
                    "name": "G#4",
                    "midi": 68,
                    "time": 9.5625,
                    "velocity": 0.47244094488188976,
                    "duration": 0.09583333333333321
                },
                {
                    "name": "D#5",
                    "midi": 75,
                    "time": 9.625,
                    "velocity": 0.4881889763779528,
                    "duration": 0.125
                },
                {
                    "name": "E4",
                    "midi": 64,
                    "time": 9.75,
                    "velocity": 0.47244094488188976,
                    "duration": 0.09166666666666679
                },
                {
                    "name": "E5",
                    "midi": 76,
                    "time": 9.75,
                    "velocity": 0.47244094488188976,
                    "duration": 0.24166666666666714
                },
                {
                    "name": "A3",
                    "midi": 57,
                    "time": 9.75,
                    "velocity": 0.5118110236220472,
                    "duration": 0.34999999999999964
                },
                {
                    "name": "G#4",
                    "midi": 68,
                    "time": 9.9375,
                    "velocity": 0.47244094488188976,
                    "duration": 0.09583333333333321
                },
                {
                    "name": "C#5",
                    "midi": 73,
                    "time": 10.125,
                    "velocity": 0.47244094488188976,
                    "duration": 0.09166666666666679
                },
                {
                    "name": "D#5",
                    "midi": 75,
                    "time": 10.125,
                    "velocity": 0.5511811023622047,
                    "duration": 0.125
                },
                {
                    "name": "C#6",
                    "midi": 85,
                    "time": 10.125,
                    "velocity": 0.5511811023622047,
                    "duration": 0.375
                },
                {
                    "name": "G#5",
                    "midi": 80,
                    "time": 10.125,
                    "velocity": 0.5511811023622047,
                    "duration": 0.7249999999999996
                },
                {
                    "name": "C#5",
                    "midi": 73,
                    "time": 10.25,
                    "velocity": 0.5118110236220472,
                    "duration": 0.125
                },
                {
                    "name": "G#4",
                    "midi": 68,
                    "time": 10.3125,
                    "velocity": 0.47244094488188976,
                    "duration": 0.09583333333333321
                },
                {
                    "name": "B4",
                    "midi": 71,
                    "time": 10.375,
                    "velocity": 0.4881889763779528,
                    "duration": 0.125
                },
                {
                    "name": "D#5",
                    "midi": 75,
                    "time": 10.5,
                    "velocity": 0.47244094488188976,
                    "duration": 0.1875
                },
                {
                    "name": "B5",
                    "midi": 83,
                    "time": 10.5,
                    "velocity": 0.47244094488188976,
                    "duration": 0.34999999999999964
                },
                {
                    "name": "G#3",
                    "midi": 56,
                    "time": 10.5,
                    "velocity": 0.47244094488188976,
                    "duration": 0.34999999999999964
                },
                {
                    "name": "D#4",
                    "midi": 63,
                    "time": 10.5,
                    "velocity": 0.47244094488188976,
                    "duration": 0.34999999999999964
                },
                {
                    "name": "G#4",
                    "midi": 68,
                    "time": 10.875,
                    "velocity": 0.47244094488188976,
                    "duration": 0.0625
                },
                {
                    "name": "B4",
                    "midi": 71,
                    "time": 11,
                    "velocity": 0.47244094488188976,
                    "duration": 0.0625
                },
                {
                    "name": "D#5",
                    "midi": 75,
                    "time": 11.125,
                    "velocity": 0.47244094488188976,
                    "duration": 0.0625
                },
                {
                    "name": "E5",
                    "midi": 76,
                    "time": 11.25,
                    "velocity": 0.47244094488188976,
                    "duration": 0.09166666666666679
                },
                {
                    "name": "C#5",
                    "midi": 73,
                    "time": 11.25,
                    "velocity": 0.47244094488188976,
                    "duration": 0.09166666666666679
                },
                {
                    "name": "C#6",
                    "midi": 85,
                    "time": 11.25,
                    "velocity": 0.47244094488188976,
                    "duration": 0.09166666666666679
                },
                {
                    "name": "G#5",
                    "midi": 80,
                    "time": 11.4375,
                    "velocity": 0.47244094488188976,
                    "duration": 0.09583333333333321
                },
                {
                    "name": "B4",
                    "midi": 71,
                    "time": 11.625,
                    "velocity": 0.5511811023622047,
                    "duration": 0.75
                },
                {
                    "name": "F#5",
                    "midi": 78,
                    "time": 11.625,
                    "velocity": 0.5511811023622047,
                    "duration": 0.4583333333333339
                },
                {
                    "name": "D#6",
                    "midi": 87,
                    "time": 11.625,
                    "velocity": 0.5511811023622047,
                    "duration": 0.75
                },
                {
                    "name": "B5",
                    "midi": 83,
                    "time": 11.8125,
                    "velocity": 0.47244094488188976,
                    "duration": 0.09583333333333321
                },
                {
                    "name": "F#5",
                    "midi": 78,
                    "time": 12,
                    "velocity": 0.47244094488188976,
                    "duration": 0.375
                },
                {
                    "name": "B5",
                    "midi": 83,
                    "time": 12.1875,
                    "velocity": 0.47244094488188976,
                    "duration": 0.08750000000000036
                },
                {
                    "name": "A5",
                    "midi": 81,
                    "time": 12.375,
                    "velocity": 0.47244094488188976,
                    "duration": 0.09166666666666679
                },
                {
                    "name": "E6",
                    "midi": 88,
                    "time": 12.375,
                    "velocity": 0.47244094488188976,
                    "duration": 0.125
                },
                {
                    "name": "C#5",
                    "midi": 73,
                    "time": 12.375,
                    "velocity": 0.47244094488188976,
                    "duration": 0.375
                },
                {
                    "name": "A4",
                    "midi": 69,
                    "time": 12.375,
                    "velocity": 0.47244094488188976,
                    "duration": 0.375
                },
                {
                    "name": "D#6",
                    "midi": 87,
                    "time": 12.5,
                    "velocity": 0.48031496062992124,
                    "duration": 0.125
                },
                {
                    "name": "C#6",
                    "midi": 85,
                    "time": 12.625,
                    "velocity": 0.4881889763779528,
                    "duration": 0.125
                },
                {
                    "name": "A5",
                    "midi": 81,
                    "time": 12.75,
                    "velocity": 0.49606299212598426,
                    "duration": 0.0791666666666675
                },
                {
                    "name": "D#6",
                    "midi": 87,
                    "time": 12.75,
                    "velocity": 0.5511811023622047,
                    "duration": 0.16250000000000142
                },
                {
                    "name": "F#4",
                    "midi": 66,
                    "time": 12.75,
                    "velocity": 0.49606299212598426,
                    "duration": 0.3750000000000018
                },
                {
                    "name": "D#5",
                    "midi": 75,
                    "time": 12.75,
                    "velocity": 0.49606299212598426,
                    "duration": 0.3750000000000018
                },
                {
                    "name": "C#6",
                    "midi": 85,
                    "time": 12.937500000000002,
                    "velocity": 0.5039370078740157,
                    "duration": 0.08750000000000036
                },
                {
                    "name": "A5",
                    "midi": 81,
                    "time": 13.125000000000002,
                    "velocity": 0.5118110236220472,
                    "duration": 0.09166666666666679
                },
                {
                    "name": "E6",
                    "midi": 88,
                    "time": 13.125000000000002,
                    "velocity": 0.5118110236220472,
                    "duration": 0.125
                },
                {
                    "name": "A4",
                    "midi": 69,
                    "time": 13.125000000000002,
                    "velocity": 0.5118110236220472,
                    "duration": 0.375
                },
                {
                    "name": "C#5",
                    "midi": 73,
                    "time": 13.125000000000002,
                    "velocity": 0.5118110236220472,
                    "duration": 0.375
                },
                {
                    "name": "D#6",
                    "midi": 87,
                    "time": 13.250000000000002,
                    "velocity": 0.5196850393700787,
                    "duration": 0.125
                },
                {
                    "name": "C#6",
                    "midi": 85,
                    "time": 13.375000000000002,
                    "velocity": 0.5275590551181102,
                    "duration": 0.12083333333333357
                },
                {
                    "name": "F#5",
                    "midi": 78,
                    "time": 13.500000000000002,
                    "velocity": 0.5511811023622047,
                    "duration": 0.375
                },
                {
                    "name": "C#5",
                    "midi": 73,
                    "time": 13.500000000000002,
                    "velocity": 0.5511811023622047,
                    "duration": 0.375
                },
                {
                    "name": "D#6",
                    "midi": 87,
                    "time": 13.500000000000002,
                    "velocity": 0.6299212598425197,
                    "duration": 0.375
                },
                {
                    "name": "A5",
                    "midi": 81,
                    "time": 13.687500000000002,
                    "velocity": 0.5354330708661418,
                    "duration": 0.09583333333333321
                },
                {
                    "name": "E5",
                    "midi": 76,
                    "time": 13.875000000000002,
                    "velocity": 0.5118110236220472,
                    "duration": 0.375
                },
                {
                    "name": "B4",
                    "midi": 71,
                    "time": 13.875000000000002,
                    "velocity": 0.5118110236220472,
                    "duration": 0.375
                },
                {
                    "name": "C#6",
                    "midi": 85,
                    "time": 13.875000000000002,
                    "velocity": 0.5118110236220472,
                    "duration": 0.375
                },
                {
                    "name": "G#5",
                    "midi": 80,
                    "time": 14.062500000000002,
                    "velocity": 0.4881889763779528,
                    "duration": 0.08750000000000036
                },
                {
                    "name": "A#4",
                    "midi": 70,
                    "time": 14.250000000000002,
                    "velocity": 0.47244094488188976,
                    "duration": 0.375
                },
                {
                    "name": "C#4",
                    "midi": 61,
                    "time": 14.250000000000002,
                    "velocity": 0.47244094488188976,
                    "duration": 0.375
                },
                {
                    "name": "G#5",
                    "midi": 80,
                    "time": 14.250000000000002,
                    "velocity": 0.47244094488188976,
                    "duration": 0.375
                },
                {
                    "name": "E5",
                    "midi": 76,
                    "time": 14.437500000000002,
                    "velocity": 0.47244094488188976,
                    "duration": 0.07083333333333286
                },
                {
                    "name": "C#5",
                    "midi": 73,
                    "time": 14.625000000000002,
                    "velocity": 0.47244094488188976,
                    "duration": 0.0791666666666675
                },
                {
                    "name": "E5",
                    "midi": 76,
                    "time": 14.812500000000002,
                    "velocity": 0.47244094488188976,
                    "duration": 0.0791666666666675
                },
                {
                    "name": "E5",
                    "midi": 76,
                    "time": 15.000000000000002,
                    "velocity": 0.47244094488188976,
                    "duration": 0.09166666666666679
                },
                {
                    "name": "C#5",
                    "midi": 73,
                    "time": 15.000000000000002,
                    "velocity": 0.47244094488188976,
                    "duration": 0.09166666666666679
                },
                {
                    "name": "C#6",
                    "midi": 85,
                    "time": 15.000000000000002,
                    "velocity": 0.47244094488188976,
                    "duration": 0.09166666666666679
                },
                {
                    "name": "G#5",
                    "midi": 80,
                    "time": 15.187500000000002,
                    "velocity": 0.47244094488188976,
                    "duration": 0.09583333333333321
                },
                {
                    "name": "B4",
                    "midi": 71,
                    "time": 15.375000000000002,
                    "velocity": 0.5511811023622047,
                    "duration": 0.7500000000000018
                },
                {
                    "name": "F#5",
                    "midi": 78,
                    "time": 15.375000000000002,
                    "velocity": 0.5511811023622047,
                    "duration": 0.4583333333333339
                },
                {
                    "name": "D#6",
                    "midi": 87,
                    "time": 15.375000000000002,
                    "velocity": 0.5511811023622047,
                    "duration": 0.7500000000000018
                },
                {
                    "name": "B5",
                    "midi": 83,
                    "time": 15.562500000000002,
                    "velocity": 0.47244094488188976,
                    "duration": 0.09583333333333321
                },
                {
                    "name": "F#5",
                    "midi": 78,
                    "time": 15.750000000000002,
                    "velocity": 0.47244094488188976,
                    "duration": 0.3750000000000018
                },
                {
                    "name": "B5",
                    "midi": 83,
                    "time": 15.937500000000002,
                    "velocity": 0.47244094488188976,
                    "duration": 0.08750000000000036
                },
                {
                    "name": "A5",
                    "midi": 81,
                    "time": 16.125000000000004,
                    "velocity": 0.47244094488188976,
                    "duration": 0.09166666666666501
                },
                {
                    "name": "E6",
                    "midi": 88,
                    "time": 16.125000000000004,
                    "velocity": 0.47244094488188976,
                    "duration": 0.125
                },
                {
                    "name": "C#5",
                    "midi": 73,
                    "time": 16.125000000000004,
                    "velocity": 0.47244094488188976,
                    "duration": 0.375
                },
                {
                    "name": "A4",
                    "midi": 69,
                    "time": 16.125000000000004,
                    "velocity": 0.47244094488188976,
                    "duration": 0.375
                },
                {
                    "name": "D#6",
                    "midi": 87,
                    "time": 16.250000000000004,
                    "velocity": 0.48031496062992124,
                    "duration": 0.125
                },
                {
                    "name": "C#6",
                    "midi": 85,
                    "time": 16.375000000000004,
                    "velocity": 0.4881889763779528,
                    "duration": 0.125
                },
                {
                    "name": "A5",
                    "midi": 81,
                    "time": 16.500000000000004,
                    "velocity": 0.49606299212598426,
                    "duration": 0.07916666666666572
                },
                {
                    "name": "D#6",
                    "midi": 87,
                    "time": 16.500000000000004,
                    "velocity": 0.5511811023622047,
                    "duration": 0.16249999999999787
                },
                {
                    "name": "F#4",
                    "midi": 66,
                    "time": 16.500000000000004,
                    "velocity": 0.49606299212598426,
                    "duration": 0.37499999999999645
                },
                {
                    "name": "D#5",
                    "midi": 75,
                    "time": 16.500000000000004,
                    "velocity": 0.49606299212598426,
                    "duration": 0.37499999999999645
                },
                {
                    "name": "C#6",
                    "midi": 85,
                    "time": 16.6875,
                    "velocity": 0.5039370078740157,
                    "duration": 0.08749999999999858
                },
                {
                    "name": "A5",
                    "midi": 81,
                    "time": 16.875,
                    "velocity": 0.5118110236220472,
                    "duration": 0.09166666666666501
                },
                {
                    "name": "E6",
                    "midi": 88,
                    "time": 16.875,
                    "velocity": 0.5118110236220472,
                    "duration": 0.125
                },
                {
                    "name": "A4",
                    "midi": 69,
                    "time": 16.875,
                    "velocity": 0.5118110236220472,
                    "duration": 0.375
                },
                {
                    "name": "C#5",
                    "midi": 73,
                    "time": 16.875,
                    "velocity": 0.5118110236220472,
                    "duration": 0.375
                },
                {
                    "name": "D#6",
                    "midi": 87,
                    "time": 17,
                    "velocity": 0.5196850393700787,
                    "duration": 0.125
                },
                {
                    "name": "C#6",
                    "midi": 85,
                    "time": 17.125,
                    "velocity": 0.5275590551181102,
                    "duration": 0.12083333333333357
                },
                {
                    "name": "F#5",
                    "midi": 78,
                    "time": 17.25,
                    "velocity": 0.5511811023622047,
                    "duration": 0.375
                },
                {
                    "name": "C#5",
                    "midi": 73,
                    "time": 17.25,
                    "velocity": 0.5511811023622047,
                    "duration": 0.375
                },
                {
                    "name": "D#6",
                    "midi": 87,
                    "time": 17.25,
                    "velocity": 0.6299212598425197,
                    "duration": 0.375
                },
                {
                    "name": "A5",
                    "midi": 81,
                    "time": 17.4375,
                    "velocity": 0.5354330708661418,
                    "duration": 0.09583333333333499
                },
                {
                    "name": "E5",
                    "midi": 76,
                    "time": 17.625,
                    "velocity": 0.5118110236220472,
                    "duration": 0.375
                },
                {
                    "name": "B4",
                    "midi": 71,
                    "time": 17.625,
                    "velocity": 0.5118110236220472,
                    "duration": 0.375
                },
                {
                    "name": "C#6",
                    "midi": 85,
                    "time": 17.625,
                    "velocity": 0.5118110236220472,
                    "duration": 0.375
                },
                {
                    "name": "G#5",
                    "midi": 80,
                    "time": 17.8125,
                    "velocity": 0.4881889763779528,
                    "duration": 0.08749999999999858
                },
                {
                    "name": "A#4",
                    "midi": 70,
                    "time": 18,
                    "velocity": 0.47244094488188976,
                    "duration": 0.375
                },
                {
                    "name": "C#4",
                    "midi": 61,
                    "time": 18,
                    "velocity": 0.47244094488188976,
                    "duration": 0.375
                },
                {
                    "name": "G#5",
                    "midi": 80,
                    "time": 18,
                    "velocity": 0.47244094488188976,
                    "duration": 0.375
                },
                {
                    "name": "E5",
                    "midi": 76,
                    "time": 18.1875,
                    "velocity": 0.47244094488188976,
                    "duration": 0.07083333333333286
                },
                {
                    "name": "C#5",
                    "midi": 73,
                    "time": 18.375,
                    "velocity": 0.47244094488188976,
                    "duration": 0.07916666666666572
                },
                {
                    "name": "E5",
                    "midi": 76,
                    "time": 18.5625,
                    "velocity": 0.47244094488188976,
                    "duration": 0.07916666666666572
                },
                {
                    "name": "G#5",
                    "midi": 80,
                    "time": 18.75,
                    "velocity": 0.47244094488188976,
                    "duration": 0.07083333333333286
                },
                {
                    "name": "E5",
                    "midi": 76,
                    "time": 18.9375,
                    "velocity": 0.47244094488188976,
                    "duration": 0.07916666666666572
                },
                {
                    "name": "C#6",
                    "midi": 85,
                    "time": 19.125,
                    "velocity": 0.5511811023622047,
                    "duration": 0.34999999999999787
                },
                {
                    "name": "E5",
                    "midi": 76,
                    "time": 19.125,
                    "velocity": 0.5511811023622047,
                    "duration": 0.37083333333333
                },
                {
                    "name": "B4",
                    "midi": 71,
                    "time": 19.125,
                    "velocity": 0.5511811023622047,
                    "duration": 0.37499999999999645
                },
                {
                    "name": "G#5",
                    "midi": 80,
                    "time": 19.3125,
                    "velocity": 0.47244094488188976,
                    "duration": 0.08333333333333215
                },
                {
                    "name": "G#5",
                    "midi": 80,
                    "time": 19.499999999999996,
                    "velocity": 0.47244094488188976,
                    "duration": 0.35833333333333073
                },
                {
                    "name": "C#4",
                    "midi": 61,
                    "time": 19.499999999999996,
                    "velocity": 0.47244094488188976,
                    "duration": 0.37499999999999645
                },
                {
                    "name": "A#4",
                    "midi": 70,
                    "time": 19.499999999999996,
                    "velocity": 0.47244094488188976,
                    "duration": 0.37499999999999645
                },
                {
                    "name": "E5",
                    "midi": 76,
                    "time": 19.687499999999996,
                    "velocity": 0.47244094488188976,
                    "duration": 0.08333333333333215
                },
                {
                    "name": "C#5",
                    "midi": 73,
                    "time": 19.874999999999993,
                    "velocity": 0.47244094488188976,
                    "duration": 0.07083333333333286
                },
                {
                    "name": "E5",
                    "midi": 76,
                    "time": 20.062499999999993,
                    "velocity": 0.47244094488188976,
                    "duration": 0.06666666666666643
                },
                {
                    "name": "G#5",
                    "midi": 80,
                    "time": 20.249999999999993,
                    "velocity": 0.47244094488188976,
                    "duration": 0.08333333333333215
                },
                {
                    "name": "E5",
                    "midi": 76,
                    "time": 20.437499999999993,
                    "velocity": 0.47244094488188976,
                    "duration": 0.06666666666666643
                },
                {
                    "name": "C#6",
                    "midi": 85,
                    "time": 20.624999999999993,
                    "velocity": 0.5511811023622047,
                    "duration": 0.37083333333333357
                },
                {
                    "name": "B4",
                    "midi": 71,
                    "time": 20.624999999999993,
                    "velocity": 0.5511811023622047,
                    "duration": 0.375
                },
                {
                    "name": "E5",
                    "midi": 76,
                    "time": 20.624999999999993,
                    "velocity": 0.5511811023622047,
                    "duration": 0.375
                },
                {
                    "name": "G#5",
                    "midi": 80,
                    "time": 20.812499999999993,
                    "velocity": 0.47244094488188976,
                    "duration": 0.08333333333333215
                },
                {
                    "name": "G#5",
                    "midi": 80,
                    "time": 20.999999999999993,
                    "velocity": 0.47244094488188976,
                    "duration": 0.375
                },
                {
                    "name": "C#4",
                    "midi": 61,
                    "time": 20.999999999999993,
                    "velocity": 0.47244094488188976,
                    "duration": 0.375
                },
                {
                    "name": "A#4",
                    "midi": 70,
                    "time": 20.999999999999993,
                    "velocity": 0.47244094488188976,
                    "duration": 0.375
                },
                {
                    "name": "E5",
                    "midi": 76,
                    "time": 21.187499999999993,
                    "velocity": 0.47244094488188976,
                    "duration": 0.07083333333333286
                },
                {
                    "name": "C#5",
                    "midi": 73,
                    "time": 21.374999999999993,
                    "velocity": 0.47244094488188976,
                    "duration": 0.06666666666666643
                },
                {
                    "name": "E5",
                    "midi": 76,
                    "time": 21.562499999999993,
                    "velocity": 0.47244094488188976,
                    "duration": 0.08333333333333215
                },
                {
                    "name": "G#5",
                    "midi": 80,
                    "time": 21.749999999999993,
                    "velocity": 0.47244094488188976,
                    "duration": 0.29166666666666785
                },
                {
                    "name": "C#5",
                    "midi": 73,
                    "time": 22.124999999999993,
                    "velocity": 0.47244094488188976,
                    "duration": 0.3583333333333343
                },
                {
                    "name": "E5",
                    "midi": 76,
                    "time": 22.499999999999993,
                    "velocity": 0.47244094488188976,
                    "duration": 0.3374999999999986
                },
                {
                    "name": "G#5",
                    "midi": 80,
                    "time": 22.874999999999993,
                    "velocity": 0.47244094488188976,
                    "duration": 0.33333333333333215
                },
                {
                    "name": "G#6",
                    "midi": 92,
                    "time": 23.249999999999993,
                    "velocity": 0.47244094488188976,
                    "duration": 4.5
                },
                {
                    "name": "E6",
                    "midi": 88,
                    "time": 23.249999999999993,
                    "velocity": 0.47244094488188976,
                    "duration": 4.5
                },
                {
                    "name": "C#6",
                    "midi": 85,
                    "time": 23.249999999999993,
                    "velocity": 0.47244094488188976,
                    "duration": 4.5
                },
                {
                    "name": "C#4",
                    "midi": 61,
                    "time": 28.499999999999993,
                    "velocity": 0.47244094488188976,
                    "duration": 0.09166666666666501
                },
                {
                    "name": "E4",
                    "midi": 64,
                    "time": 28.499999999999993,
                    "velocity": 0.47244094488188976,
                    "duration": 0.09166666666666501
                },
                {
                    "name": "E5",
                    "midi": 76,
                    "time": 28.499999999999993,
                    "velocity": 0.47244094488188976,
                    "duration": 0.09166666666666501
                },
                {
                    "name": "G#5",
                    "midi": 80,
                    "time": 28.499999999999993,
                    "velocity": 0.47244094488188976,
                    "duration": 0.09166666666666501
                },
                {
                    "name": "G#4",
                    "midi": 68,
                    "time": 28.687499999999993,
                    "velocity": 0.47244094488188976,
                    "duration": 0.09583333333333499
                },
                {
                    "name": "C#5",
                    "midi": 73,
                    "time": 28.874999999999993,
                    "velocity": 0.47244094488188976,
                    "duration": 0.09166666666666501
                },
                {
                    "name": "E5",
                    "midi": 76,
                    "time": 28.874999999999993,
                    "velocity": 0.5511811023622047,
                    "duration": 0.75
                },
                {
                    "name": "G#5",
                    "midi": 80,
                    "time": 28.874999999999993,
                    "velocity": 0.5511811023622047,
                    "duration": 0.75
                },
                {
                    "name": "G#4",
                    "midi": 68,
                    "time": 29.062499999999993,
                    "velocity": 0.47244094488188976,
                    "duration": 0.09583333333333499
                },
                {
                    "name": "C#4",
                    "midi": 61,
                    "time": 29.249999999999993,
                    "velocity": 0.47244094488188976,
                    "duration": 0.09166666666666501
                },
                {
                    "name": "E4",
                    "midi": 64,
                    "time": 29.249999999999993,
                    "velocity": 0.47244094488188976,
                    "duration": 0.09166666666666501
                },
                {
                    "name": "G#4",
                    "midi": 68,
                    "time": 29.437499999999993,
                    "velocity": 0.47244094488188976,
                    "duration": 0.09583333333333499
                },
                {
                    "name": "A#5",
                    "midi": 82,
                    "time": 29.624999999999993,
                    "velocity": 0.5511811023622047,
                    "duration": 0.125
                },
                {
                    "name": "E5",
                    "midi": 76,
                    "time": 29.624999999999993,
                    "velocity": 0.5511811023622047,
                    "duration": 0.283333333333335
                },
                {
                    "name": "C#5",
                    "midi": 73,
                    "time": 29.624999999999993,
                    "velocity": 0.5511811023622047,
                    "duration": 0.3625000000000007
                },
                {
                    "name": "A#4",
                    "midi": 70,
                    "time": 29.624999999999993,
                    "velocity": 0.5511811023622047,
                    "duration": 0.3625000000000007
                },
                {
                    "name": "G#5",
                    "midi": 80,
                    "time": 29.749999999999993,
                    "velocity": 0.5118110236220472,
                    "duration": 0.125
                },
                {
                    "name": "F#4",
                    "midi": 66,
                    "time": 29.812499999999993,
                    "velocity": 0.47244094488188976,
                    "duration": 0.09583333333333499
                },
                {
                    "name": "F#5",
                    "midi": 78,
                    "time": 29.874999999999993,
                    "velocity": 0.4881889763779528,
                    "duration": 0.09166666666666856
                },
                {
                    "name": "G#4",
                    "midi": 68,
                    "time": 29.999999999999993,
                    "velocity": 0.47244094488188976,
                    "duration": 0.09166666666666501
                },
                {
                    "name": "E5",
                    "midi": 76,
                    "time": 29.999999999999993,
                    "velocity": 0.47244094488188976,
                    "duration": 0.23333333333333428
                },
                {
                    "name": "C#5",
                    "midi": 73,
                    "time": 29.999999999999993,
                    "velocity": 0.47244094488188976,
                    "duration": 0.25416666666666643
                },
                {
                    "name": "C#4",
                    "midi": 61,
                    "time": 29.999999999999993,
                    "velocity": 0.47244094488188976,
                    "duration": 0.34999999999999787
                },
                {
                    "name": "E4",
                    "midi": 64,
                    "time": 30.187499999999993,
                    "velocity": 0.47244094488188976,
                    "duration": 0.09583333333333144
                },
                {
                    "name": "C#5",
                    "midi": 73,
                    "time": 30.37499999999999,
                    "velocity": 0.47244094488188976,
                    "duration": 0.09166666666666501
                },
                {
                    "name": "C#5",
                    "midi": 73,
                    "time": 30.37499999999999,
                    "velocity": 0.47244094488188976,
                    "duration": 0.1875
                },
                {
                    "name": "G#4",
                    "midi": 68,
                    "time": 30.37499999999999,
                    "velocity": 0.47244094488188976,
                    "duration": 0.1875
                },
                {
                    "name": "E4",
                    "midi": 64,
                    "time": 30.56249999999999,
                    "velocity": 0.47244094488188976,
                    "duration": 0.09583333333333499
                },
                {
                    "name": "E5",
                    "midi": 76,
                    "time": 30.56249999999999,
                    "velocity": 0.47244094488188976,
                    "duration": 0.1875
                },
                {
                    "name": "C#4",
                    "midi": 61,
                    "time": 30.74999999999999,
                    "velocity": 0.47244094488188976,
                    "duration": 0.09166666666666501
                },
                {
                    "name": "D#4",
                    "midi": 63,
                    "time": 30.74999999999999,
                    "velocity": 0.47244094488188976,
                    "duration": 0.09166666666666501
                },
                {
                    "name": "D#5",
                    "midi": 75,
                    "time": 30.74999999999999,
                    "velocity": 0.47244094488188976,
                    "duration": 0.09166666666666501
                },
                {
                    "name": "F#5",
                    "midi": 78,
                    "time": 30.74999999999999,
                    "velocity": 0.47244094488188976,
                    "duration": 0.09166666666666501
                },
                {
                    "name": "F#4",
                    "midi": 66,
                    "time": 30.93749999999999,
                    "velocity": 0.47244094488188976,
                    "duration": 0.09583333333333499
                },
                {
                    "name": "C#5",
                    "midi": 73,
                    "time": 31.12499999999999,
                    "velocity": 0.47244094488188976,
                    "duration": 0.09166666666666501
                },
                {
                    "name": "C#6",
                    "midi": 85,
                    "time": 31.12499999999999,
                    "velocity": 0.47244094488188976,
                    "duration": 0.1875
                },
                {
                    "name": "F#4",
                    "midi": 66,
                    "time": 31.31249999999999,
                    "velocity": 0.47244094488188976,
                    "duration": 0.09583333333333499
                },
                {
                    "name": "C#4",
                    "midi": 61,
                    "time": 31.49999999999999,
                    "velocity": 0.47244094488188976,
                    "duration": 0.09166666666666501
                },
                {
                    "name": "E4",
                    "midi": 64,
                    "time": 31.49999999999999,
                    "velocity": 0.47244094488188976,
                    "duration": 0.09166666666666501
                },
                {
                    "name": "E5",
                    "midi": 76,
                    "time": 31.49999999999999,
                    "velocity": 0.47244094488188976,
                    "duration": 0.09166666666666501
                },
                {
                    "name": "G#5",
                    "midi": 80,
                    "time": 31.49999999999999,
                    "velocity": 0.47244094488188976,
                    "duration": 0.09166666666666501
                },
                {
                    "name": "G#4",
                    "midi": 68,
                    "time": 31.68749999999999,
                    "velocity": 0.47244094488188976,
                    "duration": 0.09583333333333499
                },
                {
                    "name": "C#5",
                    "midi": 73,
                    "time": 31.87499999999999,
                    "velocity": 0.47244094488188976,
                    "duration": 0.09166666666666501
                },
                {
                    "name": "C#6",
                    "midi": 85,
                    "time": 31.87499999999999,
                    "velocity": 0.47244094488188976,
                    "duration": 0.18749999999999645
                },
                {
                    "name": "G#4",
                    "midi": 68,
                    "time": 32.062499999999986,
                    "velocity": 0.47244094488188976,
                    "duration": 0.09583333333333144
                },
                {
                    "name": "E4",
                    "midi": 64,
                    "time": 32.249999999999986,
                    "velocity": 0.47244094488188976,
                    "duration": 0.09166666666666856
                },
                {
                    "name": "B3",
                    "midi": 59,
                    "time": 32.249999999999986,
                    "velocity": 0.47244094488188976,
                    "duration": 0.09166666666666856
                },
                {
                    "name": "C#5",
                    "midi": 73,
                    "time": 32.249999999999986,
                    "velocity": 0.47244094488188976,
                    "duration": 0.09166666666666856
                },
                {
                    "name": "E5",
                    "midi": 76,
                    "time": 32.26666666666665,
                    "velocity": 0.47244094488188976,
                    "duration": 0.09166666666666856
                },
                {
                    "name": "G#5",
                    "midi": 80,
                    "time": 32.28333333333332,
                    "velocity": 0.47244094488188976,
                    "duration": 0.09166666666666856
                },
                {
                    "name": "B5",
                    "midi": 83,
                    "time": 32.29583333333332,
                    "velocity": 0.47244094488188976,
                    "duration": 0.09583333333333144
                },
                {
                    "name": "C#6",
                    "midi": 85,
                    "time": 32.312499999999986,
                    "velocity": 0.47244094488188976,
                    "duration": 0.09583333333333144
                },
                {
                    "name": "G#4",
                    "midi": 68,
                    "time": 32.437499999999986,
                    "velocity": 0.47244094488188976,
                    "duration": 0.09583333333333144
                },
                {
                    "name": "C#5",
                    "midi": 73,
                    "time": 32.624999999999986,
                    "velocity": 0.47244094488188976,
                    "duration": 0.09166666666666856
                },
                {
                    "name": "B5",
                    "midi": 83,
                    "time": 32.624999999999986,
                    "velocity": 0.5511811023622047,
                    "duration": 0.75
                },
                {
                    "name": "C#6",
                    "midi": 85,
                    "time": 32.624999999999986,
                    "velocity": 0.5511811023622047,
                    "duration": 0.75
                },
                {
                    "name": "G#4",
                    "midi": 68,
                    "time": 32.812499999999986,
                    "velocity": 0.47244094488188976,
                    "duration": 0.09583333333333144
                },
                {
                    "name": "E4",
                    "midi": 64,
                    "time": 32.999999999999986,
                    "velocity": 0.47244094488188976,
                    "duration": 0.09166666666666856
                },
                {
                    "name": "B3",
                    "midi": 59,
                    "time": 32.999999999999986,
                    "velocity": 0.5118110236220472,
                    "duration": 0.375
                },
                {
                    "name": "G#4",
                    "midi": 68,
                    "time": 33.187499999999986,
                    "velocity": 0.47244094488188976,
                    "duration": 0.09583333333333144
                },
                {
                    "name": "C#5",
                    "midi": 73,
                    "time": 33.374999999999986,
                    "velocity": 0.47244094488188976,
                    "duration": 0.09166666666666856
                },
                {
                    "name": "A#5",
                    "midi": 82,
                    "time": 33.374999999999986,
                    "velocity": 0.5511811023622047,
                    "duration": 0.125
                },
                {
                    "name": "E5",
                    "midi": 76,
                    "time": 33.374999999999986,
                    "velocity": 0.5511811023622047,
                    "duration": 0.75
                },
                {
                    "name": "C#6",
                    "midi": 85,
                    "time": 33.374999999999986,
                    "velocity": 0.5511811023622047,
                    "duration": 0.75
                },
                {
                    "name": "G#5",
                    "midi": 80,
                    "time": 33.499999999999986,
                    "velocity": 0.5354330708661418,
                    "duration": 0.125
                },
                {
                    "name": "G#4",
                    "midi": 68,
                    "time": 33.562499999999986,
                    "velocity": 0.47244094488188976,
                    "duration": 0.09583333333333144
                },
                {
                    "name": "F#5",
                    "midi": 78,
                    "time": 33.624999999999986,
                    "velocity": 0.5039370078740157,
                    "duration": 0.125
                },
                {
                    "name": "E4",
                    "midi": 64,
                    "time": 33.749999999999986,
                    "velocity": 0.47244094488188976,
                    "duration": 0.09166666666666856
                },
                {
                    "name": "G#5",
                    "midi": 80,
                    "time": 33.749999999999986,
                    "velocity": 0.47244094488188976,
                    "duration": 0.23749999999999716
                },
                {
                    "name": "A#3",
                    "midi": 58,
                    "time": 33.749999999999986,
                    "velocity": 0.5118110236220472,
                    "duration": 0.3541666666666643
                },
                {
                    "name": "G#4",
                    "midi": 68,
                    "time": 33.937499999999986,
                    "velocity": 0.47244094488188976,
                    "duration": 0.09583333333333144
                },
                {
                    "name": "C#5",
                    "midi": 73,
                    "time": 34.124999999999986,
                    "velocity": 0.47244094488188976,
                    "duration": 0.09166666666666856
                },
                {
                    "name": "F#5",
                    "midi": 78,
                    "time": 34.124999999999986,
                    "velocity": 0.5511811023622047,
                    "duration": 0.125
                },
                {
                    "name": "C#6",
                    "midi": 85,
                    "time": 34.124999999999986,
                    "velocity": 0.5511811023622047,
                    "duration": 0.75
                },
                {
                    "name": "G#5",
                    "midi": 80,
                    "time": 34.124999999999986,
                    "velocity": 0.5511811023622047,
                    "duration": 0.75
                },
                {
                    "name": "E5",
                    "midi": 76,
                    "time": 34.249999999999986,
                    "velocity": 0.5118110236220472,
                    "duration": 0.125
                },
                {
                    "name": "G#4",
                    "midi": 68,
                    "time": 34.312499999999986,
                    "velocity": 0.47244094488188976,
                    "duration": 0.09583333333333144
                },
                {
                    "name": "D#5",
                    "midi": 75,
                    "time": 34.374999999999986,
                    "velocity": 0.4881889763779528,
                    "duration": 0.125
                },
                {
                    "name": "E4",
                    "midi": 64,
                    "time": 34.499999999999986,
                    "velocity": 0.47244094488188976,
                    "duration": 0.09166666666666856
                },
                {
                    "name": "E5",
                    "midi": 76,
                    "time": 34.499999999999986,
                    "velocity": 0.47244094488188976,
                    "duration": 0.24166666666666714
                },
                {
                    "name": "A3",
                    "midi": 57,
                    "time": 34.499999999999986,
                    "velocity": 0.5118110236220472,
                    "duration": 0.3500000000000014
                },
                {
                    "name": "G#4",
                    "midi": 68,
                    "time": 34.687499999999986,
                    "velocity": 0.47244094488188976,
                    "duration": 0.09583333333333144
                },
                {
                    "name": "C#5",
                    "midi": 73,
                    "time": 34.874999999999986,
                    "velocity": 0.47244094488188976,
                    "duration": 0.09166666666666856
                },
                {
                    "name": "D#5",
                    "midi": 75,
                    "time": 34.874999999999986,
                    "velocity": 0.5511811023622047,
                    "duration": 0.125
                },
                {
                    "name": "C#6",
                    "midi": 85,
                    "time": 34.874999999999986,
                    "velocity": 0.5511811023622047,
                    "duration": 0.375
                },
                {
                    "name": "G#5",
                    "midi": 80,
                    "time": 34.874999999999986,
                    "velocity": 0.5511811023622047,
                    "duration": 0.7250000000000014
                },
                {
                    "name": "C#5",
                    "midi": 73,
                    "time": 34.999999999999986,
                    "velocity": 0.5118110236220472,
                    "duration": 0.125
                },
                {
                    "name": "G#4",
                    "midi": 68,
                    "time": 35.062499999999986,
                    "velocity": 0.47244094488188976,
                    "duration": 0.09583333333333144
                },
                {
                    "name": "B4",
                    "midi": 71,
                    "time": 35.124999999999986,
                    "velocity": 0.4881889763779528,
                    "duration": 0.125
                },
                {
                    "name": "D#5",
                    "midi": 75,
                    "time": 35.249999999999986,
                    "velocity": 0.47244094488188976,
                    "duration": 0.1875
                },
                {
                    "name": "B5",
                    "midi": 83,
                    "time": 35.249999999999986,
                    "velocity": 0.47244094488188976,
                    "duration": 0.3500000000000014
                },
                {
                    "name": "G#3",
                    "midi": 56,
                    "time": 35.249999999999986,
                    "velocity": 0.47244094488188976,
                    "duration": 0.3500000000000014
                },
                {
                    "name": "D#4",
                    "midi": 63,
                    "time": 35.249999999999986,
                    "velocity": 0.47244094488188976,
                    "duration": 0.3500000000000014
                },
                {
                    "name": "G#4",
                    "midi": 68,
                    "time": 35.624999999999986,
                    "velocity": 0.47244094488188976,
                    "duration": 0.0625
                },
                {
                    "name": "B4",
                    "midi": 71,
                    "time": 35.749999999999986,
                    "velocity": 0.47244094488188976,
                    "duration": 0.0625
                },
                {
                    "name": "D#5",
                    "midi": 75,
                    "time": 35.874999999999986,
                    "velocity": 0.47244094488188976,
                    "duration": 0.0625
                },
                {
                    "name": "B4",
                    "midi": 71,
                    "time": 35.999999999999986,
                    "velocity": 0.47244094488188976,
                    "duration": 0.09166666666666856
                },
                {
                    "name": "G#4",
                    "midi": 68,
                    "time": 35.999999999999986,
                    "velocity": 0.47244094488188976,
                    "duration": 0.09166666666666856
                },
                {
                    "name": "G#5",
                    "midi": 80,
                    "time": 35.999999999999986,
                    "velocity": 0.47244094488188976,
                    "duration": 0.09166666666666856
                },
                {
                    "name": "D#5",
                    "midi": 75,
                    "time": 36.187499999999986,
                    "velocity": 0.47244094488188976,
                    "duration": 0.0833333333333357
                },
                {
                    "name": "F#4",
                    "midi": 66,
                    "time": 36.374999999999986,
                    "velocity": 0.5511811023622047,
                    "duration": 0.75
                },
                {
                    "name": "C#5",
                    "midi": 73,
                    "time": 36.374999999999986,
                    "velocity": 0.5511811023622047,
                    "duration": 0.4541666666666657
                },
                {
                    "name": "A#5",
                    "midi": 82,
                    "time": 36.374999999999986,
                    "velocity": 0.5511811023622047,
                    "duration": 0.75
                },
                {
                    "name": "F#5",
                    "midi": 78,
                    "time": 36.562499999999986,
                    "velocity": 0.47244094488188976,
                    "duration": 0.0833333333333357
                },
                {
                    "name": "C#5",
                    "midi": 73,
                    "time": 36.749999999999986,
                    "velocity": 0.47244094488188976,
                    "duration": 0.375
                },
                {
                    "name": "F#5",
                    "midi": 78,
                    "time": 36.937499999999986,
                    "velocity": 0.47244094488188976,
                    "duration": 0.07916666666666572
                },
                {
                    "name": "E5",
                    "midi": 76,
                    "time": 37.124999999999986,
                    "velocity": 0.47244094488188976,
                    "duration": 0.09166666666666856
                },
                {
                    "name": "B5",
                    "midi": 83,
                    "time": 37.124999999999986,
                    "velocity": 0.47244094488188976,
                    "duration": 0.125
                },
                {
                    "name": "G#4",
                    "midi": 68,
                    "time": 37.124999999999986,
                    "velocity": 0.47244094488188976,
                    "duration": 0.375
                },
                {
                    "name": "E4",
                    "midi": 64,
                    "time": 37.124999999999986,
                    "velocity": 0.47244094488188976,
                    "duration": 0.375
                },
                {
                    "name": "A#5",
                    "midi": 82,
                    "time": 37.249999999999986,
                    "velocity": 0.48031496062992124,
                    "duration": 0.125
                },
                {
                    "name": "G#5",
                    "midi": 80,
                    "time": 37.374999999999986,
                    "velocity": 0.4881889763779528,
                    "duration": 0.125
                },
                {
                    "name": "E5",
                    "midi": 76,
                    "time": 37.499999999999986,
                    "velocity": 0.49606299212598426,
                    "duration": 0.07916666666666572
                },
                {
                    "name": "C#6",
                    "midi": 85,
                    "time": 37.499999999999986,
                    "velocity": 0.5748031496062992,
                    "duration": 0.31666666666667
                },
                {
                    "name": "A#4",
                    "midi": 70,
                    "time": 37.499999999999986,
                    "velocity": 0.49606299212598426,
                    "duration": 0.375
                },
                {
                    "name": "C#4",
                    "midi": 61,
                    "time": 37.499999999999986,
                    "velocity": 0.49606299212598426,
                    "duration": 0.375
                },
                {
                    "name": "G#5",
                    "midi": 80,
                    "time": 37.687499999999986,
                    "velocity": 0.5039370078740157,
                    "duration": 0.10000000000000142
                },
                {
                    "name": "E5",
                    "midi": 76,
                    "time": 37.874999999999986,
                    "velocity": 0.5118110236220472,
                    "duration": 0.09166666666666856
                },
                {
                    "name": "B5",
                    "midi": 83,
                    "time": 37.874999999999986,
                    "velocity": 0.5118110236220472,
                    "duration": 0.125
                },
                {
                    "name": "G#4",
                    "midi": 68,
                    "time": 37.874999999999986,
                    "velocity": 0.5118110236220472,
                    "duration": 0.375
                },
                {
                    "name": "E4",
                    "midi": 64,
                    "time": 37.874999999999986,
                    "velocity": 0.5118110236220472,
                    "duration": 0.375
                },
                {
                    "name": "A#5",
                    "midi": 82,
                    "time": 37.999999999999986,
                    "velocity": 0.5196850393700787,
                    "duration": 0.125
                },
                {
                    "name": "G#5",
                    "midi": 80,
                    "time": 38.124999999999986,
                    "velocity": 0.5275590551181102,
                    "duration": 0.125
                },
                {
                    "name": "C#5",
                    "midi": 73,
                    "time": 38.249999999999986,
                    "velocity": 0.5511811023622047,
                    "duration": 0.36666666666666714
                },
                {
                    "name": "G#4",
                    "midi": 68,
                    "time": 38.249999999999986,
                    "velocity": 0.5511811023622047,
                    "duration": 0.375
                },
                {
                    "name": "A#5",
                    "midi": 82,
                    "time": 38.249999999999986,
                    "velocity": 0.6299212598425197,
                    "duration": 0.375
                },
                {
                    "name": "E5",
                    "midi": 76,
                    "time": 38.437499999999986,
                    "velocity": 0.5354330708661418,
                    "duration": 0.07500000000000284
                },
                {
                    "name": "F#4",
                    "midi": 66,
                    "time": 38.624999999999986,
                    "velocity": 0.5118110236220472,
                    "duration": 0.34166666666666856
                },
                {
                    "name": "B4",
                    "midi": 71,
                    "time": 38.624999999999986,
                    "velocity": 0.5118110236220472,
                    "duration": 0.36666666666666714
                },
                {
                    "name": "G#5",
                    "midi": 80,
                    "time": 38.624999999999986,
                    "velocity": 0.5118110236220472,
                    "duration": 0.3708333333333371
                },
                {
                    "name": "D#5",
                    "midi": 75,
                    "time": 38.812499999999986,
                    "velocity": 0.4881889763779528,
                    "duration": 0.08749999999999858
                },
                {
                    "name": "F4",
                    "midi": 65,
                    "time": 38.99999999999999,
                    "velocity": 0.47244094488188976,
                    "duration": 0.375
                },
                {
                    "name": "G#3",
                    "midi": 56,
                    "time": 38.99999999999999,
                    "velocity": 0.47244094488188976,
                    "duration": 0.375
                },
                {
                    "name": "D#5",
                    "midi": 75,
                    "time": 38.99999999999999,
                    "velocity": 0.47244094488188976,
                    "duration": 0.375
                },
                {
                    "name": "B4",
                    "midi": 71,
                    "time": 39.18749999999999,
                    "velocity": 0.47244094488188976,
                    "duration": 0.07500000000000284
                },
                {
                    "name": "G#4",
                    "midi": 68,
                    "time": 39.37499999999999,
                    "velocity": 0.47244094488188976,
                    "duration": 0.10000000000000142
                },
                {
                    "name": "B4",
                    "midi": 71,
                    "time": 39.56249999999999,
                    "velocity": 0.47244094488188976,
                    "duration": 0.0833333333333357
                },
                {
                    "name": "B4",
                    "midi": 71,
                    "time": 39.74999999999999,
                    "velocity": 0.47244094488188976,
                    "duration": 0.09166666666666856
                },
                {
                    "name": "G#4",
                    "midi": 68,
                    "time": 39.74999999999999,
                    "velocity": 0.47244094488188976,
                    "duration": 0.09166666666666856
                },
                {
                    "name": "G#5",
                    "midi": 80,
                    "time": 39.74999999999999,
                    "velocity": 0.47244094488188976,
                    "duration": 0.09166666666666856
                },
                {
                    "name": "D#5",
                    "midi": 75,
                    "time": 39.93749999999999,
                    "velocity": 0.47244094488188976,
                    "duration": 0.0833333333333357
                },
                {
                    "name": "F#4",
                    "midi": 66,
                    "time": 40.12499999999999,
                    "velocity": 0.5511811023622047,
                    "duration": 0.75
                },
                {
                    "name": "C#5",
                    "midi": 73,
                    "time": 40.12499999999999,
                    "velocity": 0.5511811023622047,
                    "duration": 0.4541666666666657
                },
                {
                    "name": "A#5",
                    "midi": 82,
                    "time": 40.12499999999999,
                    "velocity": 0.5511811023622047,
                    "duration": 0.75
                },
                {
                    "name": "F#5",
                    "midi": 78,
                    "time": 40.31249999999999,
                    "velocity": 0.47244094488188976,
                    "duration": 0.0833333333333357
                },
                {
                    "name": "C#5",
                    "midi": 73,
                    "time": 40.49999999999999,
                    "velocity": 0.47244094488188976,
                    "duration": 0.375
                },
                {
                    "name": "F#5",
                    "midi": 78,
                    "time": 40.68749999999999,
                    "velocity": 0.47244094488188976,
                    "duration": 0.07916666666666572
                },
                {
                    "name": "E5",
                    "midi": 76,
                    "time": 40.87499999999999,
                    "velocity": 0.47244094488188976,
                    "duration": 0.09166666666666856
                },
                {
                    "name": "B5",
                    "midi": 83,
                    "time": 40.87499999999999,
                    "velocity": 0.47244094488188976,
                    "duration": 0.125
                },
                {
                    "name": "G#4",
                    "midi": 68,
                    "time": 40.87499999999999,
                    "velocity": 0.47244094488188976,
                    "duration": 0.375
                },
                {
                    "name": "E4",
                    "midi": 64,
                    "time": 40.87499999999999,
                    "velocity": 0.47244094488188976,
                    "duration": 0.375
                },
                {
                    "name": "A#5",
                    "midi": 82,
                    "time": 40.99999999999999,
                    "velocity": 0.48031496062992124,
                    "duration": 0.125
                },
                {
                    "name": "G#5",
                    "midi": 80,
                    "time": 41.12499999999999,
                    "velocity": 0.4881889763779528,
                    "duration": 0.125
                },
                {
                    "name": "E5",
                    "midi": 76,
                    "time": 41.24999999999999,
                    "velocity": 0.49606299212598426,
                    "duration": 0.07916666666666572
                },
                {
                    "name": "C#6",
                    "midi": 85,
                    "time": 41.24999999999999,
                    "velocity": 0.5748031496062992,
                    "duration": 0.31666666666667
                },
                {
                    "name": "A#4",
                    "midi": 70,
                    "time": 41.24999999999999,
                    "velocity": 0.49606299212598426,
                    "duration": 0.375
                },
                {
                    "name": "C#4",
                    "midi": 61,
                    "time": 41.24999999999999,
                    "velocity": 0.49606299212598426,
                    "duration": 0.375
                },
                {
                    "name": "G#5",
                    "midi": 80,
                    "time": 41.43749999999999,
                    "velocity": 0.5039370078740157,
                    "duration": 0.10000000000000142
                },
                {
                    "name": "E5",
                    "midi": 76,
                    "time": 41.62499999999999,
                    "velocity": 0.5118110236220472,
                    "duration": 0.09166666666666856
                },
                {
                    "name": "B5",
                    "midi": 83,
                    "time": 41.62499999999999,
                    "velocity": 0.5118110236220472,
                    "duration": 0.125
                },
                {
                    "name": "G#4",
                    "midi": 68,
                    "time": 41.62499999999999,
                    "velocity": 0.5118110236220472,
                    "duration": 0.375
                },
                {
                    "name": "E4",
                    "midi": 64,
                    "time": 41.62499999999999,
                    "velocity": 0.5118110236220472,
                    "duration": 0.375
                },
                {
                    "name": "A#5",
                    "midi": 82,
                    "time": 41.74999999999999,
                    "velocity": 0.5196850393700787,
                    "duration": 0.125
                },
                {
                    "name": "G#5",
                    "midi": 80,
                    "time": 41.87499999999999,
                    "velocity": 0.5275590551181102,
                    "duration": 0.125
                },
                {
                    "name": "C#5",
                    "midi": 73,
                    "time": 41.99999999999999,
                    "velocity": 0.5511811023622047,
                    "duration": 0.36666666666666714
                },
                {
                    "name": "G#4",
                    "midi": 68,
                    "time": 41.99999999999999,
                    "velocity": 0.5511811023622047,
                    "duration": 0.375
                },
                {
                    "name": "A#5",
                    "midi": 82,
                    "time": 41.99999999999999,
                    "velocity": 0.6299212598425197,
                    "duration": 0.375
                },
                {
                    "name": "E5",
                    "midi": 76,
                    "time": 42.18749999999999,
                    "velocity": 0.5354330708661418,
                    "duration": 0.07500000000000284
                },
                {
                    "name": "F#4",
                    "midi": 66,
                    "time": 42.37499999999999,
                    "velocity": 0.5118110236220472,
                    "duration": 0.34166666666666856
                },
                {
                    "name": "B4",
                    "midi": 71,
                    "time": 42.37499999999999,
                    "velocity": 0.5118110236220472,
                    "duration": 0.36666666666666714
                },
                {
                    "name": "G#5",
                    "midi": 80,
                    "time": 42.37499999999999,
                    "velocity": 0.5118110236220472,
                    "duration": 0.3708333333333371
                },
                {
                    "name": "D#5",
                    "midi": 75,
                    "time": 42.56249999999999,
                    "velocity": 0.4881889763779528,
                    "duration": 0.08749999999999858
                },
                {
                    "name": "F4",
                    "midi": 65,
                    "time": 42.75,
                    "velocity": 0.47244094488188976,
                    "duration": 0.375
                },
                {
                    "name": "G#3",
                    "midi": 56,
                    "time": 42.75,
                    "velocity": 0.47244094488188976,
                    "duration": 0.375
                },
                {
                    "name": "D#5",
                    "midi": 75,
                    "time": 42.75,
                    "velocity": 0.47244094488188976,
                    "duration": 0.375
                },
                {
                    "name": "B4",
                    "midi": 71,
                    "time": 42.9375,
                    "velocity": 0.47244094488188976,
                    "duration": 0.07500000000000284
                },
                {
                    "name": "G#4",
                    "midi": 68,
                    "time": 43.125,
                    "velocity": 0.47244094488188976,
                    "duration": 0.10000000000000142
                },
                {
                    "name": "B4",
                    "midi": 71,
                    "time": 43.3125,
                    "velocity": 0.47244094488188976,
                    "duration": 0.0833333333333357
                },
                {
                    "name": "D#5",
                    "midi": 75,
                    "time": 43.5,
                    "velocity": 0.47244094488188976,
                    "duration": 0.10000000000000142
                },
                {
                    "name": "B4",
                    "midi": 71,
                    "time": 43.6875,
                    "velocity": 0.47244094488188976,
                    "duration": 0.09583333333333144
                },
                {
                    "name": "G#5",
                    "midi": 80,
                    "time": 43.875,
                    "velocity": 0.5511811023622047,
                    "duration": 0.375
                },
                {
                    "name": "B4",
                    "midi": 71,
                    "time": 43.875,
                    "velocity": 0.5511811023622047,
                    "duration": 0.375
                },
                {
                    "name": "F#4",
                    "midi": 66,
                    "time": 43.875,
                    "velocity": 0.5511811023622047,
                    "duration": 0.375
                },
                {
                    "name": "D#5",
                    "midi": 75,
                    "time": 44.0625,
                    "velocity": 0.47244094488188976,
                    "duration": 0.09583333333333144
                },
                {
                    "name": "D#5",
                    "midi": 75,
                    "time": 44.25,
                    "velocity": 0.47244094488188976,
                    "duration": 0.375
                },
                {
                    "name": "G#3",
                    "midi": 56,
                    "time": 44.25,
                    "velocity": 0.47244094488188976,
                    "duration": 0.375
                },
                {
                    "name": "F4",
                    "midi": 65,
                    "time": 44.25,
                    "velocity": 0.47244094488188976,
                    "duration": 0.375
                },
                {
                    "name": "B4",
                    "midi": 71,
                    "time": 44.4375,
                    "velocity": 0.47244094488188976,
                    "duration": 0.09583333333333144
                },
                {
                    "name": "G#4",
                    "midi": 68,
                    "time": 44.625,
                    "velocity": 0.47244094488188976,
                    "duration": 0.09166666666666856
                },
                {
                    "name": "B4",
                    "midi": 71,
                    "time": 44.8125,
                    "velocity": 0.47244094488188976,
                    "duration": 0.0833333333333357
                },
                {
                    "name": "D#5",
                    "midi": 75,
                    "time": 45,
                    "velocity": 0.47244094488188976,
                    "duration": 0.08749999999999858
                },
                {
                    "name": "B4",
                    "midi": 71,
                    "time": 45.1875,
                    "velocity": 0.47244094488188976,
                    "duration": 0.07916666666666572
                },
                {
                    "name": "G#5",
                    "midi": 80,
                    "time": 45.375,
                    "velocity": 0.5511811023622047,
                    "duration": 0.375
                },
                {
                    "name": "B4",
                    "midi": 71,
                    "time": 45.375,
                    "velocity": 0.5511811023622047,
                    "duration": 0.375
                },
                {
                    "name": "F#4",
                    "midi": 66,
                    "time": 45.375,
                    "velocity": 0.5511811023622047,
                    "duration": 0.375
                },
                {
                    "name": "D#5",
                    "midi": 75,
                    "time": 45.5625,
                    "velocity": 0.47244094488188976,
                    "duration": 0.06666666666666998
                },
                {
                    "name": "D#5",
                    "midi": 75,
                    "time": 45.75,
                    "velocity": 0.47244094488188976,
                    "duration": 0.375
                },
                {
                    "name": "G#3",
                    "midi": 56,
                    "time": 45.75,
                    "velocity": 0.47244094488188976,
                    "duration": 0.375
                },
                {
                    "name": "F4",
                    "midi": 65,
                    "time": 45.75,
                    "velocity": 0.47244094488188976,
                    "duration": 0.375
                },
                {
                    "name": "B4",
                    "midi": 71,
                    "time": 45.9375,
                    "velocity": 0.47244094488188976,
                    "duration": 0.07916666666666572
                },
                {
                    "name": "G#4",
                    "midi": 68,
                    "time": 46.125,
                    "velocity": 0.47244094488188976,
                    "duration": 0.09166666666666856
                },
                {
                    "name": "B4",
                    "midi": 71,
                    "time": 46.3125,
                    "velocity": 0.47244094488188976,
                    "duration": 0.08749999999999858
                },
                {
                    "name": "D#5",
                    "midi": 75,
                    "time": 46.5,
                    "velocity": 0.47244094488188976,
                    "duration": 0.09166666666666856
                },
                {
                    "name": "G#4",
                    "midi": 68,
                    "time": 46.6875,
                    "velocity": 0.47244094488188976,
                    "duration": 0.09583333333333144
                },
                {
                    "name": "B4",
                    "midi": 71,
                    "time": 46.875,
                    "velocity": 0.47244094488188976,
                    "duration": 0.0833333333333357
                },
                {
                    "name": "D#5",
                    "midi": 75,
                    "time": 47.0625,
                    "velocity": 0.47244094488188976,
                    "duration": 0.08749999999999858
                },
                {
                    "name": "A5",
                    "midi": 81,
                    "time": 47.25,
                    "velocity": 0.47244094488188976,
                    "duration": 0.1041666666666643
                },
                {
                    "name": "G#5",
                    "midi": 80,
                    "time": 47.25,
                    "velocity": 0.47244094488188976,
                    "duration": 0.12083333333333002
                },
                {
                    "name": "C#5",
                    "midi": 73,
                    "time": 47.25,
                    "velocity": 0.47244094488188976,
                    "duration": 0.375
                },
                {
                    "name": "E5",
                    "midi": 76,
                    "time": 47.25,
                    "velocity": 0.47244094488188976,
                    "duration": 0.375
                },
                {
                    "name": "E4",
                    "midi": 64,
                    "time": 47.25,
                    "velocity": 0.47244094488188976,
                    "duration": 1.5000000000000142
                },
                {
                    "name": "F#3",
                    "midi": 54,
                    "time": 47.25,
                    "velocity": 0.47244094488188976,
                    "duration": 1.5000000000000142
                },
                {
                    "name": "A5",
                    "midi": 81,
                    "time": 47.4375,
                    "velocity": 0.47244094488188976,
                    "duration": 0.2916666666666643
                },
                {
                    "name": "G#5",
                    "midi": 80,
                    "time": 47.4375,
                    "velocity": 0.47244094488188976,
                    "duration": 0.3125
                },
                {
                    "name": "A4",
                    "midi": 69,
                    "time": 47.625,
                    "velocity": 0.47244094488188976,
                    "duration": 0.375
                },
                {
                    "name": "C#5",
                    "midi": 73,
                    "time": 47.625,
                    "velocity": 0.47244094488188976,
                    "duration": 0.375
                },
                {
                    "name": "A5",
                    "midi": 81,
                    "time": 47.8125,
                    "velocity": 0.47244094488188976,
                    "duration": 0.26250000000000284
                },
                {
                    "name": "G#5",
                    "midi": 80,
                    "time": 47.8125,
                    "velocity": 0.47244094488188976,
                    "duration": 0.34583333333333854
                },
                {
                    "name": "C#5",
                    "midi": 73,
                    "time": 48,
                    "velocity": 0.47244094488188976,
                    "duration": 0.3750000000000071
                },
                {
                    "name": "E5",
                    "midi": 76,
                    "time": 48,
                    "velocity": 0.47244094488188976,
                    "duration": 0.3750000000000071
                },
                {
                    "name": "E5",
                    "midi": 76,
                    "time": 48.18750000000001,
                    "velocity": 0.47244094488188976,
                    "duration": 0.1875
                },
                {
                    "name": "A5",
                    "midi": 81,
                    "time": 48.18750000000001,
                    "velocity": 0.47244094488188976,
                    "duration": 0.2708333333333357
                },
                {
                    "name": "G#5",
                    "midi": 80,
                    "time": 48.18750000000001,
                    "velocity": 0.47244094488188976,
                    "duration": 0.2750000000000057
                },
                {
                    "name": "A4",
                    "midi": 69,
                    "time": 48.37500000000001,
                    "velocity": 0.47244094488188976,
                    "duration": 0.3750000000000071
                },
                {
                    "name": "C#5",
                    "midi": 73,
                    "time": 48.37500000000001,
                    "velocity": 0.47244094488188976,
                    "duration": 0.3750000000000071
                },
                {
                    "name": "D#5",
                    "midi": 75,
                    "time": 48.562500000000014,
                    "velocity": 0.47244094488188976,
                    "duration": 0.1875
                },
                {
                    "name": "G#5",
                    "midi": 80,
                    "time": 48.562500000000014,
                    "velocity": 0.47244094488188976,
                    "duration": 0.37083333333333
                },
                {
                    "name": "A5",
                    "midi": 81,
                    "time": 48.562500000000014,
                    "velocity": 0.47244094488188976,
                    "duration": 0.5125000000000028
                },
                {
                    "name": "B4",
                    "midi": 71,
                    "time": 48.750000000000014,
                    "velocity": 0.5511811023622047,
                    "duration": 0.1875
                },
                {
                    "name": "E5",
                    "midi": 76,
                    "time": 48.750000000000014,
                    "velocity": 0.47244094488188976,
                    "duration": 0.1875
                },
                {
                    "name": "C#5",
                    "midi": 73,
                    "time": 48.750000000000014,
                    "velocity": 0.5511811023622047,
                    "duration": 0.23749999999999716
                },
                {
                    "name": "A4",
                    "midi": 69,
                    "time": 48.750000000000014,
                    "velocity": 0.47244094488188976,
                    "duration": 0.30416666666666714
                },
                {
                    "name": "F#5",
                    "midi": 78,
                    "time": 48.937500000000014,
                    "velocity": 0.47244094488188976,
                    "duration": 0.14166666666667282
                },
                {
                    "name": "B3",
                    "midi": 59,
                    "time": 48.937500000000014,
                    "velocity": 0.47244094488188976,
                    "duration": 0.1875000000000071
                },
                {
                    "name": "F#4",
                    "midi": 66,
                    "time": 48.937500000000014,
                    "velocity": 0.47244094488188976,
                    "duration": 0.1875000000000071
                },
                {
                    "name": "D#5",
                    "midi": 75,
                    "time": 48.937500000000014,
                    "velocity": 0.47244094488188976,
                    "duration": 0.1875000000000071
                },
                {
                    "name": "G#5",
                    "midi": 80,
                    "time": 49.12500000000002,
                    "velocity": 0.5511811023622047,
                    "duration": 0.07916666666666572
                },
                {
                    "name": "F#5",
                    "midi": 78,
                    "time": 49.12500000000002,
                    "velocity": 0.47244094488188976,
                    "duration": 0.1041666666666643
                },
                {
                    "name": "D#5",
                    "midi": 75,
                    "time": 49.12500000000002,
                    "velocity": 0.47244094488188976,
                    "duration": 0.375
                },
                {
                    "name": "B4",
                    "midi": 71,
                    "time": 49.12500000000002,
                    "velocity": 0.47244094488188976,
                    "duration": 0.375
                },
                {
                    "name": "E3",
                    "midi": 52,
                    "time": 49.12500000000002,
                    "velocity": 0.47244094488188976,
                    "duration": 1.500000000000007
                },
                {
                    "name": "D#4",
                    "midi": 63,
                    "time": 49.12500000000002,
                    "velocity": 0.47244094488188976,
                    "duration": 1.500000000000007
                },
                {
                    "name": "G#5",
                    "midi": 80,
                    "time": 49.31250000000002,
                    "velocity": 0.47244094488188976,
                    "duration": 0.2875000000000014
                },
                {
                    "name": "F#5",
                    "midi": 78,
                    "time": 49.31250000000002,
                    "velocity": 0.47244094488188976,
                    "duration": 0.3125
                },
                {
                    "name": "B4",
                    "midi": 71,
                    "time": 49.50000000000002,
                    "velocity": 0.47244094488188976,
                    "duration": 0.375
                },
                {
                    "name": "G#4",
                    "midi": 68,
                    "time": 49.50000000000002,
                    "velocity": 0.47244094488188976,
                    "duration": 0.375
                },
                {
                    "name": "G#5",
                    "midi": 80,
                    "time": 49.68750000000002,
                    "velocity": 0.47244094488188976,
                    "duration": 0.2958333333333343
                },
                {
                    "name": "F#5",
                    "midi": 78,
                    "time": 49.68750000000002,
                    "velocity": 0.5511811023622047,
                    "duration": 0.3708333333333371
                },
                {
                    "name": "B4",
                    "midi": 71,
                    "time": 49.87500000000002,
                    "velocity": 0.47244094488188976,
                    "duration": 0.3750000000000071
                },
                {
                    "name": "D#5",
                    "midi": 75,
                    "time": 49.87500000000002,
                    "velocity": 0.47244094488188976,
                    "duration": 0.3750000000000071
                },
                {
                    "name": "F#5",
                    "midi": 78,
                    "time": 50.06250000000003,
                    "velocity": 0.47244094488188976,
                    "duration": 0.2749999999999986
                },
                {
                    "name": "G#5",
                    "midi": 80,
                    "time": 50.06250000000003,
                    "velocity": 0.47244094488188976,
                    "duration": 0.27916666666666856
                },
                {
                    "name": "B4",
                    "midi": 71,
                    "time": 50.25000000000003,
                    "velocity": 0.47244094488188976,
                    "duration": 0.375
                },
                {
                    "name": "G#4",
                    "midi": 68,
                    "time": 50.25000000000003,
                    "velocity": 0.47244094488188976,
                    "duration": 0.375
                },
                {
                    "name": "C#5",
                    "midi": 73,
                    "time": 50.43750000000003,
                    "velocity": 0.47244094488188976,
                    "duration": 0.20000000000000284
                },
                {
                    "name": "F#5",
                    "midi": 78,
                    "time": 50.43750000000003,
                    "velocity": 0.47244094488188976,
                    "duration": 0.375
                },
                {
                    "name": "G#5",
                    "midi": 80,
                    "time": 50.43750000000003,
                    "velocity": 0.47244094488188976,
                    "duration": 0.5958333333333385
                },
                {
                    "name": "A4",
                    "midi": 69,
                    "time": 50.62500000000003,
                    "velocity": 0.5511811023622047,
                    "duration": 0.1875
                },
                {
                    "name": "D#5",
                    "midi": 75,
                    "time": 50.62500000000003,
                    "velocity": 0.47244094488188976,
                    "duration": 0.1875
                },
                {
                    "name": "B4",
                    "midi": 71,
                    "time": 50.62500000000003,
                    "velocity": 0.5511811023622047,
                    "duration": 0.26250000000000284
                },
                {
                    "name": "G#4",
                    "midi": 68,
                    "time": 50.62500000000003,
                    "velocity": 0.47244094488188976,
                    "duration": 0.31666666666667
                },
                {
                    "name": "C#5",
                    "midi": 73,
                    "time": 50.81250000000003,
                    "velocity": 0.47244094488188976,
                    "duration": 0.18333333333333712
                },
                {
                    "name": "E4",
                    "midi": 64,
                    "time": 50.81250000000003,
                    "velocity": 0.47244094488188976,
                    "duration": 0.1875000000000071
                },
                {
                    "name": "A3",
                    "midi": 57,
                    "time": 50.81250000000003,
                    "velocity": 0.47244094488188976,
                    "duration": 0.1875000000000071
                },
                {
                    "name": "E5",
                    "midi": 76,
                    "time": 50.81250000000003,
                    "velocity": 0.47244094488188976,
                    "duration": 0.1875000000000071
                },
                {
                    "name": "C#5",
                    "midi": 73,
                    "time": 51.000000000000036,
                    "velocity": 0.47244094488188976,
                    "duration": 0.375
                },
                {
                    "name": "A4",
                    "midi": 69,
                    "time": 51.000000000000036,
                    "velocity": 0.47244094488188976,
                    "duration": 0.375
                },
                {
                    "name": "A4",
                    "midi": 69,
                    "time": 51.375000000000036,
                    "velocity": 0.47244094488188976,
                    "duration": 0.375
                },
                {
                    "name": "F#4",
                    "midi": 66,
                    "time": 51.375000000000036,
                    "velocity": 0.47244094488188976,
                    "duration": 0.375
                },
                {
                    "name": "A4",
                    "midi": 69,
                    "time": 51.750000000000036,
                    "velocity": 0.47244094488188976,
                    "duration": 0.375
                },
                {
                    "name": "C#5",
                    "midi": 73,
                    "time": 51.750000000000036,
                    "velocity": 0.47244094488188976,
                    "duration": 0.375
                },
                {
                    "name": "F#4",
                    "midi": 66,
                    "time": 52.125000000000036,
                    "velocity": 0.47244094488188976,
                    "duration": 0.375
                },
                {
                    "name": "A4",
                    "midi": 69,
                    "time": 52.125000000000036,
                    "velocity": 0.47244094488188976,
                    "duration": 0.375
                },
                {
                    "name": "A4",
                    "midi": 69,
                    "time": 52.500000000000036,
                    "velocity": 0.5511811023622047,
                    "duration": 0.28333333333333144
                },
                {
                    "name": "B4",
                    "midi": 71,
                    "time": 52.875000000000036,
                    "velocity": 0.47244094488188976,
                    "duration": 0.375
                },
                {
                    "name": "G#4",
                    "midi": 68,
                    "time": 52.875000000000036,
                    "velocity": 0.47244094488188976,
                    "duration": 0.375
                },
                {
                    "name": "E4",
                    "midi": 64,
                    "time": 53.250000000000036,
                    "velocity": 0.47244094488188976,
                    "duration": 0.375
                },
                {
                    "name": "G#4",
                    "midi": 68,
                    "time": 53.250000000000036,
                    "velocity": 0.47244094488188976,
                    "duration": 0.375
                },
                {
                    "name": "B4",
                    "midi": 71,
                    "time": 53.625000000000036,
                    "velocity": 0.47244094488188976,
                    "duration": 0.375
                },
                {
                    "name": "G#4",
                    "midi": 68,
                    "time": 53.625000000000036,
                    "velocity": 0.47244094488188976,
                    "duration": 0.375
                },
                {
                    "name": "E4",
                    "midi": 64,
                    "time": 54.000000000000036,
                    "velocity": 0.47244094488188976,
                    "duration": 0.375
                },
                {
                    "name": "G#4",
                    "midi": 68,
                    "time": 54.000000000000036,
                    "velocity": 0.47244094488188976,
                    "duration": 0.375
                },
                {
                    "name": "G#4",
                    "midi": 68,
                    "time": 54.375000000000036,
                    "velocity": 0.5511811023622047,
                    "duration": 0.2875000000000014
                },
                {
                    "name": "E5",
                    "midi": 76,
                    "time": 68.5416666666667,
                    "velocity": 0.47244094488188976,
                    "duration": 0.09583333333333144
                },
                {
                    "name": "G#5",
                    "midi": 80,
                    "time": 68.5416666666667,
                    "velocity": 0.47244094488188976,
                    "duration": 0.09583333333333144
                },
                {
                    "name": "G#4",
                    "midi": 68,
                    "time": 68.73333333333336,
                    "velocity": 0.47244094488188976,
                    "duration": 0.09166666666666856
                },
                {
                    "name": "C#5",
                    "midi": 73,
                    "time": 68.9166666666667,
                    "velocity": 0.47244094488188976,
                    "duration": 0.09583333333333144
                },
                {
                    "name": "E5",
                    "midi": 76,
                    "time": 68.9166666666667,
                    "velocity": 0.5511811023622047,
                    "duration": 0.75
                },
                {
                    "name": "G#5",
                    "midi": 80,
                    "time": 68.9166666666667,
                    "velocity": 0.5511811023622047,
                    "duration": 0.75
                },
                {
                    "name": "G#4",
                    "midi": 68,
                    "time": 69.10833333333336,
                    "velocity": 0.47244094488188976,
                    "duration": 0.09166666666666856
                },
                {
                    "name": "C#4",
                    "midi": 61,
                    "time": 69.2916666666667,
                    "velocity": 0.47244094488188976,
                    "duration": 0.09583333333333144
                },
                {
                    "name": "E4",
                    "midi": 64,
                    "time": 69.2916666666667,
                    "velocity": 0.47244094488188976,
                    "duration": 0.09583333333333144
                },
                {
                    "name": "G#4",
                    "midi": 68,
                    "time": 69.48333333333336,
                    "velocity": 0.47244094488188976,
                    "duration": 0.09166666666666856
                },
                {
                    "name": "A#5",
                    "midi": 82,
                    "time": 69.6666666666667,
                    "velocity": 0.5511811023622047,
                    "duration": 0.125
                },
                {
                    "name": "E5",
                    "midi": 76,
                    "time": 69.6666666666667,
                    "velocity": 0.5511811023622047,
                    "duration": 0.2874999999999943
                },
                {
                    "name": "C#5",
                    "midi": 73,
                    "time": 69.6666666666667,
                    "velocity": 0.5511811023622047,
                    "duration": 0.36666666666666003
                },
                {
                    "name": "A#4",
                    "midi": 70,
                    "time": 69.6666666666667,
                    "velocity": 0.5511811023622047,
                    "duration": 0.36666666666666003
                },
                {
                    "name": "G#5",
                    "midi": 80,
                    "time": 69.7916666666667,
                    "velocity": 0.5118110236220472,
                    "duration": 0.125
                },
                {
                    "name": "F#4",
                    "midi": 66,
                    "time": 69.85833333333336,
                    "velocity": 0.47244094488188976,
                    "duration": 0.09166666666666856
                },
                {
                    "name": "F#5",
                    "midi": 78,
                    "time": 69.9166666666667,
                    "velocity": 0.4881889763779528,
                    "duration": 0.09583333333333144
                },
                {
                    "name": "G#4",
                    "midi": 68,
                    "time": 70.0416666666667,
                    "velocity": 0.47244094488188976,
                    "duration": 0.09583333333333144
                },
                {
                    "name": "E5",
                    "midi": 76,
                    "time": 70.0416666666667,
                    "velocity": 0.47244094488188976,
                    "duration": 0.23749999999999716
                },
                {
                    "name": "C#5",
                    "midi": 73,
                    "time": 70.0416666666667,
                    "velocity": 0.47244094488188976,
                    "duration": 0.2541666666666629
                },
                {
                    "name": "C#4",
                    "midi": 61,
                    "time": 70.0416666666667,
                    "velocity": 0.47244094488188976,
                    "duration": 0.3541666666666714
                },
                {
                    "name": "E4",
                    "midi": 64,
                    "time": 70.23333333333336,
                    "velocity": 0.47244094488188976,
                    "duration": 0.09166666666666856
                },
                {
                    "name": "C#5",
                    "midi": 73,
                    "time": 70.4166666666667,
                    "velocity": 0.47244094488188976,
                    "duration": 0.09583333333333144
                },
                {
                    "name": "C#5",
                    "midi": 73,
                    "time": 70.4166666666667,
                    "velocity": 0.47244094488188976,
                    "duration": 0.19166666666666288
                },
                {
                    "name": "G#4",
                    "midi": 68,
                    "time": 70.4166666666667,
                    "velocity": 0.47244094488188976,
                    "duration": 0.19166666666666288
                },
                {
                    "name": "E4",
                    "midi": 64,
                    "time": 70.60833333333336,
                    "velocity": 0.47244094488188976,
                    "duration": 0.09166666666666856
                },
                {
                    "name": "E5",
                    "midi": 76,
                    "time": 70.60833333333336,
                    "velocity": 0.47244094488188976,
                    "duration": 0.18333333333333712
                },
                {
                    "name": "C#4",
                    "midi": 61,
                    "time": 70.7916666666667,
                    "velocity": 0.47244094488188976,
                    "duration": 0.09583333333333144
                },
                {
                    "name": "D#4",
                    "midi": 63,
                    "time": 70.7916666666667,
                    "velocity": 0.47244094488188976,
                    "duration": 0.09583333333333144
                },
                {
                    "name": "D#5",
                    "midi": 75,
                    "time": 70.7916666666667,
                    "velocity": 0.47244094488188976,
                    "duration": 0.09583333333333144
                },
                {
                    "name": "F#5",
                    "midi": 78,
                    "time": 70.7916666666667,
                    "velocity": 0.47244094488188976,
                    "duration": 0.09583333333333144
                },
                {
                    "name": "F#4",
                    "midi": 66,
                    "time": 70.98333333333336,
                    "velocity": 0.47244094488188976,
                    "duration": 0.09166666666666856
                },
                {
                    "name": "C#5",
                    "midi": 73,
                    "time": 71.1666666666667,
                    "velocity": 0.47244094488188976,
                    "duration": 0.09583333333333144
                },
                {
                    "name": "C#6",
                    "midi": 85,
                    "time": 71.1666666666667,
                    "velocity": 0.47244094488188976,
                    "duration": 0.19166666666666288
                },
                {
                    "name": "F#4",
                    "midi": 66,
                    "time": 71.35833333333336,
                    "velocity": 0.47244094488188976,
                    "duration": 0.09166666666666856
                },
                {
                    "name": "C#4",
                    "midi": 61,
                    "time": 71.5416666666667,
                    "velocity": 0.47244094488188976,
                    "duration": 0.09583333333333144
                },
                {
                    "name": "E4",
                    "midi": 64,
                    "time": 71.5416666666667,
                    "velocity": 0.47244094488188976,
                    "duration": 0.09583333333333144
                },
                {
                    "name": "E5",
                    "midi": 76,
                    "time": 71.5416666666667,
                    "velocity": 0.47244094488188976,
                    "duration": 0.09583333333333144
                },
                {
                    "name": "G#5",
                    "midi": 80,
                    "time": 71.5416666666667,
                    "velocity": 0.47244094488188976,
                    "duration": 0.09583333333333144
                },
                {
                    "name": "G#4",
                    "midi": 68,
                    "time": 71.73333333333336,
                    "velocity": 0.47244094488188976,
                    "duration": 0.09166666666666856
                },
                {
                    "name": "C#5",
                    "midi": 73,
                    "time": 71.9166666666667,
                    "velocity": 0.47244094488188976,
                    "duration": 0.09583333333333144
                },
                {
                    "name": "C#6",
                    "midi": 85,
                    "time": 71.9166666666667,
                    "velocity": 0.47244094488188976,
                    "duration": 0.19166666666666288
                },
                {
                    "name": "G#4",
                    "midi": 68,
                    "time": 72.10833333333336,
                    "velocity": 0.47244094488188976,
                    "duration": 0.09166666666666856
                },
                {
                    "name": "E4",
                    "midi": 64,
                    "time": 72.2916666666667,
                    "velocity": 0.47244094488188976,
                    "duration": 0.09583333333333144
                },
                {
                    "name": "B3",
                    "midi": 59,
                    "time": 72.2916666666667,
                    "velocity": 0.47244094488188976,
                    "duration": 0.09583333333333144
                },
                {
                    "name": "C#5",
                    "midi": 73,
                    "time": 72.2916666666667,
                    "velocity": 0.47244094488188976,
                    "duration": 0.09583333333333144
                },
                {
                    "name": "E5",
                    "midi": 76,
                    "time": 72.30833333333337,
                    "velocity": 0.47244094488188976,
                    "duration": 0.09583333333333144
                },
                {
                    "name": "G#5",
                    "midi": 80,
                    "time": 72.32500000000003,
                    "velocity": 0.47244094488188976,
                    "duration": 0.09166666666666856
                },
                {
                    "name": "B5",
                    "midi": 83,
                    "time": 72.3416666666667,
                    "velocity": 0.47244094488188976,
                    "duration": 0.09166666666666856
                },
                {
                    "name": "C#6",
                    "midi": 85,
                    "time": 72.35833333333336,
                    "velocity": 0.47244094488188976,
                    "duration": 0.09166666666666856
                },
                {
                    "name": "G#4",
                    "midi": 68,
                    "time": 72.48333333333336,
                    "velocity": 0.47244094488188976,
                    "duration": 0.09166666666666856
                },
                {
                    "name": "C#5",
                    "midi": 73,
                    "time": 72.6666666666667,
                    "velocity": 0.47244094488188976,
                    "duration": 0.09583333333333144
                },
                {
                    "name": "B5",
                    "midi": 83,
                    "time": 72.6666666666667,
                    "velocity": 0.5511811023622047,
                    "duration": 0.75
                },
                {
                    "name": "C#6",
                    "midi": 85,
                    "time": 72.6666666666667,
                    "velocity": 0.5511811023622047,
                    "duration": 0.75
                },
                {
                    "name": "G#4",
                    "midi": 68,
                    "time": 72.85833333333336,
                    "velocity": 0.47244094488188976,
                    "duration": 0.09166666666666856
                },
                {
                    "name": "E4",
                    "midi": 64,
                    "time": 73.0416666666667,
                    "velocity": 0.47244094488188976,
                    "duration": 0.09583333333333144
                },
                {
                    "name": "B3",
                    "midi": 59,
                    "time": 73.0416666666667,
                    "velocity": 0.5118110236220472,
                    "duration": 0.375
                },
                {
                    "name": "G#4",
                    "midi": 68,
                    "time": 73.23333333333336,
                    "velocity": 0.47244094488188976,
                    "duration": 0.09166666666666856
                },
                {
                    "name": "C#5",
                    "midi": 73,
                    "time": 73.4166666666667,
                    "velocity": 0.47244094488188976,
                    "duration": 0.09583333333333144
                },
                {
                    "name": "A#5",
                    "midi": 82,
                    "time": 73.4166666666667,
                    "velocity": 0.5511811023622047,
                    "duration": 0.125
                },
                {
                    "name": "E5",
                    "midi": 76,
                    "time": 73.4166666666667,
                    "velocity": 0.5511811023622047,
                    "duration": 0.75
                },
                {
                    "name": "C#6",
                    "midi": 85,
                    "time": 73.4166666666667,
                    "velocity": 0.5511811023622047,
                    "duration": 0.75
                },
                {
                    "name": "G#5",
                    "midi": 80,
                    "time": 73.5416666666667,
                    "velocity": 0.5354330708661418,
                    "duration": 0.125
                },
                {
                    "name": "G#4",
                    "midi": 68,
                    "time": 73.60833333333336,
                    "velocity": 0.47244094488188976,
                    "duration": 0.09166666666666856
                },
                {
                    "name": "F#5",
                    "midi": 78,
                    "time": 73.6666666666667,
                    "velocity": 0.5039370078740157,
                    "duration": 0.125
                },
                {
                    "name": "E4",
                    "midi": 64,
                    "time": 73.7916666666667,
                    "velocity": 0.47244094488188976,
                    "duration": 0.09583333333333144
                },
                {
                    "name": "G#5",
                    "midi": 80,
                    "time": 73.7916666666667,
                    "velocity": 0.47244094488188976,
                    "duration": 0.24166666666666003
                },
                {
                    "name": "A#3",
                    "midi": 58,
                    "time": 73.7916666666667,
                    "velocity": 0.5118110236220472,
                    "duration": 0.3583333333333343
                },
                {
                    "name": "G#4",
                    "midi": 68,
                    "time": 73.98333333333336,
                    "velocity": 0.47244094488188976,
                    "duration": 0.09166666666666856
                },
                {
                    "name": "C#5",
                    "midi": 73,
                    "time": 74.1666666666667,
                    "velocity": 0.47244094488188976,
                    "duration": 0.09583333333333144
                },
                {
                    "name": "F#5",
                    "midi": 78,
                    "time": 74.1666666666667,
                    "velocity": 0.5511811023622047,
                    "duration": 0.125
                },
                {
                    "name": "C#6",
                    "midi": 85,
                    "time": 74.1666666666667,
                    "velocity": 0.5511811023622047,
                    "duration": 0.75
                },
                {
                    "name": "G#5",
                    "midi": 80,
                    "time": 74.1666666666667,
                    "velocity": 0.5511811023622047,
                    "duration": 0.75
                },
                {
                    "name": "E5",
                    "midi": 76,
                    "time": 74.2916666666667,
                    "velocity": 0.5118110236220472,
                    "duration": 0.125
                },
                {
                    "name": "G#4",
                    "midi": 68,
                    "time": 74.35833333333336,
                    "velocity": 0.47244094488188976,
                    "duration": 0.09166666666666856
                },
                {
                    "name": "D#5",
                    "midi": 75,
                    "time": 74.4166666666667,
                    "velocity": 0.4881889763779528,
                    "duration": 0.125
                },
                {
                    "name": "E4",
                    "midi": 64,
                    "time": 74.5416666666667,
                    "velocity": 0.47244094488188976,
                    "duration": 0.09583333333333144
                },
                {
                    "name": "E5",
                    "midi": 76,
                    "time": 74.5416666666667,
                    "velocity": 0.47244094488188976,
                    "duration": 0.24166666666666003
                },
                {
                    "name": "A3",
                    "midi": 57,
                    "time": 74.5416666666667,
                    "velocity": 0.5118110236220472,
                    "duration": 0.3541666666666714
                },
                {
                    "name": "G#4",
                    "midi": 68,
                    "time": 74.73333333333336,
                    "velocity": 0.47244094488188976,
                    "duration": 0.09166666666666856
                },
                {
                    "name": "C#5",
                    "midi": 73,
                    "time": 74.9166666666667,
                    "velocity": 0.47244094488188976,
                    "duration": 0.09583333333333144
                },
                {
                    "name": "D#5",
                    "midi": 75,
                    "time": 74.9166666666667,
                    "velocity": 0.5511811023622047,
                    "duration": 0.125
                },
                {
                    "name": "C#6",
                    "midi": 85,
                    "time": 74.9166666666667,
                    "velocity": 0.5511811023622047,
                    "duration": 0.375
                },
                {
                    "name": "G#5",
                    "midi": 80,
                    "time": 74.9166666666667,
                    "velocity": 0.5511811023622047,
                    "duration": 0.7249999999999943
                },
                {
                    "name": "C#5",
                    "midi": 73,
                    "time": 75.0416666666667,
                    "velocity": 0.5118110236220472,
                    "duration": 0.125
                },
                {
                    "name": "G#4",
                    "midi": 68,
                    "time": 75.10833333333336,
                    "velocity": 0.47244094488188976,
                    "duration": 0.09166666666666856
                },
                {
                    "name": "B4",
                    "midi": 71,
                    "time": 75.1666666666667,
                    "velocity": 0.4881889763779528,
                    "duration": 0.125
                },
                {
                    "name": "D#5",
                    "midi": 75,
                    "time": 75.2916666666667,
                    "velocity": 0.47244094488188976,
                    "duration": 0.19166666666666288
                },
                {
                    "name": "B5",
                    "midi": 83,
                    "time": 75.2916666666667,
                    "velocity": 0.47244094488188976,
                    "duration": 0.3499999999999943
                },
                {
                    "name": "G#3",
                    "midi": 56,
                    "time": 75.2916666666667,
                    "velocity": 0.47244094488188976,
                    "duration": 0.3541666666666572
                },
                {
                    "name": "D#4",
                    "midi": 63,
                    "time": 75.2916666666667,
                    "velocity": 0.47244094488188976,
                    "duration": 0.3541666666666572
                },
                {
                    "name": "G#4",
                    "midi": 68,
                    "time": 75.66666666666669,
                    "velocity": 0.47244094488188976,
                    "duration": 0.06666666666666288
                },
                {
                    "name": "B4",
                    "midi": 71,
                    "time": 75.79166666666669,
                    "velocity": 0.47244094488188976,
                    "duration": 0.06666666666666288
                },
                {
                    "name": "D#5",
                    "midi": 75,
                    "time": 75.91666666666669,
                    "velocity": 0.47244094488188976,
                    "duration": 0.06666666666666288
                },
                {
                    "name": "C#4",
                    "midi": 61,
                    "time": 76.04166666666669,
                    "velocity": 0.47244094488188976,
                    "duration": 0.09583333333333144
                },
                {
                    "name": "E4",
                    "midi": 64,
                    "time": 76.04166666666669,
                    "velocity": 0.47244094488188976,
                    "duration": 0.09583333333333144
                },
                {
                    "name": "G#4",
                    "midi": 68,
                    "time": 76.23333333333335,
                    "velocity": 0.47244094488188976,
                    "duration": 0.09166666666666856
                },
                {
                    "name": "C#5",
                    "midi": 73,
                    "time": 76.41666666666669,
                    "velocity": 0.47244094488188976,
                    "duration": 0.09583333333333144
                },
                {
                    "name": "G#4",
                    "midi": 68,
                    "time": 76.60833333333335,
                    "velocity": 0.47244094488188976,
                    "duration": 0.09166666666666856
                },
                {
                    "name": "E4",
                    "midi": 64,
                    "time": 76.79166666666669,
                    "velocity": 0.47244094488188976,
                    "duration": 0.09583333333333144
                },
                {
                    "name": "C#4",
                    "midi": 61,
                    "time": 76.79166666666669,
                    "velocity": 0.47244094488188976,
                    "duration": 0.09583333333333144
                },
                {
                    "name": "G#4",
                    "midi": 68,
                    "time": 76.98333333333335,
                    "velocity": 0.47244094488188976,
                    "duration": 0.09166666666666856
                },
                {
                    "name": "F#4",
                    "midi": 66,
                    "time": 77.35833333333335,
                    "velocity": 0.47244094488188976,
                    "duration": 0.09166666666666856
                },
                {
                    "name": "G#4",
                    "midi": 68,
                    "time": 77.54166666666669,
                    "velocity": 0.47244094488188976,
                    "duration": 0.09583333333333144
                },
                {
                    "name": "E4",
                    "midi": 64,
                    "time": 77.73333333333335,
                    "velocity": 0.47244094488188976,
                    "duration": 0.09166666666666856
                },
                {
                    "name": "C#5",
                    "midi": 73,
                    "time": 77.91666666666669,
                    "velocity": 0.47244094488188976,
                    "duration": 0.09583333333333144
                },
                {
                    "name": "E4",
                    "midi": 64,
                    "time": 78.10833333333335,
                    "velocity": 0.47244094488188976,
                    "duration": 0.09166666666666856
                },
                {
                    "name": "B3",
                    "midi": 59,
                    "time": 78.29166666666669,
                    "velocity": 0.47244094488188976,
                    "duration": 0.09583333333333144
                },
                {
                    "name": "D#4",
                    "midi": 63,
                    "time": 78.29166666666669,
                    "velocity": 0.47244094488188976,
                    "duration": 0.09583333333333144
                },
                {
                    "name": "F#4",
                    "midi": 66,
                    "time": 78.48333333333335,
                    "velocity": 0.47244094488188976,
                    "duration": 0.09166666666666856
                },
                {
                    "name": "F#4",
                    "midi": 66,
                    "time": 78.66666666666669,
                    "velocity": 0.47244094488188976,
                    "duration": 0.09583333333333144
                },
                {
                    "name": "D#4",
                    "midi": 63,
                    "time": 78.66666666666669,
                    "velocity": 0.47244094488188976,
                    "duration": 0.09583333333333144
                },
                {
                    "name": "B4",
                    "midi": 71,
                    "time": 78.85833333333335,
                    "velocity": 0.47244094488188976,
                    "duration": 0.09166666666666856
                },
                {
                    "name": "E4",
                    "midi": 64,
                    "time": 79.04166666666669,
                    "velocity": 0.47244094488188976,
                    "duration": 0.09583333333333144
                },
                {
                    "name": "G#4",
                    "midi": 68,
                    "time": 79.23333333333335,
                    "velocity": 0.47244094488188976,
                    "duration": 0.09166666666666856
                },
                {
                    "name": "C#5",
                    "midi": 73,
                    "time": 79.41666666666669,
                    "velocity": 0.5511811023622047,
                    "duration": 0.09583333333333144
                },
                {
                    "name": "G#4",
                    "midi": 68,
                    "time": 79.60833333333335,
                    "velocity": 0.47244094488188976,
                    "duration": 0.09166666666666856
                },
                {
                    "name": "E4",
                    "midi": 64,
                    "time": 79.79166666666669,
                    "velocity": 0.47244094488188976,
                    "duration": 0.09583333333333144
                },
                {
                    "name": "G#4",
                    "midi": 68,
                    "time": 79.98333333333335,
                    "velocity": 0.47244094488188976,
                    "duration": 0.09166666666666856
                },
                {
                    "name": "F4",
                    "midi": 65,
                    "time": 80.16666666666669,
                    "velocity": 0.47244094488188976,
                    "duration": 0.09583333333333144
                },
                {
                    "name": "G#4",
                    "midi": 68,
                    "time": 80.35833333333335,
                    "velocity": 0.47244094488188976,
                    "duration": 0.09166666666666856
                },
                {
                    "name": "E4",
                    "midi": 64,
                    "time": 80.54166666666669,
                    "velocity": 0.47244094488188976,
                    "duration": 0.09583333333333144
                },
                {
                    "name": "G#4",
                    "midi": 68,
                    "time": 80.73333333333335,
                    "velocity": 0.47244094488188976,
                    "duration": 0.09166666666666856
                },
                {
                    "name": "C#5",
                    "midi": 73,
                    "time": 80.91666666666669,
                    "velocity": 0.47244094488188976,
                    "duration": 0.09583333333333144
                },
                {
                    "name": "G#4",
                    "midi": 68,
                    "time": 81.10833333333335,
                    "velocity": 0.47244094488188976,
                    "duration": 0.09166666666666856
                },
                {
                    "name": "E4",
                    "midi": 64,
                    "time": 81.29166666666669,
                    "velocity": 0.47244094488188976,
                    "duration": 0.09583333333333144
                },
                {
                    "name": "G#4",
                    "midi": 68,
                    "time": 81.48333333333335,
                    "velocity": 0.47244094488188976,
                    "duration": 0.09166666666666856
                },
                {
                    "name": "F4",
                    "midi": 65,
                    "time": 81.66666666666669,
                    "velocity": 0.47244094488188976,
                    "duration": 0.09583333333333144
                },
                {
                    "name": "G#4",
                    "midi": 68,
                    "time": 81.85833333333335,
                    "velocity": 0.47244094488188976,
                    "duration": 0.09166666666666856
                },
                {
                    "name": "E4",
                    "midi": 64,
                    "time": 82.04166666666669,
                    "velocity": 0.47244094488188976,
                    "duration": 0.09583333333333144
                },
                {
                    "name": "G#4",
                    "midi": 68,
                    "time": 82.23333333333335,
                    "velocity": 0.47244094488188976,
                    "duration": 0.09166666666666856
                },
                {
                    "name": "C#5",
                    "midi": 73,
                    "time": 82.41666666666669,
                    "velocity": 0.47244094488188976,
                    "duration": 0.09583333333333144
                },
                {
                    "name": "G#4",
                    "midi": 68,
                    "time": 82.60833333333335,
                    "velocity": 0.47244094488188976,
                    "duration": 0.09166666666666856
                },
                {
                    "name": "E4",
                    "midi": 64,
                    "time": 82.79166666666669,
                    "velocity": 0.47244094488188976,
                    "duration": 0.09583333333333144
                },
                {
                    "name": "G#4",
                    "midi": 68,
                    "time": 82.98333333333335,
                    "velocity": 0.47244094488188976,
                    "duration": 0.09166666666666856
                },
                {
                    "name": "F4",
                    "midi": 65,
                    "time": 83.16666666666669,
                    "velocity": 0.47244094488188976,
                    "duration": 0.09583333333333144
                },
                {
                    "name": "G#4",
                    "midi": 68,
                    "time": 83.35833333333335,
                    "velocity": 0.47244094488188976,
                    "duration": 0.09166666666666856
                },
                {
                    "name": "E4",
                    "midi": 64,
                    "time": 83.54166666666669,
                    "velocity": 0.47244094488188976,
                    "duration": 0.09583333333333144
                },
                {
                    "name": "G#4",
                    "midi": 68,
                    "time": 83.73333333333335,
                    "velocity": 0.47244094488188976,
                    "duration": 0.09166666666666856
                },
                {
                    "name": "C#5",
                    "midi": 73,
                    "time": 83.91666666666669,
                    "velocity": 0.47244094488188976,
                    "duration": 0.09583333333333144
                },
                {
                    "name": "G#4",
                    "midi": 68,
                    "time": 84.10833333333335,
                    "velocity": 0.47244094488188976,
                    "duration": 0.09166666666666856
                },
                {
                    "name": "E4",
                    "midi": 64,
                    "time": 84.29166666666669,
                    "velocity": 0.47244094488188976,
                    "duration": 0.09583333333333144
                },
                {
                    "name": "G#4",
                    "midi": 68,
                    "time": 84.48333333333335,
                    "velocity": 0.47244094488188976,
                    "duration": 0.09166666666666856
                },
                {
                    "name": "C#3",
                    "midi": 49,
                    "time": 84.66666666666669,
                    "velocity": 0.47244094488188976,
                    "duration": 0.09583333333333144
                },
                {
                    "name": "A#3",
                    "midi": 58,
                    "time": 84.66666666666669,
                    "velocity": 0.47244094488188976,
                    "duration": 0.09583333333333144
                },
                {
                    "name": "C#5",
                    "midi": 73,
                    "time": 84.66666666666669,
                    "velocity": 0.47244094488188976,
                    "duration": 0.09583333333333144
                },
                {
                    "name": "G#4",
                    "midi": 68,
                    "time": 84.85833333333335,
                    "velocity": 0.47244094488188976,
                    "duration": 0.09166666666666856
                },
                {
                    "name": "E4",
                    "midi": 64,
                    "time": 85.04166666666669,
                    "velocity": 0.47244094488188976,
                    "duration": 0.09583333333333144
                },
                {
                    "name": "G#4",
                    "midi": 68,
                    "time": 85.23333333333335,
                    "velocity": 0.47244094488188976,
                    "duration": 0.09166666666666856
                },
                {
                    "name": "C#5",
                    "midi": 73,
                    "time": 85.41666666666669,
                    "velocity": 0.47244094488188976,
                    "duration": 0.09583333333333144
                },
                {
                    "name": "A#3",
                    "midi": 58,
                    "time": 85.41666666666669,
                    "velocity": 0.47244094488188976,
                    "duration": 0.09583333333333144
                },
                {
                    "name": "C#3",
                    "midi": 49,
                    "time": 85.41666666666669,
                    "velocity": 0.47244094488188976,
                    "duration": 0.09583333333333144
                },
                {
                    "name": "G#4",
                    "midi": 68,
                    "time": 85.60833333333335,
                    "velocity": 0.47244094488188976,
                    "duration": 0.09166666666666856
                },
                {
                    "name": "E4",
                    "midi": 64,
                    "time": 85.79166666666669,
                    "velocity": 0.47244094488188976,
                    "duration": 0.09583333333333144
                },
                {
                    "name": "G#4",
                    "midi": 68,
                    "time": 85.98333333333335,
                    "velocity": 0.47244094488188976,
                    "duration": 0.09166666666666856
                },
                {
                    "name": "C#3",
                    "midi": 49,
                    "time": 85.98333333333335,
                    "velocity": 0.47244094488188976,
                    "duration": 0.09166666666666856
                },
                {
                    "name": "A#3",
                    "midi": 58,
                    "time": 85.98333333333335,
                    "velocity": 0.47244094488188976,
                    "duration": 0.09166666666666856
                },
                {
                    "name": "C#5",
                    "midi": 73,
                    "time": 86.16666666666669,
                    "velocity": 0.47244094488188976,
                    "duration": 0.09583333333333144
                },
                {
                    "name": "G#4",
                    "midi": 68,
                    "time": 86.35833333333335,
                    "velocity": 0.47244094488188976,
                    "duration": 0.09166666666666856
                },
                {
                    "name": "C#3",
                    "midi": 49,
                    "time": 86.35833333333335,
                    "velocity": 0.47244094488188976,
                    "duration": 0.09166666666666856
                },
                {
                    "name": "A#3",
                    "midi": 58,
                    "time": 86.35833333333335,
                    "velocity": 0.47244094488188976,
                    "duration": 0.09166666666666856
                },
                {
                    "name": "E4",
                    "midi": 64,
                    "time": 86.54166666666669,
                    "velocity": 0.47244094488188976,
                    "duration": 0.09583333333333144
                },
                {
                    "name": "G#4",
                    "midi": 68,
                    "time": 86.73333333333335,
                    "velocity": 0.47244094488188976,
                    "duration": 0.09166666666666856
                },
                {
                    "name": "C#3",
                    "midi": 49,
                    "time": 86.73333333333335,
                    "velocity": 0.47244094488188976,
                    "duration": 0.09166666666666856
                },
                {
                    "name": "A#3",
                    "midi": 58,
                    "time": 86.73333333333335,
                    "velocity": 0.47244094488188976,
                    "duration": 0.09166666666666856
                },
                {
                    "name": "C#5",
                    "midi": 73,
                    "time": 86.91666666666669,
                    "velocity": 0.47244094488188976,
                    "duration": 0.09583333333333144
                },
                {
                    "name": "A#3",
                    "midi": 58,
                    "time": 87.10833333333335,
                    "velocity": 0.47244094488188976,
                    "duration": 0.09166666666666856
                },
                {
                    "name": "G#4",
                    "midi": 68,
                    "time": 87.10833333333335,
                    "velocity": 0.47244094488188976,
                    "duration": 0.09166666666666856
                },
                {
                    "name": "C#3",
                    "midi": 49,
                    "time": 87.10833333333335,
                    "velocity": 0.47244094488188976,
                    "duration": 0.09166666666666856
                }
            ],
            "controlChanges": {
                "7": [
                    {
                        "number": 7,
                        "time": 0,
                        "value": 1
                    }
                ],
                "10": [
                    {
                        "number": 10,
                        "time": 0,
                        "value": 0.5039370078740157
                    }
                ],
                "64": [
                    {
                        "number": 64,
                        "time": 3.1875,
                        "value": 1
                    },
                    {
                        "number": 64,
                        "time": 3.75,
                        "value": 0
                    },
                    {
                        "number": 64,
                        "time": 28.499999999999993,
                        "value": 0
                    },
                    {
                        "number": 64,
                        "time": 68.5416666666667,
                        "value": 0
                    }
                ],
                "91": [
                    {
                        "number": 91,
                        "time": 0,
                        "value": 0.3937007874015748
                    }
                ],
                "93": [
                    {
                        "number": 93,
                        "time": 0,
                        "value": 0
                    }
                ]
            },
            "id": 1,
            "name": "Track-1/1",
            "instrumentNumber": 6,
            "instrument": "harpsichord",
            "instrumentFamily": "piano",
            "channelNumber": 0,
            "isPercussion": false
        },
        {
            "startTime": 51,
            "duration": 92.54166666666669,
            "length": 72,
            "notes": [
                {
                    "name": "C#4",
                    "midi": 61,
                    "time": 51,
                    "velocity": 0.47244094488188976,
                    "duration": 1.5
                },
                {
                    "name": "D#3",
                    "midi": 51,
                    "time": 51,
                    "velocity": 0.47244094488188976,
                    "duration": 1.5
                },
                {
                    "name": "G#4",
                    "midi": 68,
                    "time": 52.5,
                    "velocity": 0.5511811023622047,
                    "duration": 0.1875
                },
                {
                    "name": "F#4",
                    "midi": 66,
                    "time": 52.5,
                    "velocity": 0.47244094488188976,
                    "duration": 0.3583333333333343
                },
                {
                    "name": "D#4",
                    "midi": 63,
                    "time": 52.6875,
                    "velocity": 0.47244094488188976,
                    "duration": 0.1875
                },
                {
                    "name": "G#3",
                    "midi": 56,
                    "time": 52.6875,
                    "velocity": 0.47244094488188976,
                    "duration": 0.1875
                },
                {
                    "name": "B3",
                    "midi": 59,
                    "time": 52.875,
                    "velocity": 0.47244094488188976,
                    "duration": 1.5
                },
                {
                    "name": "C#3",
                    "midi": 49,
                    "time": 52.875,
                    "velocity": 0.47244094488188976,
                    "duration": 1.5
                },
                {
                    "name": "F#4",
                    "midi": 66,
                    "time": 54.375,
                    "velocity": 0.47244094488188976,
                    "duration": 0.1875
                },
                {
                    "name": "E4",
                    "midi": 64,
                    "time": 54.375,
                    "velocity": 0.47244094488188976,
                    "duration": 0.3333333333333357
                },
                {
                    "name": "F#3",
                    "midi": 54,
                    "time": 54.5625,
                    "velocity": 0.47244094488188976,
                    "duration": 0.1875
                },
                {
                    "name": "C#4",
                    "midi": 61,
                    "time": 54.5625,
                    "velocity": 0.47244094488188976,
                    "duration": 0.1875
                },
                {
                    "name": "D#3",
                    "midi": 51,
                    "time": 62.28333333333333,
                    "velocity": 0.47244094488188976,
                    "duration": 0.14166666666666572
                },
                {
                    "name": "D#3",
                    "midi": 51,
                    "time": 62.7125,
                    "velocity": 0.5511811023622047,
                    "duration": 0.9041666666666686
                },
                {
                    "name": "F3",
                    "midi": 53,
                    "time": 63.645833333333336,
                    "velocity": 0.47244094488188976,
                    "duration": 0.1666666666666643
                },
                {
                    "name": "D#3",
                    "midi": 51,
                    "time": 63.8125,
                    "velocity": 0.47244094488188976,
                    "duration": 0.17083333333333428
                },
                {
                    "name": "C#3",
                    "midi": 49,
                    "time": 63.983333333333334,
                    "velocity": 0.47244094488188976,
                    "duration": 0.17499999999999716
                },
                {
                    "name": "B2",
                    "midi": 47,
                    "time": 64.15833333333333,
                    "velocity": 0.47244094488188976,
                    "duration": 0.44583333333333997
                },
                {
                    "name": "G#2",
                    "midi": 44,
                    "time": 64.7125,
                    "velocity": 0.5118110236220472,
                    "duration": 0.17916666666666003
                },
                {
                    "name": "B2",
                    "midi": 47,
                    "time": 65.00416666666666,
                    "velocity": 0.5118110236220472,
                    "duration": 0.2083333333333286
                },
                {
                    "name": "C#3",
                    "midi": 49,
                    "time": 65.30833333333332,
                    "velocity": 0.5118110236220472,
                    "duration": 0.4541666666666657
                },
                {
                    "name": "G#3",
                    "midi": 56,
                    "time": 65.95833333333333,
                    "velocity": 0.5118110236220472,
                    "duration": 0.5583333333333371
                },
                {
                    "name": "D#3",
                    "midi": 51,
                    "time": 66.66666666666667,
                    "velocity": 0.5118110236220472,
                    "duration": 0.5
                },
                {
                    "name": "G#3",
                    "midi": 56,
                    "time": 67.41666666666667,
                    "velocity": 0.5118110236220472,
                    "duration": 0.48749999999999716
                },
                {
                    "name": "E5",
                    "midi": 76,
                    "time": 76.04166666666667,
                    "velocity": 0.47244094488188976,
                    "duration": 0.125
                },
                {
                    "name": "G#5",
                    "midi": 80,
                    "time": 76.04166666666667,
                    "velocity": 0.47244094488188976,
                    "duration": 0.125
                },
                {
                    "name": "E5",
                    "midi": 76,
                    "time": 76.41666666666667,
                    "velocity": 0.5511811023622047,
                    "duration": 0.6416666666666657
                },
                {
                    "name": "G#5",
                    "midi": 80,
                    "time": 76.41666666666667,
                    "velocity": 0.5511811023622047,
                    "duration": 0.6416666666666657
                },
                {
                    "name": "A#5",
                    "midi": 82,
                    "time": 77.16666666666667,
                    "velocity": 0.5511811023622047,
                    "duration": 0.125
                },
                {
                    "name": "C#5",
                    "midi": 73,
                    "time": 77.16666666666667,
                    "velocity": 0.5511811023622047,
                    "duration": 0.3499999999999943
                },
                {
                    "name": "E5",
                    "midi": 76,
                    "time": 77.16666666666667,
                    "velocity": 0.5511811023622047,
                    "duration": 0.375
                },
                {
                    "name": "A#4",
                    "midi": 70,
                    "time": 77.16666666666667,
                    "velocity": 0.5511811023622047,
                    "duration": 0.375
                },
                {
                    "name": "G#5",
                    "midi": 80,
                    "time": 77.29166666666667,
                    "velocity": 0.5118110236220472,
                    "duration": 0.125
                },
                {
                    "name": "F#5",
                    "midi": 78,
                    "time": 77.41666666666667,
                    "velocity": 0.4881889763779528,
                    "duration": 0.125
                },
                {
                    "name": "C#5",
                    "midi": 73,
                    "time": 77.54166666666667,
                    "velocity": 0.47244094488188976,
                    "duration": 0.23333333333333428
                },
                {
                    "name": "E5",
                    "midi": 76,
                    "time": 77.54166666666667,
                    "velocity": 0.47244094488188976,
                    "duration": 0.26250000000000284
                },
                {
                    "name": "C#4",
                    "midi": 61,
                    "time": 77.54166666666667,
                    "velocity": 0.47244094488188976,
                    "duration": 0.29999999999999716
                },
                {
                    "name": "C#5",
                    "midi": 73,
                    "time": 77.91666666666667,
                    "velocity": 0.47244094488188976,
                    "duration": 0.18333333333333712
                },
                {
                    "name": "G#4",
                    "midi": 68,
                    "time": 77.91666666666667,
                    "velocity": 0.47244094488188976,
                    "duration": 0.1916666666666771
                },
                {
                    "name": "E5",
                    "midi": 76,
                    "time": 78.10833333333335,
                    "velocity": 0.47244094488188976,
                    "duration": 0.11666666666666003
                },
                {
                    "name": "F#5",
                    "midi": 78,
                    "time": 78.29166666666667,
                    "velocity": 0.47244094488188976,
                    "duration": 0.1458333333333286
                },
                {
                    "name": "D#5",
                    "midi": 75,
                    "time": 78.29166666666667,
                    "velocity": 0.47244094488188976,
                    "duration": 0.14999999999999147
                },
                {
                    "name": "B4",
                    "midi": 71,
                    "time": 78.66666666666666,
                    "velocity": 0.47244094488188976,
                    "duration": 0.17083333333333428
                },
                {
                    "name": "D#5",
                    "midi": 75,
                    "time": 78.66666666666666,
                    "velocity": 0.47244094488188976,
                    "duration": 0.17916666666667425
                },
                {
                    "name": "E4",
                    "midi": 64,
                    "time": 79.04166666666667,
                    "velocity": 0.47244094488188976,
                    "duration": 0.17499999999999716
                },
                {
                    "name": "C#5",
                    "midi": 73,
                    "time": 79.04166666666667,
                    "velocity": 0.47244094488188976,
                    "duration": 0.18333333333333712
                },
                {
                    "name": "C#3",
                    "midi": 49,
                    "time": 79.04166666666667,
                    "velocity": 0.47244094488188976,
                    "duration": 0.3541666666666714
                },
                {
                    "name": "A#3",
                    "midi": 58,
                    "time": 79.04166666666667,
                    "velocity": 0.47244094488188976,
                    "duration": 0.36666666666667425
                },
                {
                    "name": "B3",
                    "midi": 59,
                    "time": 80.16666666666669,
                    "velocity": 0.5511811023622047,
                    "duration": 0.36666666666666003
                },
                {
                    "name": "D#5",
                    "midi": 75,
                    "time": 80.16666666666669,
                    "velocity": 0.5511811023622047,
                    "duration": 0.375
                },
                {
                    "name": "C#5",
                    "midi": 73,
                    "time": 80.54166666666669,
                    "velocity": 0.47244094488188976,
                    "duration": 0.3375000000000057
                },
                {
                    "name": "A#3",
                    "midi": 58,
                    "time": 80.54166666666669,
                    "velocity": 0.47244094488188976,
                    "duration": 0.375
                },
                {
                    "name": "C#3",
                    "midi": 49,
                    "time": 80.54166666666669,
                    "velocity": 0.47244094488188976,
                    "duration": 0.375
                },
                {
                    "name": "D#5",
                    "midi": 75,
                    "time": 81.66666666666669,
                    "velocity": 0.5511811023622047,
                    "duration": 0.36666666666666003
                },
                {
                    "name": "B3",
                    "midi": 59,
                    "time": 81.66666666666669,
                    "velocity": 0.5511811023622047,
                    "duration": 0.375
                },
                {
                    "name": "C#5",
                    "midi": 73,
                    "time": 82.04166666666669,
                    "velocity": 0.47244094488188976,
                    "duration": 0.3333333333333286
                },
                {
                    "name": "C#3",
                    "midi": 49,
                    "time": 82.04166666666669,
                    "velocity": 0.47244094488188976,
                    "duration": 0.375
                },
                {
                    "name": "A#3",
                    "midi": 58,
                    "time": 82.04166666666669,
                    "velocity": 0.47244094488188976,
                    "duration": 0.375
                },
                {
                    "name": "D#5",
                    "midi": 75,
                    "time": 83.16666666666669,
                    "velocity": 0.5511811023622047,
                    "duration": 0.375
                },
                {
                    "name": "B3",
                    "midi": 59,
                    "time": 83.16666666666669,
                    "velocity": 0.5511811023622047,
                    "duration": 0.375
                },
                {
                    "name": "C#5",
                    "midi": 73,
                    "time": 83.54166666666669,
                    "velocity": 0.47244094488188976,
                    "duration": 0.3083333333333371
                },
                {
                    "name": "A#3",
                    "midi": 58,
                    "time": 83.54166666666669,
                    "velocity": 0.47244094488188976,
                    "duration": 0.375
                },
                {
                    "name": "C#3",
                    "midi": 49,
                    "time": 83.54166666666669,
                    "velocity": 0.47244094488188976,
                    "duration": 0.375
                },
                {
                    "name": "D#5",
                    "midi": 75,
                    "time": 87.29166666666669,
                    "velocity": 0.5118110236220472,
                    "duration": 5.216666666666669
                },
                {
                    "name": "D#3",
                    "midi": 51,
                    "time": 87.29166666666669,
                    "velocity": 0.5118110236220472,
                    "duration": 5.220833333333331
                },
                {
                    "name": "G#4",
                    "midi": 68,
                    "time": 87.29166666666669,
                    "velocity": 0.5118110236220472,
                    "duration": 5.224999999999994
                },
                {
                    "name": "B3",
                    "midi": 59,
                    "time": 87.29166666666669,
                    "velocity": 0.5118110236220472,
                    "duration": 5.237499999999997
                },
                {
                    "name": "G#2",
                    "midi": 44,
                    "time": 87.29166666666669,
                    "velocity": 0.5118110236220472,
                    "duration": 5.25
                },
                {
                    "name": "D#4",
                    "midi": 63,
                    "time": 87.29166666666669,
                    "velocity": 0.5118110236220472,
                    "duration": 5.25
                },
                {
                    "name": "B5",
                    "midi": 83,
                    "time": 88.79166666666669,
                    "velocity": 0.47244094488188976,
                    "duration": 3.729166666666657
                },
                {
                    "name": "D#6",
                    "midi": 87,
                    "time": 88.79166666666669,
                    "velocity": 0.47244094488188976,
                    "duration": 3.75
                },
                {
                    "name": "G#5",
                    "midi": 80,
                    "time": 88.79166666666669,
                    "velocity": 0.47244094488188976,
                    "duration": 3.75
                }
            ],
            "controlChanges": {
                "7": [
                    {
                        "number": 7,
                        "time": 0,
                        "value": 1
                    }
                ],
                "10": [
                    {
                        "number": 10,
                        "time": 0,
                        "value": 0.5039370078740157
                    }
                ],
                "91": [
                    {
                        "number": 91,
                        "time": 0,
                        "value": 0.3937007874015748
                    }
                ],
                "93": [
                    {
                        "number": 93,
                        "time": 0,
                        "value": 0
                    }
                ]
            },
            "id": 2,
            "name": "Track-1/2",
            "instrumentNumber": 6,
            "instrument": "harpsichord",
            "instrumentFamily": "piano",
            "channelNumber": 1,
            "isPercussion": false
        },
        {
            "startTime": 27.9375,
            "duration": 68.12083333333337,
            "length": 87,
            "notes": [
                {
                    "name": "C#4",
                    "midi": 61,
                    "time": 27.9375,
                    "velocity": 1,
                    "duration": 0.1875
                },
                {
                    "name": "E4",
                    "midi": 64,
                    "time": 28.125,
                    "velocity": 1,
                    "duration": 0.1875
                },
                {
                    "name": "F#4",
                    "midi": 66,
                    "time": 28.3125,
                    "velocity": 1,
                    "duration": 0.1875
                },
                {
                    "name": "G#4",
                    "midi": 68,
                    "time": 28.5,
                    "velocity": 1,
                    "duration": 1.1208333333333336
                },
                {
                    "name": "A#4",
                    "midi": 70,
                    "time": 29.625,
                    "velocity": 1,
                    "duration": 0.1875
                },
                {
                    "name": "F#4",
                    "midi": 66,
                    "time": 29.8125,
                    "velocity": 1,
                    "duration": 0.1875
                },
                {
                    "name": "E4",
                    "midi": 64,
                    "time": 30,
                    "velocity": 1,
                    "duration": 0.12916666666666643
                },
                {
                    "name": "E4",
                    "midi": 64,
                    "time": 30.1875,
                    "velocity": 0.8661417322834646,
                    "duration": 0.1875
                },
                {
                    "name": "C#4",
                    "midi": 61,
                    "time": 30.375,
                    "velocity": 1,
                    "duration": 0.1875
                },
                {
                    "name": "E4",
                    "midi": 64,
                    "time": 30.5625,
                    "velocity": 1,
                    "duration": 0.1875
                },
                {
                    "name": "F#4",
                    "midi": 66,
                    "time": 30.75,
                    "velocity": 1,
                    "duration": 0.75
                },
                {
                    "name": "G#4",
                    "midi": 68,
                    "time": 31.5,
                    "velocity": 1,
                    "duration": 0.6625000000000014
                },
                {
                    "name": "B4",
                    "midi": 71,
                    "time": 32.25,
                    "velocity": 1,
                    "duration": 1.125
                },
                {
                    "name": "A#4",
                    "midi": 70,
                    "time": 33.375,
                    "velocity": 1,
                    "duration": 0.1875
                },
                {
                    "name": "F#4",
                    "midi": 66,
                    "time": 33.5625,
                    "velocity": 1,
                    "duration": 0.1875
                },
                {
                    "name": "G#4",
                    "midi": 68,
                    "time": 33.75,
                    "velocity": 1,
                    "duration": 0.36666666666666714
                },
                {
                    "name": "F#4",
                    "midi": 66,
                    "time": 34.125,
                    "velocity": 1,
                    "duration": 0.1875
                },
                {
                    "name": "D#4",
                    "midi": 63,
                    "time": 34.3125,
                    "velocity": 1,
                    "duration": 0.1875
                },
                {
                    "name": "E4",
                    "midi": 64,
                    "time": 34.5,
                    "velocity": 1,
                    "duration": 0.375
                },
                {
                    "name": "D#4",
                    "midi": 63,
                    "time": 34.875,
                    "velocity": 1,
                    "duration": 0.1875
                },
                {
                    "name": "B3",
                    "midi": 59,
                    "time": 35.0625,
                    "velocity": 0.984251968503937,
                    "duration": 0.1875
                },
                {
                    "name": "D#4",
                    "midi": 63,
                    "time": 35.25,
                    "velocity": 1,
                    "duration": 0.69166666666667
                },
                {
                    "name": "G#4",
                    "midi": 68,
                    "time": 36,
                    "velocity": 1,
                    "duration": 0.375
                },
                {
                    "name": "A#4",
                    "midi": 70,
                    "time": 36.375,
                    "velocity": 1,
                    "duration": 0.17916666666666714
                },
                {
                    "name": "F#4",
                    "midi": 66,
                    "time": 36.5625,
                    "velocity": 1,
                    "duration": 0.1875
                },
                {
                    "name": "A#4",
                    "midi": 70,
                    "time": 36.75,
                    "velocity": 1,
                    "duration": 0.5499999999999972
                },
                {
                    "name": "B4",
                    "midi": 71,
                    "time": 37.3125,
                    "velocity": 1,
                    "duration": 0.1875
                },
                {
                    "name": "C#5",
                    "midi": 73,
                    "time": 37.5,
                    "velocity": 1,
                    "duration": 0.1458333333333357
                },
                {
                    "name": "C#5",
                    "midi": 73,
                    "time": 37.6875,
                    "velocity": 0.8661417322834646,
                    "duration": 0.18333333333333002
                },
                {
                    "name": "B4",
                    "midi": 71,
                    "time": 37.875,
                    "velocity": 1,
                    "duration": 0.14999999999999858
                },
                {
                    "name": "B4",
                    "midi": 71,
                    "time": 38.0625,
                    "velocity": 0.8661417322834646,
                    "duration": 0.1875
                },
                {
                    "name": "A#4",
                    "midi": 70,
                    "time": 38.25,
                    "velocity": 1,
                    "duration": 0.375
                },
                {
                    "name": "G#4",
                    "midi": 68,
                    "time": 38.625,
                    "velocity": 1,
                    "duration": 0.375
                },
                {
                    "name": "G#4",
                    "midi": 68,
                    "time": 39.75,
                    "velocity": 1,
                    "duration": 0.375
                },
                {
                    "name": "A#4",
                    "midi": 70,
                    "time": 40.125,
                    "velocity": 1,
                    "duration": 0.1875
                },
                {
                    "name": "F#4",
                    "midi": 66,
                    "time": 40.3125,
                    "velocity": 1,
                    "duration": 0.1875
                },
                {
                    "name": "A#4",
                    "midi": 70,
                    "time": 40.5,
                    "velocity": 1,
                    "duration": 0.3750000000000071
                },
                {
                    "name": "B4",
                    "midi": 71,
                    "time": 40.87500000000001,
                    "velocity": 1,
                    "duration": 0.3708333333333371
                },
                {
                    "name": "C#5",
                    "midi": 73,
                    "time": 41.250000000000014,
                    "velocity": 1,
                    "duration": 0.375
                },
                {
                    "name": "B4",
                    "midi": 71,
                    "time": 41.625000000000014,
                    "velocity": 1,
                    "duration": 0.14999999999999858
                },
                {
                    "name": "B4",
                    "midi": 71,
                    "time": 41.812500000000014,
                    "velocity": 0.8661417322834646,
                    "duration": 0.1875
                },
                {
                    "name": "A#4",
                    "midi": 70,
                    "time": 42.000000000000014,
                    "velocity": 1,
                    "duration": 0.13750000000000284
                },
                {
                    "name": "A#4",
                    "midi": 70,
                    "time": 42.18750000000002,
                    "velocity": 0.8661417322834646,
                    "duration": 0.1875
                },
                {
                    "name": "G#4",
                    "midi": 68,
                    "time": 42.37500000000002,
                    "velocity": 1,
                    "duration": 0.375
                },
                {
                    "name": "A4",
                    "midi": 69,
                    "time": 47.25000000000002,
                    "velocity": 1,
                    "duration": 0.36250000000000426
                },
                {
                    "name": "C#5",
                    "midi": 73,
                    "time": 47.62500000000003,
                    "velocity": 1,
                    "duration": 0.1875000000000071
                },
                {
                    "name": "F#5",
                    "midi": 78,
                    "time": 47.812500000000036,
                    "velocity": 1,
                    "duration": 0.1875000000000071
                },
                {
                    "name": "E5",
                    "midi": 76,
                    "time": 48.00000000000004,
                    "velocity": 1,
                    "duration": 0.3583333333333343
                },
                {
                    "name": "C#5",
                    "midi": 73,
                    "time": 48.37500000000004,
                    "velocity": 1,
                    "duration": 0.1875
                },
                {
                    "name": "D#5",
                    "midi": 75,
                    "time": 48.56250000000004,
                    "velocity": 1,
                    "duration": 0.1875
                },
                {
                    "name": "C#5",
                    "midi": 73,
                    "time": 48.75000000000004,
                    "velocity": 1,
                    "duration": 0.13333333333333286
                },
                {
                    "name": "C#5",
                    "midi": 73,
                    "time": 48.93750000000004,
                    "velocity": 0.8661417322834646,
                    "duration": 0.1875
                },
                {
                    "name": "B4",
                    "midi": 71,
                    "time": 49.12500000000004,
                    "velocity": 1,
                    "duration": 0.13750000000000284
                },
                {
                    "name": "B4",
                    "midi": 71,
                    "time": 49.31250000000004,
                    "velocity": 0.8661417322834646,
                    "duration": 0.1875
                },
                {
                    "name": "D#5",
                    "midi": 75,
                    "time": 49.50000000000004,
                    "velocity": 1,
                    "duration": 0.74583333333333
                },
                {
                    "name": "F#4",
                    "midi": 66,
                    "time": 51.00000000000004,
                    "velocity": 1,
                    "duration": 0.375
                },
                {
                    "name": "A4",
                    "midi": 69,
                    "time": 51.37500000000004,
                    "velocity": 1,
                    "duration": 0.1875
                },
                {
                    "name": "D#5",
                    "midi": 75,
                    "time": 51.56250000000004,
                    "velocity": 1,
                    "duration": 0.1875
                },
                {
                    "name": "C#5",
                    "midi": 73,
                    "time": 51.75000000000004,
                    "velocity": 1,
                    "duration": 0.3541666666666643
                },
                {
                    "name": "A4",
                    "midi": 69,
                    "time": 52.12500000000004,
                    "velocity": 1,
                    "duration": 0.1875
                },
                {
                    "name": "B4",
                    "midi": 71,
                    "time": 52.31250000000004,
                    "velocity": 1,
                    "duration": 0.1875
                },
                {
                    "name": "A4",
                    "midi": 69,
                    "time": 52.50000000000004,
                    "velocity": 1,
                    "duration": 0.3583333333333343
                },
                {
                    "name": "G#4",
                    "midi": 68,
                    "time": 52.87500000000004,
                    "velocity": 1,
                    "duration": 0.14999999999999858
                },
                {
                    "name": "G#4",
                    "midi": 68,
                    "time": 53.06250000000004,
                    "velocity": 0.8661417322834646,
                    "duration": 0.1875
                },
                {
                    "name": "B4",
                    "midi": 71,
                    "time": 53.25000000000004,
                    "velocity": 1,
                    "duration": 0.7500000000000142
                },
                {
                    "name": "B3",
                    "midi": 59,
                    "time": 54.00000000000006,
                    "velocity": 1,
                    "duration": 0.7250000000000014
                },
                {
                    "name": "D#4",
                    "midi": 63,
                    "time": 56.25000000000006,
                    "velocity": 1,
                    "duration": 1.125
                },
                {
                    "name": "F#4",
                    "midi": 66,
                    "time": 57.37500000000006,
                    "velocity": 1,
                    "duration": 0.125
                },
                {
                    "name": "F#4",
                    "midi": 66,
                    "time": 57.56250000000006,
                    "velocity": 0.8661417322834646,
                    "duration": 0.1875
                },
                {
                    "name": "G#4",
                    "midi": 68,
                    "time": 57.75000000000006,
                    "velocity": 1,
                    "duration": 1.0999999999999943
                },
                {
                    "name": "A4",
                    "midi": 69,
                    "time": 58.87500000000005,
                    "velocity": 0.9921259842519685,
                    "duration": 0.14999999999999858
                },
                {
                    "name": "A4",
                    "midi": 69,
                    "time": 59.06250000000005,
                    "velocity": 0.8661417322834646,
                    "duration": 0.1875
                },
                {
                    "name": "D#5",
                    "midi": 75,
                    "time": 59.25000000000005,
                    "velocity": 1,
                    "duration": 1.11666666666666
                },
                {
                    "name": "F#5",
                    "midi": 78,
                    "time": 60.37500000000004,
                    "velocity": 1,
                    "duration": 0.12916666666666998
                },
                {
                    "name": "F#5",
                    "midi": 78,
                    "time": 60.56250000000004,
                    "velocity": 0.8661417322834646,
                    "duration": 0.1875
                },
                {
                    "name": "G#5",
                    "midi": 80,
                    "time": 60.75000000000004,
                    "velocity": 1,
                    "duration": 0.9125000000000014
                },
                {
                    "name": "G#4",
                    "midi": 68,
                    "time": 61.68750000000004,
                    "velocity": 1,
                    "duration": 0.19583333333333286
                },
                {
                    "name": "B4",
                    "midi": 71,
                    "time": 61.883333333333375,
                    "velocity": 0.9921259842519685,
                    "duration": 0.20000000000000284
                },
                {
                    "name": "C#5",
                    "midi": 73,
                    "time": 62.08333333333338,
                    "velocity": 1,
                    "duration": 0.20000000000000284
                },
                {
                    "name": "D#5",
                    "midi": 75,
                    "time": 62.28333333333338,
                    "velocity": 1,
                    "duration": 1.3458333333333314
                },
                {
                    "name": "F5",
                    "midi": 77,
                    "time": 63.64583333333338,
                    "velocity": 1,
                    "duration": 0.25
                },
                {
                    "name": "C#5",
                    "midi": 73,
                    "time": 63.89583333333338,
                    "velocity": 1,
                    "duration": 0.22083333333333854
                },
                {
                    "name": "B4",
                    "midi": 71,
                    "time": 64.15833333333339,
                    "velocity": 1,
                    "duration": 0.55416666666666
                },
                {
                    "name": "G#4",
                    "midi": 68,
                    "time": 64.71250000000005,
                    "velocity": 1,
                    "duration": 0.2916666666666714
                },
                {
                    "name": "B4",
                    "midi": 71,
                    "time": 65.00416666666672,
                    "velocity": 1,
                    "duration": 0.30416666666666003
                },
                {
                    "name": "C#5",
                    "midi": 73,
                    "time": 65.30833333333338,
                    "velocity": 1,
                    "duration": 1.35833333333332
                },
                {
                    "name": "D#5",
                    "midi": 75,
                    "time": 66.6666666666667,
                    "velocity": 1,
                    "duration": 1.4541666666666657
                }
            ],
            "controlChanges": {
                "7": [
                    {
                        "number": 7,
                        "time": 0,
                        "value": 1
                    }
                ],
                "10": [
                    {
                        "number": 10,
                        "time": 0,
                        "value": 0.5039370078740157
                    }
                ],
                "11": [
                    {
                        "number": 11,
                        "time": 23.25,
                        "value": 0.47244094488188976
                    },
                    {
                        "number": 11,
                        "time": 32.25,
                        "value": 0.5511811023622047
                    },
                    {
                        "number": 11,
                        "time": 33,
                        "value": 0.47244094488188976
                    },
                    {
                        "number": 11,
                        "time": 39.78333333333333,
                        "value": 0.47244094488188976
                    },
                    {
                        "number": 11,
                        "time": 39.925,
                        "value": 0.48031496062992124
                    },
                    {
                        "number": 11,
                        "time": 40.07083333333333,
                        "value": 0.4881889763779528
                    },
                    {
                        "number": 11,
                        "time": 40.21666666666667,
                        "value": 0.49606299212598426
                    },
                    {
                        "number": 11,
                        "time": 40.3625,
                        "value": 0.5039370078740157
                    },
                    {
                        "number": 11,
                        "time": 40.5125,
                        "value": 0.5118110236220472
                    },
                    {
                        "number": 11,
                        "time": 40.650000000000006,
                        "value": 0.5196850393700787
                    },
                    {
                        "number": 11,
                        "time": 40.800000000000004,
                        "value": 0.5275590551181102
                    },
                    {
                        "number": 11,
                        "time": 40.94583333333334,
                        "value": 0.5354330708661418
                    },
                    {
                        "number": 11,
                        "time": 41.091666666666676,
                        "value": 0.5433070866141733
                    },
                    {
                        "number": 11,
                        "time": 41.23333333333334,
                        "value": 0.5511811023622047
                    },
                    {
                        "number": 11,
                        "time": 41.283333333333346,
                        "value": 0.5511811023622047
                    },
                    {
                        "number": 11,
                        "time": 41.42500000000001,
                        "value": 0.5433070866141733
                    },
                    {
                        "number": 11,
                        "time": 41.57083333333335,
                        "value": 0.5354330708661418
                    },
                    {
                        "number": 11,
                        "time": 41.71666666666668,
                        "value": 0.5275590551181102
                    },
                    {
                        "number": 11,
                        "time": 41.86250000000001,
                        "value": 0.5196850393700787
                    },
                    {
                        "number": 11,
                        "time": 42.01250000000002,
                        "value": 0.5118110236220472
                    },
                    {
                        "number": 11,
                        "time": 42.15000000000002,
                        "value": 0.5039370078740157
                    },
                    {
                        "number": 11,
                        "time": 42.30000000000002,
                        "value": 0.49606299212598426
                    },
                    {
                        "number": 11,
                        "time": 42.445833333333354,
                        "value": 0.4881889763779528
                    },
                    {
                        "number": 11,
                        "time": 42.59166666666669,
                        "value": 0.48031496062992124
                    },
                    {
                        "number": 11,
                        "time": 42.733333333333356,
                        "value": 0.47244094488188976
                    },
                    {
                        "number": 11,
                        "time": 47.28333333333335,
                        "value": 0.47244094488188976
                    },
                    {
                        "number": 11,
                        "time": 47.35000000000002,
                        "value": 0.48031496062992124
                    },
                    {
                        "number": 11,
                        "time": 47.420833333333356,
                        "value": 0.4881889763779528
                    },
                    {
                        "number": 11,
                        "time": 47.49166666666669,
                        "value": 0.49606299212598426
                    },
                    {
                        "number": 11,
                        "time": 47.56666666666669,
                        "value": 0.5039370078740157
                    },
                    {
                        "number": 11,
                        "time": 47.63750000000003,
                        "value": 0.5118110236220472
                    },
                    {
                        "number": 11,
                        "time": 47.708333333333364,
                        "value": 0.5196850393700787
                    },
                    {
                        "number": 11,
                        "time": 47.775000000000034,
                        "value": 0.5275590551181102
                    },
                    {
                        "number": 11,
                        "time": 47.85000000000004,
                        "value": 0.5354330708661418
                    },
                    {
                        "number": 11,
                        "time": 47.92083333333337,
                        "value": 0.5433070866141733
                    },
                    {
                        "number": 11,
                        "time": 47.98750000000004,
                        "value": 0.5511811023622047
                    },
                    {
                        "number": 11,
                        "time": 53.25000000000004,
                        "value": 0.5511811023622047
                    },
                    {
                        "number": 11,
                        "time": 53.325000000000045,
                        "value": 0.5433070866141733
                    },
                    {
                        "number": 11,
                        "time": 53.40000000000005,
                        "value": 0.5354330708661418
                    },
                    {
                        "number": 11,
                        "time": 53.47500000000005,
                        "value": 0.5275590551181102
                    },
                    {
                        "number": 11,
                        "time": 53.545833333333384,
                        "value": 0.5196850393700787
                    },
                    {
                        "number": 11,
                        "time": 53.62083333333339,
                        "value": 0.5118110236220472
                    },
                    {
                        "number": 11,
                        "time": 53.69166666666672,
                        "value": 0.5039370078740157
                    },
                    {
                        "number": 11,
                        "time": 53.770833333333385,
                        "value": 0.49606299212598426
                    },
                    {
                        "number": 11,
                        "time": 53.84166666666672,
                        "value": 0.4881889763779528
                    },
                    {
                        "number": 11,
                        "time": 53.91666666666672,
                        "value": 0.48031496062992124
                    },
                    {
                        "number": 11,
                        "time": 53.987500000000054,
                        "value": 0.47244094488188976
                    },
                    {
                        "number": 11,
                        "time": 54.75000000000006,
                        "value": 0.4330708661417323
                    },
                    {
                        "number": 11,
                        "time": 57.00000000000006,
                        "value": 0.4330708661417323
                    },
                    {
                        "number": 11,
                        "time": 57.37083333333339,
                        "value": 0.4409448818897638
                    },
                    {
                        "number": 11,
                        "time": 57.74583333333339,
                        "value": 0.44881889763779526
                    },
                    {
                        "number": 11,
                        "time": 58.12083333333339,
                        "value": 0.4566929133858268
                    },
                    {
                        "number": 11,
                        "time": 58.49166666666672,
                        "value": 0.4645669291338583
                    },
                    {
                        "number": 11,
                        "time": 58.858333333333384,
                        "value": 0.47244094488188976
                    },
                    {
                        "number": 11,
                        "time": 59.233333333333384,
                        "value": 0.48031496062992124
                    },
                    {
                        "number": 11,
                        "time": 59.608333333333384,
                        "value": 0.4881889763779528
                    },
                    {
                        "number": 11,
                        "time": 59.979166666666714,
                        "value": 0.49606299212598426
                    },
                    {
                        "number": 11,
                        "time": 60.350000000000044,
                        "value": 0.5039370078740157
                    },
                    {
                        "number": 11,
                        "time": 60.725000000000044,
                        "value": 0.5118110236220472
                    },
                    {
                        "number": 11,
                        "time": 61.50000000000004,
                        "value": 0.4330708661417323
                    },
                    {
                        "number": 11,
                        "time": 65.30833333333338,
                        "value": 0.4330708661417323
                    },
                    {
                        "number": 11,
                        "time": 65.43333333333338,
                        "value": 0.4251968503937008
                    },
                    {
                        "number": 11,
                        "time": 65.55833333333338,
                        "value": 0.41732283464566927
                    },
                    {
                        "number": 11,
                        "time": 65.68750000000004,
                        "value": 0.4094488188976378
                    },
                    {
                        "number": 11,
                        "time": 65.8166666666667,
                        "value": 0.4015748031496063
                    },
                    {
                        "number": 11,
                        "time": 65.95000000000005,
                        "value": 0.3937007874015748
                    },
                    {
                        "number": 11,
                        "time": 66.07916666666671,
                        "value": 0.3858267716535433
                    },
                    {
                        "number": 11,
                        "time": 66.22500000000004,
                        "value": 0.3779527559055118
                    },
                    {
                        "number": 11,
                        "time": 66.36250000000004,
                        "value": 0.3700787401574803
                    },
                    {
                        "number": 11,
                        "time": 66.50833333333337,
                        "value": 0.36220472440944884
                    },
                    {
                        "number": 11,
                        "time": 66.64583333333337,
                        "value": 0.3543307086614173
                    }
                ],
                "91": [
                    {
                        "number": 91,
                        "time": 0,
                        "value": 0.47244094488188976
                    }
                ],
                "93": [
                    {
                        "number": 93,
                        "time": 0,
                        "value": 0
                    }
                ]
            },
            "id": 3,
            "name": "Track-1/3",
            "instrumentNumber": 71,
            "instrument": "clarinet",
            "instrumentFamily": "reed",
            "channelNumber": 2,
            "isPercussion": false
        },
        {
            "startTime": 51,
            "duration": 68.54166666666669,
            "length": 118,
            "notes": [
                {
                    "name": "F#5",
                    "midi": 78,
                    "time": 51,
                    "velocity": 0.5511811023622047,
                    "duration": 0.1041666666666643
                },
                {
                    "name": "E5",
                    "midi": 76,
                    "time": 51,
                    "velocity": 0.47244094488188976,
                    "duration": 0.11666666666666714
                },
                {
                    "name": "F#5",
                    "midi": 78,
                    "time": 51.1875,
                    "velocity": 0.47244094488188976,
                    "duration": 0.27916666666666856
                },
                {
                    "name": "E5",
                    "midi": 76,
                    "time": 51.1875,
                    "velocity": 0.47244094488188976,
                    "duration": 0.31666666666667
                },
                {
                    "name": "F#5",
                    "midi": 78,
                    "time": 51.5625,
                    "velocity": 0.47244094488188976,
                    "duration": 0.25416666666667
                },
                {
                    "name": "E5",
                    "midi": 76,
                    "time": 51.5625,
                    "velocity": 0.47244094488188976,
                    "duration": 0.3291666666666728
                },
                {
                    "name": "C#5",
                    "midi": 73,
                    "time": 51.93750000000001,
                    "velocity": 0.47244094488188976,
                    "duration": 0.18333333333333002
                },
                {
                    "name": "F#5",
                    "midi": 78,
                    "time": 51.93750000000001,
                    "velocity": 0.47244094488188976,
                    "duration": 0.26249999999999574
                },
                {
                    "name": "E5",
                    "midi": 76,
                    "time": 51.93750000000001,
                    "velocity": 0.47244094488188976,
                    "duration": 0.2749999999999986
                },
                {
                    "name": "B4",
                    "midi": 71,
                    "time": 52.31250000000001,
                    "velocity": 0.47244094488188976,
                    "duration": 0.18333333333333002
                },
                {
                    "name": "E5",
                    "midi": 76,
                    "time": 52.31250000000001,
                    "velocity": 0.47244094488188976,
                    "duration": 0.38333333333333286
                },
                {
                    "name": "F#5",
                    "midi": 78,
                    "time": 52.31250000000001,
                    "velocity": 0.47244094488188976,
                    "duration": 0.5500000000000043
                },
                {
                    "name": "C#5",
                    "midi": 73,
                    "time": 52.50000000000001,
                    "velocity": 0.47244094488188976,
                    "duration": 0.1875
                },
                {
                    "name": "D#5",
                    "midi": 75,
                    "time": 52.68750000000001,
                    "velocity": 0.47244094488188976,
                    "duration": 0.16250000000000142
                },
                {
                    "name": "B4",
                    "midi": 71,
                    "time": 52.68750000000001,
                    "velocity": 0.47244094488188976,
                    "duration": 0.1875000000000071
                },
                {
                    "name": "D#5",
                    "midi": 75,
                    "time": 52.875000000000014,
                    "velocity": 0.47244094488188976,
                    "duration": 0.10000000000000142
                },
                {
                    "name": "E5",
                    "midi": 76,
                    "time": 52.875000000000014,
                    "velocity": 0.47244094488188976,
                    "duration": 0.10000000000000142
                },
                {
                    "name": "E5",
                    "midi": 76,
                    "time": 53.062500000000014,
                    "velocity": 0.47244094488188976,
                    "duration": 0.27916666666666856
                },
                {
                    "name": "D#5",
                    "midi": 75,
                    "time": 53.062500000000014,
                    "velocity": 0.47244094488188976,
                    "duration": 0.3125
                },
                {
                    "name": "E5",
                    "midi": 76,
                    "time": 53.437500000000014,
                    "velocity": 0.47244094488188976,
                    "duration": 0.2875000000000014
                },
                {
                    "name": "D#5",
                    "midi": 75,
                    "time": 53.437500000000014,
                    "velocity": 0.47244094488188976,
                    "duration": 0.36666666666666714
                },
                {
                    "name": "B4",
                    "midi": 71,
                    "time": 53.812500000000014,
                    "velocity": 0.47244094488188976,
                    "duration": 0.1875
                },
                {
                    "name": "D#5",
                    "midi": 75,
                    "time": 53.812500000000014,
                    "velocity": 0.47244094488188976,
                    "duration": 0.2666666666666657
                },
                {
                    "name": "E5",
                    "midi": 76,
                    "time": 53.812500000000014,
                    "velocity": 0.47244094488188976,
                    "duration": 0.2708333333333357
                },
                {
                    "name": "A4",
                    "midi": 69,
                    "time": 54.187500000000014,
                    "velocity": 0.47244094488188976,
                    "duration": 0.1875
                },
                {
                    "name": "D#5",
                    "midi": 75,
                    "time": 54.187500000000014,
                    "velocity": 0.47244094488188976,
                    "duration": 0.36666666666666714
                },
                {
                    "name": "E5",
                    "midi": 76,
                    "time": 54.187500000000014,
                    "velocity": 0.47244094488188976,
                    "duration": 0.9916666666666671
                },
                {
                    "name": "B4",
                    "midi": 71,
                    "time": 54.375000000000014,
                    "velocity": 0.47244094488188976,
                    "duration": 0.1875
                },
                {
                    "name": "A4",
                    "midi": 69,
                    "time": 54.562500000000014,
                    "velocity": 0.47244094488188976,
                    "duration": 0.1875
                },
                {
                    "name": "C#5",
                    "midi": 73,
                    "time": 54.562500000000014,
                    "velocity": 0.47244094488188976,
                    "duration": 0.1875
                },
                {
                    "name": "A4",
                    "midi": 69,
                    "time": 54.750000000000014,
                    "velocity": 0.47244094488188976,
                    "duration": 0.30833333333333
                },
                {
                    "name": "F#4",
                    "midi": 66,
                    "time": 54.750000000000014,
                    "velocity": 0.47244094488188976,
                    "duration": 0.3125
                },
                {
                    "name": "A3",
                    "midi": 57,
                    "time": 54.750000000000014,
                    "velocity": 0.47244094488188976,
                    "duration": 0.75
                },
                {
                    "name": "B2",
                    "midi": 47,
                    "time": 54.750000000000014,
                    "velocity": 0.4881889763779528,
                    "duration": 0.75
                },
                {
                    "name": "C#5",
                    "midi": 73,
                    "time": 54.937500000000014,
                    "velocity": 0.47244094488188976,
                    "duration": 0.1875
                },
                {
                    "name": "B4",
                    "midi": 71,
                    "time": 55.125000000000014,
                    "velocity": 0.47244094488188976,
                    "duration": 0.1875
                },
                {
                    "name": "C#4",
                    "midi": 61,
                    "time": 55.125000000000014,
                    "velocity": 0.5511811023622047,
                    "duration": 0.75
                },
                {
                    "name": "A4",
                    "midi": 69,
                    "time": 55.312500000000014,
                    "velocity": 0.47244094488188976,
                    "duration": 0.375
                },
                {
                    "name": "A3",
                    "midi": 57,
                    "time": 55.500000000000014,
                    "velocity": 0.5511811023622047,
                    "duration": 0.75
                },
                {
                    "name": "F#3",
                    "midi": 54,
                    "time": 55.500000000000014,
                    "velocity": 0.5511811023622047,
                    "duration": 0.75
                },
                {
                    "name": "C#5",
                    "midi": 73,
                    "time": 55.687500000000014,
                    "velocity": 0.47244094488188976,
                    "duration": 0.1875
                },
                {
                    "name": "B4",
                    "midi": 71,
                    "time": 55.875000000000014,
                    "velocity": 0.47244094488188976,
                    "duration": 0.17499999999999716
                },
                {
                    "name": "C4",
                    "midi": 60,
                    "time": 55.875000000000014,
                    "velocity": 0.47244094488188976,
                    "duration": 0.375
                },
                {
                    "name": "A4",
                    "midi": 69,
                    "time": 56.062500000000014,
                    "velocity": 0.47244094488188976,
                    "duration": 0.1875
                },
                {
                    "name": "B3",
                    "midi": 59,
                    "time": 56.250000000000014,
                    "velocity": 0.47244094488188976,
                    "duration": 0.10833333333333428
                },
                {
                    "name": "G#4",
                    "midi": 68,
                    "time": 56.250000000000014,
                    "velocity": 0.47244094488188976,
                    "duration": 0.375
                },
                {
                    "name": "F3",
                    "midi": 53,
                    "time": 56.250000000000014,
                    "velocity": 0.47244094488188976,
                    "duration": 0.375
                },
                {
                    "name": "G#2",
                    "midi": 44,
                    "time": 56.250000000000014,
                    "velocity": 0.47244094488188976,
                    "duration": 0.375
                },
                {
                    "name": "D#4",
                    "midi": 63,
                    "time": 56.437500000000014,
                    "velocity": 0.47244094488188976,
                    "duration": 0.0833333333333357
                },
                {
                    "name": "G#4",
                    "midi": 68,
                    "time": 56.625000000000014,
                    "velocity": 0.47244094488188976,
                    "duration": 0.08749999999999858
                },
                {
                    "name": "D#4",
                    "midi": 63,
                    "time": 56.812500000000014,
                    "velocity": 0.47244094488188976,
                    "duration": 0.0833333333333357
                },
                {
                    "name": "B3",
                    "midi": 59,
                    "time": 57.000000000000014,
                    "velocity": 0.47244094488188976,
                    "duration": 0.09166666666666856
                },
                {
                    "name": "D#4",
                    "midi": 63,
                    "time": 57.187500000000014,
                    "velocity": 0.47244094488188976,
                    "duration": 0.08749999999999858
                },
                {
                    "name": "C4",
                    "midi": 60,
                    "time": 57.375000000000014,
                    "velocity": 0.47244094488188976,
                    "duration": 0.08749999999999858
                },
                {
                    "name": "A4",
                    "midi": 69,
                    "time": 57.375000000000014,
                    "velocity": 0.5511811023622047,
                    "duration": 0.375
                },
                {
                    "name": "F#3",
                    "midi": 54,
                    "time": 57.375000000000014,
                    "velocity": 0.5511811023622047,
                    "duration": 0.375
                },
                {
                    "name": "D#4",
                    "midi": 63,
                    "time": 57.562500000000014,
                    "velocity": 0.47244094488188976,
                    "duration": 0.08749999999999858
                },
                {
                    "name": "B3",
                    "midi": 59,
                    "time": 57.750000000000014,
                    "velocity": 0.47244094488188976,
                    "duration": 0.09166666666666856
                },
                {
                    "name": "G#4",
                    "midi": 68,
                    "time": 57.750000000000014,
                    "velocity": 0.47244094488188976,
                    "duration": 0.375
                },
                {
                    "name": "F3",
                    "midi": 53,
                    "time": 57.750000000000014,
                    "velocity": 0.47244094488188976,
                    "duration": 0.375
                },
                {
                    "name": "G#2",
                    "midi": 44,
                    "time": 57.750000000000014,
                    "velocity": 0.47244094488188976,
                    "duration": 0.375
                },
                {
                    "name": "D#4",
                    "midi": 63,
                    "time": 57.937500000000014,
                    "velocity": 0.47244094488188976,
                    "duration": 0.07500000000000284
                },
                {
                    "name": "G#4",
                    "midi": 68,
                    "time": 58.125000000000014,
                    "velocity": 0.47244094488188976,
                    "duration": 0.0833333333333357
                },
                {
                    "name": "D#4",
                    "midi": 63,
                    "time": 58.312500000000014,
                    "velocity": 0.47244094488188976,
                    "duration": 0.09583333333333144
                },
                {
                    "name": "B3",
                    "midi": 59,
                    "time": 58.500000000000014,
                    "velocity": 0.47244094488188976,
                    "duration": 0.0833333333333357
                },
                {
                    "name": "D#4",
                    "midi": 63,
                    "time": 58.687500000000014,
                    "velocity": 0.47244094488188976,
                    "duration": 0.09583333333333144
                },
                {
                    "name": "C4",
                    "midi": 60,
                    "time": 58.875000000000014,
                    "velocity": 0.47244094488188976,
                    "duration": 0.09166666666666856
                },
                {
                    "name": "F#3",
                    "midi": 54,
                    "time": 58.875000000000014,
                    "velocity": 0.5511811023622047,
                    "duration": 0.3500000000000014
                },
                {
                    "name": "A4",
                    "midi": 69,
                    "time": 58.875000000000014,
                    "velocity": 0.5511811023622047,
                    "duration": 0.375
                },
                {
                    "name": "D#4",
                    "midi": 63,
                    "time": 59.062500000000014,
                    "velocity": 0.47244094488188976,
                    "duration": 0.09583333333333144
                },
                {
                    "name": "B3",
                    "midi": 59,
                    "time": 59.250000000000014,
                    "velocity": 0.47244094488188976,
                    "duration": 0.09166666666666856
                },
                {
                    "name": "G#4",
                    "midi": 68,
                    "time": 59.250000000000014,
                    "velocity": 0.47244094488188976,
                    "duration": 0.36249999999999716
                },
                {
                    "name": "G#2",
                    "midi": 44,
                    "time": 59.250000000000014,
                    "velocity": 0.47244094488188976,
                    "duration": 0.375
                },
                {
                    "name": "F3",
                    "midi": 53,
                    "time": 59.250000000000014,
                    "velocity": 0.47244094488188976,
                    "duration": 0.375
                },
                {
                    "name": "D#4",
                    "midi": 63,
                    "time": 59.437500000000014,
                    "velocity": 0.47244094488188976,
                    "duration": 0.08749999999999858
                },
                {
                    "name": "G#4",
                    "midi": 68,
                    "time": 59.625000000000014,
                    "velocity": 0.47244094488188976,
                    "duration": 0.08749999999999858
                },
                {
                    "name": "D#4",
                    "midi": 63,
                    "time": 59.812500000000014,
                    "velocity": 0.47244094488188976,
                    "duration": 0.08749999999999858
                },
                {
                    "name": "B3",
                    "midi": 59,
                    "time": 60.000000000000014,
                    "velocity": 0.47244094488188976,
                    "duration": 0.07916666666666572
                },
                {
                    "name": "D#4",
                    "midi": 63,
                    "time": 60.187500000000014,
                    "velocity": 0.47244094488188976,
                    "duration": 0.07916666666666572
                },
                {
                    "name": "C4",
                    "midi": 60,
                    "time": 60.375000000000014,
                    "velocity": 0.47244094488188976,
                    "duration": 0.07500000000000284
                },
                {
                    "name": "F#3",
                    "midi": 54,
                    "time": 60.375000000000014,
                    "velocity": 0.5511811023622047,
                    "duration": 0.3583333333333343
                },
                {
                    "name": "A4",
                    "midi": 69,
                    "time": 60.375000000000014,
                    "velocity": 0.5511811023622047,
                    "duration": 0.375
                },
                {
                    "name": "D#4",
                    "midi": 63,
                    "time": 60.562500000000014,
                    "velocity": 0.5039370078740157,
                    "duration": 0.07500000000000284
                },
                {
                    "name": "B3",
                    "midi": 59,
                    "time": 60.750000000000014,
                    "velocity": 0.47244094488188976,
                    "duration": 0.07916666666666572
                },
                {
                    "name": "G#2",
                    "midi": 44,
                    "time": 60.750000000000014,
                    "velocity": 0.47244094488188976,
                    "duration": 0.3708333333333371
                },
                {
                    "name": "F3",
                    "midi": 53,
                    "time": 60.750000000000014,
                    "velocity": 0.47244094488188976,
                    "duration": 0.3750000000000071
                },
                {
                    "name": "G#4",
                    "midi": 68,
                    "time": 60.750000000000014,
                    "velocity": 0.47244094488188976,
                    "duration": 0.3750000000000071
                },
                {
                    "name": "D#4",
                    "midi": 63,
                    "time": 60.937500000000014,
                    "velocity": 0.47244094488188976,
                    "duration": 0.07500000000000284
                },
                {
                    "name": "G#4",
                    "midi": 68,
                    "time": 61.12500000000002,
                    "velocity": 0.47244094488188976,
                    "duration": 0.07500000000000284
                },
                {
                    "name": "D#4",
                    "midi": 63,
                    "time": 61.31250000000002,
                    "velocity": 0.47244094488188976,
                    "duration": 0.07916666666666572
                },
                {
                    "name": "B3",
                    "midi": 59,
                    "time": 61.50000000000002,
                    "velocity": 0.47244094488188976,
                    "duration": 0.09166666666666856
                },
                {
                    "name": "D#4",
                    "midi": 63,
                    "time": 61.68750000000002,
                    "velocity": 0.47244094488188976,
                    "duration": 0.08749999999999858
                },
                {
                    "name": "G#4",
                    "midi": 68,
                    "time": 61.883333333333354,
                    "velocity": 0.47244094488188976,
                    "duration": 0.09166666666666856
                },
                {
                    "name": "D#4",
                    "midi": 63,
                    "time": 62.08333333333336,
                    "velocity": 0.47244094488188976,
                    "duration": 0.09166666666666856
                },
                {
                    "name": "B3",
                    "midi": 59,
                    "time": 62.28333333333336,
                    "velocity": 0.47244094488188976,
                    "duration": 0.10833333333333428
                },
                {
                    "name": "D#4",
                    "midi": 63,
                    "time": 62.49583333333336,
                    "velocity": 0.47244094488188976,
                    "duration": 0.1041666666666643
                },
                {
                    "name": "G#4",
                    "midi": 68,
                    "time": 62.71250000000002,
                    "velocity": 0.47244094488188976,
                    "duration": 0.10833333333333428
                },
                {
                    "name": "D#4",
                    "midi": 63,
                    "time": 62.93333333333335,
                    "velocity": 0.47244094488188976,
                    "duration": 0.11666666666666714
                },
                {
                    "name": "B3",
                    "midi": 59,
                    "time": 63.162500000000016,
                    "velocity": 0.47244094488188976,
                    "duration": 0.11666666666666714
                },
                {
                    "name": "D#4",
                    "midi": 63,
                    "time": 63.40000000000001,
                    "velocity": 0.47244094488188976,
                    "duration": 0.12083333333333002
                },
                {
                    "name": "G#4",
                    "midi": 68,
                    "time": 63.64583333333334,
                    "velocity": 0.47244094488188976,
                    "duration": 0.125
                },
                {
                    "name": "D#4",
                    "midi": 63,
                    "time": 63.89583333333334,
                    "velocity": 0.47244094488188976,
                    "duration": 0.12916666666666288
                },
                {
                    "name": "B3",
                    "midi": 59,
                    "time": 64.15833333333335,
                    "velocity": 0.47244094488188976,
                    "duration": 0.13333333333333997
                },
                {
                    "name": "D#4",
                    "midi": 63,
                    "time": 64.42916666666669,
                    "velocity": 0.47244094488188976,
                    "duration": 0.14166666666666572
                },
                {
                    "name": "G#4",
                    "midi": 68,
                    "time": 64.71250000000002,
                    "velocity": 0.47244094488188976,
                    "duration": 0.1458333333333286
                },
                {
                    "name": "D#4",
                    "midi": 63,
                    "time": 65.00416666666668,
                    "velocity": 0.47244094488188976,
                    "duration": 0.15000000000000568
                },
                {
                    "name": "A#3",
                    "midi": 58,
                    "time": 65.30833333333335,
                    "velocity": 0.47244094488188976,
                    "duration": 0.15833333333333144
                },
                {
                    "name": "D#4",
                    "midi": 63,
                    "time": 65.62500000000001,
                    "velocity": 0.47244094488188976,
                    "duration": 0.1666666666666714
                },
                {
                    "name": "G#4",
                    "midi": 68,
                    "time": 65.95833333333336,
                    "velocity": 0.47244094488188976,
                    "duration": 0.17083333333333428
                },
                {
                    "name": "D#4",
                    "midi": 63,
                    "time": 66.30416666666669,
                    "velocity": 0.47244094488188976,
                    "duration": 0.17916666666666003
                },
                {
                    "name": "B3",
                    "midi": 59,
                    "time": 66.66666666666669,
                    "velocity": 0.5118110236220472,
                    "duration": 0.25833333333333997
                },
                {
                    "name": "D#4",
                    "midi": 63,
                    "time": 67.04166666666669,
                    "velocity": 0.5118110236220472,
                    "duration": 0.25833333333333997
                },
                {
                    "name": "G#4",
                    "midi": 68,
                    "time": 67.41666666666669,
                    "velocity": 0.5118110236220472,
                    "duration": 0.25833333333333997
                },
                {
                    "name": "D#4",
                    "midi": 63,
                    "time": 67.79166666666669,
                    "velocity": 0.5118110236220472,
                    "duration": 0.25833333333333997
                },
                {
                    "name": "C#3",
                    "midi": 49,
                    "time": 68.16666666666669,
                    "velocity": 0.47244094488188976,
                    "duration": 0.09583333333333144
                },
                {
                    "name": "A#3",
                    "midi": 58,
                    "time": 68.26250000000002,
                    "velocity": 0.47244094488188976,
                    "duration": 0.09583333333333144
                },
                {
                    "name": "E4",
                    "midi": 64,
                    "time": 68.35833333333335,
                    "velocity": 0.47244094488188976,
                    "duration": 0.09166666666666856
                },
                {
                    "name": "G#4",
                    "midi": 68,
                    "time": 68.45000000000002,
                    "velocity": 0.47244094488188976,
                    "duration": 0.09166666666666856
                }
            ],
            "controlChanges": {
                "7": [
                    {
                        "number": 7,
                        "time": 0,
                        "value": 1
                    }
                ],
                "10": [
                    {
                        "number": 10,
                        "time": 0,
                        "value": 0.5039370078740157
                    }
                ],
                "64": [
                    {
                        "number": 64,
                        "time": 68.16666666666669,
                        "value": 1
                    },
                    {
                        "number": 64,
                        "time": 68.54166666666669,
                        "value": 0
                    }
                ],
                "91": [
                    {
                        "number": 91,
                        "time": 0,
                        "value": 0.3937007874015748
                    }
                ],
                "93": [
                    {
                        "number": 93,
                        "time": 0,
                        "value": 0
                    }
                ]
            },
            "id": 4,
            "name": "Track-1/4",
            "instrumentNumber": 6,
            "instrument": "harpsichord",
            "instrumentFamily": "piano",
            "channelNumber": 3,
            "isPercussion": false
        }
    ]
}