{
    "header": {
        "PPQ": 120,
        "timeSignature": [
            2,
            4
        ],
        "bpm": 250,
        "name": "3. Der Stampfer."
    },
    "startTime": 0,
    "duration": 19.163999999999973,
    "tracks": [
        {
            "startTime": 0,
            "duration": 0,
            "length": 0,
            "notes": [],
            "controlChanges": {},
            "id": 0,
            "name": "3. Der Stampfer."
        },
        {
            "startTime": 2.04,
            "duration": 19.11999999999996,
            "length": 189,
            "notes": [
                {
                    "name": "D6",
                    "midi": 86,
                    "time": 2.04,
                    "velocity": 0.5275590551181102,
                    "duration": 0.040000000000000036
                },
                {
                    "name": "F6",
                    "midi": 89,
                    "time": 2.16,
                    "velocity": 0.5275590551181102,
                    "duration": 0.040000000000000036
                },
                {
                    "name": "F#6",
                    "midi": 90,
                    "time": 2.2800000000000002,
                    "velocity": 0.5275590551181102,
                    "duration": 0.040000000000000036
                },
                {
                    "name": "F6",
                    "midi": 89,
                    "time": 2.4000000000000004,
                    "velocity": 0.5275590551181102,
                    "duration": 0.029999999999999805
                },
                {
                    "name": "F#6",
                    "midi": 90,
                    "time": 2.43,
                    "velocity": 0.5275590551181102,
                    "duration": 0.029999999999999805
                },
                {
                    "name": "F6",
                    "midi": 89,
                    "time": 2.46,
                    "velocity": 0.7322834645669292,
                    "duration": 0.05799999999999983
                },
                {
                    "name": "D6",
                    "midi": 86,
                    "time": 2.5199999999999996,
                    "velocity": 0.5275590551181102,
                    "duration": 0.040000000000000036
                },
                {
                    "name": "F6",
                    "midi": 89,
                    "time": 2.6399999999999997,
                    "velocity": 0.5275590551181102,
                    "duration": 0.040000000000000036
                },
                {
                    "name": "F#6",
                    "midi": 90,
                    "time": 2.76,
                    "velocity": 0.5275590551181102,
                    "duration": 0.040000000000000036
                },
                {
                    "name": "F6",
                    "midi": 89,
                    "time": 2.88,
                    "velocity": 0.5275590551181102,
                    "duration": 0.029999999999999805
                },
                {
                    "name": "F#6",
                    "midi": 90,
                    "time": 2.9099999999999997,
                    "velocity": 0.5275590551181102,
                    "duration": 0.029999999999999805
                },
                {
                    "name": "F6",
                    "midi": 89,
                    "time": 2.9399999999999995,
                    "velocity": 0.7322834645669292,
                    "duration": 0.05799999999999983
                },
                {
                    "name": "D6",
                    "midi": 86,
                    "time": 2.999999999999999,
                    "velocity": 0.5275590551181102,
                    "duration": 0.040000000000000036
                },
                {
                    "name": "F6",
                    "midi": 89,
                    "time": 3.119999999999999,
                    "velocity": 0.5275590551181102,
                    "duration": 0.040000000000000036
                },
                {
                    "name": "F#6",
                    "midi": 90,
                    "time": 3.2399999999999993,
                    "velocity": 0.5275590551181102,
                    "duration": 0.029999999999999805
                },
                {
                    "name": "G#6",
                    "midi": 92,
                    "time": 3.269999999999999,
                    "velocity": 0.5275590551181102,
                    "duration": 0.029999999999999805
                },
                {
                    "name": "F#6",
                    "midi": 90,
                    "time": 3.299999999999999,
                    "velocity": 0.7322834645669292,
                    "duration": 0.17799999999999994
                },
                {
                    "name": "F6",
                    "midi": 89,
                    "time": 3.4799999999999986,
                    "velocity": 0.5275590551181102,
                    "duration": 0.029999999999999805
                },
                {
                    "name": "F#6",
                    "midi": 90,
                    "time": 3.5099999999999985,
                    "velocity": 0.5275590551181102,
                    "duration": 0.029999999999999805
                },
                {
                    "name": "F6",
                    "midi": 89,
                    "time": 3.5399999999999983,
                    "velocity": 0.7322834645669292,
                    "duration": 0.17799999999999994
                },
                {
                    "name": "D6",
                    "midi": 86,
                    "time": 3.719999999999998,
                    "velocity": 0.5275590551181102,
                    "duration": 0.06000000000000005
                },
                {
                    "name": "C#6",
                    "midi": 85,
                    "time": 3.779999999999998,
                    "velocity": 0.5275590551181102,
                    "duration": 0.06000000000000005
                },
                {
                    "name": "B5",
                    "midi": 83,
                    "time": 3.839999999999998,
                    "velocity": 0.5275590551181102,
                    "duration": 0.06000000000000005
                },
                {
                    "name": "C#6",
                    "midi": 85,
                    "time": 3.899999999999998,
                    "velocity": 0.5275590551181102,
                    "duration": 0.06000000000000005
                },
                {
                    "name": "D6",
                    "midi": 86,
                    "time": 3.959999999999998,
                    "velocity": 0.5275590551181102,
                    "duration": 0.11800000000000033
                },
                {
                    "name": "F6",
                    "midi": 89,
                    "time": 4.079999999999998,
                    "velocity": 0.5275590551181102,
                    "duration": 0.040000000000000036
                },
                {
                    "name": "F#6",
                    "midi": 90,
                    "time": 4.199999999999998,
                    "velocity": 0.5275590551181102,
                    "duration": 0.040000000000000036
                },
                {
                    "name": "F6",
                    "midi": 89,
                    "time": 4.3199999999999985,
                    "velocity": 0.5275590551181102,
                    "duration": 0.03000000000000025
                },
                {
                    "name": "F#6",
                    "midi": 90,
                    "time": 4.349999999999999,
                    "velocity": 0.5275590551181102,
                    "duration": 0.03000000000000025
                },
                {
                    "name": "F6",
                    "midi": 89,
                    "time": 4.379999999999999,
                    "velocity": 0.7322834645669292,
                    "duration": 0.05999999999999961
                },
                {
                    "name": "D6",
                    "midi": 86,
                    "time": 4.439999999999999,
                    "velocity": 0.5275590551181102,
                    "duration": 0.040000000000000036
                },
                {
                    "name": "F6",
                    "midi": 89,
                    "time": 4.559999999999999,
                    "velocity": 0.5275590551181102,
                    "duration": 0.040000000000000036
                },
                {
                    "name": "F#6",
                    "midi": 90,
                    "time": 4.679999999999999,
                    "velocity": 0.5275590551181102,
                    "duration": 0.040000000000000036
                },
                {
                    "name": "F6",
                    "midi": 89,
                    "time": 4.799999999999999,
                    "velocity": 0.5275590551181102,
                    "duration": 0.03000000000000025
                },
                {
                    "name": "F#6",
                    "midi": 90,
                    "time": 4.829999999999999,
                    "velocity": 0.5275590551181102,
                    "duration": 0.03000000000000025
                },
                {
                    "name": "F6",
                    "midi": 89,
                    "time": 4.859999999999999,
                    "velocity": 0.7322834645669292,
                    "duration": 0.05999999999999961
                },
                {
                    "name": "D6",
                    "midi": 86,
                    "time": 4.919999999999999,
                    "velocity": 0.5275590551181102,
                    "duration": 0.040000000000000036
                },
                {
                    "name": "F6",
                    "midi": 89,
                    "time": 5.039999999999999,
                    "velocity": 0.5275590551181102,
                    "duration": 0.040000000000000036
                },
                {
                    "name": "F#6",
                    "midi": 90,
                    "time": 5.159999999999999,
                    "velocity": 0.5275590551181102,
                    "duration": 0.03000000000000025
                },
                {
                    "name": "G#6",
                    "midi": 92,
                    "time": 5.1899999999999995,
                    "velocity": 0.5275590551181102,
                    "duration": 0.03000000000000025
                },
                {
                    "name": "F#6",
                    "midi": 90,
                    "time": 5.22,
                    "velocity": 0.7322834645669292,
                    "duration": 0.17799999999999994
                },
                {
                    "name": "F6",
                    "midi": 89,
                    "time": 5.3999999999999995,
                    "velocity": 0.5275590551181102,
                    "duration": 0.03000000000000025
                },
                {
                    "name": "F#6",
                    "midi": 90,
                    "time": 5.43,
                    "velocity": 0.5275590551181102,
                    "duration": 0.03000000000000025
                },
                {
                    "name": "F6",
                    "midi": 89,
                    "time": 5.46,
                    "velocity": 0.7322834645669292,
                    "duration": 0.17799999999999994
                },
                {
                    "name": "D6",
                    "midi": 86,
                    "time": 5.64,
                    "velocity": 0.5275590551181102,
                    "duration": 0.05999999999999961
                },
                {
                    "name": "C#6",
                    "midi": 85,
                    "time": 5.699999999999999,
                    "velocity": 0.5275590551181102,
                    "duration": 0.05999999999999961
                },
                {
                    "name": "B5",
                    "midi": 83,
                    "time": 5.759999999999999,
                    "velocity": 0.5275590551181102,
                    "duration": 0.11800000000000033
                },
                {
                    "name": "C#6",
                    "midi": 85,
                    "time": 5.879999999999999,
                    "velocity": 0.5275590551181102,
                    "duration": 0.040000000000000036
                },
                {
                    "name": "C#6",
                    "midi": 85,
                    "time": 5.999999999999999,
                    "velocity": 0.5275590551181102,
                    "duration": 0.05999999999999961
                },
                {
                    "name": "C#6",
                    "midi": 85,
                    "time": 6.089999999999999,
                    "velocity": 0.5275590551181102,
                    "duration": 0.03000000000000025
                },
                {
                    "name": "D6",
                    "midi": 86,
                    "time": 6.119999999999999,
                    "velocity": 0.7322834645669292,
                    "duration": 0.1200000000000001
                },
                {
                    "name": "C#6",
                    "midi": 85,
                    "time": 6.239999999999999,
                    "velocity": 0.5275590551181102,
                    "duration": 0.040000000000000036
                },
                {
                    "name": "C#6",
                    "midi": 85,
                    "time": 6.359999999999999,
                    "velocity": 0.5275590551181102,
                    "duration": 0.040000000000000036
                },
                {
                    "name": "C#6",
                    "midi": 85,
                    "time": 6.4799999999999995,
                    "velocity": 0.5275590551181102,
                    "duration": 0.05999999999999961
                },
                {
                    "name": "C#6",
                    "midi": 85,
                    "time": 6.569999999999999,
                    "velocity": 0.5275590551181102,
                    "duration": 0.03000000000000025
                },
                {
                    "name": "D6",
                    "midi": 86,
                    "time": 6.6,
                    "velocity": 0.7322834645669292,
                    "duration": 0.1200000000000001
                },
                {
                    "name": "C#6",
                    "midi": 85,
                    "time": 6.72,
                    "velocity": 0.5275590551181102,
                    "duration": 0.040000000000000036
                },
                {
                    "name": "C#6",
                    "midi": 85,
                    "time": 6.84,
                    "velocity": 0.5275590551181102,
                    "duration": 0.040000000000000036
                },
                {
                    "name": "C#6",
                    "midi": 85,
                    "time": 6.96,
                    "velocity": 0.5275590551181102,
                    "duration": 0.040000000000000036
                },
                {
                    "name": "D6",
                    "midi": 86,
                    "time": 7.08,
                    "velocity": 0.5275590551181102,
                    "duration": 0.05999999999999961
                },
                {
                    "name": "C#6",
                    "midi": 85,
                    "time": 7.14,
                    "velocity": 0.5275590551181102,
                    "duration": 0.05799999999999983
                },
                {
                    "name": "D6",
                    "midi": 86,
                    "time": 7.199999999999999,
                    "velocity": 0.5275590551181102,
                    "duration": 0.05999999999999961
                },
                {
                    "name": "C#6",
                    "midi": 85,
                    "time": 7.259999999999999,
                    "velocity": 0.5275590551181102,
                    "duration": 0.05799999999999983
                },
                {
                    "name": "F6",
                    "midi": 89,
                    "time": 7.3199999999999985,
                    "velocity": 0.7322834645669292,
                    "duration": 0.2400000000000002
                },
                {
                    "name": "D6",
                    "midi": 86,
                    "time": 7.559999999999999,
                    "velocity": 0.5275590551181102,
                    "duration": 0.05999999999999961
                },
                {
                    "name": "C#6",
                    "midi": 85,
                    "time": 7.619999999999998,
                    "velocity": 0.5275590551181102,
                    "duration": 0.05999999999999961
                },
                {
                    "name": "B5",
                    "midi": 83,
                    "time": 7.679999999999998,
                    "velocity": 0.5275590551181102,
                    "duration": 0.040000000000000036
                },
                {
                    "name": "C#6",
                    "midi": 85,
                    "time": 7.799999999999998,
                    "velocity": 0.5905511811023622,
                    "duration": 0.040000000000000036
                },
                {
                    "name": "C#6",
                    "midi": 85,
                    "time": 7.919999999999998,
                    "velocity": 0.5905511811023622,
                    "duration": 0.05999999999999961
                },
                {
                    "name": "C#6",
                    "midi": 85,
                    "time": 8.009999999999998,
                    "velocity": 0.5905511811023622,
                    "duration": 0.02999999999999936
                },
                {
                    "name": "D6",
                    "midi": 86,
                    "time": 8.039999999999997,
                    "velocity": 0.8267716535433071,
                    "duration": 0.11999999999999922
                },
                {
                    "name": "C#6",
                    "midi": 85,
                    "time": 8.159999999999997,
                    "velocity": 0.5905511811023622,
                    "duration": 0.03999999999999915
                },
                {
                    "name": "C#6",
                    "midi": 85,
                    "time": 8.279999999999996,
                    "velocity": 0.5905511811023622,
                    "duration": 0.03999999999999915
                },
                {
                    "name": "C#6",
                    "midi": 85,
                    "time": 8.399999999999995,
                    "velocity": 0.5905511811023622,
                    "duration": 0.0600000000000005
                },
                {
                    "name": "C#6",
                    "midi": 85,
                    "time": 8.489999999999995,
                    "velocity": 0.5905511811023622,
                    "duration": 0.02999999999999936
                },
                {
                    "name": "D6",
                    "midi": 86,
                    "time": 8.519999999999994,
                    "velocity": 0.8267716535433071,
                    "duration": 0.11999999999999922
                },
                {
                    "name": "C#6",
                    "midi": 85,
                    "time": 8.639999999999993,
                    "velocity": 0.5905511811023622,
                    "duration": 0.03999999999999915
                },
                {
                    "name": "C#6",
                    "midi": 85,
                    "time": 8.759999999999993,
                    "velocity": 0.5905511811023622,
                    "duration": 0.03999999999999915
                },
                {
                    "name": "C#6",
                    "midi": 85,
                    "time": 8.879999999999992,
                    "velocity": 0.5905511811023622,
                    "duration": 0.03999999999999915
                },
                {
                    "name": "D6",
                    "midi": 86,
                    "time": 8.999999999999991,
                    "velocity": 0.5905511811023622,
                    "duration": 0.0600000000000005
                },
                {
                    "name": "C#6",
                    "midi": 85,
                    "time": 9.059999999999992,
                    "velocity": 0.5905511811023622,
                    "duration": 0.05799999999999983
                },
                {
                    "name": "D6",
                    "midi": 86,
                    "time": 9.119999999999992,
                    "velocity": 0.5905511811023622,
                    "duration": 0.0600000000000005
                },
                {
                    "name": "C#6",
                    "midi": 85,
                    "time": 9.179999999999993,
                    "velocity": 0.5905511811023622,
                    "duration": 0.05799999999999983
                },
                {
                    "name": "F6",
                    "midi": 89,
                    "time": 9.239999999999993,
                    "velocity": 0.8267716535433071,
                    "duration": 0.2400000000000002
                },
                {
                    "name": "D6",
                    "midi": 86,
                    "time": 9.479999999999993,
                    "velocity": 0.5905511811023622,
                    "duration": 0.0600000000000005
                },
                {
                    "name": "C#6",
                    "midi": 85,
                    "time": 9.539999999999994,
                    "velocity": 0.5905511811023622,
                    "duration": 0.0600000000000005
                },
                {
                    "name": "B5",
                    "midi": 83,
                    "time": 9.599999999999994,
                    "velocity": 0.5905511811023622,
                    "duration": 0.0600000000000005
                },
                {
                    "name": "C#6",
                    "midi": 85,
                    "time": 9.659999999999995,
                    "velocity": 0.5905511811023622,
                    "duration": 0.0600000000000005
                },
                {
                    "name": "D6",
                    "midi": 86,
                    "time": 9.719999999999995,
                    "velocity": 0.5905511811023622,
                    "duration": 0.03999999999999915
                },
                {
                    "name": "F6",
                    "midi": 89,
                    "time": 9.839999999999995,
                    "velocity": 0.6377952755905512,
                    "duration": 0.11999999999999922
                },
                {
                    "name": "F#6",
                    "midi": 90,
                    "time": 9.959999999999994,
                    "velocity": 0.6929133858267716,
                    "duration": 0.0600000000000005
                },
                {
                    "name": "G#6",
                    "midi": 92,
                    "time": 10.019999999999994,
                    "velocity": 0.7244094488188977,
                    "duration": 0.0600000000000005
                },
                {
                    "name": "F#6",
                    "midi": 90,
                    "time": 10.079999999999995,
                    "velocity": 0.7322834645669292,
                    "duration": 0.0600000000000005
                },
                {
                    "name": "F6",
                    "midi": 89,
                    "time": 10.139999999999995,
                    "velocity": 0.5275590551181102,
                    "duration": 0.0600000000000005
                },
                {
                    "name": "D6",
                    "midi": 86,
                    "time": 10.199999999999996,
                    "velocity": 0.5275590551181102,
                    "duration": 0.03999999999999915
                },
                {
                    "name": "F6",
                    "midi": 89,
                    "time": 10.319999999999995,
                    "velocity": 0.5275590551181102,
                    "duration": 0.11999999999999922
                },
                {
                    "name": "F#6",
                    "midi": 90,
                    "time": 10.439999999999994,
                    "velocity": 0.5275590551181102,
                    "duration": 0.0600000000000005
                },
                {
                    "name": "G#6",
                    "midi": 92,
                    "time": 10.499999999999995,
                    "velocity": 0.5275590551181102,
                    "duration": 0.0600000000000005
                },
                {
                    "name": "F#6",
                    "midi": 90,
                    "time": 10.559999999999995,
                    "velocity": 0.7322834645669292,
                    "duration": 0.0600000000000005
                },
                {
                    "name": "F6",
                    "midi": 89,
                    "time": 10.619999999999996,
                    "velocity": 0.5275590551181102,
                    "duration": 0.0600000000000005
                },
                {
                    "name": "D6",
                    "midi": 86,
                    "time": 10.679999999999996,
                    "velocity": 0.5275590551181102,
                    "duration": 0.03999999999999915
                },
                {
                    "name": "F6",
                    "midi": 89,
                    "time": 10.799999999999995,
                    "velocity": 0.5275590551181102,
                    "duration": 0.03999999999999915
                },
                {
                    "name": "F#6",
                    "midi": 90,
                    "time": 10.919999999999995,
                    "velocity": 0.5275590551181102,
                    "duration": 0.02999999999999936
                },
                {
                    "name": "G#6",
                    "midi": 92,
                    "time": 10.949999999999994,
                    "velocity": 0.5275590551181102,
                    "duration": 0.02999999999999936
                },
                {
                    "name": "F#6",
                    "midi": 90,
                    "time": 10.979999999999993,
                    "velocity": 0.7322834645669292,
                    "duration": 0.17800000000000082
                },
                {
                    "name": "F6",
                    "midi": 89,
                    "time": 11.159999999999995,
                    "velocity": 0.5275590551181102,
                    "duration": 0.02800000000000047
                },
                {
                    "name": "F#6",
                    "midi": 90,
                    "time": 11.189999999999996,
                    "velocity": 0.5275590551181102,
                    "duration": 0.02800000000000047
                },
                {
                    "name": "F6",
                    "midi": 89,
                    "time": 11.219999999999997,
                    "velocity": 0.7322834645669292,
                    "duration": 0.17800000000000082
                },
                {
                    "name": "D6",
                    "midi": 86,
                    "time": 11.399999999999999,
                    "velocity": 0.5275590551181102,
                    "duration": 0.0600000000000005
                },
                {
                    "name": "C#6",
                    "midi": 85,
                    "time": 11.459999999999999,
                    "velocity": 0.5275590551181102,
                    "duration": 0.0600000000000005
                },
                {
                    "name": "B5",
                    "midi": 83,
                    "time": 11.52,
                    "velocity": 0.5275590551181102,
                    "duration": 0.0600000000000005
                },
                {
                    "name": "C#6",
                    "midi": 85,
                    "time": 11.58,
                    "velocity": 0.5275590551181102,
                    "duration": 0.0600000000000005
                },
                {
                    "name": "D6",
                    "midi": 86,
                    "time": 11.64,
                    "velocity": 0.5275590551181102,
                    "duration": 0.03999999999999915
                },
                {
                    "name": "F6",
                    "midi": 89,
                    "time": 11.76,
                    "velocity": 0.5275590551181102,
                    "duration": 0.11800000000000033
                },
                {
                    "name": "F#6",
                    "midi": 90,
                    "time": 11.88,
                    "velocity": 0.5275590551181102,
                    "duration": 0.0600000000000005
                },
                {
                    "name": "G#6",
                    "midi": 92,
                    "time": 11.940000000000001,
                    "velocity": 0.5275590551181102,
                    "duration": 0.0600000000000005
                },
                {
                    "name": "F#6",
                    "midi": 90,
                    "time": 12.000000000000002,
                    "velocity": 0.7322834645669292,
                    "duration": 0.0600000000000005
                },
                {
                    "name": "F6",
                    "midi": 89,
                    "time": 12.060000000000002,
                    "velocity": 0.5275590551181102,
                    "duration": 0.0600000000000005
                },
                {
                    "name": "D6",
                    "midi": 86,
                    "time": 12.120000000000003,
                    "velocity": 0.5275590551181102,
                    "duration": 0.03999999999999915
                },
                {
                    "name": "F6",
                    "midi": 89,
                    "time": 12.240000000000002,
                    "velocity": 0.5275590551181102,
                    "duration": 0.11999999999999922
                },
                {
                    "name": "F#6",
                    "midi": 90,
                    "time": 12.360000000000001,
                    "velocity": 0.5275590551181102,
                    "duration": 0.0600000000000005
                },
                {
                    "name": "G#6",
                    "midi": 92,
                    "time": 12.420000000000002,
                    "velocity": 0.5275590551181102,
                    "duration": 0.0600000000000005
                },
                {
                    "name": "F#6",
                    "midi": 90,
                    "time": 12.480000000000002,
                    "velocity": 0.7322834645669292,
                    "duration": 0.0600000000000005
                },
                {
                    "name": "F6",
                    "midi": 89,
                    "time": 12.540000000000003,
                    "velocity": 0.5275590551181102,
                    "duration": 0.0600000000000005
                },
                {
                    "name": "D6",
                    "midi": 86,
                    "time": 12.600000000000003,
                    "velocity": 0.5275590551181102,
                    "duration": 0.03999999999999915
                },
                {
                    "name": "F6",
                    "midi": 89,
                    "time": 12.720000000000002,
                    "velocity": 0.5275590551181102,
                    "duration": 0.03999999999999915
                },
                {
                    "name": "F#6",
                    "midi": 90,
                    "time": 12.840000000000002,
                    "velocity": 0.5275590551181102,
                    "duration": 0.02999999999999936
                },
                {
                    "name": "G#6",
                    "midi": 92,
                    "time": 12.870000000000001,
                    "velocity": 0.5275590551181102,
                    "duration": 0.02999999999999936
                },
                {
                    "name": "F#6",
                    "midi": 90,
                    "time": 12.9,
                    "velocity": 0.7322834645669292,
                    "duration": 0.17800000000000082
                },
                {
                    "name": "F6",
                    "midi": 89,
                    "time": 13.080000000000002,
                    "velocity": 0.5275590551181102,
                    "duration": 0.02800000000000047
                },
                {
                    "name": "F#6",
                    "midi": 90,
                    "time": 13.110000000000003,
                    "velocity": 0.5275590551181102,
                    "duration": 0.02800000000000047
                },
                {
                    "name": "F6",
                    "midi": 89,
                    "time": 13.140000000000004,
                    "velocity": 0.7322834645669292,
                    "duration": 0.17800000000000082
                },
                {
                    "name": "D6",
                    "midi": 86,
                    "time": 13.320000000000006,
                    "velocity": 0.5275590551181102,
                    "duration": 0.0600000000000005
                },
                {
                    "name": "C#6",
                    "midi": 85,
                    "time": 13.380000000000006,
                    "velocity": 0.5275590551181102,
                    "duration": 0.0600000000000005
                },
                {
                    "name": "B5",
                    "midi": 83,
                    "time": 13.440000000000007,
                    "velocity": 0.5275590551181102,
                    "duration": 0.03999999999999915
                },
                {
                    "name": "C#6",
                    "midi": 85,
                    "time": 13.560000000000006,
                    "velocity": 0.47244094488188976,
                    "duration": 0.03999999999999915
                },
                {
                    "name": "C#6",
                    "midi": 85,
                    "time": 13.680000000000005,
                    "velocity": 0.47244094488188976,
                    "duration": 0.0600000000000005
                },
                {
                    "name": "C#6",
                    "midi": 85,
                    "time": 13.770000000000005,
                    "velocity": 0.47244094488188976,
                    "duration": 0.02999999999999936
                },
                {
                    "name": "D6",
                    "midi": 86,
                    "time": 13.800000000000004,
                    "velocity": 0.6614173228346457,
                    "duration": 0.11999999999999922
                },
                {
                    "name": "C#6",
                    "midi": 85,
                    "time": 13.920000000000003,
                    "velocity": 0.47244094488188976,
                    "duration": 0.03999999999999915
                },
                {
                    "name": "C#6",
                    "midi": 85,
                    "time": 14.040000000000003,
                    "velocity": 0.47244094488188976,
                    "duration": 0.03999999999999915
                },
                {
                    "name": "C#6",
                    "midi": 85,
                    "time": 14.160000000000002,
                    "velocity": 0.47244094488188976,
                    "duration": 0.0600000000000005
                },
                {
                    "name": "C#6",
                    "midi": 85,
                    "time": 14.250000000000002,
                    "velocity": 0.47244094488188976,
                    "duration": 0.02999999999999936
                },
                {
                    "name": "D6",
                    "midi": 86,
                    "time": 14.280000000000001,
                    "velocity": 0.6614173228346457,
                    "duration": 0.11999999999999922
                },
                {
                    "name": "C#6",
                    "midi": 85,
                    "time": 14.4,
                    "velocity": 0.47244094488188976,
                    "duration": 0.03999999999999915
                },
                {
                    "name": "C#6",
                    "midi": 85,
                    "time": 14.52,
                    "velocity": 0.47244094488188976,
                    "duration": 0.03999999999999915
                },
                {
                    "name": "C#6",
                    "midi": 85,
                    "time": 14.639999999999999,
                    "velocity": 0.47244094488188976,
                    "duration": 0.03999999999999915
                },
                {
                    "name": "D6",
                    "midi": 86,
                    "time": 14.759999999999998,
                    "velocity": 0.47244094488188976,
                    "duration": 0.0600000000000005
                },
                {
                    "name": "C#6",
                    "midi": 85,
                    "time": 14.819999999999999,
                    "velocity": 0.47244094488188976,
                    "duration": 0.05799999999999983
                },
                {
                    "name": "D6",
                    "midi": 86,
                    "time": 14.879999999999999,
                    "velocity": 0.47244094488188976,
                    "duration": 0.0600000000000005
                },
                {
                    "name": "C#6",
                    "midi": 85,
                    "time": 14.94,
                    "velocity": 0.47244094488188976,
                    "duration": 0.05799999999999983
                },
                {
                    "name": "F6",
                    "midi": 89,
                    "time": 15,
                    "velocity": 0.6614173228346457,
                    "duration": 0.1999999999999993
                },
                {
                    "name": "D6",
                    "midi": 86,
                    "time": 15.239999999999998,
                    "velocity": 0.47244094488188976,
                    "duration": 0.0600000000000005
                },
                {
                    "name": "C#6",
                    "midi": 85,
                    "time": 15.299999999999999,
                    "velocity": 0.47244094488188976,
                    "duration": 0.0600000000000005
                },
                {
                    "name": "B5",
                    "midi": 83,
                    "time": 15.36,
                    "velocity": 0.47244094488188976,
                    "duration": 0.11800000000000033
                },
                {
                    "name": "C#6",
                    "midi": 85,
                    "time": 15.48,
                    "velocity": 0.47244094488188976,
                    "duration": 0.03999999999999915
                },
                {
                    "name": "C#6",
                    "midi": 85,
                    "time": 15.6,
                    "velocity": 0.47244094488188976,
                    "duration": 0.0600000000000005
                },
                {
                    "name": "C#6",
                    "midi": 85,
                    "time": 15.69,
                    "velocity": 0.47244094488188976,
                    "duration": 0.02999999999999936
                },
                {
                    "name": "D6",
                    "midi": 86,
                    "time": 15.719999999999999,
                    "velocity": 0.6614173228346457,
                    "duration": 0.11999999999999922
                },
                {
                    "name": "C#6",
                    "midi": 85,
                    "time": 15.839999999999998,
                    "velocity": 0.47244094488188976,
                    "duration": 0.03999999999999915
                },
                {
                    "name": "C#6",
                    "midi": 85,
                    "time": 15.959999999999997,
                    "velocity": 0.47244094488188976,
                    "duration": 0.03999999999999915
                },
                {
                    "name": "C#6",
                    "midi": 85,
                    "time": 16.079999999999995,
                    "velocity": 0.47244094488188976,
                    "duration": 0.05999999999999872
                },
                {
                    "name": "C#6",
                    "midi": 85,
                    "time": 16.169999999999995,
                    "velocity": 0.47244094488188976,
                    "duration": 0.030000000000001137
                },
                {
                    "name": "D6",
                    "midi": 86,
                    "time": 16.199999999999996,
                    "velocity": 0.6614173228346457,
                    "duration": 0.120000000000001
                },
                {
                    "name": "C#6",
                    "midi": 85,
                    "time": 16.319999999999997,
                    "velocity": 0.47244094488188976,
                    "duration": 0.03999999999999915
                },
                {
                    "name": "C#6",
                    "midi": 85,
                    "time": 16.439999999999994,
                    "velocity": 0.47244094488188976,
                    "duration": 0.03999999999999915
                },
                {
                    "name": "C#6",
                    "midi": 85,
                    "time": 16.55999999999999,
                    "velocity": 0.47244094488188976,
                    "duration": 0.03999999999999915
                },
                {
                    "name": "D6",
                    "midi": 86,
                    "time": 16.67999999999999,
                    "velocity": 0.47244094488188976,
                    "duration": 0.05999999999999872
                },
                {
                    "name": "C#6",
                    "midi": 85,
                    "time": 16.739999999999988,
                    "velocity": 0.47244094488188976,
                    "duration": 0.05799999999999983
                },
                {
                    "name": "D6",
                    "midi": 86,
                    "time": 16.799999999999986,
                    "velocity": 0.47244094488188976,
                    "duration": 0.05999999999999872
                },
                {
                    "name": "C#6",
                    "midi": 85,
                    "time": 16.859999999999985,
                    "velocity": 0.47244094488188976,
                    "duration": 0.05799999999999983
                },
                {
                    "name": "F6",
                    "midi": 89,
                    "time": 16.919999999999984,
                    "velocity": 0.47244094488188976,
                    "duration": 0.23999999999999844
                },
                {
                    "name": "D6",
                    "midi": 86,
                    "time": 17.159999999999982,
                    "velocity": 0.47244094488188976,
                    "duration": 0.05999999999999872
                },
                {
                    "name": "C#6",
                    "midi": 85,
                    "time": 17.21999999999998,
                    "velocity": 0.47244094488188976,
                    "duration": 0.05999999999999872
                },
                {
                    "name": "B5",
                    "midi": 83,
                    "time": 17.27999999999998,
                    "velocity": 0.47244094488188976,
                    "duration": 0.05999999999999872
                },
                {
                    "name": "C#6",
                    "midi": 85,
                    "time": 17.33999999999998,
                    "velocity": 0.47244094488188976,
                    "duration": 0.05999999999999872
                },
                {
                    "name": "D6",
                    "midi": 86,
                    "time": 17.399999999999977,
                    "velocity": 0.47244094488188976,
                    "duration": 0.11799999999999855
                },
                {
                    "name": "F6",
                    "midi": 89,
                    "time": 17.519999999999975,
                    "velocity": 0.47244094488188976,
                    "duration": 0.03999999999999915
                },
                {
                    "name": "F#6",
                    "midi": 90,
                    "time": 17.639999999999972,
                    "velocity": 0.47244094488188976,
                    "duration": 0.05999999999999872
                },
                {
                    "name": "G#6",
                    "midi": 92,
                    "time": 17.69999999999997,
                    "velocity": 0.47244094488188976,
                    "duration": 0.05799999999999983
                },
                {
                    "name": "D6",
                    "midi": 86,
                    "time": 18.35999999999997,
                    "velocity": 0.47244094488188976,
                    "duration": 0.08599999999999852
                },
                {
                    "name": "F6",
                    "midi": 89,
                    "time": 18.47999999999997,
                    "velocity": 0.47244094488188976,
                    "duration": 0.08599999999999852
                },
                {
                    "name": "F#6",
                    "midi": 90,
                    "time": 18.599999999999966,
                    "velocity": 0.47244094488188976,
                    "duration": 0.03999999999999915
                },
                {
                    "name": "F6",
                    "midi": 89,
                    "time": 18.719999999999963,
                    "velocity": 0.47244094488188976,
                    "duration": 0.030000000000001137
                },
                {
                    "name": "F#6",
                    "midi": 90,
                    "time": 18.749999999999964,
                    "velocity": 0.47244094488188976,
                    "duration": 0.030000000000001137
                },
                {
                    "name": "F6",
                    "midi": 89,
                    "time": 18.779999999999966,
                    "velocity": 0.47244094488188976,
                    "duration": 0.05999999999999872
                },
                {
                    "name": "D6",
                    "midi": 86,
                    "time": 18.839999999999964,
                    "velocity": 0.47244094488188976,
                    "duration": 0.03999999999999915
                },
                {
                    "name": "F6",
                    "midi": 89,
                    "time": 18.95999999999996,
                    "velocity": 0.47244094488188976,
                    "duration": 0.08599999999999852
                },
                {
                    "name": "F#6",
                    "midi": 90,
                    "time": 19.07999999999996,
                    "velocity": 0.47244094488188976,
                    "duration": 0.03999999999999915
                }
            ],
            "controlChanges": {
                "7": [
                    {
                        "number": 7,
                        "time": 0,
                        "value": 1
                    }
                ],
                "10": [
                    {
                        "number": 10,
                        "time": 0,
                        "value": 0.7559055118110236
                    }
                ],
                "64": [
                    {
                        "number": 64,
                        "time": 0.48,
                        "value": 1
                    },
                    {
                        "number": 64,
                        "time": 5.999999999999999,
                        "value": 0
                    },
                    {
                        "number": 64,
                        "time": 6.359999999999999,
                        "value": 1
                    },
                    {
                        "number": 64,
                        "time": 7.259999999999999,
                        "value": 0
                    },
                    {
                        "number": 64,
                        "time": 7.3199999999999985,
                        "value": 1
                    },
                    {
                        "number": 64,
                        "time": 7.799999999999998,
                        "value": 0
                    },
                    {
                        "number": 64,
                        "time": 8.279999999999996,
                        "value": 1
                    },
                    {
                        "number": 64,
                        "time": 9.179999999999993,
                        "value": 0
                    },
                    {
                        "number": 64,
                        "time": 9.239999999999993,
                        "value": 1
                    },
                    {
                        "number": 64,
                        "time": 9.599999999999994,
                        "value": 0
                    },
                    {
                        "number": 64,
                        "time": 10.199999999999996,
                        "value": 1
                    },
                    {
                        "number": 64,
                        "time": 11.039999999999994,
                        "value": 0
                    },
                    {
                        "number": 64,
                        "time": 11.159999999999995,
                        "value": 1
                    },
                    {
                        "number": 64,
                        "time": 11.58,
                        "value": 0
                    },
                    {
                        "number": 64,
                        "time": 11.64,
                        "value": 1
                    },
                    {
                        "number": 64,
                        "time": 13.440000000000007,
                        "value": 0
                    },
                    {
                        "number": 64,
                        "time": 14.040000000000003,
                        "value": 1
                    },
                    {
                        "number": 64,
                        "time": 14.879999999999999,
                        "value": 0
                    },
                    {
                        "number": 64,
                        "time": 15,
                        "value": 1
                    },
                    {
                        "number": 64,
                        "time": 15.36,
                        "value": 0
                    },
                    {
                        "number": 64,
                        "time": 15.959999999999997,
                        "value": 1
                    },
                    {
                        "number": 64,
                        "time": 16.319999999999997,
                        "value": 0
                    },
                    {
                        "number": 64,
                        "time": 16.439999999999994,
                        "value": 1
                    },
                    {
                        "number": 64,
                        "time": 16.799999999999986,
                        "value": 0
                    },
                    {
                        "number": 64,
                        "time": 16.919999999999984,
                        "value": 1
                    },
                    {
                        "number": 64,
                        "time": 17.27999999999998,
                        "value": 0
                    },
                    {
                        "number": 64,
                        "time": 18.35999999999997,
                        "value": 1
                    },
                    {
                        "number": 64,
                        "time": 18.719999999999963,
                        "value": 0
                    },
                    {
                        "number": 64,
                        "time": 18.839999999999964,
                        "value": 1
                    },
                    {
                        "number": 64,
                        "time": 19.199999999999957,
                        "value": 0
                    }
                ],
                "91": [
                    {
                        "number": 91,
                        "time": 0.24,
                        "value": 0.3779527559055118
                    }
                ],
                "93": [
                    {
                        "number": 93,
                        "time": 0.36,
                        "value": 0
                    }
                ],
                "121": [
                    {
                        "number": 121,
                        "time": 0,
                        "value": 0
                    },
                    {
                        "number": 121,
                        "time": 19.439999999999955,
                        "value": 0
                    }
                ]
            },
            "id": 1,
            "name": "Right Hand",
            "instrumentNumber": 0,
            "instrument": "acoustic grand piano",
            "instrumentFamily": "piano",
            "channelNumber": 0,
            "isPercussion": false
        },
        {
            "startTime": 0.484,
            "duration": 19.163999999999973,
            "length": 105,
            "notes": [
                {
                    "name": "B3",
                    "midi": 59,
                    "time": 0.484,
                    "velocity": 0.47244094488188976,
                    "duration": 0.24
                },
                {
                    "name": "F#4",
                    "midi": 66,
                    "time": 0.484,
                    "velocity": 0.47244094488188976,
                    "duration": 0.24
                },
                {
                    "name": "B4",
                    "midi": 71,
                    "time": 0.724,
                    "velocity": 0.47244094488188976,
                    "duration": 0.19999999999999996
                },
                {
                    "name": "B3",
                    "midi": 59,
                    "time": 0.964,
                    "velocity": 0.44881889763779526,
                    "duration": 0.24
                },
                {
                    "name": "F#4",
                    "midi": 66,
                    "time": 0.964,
                    "velocity": 0.44881889763779526,
                    "duration": 0.24
                },
                {
                    "name": "B4",
                    "midi": 71,
                    "time": 1.204,
                    "velocity": 0.4251968503937008,
                    "duration": 0.19999999999999996
                },
                {
                    "name": "B3",
                    "midi": 59,
                    "time": 1.444,
                    "velocity": 0.4015748031496063,
                    "duration": 0.24
                },
                {
                    "name": "F#4",
                    "midi": 66,
                    "time": 1.444,
                    "velocity": 0.4015748031496063,
                    "duration": 0.24
                },
                {
                    "name": "B4",
                    "midi": 71,
                    "time": 1.684,
                    "velocity": 0.3779527559055118,
                    "duration": 0.19999999999999996
                },
                {
                    "name": "B3",
                    "midi": 59,
                    "time": 1.924,
                    "velocity": 0.3543307086614173,
                    "duration": 0.23999999999999977
                },
                {
                    "name": "F#4",
                    "midi": 66,
                    "time": 1.924,
                    "velocity": 0.3543307086614173,
                    "duration": 0.23999999999999977
                },
                {
                    "name": "B4",
                    "midi": 71,
                    "time": 2.1639999999999997,
                    "velocity": 0.3543307086614173,
                    "duration": 0.20000000000000018
                },
                {
                    "name": "B3",
                    "midi": 59,
                    "time": 2.404,
                    "velocity": 0.3543307086614173,
                    "duration": 0.2400000000000002
                },
                {
                    "name": "F#4",
                    "midi": 66,
                    "time": 2.404,
                    "velocity": 0.3543307086614173,
                    "duration": 0.2400000000000002
                },
                {
                    "name": "B4",
                    "midi": 71,
                    "time": 2.644,
                    "velocity": 0.3543307086614173,
                    "duration": 0.20000000000000018
                },
                {
                    "name": "B3",
                    "midi": 59,
                    "time": 2.8840000000000003,
                    "velocity": 0.3543307086614173,
                    "duration": 0.2400000000000002
                },
                {
                    "name": "F#4",
                    "midi": 66,
                    "time": 2.8840000000000003,
                    "velocity": 0.3543307086614173,
                    "duration": 0.2400000000000002
                },
                {
                    "name": "B4",
                    "midi": 71,
                    "time": 3.1240000000000006,
                    "velocity": 0.3543307086614173,
                    "duration": 0.20000000000000018
                },
                {
                    "name": "B3",
                    "midi": 59,
                    "time": 3.3640000000000008,
                    "velocity": 0.3543307086614173,
                    "duration": 0.2400000000000002
                },
                {
                    "name": "F#4",
                    "midi": 66,
                    "time": 3.3640000000000008,
                    "velocity": 0.3543307086614173,
                    "duration": 0.2400000000000002
                },
                {
                    "name": "B4",
                    "midi": 71,
                    "time": 3.604000000000001,
                    "velocity": 0.3543307086614173,
                    "duration": 0.20000000000000018
                },
                {
                    "name": "B3",
                    "midi": 59,
                    "time": 3.844000000000001,
                    "velocity": 0.3543307086614173,
                    "duration": 0.2400000000000002
                },
                {
                    "name": "F#4",
                    "midi": 66,
                    "time": 3.844000000000001,
                    "velocity": 0.3543307086614173,
                    "duration": 0.2400000000000002
                },
                {
                    "name": "B4",
                    "midi": 71,
                    "time": 4.084000000000001,
                    "velocity": 0.3543307086614173,
                    "duration": 0.20000000000000018
                },
                {
                    "name": "B3",
                    "midi": 59,
                    "time": 4.324000000000002,
                    "velocity": 0.3543307086614173,
                    "duration": 0.2400000000000002
                },
                {
                    "name": "F#4",
                    "midi": 66,
                    "time": 4.324000000000002,
                    "velocity": 0.3543307086614173,
                    "duration": 0.2400000000000002
                },
                {
                    "name": "B4",
                    "midi": 71,
                    "time": 4.564000000000002,
                    "velocity": 0.3543307086614173,
                    "duration": 0.20000000000000018
                },
                {
                    "name": "B3",
                    "midi": 59,
                    "time": 4.804000000000002,
                    "velocity": 0.3543307086614173,
                    "duration": 0.2400000000000002
                },
                {
                    "name": "F#4",
                    "midi": 66,
                    "time": 4.804000000000002,
                    "velocity": 0.3543307086614173,
                    "duration": 0.2400000000000002
                },
                {
                    "name": "B4",
                    "midi": 71,
                    "time": 5.044000000000002,
                    "velocity": 0.3543307086614173,
                    "duration": 0.20000000000000018
                },
                {
                    "name": "B3",
                    "midi": 59,
                    "time": 5.2840000000000025,
                    "velocity": 0.3543307086614173,
                    "duration": 0.2400000000000002
                },
                {
                    "name": "F#4",
                    "midi": 66,
                    "time": 5.2840000000000025,
                    "velocity": 0.3543307086614173,
                    "duration": 0.2400000000000002
                },
                {
                    "name": "B4",
                    "midi": 71,
                    "time": 5.524000000000003,
                    "velocity": 0.3543307086614173,
                    "duration": 0.20000000000000018
                },
                {
                    "name": "B3",
                    "midi": 59,
                    "time": 5.764000000000003,
                    "velocity": 0.3543307086614173,
                    "duration": 0.2400000000000002
                },
                {
                    "name": "F#4",
                    "midi": 66,
                    "time": 5.764000000000003,
                    "velocity": 0.3543307086614173,
                    "duration": 0.2400000000000002
                },
                {
                    "name": "B4",
                    "midi": 71,
                    "time": 6.004000000000003,
                    "velocity": 0.3543307086614173,
                    "duration": 0.20000000000000018
                },
                {
                    "name": "B3",
                    "midi": 59,
                    "time": 6.244000000000003,
                    "velocity": 0.49606299212598426,
                    "duration": 0.2400000000000002
                },
                {
                    "name": "G4",
                    "midi": 67,
                    "time": 6.244000000000003,
                    "velocity": 0.49606299212598426,
                    "duration": 0.2400000000000002
                },
                {
                    "name": "B4",
                    "midi": 71,
                    "time": 6.4840000000000035,
                    "velocity": 0.3543307086614173,
                    "duration": 0.2400000000000002
                },
                {
                    "name": "B3",
                    "midi": 59,
                    "time": 6.724000000000004,
                    "velocity": 0.3543307086614173,
                    "duration": 0.2400000000000002
                },
                {
                    "name": "G4",
                    "midi": 67,
                    "time": 6.724000000000004,
                    "velocity": 0.3543307086614173,
                    "duration": 0.2400000000000002
                },
                {
                    "name": "B4",
                    "midi": 71,
                    "time": 6.964000000000004,
                    "velocity": 0.3543307086614173,
                    "duration": 0.2400000000000002
                },
                {
                    "name": "B3",
                    "midi": 59,
                    "time": 7.204000000000004,
                    "velocity": 0.3543307086614173,
                    "duration": 0.2400000000000002
                },
                {
                    "name": "G4",
                    "midi": 67,
                    "time": 7.204000000000004,
                    "velocity": 0.3543307086614173,
                    "duration": 0.2400000000000002
                },
                {
                    "name": "B4",
                    "midi": 71,
                    "time": 7.444000000000004,
                    "velocity": 0.3543307086614173,
                    "duration": 0.2400000000000002
                },
                {
                    "name": "B3",
                    "midi": 59,
                    "time": 7.684000000000005,
                    "velocity": 0.3543307086614173,
                    "duration": 0.2400000000000002
                },
                {
                    "name": "G4",
                    "midi": 67,
                    "time": 7.684000000000005,
                    "velocity": 0.3543307086614173,
                    "duration": 0.2400000000000002
                },
                {
                    "name": "B4",
                    "midi": 71,
                    "time": 7.924000000000005,
                    "velocity": 0.3543307086614173,
                    "duration": 0.1999999999999993
                },
                {
                    "name": "B3",
                    "midi": 59,
                    "time": 8.164000000000003,
                    "velocity": 0.5275590551181102,
                    "duration": 0.2400000000000002
                },
                {
                    "name": "G4",
                    "midi": 67,
                    "time": 8.164000000000003,
                    "velocity": 0.5275590551181102,
                    "duration": 0.2400000000000002
                },
                {
                    "name": "B4",
                    "midi": 71,
                    "time": 8.404000000000003,
                    "velocity": 0.4015748031496063,
                    "duration": 0.2400000000000002
                },
                {
                    "name": "B3",
                    "midi": 59,
                    "time": 8.644000000000004,
                    "velocity": 0.4251968503937008,
                    "duration": 0.2400000000000002
                },
                {
                    "name": "G4",
                    "midi": 67,
                    "time": 8.644000000000004,
                    "velocity": 0.4251968503937008,
                    "duration": 0.2400000000000002
                },
                {
                    "name": "B4",
                    "midi": 71,
                    "time": 8.884000000000004,
                    "velocity": 0.44881889763779526,
                    "duration": 0.2400000000000002
                },
                {
                    "name": "B3",
                    "midi": 59,
                    "time": 9.124000000000004,
                    "velocity": 0.47244094488188976,
                    "duration": 0.2400000000000002
                },
                {
                    "name": "G4",
                    "midi": 67,
                    "time": 9.124000000000004,
                    "velocity": 0.47244094488188976,
                    "duration": 0.2400000000000002
                },
                {
                    "name": "B4",
                    "midi": 71,
                    "time": 9.364000000000004,
                    "velocity": 0.47244094488188976,
                    "duration": 0.1999999999999993
                },
                {
                    "name": "D4",
                    "midi": 62,
                    "time": 10.084000000000003,
                    "velocity": 0.47244094488188976,
                    "duration": 0.2400000000000002
                },
                {
                    "name": "A4",
                    "midi": 69,
                    "time": 10.084000000000003,
                    "velocity": 0.47244094488188976,
                    "duration": 0.2400000000000002
                },
                {
                    "name": "D5",
                    "midi": 74,
                    "time": 10.324000000000003,
                    "velocity": 0.47244094488188976,
                    "duration": 0.1999999999999993
                },
                {
                    "name": "D4",
                    "midi": 62,
                    "time": 10.564000000000002,
                    "velocity": 0.47244094488188976,
                    "duration": 0.2400000000000002
                },
                {
                    "name": "A4",
                    "midi": 69,
                    "time": 10.564000000000002,
                    "velocity": 0.47244094488188976,
                    "duration": 0.2400000000000002
                },
                {
                    "name": "D5",
                    "midi": 74,
                    "time": 10.804000000000002,
                    "velocity": 0.47244094488188976,
                    "duration": 0.1999999999999993
                },
                {
                    "name": "D4",
                    "midi": 62,
                    "time": 11.044,
                    "velocity": 0.6614173228346457,
                    "duration": 0.2400000000000002
                },
                {
                    "name": "G#4",
                    "midi": 68,
                    "time": 11.044,
                    "velocity": 0.6614173228346457,
                    "duration": 0.2400000000000002
                },
                {
                    "name": "D5",
                    "midi": 74,
                    "time": 11.284,
                    "velocity": 0.47244094488188976,
                    "duration": 0.1999999999999993
                },
                {
                    "name": "D4",
                    "midi": 62,
                    "time": 11.524,
                    "velocity": 0.47244094488188976,
                    "duration": 0.2400000000000002
                },
                {
                    "name": "A4",
                    "midi": 69,
                    "time": 11.524,
                    "velocity": 0.47244094488188976,
                    "duration": 0.2400000000000002
                },
                {
                    "name": "D5",
                    "midi": 74,
                    "time": 11.764,
                    "velocity": 0.47244094488188976,
                    "duration": 0.1999999999999993
                },
                {
                    "name": "D4",
                    "midi": 62,
                    "time": 12.003999999999998,
                    "velocity": 0.47244094488188976,
                    "duration": 0.2400000000000002
                },
                {
                    "name": "A4",
                    "midi": 69,
                    "time": 12.003999999999998,
                    "velocity": 0.47244094488188976,
                    "duration": 0.2400000000000002
                },
                {
                    "name": "D5",
                    "midi": 74,
                    "time": 12.243999999999998,
                    "velocity": 0.47244094488188976,
                    "duration": 0.1999999999999993
                },
                {
                    "name": "D4",
                    "midi": 62,
                    "time": 12.483999999999996,
                    "velocity": 0.47244094488188976,
                    "duration": 0.2400000000000002
                },
                {
                    "name": "A4",
                    "midi": 69,
                    "time": 12.483999999999996,
                    "velocity": 0.47244094488188976,
                    "duration": 0.2400000000000002
                },
                {
                    "name": "D5",
                    "midi": 74,
                    "time": 12.723999999999997,
                    "velocity": 0.47244094488188976,
                    "duration": 0.1999999999999993
                },
                {
                    "name": "D4",
                    "midi": 62,
                    "time": 12.963999999999995,
                    "velocity": 0.47244094488188976,
                    "duration": 0.2400000000000002
                },
                {
                    "name": "G#4",
                    "midi": 68,
                    "time": 12.963999999999995,
                    "velocity": 0.47244094488188976,
                    "duration": 0.2400000000000002
                },
                {
                    "name": "C#5",
                    "midi": 73,
                    "time": 13.203999999999995,
                    "velocity": 0.47244094488188976,
                    "duration": 0.1999999999999993
                },
                {
                    "name": "C#4",
                    "midi": 61,
                    "time": 13.923999999999994,
                    "velocity": 0.49606299212598426,
                    "duration": 0.2400000000000002
                },
                {
                    "name": "F#4",
                    "midi": 66,
                    "time": 13.923999999999994,
                    "velocity": 0.49606299212598426,
                    "duration": 0.2400000000000002
                },
                {
                    "name": "B4",
                    "midi": 71,
                    "time": 14.163999999999994,
                    "velocity": 0.3543307086614173,
                    "duration": 0.1999999999999993
                },
                {
                    "name": "C#4",
                    "midi": 61,
                    "time": 14.403999999999993,
                    "velocity": 0.3543307086614173,
                    "duration": 0.2400000000000002
                },
                {
                    "name": "F#4",
                    "midi": 66,
                    "time": 14.403999999999993,
                    "velocity": 0.3543307086614173,
                    "duration": 0.2400000000000002
                },
                {
                    "name": "B4",
                    "midi": 71,
                    "time": 14.643999999999993,
                    "velocity": 0.3543307086614173,
                    "duration": 0.1999999999999993
                },
                {
                    "name": "C#4",
                    "midi": 61,
                    "time": 14.883999999999991,
                    "velocity": 0.3543307086614173,
                    "duration": 0.2400000000000002
                },
                {
                    "name": "F4",
                    "midi": 65,
                    "time": 14.883999999999991,
                    "velocity": 0.3543307086614173,
                    "duration": 0.2400000000000002
                },
                {
                    "name": "B4",
                    "midi": 71,
                    "time": 15.123999999999992,
                    "velocity": 0.3543307086614173,
                    "duration": 0.1999999999999993
                },
                {
                    "name": "A3",
                    "midi": 57,
                    "time": 15.84399999999999,
                    "velocity": 0.3543307086614173,
                    "duration": 0.23999999999999844
                },
                {
                    "name": "E4",
                    "midi": 64,
                    "time": 15.84399999999999,
                    "velocity": 0.3543307086614173,
                    "duration": 0.23999999999999844
                },
                {
                    "name": "A4",
                    "midi": 69,
                    "time": 16.08399999999999,
                    "velocity": 0.3543307086614173,
                    "duration": 0.1999999999999993
                },
                {
                    "name": "G#3",
                    "midi": 56,
                    "time": 16.323999999999987,
                    "velocity": 0.3543307086614173,
                    "duration": 0.23999999999999844
                },
                {
                    "name": "E4",
                    "midi": 64,
                    "time": 16.323999999999987,
                    "velocity": 0.3543307086614173,
                    "duration": 0.23999999999999844
                },
                {
                    "name": "G#4",
                    "midi": 68,
                    "time": 16.563999999999986,
                    "velocity": 0.3543307086614173,
                    "duration": 0.1999999999999993
                },
                {
                    "name": "G3",
                    "midi": 55,
                    "time": 16.803999999999984,
                    "velocity": 0.3543307086614173,
                    "duration": 0.23999999999999844
                },
                {
                    "name": "D4",
                    "midi": 62,
                    "time": 16.803999999999984,
                    "velocity": 0.3543307086614173,
                    "duration": 0.23999999999999844
                },
                {
                    "name": "G4",
                    "midi": 67,
                    "time": 17.043999999999983,
                    "velocity": 0.3543307086614173,
                    "duration": 0.1999999999999993
                },
                {
                    "name": "D3",
                    "midi": 50,
                    "time": 17.76399999999998,
                    "velocity": 0.3543307086614173,
                    "duration": 0.23999999999999844
                },
                {
                    "name": "A3",
                    "midi": 57,
                    "time": 17.76399999999998,
                    "velocity": 0.3543307086614173,
                    "duration": 0.23999999999999844
                },
                {
                    "name": "D4",
                    "midi": 62,
                    "time": 18.00399999999998,
                    "velocity": 0.3543307086614173,
                    "duration": 0.1999999999999993
                },
                {
                    "name": "C#3",
                    "midi": 49,
                    "time": 18.24399999999998,
                    "velocity": 0.3543307086614173,
                    "duration": 0.23999999999999844
                },
                {
                    "name": "G#3",
                    "midi": 56,
                    "time": 18.24399999999998,
                    "velocity": 0.3543307086614173,
                    "duration": 0.23999999999999844
                },
                {
                    "name": "C#4",
                    "midi": 61,
                    "time": 18.483999999999977,
                    "velocity": 0.3543307086614173,
                    "duration": 0.1999999999999993
                },
                {
                    "name": "B2",
                    "midi": 47,
                    "time": 18.723999999999975,
                    "velocity": 0.3543307086614173,
                    "duration": 0.23999999999999844
                },
                {
                    "name": "F#3",
                    "midi": 54,
                    "time": 18.723999999999975,
                    "velocity": 0.3543307086614173,
                    "duration": 0.23999999999999844
                },
                {
                    "name": "B3",
                    "midi": 59,
                    "time": 18.963999999999974,
                    "velocity": 0.3543307086614173,
                    "duration": 0.1999999999999993
                }
            ],
            "controlChanges": {
                "7": [
                    {
                        "number": 7,
                        "time": 0,
                        "value": 1
                    }
                ],
                "10": [
                    {
                        "number": 10,
                        "time": 0,
                        "value": 0.25196850393700787
                    }
                ],
                "64": [
                    {
                        "number": 64,
                        "time": 0.484,
                        "value": 1
                    },
                    {
                        "number": 64,
                        "time": 6.004000000000003,
                        "value": 0
                    },
                    {
                        "number": 64,
                        "time": 6.4840000000000035,
                        "value": 1
                    },
                    {
                        "number": 64,
                        "time": 7.924000000000005,
                        "value": 0
                    },
                    {
                        "number": 64,
                        "time": 8.404000000000003,
                        "value": 1
                    },
                    {
                        "number": 64,
                        "time": 9.604000000000003,
                        "value": 0
                    },
                    {
                        "number": 64,
                        "time": 10.324000000000003,
                        "value": 1
                    },
                    {
                        "number": 64,
                        "time": 11.044,
                        "value": 0
                    },
                    {
                        "number": 64,
                        "time": 11.284,
                        "value": 1
                    },
                    {
                        "number": 64,
                        "time": 12.963999999999995,
                        "value": 0
                    },
                    {
                        "number": 64,
                        "time": 13.203999999999995,
                        "value": 1
                    },
                    {
                        "number": 64,
                        "time": 13.443999999999994,
                        "value": 0
                    },
                    {
                        "number": 64,
                        "time": 14.163999999999994,
                        "value": 1
                    },
                    {
                        "number": 64,
                        "time": 14.883999999999991,
                        "value": 0
                    },
                    {
                        "number": 64,
                        "time": 15.123999999999992,
                        "value": 1
                    },
                    {
                        "number": 64,
                        "time": 15.36399999999999,
                        "value": 0
                    },
                    {
                        "number": 64,
                        "time": 16.08399999999999,
                        "value": 1
                    },
                    {
                        "number": 64,
                        "time": 16.323999999999987,
                        "value": 0
                    },
                    {
                        "number": 64,
                        "time": 16.563999999999986,
                        "value": 1
                    },
                    {
                        "number": 64,
                        "time": 16.803999999999984,
                        "value": 0
                    },
                    {
                        "number": 64,
                        "time": 17.043999999999983,
                        "value": 1
                    },
                    {
                        "number": 64,
                        "time": 17.28399999999998,
                        "value": 0
                    },
                    {
                        "number": 64,
                        "time": 18.483999999999977,
                        "value": 1
                    },
                    {
                        "number": 64,
                        "time": 18.723999999999975,
                        "value": 0
                    },
                    {
                        "number": 64,
                        "time": 18.963999999999974,
                        "value": 1
                    },
                    {
                        "number": 64,
                        "time": 19.203999999999972,
                        "value": 0
                    }
                ],
                "91": [
                    {
                        "number": 91,
                        "time": 0.244,
                        "value": 0.3779527559055118
                    }
                ],
                "93": [
                    {
                        "number": 93,
                        "time": 0.364,
                        "value": 0
                    }
                ],
                "121": [
                    {
                        "number": 121,
                        "time": 0.004,
                        "value": 0
                    },
                    {
                        "number": 121,
                        "time": 19.44399999999997,
                        "value": 0
                    }
                ]
            },
            "id": 2,
            "name": "Left Hand",
            "instrumentNumber": 0,
            "instrument": "acoustic grand piano",
            "instrumentFamily": "piano",
            "channelNumber": 1,
            "isPercussion": false
        },
        {
            "startTime": 0,
            "duration": 0,
            "length": 0,
            "notes": [],
            "controlChanges": {},
            "id": 3,
            "name": "Roumanian Folk Dances (1918)"
        },
        {
            "startTime": 0,
            "duration": 0,
            "length": 0,
            "notes": [],
            "controlChanges": {},
            "id": 4,
            "name": "3. Der Stampfer"
        },
        {
            "startTime": 0,
            "duration": 0,
            "length": 0,
            "notes": [],
            "controlChanges": {},
            "id": 5,
            "name": "Bela Bartok (1881-1945)"
        },
        {
            "startTime": 0,
            "duration": 0,
            "length": 0,
            "notes": [],
            "controlChanges": {},
            "id": 6,
            "name": "seq (c) 1998 by Ramon Pajares Box"
        },
        {
            "startTime": 0,
            "duration": 0,
            "length": 0,
            "notes": [],
            "controlChanges": {},
            "id": 7,
            "name": "rpajares@nilsl.net"
        },
        {
            "startTime": 0,
            "duration": 0,
            "length": 0,
            "notes": [],
            "controlChanges": {},
            "id": 8
        }
    ]
}