{
    "header": {
        "PPQ": 480,
        "timeSignature": [
            6,
            4
        ],
        "bpm": 96,
        "name": "gershwin an american in paris part4 of 4"
    },
    "startTime": 0,
    "duration": 795.625,
    "tracks": [
        {
            "startTime": 0,
            "duration": 0,
            "length": 0,
            "notes": [],
            "controlChanges": {},
            "id": 0,
            "name": "gershwin an american in paris part4 of 4"
        },
        {
            "startTime": 0.625,
            "duration": 791.25,
            "length": 4193,
            "notes": [
                {
                    "name": "F3",
                    "midi": 53,
                    "time": 0.625,
                    "velocity": 0.7952755905511811,
                    "duration": 0.06119791666666663
                },
                {
                    "name": "A#3",
                    "midi": 58,
                    "time": 0.625,
                    "velocity": 0.7952755905511811,
                    "duration": 0.06119791666666663
                },
                {
                    "name": "D4",
                    "midi": 62,
                    "time": 0.625,
                    "velocity": 0.7952755905511811,
                    "duration": 0.06119791666666663
                },
                {
                    "name": "F4",
                    "midi": 65,
                    "time": 0.625,
                    "velocity": 0.7952755905511811,
                    "duration": 0.06119791666666663
                },
                {
                    "name": "B3",
                    "midi": 59,
                    "time": 1.875,
                    "velocity": 0.7952755905511811,
                    "duration": 0.06119791666666674
                },
                {
                    "name": "D#4",
                    "midi": 63,
                    "time": 1.875,
                    "velocity": 0.7952755905511811,
                    "duration": 0.06119791666666674
                },
                {
                    "name": "F4",
                    "midi": 65,
                    "time": 1.875,
                    "velocity": 0.7952755905511811,
                    "duration": 0.06119791666666674
                },
                {
                    "name": "G#4",
                    "midi": 68,
                    "time": 1.875,
                    "velocity": 0.7952755905511811,
                    "duration": 0.06119791666666674
                },
                {
                    "name": "A#3",
                    "midi": 58,
                    "time": 2.8125,
                    "velocity": 0.5905511811023622,
                    "duration": 0.06119791666666652
                },
                {
                    "name": "C4",
                    "midi": 60,
                    "time": 2.8125,
                    "velocity": 0.5905511811023622,
                    "duration": 0.06119791666666652
                },
                {
                    "name": "D#4",
                    "midi": 63,
                    "time": 2.8125,
                    "velocity": 0.5905511811023622,
                    "duration": 0.06119791666666652
                },
                {
                    "name": "G4",
                    "midi": 67,
                    "time": 2.8125,
                    "velocity": 0.5905511811023622,
                    "duration": 0.06119791666666652
                },
                {
                    "name": "G3",
                    "midi": 55,
                    "time": 3.4375,
                    "velocity": 0.5905511811023622,
                    "duration": 0.06119791666666652
                },
                {
                    "name": "A#3",
                    "midi": 58,
                    "time": 3.4375,
                    "velocity": 0.5905511811023622,
                    "duration": 0.06119791666666652
                },
                {
                    "name": "D4",
                    "midi": 62,
                    "time": 3.4375,
                    "velocity": 0.5905511811023622,
                    "duration": 0.06119791666666652
                },
                {
                    "name": "F4",
                    "midi": 65,
                    "time": 3.4375,
                    "velocity": 0.5905511811023622,
                    "duration": 0.06119791666666652
                },
                {
                    "name": "F#3",
                    "midi": 54,
                    "time": 4.0625,
                    "velocity": 0.5905511811023622,
                    "duration": 0.06119791666666696
                },
                {
                    "name": "A#3",
                    "midi": 58,
                    "time": 4.0625,
                    "velocity": 0.5905511811023622,
                    "duration": 0.06119791666666696
                },
                {
                    "name": "C4",
                    "midi": 60,
                    "time": 4.0625,
                    "velocity": 0.5905511811023622,
                    "duration": 0.06119791666666696
                },
                {
                    "name": "D#4",
                    "midi": 63,
                    "time": 4.0625,
                    "velocity": 0.5905511811023622,
                    "duration": 0.06119791666666696
                },
                {
                    "name": "D#3",
                    "midi": 51,
                    "time": 4.6875,
                    "velocity": 0.5905511811023622,
                    "duration": 0.06119791666666696
                },
                {
                    "name": "G3",
                    "midi": 55,
                    "time": 4.6875,
                    "velocity": 0.5905511811023622,
                    "duration": 0.06119791666666696
                },
                {
                    "name": "A3",
                    "midi": 57,
                    "time": 4.6875,
                    "velocity": 0.5905511811023622,
                    "duration": 0.06119791666666696
                },
                {
                    "name": "D4",
                    "midi": 62,
                    "time": 4.6875,
                    "velocity": 0.5905511811023622,
                    "duration": 0.06119791666666696
                },
                {
                    "name": "F3",
                    "midi": 53,
                    "time": 5.625,
                    "velocity": 0.7952755905511811,
                    "duration": 0.06119791666666696
                },
                {
                    "name": "A#3",
                    "midi": 58,
                    "time": 5.625,
                    "velocity": 0.7952755905511811,
                    "duration": 0.06119791666666696
                },
                {
                    "name": "D4",
                    "midi": 62,
                    "time": 5.625,
                    "velocity": 0.7952755905511811,
                    "duration": 0.06119791666666696
                },
                {
                    "name": "F4",
                    "midi": 65,
                    "time": 5.625,
                    "velocity": 0.7952755905511811,
                    "duration": 0.06119791666666696
                },
                {
                    "name": "B3",
                    "midi": 59,
                    "time": 6.875,
                    "velocity": 0.7952755905511811,
                    "duration": 0.06119791666666696
                },
                {
                    "name": "D#4",
                    "midi": 63,
                    "time": 6.875,
                    "velocity": 0.7952755905511811,
                    "duration": 0.06119791666666696
                },
                {
                    "name": "F4",
                    "midi": 65,
                    "time": 6.875,
                    "velocity": 0.7952755905511811,
                    "duration": 0.06119791666666696
                },
                {
                    "name": "G#4",
                    "midi": 68,
                    "time": 6.875,
                    "velocity": 0.7952755905511811,
                    "duration": 0.06119791666666696
                },
                {
                    "name": "A#3",
                    "midi": 58,
                    "time": 7.8125,
                    "velocity": 0.5905511811023622,
                    "duration": 0.06119791666666696
                },
                {
                    "name": "C4",
                    "midi": 60,
                    "time": 7.8125,
                    "velocity": 0.5905511811023622,
                    "duration": 0.06119791666666696
                },
                {
                    "name": "D#4",
                    "midi": 63,
                    "time": 7.8125,
                    "velocity": 0.5905511811023622,
                    "duration": 0.06119791666666696
                },
                {
                    "name": "G4",
                    "midi": 67,
                    "time": 7.8125,
                    "velocity": 0.5905511811023622,
                    "duration": 0.06119791666666696
                },
                {
                    "name": "G3",
                    "midi": 55,
                    "time": 8.4375,
                    "velocity": 0.5905511811023622,
                    "duration": 0.061197916666666075
                },
                {
                    "name": "A#3",
                    "midi": 58,
                    "time": 8.4375,
                    "velocity": 0.5905511811023622,
                    "duration": 0.061197916666666075
                },
                {
                    "name": "D4",
                    "midi": 62,
                    "time": 8.4375,
                    "velocity": 0.5905511811023622,
                    "duration": 0.061197916666666075
                },
                {
                    "name": "F4",
                    "midi": 65,
                    "time": 8.4375,
                    "velocity": 0.5905511811023622,
                    "duration": 0.061197916666666075
                },
                {
                    "name": "F#3",
                    "midi": 54,
                    "time": 9.0625,
                    "velocity": 0.5905511811023622,
                    "duration": 0.061197916666666075
                },
                {
                    "name": "A#3",
                    "midi": 58,
                    "time": 9.0625,
                    "velocity": 0.5905511811023622,
                    "duration": 0.061197916666666075
                },
                {
                    "name": "C4",
                    "midi": 60,
                    "time": 9.0625,
                    "velocity": 0.5905511811023622,
                    "duration": 0.061197916666666075
                },
                {
                    "name": "D#4",
                    "midi": 63,
                    "time": 9.0625,
                    "velocity": 0.5905511811023622,
                    "duration": 0.061197916666666075
                },
                {
                    "name": "D#3",
                    "midi": 51,
                    "time": 9.6875,
                    "velocity": 0.5905511811023622,
                    "duration": 0.061197916666666075
                },
                {
                    "name": "G3",
                    "midi": 55,
                    "time": 9.6875,
                    "velocity": 0.5905511811023622,
                    "duration": 0.061197916666666075
                },
                {
                    "name": "A3",
                    "midi": 57,
                    "time": 9.6875,
                    "velocity": 0.5905511811023622,
                    "duration": 0.061197916666666075
                },
                {
                    "name": "D4",
                    "midi": 62,
                    "time": 9.6875,
                    "velocity": 0.5905511811023622,
                    "duration": 0.061197916666666075
                },
                {
                    "name": "F3",
                    "midi": 53,
                    "time": 10.625,
                    "velocity": 0.4881889763779528,
                    "duration": 0.061197916666666075
                },
                {
                    "name": "A#3",
                    "midi": 58,
                    "time": 10.625,
                    "velocity": 0.4881889763779528,
                    "duration": 0.061197916666666075
                },
                {
                    "name": "D4",
                    "midi": 62,
                    "time": 10.625,
                    "velocity": 0.4881889763779528,
                    "duration": 0.061197916666666075
                },
                {
                    "name": "F4",
                    "midi": 65,
                    "time": 10.625,
                    "velocity": 0.4881889763779528,
                    "duration": 0.061197916666666075
                },
                {
                    "name": "B3",
                    "midi": 59,
                    "time": 11.875,
                    "velocity": 0.5905511811023622,
                    "duration": 0.061197916666666075
                },
                {
                    "name": "D#4",
                    "midi": 63,
                    "time": 11.875,
                    "velocity": 0.5905511811023622,
                    "duration": 0.061197916666666075
                },
                {
                    "name": "F4",
                    "midi": 65,
                    "time": 11.875,
                    "velocity": 0.5905511811023622,
                    "duration": 0.061197916666666075
                },
                {
                    "name": "G#4",
                    "midi": 68,
                    "time": 11.875,
                    "velocity": 0.5905511811023622,
                    "duration": 0.061197916666666075
                },
                {
                    "name": "A#3",
                    "midi": 58,
                    "time": 12.8125,
                    "velocity": 0.5905511811023622,
                    "duration": 0.3125
                },
                {
                    "name": "C4",
                    "midi": 60,
                    "time": 12.8125,
                    "velocity": 0.5905511811023622,
                    "duration": 0.3125
                },
                {
                    "name": "D#4",
                    "midi": 63,
                    "time": 12.8125,
                    "velocity": 0.5905511811023622,
                    "duration": 0.3125
                },
                {
                    "name": "G4",
                    "midi": 67,
                    "time": 12.8125,
                    "velocity": 0.5905511811023622,
                    "duration": 0.3125
                },
                {
                    "name": "G3",
                    "midi": 55,
                    "time": 13.4375,
                    "velocity": 0.4881889763779528,
                    "duration": 0.3125
                },
                {
                    "name": "A#3",
                    "midi": 58,
                    "time": 13.4375,
                    "velocity": 0.4881889763779528,
                    "duration": 0.3125
                },
                {
                    "name": "D4",
                    "midi": 62,
                    "time": 13.4375,
                    "velocity": 0.4881889763779528,
                    "duration": 0.3125
                },
                {
                    "name": "F4",
                    "midi": 65,
                    "time": 13.4375,
                    "velocity": 0.4881889763779528,
                    "duration": 0.3125
                },
                {
                    "name": "F#3",
                    "midi": 54,
                    "time": 14.0625,
                    "velocity": 0.4881889763779528,
                    "duration": 0.3125
                },
                {
                    "name": "A#3",
                    "midi": 58,
                    "time": 14.0625,
                    "velocity": 0.4881889763779528,
                    "duration": 0.3125
                },
                {
                    "name": "C4",
                    "midi": 60,
                    "time": 14.0625,
                    "velocity": 0.4881889763779528,
                    "duration": 0.3125
                },
                {
                    "name": "D#4",
                    "midi": 63,
                    "time": 14.0625,
                    "velocity": 0.4881889763779528,
                    "duration": 0.3125
                },
                {
                    "name": "D#3",
                    "midi": 51,
                    "time": 14.6875,
                    "velocity": 0.4881889763779528,
                    "duration": 0.3125
                },
                {
                    "name": "G3",
                    "midi": 55,
                    "time": 14.6875,
                    "velocity": 0.4881889763779528,
                    "duration": 0.3125
                },
                {
                    "name": "A3",
                    "midi": 57,
                    "time": 14.6875,
                    "velocity": 0.4881889763779528,
                    "duration": 0.3125
                },
                {
                    "name": "D4",
                    "midi": 62,
                    "time": 14.6875,
                    "velocity": 0.4881889763779528,
                    "duration": 0.3125
                },
                {
                    "name": "F3",
                    "midi": 53,
                    "time": 15.625,
                    "velocity": 0.4881889763779528,
                    "duration": 0.061197916666666075
                },
                {
                    "name": "A#3",
                    "midi": 58,
                    "time": 15.625,
                    "velocity": 0.4881889763779528,
                    "duration": 0.061197916666666075
                },
                {
                    "name": "D4",
                    "midi": 62,
                    "time": 15.625,
                    "velocity": 0.4881889763779528,
                    "duration": 0.061197916666666075
                },
                {
                    "name": "F4",
                    "midi": 65,
                    "time": 15.625,
                    "velocity": 0.4881889763779528,
                    "duration": 0.061197916666666075
                },
                {
                    "name": "B3",
                    "midi": 59,
                    "time": 16.875,
                    "velocity": 0.5905511811023622,
                    "duration": 0.06119791666666785
                },
                {
                    "name": "D#4",
                    "midi": 63,
                    "time": 16.875,
                    "velocity": 0.5905511811023622,
                    "duration": 0.06119791666666785
                },
                {
                    "name": "F4",
                    "midi": 65,
                    "time": 16.875,
                    "velocity": 0.5905511811023622,
                    "duration": 0.06119791666666785
                },
                {
                    "name": "G#4",
                    "midi": 68,
                    "time": 16.875,
                    "velocity": 0.5905511811023622,
                    "duration": 0.06119791666666785
                },
                {
                    "name": "A#3",
                    "midi": 58,
                    "time": 17.8125,
                    "velocity": 0.5905511811023622,
                    "duration": 0.3125
                },
                {
                    "name": "C4",
                    "midi": 60,
                    "time": 17.8125,
                    "velocity": 0.5905511811023622,
                    "duration": 0.3125
                },
                {
                    "name": "D#4",
                    "midi": 63,
                    "time": 17.8125,
                    "velocity": 0.5905511811023622,
                    "duration": 0.3125
                },
                {
                    "name": "G4",
                    "midi": 67,
                    "time": 17.8125,
                    "velocity": 0.5905511811023622,
                    "duration": 0.3125
                },
                {
                    "name": "G3",
                    "midi": 55,
                    "time": 18.4375,
                    "velocity": 0.4881889763779528,
                    "duration": 0.3125
                },
                {
                    "name": "A#3",
                    "midi": 58,
                    "time": 18.4375,
                    "velocity": 0.4881889763779528,
                    "duration": 0.3125
                },
                {
                    "name": "D4",
                    "midi": 62,
                    "time": 18.4375,
                    "velocity": 0.4881889763779528,
                    "duration": 0.3125
                },
                {
                    "name": "F4",
                    "midi": 65,
                    "time": 18.4375,
                    "velocity": 0.4881889763779528,
                    "duration": 0.3125
                },
                {
                    "name": "F#3",
                    "midi": 54,
                    "time": 19.0625,
                    "velocity": 0.4881889763779528,
                    "duration": 0.3125
                },
                {
                    "name": "A#3",
                    "midi": 58,
                    "time": 19.0625,
                    "velocity": 0.4881889763779528,
                    "duration": 0.3125
                },
                {
                    "name": "C4",
                    "midi": 60,
                    "time": 19.0625,
                    "velocity": 0.4881889763779528,
                    "duration": 0.3125
                },
                {
                    "name": "D#4",
                    "midi": 63,
                    "time": 19.0625,
                    "velocity": 0.4881889763779528,
                    "duration": 0.3125
                },
                {
                    "name": "D#3",
                    "midi": 51,
                    "time": 19.6875,
                    "velocity": 0.4881889763779528,
                    "duration": 0.3125
                },
                {
                    "name": "G3",
                    "midi": 55,
                    "time": 19.6875,
                    "velocity": 0.4881889763779528,
                    "duration": 0.3125
                },
                {
                    "name": "A3",
                    "midi": 57,
                    "time": 19.6875,
                    "velocity": 0.4881889763779528,
                    "duration": 0.3125
                },
                {
                    "name": "D4",
                    "midi": 62,
                    "time": 19.6875,
                    "velocity": 0.4881889763779528,
                    "duration": 0.3125
                },
                {
                    "name": "F3",
                    "midi": 53,
                    "time": 20.625,
                    "velocity": 0.4881889763779528,
                    "duration": 0.06119791666666785
                },
                {
                    "name": "A#3",
                    "midi": 58,
                    "time": 20.625,
                    "velocity": 0.4881889763779528,
                    "duration": 0.06119791666666785
                },
                {
                    "name": "D4",
                    "midi": 62,
                    "time": 20.625,
                    "velocity": 0.4881889763779528,
                    "duration": 0.06119791666666785
                },
                {
                    "name": "F4",
                    "midi": 65,
                    "time": 20.625,
                    "velocity": 0.4881889763779528,
                    "duration": 0.06119791666666785
                },
                {
                    "name": "B3",
                    "midi": 59,
                    "time": 21.875,
                    "velocity": 0.5905511811023622,
                    "duration": 0.06119791666666785
                },
                {
                    "name": "D#4",
                    "midi": 63,
                    "time": 21.875,
                    "velocity": 0.5905511811023622,
                    "duration": 0.06119791666666785
                },
                {
                    "name": "F4",
                    "midi": 65,
                    "time": 21.875,
                    "velocity": 0.5905511811023622,
                    "duration": 0.06119791666666785
                },
                {
                    "name": "G#4",
                    "midi": 68,
                    "time": 21.875,
                    "velocity": 0.5905511811023622,
                    "duration": 0.06119791666666785
                },
                {
                    "name": "A#3",
                    "midi": 58,
                    "time": 22.8125,
                    "velocity": 0.5905511811023622,
                    "duration": 0.3125
                },
                {
                    "name": "C4",
                    "midi": 60,
                    "time": 22.8125,
                    "velocity": 0.5905511811023622,
                    "duration": 0.3125
                },
                {
                    "name": "D#4",
                    "midi": 63,
                    "time": 22.8125,
                    "velocity": 0.5905511811023622,
                    "duration": 0.3125
                },
                {
                    "name": "G4",
                    "midi": 67,
                    "time": 22.8125,
                    "velocity": 0.5905511811023622,
                    "duration": 0.3125
                },
                {
                    "name": "G3",
                    "midi": 55,
                    "time": 23.4375,
                    "velocity": 0.4881889763779528,
                    "duration": 0.3125
                },
                {
                    "name": "A#3",
                    "midi": 58,
                    "time": 23.4375,
                    "velocity": 0.4881889763779528,
                    "duration": 0.3125
                },
                {
                    "name": "D4",
                    "midi": 62,
                    "time": 23.4375,
                    "velocity": 0.4881889763779528,
                    "duration": 0.3125
                },
                {
                    "name": "F4",
                    "midi": 65,
                    "time": 23.4375,
                    "velocity": 0.4881889763779528,
                    "duration": 0.3125
                },
                {
                    "name": "F#3",
                    "midi": 54,
                    "time": 24.0625,
                    "velocity": 0.4881889763779528,
                    "duration": 0.3125
                },
                {
                    "name": "A#3",
                    "midi": 58,
                    "time": 24.0625,
                    "velocity": 0.4881889763779528,
                    "duration": 0.3125
                },
                {
                    "name": "C4",
                    "midi": 60,
                    "time": 24.0625,
                    "velocity": 0.4881889763779528,
                    "duration": 0.3125
                },
                {
                    "name": "D#4",
                    "midi": 63,
                    "time": 24.0625,
                    "velocity": 0.4881889763779528,
                    "duration": 0.3125
                },
                {
                    "name": "D#3",
                    "midi": 51,
                    "time": 24.6875,
                    "velocity": 0.4881889763779528,
                    "duration": 0.3125
                },
                {
                    "name": "G3",
                    "midi": 55,
                    "time": 24.6875,
                    "velocity": 0.4881889763779528,
                    "duration": 0.3125
                },
                {
                    "name": "A3",
                    "midi": 57,
                    "time": 24.6875,
                    "velocity": 0.4881889763779528,
                    "duration": 0.3125
                },
                {
                    "name": "D4",
                    "midi": 62,
                    "time": 24.6875,
                    "velocity": 0.4881889763779528,
                    "duration": 0.3125
                },
                {
                    "name": "D4",
                    "midi": 62,
                    "time": 25,
                    "velocity": 0.4881889763779528,
                    "duration": 0.46875
                },
                {
                    "name": "F4",
                    "midi": 65,
                    "time": 25.46875,
                    "velocity": 0.4881889763779528,
                    "duration": 0.078125
                },
                {
                    "name": "D4",
                    "midi": 62,
                    "time": 25.546875,
                    "velocity": 0.4881889763779528,
                    "duration": 0.078125
                },
                {
                    "name": "A#3",
                    "midi": 58,
                    "time": 25.625,
                    "velocity": 0.4881889763779528,
                    "duration": 0.46875
                },
                {
                    "name": "D4",
                    "midi": 62,
                    "time": 26.09375,
                    "velocity": 0.4881889763779528,
                    "duration": 0.078125
                },
                {
                    "name": "A#3",
                    "midi": 58,
                    "time": 26.171875,
                    "velocity": 0.4881889763779528,
                    "duration": 0.078125
                },
                {
                    "name": "G3",
                    "midi": 55,
                    "time": 26.25,
                    "velocity": 0.4881889763779528,
                    "duration": 0.46875
                },
                {
                    "name": "A#3",
                    "midi": 58,
                    "time": 26.71875,
                    "velocity": 0.4881889763779528,
                    "duration": 0.078125
                },
                {
                    "name": "G3",
                    "midi": 55,
                    "time": 26.796875,
                    "velocity": 0.4881889763779528,
                    "duration": 0.078125
                },
                {
                    "name": "A#3",
                    "midi": 58,
                    "time": 26.875,
                    "velocity": 0.4881889763779528,
                    "duration": 0.46875
                },
                {
                    "name": "D4",
                    "midi": 62,
                    "time": 27.34375,
                    "velocity": 0.4881889763779528,
                    "duration": 0.078125
                },
                {
                    "name": "A#3",
                    "midi": 58,
                    "time": 27.421875,
                    "velocity": 0.4881889763779528,
                    "duration": 0.078125
                },
                {
                    "name": "D4",
                    "midi": 62,
                    "time": 27.5,
                    "velocity": 0.4881889763779528,
                    "duration": 0.3125
                },
                {
                    "name": "F4",
                    "midi": 65,
                    "time": 27.8125,
                    "velocity": 0.4881889763779528,
                    "duration": 0.15625
                },
                {
                    "name": "A#4",
                    "midi": 70,
                    "time": 27.8125,
                    "velocity": 0.4881889763779528,
                    "duration": 0.15625
                },
                {
                    "name": "C#4",
                    "midi": 61,
                    "time": 27.96875,
                    "velocity": 0.4881889763779528,
                    "duration": 0.15625
                },
                {
                    "name": "C4",
                    "midi": 60,
                    "time": 28.125,
                    "velocity": 0.4881889763779528,
                    "duration": 0.625
                },
                {
                    "name": "G#4",
                    "midi": 68,
                    "time": 28.4375,
                    "velocity": 0.4881889763779528,
                    "duration": 0.3125
                },
                {
                    "name": "A#3",
                    "midi": 58,
                    "time": 28.75,
                    "velocity": 0.4881889763779528,
                    "duration": 0.3125
                },
                {
                    "name": "C#4",
                    "midi": 61,
                    "time": 29.0625,
                    "velocity": 0.4881889763779528,
                    "duration": 0.15625
                },
                {
                    "name": "G4",
                    "midi": 67,
                    "time": 29.0625,
                    "velocity": 0.4881889763779528,
                    "duration": 0.15625
                },
                {
                    "name": "A3",
                    "midi": 57,
                    "time": 29.21875,
                    "velocity": 0.4881889763779528,
                    "duration": 0.15625
                },
                {
                    "name": "G#3",
                    "midi": 56,
                    "time": 29.375,
                    "velocity": 0.4881889763779528,
                    "duration": 0.625
                },
                {
                    "name": "B3",
                    "midi": 59,
                    "time": 29.6875,
                    "velocity": 0.4881889763779528,
                    "duration": 0.3125
                },
                {
                    "name": "C#4",
                    "midi": 61,
                    "time": 29.6875,
                    "velocity": 0.4881889763779528,
                    "duration": 0.3125
                },
                {
                    "name": "A#3",
                    "midi": 58,
                    "time": 30.625,
                    "velocity": 0.4881889763779528,
                    "duration": 0.625
                },
                {
                    "name": "D#4",
                    "midi": 63,
                    "time": 30.625,
                    "velocity": 0.4881889763779528,
                    "duration": 0.625
                },
                {
                    "name": "G4",
                    "midi": 67,
                    "time": 30.625,
                    "velocity": 0.4881889763779528,
                    "duration": 0.625
                },
                {
                    "name": "C4",
                    "midi": 60,
                    "time": 31.875,
                    "velocity": 0.4881889763779528,
                    "duration": 0.625
                },
                {
                    "name": "F#4",
                    "midi": 66,
                    "time": 31.875,
                    "velocity": 0.4881889763779528,
                    "duration": 0.625
                },
                {
                    "name": "A#4",
                    "midi": 70,
                    "time": 31.875,
                    "velocity": 0.4881889763779528,
                    "duration": 0.625
                },
                {
                    "name": "A#3",
                    "midi": 58,
                    "time": 32.5,
                    "velocity": 0.4881889763779528,
                    "duration": 1.25
                },
                {
                    "name": "D4",
                    "midi": 62,
                    "time": 32.5,
                    "velocity": 0.4881889763779528,
                    "duration": 1.25
                },
                {
                    "name": "A#3",
                    "midi": 58,
                    "time": 33.75,
                    "velocity": 0.4881889763779528,
                    "duration": 0.625
                },
                {
                    "name": "E4",
                    "midi": 64,
                    "time": 33.75,
                    "velocity": 0.4881889763779528,
                    "duration": 0.625
                },
                {
                    "name": "A3",
                    "midi": 57,
                    "time": 34.375,
                    "velocity": 0.4881889763779528,
                    "duration": 0.625
                },
                {
                    "name": "D#4",
                    "midi": 63,
                    "time": 34.375,
                    "velocity": 0.4881889763779528,
                    "duration": 0.625
                },
                {
                    "name": "A#3",
                    "midi": 58,
                    "time": 35,
                    "velocity": 0.4881889763779528,
                    "duration": 0.3125
                },
                {
                    "name": "D4",
                    "midi": 62,
                    "time": 35,
                    "velocity": 0.4881889763779528,
                    "duration": 0.3125
                },
                {
                    "name": "F4",
                    "midi": 65,
                    "time": 35,
                    "velocity": 0.4881889763779528,
                    "duration": 0.3125
                },
                {
                    "name": "A#4",
                    "midi": 70,
                    "time": 35,
                    "velocity": 0.4881889763779528,
                    "duration": 0.3125
                },
                {
                    "name": "A#3",
                    "midi": 58,
                    "time": 35.3125,
                    "velocity": 0.4881889763779528,
                    "duration": 0.3125
                },
                {
                    "name": "D4",
                    "midi": 62,
                    "time": 35.625,
                    "velocity": 0.4881889763779528,
                    "duration": 0.3125
                },
                {
                    "name": "F4",
                    "midi": 65,
                    "time": 35.9375,
                    "velocity": 0.4881889763779528,
                    "duration": 0.3125
                },
                {
                    "name": "G#4",
                    "midi": 68,
                    "time": 36.25,
                    "velocity": 0.4881889763779528,
                    "duration": 0.3125
                },
                {
                    "name": "G4",
                    "midi": 67,
                    "time": 36.5625,
                    "velocity": 0.4881889763779528,
                    "duration": 0.3125
                },
                {
                    "name": "F4",
                    "midi": 65,
                    "time": 36.875,
                    "velocity": 0.4881889763779528,
                    "duration": 0.3125
                },
                {
                    "name": "D#4",
                    "midi": 63,
                    "time": 37.1875,
                    "velocity": 0.4881889763779528,
                    "duration": 0.3125
                },
                {
                    "name": "D4",
                    "midi": 62,
                    "time": 37.5,
                    "velocity": 0.4881889763779528,
                    "duration": 1.875
                },
                {
                    "name": "F4",
                    "midi": 65,
                    "time": 37.5,
                    "velocity": 0.4881889763779528,
                    "duration": 1.875
                },
                {
                    "name": "G#3",
                    "midi": 56,
                    "time": 39.375,
                    "velocity": 0.4881889763779528,
                    "duration": 0.625
                },
                {
                    "name": "D4",
                    "midi": 62,
                    "time": 39.375,
                    "velocity": 0.4881889763779528,
                    "duration": 0.625
                },
                {
                    "name": "G3",
                    "midi": 55,
                    "time": 40,
                    "velocity": 0.4881889763779528,
                    "duration": 0.3125
                },
                {
                    "name": "A#3",
                    "midi": 58,
                    "time": 40.3125,
                    "velocity": 0.4881889763779528,
                    "duration": 0.3125
                },
                {
                    "name": "A3",
                    "midi": 57,
                    "time": 40.625,
                    "velocity": 0.4881889763779528,
                    "duration": 0.3125
                },
                {
                    "name": "C4",
                    "midi": 60,
                    "time": 40.9375,
                    "velocity": 0.4881889763779528,
                    "duration": 0.3125
                },
                {
                    "name": "A#3",
                    "midi": 58,
                    "time": 41.25,
                    "velocity": 0.4881889763779528,
                    "duration": 0.625
                },
                {
                    "name": "F4",
                    "midi": 65,
                    "time": 41.25,
                    "velocity": 0.4881889763779528,
                    "duration": 0.625
                },
                {
                    "name": "F3",
                    "midi": 53,
                    "time": 41.875,
                    "velocity": 0.4881889763779528,
                    "duration": 0.625
                },
                {
                    "name": "A3",
                    "midi": 57,
                    "time": 41.875,
                    "velocity": 0.4881889763779528,
                    "duration": 0.625
                },
                {
                    "name": "A#3",
                    "midi": 58,
                    "time": 42.34375,
                    "velocity": 0.4881889763779528,
                    "duration": 0.078125
                },
                {
                    "name": "C4",
                    "midi": 60,
                    "time": 42.421875,
                    "velocity": 0.4881889763779528,
                    "duration": 0.078125
                },
                {
                    "name": "C#4",
                    "midi": 61,
                    "time": 42.5,
                    "velocity": 0.4881889763779528,
                    "duration": 0.0611979166666643
                },
                {
                    "name": "C#4",
                    "midi": 61,
                    "time": 42.8125,
                    "velocity": 0.4881889763779528,
                    "duration": 0.0611979166666643
                },
                {
                    "name": "C#4",
                    "midi": 61,
                    "time": 43.125,
                    "velocity": 0.4881889763779528,
                    "duration": 0.0611979166666643
                },
                {
                    "name": "C#4",
                    "midi": 61,
                    "time": 43.4375,
                    "velocity": 0.4881889763779528,
                    "duration": 0.0611979166666643
                },
                {
                    "name": "C#4",
                    "midi": 61,
                    "time": 43.75,
                    "velocity": 0.4881889763779528,
                    "duration": 0.0611979166666643
                },
                {
                    "name": "C#4",
                    "midi": 61,
                    "time": 44.0625,
                    "velocity": 0.4881889763779528,
                    "duration": 0.0611979166666643
                },
                {
                    "name": "C#4",
                    "midi": 61,
                    "time": 44.375,
                    "velocity": 0.4881889763779528,
                    "duration": 0.0611979166666643
                },
                {
                    "name": "C#4",
                    "midi": 61,
                    "time": 44.6875,
                    "velocity": 0.4881889763779528,
                    "duration": 0.0611979166666643
                },
                {
                    "name": "C4",
                    "midi": 60,
                    "time": 45,
                    "velocity": 0.4881889763779528,
                    "duration": 0.3125
                },
                {
                    "name": "A#3",
                    "midi": 58,
                    "time": 45.3125,
                    "velocity": 0.4881889763779528,
                    "duration": 0.3125
                },
                {
                    "name": "C#4",
                    "midi": 61,
                    "time": 45.625,
                    "velocity": 0.4881889763779528,
                    "duration": 0.0611979166666643
                },
                {
                    "name": "A#3",
                    "midi": 58,
                    "time": 45.9375,
                    "velocity": 0.4881889763779528,
                    "duration": 0.0611979166666643
                },
                {
                    "name": "C4",
                    "midi": 60,
                    "time": 46.25,
                    "velocity": 0.4881889763779528,
                    "duration": 0.3125
                },
                {
                    "name": "A#3",
                    "midi": 58,
                    "time": 46.5625,
                    "velocity": 0.4881889763779528,
                    "duration": 0.3125
                },
                {
                    "name": "C#4",
                    "midi": 61,
                    "time": 46.875,
                    "velocity": 0.4881889763779528,
                    "duration": 0.0611979166666643
                },
                {
                    "name": "A#3",
                    "midi": 58,
                    "time": 47.1875,
                    "velocity": 0.4881889763779528,
                    "duration": 0.0611979166666643
                },
                {
                    "name": "G#3",
                    "midi": 56,
                    "time": 47.5,
                    "velocity": 0.4881889763779528,
                    "duration": 0.3125
                },
                {
                    "name": "F3",
                    "midi": 53,
                    "time": 47.8125,
                    "velocity": 0.4881889763779528,
                    "duration": 0.3125
                },
                {
                    "name": "F3",
                    "midi": 53,
                    "time": 48.125,
                    "velocity": 0.4881889763779528,
                    "duration": 0.3125
                },
                {
                    "name": "F3",
                    "midi": 53,
                    "time": 48.4375,
                    "velocity": 0.4881889763779528,
                    "duration": 0.625
                },
                {
                    "name": "F3",
                    "midi": 53,
                    "time": 49.0625,
                    "velocity": 0.4881889763779528,
                    "duration": 0.3125
                },
                {
                    "name": "A3",
                    "midi": 57,
                    "time": 49.375,
                    "velocity": 0.4881889763779528,
                    "duration": 0.3125
                },
                {
                    "name": "F3",
                    "midi": 53,
                    "time": 49.6875,
                    "velocity": 0.4881889763779528,
                    "duration": 0.3125
                },
                {
                    "name": "E4",
                    "midi": 64,
                    "time": 50.3125,
                    "velocity": 0.5905511811023622,
                    "duration": 0.3125
                },
                {
                    "name": "B4",
                    "midi": 71,
                    "time": 50.625,
                    "velocity": 0.5905511811023622,
                    "duration": 0.3125
                },
                {
                    "name": "G#4",
                    "midi": 68,
                    "time": 50.9375,
                    "velocity": 0.5905511811023622,
                    "duration": 0.3125
                },
                {
                    "name": "G4",
                    "midi": 67,
                    "time": 51.25,
                    "velocity": 0.5905511811023622,
                    "duration": 0.3125
                },
                {
                    "name": "D5",
                    "midi": 74,
                    "time": 51.5625,
                    "velocity": 0.5905511811023622,
                    "duration": 0.3125
                },
                {
                    "name": "B4",
                    "midi": 71,
                    "time": 51.875,
                    "velocity": 0.5905511811023622,
                    "duration": 0.3125
                },
                {
                    "name": "A#4",
                    "midi": 70,
                    "time": 52.1875,
                    "velocity": 0.5905511811023622,
                    "duration": 0.3125
                },
                {
                    "name": "F5",
                    "midi": 77,
                    "time": 52.5,
                    "velocity": 0.5905511811023622,
                    "duration": 0.3125
                },
                {
                    "name": "D5",
                    "midi": 74,
                    "time": 52.8125,
                    "velocity": 0.5905511811023622,
                    "duration": 0.3125
                },
                {
                    "name": "C#5",
                    "midi": 73,
                    "time": 53.125,
                    "velocity": 0.5905511811023622,
                    "duration": 0.3125
                },
                {
                    "name": "G#5",
                    "midi": 80,
                    "time": 53.4375,
                    "velocity": 0.5905511811023622,
                    "duration": 0.3125
                },
                {
                    "name": "B4",
                    "midi": 71,
                    "time": 53.75,
                    "velocity": 0.5905511811023622,
                    "duration": 0.625
                },
                {
                    "name": "F5",
                    "midi": 77,
                    "time": 53.75,
                    "velocity": 0.5905511811023622,
                    "duration": 0.625
                },
                {
                    "name": "F4",
                    "midi": 65,
                    "time": 54.375,
                    "velocity": 0.5905511811023622,
                    "duration": 0.625
                },
                {
                    "name": "C5",
                    "midi": 72,
                    "time": 54.375,
                    "velocity": 0.5905511811023622,
                    "duration": 0.625
                },
                {
                    "name": "F3",
                    "midi": 53,
                    "time": 55.625,
                    "velocity": 0.4881889763779528,
                    "duration": 0.0611979166666643
                },
                {
                    "name": "A#3",
                    "midi": 58,
                    "time": 55.625,
                    "velocity": 0.4881889763779528,
                    "duration": 0.0611979166666643
                },
                {
                    "name": "D4",
                    "midi": 62,
                    "time": 55.625,
                    "velocity": 0.4881889763779528,
                    "duration": 0.0611979166666643
                },
                {
                    "name": "F4",
                    "midi": 65,
                    "time": 55.625,
                    "velocity": 0.4881889763779528,
                    "duration": 0.0611979166666643
                },
                {
                    "name": "B3",
                    "midi": 59,
                    "time": 56.875,
                    "velocity": 0.4881889763779528,
                    "duration": 0.0611979166666643
                },
                {
                    "name": "D#4",
                    "midi": 63,
                    "time": 56.875,
                    "velocity": 0.4881889763779528,
                    "duration": 0.0611979166666643
                },
                {
                    "name": "F4",
                    "midi": 65,
                    "time": 56.875,
                    "velocity": 0.4881889763779528,
                    "duration": 0.0611979166666643
                },
                {
                    "name": "G#4",
                    "midi": 68,
                    "time": 56.875,
                    "velocity": 0.4881889763779528,
                    "duration": 0.0611979166666643
                },
                {
                    "name": "A1",
                    "midi": 33,
                    "time": 57.5,
                    "velocity": 0.4881889763779528,
                    "duration": 0.3125
                },
                {
                    "name": "A#3",
                    "midi": 58,
                    "time": 57.8125,
                    "velocity": 0.4881889763779528,
                    "duration": 0.0611979166666643
                },
                {
                    "name": "C4",
                    "midi": 60,
                    "time": 57.8125,
                    "velocity": 0.4881889763779528,
                    "duration": 0.0611979166666643
                },
                {
                    "name": "D#4",
                    "midi": 63,
                    "time": 57.8125,
                    "velocity": 0.4881889763779528,
                    "duration": 0.0611979166666643
                },
                {
                    "name": "G4",
                    "midi": 67,
                    "time": 57.8125,
                    "velocity": 0.4881889763779528,
                    "duration": 0.0611979166666643
                },
                {
                    "name": "D2",
                    "midi": 38,
                    "time": 58.125,
                    "velocity": 0.4881889763779528,
                    "duration": 0.3125
                },
                {
                    "name": "G3",
                    "midi": 55,
                    "time": 58.4375,
                    "velocity": 0.4881889763779528,
                    "duration": 0.0611979166666643
                },
                {
                    "name": "A#3",
                    "midi": 58,
                    "time": 58.4375,
                    "velocity": 0.4881889763779528,
                    "duration": 0.0611979166666643
                },
                {
                    "name": "D4",
                    "midi": 62,
                    "time": 58.4375,
                    "velocity": 0.4881889763779528,
                    "duration": 0.0611979166666643
                },
                {
                    "name": "F4",
                    "midi": 65,
                    "time": 58.4375,
                    "velocity": 0.4881889763779528,
                    "duration": 0.0611979166666643
                },
                {
                    "name": "D#2",
                    "midi": 39,
                    "time": 58.75,
                    "velocity": 0.4881889763779528,
                    "duration": 0.3125
                },
                {
                    "name": "G3",
                    "midi": 55,
                    "time": 59.0625,
                    "velocity": 0.4881889763779528,
                    "duration": 0.0611979166666643
                },
                {
                    "name": "A#3",
                    "midi": 58,
                    "time": 59.0625,
                    "velocity": 0.4881889763779528,
                    "duration": 0.0611979166666643
                },
                {
                    "name": "C4",
                    "midi": 60,
                    "time": 59.0625,
                    "velocity": 0.4881889763779528,
                    "duration": 0.0611979166666643
                },
                {
                    "name": "D#4",
                    "midi": 63,
                    "time": 59.0625,
                    "velocity": 0.4881889763779528,
                    "duration": 0.0611979166666643
                },
                {
                    "name": "F2",
                    "midi": 41,
                    "time": 59.375,
                    "velocity": 0.4881889763779528,
                    "duration": 0.3125
                },
                {
                    "name": "D#3",
                    "midi": 51,
                    "time": 59.6875,
                    "velocity": 0.4881889763779528,
                    "duration": 0.0611979166666643
                },
                {
                    "name": "A3",
                    "midi": 57,
                    "time": 59.6875,
                    "velocity": 0.4881889763779528,
                    "duration": 0.0611979166666643
                },
                {
                    "name": "D4",
                    "midi": 62,
                    "time": 59.6875,
                    "velocity": 0.4881889763779528,
                    "duration": 0.0611979166666643
                },
                {
                    "name": "F3",
                    "midi": 53,
                    "time": 60.625,
                    "velocity": 0.4881889763779528,
                    "duration": 0.0611979166666643
                },
                {
                    "name": "A#3",
                    "midi": 58,
                    "time": 60.625,
                    "velocity": 0.4881889763779528,
                    "duration": 0.0611979166666643
                },
                {
                    "name": "D4",
                    "midi": 62,
                    "time": 60.625,
                    "velocity": 0.4881889763779528,
                    "duration": 0.0611979166666643
                },
                {
                    "name": "F4",
                    "midi": 65,
                    "time": 60.625,
                    "velocity": 0.4881889763779528,
                    "duration": 0.0611979166666643
                },
                {
                    "name": "B3",
                    "midi": 59,
                    "time": 61.875,
                    "velocity": 0.4881889763779528,
                    "duration": 0.0611979166666643
                },
                {
                    "name": "D#4",
                    "midi": 63,
                    "time": 61.875,
                    "velocity": 0.4881889763779528,
                    "duration": 0.0611979166666643
                },
                {
                    "name": "F4",
                    "midi": 65,
                    "time": 61.875,
                    "velocity": 0.4881889763779528,
                    "duration": 0.0611979166666643
                },
                {
                    "name": "G#4",
                    "midi": 68,
                    "time": 61.875,
                    "velocity": 0.4881889763779528,
                    "duration": 0.0611979166666643
                },
                {
                    "name": "A#3",
                    "midi": 58,
                    "time": 62.8125,
                    "velocity": 0.4881889763779528,
                    "duration": 0.3125
                },
                {
                    "name": "C4",
                    "midi": 60,
                    "time": 62.8125,
                    "velocity": 0.4881889763779528,
                    "duration": 0.3125
                },
                {
                    "name": "D#4",
                    "midi": 63,
                    "time": 62.8125,
                    "velocity": 0.4881889763779528,
                    "duration": 0.3125
                },
                {
                    "name": "G4",
                    "midi": 67,
                    "time": 62.8125,
                    "velocity": 0.4881889763779528,
                    "duration": 0.3125
                },
                {
                    "name": "G3",
                    "midi": 55,
                    "time": 63.4375,
                    "velocity": 0.4881889763779528,
                    "duration": 0.3125
                },
                {
                    "name": "A#3",
                    "midi": 58,
                    "time": 63.4375,
                    "velocity": 0.4881889763779528,
                    "duration": 0.3125
                },
                {
                    "name": "D4",
                    "midi": 62,
                    "time": 63.4375,
                    "velocity": 0.4881889763779528,
                    "duration": 0.3125
                },
                {
                    "name": "F4",
                    "midi": 65,
                    "time": 63.4375,
                    "velocity": 0.4881889763779528,
                    "duration": 0.3125
                },
                {
                    "name": "G#3",
                    "midi": 56,
                    "time": 64.0625,
                    "velocity": 0.4881889763779528,
                    "duration": 0.3125
                },
                {
                    "name": "C4",
                    "midi": 60,
                    "time": 64.0625,
                    "velocity": 0.4881889763779528,
                    "duration": 0.3125
                },
                {
                    "name": "D#4",
                    "midi": 63,
                    "time": 64.0625,
                    "velocity": 0.4881889763779528,
                    "duration": 0.3125
                },
                {
                    "name": "G#4",
                    "midi": 68,
                    "time": 64.0625,
                    "velocity": 0.4881889763779528,
                    "duration": 0.3125
                },
                {
                    "name": "C4",
                    "midi": 60,
                    "time": 64.6875,
                    "velocity": 0.4881889763779528,
                    "duration": 0.3125
                },
                {
                    "name": "D#4",
                    "midi": 63,
                    "time": 64.6875,
                    "velocity": 0.4881889763779528,
                    "duration": 0.3125
                },
                {
                    "name": "G4",
                    "midi": 67,
                    "time": 64.6875,
                    "velocity": 0.4881889763779528,
                    "duration": 0.3125
                },
                {
                    "name": "C5",
                    "midi": 72,
                    "time": 64.6875,
                    "velocity": 0.4881889763779528,
                    "duration": 0.3125
                },
                {
                    "name": "F3",
                    "midi": 53,
                    "time": 65.625,
                    "velocity": 0.4881889763779528,
                    "duration": 0.061197916666671404
                },
                {
                    "name": "A#3",
                    "midi": 58,
                    "time": 65.625,
                    "velocity": 0.4881889763779528,
                    "duration": 0.061197916666671404
                },
                {
                    "name": "D4",
                    "midi": 62,
                    "time": 65.625,
                    "velocity": 0.4881889763779528,
                    "duration": 0.061197916666671404
                },
                {
                    "name": "F4",
                    "midi": 65,
                    "time": 65.625,
                    "velocity": 0.4881889763779528,
                    "duration": 0.061197916666671404
                },
                {
                    "name": "B3",
                    "midi": 59,
                    "time": 66.875,
                    "velocity": 0.4881889763779528,
                    "duration": 0.061197916666671404
                },
                {
                    "name": "D#4",
                    "midi": 63,
                    "time": 66.875,
                    "velocity": 0.4881889763779528,
                    "duration": 0.061197916666671404
                },
                {
                    "name": "F4",
                    "midi": 65,
                    "time": 66.875,
                    "velocity": 0.4881889763779528,
                    "duration": 0.061197916666671404
                },
                {
                    "name": "G#4",
                    "midi": 68,
                    "time": 66.875,
                    "velocity": 0.4881889763779528,
                    "duration": 0.061197916666671404
                },
                {
                    "name": "A1",
                    "midi": 33,
                    "time": 67.5,
                    "velocity": 0.4881889763779528,
                    "duration": 0.3125
                },
                {
                    "name": "A#3",
                    "midi": 58,
                    "time": 67.8125,
                    "velocity": 0.4881889763779528,
                    "duration": 0.061197916666671404
                },
                {
                    "name": "C4",
                    "midi": 60,
                    "time": 67.8125,
                    "velocity": 0.4881889763779528,
                    "duration": 0.061197916666671404
                },
                {
                    "name": "D#4",
                    "midi": 63,
                    "time": 67.8125,
                    "velocity": 0.4881889763779528,
                    "duration": 0.061197916666671404
                },
                {
                    "name": "G4",
                    "midi": 67,
                    "time": 67.8125,
                    "velocity": 0.4881889763779528,
                    "duration": 0.061197916666671404
                },
                {
                    "name": "D2",
                    "midi": 38,
                    "time": 68.125,
                    "velocity": 0.4881889763779528,
                    "duration": 0.3125
                },
                {
                    "name": "G3",
                    "midi": 55,
                    "time": 68.4375,
                    "velocity": 0.4881889763779528,
                    "duration": 0.061197916666671404
                },
                {
                    "name": "A#3",
                    "midi": 58,
                    "time": 68.4375,
                    "velocity": 0.4881889763779528,
                    "duration": 0.061197916666671404
                },
                {
                    "name": "D4",
                    "midi": 62,
                    "time": 68.4375,
                    "velocity": 0.4881889763779528,
                    "duration": 0.061197916666671404
                },
                {
                    "name": "F4",
                    "midi": 65,
                    "time": 68.4375,
                    "velocity": 0.4881889763779528,
                    "duration": 0.061197916666671404
                },
                {
                    "name": "D#2",
                    "midi": 39,
                    "time": 68.75,
                    "velocity": 0.4881889763779528,
                    "duration": 0.3125
                },
                {
                    "name": "G3",
                    "midi": 55,
                    "time": 69.0625,
                    "velocity": 0.4881889763779528,
                    "duration": 0.061197916666671404
                },
                {
                    "name": "A#3",
                    "midi": 58,
                    "time": 69.0625,
                    "velocity": 0.4881889763779528,
                    "duration": 0.061197916666671404
                },
                {
                    "name": "C4",
                    "midi": 60,
                    "time": 69.0625,
                    "velocity": 0.4881889763779528,
                    "duration": 0.061197916666671404
                },
                {
                    "name": "D#4",
                    "midi": 63,
                    "time": 69.0625,
                    "velocity": 0.4881889763779528,
                    "duration": 0.061197916666671404
                },
                {
                    "name": "F2",
                    "midi": 41,
                    "time": 69.375,
                    "velocity": 0.4881889763779528,
                    "duration": 0.3125
                },
                {
                    "name": "D#3",
                    "midi": 51,
                    "time": 69.6875,
                    "velocity": 0.4881889763779528,
                    "duration": 0.061197916666671404
                },
                {
                    "name": "A3",
                    "midi": 57,
                    "time": 69.6875,
                    "velocity": 0.4881889763779528,
                    "duration": 0.061197916666671404
                },
                {
                    "name": "D4",
                    "midi": 62,
                    "time": 69.6875,
                    "velocity": 0.4881889763779528,
                    "duration": 0.061197916666671404
                },
                {
                    "name": "D#4",
                    "midi": 63,
                    "time": 70,
                    "velocity": 0.4881889763779528,
                    "duration": 0.3125
                },
                {
                    "name": "D4",
                    "midi": 62,
                    "time": 70.3125,
                    "velocity": 0.4881889763779528,
                    "duration": 0.3125
                },
                {
                    "name": "C4",
                    "midi": 60,
                    "time": 70.625,
                    "velocity": 0.4881889763779528,
                    "duration": 0.3125
                },
                {
                    "name": "A#3",
                    "midi": 58,
                    "time": 70.9375,
                    "velocity": 0.4881889763779528,
                    "duration": 0.3125
                },
                {
                    "name": "A3",
                    "midi": 57,
                    "time": 71.25,
                    "velocity": 0.4881889763779528,
                    "duration": 0.3125
                },
                {
                    "name": "F4",
                    "midi": 65,
                    "time": 71.25,
                    "velocity": 0.4881889763779528,
                    "duration": 0.3125
                },
                {
                    "name": "G3",
                    "midi": 55,
                    "time": 71.5625,
                    "velocity": 0.4881889763779528,
                    "duration": 0.3125
                },
                {
                    "name": "D#4",
                    "midi": 63,
                    "time": 71.5625,
                    "velocity": 0.4881889763779528,
                    "duration": 0.3125
                },
                {
                    "name": "F3",
                    "midi": 53,
                    "time": 71.875,
                    "velocity": 0.4881889763779528,
                    "duration": 0.3125
                },
                {
                    "name": "D4",
                    "midi": 62,
                    "time": 71.875,
                    "velocity": 0.4881889763779528,
                    "duration": 0.3125
                },
                {
                    "name": "D#3",
                    "midi": 51,
                    "time": 72.1875,
                    "velocity": 0.4881889763779528,
                    "duration": 0.3125
                },
                {
                    "name": "C4",
                    "midi": 60,
                    "time": 72.1875,
                    "velocity": 0.4881889763779528,
                    "duration": 0.3125
                },
                {
                    "name": "D3",
                    "midi": 50,
                    "time": 72.5,
                    "velocity": 0.4881889763779528,
                    "duration": 0.061197916666671404
                },
                {
                    "name": "F3",
                    "midi": 53,
                    "time": 72.5,
                    "velocity": 0.4881889763779528,
                    "duration": 0.061197916666671404
                },
                {
                    "name": "A#3",
                    "midi": 58,
                    "time": 72.5,
                    "velocity": 0.4881889763779528,
                    "duration": 0.061197916666671404
                },
                {
                    "name": "D4",
                    "midi": 62,
                    "time": 72.8125,
                    "velocity": 0.4881889763779528,
                    "duration": 0.15625
                },
                {
                    "name": "F4",
                    "midi": 65,
                    "time": 72.8125,
                    "velocity": 0.4881889763779528,
                    "duration": 0.15625
                },
                {
                    "name": "A#4",
                    "midi": 70,
                    "time": 72.8125,
                    "velocity": 0.4881889763779528,
                    "duration": 0.15625
                },
                {
                    "name": "A#3",
                    "midi": 58,
                    "time": 72.96875,
                    "velocity": 0.4881889763779528,
                    "duration": 0.15625
                },
                {
                    "name": "D#3",
                    "midi": 51,
                    "time": 73.125,
                    "velocity": 0.4881889763779528,
                    "duration": 0.061197916666671404
                },
                {
                    "name": "G#3",
                    "midi": 56,
                    "time": 73.125,
                    "velocity": 0.4881889763779528,
                    "duration": 0.061197916666671404
                },
                {
                    "name": "C4",
                    "midi": 60,
                    "time": 73.125,
                    "velocity": 0.4881889763779528,
                    "duration": 0.061197916666671404
                },
                {
                    "name": "D#4",
                    "midi": 63,
                    "time": 73.4375,
                    "velocity": 0.4881889763779528,
                    "duration": 0.15625
                },
                {
                    "name": "G#4",
                    "midi": 68,
                    "time": 73.4375,
                    "velocity": 0.4881889763779528,
                    "duration": 0.15625
                },
                {
                    "name": "C5",
                    "midi": 72,
                    "time": 73.4375,
                    "velocity": 0.4881889763779528,
                    "duration": 0.15625
                },
                {
                    "name": "C4",
                    "midi": 60,
                    "time": 73.59375,
                    "velocity": 0.4881889763779528,
                    "duration": 0.15625
                },
                {
                    "name": "F3",
                    "midi": 53,
                    "time": 73.75,
                    "velocity": 0.5905511811023622,
                    "duration": 0.061197916666671404
                },
                {
                    "name": "A#3",
                    "midi": 58,
                    "time": 73.75,
                    "velocity": 0.5905511811023622,
                    "duration": 0.061197916666671404
                },
                {
                    "name": "D4",
                    "midi": 62,
                    "time": 73.75,
                    "velocity": 0.5905511811023622,
                    "duration": 0.061197916666671404
                },
                {
                    "name": "F4",
                    "midi": 65,
                    "time": 74.0625,
                    "velocity": 0.5905511811023622,
                    "duration": 0.15625
                },
                {
                    "name": "A#4",
                    "midi": 70,
                    "time": 74.0625,
                    "velocity": 0.5905511811023622,
                    "duration": 0.15625
                },
                {
                    "name": "D5",
                    "midi": 74,
                    "time": 74.0625,
                    "velocity": 0.5905511811023622,
                    "duration": 0.15625
                },
                {
                    "name": "D4",
                    "midi": 62,
                    "time": 74.21875,
                    "velocity": 0.5905511811023622,
                    "duration": 0.15625
                },
                {
                    "name": "G#3",
                    "midi": 56,
                    "time": 74.375,
                    "velocity": 0.5905511811023622,
                    "duration": 0.061197916666671404
                },
                {
                    "name": "C4",
                    "midi": 60,
                    "time": 74.375,
                    "velocity": 0.5905511811023622,
                    "duration": 0.061197916666671404
                },
                {
                    "name": "D#4",
                    "midi": 63,
                    "time": 74.375,
                    "velocity": 0.5905511811023622,
                    "duration": 0.061197916666671404
                },
                {
                    "name": "G#4",
                    "midi": 68,
                    "time": 74.6875,
                    "velocity": 0.5905511811023622,
                    "duration": 0.15625
                },
                {
                    "name": "C5",
                    "midi": 72,
                    "time": 74.6875,
                    "velocity": 0.5905511811023622,
                    "duration": 0.15625
                },
                {
                    "name": "D#5",
                    "midi": 75,
                    "time": 74.6875,
                    "velocity": 0.5905511811023622,
                    "duration": 0.15625
                },
                {
                    "name": "D#4",
                    "midi": 63,
                    "time": 74.84375,
                    "velocity": 0.5905511811023622,
                    "duration": 0.15625
                },
                {
                    "name": "G3",
                    "midi": 55,
                    "time": 75,
                    "velocity": 0.4881889763779528,
                    "duration": 0.78125
                },
                {
                    "name": "G#3",
                    "midi": 56,
                    "time": 75.78125,
                    "velocity": 0.4881889763779528,
                    "duration": 0.15625
                },
                {
                    "name": "A3",
                    "midi": 57,
                    "time": 75.9375,
                    "velocity": 0.4881889763779528,
                    "duration": 0.15625
                },
                {
                    "name": "C4",
                    "midi": 60,
                    "time": 76.09375,
                    "velocity": 0.4881889763779528,
                    "duration": 0.15625
                },
                {
                    "name": "A#3",
                    "midi": 58,
                    "time": 76.25,
                    "velocity": 0.4881889763779528,
                    "duration": 0.15625
                },
                {
                    "name": "C4",
                    "midi": 60,
                    "time": 76.40625,
                    "velocity": 0.4881889763779528,
                    "duration": 0.15625
                },
                {
                    "name": "D4",
                    "midi": 62,
                    "time": 76.5625,
                    "velocity": 0.4881889763779528,
                    "duration": 0.15625
                },
                {
                    "name": "F4",
                    "midi": 65,
                    "time": 76.71875,
                    "velocity": 0.4881889763779528,
                    "duration": 0.15625
                },
                {
                    "name": "D#4",
                    "midi": 63,
                    "time": 76.875,
                    "velocity": 0.4881889763779528,
                    "duration": 0.15625
                },
                {
                    "name": "F4",
                    "midi": 65,
                    "time": 77.03125,
                    "velocity": 0.4881889763779528,
                    "duration": 0.15625
                },
                {
                    "name": "F#4",
                    "midi": 66,
                    "time": 77.1875,
                    "velocity": 0.4881889763779528,
                    "duration": 0.15625
                },
                {
                    "name": "C5",
                    "midi": 72,
                    "time": 77.34375,
                    "velocity": 0.4881889763779528,
                    "duration": 0.15625
                },
                {
                    "name": "F3",
                    "midi": 53,
                    "time": 77.5,
                    "velocity": 0.4881889763779528,
                    "duration": 0.029947916666671404
                },
                {
                    "name": "F3",
                    "midi": 53,
                    "time": 77.65625,
                    "velocity": 0.4881889763779528,
                    "duration": 0.15625
                },
                {
                    "name": "E3",
                    "midi": 52,
                    "time": 77.8125,
                    "velocity": 0.4881889763779528,
                    "duration": 0.15625
                },
                {
                    "name": "F3",
                    "midi": 53,
                    "time": 77.96875,
                    "velocity": 0.4881889763779528,
                    "duration": 0.15625
                },
                {
                    "name": "F#3",
                    "midi": 54,
                    "time": 78.125,
                    "velocity": 0.4881889763779528,
                    "duration": 0.029947916666671404
                },
                {
                    "name": "F#3",
                    "midi": 54,
                    "time": 78.28125,
                    "velocity": 0.4881889763779528,
                    "duration": 0.15625
                },
                {
                    "name": "F3",
                    "midi": 53,
                    "time": 78.4375,
                    "velocity": 0.4881889763779528,
                    "duration": 0.15625
                },
                {
                    "name": "F#3",
                    "midi": 54,
                    "time": 78.59375,
                    "velocity": 0.4881889763779528,
                    "duration": 0.15625
                },
                {
                    "name": "G3",
                    "midi": 55,
                    "time": 78.75,
                    "velocity": 0.4881889763779528,
                    "duration": 0.029947916666671404
                },
                {
                    "name": "G3",
                    "midi": 55,
                    "time": 78.90625,
                    "velocity": 0.4881889763779528,
                    "duration": 0.15625
                },
                {
                    "name": "F#3",
                    "midi": 54,
                    "time": 79.0625,
                    "velocity": 0.4881889763779528,
                    "duration": 0.15625
                },
                {
                    "name": "G3",
                    "midi": 55,
                    "time": 79.21875,
                    "velocity": 0.4881889763779528,
                    "duration": 0.15625
                },
                {
                    "name": "A3",
                    "midi": 57,
                    "time": 79.375,
                    "velocity": 0.4881889763779528,
                    "duration": 0.029947916666671404
                },
                {
                    "name": "A3",
                    "midi": 57,
                    "time": 79.53125,
                    "velocity": 0.4881889763779528,
                    "duration": 0.15625
                },
                {
                    "name": "G3",
                    "midi": 55,
                    "time": 79.6875,
                    "velocity": 0.4881889763779528,
                    "duration": 0.15625
                },
                {
                    "name": "A3",
                    "midi": 57,
                    "time": 79.84375,
                    "velocity": 0.4881889763779528,
                    "duration": 0.15625
                },
                {
                    "name": "A#3",
                    "midi": 58,
                    "time": 80,
                    "velocity": 0.4881889763779528,
                    "duration": 0.3125
                },
                {
                    "name": "D4",
                    "midi": 62,
                    "time": 80,
                    "velocity": 0.4881889763779528,
                    "duration": 0.3125
                },
                {
                    "name": "F4",
                    "midi": 65,
                    "time": 80,
                    "velocity": 0.4881889763779528,
                    "duration": 0.3125
                },
                {
                    "name": "A#4",
                    "midi": 70,
                    "time": 80,
                    "velocity": 0.4881889763779528,
                    "duration": 0.3125
                },
                {
                    "name": "A#3",
                    "midi": 58,
                    "time": 80.3125,
                    "velocity": 0.4881889763779528,
                    "duration": 0.3125
                },
                {
                    "name": "D4",
                    "midi": 62,
                    "time": 80.625,
                    "velocity": 0.4881889763779528,
                    "duration": 0.3125
                },
                {
                    "name": "F4",
                    "midi": 65,
                    "time": 80.9375,
                    "velocity": 0.4881889763779528,
                    "duration": 0.3125
                },
                {
                    "name": "G#3",
                    "midi": 56,
                    "time": 81.25,
                    "velocity": 0.4881889763779528,
                    "duration": 0.3125
                },
                {
                    "name": "G#4",
                    "midi": 68,
                    "time": 81.25,
                    "velocity": 0.4881889763779528,
                    "duration": 0.3125
                },
                {
                    "name": "G3",
                    "midi": 55,
                    "time": 81.5625,
                    "velocity": 0.4881889763779528,
                    "duration": 0.3125
                },
                {
                    "name": "G4",
                    "midi": 67,
                    "time": 81.5625,
                    "velocity": 0.4881889763779528,
                    "duration": 0.3125
                },
                {
                    "name": "F3",
                    "midi": 53,
                    "time": 81.875,
                    "velocity": 0.4881889763779528,
                    "duration": 0.3125
                },
                {
                    "name": "F4",
                    "midi": 65,
                    "time": 81.875,
                    "velocity": 0.4881889763779528,
                    "duration": 0.3125
                },
                {
                    "name": "D#3",
                    "midi": 51,
                    "time": 82.1875,
                    "velocity": 0.4881889763779528,
                    "duration": 0.3125
                },
                {
                    "name": "D#4",
                    "midi": 63,
                    "time": 82.1875,
                    "velocity": 0.4881889763779528,
                    "duration": 0.3125
                },
                {
                    "name": "A#4",
                    "midi": 70,
                    "time": 82.5,
                    "velocity": 0.4881889763779528,
                    "duration": 0.3125
                },
                {
                    "name": "A#5",
                    "midi": 82,
                    "time": 82.5,
                    "velocity": 0.4881889763779528,
                    "duration": 0.3125
                },
                {
                    "name": "D5",
                    "midi": 74,
                    "time": 82.8125,
                    "velocity": 0.4881889763779528,
                    "duration": 0.3125
                },
                {
                    "name": "D6",
                    "midi": 86,
                    "time": 82.8125,
                    "velocity": 0.4881889763779528,
                    "duration": 0.3125
                },
                {
                    "name": "C5",
                    "midi": 72,
                    "time": 83.125,
                    "velocity": 0.4881889763779528,
                    "duration": 0.3125
                },
                {
                    "name": "C6",
                    "midi": 84,
                    "time": 83.125,
                    "velocity": 0.4881889763779528,
                    "duration": 0.3125
                },
                {
                    "name": "D#5",
                    "midi": 75,
                    "time": 83.4375,
                    "velocity": 0.4881889763779528,
                    "duration": 0.3125
                },
                {
                    "name": "D#6",
                    "midi": 87,
                    "time": 83.4375,
                    "velocity": 0.4881889763779528,
                    "duration": 0.3125
                },
                {
                    "name": "D5",
                    "midi": 74,
                    "time": 83.75,
                    "velocity": 0.4881889763779528,
                    "duration": 0.3125
                },
                {
                    "name": "D6",
                    "midi": 86,
                    "time": 83.75,
                    "velocity": 0.4881889763779528,
                    "duration": 0.3125
                },
                {
                    "name": "F5",
                    "midi": 77,
                    "time": 84.0625,
                    "velocity": 0.4881889763779528,
                    "duration": 0.625
                },
                {
                    "name": "F6",
                    "midi": 89,
                    "time": 84.0625,
                    "velocity": 0.4881889763779528,
                    "duration": 0.625
                },
                {
                    "name": "D#5",
                    "midi": 75,
                    "time": 84.6875,
                    "velocity": 0.4881889763779528,
                    "duration": 0.3125
                },
                {
                    "name": "D#6",
                    "midi": 87,
                    "time": 84.6875,
                    "velocity": 0.4881889763779528,
                    "duration": 0.3125
                },
                {
                    "name": "G5",
                    "midi": 79,
                    "time": 85,
                    "velocity": 0.5905511811023622,
                    "duration": 0.3125
                },
                {
                    "name": "G6",
                    "midi": 91,
                    "time": 85,
                    "velocity": 0.5905511811023622,
                    "duration": 0.3125
                },
                {
                    "name": "F5",
                    "midi": 77,
                    "time": 85.3125,
                    "velocity": 0.5905511811023622,
                    "duration": 0.3125
                },
                {
                    "name": "F6",
                    "midi": 89,
                    "time": 85.3125,
                    "velocity": 0.5905511811023622,
                    "duration": 0.3125
                },
                {
                    "name": "A5",
                    "midi": 81,
                    "time": 85.625,
                    "velocity": 0.5905511811023622,
                    "duration": 0.3125
                },
                {
                    "name": "A6",
                    "midi": 93,
                    "time": 85.625,
                    "velocity": 0.5905511811023622,
                    "duration": 0.3125
                },
                {
                    "name": "G5",
                    "midi": 79,
                    "time": 85.9375,
                    "velocity": 0.5905511811023622,
                    "duration": 0.3125
                },
                {
                    "name": "G6",
                    "midi": 91,
                    "time": 85.9375,
                    "velocity": 0.5905511811023622,
                    "duration": 0.3125
                },
                {
                    "name": "A#5",
                    "midi": 82,
                    "time": 86.25,
                    "velocity": 0.5905511811023622,
                    "duration": 0.3125
                },
                {
                    "name": "A#6",
                    "midi": 94,
                    "time": 86.25,
                    "velocity": 0.5905511811023622,
                    "duration": 0.3125
                },
                {
                    "name": "A5",
                    "midi": 81,
                    "time": 86.5625,
                    "velocity": 0.5905511811023622,
                    "duration": 0.625
                },
                {
                    "name": "A6",
                    "midi": 93,
                    "time": 86.5625,
                    "velocity": 0.5905511811023622,
                    "duration": 0.625
                },
                {
                    "name": "C6",
                    "midi": 84,
                    "time": 87.1875,
                    "velocity": 0.5905511811023622,
                    "duration": 0.3125
                },
                {
                    "name": "C7",
                    "midi": 96,
                    "time": 87.1875,
                    "velocity": 0.5905511811023622,
                    "duration": 0.3125
                },
                {
                    "name": "A#5",
                    "midi": 82,
                    "time": 87.5,
                    "velocity": 0.5905511811023622,
                    "duration": 2.8125
                },
                {
                    "name": "A#5",
                    "midi": 82,
                    "time": 90.3125,
                    "velocity": 0.5905511811023622,
                    "duration": 0.3125
                },
                {
                    "name": "C6",
                    "midi": 84,
                    "time": 90.625,
                    "velocity": 0.5905511811023622,
                    "duration": 0.3125
                },
                {
                    "name": "A#5",
                    "midi": 82,
                    "time": 90.9375,
                    "velocity": 0.5905511811023622,
                    "duration": 0.3125
                },
                {
                    "name": "C#6",
                    "midi": 85,
                    "time": 91.25,
                    "velocity": 0.5905511811023622,
                    "duration": 0.3125
                },
                {
                    "name": "D6",
                    "midi": 86,
                    "time": 91.5625,
                    "velocity": 0.5905511811023622,
                    "duration": 0.3125
                },
                {
                    "name": "A#5",
                    "midi": 82,
                    "time": 91.875,
                    "velocity": 0.5905511811023622,
                    "duration": 0.3125
                },
                {
                    "name": "G5",
                    "midi": 79,
                    "time": 92.1875,
                    "velocity": 0.5905511811023622,
                    "duration": 0.3125
                },
                {
                    "name": "D5",
                    "midi": 74,
                    "time": 92.5,
                    "velocity": 0.5905511811023622,
                    "duration": 2.5
                },
                {
                    "name": "D5",
                    "midi": 74,
                    "time": 95,
                    "velocity": 0.5905511811023622,
                    "duration": 0.3125
                },
                {
                    "name": "A4",
                    "midi": 69,
                    "time": 95.3125,
                    "velocity": 0.5905511811023622,
                    "duration": 0.3125
                },
                {
                    "name": "C5",
                    "midi": 72,
                    "time": 95.625,
                    "velocity": 0.5905511811023622,
                    "duration": 0.3125
                },
                {
                    "name": "A#4",
                    "midi": 70,
                    "time": 95.9375,
                    "velocity": 0.5905511811023622,
                    "duration": 0.3125
                },
                {
                    "name": "D5",
                    "midi": 74,
                    "time": 96.25,
                    "velocity": 0.5905511811023622,
                    "duration": 0.3125
                },
                {
                    "name": "F5",
                    "midi": 77,
                    "time": 96.5625,
                    "velocity": 0.5905511811023622,
                    "duration": 0.3125
                },
                {
                    "name": "D5",
                    "midi": 74,
                    "time": 96.875,
                    "velocity": 0.7952755905511811,
                    "duration": 0.3125
                },
                {
                    "name": "D5",
                    "midi": 74,
                    "time": 97.1875,
                    "velocity": 0.7952755905511811,
                    "duration": 0.3125
                },
                {
                    "name": "D3",
                    "midi": 50,
                    "time": 97.5,
                    "velocity": 0.3858267716535433,
                    "duration": 0.3125
                },
                {
                    "name": "G3",
                    "midi": 55,
                    "time": 97.5,
                    "velocity": 0.3858267716535433,
                    "duration": 0.3125
                },
                {
                    "name": "B3",
                    "midi": 59,
                    "time": 97.5,
                    "velocity": 0.3858267716535433,
                    "duration": 0.3125
                },
                {
                    "name": "D4",
                    "midi": 62,
                    "time": 97.5,
                    "velocity": 0.3858267716535433,
                    "duration": 0.3125
                },
                {
                    "name": "E3",
                    "midi": 52,
                    "time": 97.8125,
                    "velocity": 0.3858267716535433,
                    "duration": 0.625
                },
                {
                    "name": "G3",
                    "midi": 55,
                    "time": 97.8125,
                    "velocity": 0.3858267716535433,
                    "duration": 0.625
                },
                {
                    "name": "B3",
                    "midi": 59,
                    "time": 97.8125,
                    "velocity": 0.3858267716535433,
                    "duration": 0.625
                },
                {
                    "name": "E4",
                    "midi": 64,
                    "time": 97.8125,
                    "velocity": 0.3858267716535433,
                    "duration": 0.625
                },
                {
                    "name": "F3",
                    "midi": 53,
                    "time": 98.4375,
                    "velocity": 0.4881889763779528,
                    "duration": 0.3125
                },
                {
                    "name": "G3",
                    "midi": 55,
                    "time": 98.4375,
                    "velocity": 0.4881889763779528,
                    "duration": 0.3125
                },
                {
                    "name": "B3",
                    "midi": 59,
                    "time": 98.4375,
                    "velocity": 0.4881889763779528,
                    "duration": 0.3125
                },
                {
                    "name": "F4",
                    "midi": 65,
                    "time": 98.4375,
                    "velocity": 0.4881889763779528,
                    "duration": 0.3125
                },
                {
                    "name": "G3",
                    "midi": 55,
                    "time": 98.75,
                    "velocity": 0.4881889763779528,
                    "duration": 0.3125
                },
                {
                    "name": "B3",
                    "midi": 59,
                    "time": 98.75,
                    "velocity": 0.4881889763779528,
                    "duration": 0.3125
                },
                {
                    "name": "D4",
                    "midi": 62,
                    "time": 98.75,
                    "velocity": 0.4881889763779528,
                    "duration": 0.3125
                },
                {
                    "name": "G4",
                    "midi": 67,
                    "time": 98.75,
                    "velocity": 0.4881889763779528,
                    "duration": 0.3125
                },
                {
                    "name": "F3",
                    "midi": 53,
                    "time": 99.0625,
                    "velocity": 0.4881889763779528,
                    "duration": 0.3125
                },
                {
                    "name": "B3",
                    "midi": 59,
                    "time": 99.0625,
                    "velocity": 0.4881889763779528,
                    "duration": 0.3125
                },
                {
                    "name": "D4",
                    "midi": 62,
                    "time": 99.0625,
                    "velocity": 0.4881889763779528,
                    "duration": 0.3125
                },
                {
                    "name": "F4",
                    "midi": 65,
                    "time": 99.0625,
                    "velocity": 0.4881889763779528,
                    "duration": 0.3125
                },
                {
                    "name": "E3",
                    "midi": 52,
                    "time": 99.375,
                    "velocity": 0.4881889763779528,
                    "duration": 0.3125
                },
                {
                    "name": "F3",
                    "midi": 53,
                    "time": 99.375,
                    "velocity": 0.4881889763779528,
                    "duration": 0.3125
                },
                {
                    "name": "B3",
                    "midi": 59,
                    "time": 99.375,
                    "velocity": 0.4881889763779528,
                    "duration": 0.3125
                },
                {
                    "name": "E4",
                    "midi": 64,
                    "time": 99.375,
                    "velocity": 0.4881889763779528,
                    "duration": 0.3125
                },
                {
                    "name": "D3",
                    "midi": 50,
                    "time": 99.6875,
                    "velocity": 0.4881889763779528,
                    "duration": 0.3125
                },
                {
                    "name": "F3",
                    "midi": 53,
                    "time": 99.6875,
                    "velocity": 0.4881889763779528,
                    "duration": 0.3125
                },
                {
                    "name": "B3",
                    "midi": 59,
                    "time": 99.6875,
                    "velocity": 0.4881889763779528,
                    "duration": 0.3125
                },
                {
                    "name": "D4",
                    "midi": 62,
                    "time": 99.6875,
                    "velocity": 0.4881889763779528,
                    "duration": 0.3125
                },
                {
                    "name": "B2",
                    "midi": 47,
                    "time": 100,
                    "velocity": 0.4881889763779528,
                    "duration": 0.3125
                },
                {
                    "name": "E3",
                    "midi": 52,
                    "time": 100,
                    "velocity": 0.4881889763779528,
                    "duration": 0.3125
                },
                {
                    "name": "A3",
                    "midi": 57,
                    "time": 100,
                    "velocity": 0.4881889763779528,
                    "duration": 0.3125
                },
                {
                    "name": "B3",
                    "midi": 59,
                    "time": 100,
                    "velocity": 0.4881889763779528,
                    "duration": 0.3125
                },
                {
                    "name": "C3",
                    "midi": 48,
                    "time": 100.3125,
                    "velocity": 0.4881889763779528,
                    "duration": 0.625
                },
                {
                    "name": "E3",
                    "midi": 52,
                    "time": 100.3125,
                    "velocity": 0.4881889763779528,
                    "duration": 0.625
                },
                {
                    "name": "A3",
                    "midi": 57,
                    "time": 100.3125,
                    "velocity": 0.4881889763779528,
                    "duration": 0.625
                },
                {
                    "name": "C4",
                    "midi": 60,
                    "time": 100.3125,
                    "velocity": 0.4881889763779528,
                    "duration": 0.625
                },
                {
                    "name": "D3",
                    "midi": 50,
                    "time": 100.9375,
                    "velocity": 0.4881889763779528,
                    "duration": 0.3125
                },
                {
                    "name": "G3",
                    "midi": 55,
                    "time": 100.9375,
                    "velocity": 0.4881889763779528,
                    "duration": 0.3125
                },
                {
                    "name": "B3",
                    "midi": 59,
                    "time": 100.9375,
                    "velocity": 0.4881889763779528,
                    "duration": 0.3125
                },
                {
                    "name": "D4",
                    "midi": 62,
                    "time": 100.9375,
                    "velocity": 0.4881889763779528,
                    "duration": 0.3125
                },
                {
                    "name": "D#3",
                    "midi": 51,
                    "time": 101.25,
                    "velocity": 0.4881889763779528,
                    "duration": 0.3125
                },
                {
                    "name": "G3",
                    "midi": 55,
                    "time": 101.25,
                    "velocity": 0.4881889763779528,
                    "duration": 0.3125
                },
                {
                    "name": "C4",
                    "midi": 60,
                    "time": 101.25,
                    "velocity": 0.4881889763779528,
                    "duration": 0.3125
                },
                {
                    "name": "D#4",
                    "midi": 63,
                    "time": 101.25,
                    "velocity": 0.4881889763779528,
                    "duration": 0.3125
                },
                {
                    "name": "E3",
                    "midi": 52,
                    "time": 101.5625,
                    "velocity": 0.4881889763779528,
                    "duration": 0.3125
                },
                {
                    "name": "G3",
                    "midi": 55,
                    "time": 101.5625,
                    "velocity": 0.4881889763779528,
                    "duration": 0.3125
                },
                {
                    "name": "C4",
                    "midi": 60,
                    "time": 101.5625,
                    "velocity": 0.4881889763779528,
                    "duration": 0.3125
                },
                {
                    "name": "E4",
                    "midi": 64,
                    "time": 101.5625,
                    "velocity": 0.4881889763779528,
                    "duration": 0.3125
                },
                {
                    "name": "G3",
                    "midi": 55,
                    "time": 101.875,
                    "velocity": 0.4881889763779528,
                    "duration": 0.3125
                },
                {
                    "name": "C4",
                    "midi": 60,
                    "time": 101.875,
                    "velocity": 0.4881889763779528,
                    "duration": 0.3125
                },
                {
                    "name": "E4",
                    "midi": 64,
                    "time": 101.875,
                    "velocity": 0.4881889763779528,
                    "duration": 0.3125
                },
                {
                    "name": "G4",
                    "midi": 67,
                    "time": 101.875,
                    "velocity": 0.4881889763779528,
                    "duration": 0.3125
                },
                {
                    "name": "A3",
                    "midi": 57,
                    "time": 102.1875,
                    "velocity": 0.5905511811023622,
                    "duration": 0.3125
                },
                {
                    "name": "C4",
                    "midi": 60,
                    "time": 102.1875,
                    "velocity": 0.5905511811023622,
                    "duration": 0.3125
                },
                {
                    "name": "E4",
                    "midi": 64,
                    "time": 102.1875,
                    "velocity": 0.5905511811023622,
                    "duration": 0.3125
                },
                {
                    "name": "A4",
                    "midi": 69,
                    "time": 102.1875,
                    "velocity": 0.5905511811023622,
                    "duration": 0.3125
                },
                {
                    "name": "C4",
                    "midi": 60,
                    "time": 102.5,
                    "velocity": 0.5905511811023622,
                    "duration": 0.3125
                },
                {
                    "name": "A4",
                    "midi": 69,
                    "time": 102.5,
                    "velocity": 0.5905511811023622,
                    "duration": 0.3125
                },
                {
                    "name": "C5",
                    "midi": 72,
                    "time": 102.5,
                    "velocity": 0.5905511811023622,
                    "duration": 0.3125
                },
                {
                    "name": "B3",
                    "midi": 59,
                    "time": 102.8125,
                    "velocity": 0.5905511811023622,
                    "duration": 0.3125
                },
                {
                    "name": "G4",
                    "midi": 67,
                    "time": 102.8125,
                    "velocity": 0.5905511811023622,
                    "duration": 0.3125
                },
                {
                    "name": "B4",
                    "midi": 71,
                    "time": 102.8125,
                    "velocity": 0.5905511811023622,
                    "duration": 0.3125
                },
                {
                    "name": "D4",
                    "midi": 62,
                    "time": 103.125,
                    "velocity": 0.5905511811023622,
                    "duration": 0.3125
                },
                {
                    "name": "B4",
                    "midi": 71,
                    "time": 103.125,
                    "velocity": 0.5905511811023622,
                    "duration": 0.3125
                },
                {
                    "name": "D5",
                    "midi": 74,
                    "time": 103.125,
                    "velocity": 0.5905511811023622,
                    "duration": 0.3125
                },
                {
                    "name": "B3",
                    "midi": 59,
                    "time": 103.4375,
                    "velocity": 0.5905511811023622,
                    "duration": 0.3125
                },
                {
                    "name": "G4",
                    "midi": 67,
                    "time": 103.4375,
                    "velocity": 0.5905511811023622,
                    "duration": 0.3125
                },
                {
                    "name": "B4",
                    "midi": 71,
                    "time": 103.4375,
                    "velocity": 0.5905511811023622,
                    "duration": 0.3125
                },
                {
                    "name": "A3",
                    "midi": 57,
                    "time": 103.75,
                    "velocity": 0.5905511811023622,
                    "duration": 0.3125
                },
                {
                    "name": "F#4",
                    "midi": 66,
                    "time": 103.75,
                    "velocity": 0.5905511811023622,
                    "duration": 0.3125
                },
                {
                    "name": "A4",
                    "midi": 69,
                    "time": 103.75,
                    "velocity": 0.5905511811023622,
                    "duration": 0.3125
                },
                {
                    "name": "G3",
                    "midi": 55,
                    "time": 104.0625,
                    "velocity": 0.5905511811023622,
                    "duration": 0.3125
                },
                {
                    "name": "E4",
                    "midi": 64,
                    "time": 104.0625,
                    "velocity": 0.5905511811023622,
                    "duration": 0.3125
                },
                {
                    "name": "G4",
                    "midi": 67,
                    "time": 104.0625,
                    "velocity": 0.5905511811023622,
                    "duration": 0.3125
                },
                {
                    "name": "B3",
                    "midi": 59,
                    "time": 104.375,
                    "velocity": 0.5905511811023622,
                    "duration": 0.3125
                },
                {
                    "name": "G4",
                    "midi": 67,
                    "time": 104.375,
                    "velocity": 0.5905511811023622,
                    "duration": 0.3125
                },
                {
                    "name": "B4",
                    "midi": 71,
                    "time": 104.375,
                    "velocity": 0.5905511811023622,
                    "duration": 0.3125
                },
                {
                    "name": "G3",
                    "midi": 55,
                    "time": 104.6875,
                    "velocity": 0.5905511811023622,
                    "duration": 0.3125
                },
                {
                    "name": "E4",
                    "midi": 64,
                    "time": 104.6875,
                    "velocity": 0.5905511811023622,
                    "duration": 0.3125
                },
                {
                    "name": "G4",
                    "midi": 67,
                    "time": 104.6875,
                    "velocity": 0.5905511811023622,
                    "duration": 0.3125
                },
                {
                    "name": "F#4",
                    "midi": 66,
                    "time": 105,
                    "velocity": 0.5905511811023622,
                    "duration": 0.3125
                },
                {
                    "name": "E4",
                    "midi": 64,
                    "time": 105.3125,
                    "velocity": 0.5905511811023622,
                    "duration": 0.15625
                },
                {
                    "name": "F#4",
                    "midi": 66,
                    "time": 105.46875,
                    "velocity": 0.5905511811023622,
                    "duration": 0.15625
                },
                {
                    "name": "G#4",
                    "midi": 68,
                    "time": 105.625,
                    "velocity": 0.5905511811023622,
                    "duration": 0.15625
                },
                {
                    "name": "B4",
                    "midi": 71,
                    "time": 105.78125,
                    "velocity": 0.5905511811023622,
                    "duration": 0.3125
                },
                {
                    "name": "A4",
                    "midi": 69,
                    "time": 106.09375,
                    "velocity": 0.5905511811023622,
                    "duration": 0.15625
                },
                {
                    "name": "E4",
                    "midi": 64,
                    "time": 106.25,
                    "velocity": 0.5905511811023622,
                    "duration": 0.3125
                },
                {
                    "name": "D4",
                    "midi": 62,
                    "time": 106.5625,
                    "velocity": 0.5905511811023622,
                    "duration": 0.15625
                },
                {
                    "name": "E4",
                    "midi": 64,
                    "time": 106.71875,
                    "velocity": 0.5905511811023622,
                    "duration": 0.15625
                },
                {
                    "name": "F#4",
                    "midi": 66,
                    "time": 106.875,
                    "velocity": 0.5905511811023622,
                    "duration": 0.15625
                },
                {
                    "name": "A4",
                    "midi": 69,
                    "time": 107.03125,
                    "velocity": 0.5905511811023622,
                    "duration": 0.3125
                },
                {
                    "name": "G4",
                    "midi": 67,
                    "time": 107.34375,
                    "velocity": 0.5905511811023622,
                    "duration": 0.15625
                },
                {
                    "name": "D3",
                    "midi": 50,
                    "time": 107.5,
                    "velocity": 0.3858267716535433,
                    "duration": 0.3125
                },
                {
                    "name": "G3",
                    "midi": 55,
                    "time": 107.5,
                    "velocity": 0.3858267716535433,
                    "duration": 0.3125
                },
                {
                    "name": "B3",
                    "midi": 59,
                    "time": 107.5,
                    "velocity": 0.3858267716535433,
                    "duration": 0.3125
                },
                {
                    "name": "D4",
                    "midi": 62,
                    "time": 107.5,
                    "velocity": 0.3858267716535433,
                    "duration": 0.3125
                },
                {
                    "name": "E3",
                    "midi": 52,
                    "time": 107.8125,
                    "velocity": 0.3858267716535433,
                    "duration": 0.625
                },
                {
                    "name": "G3",
                    "midi": 55,
                    "time": 107.8125,
                    "velocity": 0.3858267716535433,
                    "duration": 0.625
                },
                {
                    "name": "B3",
                    "midi": 59,
                    "time": 107.8125,
                    "velocity": 0.3858267716535433,
                    "duration": 0.625
                },
                {
                    "name": "E4",
                    "midi": 64,
                    "time": 107.8125,
                    "velocity": 0.3858267716535433,
                    "duration": 0.625
                },
                {
                    "name": "F3",
                    "midi": 53,
                    "time": 108.4375,
                    "velocity": 0.4881889763779528,
                    "duration": 0.3125
                },
                {
                    "name": "G3",
                    "midi": 55,
                    "time": 108.4375,
                    "velocity": 0.4881889763779528,
                    "duration": 0.3125
                },
                {
                    "name": "B3",
                    "midi": 59,
                    "time": 108.4375,
                    "velocity": 0.4881889763779528,
                    "duration": 0.3125
                },
                {
                    "name": "F4",
                    "midi": 65,
                    "time": 108.4375,
                    "velocity": 0.4881889763779528,
                    "duration": 0.3125
                },
                {
                    "name": "G3",
                    "midi": 55,
                    "time": 108.75,
                    "velocity": 0.4881889763779528,
                    "duration": 0.3125
                },
                {
                    "name": "B3",
                    "midi": 59,
                    "time": 108.75,
                    "velocity": 0.4881889763779528,
                    "duration": 0.3125
                },
                {
                    "name": "D4",
                    "midi": 62,
                    "time": 108.75,
                    "velocity": 0.4881889763779528,
                    "duration": 0.3125
                },
                {
                    "name": "G4",
                    "midi": 67,
                    "time": 108.75,
                    "velocity": 0.4881889763779528,
                    "duration": 0.3125
                },
                {
                    "name": "F3",
                    "midi": 53,
                    "time": 109.0625,
                    "velocity": 0.4881889763779528,
                    "duration": 0.3125
                },
                {
                    "name": "B3",
                    "midi": 59,
                    "time": 109.0625,
                    "velocity": 0.4881889763779528,
                    "duration": 0.3125
                },
                {
                    "name": "D4",
                    "midi": 62,
                    "time": 109.0625,
                    "velocity": 0.4881889763779528,
                    "duration": 0.3125
                },
                {
                    "name": "F4",
                    "midi": 65,
                    "time": 109.0625,
                    "velocity": 0.4881889763779528,
                    "duration": 0.3125
                },
                {
                    "name": "E3",
                    "midi": 52,
                    "time": 109.375,
                    "velocity": 0.4881889763779528,
                    "duration": 0.3125
                },
                {
                    "name": "F3",
                    "midi": 53,
                    "time": 109.375,
                    "velocity": 0.4881889763779528,
                    "duration": 0.3125
                },
                {
                    "name": "B3",
                    "midi": 59,
                    "time": 109.375,
                    "velocity": 0.4881889763779528,
                    "duration": 0.3125
                },
                {
                    "name": "E4",
                    "midi": 64,
                    "time": 109.375,
                    "velocity": 0.4881889763779528,
                    "duration": 0.3125
                },
                {
                    "name": "D3",
                    "midi": 50,
                    "time": 109.6875,
                    "velocity": 0.4881889763779528,
                    "duration": 0.3125
                },
                {
                    "name": "F3",
                    "midi": 53,
                    "time": 109.6875,
                    "velocity": 0.4881889763779528,
                    "duration": 0.3125
                },
                {
                    "name": "B3",
                    "midi": 59,
                    "time": 109.6875,
                    "velocity": 0.4881889763779528,
                    "duration": 0.3125
                },
                {
                    "name": "D4",
                    "midi": 62,
                    "time": 109.6875,
                    "velocity": 0.4881889763779528,
                    "duration": 0.3125
                },
                {
                    "name": "B2",
                    "midi": 47,
                    "time": 110,
                    "velocity": 0.4881889763779528,
                    "duration": 0.3125
                },
                {
                    "name": "E3",
                    "midi": 52,
                    "time": 110,
                    "velocity": 0.4881889763779528,
                    "duration": 0.3125
                },
                {
                    "name": "A3",
                    "midi": 57,
                    "time": 110,
                    "velocity": 0.4881889763779528,
                    "duration": 0.3125
                },
                {
                    "name": "B3",
                    "midi": 59,
                    "time": 110,
                    "velocity": 0.4881889763779528,
                    "duration": 0.3125
                },
                {
                    "name": "C3",
                    "midi": 48,
                    "time": 110.3125,
                    "velocity": 0.4881889763779528,
                    "duration": 0.625
                },
                {
                    "name": "E3",
                    "midi": 52,
                    "time": 110.3125,
                    "velocity": 0.4881889763779528,
                    "duration": 0.625
                },
                {
                    "name": "A3",
                    "midi": 57,
                    "time": 110.3125,
                    "velocity": 0.4881889763779528,
                    "duration": 0.625
                },
                {
                    "name": "C4",
                    "midi": 60,
                    "time": 110.3125,
                    "velocity": 0.4881889763779528,
                    "duration": 0.625
                },
                {
                    "name": "D3",
                    "midi": 50,
                    "time": 110.9375,
                    "velocity": 0.4881889763779528,
                    "duration": 0.3125
                },
                {
                    "name": "G3",
                    "midi": 55,
                    "time": 110.9375,
                    "velocity": 0.4881889763779528,
                    "duration": 0.3125
                },
                {
                    "name": "B3",
                    "midi": 59,
                    "time": 110.9375,
                    "velocity": 0.4881889763779528,
                    "duration": 0.3125
                },
                {
                    "name": "D4",
                    "midi": 62,
                    "time": 110.9375,
                    "velocity": 0.4881889763779528,
                    "duration": 0.3125
                },
                {
                    "name": "D#3",
                    "midi": 51,
                    "time": 111.25,
                    "velocity": 0.4881889763779528,
                    "duration": 0.3125
                },
                {
                    "name": "G3",
                    "midi": 55,
                    "time": 111.25,
                    "velocity": 0.4881889763779528,
                    "duration": 0.3125
                },
                {
                    "name": "C4",
                    "midi": 60,
                    "time": 111.25,
                    "velocity": 0.4881889763779528,
                    "duration": 0.3125
                },
                {
                    "name": "D#4",
                    "midi": 63,
                    "time": 111.25,
                    "velocity": 0.4881889763779528,
                    "duration": 0.3125
                },
                {
                    "name": "E3",
                    "midi": 52,
                    "time": 111.5625,
                    "velocity": 0.4881889763779528,
                    "duration": 0.3125
                },
                {
                    "name": "G3",
                    "midi": 55,
                    "time": 111.5625,
                    "velocity": 0.4881889763779528,
                    "duration": 0.3125
                },
                {
                    "name": "C4",
                    "midi": 60,
                    "time": 111.5625,
                    "velocity": 0.4881889763779528,
                    "duration": 0.3125
                },
                {
                    "name": "E4",
                    "midi": 64,
                    "time": 111.5625,
                    "velocity": 0.4881889763779528,
                    "duration": 0.3125
                },
                {
                    "name": "G3",
                    "midi": 55,
                    "time": 111.875,
                    "velocity": 0.4881889763779528,
                    "duration": 0.3125
                },
                {
                    "name": "C4",
                    "midi": 60,
                    "time": 111.875,
                    "velocity": 0.4881889763779528,
                    "duration": 0.3125
                },
                {
                    "name": "E4",
                    "midi": 64,
                    "time": 111.875,
                    "velocity": 0.4881889763779528,
                    "duration": 0.3125
                },
                {
                    "name": "G4",
                    "midi": 67,
                    "time": 111.875,
                    "velocity": 0.4881889763779528,
                    "duration": 0.3125
                },
                {
                    "name": "A3",
                    "midi": 57,
                    "time": 112.1875,
                    "velocity": 0.5905511811023622,
                    "duration": 0.3125
                },
                {
                    "name": "C4",
                    "midi": 60,
                    "time": 112.1875,
                    "velocity": 0.5905511811023622,
                    "duration": 0.3125
                },
                {
                    "name": "E4",
                    "midi": 64,
                    "time": 112.1875,
                    "velocity": 0.5905511811023622,
                    "duration": 0.3125
                },
                {
                    "name": "A4",
                    "midi": 69,
                    "time": 112.1875,
                    "velocity": 0.5905511811023622,
                    "duration": 0.3125
                },
                {
                    "name": "C5",
                    "midi": 72,
                    "time": 112.5,
                    "velocity": 0.5905511811023622,
                    "duration": 0.3125
                },
                {
                    "name": "B4",
                    "midi": 71,
                    "time": 112.8125,
                    "velocity": 0.5905511811023622,
                    "duration": 0.15625
                },
                {
                    "name": "D5",
                    "midi": 74,
                    "time": 112.96875,
                    "velocity": 0.5905511811023622,
                    "duration": 0.15625
                },
                {
                    "name": "A4",
                    "midi": 69,
                    "time": 113.125,
                    "velocity": 0.5905511811023622,
                    "duration": 0.15625
                },
                {
                    "name": "G4",
                    "midi": 67,
                    "time": 113.28125,
                    "velocity": 0.5905511811023622,
                    "duration": 0.3125
                },
                {
                    "name": "B4",
                    "midi": 71,
                    "time": 113.59375,
                    "velocity": 0.5905511811023622,
                    "duration": 0.15625
                },
                {
                    "name": "F#4",
                    "midi": 66,
                    "time": 113.75,
                    "velocity": 0.5905511811023622,
                    "duration": 0.3125
                },
                {
                    "name": "E4",
                    "midi": 64,
                    "time": 114.0625,
                    "velocity": 0.5905511811023622,
                    "duration": 0.15625
                },
                {
                    "name": "G4",
                    "midi": 67,
                    "time": 114.21875,
                    "velocity": 0.5905511811023622,
                    "duration": 0.15625
                },
                {
                    "name": "D4",
                    "midi": 62,
                    "time": 114.375,
                    "velocity": 0.5905511811023622,
                    "duration": 0.15625
                },
                {
                    "name": "C4",
                    "midi": 60,
                    "time": 114.53125,
                    "velocity": 0.5905511811023622,
                    "duration": 0.3125
                },
                {
                    "name": "E4",
                    "midi": 64,
                    "time": 114.84375,
                    "velocity": 0.5905511811023622,
                    "duration": 0.15625
                },
                {
                    "name": "G3",
                    "midi": 55,
                    "time": 115,
                    "velocity": 0.5905511811023622,
                    "duration": 0.625
                },
                {
                    "name": "B3",
                    "midi": 59,
                    "time": 115,
                    "velocity": 0.5905511811023622,
                    "duration": 0.625
                },
                {
                    "name": "D4",
                    "midi": 62,
                    "time": 115,
                    "velocity": 0.5905511811023622,
                    "duration": 0.625
                },
                {
                    "name": "G4",
                    "midi": 67,
                    "time": 115,
                    "velocity": 0.5905511811023622,
                    "duration": 0.625
                },
                {
                    "name": "A3",
                    "midi": 57,
                    "time": 115.625,
                    "velocity": 0.5905511811023622,
                    "duration": 0.625
                },
                {
                    "name": "C4",
                    "midi": 60,
                    "time": 115.625,
                    "velocity": 0.5905511811023622,
                    "duration": 0.625
                },
                {
                    "name": "F4",
                    "midi": 65,
                    "time": 115.625,
                    "velocity": 0.5905511811023622,
                    "duration": 0.625
                },
                {
                    "name": "A4",
                    "midi": 69,
                    "time": 115.625,
                    "velocity": 0.5905511811023622,
                    "duration": 0.625
                },
                {
                    "name": "B3",
                    "midi": 59,
                    "time": 116.25,
                    "velocity": 0.5905511811023622,
                    "duration": 0.625
                },
                {
                    "name": "E4",
                    "midi": 64,
                    "time": 116.25,
                    "velocity": 0.5905511811023622,
                    "duration": 0.625
                },
                {
                    "name": "G4",
                    "midi": 67,
                    "time": 116.25,
                    "velocity": 0.5905511811023622,
                    "duration": 0.625
                },
                {
                    "name": "B4",
                    "midi": 71,
                    "time": 116.25,
                    "velocity": 0.5905511811023622,
                    "duration": 0.625
                },
                {
                    "name": "C4",
                    "midi": 60,
                    "time": 116.875,
                    "velocity": 0.5905511811023622,
                    "duration": 0.625
                },
                {
                    "name": "F4",
                    "midi": 65,
                    "time": 116.875,
                    "velocity": 0.5905511811023622,
                    "duration": 0.625
                },
                {
                    "name": "A4",
                    "midi": 69,
                    "time": 116.875,
                    "velocity": 0.5905511811023622,
                    "duration": 0.625
                },
                {
                    "name": "C5",
                    "midi": 72,
                    "time": 116.875,
                    "velocity": 0.5905511811023622,
                    "duration": 0.625
                },
                {
                    "name": "C2",
                    "midi": 36,
                    "time": 117.5,
                    "velocity": 0.4881889763779528,
                    "duration": 0.625
                },
                {
                    "name": "G2",
                    "midi": 43,
                    "time": 117.5,
                    "velocity": 0.4881889763779528,
                    "duration": 0.625
                },
                {
                    "name": "G3",
                    "midi": 55,
                    "time": 118.125,
                    "velocity": 0.4881889763779528,
                    "duration": 0.3125
                },
                {
                    "name": "C4",
                    "midi": 60,
                    "time": 118.125,
                    "velocity": 0.4881889763779528,
                    "duration": 0.3125
                },
                {
                    "name": "E4",
                    "midi": 64,
                    "time": 118.125,
                    "velocity": 0.4881889763779528,
                    "duration": 0.3125
                },
                {
                    "name": "A1",
                    "midi": 33,
                    "time": 118.75,
                    "velocity": 0.4881889763779528,
                    "duration": 0.625
                },
                {
                    "name": "A2",
                    "midi": 45,
                    "time": 118.75,
                    "velocity": 0.4881889763779528,
                    "duration": 0.625
                },
                {
                    "name": "C4",
                    "midi": 60,
                    "time": 119.375,
                    "velocity": 0.4881889763779528,
                    "duration": 0.3125
                },
                {
                    "name": "D#4",
                    "midi": 63,
                    "time": 119.375,
                    "velocity": 0.4881889763779528,
                    "duration": 0.3125
                },
                {
                    "name": "G4",
                    "midi": 67,
                    "time": 119.375,
                    "velocity": 0.4881889763779528,
                    "duration": 0.3125
                },
                {
                    "name": "D#4",
                    "midi": 63,
                    "time": 120,
                    "velocity": 0.4881889763779528,
                    "duration": 0.15625
                },
                {
                    "name": "D#5",
                    "midi": 75,
                    "time": 120,
                    "velocity": 0.4881889763779528,
                    "duration": 0.15625
                },
                {
                    "name": "D4",
                    "midi": 62,
                    "time": 120.15625,
                    "velocity": 0.4881889763779528,
                    "duration": 0.15625
                },
                {
                    "name": "D5",
                    "midi": 74,
                    "time": 120.15625,
                    "velocity": 0.4881889763779528,
                    "duration": 0.15625
                },
                {
                    "name": "C#4",
                    "midi": 61,
                    "time": 120.3125,
                    "velocity": 0.4881889763779528,
                    "duration": 0.3125
                },
                {
                    "name": "C#5",
                    "midi": 73,
                    "time": 120.3125,
                    "velocity": 0.4881889763779528,
                    "duration": 0.3125
                },
                {
                    "name": "C4",
                    "midi": 60,
                    "time": 120.625,
                    "velocity": 0.4881889763779528,
                    "duration": 0.15625
                },
                {
                    "name": "C5",
                    "midi": 72,
                    "time": 120.625,
                    "velocity": 0.4881889763779528,
                    "duration": 0.15625
                },
                {
                    "name": "B3",
                    "midi": 59,
                    "time": 120.78125,
                    "velocity": 0.4881889763779528,
                    "duration": 0.15625
                },
                {
                    "name": "B4",
                    "midi": 71,
                    "time": 120.78125,
                    "velocity": 0.4881889763779528,
                    "duration": 0.15625
                },
                {
                    "name": "A#3",
                    "midi": 58,
                    "time": 120.9375,
                    "velocity": 0.4881889763779528,
                    "duration": 0.3125
                },
                {
                    "name": "A#4",
                    "midi": 70,
                    "time": 120.9375,
                    "velocity": 0.4881889763779528,
                    "duration": 0.3125
                },
                {
                    "name": "A3",
                    "midi": 57,
                    "time": 121.25,
                    "velocity": 0.4881889763779528,
                    "duration": 0.15625
                },
                {
                    "name": "A4",
                    "midi": 69,
                    "time": 121.25,
                    "velocity": 0.4881889763779528,
                    "duration": 0.15625
                },
                {
                    "name": "G#3",
                    "midi": 56,
                    "time": 121.40625,
                    "velocity": 0.4881889763779528,
                    "duration": 0.15625
                },
                {
                    "name": "G#4",
                    "midi": 68,
                    "time": 121.40625,
                    "velocity": 0.4881889763779528,
                    "duration": 0.15625
                },
                {
                    "name": "G3",
                    "midi": 55,
                    "time": 121.5625,
                    "velocity": 0.4881889763779528,
                    "duration": 0.3125
                },
                {
                    "name": "G4",
                    "midi": 67,
                    "time": 121.5625,
                    "velocity": 0.4881889763779528,
                    "duration": 0.3125
                },
                {
                    "name": "F#3",
                    "midi": 54,
                    "time": 121.875,
                    "velocity": 0.4881889763779528,
                    "duration": 0.15625
                },
                {
                    "name": "F#4",
                    "midi": 66,
                    "time": 121.875,
                    "velocity": 0.4881889763779528,
                    "duration": 0.15625
                },
                {
                    "name": "F3",
                    "midi": 53,
                    "time": 122.03125,
                    "velocity": 0.4881889763779528,
                    "duration": 0.15625
                },
                {
                    "name": "F4",
                    "midi": 65,
                    "time": 122.03125,
                    "velocity": 0.4881889763779528,
                    "duration": 0.15625
                },
                {
                    "name": "E3",
                    "midi": 52,
                    "time": 122.1875,
                    "velocity": 0.4881889763779528,
                    "duration": 0.3125
                },
                {
                    "name": "E4",
                    "midi": 64,
                    "time": 122.1875,
                    "velocity": 0.4881889763779528,
                    "duration": 0.3125
                },
                {
                    "name": "D#3",
                    "midi": 51,
                    "time": 122.5,
                    "velocity": 0.4881889763779528,
                    "duration": 0.15625
                },
                {
                    "name": "D#4",
                    "midi": 63,
                    "time": 122.5,
                    "velocity": 0.4881889763779528,
                    "duration": 0.15625
                },
                {
                    "name": "D3",
                    "midi": 50,
                    "time": 122.65625,
                    "velocity": 0.4881889763779528,
                    "duration": 0.15625
                },
                {
                    "name": "D4",
                    "midi": 62,
                    "time": 122.65625,
                    "velocity": 0.4881889763779528,
                    "duration": 0.15625
                },
                {
                    "name": "C#3",
                    "midi": 49,
                    "time": 122.8125,
                    "velocity": 0.4881889763779528,
                    "duration": 0.3125
                },
                {
                    "name": "G3",
                    "midi": 55,
                    "time": 122.8125,
                    "velocity": 0.4881889763779528,
                    "duration": 0.3125
                },
                {
                    "name": "D#3",
                    "midi": 51,
                    "time": 123.125,
                    "velocity": 0.4881889763779528,
                    "duration": 0.3125
                },
                {
                    "name": "B3",
                    "midi": 59,
                    "time": 123.125,
                    "velocity": 0.4881889763779528,
                    "duration": 0.3125
                },
                {
                    "name": "F3",
                    "midi": 53,
                    "time": 123.4375,
                    "velocity": 0.4881889763779528,
                    "duration": 0.3125
                },
                {
                    "name": "D4",
                    "midi": 62,
                    "time": 123.4375,
                    "velocity": 0.4881889763779528,
                    "duration": 0.3125
                },
                {
                    "name": "A3",
                    "midi": 57,
                    "time": 123.75,
                    "velocity": 0.4881889763779528,
                    "duration": 0.3125
                },
                {
                    "name": "F4",
                    "midi": 65,
                    "time": 123.75,
                    "velocity": 0.4881889763779528,
                    "duration": 0.3125
                },
                {
                    "name": "G3",
                    "midi": 55,
                    "time": 124.0625,
                    "velocity": 0.4881889763779528,
                    "duration": 0.3125
                },
                {
                    "name": "E4",
                    "midi": 64,
                    "time": 124.0625,
                    "velocity": 0.4881889763779528,
                    "duration": 0.3125
                },
                {
                    "name": "F#3",
                    "midi": 54,
                    "time": 124.375,
                    "velocity": 0.4881889763779528,
                    "duration": 0.3125
                },
                {
                    "name": "D4",
                    "midi": 62,
                    "time": 124.375,
                    "velocity": 0.4881889763779528,
                    "duration": 0.3125
                },
                {
                    "name": "E3",
                    "midi": 52,
                    "time": 124.6875,
                    "velocity": 0.4881889763779528,
                    "duration": 0.3125
                },
                {
                    "name": "C4",
                    "midi": 60,
                    "time": 124.6875,
                    "velocity": 0.4881889763779528,
                    "duration": 0.3125
                },
                {
                    "name": "G3",
                    "midi": 55,
                    "time": 125,
                    "velocity": 0.4881889763779528,
                    "duration": 0.625
                },
                {
                    "name": "D4",
                    "midi": 62,
                    "time": 125,
                    "velocity": 0.4881889763779528,
                    "duration": 0.625
                },
                {
                    "name": "A3",
                    "midi": 57,
                    "time": 127.5,
                    "velocity": 0.5905511811023622,
                    "duration": 0.3125
                },
                {
                    "name": "D4",
                    "midi": 62,
                    "time": 127.5,
                    "velocity": 0.5905511811023622,
                    "duration": 0.3125
                },
                {
                    "name": "D#4",
                    "midi": 63,
                    "time": 127.8125,
                    "velocity": 0.5905511811023622,
                    "duration": 0.15625
                },
                {
                    "name": "D4",
                    "midi": 62,
                    "time": 127.96875,
                    "velocity": 0.5905511811023622,
                    "duration": 0.15625
                },
                {
                    "name": "D#4",
                    "midi": 63,
                    "time": 128.125,
                    "velocity": 0.5905511811023622,
                    "duration": 0.15625
                },
                {
                    "name": "D4",
                    "midi": 62,
                    "time": 128.28125,
                    "velocity": 0.5905511811023622,
                    "duration": 0.06119791666665719
                },
                {
                    "name": "D#4",
                    "midi": 63,
                    "time": 128.59375,
                    "velocity": 0.5905511811023622,
                    "duration": 0.029947916666657193
                },
                {
                    "name": "A#3",
                    "midi": 58,
                    "time": 128.75,
                    "velocity": 0.5905511811023622,
                    "duration": 0.3125
                },
                {
                    "name": "E4",
                    "midi": 64,
                    "time": 128.75,
                    "velocity": 0.5905511811023622,
                    "duration": 0.3125
                },
                {
                    "name": "F4",
                    "midi": 65,
                    "time": 129.0625,
                    "velocity": 0.5905511811023622,
                    "duration": 0.15625
                },
                {
                    "name": "E4",
                    "midi": 64,
                    "time": 129.21875,
                    "velocity": 0.5905511811023622,
                    "duration": 0.15625
                },
                {
                    "name": "F4",
                    "midi": 65,
                    "time": 129.375,
                    "velocity": 0.5905511811023622,
                    "duration": 0.15625
                },
                {
                    "name": "E4",
                    "midi": 64,
                    "time": 129.53125,
                    "velocity": 0.5905511811023622,
                    "duration": 0.06119791666665719
                },
                {
                    "name": "F4",
                    "midi": 65,
                    "time": 129.84375,
                    "velocity": 0.5905511811023622,
                    "duration": 0.029947916666657193
                },
                {
                    "name": "B3",
                    "midi": 59,
                    "time": 130,
                    "velocity": 0.5905511811023622,
                    "duration": 0.3125
                },
                {
                    "name": "C4",
                    "midi": 60,
                    "time": 130.3125,
                    "velocity": 0.5905511811023622,
                    "duration": 0.15625
                },
                {
                    "name": "B3",
                    "midi": 59,
                    "time": 130.46875,
                    "velocity": 0.5905511811023622,
                    "duration": 0.15625
                },
                {
                    "name": "C4",
                    "midi": 60,
                    "time": 130.625,
                    "velocity": 0.5905511811023622,
                    "duration": 0.15625
                },
                {
                    "name": "B3",
                    "midi": 59,
                    "time": 130.78125,
                    "velocity": 0.5905511811023622,
                    "duration": 0.06119791666665719
                },
                {
                    "name": "C4",
                    "midi": 60,
                    "time": 131.09375,
                    "velocity": 0.5905511811023622,
                    "duration": 0.029947916666657193
                },
                {
                    "name": "D#3",
                    "midi": 51,
                    "time": 131.25,
                    "velocity": 0.5905511811023622,
                    "duration": 0.3125
                },
                {
                    "name": "F3",
                    "midi": 53,
                    "time": 131.5625,
                    "velocity": 0.5905511811023622,
                    "duration": 0.15625
                },
                {
                    "name": "D#3",
                    "midi": 51,
                    "time": 131.71875,
                    "velocity": 0.5905511811023622,
                    "duration": 0.15625
                },
                {
                    "name": "F3",
                    "midi": 53,
                    "time": 131.875,
                    "velocity": 0.5905511811023622,
                    "duration": 0.15625
                },
                {
                    "name": "D#3",
                    "midi": 51,
                    "time": 132.03125,
                    "velocity": 0.5905511811023622,
                    "duration": 0.06119791666665719
                },
                {
                    "name": "E3",
                    "midi": 52,
                    "time": 132.34375,
                    "velocity": 0.5905511811023622,
                    "duration": 0.029947916666657193
                },
                {
                    "name": "F#3",
                    "midi": 54,
                    "time": 132.5,
                    "velocity": 0.5905511811023622,
                    "duration": 0.3125
                },
                {
                    "name": "A#3",
                    "midi": 58,
                    "time": 132.5,
                    "velocity": 0.5905511811023622,
                    "duration": 0.3125
                },
                {
                    "name": "D4",
                    "midi": 62,
                    "time": 132.5,
                    "velocity": 0.5905511811023622,
                    "duration": 0.3125
                },
                {
                    "name": "G3",
                    "midi": 55,
                    "time": 132.8125,
                    "velocity": 0.5905511811023622,
                    "duration": 0.15625
                },
                {
                    "name": "C4",
                    "midi": 60,
                    "time": 132.8125,
                    "velocity": 0.5905511811023622,
                    "duration": 0.15625
                },
                {
                    "name": "E4",
                    "midi": 64,
                    "time": 132.8125,
                    "velocity": 0.5905511811023622,
                    "duration": 0.15625
                },
                {
                    "name": "F#3",
                    "midi": 54,
                    "time": 132.96875,
                    "velocity": 0.5905511811023622,
                    "duration": 0.15625
                },
                {
                    "name": "A#3",
                    "midi": 58,
                    "time": 132.96875,
                    "velocity": 0.5905511811023622,
                    "duration": 0.15625
                },
                {
                    "name": "D4",
                    "midi": 62,
                    "time": 132.96875,
                    "velocity": 0.5905511811023622,
                    "duration": 0.15625
                },
                {
                    "name": "G3",
                    "midi": 55,
                    "time": 133.125,
                    "velocity": 0.5905511811023622,
                    "duration": 0.15625
                },
                {
                    "name": "C4",
                    "midi": 60,
                    "time": 133.125,
                    "velocity": 0.5905511811023622,
                    "duration": 0.15625
                },
                {
                    "name": "E4",
                    "midi": 64,
                    "time": 133.125,
                    "velocity": 0.5905511811023622,
                    "duration": 0.15625
                },
                {
                    "name": "F#3",
                    "midi": 54,
                    "time": 133.28125,
                    "velocity": 0.5905511811023622,
                    "duration": 0.06119791666665719
                },
                {
                    "name": "A#3",
                    "midi": 58,
                    "time": 133.28125,
                    "velocity": 0.5905511811023622,
                    "duration": 0.06119791666665719
                },
                {
                    "name": "D4",
                    "midi": 62,
                    "time": 133.28125,
                    "velocity": 0.5905511811023622,
                    "duration": 0.06119791666665719
                },
                {
                    "name": "G3",
                    "midi": 55,
                    "time": 133.59375,
                    "velocity": 0.5905511811023622,
                    "duration": 0.029947916666657193
                },
                {
                    "name": "C4",
                    "midi": 60,
                    "time": 133.59375,
                    "velocity": 0.5905511811023622,
                    "duration": 0.029947916666657193
                },
                {
                    "name": "E4",
                    "midi": 64,
                    "time": 133.59375,
                    "velocity": 0.5905511811023622,
                    "duration": 0.029947916666657193
                },
                {
                    "name": "F#3",
                    "midi": 54,
                    "time": 133.75,
                    "velocity": 0.5905511811023622,
                    "duration": 0.3125
                },
                {
                    "name": "A#3",
                    "midi": 58,
                    "time": 133.75,
                    "velocity": 0.5905511811023622,
                    "duration": 0.3125
                },
                {
                    "name": "D4",
                    "midi": 62,
                    "time": 133.75,
                    "velocity": 0.5905511811023622,
                    "duration": 0.3125
                },
                {
                    "name": "G3",
                    "midi": 55,
                    "time": 134.0625,
                    "velocity": 0.5905511811023622,
                    "duration": 0.15625
                },
                {
                    "name": "C4",
                    "midi": 60,
                    "time": 134.0625,
                    "velocity": 0.5905511811023622,
                    "duration": 0.15625
                },
                {
                    "name": "E4",
                    "midi": 64,
                    "time": 134.0625,
                    "velocity": 0.5905511811023622,
                    "duration": 0.15625
                },
                {
                    "name": "F#3",
                    "midi": 54,
                    "time": 134.21875,
                    "velocity": 0.5905511811023622,
                    "duration": 0.15625
                },
                {
                    "name": "A#3",
                    "midi": 58,
                    "time": 134.21875,
                    "velocity": 0.5905511811023622,
                    "duration": 0.15625
                },
                {
                    "name": "D4",
                    "midi": 62,
                    "time": 134.21875,
                    "velocity": 0.5905511811023622,
                    "duration": 0.15625
                },
                {
                    "name": "G3",
                    "midi": 55,
                    "time": 134.375,
                    "velocity": 0.5905511811023622,
                    "duration": 0.15625
                },
                {
                    "name": "C4",
                    "midi": 60,
                    "time": 134.375,
                    "velocity": 0.5905511811023622,
                    "duration": 0.15625
                },
                {
                    "name": "E4",
                    "midi": 64,
                    "time": 134.375,
                    "velocity": 0.5905511811023622,
                    "duration": 0.15625
                },
                {
                    "name": "F#3",
                    "midi": 54,
                    "time": 134.53125,
                    "velocity": 0.5905511811023622,
                    "duration": 0.06119791666665719
                },
                {
                    "name": "A#3",
                    "midi": 58,
                    "time": 134.53125,
                    "velocity": 0.5905511811023622,
                    "duration": 0.06119791666665719
                },
                {
                    "name": "D4",
                    "midi": 62,
                    "time": 134.53125,
                    "velocity": 0.5905511811023622,
                    "duration": 0.06119791666665719
                },
                {
                    "name": "G3",
                    "midi": 55,
                    "time": 134.84375,
                    "velocity": 0.5905511811023622,
                    "duration": 0.029947916666657193
                },
                {
                    "name": "C4",
                    "midi": 60,
                    "time": 134.84375,
                    "velocity": 0.5905511811023622,
                    "duration": 0.029947916666657193
                },
                {
                    "name": "E4",
                    "midi": 64,
                    "time": 134.84375,
                    "velocity": 0.5905511811023622,
                    "duration": 0.029947916666657193
                },
                {
                    "name": "F4",
                    "midi": 65,
                    "time": 135,
                    "velocity": 0.5905511811023622,
                    "duration": 0.3125
                },
                {
                    "name": "F#4",
                    "midi": 66,
                    "time": 135.3125,
                    "velocity": 0.5905511811023622,
                    "duration": 0.15625
                },
                {
                    "name": "F4",
                    "midi": 65,
                    "time": 135.46875,
                    "velocity": 0.5905511811023622,
                    "duration": 0.15625
                },
                {
                    "name": "F#4",
                    "midi": 66,
                    "time": 135.625,
                    "velocity": 0.5905511811023622,
                    "duration": 0.15625
                },
                {
                    "name": "F4",
                    "midi": 65,
                    "time": 135.78125,
                    "velocity": 0.5905511811023622,
                    "duration": 0.06119791666665719
                },
                {
                    "name": "F#4",
                    "midi": 66,
                    "time": 136.09375,
                    "velocity": 0.5905511811023622,
                    "duration": 0.029947916666657193
                },
                {
                    "name": "G4",
                    "midi": 67,
                    "time": 136.25,
                    "velocity": 0.5905511811023622,
                    "duration": 0.3125
                },
                {
                    "name": "G#4",
                    "midi": 68,
                    "time": 136.5625,
                    "velocity": 0.5905511811023622,
                    "duration": 0.15625
                },
                {
                    "name": "G4",
                    "midi": 67,
                    "time": 136.71875,
                    "velocity": 0.5905511811023622,
                    "duration": 0.15625
                },
                {
                    "name": "G#4",
                    "midi": 68,
                    "time": 136.875,
                    "velocity": 0.5905511811023622,
                    "duration": 0.15625
                },
                {
                    "name": "G4",
                    "midi": 67,
                    "time": 137.03125,
                    "velocity": 0.5905511811023622,
                    "duration": 0.06119791666665719
                },
                {
                    "name": "G#4",
                    "midi": 68,
                    "time": 137.34375,
                    "velocity": 0.5905511811023622,
                    "duration": 0.029947916666657193
                },
                {
                    "name": "D4",
                    "midi": 62,
                    "time": 137.5,
                    "velocity": 0.5905511811023622,
                    "duration": 0.3125
                },
                {
                    "name": "D#4",
                    "midi": 63,
                    "time": 137.8125,
                    "velocity": 0.5905511811023622,
                    "duration": 0.15625
                },
                {
                    "name": "D4",
                    "midi": 62,
                    "time": 137.96875,
                    "velocity": 0.5905511811023622,
                    "duration": 0.15625
                },
                {
                    "name": "D#4",
                    "midi": 63,
                    "time": 138.125,
                    "velocity": 0.5905511811023622,
                    "duration": 0.15625
                },
                {
                    "name": "D4",
                    "midi": 62,
                    "time": 138.28125,
                    "velocity": 0.5905511811023622,
                    "duration": 0.06119791666665719
                },
                {
                    "name": "D#4",
                    "midi": 63,
                    "time": 138.59375,
                    "velocity": 0.5905511811023622,
                    "duration": 0.029947916666657193
                },
                {
                    "name": "F#3",
                    "midi": 54,
                    "time": 138.75,
                    "velocity": 0.5905511811023622,
                    "duration": 0.3125
                },
                {
                    "name": "G#3",
                    "midi": 56,
                    "time": 139.0625,
                    "velocity": 0.5905511811023622,
                    "duration": 0.15625
                },
                {
                    "name": "F#3",
                    "midi": 54,
                    "time": 139.21875,
                    "velocity": 0.5905511811023622,
                    "duration": 0.15625
                },
                {
                    "name": "G#3",
                    "midi": 56,
                    "time": 139.375,
                    "velocity": 0.5905511811023622,
                    "duration": 0.15625
                },
                {
                    "name": "F#3",
                    "midi": 54,
                    "time": 139.53125,
                    "velocity": 0.5905511811023622,
                    "duration": 0.06119791666665719
                },
                {
                    "name": "G3",
                    "midi": 55,
                    "time": 139.84375,
                    "velocity": 0.5905511811023622,
                    "duration": 0.029947916666657193
                },
                {
                    "name": "G#3",
                    "midi": 56,
                    "time": 140,
                    "velocity": 0.5905511811023622,
                    "duration": 0.029947916666657193
                },
                {
                    "name": "C#4",
                    "midi": 61,
                    "time": 140,
                    "velocity": 0.5905511811023622,
                    "duration": 0.029947916666657193
                },
                {
                    "name": "F4",
                    "midi": 65,
                    "time": 140,
                    "velocity": 0.5905511811023622,
                    "duration": 0.029947916666657193
                },
                {
                    "name": "G#3",
                    "midi": 56,
                    "time": 140.15625,
                    "velocity": 0.5905511811023622,
                    "duration": 0.029947916666657193
                },
                {
                    "name": "C#4",
                    "midi": 61,
                    "time": 140.15625,
                    "velocity": 0.5905511811023622,
                    "duration": 0.029947916666657193
                },
                {
                    "name": "F4",
                    "midi": 65,
                    "time": 140.15625,
                    "velocity": 0.5905511811023622,
                    "duration": 0.029947916666657193
                },
                {
                    "name": "A#3",
                    "midi": 58,
                    "time": 140.3125,
                    "velocity": 0.7952755905511811,
                    "duration": 0.029947916666657193
                },
                {
                    "name": "D#4",
                    "midi": 63,
                    "time": 140.3125,
                    "velocity": 0.7952755905511811,
                    "duration": 0.029947916666657193
                },
                {
                    "name": "G4",
                    "midi": 67,
                    "time": 140.3125,
                    "velocity": 0.7952755905511811,
                    "duration": 0.029947916666657193
                },
                {
                    "name": "G#3",
                    "midi": 56,
                    "time": 140.46875,
                    "velocity": 0.5905511811023622,
                    "duration": 0.029947916666657193
                },
                {
                    "name": "C#4",
                    "midi": 61,
                    "time": 140.46875,
                    "velocity": 0.5905511811023622,
                    "duration": 0.029947916666657193
                },
                {
                    "name": "F4",
                    "midi": 65,
                    "time": 140.46875,
                    "velocity": 0.5905511811023622,
                    "duration": 0.029947916666657193
                },
                {
                    "name": "A#3",
                    "midi": 58,
                    "time": 140.625,
                    "velocity": 0.7952755905511811,
                    "duration": 0.029947916666657193
                },
                {
                    "name": "D#4",
                    "midi": 63,
                    "time": 140.625,
                    "velocity": 0.7952755905511811,
                    "duration": 0.029947916666657193
                },
                {
                    "name": "G4",
                    "midi": 67,
                    "time": 140.625,
                    "velocity": 0.7952755905511811,
                    "duration": 0.029947916666657193
                },
                {
                    "name": "G#3",
                    "midi": 56,
                    "time": 140.78125,
                    "velocity": 0.5905511811023622,
                    "duration": 0.029947916666657193
                },
                {
                    "name": "C#4",
                    "midi": 61,
                    "time": 140.78125,
                    "velocity": 0.5905511811023622,
                    "duration": 0.029947916666657193
                },
                {
                    "name": "F4",
                    "midi": 65,
                    "time": 140.78125,
                    "velocity": 0.5905511811023622,
                    "duration": 0.029947916666657193
                },
                {
                    "name": "G#3",
                    "midi": 56,
                    "time": 140.9375,
                    "velocity": 0.5905511811023622,
                    "duration": 0.029947916666657193
                },
                {
                    "name": "C#4",
                    "midi": 61,
                    "time": 140.9375,
                    "velocity": 0.5905511811023622,
                    "duration": 0.029947916666657193
                },
                {
                    "name": "F4",
                    "midi": 65,
                    "time": 140.9375,
                    "velocity": 0.5905511811023622,
                    "duration": 0.029947916666657193
                },
                {
                    "name": "A#3",
                    "midi": 58,
                    "time": 141.09375,
                    "velocity": 0.5905511811023622,
                    "duration": 0.029947916666657193
                },
                {
                    "name": "D#4",
                    "midi": 63,
                    "time": 141.09375,
                    "velocity": 0.5905511811023622,
                    "duration": 0.029947916666657193
                },
                {
                    "name": "G4",
                    "midi": 67,
                    "time": 141.09375,
                    "velocity": 0.5905511811023622,
                    "duration": 0.029947916666657193
                },
                {
                    "name": "G#3",
                    "midi": 56,
                    "time": 141.25,
                    "velocity": 0.5905511811023622,
                    "duration": 0.029947916666657193
                },
                {
                    "name": "C#4",
                    "midi": 61,
                    "time": 141.25,
                    "velocity": 0.5905511811023622,
                    "duration": 0.029947916666657193
                },
                {
                    "name": "F4",
                    "midi": 65,
                    "time": 141.25,
                    "velocity": 0.5905511811023622,
                    "duration": 0.029947916666657193
                },
                {
                    "name": "G#3",
                    "midi": 56,
                    "time": 141.40625,
                    "velocity": 0.5905511811023622,
                    "duration": 0.029947916666657193
                },
                {
                    "name": "C#4",
                    "midi": 61,
                    "time": 141.40625,
                    "velocity": 0.5905511811023622,
                    "duration": 0.029947916666657193
                },
                {
                    "name": "F4",
                    "midi": 65,
                    "time": 141.40625,
                    "velocity": 0.5905511811023622,
                    "duration": 0.029947916666657193
                },
                {
                    "name": "A#3",
                    "midi": 58,
                    "time": 141.5625,
                    "velocity": 0.7952755905511811,
                    "duration": 0.029947916666657193
                },
                {
                    "name": "D#4",
                    "midi": 63,
                    "time": 141.5625,
                    "velocity": 0.7952755905511811,
                    "duration": 0.029947916666657193
                },
                {
                    "name": "G4",
                    "midi": 67,
                    "time": 141.5625,
                    "velocity": 0.7952755905511811,
                    "duration": 0.029947916666657193
                },
                {
                    "name": "G#3",
                    "midi": 56,
                    "time": 141.71875,
                    "velocity": 0.5905511811023622,
                    "duration": 0.029947916666657193
                },
                {
                    "name": "C#4",
                    "midi": 61,
                    "time": 141.71875,
                    "velocity": 0.5905511811023622,
                    "duration": 0.029947916666657193
                },
                {
                    "name": "F4",
                    "midi": 65,
                    "time": 141.71875,
                    "velocity": 0.5905511811023622,
                    "duration": 0.029947916666657193
                },
                {
                    "name": "A#3",
                    "midi": 58,
                    "time": 141.875,
                    "velocity": 0.7952755905511811,
                    "duration": 0.029947916666657193
                },
                {
                    "name": "D#4",
                    "midi": 63,
                    "time": 141.875,
                    "velocity": 0.7952755905511811,
                    "duration": 0.029947916666657193
                },
                {
                    "name": "G4",
                    "midi": 67,
                    "time": 141.875,
                    "velocity": 0.7952755905511811,
                    "duration": 0.029947916666657193
                },
                {
                    "name": "G#3",
                    "midi": 56,
                    "time": 142.03125,
                    "velocity": 0.5905511811023622,
                    "duration": 0.029947916666657193
                },
                {
                    "name": "C#4",
                    "midi": 61,
                    "time": 142.03125,
                    "velocity": 0.5905511811023622,
                    "duration": 0.029947916666657193
                },
                {
                    "name": "F4",
                    "midi": 65,
                    "time": 142.03125,
                    "velocity": 0.5905511811023622,
                    "duration": 0.029947916666657193
                },
                {
                    "name": "G#3",
                    "midi": 56,
                    "time": 142.1875,
                    "velocity": 0.5905511811023622,
                    "duration": 0.029947916666657193
                },
                {
                    "name": "C#4",
                    "midi": 61,
                    "time": 142.1875,
                    "velocity": 0.5905511811023622,
                    "duration": 0.029947916666657193
                },
                {
                    "name": "F4",
                    "midi": 65,
                    "time": 142.1875,
                    "velocity": 0.5905511811023622,
                    "duration": 0.029947916666657193
                },
                {
                    "name": "A#3",
                    "midi": 58,
                    "time": 142.34375,
                    "velocity": 0.5905511811023622,
                    "duration": 0.029947916666657193
                },
                {
                    "name": "D#4",
                    "midi": 63,
                    "time": 142.34375,
                    "velocity": 0.5905511811023622,
                    "duration": 0.029947916666657193
                },
                {
                    "name": "G4",
                    "midi": 67,
                    "time": 142.34375,
                    "velocity": 0.5905511811023622,
                    "duration": 0.029947916666657193
                },
                {
                    "name": "D#4",
                    "midi": 63,
                    "time": 142.5,
                    "velocity": 0.5905511811023622,
                    "duration": 0.15625
                },
                {
                    "name": "G#4",
                    "midi": 68,
                    "time": 142.5,
                    "velocity": 0.5905511811023622,
                    "duration": 0.15625
                },
                {
                    "name": "C4",
                    "midi": 60,
                    "time": 142.65625,
                    "velocity": 0.5905511811023622,
                    "duration": 0.15625
                },
                {
                    "name": "D#4",
                    "midi": 63,
                    "time": 142.8125,
                    "velocity": 0.5905511811023622,
                    "duration": 0.15625
                },
                {
                    "name": "G#4",
                    "midi": 68,
                    "time": 142.96875,
                    "velocity": 0.5905511811023622,
                    "duration": 0.15625
                },
                {
                    "name": "B4",
                    "midi": 71,
                    "time": 143.125,
                    "velocity": 0.5905511811023622,
                    "duration": 0.029947916666657193
                },
                {
                    "name": "B4",
                    "midi": 71,
                    "time": 143.28125,
                    "velocity": 0.7952755905511811,
                    "duration": 0.3125
                },
                {
                    "name": "A#4",
                    "midi": 70,
                    "time": 143.59375,
                    "velocity": 0.5905511811023622,
                    "duration": 0.15625
                },
                {
                    "name": "G#4",
                    "midi": 68,
                    "time": 143.75,
                    "velocity": 0.5905511811023622,
                    "duration": 0.15625
                },
                {
                    "name": "G#3",
                    "midi": 56,
                    "time": 143.90625,
                    "velocity": 0.5905511811023622,
                    "duration": 0.15625
                },
                {
                    "name": "C4",
                    "midi": 60,
                    "time": 144.0625,
                    "velocity": 0.5905511811023622,
                    "duration": 0.15625
                },
                {
                    "name": "D#4",
                    "midi": 63,
                    "time": 144.21875,
                    "velocity": 0.5905511811023622,
                    "duration": 0.15625
                },
                {
                    "name": "F#4",
                    "midi": 66,
                    "time": 144.375,
                    "velocity": 0.5905511811023622,
                    "duration": 0.029947916666657193
                },
                {
                    "name": "F#4",
                    "midi": 66,
                    "time": 144.53125,
                    "velocity": 0.7952755905511811,
                    "duration": 0.3125
                },
                {
                    "name": "E4",
                    "midi": 64,
                    "time": 144.84375,
                    "velocity": 0.5905511811023622,
                    "duration": 0.15625
                },
                {
                    "name": "D#4",
                    "midi": 63,
                    "time": 147.5,
                    "velocity": 0.5905511811023622,
                    "duration": 0.15625
                },
                {
                    "name": "F4",
                    "midi": 65,
                    "time": 147.65625,
                    "velocity": 0.5905511811023622,
                    "duration": 0.15625
                },
                {
                    "name": "D#4",
                    "midi": 63,
                    "time": 147.8125,
                    "velocity": 0.5905511811023622,
                    "duration": 0.15625
                },
                {
                    "name": "G#3",
                    "midi": 56,
                    "time": 147.96875,
                    "velocity": 0.5905511811023622,
                    "duration": 0.15625
                },
                {
                    "name": "B3",
                    "midi": 59,
                    "time": 148.125,
                    "velocity": 0.5905511811023622,
                    "duration": 0.15625
                },
                {
                    "name": "A#3",
                    "midi": 58,
                    "time": 148.28125,
                    "velocity": 0.5905511811023622,
                    "duration": 0.15625
                },
                {
                    "name": "G#3",
                    "midi": 56,
                    "time": 148.4375,
                    "velocity": 0.5905511811023622,
                    "duration": 0.15625
                },
                {
                    "name": "F3",
                    "midi": 53,
                    "time": 148.59375,
                    "velocity": 0.5905511811023622,
                    "duration": 0.15625
                },
                {
                    "name": "B3",
                    "midi": 59,
                    "time": 150,
                    "velocity": 0.5905511811023622,
                    "duration": 0.3125
                },
                {
                    "name": "C4",
                    "midi": 60,
                    "time": 150.3125,
                    "velocity": 0.5905511811023622,
                    "duration": 0.15625
                },
                {
                    "name": "B3",
                    "midi": 59,
                    "time": 150.46875,
                    "velocity": 0.5905511811023622,
                    "duration": 0.15625
                },
                {
                    "name": "C4",
                    "midi": 60,
                    "time": 150.625,
                    "velocity": 0.5905511811023622,
                    "duration": 0.15625
                },
                {
                    "name": "B3",
                    "midi": 59,
                    "time": 150.78125,
                    "velocity": 0.5905511811023622,
                    "duration": 0.3125
                },
                {
                    "name": "C4",
                    "midi": 60,
                    "time": 151.09375,
                    "velocity": 0.5905511811023622,
                    "duration": 0.15625
                },
                {
                    "name": "C#4",
                    "midi": 61,
                    "time": 151.25,
                    "velocity": 0.5905511811023622,
                    "duration": 0.3125
                },
                {
                    "name": "D4",
                    "midi": 62,
                    "time": 151.5625,
                    "velocity": 0.5905511811023622,
                    "duration": 0.15625
                },
                {
                    "name": "C#4",
                    "midi": 61,
                    "time": 151.71875,
                    "velocity": 0.5905511811023622,
                    "duration": 0.15625
                },
                {
                    "name": "D4",
                    "midi": 62,
                    "time": 151.875,
                    "velocity": 0.5905511811023622,
                    "duration": 0.15625
                },
                {
                    "name": "C#4",
                    "midi": 61,
                    "time": 152.03125,
                    "velocity": 0.5905511811023622,
                    "duration": 0.3125
                },
                {
                    "name": "D4",
                    "midi": 62,
                    "time": 152.34375,
                    "velocity": 0.5905511811023622,
                    "duration": 0.15625
                },
                {
                    "name": "G#3",
                    "midi": 56,
                    "time": 152.5,
                    "velocity": 0.5905511811023622,
                    "duration": 0.3125
                },
                {
                    "name": "G#4",
                    "midi": 68,
                    "time": 152.5,
                    "velocity": 0.5905511811023622,
                    "duration": 0.3125
                },
                {
                    "name": "A3",
                    "midi": 57,
                    "time": 152.8125,
                    "velocity": 0.5905511811023622,
                    "duration": 0.15625
                },
                {
                    "name": "A4",
                    "midi": 69,
                    "time": 152.8125,
                    "velocity": 0.5905511811023622,
                    "duration": 0.15625
                },
                {
                    "name": "G#3",
                    "midi": 56,
                    "time": 152.96875,
                    "velocity": 0.5905511811023622,
                    "duration": 0.15625
                },
                {
                    "name": "G#4",
                    "midi": 68,
                    "time": 152.96875,
                    "velocity": 0.5905511811023622,
                    "duration": 0.15625
                },
                {
                    "name": "A3",
                    "midi": 57,
                    "time": 153.125,
                    "velocity": 0.5905511811023622,
                    "duration": 0.15625
                },
                {
                    "name": "A4",
                    "midi": 69,
                    "time": 153.125,
                    "velocity": 0.5905511811023622,
                    "duration": 0.15625
                },
                {
                    "name": "G#3",
                    "midi": 56,
                    "time": 153.28125,
                    "velocity": 0.5905511811023622,
                    "duration": 0.06119791666665719
                },
                {
                    "name": "G#4",
                    "midi": 68,
                    "time": 153.28125,
                    "velocity": 0.5905511811023622,
                    "duration": 0.06119791666665719
                },
                {
                    "name": "A3",
                    "midi": 57,
                    "time": 153.59375,
                    "velocity": 0.5905511811023622,
                    "duration": 0.029947916666657193
                },
                {
                    "name": "A4",
                    "midi": 69,
                    "time": 153.59375,
                    "velocity": 0.5905511811023622,
                    "duration": 0.029947916666657193
                },
                {
                    "name": "C3",
                    "midi": 48,
                    "time": 153.75,
                    "velocity": 0.5905511811023622,
                    "duration": 0.3125
                },
                {
                    "name": "C4",
                    "midi": 60,
                    "time": 153.75,
                    "velocity": 0.5905511811023622,
                    "duration": 0.3125
                },
                {
                    "name": "D3",
                    "midi": 50,
                    "time": 154.0625,
                    "velocity": 0.5905511811023622,
                    "duration": 0.15625
                },
                {
                    "name": "D4",
                    "midi": 62,
                    "time": 154.0625,
                    "velocity": 0.5905511811023622,
                    "duration": 0.15625
                },
                {
                    "name": "C3",
                    "midi": 48,
                    "time": 154.21875,
                    "velocity": 0.5905511811023622,
                    "duration": 0.15625
                },
                {
                    "name": "C4",
                    "midi": 60,
                    "time": 154.21875,
                    "velocity": 0.5905511811023622,
                    "duration": 0.15625
                },
                {
                    "name": "D3",
                    "midi": 50,
                    "time": 154.375,
                    "velocity": 0.6929133858267716,
                    "duration": 0.15625
                },
                {
                    "name": "D4",
                    "midi": 62,
                    "time": 154.375,
                    "velocity": 0.6929133858267716,
                    "duration": 0.15625
                },
                {
                    "name": "C3",
                    "midi": 48,
                    "time": 154.53125,
                    "velocity": 0.6929133858267716,
                    "duration": 0.06119791666665719
                },
                {
                    "name": "C4",
                    "midi": 60,
                    "time": 154.53125,
                    "velocity": 0.6929133858267716,
                    "duration": 0.06119791666665719
                },
                {
                    "name": "C#3",
                    "midi": 49,
                    "time": 154.84375,
                    "velocity": 0.6929133858267716,
                    "duration": 0.029947916666657193
                },
                {
                    "name": "C#4",
                    "midi": 61,
                    "time": 154.84375,
                    "velocity": 0.6929133858267716,
                    "duration": 0.029947916666657193
                },
                {
                    "name": "D3",
                    "midi": 50,
                    "time": 155,
                    "velocity": 0.6929133858267716,
                    "duration": 0.3125
                },
                {
                    "name": "D4",
                    "midi": 62,
                    "time": 155,
                    "velocity": 0.6929133858267716,
                    "duration": 0.3125
                },
                {
                    "name": "G4",
                    "midi": 67,
                    "time": 155,
                    "velocity": 0.6929133858267716,
                    "duration": 0.3125
                },
                {
                    "name": "B4",
                    "midi": 71,
                    "time": 155,
                    "velocity": 0.6929133858267716,
                    "duration": 0.3125
                },
                {
                    "name": "E3",
                    "midi": 52,
                    "time": 155.3125,
                    "velocity": 0.6929133858267716,
                    "duration": 0.15625
                },
                {
                    "name": "E4",
                    "midi": 64,
                    "time": 155.3125,
                    "velocity": 0.6929133858267716,
                    "duration": 0.15625
                },
                {
                    "name": "A4",
                    "midi": 69,
                    "time": 155.3125,
                    "velocity": 0.6929133858267716,
                    "duration": 0.15625
                },
                {
                    "name": "C#5",
                    "midi": 73,
                    "time": 155.3125,
                    "velocity": 0.6929133858267716,
                    "duration": 0.15625
                },
                {
                    "name": "D3",
                    "midi": 50,
                    "time": 155.46875,
                    "velocity": 0.6929133858267716,
                    "duration": 0.15625
                },
                {
                    "name": "D4",
                    "midi": 62,
                    "time": 155.46875,
                    "velocity": 0.6929133858267716,
                    "duration": 0.15625
                },
                {
                    "name": "G4",
                    "midi": 67,
                    "time": 155.46875,
                    "velocity": 0.6929133858267716,
                    "duration": 0.15625
                },
                {
                    "name": "B4",
                    "midi": 71,
                    "time": 155.46875,
                    "velocity": 0.6929133858267716,
                    "duration": 0.15625
                },
                {
                    "name": "E3",
                    "midi": 52,
                    "time": 155.625,
                    "velocity": 0.6929133858267716,
                    "duration": 0.15625
                },
                {
                    "name": "E4",
                    "midi": 64,
                    "time": 155.625,
                    "velocity": 0.6929133858267716,
                    "duration": 0.15625
                },
                {
                    "name": "A4",
                    "midi": 69,
                    "time": 155.625,
                    "velocity": 0.6929133858267716,
                    "duration": 0.15625
                },
                {
                    "name": "C#5",
                    "midi": 73,
                    "time": 155.625,
                    "velocity": 0.6929133858267716,
                    "duration": 0.15625
                },
                {
                    "name": "D3",
                    "midi": 50,
                    "time": 155.78125,
                    "velocity": 0.6929133858267716,
                    "duration": 0.06119791666665719
                },
                {
                    "name": "D4",
                    "midi": 62,
                    "time": 155.78125,
                    "velocity": 0.6929133858267716,
                    "duration": 0.06119791666665719
                },
                {
                    "name": "G4",
                    "midi": 67,
                    "time": 155.78125,
                    "velocity": 0.6929133858267716,
                    "duration": 0.06119791666665719
                },
                {
                    "name": "B4",
                    "midi": 71,
                    "time": 155.78125,
                    "velocity": 0.6929133858267716,
                    "duration": 0.06119791666665719
                },
                {
                    "name": "E3",
                    "midi": 52,
                    "time": 156.09375,
                    "velocity": 0.6929133858267716,
                    "duration": 0.029947916666657193
                },
                {
                    "name": "E4",
                    "midi": 64,
                    "time": 156.09375,
                    "velocity": 0.6929133858267716,
                    "duration": 0.029947916666657193
                },
                {
                    "name": "A4",
                    "midi": 69,
                    "time": 156.09375,
                    "velocity": 0.6929133858267716,
                    "duration": 0.029947916666657193
                },
                {
                    "name": "C#5",
                    "midi": 73,
                    "time": 156.09375,
                    "velocity": 0.6929133858267716,
                    "duration": 0.029947916666657193
                },
                {
                    "name": "D3",
                    "midi": 50,
                    "time": 156.25,
                    "velocity": 0.6929133858267716,
                    "duration": 0.3125
                },
                {
                    "name": "D4",
                    "midi": 62,
                    "time": 156.25,
                    "velocity": 0.6929133858267716,
                    "duration": 0.3125
                },
                {
                    "name": "G4",
                    "midi": 67,
                    "time": 156.25,
                    "velocity": 0.6929133858267716,
                    "duration": 0.3125
                },
                {
                    "name": "B4",
                    "midi": 71,
                    "time": 156.25,
                    "velocity": 0.6929133858267716,
                    "duration": 0.3125
                },
                {
                    "name": "E3",
                    "midi": 52,
                    "time": 156.5625,
                    "velocity": 0.6929133858267716,
                    "duration": 0.15625
                },
                {
                    "name": "E4",
                    "midi": 64,
                    "time": 156.5625,
                    "velocity": 0.6929133858267716,
                    "duration": 0.15625
                },
                {
                    "name": "A4",
                    "midi": 69,
                    "time": 156.5625,
                    "velocity": 0.6929133858267716,
                    "duration": 0.15625
                },
                {
                    "name": "C#5",
                    "midi": 73,
                    "time": 156.5625,
                    "velocity": 0.6929133858267716,
                    "duration": 0.15625
                },
                {
                    "name": "D3",
                    "midi": 50,
                    "time": 156.71875,
                    "velocity": 0.6929133858267716,
                    "duration": 0.15625
                },
                {
                    "name": "D4",
                    "midi": 62,
                    "time": 156.71875,
                    "velocity": 0.6929133858267716,
                    "duration": 0.15625
                },
                {
                    "name": "G4",
                    "midi": 67,
                    "time": 156.71875,
                    "velocity": 0.6929133858267716,
                    "duration": 0.15625
                },
                {
                    "name": "B4",
                    "midi": 71,
                    "time": 156.71875,
                    "velocity": 0.6929133858267716,
                    "duration": 0.15625
                },
                {
                    "name": "E3",
                    "midi": 52,
                    "time": 156.875,
                    "velocity": 0.6929133858267716,
                    "duration": 0.15625
                },
                {
                    "name": "E4",
                    "midi": 64,
                    "time": 156.875,
                    "velocity": 0.6929133858267716,
                    "duration": 0.15625
                },
                {
                    "name": "A4",
                    "midi": 69,
                    "time": 156.875,
                    "velocity": 0.6929133858267716,
                    "duration": 0.15625
                },
                {
                    "name": "C#5",
                    "midi": 73,
                    "time": 156.875,
                    "velocity": 0.6929133858267716,
                    "duration": 0.15625
                },
                {
                    "name": "D3",
                    "midi": 50,
                    "time": 157.03125,
                    "velocity": 0.6929133858267716,
                    "duration": 0.06119791666665719
                },
                {
                    "name": "D4",
                    "midi": 62,
                    "time": 157.03125,
                    "velocity": 0.6929133858267716,
                    "duration": 0.06119791666665719
                },
                {
                    "name": "G4",
                    "midi": 67,
                    "time": 157.03125,
                    "velocity": 0.6929133858267716,
                    "duration": 0.06119791666665719
                },
                {
                    "name": "B4",
                    "midi": 71,
                    "time": 157.03125,
                    "velocity": 0.6929133858267716,
                    "duration": 0.06119791666665719
                },
                {
                    "name": "E3",
                    "midi": 52,
                    "time": 157.34375,
                    "velocity": 0.6929133858267716,
                    "duration": 0.029947916666657193
                },
                {
                    "name": "E4",
                    "midi": 64,
                    "time": 157.34375,
                    "velocity": 0.6929133858267716,
                    "duration": 0.029947916666657193
                },
                {
                    "name": "A4",
                    "midi": 69,
                    "time": 157.34375,
                    "velocity": 0.6929133858267716,
                    "duration": 0.029947916666657193
                },
                {
                    "name": "C#5",
                    "midi": 73,
                    "time": 157.34375,
                    "velocity": 0.6929133858267716,
                    "duration": 0.029947916666657193
                },
                {
                    "name": "D4",
                    "midi": 62,
                    "time": 157.5,
                    "velocity": 0.4881889763779528,
                    "duration": 0.3125
                },
                {
                    "name": "D#4",
                    "midi": 63,
                    "time": 157.8125,
                    "velocity": 0.4881889763779528,
                    "duration": 0.15625
                },
                {
                    "name": "D4",
                    "midi": 62,
                    "time": 157.96875,
                    "velocity": 0.4881889763779528,
                    "duration": 0.15625
                },
                {
                    "name": "D#4",
                    "midi": 63,
                    "time": 158.125,
                    "velocity": 0.4881889763779528,
                    "duration": 0.15625
                },
                {
                    "name": "D4",
                    "midi": 62,
                    "time": 158.28125,
                    "velocity": 0.4881889763779528,
                    "duration": 0.06119791666665719
                },
                {
                    "name": "D#4",
                    "midi": 63,
                    "time": 158.59375,
                    "velocity": 0.4881889763779528,
                    "duration": 0.029947916666657193
                },
                {
                    "name": "E4",
                    "midi": 64,
                    "time": 158.75,
                    "velocity": 0.5905511811023622,
                    "duration": 0.3125
                },
                {
                    "name": "F4",
                    "midi": 65,
                    "time": 159.0625,
                    "velocity": 0.5905511811023622,
                    "duration": 0.15625
                },
                {
                    "name": "E4",
                    "midi": 64,
                    "time": 159.21875,
                    "velocity": 0.5905511811023622,
                    "duration": 0.15625
                },
                {
                    "name": "F4",
                    "midi": 65,
                    "time": 159.375,
                    "velocity": 0.5905511811023622,
                    "duration": 0.15625
                },
                {
                    "name": "E4",
                    "midi": 64,
                    "time": 159.53125,
                    "velocity": 0.5905511811023622,
                    "duration": 0.06119791666665719
                },
                {
                    "name": "F4",
                    "midi": 65,
                    "time": 159.84375,
                    "velocity": 0.5905511811023622,
                    "duration": 0.029947916666657193
                },
                {
                    "name": "B3",
                    "midi": 59,
                    "time": 160,
                    "velocity": 0.5905511811023622,
                    "duration": 0.3125
                },
                {
                    "name": "B4",
                    "midi": 71,
                    "time": 160,
                    "velocity": 0.5905511811023622,
                    "duration": 0.3125
                },
                {
                    "name": "C4",
                    "midi": 60,
                    "time": 160.3125,
                    "velocity": 0.5905511811023622,
                    "duration": 0.15625
                },
                {
                    "name": "C5",
                    "midi": 72,
                    "time": 160.3125,
                    "velocity": 0.5905511811023622,
                    "duration": 0.15625
                },
                {
                    "name": "B3",
                    "midi": 59,
                    "time": 160.46875,
                    "velocity": 0.5905511811023622,
                    "duration": 0.15625
                },
                {
                    "name": "B4",
                    "midi": 71,
                    "time": 160.46875,
                    "velocity": 0.5905511811023622,
                    "duration": 0.15625
                },
                {
                    "name": "C4",
                    "midi": 60,
                    "time": 160.625,
                    "velocity": 0.5905511811023622,
                    "duration": 0.15625
                },
                {
                    "name": "C5",
                    "midi": 72,
                    "time": 160.625,
                    "velocity": 0.5905511811023622,
                    "duration": 0.15625
                },
                {
                    "name": "B3",
                    "midi": 59,
                    "time": 160.78125,
                    "velocity": 0.5905511811023622,
                    "duration": 0.06119791666665719
                },
                {
                    "name": "B4",
                    "midi": 71,
                    "time": 160.78125,
                    "velocity": 0.5905511811023622,
                    "duration": 0.06119791666665719
                },
                {
                    "name": "C4",
                    "midi": 60,
                    "time": 161.09375,
                    "velocity": 0.5905511811023622,
                    "duration": 0.029947916666657193
                },
                {
                    "name": "C5",
                    "midi": 72,
                    "time": 161.09375,
                    "velocity": 0.5905511811023622,
                    "duration": 0.029947916666657193
                },
                {
                    "name": "D#3",
                    "midi": 51,
                    "time": 161.25,
                    "velocity": 0.5905511811023622,
                    "duration": 0.3125
                },
                {
                    "name": "D#4",
                    "midi": 63,
                    "time": 161.25,
                    "velocity": 0.5905511811023622,
                    "duration": 0.3125
                },
                {
                    "name": "F3",
                    "midi": 53,
                    "time": 161.5625,
                    "velocity": 0.5905511811023622,
                    "duration": 0.15625
                },
                {
                    "name": "F4",
                    "midi": 65,
                    "time": 161.5625,
                    "velocity": 0.5905511811023622,
                    "duration": 0.15625
                },
                {
                    "name": "D#3",
                    "midi": 51,
                    "time": 161.71875,
                    "velocity": 0.5905511811023622,
                    "duration": 0.15625
                },
                {
                    "name": "D#4",
                    "midi": 63,
                    "time": 161.71875,
                    "velocity": 0.5905511811023622,
                    "duration": 0.15625
                },
                {
                    "name": "F3",
                    "midi": 53,
                    "time": 161.875,
                    "velocity": 0.5905511811023622,
                    "duration": 0.15625
                },
                {
                    "name": "F4",
                    "midi": 65,
                    "time": 161.875,
                    "velocity": 0.5905511811023622,
                    "duration": 0.15625
                },
                {
                    "name": "D#3",
                    "midi": 51,
                    "time": 162.03125,
                    "velocity": 0.5905511811023622,
                    "duration": 0.06119791666665719
                },
                {
                    "name": "D#4",
                    "midi": 63,
                    "time": 162.03125,
                    "velocity": 0.5905511811023622,
                    "duration": 0.06119791666665719
                },
                {
                    "name": "E3",
                    "midi": 52,
                    "time": 162.34375,
                    "velocity": 0.5905511811023622,
                    "duration": 0.029947916666657193
                },
                {
                    "name": "E4",
                    "midi": 64,
                    "time": 162.34375,
                    "velocity": 0.5905511811023622,
                    "duration": 0.029947916666657193
                },
                {
                    "name": "D4",
                    "midi": 62,
                    "time": 162.5,
                    "velocity": 0.5905511811023622,
                    "duration": 0.15625
                },
                {
                    "name": "F4",
                    "midi": 65,
                    "time": 162.5,
                    "velocity": 0.5905511811023622,
                    "duration": 0.15625
                },
                {
                    "name": "A#4",
                    "midi": 70,
                    "time": 162.5,
                    "velocity": 0.5905511811023622,
                    "duration": 0.15625
                },
                {
                    "name": "C4",
                    "midi": 60,
                    "time": 162.65625,
                    "velocity": 0.5905511811023622,
                    "duration": 0.15625
                },
                {
                    "name": "E4",
                    "midi": 64,
                    "time": 162.65625,
                    "velocity": 0.5905511811023622,
                    "duration": 0.15625
                },
                {
                    "name": "G4",
                    "midi": 67,
                    "time": 162.65625,
                    "velocity": 0.5905511811023622,
                    "duration": 0.15625
                },
                {
                    "name": "D4",
                    "midi": 62,
                    "time": 162.8125,
                    "velocity": 0.5905511811023622,
                    "duration": 0.15625
                },
                {
                    "name": "F4",
                    "midi": 65,
                    "time": 162.8125,
                    "velocity": 0.5905511811023622,
                    "duration": 0.15625
                },
                {
                    "name": "A#4",
                    "midi": 70,
                    "time": 162.8125,
                    "velocity": 0.5905511811023622,
                    "duration": 0.15625
                },
                {
                    "name": "C4",
                    "midi": 60,
                    "time": 162.96875,
                    "velocity": 0.5905511811023622,
                    "duration": 0.15625
                },
                {
                    "name": "E4",
                    "midi": 64,
                    "time": 162.96875,
                    "velocity": 0.5905511811023622,
                    "duration": 0.15625
                },
                {
                    "name": "G4",
                    "midi": 67,
                    "time": 162.96875,
                    "velocity": 0.5905511811023622,
                    "duration": 0.15625
                },
                {
                    "name": "D4",
                    "midi": 62,
                    "time": 163.125,
                    "velocity": 0.5905511811023622,
                    "duration": 0.06119791666665719
                },
                {
                    "name": "F4",
                    "midi": 65,
                    "time": 163.125,
                    "velocity": 0.5905511811023622,
                    "duration": 0.06119791666665719
                },
                {
                    "name": "A#4",
                    "midi": 70,
                    "time": 163.125,
                    "velocity": 0.5905511811023622,
                    "duration": 0.06119791666665719
                },
                {
                    "name": "C4",
                    "midi": 60,
                    "time": 163.4375,
                    "velocity": 0.5905511811023622,
                    "duration": 0.029947916666657193
                },
                {
                    "name": "E4",
                    "midi": 64,
                    "time": 163.4375,
                    "velocity": 0.5905511811023622,
                    "duration": 0.029947916666657193
                },
                {
                    "name": "G4",
                    "midi": 67,
                    "time": 163.4375,
                    "velocity": 0.5905511811023622,
                    "duration": 0.029947916666657193
                },
                {
                    "name": "D4",
                    "midi": 62,
                    "time": 163.59375,
                    "velocity": 0.5905511811023622,
                    "duration": 0.3125
                },
                {
                    "name": "F4",
                    "midi": 65,
                    "time": 163.59375,
                    "velocity": 0.5905511811023622,
                    "duration": 0.3125
                },
                {
                    "name": "A#4",
                    "midi": 70,
                    "time": 163.59375,
                    "velocity": 0.5905511811023622,
                    "duration": 0.3125
                },
                {
                    "name": "C4",
                    "midi": 60,
                    "time": 163.90625,
                    "velocity": 0.5905511811023622,
                    "duration": 0.15625
                },
                {
                    "name": "E4",
                    "midi": 64,
                    "time": 163.90625,
                    "velocity": 0.5905511811023622,
                    "duration": 0.15625
                },
                {
                    "name": "G4",
                    "midi": 67,
                    "time": 163.90625,
                    "velocity": 0.5905511811023622,
                    "duration": 0.15625
                },
                {
                    "name": "D4",
                    "midi": 62,
                    "time": 164.0625,
                    "velocity": 0.5905511811023622,
                    "duration": 0.15625
                },
                {
                    "name": "F4",
                    "midi": 65,
                    "time": 164.0625,
                    "velocity": 0.5905511811023622,
                    "duration": 0.15625
                },
                {
                    "name": "A#4",
                    "midi": 70,
                    "time": 164.0625,
                    "velocity": 0.5905511811023622,
                    "duration": 0.15625
                },
                {
                    "name": "C4",
                    "midi": 60,
                    "time": 164.21875,
                    "velocity": 0.5905511811023622,
                    "duration": 0.15625
                },
                {
                    "name": "E4",
                    "midi": 64,
                    "time": 164.21875,
                    "velocity": 0.5905511811023622,
                    "duration": 0.15625
                },
                {
                    "name": "G4",
                    "midi": 67,
                    "time": 164.21875,
                    "velocity": 0.5905511811023622,
                    "duration": 0.15625
                },
                {
                    "name": "D4",
                    "midi": 62,
                    "time": 164.375,
                    "velocity": 0.5905511811023622,
                    "duration": 0.06119791666665719
                },
                {
                    "name": "F4",
                    "midi": 65,
                    "time": 164.375,
                    "velocity": 0.5905511811023622,
                    "duration": 0.06119791666665719
                },
                {
                    "name": "A#4",
                    "midi": 70,
                    "time": 164.375,
                    "velocity": 0.5905511811023622,
                    "duration": 0.06119791666665719
                },
                {
                    "name": "C4",
                    "midi": 60,
                    "time": 164.6875,
                    "velocity": 0.5905511811023622,
                    "duration": 0.029947916666657193
                },
                {
                    "name": "E4",
                    "midi": 64,
                    "time": 164.6875,
                    "velocity": 0.5905511811023622,
                    "duration": 0.029947916666657193
                },
                {
                    "name": "G4",
                    "midi": 67,
                    "time": 164.6875,
                    "velocity": 0.5905511811023622,
                    "duration": 0.029947916666657193
                },
                {
                    "name": "F4",
                    "midi": 65,
                    "time": 165,
                    "velocity": 0.5905511811023622,
                    "duration": 0.3125
                },
                {
                    "name": "G#4",
                    "midi": 68,
                    "time": 165,
                    "velocity": 0.5905511811023622,
                    "duration": 0.3125
                },
                {
                    "name": "C#5",
                    "midi": 73,
                    "time": 165,
                    "velocity": 0.5905511811023622,
                    "duration": 0.3125
                },
                {
                    "name": "D#4",
                    "midi": 63,
                    "time": 165.3125,
                    "velocity": 0.5905511811023622,
                    "duration": 0.15625
                },
                {
                    "name": "G4",
                    "midi": 67,
                    "time": 165.3125,
                    "velocity": 0.5905511811023622,
                    "duration": 0.15625
                },
                {
                    "name": "A#4",
                    "midi": 70,
                    "time": 165.3125,
                    "velocity": 0.5905511811023622,
                    "duration": 0.15625
                },
                {
                    "name": "F4",
                    "midi": 65,
                    "time": 165.46875,
                    "velocity": 0.5905511811023622,
                    "duration": 0.15625
                },
                {
                    "name": "G#4",
                    "midi": 68,
                    "time": 165.46875,
                    "velocity": 0.5905511811023622,
                    "duration": 0.15625
                },
                {
                    "name": "C#5",
                    "midi": 73,
                    "time": 165.46875,
                    "velocity": 0.5905511811023622,
                    "duration": 0.15625
                },
                {
                    "name": "D#4",
                    "midi": 63,
                    "time": 165.625,
                    "velocity": 0.5905511811023622,
                    "duration": 0.15625
                },
                {
                    "name": "G4",
                    "midi": 67,
                    "time": 165.625,
                    "velocity": 0.5905511811023622,
                    "duration": 0.15625
                },
                {
                    "name": "A#4",
                    "midi": 70,
                    "time": 165.625,
                    "velocity": 0.5905511811023622,
                    "duration": 0.15625
                },
                {
                    "name": "F4",
                    "midi": 65,
                    "time": 165.78125,
                    "velocity": 0.5905511811023622,
                    "duration": 0.06119791666665719
                },
                {
                    "name": "G#4",
                    "midi": 68,
                    "time": 165.78125,
                    "velocity": 0.5905511811023622,
                    "duration": 0.06119791666665719
                },
                {
                    "name": "C#5",
                    "midi": 73,
                    "time": 165.78125,
                    "velocity": 0.5905511811023622,
                    "duration": 0.06119791666665719
                },
                {
                    "name": "D#4",
                    "midi": 63,
                    "time": 166.09375,
                    "velocity": 0.5905511811023622,
                    "duration": 0.029947916666657193
                },
                {
                    "name": "G4",
                    "midi": 67,
                    "time": 166.09375,
                    "velocity": 0.5905511811023622,
                    "duration": 0.029947916666657193
                },
                {
                    "name": "A#4",
                    "midi": 70,
                    "time": 166.09375,
                    "velocity": 0.5905511811023622,
                    "duration": 0.029947916666657193
                },
                {
                    "name": "F4",
                    "midi": 65,
                    "time": 166.25,
                    "velocity": 0.5905511811023622,
                    "duration": 0.3125
                },
                {
                    "name": "G#4",
                    "midi": 68,
                    "time": 166.25,
                    "velocity": 0.5905511811023622,
                    "duration": 0.3125
                },
                {
                    "name": "C#5",
                    "midi": 73,
                    "time": 166.25,
                    "velocity": 0.5905511811023622,
                    "duration": 0.3125
                },
                {
                    "name": "D#4",
                    "midi": 63,
                    "time": 166.5625,
                    "velocity": 0.5905511811023622,
                    "duration": 0.15625
                },
                {
                    "name": "G4",
                    "midi": 67,
                    "time": 166.5625,
                    "velocity": 0.5905511811023622,
                    "duration": 0.15625
                },
                {
                    "name": "A#4",
                    "midi": 70,
                    "time": 166.5625,
                    "velocity": 0.5905511811023622,
                    "duration": 0.15625
                },
                {
                    "name": "F4",
                    "midi": 65,
                    "time": 166.71875,
                    "velocity": 0.5905511811023622,
                    "duration": 0.15625
                },
                {
                    "name": "G#4",
                    "midi": 68,
                    "time": 166.71875,
                    "velocity": 0.5905511811023622,
                    "duration": 0.15625
                },
                {
                    "name": "C#5",
                    "midi": 73,
                    "time": 166.71875,
                    "velocity": 0.5905511811023622,
                    "duration": 0.15625
                },
                {
                    "name": "D#4",
                    "midi": 63,
                    "time": 166.875,
                    "velocity": 0.5905511811023622,
                    "duration": 0.15625
                },
                {
                    "name": "G4",
                    "midi": 67,
                    "time": 166.875,
                    "velocity": 0.5905511811023622,
                    "duration": 0.15625
                },
                {
                    "name": "A#4",
                    "midi": 70,
                    "time": 166.875,
                    "velocity": 0.5905511811023622,
                    "duration": 0.15625
                },
                {
                    "name": "F4",
                    "midi": 65,
                    "time": 167.03125,
                    "velocity": 0.5905511811023622,
                    "duration": 0.06119791666665719
                },
                {
                    "name": "G#4",
                    "midi": 68,
                    "time": 167.03125,
                    "velocity": 0.5905511811023622,
                    "duration": 0.06119791666665719
                },
                {
                    "name": "C#5",
                    "midi": 73,
                    "time": 167.03125,
                    "velocity": 0.5905511811023622,
                    "duration": 0.06119791666665719
                },
                {
                    "name": "D#4",
                    "midi": 63,
                    "time": 167.34375,
                    "velocity": 0.5905511811023622,
                    "duration": 0.029947916666657193
                },
                {
                    "name": "G4",
                    "midi": 67,
                    "time": 167.34375,
                    "velocity": 0.5905511811023622,
                    "duration": 0.029947916666657193
                },
                {
                    "name": "A#4",
                    "midi": 70,
                    "time": 167.34375,
                    "velocity": 0.5905511811023622,
                    "duration": 0.029947916666657193
                },
                {
                    "name": "D4",
                    "midi": 62,
                    "time": 167.5,
                    "velocity": 0.5905511811023622,
                    "duration": 0.15625
                },
                {
                    "name": "F4",
                    "midi": 65,
                    "time": 167.5,
                    "velocity": 0.5905511811023622,
                    "duration": 0.15625
                },
                {
                    "name": "A#4",
                    "midi": 70,
                    "time": 167.5,
                    "velocity": 0.5905511811023622,
                    "duration": 0.15625
                },
                {
                    "name": "D4",
                    "midi": 62,
                    "time": 167.65625,
                    "velocity": 0.5905511811023622,
                    "duration": 0.15625
                },
                {
                    "name": "F4",
                    "midi": 65,
                    "time": 167.65625,
                    "velocity": 0.5905511811023622,
                    "duration": 0.15625
                },
                {
                    "name": "A#4",
                    "midi": 70,
                    "time": 167.65625,
                    "velocity": 0.5905511811023622,
                    "duration": 0.15625
                },
                {
                    "name": "C4",
                    "midi": 60,
                    "time": 167.8125,
                    "velocity": 0.5905511811023622,
                    "duration": 0.15625
                },
                {
                    "name": "E4",
                    "midi": 64,
                    "time": 167.8125,
                    "velocity": 0.5905511811023622,
                    "duration": 0.15625
                },
                {
                    "name": "G4",
                    "midi": 67,
                    "time": 167.8125,
                    "velocity": 0.5905511811023622,
                    "duration": 0.15625
                },
                {
                    "name": "D4",
                    "midi": 62,
                    "time": 167.96875,
                    "velocity": 0.5905511811023622,
                    "duration": 0.15625
                },
                {
                    "name": "F4",
                    "midi": 65,
                    "time": 167.96875,
                    "velocity": 0.5905511811023622,
                    "duration": 0.15625
                },
                {
                    "name": "A#4",
                    "midi": 70,
                    "time": 167.96875,
                    "velocity": 0.5905511811023622,
                    "duration": 0.15625
                },
                {
                    "name": "C4",
                    "midi": 60,
                    "time": 168.125,
                    "velocity": 0.5905511811023622,
                    "duration": 0.15625
                },
                {
                    "name": "E4",
                    "midi": 64,
                    "time": 168.125,
                    "velocity": 0.5905511811023622,
                    "duration": 0.15625
                },
                {
                    "name": "G4",
                    "midi": 67,
                    "time": 168.125,
                    "velocity": 0.5905511811023622,
                    "duration": 0.15625
                },
                {
                    "name": "D4",
                    "midi": 62,
                    "time": 168.28125,
                    "velocity": 0.5905511811023622,
                    "duration": 0.15625
                },
                {
                    "name": "F4",
                    "midi": 65,
                    "time": 168.28125,
                    "velocity": 0.5905511811023622,
                    "duration": 0.15625
                },
                {
                    "name": "A#4",
                    "midi": 70,
                    "time": 168.28125,
                    "velocity": 0.5905511811023622,
                    "duration": 0.15625
                },
                {
                    "name": "D4",
                    "midi": 62,
                    "time": 168.4375,
                    "velocity": 0.5905511811023622,
                    "duration": 0.15625
                },
                {
                    "name": "F4",
                    "midi": 65,
                    "time": 168.4375,
                    "velocity": 0.5905511811023622,
                    "duration": 0.15625
                },
                {
                    "name": "A#4",
                    "midi": 70,
                    "time": 168.4375,
                    "velocity": 0.5905511811023622,
                    "duration": 0.15625
                },
                {
                    "name": "C4",
                    "midi": 60,
                    "time": 168.59375,
                    "velocity": 0.5905511811023622,
                    "duration": 0.15625
                },
                {
                    "name": "E4",
                    "midi": 64,
                    "time": 168.59375,
                    "velocity": 0.5905511811023622,
                    "duration": 0.15625
                },
                {
                    "name": "G4",
                    "midi": 67,
                    "time": 168.59375,
                    "velocity": 0.5905511811023622,
                    "duration": 0.15625
                },
                {
                    "name": "D4",
                    "midi": 62,
                    "time": 168.75,
                    "velocity": 0.5905511811023622,
                    "duration": 0.15625
                },
                {
                    "name": "F4",
                    "midi": 65,
                    "time": 168.75,
                    "velocity": 0.5905511811023622,
                    "duration": 0.15625
                },
                {
                    "name": "A#4",
                    "midi": 70,
                    "time": 168.75,
                    "velocity": 0.5905511811023622,
                    "duration": 0.15625
                },
                {
                    "name": "D4",
                    "midi": 62,
                    "time": 168.90625,
                    "velocity": 0.5905511811023622,
                    "duration": 0.15625
                },
                {
                    "name": "F4",
                    "midi": 65,
                    "time": 168.90625,
                    "velocity": 0.5905511811023622,
                    "duration": 0.15625
                },
                {
                    "name": "A#4",
                    "midi": 70,
                    "time": 168.90625,
                    "velocity": 0.5905511811023622,
                    "duration": 0.15625
                },
                {
                    "name": "C4",
                    "midi": 60,
                    "time": 169.0625,
                    "velocity": 0.5905511811023622,
                    "duration": 0.15625
                },
                {
                    "name": "E4",
                    "midi": 64,
                    "time": 169.0625,
                    "velocity": 0.5905511811023622,
                    "duration": 0.15625
                },
                {
                    "name": "G4",
                    "midi": 67,
                    "time": 169.0625,
                    "velocity": 0.5905511811023622,
                    "duration": 0.15625
                },
                {
                    "name": "D4",
                    "midi": 62,
                    "time": 169.21875,
                    "velocity": 0.5905511811023622,
                    "duration": 0.15625
                },
                {
                    "name": "F4",
                    "midi": 65,
                    "time": 169.21875,
                    "velocity": 0.5905511811023622,
                    "duration": 0.15625
                },
                {
                    "name": "A#4",
                    "midi": 70,
                    "time": 169.21875,
                    "velocity": 0.5905511811023622,
                    "duration": 0.15625
                },
                {
                    "name": "C4",
                    "midi": 60,
                    "time": 169.375,
                    "velocity": 0.5905511811023622,
                    "duration": 0.15625
                },
                {
                    "name": "E4",
                    "midi": 64,
                    "time": 169.375,
                    "velocity": 0.5905511811023622,
                    "duration": 0.15625
                },
                {
                    "name": "G4",
                    "midi": 67,
                    "time": 169.375,
                    "velocity": 0.5905511811023622,
                    "duration": 0.15625
                },
                {
                    "name": "D4",
                    "midi": 62,
                    "time": 169.53125,
                    "velocity": 0.5905511811023622,
                    "duration": 0.15625
                },
                {
                    "name": "F4",
                    "midi": 65,
                    "time": 169.53125,
                    "velocity": 0.5905511811023622,
                    "duration": 0.15625
                },
                {
                    "name": "A#4",
                    "midi": 70,
                    "time": 169.53125,
                    "velocity": 0.5905511811023622,
                    "duration": 0.15625
                },
                {
                    "name": "D4",
                    "midi": 62,
                    "time": 169.6875,
                    "velocity": 0.5905511811023622,
                    "duration": 0.15625
                },
                {
                    "name": "F4",
                    "midi": 65,
                    "time": 169.6875,
                    "velocity": 0.5905511811023622,
                    "duration": 0.15625
                },
                {
                    "name": "A#4",
                    "midi": 70,
                    "time": 169.6875,
                    "velocity": 0.5905511811023622,
                    "duration": 0.15625
                },
                {
                    "name": "C4",
                    "midi": 60,
                    "time": 169.84375,
                    "velocity": 0.5905511811023622,
                    "duration": 0.15625
                },
                {
                    "name": "E4",
                    "midi": 64,
                    "time": 169.84375,
                    "velocity": 0.5905511811023622,
                    "duration": 0.15625
                },
                {
                    "name": "G4",
                    "midi": 67,
                    "time": 169.84375,
                    "velocity": 0.5905511811023622,
                    "duration": 0.15625
                },
                {
                    "name": "F4",
                    "midi": 65,
                    "time": 170,
                    "velocity": 0.5905511811023622,
                    "duration": 0.15625
                },
                {
                    "name": "G#4",
                    "midi": 68,
                    "time": 170,
                    "velocity": 0.5905511811023622,
                    "duration": 0.15625
                },
                {
                    "name": "C#5",
                    "midi": 73,
                    "time": 170,
                    "velocity": 0.5905511811023622,
                    "duration": 0.15625
                },
                {
                    "name": "F4",
                    "midi": 65,
                    "time": 170.15625,
                    "velocity": 0.5905511811023622,
                    "duration": 0.15625
                },
                {
                    "name": "G#4",
                    "midi": 68,
                    "time": 170.15625,
                    "velocity": 0.5905511811023622,
                    "duration": 0.15625
                },
                {
                    "name": "C#5",
                    "midi": 73,
                    "time": 170.15625,
                    "velocity": 0.5905511811023622,
                    "duration": 0.15625
                },
                {
                    "name": "D#4",
                    "midi": 63,
                    "time": 170.3125,
                    "velocity": 0.5905511811023622,
                    "duration": 0.15625
                },
                {
                    "name": "G4",
                    "midi": 67,
                    "time": 170.3125,
                    "velocity": 0.5905511811023622,
                    "duration": 0.15625
                },
                {
                    "name": "A#4",
                    "midi": 70,
                    "time": 170.3125,
                    "velocity": 0.5905511811023622,
                    "duration": 0.15625
                },
                {
                    "name": "F4",
                    "midi": 65,
                    "time": 170.46875,
                    "velocity": 0.5905511811023622,
                    "duration": 0.15625
                },
                {
                    "name": "G#4",
                    "midi": 68,
                    "time": 170.46875,
                    "velocity": 0.5905511811023622,
                    "duration": 0.15625
                },
                {
                    "name": "C#5",
                    "midi": 73,
                    "time": 170.46875,
                    "velocity": 0.5905511811023622,
                    "duration": 0.15625
                },
                {
                    "name": "D#4",
                    "midi": 63,
                    "time": 170.625,
                    "velocity": 0.5905511811023622,
                    "duration": 0.15625
                },
                {
                    "name": "G4",
                    "midi": 67,
                    "time": 170.625,
                    "velocity": 0.5905511811023622,
                    "duration": 0.15625
                },
                {
                    "name": "A#4",
                    "midi": 70,
                    "time": 170.625,
                    "velocity": 0.5905511811023622,
                    "duration": 0.15625
                },
                {
                    "name": "F4",
                    "midi": 65,
                    "time": 170.78125,
                    "velocity": 0.5905511811023622,
                    "duration": 0.15625
                },
                {
                    "name": "G#4",
                    "midi": 68,
                    "time": 170.78125,
                    "velocity": 0.5905511811023622,
                    "duration": 0.15625
                },
                {
                    "name": "C#5",
                    "midi": 73,
                    "time": 170.78125,
                    "velocity": 0.5905511811023622,
                    "duration": 0.15625
                },
                {
                    "name": "F4",
                    "midi": 65,
                    "time": 170.9375,
                    "velocity": 0.5905511811023622,
                    "duration": 0.15625
                },
                {
                    "name": "G#4",
                    "midi": 68,
                    "time": 170.9375,
                    "velocity": 0.5905511811023622,
                    "duration": 0.15625
                },
                {
                    "name": "C#5",
                    "midi": 73,
                    "time": 170.9375,
                    "velocity": 0.5905511811023622,
                    "duration": 0.15625
                },
                {
                    "name": "D#4",
                    "midi": 63,
                    "time": 171.09375,
                    "velocity": 0.5905511811023622,
                    "duration": 0.15625
                },
                {
                    "name": "G4",
                    "midi": 67,
                    "time": 171.09375,
                    "velocity": 0.5905511811023622,
                    "duration": 0.15625
                },
                {
                    "name": "A#4",
                    "midi": 70,
                    "time": 171.09375,
                    "velocity": 0.5905511811023622,
                    "duration": 0.15625
                },
                {
                    "name": "F4",
                    "midi": 65,
                    "time": 171.25,
                    "velocity": 0.5905511811023622,
                    "duration": 0.15625
                },
                {
                    "name": "G#4",
                    "midi": 68,
                    "time": 171.25,
                    "velocity": 0.5905511811023622,
                    "duration": 0.15625
                },
                {
                    "name": "C#5",
                    "midi": 73,
                    "time": 171.25,
                    "velocity": 0.5905511811023622,
                    "duration": 0.15625
                },
                {
                    "name": "F4",
                    "midi": 65,
                    "time": 171.40625,
                    "velocity": 0.5905511811023622,
                    "duration": 0.15625
                },
                {
                    "name": "G#4",
                    "midi": 68,
                    "time": 171.40625,
                    "velocity": 0.5905511811023622,
                    "duration": 0.15625
                },
                {
                    "name": "C#5",
                    "midi": 73,
                    "time": 171.40625,
                    "velocity": 0.5905511811023622,
                    "duration": 0.15625
                },
                {
                    "name": "D#4",
                    "midi": 63,
                    "time": 171.5625,
                    "velocity": 0.5905511811023622,
                    "duration": 0.15625
                },
                {
                    "name": "G4",
                    "midi": 67,
                    "time": 171.5625,
                    "velocity": 0.5905511811023622,
                    "duration": 0.15625
                },
                {
                    "name": "A#4",
                    "midi": 70,
                    "time": 171.5625,
                    "velocity": 0.5905511811023622,
                    "duration": 0.15625
                },
                {
                    "name": "F4",
                    "midi": 65,
                    "time": 171.71875,
                    "velocity": 0.5905511811023622,
                    "duration": 0.15625
                },
                {
                    "name": "G#4",
                    "midi": 68,
                    "time": 171.71875,
                    "velocity": 0.5905511811023622,
                    "duration": 0.15625
                },
                {
                    "name": "C#5",
                    "midi": 73,
                    "time": 171.71875,
                    "velocity": 0.5905511811023622,
                    "duration": 0.15625
                },
                {
                    "name": "D#4",
                    "midi": 63,
                    "time": 171.875,
                    "velocity": 0.5905511811023622,
                    "duration": 0.15625
                },
                {
                    "name": "G4",
                    "midi": 67,
                    "time": 171.875,
                    "velocity": 0.5905511811023622,
                    "duration": 0.15625
                },
                {
                    "name": "A#4",
                    "midi": 70,
                    "time": 171.875,
                    "velocity": 0.5905511811023622,
                    "duration": 0.15625
                },
                {
                    "name": "F4",
                    "midi": 65,
                    "time": 172.03125,
                    "velocity": 0.5905511811023622,
                    "duration": 0.15625
                },
                {
                    "name": "G#4",
                    "midi": 68,
                    "time": 172.03125,
                    "velocity": 0.5905511811023622,
                    "duration": 0.15625
                },
                {
                    "name": "C#5",
                    "midi": 73,
                    "time": 172.03125,
                    "velocity": 0.5905511811023622,
                    "duration": 0.15625
                },
                {
                    "name": "F4",
                    "midi": 65,
                    "time": 172.1875,
                    "velocity": 0.5905511811023622,
                    "duration": 0.15625
                },
                {
                    "name": "G#4",
                    "midi": 68,
                    "time": 172.1875,
                    "velocity": 0.5905511811023622,
                    "duration": 0.15625
                },
                {
                    "name": "C#5",
                    "midi": 73,
                    "time": 172.1875,
                    "velocity": 0.5905511811023622,
                    "duration": 0.15625
                },
                {
                    "name": "D#4",
                    "midi": 63,
                    "time": 172.34375,
                    "velocity": 0.5905511811023622,
                    "duration": 0.15625
                },
                {
                    "name": "G4",
                    "midi": 67,
                    "time": 172.34375,
                    "velocity": 0.5905511811023622,
                    "duration": 0.15625
                },
                {
                    "name": "A#4",
                    "midi": 70,
                    "time": 172.34375,
                    "velocity": 0.5905511811023622,
                    "duration": 0.15625
                },
                {
                    "name": "A3",
                    "midi": 57,
                    "time": 172.5,
                    "velocity": 0.7952755905511811,
                    "duration": 0.3125
                },
                {
                    "name": "D#4",
                    "midi": 63,
                    "time": 172.5,
                    "velocity": 0.7952755905511811,
                    "duration": 0.3125
                },
                {
                    "name": "G4",
                    "midi": 67,
                    "time": 172.5,
                    "velocity": 0.7952755905511811,
                    "duration": 0.3125
                },
                {
                    "name": "C5",
                    "midi": 72,
                    "time": 172.5,
                    "velocity": 0.7952755905511811,
                    "duration": 0.3125
                },
                {
                    "name": "G#3",
                    "midi": 56,
                    "time": 172.8125,
                    "velocity": 0.5905511811023622,
                    "duration": 0.029947916666657193
                },
                {
                    "name": "D4",
                    "midi": 62,
                    "time": 172.8125,
                    "velocity": 0.5905511811023622,
                    "duration": 0.029947916666657193
                },
                {
                    "name": "F#4",
                    "midi": 66,
                    "time": 172.8125,
                    "velocity": 0.5905511811023622,
                    "duration": 0.029947916666657193
                },
                {
                    "name": "B4",
                    "midi": 71,
                    "time": 172.8125,
                    "velocity": 0.5905511811023622,
                    "duration": 0.029947916666657193
                },
                {
                    "name": "G3",
                    "midi": 55,
                    "time": 172.96875,
                    "velocity": 0.5905511811023622,
                    "duration": 0.029947916666657193
                },
                {
                    "name": "C#4",
                    "midi": 61,
                    "time": 172.96875,
                    "velocity": 0.5905511811023622,
                    "duration": 0.029947916666657193
                },
                {
                    "name": "F4",
                    "midi": 65,
                    "time": 172.96875,
                    "velocity": 0.5905511811023622,
                    "duration": 0.029947916666657193
                },
                {
                    "name": "A#4",
                    "midi": 70,
                    "time": 172.96875,
                    "velocity": 0.5905511811023622,
                    "duration": 0.029947916666657193
                },
                {
                    "name": "F#3",
                    "midi": 54,
                    "time": 173.125,
                    "velocity": 0.5905511811023622,
                    "duration": 0.029947916666657193
                },
                {
                    "name": "C4",
                    "midi": 60,
                    "time": 173.125,
                    "velocity": 0.5905511811023622,
                    "duration": 0.029947916666657193
                },
                {
                    "name": "E4",
                    "midi": 64,
                    "time": 173.125,
                    "velocity": 0.5905511811023622,
                    "duration": 0.029947916666657193
                },
                {
                    "name": "A4",
                    "midi": 69,
                    "time": 173.125,
                    "velocity": 0.5905511811023622,
                    "duration": 0.029947916666657193
                },
                {
                    "name": "F3",
                    "midi": 53,
                    "time": 173.28125,
                    "velocity": 0.7952755905511811,
                    "duration": 0.3125
                },
                {
                    "name": "B3",
                    "midi": 59,
                    "time": 173.28125,
                    "velocity": 0.7952755905511811,
                    "duration": 0.3125
                },
                {
                    "name": "D#4",
                    "midi": 63,
                    "time": 173.28125,
                    "velocity": 0.7952755905511811,
                    "duration": 0.3125
                },
                {
                    "name": "G#4",
                    "midi": 68,
                    "time": 173.28125,
                    "velocity": 0.7952755905511811,
                    "duration": 0.3125
                },
                {
                    "name": "E3",
                    "midi": 52,
                    "time": 173.59375,
                    "velocity": 0.5905511811023622,
                    "duration": 0.029947916666657193
                },
                {
                    "name": "A#3",
                    "midi": 58,
                    "time": 173.59375,
                    "velocity": 0.5905511811023622,
                    "duration": 0.029947916666657193
                },
                {
                    "name": "C#4",
                    "midi": 61,
                    "time": 173.59375,
                    "velocity": 0.5905511811023622,
                    "duration": 0.029947916666657193
                },
                {
                    "name": "F#4",
                    "midi": 66,
                    "time": 173.59375,
                    "velocity": 0.5905511811023622,
                    "duration": 0.029947916666657193
                },
                {
                    "name": "F3",
                    "midi": 53,
                    "time": 173.75,
                    "velocity": 0.7952755905511811,
                    "duration": 0.3125
                },
                {
                    "name": "B3",
                    "midi": 59,
                    "time": 173.75,
                    "velocity": 0.7952755905511811,
                    "duration": 0.3125
                },
                {
                    "name": "D#4",
                    "midi": 63,
                    "time": 173.75,
                    "velocity": 0.7952755905511811,
                    "duration": 0.3125
                },
                {
                    "name": "G#4",
                    "midi": 68,
                    "time": 173.75,
                    "velocity": 0.7952755905511811,
                    "duration": 0.3125
                },
                {
                    "name": "F#3",
                    "midi": 54,
                    "time": 174.0625,
                    "velocity": 0.5905511811023622,
                    "duration": 0.029947916666657193
                },
                {
                    "name": "C4",
                    "midi": 60,
                    "time": 174.0625,
                    "velocity": 0.5905511811023622,
                    "duration": 0.029947916666657193
                },
                {
                    "name": "E4",
                    "midi": 64,
                    "time": 174.0625,
                    "velocity": 0.5905511811023622,
                    "duration": 0.029947916666657193
                },
                {
                    "name": "A4",
                    "midi": 69,
                    "time": 174.0625,
                    "velocity": 0.5905511811023622,
                    "duration": 0.029947916666657193
                },
                {
                    "name": "G3",
                    "midi": 55,
                    "time": 174.21875,
                    "velocity": 0.5905511811023622,
                    "duration": 0.029947916666657193
                },
                {
                    "name": "C#4",
                    "midi": 61,
                    "time": 174.21875,
                    "velocity": 0.5905511811023622,
                    "duration": 0.029947916666657193
                },
                {
                    "name": "F4",
                    "midi": 65,
                    "time": 174.21875,
                    "velocity": 0.5905511811023622,
                    "duration": 0.029947916666657193
                },
                {
                    "name": "A#4",
                    "midi": 70,
                    "time": 174.21875,
                    "velocity": 0.5905511811023622,
                    "duration": 0.029947916666657193
                },
                {
                    "name": "G#3",
                    "midi": 56,
                    "time": 174.375,
                    "velocity": 0.5905511811023622,
                    "duration": 0.029947916666657193
                },
                {
                    "name": "D4",
                    "midi": 62,
                    "time": 174.375,
                    "velocity": 0.5905511811023622,
                    "duration": 0.029947916666657193
                },
                {
                    "name": "F#4",
                    "midi": 66,
                    "time": 174.375,
                    "velocity": 0.5905511811023622,
                    "duration": 0.029947916666657193
                },
                {
                    "name": "B4",
                    "midi": 71,
                    "time": 174.375,
                    "velocity": 0.5905511811023622,
                    "duration": 0.029947916666657193
                },
                {
                    "name": "A3",
                    "midi": 57,
                    "time": 174.53125,
                    "velocity": 0.7952755905511811,
                    "duration": 0.3125
                },
                {
                    "name": "D#4",
                    "midi": 63,
                    "time": 174.53125,
                    "velocity": 0.7952755905511811,
                    "duration": 0.3125
                },
                {
                    "name": "G4",
                    "midi": 67,
                    "time": 174.53125,
                    "velocity": 0.7952755905511811,
                    "duration": 0.3125
                },
                {
                    "name": "C5",
                    "midi": 72,
                    "time": 174.53125,
                    "velocity": 0.7952755905511811,
                    "duration": 0.3125
                },
                {
                    "name": "G#3",
                    "midi": 56,
                    "time": 174.84375,
                    "velocity": 0.5905511811023622,
                    "duration": 0.029947916666657193
                },
                {
                    "name": "D4",
                    "midi": 62,
                    "time": 174.84375,
                    "velocity": 0.5905511811023622,
                    "duration": 0.029947916666657193
                },
                {
                    "name": "F#4",
                    "midi": 66,
                    "time": 174.84375,
                    "velocity": 0.5905511811023622,
                    "duration": 0.029947916666657193
                },
                {
                    "name": "B4",
                    "midi": 71,
                    "time": 174.84375,
                    "velocity": 0.5905511811023622,
                    "duration": 0.029947916666657193
                },
                {
                    "name": "G3",
                    "midi": 55,
                    "time": 175,
                    "velocity": 0.7952755905511811,
                    "duration": 0.3125
                },
                {
                    "name": "C#4",
                    "midi": 61,
                    "time": 175,
                    "velocity": 0.7952755905511811,
                    "duration": 0.3125
                },
                {
                    "name": "F4",
                    "midi": 65,
                    "time": 175,
                    "velocity": 0.7952755905511811,
                    "duration": 0.3125
                },
                {
                    "name": "A#4",
                    "midi": 70,
                    "time": 175,
                    "velocity": 0.7952755905511811,
                    "duration": 0.3125
                },
                {
                    "name": "F#3",
                    "midi": 54,
                    "time": 175.3125,
                    "velocity": 0.5905511811023622,
                    "duration": 0.029947916666657193
                },
                {
                    "name": "C4",
                    "midi": 60,
                    "time": 175.3125,
                    "velocity": 0.5905511811023622,
                    "duration": 0.029947916666657193
                },
                {
                    "name": "E4",
                    "midi": 64,
                    "time": 175.3125,
                    "velocity": 0.5905511811023622,
                    "duration": 0.029947916666657193
                },
                {
                    "name": "A4",
                    "midi": 69,
                    "time": 175.3125,
                    "velocity": 0.5905511811023622,
                    "duration": 0.029947916666657193
                },
                {
                    "name": "F3",
                    "midi": 53,
                    "time": 175.46875,
                    "velocity": 0.5905511811023622,
                    "duration": 0.029947916666657193
                },
                {
                    "name": "B3",
                    "midi": 59,
                    "time": 175.46875,
                    "velocity": 0.5905511811023622,
                    "duration": 0.029947916666657193
                },
                {
                    "name": "D#4",
                    "midi": 63,
                    "time": 175.46875,
                    "velocity": 0.5905511811023622,
                    "duration": 0.029947916666657193
                },
                {
                    "name": "G#4",
                    "midi": 68,
                    "time": 175.46875,
                    "velocity": 0.5905511811023622,
                    "duration": 0.029947916666657193
                },
                {
                    "name": "E3",
                    "midi": 52,
                    "time": 175.625,
                    "velocity": 0.5905511811023622,
                    "duration": 0.029947916666657193
                },
                {
                    "name": "A#3",
                    "midi": 58,
                    "time": 175.625,
                    "velocity": 0.5905511811023622,
                    "duration": 0.029947916666657193
                },
                {
                    "name": "C#4",
                    "midi": 61,
                    "time": 175.625,
                    "velocity": 0.5905511811023622,
                    "duration": 0.029947916666657193
                },
                {
                    "name": "G4",
                    "midi": 67,
                    "time": 175.625,
                    "velocity": 0.5905511811023622,
                    "duration": 0.029947916666657193
                },
                {
                    "name": "D#3",
                    "midi": 51,
                    "time": 175.78125,
                    "velocity": 0.7952755905511811,
                    "duration": 0.3125
                },
                {
                    "name": "A3",
                    "midi": 57,
                    "time": 175.78125,
                    "velocity": 0.7952755905511811,
                    "duration": 0.3125
                },
                {
                    "name": "C#4",
                    "midi": 61,
                    "time": 175.78125,
                    "velocity": 0.7952755905511811,
                    "duration": 0.3125
                },
                {
                    "name": "F#4",
                    "midi": 66,
                    "time": 175.78125,
                    "velocity": 0.7952755905511811,
                    "duration": 0.3125
                },
                {
                    "name": "D3",
                    "midi": 50,
                    "time": 176.09375,
                    "velocity": 0.5905511811023622,
                    "duration": 0.029947916666657193
                },
                {
                    "name": "G#3",
                    "midi": 56,
                    "time": 176.09375,
                    "velocity": 0.5905511811023622,
                    "duration": 0.029947916666657193
                },
                {
                    "name": "C4",
                    "midi": 60,
                    "time": 176.09375,
                    "velocity": 0.5905511811023622,
                    "duration": 0.029947916666657193
                },
                {
                    "name": "F4",
                    "midi": 65,
                    "time": 176.09375,
                    "velocity": 0.5905511811023622,
                    "duration": 0.029947916666657193
                },
                {
                    "name": "D#3",
                    "midi": 51,
                    "time": 176.25,
                    "velocity": 0.7952755905511811,
                    "duration": 0.3125
                },
                {
                    "name": "A3",
                    "midi": 57,
                    "time": 176.25,
                    "velocity": 0.7952755905511811,
                    "duration": 0.3125
                },
                {
                    "name": "C#4",
                    "midi": 61,
                    "time": 176.25,
                    "velocity": 0.7952755905511811,
                    "duration": 0.3125
                },
                {
                    "name": "F#4",
                    "midi": 66,
                    "time": 176.25,
                    "velocity": 0.7952755905511811,
                    "duration": 0.3125
                },
                {
                    "name": "E3",
                    "midi": 52,
                    "time": 176.5625,
                    "velocity": 0.5905511811023622,
                    "duration": 0.029947916666657193
                },
                {
                    "name": "A#3",
                    "midi": 58,
                    "time": 176.5625,
                    "velocity": 0.5905511811023622,
                    "duration": 0.029947916666657193
                },
                {
                    "name": "D4",
                    "midi": 62,
                    "time": 176.5625,
                    "velocity": 0.5905511811023622,
                    "duration": 0.029947916666657193
                },
                {
                    "name": "G4",
                    "midi": 67,
                    "time": 176.5625,
                    "velocity": 0.5905511811023622,
                    "duration": 0.029947916666657193
                },
                {
                    "name": "F3",
                    "midi": 53,
                    "time": 176.71875,
                    "velocity": 0.5905511811023622,
                    "duration": 0.029947916666657193
                },
                {
                    "name": "C4",
                    "midi": 60,
                    "time": 176.71875,
                    "velocity": 0.5905511811023622,
                    "duration": 0.029947916666657193
                },
                {
                    "name": "D#4",
                    "midi": 63,
                    "time": 176.71875,
                    "velocity": 0.5905511811023622,
                    "duration": 0.029947916666657193
                },
                {
                    "name": "G#4",
                    "midi": 68,
                    "time": 176.71875,
                    "velocity": 0.5905511811023622,
                    "duration": 0.029947916666657193
                },
                {
                    "name": "F#3",
                    "midi": 54,
                    "time": 176.875,
                    "velocity": 0.5905511811023622,
                    "duration": 0.029947916666657193
                },
                {
                    "name": "C4",
                    "midi": 60,
                    "time": 176.875,
                    "velocity": 0.5905511811023622,
                    "duration": 0.029947916666657193
                },
                {
                    "name": "E4",
                    "midi": 64,
                    "time": 176.875,
                    "velocity": 0.5905511811023622,
                    "duration": 0.029947916666657193
                },
                {
                    "name": "A4",
                    "midi": 69,
                    "time": 176.875,
                    "velocity": 0.5905511811023622,
                    "duration": 0.029947916666657193
                },
                {
                    "name": "G3",
                    "midi": 55,
                    "time": 177.03125,
                    "velocity": 0.7952755905511811,
                    "duration": 0.3125
                },
                {
                    "name": "C#4",
                    "midi": 61,
                    "time": 177.03125,
                    "velocity": 0.7952755905511811,
                    "duration": 0.3125
                },
                {
                    "name": "F4",
                    "midi": 65,
                    "time": 177.03125,
                    "velocity": 0.7952755905511811,
                    "duration": 0.3125
                },
                {
                    "name": "A#4",
                    "midi": 70,
                    "time": 177.03125,
                    "velocity": 0.7952755905511811,
                    "duration": 0.3125
                },
                {
                    "name": "F#3",
                    "midi": 54,
                    "time": 177.34375,
                    "velocity": 0.5905511811023622,
                    "duration": 0.029947916666657193
                },
                {
                    "name": "C4",
                    "midi": 60,
                    "time": 177.34375,
                    "velocity": 0.5905511811023622,
                    "duration": 0.029947916666657193
                },
                {
                    "name": "E4",
                    "midi": 64,
                    "time": 177.34375,
                    "velocity": 0.5905511811023622,
                    "duration": 0.029947916666657193
                },
                {
                    "name": "A4",
                    "midi": 69,
                    "time": 177.34375,
                    "velocity": 0.5905511811023622,
                    "duration": 0.029947916666657193
                },
                {
                    "name": "F3",
                    "midi": 53,
                    "time": 177.5,
                    "velocity": 0.7952755905511811,
                    "duration": 0.3125
                },
                {
                    "name": "B3",
                    "midi": 59,
                    "time": 177.5,
                    "velocity": 0.7952755905511811,
                    "duration": 0.3125
                },
                {
                    "name": "D#4",
                    "midi": 63,
                    "time": 177.5,
                    "velocity": 0.7952755905511811,
                    "duration": 0.3125
                },
                {
                    "name": "G#4",
                    "midi": 68,
                    "time": 177.5,
                    "velocity": 0.7952755905511811,
                    "duration": 0.3125
                },
                {
                    "name": "E3",
                    "midi": 52,
                    "time": 177.8125,
                    "velocity": 0.5905511811023622,
                    "duration": 0.15625
                },
                {
                    "name": "A#3",
                    "midi": 58,
                    "time": 177.8125,
                    "velocity": 0.5905511811023622,
                    "duration": 0.15625
                },
                {
                    "name": "D4",
                    "midi": 62,
                    "time": 177.8125,
                    "velocity": 0.5905511811023622,
                    "duration": 0.15625
                },
                {
                    "name": "G4",
                    "midi": 67,
                    "time": 177.8125,
                    "velocity": 0.5905511811023622,
                    "duration": 0.15625
                },
                {
                    "name": "D#3",
                    "midi": 51,
                    "time": 177.96875,
                    "velocity": 0.5905511811023622,
                    "duration": 0.029947916666657193
                },
                {
                    "name": "A3",
                    "midi": 57,
                    "time": 177.96875,
                    "velocity": 0.5905511811023622,
                    "duration": 0.029947916666657193
                },
                {
                    "name": "C#4",
                    "midi": 61,
                    "time": 177.96875,
                    "velocity": 0.5905511811023622,
                    "duration": 0.029947916666657193
                },
                {
                    "name": "F#4",
                    "midi": 66,
                    "time": 177.96875,
                    "velocity": 0.5905511811023622,
                    "duration": 0.029947916666657193
                },
                {
                    "name": "F#3",
                    "midi": 54,
                    "time": 178.125,
                    "velocity": 0.7952755905511811,
                    "duration": 0.3125
                },
                {
                    "name": "C4",
                    "midi": 60,
                    "time": 178.125,
                    "velocity": 0.7952755905511811,
                    "duration": 0.3125
                },
                {
                    "name": "E4",
                    "midi": 64,
                    "time": 178.125,
                    "velocity": 0.7952755905511811,
                    "duration": 0.3125
                },
                {
                    "name": "A4",
                    "midi": 69,
                    "time": 178.125,
                    "velocity": 0.7952755905511811,
                    "duration": 0.3125
                },
                {
                    "name": "F3",
                    "midi": 53,
                    "time": 178.4375,
                    "velocity": 0.5905511811023622,
                    "duration": 0.15625
                },
                {
                    "name": "B3",
                    "midi": 59,
                    "time": 178.4375,
                    "velocity": 0.5905511811023622,
                    "duration": 0.15625
                },
                {
                    "name": "D#4",
                    "midi": 63,
                    "time": 178.4375,
                    "velocity": 0.5905511811023622,
                    "duration": 0.15625
                },
                {
                    "name": "G#4",
                    "midi": 68,
                    "time": 178.4375,
                    "velocity": 0.5905511811023622,
                    "duration": 0.15625
                },
                {
                    "name": "E3",
                    "midi": 52,
                    "time": 178.59375,
                    "velocity": 0.5905511811023622,
                    "duration": 0.029947916666657193
                },
                {
                    "name": "A#3",
                    "midi": 58,
                    "time": 178.59375,
                    "velocity": 0.5905511811023622,
                    "duration": 0.029947916666657193
                },
                {
                    "name": "D4",
                    "midi": 62,
                    "time": 178.59375,
                    "velocity": 0.5905511811023622,
                    "duration": 0.029947916666657193
                },
                {
                    "name": "G4",
                    "midi": 67,
                    "time": 178.59375,
                    "velocity": 0.5905511811023622,
                    "duration": 0.029947916666657193
                },
                {
                    "name": "D#3",
                    "midi": 51,
                    "time": 178.75,
                    "velocity": 0.7952755905511811,
                    "duration": 0.3125
                },
                {
                    "name": "A3",
                    "midi": 57,
                    "time": 178.75,
                    "velocity": 0.7952755905511811,
                    "duration": 0.3125
                },
                {
                    "name": "C#4",
                    "midi": 61,
                    "time": 178.75,
                    "velocity": 0.7952755905511811,
                    "duration": 0.3125
                },
                {
                    "name": "F#4",
                    "midi": 66,
                    "time": 178.75,
                    "velocity": 0.7952755905511811,
                    "duration": 0.3125
                },
                {
                    "name": "D3",
                    "midi": 50,
                    "time": 179.0625,
                    "velocity": 0.5905511811023622,
                    "duration": 0.15625
                },
                {
                    "name": "G#3",
                    "midi": 56,
                    "time": 179.0625,
                    "velocity": 0.5905511811023622,
                    "duration": 0.15625
                },
                {
                    "name": "C4",
                    "midi": 60,
                    "time": 179.0625,
                    "velocity": 0.5905511811023622,
                    "duration": 0.15625
                },
                {
                    "name": "D#4",
                    "midi": 63,
                    "time": 179.0625,
                    "velocity": 0.5905511811023622,
                    "duration": 0.15625
                },
                {
                    "name": "C#3",
                    "midi": 49,
                    "time": 179.21875,
                    "velocity": 0.5905511811023622,
                    "duration": 0.029947916666657193
                },
                {
                    "name": "G3",
                    "midi": 55,
                    "time": 179.21875,
                    "velocity": 0.5905511811023622,
                    "duration": 0.029947916666657193
                },
                {
                    "name": "B3",
                    "midi": 59,
                    "time": 179.21875,
                    "velocity": 0.5905511811023622,
                    "duration": 0.029947916666657193
                },
                {
                    "name": "E4",
                    "midi": 64,
                    "time": 179.21875,
                    "velocity": 0.5905511811023622,
                    "duration": 0.029947916666657193
                },
                {
                    "name": "E3",
                    "midi": 52,
                    "time": 179.375,
                    "velocity": 0.7952755905511811,
                    "duration": 0.3125
                },
                {
                    "name": "A#3",
                    "midi": 58,
                    "time": 179.375,
                    "velocity": 0.7952755905511811,
                    "duration": 0.3125
                },
                {
                    "name": "D4",
                    "midi": 62,
                    "time": 179.375,
                    "velocity": 0.7952755905511811,
                    "duration": 0.3125
                },
                {
                    "name": "G4",
                    "midi": 67,
                    "time": 179.375,
                    "velocity": 0.7952755905511811,
                    "duration": 0.3125
                },
                {
                    "name": "D#3",
                    "midi": 51,
                    "time": 179.6875,
                    "velocity": 0.5905511811023622,
                    "duration": 0.15625
                },
                {
                    "name": "A3",
                    "midi": 57,
                    "time": 179.6875,
                    "velocity": 0.5905511811023622,
                    "duration": 0.15625
                },
                {
                    "name": "C#4",
                    "midi": 61,
                    "time": 179.6875,
                    "velocity": 0.5905511811023622,
                    "duration": 0.15625
                },
                {
                    "name": "F#4",
                    "midi": 66,
                    "time": 179.6875,
                    "velocity": 0.5905511811023622,
                    "duration": 0.15625
                },
                {
                    "name": "D3",
                    "midi": 50,
                    "time": 179.84375,
                    "velocity": 0.5905511811023622,
                    "duration": 0.029947916666657193
                },
                {
                    "name": "G#3",
                    "midi": 56,
                    "time": 179.84375,
                    "velocity": 0.5905511811023622,
                    "duration": 0.029947916666657193
                },
                {
                    "name": "C4",
                    "midi": 60,
                    "time": 179.84375,
                    "velocity": 0.5905511811023622,
                    "duration": 0.029947916666657193
                },
                {
                    "name": "F4",
                    "midi": 65,
                    "time": 179.84375,
                    "velocity": 0.5905511811023622,
                    "duration": 0.029947916666657193
                },
                {
                    "name": "C#3",
                    "midi": 49,
                    "time": 180,
                    "velocity": 0.5905511811023622,
                    "duration": 0.3125
                },
                {
                    "name": "G3",
                    "midi": 55,
                    "time": 180,
                    "velocity": 0.5905511811023622,
                    "duration": 0.3125
                },
                {
                    "name": "B3",
                    "midi": 59,
                    "time": 180,
                    "velocity": 0.5905511811023622,
                    "duration": 0.3125
                },
                {
                    "name": "E4",
                    "midi": 64,
                    "time": 180,
                    "velocity": 0.5905511811023622,
                    "duration": 0.3125
                },
                {
                    "name": "C3",
                    "midi": 48,
                    "time": 180.3125,
                    "velocity": 0.5905511811023622,
                    "duration": 0.15625
                },
                {
                    "name": "F#3",
                    "midi": 54,
                    "time": 180.3125,
                    "velocity": 0.5905511811023622,
                    "duration": 0.15625
                },
                {
                    "name": "A#3",
                    "midi": 58,
                    "time": 180.3125,
                    "velocity": 0.5905511811023622,
                    "duration": 0.15625
                },
                {
                    "name": "D#4",
                    "midi": 63,
                    "time": 180.3125,
                    "velocity": 0.5905511811023622,
                    "duration": 0.15625
                },
                {
                    "name": "B2",
                    "midi": 47,
                    "time": 180.46875,
                    "velocity": 0.5905511811023622,
                    "duration": 0.029947916666657193
                },
                {
                    "name": "F3",
                    "midi": 53,
                    "time": 180.46875,
                    "velocity": 0.5905511811023622,
                    "duration": 0.029947916666657193
                },
                {
                    "name": "A3",
                    "midi": 57,
                    "time": 180.46875,
                    "velocity": 0.5905511811023622,
                    "duration": 0.029947916666657193
                },
                {
                    "name": "D4",
                    "midi": 62,
                    "time": 180.46875,
                    "velocity": 0.5905511811023622,
                    "duration": 0.029947916666657193
                },
                {
                    "name": "E3",
                    "midi": 52,
                    "time": 180.625,
                    "velocity": 0.5905511811023622,
                    "duration": 0.3125
                },
                {
                    "name": "A#3",
                    "midi": 58,
                    "time": 180.625,
                    "velocity": 0.5905511811023622,
                    "duration": 0.3125
                },
                {
                    "name": "C#4",
                    "midi": 61,
                    "time": 180.625,
                    "velocity": 0.5905511811023622,
                    "duration": 0.3125
                },
                {
                    "name": "G4",
                    "midi": 67,
                    "time": 180.625,
                    "velocity": 0.5905511811023622,
                    "duration": 0.3125
                },
                {
                    "name": "D#3",
                    "midi": 51,
                    "time": 180.9375,
                    "velocity": 0.5905511811023622,
                    "duration": 0.15625
                },
                {
                    "name": "A3",
                    "midi": 57,
                    "time": 180.9375,
                    "velocity": 0.5905511811023622,
                    "duration": 0.15625
                },
                {
                    "name": "C#4",
                    "midi": 61,
                    "time": 180.9375,
                    "velocity": 0.5905511811023622,
                    "duration": 0.15625
                },
                {
                    "name": "F#4",
                    "midi": 66,
                    "time": 180.9375,
                    "velocity": 0.5905511811023622,
                    "duration": 0.15625
                },
                {
                    "name": "D3",
                    "midi": 50,
                    "time": 181.09375,
                    "velocity": 0.5905511811023622,
                    "duration": 0.029947916666657193
                },
                {
                    "name": "A3",
                    "midi": 57,
                    "time": 181.09375,
                    "velocity": 0.5905511811023622,
                    "duration": 0.029947916666657193
                },
                {
                    "name": "C4",
                    "midi": 60,
                    "time": 181.09375,
                    "velocity": 0.5905511811023622,
                    "duration": 0.029947916666657193
                },
                {
                    "name": "F4",
                    "midi": 65,
                    "time": 181.09375,
                    "velocity": 0.5905511811023622,
                    "duration": 0.029947916666657193
                },
                {
                    "name": "F#3",
                    "midi": 54,
                    "time": 181.25,
                    "velocity": 0.5905511811023622,
                    "duration": 0.3125
                },
                {
                    "name": "C4",
                    "midi": 60,
                    "time": 181.25,
                    "velocity": 0.5905511811023622,
                    "duration": 0.3125
                },
                {
                    "name": "E4",
                    "midi": 64,
                    "time": 181.25,
                    "velocity": 0.5905511811023622,
                    "duration": 0.3125
                },
                {
                    "name": "A4",
                    "midi": 69,
                    "time": 181.25,
                    "velocity": 0.5905511811023622,
                    "duration": 0.3125
                },
                {
                    "name": "F3",
                    "midi": 53,
                    "time": 181.5625,
                    "velocity": 0.5905511811023622,
                    "duration": 0.15625
                },
                {
                    "name": "B3",
                    "midi": 59,
                    "time": 181.5625,
                    "velocity": 0.5905511811023622,
                    "duration": 0.15625
                },
                {
                    "name": "D#4",
                    "midi": 63,
                    "time": 181.5625,
                    "velocity": 0.5905511811023622,
                    "duration": 0.15625
                },
                {
                    "name": "G#4",
                    "midi": 68,
                    "time": 181.5625,
                    "velocity": 0.5905511811023622,
                    "duration": 0.15625
                },
                {
                    "name": "E3",
                    "midi": 52,
                    "time": 181.71875,
                    "velocity": 0.5905511811023622,
                    "duration": 0.029947916666657193
                },
                {
                    "name": "A#3",
                    "midi": 58,
                    "time": 181.71875,
                    "velocity": 0.5905511811023622,
                    "duration": 0.029947916666657193
                },
                {
                    "name": "D4",
                    "midi": 62,
                    "time": 181.71875,
                    "velocity": 0.5905511811023622,
                    "duration": 0.029947916666657193
                },
                {
                    "name": "G4",
                    "midi": 67,
                    "time": 181.71875,
                    "velocity": 0.5905511811023622,
                    "duration": 0.029947916666657193
                },
                {
                    "name": "A3",
                    "midi": 57,
                    "time": 181.875,
                    "velocity": 0.5905511811023622,
                    "duration": 0.3125
                },
                {
                    "name": "D#4",
                    "midi": 63,
                    "time": 181.875,
                    "velocity": 0.5905511811023622,
                    "duration": 0.3125
                },
                {
                    "name": "G4",
                    "midi": 67,
                    "time": 181.875,
                    "velocity": 0.5905511811023622,
                    "duration": 0.3125
                },
                {
                    "name": "C5",
                    "midi": 72,
                    "time": 181.875,
                    "velocity": 0.5905511811023622,
                    "duration": 0.3125
                },
                {
                    "name": "G#3",
                    "midi": 56,
                    "time": 182.1875,
                    "velocity": 0.5905511811023622,
                    "duration": 0.15625
                },
                {
                    "name": "D4",
                    "midi": 62,
                    "time": 182.1875,
                    "velocity": 0.5905511811023622,
                    "duration": 0.15625
                },
                {
                    "name": "F#4",
                    "midi": 66,
                    "time": 182.1875,
                    "velocity": 0.5905511811023622,
                    "duration": 0.15625
                },
                {
                    "name": "B4",
                    "midi": 71,
                    "time": 182.1875,
                    "velocity": 0.5905511811023622,
                    "duration": 0.15625
                },
                {
                    "name": "G3",
                    "midi": 55,
                    "time": 182.34375,
                    "velocity": 0.5905511811023622,
                    "duration": 0.029947916666657193
                },
                {
                    "name": "C#4",
                    "midi": 61,
                    "time": 182.34375,
                    "velocity": 0.5905511811023622,
                    "duration": 0.029947916666657193
                },
                {
                    "name": "F4",
                    "midi": 65,
                    "time": 182.34375,
                    "velocity": 0.5905511811023622,
                    "duration": 0.029947916666657193
                },
                {
                    "name": "A#4",
                    "midi": 70,
                    "time": 182.34375,
                    "velocity": 0.5905511811023622,
                    "duration": 0.029947916666657193
                },
                {
                    "name": "C#4",
                    "midi": 61,
                    "time": 182.5,
                    "velocity": 0.7952755905511811,
                    "duration": 2.5
                },
                {
                    "name": "F4",
                    "midi": 65,
                    "time": 182.5,
                    "velocity": 0.7952755905511811,
                    "duration": 2.5
                },
                {
                    "name": "B4",
                    "midi": 71,
                    "time": 182.5,
                    "velocity": 0.7952755905511811,
                    "duration": 2.5
                },
                {
                    "name": "C#4",
                    "midi": 61,
                    "time": 185,
                    "velocity": 0.7952755905511811,
                    "duration": 0.3125
                },
                {
                    "name": "F4",
                    "midi": 65,
                    "time": 185,
                    "velocity": 0.7952755905511811,
                    "duration": 0.3125
                },
                {
                    "name": "B4",
                    "midi": 71,
                    "time": 185,
                    "velocity": 0.7952755905511811,
                    "duration": 0.3125
                },
                {
                    "name": "C#4",
                    "midi": 61,
                    "time": 185.3125,
                    "velocity": 0.5905511811023622,
                    "duration": 0.029947916666657193
                },
                {
                    "name": "F4",
                    "midi": 65,
                    "time": 185.3125,
                    "velocity": 0.5905511811023622,
                    "duration": 0.029947916666657193
                },
                {
                    "name": "B4",
                    "midi": 71,
                    "time": 185.3125,
                    "velocity": 0.5905511811023622,
                    "duration": 0.029947916666657193
                },
                {
                    "name": "C#4",
                    "midi": 61,
                    "time": 185.46875,
                    "velocity": 0.5905511811023622,
                    "duration": 0.029947916666657193
                },
                {
                    "name": "F4",
                    "midi": 65,
                    "time": 185.46875,
                    "velocity": 0.5905511811023622,
                    "duration": 0.029947916666657193
                },
                {
                    "name": "B4",
                    "midi": 71,
                    "time": 185.46875,
                    "velocity": 0.5905511811023622,
                    "duration": 0.029947916666657193
                },
                {
                    "name": "C#4",
                    "midi": 61,
                    "time": 185.625,
                    "velocity": 0.5905511811023622,
                    "duration": 0.029947916666657193
                },
                {
                    "name": "F4",
                    "midi": 65,
                    "time": 185.625,
                    "velocity": 0.5905511811023622,
                    "duration": 0.029947916666657193
                },
                {
                    "name": "B4",
                    "midi": 71,
                    "time": 185.625,
                    "velocity": 0.5905511811023622,
                    "duration": 0.029947916666657193
                },
                {
                    "name": "C#4",
                    "midi": 61,
                    "time": 185.78125,
                    "velocity": 0.7952755905511811,
                    "duration": 0.3125
                },
                {
                    "name": "F4",
                    "midi": 65,
                    "time": 185.78125,
                    "velocity": 0.7952755905511811,
                    "duration": 0.3125
                },
                {
                    "name": "B4",
                    "midi": 71,
                    "time": 185.78125,
                    "velocity": 0.7952755905511811,
                    "duration": 0.3125
                },
                {
                    "name": "C#4",
                    "midi": 61,
                    "time": 186.09375,
                    "velocity": 0.5905511811023622,
                    "duration": 0.029947916666657193
                },
                {
                    "name": "F4",
                    "midi": 65,
                    "time": 186.09375,
                    "velocity": 0.5905511811023622,
                    "duration": 0.029947916666657193
                },
                {
                    "name": "B4",
                    "midi": 71,
                    "time": 186.09375,
                    "velocity": 0.5905511811023622,
                    "duration": 0.029947916666657193
                },
                {
                    "name": "C#4",
                    "midi": 61,
                    "time": 186.25,
                    "velocity": 0.7952755905511811,
                    "duration": 0.3125
                },
                {
                    "name": "F4",
                    "midi": 65,
                    "time": 186.25,
                    "velocity": 0.7952755905511811,
                    "duration": 0.3125
                },
                {
                    "name": "B4",
                    "midi": 71,
                    "time": 186.25,
                    "velocity": 0.7952755905511811,
                    "duration": 0.3125
                },
                {
                    "name": "C#4",
                    "midi": 61,
                    "time": 186.5625,
                    "velocity": 0.5905511811023622,
                    "duration": 0.029947916666657193
                },
                {
                    "name": "F4",
                    "midi": 65,
                    "time": 186.5625,
                    "velocity": 0.5905511811023622,
                    "duration": 0.029947916666657193
                },
                {
                    "name": "B4",
                    "midi": 71,
                    "time": 186.5625,
                    "velocity": 0.5905511811023622,
                    "duration": 0.029947916666657193
                },
                {
                    "name": "C#4",
                    "midi": 61,
                    "time": 186.71875,
                    "velocity": 0.5905511811023622,
                    "duration": 0.029947916666657193
                },
                {
                    "name": "F4",
                    "midi": 65,
                    "time": 186.71875,
                    "velocity": 0.5905511811023622,
                    "duration": 0.029947916666657193
                },
                {
                    "name": "B4",
                    "midi": 71,
                    "time": 186.71875,
                    "velocity": 0.5905511811023622,
                    "duration": 0.029947916666657193
                },
                {
                    "name": "C#4",
                    "midi": 61,
                    "time": 186.875,
                    "velocity": 0.5905511811023622,
                    "duration": 0.029947916666657193
                },
                {
                    "name": "F4",
                    "midi": 65,
                    "time": 186.875,
                    "velocity": 0.5905511811023622,
                    "duration": 0.029947916666657193
                },
                {
                    "name": "B4",
                    "midi": 71,
                    "time": 186.875,
                    "velocity": 0.5905511811023622,
                    "duration": 0.029947916666657193
                },
                {
                    "name": "C#4",
                    "midi": 61,
                    "time": 187.03125,
                    "velocity": 0.7952755905511811,
                    "duration": 0.3125
                },
                {
                    "name": "F4",
                    "midi": 65,
                    "time": 187.03125,
                    "velocity": 0.7952755905511811,
                    "duration": 0.3125
                },
                {
                    "name": "B4",
                    "midi": 71,
                    "time": 187.03125,
                    "velocity": 0.7952755905511811,
                    "duration": 0.3125
                },
                {
                    "name": "C#4",
                    "midi": 61,
                    "time": 187.34375,
                    "velocity": 0.5905511811023622,
                    "duration": 0.029947916666657193
                },
                {
                    "name": "F4",
                    "midi": 65,
                    "time": 187.34375,
                    "velocity": 0.5905511811023622,
                    "duration": 0.029947916666657193
                },
                {
                    "name": "B4",
                    "midi": 71,
                    "time": 187.34375,
                    "velocity": 0.5905511811023622,
                    "duration": 0.029947916666657193
                },
                {
                    "name": "D#4",
                    "midi": 63,
                    "time": 187.5,
                    "velocity": 0.8976377952755905,
                    "duration": 0.3125
                },
                {
                    "name": "F4",
                    "midi": 65,
                    "time": 187.5,
                    "velocity": 0.8976377952755905,
                    "duration": 0.3125
                },
                {
                    "name": "B4",
                    "midi": 71,
                    "time": 187.5,
                    "velocity": 0.8976377952755905,
                    "duration": 0.3125
                },
                {
                    "name": "D#4",
                    "midi": 63,
                    "time": 187.8125,
                    "velocity": 0.6929133858267716,
                    "duration": 0.029947916666657193
                },
                {
                    "name": "F4",
                    "midi": 65,
                    "time": 187.8125,
                    "velocity": 0.6929133858267716,
                    "duration": 0.029947916666657193
                },
                {
                    "name": "B4",
                    "midi": 71,
                    "time": 187.8125,
                    "velocity": 0.6929133858267716,
                    "duration": 0.029947916666657193
                },
                {
                    "name": "D#4",
                    "midi": 63,
                    "time": 187.96875,
                    "velocity": 0.6929133858267716,
                    "duration": 0.029947916666657193
                },
                {
                    "name": "F4",
                    "midi": 65,
                    "time": 187.96875,
                    "velocity": 0.6929133858267716,
                    "duration": 0.029947916666657193
                },
                {
                    "name": "B4",
                    "midi": 71,
                    "time": 187.96875,
                    "velocity": 0.6929133858267716,
                    "duration": 0.029947916666657193
                },
                {
                    "name": "D#4",
                    "midi": 63,
                    "time": 188.125,
                    "velocity": 0.6929133858267716,
                    "duration": 0.029947916666657193
                },
                {
                    "name": "F4",
                    "midi": 65,
                    "time": 188.125,
                    "velocity": 0.6929133858267716,
                    "duration": 0.029947916666657193
                },
                {
                    "name": "B4",
                    "midi": 71,
                    "time": 188.125,
                    "velocity": 0.6929133858267716,
                    "duration": 0.029947916666657193
                },
                {
                    "name": "D#4",
                    "midi": 63,
                    "time": 188.28125,
                    "velocity": 0.8976377952755905,
                    "duration": 0.3125
                },
                {
                    "name": "F4",
                    "midi": 65,
                    "time": 188.28125,
                    "velocity": 0.8976377952755905,
                    "duration": 0.3125
                },
                {
                    "name": "B4",
                    "midi": 71,
                    "time": 188.28125,
                    "velocity": 0.8976377952755905,
                    "duration": 0.3125
                },
                {
                    "name": "D#4",
                    "midi": 63,
                    "time": 188.59375,
                    "velocity": 0.6929133858267716,
                    "duration": 0.029947916666657193
                },
                {
                    "name": "F4",
                    "midi": 65,
                    "time": 188.59375,
                    "velocity": 0.6929133858267716,
                    "duration": 0.029947916666657193
                },
                {
                    "name": "B4",
                    "midi": 71,
                    "time": 188.59375,
                    "velocity": 0.6929133858267716,
                    "duration": 0.029947916666657193
                },
                {
                    "name": "D#4",
                    "midi": 63,
                    "time": 188.75,
                    "velocity": 0.8976377952755905,
                    "duration": 0.3125
                },
                {
                    "name": "F4",
                    "midi": 65,
                    "time": 188.75,
                    "velocity": 0.8976377952755905,
                    "duration": 0.3125
                },
                {
                    "name": "B4",
                    "midi": 71,
                    "time": 188.75,
                    "velocity": 0.8976377952755905,
                    "duration": 0.3125
                },
                {
                    "name": "D#4",
                    "midi": 63,
                    "time": 189.0625,
                    "velocity": 0.6929133858267716,
                    "duration": 0.029947916666657193
                },
                {
                    "name": "F4",
                    "midi": 65,
                    "time": 189.0625,
                    "velocity": 0.6929133858267716,
                    "duration": 0.029947916666657193
                },
                {
                    "name": "B4",
                    "midi": 71,
                    "time": 189.0625,
                    "velocity": 0.6929133858267716,
                    "duration": 0.029947916666657193
                },
                {
                    "name": "D#4",
                    "midi": 63,
                    "time": 189.21875,
                    "velocity": 0.6929133858267716,
                    "duration": 0.029947916666657193
                },
                {
                    "name": "F4",
                    "midi": 65,
                    "time": 189.21875,
                    "velocity": 0.6929133858267716,
                    "duration": 0.029947916666657193
                },
                {
                    "name": "B4",
                    "midi": 71,
                    "time": 189.21875,
                    "velocity": 0.6929133858267716,
                    "duration": 0.029947916666657193
                },
                {
                    "name": "D#4",
                    "midi": 63,
                    "time": 189.375,
                    "velocity": 0.6929133858267716,
                    "duration": 0.029947916666657193
                },
                {
                    "name": "F4",
                    "midi": 65,
                    "time": 189.375,
                    "velocity": 0.6929133858267716,
                    "duration": 0.029947916666657193
                },
                {
                    "name": "B4",
                    "midi": 71,
                    "time": 189.375,
                    "velocity": 0.6929133858267716,
                    "duration": 0.029947916666657193
                },
                {
                    "name": "D#4",
                    "midi": 63,
                    "time": 189.53125,
                    "velocity": 0.8976377952755905,
                    "duration": 0.3125
                },
                {
                    "name": "F4",
                    "midi": 65,
                    "time": 189.53125,
                    "velocity": 0.8976377952755905,
                    "duration": 0.3125
                },
                {
                    "name": "B4",
                    "midi": 71,
                    "time": 189.53125,
                    "velocity": 0.8976377952755905,
                    "duration": 0.3125
                },
                {
                    "name": "D#4",
                    "midi": 63,
                    "time": 189.84375,
                    "velocity": 0.6929133858267716,
                    "duration": 0.029947916666657193
                },
                {
                    "name": "F4",
                    "midi": 65,
                    "time": 189.84375,
                    "velocity": 0.6929133858267716,
                    "duration": 0.029947916666657193
                },
                {
                    "name": "B4",
                    "midi": 71,
                    "time": 189.84375,
                    "velocity": 0.6929133858267716,
                    "duration": 0.029947916666657193
                },
                {
                    "name": "E4",
                    "midi": 64,
                    "time": 190,
                    "velocity": 0.8976377952755905,
                    "duration": 0.3125
                },
                {
                    "name": "A4",
                    "midi": 69,
                    "time": 190,
                    "velocity": 0.8976377952755905,
                    "duration": 0.3125
                },
                {
                    "name": "C#5",
                    "midi": 73,
                    "time": 190,
                    "velocity": 0.8976377952755905,
                    "duration": 0.3125
                },
                {
                    "name": "E4",
                    "midi": 64,
                    "time": 190.3125,
                    "velocity": 0.6929133858267716,
                    "duration": 0.029947916666657193
                },
                {
                    "name": "A4",
                    "midi": 69,
                    "time": 190.3125,
                    "velocity": 0.6929133858267716,
                    "duration": 0.029947916666657193
                },
                {
                    "name": "C#5",
                    "midi": 73,
                    "time": 190.3125,
                    "velocity": 0.6929133858267716,
                    "duration": 0.029947916666657193
                },
                {
                    "name": "E4",
                    "midi": 64,
                    "time": 190.46875,
                    "velocity": 0.6929133858267716,
                    "duration": 0.029947916666657193
                },
                {
                    "name": "A4",
                    "midi": 69,
                    "time": 190.46875,
                    "velocity": 0.6929133858267716,
                    "duration": 0.029947916666657193
                },
                {
                    "name": "C#5",
                    "midi": 73,
                    "time": 190.46875,
                    "velocity": 0.6929133858267716,
                    "duration": 0.029947916666657193
                },
                {
                    "name": "E4",
                    "midi": 64,
                    "time": 190.625,
                    "velocity": 0.6929133858267716,
                    "duration": 0.029947916666657193
                },
                {
                    "name": "A4",
                    "midi": 69,
                    "time": 190.625,
                    "velocity": 0.6929133858267716,
                    "duration": 0.029947916666657193
                },
                {
                    "name": "C#5",
                    "midi": 73,
                    "time": 190.625,
                    "velocity": 0.6929133858267716,
                    "duration": 0.029947916666657193
                },
                {
                    "name": "E4",
                    "midi": 64,
                    "time": 190.78125,
                    "velocity": 0.8976377952755905,
                    "duration": 0.3125
                },
                {
                    "name": "A4",
                    "midi": 69,
                    "time": 190.78125,
                    "velocity": 0.8976377952755905,
                    "duration": 0.3125
                },
                {
                    "name": "C#5",
                    "midi": 73,
                    "time": 190.78125,
                    "velocity": 0.8976377952755905,
                    "duration": 0.3125
                },
                {
                    "name": "E4",
                    "midi": 64,
                    "time": 191.09375,
                    "velocity": 0.6929133858267716,
                    "duration": 0.029947916666657193
                },
                {
                    "name": "A4",
                    "midi": 69,
                    "time": 191.09375,
                    "velocity": 0.6929133858267716,
                    "duration": 0.029947916666657193
                },
                {
                    "name": "C#5",
                    "midi": 73,
                    "time": 191.09375,
                    "velocity": 0.6929133858267716,
                    "duration": 0.029947916666657193
                },
                {
                    "name": "C#4",
                    "midi": 61,
                    "time": 191.25,
                    "velocity": 0.8976377952755905,
                    "duration": 0.3125
                },
                {
                    "name": "E4",
                    "midi": 64,
                    "time": 191.25,
                    "velocity": 0.8976377952755905,
                    "duration": 0.3125
                },
                {
                    "name": "G4",
                    "midi": 67,
                    "time": 191.25,
                    "velocity": 0.8976377952755905,
                    "duration": 0.3125
                },
                {
                    "name": "A#4",
                    "midi": 70,
                    "time": 191.25,
                    "velocity": 0.8976377952755905,
                    "duration": 0.3125
                },
                {
                    "name": "C#4",
                    "midi": 61,
                    "time": 191.5625,
                    "velocity": 0.6929133858267716,
                    "duration": 0.029947916666657193
                },
                {
                    "name": "E4",
                    "midi": 64,
                    "time": 191.5625,
                    "velocity": 0.6929133858267716,
                    "duration": 0.029947916666657193
                },
                {
                    "name": "G4",
                    "midi": 67,
                    "time": 191.5625,
                    "velocity": 0.6929133858267716,
                    "duration": 0.029947916666657193
                },
                {
                    "name": "A#4",
                    "midi": 70,
                    "time": 191.5625,
                    "velocity": 0.6929133858267716,
                    "duration": 0.029947916666657193
                },
                {
                    "name": "C#4",
                    "midi": 61,
                    "time": 191.71875,
                    "velocity": 0.6929133858267716,
                    "duration": 0.029947916666657193
                },
                {
                    "name": "E4",
                    "midi": 64,
                    "time": 191.71875,
                    "velocity": 0.6929133858267716,
                    "duration": 0.029947916666657193
                },
                {
                    "name": "G4",
                    "midi": 67,
                    "time": 191.71875,
                    "velocity": 0.6929133858267716,
                    "duration": 0.029947916666657193
                },
                {
                    "name": "A#4",
                    "midi": 70,
                    "time": 191.71875,
                    "velocity": 0.6929133858267716,
                    "duration": 0.029947916666657193
                },
                {
                    "name": "C#4",
                    "midi": 61,
                    "time": 191.875,
                    "velocity": 0.6929133858267716,
                    "duration": 0.029947916666657193
                },
                {
                    "name": "E4",
                    "midi": 64,
                    "time": 191.875,
                    "velocity": 0.6929133858267716,
                    "duration": 0.029947916666657193
                },
                {
                    "name": "G4",
                    "midi": 67,
                    "time": 191.875,
                    "velocity": 0.6929133858267716,
                    "duration": 0.029947916666657193
                },
                {
                    "name": "A#4",
                    "midi": 70,
                    "time": 191.875,
                    "velocity": 0.6929133858267716,
                    "duration": 0.029947916666657193
                },
                {
                    "name": "C#4",
                    "midi": 61,
                    "time": 192.03125,
                    "velocity": 0.8976377952755905,
                    "duration": 0.3125
                },
                {
                    "name": "E4",
                    "midi": 64,
                    "time": 192.03125,
                    "velocity": 0.8976377952755905,
                    "duration": 0.3125
                },
                {
                    "name": "G4",
                    "midi": 67,
                    "time": 192.03125,
                    "velocity": 0.8976377952755905,
                    "duration": 0.3125
                },
                {
                    "name": "A#4",
                    "midi": 70,
                    "time": 192.03125,
                    "velocity": 0.8976377952755905,
                    "duration": 0.3125
                },
                {
                    "name": "C#4",
                    "midi": 61,
                    "time": 192.34375,
                    "velocity": 0.6929133858267716,
                    "duration": 0.029947916666657193
                },
                {
                    "name": "E4",
                    "midi": 64,
                    "time": 192.34375,
                    "velocity": 0.6929133858267716,
                    "duration": 0.029947916666657193
                },
                {
                    "name": "G4",
                    "midi": 67,
                    "time": 192.34375,
                    "velocity": 0.6929133858267716,
                    "duration": 0.029947916666657193
                },
                {
                    "name": "A#4",
                    "midi": 70,
                    "time": 192.34375,
                    "velocity": 0.6929133858267716,
                    "duration": 0.029947916666657193
                },
                {
                    "name": "B3",
                    "midi": 59,
                    "time": 192.5,
                    "velocity": 0.8976377952755905,
                    "duration": 0.3125
                },
                {
                    "name": "D4",
                    "midi": 62,
                    "time": 192.5,
                    "velocity": 0.8976377952755905,
                    "duration": 0.3125
                },
                {
                    "name": "F#4",
                    "midi": 66,
                    "time": 192.5,
                    "velocity": 0.8976377952755905,
                    "duration": 0.3125
                },
                {
                    "name": "B4",
                    "midi": 71,
                    "time": 192.5,
                    "velocity": 0.8976377952755905,
                    "duration": 0.3125
                },
                {
                    "name": "B3",
                    "midi": 59,
                    "time": 192.8125,
                    "velocity": 0.6929133858267716,
                    "duration": 0.029947916666657193
                },
                {
                    "name": "D4",
                    "midi": 62,
                    "time": 192.8125,
                    "velocity": 0.6929133858267716,
                    "duration": 0.029947916666657193
                },
                {
                    "name": "F#4",
                    "midi": 66,
                    "time": 192.8125,
                    "velocity": 0.6929133858267716,
                    "duration": 0.029947916666657193
                },
                {
                    "name": "B4",
                    "midi": 71,
                    "time": 192.8125,
                    "velocity": 0.6929133858267716,
                    "duration": 0.029947916666657193
                },
                {
                    "name": "B3",
                    "midi": 59,
                    "time": 192.96875,
                    "velocity": 0.6929133858267716,
                    "duration": 0.029947916666657193
                },
                {
                    "name": "D4",
                    "midi": 62,
                    "time": 192.96875,
                    "velocity": 0.6929133858267716,
                    "duration": 0.029947916666657193
                },
                {
                    "name": "F#4",
                    "midi": 66,
                    "time": 192.96875,
                    "velocity": 0.6929133858267716,
                    "duration": 0.029947916666657193
                },
                {
                    "name": "B4",
                    "midi": 71,
                    "time": 192.96875,
                    "velocity": 0.6929133858267716,
                    "duration": 0.029947916666657193
                },
                {
                    "name": "B3",
                    "midi": 59,
                    "time": 193.125,
                    "velocity": 0.6929133858267716,
                    "duration": 0.029947916666657193
                },
                {
                    "name": "D4",
                    "midi": 62,
                    "time": 193.125,
                    "velocity": 0.6929133858267716,
                    "duration": 0.029947916666657193
                },
                {
                    "name": "F#4",
                    "midi": 66,
                    "time": 193.125,
                    "velocity": 0.6929133858267716,
                    "duration": 0.029947916666657193
                },
                {
                    "name": "B4",
                    "midi": 71,
                    "time": 193.125,
                    "velocity": 0.6929133858267716,
                    "duration": 0.029947916666657193
                },
                {
                    "name": "B3",
                    "midi": 59,
                    "time": 193.28125,
                    "velocity": 0.8976377952755905,
                    "duration": 0.3125
                },
                {
                    "name": "D4",
                    "midi": 62,
                    "time": 193.28125,
                    "velocity": 0.8976377952755905,
                    "duration": 0.3125
                },
                {
                    "name": "F#4",
                    "midi": 66,
                    "time": 193.28125,
                    "velocity": 0.8976377952755905,
                    "duration": 0.3125
                },
                {
                    "name": "B4",
                    "midi": 71,
                    "time": 193.28125,
                    "velocity": 0.8976377952755905,
                    "duration": 0.3125
                },
                {
                    "name": "B3",
                    "midi": 59,
                    "time": 193.59375,
                    "velocity": 0.6929133858267716,
                    "duration": 0.029947916666657193
                },
                {
                    "name": "D4",
                    "midi": 62,
                    "time": 193.59375,
                    "velocity": 0.6929133858267716,
                    "duration": 0.029947916666657193
                },
                {
                    "name": "F#4",
                    "midi": 66,
                    "time": 193.59375,
                    "velocity": 0.6929133858267716,
                    "duration": 0.029947916666657193
                },
                {
                    "name": "B4",
                    "midi": 71,
                    "time": 193.59375,
                    "velocity": 0.6929133858267716,
                    "duration": 0.029947916666657193
                },
                {
                    "name": "D4",
                    "midi": 62,
                    "time": 193.75,
                    "velocity": 0.7952755905511811,
                    "duration": 0.3125
                },
                {
                    "name": "A4",
                    "midi": 69,
                    "time": 193.75,
                    "velocity": 0.7952755905511811,
                    "duration": 0.3125
                },
                {
                    "name": "C5",
                    "midi": 72,
                    "time": 193.75,
                    "velocity": 0.7952755905511811,
                    "duration": 0.3125
                },
                {
                    "name": "D5",
                    "midi": 74,
                    "time": 193.75,
                    "velocity": 0.7952755905511811,
                    "duration": 0.3125
                },
                {
                    "name": "D4",
                    "midi": 62,
                    "time": 194.0625,
                    "velocity": 0.5905511811023622,
                    "duration": 0.029947916666657193
                },
                {
                    "name": "A4",
                    "midi": 69,
                    "time": 194.0625,
                    "velocity": 0.5905511811023622,
                    "duration": 0.029947916666657193
                },
                {
                    "name": "C5",
                    "midi": 72,
                    "time": 194.0625,
                    "velocity": 0.5905511811023622,
                    "duration": 0.029947916666657193
                },
                {
                    "name": "D5",
                    "midi": 74,
                    "time": 194.0625,
                    "velocity": 0.5905511811023622,
                    "duration": 0.029947916666657193
                },
                {
                    "name": "D4",
                    "midi": 62,
                    "time": 194.21875,
                    "velocity": 0.5905511811023622,
                    "duration": 0.029947916666657193
                },
                {
                    "name": "A4",
                    "midi": 69,
                    "time": 194.21875,
                    "velocity": 0.5905511811023622,
                    "duration": 0.029947916666657193
                },
                {
                    "name": "C5",
                    "midi": 72,
                    "time": 194.21875,
                    "velocity": 0.5905511811023622,
                    "duration": 0.029947916666657193
                },
                {
                    "name": "D5",
                    "midi": 74,
                    "time": 194.21875,
                    "velocity": 0.5905511811023622,
                    "duration": 0.029947916666657193
                },
                {
                    "name": "A3",
                    "midi": 57,
                    "time": 194.375,
                    "velocity": 0.5905511811023622,
                    "duration": 0.029947916666657193
                },
                {
                    "name": "D4",
                    "midi": 62,
                    "time": 194.375,
                    "velocity": 0.5905511811023622,
                    "duration": 0.029947916666657193
                },
                {
                    "name": "F#4",
                    "midi": 66,
                    "time": 194.375,
                    "velocity": 0.5905511811023622,
                    "duration": 0.029947916666657193
                },
                {
                    "name": "A4",
                    "midi": 69,
                    "time": 194.375,
                    "velocity": 0.5905511811023622,
                    "duration": 0.029947916666657193
                },
                {
                    "name": "A3",
                    "midi": 57,
                    "time": 194.53125,
                    "velocity": 0.7952755905511811,
                    "duration": 0.3125
                },
                {
                    "name": "D4",
                    "midi": 62,
                    "time": 194.53125,
                    "velocity": 0.7952755905511811,
                    "duration": 0.3125
                },
                {
                    "name": "F#4",
                    "midi": 66,
                    "time": 194.53125,
                    "velocity": 0.7952755905511811,
                    "duration": 0.3125
                },
                {
                    "name": "A4",
                    "midi": 69,
                    "time": 194.53125,
                    "velocity": 0.7952755905511811,
                    "duration": 0.3125
                },
                {
                    "name": "A3",
                    "midi": 57,
                    "time": 194.84375,
                    "velocity": 0.5905511811023622,
                    "duration": 0.029947916666657193
                },
                {
                    "name": "D4",
                    "midi": 62,
                    "time": 194.84375,
                    "velocity": 0.5905511811023622,
                    "duration": 0.029947916666657193
                },
                {
                    "name": "F#4",
                    "midi": 66,
                    "time": 194.84375,
                    "velocity": 0.5905511811023622,
                    "duration": 0.029947916666657193
                },
                {
                    "name": "A4",
                    "midi": 69,
                    "time": 194.84375,
                    "velocity": 0.5905511811023622,
                    "duration": 0.029947916666657193
                },
                {
                    "name": "A3",
                    "midi": 57,
                    "time": 195,
                    "velocity": 0.5905511811023622,
                    "duration": 2.5
                },
                {
                    "name": "E4",
                    "midi": 64,
                    "time": 195,
                    "velocity": 0.5905511811023622,
                    "duration": 2.5
                },
                {
                    "name": "A4",
                    "midi": 69,
                    "time": 195,
                    "velocity": 0.5905511811023622,
                    "duration": 2.5
                },
                {
                    "name": "E3",
                    "midi": 52,
                    "time": 197.5,
                    "velocity": 0.3858267716535433,
                    "duration": 2.5
                },
                {
                    "name": "A3",
                    "midi": 57,
                    "time": 197.5,
                    "velocity": 0.3858267716535433,
                    "duration": 2.5
                },
                {
                    "name": "E4",
                    "midi": 64,
                    "time": 197.5,
                    "velocity": 0.3858267716535433,
                    "duration": 2.5
                },
                {
                    "name": "A3",
                    "midi": 57,
                    "time": 200,
                    "velocity": 0.3858267716535433,
                    "duration": 2.5
                },
                {
                    "name": "D4",
                    "midi": 62,
                    "time": 200,
                    "velocity": 0.3858267716535433,
                    "duration": 2.5
                },
                {
                    "name": "A4",
                    "midi": 69,
                    "time": 200,
                    "velocity": 0.3858267716535433,
                    "duration": 2.5
                },
                {
                    "name": "D4",
                    "midi": 62,
                    "time": 202.5,
                    "velocity": 0.3858267716535433,
                    "duration": 2.5
                },
                {
                    "name": "F#4",
                    "midi": 66,
                    "time": 202.5,
                    "velocity": 0.3858267716535433,
                    "duration": 2.5
                },
                {
                    "name": "D5",
                    "midi": 74,
                    "time": 202.5,
                    "velocity": 0.3858267716535433,
                    "duration": 2.5
                },
                {
                    "name": "E4",
                    "midi": 64,
                    "time": 205,
                    "velocity": 0.3858267716535433,
                    "duration": 5
                },
                {
                    "name": "A4",
                    "midi": 69,
                    "time": 205,
                    "velocity": 0.3858267716535433,
                    "duration": 5
                },
                {
                    "name": "E5",
                    "midi": 76,
                    "time": 205,
                    "velocity": 0.3858267716535433,
                    "duration": 5
                },
                {
                    "name": "G#3",
                    "midi": 56,
                    "time": 212.5,
                    "velocity": 0.4881889763779528,
                    "duration": 2.1875
                },
                {
                    "name": "C#4",
                    "midi": 61,
                    "time": 212.5,
                    "velocity": 0.4881889763779528,
                    "duration": 2.1875
                },
                {
                    "name": "F4",
                    "midi": 65,
                    "time": 212.5,
                    "velocity": 0.4881889763779528,
                    "duration": 2.1875
                },
                {
                    "name": "C#4",
                    "midi": 61,
                    "time": 214.6875,
                    "velocity": 0.4881889763779528,
                    "duration": 0.10416666666665719
                },
                {
                    "name": "E4",
                    "midi": 64,
                    "time": 214.6875,
                    "velocity": 0.4881889763779528,
                    "duration": 0.10416666666665719
                },
                {
                    "name": "G#4",
                    "midi": 68,
                    "time": 214.6875,
                    "velocity": 0.4881889763779528,
                    "duration": 0.10416666666665719
                },
                {
                    "name": "B3",
                    "midi": 59,
                    "time": 214.79166666666666,
                    "velocity": 0.4881889763779528,
                    "duration": 0.10286458333334281
                },
                {
                    "name": "D4",
                    "midi": 62,
                    "time": 214.79166666666666,
                    "velocity": 0.4881889763779528,
                    "duration": 0.10286458333334281
                },
                {
                    "name": "F#4",
                    "midi": 66,
                    "time": 214.79166666666666,
                    "velocity": 0.4881889763779528,
                    "duration": 0.10286458333334281
                },
                {
                    "name": "D#4",
                    "midi": 63,
                    "time": 214.89453125,
                    "velocity": 0.4881889763779528,
                    "duration": 0.10546875
                },
                {
                    "name": "G4",
                    "midi": 67,
                    "time": 214.89453125,
                    "velocity": 0.4881889763779528,
                    "duration": 0.10546875
                },
                {
                    "name": "A#4",
                    "midi": 70,
                    "time": 214.89453125,
                    "velocity": 0.4881889763779528,
                    "duration": 0.10546875
                },
                {
                    "name": "D4",
                    "midi": 62,
                    "time": 215,
                    "velocity": 0.4881889763779528,
                    "duration": 2.1875
                },
                {
                    "name": "F#4",
                    "midi": 66,
                    "time": 215,
                    "velocity": 0.4881889763779528,
                    "duration": 2.1875
                },
                {
                    "name": "A4",
                    "midi": 69,
                    "time": 215,
                    "velocity": 0.4881889763779528,
                    "duration": 2.1875
                },
                {
                    "name": "F3",
                    "midi": 53,
                    "time": 220,
                    "velocity": 0.3858267716535433,
                    "duration": 2.5
                },
                {
                    "name": "G#3",
                    "midi": 56,
                    "time": 220,
                    "velocity": 0.3858267716535433,
                    "duration": 2.5
                },
                {
                    "name": "C#4",
                    "midi": 61,
                    "time": 220,
                    "velocity": 0.3858267716535433,
                    "duration": 2.5
                },
                {
                    "name": "E3",
                    "midi": 52,
                    "time": 222.5,
                    "velocity": 0.3858267716535433,
                    "duration": 1.875
                },
                {
                    "name": "A3",
                    "midi": 57,
                    "time": 222.5,
                    "velocity": 0.3858267716535433,
                    "duration": 1.875
                },
                {
                    "name": "C#4",
                    "midi": 61,
                    "time": 222.5,
                    "velocity": 0.3858267716535433,
                    "duration": 1.875
                },
                {
                    "name": "A4",
                    "midi": 69,
                    "time": 224.6875,
                    "velocity": 0.5905511811023622,
                    "duration": 0.3125
                },
                {
                    "name": "D5",
                    "midi": 74,
                    "time": 225,
                    "velocity": 0.7952755905511811,
                    "duration": 0.3125
                },
                {
                    "name": "F#4",
                    "midi": 66,
                    "time": 225.3125,
                    "velocity": 0.5905511811023622,
                    "duration": 0.3125
                },
                {
                    "name": "A4",
                    "midi": 69,
                    "time": 225.625,
                    "velocity": 0.5905511811023622,
                    "duration": 0.3125
                },
                {
                    "name": "D4",
                    "midi": 62,
                    "time": 225.9375,
                    "velocity": 0.5905511811023622,
                    "duration": 0.3125
                },
                {
                    "name": "F#4",
                    "midi": 66,
                    "time": 226.25,
                    "velocity": 0.5905511811023622,
                    "duration": 0.3125
                },
                {
                    "name": "A3",
                    "midi": 57,
                    "time": 226.5625,
                    "velocity": 0.5905511811023622,
                    "duration": 0.3125
                },
                {
                    "name": "B3",
                    "midi": 59,
                    "time": 226.875,
                    "velocity": 0.5905511811023622,
                    "duration": 0.3125
                },
                {
                    "name": "D4",
                    "midi": 62,
                    "time": 227.1875,
                    "velocity": 0.7952755905511811,
                    "duration": 0.3125
                },
                {
                    "name": "D4",
                    "midi": 62,
                    "time": 227.8125,
                    "velocity": 0.7952755905511811,
                    "duration": 0.3125
                },
                {
                    "name": "D4",
                    "midi": 62,
                    "time": 228.4375,
                    "velocity": 0.7952755905511811,
                    "duration": 1.25
                },
                {
                    "name": "A4",
                    "midi": 69,
                    "time": 229.6875,
                    "velocity": 0.5905511811023622,
                    "duration": 0.3125
                },
                {
                    "name": "D5",
                    "midi": 74,
                    "time": 230,
                    "velocity": 0.5905511811023622,
                    "duration": 0.3125
                },
                {
                    "name": "D5",
                    "midi": 74,
                    "time": 230.3125,
                    "velocity": 0.5905511811023622,
                    "duration": 0.3125
                },
                {
                    "name": "A5",
                    "midi": 81,
                    "time": 230.625,
                    "velocity": 0.7952755905511811,
                    "duration": 0.06119791666665719
                },
                {
                    "name": "A4",
                    "midi": 69,
                    "time": 230.9375,
                    "velocity": 0.5905511811023622,
                    "duration": 0.3125
                },
                {
                    "name": "D5",
                    "midi": 74,
                    "time": 231.25,
                    "velocity": 0.7952755905511811,
                    "duration": 0.06119791666665719
                },
                {
                    "name": "D4",
                    "midi": 62,
                    "time": 231.5625,
                    "velocity": 0.5905511811023622,
                    "duration": 0.3125
                },
                {
                    "name": "F#4",
                    "midi": 66,
                    "time": 231.875,
                    "velocity": 0.5905511811023622,
                    "duration": 0.3125
                },
                {
                    "name": "A4",
                    "midi": 69,
                    "time": 232.1875,
                    "velocity": 0.7952755905511811,
                    "duration": 2.5
                },
                {
                    "name": "B4",
                    "midi": 71,
                    "time": 234.6875,
                    "velocity": 0.5905511811023622,
                    "duration": 0.3125
                },
                {
                    "name": "D5",
                    "midi": 74,
                    "time": 235,
                    "velocity": 0.5905511811023622,
                    "duration": 0.3125
                },
                {
                    "name": "G4",
                    "midi": 67,
                    "time": 235.3125,
                    "velocity": 0.5905511811023622,
                    "duration": 0.3125
                },
                {
                    "name": "B4",
                    "midi": 71,
                    "time": 235.625,
                    "velocity": 0.5905511811023622,
                    "duration": 0.3125
                },
                {
                    "name": "D4",
                    "midi": 62,
                    "time": 235.9375,
                    "velocity": 0.5905511811023622,
                    "duration": 0.3125
                },
                {
                    "name": "G4",
                    "midi": 67,
                    "time": 236.25,
                    "velocity": 0.5905511811023622,
                    "duration": 0.3125
                },
                {
                    "name": "G3",
                    "midi": 55,
                    "time": 236.5625,
                    "velocity": 0.5905511811023622,
                    "duration": 0.3125
                },
                {
                    "name": "B3",
                    "midi": 59,
                    "time": 236.875,
                    "velocity": 0.5905511811023622,
                    "duration": 0.3125
                },
                {
                    "name": "D4",
                    "midi": 62,
                    "time": 237.1875,
                    "velocity": 0.5905511811023622,
                    "duration": 0.3125
                },
                {
                    "name": "E4",
                    "midi": 64,
                    "time": 237.5,
                    "velocity": 0.7952755905511811,
                    "duration": 0.10416666666665719
                },
                {
                    "name": "F4",
                    "midi": 65,
                    "time": 237.60416666666666,
                    "velocity": 0.5905511811023622,
                    "duration": 0.10286458333334281
                },
                {
                    "name": "E4",
                    "midi": 64,
                    "time": 237.70703125,
                    "velocity": 0.5905511811023622,
                    "duration": 0.10546875
                },
                {
                    "name": "F4",
                    "midi": 65,
                    "time": 237.8125,
                    "velocity": 0.5905511811023622,
                    "duration": 0.10416666666665719
                },
                {
                    "name": "E4",
                    "midi": 64,
                    "time": 237.91666666666666,
                    "velocity": 0.5905511811023622,
                    "duration": 0.10286458333334281
                },
                {
                    "name": "F4",
                    "midi": 65,
                    "time": 238.01953125,
                    "velocity": 0.5905511811023622,
                    "duration": 0.10546875
                },
                {
                    "name": "E4",
                    "midi": 64,
                    "time": 238.125,
                    "velocity": 0.5905511811023622,
                    "duration": 0.10416666666665719
                },
                {
                    "name": "F4",
                    "midi": 65,
                    "time": 238.22916666666666,
                    "velocity": 0.5905511811023622,
                    "duration": 0.10286458333334281
                },
                {
                    "name": "E4",
                    "midi": 64,
                    "time": 238.33203125,
                    "velocity": 0.5905511811023622,
                    "duration": 0.10546875
                },
                {
                    "name": "D4",
                    "midi": 62,
                    "time": 238.4375,
                    "velocity": 0.7952755905511811,
                    "duration": 0.3125
                },
                {
                    "name": "E4",
                    "midi": 64,
                    "time": 239.375,
                    "velocity": 0.7952755905511811,
                    "duration": 0.10416666666665719
                },
                {
                    "name": "F4",
                    "midi": 65,
                    "time": 239.47916666666666,
                    "velocity": 0.5905511811023622,
                    "duration": 0.10286458333334281
                },
                {
                    "name": "E4",
                    "midi": 64,
                    "time": 239.58203125,
                    "velocity": 0.5905511811023622,
                    "duration": 0.10546875
                },
                {
                    "name": "F4",
                    "midi": 65,
                    "time": 239.6875,
                    "velocity": 0.5905511811023622,
                    "duration": 0.10416666666665719
                },
                {
                    "name": "E4",
                    "midi": 64,
                    "time": 239.79166666666666,
                    "velocity": 0.5905511811023622,
                    "duration": 0.10286458333334281
                },
                {
                    "name": "F4",
                    "midi": 65,
                    "time": 239.89453125,
                    "velocity": 0.5905511811023622,
                    "duration": 0.10546875
                },
                {
                    "name": "E4",
                    "midi": 64,
                    "time": 240,
                    "velocity": 0.5905511811023622,
                    "duration": 0.10416666666665719
                },
                {
                    "name": "F4",
                    "midi": 65,
                    "time": 240.10416666666666,
                    "velocity": 0.5905511811023622,
                    "duration": 0.10286458333334281
                },
                {
                    "name": "E4",
                    "midi": 64,
                    "time": 240.20703125,
                    "velocity": 0.5905511811023622,
                    "duration": 0.10546875
                },
                {
                    "name": "D4",
                    "midi": 62,
                    "time": 240.3125,
                    "velocity": 0.7952755905511811,
                    "duration": 0.3125
                },
                {
                    "name": "E4",
                    "midi": 64,
                    "time": 241.25,
                    "velocity": 0.7952755905511811,
                    "duration": 0.10416666666665719
                },
                {
                    "name": "F4",
                    "midi": 65,
                    "time": 241.35416666666666,
                    "velocity": 0.5905511811023622,
                    "duration": 0.10286458333334281
                },
                {
                    "name": "E4",
                    "midi": 64,
                    "time": 241.45703125,
                    "velocity": 0.5905511811023622,
                    "duration": 0.10546875
                },
                {
                    "name": "F4",
                    "midi": 65,
                    "time": 241.5625,
                    "velocity": 0.5905511811023622,
                    "duration": 0.10416666666665719
                },
                {
                    "name": "E4",
                    "midi": 64,
                    "time": 241.66666666666666,
                    "velocity": 0.5905511811023622,
                    "duration": 0.10286458333334281
                },
                {
                    "name": "F4",
                    "midi": 65,
                    "time": 241.76953125,
                    "velocity": 0.5905511811023622,
                    "duration": 0.10546875
                },
                {
                    "name": "E4",
                    "midi": 64,
                    "time": 241.875,
                    "velocity": 0.5905511811023622,
                    "duration": 0.10416666666665719
                },
                {
                    "name": "F4",
                    "midi": 65,
                    "time": 241.97916666666666,
                    "velocity": 0.5905511811023622,
                    "duration": 0.10286458333334281
                },
                {
                    "name": "E4",
                    "midi": 64,
                    "time": 242.08203125,
                    "velocity": 0.5905511811023622,
                    "duration": 0.10546875
                },
                {
                    "name": "D4",
                    "midi": 62,
                    "time": 242.1875,
                    "velocity": 0.5905511811023622,
                    "duration": 0.3125
                },
                {
                    "name": "A4",
                    "midi": 69,
                    "time": 242.5,
                    "velocity": 0.5905511811023622,
                    "duration": 2.1875
                },
                {
                    "name": "A4",
                    "midi": 69,
                    "time": 244.6875,
                    "velocity": 0.5905511811023622,
                    "duration": 0.3125
                },
                {
                    "name": "E5",
                    "midi": 76,
                    "time": 245,
                    "velocity": 0.5905511811023622,
                    "duration": 0.3125
                },
                {
                    "name": "E4",
                    "midi": 64,
                    "time": 245.3125,
                    "velocity": 0.5905511811023622,
                    "duration": 0.3125
                },
                {
                    "name": "A4",
                    "midi": 69,
                    "time": 245.625,
                    "velocity": 0.5905511811023622,
                    "duration": 0.3125
                },
                {
                    "name": "A3",
                    "midi": 57,
                    "time": 245.9375,
                    "velocity": 0.5905511811023622,
                    "duration": 0.3125
                },
                {
                    "name": "E4",
                    "midi": 64,
                    "time": 246.25,
                    "velocity": 0.5905511811023622,
                    "duration": 0.3125
                },
                {
                    "name": "E3",
                    "midi": 52,
                    "time": 246.5625,
                    "velocity": 0.5905511811023622,
                    "duration": 0.3125
                },
                {
                    "name": "A3",
                    "midi": 57,
                    "time": 246.875,
                    "velocity": 0.5905511811023622,
                    "duration": 0.3125
                },
                {
                    "name": "E4",
                    "midi": 64,
                    "time": 247.1875,
                    "velocity": 0.7952755905511811,
                    "duration": 0.06119791666665719
                },
                {
                    "name": "E4",
                    "midi": 64,
                    "time": 247.8125,
                    "velocity": 0.7952755905511811,
                    "duration": 0.06119791666665719
                },
                {
                    "name": "E4",
                    "midi": 64,
                    "time": 248.4375,
                    "velocity": 0.7952755905511811,
                    "duration": 0.06119791666665719
                },
                {
                    "name": "D4",
                    "midi": 62,
                    "time": 249.0625,
                    "velocity": 0.7952755905511811,
                    "duration": 0.06119791666665719
                },
                {
                    "name": "F#4",
                    "midi": 66,
                    "time": 249.6875,
                    "velocity": 0.7952755905511811,
                    "duration": 4.6875
                },
                {
                    "name": "A3",
                    "midi": 57,
                    "time": 250,
                    "velocity": 0.5905511811023622,
                    "duration": 4.375
                },
                {
                    "name": "D4",
                    "midi": 62,
                    "time": 250,
                    "velocity": 0.5905511811023622,
                    "duration": 4.375
                },
                {
                    "name": "A4",
                    "midi": 69,
                    "time": 254.6875,
                    "velocity": 0.5905511811023622,
                    "duration": 0.3125
                },
                {
                    "name": "A5",
                    "midi": 81,
                    "time": 254.6875,
                    "velocity": 0.5905511811023622,
                    "duration": 0.3125
                },
                {
                    "name": "D5",
                    "midi": 74,
                    "time": 255,
                    "velocity": 0.7952755905511811,
                    "duration": 0.06119791666665719
                },
                {
                    "name": "D6",
                    "midi": 86,
                    "time": 255,
                    "velocity": 0.7952755905511811,
                    "duration": 0.06119791666665719
                },
                {
                    "name": "F#4",
                    "midi": 66,
                    "time": 255.3125,
                    "velocity": 0.5905511811023622,
                    "duration": 0.3125
                },
                {
                    "name": "F#5",
                    "midi": 78,
                    "time": 255.3125,
                    "velocity": 0.5905511811023622,
                    "duration": 0.3125
                },
                {
                    "name": "A4",
                    "midi": 69,
                    "time": 255.625,
                    "velocity": 0.5905511811023622,
                    "duration": 0.3125
                },
                {
                    "name": "A5",
                    "midi": 81,
                    "time": 255.625,
                    "velocity": 0.5905511811023622,
                    "duration": 0.3125
                },
                {
                    "name": "D4",
                    "midi": 62,
                    "time": 255.9375,
                    "velocity": 0.5905511811023622,
                    "duration": 0.3125
                },
                {
                    "name": "D5",
                    "midi": 74,
                    "time": 255.9375,
                    "velocity": 0.5905511811023622,
                    "duration": 0.3125
                },
                {
                    "name": "F#4",
                    "midi": 66,
                    "time": 256.25,
                    "velocity": 0.5905511811023622,
                    "duration": 0.3125
                },
                {
                    "name": "F#5",
                    "midi": 78,
                    "time": 256.25,
                    "velocity": 0.5905511811023622,
                    "duration": 0.3125
                },
                {
                    "name": "A3",
                    "midi": 57,
                    "time": 256.5625,
                    "velocity": 0.5905511811023622,
                    "duration": 0.3125
                },
                {
                    "name": "A4",
                    "midi": 69,
                    "time": 256.5625,
                    "velocity": 0.5905511811023622,
                    "duration": 0.3125
                },
                {
                    "name": "B3",
                    "midi": 59,
                    "time": 256.875,
                    "velocity": 0.5905511811023622,
                    "duration": 0.3125
                },
                {
                    "name": "B4",
                    "midi": 71,
                    "time": 256.875,
                    "velocity": 0.5905511811023622,
                    "duration": 0.3125
                },
                {
                    "name": "D4",
                    "midi": 62,
                    "time": 257.1875,
                    "velocity": 0.7952755905511811,
                    "duration": 0.061197916666685614
                },
                {
                    "name": "D5",
                    "midi": 74,
                    "time": 257.1875,
                    "velocity": 0.7952755905511811,
                    "duration": 0.061197916666685614
                },
                {
                    "name": "D4",
                    "midi": 62,
                    "time": 257.8125,
                    "velocity": 0.7952755905511811,
                    "duration": 0.061197916666685614
                },
                {
                    "name": "D5",
                    "midi": 74,
                    "time": 257.8125,
                    "velocity": 0.7952755905511811,
                    "duration": 0.061197916666685614
                },
                {
                    "name": "D4",
                    "midi": 62,
                    "time": 258.4375,
                    "velocity": 0.7952755905511811,
                    "duration": 1.25
                },
                {
                    "name": "D5",
                    "midi": 74,
                    "time": 258.4375,
                    "velocity": 0.7952755905511811,
                    "duration": 1.25
                },
                {
                    "name": "A4",
                    "midi": 69,
                    "time": 259.6875,
                    "velocity": 0.5905511811023622,
                    "duration": 0.3125
                },
                {
                    "name": "A5",
                    "midi": 81,
                    "time": 259.6875,
                    "velocity": 0.5905511811023622,
                    "duration": 0.3125
                },
                {
                    "name": "D5",
                    "midi": 74,
                    "time": 260,
                    "velocity": 0.5905511811023622,
                    "duration": 0.3125
                },
                {
                    "name": "D6",
                    "midi": 86,
                    "time": 260,
                    "velocity": 0.5905511811023622,
                    "duration": 0.3125
                },
                {
                    "name": "D5",
                    "midi": 74,
                    "time": 260.3125,
                    "velocity": 0.5905511811023622,
                    "duration": 0.3125
                },
                {
                    "name": "D6",
                    "midi": 86,
                    "time": 260.3125,
                    "velocity": 0.5905511811023622,
                    "duration": 0.3125
                },
                {
                    "name": "A5",
                    "midi": 81,
                    "time": 260.625,
                    "velocity": 0.7952755905511811,
                    "duration": 0.3125
                },
                {
                    "name": "A6",
                    "midi": 93,
                    "time": 260.625,
                    "velocity": 0.7952755905511811,
                    "duration": 0.3125
                },
                {
                    "name": "A4",
                    "midi": 69,
                    "time": 260.9375,
                    "velocity": 0.5905511811023622,
                    "duration": 0.3125
                },
                {
                    "name": "A5",
                    "midi": 81,
                    "time": 260.9375,
                    "velocity": 0.5905511811023622,
                    "duration": 0.3125
                },
                {
                    "name": "D5",
                    "midi": 74,
                    "time": 261.25,
                    "velocity": 0.5905511811023622,
                    "duration": 0.3125
                },
                {
                    "name": "D6",
                    "midi": 86,
                    "time": 261.25,
                    "velocity": 0.5905511811023622,
                    "duration": 0.3125
                },
                {
                    "name": "D4",
                    "midi": 62,
                    "time": 261.5625,
                    "velocity": 0.5905511811023622,
                    "duration": 0.3125
                },
                {
                    "name": "D5",
                    "midi": 74,
                    "time": 261.5625,
                    "velocity": 0.5905511811023622,
                    "duration": 0.3125
                },
                {
                    "name": "F#4",
                    "midi": 66,
                    "time": 261.875,
                    "velocity": 0.5905511811023622,
                    "duration": 0.3125
                },
                {
                    "name": "F#5",
                    "midi": 78,
                    "time": 261.875,
                    "velocity": 0.5905511811023622,
                    "duration": 0.3125
                },
                {
                    "name": "A4",
                    "midi": 69,
                    "time": 262.1875,
                    "velocity": 0.7952755905511811,
                    "duration": 2.5
                },
                {
                    "name": "A5",
                    "midi": 81,
                    "time": 262.1875,
                    "velocity": 0.7952755905511811,
                    "duration": 2.5
                },
                {
                    "name": "B4",
                    "midi": 71,
                    "time": 264.6875,
                    "velocity": 0.5905511811023622,
                    "duration": 0.3125
                },
                {
                    "name": "B5",
                    "midi": 83,
                    "time": 264.6875,
                    "velocity": 0.5905511811023622,
                    "duration": 0.3125
                },
                {
                    "name": "D5",
                    "midi": 74,
                    "time": 265,
                    "velocity": 0.5905511811023622,
                    "duration": 0.3125
                },
                {
                    "name": "D6",
                    "midi": 86,
                    "time": 265,
                    "velocity": 0.5905511811023622,
                    "duration": 0.3125
                },
                {
                    "name": "G4",
                    "midi": 67,
                    "time": 265.3125,
                    "velocity": 0.5905511811023622,
                    "duration": 0.3125
                },
                {
                    "name": "G5",
                    "midi": 79,
                    "time": 265.3125,
                    "velocity": 0.5905511811023622,
                    "duration": 0.3125
                },
                {
                    "name": "B4",
                    "midi": 71,
                    "time": 265.625,
                    "velocity": 0.5905511811023622,
                    "duration": 0.3125
                },
                {
                    "name": "B5",
                    "midi": 83,
                    "time": 265.625,
                    "velocity": 0.5905511811023622,
                    "duration": 0.3125
                },
                {
                    "name": "D4",
                    "midi": 62,
                    "time": 265.9375,
                    "velocity": 0.5905511811023622,
                    "duration": 0.3125
                },
                {
                    "name": "D5",
                    "midi": 74,
                    "time": 265.9375,
                    "velocity": 0.5905511811023622,
                    "duration": 0.3125
                },
                {
                    "name": "G4",
                    "midi": 67,
                    "time": 266.25,
                    "velocity": 0.5905511811023622,
                    "duration": 0.3125
                },
                {
                    "name": "G5",
                    "midi": 79,
                    "time": 266.25,
                    "velocity": 0.5905511811023622,
                    "duration": 0.3125
                },
                {
                    "name": "G3",
                    "midi": 55,
                    "time": 266.5625,
                    "velocity": 0.5905511811023622,
                    "duration": 0.3125
                },
                {
                    "name": "G4",
                    "midi": 67,
                    "time": 266.5625,
                    "velocity": 0.5905511811023622,
                    "duration": 0.3125
                },
                {
                    "name": "B3",
                    "midi": 59,
                    "time": 266.875,
                    "velocity": 0.5905511811023622,
                    "duration": 0.3125
                },
                {
                    "name": "B4",
                    "midi": 71,
                    "time": 266.875,
                    "velocity": 0.5905511811023622,
                    "duration": 0.3125
                },
                {
                    "name": "D4",
                    "midi": 62,
                    "time": 267.1875,
                    "velocity": 0.5905511811023622,
                    "duration": 0.3125
                },
                {
                    "name": "D5",
                    "midi": 74,
                    "time": 267.1875,
                    "velocity": 0.5905511811023622,
                    "duration": 0.3125
                },
                {
                    "name": "E4",
                    "midi": 64,
                    "time": 267.5,
                    "velocity": 0.7952755905511811,
                    "duration": 0.10416666666668561
                },
                {
                    "name": "E5",
                    "midi": 76,
                    "time": 267.5,
                    "velocity": 0.7952755905511811,
                    "duration": 0.10416666666668561
                },
                {
                    "name": "F4",
                    "midi": 65,
                    "time": 267.6041666666667,
                    "velocity": 0.5905511811023622,
                    "duration": 0.10286458333331439
                },
                {
                    "name": "F5",
                    "midi": 77,
                    "time": 267.6041666666667,
                    "velocity": 0.5905511811023622,
                    "duration": 0.10286458333331439
                },
                {
                    "name": "E4",
                    "midi": 64,
                    "time": 267.70703125,
                    "velocity": 0.5905511811023622,
                    "duration": 0.10546875
                },
                {
                    "name": "E5",
                    "midi": 76,
                    "time": 267.70703125,
                    "velocity": 0.5905511811023622,
                    "duration": 0.10546875
                },
                {
                    "name": "F4",
                    "midi": 65,
                    "time": 267.8125,
                    "velocity": 0.5905511811023622,
                    "duration": 0.10416666666668561
                },
                {
                    "name": "F5",
                    "midi": 77,
                    "time": 267.8125,
                    "velocity": 0.5905511811023622,
                    "duration": 0.10416666666668561
                },
                {
                    "name": "E4",
                    "midi": 64,
                    "time": 267.9166666666667,
                    "velocity": 0.5905511811023622,
                    "duration": 0.10286458333331439
                },
                {
                    "name": "E5",
                    "midi": 76,
                    "time": 267.9166666666667,
                    "velocity": 0.5905511811023622,
                    "duration": 0.10286458333331439
                },
                {
                    "name": "F4",
                    "midi": 65,
                    "time": 268.01953125,
                    "velocity": 0.5905511811023622,
                    "duration": 0.10546875
                },
                {
                    "name": "F5",
                    "midi": 77,
                    "time": 268.01953125,
                    "velocity": 0.5905511811023622,
                    "duration": 0.10546875
                },
                {
                    "name": "E4",
                    "midi": 64,
                    "time": 268.125,
                    "velocity": 0.5905511811023622,
                    "duration": 0.10416666666668561
                },
                {
                    "name": "E5",
                    "midi": 76,
                    "time": 268.125,
                    "velocity": 0.5905511811023622,
                    "duration": 0.10416666666668561
                },
                {
                    "name": "F4",
                    "midi": 65,
                    "time": 268.2291666666667,
                    "velocity": 0.5905511811023622,
                    "duration": 0.10286458333331439
                },
                {
                    "name": "F5",
                    "midi": 77,
                    "time": 268.2291666666667,
                    "velocity": 0.5905511811023622,
                    "duration": 0.10286458333331439
                },
                {
                    "name": "E4",
                    "midi": 64,
                    "time": 268.33203125,
                    "velocity": 0.5905511811023622,
                    "duration": 0.10546875
                },
                {
                    "name": "E5",
                    "midi": 76,
                    "time": 268.33203125,
                    "velocity": 0.5905511811023622,
                    "duration": 0.10546875
                },
                {
                    "name": "D4",
                    "midi": 62,
                    "time": 268.4375,
                    "velocity": 0.7952755905511811,
                    "duration": 0.3125
                },
                {
                    "name": "D5",
                    "midi": 74,
                    "time": 268.4375,
                    "velocity": 0.7952755905511811,
                    "duration": 0.3125
                },
                {
                    "name": "E4",
                    "midi": 64,
                    "time": 269.375,
                    "velocity": 0.7952755905511811,
                    "duration": 0.10416666666668561
                },
                {
                    "name": "E5",
                    "midi": 76,
                    "time": 269.375,
                    "velocity": 0.7952755905511811,
                    "duration": 0.10416666666668561
                },
                {
                    "name": "F4",
                    "midi": 65,
                    "time": 269.4791666666667,
                    "velocity": 0.5905511811023622,
                    "duration": 0.10286458333331439
                },
                {
                    "name": "F5",
                    "midi": 77,
                    "time": 269.4791666666667,
                    "velocity": 0.5905511811023622,
                    "duration": 0.10286458333331439
                },
                {
                    "name": "E4",
                    "midi": 64,
                    "time": 269.58203125,
                    "velocity": 0.5905511811023622,
                    "duration": 0.10546875
                },
                {
                    "name": "E5",
                    "midi": 76,
                    "time": 269.58203125,
                    "velocity": 0.5905511811023622,
                    "duration": 0.10546875
                },
                {
                    "name": "F4",
                    "midi": 65,
                    "time": 269.6875,
                    "velocity": 0.5905511811023622,
                    "duration": 0.10416666666668561
                },
                {
                    "name": "F5",
                    "midi": 77,
                    "time": 269.6875,
                    "velocity": 0.5905511811023622,
                    "duration": 0.10416666666668561
                },
                {
                    "name": "E4",
                    "midi": 64,
                    "time": 269.7916666666667,
                    "velocity": 0.5905511811023622,
                    "duration": 0.10286458333331439
                },
                {
                    "name": "E5",
                    "midi": 76,
                    "time": 269.7916666666667,
                    "velocity": 0.5905511811023622,
                    "duration": 0.10286458333331439
                },
                {
                    "name": "F4",
                    "midi": 65,
                    "time": 269.89453125,
                    "velocity": 0.5905511811023622,
                    "duration": 0.10546875
                },
                {
                    "name": "F5",
                    "midi": 77,
                    "time": 269.89453125,
                    "velocity": 0.5905511811023622,
                    "duration": 0.10546875
                },
                {
                    "name": "E4",
                    "midi": 64,
                    "time": 270,
                    "velocity": 0.5905511811023622,
                    "duration": 0.10416666666668561
                },
                {
                    "name": "E5",
                    "midi": 76,
                    "time": 270,
                    "velocity": 0.5905511811023622,
                    "duration": 0.10416666666668561
                },
                {
                    "name": "F4",
                    "midi": 65,
                    "time": 270.1041666666667,
                    "velocity": 0.5905511811023622,
                    "duration": 0.10286458333331439
                },
                {
                    "name": "F5",
                    "midi": 77,
                    "time": 270.1041666666667,
                    "velocity": 0.5905511811023622,
                    "duration": 0.10286458333331439
                },
                {
                    "name": "E4",
                    "midi": 64,
                    "time": 270.20703125,
                    "velocity": 0.5905511811023622,
                    "duration": 0.10546875
                },
                {
                    "name": "E5",
                    "midi": 76,
                    "time": 270.20703125,
                    "velocity": 0.5905511811023622,
                    "duration": 0.10546875
                },
                {
                    "name": "D4",
                    "midi": 62,
                    "time": 270.3125,
                    "velocity": 0.7952755905511811,
                    "duration": 0.3125
                },
                {
                    "name": "D5",
                    "midi": 74,
                    "time": 270.3125,
                    "velocity": 0.7952755905511811,
                    "duration": 0.3125
                },
                {
                    "name": "E4",
                    "midi": 64,
                    "time": 271.25,
                    "velocity": 0.7952755905511811,
                    "duration": 0.10416666666668561
                },
                {
                    "name": "E5",
                    "midi": 76,
                    "time": 271.25,
                    "velocity": 0.7952755905511811,
                    "duration": 0.10416666666668561
                },
                {
                    "name": "F4",
                    "midi": 65,
                    "time": 271.3541666666667,
                    "velocity": 0.5905511811023622,
                    "duration": 0.10286458333331439
                },
                {
                    "name": "F5",
                    "midi": 77,
                    "time": 271.3541666666667,
                    "velocity": 0.5905511811023622,
                    "duration": 0.10286458333331439
                },
                {
                    "name": "E4",
                    "midi": 64,
                    "time": 271.45703125,
                    "velocity": 0.5905511811023622,
                    "duration": 0.10546875
                },
                {
                    "name": "E5",
                    "midi": 76,
                    "time": 271.45703125,
                    "velocity": 0.5905511811023622,
                    "duration": 0.10546875
                },
                {
                    "name": "F4",
                    "midi": 65,
                    "time": 271.5625,
                    "velocity": 0.5905511811023622,
                    "duration": 0.10416666666668561
                },
                {
                    "name": "F5",
                    "midi": 77,
                    "time": 271.5625,
                    "velocity": 0.5905511811023622,
                    "duration": 0.10416666666668561
                },
                {
                    "name": "E4",
                    "midi": 64,
                    "time": 271.6666666666667,
                    "velocity": 0.5905511811023622,
                    "duration": 0.10286458333331439
                },
                {
                    "name": "E5",
                    "midi": 76,
                    "time": 271.6666666666667,
                    "velocity": 0.5905511811023622,
                    "duration": 0.10286458333331439
                },
                {
                    "name": "F4",
                    "midi": 65,
                    "time": 271.76953125,
                    "velocity": 0.5905511811023622,
                    "duration": 0.10546875
                },
                {
                    "name": "F5",
                    "midi": 77,
                    "time": 271.76953125,
                    "velocity": 0.5905511811023622,
                    "duration": 0.10546875
                },
                {
                    "name": "E4",
                    "midi": 64,
                    "time": 271.875,
                    "velocity": 0.5905511811023622,
                    "duration": 0.10416666666668561
                },
                {
                    "name": "E5",
                    "midi": 76,
                    "time": 271.875,
                    "velocity": 0.5905511811023622,
                    "duration": 0.10416666666668561
                },
                {
                    "name": "F4",
                    "midi": 65,
                    "time": 271.9791666666667,
                    "velocity": 0.5905511811023622,
                    "duration": 0.10286458333331439
                },
                {
                    "name": "F5",
                    "midi": 77,
                    "time": 271.9791666666667,
                    "velocity": 0.5905511811023622,
                    "duration": 0.10286458333331439
                },
                {
                    "name": "E4",
                    "midi": 64,
                    "time": 272.08203125,
                    "velocity": 0.5905511811023622,
                    "duration": 0.10546875
                },
                {
                    "name": "E5",
                    "midi": 76,
                    "time": 272.08203125,
                    "velocity": 0.5905511811023622,
                    "duration": 0.10546875
                },
                {
                    "name": "D4",
                    "midi": 62,
                    "time": 272.1875,
                    "velocity": 0.7952755905511811,
                    "duration": 0.3125
                },
                {
                    "name": "D5",
                    "midi": 74,
                    "time": 272.1875,
                    "velocity": 0.7952755905511811,
                    "duration": 0.3125
                },
                {
                    "name": "A4",
                    "midi": 69,
                    "time": 272.5,
                    "velocity": 0.5905511811023622,
                    "duration": 2.1875
                },
                {
                    "name": "A5",
                    "midi": 81,
                    "time": 272.5,
                    "velocity": 0.5905511811023622,
                    "duration": 2.1875
                },
                {
                    "name": "A4",
                    "midi": 69,
                    "time": 274.6875,
                    "velocity": 0.5905511811023622,
                    "duration": 0.3125
                },
                {
                    "name": "A5",
                    "midi": 81,
                    "time": 274.6875,
                    "velocity": 0.5905511811023622,
                    "duration": 0.3125
                },
                {
                    "name": "E5",
                    "midi": 76,
                    "time": 275,
                    "velocity": 0.5905511811023622,
                    "duration": 0.3125
                },
                {
                    "name": "E6",
                    "midi": 88,
                    "time": 275,
                    "velocity": 0.5905511811023622,
                    "duration": 0.3125
                },
                {
                    "name": "E4",
                    "midi": 64,
                    "time": 275.3125,
                    "velocity": 0.5905511811023622,
                    "duration": 0.3125
                },
                {
                    "name": "E5",
                    "midi": 76,
                    "time": 275.3125,
                    "velocity": 0.5905511811023622,
                    "duration": 0.3125
                },
                {
                    "name": "A4",
                    "midi": 69,
                    "time": 275.625,
                    "velocity": 0.5905511811023622,
                    "duration": 0.3125
                },
                {
                    "name": "A5",
                    "midi": 81,
                    "time": 275.625,
                    "velocity": 0.5905511811023622,
                    "duration": 0.3125
                },
                {
                    "name": "A3",
                    "midi": 57,
                    "time": 275.9375,
                    "velocity": 0.5905511811023622,
                    "duration": 0.3125
                },
                {
                    "name": "A4",
                    "midi": 69,
                    "time": 275.9375,
                    "velocity": 0.5905511811023622,
                    "duration": 0.3125
                },
                {
                    "name": "E4",
                    "midi": 64,
                    "time": 276.25,
                    "velocity": 0.5905511811023622,
                    "duration": 0.3125
                },
                {
                    "name": "E5",
                    "midi": 76,
                    "time": 276.25,
                    "velocity": 0.5905511811023622,
                    "duration": 0.3125
                },
                {
                    "name": "E3",
                    "midi": 52,
                    "time": 276.5625,
                    "velocity": 0.5905511811023622,
                    "duration": 0.3125
                },
                {
                    "name": "E4",
                    "midi": 64,
                    "time": 276.5625,
                    "velocity": 0.5905511811023622,
                    "duration": 0.3125
                },
                {
                    "name": "A3",
                    "midi": 57,
                    "time": 276.875,
                    "velocity": 0.5905511811023622,
                    "duration": 0.3125
                },
                {
                    "name": "A4",
                    "midi": 69,
                    "time": 276.875,
                    "velocity": 0.5905511811023622,
                    "duration": 0.3125
                },
                {
                    "name": "E4",
                    "midi": 64,
                    "time": 277.1875,
                    "velocity": 0.5905511811023622,
                    "duration": 0.3125
                },
                {
                    "name": "E5",
                    "midi": 76,
                    "time": 277.1875,
                    "velocity": 0.5905511811023622,
                    "duration": 0.3125
                },
                {
                    "name": "E4",
                    "midi": 64,
                    "time": 277.8125,
                    "velocity": 0.7952755905511811,
                    "duration": 0.625
                },
                {
                    "name": "E5",
                    "midi": 76,
                    "time": 277.8125,
                    "velocity": 0.7952755905511811,
                    "duration": 0.625
                },
                {
                    "name": "E4",
                    "midi": 64,
                    "time": 278.4375,
                    "velocity": 0.7952755905511811,
                    "duration": 0.625
                },
                {
                    "name": "E5",
                    "midi": 76,
                    "time": 278.4375,
                    "velocity": 0.7952755905511811,
                    "duration": 0.625
                },
                {
                    "name": "D4",
                    "midi": 62,
                    "time": 279.0625,
                    "velocity": 0.7952755905511811,
                    "duration": 0.625
                },
                {
                    "name": "D5",
                    "midi": 74,
                    "time": 279.0625,
                    "velocity": 0.7952755905511811,
                    "duration": 0.625
                },
                {
                    "name": "F#4",
                    "midi": 66,
                    "time": 279.6875,
                    "velocity": 0.7952755905511811,
                    "duration": 0.3125
                },
                {
                    "name": "F#5",
                    "midi": 78,
                    "time": 279.6875,
                    "velocity": 0.7952755905511811,
                    "duration": 0.3125
                },
                {
                    "name": "G#5",
                    "midi": 80,
                    "time": 280.234375,
                    "velocity": 0.5905511811023622,
                    "duration": 0.078125
                },
                {
                    "name": "A5",
                    "midi": 81,
                    "time": 280.3125,
                    "velocity": 0.5905511811023622,
                    "duration": 0.061197916666685614
                },
                {
                    "name": "A5",
                    "midi": 81,
                    "time": 280.625,
                    "velocity": 0.5905511811023622,
                    "duration": 0.061197916666685614
                },
                {
                    "name": "A5",
                    "midi": 81,
                    "time": 280.9375,
                    "velocity": 0.5905511811023622,
                    "duration": 0.061197916666685614
                },
                {
                    "name": "A5",
                    "midi": 81,
                    "time": 281.25,
                    "velocity": 0.5905511811023622,
                    "duration": 0.15625
                },
                {
                    "name": "G5",
                    "midi": 79,
                    "time": 281.40625,
                    "velocity": 0.5905511811023622,
                    "duration": 0.15625
                },
                {
                    "name": "F#5",
                    "midi": 78,
                    "time": 281.5625,
                    "velocity": 0.5905511811023622,
                    "duration": 0.15625
                },
                {
                    "name": "E5",
                    "midi": 76,
                    "time": 281.71875,
                    "velocity": 0.5905511811023622,
                    "duration": 0.15625
                },
                {
                    "name": "D5",
                    "midi": 74,
                    "time": 281.875,
                    "velocity": 0.5905511811023622,
                    "duration": 0.061197916666685614
                },
                {
                    "name": "D5",
                    "midi": 74,
                    "time": 282.1875,
                    "velocity": 0.5905511811023622,
                    "duration": 0.061197916666685614
                },
                {
                    "name": "D5",
                    "midi": 74,
                    "time": 282.5,
                    "velocity": 0.5905511811023622,
                    "duration": 0.15625
                },
                {
                    "name": "C#5",
                    "midi": 73,
                    "time": 282.65625,
                    "velocity": 0.5905511811023622,
                    "duration": 0.15625
                },
                {
                    "name": "C5",
                    "midi": 72,
                    "time": 282.8125,
                    "velocity": 0.5905511811023622,
                    "duration": 0.15625
                },
                {
                    "name": "B4",
                    "midi": 71,
                    "time": 282.96875,
                    "velocity": 0.5905511811023622,
                    "duration": 0.15625
                },
                {
                    "name": "A#4",
                    "midi": 70,
                    "time": 283.125,
                    "velocity": 0.5905511811023622,
                    "duration": 0.061197916666685614
                },
                {
                    "name": "A#4",
                    "midi": 70,
                    "time": 283.4375,
                    "velocity": 0.5905511811023622,
                    "duration": 0.46875
                },
                {
                    "name": "B4",
                    "midi": 71,
                    "time": 283.90625,
                    "velocity": 0.5905511811023622,
                    "duration": 0.15625
                },
                {
                    "name": "D5",
                    "midi": 74,
                    "time": 284.0625,
                    "velocity": 0.5905511811023622,
                    "duration": 0.15625
                },
                {
                    "name": "F#5",
                    "midi": 78,
                    "time": 284.21875,
                    "velocity": 0.5905511811023622,
                    "duration": 0.15625
                },
                {
                    "name": "A#5",
                    "midi": 82,
                    "time": 284.375,
                    "velocity": 0.5905511811023622,
                    "duration": 0.061197916666685614
                },
                {
                    "name": "B5",
                    "midi": 83,
                    "time": 284.6875,
                    "velocity": 0.5905511811023622,
                    "duration": 0.061197916666685614
                },
                {
                    "name": "F#5",
                    "midi": 78,
                    "time": 285.234375,
                    "velocity": 0.5905511811023622,
                    "duration": 0.078125
                },
                {
                    "name": "G5",
                    "midi": 79,
                    "time": 285.3125,
                    "velocity": 0.5905511811023622,
                    "duration": 0.061197916666685614
                },
                {
                    "name": "G5",
                    "midi": 79,
                    "time": 285.625,
                    "velocity": 0.5905511811023622,
                    "duration": 0.061197916666685614
                },
                {
                    "name": "G5",
                    "midi": 79,
                    "time": 285.9375,
                    "velocity": 0.5905511811023622,
                    "duration": 0.061197916666685614
                },
                {
                    "name": "G5",
                    "midi": 79,
                    "time": 286.25,
                    "velocity": 0.5905511811023622,
                    "duration": 0.15625
                },
                {
                    "name": "F5",
                    "midi": 77,
                    "time": 286.40625,
                    "velocity": 0.5905511811023622,
                    "duration": 0.15625
                },
                {
                    "name": "E5",
                    "midi": 76,
                    "time": 286.5625,
                    "velocity": 0.5905511811023622,
                    "duration": 0.15625
                },
                {
                    "name": "D5",
                    "midi": 74,
                    "time": 286.71875,
                    "velocity": 0.5905511811023622,
                    "duration": 0.15625
                },
                {
                    "name": "C5",
                    "midi": 72,
                    "time": 286.875,
                    "velocity": 0.5905511811023622,
                    "duration": 0.061197916666685614
                },
                {
                    "name": "C5",
                    "midi": 72,
                    "time": 287.1875,
                    "velocity": 0.5905511811023622,
                    "duration": 0.061197916666685614
                },
                {
                    "name": "C5",
                    "midi": 72,
                    "time": 287.5,
                    "velocity": 0.5905511811023622,
                    "duration": 0.15625
                },
                {
                    "name": "B4",
                    "midi": 71,
                    "time": 287.65625,
                    "velocity": 0.5905511811023622,
                    "duration": 0.15625
                },
                {
                    "name": "A#4",
                    "midi": 70,
                    "time": 287.8125,
                    "velocity": 0.5905511811023622,
                    "duration": 0.15625
                },
                {
                    "name": "A4",
                    "midi": 69,
                    "time": 287.96875,
                    "velocity": 0.5905511811023622,
                    "duration": 0.15625
                },
                {
                    "name": "G#4",
                    "midi": 68,
                    "time": 288.125,
                    "velocity": 0.5905511811023622,
                    "duration": 0.061197916666685614
                },
                {
                    "name": "G#4",
                    "midi": 68,
                    "time": 288.4375,
                    "velocity": 0.5905511811023622,
                    "duration": 0.46875
                },
                {
                    "name": "A4",
                    "midi": 69,
                    "time": 288.90625,
                    "velocity": 0.5905511811023622,
                    "duration": 0.15625
                },
                {
                    "name": "C5",
                    "midi": 72,
                    "time": 289.0625,
                    "velocity": 0.6929133858267716,
                    "duration": 0.15625
                },
                {
                    "name": "E5",
                    "midi": 76,
                    "time": 289.21875,
                    "velocity": 0.6929133858267716,
                    "duration": 0.15625
                },
                {
                    "name": "G#5",
                    "midi": 80,
                    "time": 289.375,
                    "velocity": 0.6929133858267716,
                    "duration": 0.061197916666685614
                },
                {
                    "name": "D6",
                    "midi": 86,
                    "time": 289.6875,
                    "velocity": 0.6929133858267716,
                    "duration": 0.061197916666685614
                },
                {
                    "name": "G5",
                    "midi": 79,
                    "time": 290,
                    "velocity": 0.6929133858267716,
                    "duration": 0.3125
                },
                {
                    "name": "G6",
                    "midi": 91,
                    "time": 290,
                    "velocity": 0.6929133858267716,
                    "duration": 0.3125
                },
                {
                    "name": "B4",
                    "midi": 71,
                    "time": 290.3125,
                    "velocity": 0.6929133858267716,
                    "duration": 0.3125
                },
                {
                    "name": "B5",
                    "midi": 83,
                    "time": 290.3125,
                    "velocity": 0.6929133858267716,
                    "duration": 0.3125
                },
                {
                    "name": "D5",
                    "midi": 74,
                    "time": 290.625,
                    "velocity": 0.6929133858267716,
                    "duration": 1.5625
                },
                {
                    "name": "D6",
                    "midi": 86,
                    "time": 290.625,
                    "velocity": 0.6929133858267716,
                    "duration": 1.5625
                },
                {
                    "name": "D5",
                    "midi": 74,
                    "time": 292.1875,
                    "velocity": 0.6929133858267716,
                    "duration": 0.3125
                },
                {
                    "name": "D6",
                    "midi": 86,
                    "time": 292.1875,
                    "velocity": 0.6929133858267716,
                    "duration": 0.3125
                },
                {
                    "name": "G5",
                    "midi": 79,
                    "time": 292.5,
                    "velocity": 0.6929133858267716,
                    "duration": 0.3125
                },
                {
                    "name": "G6",
                    "midi": 91,
                    "time": 292.5,
                    "velocity": 0.6929133858267716,
                    "duration": 0.3125
                },
                {
                    "name": "B4",
                    "midi": 71,
                    "time": 292.8125,
                    "velocity": 0.6929133858267716,
                    "duration": 0.3125
                },
                {
                    "name": "B5",
                    "midi": 83,
                    "time": 292.8125,
                    "velocity": 0.6929133858267716,
                    "duration": 0.3125
                },
                {
                    "name": "D5",
                    "midi": 74,
                    "time": 293.125,
                    "velocity": 0.6929133858267716,
                    "duration": 1.5625
                },
                {
                    "name": "D6",
                    "midi": 86,
                    "time": 293.125,
                    "velocity": 0.6929133858267716,
                    "duration": 1.5625
                },
                {
                    "name": "D5",
                    "midi": 74,
                    "time": 294.6875,
                    "velocity": 0.6929133858267716,
                    "duration": 0.3125
                },
                {
                    "name": "D6",
                    "midi": 86,
                    "time": 294.6875,
                    "velocity": 0.6929133858267716,
                    "duration": 0.3125
                },
                {
                    "name": "G5",
                    "midi": 79,
                    "time": 295,
                    "velocity": 0.8976377952755905,
                    "duration": 0.3125
                },
                {
                    "name": "G6",
                    "midi": 91,
                    "time": 295,
                    "velocity": 0.8976377952755905,
                    "duration": 0.3125
                },
                {
                    "name": "B4",
                    "midi": 71,
                    "time": 295.3125,
                    "velocity": 0.6929133858267716,
                    "duration": 0.3125
                },
                {
                    "name": "B5",
                    "midi": 83,
                    "time": 295.3125,
                    "velocity": 0.6929133858267716,
                    "duration": 0.3125
                },
                {
                    "name": "D5",
                    "midi": 74,
                    "time": 295.625,
                    "velocity": 0.6929133858267716,
                    "duration": 0.3125
                },
                {
                    "name": "D6",
                    "midi": 86,
                    "time": 295.625,
                    "velocity": 0.6929133858267716,
                    "duration": 0.3125
                },
                {
                    "name": "G5",
                    "midi": 79,
                    "time": 295.9375,
                    "velocity": 0.8976377952755905,
                    "duration": 0.625
                },
                {
                    "name": "G6",
                    "midi": 91,
                    "time": 295.9375,
                    "velocity": 0.8976377952755905,
                    "duration": 0.625
                },
                {
                    "name": "G5",
                    "midi": 79,
                    "time": 296.875,
                    "velocity": 0.8976377952755905,
                    "duration": 0.3125
                },
                {
                    "name": "G6",
                    "midi": 91,
                    "time": 296.875,
                    "velocity": 0.8976377952755905,
                    "duration": 0.3125
                },
                {
                    "name": "B4",
                    "midi": 71,
                    "time": 297.1875,
                    "velocity": 0.6929133858267716,
                    "duration": 0.3125
                },
                {
                    "name": "B5",
                    "midi": 83,
                    "time": 297.1875,
                    "velocity": 0.6929133858267716,
                    "duration": 0.3125
                },
                {
                    "name": "D5",
                    "midi": 74,
                    "time": 297.5,
                    "velocity": 0.6929133858267716,
                    "duration": 0.3125
                },
                {
                    "name": "D6",
                    "midi": 86,
                    "time": 297.5,
                    "velocity": 0.6929133858267716,
                    "duration": 0.3125
                },
                {
                    "name": "G5",
                    "midi": 79,
                    "time": 297.8125,
                    "velocity": 0.8976377952755905,
                    "duration": 0.625
                },
                {
                    "name": "G6",
                    "midi": 91,
                    "time": 297.8125,
                    "velocity": 0.8976377952755905,
                    "duration": 0.625
                },
                {
                    "name": "G5",
                    "midi": 79,
                    "time": 298.75,
                    "velocity": 0.8976377952755905,
                    "duration": 0.3125
                },
                {
                    "name": "G6",
                    "midi": 91,
                    "time": 298.75,
                    "velocity": 0.8976377952755905,
                    "duration": 0.3125
                },
                {
                    "name": "B4",
                    "midi": 71,
                    "time": 299.0625,
                    "velocity": 0.6929133858267716,
                    "duration": 0.3125
                },
                {
                    "name": "B5",
                    "midi": 83,
                    "time": 299.0625,
                    "velocity": 0.6929133858267716,
                    "duration": 0.3125
                },
                {
                    "name": "D5",
                    "midi": 74,
                    "time": 299.375,
                    "velocity": 0.6929133858267716,
                    "duration": 0.3125
                },
                {
                    "name": "D6",
                    "midi": 86,
                    "time": 299.375,
                    "velocity": 0.6929133858267716,
                    "duration": 0.3125
                },
                {
                    "name": "G5",
                    "midi": 79,
                    "time": 299.6875,
                    "velocity": 0.6929133858267716,
                    "duration": 0.3125
                },
                {
                    "name": "G6",
                    "midi": 91,
                    "time": 299.6875,
                    "velocity": 0.6929133858267716,
                    "duration": 0.3125
                },
                {
                    "name": "B4",
                    "midi": 71,
                    "time": 300,
                    "velocity": 0.6929133858267716,
                    "duration": 2.1875
                },
                {
                    "name": "F5",
                    "midi": 77,
                    "time": 300,
                    "velocity": 0.6929133858267716,
                    "duration": 2.1875
                },
                {
                    "name": "B4",
                    "midi": 71,
                    "time": 302.1875,
                    "velocity": 0.6929133858267716,
                    "duration": 0.10416666666668561
                },
                {
                    "name": "F5",
                    "midi": 77,
                    "time": 302.1875,
                    "velocity": 0.6929133858267716,
                    "duration": 0.10416666666668561
                },
                {
                    "name": "A5",
                    "midi": 81,
                    "time": 302.1875,
                    "velocity": 0.6929133858267716,
                    "duration": 0.3125
                },
                {
                    "name": "A#4",
                    "midi": 70,
                    "time": 302.2916666666667,
                    "velocity": 0.6929133858267716,
                    "duration": 0.10286458333331439
                },
                {
                    "name": "D5",
                    "midi": 74,
                    "time": 302.2916666666667,
                    "velocity": 0.6929133858267716,
                    "duration": 0.10286458333331439
                },
                {
                    "name": "A4",
                    "midi": 69,
                    "time": 302.39453125,
                    "velocity": 0.6929133858267716,
                    "duration": 0.10546875
                },
                {
                    "name": "D#5",
                    "midi": 75,
                    "time": 302.39453125,
                    "velocity": 0.6929133858267716,
                    "duration": 0.10546875
                },
                {
                    "name": "G#4",
                    "midi": 68,
                    "time": 302.5,
                    "velocity": 0.6929133858267716,
                    "duration": 2.1875
                },
                {
                    "name": "D5",
                    "midi": 74,
                    "time": 302.5,
                    "velocity": 0.6929133858267716,
                    "duration": 2.1875
                },
                {
                    "name": "G#4",
                    "midi": 68,
                    "time": 304.6875,
                    "velocity": 0.6929133858267716,
                    "duration": 0.10416666666668561
                },
                {
                    "name": "D5",
                    "midi": 74,
                    "time": 304.6875,
                    "velocity": 0.6929133858267716,
                    "duration": 0.10416666666668561
                },
                {
                    "name": "F#5",
                    "midi": 78,
                    "time": 304.6875,
                    "velocity": 0.6929133858267716,
                    "duration": 0.3125
                },
                {
                    "name": "G4",
                    "midi": 67,
                    "time": 304.7916666666667,
                    "velocity": 0.6929133858267716,
                    "duration": 0.10286458333331439
                },
                {
                    "name": "C#5",
                    "midi": 73,
                    "time": 304.7916666666667,
                    "velocity": 0.6929133858267716,
                    "duration": 0.10286458333331439
                },
                {
                    "name": "F#4",
                    "midi": 66,
                    "time": 304.89453125,
                    "velocity": 0.6929133858267716,
                    "duration": 0.10546875
                },
                {
                    "name": "C5",
                    "midi": 72,
                    "time": 304.89453125,
                    "velocity": 0.6929133858267716,
                    "duration": 0.10546875
                },
                {
                    "name": "F4",
                    "midi": 65,
                    "time": 305,
                    "velocity": 0.6929133858267716,
                    "duration": 5
                },
                {
                    "name": "B4",
                    "midi": 71,
                    "time": 305,
                    "velocity": 0.6929133858267716,
                    "duration": 5
                },
                {
                    "name": "D5",
                    "midi": 74,
                    "time": 310,
                    "velocity": 0.6929133858267716,
                    "duration": 4.375
                },
                {
                    "name": "F#5",
                    "midi": 78,
                    "time": 310,
                    "velocity": 0.6929133858267716,
                    "duration": 4.375
                },
                {
                    "name": "A5",
                    "midi": 81,
                    "time": 310,
                    "velocity": 0.6929133858267716,
                    "duration": 4.375
                },
                {
                    "name": "D6",
                    "midi": 86,
                    "time": 310,
                    "velocity": 0.6929133858267716,
                    "duration": 4.375
                },
                {
                    "name": "F5",
                    "midi": 77,
                    "time": 314.375,
                    "velocity": 0.6929133858267716,
                    "duration": 0.625
                },
                {
                    "name": "A5",
                    "midi": 81,
                    "time": 314.375,
                    "velocity": 0.6929133858267716,
                    "duration": 0.625
                },
                {
                    "name": "C6",
                    "midi": 84,
                    "time": 314.375,
                    "velocity": 0.6929133858267716,
                    "duration": 0.625
                },
                {
                    "name": "F6",
                    "midi": 89,
                    "time": 314.375,
                    "velocity": 0.6929133858267716,
                    "duration": 0.625
                },
                {
                    "name": "D5",
                    "midi": 74,
                    "time": 315,
                    "velocity": 0.6929133858267716,
                    "duration": 4.166666666666686
                },
                {
                    "name": "F#5",
                    "midi": 78,
                    "time": 315,
                    "velocity": 0.6929133858267716,
                    "duration": 4.166666666666686
                },
                {
                    "name": "A5",
                    "midi": 81,
                    "time": 315,
                    "velocity": 0.6929133858267716,
                    "duration": 4.166666666666686
                },
                {
                    "name": "D6",
                    "midi": 86,
                    "time": 315,
                    "velocity": 0.6929133858267716,
                    "duration": 4.166666666666686
                },
                {
                    "name": "A3",
                    "midi": 57,
                    "time": 319.1666666666667,
                    "velocity": 0.6929133858267716,
                    "duration": 0.4153645833333144
                },
                {
                    "name": "F5",
                    "midi": 77,
                    "time": 319.1666666666667,
                    "velocity": 0.6929133858267716,
                    "duration": 0.4153645833333144
                },
                {
                    "name": "A5",
                    "midi": 81,
                    "time": 319.1666666666667,
                    "velocity": 0.6929133858267716,
                    "duration": 0.4153645833333144
                },
                {
                    "name": "C6",
                    "midi": 84,
                    "time": 319.1666666666667,
                    "velocity": 0.6929133858267716,
                    "duration": 0.4153645833333144
                },
                {
                    "name": "F6",
                    "midi": 89,
                    "time": 319.1666666666667,
                    "velocity": 0.6929133858267716,
                    "duration": 0.4153645833333144
                },
                {
                    "name": "C4",
                    "midi": 60,
                    "time": 319.58203125,
                    "velocity": 0.6929133858267716,
                    "duration": 0.41796875
                },
                {
                    "name": "A5",
                    "midi": 81,
                    "time": 319.58203125,
                    "velocity": 0.6929133858267716,
                    "duration": 0.41796875
                },
                {
                    "name": "C6",
                    "midi": 84,
                    "time": 319.58203125,
                    "velocity": 0.6929133858267716,
                    "duration": 0.41796875
                },
                {
                    "name": "F6",
                    "midi": 89,
                    "time": 319.58203125,
                    "velocity": 0.6929133858267716,
                    "duration": 0.41796875
                },
                {
                    "name": "A6",
                    "midi": 93,
                    "time": 319.58203125,
                    "velocity": 0.6929133858267716,
                    "duration": 0.41796875
                },
                {
                    "name": "D5",
                    "midi": 74,
                    "time": 320,
                    "velocity": 0.6929133858267716,
                    "duration": 1.25
                },
                {
                    "name": "F#5",
                    "midi": 78,
                    "time": 320,
                    "velocity": 0.6929133858267716,
                    "duration": 1.25
                },
                {
                    "name": "A5",
                    "midi": 81,
                    "time": 320,
                    "velocity": 0.6929133858267716,
                    "duration": 1.25
                },
                {
                    "name": "D6",
                    "midi": 86,
                    "time": 320,
                    "velocity": 0.6929133858267716,
                    "duration": 1.25
                },
                {
                    "name": "B5",
                    "midi": 83,
                    "time": 321.25,
                    "velocity": 0.6929133858267716,
                    "duration": 3.75
                },
                {
                    "name": "D6",
                    "midi": 86,
                    "time": 321.25,
                    "velocity": 0.6929133858267716,
                    "duration": 3.75
                },
                {
                    "name": "F#6",
                    "midi": 90,
                    "time": 321.25,
                    "velocity": 0.6929133858267716,
                    "duration": 3.75
                },
                {
                    "name": "B6",
                    "midi": 95,
                    "time": 321.25,
                    "velocity": 0.6929133858267716,
                    "duration": 3.75
                },
                {
                    "name": "C6",
                    "midi": 84,
                    "time": 325,
                    "velocity": 0.6929133858267716,
                    "duration": 5
                },
                {
                    "name": "D6",
                    "midi": 86,
                    "time": 325,
                    "velocity": 0.6929133858267716,
                    "duration": 5
                },
                {
                    "name": "F#6",
                    "midi": 90,
                    "time": 325,
                    "velocity": 0.6929133858267716,
                    "duration": 5
                },
                {
                    "name": "C7",
                    "midi": 96,
                    "time": 325,
                    "velocity": 0.6929133858267716,
                    "duration": 5
                },
                {
                    "name": "A5",
                    "midi": 81,
                    "time": 330,
                    "velocity": 0.7952755905511811,
                    "duration": 0.3125
                },
                {
                    "name": "E6",
                    "midi": 88,
                    "time": 330,
                    "velocity": 0.7952755905511811,
                    "duration": 0.3125
                },
                {
                    "name": "D5",
                    "midi": 74,
                    "time": 330.3125,
                    "velocity": 0.5905511811023622,
                    "duration": 0.061197916666685614
                },
                {
                    "name": "A5",
                    "midi": 81,
                    "time": 330.3125,
                    "velocity": 0.5905511811023622,
                    "duration": 0.061197916666685614
                },
                {
                    "name": "G4",
                    "midi": 67,
                    "time": 330.625,
                    "velocity": 0.5905511811023622,
                    "duration": 0.061197916666685614
                },
                {
                    "name": "D5",
                    "midi": 74,
                    "time": 330.625,
                    "velocity": 0.5905511811023622,
                    "duration": 0.061197916666685614
                },
                {
                    "name": "A5",
                    "midi": 81,
                    "time": 330.9375,
                    "velocity": 0.7952755905511811,
                    "duration": 0.3125
                },
                {
                    "name": "E6",
                    "midi": 88,
                    "time": 330.9375,
                    "velocity": 0.7952755905511811,
                    "duration": 0.3125
                },
                {
                    "name": "D5",
                    "midi": 74,
                    "time": 331.25,
                    "velocity": 0.5905511811023622,
                    "duration": 0.061197916666685614
                },
                {
                    "name": "A5",
                    "midi": 81,
                    "time": 331.25,
                    "velocity": 0.5905511811023622,
                    "duration": 0.061197916666685614
                },
                {
                    "name": "G4",
                    "midi": 67,
                    "time": 331.5625,
                    "velocity": 0.5905511811023622,
                    "duration": 0.061197916666685614
                },
                {
                    "name": "D5",
                    "midi": 74,
                    "time": 331.5625,
                    "velocity": 0.5905511811023622,
                    "duration": 0.061197916666685614
                },
                {
                    "name": "A5",
                    "midi": 81,
                    "time": 331.875,
                    "velocity": 0.7952755905511811,
                    "duration": 0.3125
                },
                {
                    "name": "E6",
                    "midi": 88,
                    "time": 331.875,
                    "velocity": 0.7952755905511811,
                    "duration": 0.3125
                },
                {
                    "name": "D5",
                    "midi": 74,
                    "time": 332.1875,
                    "velocity": 0.5905511811023622,
                    "duration": 0.061197916666685614
                },
                {
                    "name": "A5",
                    "midi": 81,
                    "time": 332.1875,
                    "velocity": 0.5905511811023622,
                    "duration": 0.061197916666685614
                },
                {
                    "name": "G4",
                    "midi": 67,
                    "time": 332.5,
                    "velocity": 0.5905511811023622,
                    "duration": 0.061197916666685614
                },
                {
                    "name": "D5",
                    "midi": 74,
                    "time": 332.5,
                    "velocity": 0.5905511811023622,
                    "duration": 0.061197916666685614
                },
                {
                    "name": "A5",
                    "midi": 81,
                    "time": 332.8125,
                    "velocity": 0.7952755905511811,
                    "duration": 0.3125
                },
                {
                    "name": "E6",
                    "midi": 88,
                    "time": 332.8125,
                    "velocity": 0.7952755905511811,
                    "duration": 0.3125
                },
                {
                    "name": "D5",
                    "midi": 74,
                    "time": 333.125,
                    "velocity": 0.5905511811023622,
                    "duration": 0.061197916666685614
                },
                {
                    "name": "A5",
                    "midi": 81,
                    "time": 333.125,
                    "velocity": 0.5905511811023622,
                    "duration": 0.061197916666685614
                },
                {
                    "name": "G4",
                    "midi": 67,
                    "time": 333.4375,
                    "velocity": 0.5905511811023622,
                    "duration": 0.061197916666685614
                },
                {
                    "name": "D5",
                    "midi": 74,
                    "time": 333.4375,
                    "velocity": 0.5905511811023622,
                    "duration": 0.061197916666685614
                },
                {
                    "name": "A5",
                    "midi": 81,
                    "time": 333.75,
                    "velocity": 0.7952755905511811,
                    "duration": 1.25
                },
                {
                    "name": "E6",
                    "midi": 88,
                    "time": 333.75,
                    "velocity": 0.7952755905511811,
                    "duration": 1.25
                },
                {
                    "name": "E5",
                    "midi": 76,
                    "time": 335,
                    "velocity": 0.7952755905511811,
                    "duration": 0.3125
                },
                {
                    "name": "B5",
                    "midi": 83,
                    "time": 335,
                    "velocity": 0.7952755905511811,
                    "duration": 0.3125
                },
                {
                    "name": "A4",
                    "midi": 69,
                    "time": 335.3125,
                    "velocity": 0.5905511811023622,
                    "duration": 0.061197916666685614
                },
                {
                    "name": "E5",
                    "midi": 76,
                    "time": 335.3125,
                    "velocity": 0.5905511811023622,
                    "duration": 0.061197916666685614
                },
                {
                    "name": "D4",
                    "midi": 62,
                    "time": 335.625,
                    "velocity": 0.5905511811023622,
                    "duration": 0.061197916666685614
                },
                {
                    "name": "A4",
                    "midi": 69,
                    "time": 335.625,
                    "velocity": 0.5905511811023622,
                    "duration": 0.061197916666685614
                },
                {
                    "name": "E5",
                    "midi": 76,
                    "time": 335.9375,
                    "velocity": 0.7952755905511811,
                    "duration": 0.3125
                },
                {
                    "name": "B5",
                    "midi": 83,
                    "time": 335.9375,
                    "velocity": 0.7952755905511811,
                    "duration": 0.3125
                },
                {
                    "name": "A4",
                    "midi": 69,
                    "time": 336.25,
                    "velocity": 0.5905511811023622,
                    "duration": 0.061197916666685614
                },
                {
                    "name": "E5",
                    "midi": 76,
                    "time": 336.25,
                    "velocity": 0.5905511811023622,
                    "duration": 0.061197916666685614
                },
                {
                    "name": "D4",
                    "midi": 62,
                    "time": 336.5625,
                    "velocity": 0.5905511811023622,
                    "duration": 0.061197916666685614
                },
                {
                    "name": "A4",
                    "midi": 69,
                    "time": 336.5625,
                    "velocity": 0.5905511811023622,
                    "duration": 0.061197916666685614
                },
                {
                    "name": "E5",
                    "midi": 76,
                    "time": 336.875,
                    "velocity": 0.7952755905511811,
                    "duration": 0.625
                },
                {
                    "name": "B5",
                    "midi": 83,
                    "time": 336.875,
                    "velocity": 0.7952755905511811,
                    "duration": 0.625
                },
                {
                    "name": "E5",
                    "midi": 76,
                    "time": 337.5,
                    "velocity": 0.7952755905511811,
                    "duration": 2.5
                },
                {
                    "name": "B5",
                    "midi": 83,
                    "time": 337.5,
                    "velocity": 0.7952755905511811,
                    "duration": 2.5
                },
                {
                    "name": "A5",
                    "midi": 81,
                    "time": 340,
                    "velocity": 0.7952755905511811,
                    "duration": 0.3125
                },
                {
                    "name": "E6",
                    "midi": 88,
                    "time": 340,
                    "velocity": 0.7952755905511811,
                    "duration": 0.3125
                },
                {
                    "name": "D5",
                    "midi": 74,
                    "time": 340.3125,
                    "velocity": 0.5905511811023622,
                    "duration": 0.061197916666685614
                },
                {
                    "name": "A5",
                    "midi": 81,
                    "time": 340.3125,
                    "velocity": 0.5905511811023622,
                    "duration": 0.061197916666685614
                },
                {
                    "name": "G4",
                    "midi": 67,
                    "time": 340.625,
                    "velocity": 0.5905511811023622,
                    "duration": 0.061197916666685614
                },
                {
                    "name": "D5",
                    "midi": 74,
                    "time": 340.625,
                    "velocity": 0.5905511811023622,
                    "duration": 0.061197916666685614
                },
                {
                    "name": "A5",
                    "midi": 81,
                    "time": 340.9375,
                    "velocity": 0.7952755905511811,
                    "duration": 0.3125
                },
                {
                    "name": "E6",
                    "midi": 88,
                    "time": 340.9375,
                    "velocity": 0.7952755905511811,
                    "duration": 0.3125
                },
                {
                    "name": "D5",
                    "midi": 74,
                    "time": 341.25,
                    "velocity": 0.5905511811023622,
                    "duration": 0.061197916666685614
                },
                {
                    "name": "A5",
                    "midi": 81,
                    "time": 341.25,
                    "velocity": 0.5905511811023622,
                    "duration": 0.061197916666685614
                },
                {
                    "name": "G4",
                    "midi": 67,
                    "time": 341.5625,
                    "velocity": 0.5905511811023622,
                    "duration": 0.061197916666685614
                },
                {
                    "name": "D5",
                    "midi": 74,
                    "time": 341.5625,
                    "velocity": 0.5905511811023622,
                    "duration": 0.061197916666685614
                },
                {
                    "name": "A5",
                    "midi": 81,
                    "time": 341.875,
                    "velocity": 0.7952755905511811,
                    "duration": 0.3125
                },
                {
                    "name": "E6",
                    "midi": 88,
                    "time": 341.875,
                    "velocity": 0.7952755905511811,
                    "duration": 0.3125
                },
                {
                    "name": "D5",
                    "midi": 74,
                    "time": 342.1875,
                    "velocity": 0.5905511811023622,
                    "duration": 0.061197916666685614
                },
                {
                    "name": "A5",
                    "midi": 81,
                    "time": 342.1875,
                    "velocity": 0.5905511811023622,
                    "duration": 0.061197916666685614
                },
                {
                    "name": "G4",
                    "midi": 67,
                    "time": 342.5,
                    "velocity": 0.5905511811023622,
                    "duration": 0.061197916666685614
                },
                {
                    "name": "D5",
                    "midi": 74,
                    "time": 342.5,
                    "velocity": 0.5905511811023622,
                    "duration": 0.061197916666685614
                },
                {
                    "name": "A5",
                    "midi": 81,
                    "time": 342.8125,
                    "velocity": 0.7952755905511811,
                    "duration": 0.3125
                },
                {
                    "name": "E6",
                    "midi": 88,
                    "time": 342.8125,
                    "velocity": 0.7952755905511811,
                    "duration": 0.3125
                },
                {
                    "name": "D5",
                    "midi": 74,
                    "time": 343.125,
                    "velocity": 0.5905511811023622,
                    "duration": 0.061197916666685614
                },
                {
                    "name": "A5",
                    "midi": 81,
                    "time": 343.125,
                    "velocity": 0.5905511811023622,
                    "duration": 0.061197916666685614
                },
                {
                    "name": "G4",
                    "midi": 67,
                    "time": 343.4375,
                    "velocity": 0.5905511811023622,
                    "duration": 0.061197916666685614
                },
                {
                    "name": "D5",
                    "midi": 74,
                    "time": 343.4375,
                    "velocity": 0.5905511811023622,
                    "duration": 0.061197916666685614
                },
                {
                    "name": "A5",
                    "midi": 81,
                    "time": 343.75,
                    "velocity": 0.7952755905511811,
                    "duration": 1.25
                },
                {
                    "name": "E6",
                    "midi": 88,
                    "time": 343.75,
                    "velocity": 0.7952755905511811,
                    "duration": 1.25
                },
                {
                    "name": "E5",
                    "midi": 76,
                    "time": 345,
                    "velocity": 0.7952755905511811,
                    "duration": 0.3125
                },
                {
                    "name": "B5",
                    "midi": 83,
                    "time": 345,
                    "velocity": 0.7952755905511811,
                    "duration": 0.3125
                },
                {
                    "name": "A4",
                    "midi": 69,
                    "time": 345.3125,
                    "velocity": 0.5905511811023622,
                    "duration": 0.061197916666685614
                },
                {
                    "name": "E5",
                    "midi": 76,
                    "time": 345.3125,
                    "velocity": 0.5905511811023622,
                    "duration": 0.061197916666685614
                },
                {
                    "name": "D4",
                    "midi": 62,
                    "time": 345.625,
                    "velocity": 0.5905511811023622,
                    "duration": 0.061197916666685614
                },
                {
                    "name": "A4",
                    "midi": 69,
                    "time": 345.625,
                    "velocity": 0.5905511811023622,
                    "duration": 0.061197916666685614
                },
                {
                    "name": "E5",
                    "midi": 76,
                    "time": 345.9375,
                    "velocity": 0.7952755905511811,
                    "duration": 0.3125
                },
                {
                    "name": "B5",
                    "midi": 83,
                    "time": 345.9375,
                    "velocity": 0.7952755905511811,
                    "duration": 0.3125
                },
                {
                    "name": "A4",
                    "midi": 69,
                    "time": 346.25,
                    "velocity": 0.5905511811023622,
                    "duration": 0.061197916666685614
                },
                {
                    "name": "E5",
                    "midi": 76,
                    "time": 346.25,
                    "velocity": 0.5905511811023622,
                    "duration": 0.061197916666685614
                },
                {
                    "name": "D4",
                    "midi": 62,
                    "time": 346.5625,
                    "velocity": 0.5905511811023622,
                    "duration": 0.061197916666685614
                },
                {
                    "name": "A4",
                    "midi": 69,
                    "time": 346.5625,
                    "velocity": 0.5905511811023622,
                    "duration": 0.061197916666685614
                },
                {
                    "name": "E5",
                    "midi": 76,
                    "time": 346.875,
                    "velocity": 0.7952755905511811,
                    "duration": 0.625
                },
                {
                    "name": "B5",
                    "midi": 83,
                    "time": 346.875,
                    "velocity": 0.7952755905511811,
                    "duration": 0.625
                },
                {
                    "name": "D#5",
                    "midi": 75,
                    "time": 347.5,
                    "velocity": 0.6929133858267716,
                    "duration": 4.375
                },
                {
                    "name": "G5",
                    "midi": 79,
                    "time": 347.5,
                    "velocity": 0.6929133858267716,
                    "duration": 4.375
                },
                {
                    "name": "A#5",
                    "midi": 82,
                    "time": 347.5,
                    "velocity": 0.6929133858267716,
                    "duration": 4.375
                },
                {
                    "name": "D#6",
                    "midi": 87,
                    "time": 347.5,
                    "velocity": 0.6929133858267716,
                    "duration": 4.375
                },
                {
                    "name": "F#5",
                    "midi": 78,
                    "time": 351.875,
                    "velocity": 0.6929133858267716,
                    "duration": 0.625
                },
                {
                    "name": "A#5",
                    "midi": 82,
                    "time": 351.875,
                    "velocity": 0.6929133858267716,
                    "duration": 0.625
                },
                {
                    "name": "C#6",
                    "midi": 85,
                    "time": 351.875,
                    "velocity": 0.6929133858267716,
                    "duration": 0.625
                },
                {
                    "name": "F#6",
                    "midi": 90,
                    "time": 351.875,
                    "velocity": 0.6929133858267716,
                    "duration": 0.625
                },
                {
                    "name": "D#5",
                    "midi": 75,
                    "time": 352.5,
                    "velocity": 0.6929133858267716,
                    "duration": 4.166666666666686
                },
                {
                    "name": "G5",
                    "midi": 79,
                    "time": 352.5,
                    "velocity": 0.6929133858267716,
                    "duration": 4.166666666666686
                },
                {
                    "name": "A#5",
                    "midi": 82,
                    "time": 352.5,
                    "velocity": 0.6929133858267716,
                    "duration": 4.166666666666686
                },
                {
                    "name": "D#6",
                    "midi": 87,
                    "time": 352.5,
                    "velocity": 0.6929133858267716,
                    "duration": 4.166666666666686
                },
                {
                    "name": "A#3",
                    "midi": 58,
                    "time": 356.6666666666667,
                    "velocity": 0.6929133858267716,
                    "duration": 0.4153645833333144
                },
                {
                    "name": "F#5",
                    "midi": 78,
                    "time": 356.6666666666667,
                    "velocity": 0.6929133858267716,
                    "duration": 0.4153645833333144
                },
                {
                    "name": "A#5",
                    "midi": 82,
                    "time": 356.6666666666667,
                    "velocity": 0.6929133858267716,
                    "duration": 0.4153645833333144
                },
                {
                    "name": "C#6",
                    "midi": 85,
                    "time": 356.6666666666667,
                    "velocity": 0.6929133858267716,
                    "duration": 0.4153645833333144
                },
                {
                    "name": "F#6",
                    "midi": 90,
                    "time": 356.6666666666667,
                    "velocity": 0.6929133858267716,
                    "duration": 0.4153645833333144
                },
                {
                    "name": "C#4",
                    "midi": 61,
                    "time": 357.08203125,
                    "velocity": 0.6929133858267716,
                    "duration": 0.41796875
                },
                {
                    "name": "A#5",
                    "midi": 82,
                    "time": 357.08203125,
                    "velocity": 0.6929133858267716,
                    "duration": 0.41796875
                },
                {
                    "name": "C#6",
                    "midi": 85,
                    "time": 357.08203125,
                    "velocity": 0.6929133858267716,
                    "duration": 0.41796875
                },
                {
                    "name": "F#6",
                    "midi": 90,
                    "time": 357.08203125,
                    "velocity": 0.6929133858267716,
                    "duration": 0.41796875
                },
                {
                    "name": "A#6",
                    "midi": 94,
                    "time": 357.08203125,
                    "velocity": 0.6929133858267716,
                    "duration": 0.41796875
                },
                {
                    "name": "D#5",
                    "midi": 75,
                    "time": 357.5,
                    "velocity": 0.6929133858267716,
                    "duration": 1.25
                },
                {
                    "name": "G5",
                    "midi": 79,
                    "time": 357.5,
                    "velocity": 0.6929133858267716,
                    "duration": 1.25
                },
                {
                    "name": "A#5",
                    "midi": 82,
                    "time": 357.5,
                    "velocity": 0.6929133858267716,
                    "duration": 1.25
                },
                {
                    "name": "D#6",
                    "midi": 87,
                    "time": 357.5,
                    "velocity": 0.6929133858267716,
                    "duration": 1.25
                },
                {
                    "name": "C6",
                    "midi": 84,
                    "time": 358.75,
                    "velocity": 0.6929133858267716,
                    "duration": 3.75
                },
                {
                    "name": "D#6",
                    "midi": 87,
                    "time": 358.75,
                    "velocity": 0.6929133858267716,
                    "duration": 3.75
                },
                {
                    "name": "G6",
                    "midi": 91,
                    "time": 358.75,
                    "velocity": 0.6929133858267716,
                    "duration": 3.75
                },
                {
                    "name": "C7",
                    "midi": 96,
                    "time": 358.75,
                    "velocity": 0.6929133858267716,
                    "duration": 3.75
                },
                {
                    "name": "D#5",
                    "midi": 75,
                    "time": 362.5,
                    "velocity": 0.8976377952755905,
                    "duration": 1.25
                },
                {
                    "name": "G5",
                    "midi": 79,
                    "time": 362.5,
                    "velocity": 0.8976377952755905,
                    "duration": 1.25
                },
                {
                    "name": "A5",
                    "midi": 81,
                    "time": 362.5,
                    "velocity": 0.8976377952755905,
                    "duration": 1.25
                },
                {
                    "name": "D#6",
                    "midi": 87,
                    "time": 362.5,
                    "velocity": 0.8976377952755905,
                    "duration": 1.25
                },
                {
                    "name": "C#6",
                    "midi": 85,
                    "time": 363.75,
                    "velocity": 0.8976377952755905,
                    "duration": 8.125
                },
                {
                    "name": "G6",
                    "midi": 91,
                    "time": 363.75,
                    "velocity": 0.8976377952755905,
                    "duration": 8.125
                },
                {
                    "name": "A6",
                    "midi": 93,
                    "time": 363.75,
                    "velocity": 0.8976377952755905,
                    "duration": 8.125
                },
                {
                    "name": "C#7",
                    "midi": 97,
                    "time": 363.75,
                    "velocity": 0.8976377952755905,
                    "duration": 8.125
                },
                {
                    "name": "C6",
                    "midi": 84,
                    "time": 372.1875,
                    "velocity": 0.7952755905511811,
                    "duration": 0.3125
                },
                {
                    "name": "E6",
                    "midi": 88,
                    "time": 372.1875,
                    "velocity": 0.7952755905511811,
                    "duration": 0.3125
                },
                {
                    "name": "A6",
                    "midi": 93,
                    "time": 372.1875,
                    "velocity": 0.7952755905511811,
                    "duration": 0.3125
                },
                {
                    "name": "D5",
                    "midi": 74,
                    "time": 372.5,
                    "velocity": 0.7952755905511811,
                    "duration": 0.3125
                },
                {
                    "name": "F#5",
                    "midi": 78,
                    "time": 372.5,
                    "velocity": 0.7952755905511811,
                    "duration": 0.3125
                },
                {
                    "name": "A5",
                    "midi": 81,
                    "time": 372.5,
                    "velocity": 0.7952755905511811,
                    "duration": 0.3125
                },
                {
                    "name": "D6",
                    "midi": 86,
                    "time": 372.5,
                    "velocity": 0.7952755905511811,
                    "duration": 0.3125
                },
                {
                    "name": "F#4",
                    "midi": 66,
                    "time": 372.8125,
                    "velocity": 0.7952755905511811,
                    "duration": 0.3125
                },
                {
                    "name": "A4",
                    "midi": 69,
                    "time": 372.8125,
                    "velocity": 0.7952755905511811,
                    "duration": 0.3125
                },
                {
                    "name": "D5",
                    "midi": 74,
                    "time": 372.8125,
                    "velocity": 0.7952755905511811,
                    "duration": 0.3125
                },
                {
                    "name": "F#5",
                    "midi": 78,
                    "time": 372.8125,
                    "velocity": 0.7952755905511811,
                    "duration": 0.3125
                },
                {
                    "name": "A4",
                    "midi": 69,
                    "time": 373.125,
                    "velocity": 0.7952755905511811,
                    "duration": 0.3125
                },
                {
                    "name": "D5",
                    "midi": 74,
                    "time": 373.125,
                    "velocity": 0.7952755905511811,
                    "duration": 0.3125
                },
                {
                    "name": "F#5",
                    "midi": 78,
                    "time": 373.125,
                    "velocity": 0.7952755905511811,
                    "duration": 0.3125
                },
                {
                    "name": "A5",
                    "midi": 81,
                    "time": 373.125,
                    "velocity": 0.7952755905511811,
                    "duration": 0.3125
                },
                {
                    "name": "D4",
                    "midi": 62,
                    "time": 373.4375,
                    "velocity": 0.7952755905511811,
                    "duration": 0.3125
                },
                {
                    "name": "F#4",
                    "midi": 66,
                    "time": 373.4375,
                    "velocity": 0.7952755905511811,
                    "duration": 0.3125
                },
                {
                    "name": "A4",
                    "midi": 69,
                    "time": 373.4375,
                    "velocity": 0.7952755905511811,
                    "duration": 0.3125
                },
                {
                    "name": "D5",
                    "midi": 74,
                    "time": 373.4375,
                    "velocity": 0.7952755905511811,
                    "duration": 0.3125
                },
                {
                    "name": "F#4",
                    "midi": 66,
                    "time": 373.75,
                    "velocity": 0.7952755905511811,
                    "duration": 0.3125
                },
                {
                    "name": "A4",
                    "midi": 69,
                    "time": 373.75,
                    "velocity": 0.7952755905511811,
                    "duration": 0.3125
                },
                {
                    "name": "D5",
                    "midi": 74,
                    "time": 373.75,
                    "velocity": 0.7952755905511811,
                    "duration": 0.3125
                },
                {
                    "name": "F#5",
                    "midi": 78,
                    "time": 373.75,
                    "velocity": 0.7952755905511811,
                    "duration": 0.3125
                },
                {
                    "name": "A3",
                    "midi": 57,
                    "time": 374.0625,
                    "velocity": 0.7952755905511811,
                    "duration": 0.3125
                },
                {
                    "name": "D4",
                    "midi": 62,
                    "time": 374.0625,
                    "velocity": 0.7952755905511811,
                    "duration": 0.3125
                },
                {
                    "name": "F#4",
                    "midi": 66,
                    "time": 374.0625,
                    "velocity": 0.7952755905511811,
                    "duration": 0.3125
                },
                {
                    "name": "A4",
                    "midi": 69,
                    "time": 374.0625,
                    "velocity": 0.7952755905511811,
                    "duration": 0.3125
                },
                {
                    "name": "B3",
                    "midi": 59,
                    "time": 374.375,
                    "velocity": 0.7952755905511811,
                    "duration": 0.3125
                },
                {
                    "name": "D4",
                    "midi": 62,
                    "time": 374.375,
                    "velocity": 0.7952755905511811,
                    "duration": 0.3125
                },
                {
                    "name": "F#4",
                    "midi": 66,
                    "time": 374.375,
                    "velocity": 0.7952755905511811,
                    "duration": 0.3125
                },
                {
                    "name": "B4",
                    "midi": 71,
                    "time": 374.375,
                    "velocity": 0.7952755905511811,
                    "duration": 0.3125
                },
                {
                    "name": "D4",
                    "midi": 62,
                    "time": 374.6875,
                    "velocity": 1,
                    "duration": 0.3125
                },
                {
                    "name": "F#4",
                    "midi": 66,
                    "time": 374.6875,
                    "velocity": 1,
                    "duration": 0.3125
                },
                {
                    "name": "A4",
                    "midi": 69,
                    "time": 374.6875,
                    "velocity": 1,
                    "duration": 0.3125
                },
                {
                    "name": "D5",
                    "midi": 74,
                    "time": 374.6875,
                    "velocity": 1,
                    "duration": 0.3125
                },
                {
                    "name": "D4",
                    "midi": 62,
                    "time": 375.3125,
                    "velocity": 1,
                    "duration": 0.3125
                },
                {
                    "name": "F#4",
                    "midi": 66,
                    "time": 375.3125,
                    "velocity": 1,
                    "duration": 0.3125
                },
                {
                    "name": "A4",
                    "midi": 69,
                    "time": 375.3125,
                    "velocity": 1,
                    "duration": 0.3125
                },
                {
                    "name": "D5",
                    "midi": 74,
                    "time": 375.3125,
                    "velocity": 1,
                    "duration": 0.3125
                },
                {
                    "name": "D4",
                    "midi": 62,
                    "time": 375.9375,
                    "velocity": 1,
                    "duration": 1.25
                },
                {
                    "name": "F#4",
                    "midi": 66,
                    "time": 375.9375,
                    "velocity": 1,
                    "duration": 1.25
                },
                {
                    "name": "A4",
                    "midi": 69,
                    "time": 375.9375,
                    "velocity": 1,
                    "duration": 1.25
                },
                {
                    "name": "D5",
                    "midi": 74,
                    "time": 375.9375,
                    "velocity": 1,
                    "duration": 1.25
                },
                {
                    "name": "A4",
                    "midi": 69,
                    "time": 377.1875,
                    "velocity": 0.7952755905511811,
                    "duration": 0.3125
                },
                {
                    "name": "D5",
                    "midi": 74,
                    "time": 377.1875,
                    "velocity": 0.7952755905511811,
                    "duration": 0.3125
                },
                {
                    "name": "F#5",
                    "midi": 78,
                    "time": 377.1875,
                    "velocity": 0.7952755905511811,
                    "duration": 0.3125
                },
                {
                    "name": "A5",
                    "midi": 81,
                    "time": 377.1875,
                    "velocity": 0.7952755905511811,
                    "duration": 0.3125
                },
                {
                    "name": "D5",
                    "midi": 74,
                    "time": 377.5,
                    "velocity": 0.7952755905511811,
                    "duration": 0.3125
                },
                {
                    "name": "F#5",
                    "midi": 78,
                    "time": 377.5,
                    "velocity": 0.7952755905511811,
                    "duration": 0.3125
                },
                {
                    "name": "A5",
                    "midi": 81,
                    "time": 377.5,
                    "velocity": 0.7952755905511811,
                    "duration": 0.3125
                },
                {
                    "name": "D6",
                    "midi": 86,
                    "time": 377.5,
                    "velocity": 0.7952755905511811,
                    "duration": 0.3125
                },
                {
                    "name": "D5",
                    "midi": 74,
                    "time": 377.8125,
                    "velocity": 0.7952755905511811,
                    "duration": 0.3125
                },
                {
                    "name": "F#5",
                    "midi": 78,
                    "time": 377.8125,
                    "velocity": 0.7952755905511811,
                    "duration": 0.3125
                },
                {
                    "name": "A5",
                    "midi": 81,
                    "time": 377.8125,
                    "velocity": 0.7952755905511811,
                    "duration": 0.3125
                },
                {
                    "name": "D6",
                    "midi": 86,
                    "time": 377.8125,
                    "velocity": 0.7952755905511811,
                    "duration": 0.3125
                },
                {
                    "name": "A5",
                    "midi": 81,
                    "time": 378.125,
                    "velocity": 0.7952755905511811,
                    "duration": 0.3125
                },
                {
                    "name": "D6",
                    "midi": 86,
                    "time": 378.125,
                    "velocity": 0.7952755905511811,
                    "duration": 0.3125
                },
                {
                    "name": "F#6",
                    "midi": 90,
                    "time": 378.125,
                    "velocity": 0.7952755905511811,
                    "duration": 0.3125
                },
                {
                    "name": "A6",
                    "midi": 93,
                    "time": 378.125,
                    "velocity": 0.7952755905511811,
                    "duration": 0.3125
                },
                {
                    "name": "A4",
                    "midi": 69,
                    "time": 378.4375,
                    "velocity": 0.7952755905511811,
                    "duration": 0.3125
                },
                {
                    "name": "C#5",
                    "midi": 73,
                    "time": 378.4375,
                    "velocity": 0.7952755905511811,
                    "duration": 0.3125
                },
                {
                    "name": "F#5",
                    "midi": 78,
                    "time": 378.4375,
                    "velocity": 0.7952755905511811,
                    "duration": 0.3125
                },
                {
                    "name": "A5",
                    "midi": 81,
                    "time": 378.4375,
                    "velocity": 0.7952755905511811,
                    "duration": 0.3125
                },
                {
                    "name": "D5",
                    "midi": 74,
                    "time": 378.75,
                    "velocity": 0.7952755905511811,
                    "duration": 0.3125
                },
                {
                    "name": "F#5",
                    "midi": 78,
                    "time": 378.75,
                    "velocity": 0.7952755905511811,
                    "duration": 0.3125
                },
                {
                    "name": "A5",
                    "midi": 81,
                    "time": 378.75,
                    "velocity": 0.7952755905511811,
                    "duration": 0.3125
                },
                {
                    "name": "D6",
                    "midi": 86,
                    "time": 378.75,
                    "velocity": 0.7952755905511811,
                    "duration": 0.3125
                },
                {
                    "name": "D4",
                    "midi": 62,
                    "time": 379.0625,
                    "velocity": 0.7952755905511811,
                    "duration": 0.3125
                },
                {
                    "name": "F#4",
                    "midi": 66,
                    "time": 379.0625,
                    "velocity": 0.7952755905511811,
                    "duration": 0.3125
                },
                {
                    "name": "A4",
                    "midi": 69,
                    "time": 379.0625,
                    "velocity": 0.7952755905511811,
                    "duration": 0.3125
                },
                {
                    "name": "D5",
                    "midi": 74,
                    "time": 379.0625,
                    "velocity": 0.7952755905511811,
                    "duration": 0.3125
                },
                {
                    "name": "F#4",
                    "midi": 66,
                    "time": 379.375,
                    "velocity": 0.7952755905511811,
                    "duration": 0.3125
                },
                {
                    "name": "A4",
                    "midi": 69,
                    "time": 379.375,
                    "velocity": 0.7952755905511811,
                    "duration": 0.3125
                },
                {
                    "name": "C#5",
                    "midi": 73,
                    "time": 379.375,
                    "velocity": 0.7952755905511811,
                    "duration": 0.3125
                },
                {
                    "name": "E5",
                    "midi": 76,
                    "time": 379.375,
                    "velocity": 0.7952755905511811,
                    "duration": 0.3125
                },
                {
                    "name": "A4",
                    "midi": 69,
                    "time": 379.6875,
                    "velocity": 0.7952755905511811,
                    "duration": 0.3125
                },
                {
                    "name": "C5",
                    "midi": 72,
                    "time": 379.6875,
                    "velocity": 0.7952755905511811,
                    "duration": 0.3125
                },
                {
                    "name": "E5",
                    "midi": 76,
                    "time": 379.6875,
                    "velocity": 0.7952755905511811,
                    "duration": 0.3125
                },
                {
                    "name": "A5",
                    "midi": 81,
                    "time": 379.6875,
                    "velocity": 0.7952755905511811,
                    "duration": 0.3125
                },
                {
                    "name": "C#5",
                    "midi": 73,
                    "time": 380,
                    "velocity": 0.7952755905511811,
                    "duration": 0.9375
                },
                {
                    "name": "E5",
                    "midi": 76,
                    "time": 380,
                    "velocity": 0.7952755905511811,
                    "duration": 0.9375
                },
                {
                    "name": "B4",
                    "midi": 71,
                    "time": 380.9375,
                    "velocity": 0.7952755905511811,
                    "duration": 0.9375
                },
                {
                    "name": "D#5",
                    "midi": 75,
                    "time": 380.9375,
                    "velocity": 0.7952755905511811,
                    "duration": 0.9375
                },
                {
                    "name": "C#5",
                    "midi": 73,
                    "time": 381.875,
                    "velocity": 0.7952755905511811,
                    "duration": 0.3125
                },
                {
                    "name": "E5",
                    "midi": 76,
                    "time": 381.875,
                    "velocity": 0.7952755905511811,
                    "duration": 0.3125
                },
                {
                    "name": "B4",
                    "midi": 71,
                    "time": 382.1875,
                    "velocity": 0.7952755905511811,
                    "duration": 0.3125
                },
                {
                    "name": "D#5",
                    "midi": 75,
                    "time": 382.1875,
                    "velocity": 0.7952755905511811,
                    "duration": 0.3125
                },
                {
                    "name": "F#5",
                    "midi": 78,
                    "time": 382.1875,
                    "velocity": 0.7952755905511811,
                    "duration": 0.3125
                },
                {
                    "name": "B5",
                    "midi": 83,
                    "time": 382.1875,
                    "velocity": 0.7952755905511811,
                    "duration": 0.3125
                },
                {
                    "name": "D5",
                    "midi": 74,
                    "time": 382.5,
                    "velocity": 0.7952755905511811,
                    "duration": 0.3125
                },
                {
                    "name": "G5",
                    "midi": 79,
                    "time": 382.5,
                    "velocity": 0.7952755905511811,
                    "duration": 0.3125
                },
                {
                    "name": "B5",
                    "midi": 83,
                    "time": 382.5,
                    "velocity": 0.7952755905511811,
                    "duration": 0.3125
                },
                {
                    "name": "D6",
                    "midi": 86,
                    "time": 382.5,
                    "velocity": 0.7952755905511811,
                    "duration": 0.3125
                },
                {
                    "name": "G4",
                    "midi": 67,
                    "time": 382.8125,
                    "velocity": 0.7952755905511811,
                    "duration": 0.3125
                },
                {
                    "name": "B4",
                    "midi": 71,
                    "time": 382.8125,
                    "velocity": 0.7952755905511811,
                    "duration": 0.3125
                },
                {
                    "name": "D5",
                    "midi": 74,
                    "time": 382.8125,
                    "velocity": 0.7952755905511811,
                    "duration": 0.3125
                },
                {
                    "name": "G5",
                    "midi": 79,
                    "time": 382.8125,
                    "velocity": 0.7952755905511811,
                    "duration": 0.3125
                },
                {
                    "name": "B4",
                    "midi": 71,
                    "time": 383.125,
                    "velocity": 0.7952755905511811,
                    "duration": 0.3125
                },
                {
                    "name": "D5",
                    "midi": 74,
                    "time": 383.125,
                    "velocity": 0.7952755905511811,
                    "duration": 0.3125
                },
                {
                    "name": "G5",
                    "midi": 79,
                    "time": 383.125,
                    "velocity": 0.7952755905511811,
                    "duration": 0.3125
                },
                {
                    "name": "B5",
                    "midi": 83,
                    "time": 383.125,
                    "velocity": 0.7952755905511811,
                    "duration": 0.3125
                },
                {
                    "name": "D4",
                    "midi": 62,
                    "time": 383.4375,
                    "velocity": 0.7952755905511811,
                    "duration": 0.3125
                },
                {
                    "name": "G4",
                    "midi": 67,
                    "time": 383.4375,
                    "velocity": 0.7952755905511811,
                    "duration": 0.3125
                },
                {
                    "name": "B4",
                    "midi": 71,
                    "time": 383.4375,
                    "velocity": 0.7952755905511811,
                    "duration": 0.3125
                },
                {
                    "name": "D5",
                    "midi": 74,
                    "time": 383.4375,
                    "velocity": 0.7952755905511811,
                    "duration": 0.3125
                },
                {
                    "name": "G4",
                    "midi": 67,
                    "time": 383.75,
                    "velocity": 0.7952755905511811,
                    "duration": 0.3125
                },
                {
                    "name": "B4",
                    "midi": 71,
                    "time": 383.75,
                    "velocity": 0.7952755905511811,
                    "duration": 0.3125
                },
                {
                    "name": "D5",
                    "midi": 74,
                    "time": 383.75,
                    "velocity": 0.7952755905511811,
                    "duration": 0.3125
                },
                {
                    "name": "G5",
                    "midi": 79,
                    "time": 383.75,
                    "velocity": 0.7952755905511811,
                    "duration": 0.3125
                },
                {
                    "name": "G3",
                    "midi": 55,
                    "time": 384.0625,
                    "velocity": 0.7952755905511811,
                    "duration": 0.3125
                },
                {
                    "name": "B3",
                    "midi": 59,
                    "time": 384.0625,
                    "velocity": 0.7952755905511811,
                    "duration": 0.3125
                },
                {
                    "name": "D4",
                    "midi": 62,
                    "time": 384.0625,
                    "velocity": 0.7952755905511811,
                    "duration": 0.3125
                },
                {
                    "name": "G4",
                    "midi": 67,
                    "time": 384.0625,
                    "velocity": 0.7952755905511811,
                    "duration": 0.3125
                },
                {
                    "name": "B3",
                    "midi": 59,
                    "time": 384.375,
                    "velocity": 0.7952755905511811,
                    "duration": 0.3125
                },
                {
                    "name": "D4",
                    "midi": 62,
                    "time": 384.375,
                    "velocity": 0.7952755905511811,
                    "duration": 0.3125
                },
                {
                    "name": "G4",
                    "midi": 67,
                    "time": 384.375,
                    "velocity": 0.7952755905511811,
                    "duration": 0.3125
                },
                {
                    "name": "B4",
                    "midi": 71,
                    "time": 384.375,
                    "velocity": 0.7952755905511811,
                    "duration": 0.3125
                },
                {
                    "name": "D4",
                    "midi": 62,
                    "time": 384.6875,
                    "velocity": 0.7952755905511811,
                    "duration": 0.3125
                },
                {
                    "name": "G4",
                    "midi": 67,
                    "time": 384.6875,
                    "velocity": 0.7952755905511811,
                    "duration": 0.3125
                },
                {
                    "name": "B4",
                    "midi": 71,
                    "time": 384.6875,
                    "velocity": 0.7952755905511811,
                    "duration": 0.3125
                },
                {
                    "name": "D5",
                    "midi": 74,
                    "time": 384.6875,
                    "velocity": 0.7952755905511811,
                    "duration": 0.3125
                },
                {
                    "name": "E4",
                    "midi": 64,
                    "time": 385,
                    "velocity": 0.7952755905511811,
                    "duration": 0.10416666666668561
                },
                {
                    "name": "G4",
                    "midi": 67,
                    "time": 385,
                    "velocity": 0.7952755905511811,
                    "duration": 0.10416666666668561
                },
                {
                    "name": "B4",
                    "midi": 71,
                    "time": 385,
                    "velocity": 0.7952755905511811,
                    "duration": 0.10416666666668561
                },
                {
                    "name": "D5",
                    "midi": 74,
                    "time": 385,
                    "velocity": 0.7952755905511811,
                    "duration": 0.10416666666668561
                },
                {
                    "name": "F4",
                    "midi": 65,
                    "time": 385.1041666666667,
                    "velocity": 0.7952755905511811,
                    "duration": 0.10286458333331439
                },
                {
                    "name": "A4",
                    "midi": 69,
                    "time": 385.1041666666667,
                    "velocity": 0.7952755905511811,
                    "duration": 0.10286458333331439
                },
                {
                    "name": "C5",
                    "midi": 72,
                    "time": 385.1041666666667,
                    "velocity": 0.7952755905511811,
                    "duration": 0.10286458333331439
                },
                {
                    "name": "E5",
                    "midi": 76,
                    "time": 385.1041666666667,
                    "velocity": 0.7952755905511811,
                    "duration": 0.10286458333331439
                },
                {
                    "name": "E4",
                    "midi": 64,
                    "time": 385.20703125,
                    "velocity": 0.7952755905511811,
                    "duration": 0.10546875
                },
                {
                    "name": "G4",
                    "midi": 67,
                    "time": 385.20703125,
                    "velocity": 0.7952755905511811,
                    "duration": 0.10546875
                },
                {
                    "name": "B4",
                    "midi": 71,
                    "time": 385.20703125,
                    "velocity": 0.7952755905511811,
                    "duration": 0.10546875
                },
                {
                    "name": "D5",
                    "midi": 74,
                    "time": 385.20703125,
                    "velocity": 0.7952755905511811,
                    "duration": 0.10546875
                },
                {
                    "name": "F4",
                    "midi": 65,
                    "time": 385.3125,
                    "velocity": 0.7952755905511811,
                    "duration": 0.10416666666668561
                },
                {
                    "name": "A4",
                    "midi": 69,
                    "time": 385.3125,
                    "velocity": 0.7952755905511811,
                    "duration": 0.10416666666668561
                },
                {
                    "name": "C5",
                    "midi": 72,
                    "time": 385.3125,
                    "velocity": 0.7952755905511811,
                    "duration": 0.10416666666668561
                },
                {
                    "name": "E5",
                    "midi": 76,
                    "time": 385.3125,
                    "velocity": 0.7952755905511811,
                    "duration": 0.10416666666668561
                },
                {
                    "name": "E4",
                    "midi": 64,
                    "time": 385.4166666666667,
                    "velocity": 0.7952755905511811,
                    "duration": 0.10286458333331439
                },
                {
                    "name": "G4",
                    "midi": 67,
                    "time": 385.4166666666667,
                    "velocity": 0.7952755905511811,
                    "duration": 0.10286458333331439
                },
                {
                    "name": "B4",
                    "midi": 71,
                    "time": 385.4166666666667,
                    "velocity": 0.7952755905511811,
                    "duration": 0.10286458333331439
                },
                {
                    "name": "D5",
                    "midi": 74,
                    "time": 385.4166666666667,
                    "velocity": 0.7952755905511811,
                    "duration": 0.10286458333331439
                },
                {
                    "name": "F4",
                    "midi": 65,
                    "time": 385.51953125,
                    "velocity": 0.7952755905511811,
                    "duration": 0.10546875
                },
                {
                    "name": "A4",
                    "midi": 69,
                    "time": 385.51953125,
                    "velocity": 0.7952755905511811,
                    "duration": 0.10546875
                },
                {
                    "name": "C5",
                    "midi": 72,
                    "time": 385.51953125,
                    "velocity": 0.7952755905511811,
                    "duration": 0.10546875
                },
                {
                    "name": "E5",
                    "midi": 76,
                    "time": 385.51953125,
                    "velocity": 0.7952755905511811,
                    "duration": 0.10546875
                },
                {
                    "name": "E4",
                    "midi": 64,
                    "time": 385.625,
                    "velocity": 0.7952755905511811,
                    "duration": 0.10416666666668561
                },
                {
                    "name": "G4",
                    "midi": 67,
                    "time": 385.625,
                    "velocity": 0.7952755905511811,
                    "duration": 0.10416666666668561
                },
                {
                    "name": "B4",
                    "midi": 71,
                    "time": 385.625,
                    "velocity": 0.7952755905511811,
                    "duration": 0.10416666666668561
                },
                {
                    "name": "D5",
                    "midi": 74,
                    "time": 385.625,
                    "velocity": 0.7952755905511811,
                    "duration": 0.10416666666668561
                },
                {
                    "name": "F4",
                    "midi": 65,
                    "time": 385.7291666666667,
                    "velocity": 0.7952755905511811,
                    "duration": 0.10286458333331439
                },
                {
                    "name": "A4",
                    "midi": 69,
                    "time": 385.7291666666667,
                    "velocity": 0.7952755905511811,
                    "duration": 0.10286458333331439
                },
                {
                    "name": "C5",
                    "midi": 72,
                    "time": 385.7291666666667,
                    "velocity": 0.7952755905511811,
                    "duration": 0.10286458333331439
                },
                {
                    "name": "E5",
                    "midi": 76,
                    "time": 385.7291666666667,
                    "velocity": 0.7952755905511811,
                    "duration": 0.10286458333331439
                },
                {
                    "name": "E4",
                    "midi": 64,
                    "time": 385.83203125,
                    "velocity": 0.7952755905511811,
                    "duration": 0.10546875
                },
                {
                    "name": "G4",
                    "midi": 67,
                    "time": 385.83203125,
                    "velocity": 0.7952755905511811,
                    "duration": 0.10546875
                },
                {
                    "name": "B4",
                    "midi": 71,
                    "time": 385.83203125,
                    "velocity": 0.7952755905511811,
                    "duration": 0.10546875
                },
                {
                    "name": "D5",
                    "midi": 74,
                    "time": 385.83203125,
                    "velocity": 0.7952755905511811,
                    "duration": 0.10546875
                },
                {
                    "name": "D4",
                    "midi": 62,
                    "time": 385.9375,
                    "velocity": 0.7952755905511811,
                    "duration": 0.3125
                },
                {
                    "name": "G4",
                    "midi": 67,
                    "time": 385.9375,
                    "velocity": 0.7952755905511811,
                    "duration": 0.3125
                },
                {
                    "name": "B4",
                    "midi": 71,
                    "time": 385.9375,
                    "velocity": 0.7952755905511811,
                    "duration": 0.3125
                },
                {
                    "name": "D5",
                    "midi": 74,
                    "time": 385.9375,
                    "velocity": 0.7952755905511811,
                    "duration": 0.3125
                },
                {
                    "name": "E4",
                    "midi": 64,
                    "time": 386.875,
                    "velocity": 0.7952755905511811,
                    "duration": 0.10416666666668561
                },
                {
                    "name": "G4",
                    "midi": 67,
                    "time": 386.875,
                    "velocity": 0.7952755905511811,
                    "duration": 0.10416666666668561
                },
                {
                    "name": "B4",
                    "midi": 71,
                    "time": 386.875,
                    "velocity": 0.7952755905511811,
                    "duration": 0.10416666666668561
                },
                {
                    "name": "D5",
                    "midi": 74,
                    "time": 386.875,
                    "velocity": 0.7952755905511811,
                    "duration": 0.10416666666668561
                },
                {
                    "name": "F4",
                    "midi": 65,
                    "time": 386.9791666666667,
                    "velocity": 0.7952755905511811,
                    "duration": 0.10286458333331439
                },
                {
                    "name": "A4",
                    "midi": 69,
                    "time": 386.9791666666667,
                    "velocity": 0.7952755905511811,
                    "duration": 0.10286458333331439
                },
                {
                    "name": "C5",
                    "midi": 72,
                    "time": 386.9791666666667,
                    "velocity": 0.7952755905511811,
                    "duration": 0.10286458333331439
                },
                {
                    "name": "E5",
                    "midi": 76,
                    "time": 386.9791666666667,
                    "velocity": 0.7952755905511811,
                    "duration": 0.10286458333331439
                },
                {
                    "name": "E4",
                    "midi": 64,
                    "time": 387.08203125,
                    "velocity": 0.7952755905511811,
                    "duration": 0.10546875
                },
                {
                    "name": "G4",
                    "midi": 67,
                    "time": 387.08203125,
                    "velocity": 0.7952755905511811,
                    "duration": 0.10546875
                },
                {
                    "name": "B4",
                    "midi": 71,
                    "time": 387.08203125,
                    "velocity": 0.7952755905511811,
                    "duration": 0.10546875
                },
                {
                    "name": "D5",
                    "midi": 74,
                    "time": 387.08203125,
                    "velocity": 0.7952755905511811,
                    "duration": 0.10546875
                },
                {
                    "name": "F4",
                    "midi": 65,
                    "time": 387.1875,
                    "velocity": 0.7952755905511811,
                    "duration": 0.10416666666668561
                },
                {
                    "name": "A4",
                    "midi": 69,
                    "time": 387.1875,
                    "velocity": 0.7952755905511811,
                    "duration": 0.10416666666668561
                },
                {
                    "name": "C5",
                    "midi": 72,
                    "time": 387.1875,
                    "velocity": 0.7952755905511811,
                    "duration": 0.10416666666668561
                },
                {
                    "name": "E5",
                    "midi": 76,
                    "time": 387.1875,
                    "velocity": 0.7952755905511811,
                    "duration": 0.10416666666668561
                },
                {
                    "name": "E4",
                    "midi": 64,
                    "time": 387.2916666666667,
                    "velocity": 0.7952755905511811,
                    "duration": 0.10286458333331439
                },
                {
                    "name": "G4",
                    "midi": 67,
                    "time": 387.2916666666667,
                    "velocity": 0.7952755905511811,
                    "duration": 0.10286458333331439
                },
                {
                    "name": "B4",
                    "midi": 71,
                    "time": 387.2916666666667,
                    "velocity": 0.7952755905511811,
                    "duration": 0.10286458333331439
                },
                {
                    "name": "D5",
                    "midi": 74,
                    "time": 387.2916666666667,
                    "velocity": 0.7952755905511811,
                    "duration": 0.10286458333331439
                },
                {
                    "name": "F4",
                    "midi": 65,
                    "time": 387.39453125,
                    "velocity": 0.7952755905511811,
                    "duration": 0.10546875
                },
                {
                    "name": "A4",
                    "midi": 69,
                    "time": 387.39453125,
                    "velocity": 0.7952755905511811,
                    "duration": 0.10546875
                },
                {
                    "name": "C5",
                    "midi": 72,
                    "time": 387.39453125,
                    "velocity": 0.7952755905511811,
                    "duration": 0.10546875
                },
                {
                    "name": "E5",
                    "midi": 76,
                    "time": 387.39453125,
                    "velocity": 0.7952755905511811,
                    "duration": 0.10546875
                },
                {
                    "name": "E4",
                    "midi": 64,
                    "time": 387.5,
                    "velocity": 0.7952755905511811,
                    "duration": 0.10416666666668561
                },
                {
                    "name": "G4",
                    "midi": 67,
                    "time": 387.5,
                    "velocity": 0.7952755905511811,
                    "duration": 0.10416666666668561
                },
                {
                    "name": "B4",
                    "midi": 71,
                    "time": 387.5,
                    "velocity": 0.7952755905511811,
                    "duration": 0.10416666666668561
                },
                {
                    "name": "D5",
                    "midi": 74,
                    "time": 387.5,
                    "velocity": 0.7952755905511811,
                    "duration": 0.10416666666668561
                },
                {
                    "name": "F4",
                    "midi": 65,
                    "time": 387.6041666666667,
                    "velocity": 0.7952755905511811,
                    "duration": 0.10286458333331439
                },
                {
                    "name": "A4",
                    "midi": 69,
                    "time": 387.6041666666667,
                    "velocity": 0.7952755905511811,
                    "duration": 0.10286458333331439
                },
                {
                    "name": "C5",
                    "midi": 72,
                    "time": 387.6041666666667,
                    "velocity": 0.7952755905511811,
                    "duration": 0.10286458333331439
                },
                {
                    "name": "E5",
                    "midi": 76,
                    "time": 387.6041666666667,
                    "velocity": 0.7952755905511811,
                    "duration": 0.10286458333331439
                },
                {
                    "name": "E4",
                    "midi": 64,
                    "time": 387.70703125,
                    "velocity": 0.7952755905511811,
                    "duration": 0.10546875
                },
                {
                    "name": "G4",
                    "midi": 67,
                    "time": 387.70703125,
                    "velocity": 0.7952755905511811,
                    "duration": 0.10546875
                },
                {
                    "name": "B4",
                    "midi": 71,
                    "time": 387.70703125,
                    "velocity": 0.7952755905511811,
                    "duration": 0.10546875
                },
                {
                    "name": "D5",
                    "midi": 74,
                    "time": 387.70703125,
                    "velocity": 0.7952755905511811,
                    "duration": 0.10546875
                },
                {
                    "name": "D4",
                    "midi": 62,
                    "time": 387.8125,
                    "velocity": 0.7952755905511811,
                    "duration": 0.3125
                },
                {
                    "name": "G4",
                    "midi": 67,
                    "time": 387.8125,
                    "velocity": 0.7952755905511811,
                    "duration": 0.3125
                },
                {
                    "name": "B4",
                    "midi": 71,
                    "time": 387.8125,
                    "velocity": 0.7952755905511811,
                    "duration": 0.3125
                },
                {
                    "name": "D5",
                    "midi": 74,
                    "time": 387.8125,
                    "velocity": 0.7952755905511811,
                    "duration": 0.3125
                },
                {
                    "name": "E4",
                    "midi": 64,
                    "time": 388.75,
                    "velocity": 0.7952755905511811,
                    "duration": 0.10416666666668561
                },
                {
                    "name": "G4",
                    "midi": 67,
                    "time": 388.75,
                    "velocity": 0.7952755905511811,
                    "duration": 0.10416666666668561
                },
                {
                    "name": "B4",
                    "midi": 71,
                    "time": 388.75,
                    "velocity": 0.7952755905511811,
                    "duration": 0.10416666666668561
                },
                {
                    "name": "D5",
                    "midi": 74,
                    "time": 388.75,
                    "velocity": 0.7952755905511811,
                    "duration": 0.10416666666668561
                },
                {
                    "name": "F4",
                    "midi": 65,
                    "time": 388.8541666666667,
                    "velocity": 0.7952755905511811,
                    "duration": 0.10286458333331439
                },
                {
                    "name": "A4",
                    "midi": 69,
                    "time": 388.8541666666667,
                    "velocity": 0.7952755905511811,
                    "duration": 0.10286458333331439
                },
                {
                    "name": "C5",
                    "midi": 72,
                    "time": 388.8541666666667,
                    "velocity": 0.7952755905511811,
                    "duration": 0.10286458333331439
                },
                {
                    "name": "E5",
                    "midi": 76,
                    "time": 388.8541666666667,
                    "velocity": 0.7952755905511811,
                    "duration": 0.10286458333331439
                },
                {
                    "name": "E4",
                    "midi": 64,
                    "time": 388.95703125,
                    "velocity": 0.7952755905511811,
                    "duration": 0.10546875
                },
                {
                    "name": "G4",
                    "midi": 67,
                    "time": 388.95703125,
                    "velocity": 0.7952755905511811,
                    "duration": 0.10546875
                },
                {
                    "name": "B4",
                    "midi": 71,
                    "time": 388.95703125,
                    "velocity": 0.7952755905511811,
                    "duration": 0.10546875
                },
                {
                    "name": "D5",
                    "midi": 74,
                    "time": 388.95703125,
                    "velocity": 0.7952755905511811,
                    "duration": 0.10546875
                },
                {
                    "name": "F4",
                    "midi": 65,
                    "time": 389.0625,
                    "velocity": 0.7952755905511811,
                    "duration": 0.10416666666668561
                },
                {
                    "name": "A4",
                    "midi": 69,
                    "time": 389.0625,
                    "velocity": 0.7952755905511811,
                    "duration": 0.10416666666668561
                },
                {
                    "name": "C5",
                    "midi": 72,
                    "time": 389.0625,
                    "velocity": 0.7952755905511811,
                    "duration": 0.10416666666668561
                },
                {
                    "name": "E5",
                    "midi": 76,
                    "time": 389.0625,
                    "velocity": 0.7952755905511811,
                    "duration": 0.10416666666668561
                },
                {
                    "name": "E4",
                    "midi": 64,
                    "time": 389.1666666666667,
                    "velocity": 0.7952755905511811,
                    "duration": 0.10286458333331439
                },
                {
                    "name": "G4",
                    "midi": 67,
                    "time": 389.1666666666667,
                    "velocity": 0.7952755905511811,
                    "duration": 0.10286458333331439
                },
                {
                    "name": "B4",
                    "midi": 71,
                    "time": 389.1666666666667,
                    "velocity": 0.7952755905511811,
                    "duration": 0.10286458333331439
                },
                {
                    "name": "D5",
                    "midi": 74,
                    "time": 389.1666666666667,
                    "velocity": 0.7952755905511811,
                    "duration": 0.10286458333331439
                },
                {
                    "name": "F4",
                    "midi": 65,
                    "time": 389.26953125,
                    "velocity": 0.7952755905511811,
                    "duration": 0.10546875
                },
                {
                    "name": "A4",
                    "midi": 69,
                    "time": 389.26953125,
                    "velocity": 0.7952755905511811,
                    "duration": 0.10546875
                },
                {
                    "name": "C5",
                    "midi": 72,
                    "time": 389.26953125,
                    "velocity": 0.7952755905511811,
                    "duration": 0.10546875
                },
                {
                    "name": "E5",
                    "midi": 76,
                    "time": 389.26953125,
                    "velocity": 0.7952755905511811,
                    "duration": 0.10546875
                },
                {
                    "name": "E4",
                    "midi": 64,
                    "time": 389.375,
                    "velocity": 0.7952755905511811,
                    "duration": 0.10416666666668561
                },
                {
                    "name": "G4",
                    "midi": 67,
                    "time": 389.375,
                    "velocity": 0.7952755905511811,
                    "duration": 0.10416666666668561
                },
                {
                    "name": "B4",
                    "midi": 71,
                    "time": 389.375,
                    "velocity": 0.7952755905511811,
                    "duration": 0.10416666666668561
                },
                {
                    "name": "D5",
                    "midi": 74,
                    "time": 389.375,
                    "velocity": 0.7952755905511811,
                    "duration": 0.10416666666668561
                },
                {
                    "name": "F4",
                    "midi": 65,
                    "time": 389.4791666666667,
                    "velocity": 0.7952755905511811,
                    "duration": 0.10286458333331439
                },
                {
                    "name": "A4",
                    "midi": 69,
                    "time": 389.4791666666667,
                    "velocity": 0.7952755905511811,
                    "duration": 0.10286458333331439
                },
                {
                    "name": "C5",
                    "midi": 72,
                    "time": 389.4791666666667,
                    "velocity": 0.7952755905511811,
                    "duration": 0.10286458333331439
                },
                {
                    "name": "E5",
                    "midi": 76,
                    "time": 389.4791666666667,
                    "velocity": 0.7952755905511811,
                    "duration": 0.10286458333331439
                },
                {
                    "name": "E4",
                    "midi": 64,
                    "time": 389.58203125,
                    "velocity": 0.7952755905511811,
                    "duration": 0.10546875
                },
                {
                    "name": "G4",
                    "midi": 67,
                    "time": 389.58203125,
                    "velocity": 0.7952755905511811,
                    "duration": 0.10546875
                },
                {
                    "name": "B4",
                    "midi": 71,
                    "time": 389.58203125,
                    "velocity": 0.7952755905511811,
                    "duration": 0.10546875
                },
                {
                    "name": "D5",
                    "midi": 74,
                    "time": 389.58203125,
                    "velocity": 0.7952755905511811,
                    "duration": 0.10546875
                },
                {
                    "name": "D4",
                    "midi": 62,
                    "time": 389.6875,
                    "velocity": 0.7952755905511811,
                    "duration": 0.3125
                },
                {
                    "name": "G4",
                    "midi": 67,
                    "time": 389.6875,
                    "velocity": 0.7952755905511811,
                    "duration": 0.3125
                },
                {
                    "name": "B4",
                    "midi": 71,
                    "time": 389.6875,
                    "velocity": 0.7952755905511811,
                    "duration": 0.3125
                },
                {
                    "name": "D5",
                    "midi": 74,
                    "time": 389.6875,
                    "velocity": 0.7952755905511811,
                    "duration": 0.3125
                },
                {
                    "name": "A4",
                    "midi": 69,
                    "time": 390,
                    "velocity": 0.7952755905511811,
                    "duration": 2.1875
                },
                {
                    "name": "D5",
                    "midi": 74,
                    "time": 390,
                    "velocity": 0.7952755905511811,
                    "duration": 2.1875
                },
                {
                    "name": "F#5",
                    "midi": 78,
                    "time": 390,
                    "velocity": 0.7952755905511811,
                    "duration": 2.1875
                },
                {
                    "name": "A5",
                    "midi": 81,
                    "time": 390,
                    "velocity": 0.7952755905511811,
                    "duration": 2.1875
                },
                {
                    "name": "A4",
                    "midi": 69,
                    "time": 392.1875,
                    "velocity": 0.7952755905511811,
                    "duration": 0.3125
                },
                {
                    "name": "D5",
                    "midi": 74,
                    "time": 392.1875,
                    "velocity": 0.7952755905511811,
                    "duration": 0.3125
                },
                {
                    "name": "F#5",
                    "midi": 78,
                    "time": 392.1875,
                    "velocity": 0.7952755905511811,
                    "duration": 0.3125
                },
                {
                    "name": "A5",
                    "midi": 81,
                    "time": 392.1875,
                    "velocity": 0.7952755905511811,
                    "duration": 0.3125
                },
                {
                    "name": "E5",
                    "midi": 76,
                    "time": 392.5,
                    "velocity": 0.7952755905511811,
                    "duration": 0.3125
                },
                {
                    "name": "A5",
                    "midi": 81,
                    "time": 392.5,
                    "velocity": 0.7952755905511811,
                    "duration": 0.3125
                },
                {
                    "name": "C#6",
                    "midi": 85,
                    "time": 392.5,
                    "velocity": 0.7952755905511811,
                    "duration": 0.3125
                },
                {
                    "name": "E6",
                    "midi": 88,
                    "time": 392.5,
                    "velocity": 0.7952755905511811,
                    "duration": 0.3125
                },
                {
                    "name": "E4",
                    "midi": 64,
                    "time": 392.8125,
                    "velocity": 0.7952755905511811,
                    "duration": 0.3125
                },
                {
                    "name": "A4",
                    "midi": 69,
                    "time": 392.8125,
                    "velocity": 0.7952755905511811,
                    "duration": 0.3125
                },
                {
                    "name": "C#5",
                    "midi": 73,
                    "time": 392.8125,
                    "velocity": 0.7952755905511811,
                    "duration": 0.3125
                },
                {
                    "name": "E5",
                    "midi": 76,
                    "time": 392.8125,
                    "velocity": 0.7952755905511811,
                    "duration": 0.3125
                },
                {
                    "name": "A4",
                    "midi": 69,
                    "time": 393.125,
                    "velocity": 0.7952755905511811,
                    "duration": 0.3125
                },
                {
                    "name": "C#5",
                    "midi": 73,
                    "time": 393.125,
                    "velocity": 0.7952755905511811,
                    "duration": 0.3125
                },
                {
                    "name": "E5",
                    "midi": 76,
                    "time": 393.125,
                    "velocity": 0.7952755905511811,
                    "duration": 0.3125
                },
                {
                    "name": "A5",
                    "midi": 81,
                    "time": 393.125,
                    "velocity": 0.7952755905511811,
                    "duration": 0.3125
                },
                {
                    "name": "A3",
                    "midi": 57,
                    "time": 393.4375,
                    "velocity": 0.7952755905511811,
                    "duration": 0.3125
                },
                {
                    "name": "C#4",
                    "midi": 61,
                    "time": 393.4375,
                    "velocity": 0.7952755905511811,
                    "duration": 0.3125
                },
                {
                    "name": "E4",
                    "midi": 64,
                    "time": 393.4375,
                    "velocity": 0.7952755905511811,
                    "duration": 0.3125
                },
                {
                    "name": "A4",
                    "midi": 69,
                    "time": 393.4375,
                    "velocity": 0.7952755905511811,
                    "duration": 0.3125
                },
                {
                    "name": "E4",
                    "midi": 64,
                    "time": 393.75,
                    "velocity": 0.7952755905511811,
                    "duration": 0.3125
                },
                {
                    "name": "A4",
                    "midi": 69,
                    "time": 393.75,
                    "velocity": 0.7952755905511811,
                    "duration": 0.3125
                },
                {
                    "name": "C#5",
                    "midi": 73,
                    "time": 393.75,
                    "velocity": 0.7952755905511811,
                    "duration": 0.3125
                },
                {
                    "name": "E5",
                    "midi": 76,
                    "time": 393.75,
                    "velocity": 0.7952755905511811,
                    "duration": 0.3125
                },
                {
                    "name": "E3",
                    "midi": 52,
                    "time": 394.0625,
                    "velocity": 0.7952755905511811,
                    "duration": 0.3125
                },
                {
                    "name": "A3",
                    "midi": 57,
                    "time": 394.0625,
                    "velocity": 0.7952755905511811,
                    "duration": 0.3125
                },
                {
                    "name": "C#4",
                    "midi": 61,
                    "time": 394.0625,
                    "velocity": 0.7952755905511811,
                    "duration": 0.3125
                },
                {
                    "name": "E4",
                    "midi": 64,
                    "time": 394.0625,
                    "velocity": 0.7952755905511811,
                    "duration": 0.3125
                },
                {
                    "name": "A3",
                    "midi": 57,
                    "time": 394.375,
                    "velocity": 0.7952755905511811,
                    "duration": 0.3125
                },
                {
                    "name": "C#4",
                    "midi": 61,
                    "time": 394.375,
                    "velocity": 0.7952755905511811,
                    "duration": 0.3125
                },
                {
                    "name": "E4",
                    "midi": 64,
                    "time": 394.375,
                    "velocity": 0.7952755905511811,
                    "duration": 0.3125
                },
                {
                    "name": "A4",
                    "midi": 69,
                    "time": 394.375,
                    "velocity": 0.7952755905511811,
                    "duration": 0.3125
                },
                {
                    "name": "E4",
                    "midi": 64,
                    "time": 394.6875,
                    "velocity": 0.7952755905511811,
                    "duration": 0.3125
                },
                {
                    "name": "A4",
                    "midi": 69,
                    "time": 394.6875,
                    "velocity": 0.7952755905511811,
                    "duration": 0.3125
                },
                {
                    "name": "C#5",
                    "midi": 73,
                    "time": 394.6875,
                    "velocity": 0.7952755905511811,
                    "duration": 0.3125
                },
                {
                    "name": "E5",
                    "midi": 76,
                    "time": 394.6875,
                    "velocity": 0.7952755905511811,
                    "duration": 0.3125
                },
                {
                    "name": "A4",
                    "midi": 69,
                    "time": 395.3125,
                    "velocity": 0.7952755905511811,
                    "duration": 0.3125
                },
                {
                    "name": "A5",
                    "midi": 81,
                    "time": 395.3125,
                    "velocity": 0.7952755905511811,
                    "duration": 0.3125
                },
                {
                    "name": "E5",
                    "midi": 76,
                    "time": 395.625,
                    "velocity": 0.7952755905511811,
                    "duration": 0.3125
                },
                {
                    "name": "E6",
                    "midi": 88,
                    "time": 395.625,
                    "velocity": 0.7952755905511811,
                    "duration": 0.3125
                },
                {
                    "name": "E4",
                    "midi": 64,
                    "time": 395.9375,
                    "velocity": 0.7952755905511811,
                    "duration": 0.3125
                },
                {
                    "name": "E5",
                    "midi": 76,
                    "time": 395.9375,
                    "velocity": 0.7952755905511811,
                    "duration": 0.3125
                },
                {
                    "name": "A4",
                    "midi": 69,
                    "time": 396.25,
                    "velocity": 0.7952755905511811,
                    "duration": 0.3125
                },
                {
                    "name": "A5",
                    "midi": 81,
                    "time": 396.25,
                    "velocity": 0.7952755905511811,
                    "duration": 0.3125
                },
                {
                    "name": "A3",
                    "midi": 57,
                    "time": 396.5625,
                    "velocity": 0.7952755905511811,
                    "duration": 0.3125
                },
                {
                    "name": "A4",
                    "midi": 69,
                    "time": 396.5625,
                    "velocity": 0.7952755905511811,
                    "duration": 0.3125
                },
                {
                    "name": "E4",
                    "midi": 64,
                    "time": 396.875,
                    "velocity": 0.7952755905511811,
                    "duration": 0.3125
                },
                {
                    "name": "E5",
                    "midi": 76,
                    "time": 396.875,
                    "velocity": 0.7952755905511811,
                    "duration": 0.3125
                },
                {
                    "name": "E3",
                    "midi": 52,
                    "time": 397.1875,
                    "velocity": 0.7952755905511811,
                    "duration": 0.3125
                },
                {
                    "name": "E4",
                    "midi": 64,
                    "time": 397.1875,
                    "velocity": 0.7952755905511811,
                    "duration": 0.3125
                },
                {
                    "name": "A3",
                    "midi": 57,
                    "time": 397.5,
                    "velocity": 1,
                    "duration": 0.3125
                },
                {
                    "name": "A4",
                    "midi": 69,
                    "time": 397.5,
                    "velocity": 1,
                    "duration": 0.3125
                },
                {
                    "name": "A4",
                    "midi": 69,
                    "time": 398.125,
                    "velocity": 0.7952755905511811,
                    "duration": 0.3125
                },
                {
                    "name": "A5",
                    "midi": 81,
                    "time": 398.125,
                    "velocity": 0.7952755905511811,
                    "duration": 0.3125
                },
                {
                    "name": "E5",
                    "midi": 76,
                    "time": 398.4375,
                    "velocity": 0.7952755905511811,
                    "duration": 0.3125
                },
                {
                    "name": "E6",
                    "midi": 88,
                    "time": 398.4375,
                    "velocity": 0.7952755905511811,
                    "duration": 0.3125
                },
                {
                    "name": "E4",
                    "midi": 64,
                    "time": 398.75,
                    "velocity": 0.7952755905511811,
                    "duration": 0.3125
                },
                {
                    "name": "E5",
                    "midi": 76,
                    "time": 398.75,
                    "velocity": 0.7952755905511811,
                    "duration": 0.3125
                },
                {
                    "name": "A4",
                    "midi": 69,
                    "time": 399.0625,
                    "velocity": 0.7952755905511811,
                    "duration": 0.3125
                },
                {
                    "name": "A5",
                    "midi": 81,
                    "time": 399.0625,
                    "velocity": 0.7952755905511811,
                    "duration": 0.3125
                },
                {
                    "name": "A3",
                    "midi": 57,
                    "time": 399.375,
                    "velocity": 0.7952755905511811,
                    "duration": 0.3125
                },
                {
                    "name": "A4",
                    "midi": 69,
                    "time": 399.375,
                    "velocity": 0.7952755905511811,
                    "duration": 0.3125
                },
                {
                    "name": "E4",
                    "midi": 64,
                    "time": 399.6875,
                    "velocity": 0.7952755905511811,
                    "duration": 0.3125
                },
                {
                    "name": "E5",
                    "midi": 76,
                    "time": 399.6875,
                    "velocity": 0.7952755905511811,
                    "duration": 0.3125
                },
                {
                    "name": "E3",
                    "midi": 52,
                    "time": 400,
                    "velocity": 1,
                    "duration": 0.3125
                },
                {
                    "name": "E4",
                    "midi": 64,
                    "time": 400,
                    "velocity": 1,
                    "duration": 0.3125
                },
                {
                    "name": "A4",
                    "midi": 69,
                    "time": 400.625,
                    "velocity": 0.7952755905511811,
                    "duration": 0.3125
                },
                {
                    "name": "A5",
                    "midi": 81,
                    "time": 400.625,
                    "velocity": 0.7952755905511811,
                    "duration": 0.3125
                },
                {
                    "name": "E5",
                    "midi": 76,
                    "time": 400.9375,
                    "velocity": 0.7952755905511811,
                    "duration": 0.3125
                },
                {
                    "name": "E6",
                    "midi": 88,
                    "time": 400.9375,
                    "velocity": 0.7952755905511811,
                    "duration": 0.3125
                },
                {
                    "name": "E4",
                    "midi": 64,
                    "time": 401.25,
                    "velocity": 0.7952755905511811,
                    "duration": 0.3125
                },
                {
                    "name": "E5",
                    "midi": 76,
                    "time": 401.25,
                    "velocity": 0.7952755905511811,
                    "duration": 0.3125
                },
                {
                    "name": "A4",
                    "midi": 69,
                    "time": 401.5625,
                    "velocity": 0.7952755905511811,
                    "duration": 0.3125
                },
                {
                    "name": "A5",
                    "midi": 81,
                    "time": 401.5625,
                    "velocity": 0.7952755905511811,
                    "duration": 0.3125
                },
                {
                    "name": "A3",
                    "midi": 57,
                    "time": 401.875,
                    "velocity": 1,
                    "duration": 0.3125
                },
                {
                    "name": "A4",
                    "midi": 69,
                    "time": 401.875,
                    "velocity": 1,
                    "duration": 0.3125
                },
                {
                    "name": "E4",
                    "midi": 64,
                    "time": 402.1875,
                    "velocity": 1,
                    "duration": 0.3125
                },
                {
                    "name": "E5",
                    "midi": 76,
                    "time": 402.1875,
                    "velocity": 1,
                    "duration": 0.3125
                },
                {
                    "name": "A4",
                    "midi": 69,
                    "time": 402.8125,
                    "velocity": 0.7952755905511811,
                    "duration": 0.3125
                },
                {
                    "name": "A5",
                    "midi": 81,
                    "time": 402.8125,
                    "velocity": 0.7952755905511811,
                    "duration": 0.3125
                },
                {
                    "name": "E5",
                    "midi": 76,
                    "time": 403.125,
                    "velocity": 0.7952755905511811,
                    "duration": 0.3125
                },
                {
                    "name": "E6",
                    "midi": 88,
                    "time": 403.125,
                    "velocity": 0.7952755905511811,
                    "duration": 0.3125
                },
                {
                    "name": "E4",
                    "midi": 64,
                    "time": 403.4375,
                    "velocity": 0.7952755905511811,
                    "duration": 0.3125
                },
                {
                    "name": "E5",
                    "midi": 76,
                    "time": 403.4375,
                    "velocity": 0.7952755905511811,
                    "duration": 0.3125
                },
                {
                    "name": "A4",
                    "midi": 69,
                    "time": 403.75,
                    "velocity": 0.7952755905511811,
                    "duration": 0.3125
                },
                {
                    "name": "A5",
                    "midi": 81,
                    "time": 403.75,
                    "velocity": 0.7952755905511811,
                    "duration": 0.3125
                },
                {
                    "name": "A3",
                    "midi": 57,
                    "time": 404.0625,
                    "velocity": 1,
                    "duration": 0.3125
                },
                {
                    "name": "A4",
                    "midi": 69,
                    "time": 404.0625,
                    "velocity": 1,
                    "duration": 0.3125
                },
                {
                    "name": "A4",
                    "midi": 69,
                    "time": 404.6875,
                    "velocity": 0.7952755905511811,
                    "duration": 0.3125
                },
                {
                    "name": "A5",
                    "midi": 81,
                    "time": 404.6875,
                    "velocity": 0.7952755905511811,
                    "duration": 0.3125
                },
                {
                    "name": "E5",
                    "midi": 76,
                    "time": 405,
                    "velocity": 0.7952755905511811,
                    "duration": 0.3125
                },
                {
                    "name": "E6",
                    "midi": 88,
                    "time": 405,
                    "velocity": 0.7952755905511811,
                    "duration": 0.3125
                },
                {
                    "name": "E4",
                    "midi": 64,
                    "time": 405.3125,
                    "velocity": 0.7952755905511811,
                    "duration": 0.3125
                },
                {
                    "name": "E5",
                    "midi": 76,
                    "time": 405.3125,
                    "velocity": 0.7952755905511811,
                    "duration": 0.3125
                },
                {
                    "name": "A4",
                    "midi": 69,
                    "time": 405.625,
                    "velocity": 1,
                    "duration": 0.3125
                },
                {
                    "name": "A5",
                    "midi": 81,
                    "time": 405.625,
                    "velocity": 1,
                    "duration": 0.3125
                },
                {
                    "name": "A4",
                    "midi": 69,
                    "time": 406.25,
                    "velocity": 0.7952755905511811,
                    "duration": 0.3125
                },
                {
                    "name": "A5",
                    "midi": 81,
                    "time": 406.25,
                    "velocity": 0.7952755905511811,
                    "duration": 0.3125
                },
                {
                    "name": "E5",
                    "midi": 76,
                    "time": 406.5625,
                    "velocity": 0.7952755905511811,
                    "duration": 0.3125
                },
                {
                    "name": "E6",
                    "midi": 88,
                    "time": 406.5625,
                    "velocity": 0.7952755905511811,
                    "duration": 0.3125
                },
                {
                    "name": "E4",
                    "midi": 64,
                    "time": 406.875,
                    "velocity": 1,
                    "duration": 0.3125
                },
                {
                    "name": "E5",
                    "midi": 76,
                    "time": 406.875,
                    "velocity": 1,
                    "duration": 0.3125
                },
                {
                    "name": "A4",
                    "midi": 69,
                    "time": 407.5,
                    "velocity": 0.7952755905511811,
                    "duration": 0.3125
                },
                {
                    "name": "A5",
                    "midi": 81,
                    "time": 407.5,
                    "velocity": 0.7952755905511811,
                    "duration": 0.3125
                },
                {
                    "name": "E5",
                    "midi": 76,
                    "time": 407.8125,
                    "velocity": 1,
                    "duration": 0.3125
                },
                {
                    "name": "E6",
                    "midi": 88,
                    "time": 407.8125,
                    "velocity": 1,
                    "duration": 0.3125
                },
                {
                    "name": "A4",
                    "midi": 69,
                    "time": 408.4375,
                    "velocity": 0.7952755905511811,
                    "duration": 0.3125
                },
                {
                    "name": "A5",
                    "midi": 81,
                    "time": 408.4375,
                    "velocity": 0.7952755905511811,
                    "duration": 0.3125
                },
                {
                    "name": "E5",
                    "midi": 76,
                    "time": 408.75,
                    "velocity": 1,
                    "duration": 0.3125
                },
                {
                    "name": "E6",
                    "midi": 88,
                    "time": 408.75,
                    "velocity": 1,
                    "duration": 0.3125
                },
                {
                    "name": "A4",
                    "midi": 69,
                    "time": 409.375,
                    "velocity": 0.7952755905511811,
                    "duration": 0.3125
                },
                {
                    "name": "A5",
                    "midi": 81,
                    "time": 409.375,
                    "velocity": 0.7952755905511811,
                    "duration": 0.3125
                },
                {
                    "name": "E5",
                    "midi": 76,
                    "time": 409.6875,
                    "velocity": 1,
                    "duration": 0.3125
                },
                {
                    "name": "E6",
                    "midi": 88,
                    "time": 409.6875,
                    "velocity": 1,
                    "duration": 0.3125
                },
                {
                    "name": "E5",
                    "midi": 76,
                    "time": 410.3125,
                    "velocity": 0.7952755905511811,
                    "duration": 0.061197916666685614
                },
                {
                    "name": "E5",
                    "midi": 76,
                    "time": 410.625,
                    "velocity": 1,
                    "duration": 0.3125
                },
                {
                    "name": "E5",
                    "midi": 76,
                    "time": 411.25,
                    "velocity": 1,
                    "duration": 0.061197916666685614
                },
                {
                    "name": "G5",
                    "midi": 79,
                    "time": 411.5625,
                    "velocity": 1,
                    "duration": 0.061197916666685614
                },
                {
                    "name": "G5",
                    "midi": 79,
                    "time": 412.1875,
                    "velocity": 0.7952755905511811,
                    "duration": 0.061197916666685614
                },
                {
                    "name": "D5",
                    "midi": 74,
                    "time": 412.5,
                    "velocity": 1,
                    "duration": 0.061197916666685614
                },
                {
                    "name": "D5",
                    "midi": 74,
                    "time": 413.125,
                    "velocity": 0.7952755905511811,
                    "duration": 0.061197916666685614
                },
                {
                    "name": "F5",
                    "midi": 77,
                    "time": 413.4375,
                    "velocity": 1,
                    "duration": 0.061197916666685614
                },
                {
                    "name": "F5",
                    "midi": 77,
                    "time": 414.0625,
                    "velocity": 0.7952755905511811,
                    "duration": 0.061197916666685614
                },
                {
                    "name": "C#6",
                    "midi": 85,
                    "time": 414.375,
                    "velocity": 1,
                    "duration": 0.061197916666685614
                },
                {
                    "name": "C6",
                    "midi": 84,
                    "time": 415,
                    "velocity": 0.7952755905511811,
                    "duration": 0.061197916666685614
                },
                {
                    "name": "B4",
                    "midi": 71,
                    "time": 415.3125,
                    "velocity": 1,
                    "duration": 0.061197916666685614
                },
                {
                    "name": "B4",
                    "midi": 71,
                    "time": 415.9375,
                    "velocity": 0.7952755905511811,
                    "duration": 0.061197916666685614
                },
                {
                    "name": "A#5",
                    "midi": 82,
                    "time": 416.25,
                    "velocity": 1,
                    "duration": 0.061197916666685614
                },
                {
                    "name": "A#5",
                    "midi": 82,
                    "time": 416.875,
                    "velocity": 0.7952755905511811,
                    "duration": 0.061197916666685614
                },
                {
                    "name": "A4",
                    "midi": 69,
                    "time": 417.1875,
                    "velocity": 1,
                    "duration": 0.061197916666685614
                },
                {
                    "name": "A4",
                    "midi": 69,
                    "time": 417.8125,
                    "velocity": 0.7952755905511811,
                    "duration": 0.061197916666685614
                },
                {
                    "name": "A5",
                    "midi": 81,
                    "time": 418.125,
                    "velocity": 1,
                    "duration": 0.061197916666685614
                },
                {
                    "name": "A5",
                    "midi": 81,
                    "time": 418.75,
                    "velocity": 0.7952755905511811,
                    "duration": 0.061197916666685614
                },
                {
                    "name": "G4",
                    "midi": 67,
                    "time": 419.0625,
                    "velocity": 1,
                    "duration": 0.061197916666685614
                },
                {
                    "name": "G4",
                    "midi": 67,
                    "time": 419.6875,
                    "velocity": 0.7952755905511811,
                    "duration": 0.061197916666685614
                },
                {
                    "name": "G4",
                    "midi": 67,
                    "time": 420,
                    "velocity": 1,
                    "duration": 0.061197916666685614
                },
                {
                    "name": "G4",
                    "midi": 67,
                    "time": 420.625,
                    "velocity": 0.7952755905511811,
                    "duration": 0.061197916666685614
                },
                {
                    "name": "G4",
                    "midi": 67,
                    "time": 420.9375,
                    "velocity": 1,
                    "duration": 0.061197916666685614
                },
                {
                    "name": "G4",
                    "midi": 67,
                    "time": 421.5625,
                    "velocity": 0.7952755905511811,
                    "duration": 0.061197916666685614
                },
                {
                    "name": "G4",
                    "midi": 67,
                    "time": 421.875,
                    "velocity": 1,
                    "duration": 0.061197916666685614
                },
                {
                    "name": "F5",
                    "midi": 77,
                    "time": 422.5,
                    "velocity": 0.7952755905511811,
                    "duration": 0.625
                },
                {
                    "name": "F6",
                    "midi": 89,
                    "time": 422.5,
                    "velocity": 0.7952755905511811,
                    "duration": 0.625
                },
                {
                    "name": "E5",
                    "midi": 76,
                    "time": 423.125,
                    "velocity": 0.7952755905511811,
                    "duration": 0.3125
                },
                {
                    "name": "E6",
                    "midi": 88,
                    "time": 423.125,
                    "velocity": 0.7952755905511811,
                    "duration": 0.3125
                },
                {
                    "name": "D5",
                    "midi": 74,
                    "time": 423.4375,
                    "velocity": 0.7952755905511811,
                    "duration": 0.625
                },
                {
                    "name": "D6",
                    "midi": 86,
                    "time": 423.4375,
                    "velocity": 0.7952755905511811,
                    "duration": 0.625
                },
                {
                    "name": "C5",
                    "midi": 72,
                    "time": 424.0625,
                    "velocity": 0.7952755905511811,
                    "duration": 0.3125
                },
                {
                    "name": "C6",
                    "midi": 84,
                    "time": 424.0625,
                    "velocity": 0.7952755905511811,
                    "duration": 0.3125
                },
                {
                    "name": "B4",
                    "midi": 71,
                    "time": 424.375,
                    "velocity": 0.7952755905511811,
                    "duration": 0.625
                },
                {
                    "name": "B5",
                    "midi": 83,
                    "time": 424.375,
                    "velocity": 0.7952755905511811,
                    "duration": 0.625
                },
                {
                    "name": "A4",
                    "midi": 69,
                    "time": 425,
                    "velocity": 0.7952755905511811,
                    "duration": 0.3125
                },
                {
                    "name": "A5",
                    "midi": 81,
                    "time": 425,
                    "velocity": 0.7952755905511811,
                    "duration": 0.3125
                },
                {
                    "name": "G4",
                    "midi": 67,
                    "time": 425.3125,
                    "velocity": 0.7952755905511811,
                    "duration": 0.625
                },
                {
                    "name": "G5",
                    "midi": 79,
                    "time": 425.3125,
                    "velocity": 0.7952755905511811,
                    "duration": 0.625
                },
                {
                    "name": "F4",
                    "midi": 65,
                    "time": 425.9375,
                    "velocity": 0.7952755905511811,
                    "duration": 0.3125
                },
                {
                    "name": "F5",
                    "midi": 77,
                    "time": 425.9375,
                    "velocity": 0.7952755905511811,
                    "duration": 0.3125
                },
                {
                    "name": "E4",
                    "midi": 64,
                    "time": 426.25,
                    "velocity": 0.7952755905511811,
                    "duration": 0.625
                },
                {
                    "name": "E5",
                    "midi": 76,
                    "time": 426.25,
                    "velocity": 0.7952755905511811,
                    "duration": 0.625
                },
                {
                    "name": "D4",
                    "midi": 62,
                    "time": 426.875,
                    "velocity": 0.7952755905511811,
                    "duration": 0.3125
                },
                {
                    "name": "D5",
                    "midi": 74,
                    "time": 426.875,
                    "velocity": 0.7952755905511811,
                    "duration": 0.3125
                },
                {
                    "name": "C4",
                    "midi": 60,
                    "time": 427.1875,
                    "velocity": 0.7952755905511811,
                    "duration": 0.625
                },
                {
                    "name": "C5",
                    "midi": 72,
                    "time": 427.1875,
                    "velocity": 0.7952755905511811,
                    "duration": 0.625
                },
                {
                    "name": "B3",
                    "midi": 59,
                    "time": 427.8125,
                    "velocity": 0.7952755905511811,
                    "duration": 0.3125
                },
                {
                    "name": "B4",
                    "midi": 71,
                    "time": 427.8125,
                    "velocity": 0.7952755905511811,
                    "duration": 0.3125
                },
                {
                    "name": "A3",
                    "midi": 57,
                    "time": 428.125,
                    "velocity": 0.7952755905511811,
                    "duration": 0.625
                },
                {
                    "name": "A4",
                    "midi": 69,
                    "time": 428.125,
                    "velocity": 0.7952755905511811,
                    "duration": 0.625
                },
                {
                    "name": "C4",
                    "midi": 60,
                    "time": 429.0625,
                    "velocity": 0.5905511811023622,
                    "duration": 0.061197916666685614
                },
                {
                    "name": "E4",
                    "midi": 64,
                    "time": 429.0625,
                    "velocity": 0.5905511811023622,
                    "duration": 0.061197916666685614
                },
                {
                    "name": "G4",
                    "midi": 67,
                    "time": 429.0625,
                    "velocity": 0.5905511811023622,
                    "duration": 0.061197916666685614
                },
                {
                    "name": "C4",
                    "midi": 60,
                    "time": 429.375,
                    "velocity": 0.7952755905511811,
                    "duration": 0.061197916666685614
                },
                {
                    "name": "E4",
                    "midi": 64,
                    "time": 429.375,
                    "velocity": 0.7952755905511811,
                    "duration": 0.061197916666685614
                },
                {
                    "name": "A4",
                    "midi": 69,
                    "time": 429.375,
                    "velocity": 0.7952755905511811,
                    "duration": 0.061197916666685614
                },
                {
                    "name": "C4",
                    "midi": 60,
                    "time": 430,
                    "velocity": 0.5905511811023622,
                    "duration": 0.061197916666685614
                },
                {
                    "name": "E4",
                    "midi": 64,
                    "time": 430,
                    "velocity": 0.5905511811023622,
                    "duration": 0.061197916666685614
                },
                {
                    "name": "A#4",
                    "midi": 70,
                    "time": 430,
                    "velocity": 0.5905511811023622,
                    "duration": 0.061197916666685614
                },
                {
                    "name": "C#4",
                    "midi": 61,
                    "time": 430.3125,
                    "velocity": 0.7952755905511811,
                    "duration": 0.061197916666685614
                },
                {
                    "name": "G4",
                    "midi": 67,
                    "time": 430.3125,
                    "velocity": 0.7952755905511811,
                    "duration": 0.061197916666685614
                },
                {
                    "name": "C5",
                    "midi": 72,
                    "time": 430.3125,
                    "velocity": 0.7952755905511811,
                    "duration": 0.061197916666685614
                },
                {
                    "name": "C#4",
                    "midi": 61,
                    "time": 430.9375,
                    "velocity": 0.5905511811023622,
                    "duration": 0.061197916666685614
                },
                {
                    "name": "G4",
                    "midi": 67,
                    "time": 430.9375,
                    "velocity": 0.5905511811023622,
                    "duration": 0.061197916666685614
                },
                {
                    "name": "A#4",
                    "midi": 70,
                    "time": 430.9375,
                    "velocity": 0.5905511811023622,
                    "duration": 0.061197916666685614
                },
                {
                    "name": "C4",
                    "midi": 60,
                    "time": 431.25,
                    "velocity": 0.7952755905511811,
                    "duration": 0.061197916666685614
                },
                {
                    "name": "E4",
                    "midi": 64,
                    "time": 431.25,
                    "velocity": 0.7952755905511811,
                    "duration": 0.061197916666685614
                },
                {
                    "name": "A4",
                    "midi": 69,
                    "time": 431.25,
                    "velocity": 0.7952755905511811,
                    "duration": 0.061197916666685614
                },
                {
                    "name": "C4",
                    "midi": 60,
                    "time": 431.875,
                    "velocity": 0.5905511811023622,
                    "duration": 0.061197916666685614
                },
                {
                    "name": "F4",
                    "midi": 65,
                    "time": 431.875,
                    "velocity": 0.5905511811023622,
                    "duration": 0.061197916666685614
                },
                {
                    "name": "A4",
                    "midi": 69,
                    "time": 431.875,
                    "velocity": 0.5905511811023622,
                    "duration": 0.061197916666685614
                },
                {
                    "name": "C4",
                    "midi": 60,
                    "time": 432.1875,
                    "velocity": 0.7952755905511811,
                    "duration": 0.061197916666685614
                },
                {
                    "name": "G4",
                    "midi": 67,
                    "time": 432.1875,
                    "velocity": 0.7952755905511811,
                    "duration": 0.061197916666685614
                },
                {
                    "name": "G#4",
                    "midi": 68,
                    "time": 432.1875,
                    "velocity": 0.7952755905511811,
                    "duration": 0.061197916666685614
                },
                {
                    "name": "C4",
                    "midi": 60,
                    "time": 432.8125,
                    "velocity": 0.5905511811023622,
                    "duration": 0.061197916666685614
                },
                {
                    "name": "D4",
                    "midi": 62,
                    "time": 432.8125,
                    "velocity": 0.5905511811023622,
                    "duration": 0.061197916666685614
                },
                {
                    "name": "G4",
                    "midi": 67,
                    "time": 432.8125,
                    "velocity": 0.5905511811023622,
                    "duration": 0.061197916666685614
                },
                {
                    "name": "A3",
                    "midi": 57,
                    "time": 433.125,
                    "velocity": 0.7952755905511811,
                    "duration": 0.061197916666685614
                },
                {
                    "name": "D#4",
                    "midi": 63,
                    "time": 433.125,
                    "velocity": 0.7952755905511811,
                    "duration": 0.061197916666685614
                },
                {
                    "name": "G4",
                    "midi": 67,
                    "time": 433.125,
                    "velocity": 0.7952755905511811,
                    "duration": 0.061197916666685614
                },
                {
                    "name": "C4",
                    "midi": 60,
                    "time": 433.75,
                    "velocity": 0.5905511811023622,
                    "duration": 0.061197916666685614
                },
                {
                    "name": "E4",
                    "midi": 64,
                    "time": 433.75,
                    "velocity": 0.5905511811023622,
                    "duration": 0.061197916666685614
                },
                {
                    "name": "G4",
                    "midi": 67,
                    "time": 433.75,
                    "velocity": 0.5905511811023622,
                    "duration": 0.061197916666685614
                },
                {
                    "name": "C4",
                    "midi": 60,
                    "time": 434.0625,
                    "velocity": 0.7952755905511811,
                    "duration": 0.061197916666685614
                },
                {
                    "name": "E4",
                    "midi": 64,
                    "time": 434.0625,
                    "velocity": 0.7952755905511811,
                    "duration": 0.061197916666685614
                },
                {
                    "name": "G4",
                    "midi": 67,
                    "time": 434.0625,
                    "velocity": 0.7952755905511811,
                    "duration": 0.061197916666685614
                },
                {
                    "name": "C4",
                    "midi": 60,
                    "time": 434.6875,
                    "velocity": 0.5905511811023622,
                    "duration": 0.061197916666685614
                },
                {
                    "name": "F#4",
                    "midi": 66,
                    "time": 434.6875,
                    "velocity": 0.5905511811023622,
                    "duration": 0.061197916666685614
                },
                {
                    "name": "B4",
                    "midi": 71,
                    "time": 434.6875,
                    "velocity": 0.5905511811023622,
                    "duration": 0.061197916666685614
                },
                {
                    "name": "C4",
                    "midi": 60,
                    "time": 435,
                    "velocity": 0.7952755905511811,
                    "duration": 0.061197916666685614
                },
                {
                    "name": "F#4",
                    "midi": 66,
                    "time": 435,
                    "velocity": 0.7952755905511811,
                    "duration": 0.061197916666685614
                },
                {
                    "name": "B4",
                    "midi": 71,
                    "time": 435,
                    "velocity": 0.7952755905511811,
                    "duration": 0.061197916666685614
                },
                {
                    "name": "B3",
                    "midi": 59,
                    "time": 435.625,
                    "velocity": 0.5905511811023622,
                    "duration": 0.061197916666685614
                },
                {
                    "name": "F4",
                    "midi": 65,
                    "time": 435.625,
                    "velocity": 0.5905511811023622,
                    "duration": 0.061197916666685614
                },
                {
                    "name": "C#5",
                    "midi": 73,
                    "time": 435.625,
                    "velocity": 0.5905511811023622,
                    "duration": 0.061197916666685614
                },
                {
                    "name": "B3",
                    "midi": 59,
                    "time": 435.9375,
                    "velocity": 0.7952755905511811,
                    "duration": 0.061197916666685614
                },
                {
                    "name": "F4",
                    "midi": 65,
                    "time": 435.9375,
                    "velocity": 0.7952755905511811,
                    "duration": 0.061197916666685614
                },
                {
                    "name": "C#5",
                    "midi": 73,
                    "time": 435.9375,
                    "velocity": 0.7952755905511811,
                    "duration": 0.061197916666685614
                },
                {
                    "name": "A#3",
                    "midi": 58,
                    "time": 436.5625,
                    "velocity": 0.5905511811023622,
                    "duration": 0.061197916666685614
                },
                {
                    "name": "E4",
                    "midi": 64,
                    "time": 436.5625,
                    "velocity": 0.5905511811023622,
                    "duration": 0.061197916666685614
                },
                {
                    "name": "A4",
                    "midi": 69,
                    "time": 436.5625,
                    "velocity": 0.5905511811023622,
                    "duration": 0.061197916666685614
                },
                {
                    "name": "A#3",
                    "midi": 58,
                    "time": 436.875,
                    "velocity": 0.7952755905511811,
                    "duration": 0.061197916666685614
                },
                {
                    "name": "E4",
                    "midi": 64,
                    "time": 436.875,
                    "velocity": 0.7952755905511811,
                    "duration": 0.061197916666685614
                },
                {
                    "name": "A4",
                    "midi": 69,
                    "time": 436.875,
                    "velocity": 0.7952755905511811,
                    "duration": 0.061197916666685614
                },
                {
                    "name": "A3",
                    "midi": 57,
                    "time": 437.5,
                    "velocity": 0.5905511811023622,
                    "duration": 0.061197916666685614
                },
                {
                    "name": "D#4",
                    "midi": 63,
                    "time": 437.5,
                    "velocity": 0.5905511811023622,
                    "duration": 0.061197916666685614
                },
                {
                    "name": "B4",
                    "midi": 71,
                    "time": 437.5,
                    "velocity": 0.5905511811023622,
                    "duration": 0.061197916666685614
                },
                {
                    "name": "A3",
                    "midi": 57,
                    "time": 437.8125,
                    "velocity": 0.7952755905511811,
                    "duration": 0.061197916666685614
                },
                {
                    "name": "D#4",
                    "midi": 63,
                    "time": 437.8125,
                    "velocity": 0.7952755905511811,
                    "duration": 0.061197916666685614
                },
                {
                    "name": "B4",
                    "midi": 71,
                    "time": 437.8125,
                    "velocity": 0.7952755905511811,
                    "duration": 0.061197916666685614
                },
                {
                    "name": "A3",
                    "midi": 57,
                    "time": 438.4375,
                    "velocity": 0.5905511811023622,
                    "duration": 0.061197916666685614
                },
                {
                    "name": "C4",
                    "midi": 60,
                    "time": 438.4375,
                    "velocity": 0.5905511811023622,
                    "duration": 0.061197916666685614
                },
                {
                    "name": "F4",
                    "midi": 65,
                    "time": 438.4375,
                    "velocity": 0.5905511811023622,
                    "duration": 0.061197916666685614
                },
                {
                    "name": "G3",
                    "midi": 55,
                    "time": 438.75,
                    "velocity": 0.5905511811023622,
                    "duration": 0.3125
                },
                {
                    "name": "C4",
                    "midi": 60,
                    "time": 438.75,
                    "velocity": 0.5905511811023622,
                    "duration": 0.3125
                },
                {
                    "name": "G4",
                    "midi": 67,
                    "time": 438.75,
                    "velocity": 0.5905511811023622,
                    "duration": 0.3125
                },
                {
                    "name": "C4",
                    "midi": 60,
                    "time": 439.375,
                    "velocity": 0.5905511811023622,
                    "duration": 0.3125
                },
                {
                    "name": "E4",
                    "midi": 64,
                    "time": 439.375,
                    "velocity": 0.5905511811023622,
                    "duration": 0.3125
                },
                {
                    "name": "A4",
                    "midi": 69,
                    "time": 439.375,
                    "velocity": 0.5905511811023622,
                    "duration": 0.3125
                },
                {
                    "name": "C4",
                    "midi": 60,
                    "time": 439.6875,
                    "velocity": 0.5905511811023622,
                    "duration": 0.3125
                },
                {
                    "name": "E4",
                    "midi": 64,
                    "time": 439.6875,
                    "velocity": 0.5905511811023622,
                    "duration": 0.3125
                },
                {
                    "name": "A#4",
                    "midi": 70,
                    "time": 439.6875,
                    "velocity": 0.5905511811023622,
                    "duration": 0.3125
                },
                {
                    "name": "C#4",
                    "midi": 61,
                    "time": 440.3125,
                    "velocity": 0.5905511811023622,
                    "duration": 0.3125
                },
                {
                    "name": "G4",
                    "midi": 67,
                    "time": 440.3125,
                    "velocity": 0.5905511811023622,
                    "duration": 0.3125
                },
                {
                    "name": "C5",
                    "midi": 72,
                    "time": 440.3125,
                    "velocity": 0.5905511811023622,
                    "duration": 0.3125
                },
                {
                    "name": "C#4",
                    "midi": 61,
                    "time": 440.625,
                    "velocity": 0.5905511811023622,
                    "duration": 0.3125
                },
                {
                    "name": "G4",
                    "midi": 67,
                    "time": 440.625,
                    "velocity": 0.5905511811023622,
                    "duration": 0.3125
                },
                {
                    "name": "A#4",
                    "midi": 70,
                    "time": 440.625,
                    "velocity": 0.5905511811023622,
                    "duration": 0.3125
                },
                {
                    "name": "C4",
                    "midi": 60,
                    "time": 441.25,
                    "velocity": 0.5905511811023622,
                    "duration": 0.3125
                },
                {
                    "name": "E4",
                    "midi": 64,
                    "time": 441.25,
                    "velocity": 0.5905511811023622,
                    "duration": 0.3125
                },
                {
                    "name": "A4",
                    "midi": 69,
                    "time": 441.25,
                    "velocity": 0.5905511811023622,
                    "duration": 0.3125
                },
                {
                    "name": "C4",
                    "midi": 60,
                    "time": 441.5625,
                    "velocity": 0.5905511811023622,
                    "duration": 0.3125
                },
                {
                    "name": "E4",
                    "midi": 64,
                    "time": 441.5625,
                    "velocity": 0.5905511811023622,
                    "duration": 0.3125
                },
                {
                    "name": "A4",
                    "midi": 69,
                    "time": 441.5625,
                    "velocity": 0.5905511811023622,
                    "duration": 0.3125
                },
                {
                    "name": "C4",
                    "midi": 60,
                    "time": 442.1875,
                    "velocity": 0.5905511811023622,
                    "duration": 0.3125
                },
                {
                    "name": "G4",
                    "midi": 67,
                    "time": 442.1875,
                    "velocity": 0.5905511811023622,
                    "duration": 0.3125
                },
                {
                    "name": "G#4",
                    "midi": 68,
                    "time": 442.1875,
                    "velocity": 0.5905511811023622,
                    "duration": 0.3125
                },
                {
                    "name": "C4",
                    "midi": 60,
                    "time": 442.5,
                    "velocity": 0.5905511811023622,
                    "duration": 0.3125
                },
                {
                    "name": "F#4",
                    "midi": 66,
                    "time": 442.5,
                    "velocity": 0.5905511811023622,
                    "duration": 0.3125
                },
                {
                    "name": "G#4",
                    "midi": 68,
                    "time": 442.5,
                    "velocity": 0.5905511811023622,
                    "duration": 0.3125
                },
                {
                    "name": "C4",
                    "midi": 60,
                    "time": 443.125,
                    "velocity": 0.5905511811023622,
                    "duration": 0.3125
                },
                {
                    "name": "D4",
                    "midi": 62,
                    "time": 443.125,
                    "velocity": 0.5905511811023622,
                    "duration": 0.3125
                },
                {
                    "name": "G4",
                    "midi": 67,
                    "time": 443.125,
                    "velocity": 0.5905511811023622,
                    "duration": 0.3125
                },
                {
                    "name": "C4",
                    "midi": 60,
                    "time": 443.4375,
                    "velocity": 0.5905511811023622,
                    "duration": 0.3125
                },
                {
                    "name": "D4",
                    "midi": 62,
                    "time": 443.4375,
                    "velocity": 0.5905511811023622,
                    "duration": 0.3125
                },
                {
                    "name": "G4",
                    "midi": 67,
                    "time": 443.4375,
                    "velocity": 0.5905511811023622,
                    "duration": 0.3125
                },
                {
                    "name": "G4",
                    "midi": 67,
                    "time": 444.0625,
                    "velocity": 0.5905511811023622,
                    "duration": 0.625
                },
                {
                    "name": "E4",
                    "midi": 64,
                    "time": 445,
                    "velocity": 0.5905511811023622,
                    "duration": 0.625
                },
                {
                    "name": "B3",
                    "midi": 59,
                    "time": 445.9375,
                    "velocity": 0.5905511811023622,
                    "duration": 0.3125
                },
                {
                    "name": "C4",
                    "midi": 60,
                    "time": 445.9375,
                    "velocity": 0.5905511811023622,
                    "duration": 0.3125
                },
                {
                    "name": "A3",
                    "midi": 57,
                    "time": 446.25,
                    "velocity": 0.5905511811023622,
                    "duration": 0.3125
                },
                {
                    "name": "C4",
                    "midi": 60,
                    "time": 446.25,
                    "velocity": 0.5905511811023622,
                    "duration": 0.3125
                },
                {
                    "name": "A3",
                    "midi": 57,
                    "time": 446.875,
                    "velocity": 0.5905511811023622,
                    "duration": 0.625
                },
                {
                    "name": "C4",
                    "midi": 60,
                    "time": 448.75,
                    "velocity": 0.5905511811023622,
                    "duration": 0.3125
                },
                {
                    "name": "F4",
                    "midi": 65,
                    "time": 448.75,
                    "velocity": 0.5905511811023622,
                    "duration": 0.3125
                },
                {
                    "name": "A#4",
                    "midi": 70,
                    "time": 448.75,
                    "velocity": 0.5905511811023622,
                    "duration": 0.3125
                },
                {
                    "name": "C4",
                    "midi": 60,
                    "time": 449.0625,
                    "velocity": 0.5905511811023622,
                    "duration": 0.3125
                },
                {
                    "name": "F4",
                    "midi": 65,
                    "time": 449.0625,
                    "velocity": 0.5905511811023622,
                    "duration": 0.3125
                },
                {
                    "name": "A4",
                    "midi": 69,
                    "time": 449.0625,
                    "velocity": 0.5905511811023622,
                    "duration": 0.3125
                },
                {
                    "name": "A3",
                    "midi": 57,
                    "time": 449.6875,
                    "velocity": 0.5905511811023622,
                    "duration": 0.3125
                },
                {
                    "name": "C4",
                    "midi": 60,
                    "time": 449.6875,
                    "velocity": 0.5905511811023622,
                    "duration": 0.3125
                },
                {
                    "name": "G4",
                    "midi": 67,
                    "time": 449.6875,
                    "velocity": 0.5905511811023622,
                    "duration": 0.3125
                },
                {
                    "name": "G#3",
                    "midi": 56,
                    "time": 450,
                    "velocity": 0.5905511811023622,
                    "duration": 0.3125
                },
                {
                    "name": "C4",
                    "midi": 60,
                    "time": 450,
                    "velocity": 0.5905511811023622,
                    "duration": 0.3125
                },
                {
                    "name": "G4",
                    "midi": 67,
                    "time": 450,
                    "velocity": 0.5905511811023622,
                    "duration": 0.3125
                },
                {
                    "name": "C4",
                    "midi": 60,
                    "time": 450.625,
                    "velocity": 0.5905511811023622,
                    "duration": 0.3125
                },
                {
                    "name": "F4",
                    "midi": 65,
                    "time": 450.625,
                    "velocity": 0.5905511811023622,
                    "duration": 0.3125
                },
                {
                    "name": "A#4",
                    "midi": 70,
                    "time": 450.625,
                    "velocity": 0.5905511811023622,
                    "duration": 0.3125
                },
                {
                    "name": "C4",
                    "midi": 60,
                    "time": 450.9375,
                    "velocity": 0.5905511811023622,
                    "duration": 0.3125
                },
                {
                    "name": "F4",
                    "midi": 65,
                    "time": 450.9375,
                    "velocity": 0.5905511811023622,
                    "duration": 0.3125
                },
                {
                    "name": "G#4",
                    "midi": 68,
                    "time": 450.9375,
                    "velocity": 0.5905511811023622,
                    "duration": 0.3125
                },
                {
                    "name": "C4",
                    "midi": 60,
                    "time": 451.5625,
                    "velocity": 0.5905511811023622,
                    "duration": 0.3125
                },
                {
                    "name": "G4",
                    "midi": 67,
                    "time": 451.5625,
                    "velocity": 0.5905511811023622,
                    "duration": 0.3125
                },
                {
                    "name": "A4",
                    "midi": 69,
                    "time": 451.5625,
                    "velocity": 0.5905511811023622,
                    "duration": 0.3125
                },
                {
                    "name": "C4",
                    "midi": 60,
                    "time": 451.875,
                    "velocity": 0.5905511811023622,
                    "duration": 0.3125
                },
                {
                    "name": "G4",
                    "midi": 67,
                    "time": 451.875,
                    "velocity": 0.5905511811023622,
                    "duration": 0.3125
                },
                {
                    "name": "A4",
                    "midi": 69,
                    "time": 451.875,
                    "velocity": 0.5905511811023622,
                    "duration": 0.3125
                },
                {
                    "name": "C4",
                    "midi": 60,
                    "time": 452.5,
                    "velocity": 0.5905511811023622,
                    "duration": 0.3125
                },
                {
                    "name": "F#4",
                    "midi": 66,
                    "time": 452.5,
                    "velocity": 0.5905511811023622,
                    "duration": 0.3125
                },
                {
                    "name": "A#4",
                    "midi": 70,
                    "time": 452.5,
                    "velocity": 0.5905511811023622,
                    "duration": 0.3125
                },
                {
                    "name": "C4",
                    "midi": 60,
                    "time": 452.8125,
                    "velocity": 0.5905511811023622,
                    "duration": 0.3125
                },
                {
                    "name": "F#4",
                    "midi": 66,
                    "time": 452.8125,
                    "velocity": 0.5905511811023622,
                    "duration": 0.3125
                },
                {
                    "name": "A#4",
                    "midi": 70,
                    "time": 452.8125,
                    "velocity": 0.5905511811023622,
                    "duration": 0.3125
                },
                {
                    "name": "B3",
                    "midi": 59,
                    "time": 453.4375,
                    "velocity": 0.5905511811023622,
                    "duration": 0.3125
                },
                {
                    "name": "F4",
                    "midi": 65,
                    "time": 453.4375,
                    "velocity": 0.5905511811023622,
                    "duration": 0.3125
                },
                {
                    "name": "A4",
                    "midi": 69,
                    "time": 453.4375,
                    "velocity": 0.5905511811023622,
                    "duration": 0.3125
                },
                {
                    "name": "C4",
                    "midi": 60,
                    "time": 453.75,
                    "velocity": 0.5905511811023622,
                    "duration": 0.3125
                },
                {
                    "name": "F#4",
                    "midi": 66,
                    "time": 453.75,
                    "velocity": 0.5905511811023622,
                    "duration": 0.3125
                },
                {
                    "name": "A#4",
                    "midi": 70,
                    "time": 453.75,
                    "velocity": 0.5905511811023622,
                    "duration": 0.3125
                },
                {
                    "name": "B3",
                    "midi": 59,
                    "time": 454.375,
                    "velocity": 0.5905511811023622,
                    "duration": 0.3125
                },
                {
                    "name": "F4",
                    "midi": 65,
                    "time": 454.375,
                    "velocity": 0.5905511811023622,
                    "duration": 0.3125
                },
                {
                    "name": "A4",
                    "midi": 69,
                    "time": 454.375,
                    "velocity": 0.5905511811023622,
                    "duration": 0.3125
                },
                {
                    "name": "B3",
                    "midi": 59,
                    "time": 454.6875,
                    "velocity": 0.5905511811023622,
                    "duration": 0.3125
                },
                {
                    "name": "F4",
                    "midi": 65,
                    "time": 454.6875,
                    "velocity": 0.5905511811023622,
                    "duration": 0.3125
                },
                {
                    "name": "A4",
                    "midi": 69,
                    "time": 454.6875,
                    "velocity": 0.5905511811023622,
                    "duration": 0.3125
                },
                {
                    "name": "C4",
                    "midi": 60,
                    "time": 455.3125,
                    "velocity": 0.5905511811023622,
                    "duration": 0.3125
                },
                {
                    "name": "F#4",
                    "midi": 66,
                    "time": 455.3125,
                    "velocity": 0.5905511811023622,
                    "duration": 0.3125
                },
                {
                    "name": "A#4",
                    "midi": 70,
                    "time": 455.3125,
                    "velocity": 0.5905511811023622,
                    "duration": 0.3125
                },
                {
                    "name": "B3",
                    "midi": 59,
                    "time": 455.625,
                    "velocity": 0.5905511811023622,
                    "duration": 0.3125
                },
                {
                    "name": "F4",
                    "midi": 65,
                    "time": 455.625,
                    "velocity": 0.5905511811023622,
                    "duration": 0.3125
                },
                {
                    "name": "A4",
                    "midi": 69,
                    "time": 455.625,
                    "velocity": 0.5905511811023622,
                    "duration": 0.3125
                },
                {
                    "name": "C4",
                    "midi": 60,
                    "time": 456.25,
                    "velocity": 0.5905511811023622,
                    "duration": 0.9375
                },
                {
                    "name": "D4",
                    "midi": 62,
                    "time": 457.1875,
                    "velocity": 0.5905511811023622,
                    "duration": 0.625
                },
                {
                    "name": "E4",
                    "midi": 64,
                    "time": 457.8125,
                    "velocity": 0.5905511811023622,
                    "duration": 0.9375
                },
                {
                    "name": "F4",
                    "midi": 65,
                    "time": 458.75,
                    "velocity": 0.6929133858267716,
                    "duration": 0.625
                },
                {
                    "name": "G4",
                    "midi": 67,
                    "time": 459.375,
                    "velocity": 0.6929133858267716,
                    "duration": 0.625
                },
                {
                    "name": "A4",
                    "midi": 69,
                    "time": 460,
                    "velocity": 0.6929133858267716,
                    "duration": 0.625
                },
                {
                    "name": "B4",
                    "midi": 71,
                    "time": 460.625,
                    "velocity": 0.6929133858267716,
                    "duration": 0.625
                },
                {
                    "name": "C4",
                    "midi": 60,
                    "time": 461.25,
                    "velocity": 0.6929133858267716,
                    "duration": 0.3125
                },
                {
                    "name": "E4",
                    "midi": 64,
                    "time": 461.25,
                    "velocity": 0.6929133858267716,
                    "duration": 0.3125
                },
                {
                    "name": "A4",
                    "midi": 69,
                    "time": 461.25,
                    "velocity": 0.6929133858267716,
                    "duration": 0.3125
                },
                {
                    "name": "C5",
                    "midi": 72,
                    "time": 461.5625,
                    "velocity": 0.6929133858267716,
                    "duration": 0.3125
                },
                {
                    "name": "A4",
                    "midi": 69,
                    "time": 461.875,
                    "velocity": 0.6929133858267716,
                    "duration": 0.3125
                },
                {
                    "name": "C5",
                    "midi": 72,
                    "time": 462.5,
                    "velocity": 0.6929133858267716,
                    "duration": 0.3125
                },
                {
                    "name": "A4",
                    "midi": 69,
                    "time": 462.8125,
                    "velocity": 0.6929133858267716,
                    "duration": 0.3125
                },
                {
                    "name": "C5",
                    "midi": 72,
                    "time": 463.4375,
                    "velocity": 0.6929133858267716,
                    "duration": 0.3125
                },
                {
                    "name": "C4",
                    "midi": 60,
                    "time": 463.75,
                    "velocity": 0.6929133858267716,
                    "duration": 0.625
                },
                {
                    "name": "E4",
                    "midi": 64,
                    "time": 463.75,
                    "velocity": 0.6929133858267716,
                    "duration": 0.625
                },
                {
                    "name": "A4",
                    "midi": 69,
                    "time": 463.75,
                    "velocity": 0.6929133858267716,
                    "duration": 0.625
                },
                {
                    "name": "E4",
                    "midi": 64,
                    "time": 464.375,
                    "velocity": 0.6929133858267716,
                    "duration": 0.3125
                },
                {
                    "name": "A4",
                    "midi": 69,
                    "time": 464.375,
                    "velocity": 0.6929133858267716,
                    "duration": 0.3125
                },
                {
                    "name": "C5",
                    "midi": 72,
                    "time": 464.375,
                    "velocity": 0.6929133858267716,
                    "duration": 0.3125
                },
                {
                    "name": "A4",
                    "midi": 69,
                    "time": 464.6875,
                    "velocity": 0.6929133858267716,
                    "duration": 0.3125
                },
                {
                    "name": "A3",
                    "midi": 57,
                    "time": 465,
                    "velocity": 0.6929133858267716,
                    "duration": 0.3125
                },
                {
                    "name": "C4",
                    "midi": 60,
                    "time": 465,
                    "velocity": 0.6929133858267716,
                    "duration": 0.3125
                },
                {
                    "name": "F4",
                    "midi": 65,
                    "time": 465,
                    "velocity": 0.6929133858267716,
                    "duration": 0.3125
                },
                {
                    "name": "A4",
                    "midi": 69,
                    "time": 465.3125,
                    "velocity": 0.6929133858267716,
                    "duration": 0.3125
                },
                {
                    "name": "A3",
                    "midi": 57,
                    "time": 465.625,
                    "velocity": 0.6929133858267716,
                    "duration": 0.625
                },
                {
                    "name": "C4",
                    "midi": 60,
                    "time": 465.625,
                    "velocity": 0.6929133858267716,
                    "duration": 0.625
                },
                {
                    "name": "F#4",
                    "midi": 66,
                    "time": 465.625,
                    "velocity": 0.6929133858267716,
                    "duration": 0.625
                },
                {
                    "name": "G3",
                    "midi": 55,
                    "time": 466.25,
                    "velocity": 0.6929133858267716,
                    "duration": 0.061197916666685614
                },
                {
                    "name": "C#4",
                    "midi": 61,
                    "time": 466.25,
                    "velocity": 0.6929133858267716,
                    "duration": 0.061197916666685614
                },
                {
                    "name": "E4",
                    "midi": 64,
                    "time": 466.25,
                    "velocity": 0.6929133858267716,
                    "duration": 0.061197916666685614
                },
                {
                    "name": "G3",
                    "midi": 55,
                    "time": 466.5625,
                    "velocity": 0.8976377952755905,
                    "duration": 0.061197916666685614
                },
                {
                    "name": "C#4",
                    "midi": 61,
                    "time": 466.5625,
                    "velocity": 0.8976377952755905,
                    "duration": 0.061197916666685614
                },
                {
                    "name": "E4",
                    "midi": 64,
                    "time": 466.5625,
                    "velocity": 0.8976377952755905,
                    "duration": 0.061197916666685614
                },
                {
                    "name": "F3",
                    "midi": 53,
                    "time": 467.1875,
                    "velocity": 0.6929133858267716,
                    "duration": 0.061197916666685614
                },
                {
                    "name": "C4",
                    "midi": 60,
                    "time": 467.1875,
                    "velocity": 0.6929133858267716,
                    "duration": 0.061197916666685614
                },
                {
                    "name": "G#4",
                    "midi": 68,
                    "time": 467.1875,
                    "velocity": 0.6929133858267716,
                    "duration": 0.061197916666685614
                },
                {
                    "name": "F3",
                    "midi": 53,
                    "time": 467.5,
                    "velocity": 0.8976377952755905,
                    "duration": 0.061197916666685614
                },
                {
                    "name": "C4",
                    "midi": 60,
                    "time": 467.5,
                    "velocity": 0.8976377952755905,
                    "duration": 0.061197916666685614
                },
                {
                    "name": "G#4",
                    "midi": 68,
                    "time": 467.5,
                    "velocity": 0.8976377952755905,
                    "duration": 0.061197916666685614
                },
                {
                    "name": "F3",
                    "midi": 53,
                    "time": 468.125,
                    "velocity": 0.6929133858267716,
                    "duration": 0.061197916666685614
                },
                {
                    "name": "B3",
                    "midi": 59,
                    "time": 468.125,
                    "velocity": 0.6929133858267716,
                    "duration": 0.061197916666685614
                },
                {
                    "name": "E4",
                    "midi": 64,
                    "time": 468.125,
                    "velocity": 0.6929133858267716,
                    "duration": 0.061197916666685614
                },
                {
                    "name": "F3",
                    "midi": 53,
                    "time": 468.4375,
                    "velocity": 0.8976377952755905,
                    "duration": 0.061197916666685614
                },
                {
                    "name": "B3",
                    "midi": 59,
                    "time": 468.4375,
                    "velocity": 0.8976377952755905,
                    "duration": 0.061197916666685614
                },
                {
                    "name": "E4",
                    "midi": 64,
                    "time": 468.4375,
                    "velocity": 0.8976377952755905,
                    "duration": 0.061197916666685614
                },
                {
                    "name": "E3",
                    "midi": 52,
                    "time": 469.0625,
                    "velocity": 0.6929133858267716,
                    "duration": 0.061197916666685614
                },
                {
                    "name": "A#3",
                    "midi": 58,
                    "time": 469.0625,
                    "velocity": 0.6929133858267716,
                    "duration": 0.061197916666685614
                },
                {
                    "name": "F#4",
                    "midi": 66,
                    "time": 469.0625,
                    "velocity": 0.6929133858267716,
                    "duration": 0.061197916666685614
                },
                {
                    "name": "E3",
                    "midi": 52,
                    "time": 469.375,
                    "velocity": 0.8976377952755905,
                    "duration": 0.061197916666685614
                },
                {
                    "name": "A#3",
                    "midi": 58,
                    "time": 469.375,
                    "velocity": 0.8976377952755905,
                    "duration": 0.061197916666685614
                },
                {
                    "name": "F#4",
                    "midi": 66,
                    "time": 469.375,
                    "velocity": 0.8976377952755905,
                    "duration": 0.061197916666685614
                },
                {
                    "name": "D#3",
                    "midi": 51,
                    "time": 470,
                    "velocity": 0.6929133858267716,
                    "duration": 0.061197916666685614
                },
                {
                    "name": "A3",
                    "midi": 57,
                    "time": 470,
                    "velocity": 0.6929133858267716,
                    "duration": 0.061197916666685614
                },
                {
                    "name": "C4",
                    "midi": 60,
                    "time": 470,
                    "velocity": 0.6929133858267716,
                    "duration": 0.061197916666685614
                },
                {
                    "name": "D#3",
                    "midi": 51,
                    "time": 470.3125,
                    "velocity": 0.8976377952755905,
                    "duration": 0.061197916666685614
                },
                {
                    "name": "A3",
                    "midi": 57,
                    "time": 470.3125,
                    "velocity": 0.8976377952755905,
                    "duration": 0.061197916666685614
                },
                {
                    "name": "C4",
                    "midi": 60,
                    "time": 470.3125,
                    "velocity": 0.8976377952755905,
                    "duration": 0.061197916666685614
                },
                {
                    "name": "D#3",
                    "midi": 51,
                    "time": 470.9375,
                    "velocity": 0.6929133858267716,
                    "duration": 0.3125
                },
                {
                    "name": "G#3",
                    "midi": 56,
                    "time": 470.9375,
                    "velocity": 0.6929133858267716,
                    "duration": 0.3125
                },
                {
                    "name": "E4",
                    "midi": 64,
                    "time": 470.9375,
                    "velocity": 0.6929133858267716,
                    "duration": 0.3125
                },
                {
                    "name": "A3",
                    "midi": 57,
                    "time": 471.25,
                    "velocity": 0.7952755905511811,
                    "duration": 0.3125
                },
                {
                    "name": "C#4",
                    "midi": 61,
                    "time": 471.25,
                    "velocity": 0.7952755905511811,
                    "duration": 0.3125
                },
                {
                    "name": "E4",
                    "midi": 64,
                    "time": 471.25,
                    "velocity": 0.7952755905511811,
                    "duration": 0.3125
                },
                {
                    "name": "A3",
                    "midi": 57,
                    "time": 471.5625,
                    "velocity": 0.5905511811023622,
                    "duration": 0.029947916666685614
                },
                {
                    "name": "C#4",
                    "midi": 61,
                    "time": 471.5625,
                    "velocity": 0.5905511811023622,
                    "duration": 0.029947916666685614
                },
                {
                    "name": "F4",
                    "midi": 65,
                    "time": 471.5625,
                    "velocity": 0.5905511811023622,
                    "duration": 0.029947916666685614
                },
                {
                    "name": "A3",
                    "midi": 57,
                    "time": 471.71875,
                    "velocity": 0.5905511811023622,
                    "duration": 0.029947916666685614
                },
                {
                    "name": "C#4",
                    "midi": 61,
                    "time": 471.71875,
                    "velocity": 0.5905511811023622,
                    "duration": 0.029947916666685614
                },
                {
                    "name": "E4",
                    "midi": 64,
                    "time": 471.71875,
                    "velocity": 0.5905511811023622,
                    "duration": 0.029947916666685614
                },
                {
                    "name": "A3",
                    "midi": 57,
                    "time": 471.875,
                    "velocity": 0.5905511811023622,
                    "duration": 0.029947916666685614
                },
                {
                    "name": "C#4",
                    "midi": 61,
                    "time": 471.875,
                    "velocity": 0.5905511811023622,
                    "duration": 0.029947916666685614
                },
                {
                    "name": "F4",
                    "midi": 65,
                    "time": 471.875,
                    "velocity": 0.5905511811023622,
                    "duration": 0.029947916666685614
                },
                {
                    "name": "A3",
                    "midi": 57,
                    "time": 472.03125,
                    "velocity": 0.5905511811023622,
                    "duration": 0.061197916666685614
                },
                {
                    "name": "C#4",
                    "midi": 61,
                    "time": 472.03125,
                    "velocity": 0.5905511811023622,
                    "duration": 0.061197916666685614
                },
                {
                    "name": "E4",
                    "midi": 64,
                    "time": 472.03125,
                    "velocity": 0.5905511811023622,
                    "duration": 0.061197916666685614
                },
                {
                    "name": "A3",
                    "midi": 57,
                    "time": 472.34375,
                    "velocity": 0.5905511811023622,
                    "duration": 0.029947916666685614
                },
                {
                    "name": "C#4",
                    "midi": 61,
                    "time": 472.34375,
                    "velocity": 0.5905511811023622,
                    "duration": 0.029947916666685614
                },
                {
                    "name": "F4",
                    "midi": 65,
                    "time": 472.34375,
                    "velocity": 0.5905511811023622,
                    "duration": 0.029947916666685614
                },
                {
                    "name": "A3",
                    "midi": 57,
                    "time": 472.5,
                    "velocity": 0.7952755905511811,
                    "duration": 0.3125
                },
                {
                    "name": "C#4",
                    "midi": 61,
                    "time": 472.5,
                    "velocity": 0.7952755905511811,
                    "duration": 0.3125
                },
                {
                    "name": "F#4",
                    "midi": 66,
                    "time": 472.5,
                    "velocity": 0.7952755905511811,
                    "duration": 0.3125
                },
                {
                    "name": "A3",
                    "midi": 57,
                    "time": 472.8125,
                    "velocity": 0.5905511811023622,
                    "duration": 0.029947916666685614
                },
                {
                    "name": "C#4",
                    "midi": 61,
                    "time": 472.8125,
                    "velocity": 0.5905511811023622,
                    "duration": 0.029947916666685614
                },
                {
                    "name": "G4",
                    "midi": 67,
                    "time": 472.8125,
                    "velocity": 0.5905511811023622,
                    "duration": 0.029947916666685614
                },
                {
                    "name": "A3",
                    "midi": 57,
                    "time": 472.96875,
                    "velocity": 0.5905511811023622,
                    "duration": 0.029947916666685614
                },
                {
                    "name": "C#4",
                    "midi": 61,
                    "time": 472.96875,
                    "velocity": 0.5905511811023622,
                    "duration": 0.029947916666685614
                },
                {
                    "name": "F#4",
                    "midi": 66,
                    "time": 472.96875,
                    "velocity": 0.5905511811023622,
                    "duration": 0.029947916666685614
                },
                {
                    "name": "A3",
                    "midi": 57,
                    "time": 473.125,
                    "velocity": 0.5905511811023622,
                    "duration": 0.029947916666685614
                },
                {
                    "name": "C#4",
                    "midi": 61,
                    "time": 473.125,
                    "velocity": 0.5905511811023622,
                    "duration": 0.029947916666685614
                },
                {
                    "name": "G4",
                    "midi": 67,
                    "time": 473.125,
                    "velocity": 0.5905511811023622,
                    "duration": 0.029947916666685614
                },
                {
                    "name": "A3",
                    "midi": 57,
                    "time": 473.28125,
                    "velocity": 0.5905511811023622,
                    "duration": 0.061197916666685614
                },
                {
                    "name": "C#4",
                    "midi": 61,
                    "time": 473.28125,
                    "velocity": 0.5905511811023622,
                    "duration": 0.061197916666685614
                },
                {
                    "name": "F#4",
                    "midi": 66,
                    "time": 473.28125,
                    "velocity": 0.5905511811023622,
                    "duration": 0.061197916666685614
                },
                {
                    "name": "A3",
                    "midi": 57,
                    "time": 473.59375,
                    "velocity": 0.5905511811023622,
                    "duration": 0.029947916666685614
                },
                {
                    "name": "C#4",
                    "midi": 61,
                    "time": 473.59375,
                    "velocity": 0.5905511811023622,
                    "duration": 0.029947916666685614
                },
                {
                    "name": "G4",
                    "midi": 67,
                    "time": 473.59375,
                    "velocity": 0.5905511811023622,
                    "duration": 0.029947916666685614
                },
                {
                    "name": "A3",
                    "midi": 57,
                    "time": 473.75,
                    "velocity": 0.7952755905511811,
                    "duration": 1.25
                },
                {
                    "name": "D#4",
                    "midi": 63,
                    "time": 473.75,
                    "velocity": 0.7952755905511811,
                    "duration": 1.25
                },
                {
                    "name": "G#4",
                    "midi": 68,
                    "time": 473.75,
                    "velocity": 0.7952755905511811,
                    "duration": 1.25
                },
                {
                    "name": "C#4",
                    "midi": 61,
                    "time": 475,
                    "velocity": 0.7952755905511811,
                    "duration": 1.25
                },
                {
                    "name": "F#4",
                    "midi": 66,
                    "time": 475,
                    "velocity": 0.7952755905511811,
                    "duration": 1.25
                },
                {
                    "name": "B4",
                    "midi": 71,
                    "time": 475,
                    "velocity": 0.7952755905511811,
                    "duration": 1.25
                },
                {
                    "name": "F#3",
                    "midi": 54,
                    "time": 476.25,
                    "velocity": 0.7952755905511811,
                    "duration": 0.3125
                },
                {
                    "name": "A#3",
                    "midi": 58,
                    "time": 476.25,
                    "velocity": 0.7952755905511811,
                    "duration": 0.3125
                },
                {
                    "name": "C#4",
                    "midi": 61,
                    "time": 476.25,
                    "velocity": 0.7952755905511811,
                    "duration": 0.3125
                },
                {
                    "name": "F#3",
                    "midi": 54,
                    "time": 476.5625,
                    "velocity": 0.5905511811023622,
                    "duration": 0.029947916666685614
                },
                {
                    "name": "A#3",
                    "midi": 58,
                    "time": 476.5625,
                    "velocity": 0.5905511811023622,
                    "duration": 0.029947916666685614
                },
                {
                    "name": "D4",
                    "midi": 62,
                    "time": 476.5625,
                    "velocity": 0.5905511811023622,
                    "duration": 0.029947916666685614
                },
                {
                    "name": "F#3",
                    "midi": 54,
                    "time": 476.71875,
                    "velocity": 0.5905511811023622,
                    "duration": 0.029947916666685614
                },
                {
                    "name": "A#3",
                    "midi": 58,
                    "time": 476.71875,
                    "velocity": 0.5905511811023622,
                    "duration": 0.029947916666685614
                },
                {
                    "name": "C#4",
                    "midi": 61,
                    "time": 476.71875,
                    "velocity": 0.5905511811023622,
                    "duration": 0.029947916666685614
                },
                {
                    "name": "F#3",
                    "midi": 54,
                    "time": 476.875,
                    "velocity": 0.5905511811023622,
                    "duration": 0.029947916666685614
                },
                {
                    "name": "A#3",
                    "midi": 58,
                    "time": 476.875,
                    "velocity": 0.5905511811023622,
                    "duration": 0.029947916666685614
                },
                {
                    "name": "D4",
                    "midi": 62,
                    "time": 476.875,
                    "velocity": 0.5905511811023622,
                    "duration": 0.029947916666685614
                },
                {
                    "name": "F#3",
                    "midi": 54,
                    "time": 477.03125,
                    "velocity": 0.5905511811023622,
                    "duration": 0.061197916666685614
                },
                {
                    "name": "A#3",
                    "midi": 58,
                    "time": 477.03125,
                    "velocity": 0.5905511811023622,
                    "duration": 0.061197916666685614
                },
                {
                    "name": "C#4",
                    "midi": 61,
                    "time": 477.03125,
                    "velocity": 0.5905511811023622,
                    "duration": 0.061197916666685614
                },
                {
                    "name": "F#3",
                    "midi": 54,
                    "time": 477.34375,
                    "velocity": 0.5905511811023622,
                    "duration": 0.029947916666685614
                },
                {
                    "name": "A#3",
                    "midi": 58,
                    "time": 477.34375,
                    "velocity": 0.5905511811023622,
                    "duration": 0.029947916666685614
                },
                {
                    "name": "D4",
                    "midi": 62,
                    "time": 477.34375,
                    "velocity": 0.5905511811023622,
                    "duration": 0.029947916666685614
                },
                {
                    "name": "F#3",
                    "midi": 54,
                    "time": 477.5,
                    "velocity": 0.7952755905511811,
                    "duration": 0.3125
                },
                {
                    "name": "A#3",
                    "midi": 58,
                    "time": 477.5,
                    "velocity": 0.7952755905511811,
                    "duration": 0.3125
                },
                {
                    "name": "D#4",
                    "midi": 63,
                    "time": 477.5,
                    "velocity": 0.7952755905511811,
                    "duration": 0.3125
                },
                {
                    "name": "F#3",
                    "midi": 54,
                    "time": 477.8125,
                    "velocity": 0.5905511811023622,
                    "duration": 0.029947916666685614
                },
                {
                    "name": "A#3",
                    "midi": 58,
                    "time": 477.8125,
                    "velocity": 0.5905511811023622,
                    "duration": 0.029947916666685614
                },
                {
                    "name": "E4",
                    "midi": 64,
                    "time": 477.8125,
                    "velocity": 0.5905511811023622,
                    "duration": 0.029947916666685614
                },
                {
                    "name": "F#3",
                    "midi": 54,
                    "time": 477.96875,
                    "velocity": 0.5905511811023622,
                    "duration": 0.029947916666685614
                },
                {
                    "name": "A#3",
                    "midi": 58,
                    "time": 477.96875,
                    "velocity": 0.5905511811023622,
                    "duration": 0.029947916666685614
                },
                {
                    "name": "D#4",
                    "midi": 63,
                    "time": 477.96875,
                    "velocity": 0.5905511811023622,
                    "duration": 0.029947916666685614
                },
                {
                    "name": "F#3",
                    "midi": 54,
                    "time": 478.125,
                    "velocity": 0.5905511811023622,
                    "duration": 0.029947916666685614
                },
                {
                    "name": "A#3",
                    "midi": 58,
                    "time": 478.125,
                    "velocity": 0.5905511811023622,
                    "duration": 0.029947916666685614
                },
                {
                    "name": "E4",
                    "midi": 64,
                    "time": 478.125,
                    "velocity": 0.5905511811023622,
                    "duration": 0.029947916666685614
                },
                {
                    "name": "F#3",
                    "midi": 54,
                    "time": 478.28125,
                    "velocity": 0.5905511811023622,
                    "duration": 0.061197916666685614
                },
                {
                    "name": "D#4",
                    "midi": 63,
                    "time": 478.28125,
                    "velocity": 0.5905511811023622,
                    "duration": 0.061197916666685614
                },
                {
                    "name": "F#3",
                    "midi": 54,
                    "time": 478.59375,
                    "velocity": 0.5905511811023622,
                    "duration": 0.029947916666685614
                },
                {
                    "name": "A#3",
                    "midi": 58,
                    "time": 478.59375,
                    "velocity": 0.5905511811023622,
                    "duration": 0.029947916666685614
                },
                {
                    "name": "E4",
                    "midi": 64,
                    "time": 478.59375,
                    "velocity": 0.5905511811023622,
                    "duration": 0.029947916666685614
                },
                {
                    "name": "F#3",
                    "midi": 54,
                    "time": 478.75,
                    "velocity": 0.7952755905511811,
                    "duration": 1.25
                },
                {
                    "name": "C4",
                    "midi": 60,
                    "time": 478.75,
                    "velocity": 0.7952755905511811,
                    "duration": 1.25
                },
                {
                    "name": "F4",
                    "midi": 65,
                    "time": 478.75,
                    "velocity": 0.7952755905511811,
                    "duration": 1.25
                },
                {
                    "name": "A3",
                    "midi": 57,
                    "time": 480,
                    "velocity": 0.7952755905511811,
                    "duration": 1.25
                },
                {
                    "name": "D#4",
                    "midi": 63,
                    "time": 480,
                    "velocity": 0.7952755905511811,
                    "duration": 1.25
                },
                {
                    "name": "G#4",
                    "midi": 68,
                    "time": 480,
                    "velocity": 0.7952755905511811,
                    "duration": 1.25
                },
                {
                    "name": "G3",
                    "midi": 55,
                    "time": 481.25,
                    "velocity": 0.7952755905511811,
                    "duration": 0.625
                },
                {
                    "name": "A#3",
                    "midi": 58,
                    "time": 481.25,
                    "velocity": 0.7952755905511811,
                    "duration": 0.625
                },
                {
                    "name": "D#4",
                    "midi": 63,
                    "time": 481.25,
                    "velocity": 0.7952755905511811,
                    "duration": 0.625
                },
                {
                    "name": "E4",
                    "midi": 64,
                    "time": 482.1875,
                    "velocity": 0.7952755905511811,
                    "duration": 0.625
                },
                {
                    "name": "G4",
                    "midi": 67,
                    "time": 482.1875,
                    "velocity": 0.7952755905511811,
                    "duration": 0.625
                },
                {
                    "name": "C5",
                    "midi": 72,
                    "time": 482.1875,
                    "velocity": 0.7952755905511811,
                    "duration": 0.625
                },
                {
                    "name": "C#4",
                    "midi": 61,
                    "time": 482.8125,
                    "velocity": 0.7952755905511811,
                    "duration": 0.625
                },
                {
                    "name": "F#4",
                    "midi": 66,
                    "time": 482.8125,
                    "velocity": 0.7952755905511811,
                    "duration": 0.625
                },
                {
                    "name": "A#4",
                    "midi": 70,
                    "time": 482.8125,
                    "velocity": 0.7952755905511811,
                    "duration": 0.625
                },
                {
                    "name": "G3",
                    "midi": 55,
                    "time": 483.4375,
                    "velocity": 0.7952755905511811,
                    "duration": 0.625
                },
                {
                    "name": "C4",
                    "midi": 60,
                    "time": 483.4375,
                    "velocity": 0.7952755905511811,
                    "duration": 0.625
                },
                {
                    "name": "F4",
                    "midi": 65,
                    "time": 483.4375,
                    "velocity": 0.7952755905511811,
                    "duration": 0.625
                },
                {
                    "name": "G#3",
                    "midi": 56,
                    "time": 484.0625,
                    "velocity": 0.7952755905511811,
                    "duration": 0.625
                },
                {
                    "name": "C#4",
                    "midi": 61,
                    "time": 484.0625,
                    "velocity": 0.7952755905511811,
                    "duration": 0.625
                },
                {
                    "name": "F#4",
                    "midi": 66,
                    "time": 484.0625,
                    "velocity": 0.7952755905511811,
                    "duration": 0.3125
                },
                {
                    "name": "G4",
                    "midi": 67,
                    "time": 484.375,
                    "velocity": 0.5905511811023622,
                    "duration": 0.3125
                },
                {
                    "name": "G3",
                    "midi": 55,
                    "time": 484.6875,
                    "velocity": 0.5905511811023622,
                    "duration": 0.625
                },
                {
                    "name": "A#3",
                    "midi": 58,
                    "time": 484.6875,
                    "velocity": 0.5905511811023622,
                    "duration": 0.625
                },
                {
                    "name": "D#4",
                    "midi": 63,
                    "time": 484.6875,
                    "velocity": 0.5905511811023622,
                    "duration": 0.625
                },
                {
                    "name": "E4",
                    "midi": 64,
                    "time": 485.3125,
                    "velocity": 0.5905511811023622,
                    "duration": 0.625
                },
                {
                    "name": "G4",
                    "midi": 67,
                    "time": 485.3125,
                    "velocity": 0.5905511811023622,
                    "duration": 0.625
                },
                {
                    "name": "C5",
                    "midi": 72,
                    "time": 485.3125,
                    "velocity": 0.5905511811023622,
                    "duration": 0.625
                },
                {
                    "name": "C#4",
                    "midi": 61,
                    "time": 485.9375,
                    "velocity": 0.5905511811023622,
                    "duration": 0.625
                },
                {
                    "name": "F#4",
                    "midi": 66,
                    "time": 485.9375,
                    "velocity": 0.5905511811023622,
                    "duration": 0.625
                },
                {
                    "name": "A#4",
                    "midi": 70,
                    "time": 485.9375,
                    "velocity": 0.5905511811023622,
                    "duration": 0.625
                },
                {
                    "name": "G3",
                    "midi": 55,
                    "time": 486.5625,
                    "velocity": 0.5905511811023622,
                    "duration": 0.625
                },
                {
                    "name": "C4",
                    "midi": 60,
                    "time": 486.5625,
                    "velocity": 0.5905511811023622,
                    "duration": 0.625
                },
                {
                    "name": "F4",
                    "midi": 65,
                    "time": 486.5625,
                    "velocity": 0.5905511811023622,
                    "duration": 0.625
                },
                {
                    "name": "G#3",
                    "midi": 56,
                    "time": 487.1875,
                    "velocity": 0.5905511811023622,
                    "duration": 0.3125
                },
                {
                    "name": "C#4",
                    "midi": 61,
                    "time": 487.1875,
                    "velocity": 0.5905511811023622,
                    "duration": 0.3125
                },
                {
                    "name": "F#4",
                    "midi": 66,
                    "time": 487.1875,
                    "velocity": 0.5905511811023622,
                    "duration": 0.3125
                },
                {
                    "name": "G3",
                    "midi": 55,
                    "time": 487.8125,
                    "velocity": 0.7952755905511811,
                    "duration": 0.625
                },
                {
                    "name": "A#3",
                    "midi": 58,
                    "time": 487.8125,
                    "velocity": 0.7952755905511811,
                    "duration": 0.625
                },
                {
                    "name": "D#4",
                    "midi": 63,
                    "time": 487.8125,
                    "velocity": 0.7952755905511811,
                    "duration": 0.625
                },
                {
                    "name": "D#4",
                    "midi": 63,
                    "time": 488.4375,
                    "velocity": 0.7952755905511811,
                    "duration": 0.625
                },
                {
                    "name": "G4",
                    "midi": 67,
                    "time": 488.4375,
                    "velocity": 0.7952755905511811,
                    "duration": 0.625
                },
                {
                    "name": "C5",
                    "midi": 72,
                    "time": 488.4375,
                    "velocity": 0.7952755905511811,
                    "duration": 0.625
                },
                {
                    "name": "D4",
                    "midi": 62,
                    "time": 489.0625,
                    "velocity": 0.7952755905511811,
                    "duration": 0.3125
                },
                {
                    "name": "F4",
                    "midi": 65,
                    "time": 489.0625,
                    "velocity": 0.7952755905511811,
                    "duration": 0.3125
                },
                {
                    "name": "A#4",
                    "midi": 70,
                    "time": 489.0625,
                    "velocity": 0.7952755905511811,
                    "duration": 0.3125
                },
                {
                    "name": "G3",
                    "midi": 55,
                    "time": 489.6875,
                    "velocity": 0.5905511811023622,
                    "duration": 0.625
                },
                {
                    "name": "A#3",
                    "midi": 58,
                    "time": 489.6875,
                    "velocity": 0.5905511811023622,
                    "duration": 0.625
                },
                {
                    "name": "D#4",
                    "midi": 63,
                    "time": 489.6875,
                    "velocity": 0.5905511811023622,
                    "duration": 0.625
                },
                {
                    "name": "F#4",
                    "midi": 66,
                    "time": 490.3125,
                    "velocity": 0.5905511811023622,
                    "duration": 0.625
                },
                {
                    "name": "A#4",
                    "midi": 70,
                    "time": 490.3125,
                    "velocity": 0.5905511811023622,
                    "duration": 0.625
                },
                {
                    "name": "C#5",
                    "midi": 73,
                    "time": 490.3125,
                    "velocity": 0.5905511811023622,
                    "duration": 0.625
                },
                {
                    "name": "D4",
                    "midi": 62,
                    "time": 490.9375,
                    "velocity": 0.5905511811023622,
                    "duration": 0.3125
                },
                {
                    "name": "F4",
                    "midi": 65,
                    "time": 490.9375,
                    "velocity": 0.5905511811023622,
                    "duration": 0.3125
                },
                {
                    "name": "A#4",
                    "midi": 70,
                    "time": 490.9375,
                    "velocity": 0.5905511811023622,
                    "duration": 0.3125
                },
                {
                    "name": "G3",
                    "midi": 55,
                    "time": 491.5625,
                    "velocity": 0.5905511811023622,
                    "duration": 0.625
                },
                {
                    "name": "A#3",
                    "midi": 58,
                    "time": 491.5625,
                    "velocity": 0.5905511811023622,
                    "duration": 0.625
                },
                {
                    "name": "D#4",
                    "midi": 63,
                    "time": 491.5625,
                    "velocity": 0.5905511811023622,
                    "duration": 0.625
                },
                {
                    "name": "F4",
                    "midi": 65,
                    "time": 492.1875,
                    "velocity": 0.5905511811023622,
                    "duration": 0.625
                },
                {
                    "name": "B4",
                    "midi": 71,
                    "time": 492.1875,
                    "velocity": 0.5905511811023622,
                    "duration": 0.625
                },
                {
                    "name": "D5",
                    "midi": 74,
                    "time": 492.1875,
                    "velocity": 0.5905511811023622,
                    "duration": 0.625
                },
                {
                    "name": "D4",
                    "midi": 62,
                    "time": 492.8125,
                    "velocity": 0.5905511811023622,
                    "duration": 0.3125
                },
                {
                    "name": "F4",
                    "midi": 65,
                    "time": 492.8125,
                    "velocity": 0.5905511811023622,
                    "duration": 0.3125
                },
                {
                    "name": "A#4",
                    "midi": 70,
                    "time": 492.8125,
                    "velocity": 0.5905511811023622,
                    "duration": 0.3125
                },
                {
                    "name": "G3",
                    "midi": 55,
                    "time": 493.4375,
                    "velocity": 0.5905511811023622,
                    "duration": 0.625
                },
                {
                    "name": "A#3",
                    "midi": 58,
                    "time": 493.4375,
                    "velocity": 0.5905511811023622,
                    "duration": 0.625
                },
                {
                    "name": "D#4",
                    "midi": 63,
                    "time": 493.4375,
                    "velocity": 0.5905511811023622,
                    "duration": 0.625
                },
                {
                    "name": "F#4",
                    "midi": 66,
                    "time": 494.0625,
                    "velocity": 0.5905511811023622,
                    "duration": 0.625
                },
                {
                    "name": "B4",
                    "midi": 71,
                    "time": 494.0625,
                    "velocity": 0.5905511811023622,
                    "duration": 0.625
                },
                {
                    "name": "D#5",
                    "midi": 75,
                    "time": 494.0625,
                    "velocity": 0.5905511811023622,
                    "duration": 0.625
                },
                {
                    "name": "D4",
                    "midi": 62,
                    "time": 494.6875,
                    "velocity": 0.5905511811023622,
                    "duration": 0.3125
                },
                {
                    "name": "F4",
                    "midi": 65,
                    "time": 494.6875,
                    "velocity": 0.5905511811023622,
                    "duration": 0.3125
                },
                {
                    "name": "A#4",
                    "midi": 70,
                    "time": 494.6875,
                    "velocity": 0.5905511811023622,
                    "duration": 0.3125
                },
                {
                    "name": "G3",
                    "midi": 55,
                    "time": 495,
                    "velocity": 0.7952755905511811,
                    "duration": 0.625
                },
                {
                    "name": "A#3",
                    "midi": 58,
                    "time": 495,
                    "velocity": 0.7952755905511811,
                    "duration": 0.625
                },
                {
                    "name": "D#4",
                    "midi": 63,
                    "time": 495,
                    "velocity": 0.7952755905511811,
                    "duration": 0.625
                },
                {
                    "name": "E4",
                    "midi": 64,
                    "time": 495.9375,
                    "velocity": 0.7952755905511811,
                    "duration": 0.625
                },
                {
                    "name": "G4",
                    "midi": 67,
                    "time": 495.9375,
                    "velocity": 0.7952755905511811,
                    "duration": 0.625
                },
                {
                    "name": "C5",
                    "midi": 72,
                    "time": 495.9375,
                    "velocity": 0.7952755905511811,
                    "duration": 0.625
                },
                {
                    "name": "E5",
                    "midi": 76,
                    "time": 495.9375,
                    "velocity": 0.7952755905511811,
                    "duration": 0.625
                },
                {
                    "name": "D4",
                    "midi": 62,
                    "time": 496.5625,
                    "velocity": 0.5905511811023622,
                    "duration": 0.061197916666685614
                },
                {
                    "name": "F4",
                    "midi": 65,
                    "time": 496.5625,
                    "velocity": 0.5905511811023622,
                    "duration": 0.061197916666685614
                },
                {
                    "name": "A#4",
                    "midi": 70,
                    "time": 496.5625,
                    "velocity": 0.5905511811023622,
                    "duration": 0.061197916666685614
                },
                {
                    "name": "G3",
                    "midi": 55,
                    "time": 496.875,
                    "velocity": 0.7952755905511811,
                    "duration": 0.625
                },
                {
                    "name": "A#3",
                    "midi": 58,
                    "time": 496.875,
                    "velocity": 0.7952755905511811,
                    "duration": 0.625
                },
                {
                    "name": "D#4",
                    "midi": 63,
                    "time": 496.875,
                    "velocity": 0.7952755905511811,
                    "duration": 0.625
                },
                {
                    "name": "F4",
                    "midi": 65,
                    "time": 497.8125,
                    "velocity": 0.7952755905511811,
                    "duration": 0.625
                },
                {
                    "name": "G#4",
                    "midi": 68,
                    "time": 497.8125,
                    "velocity": 0.7952755905511811,
                    "duration": 0.625
                },
                {
                    "name": "C#5",
                    "midi": 73,
                    "time": 497.8125,
                    "velocity": 0.7952755905511811,
                    "duration": 0.625
                },
                {
                    "name": "F5",
                    "midi": 77,
                    "time": 497.8125,
                    "velocity": 0.7952755905511811,
                    "duration": 0.625
                },
                {
                    "name": "D4",
                    "midi": 62,
                    "time": 498.4375,
                    "velocity": 0.5905511811023622,
                    "duration": 0.061197916666685614
                },
                {
                    "name": "F4",
                    "midi": 65,
                    "time": 498.4375,
                    "velocity": 0.5905511811023622,
                    "duration": 0.061197916666685614
                },
                {
                    "name": "A#4",
                    "midi": 70,
                    "time": 498.4375,
                    "velocity": 0.5905511811023622,
                    "duration": 0.061197916666685614
                },
                {
                    "name": "G3",
                    "midi": 55,
                    "time": 498.75,
                    "velocity": 0.7952755905511811,
                    "duration": 0.625
                },
                {
                    "name": "A#3",
                    "midi": 58,
                    "time": 498.75,
                    "velocity": 0.7952755905511811,
                    "duration": 0.625
                },
                {
                    "name": "D#4",
                    "midi": 63,
                    "time": 498.75,
                    "velocity": 0.7952755905511811,
                    "duration": 0.625
                },
                {
                    "name": "F#4",
                    "midi": 66,
                    "time": 499.6875,
                    "velocity": 0.7952755905511811,
                    "duration": 0.625
                },
                {
                    "name": "B4",
                    "midi": 71,
                    "time": 499.6875,
                    "velocity": 0.7952755905511811,
                    "duration": 0.625
                },
                {
                    "name": "D#5",
                    "midi": 75,
                    "time": 499.6875,
                    "velocity": 0.7952755905511811,
                    "duration": 0.625
                },
                {
                    "name": "F#5",
                    "midi": 78,
                    "time": 499.6875,
                    "velocity": 0.7952755905511811,
                    "duration": 0.625
                },
                {
                    "name": "D4",
                    "midi": 62,
                    "time": 500.3125,
                    "velocity": 0.5905511811023622,
                    "duration": 0.061197916666685614
                },
                {
                    "name": "F4",
                    "midi": 65,
                    "time": 500.3125,
                    "velocity": 0.5905511811023622,
                    "duration": 0.061197916666685614
                },
                {
                    "name": "A#4",
                    "midi": 70,
                    "time": 500.3125,
                    "velocity": 0.5905511811023622,
                    "duration": 0.061197916666685614
                },
                {
                    "name": "G3",
                    "midi": 55,
                    "time": 500.625,
                    "velocity": 0.7952755905511811,
                    "duration": 0.625
                },
                {
                    "name": "A#3",
                    "midi": 58,
                    "time": 500.625,
                    "velocity": 0.7952755905511811,
                    "duration": 0.625
                },
                {
                    "name": "D#4",
                    "midi": 63,
                    "time": 500.625,
                    "velocity": 0.7952755905511811,
                    "duration": 0.625
                },
                {
                    "name": "F#4",
                    "midi": 66,
                    "time": 501.5625,
                    "velocity": 0.7952755905511811,
                    "duration": 0.625
                },
                {
                    "name": "B4",
                    "midi": 71,
                    "time": 501.5625,
                    "velocity": 0.7952755905511811,
                    "duration": 0.625
                },
                {
                    "name": "D#5",
                    "midi": 75,
                    "time": 501.5625,
                    "velocity": 0.7952755905511811,
                    "duration": 0.625
                },
                {
                    "name": "F#5",
                    "midi": 78,
                    "time": 501.5625,
                    "velocity": 0.7952755905511811,
                    "duration": 0.625
                },
                {
                    "name": "D4",
                    "midi": 62,
                    "time": 502.1875,
                    "velocity": 0.5905511811023622,
                    "duration": 0.061197916666685614
                },
                {
                    "name": "F4",
                    "midi": 65,
                    "time": 502.1875,
                    "velocity": 0.5905511811023622,
                    "duration": 0.061197916666685614
                },
                {
                    "name": "A#4",
                    "midi": 70,
                    "time": 502.1875,
                    "velocity": 0.5905511811023622,
                    "duration": 0.061197916666685614
                },
                {
                    "name": "G3",
                    "midi": 55,
                    "time": 502.5,
                    "velocity": 0.5905511811023622,
                    "duration": 0.625
                },
                {
                    "name": "A#3",
                    "midi": 58,
                    "time": 502.5,
                    "velocity": 0.5905511811023622,
                    "duration": 0.625
                },
                {
                    "name": "D#4",
                    "midi": 63,
                    "time": 502.5,
                    "velocity": 0.5905511811023622,
                    "duration": 0.625
                },
                {
                    "name": "A#3",
                    "midi": 58,
                    "time": 503.4375,
                    "velocity": 0.7952755905511811,
                    "duration": 0.3125
                },
                {
                    "name": "D#4",
                    "midi": 63,
                    "time": 503.4375,
                    "velocity": 0.7952755905511811,
                    "duration": 0.3125
                },
                {
                    "name": "G4",
                    "midi": 67,
                    "time": 503.4375,
                    "velocity": 0.7952755905511811,
                    "duration": 0.3125
                },
                {
                    "name": "F#4",
                    "midi": 66,
                    "time": 503.75,
                    "velocity": 0.7952755905511811,
                    "duration": 0.3125
                },
                {
                    "name": "G#4",
                    "midi": 68,
                    "time": 503.75,
                    "velocity": 0.7952755905511811,
                    "duration": 0.3125
                },
                {
                    "name": "C4",
                    "midi": 60,
                    "time": 504.0625,
                    "velocity": 0.7952755905511811,
                    "duration": 0.3125
                },
                {
                    "name": "D4",
                    "midi": 62,
                    "time": 504.0625,
                    "velocity": 0.7952755905511811,
                    "duration": 0.3125
                },
                {
                    "name": "F#4",
                    "midi": 66,
                    "time": 504.0625,
                    "velocity": 0.7952755905511811,
                    "duration": 0.3125
                },
                {
                    "name": "C4",
                    "midi": 60,
                    "time": 504.375,
                    "velocity": 0.5905511811023622,
                    "duration": 0.3125
                },
                {
                    "name": "D4",
                    "midi": 62,
                    "time": 504.375,
                    "velocity": 0.5905511811023622,
                    "duration": 0.3125
                },
                {
                    "name": "F#4",
                    "midi": 66,
                    "time": 504.375,
                    "velocity": 0.5905511811023622,
                    "duration": 0.3125
                },
                {
                    "name": "G#4",
                    "midi": 68,
                    "time": 504.375,
                    "velocity": 0.5905511811023622,
                    "duration": 0.3125
                },
                {
                    "name": "E4",
                    "midi": 64,
                    "time": 506.25,
                    "velocity": 0.7952755905511811,
                    "duration": 0.3125
                },
                {
                    "name": "G4",
                    "midi": 67,
                    "time": 506.25,
                    "velocity": 0.7952755905511811,
                    "duration": 0.3125
                },
                {
                    "name": "C5",
                    "midi": 72,
                    "time": 506.25,
                    "velocity": 0.7952755905511811,
                    "duration": 0.3125
                },
                {
                    "name": "G3",
                    "midi": 55,
                    "time": 506.5625,
                    "velocity": 0.7952755905511811,
                    "duration": 0.3125
                },
                {
                    "name": "C4",
                    "midi": 60,
                    "time": 506.5625,
                    "velocity": 0.7952755905511811,
                    "duration": 0.3125
                },
                {
                    "name": "E4",
                    "midi": 64,
                    "time": 506.5625,
                    "velocity": 0.7952755905511811,
                    "duration": 0.3125
                },
                {
                    "name": "C4",
                    "midi": 60,
                    "time": 506.875,
                    "velocity": 0.7952755905511811,
                    "duration": 0.3125
                },
                {
                    "name": "E4",
                    "midi": 64,
                    "time": 506.875,
                    "velocity": 0.7952755905511811,
                    "duration": 0.3125
                },
                {
                    "name": "G4",
                    "midi": 67,
                    "time": 506.875,
                    "velocity": 0.7952755905511811,
                    "duration": 0.3125
                },
                {
                    "name": "E3",
                    "midi": 52,
                    "time": 507.1875,
                    "velocity": 0.7952755905511811,
                    "duration": 0.3125
                },
                {
                    "name": "G3",
                    "midi": 55,
                    "time": 507.1875,
                    "velocity": 0.7952755905511811,
                    "duration": 0.3125
                },
                {
                    "name": "C4",
                    "midi": 60,
                    "time": 507.1875,
                    "velocity": 0.7952755905511811,
                    "duration": 0.3125
                },
                {
                    "name": "G3",
                    "midi": 55,
                    "time": 507.5,
                    "velocity": 0.7952755905511811,
                    "duration": 0.3125
                },
                {
                    "name": "C#4",
                    "midi": 61,
                    "time": 507.5,
                    "velocity": 0.7952755905511811,
                    "duration": 0.3125
                },
                {
                    "name": "E4",
                    "midi": 64,
                    "time": 507.5,
                    "velocity": 0.7952755905511811,
                    "duration": 0.3125
                },
                {
                    "name": "C#3",
                    "midi": 49,
                    "time": 507.8125,
                    "velocity": 0.7952755905511811,
                    "duration": 0.3125
                },
                {
                    "name": "E3",
                    "midi": 52,
                    "time": 507.8125,
                    "velocity": 0.7952755905511811,
                    "duration": 0.3125
                },
                {
                    "name": "G3",
                    "midi": 55,
                    "time": 507.8125,
                    "velocity": 0.7952755905511811,
                    "duration": 0.3125
                },
                {
                    "name": "C#3",
                    "midi": 49,
                    "time": 508.125,
                    "velocity": 0.7952755905511811,
                    "duration": 0.3125
                },
                {
                    "name": "E3",
                    "midi": 52,
                    "time": 508.125,
                    "velocity": 0.7952755905511811,
                    "duration": 0.3125
                },
                {
                    "name": "A3",
                    "midi": 57,
                    "time": 508.125,
                    "velocity": 0.7952755905511811,
                    "duration": 0.3125
                },
                {
                    "name": "F3",
                    "midi": 53,
                    "time": 508.4375,
                    "velocity": 0.7952755905511811,
                    "duration": 0.3125
                },
                {
                    "name": "A3",
                    "midi": 57,
                    "time": 508.4375,
                    "velocity": 0.7952755905511811,
                    "duration": 0.3125
                },
                {
                    "name": "C4",
                    "midi": 60,
                    "time": 508.4375,
                    "velocity": 0.7952755905511811,
                    "duration": 0.3125
                },
                {
                    "name": "F3",
                    "midi": 53,
                    "time": 509.0625,
                    "velocity": 0.7952755905511811,
                    "duration": 0.3125
                },
                {
                    "name": "A3",
                    "midi": 57,
                    "time": 509.0625,
                    "velocity": 0.7952755905511811,
                    "duration": 0.3125
                },
                {
                    "name": "C4",
                    "midi": 60,
                    "time": 509.0625,
                    "velocity": 0.7952755905511811,
                    "duration": 0.3125
                },
                {
                    "name": "E3",
                    "midi": 52,
                    "time": 509.6875,
                    "velocity": 0.7952755905511811,
                    "duration": 0.3125
                },
                {
                    "name": "A3",
                    "midi": 57,
                    "time": 509.6875,
                    "velocity": 0.7952755905511811,
                    "duration": 0.3125
                },
                {
                    "name": "C4",
                    "midi": 60,
                    "time": 509.6875,
                    "velocity": 0.7952755905511811,
                    "duration": 0.3125
                },
                {
                    "name": "F3",
                    "midi": 53,
                    "time": 510.3125,
                    "velocity": 0.7952755905511811,
                    "duration": 0.3125
                },
                {
                    "name": "A3",
                    "midi": 57,
                    "time": 510.3125,
                    "velocity": 0.7952755905511811,
                    "duration": 0.3125
                },
                {
                    "name": "D4",
                    "midi": 62,
                    "time": 510.3125,
                    "velocity": 0.7952755905511811,
                    "duration": 0.3125
                },
                {
                    "name": "B3",
                    "midi": 59,
                    "time": 510.9375,
                    "velocity": 0.7952755905511811,
                    "duration": 0.3125
                },
                {
                    "name": "E4",
                    "midi": 64,
                    "time": 510.9375,
                    "velocity": 0.7952755905511811,
                    "duration": 0.3125
                },
                {
                    "name": "A4",
                    "midi": 69,
                    "time": 510.9375,
                    "velocity": 0.7952755905511811,
                    "duration": 0.3125
                },
                {
                    "name": "C4",
                    "midi": 60,
                    "time": 511.25,
                    "velocity": 0.7952755905511811,
                    "duration": 0.061197916666685614
                },
                {
                    "name": "E4",
                    "midi": 64,
                    "time": 511.25,
                    "velocity": 0.7952755905511811,
                    "duration": 0.061197916666685614
                },
                {
                    "name": "G4",
                    "midi": 67,
                    "time": 511.25,
                    "velocity": 0.7952755905511811,
                    "duration": 0.061197916666685614
                },
                {
                    "name": "C4",
                    "midi": 60,
                    "time": 511.5625,
                    "velocity": 1,
                    "duration": 0.061197916666685614
                },
                {
                    "name": "E4",
                    "midi": 64,
                    "time": 511.5625,
                    "velocity": 1,
                    "duration": 0.061197916666685614
                },
                {
                    "name": "G4",
                    "midi": 67,
                    "time": 511.5625,
                    "velocity": 1,
                    "duration": 0.061197916666685614
                },
                {
                    "name": "C4",
                    "midi": 60,
                    "time": 512.1875,
                    "velocity": 0.7952755905511811,
                    "duration": 0.06119791666662877
                },
                {
                    "name": "F#4",
                    "midi": 66,
                    "time": 512.1875,
                    "velocity": 0.7952755905511811,
                    "duration": 0.06119791666662877
                },
                {
                    "name": "B4",
                    "midi": 71,
                    "time": 512.1875,
                    "velocity": 0.7952755905511811,
                    "duration": 0.06119791666662877
                },
                {
                    "name": "C4",
                    "midi": 60,
                    "time": 512.5,
                    "velocity": 1,
                    "duration": 0.06119791666662877
                },
                {
                    "name": "F#4",
                    "midi": 66,
                    "time": 512.5,
                    "velocity": 1,
                    "duration": 0.06119791666662877
                },
                {
                    "name": "B4",
                    "midi": 71,
                    "time": 512.5,
                    "velocity": 1,
                    "duration": 0.06119791666662877
                },
                {
                    "name": "B3",
                    "midi": 59,
                    "time": 513.125,
                    "velocity": 0.7952755905511811,
                    "duration": 0.06119791666662877
                },
                {
                    "name": "F4",
                    "midi": 65,
                    "time": 513.125,
                    "velocity": 0.7952755905511811,
                    "duration": 0.06119791666662877
                },
                {
                    "name": "C#5",
                    "midi": 73,
                    "time": 513.125,
                    "velocity": 0.7952755905511811,
                    "duration": 0.06119791666662877
                },
                {
                    "name": "B3",
                    "midi": 59,
                    "time": 513.4375,
                    "velocity": 1,
                    "duration": 0.06119791666662877
                },
                {
                    "name": "F4",
                    "midi": 65,
                    "time": 513.4375,
                    "velocity": 1,
                    "duration": 0.06119791666662877
                },
                {
                    "name": "C#5",
                    "midi": 73,
                    "time": 513.4375,
                    "velocity": 1,
                    "duration": 0.06119791666662877
                },
                {
                    "name": "A#3",
                    "midi": 58,
                    "time": 514.0625,
                    "velocity": 0.7952755905511811,
                    "duration": 0.06119791666662877
                },
                {
                    "name": "E4",
                    "midi": 64,
                    "time": 514.0625,
                    "velocity": 0.7952755905511811,
                    "duration": 0.06119791666662877
                },
                {
                    "name": "A4",
                    "midi": 69,
                    "time": 514.0625,
                    "velocity": 0.7952755905511811,
                    "duration": 0.06119791666662877
                },
                {
                    "name": "A#3",
                    "midi": 58,
                    "time": 514.375,
                    "velocity": 1,
                    "duration": 0.06119791666662877
                },
                {
                    "name": "E4",
                    "midi": 64,
                    "time": 514.375,
                    "velocity": 1,
                    "duration": 0.06119791666662877
                },
                {
                    "name": "A4",
                    "midi": 69,
                    "time": 514.375,
                    "velocity": 1,
                    "duration": 0.06119791666662877
                },
                {
                    "name": "A3",
                    "midi": 57,
                    "time": 515,
                    "velocity": 0.7952755905511811,
                    "duration": 0.06119791666662877
                },
                {
                    "name": "D#4",
                    "midi": 63,
                    "time": 515,
                    "velocity": 0.7952755905511811,
                    "duration": 0.06119791666662877
                },
                {
                    "name": "B4",
                    "midi": 71,
                    "time": 515,
                    "velocity": 0.7952755905511811,
                    "duration": 0.06119791666662877
                },
                {
                    "name": "A3",
                    "midi": 57,
                    "time": 515.3125,
                    "velocity": 1,
                    "duration": 0.06119791666662877
                },
                {
                    "name": "D#4",
                    "midi": 63,
                    "time": 515.3125,
                    "velocity": 1,
                    "duration": 0.06119791666662877
                },
                {
                    "name": "B4",
                    "midi": 71,
                    "time": 515.3125,
                    "velocity": 1,
                    "duration": 0.06119791666662877
                },
                {
                    "name": "A3",
                    "midi": 57,
                    "time": 515.9375,
                    "velocity": 0.7952755905511811,
                    "duration": 0.06119791666662877
                },
                {
                    "name": "C4",
                    "midi": 60,
                    "time": 515.9375,
                    "velocity": 0.7952755905511811,
                    "duration": 0.06119791666662877
                },
                {
                    "name": "F4",
                    "midi": 65,
                    "time": 515.9375,
                    "velocity": 0.7952755905511811,
                    "duration": 0.06119791666662877
                },
                {
                    "name": "E4",
                    "midi": 64,
                    "time": 516.25,
                    "velocity": 0.7952755905511811,
                    "duration": 0.3125
                },
                {
                    "name": "G4",
                    "midi": 67,
                    "time": 516.25,
                    "velocity": 0.7952755905511811,
                    "duration": 0.3125
                },
                {
                    "name": "B4",
                    "midi": 71,
                    "time": 516.25,
                    "velocity": 0.7952755905511811,
                    "duration": 0.3125
                },
                {
                    "name": "G3",
                    "midi": 55,
                    "time": 516.5625,
                    "velocity": 0.7952755905511811,
                    "duration": 0.3125
                },
                {
                    "name": "C4",
                    "midi": 60,
                    "time": 516.5625,
                    "velocity": 0.7952755905511811,
                    "duration": 0.3125
                },
                {
                    "name": "E4",
                    "midi": 64,
                    "time": 516.5625,
                    "velocity": 0.7952755905511811,
                    "duration": 0.3125
                },
                {
                    "name": "C4",
                    "midi": 60,
                    "time": 516.875,
                    "velocity": 0.7952755905511811,
                    "duration": 0.3125
                },
                {
                    "name": "E4",
                    "midi": 64,
                    "time": 516.875,
                    "velocity": 0.7952755905511811,
                    "duration": 0.3125
                },
                {
                    "name": "G4",
                    "midi": 67,
                    "time": 516.875,
                    "velocity": 0.7952755905511811,
                    "duration": 0.3125
                },
                {
                    "name": "E3",
                    "midi": 52,
                    "time": 517.1875,
                    "velocity": 0.7952755905511811,
                    "duration": 0.3125
                },
                {
                    "name": "G3",
                    "midi": 55,
                    "time": 517.1875,
                    "velocity": 0.7952755905511811,
                    "duration": 0.3125
                },
                {
                    "name": "C4",
                    "midi": 60,
                    "time": 517.1875,
                    "velocity": 0.7952755905511811,
                    "duration": 0.3125
                },
                {
                    "name": "G3",
                    "midi": 55,
                    "time": 517.5,
                    "velocity": 0.7952755905511811,
                    "duration": 0.3125
                },
                {
                    "name": "C#4",
                    "midi": 61,
                    "time": 517.5,
                    "velocity": 0.7952755905511811,
                    "duration": 0.3125
                },
                {
                    "name": "E4",
                    "midi": 64,
                    "time": 517.5,
                    "velocity": 0.7952755905511811,
                    "duration": 0.3125
                },
                {
                    "name": "C#3",
                    "midi": 49,
                    "time": 517.8125,
                    "velocity": 0.7952755905511811,
                    "duration": 0.3125
                },
                {
                    "name": "E3",
                    "midi": 52,
                    "time": 517.8125,
                    "velocity": 0.7952755905511811,
                    "duration": 0.3125
                },
                {
                    "name": "G3",
                    "midi": 55,
                    "time": 517.8125,
                    "velocity": 0.7952755905511811,
                    "duration": 0.3125
                },
                {
                    "name": "C#3",
                    "midi": 49,
                    "time": 518.125,
                    "velocity": 0.7952755905511811,
                    "duration": 0.3125
                },
                {
                    "name": "E3",
                    "midi": 52,
                    "time": 518.125,
                    "velocity": 0.7952755905511811,
                    "duration": 0.3125
                },
                {
                    "name": "A3",
                    "midi": 57,
                    "time": 518.125,
                    "velocity": 0.7952755905511811,
                    "duration": 0.3125
                },
                {
                    "name": "F3",
                    "midi": 53,
                    "time": 518.4375,
                    "velocity": 0.7952755905511811,
                    "duration": 0.3125
                },
                {
                    "name": "A3",
                    "midi": 57,
                    "time": 518.4375,
                    "velocity": 0.7952755905511811,
                    "duration": 0.3125
                },
                {
                    "name": "C4",
                    "midi": 60,
                    "time": 518.4375,
                    "velocity": 0.7952755905511811,
                    "duration": 0.3125
                },
                {
                    "name": "F3",
                    "midi": 53,
                    "time": 519.0625,
                    "velocity": 0.7952755905511811,
                    "duration": 0.3125
                },
                {
                    "name": "A3",
                    "midi": 57,
                    "time": 519.0625,
                    "velocity": 0.7952755905511811,
                    "duration": 0.3125
                },
                {
                    "name": "C4",
                    "midi": 60,
                    "time": 519.0625,
                    "velocity": 0.7952755905511811,
                    "duration": 0.3125
                },
                {
                    "name": "E3",
                    "midi": 52,
                    "time": 519.6875,
                    "velocity": 0.7952755905511811,
                    "duration": 0.3125
                },
                {
                    "name": "A3",
                    "midi": 57,
                    "time": 519.6875,
                    "velocity": 0.7952755905511811,
                    "duration": 0.3125
                },
                {
                    "name": "C4",
                    "midi": 60,
                    "time": 519.6875,
                    "velocity": 0.7952755905511811,
                    "duration": 0.3125
                },
                {
                    "name": "F3",
                    "midi": 53,
                    "time": 520.3125,
                    "velocity": 0.7952755905511811,
                    "duration": 0.3125
                },
                {
                    "name": "A3",
                    "midi": 57,
                    "time": 520.3125,
                    "velocity": 0.7952755905511811,
                    "duration": 0.3125
                },
                {
                    "name": "D4",
                    "midi": 62,
                    "time": 520.3125,
                    "velocity": 0.7952755905511811,
                    "duration": 0.3125
                },
                {
                    "name": "B3",
                    "midi": 59,
                    "time": 520.9375,
                    "velocity": 0.7952755905511811,
                    "duration": 0.3125
                },
                {
                    "name": "E4",
                    "midi": 64,
                    "time": 520.9375,
                    "velocity": 0.7952755905511811,
                    "duration": 0.3125
                },
                {
                    "name": "A4",
                    "midi": 69,
                    "time": 520.9375,
                    "velocity": 0.7952755905511811,
                    "duration": 0.3125
                },
                {
                    "name": "F4",
                    "midi": 65,
                    "time": 521.5625,
                    "velocity": 0.7952755905511811,
                    "duration": 0.06119791666662877
                },
                {
                    "name": "G4",
                    "midi": 67,
                    "time": 521.5625,
                    "velocity": 0.7952755905511811,
                    "duration": 0.06119791666662877
                },
                {
                    "name": "E4",
                    "midi": 64,
                    "time": 521.875,
                    "velocity": 1,
                    "duration": 0.06119791666662877
                },
                {
                    "name": "G4",
                    "midi": 67,
                    "time": 521.875,
                    "velocity": 1,
                    "duration": 0.06119791666662877
                },
                {
                    "name": "D4",
                    "midi": 62,
                    "time": 522.5,
                    "velocity": 0.7952755905511811,
                    "duration": 0.06119791666662877
                },
                {
                    "name": "E4",
                    "midi": 64,
                    "time": 522.5,
                    "velocity": 0.7952755905511811,
                    "duration": 0.06119791666662877
                },
                {
                    "name": "C4",
                    "midi": 60,
                    "time": 522.8125,
                    "velocity": 1,
                    "duration": 0.06119791666662877
                },
                {
                    "name": "E4",
                    "midi": 64,
                    "time": 522.8125,
                    "velocity": 1,
                    "duration": 0.06119791666662877
                },
                {
                    "name": "B3",
                    "midi": 59,
                    "time": 523.4375,
                    "velocity": 0.7952755905511811,
                    "duration": 0.06119791666662877
                },
                {
                    "name": "C4",
                    "midi": 60,
                    "time": 523.4375,
                    "velocity": 0.7952755905511811,
                    "duration": 0.06119791666662877
                },
                {
                    "name": "A3",
                    "midi": 57,
                    "time": 523.75,
                    "velocity": 1,
                    "duration": 0.06119791666662877
                },
                {
                    "name": "C4",
                    "midi": 60,
                    "time": 523.75,
                    "velocity": 1,
                    "duration": 0.06119791666662877
                },
                {
                    "name": "A3",
                    "midi": 57,
                    "time": 526.25,
                    "velocity": 0.7952755905511811,
                    "duration": 0.9375
                },
                {
                    "name": "C4",
                    "midi": 60,
                    "time": 526.25,
                    "velocity": 0.7952755905511811,
                    "duration": 0.9375
                },
                {
                    "name": "F4",
                    "midi": 65,
                    "time": 526.25,
                    "velocity": 0.7952755905511811,
                    "duration": 0.9375
                },
                {
                    "name": "A4",
                    "midi": 69,
                    "time": 526.25,
                    "velocity": 0.7952755905511811,
                    "duration": 0.9375
                },
                {
                    "name": "F3",
                    "midi": 53,
                    "time": 527.1875,
                    "velocity": 0.7952755905511811,
                    "duration": 0.10416666666662877
                },
                {
                    "name": "A3",
                    "midi": 57,
                    "time": 527.1875,
                    "velocity": 0.7952755905511811,
                    "duration": 0.10416666666662877
                },
                {
                    "name": "D4",
                    "midi": 62,
                    "time": 527.1875,
                    "velocity": 0.7952755905511811,
                    "duration": 0.10416666666662877
                },
                {
                    "name": "F#3",
                    "midi": 54,
                    "time": 527.2916666666666,
                    "velocity": 0.7952755905511811,
                    "duration": 0.10286458333337123
                },
                {
                    "name": "A#3",
                    "midi": 58,
                    "time": 527.2916666666666,
                    "velocity": 0.7952755905511811,
                    "duration": 0.10286458333337123
                },
                {
                    "name": "D#4",
                    "midi": 63,
                    "time": 527.2916666666666,
                    "velocity": 0.7952755905511811,
                    "duration": 0.10286458333337123
                },
                {
                    "name": "G3",
                    "midi": 55,
                    "time": 527.39453125,
                    "velocity": 0.7952755905511811,
                    "duration": 0.10546875
                },
                {
                    "name": "B3",
                    "midi": 59,
                    "time": 527.39453125,
                    "velocity": 0.7952755905511811,
                    "duration": 0.10546875
                },
                {
                    "name": "E4",
                    "midi": 64,
                    "time": 527.39453125,
                    "velocity": 0.7952755905511811,
                    "duration": 0.10546875
                },
                {
                    "name": "G#3",
                    "midi": 56,
                    "time": 527.5,
                    "velocity": 0.7952755905511811,
                    "duration": 0.3125
                },
                {
                    "name": "C4",
                    "midi": 60,
                    "time": 527.5,
                    "velocity": 0.7952755905511811,
                    "duration": 0.3125
                },
                {
                    "name": "F4",
                    "midi": 65,
                    "time": 527.5,
                    "velocity": 0.7952755905511811,
                    "duration": 0.3125
                },
                {
                    "name": "G#3",
                    "midi": 56,
                    "time": 527.8125,
                    "velocity": 0.7952755905511811,
                    "duration": 0.625
                },
                {
                    "name": "C4",
                    "midi": 60,
                    "time": 527.8125,
                    "velocity": 0.7952755905511811,
                    "duration": 0.625
                },
                {
                    "name": "G4",
                    "midi": 67,
                    "time": 527.8125,
                    "velocity": 0.7952755905511811,
                    "duration": 0.625
                },
                {
                    "name": "G#3",
                    "midi": 56,
                    "time": 528.4375,
                    "velocity": 0.7952755905511811,
                    "duration": 0.3125
                },
                {
                    "name": "C4",
                    "midi": 60,
                    "time": 528.4375,
                    "velocity": 0.7952755905511811,
                    "duration": 0.3125
                },
                {
                    "name": "G4",
                    "midi": 67,
                    "time": 528.4375,
                    "velocity": 0.7952755905511811,
                    "duration": 0.3125
                },
                {
                    "name": "C4",
                    "midi": 60,
                    "time": 528.75,
                    "velocity": 0.5905511811023622,
                    "duration": 0.625
                },
                {
                    "name": "E4",
                    "midi": 64,
                    "time": 528.75,
                    "velocity": 0.5905511811023622,
                    "duration": 0.625
                },
                {
                    "name": "G4",
                    "midi": 67,
                    "time": 528.75,
                    "velocity": 0.5905511811023622,
                    "duration": 0.625
                },
                {
                    "name": "C4",
                    "midi": 60,
                    "time": 529.375,
                    "velocity": 0.5905511811023622,
                    "duration": 0.3125
                },
                {
                    "name": "E4",
                    "midi": 64,
                    "time": 529.375,
                    "velocity": 0.5905511811023622,
                    "duration": 0.3125
                },
                {
                    "name": "G#4",
                    "midi": 68,
                    "time": 529.375,
                    "velocity": 0.5905511811023622,
                    "duration": 0.3125
                },
                {
                    "name": "C4",
                    "midi": 60,
                    "time": 529.6875,
                    "velocity": 0.5905511811023622,
                    "duration": 0.3125
                },
                {
                    "name": "E4",
                    "midi": 64,
                    "time": 529.6875,
                    "velocity": 0.5905511811023622,
                    "duration": 0.3125
                },
                {
                    "name": "A4",
                    "midi": 69,
                    "time": 529.6875,
                    "velocity": 0.5905511811023622,
                    "duration": 0.3125
                },
                {
                    "name": "C4",
                    "midi": 60,
                    "time": 530,
                    "velocity": 0.4881889763779528,
                    "duration": 0.625
                },
                {
                    "name": "F#4",
                    "midi": 66,
                    "time": 530,
                    "velocity": 0.4881889763779528,
                    "duration": 0.625
                },
                {
                    "name": "A#4",
                    "midi": 70,
                    "time": 530,
                    "velocity": 0.4881889763779528,
                    "duration": 0.625
                },
                {
                    "name": "B3",
                    "midi": 59,
                    "time": 530.625,
                    "velocity": 0.4881889763779528,
                    "duration": 0.625
                },
                {
                    "name": "F4",
                    "midi": 65,
                    "time": 530.625,
                    "velocity": 0.4881889763779528,
                    "duration": 0.625
                },
                {
                    "name": "A4",
                    "midi": 69,
                    "time": 530.625,
                    "velocity": 0.4881889763779528,
                    "duration": 0.625
                },
                {
                    "name": "C4",
                    "midi": 60,
                    "time": 531.25,
                    "velocity": 0.4881889763779528,
                    "duration": 0.625
                },
                {
                    "name": "F#4",
                    "midi": 66,
                    "time": 531.25,
                    "velocity": 0.4881889763779528,
                    "duration": 0.625
                },
                {
                    "name": "A#4",
                    "midi": 70,
                    "time": 531.25,
                    "velocity": 0.4881889763779528,
                    "duration": 0.625
                },
                {
                    "name": "B3",
                    "midi": 59,
                    "time": 531.875,
                    "velocity": 0.4881889763779528,
                    "duration": 0.625
                },
                {
                    "name": "F4",
                    "midi": 65,
                    "time": 531.875,
                    "velocity": 0.4881889763779528,
                    "duration": 0.625
                },
                {
                    "name": "A4",
                    "midi": 69,
                    "time": 531.875,
                    "velocity": 0.4881889763779528,
                    "duration": 0.625
                },
                {
                    "name": "C4",
                    "midi": 60,
                    "time": 532.5,
                    "velocity": 0.4881889763779528,
                    "duration": 0.625
                },
                {
                    "name": "F4",
                    "midi": 65,
                    "time": 532.5,
                    "velocity": 0.4881889763779528,
                    "duration": 0.625
                },
                {
                    "name": "A#4",
                    "midi": 70,
                    "time": 532.5,
                    "velocity": 0.4881889763779528,
                    "duration": 0.625
                },
                {
                    "name": "B3",
                    "midi": 59,
                    "time": 533.125,
                    "velocity": 0.4881889763779528,
                    "duration": 0.625
                },
                {
                    "name": "F4",
                    "midi": 65,
                    "time": 533.125,
                    "velocity": 0.4881889763779528,
                    "duration": 0.625
                },
                {
                    "name": "A4",
                    "midi": 69,
                    "time": 533.125,
                    "velocity": 0.4881889763779528,
                    "duration": 0.625
                },
                {
                    "name": "A#4",
                    "midi": 70,
                    "time": 533.75,
                    "velocity": 0.5905511811023622,
                    "duration": 0.625
                },
                {
                    "name": "C5",
                    "midi": 72,
                    "time": 533.75,
                    "velocity": 0.5905511811023622,
                    "duration": 1.25
                },
                {
                    "name": "A4",
                    "midi": 69,
                    "time": 534.375,
                    "velocity": 0.5905511811023622,
                    "duration": 0.625
                },
                {
                    "name": "D5",
                    "midi": 74,
                    "time": 534.921875,
                    "velocity": 0.5905511811023622,
                    "duration": 0.078125
                },
                {
                    "name": "G4",
                    "midi": 67,
                    "time": 535,
                    "velocity": 0.5905511811023622,
                    "duration": 0.625
                },
                {
                    "name": "D#5",
                    "midi": 75,
                    "time": 535,
                    "velocity": 0.5905511811023622,
                    "duration": 0.3125
                },
                {
                    "name": "C5",
                    "midi": 72,
                    "time": 535.3125,
                    "velocity": 0.5905511811023622,
                    "duration": 0.9375
                },
                {
                    "name": "F4",
                    "midi": 65,
                    "time": 535.625,
                    "velocity": 0.5905511811023622,
                    "duration": 0.625
                },
                {
                    "name": "E4",
                    "midi": 64,
                    "time": 536.25,
                    "velocity": 0.4881889763779528,
                    "duration": 0.625
                },
                {
                    "name": "G4",
                    "midi": 67,
                    "time": 536.25,
                    "velocity": 0.4881889763779528,
                    "duration": 1.25
                },
                {
                    "name": "D4",
                    "midi": 62,
                    "time": 536.875,
                    "velocity": 0.4881889763779528,
                    "duration": 0.625
                },
                {
                    "name": "A4",
                    "midi": 69,
                    "time": 537.421875,
                    "velocity": 0.4881889763779528,
                    "duration": 0.078125
                },
                {
                    "name": "C4",
                    "midi": 60,
                    "time": 537.5,
                    "velocity": 0.4881889763779528,
                    "duration": 0.625
                },
                {
                    "name": "A#4",
                    "midi": 70,
                    "time": 537.5,
                    "velocity": 0.4881889763779528,
                    "duration": 0.3125
                },
                {
                    "name": "G4",
                    "midi": 67,
                    "time": 537.8125,
                    "velocity": 0.4881889763779528,
                    "duration": 0.9375
                },
                {
                    "name": "B3",
                    "midi": 59,
                    "time": 538.125,
                    "velocity": 0.4881889763779528,
                    "duration": 0.625
                },
                {
                    "name": "E4",
                    "midi": 64,
                    "time": 538.75,
                    "velocity": 0.4881889763779528,
                    "duration": 1.25
                },
                {
                    "name": "E4",
                    "midi": 64,
                    "time": 539.921875,
                    "velocity": 0.4881889763779528,
                    "duration": 0.078125
                },
                {
                    "name": "F4",
                    "midi": 65,
                    "time": 540,
                    "velocity": 0.4881889763779528,
                    "duration": 0.3125
                },
                {
                    "name": "G4",
                    "midi": 67,
                    "time": 540.3125,
                    "velocity": 0.4881889763779528,
                    "duration": 0.9375
                },
                {
                    "name": "D#5",
                    "midi": 75,
                    "time": 555.625,
                    "velocity": 0.6929133858267716,
                    "duration": 0.3125
                },
                {
                    "name": "D#5",
                    "midi": 75,
                    "time": 555.9375,
                    "velocity": 0.4881889763779528,
                    "duration": 0.02994791666662877
                },
                {
                    "name": "D#5",
                    "midi": 75,
                    "time": 556.09375,
                    "velocity": 0.4881889763779528,
                    "duration": 0.02994791666662877
                },
                {
                    "name": "D#5",
                    "midi": 75,
                    "time": 556.25,
                    "velocity": 0.4881889763779528,
                    "duration": 0.02994791666662877
                },
                {
                    "name": "D#5",
                    "midi": 75,
                    "time": 556.40625,
                    "velocity": 0.4881889763779528,
                    "duration": 0.02994791666662877
                },
                {
                    "name": "G5",
                    "midi": 79,
                    "time": 556.5625,
                    "velocity": 0.6929133858267716,
                    "duration": 0.06119791666662877
                },
                {
                    "name": "C#5",
                    "midi": 73,
                    "time": 556.875,
                    "velocity": 0.4881889763779528,
                    "duration": 3.125
                },
                {
                    "name": "E5",
                    "midi": 76,
                    "time": 560,
                    "velocity": 0.4881889763779528,
                    "duration": 2.5
                },
                {
                    "name": "E3",
                    "midi": 52,
                    "time": 562.8125,
                    "velocity": 0.5905511811023622,
                    "duration": 0.3125
                },
                {
                    "name": "G3",
                    "midi": 55,
                    "time": 563.125,
                    "velocity": 0.5905511811023622,
                    "duration": 0.3125
                },
                {
                    "name": "C4",
                    "midi": 60,
                    "time": 563.4375,
                    "velocity": 0.5905511811023622,
                    "duration": 0.3125
                },
                {
                    "name": "D#4",
                    "midi": 63,
                    "time": 563.75,
                    "velocity": 0.5905511811023622,
                    "duration": 0.3125
                },
                {
                    "name": "D#4",
                    "midi": 63,
                    "time": 564.0625,
                    "velocity": 0.7952755905511811,
                    "duration": 0.3125
                },
                {
                    "name": "D#4",
                    "midi": 63,
                    "time": 564.375,
                    "velocity": 0.7952755905511811,
                    "duration": 0.3125
                },
                {
                    "name": "D#4",
                    "midi": 63,
                    "time": 564.6875,
                    "velocity": 0.7952755905511811,
                    "duration": 0.3125
                },
                {
                    "name": "D#4",
                    "midi": 63,
                    "time": 565,
                    "velocity": 0.5905511811023622,
                    "duration": 0.3125
                },
                {
                    "name": "D4",
                    "midi": 62,
                    "time": 565.3125,
                    "velocity": 0.5905511811023622,
                    "duration": 0.3125
                },
                {
                    "name": "C4",
                    "midi": 60,
                    "time": 565.625,
                    "velocity": 0.5905511811023622,
                    "duration": 0.3125
                },
                {
                    "name": "B3",
                    "midi": 59,
                    "time": 565.9375,
                    "velocity": 0.5905511811023622,
                    "duration": 1.5625
                },
                {
                    "name": "E3",
                    "midi": 52,
                    "time": 567.5,
                    "velocity": 0.3858267716535433,
                    "duration": 0.625
                },
                {
                    "name": "G3",
                    "midi": 55,
                    "time": 567.5,
                    "velocity": 0.3858267716535433,
                    "duration": 0.625
                },
                {
                    "name": "C4",
                    "midi": 60,
                    "time": 567.5,
                    "velocity": 0.3858267716535433,
                    "duration": 0.625
                },
                {
                    "name": "G3",
                    "midi": 55,
                    "time": 568.125,
                    "velocity": 0.3858267716535433,
                    "duration": 0.625
                },
                {
                    "name": "C#4",
                    "midi": 61,
                    "time": 568.125,
                    "velocity": 0.3858267716535433,
                    "duration": 0.625
                },
                {
                    "name": "D#4",
                    "midi": 63,
                    "time": 568.125,
                    "velocity": 0.3858267716535433,
                    "duration": 0.625
                },
                {
                    "name": "C4",
                    "midi": 60,
                    "time": 568.75,
                    "velocity": 0.4881889763779528,
                    "duration": 0.625
                },
                {
                    "name": "G4",
                    "midi": 67,
                    "time": 568.75,
                    "velocity": 0.4881889763779528,
                    "duration": 0.625
                },
                {
                    "name": "G#4",
                    "midi": 68,
                    "time": 568.75,
                    "velocity": 0.4881889763779528,
                    "duration": 0.625
                },
                {
                    "name": "B3",
                    "midi": 59,
                    "time": 569.375,
                    "velocity": 0.4881889763779528,
                    "duration": 0.625
                },
                {
                    "name": "F4",
                    "midi": 65,
                    "time": 569.375,
                    "velocity": 0.4881889763779528,
                    "duration": 0.625
                },
                {
                    "name": "G#4",
                    "midi": 68,
                    "time": 569.375,
                    "velocity": 0.4881889763779528,
                    "duration": 0.625
                },
                {
                    "name": "C#5",
                    "midi": 73,
                    "time": 569.375,
                    "velocity": 0.4881889763779528,
                    "duration": 0.625
                },
                {
                    "name": "G#4",
                    "midi": 68,
                    "time": 570,
                    "velocity": 0.4881889763779528,
                    "duration": 0.625
                },
                {
                    "name": "C5",
                    "midi": 72,
                    "time": 570,
                    "velocity": 0.4881889763779528,
                    "duration": 0.625
                },
                {
                    "name": "E5",
                    "midi": 76,
                    "time": 570,
                    "velocity": 0.4881889763779528,
                    "duration": 0.625
                },
                {
                    "name": "G4",
                    "midi": 67,
                    "time": 570.625,
                    "velocity": 0.5905511811023622,
                    "duration": 0.625
                },
                {
                    "name": "B4",
                    "midi": 71,
                    "time": 570.625,
                    "velocity": 0.5905511811023622,
                    "duration": 0.625
                },
                {
                    "name": "G5",
                    "midi": 79,
                    "time": 570.625,
                    "velocity": 0.5905511811023622,
                    "duration": 0.625
                },
                {
                    "name": "D5",
                    "midi": 74,
                    "time": 571.25,
                    "velocity": 0.5905511811023622,
                    "duration": 2.5
                },
                {
                    "name": "D6",
                    "midi": 86,
                    "time": 571.25,
                    "velocity": 0.5905511811023622,
                    "duration": 2.5
                },
                {
                    "name": "A#3",
                    "midi": 58,
                    "time": 576.5625,
                    "velocity": 0.5905511811023622,
                    "duration": 0.3125
                },
                {
                    "name": "B3",
                    "midi": 59,
                    "time": 576.875,
                    "velocity": 0.5905511811023622,
                    "duration": 0.3125
                },
                {
                    "name": "C4",
                    "midi": 60,
                    "time": 577.1875,
                    "velocity": 0.5905511811023622,
                    "duration": 0.3125
                },
                {
                    "name": "C#4",
                    "midi": 61,
                    "time": 577.5,
                    "velocity": 0.5905511811023622,
                    "duration": 0.3125
                },
                {
                    "name": "D4",
                    "midi": 62,
                    "time": 577.8125,
                    "velocity": 0.5905511811023622,
                    "duration": 0.3125
                },
                {
                    "name": "F#3",
                    "midi": 54,
                    "time": 581.71875,
                    "velocity": 0.4881889763779528,
                    "duration": 0.3125
                },
                {
                    "name": "G3",
                    "midi": 55,
                    "time": 582.03125,
                    "velocity": 0.4881889763779528,
                    "duration": 0.3125
                },
                {
                    "name": "G#3",
                    "midi": 56,
                    "time": 582.34375,
                    "velocity": 0.4881889763779528,
                    "duration": 0.3125
                },
                {
                    "name": "A3",
                    "midi": 57,
                    "time": 582.65625,
                    "velocity": 0.4881889763779528,
                    "duration": 0.3125
                },
                {
                    "name": "A#3",
                    "midi": 58,
                    "time": 582.96875,
                    "velocity": 0.4881889763779528,
                    "duration": 0.3125
                },
                {
                    "name": "B3",
                    "midi": 59,
                    "time": 583.28125,
                    "velocity": 0.4881889763779528,
                    "duration": 0.3125
                },
                {
                    "name": "C4",
                    "midi": 60,
                    "time": 583.59375,
                    "velocity": 0.4881889763779528,
                    "duration": 0.3125
                },
                {
                    "name": "C#4",
                    "midi": 61,
                    "time": 583.90625,
                    "velocity": 0.4881889763779528,
                    "duration": 0.3125
                },
                {
                    "name": "D4",
                    "midi": 62,
                    "time": 584.21875,
                    "velocity": 0.4881889763779528,
                    "duration": 0.15625
                },
                {
                    "name": "A3",
                    "midi": 57,
                    "time": 591.5625,
                    "velocity": 0.7952755905511811,
                    "duration": 0.3125
                },
                {
                    "name": "D4",
                    "midi": 62,
                    "time": 591.5625,
                    "velocity": 0.7952755905511811,
                    "duration": 0.3125
                },
                {
                    "name": "F#4",
                    "midi": 66,
                    "time": 591.5625,
                    "velocity": 0.7952755905511811,
                    "duration": 0.3125
                },
                {
                    "name": "A4",
                    "midi": 69,
                    "time": 591.5625,
                    "velocity": 0.7952755905511811,
                    "duration": 0.3125
                },
                {
                    "name": "B3",
                    "midi": 59,
                    "time": 591.875,
                    "velocity": 0.7952755905511811,
                    "duration": 0.3125
                },
                {
                    "name": "E4",
                    "midi": 64,
                    "time": 591.875,
                    "velocity": 0.7952755905511811,
                    "duration": 0.3125
                },
                {
                    "name": "G#4",
                    "midi": 68,
                    "time": 591.875,
                    "velocity": 0.7952755905511811,
                    "duration": 0.3125
                },
                {
                    "name": "B4",
                    "midi": 71,
                    "time": 591.875,
                    "velocity": 0.7952755905511811,
                    "duration": 0.3125
                },
                {
                    "name": "G#3",
                    "midi": 56,
                    "time": 592.1875,
                    "velocity": 0.7952755905511811,
                    "duration": 0.3125
                },
                {
                    "name": "C#4",
                    "midi": 61,
                    "time": 592.1875,
                    "velocity": 0.7952755905511811,
                    "duration": 0.3125
                },
                {
                    "name": "E4",
                    "midi": 64,
                    "time": 592.1875,
                    "velocity": 0.7952755905511811,
                    "duration": 0.3125
                },
                {
                    "name": "G#4",
                    "midi": 68,
                    "time": 592.1875,
                    "velocity": 0.7952755905511811,
                    "duration": 0.3125
                },
                {
                    "name": "A3",
                    "midi": 57,
                    "time": 592.5,
                    "velocity": 0.7952755905511811,
                    "duration": 0.3125
                },
                {
                    "name": "D4",
                    "midi": 62,
                    "time": 592.5,
                    "velocity": 0.7952755905511811,
                    "duration": 0.3125
                },
                {
                    "name": "F#4",
                    "midi": 66,
                    "time": 592.5,
                    "velocity": 0.7952755905511811,
                    "duration": 0.3125
                },
                {
                    "name": "A4",
                    "midi": 69,
                    "time": 592.5,
                    "velocity": 0.7952755905511811,
                    "duration": 0.3125
                },
                {
                    "name": "G#3",
                    "midi": 56,
                    "time": 592.8125,
                    "velocity": 0.7952755905511811,
                    "duration": 0.3125
                },
                {
                    "name": "C#4",
                    "midi": 61,
                    "time": 592.8125,
                    "velocity": 0.7952755905511811,
                    "duration": 0.3125
                },
                {
                    "name": "E4",
                    "midi": 64,
                    "time": 592.8125,
                    "velocity": 0.7952755905511811,
                    "duration": 0.3125
                },
                {
                    "name": "G#4",
                    "midi": 68,
                    "time": 592.8125,
                    "velocity": 0.7952755905511811,
                    "duration": 0.3125
                },
                {
                    "name": "F#3",
                    "midi": 54,
                    "time": 593.125,
                    "velocity": 0.7952755905511811,
                    "duration": 0.625
                },
                {
                    "name": "B3",
                    "midi": 59,
                    "time": 593.125,
                    "velocity": 0.7952755905511811,
                    "duration": 0.625
                },
                {
                    "name": "D4",
                    "midi": 62,
                    "time": 593.125,
                    "velocity": 0.7952755905511811,
                    "duration": 0.625
                },
                {
                    "name": "F#4",
                    "midi": 66,
                    "time": 593.125,
                    "velocity": 0.7952755905511811,
                    "duration": 0.625
                },
                {
                    "name": "G#3",
                    "midi": 56,
                    "time": 594.0625,
                    "velocity": 0.7952755905511811,
                    "duration": 0.15625
                },
                {
                    "name": "C#4",
                    "midi": 61,
                    "time": 594.0625,
                    "velocity": 0.7952755905511811,
                    "duration": 0.15625
                },
                {
                    "name": "F4",
                    "midi": 65,
                    "time": 594.0625,
                    "velocity": 0.7952755905511811,
                    "duration": 0.15625
                },
                {
                    "name": "G#4",
                    "midi": 68,
                    "time": 594.0625,
                    "velocity": 0.7952755905511811,
                    "duration": 0.15625
                },
                {
                    "name": "A3",
                    "midi": 57,
                    "time": 594.21875,
                    "velocity": 0.5905511811023622,
                    "duration": 0.15625
                },
                {
                    "name": "D4",
                    "midi": 62,
                    "time": 594.21875,
                    "velocity": 0.5905511811023622,
                    "duration": 0.15625
                },
                {
                    "name": "F#4",
                    "midi": 66,
                    "time": 594.21875,
                    "velocity": 0.5905511811023622,
                    "duration": 0.15625
                },
                {
                    "name": "A4",
                    "midi": 69,
                    "time": 594.21875,
                    "velocity": 0.5905511811023622,
                    "duration": 0.15625
                },
                {
                    "name": "B3",
                    "midi": 59,
                    "time": 594.375,
                    "velocity": 0.5905511811023622,
                    "duration": 0.06119791666662877
                },
                {
                    "name": "F4",
                    "midi": 65,
                    "time": 594.375,
                    "velocity": 0.5905511811023622,
                    "duration": 0.06119791666662877
                },
                {
                    "name": "G#4",
                    "midi": 68,
                    "time": 594.375,
                    "velocity": 0.5905511811023622,
                    "duration": 0.06119791666662877
                },
                {
                    "name": "B4",
                    "midi": 71,
                    "time": 594.375,
                    "velocity": 0.5905511811023622,
                    "duration": 0.06119791666662877
                },
                {
                    "name": "G#3",
                    "midi": 56,
                    "time": 594.6875,
                    "velocity": 0.7952755905511811,
                    "duration": 0.3125
                },
                {
                    "name": "C#4",
                    "midi": 61,
                    "time": 594.6875,
                    "velocity": 0.7952755905511811,
                    "duration": 0.3125
                },
                {
                    "name": "F4",
                    "midi": 65,
                    "time": 594.6875,
                    "velocity": 0.7952755905511811,
                    "duration": 0.3125
                },
                {
                    "name": "G#4",
                    "midi": 68,
                    "time": 594.6875,
                    "velocity": 0.7952755905511811,
                    "duration": 0.3125
                },
                {
                    "name": "A3",
                    "midi": 57,
                    "time": 595,
                    "velocity": 0.5905511811023622,
                    "duration": 0.3125
                },
                {
                    "name": "D4",
                    "midi": 62,
                    "time": 595,
                    "velocity": 0.5905511811023622,
                    "duration": 0.3125
                },
                {
                    "name": "F#4",
                    "midi": 66,
                    "time": 595,
                    "velocity": 0.5905511811023622,
                    "duration": 0.3125
                },
                {
                    "name": "A4",
                    "midi": 69,
                    "time": 595,
                    "velocity": 0.5905511811023622,
                    "duration": 0.3125
                },
                {
                    "name": "G3",
                    "midi": 55,
                    "time": 595.3125,
                    "velocity": 0.7952755905511811,
                    "duration": 0.3125
                },
                {
                    "name": "C#4",
                    "midi": 61,
                    "time": 595.3125,
                    "velocity": 0.7952755905511811,
                    "duration": 0.3125
                },
                {
                    "name": "E4",
                    "midi": 64,
                    "time": 595.3125,
                    "velocity": 0.7952755905511811,
                    "duration": 0.3125
                },
                {
                    "name": "G4",
                    "midi": 67,
                    "time": 595.3125,
                    "velocity": 0.7952755905511811,
                    "duration": 0.3125
                },
                {
                    "name": "F#3",
                    "midi": 54,
                    "time": 595.625,
                    "velocity": 0.7952755905511811,
                    "duration": 0.625
                },
                {
                    "name": "B3",
                    "midi": 59,
                    "time": 595.625,
                    "velocity": 0.7952755905511811,
                    "duration": 0.625
                },
                {
                    "name": "D4",
                    "midi": 62,
                    "time": 595.625,
                    "velocity": 0.7952755905511811,
                    "duration": 0.625
                },
                {
                    "name": "F#4",
                    "midi": 66,
                    "time": 595.625,
                    "velocity": 0.7952755905511811,
                    "duration": 0.625
                },
                {
                    "name": "E3",
                    "midi": 52,
                    "time": 596.25,
                    "velocity": 0.7952755905511811,
                    "duration": 0.625
                },
                {
                    "name": "G#3",
                    "midi": 56,
                    "time": 596.25,
                    "velocity": 0.7952755905511811,
                    "duration": 0.625
                },
                {
                    "name": "B3",
                    "midi": 59,
                    "time": 596.25,
                    "velocity": 0.7952755905511811,
                    "duration": 0.625
                },
                {
                    "name": "D4",
                    "midi": 62,
                    "time": 596.25,
                    "velocity": 0.7952755905511811,
                    "duration": 0.625
                },
                {
                    "name": "E4",
                    "midi": 64,
                    "time": 596.25,
                    "velocity": 0.7952755905511811,
                    "duration": 0.625
                },
                {
                    "name": "G3",
                    "midi": 55,
                    "time": 596.875,
                    "velocity": 0.7952755905511811,
                    "duration": 0.625
                },
                {
                    "name": "B3",
                    "midi": 59,
                    "time": 596.875,
                    "velocity": 0.7952755905511811,
                    "duration": 0.625
                },
                {
                    "name": "D4",
                    "midi": 62,
                    "time": 596.875,
                    "velocity": 0.7952755905511811,
                    "duration": 0.625
                },
                {
                    "name": "F4",
                    "midi": 65,
                    "time": 596.875,
                    "velocity": 0.7952755905511811,
                    "duration": 0.625
                },
                {
                    "name": "G4",
                    "midi": 67,
                    "time": 596.875,
                    "velocity": 0.7952755905511811,
                    "duration": 0.625
                },
                {
                    "name": "A#3",
                    "midi": 58,
                    "time": 597.5,
                    "velocity": 0.7952755905511811,
                    "duration": 0.625
                },
                {
                    "name": "D4",
                    "midi": 62,
                    "time": 597.5,
                    "velocity": 0.7952755905511811,
                    "duration": 0.625
                },
                {
                    "name": "F4",
                    "midi": 65,
                    "time": 597.5,
                    "velocity": 0.7952755905511811,
                    "duration": 0.625
                },
                {
                    "name": "G#4",
                    "midi": 68,
                    "time": 597.5,
                    "velocity": 0.7952755905511811,
                    "duration": 0.625
                },
                {
                    "name": "A#4",
                    "midi": 70,
                    "time": 597.5,
                    "velocity": 0.7952755905511811,
                    "duration": 0.625
                },
                {
                    "name": "C#4",
                    "midi": 61,
                    "time": 598.125,
                    "velocity": 0.7952755905511811,
                    "duration": 0.625
                },
                {
                    "name": "F4",
                    "midi": 65,
                    "time": 598.125,
                    "velocity": 0.7952755905511811,
                    "duration": 0.625
                },
                {
                    "name": "G#4",
                    "midi": 68,
                    "time": 598.125,
                    "velocity": 0.7952755905511811,
                    "duration": 0.625
                },
                {
                    "name": "A#4",
                    "midi": 70,
                    "time": 598.125,
                    "velocity": 0.7952755905511811,
                    "duration": 0.625
                },
                {
                    "name": "C#5",
                    "midi": 73,
                    "time": 598.125,
                    "velocity": 0.7952755905511811,
                    "duration": 0.625
                },
                {
                    "name": "E4",
                    "midi": 64,
                    "time": 598.75,
                    "velocity": 0.5905511811023622,
                    "duration": 0.06119791666662877
                },
                {
                    "name": "G4",
                    "midi": 67,
                    "time": 598.75,
                    "velocity": 0.5905511811023622,
                    "duration": 0.06119791666662877
                },
                {
                    "name": "C5",
                    "midi": 72,
                    "time": 598.75,
                    "velocity": 0.5905511811023622,
                    "duration": 0.06119791666662877
                },
                {
                    "name": "E5",
                    "midi": 76,
                    "time": 598.75,
                    "velocity": 0.5905511811023622,
                    "duration": 0.06119791666662877
                },
                {
                    "name": "C#4",
                    "midi": 61,
                    "time": 599.0625,
                    "velocity": 0.5905511811023622,
                    "duration": 0.06119791666662877
                },
                {
                    "name": "E4",
                    "midi": 64,
                    "time": 599.0625,
                    "velocity": 0.5905511811023622,
                    "duration": 0.06119791666662877
                },
                {
                    "name": "G4",
                    "midi": 67,
                    "time": 599.0625,
                    "velocity": 0.5905511811023622,
                    "duration": 0.06119791666662877
                },
                {
                    "name": "D5",
                    "midi": 74,
                    "time": 599.0625,
                    "velocity": 0.5905511811023622,
                    "duration": 0.06119791666662877
                },
                {
                    "name": "C#4",
                    "midi": 61,
                    "time": 599.375,
                    "velocity": 0.5905511811023622,
                    "duration": 0.06119791666662877
                },
                {
                    "name": "E4",
                    "midi": 64,
                    "time": 599.375,
                    "velocity": 0.5905511811023622,
                    "duration": 0.06119791666662877
                },
                {
                    "name": "G4",
                    "midi": 67,
                    "time": 599.375,
                    "velocity": 0.5905511811023622,
                    "duration": 0.06119791666662877
                },
                {
                    "name": "B4",
                    "midi": 71,
                    "time": 599.375,
                    "velocity": 0.5905511811023622,
                    "duration": 0.06119791666662877
                },
                {
                    "name": "G#3",
                    "midi": 56,
                    "time": 599.6875,
                    "velocity": 0.5905511811023622,
                    "duration": 0.06119791666662877
                },
                {
                    "name": "C#4",
                    "midi": 61,
                    "time": 599.6875,
                    "velocity": 0.5905511811023622,
                    "duration": 0.06119791666662877
                },
                {
                    "name": "E4",
                    "midi": 64,
                    "time": 599.6875,
                    "velocity": 0.5905511811023622,
                    "duration": 0.06119791666662877
                },
                {
                    "name": "G4",
                    "midi": 67,
                    "time": 599.6875,
                    "velocity": 0.5905511811023622,
                    "duration": 0.06119791666662877
                },
                {
                    "name": "A3",
                    "midi": 57,
                    "time": 600,
                    "velocity": 0.7952755905511811,
                    "duration": 0.625
                },
                {
                    "name": "C#4",
                    "midi": 61,
                    "time": 600,
                    "velocity": 0.7952755905511811,
                    "duration": 0.625
                },
                {
                    "name": "E4",
                    "midi": 64,
                    "time": 600,
                    "velocity": 0.7952755905511811,
                    "duration": 0.625
                },
                {
                    "name": "G4",
                    "midi": 67,
                    "time": 600,
                    "velocity": 0.7952755905511811,
                    "duration": 0.625
                },
                {
                    "name": "A4",
                    "midi": 69,
                    "time": 600,
                    "velocity": 0.7952755905511811,
                    "duration": 0.625
                },
                {
                    "name": "C4",
                    "midi": 60,
                    "time": 600.625,
                    "velocity": 0.7952755905511811,
                    "duration": 0.625
                },
                {
                    "name": "E4",
                    "midi": 64,
                    "time": 600.625,
                    "velocity": 0.7952755905511811,
                    "duration": 0.625
                },
                {
                    "name": "G4",
                    "midi": 67,
                    "time": 600.625,
                    "velocity": 0.7952755905511811,
                    "duration": 0.625
                },
                {
                    "name": "A#4",
                    "midi": 70,
                    "time": 600.625,
                    "velocity": 0.7952755905511811,
                    "duration": 0.625
                },
                {
                    "name": "C5",
                    "midi": 72,
                    "time": 600.625,
                    "velocity": 0.7952755905511811,
                    "duration": 0.625
                },
                {
                    "name": "D#4",
                    "midi": 63,
                    "time": 601.25,
                    "velocity": 0.7952755905511811,
                    "duration": 0.625
                },
                {
                    "name": "G4",
                    "midi": 67,
                    "time": 601.25,
                    "velocity": 0.7952755905511811,
                    "duration": 0.625
                },
                {
                    "name": "A#4",
                    "midi": 70,
                    "time": 601.25,
                    "velocity": 0.7952755905511811,
                    "duration": 0.625
                },
                {
                    "name": "C#5",
                    "midi": 73,
                    "time": 601.25,
                    "velocity": 0.7952755905511811,
                    "duration": 0.625
                },
                {
                    "name": "D#5",
                    "midi": 75,
                    "time": 601.25,
                    "velocity": 0.7952755905511811,
                    "duration": 0.625
                },
                {
                    "name": "F#4",
                    "midi": 66,
                    "time": 601.875,
                    "velocity": 0.7952755905511811,
                    "duration": 0.625
                },
                {
                    "name": "A#4",
                    "midi": 70,
                    "time": 601.875,
                    "velocity": 0.7952755905511811,
                    "duration": 0.625
                },
                {
                    "name": "C#5",
                    "midi": 73,
                    "time": 601.875,
                    "velocity": 0.7952755905511811,
                    "duration": 0.625
                },
                {
                    "name": "E5",
                    "midi": 76,
                    "time": 601.875,
                    "velocity": 0.7952755905511811,
                    "duration": 0.625
                },
                {
                    "name": "F#5",
                    "midi": 78,
                    "time": 601.875,
                    "velocity": 0.7952755905511811,
                    "duration": 0.625
                },
                {
                    "name": "A4",
                    "midi": 69,
                    "time": 602.5,
                    "velocity": 0.7952755905511811,
                    "duration": 0.06119791666662877
                },
                {
                    "name": "C5",
                    "midi": 72,
                    "time": 602.5,
                    "velocity": 0.7952755905511811,
                    "duration": 0.06119791666662877
                },
                {
                    "name": "F5",
                    "midi": 77,
                    "time": 602.5,
                    "velocity": 0.7952755905511811,
                    "duration": 0.06119791666662877
                },
                {
                    "name": "A5",
                    "midi": 81,
                    "time": 602.5,
                    "velocity": 0.7952755905511811,
                    "duration": 0.06119791666662877
                },
                {
                    "name": "G#4",
                    "midi": 68,
                    "time": 602.8125,
                    "velocity": 0.5905511811023622,
                    "duration": 0.06119791666662877
                },
                {
                    "name": "A4",
                    "midi": 69,
                    "time": 602.8125,
                    "velocity": 0.5905511811023622,
                    "duration": 0.06119791666662877
                },
                {
                    "name": "C5",
                    "midi": 72,
                    "time": 602.8125,
                    "velocity": 0.5905511811023622,
                    "duration": 0.06119791666662877
                },
                {
                    "name": "G#5",
                    "midi": 80,
                    "time": 602.8125,
                    "velocity": 0.5905511811023622,
                    "duration": 0.06119791666662877
                },
                {
                    "name": "F#4",
                    "midi": 66,
                    "time": 603.125,
                    "velocity": 0.5905511811023622,
                    "duration": 0.06119791666662877
                },
                {
                    "name": "A4",
                    "midi": 69,
                    "time": 603.125,
                    "velocity": 0.5905511811023622,
                    "duration": 0.06119791666662877
                },
                {
                    "name": "C5",
                    "midi": 72,
                    "time": 603.125,
                    "velocity": 0.5905511811023622,
                    "duration": 0.06119791666662877
                },
                {
                    "name": "E5",
                    "midi": 76,
                    "time": 603.125,
                    "velocity": 0.5905511811023622,
                    "duration": 0.06119791666662877
                },
                {
                    "name": "C#4",
                    "midi": 61,
                    "time": 603.4375,
                    "velocity": 0.5905511811023622,
                    "duration": 0.06119791666662877
                },
                {
                    "name": "F#4",
                    "midi": 66,
                    "time": 603.4375,
                    "velocity": 0.5905511811023622,
                    "duration": 0.06119791666662877
                },
                {
                    "name": "A4",
                    "midi": 69,
                    "time": 603.4375,
                    "velocity": 0.5905511811023622,
                    "duration": 0.06119791666662877
                },
                {
                    "name": "C5",
                    "midi": 72,
                    "time": 603.4375,
                    "velocity": 0.5905511811023622,
                    "duration": 0.06119791666662877
                },
                {
                    "name": "D4",
                    "midi": 62,
                    "time": 603.75,
                    "velocity": 0.7952755905511811,
                    "duration": 0.625
                },
                {
                    "name": "F#4",
                    "midi": 66,
                    "time": 603.75,
                    "velocity": 0.7952755905511811,
                    "duration": 0.625
                },
                {
                    "name": "A4",
                    "midi": 69,
                    "time": 603.75,
                    "velocity": 0.7952755905511811,
                    "duration": 0.625
                },
                {
                    "name": "C5",
                    "midi": 72,
                    "time": 603.75,
                    "velocity": 0.7952755905511811,
                    "duration": 0.625
                },
                {
                    "name": "D5",
                    "midi": 74,
                    "time": 603.75,
                    "velocity": 0.7952755905511811,
                    "duration": 0.625
                },
                {
                    "name": "F4",
                    "midi": 65,
                    "time": 604.375,
                    "velocity": 0.7952755905511811,
                    "duration": 0.625
                },
                {
                    "name": "A4",
                    "midi": 69,
                    "time": 604.375,
                    "velocity": 0.7952755905511811,
                    "duration": 0.625
                },
                {
                    "name": "C5",
                    "midi": 72,
                    "time": 604.375,
                    "velocity": 0.7952755905511811,
                    "duration": 0.625
                },
                {
                    "name": "D#5",
                    "midi": 75,
                    "time": 604.375,
                    "velocity": 0.7952755905511811,
                    "duration": 0.625
                },
                {
                    "name": "F5",
                    "midi": 77,
                    "time": 604.375,
                    "velocity": 0.7952755905511811,
                    "duration": 0.625
                },
                {
                    "name": "G#4",
                    "midi": 68,
                    "time": 605,
                    "velocity": 0.7952755905511811,
                    "duration": 0.625
                },
                {
                    "name": "C5",
                    "midi": 72,
                    "time": 605,
                    "velocity": 0.7952755905511811,
                    "duration": 0.625
                },
                {
                    "name": "D#5",
                    "midi": 75,
                    "time": 605,
                    "velocity": 0.7952755905511811,
                    "duration": 0.625
                },
                {
                    "name": "F#5",
                    "midi": 78,
                    "time": 605,
                    "velocity": 0.7952755905511811,
                    "duration": 0.625
                },
                {
                    "name": "G#5",
                    "midi": 80,
                    "time": 605,
                    "velocity": 0.7952755905511811,
                    "duration": 0.625
                },
                {
                    "name": "B4",
                    "midi": 71,
                    "time": 605.625,
                    "velocity": 0.7952755905511811,
                    "duration": 0.625
                },
                {
                    "name": "D#5",
                    "midi": 75,
                    "time": 605.625,
                    "velocity": 0.7952755905511811,
                    "duration": 0.625
                },
                {
                    "name": "F#5",
                    "midi": 78,
                    "time": 605.625,
                    "velocity": 0.7952755905511811,
                    "duration": 0.625
                },
                {
                    "name": "A5",
                    "midi": 81,
                    "time": 605.625,
                    "velocity": 0.7952755905511811,
                    "duration": 0.625
                },
                {
                    "name": "B5",
                    "midi": 83,
                    "time": 605.625,
                    "velocity": 0.7952755905511811,
                    "duration": 0.625
                },
                {
                    "name": "A4",
                    "midi": 69,
                    "time": 606.5625,
                    "velocity": 0.8976377952755905,
                    "duration": 0.3125
                },
                {
                    "name": "B4",
                    "midi": 71,
                    "time": 606.875,
                    "velocity": 0.8976377952755905,
                    "duration": 0.3125
                },
                {
                    "name": "G#4",
                    "midi": 68,
                    "time": 607.1875,
                    "velocity": 0.8976377952755905,
                    "duration": 0.3125
                },
                {
                    "name": "A4",
                    "midi": 69,
                    "time": 607.5,
                    "velocity": 0.6929133858267716,
                    "duration": 0.06119791666662877
                },
                {
                    "name": "G#4",
                    "midi": 68,
                    "time": 607.8125,
                    "velocity": 0.6929133858267716,
                    "duration": 0.06119791666662877
                },
                {
                    "name": "F#4",
                    "midi": 66,
                    "time": 608.125,
                    "velocity": 0.6929133858267716,
                    "duration": 0.06119791666662877
                },
                {
                    "name": "D4",
                    "midi": 62,
                    "time": 608.4375,
                    "velocity": 0.8976377952755905,
                    "duration": 0.3125
                },
                {
                    "name": "E4",
                    "midi": 64,
                    "time": 608.75,
                    "velocity": 0.8976377952755905,
                    "duration": 0.3125
                },
                {
                    "name": "C#4",
                    "midi": 61,
                    "time": 609.0625,
                    "velocity": 0.8976377952755905,
                    "duration": 0.3125
                },
                {
                    "name": "D4",
                    "midi": 62,
                    "time": 609.375,
                    "velocity": 0.6929133858267716,
                    "duration": 0.06119791666662877
                },
                {
                    "name": "C#4",
                    "midi": 61,
                    "time": 609.6875,
                    "velocity": 0.6929133858267716,
                    "duration": 0.06119791666662877
                },
                {
                    "name": "B3",
                    "midi": 59,
                    "time": 610,
                    "velocity": 0.6929133858267716,
                    "duration": 0.06119791666662877
                },
                {
                    "name": "A3",
                    "midi": 57,
                    "time": 610.3125,
                    "velocity": 0.8976377952755905,
                    "duration": 0.3125
                },
                {
                    "name": "B3",
                    "midi": 59,
                    "time": 610.625,
                    "velocity": 0.8976377952755905,
                    "duration": 0.3125
                },
                {
                    "name": "G#3",
                    "midi": 56,
                    "time": 610.9375,
                    "velocity": 0.8976377952755905,
                    "duration": 0.3125
                },
                {
                    "name": "A3",
                    "midi": 57,
                    "time": 611.25,
                    "velocity": 0.6929133858267716,
                    "duration": 0.06119791666662877
                },
                {
                    "name": "G#3",
                    "midi": 56,
                    "time": 611.5625,
                    "velocity": 0.6929133858267716,
                    "duration": 0.06119791666662877
                },
                {
                    "name": "F#3",
                    "midi": 54,
                    "time": 611.875,
                    "velocity": 0.6929133858267716,
                    "duration": 0.06119791666662877
                },
                {
                    "name": "D3",
                    "midi": 50,
                    "time": 612.1875,
                    "velocity": 0.8976377952755905,
                    "duration": 0.3125
                },
                {
                    "name": "E3",
                    "midi": 52,
                    "time": 612.5,
                    "velocity": 0.8976377952755905,
                    "duration": 0.3125
                },
                {
                    "name": "C#3",
                    "midi": 49,
                    "time": 612.8125,
                    "velocity": 0.8976377952755905,
                    "duration": 0.3125
                },
                {
                    "name": "D3",
                    "midi": 50,
                    "time": 613.125,
                    "velocity": 0.6929133858267716,
                    "duration": 0.06119791666662877
                },
                {
                    "name": "C#3",
                    "midi": 49,
                    "time": 613.4375,
                    "velocity": 0.6929133858267716,
                    "duration": 0.06119791666662877
                },
                {
                    "name": "D#4",
                    "midi": 63,
                    "time": 613.671875,
                    "velocity": 0.4881889763779528,
                    "duration": 0.078125
                },
                {
                    "name": "E4",
                    "midi": 64,
                    "time": 613.75,
                    "velocity": 0.4881889763779528,
                    "duration": 0.06119791666662877
                },
                {
                    "name": "F#3",
                    "midi": 54,
                    "time": 614.0625,
                    "velocity": 0.4881889763779528,
                    "duration": 0.06119791666662877
                },
                {
                    "name": "G#3",
                    "midi": 56,
                    "time": 614.375,
                    "velocity": 0.6929133858267716,
                    "duration": 0.625
                },
                {
                    "name": "D#4",
                    "midi": 63,
                    "time": 614.921875,
                    "velocity": 0.4881889763779528,
                    "duration": 0.078125
                },
                {
                    "name": "E4",
                    "midi": 64,
                    "time": 615,
                    "velocity": 0.4881889763779528,
                    "duration": 0.06119791666662877
                },
                {
                    "name": "F#3",
                    "midi": 54,
                    "time": 615.3125,
                    "velocity": 0.4881889763779528,
                    "duration": 0.06119791666662877
                },
                {
                    "name": "G#3",
                    "midi": 56,
                    "time": 615.625,
                    "velocity": 0.6929133858267716,
                    "duration": 0.625
                },
                {
                    "name": "D#4",
                    "midi": 63,
                    "time": 616.171875,
                    "velocity": 0.4881889763779528,
                    "duration": 0.078125
                },
                {
                    "name": "E4",
                    "midi": 64,
                    "time": 616.25,
                    "velocity": 0.4881889763779528,
                    "duration": 0.06119791666662877
                },
                {
                    "name": "F#3",
                    "midi": 54,
                    "time": 616.5625,
                    "velocity": 0.4881889763779528,
                    "duration": 0.06119791666662877
                },
                {
                    "name": "G#3",
                    "midi": 56,
                    "time": 616.875,
                    "velocity": 0.4881889763779528,
                    "duration": 0.06119791666662877
                },
                {
                    "name": "F#4",
                    "midi": 66,
                    "time": 617.1875,
                    "velocity": 0.4881889763779528,
                    "duration": 0.06119791666662877
                },
                {
                    "name": "E4",
                    "midi": 64,
                    "time": 617.5,
                    "velocity": 0.4881889763779528,
                    "duration": 0.3125
                },
                {
                    "name": "E3",
                    "midi": 52,
                    "time": 617.8125,
                    "velocity": 0.4881889763779528,
                    "duration": 0.10416666666662877
                },
                {
                    "name": "F#3",
                    "midi": 54,
                    "time": 617.9166666666666,
                    "velocity": 0.4881889763779528,
                    "duration": 0.10286458333337123
                },
                {
                    "name": "G#3",
                    "midi": 56,
                    "time": 618.01953125,
                    "velocity": 0.4881889763779528,
                    "duration": 0.10546875
                },
                {
                    "name": "A3",
                    "midi": 57,
                    "time": 618.125,
                    "velocity": 0.4881889763779528,
                    "duration": 0.10416666666662877
                },
                {
                    "name": "B3",
                    "midi": 59,
                    "time": 618.2291666666666,
                    "velocity": 0.4881889763779528,
                    "duration": 0.10286458333337123
                },
                {
                    "name": "C#4",
                    "midi": 61,
                    "time": 618.33203125,
                    "velocity": 0.4881889763779528,
                    "duration": 0.10546875
                },
                {
                    "name": "D4",
                    "midi": 62,
                    "time": 618.4375,
                    "velocity": 0.4881889763779528,
                    "duration": 0.10416666666662877
                },
                {
                    "name": "E4",
                    "midi": 64,
                    "time": 618.5416666666666,
                    "velocity": 0.4881889763779528,
                    "duration": 0.10286458333337123
                },
                {
                    "name": "F#4",
                    "midi": 66,
                    "time": 618.64453125,
                    "velocity": 0.4881889763779528,
                    "duration": 0.10546875
                },
                {
                    "name": "G#4",
                    "midi": 68,
                    "time": 618.75,
                    "velocity": 0.4881889763779528,
                    "duration": 0.10416666666662877
                },
                {
                    "name": "A4",
                    "midi": 69,
                    "time": 618.8541666666666,
                    "velocity": 0.4881889763779528,
                    "duration": 0.10286458333337123
                },
                {
                    "name": "B4",
                    "midi": 71,
                    "time": 618.95703125,
                    "velocity": 0.4881889763779528,
                    "duration": 0.10546875
                },
                {
                    "name": "C#5",
                    "midi": 73,
                    "time": 619.0625,
                    "velocity": 0.4881889763779528,
                    "duration": 0.10416666666662877
                },
                {
                    "name": "D5",
                    "midi": 74,
                    "time": 619.1666666666666,
                    "velocity": 0.4881889763779528,
                    "duration": 0.10286458333337123
                },
                {
                    "name": "E5",
                    "midi": 76,
                    "time": 619.26953125,
                    "velocity": 0.4881889763779528,
                    "duration": 0.10546875
                },
                {
                    "name": "F#5",
                    "midi": 78,
                    "time": 619.375,
                    "velocity": 0.4881889763779528,
                    "duration": 0.10416666666662877
                },
                {
                    "name": "G#5",
                    "midi": 80,
                    "time": 619.4791666666666,
                    "velocity": 0.4881889763779528,
                    "duration": 0.10286458333337123
                },
                {
                    "name": "A5",
                    "midi": 81,
                    "time": 619.58203125,
                    "velocity": 0.4881889763779528,
                    "duration": 0.10546875
                },
                {
                    "name": "B5",
                    "midi": 83,
                    "time": 619.6875,
                    "velocity": 0.4881889763779528,
                    "duration": 0.10416666666662877
                },
                {
                    "name": "C#6",
                    "midi": 85,
                    "time": 619.7916666666666,
                    "velocity": 0.4881889763779528,
                    "duration": 0.10286458333337123
                },
                {
                    "name": "D6",
                    "midi": 86,
                    "time": 619.89453125,
                    "velocity": 0.4881889763779528,
                    "duration": 0.10546875
                },
                {
                    "name": "E5",
                    "midi": 76,
                    "time": 620,
                    "velocity": 0.4881889763779528,
                    "duration": 0.06119791666662877
                },
                {
                    "name": "E6",
                    "midi": 88,
                    "time": 620,
                    "velocity": 0.4881889763779528,
                    "duration": 0.06119791666662877
                },
                {
                    "name": "F#4",
                    "midi": 66,
                    "time": 620.3125,
                    "velocity": 0.4881889763779528,
                    "duration": 0.06119791666662877
                },
                {
                    "name": "F#5",
                    "midi": 78,
                    "time": 620.3125,
                    "velocity": 0.4881889763779528,
                    "duration": 0.06119791666662877
                },
                {
                    "name": "G#4",
                    "midi": 68,
                    "time": 620.625,
                    "velocity": 0.6929133858267716,
                    "duration": 0.625
                },
                {
                    "name": "G#5",
                    "midi": 80,
                    "time": 620.625,
                    "velocity": 0.6929133858267716,
                    "duration": 0.625
                },
                {
                    "name": "E5",
                    "midi": 76,
                    "time": 621.25,
                    "velocity": 0.4881889763779528,
                    "duration": 0.06119791666662877
                },
                {
                    "name": "E6",
                    "midi": 88,
                    "time": 621.25,
                    "velocity": 0.4881889763779528,
                    "duration": 0.06119791666662877
                },
                {
                    "name": "F#4",
                    "midi": 66,
                    "time": 621.5625,
                    "velocity": 0.4881889763779528,
                    "duration": 0.3125
                },
                {
                    "name": "F#5",
                    "midi": 78,
                    "time": 621.5625,
                    "velocity": 0.4881889763779528,
                    "duration": 0.3125
                },
                {
                    "name": "G#4",
                    "midi": 68,
                    "time": 621.875,
                    "velocity": 0.4881889763779528,
                    "duration": 0.3125
                },
                {
                    "name": "G#5",
                    "midi": 80,
                    "time": 621.875,
                    "velocity": 0.4881889763779528,
                    "duration": 0.3125
                },
                {
                    "name": "F#5",
                    "midi": 78,
                    "time": 622.1875,
                    "velocity": 0.4881889763779528,
                    "duration": 0.3125
                },
                {
                    "name": "F#6",
                    "midi": 90,
                    "time": 622.1875,
                    "velocity": 0.4881889763779528,
                    "duration": 0.3125
                },
                {
                    "name": "G#5",
                    "midi": 80,
                    "time": 622.5,
                    "velocity": 0.4881889763779528,
                    "duration": 0.02994791666662877
                },
                {
                    "name": "G#6",
                    "midi": 92,
                    "time": 622.5,
                    "velocity": 0.4881889763779528,
                    "duration": 0.02994791666662877
                },
                {
                    "name": "G#5",
                    "midi": 80,
                    "time": 622.65625,
                    "velocity": 0.4881889763779528,
                    "duration": 0.02994791666662877
                },
                {
                    "name": "G#6",
                    "midi": 92,
                    "time": 622.65625,
                    "velocity": 0.4881889763779528,
                    "duration": 0.02994791666662877
                },
                {
                    "name": "G#5",
                    "midi": 80,
                    "time": 622.8125,
                    "velocity": 0.4881889763779528,
                    "duration": 0.02994791666662877
                },
                {
                    "name": "G#6",
                    "midi": 92,
                    "time": 622.8125,
                    "velocity": 0.4881889763779528,
                    "duration": 0.02994791666662877
                },
                {
                    "name": "G#5",
                    "midi": 80,
                    "time": 622.96875,
                    "velocity": 0.4881889763779528,
                    "duration": 0.02994791666662877
                },
                {
                    "name": "G#6",
                    "midi": 92,
                    "time": 622.96875,
                    "velocity": 0.4881889763779528,
                    "duration": 0.02994791666662877
                },
                {
                    "name": "G#5",
                    "midi": 80,
                    "time": 623.125,
                    "velocity": 0.4881889763779528,
                    "duration": 0.06119791666662877
                },
                {
                    "name": "G#6",
                    "midi": 92,
                    "time": 623.125,
                    "velocity": 0.4881889763779528,
                    "duration": 0.06119791666662877
                },
                {
                    "name": "C#6",
                    "midi": 85,
                    "time": 623.4375,
                    "velocity": 0.4881889763779528,
                    "duration": 0.06119791666662877
                },
                {
                    "name": "C#7",
                    "midi": 97,
                    "time": 623.4375,
                    "velocity": 0.4881889763779528,
                    "duration": 0.06119791666662877
                },
                {
                    "name": "E5",
                    "midi": 76,
                    "time": 623.75,
                    "velocity": 0.4881889763779528,
                    "duration": 1.25
                },
                {
                    "name": "E6",
                    "midi": 88,
                    "time": 623.75,
                    "velocity": 0.4881889763779528,
                    "duration": 1.25
                },
                {
                    "name": "E5",
                    "midi": 76,
                    "time": 629.0625,
                    "velocity": 0.5905511811023622,
                    "duration": 0.3125
                },
                {
                    "name": "A5",
                    "midi": 81,
                    "time": 629.375,
                    "velocity": 0.5905511811023622,
                    "duration": 0.3125
                },
                {
                    "name": "C#6",
                    "midi": 85,
                    "time": 629.6875,
                    "velocity": 0.5905511811023622,
                    "duration": 0.3125
                },
                {
                    "name": "B5",
                    "midi": 83,
                    "time": 630,
                    "velocity": 0.5905511811023622,
                    "duration": 0.10416666666662877
                },
                {
                    "name": "C#6",
                    "midi": 85,
                    "time": 630.1041666666666,
                    "velocity": 0.5905511811023622,
                    "duration": 0.10286458333337123
                },
                {
                    "name": "B5",
                    "midi": 83,
                    "time": 630.20703125,
                    "velocity": 0.5905511811023622,
                    "duration": 0.10546875
                },
                {
                    "name": "G#5",
                    "midi": 80,
                    "time": 630.3125,
                    "velocity": 0.5905511811023622,
                    "duration": 0.02994791666662877
                },
                {
                    "name": "E5",
                    "midi": 76,
                    "time": 630.46875,
                    "velocity": 0.5905511811023622,
                    "duration": 0.02994791666662877
                },
                {
                    "name": "C#5",
                    "midi": 73,
                    "time": 630.625,
                    "velocity": 0.5905511811023622,
                    "duration": 0.3125
                },
                {
                    "name": "F#5",
                    "midi": 78,
                    "time": 630.9375,
                    "velocity": 0.5905511811023622,
                    "duration": 0.06119791666662877
                },
                {
                    "name": "D5",
                    "midi": 74,
                    "time": 631.25,
                    "velocity": 0.5905511811023622,
                    "duration": 0.10416666666662877
                },
                {
                    "name": "E5",
                    "midi": 76,
                    "time": 631.3541666666666,
                    "velocity": 0.5905511811023622,
                    "duration": 0.10286458333337123
                },
                {
                    "name": "D5",
                    "midi": 74,
                    "time": 631.45703125,
                    "velocity": 0.5905511811023622,
                    "duration": 0.10546875
                },
                {
                    "name": "B4",
                    "midi": 71,
                    "time": 631.5625,
                    "velocity": 0.5905511811023622,
                    "duration": 0.02994791666662877
                },
                {
                    "name": "G#4",
                    "midi": 68,
                    "time": 631.71875,
                    "velocity": 0.5905511811023622,
                    "duration": 0.02994791666662877
                },
                {
                    "name": "E4",
                    "midi": 64,
                    "time": 631.875,
                    "velocity": 0.7952755905511811,
                    "duration": 2.03125
                },
                {
                    "name": "F#4",
                    "midi": 66,
                    "time": 633.90625,
                    "velocity": 0.5905511811023622,
                    "duration": 0.15625
                },
                {
                    "name": "E4",
                    "midi": 64,
                    "time": 634.0625,
                    "velocity": 0.5905511811023622,
                    "duration": 0.15625
                },
                {
                    "name": "F#4",
                    "midi": 66,
                    "time": 634.21875,
                    "velocity": 0.5905511811023622,
                    "duration": 0.15625
                },
                {
                    "name": "G#4",
                    "midi": 68,
                    "time": 634.375,
                    "velocity": 0.5905511811023622,
                    "duration": 0.15625
                },
                {
                    "name": "A4",
                    "midi": 69,
                    "time": 634.53125,
                    "velocity": 0.5905511811023622,
                    "duration": 0.15625
                },
                {
                    "name": "G#4",
                    "midi": 68,
                    "time": 634.6875,
                    "velocity": 0.5905511811023622,
                    "duration": 0.15625
                },
                {
                    "name": "A4",
                    "midi": 69,
                    "time": 634.84375,
                    "velocity": 0.5905511811023622,
                    "duration": 0.15625
                },
                {
                    "name": "B4",
                    "midi": 71,
                    "time": 635,
                    "velocity": 0.5905511811023622,
                    "duration": 0.15625
                },
                {
                    "name": "C#5",
                    "midi": 73,
                    "time": 635.15625,
                    "velocity": 0.5905511811023622,
                    "duration": 0.15625
                },
                {
                    "name": "B4",
                    "midi": 71,
                    "time": 635.3125,
                    "velocity": 0.5905511811023622,
                    "duration": 0.15625
                },
                {
                    "name": "C#5",
                    "midi": 73,
                    "time": 635.46875,
                    "velocity": 0.5905511811023622,
                    "duration": 0.15625
                },
                {
                    "name": "E5",
                    "midi": 76,
                    "time": 635.625,
                    "velocity": 0.5905511811023622,
                    "duration": 0.3125
                },
                {
                    "name": "E5",
                    "midi": 76,
                    "time": 635.9375,
                    "velocity": 0.5905511811023622,
                    "duration": 0.3125
                },
                {
                    "name": "F5",
                    "midi": 77,
                    "time": 636.25,
                    "velocity": 0.5905511811023622,
                    "duration": 0.3125
                },
                {
                    "name": "D5",
                    "midi": 74,
                    "time": 636.5625,
                    "velocity": 0.5905511811023622,
                    "duration": 0.15625
                },
                {
                    "name": "B4",
                    "midi": 71,
                    "time": 636.71875,
                    "velocity": 0.5905511811023622,
                    "duration": 0.15625
                },
                {
                    "name": "G4",
                    "midi": 67,
                    "time": 636.875,
                    "velocity": 0.5905511811023622,
                    "duration": 1.875
                },
                {
                    "name": "G#4",
                    "midi": 68,
                    "time": 638.75,
                    "velocity": 0.5905511811023622,
                    "duration": 0.3125
                },
                {
                    "name": "A4",
                    "midi": 69,
                    "time": 639.0625,
                    "velocity": 0.5905511811023622,
                    "duration": 0.3125
                },
                {
                    "name": "B4",
                    "midi": 71,
                    "time": 639.375,
                    "velocity": 0.5905511811023622,
                    "duration": 0.3125
                },
                {
                    "name": "C5",
                    "midi": 72,
                    "time": 639.6875,
                    "velocity": 0.5905511811023622,
                    "duration": 0.3125
                },
                {
                    "name": "E5",
                    "midi": 76,
                    "time": 640,
                    "velocity": 0.5905511811023622,
                    "duration": 0.02994791666662877
                },
                {
                    "name": "E5",
                    "midi": 76,
                    "time": 640.15625,
                    "velocity": 0.5905511811023622,
                    "duration": 0.02994791666662877
                },
                {
                    "name": "E5",
                    "midi": 76,
                    "time": 640.3125,
                    "velocity": 0.5905511811023622,
                    "duration": 0.02994791666662877
                },
                {
                    "name": "E5",
                    "midi": 76,
                    "time": 640.46875,
                    "velocity": 0.5905511811023622,
                    "duration": 0.02994791666662877
                },
                {
                    "name": "E5",
                    "midi": 76,
                    "time": 640.625,
                    "velocity": 0.5905511811023622,
                    "duration": 0.06119791666662877
                },
                {
                    "name": "E5",
                    "midi": 76,
                    "time": 640.9375,
                    "velocity": 0.5905511811023622,
                    "duration": 0.06119791666662877
                },
                {
                    "name": "E5",
                    "midi": 76,
                    "time": 641.25,
                    "velocity": 0.5905511811023622,
                    "duration": 0.3125
                },
                {
                    "name": "B5",
                    "midi": 83,
                    "time": 641.5625,
                    "velocity": 0.5905511811023622,
                    "duration": 0.625
                },
                {
                    "name": "B5",
                    "midi": 83,
                    "time": 642.1875,
                    "velocity": 0.5905511811023622,
                    "duration": 0.078125
                },
                {
                    "name": "A5",
                    "midi": 81,
                    "time": 642.265625,
                    "velocity": 0.5905511811023622,
                    "duration": 0.078125
                },
                {
                    "name": "G#5",
                    "midi": 80,
                    "time": 642.34375,
                    "velocity": 0.5905511811023622,
                    "duration": 0.078125
                },
                {
                    "name": "F#5",
                    "midi": 78,
                    "time": 642.421875,
                    "velocity": 0.5905511811023622,
                    "duration": 0.078125
                },
                {
                    "name": "E5",
                    "midi": 76,
                    "time": 642.5,
                    "velocity": 0.5905511811023622,
                    "duration": 0.02994791666662877
                },
                {
                    "name": "E5",
                    "midi": 76,
                    "time": 642.65625,
                    "velocity": 0.5905511811023622,
                    "duration": 0.02994791666662877
                },
                {
                    "name": "E5",
                    "midi": 76,
                    "time": 642.8125,
                    "velocity": 0.5905511811023622,
                    "duration": 0.02994791666662877
                },
                {
                    "name": "E5",
                    "midi": 76,
                    "time": 642.96875,
                    "velocity": 0.5905511811023622,
                    "duration": 0.02994791666662877
                },
                {
                    "name": "E5",
                    "midi": 76,
                    "time": 643.125,
                    "velocity": 0.5905511811023622,
                    "duration": 0.06119791666662877
                },
                {
                    "name": "E5",
                    "midi": 76,
                    "time": 643.4375,
                    "velocity": 0.5905511811023622,
                    "duration": 0.06119791666662877
                },
                {
                    "name": "E5",
                    "midi": 76,
                    "time": 643.75,
                    "velocity": 0.5905511811023622,
                    "duration": 0.15625
                },
                {
                    "name": "C#6",
                    "midi": 85,
                    "time": 643.90625,
                    "velocity": 0.5905511811023622,
                    "duration": 0.15625
                },
                {
                    "name": "B5",
                    "midi": 83,
                    "time": 644.0625,
                    "velocity": 0.5905511811023622,
                    "duration": 0.625
                },
                {
                    "name": "B5",
                    "midi": 83,
                    "time": 644.6875,
                    "velocity": 0.5905511811023622,
                    "duration": 0.078125
                },
                {
                    "name": "A5",
                    "midi": 81,
                    "time": 644.765625,
                    "velocity": 0.5905511811023622,
                    "duration": 0.078125
                },
                {
                    "name": "G#5",
                    "midi": 80,
                    "time": 644.84375,
                    "velocity": 0.5905511811023622,
                    "duration": 0.078125
                },
                {
                    "name": "F#5",
                    "midi": 78,
                    "time": 644.921875,
                    "velocity": 0.5905511811023622,
                    "duration": 0.078125
                },
                {
                    "name": "E5",
                    "midi": 76,
                    "time": 645,
                    "velocity": 0.5905511811023622,
                    "duration": 0.15625
                },
                {
                    "name": "F#5",
                    "midi": 78,
                    "time": 645.15625,
                    "velocity": 0.5905511811023622,
                    "duration": 0.15625
                },
                {
                    "name": "D5",
                    "midi": 74,
                    "time": 645.3125,
                    "velocity": 0.5905511811023622,
                    "duration": 0.15625
                },
                {
                    "name": "E5",
                    "midi": 76,
                    "time": 645.46875,
                    "velocity": 0.5905511811023622,
                    "duration": 0.15625
                },
                {
                    "name": "C#5",
                    "midi": 73,
                    "time": 645.625,
                    "velocity": 0.5905511811023622,
                    "duration": 0.06119791666662877
                },
                {
                    "name": "C#5",
                    "midi": 73,
                    "time": 645.9375,
                    "velocity": 0.5905511811023622,
                    "duration": 0.06119791666662877
                },
                {
                    "name": "C#5",
                    "midi": 73,
                    "time": 646.25,
                    "velocity": 0.5905511811023622,
                    "duration": 0.15625
                },
                {
                    "name": "D5",
                    "midi": 74,
                    "time": 646.40625,
                    "velocity": 0.5905511811023622,
                    "duration": 0.15625
                },
                {
                    "name": "E5",
                    "midi": 76,
                    "time": 646.5625,
                    "velocity": 0.5905511811023622,
                    "duration": 1.09375
                },
                {
                    "name": "B4",
                    "midi": 71,
                    "time": 647.65625,
                    "velocity": 0.5905511811023622,
                    "duration": 0.15625
                },
                {
                    "name": "D5",
                    "midi": 74,
                    "time": 647.8125,
                    "velocity": 0.5905511811023622,
                    "duration": 0.15625
                },
                {
                    "name": "C#5",
                    "midi": 73,
                    "time": 647.96875,
                    "velocity": 0.5905511811023622,
                    "duration": 0.15625
                },
                {
                    "name": "A4",
                    "midi": 69,
                    "time": 648.125,
                    "velocity": 0.5905511811023622,
                    "duration": 0.06119791666662877
                },
                {
                    "name": "A4",
                    "midi": 69,
                    "time": 648.4375,
                    "velocity": 0.5905511811023622,
                    "duration": 0.46875
                },
                {
                    "name": "F#4",
                    "midi": 66,
                    "time": 648.90625,
                    "velocity": 0.5905511811023622,
                    "duration": 0.15625
                },
                {
                    "name": "A4",
                    "midi": 69,
                    "time": 649.0625,
                    "velocity": 0.5905511811023622,
                    "duration": 0.15625
                },
                {
                    "name": "G#4",
                    "midi": 68,
                    "time": 649.21875,
                    "velocity": 0.5905511811023622,
                    "duration": 0.15625
                },
                {
                    "name": "E4",
                    "midi": 64,
                    "time": 649.375,
                    "velocity": 0.5905511811023622,
                    "duration": 0.3125
                },
                {
                    "name": "E4",
                    "midi": 64,
                    "time": 649.6875,
                    "velocity": 0.5905511811023622,
                    "duration": 0.46875
                },
                {
                    "name": "D4",
                    "midi": 62,
                    "time": 650.15625,
                    "velocity": 0.5905511811023622,
                    "duration": 0.15625
                },
                {
                    "name": "F#4",
                    "midi": 66,
                    "time": 650.3125,
                    "velocity": 0.5905511811023622,
                    "duration": 0.15625
                },
                {
                    "name": "E4",
                    "midi": 64,
                    "time": 650.46875,
                    "velocity": 0.5905511811023622,
                    "duration": 0.15625
                },
                {
                    "name": "C#4",
                    "midi": 61,
                    "time": 650.625,
                    "velocity": 0.5905511811023622,
                    "duration": 0.3125
                },
                {
                    "name": "B3",
                    "midi": 59,
                    "time": 650.9375,
                    "velocity": 0.5905511811023622,
                    "duration": 0.15625
                },
                {
                    "name": "A3",
                    "midi": 57,
                    "time": 651.09375,
                    "velocity": 0.5905511811023622,
                    "duration": 0.15625
                },
                {
                    "name": "B3",
                    "midi": 59,
                    "time": 651.25,
                    "velocity": 0.4881889763779528,
                    "duration": 0.3125
                },
                {
                    "name": "C#4",
                    "midi": 61,
                    "time": 651.5625,
                    "velocity": 0.4881889763779528,
                    "duration": 0.15625
                },
                {
                    "name": "D4",
                    "midi": 62,
                    "time": 651.71875,
                    "velocity": 0.4881889763779528,
                    "duration": 0.15625
                },
                {
                    "name": "C#4",
                    "midi": 61,
                    "time": 651.875,
                    "velocity": 0.4881889763779528,
                    "duration": 0.15625
                },
                {
                    "name": "C#4",
                    "midi": 61,
                    "time": 652.03125,
                    "velocity": 0.4881889763779528,
                    "duration": 0.15625
                },
                {
                    "name": "B3",
                    "midi": 59,
                    "time": 652.1875,
                    "velocity": 0.4881889763779528,
                    "duration": 0.15625
                },
                {
                    "name": "A3",
                    "midi": 57,
                    "time": 652.34375,
                    "velocity": 0.4881889763779528,
                    "duration": 0.15625
                },
                {
                    "name": "B3",
                    "midi": 59,
                    "time": 652.5,
                    "velocity": 0.4881889763779528,
                    "duration": 0.3125
                },
                {
                    "name": "C#4",
                    "midi": 61,
                    "time": 652.8125,
                    "velocity": 0.4881889763779528,
                    "duration": 0.15625
                },
                {
                    "name": "D4",
                    "midi": 62,
                    "time": 652.96875,
                    "velocity": 0.4881889763779528,
                    "duration": 0.15625
                },
                {
                    "name": "C#4",
                    "midi": 61,
                    "time": 653.125,
                    "velocity": 0.4881889763779528,
                    "duration": 0.3125
                },
                {
                    "name": "B3",
                    "midi": 59,
                    "time": 653.4375,
                    "velocity": 0.4881889763779528,
                    "duration": 0.15625
                },
                {
                    "name": "A3",
                    "midi": 57,
                    "time": 653.59375,
                    "velocity": 0.4881889763779528,
                    "duration": 0.15625
                },
                {
                    "name": "B3",
                    "midi": 59,
                    "time": 653.75,
                    "velocity": 0.4881889763779528,
                    "duration": 0.625
                },
                {
                    "name": "B3",
                    "midi": 59,
                    "time": 654.375,
                    "velocity": 0.4881889763779528,
                    "duration": 0.15625
                },
                {
                    "name": "C#4",
                    "midi": 61,
                    "time": 654.53125,
                    "velocity": 0.4881889763779528,
                    "duration": 0.15625
                },
                {
                    "name": "D4",
                    "midi": 62,
                    "time": 654.6875,
                    "velocity": 0.4881889763779528,
                    "duration": 0.15625
                },
                {
                    "name": "D4",
                    "midi": 62,
                    "time": 654.84375,
                    "velocity": 0.4881889763779528,
                    "duration": 0.15625
                },
                {
                    "name": "E4",
                    "midi": 64,
                    "time": 655,
                    "velocity": 0.5905511811023622,
                    "duration": 0.06119791666662877
                },
                {
                    "name": "D4",
                    "midi": 62,
                    "time": 655.3125,
                    "velocity": 0.5905511811023622,
                    "duration": 0.15625
                },
                {
                    "name": "C4",
                    "midi": 60,
                    "time": 655.46875,
                    "velocity": 0.5905511811023622,
                    "duration": 0.15625
                },
                {
                    "name": "D4",
                    "midi": 62,
                    "time": 655.625,
                    "velocity": 0.5905511811023622,
                    "duration": 0.3125
                },
                {
                    "name": "E4",
                    "midi": 64,
                    "time": 655.9375,
                    "velocity": 0.5905511811023622,
                    "duration": 0.15625
                },
                {
                    "name": "F4",
                    "midi": 65,
                    "time": 656.09375,
                    "velocity": 0.5905511811023622,
                    "duration": 0.15625
                },
                {
                    "name": "E4",
                    "midi": 64,
                    "time": 656.25,
                    "velocity": 0.5905511811023622,
                    "duration": 0.02994791666662877
                },
                {
                    "name": "E4",
                    "midi": 64,
                    "time": 656.40625,
                    "velocity": 0.5905511811023622,
                    "duration": 0.02994791666662877
                },
                {
                    "name": "D4",
                    "midi": 62,
                    "time": 656.5625,
                    "velocity": 0.5905511811023622,
                    "duration": 0.02994791666662877
                },
                {
                    "name": "C4",
                    "midi": 60,
                    "time": 656.71875,
                    "velocity": 0.5905511811023622,
                    "duration": 0.02994791666662877
                },
                {
                    "name": "D4",
                    "midi": 62,
                    "time": 656.875,
                    "velocity": 0.7952755905511811,
                    "duration": 0.3125
                },
                {
                    "name": "E4",
                    "midi": 64,
                    "time": 657.1875,
                    "velocity": 0.5905511811023622,
                    "duration": 0.15625
                },
                {
                    "name": "F4",
                    "midi": 65,
                    "time": 657.34375,
                    "velocity": 0.5905511811023622,
                    "duration": 0.15625
                },
                {
                    "name": "G#4",
                    "midi": 68,
                    "time": 657.5,
                    "velocity": 0.5905511811023622,
                    "duration": 0.06119791666662877
                },
                {
                    "name": "F#4",
                    "midi": 66,
                    "time": 657.8125,
                    "velocity": 0.5905511811023622,
                    "duration": 0.15625
                },
                {
                    "name": "E4",
                    "midi": 64,
                    "time": 657.96875,
                    "velocity": 0.5905511811023622,
                    "duration": 0.15625
                },
                {
                    "name": "F#4",
                    "midi": 66,
                    "time": 658.125,
                    "velocity": 0.5905511811023622,
                    "duration": 0.3125
                },
                {
                    "name": "G#4",
                    "midi": 68,
                    "time": 658.4375,
                    "velocity": 0.5905511811023622,
                    "duration": 0.15625
                },
                {
                    "name": "A4",
                    "midi": 69,
                    "time": 658.59375,
                    "velocity": 0.5905511811023622,
                    "duration": 0.15625
                },
                {
                    "name": "C5",
                    "midi": 72,
                    "time": 658.75,
                    "velocity": 0.5905511811023622,
                    "duration": 0.02994791666662877
                },
                {
                    "name": "C5",
                    "midi": 72,
                    "time": 658.90625,
                    "velocity": 0.5905511811023622,
                    "duration": 0.02994791666662877
                },
                {
                    "name": "A#4",
                    "midi": 70,
                    "time": 659.0625,
                    "velocity": 0.5905511811023622,
                    "duration": 0.02994791666662877
                },
                {
                    "name": "G#4",
                    "midi": 68,
                    "time": 659.21875,
                    "velocity": 0.5905511811023622,
                    "duration": 0.02994791666662877
                },
                {
                    "name": "A#4",
                    "midi": 70,
                    "time": 659.375,
                    "velocity": 0.7952755905511811,
                    "duration": 0.3125
                },
                {
                    "name": "C5",
                    "midi": 72,
                    "time": 659.6875,
                    "velocity": 0.5905511811023622,
                    "duration": 0.15625
                },
                {
                    "name": "C#5",
                    "midi": 73,
                    "time": 659.84375,
                    "velocity": 0.5905511811023622,
                    "duration": 0.15625
                },
                {
                    "name": "E5",
                    "midi": 76,
                    "time": 660.3125,
                    "velocity": 0.5905511811023622,
                    "duration": 0.3125
                },
                {
                    "name": "A5",
                    "midi": 81,
                    "time": 660.625,
                    "velocity": 0.5905511811023622,
                    "duration": 0.3125
                },
                {
                    "name": "C#6",
                    "midi": 85,
                    "time": 660.9375,
                    "velocity": 0.5905511811023622,
                    "duration": 0.3125
                },
                {
                    "name": "F6",
                    "midi": 89,
                    "time": 661.25,
                    "velocity": 0.5905511811023622,
                    "duration": 0.10416666666662877
                },
                {
                    "name": "E6",
                    "midi": 88,
                    "time": 661.3541666666666,
                    "velocity": 0.5905511811023622,
                    "duration": 0.10286458333337123
                },
                {
                    "name": "D6",
                    "midi": 86,
                    "time": 661.45703125,
                    "velocity": 0.5905511811023622,
                    "duration": 0.10546875
                },
                {
                    "name": "B5",
                    "midi": 83,
                    "time": 661.5625,
                    "velocity": 0.5905511811023622,
                    "duration": 0.15625
                },
                {
                    "name": "G5",
                    "midi": 79,
                    "time": 661.71875,
                    "velocity": 0.5905511811023622,
                    "duration": 0.15625
                },
                {
                    "name": "E5",
                    "midi": 76,
                    "time": 661.875,
                    "velocity": 0.5905511811023622,
                    "duration": 0.3125
                },
                {
                    "name": "A5",
                    "midi": 81,
                    "time": 662.1875,
                    "velocity": 0.5905511811023622,
                    "duration": 0.3125
                },
                {
                    "name": "F5",
                    "midi": 77,
                    "time": 662.5,
                    "velocity": 0.5905511811023622,
                    "duration": 0.10416666666662877
                },
                {
                    "name": "G5",
                    "midi": 79,
                    "time": 662.6041666666666,
                    "velocity": 0.5905511811023622,
                    "duration": 0.10286458333337123
                },
                {
                    "name": "F5",
                    "midi": 77,
                    "time": 662.70703125,
                    "velocity": 0.5905511811023622,
                    "duration": 0.10546875
                },
                {
                    "name": "D5",
                    "midi": 74,
                    "time": 662.8125,
                    "velocity": 0.5905511811023622,
                    "duration": 0.15625
                },
                {
                    "name": "B4",
                    "midi": 71,
                    "time": 662.96875,
                    "velocity": 0.5905511811023622,
                    "duration": 0.15625
                },
                {
                    "name": "G4",
                    "midi": 67,
                    "time": 663.125,
                    "velocity": 0.5905511811023622,
                    "duration": 2.03125
                },
                {
                    "name": "A4",
                    "midi": 69,
                    "time": 665.15625,
                    "velocity": 0.5905511811023622,
                    "duration": 0.15625
                },
                {
                    "name": "G4",
                    "midi": 67,
                    "time": 665.3125,
                    "velocity": 0.5905511811023622,
                    "duration": 0.15625
                },
                {
                    "name": "A4",
                    "midi": 69,
                    "time": 665.46875,
                    "velocity": 0.5905511811023622,
                    "duration": 0.15625
                },
                {
                    "name": "B4",
                    "midi": 71,
                    "time": 665.625,
                    "velocity": 0.5905511811023622,
                    "duration": 0.15625
                },
                {
                    "name": "C5",
                    "midi": 72,
                    "time": 665.78125,
                    "velocity": 0.5905511811023622,
                    "duration": 0.15625
                },
                {
                    "name": "B4",
                    "midi": 71,
                    "time": 665.9375,
                    "velocity": 0.5905511811023622,
                    "duration": 0.15625
                },
                {
                    "name": "C5",
                    "midi": 72,
                    "time": 666.09375,
                    "velocity": 0.5905511811023622,
                    "duration": 0.15625
                },
                {
                    "name": "D5",
                    "midi": 74,
                    "time": 666.25,
                    "velocity": 0.5905511811023622,
                    "duration": 0.15625
                },
                {
                    "name": "E5",
                    "midi": 76,
                    "time": 666.40625,
                    "velocity": 0.5905511811023622,
                    "duration": 0.15625
                },
                {
                    "name": "D5",
                    "midi": 74,
                    "time": 666.5625,
                    "velocity": 0.5905511811023622,
                    "duration": 0.15625
                },
                {
                    "name": "E5",
                    "midi": 76,
                    "time": 666.71875,
                    "velocity": 0.5905511811023622,
                    "duration": 0.15625
                },
                {
                    "name": "G5",
                    "midi": 79,
                    "time": 666.875,
                    "velocity": 0.5905511811023622,
                    "duration": 0.06119791666662877
                },
                {
                    "name": "G5",
                    "midi": 79,
                    "time": 667.1875,
                    "velocity": 0.5905511811023622,
                    "duration": 0.3125
                },
                {
                    "name": "G#5",
                    "midi": 80,
                    "time": 667.5,
                    "velocity": 0.5905511811023622,
                    "duration": 0.06119791666662877
                },
                {
                    "name": "F5",
                    "midi": 77,
                    "time": 667.8125,
                    "velocity": 0.5905511811023622,
                    "duration": 0.15625
                },
                {
                    "name": "D5",
                    "midi": 74,
                    "time": 667.96875,
                    "velocity": 0.5905511811023622,
                    "duration": 0.15625
                },
                {
                    "name": "A#4",
                    "midi": 70,
                    "time": 668.125,
                    "velocity": 0.5905511811023622,
                    "duration": 0.9375
                },
                {
                    "name": "C5",
                    "midi": 72,
                    "time": 669.0625,
                    "velocity": 0.5905511811023622,
                    "duration": 0.3125
                },
                {
                    "name": "D5",
                    "midi": 74,
                    "time": 669.375,
                    "velocity": 0.5905511811023622,
                    "duration": 0.3125
                },
                {
                    "name": "D#5",
                    "midi": 75,
                    "time": 669.6875,
                    "velocity": 0.5905511811023622,
                    "duration": 0.3125
                },
                {
                    "name": "C4",
                    "midi": 60,
                    "time": 670.3125,
                    "velocity": 0.8976377952755905,
                    "duration": 0.3125
                },
                {
                    "name": "F4",
                    "midi": 65,
                    "time": 670.3125,
                    "velocity": 0.8976377952755905,
                    "duration": 0.3125
                },
                {
                    "name": "A4",
                    "midi": 69,
                    "time": 670.3125,
                    "velocity": 0.8976377952755905,
                    "duration": 0.3125
                },
                {
                    "name": "B4",
                    "midi": 71,
                    "time": 670.3125,
                    "velocity": 0.8976377952755905,
                    "duration": 0.37369791666662877
                },
                {
                    "name": "D4",
                    "midi": 62,
                    "time": 670.625,
                    "velocity": 0.6929133858267716,
                    "duration": 0.06119791666662877
                },
                {
                    "name": "G4",
                    "midi": 67,
                    "time": 670.625,
                    "velocity": 0.6929133858267716,
                    "duration": 0.06119791666662877
                },
                {
                    "name": "D5",
                    "midi": 74,
                    "time": 670.625,
                    "velocity": 0.6929133858267716,
                    "duration": 0.06119791666662877
                },
                {
                    "name": "B3",
                    "midi": 59,
                    "time": 670.9375,
                    "velocity": 0.8976377952755905,
                    "duration": 0.3125
                },
                {
                    "name": "E4",
                    "midi": 64,
                    "time": 670.9375,
                    "velocity": 0.8976377952755905,
                    "duration": 0.3125
                },
                {
                    "name": "G4",
                    "midi": 67,
                    "time": 670.9375,
                    "velocity": 0.8976377952755905,
                    "duration": 0.3125
                },
                {
                    "name": "B4",
                    "midi": 71,
                    "time": 670.9375,
                    "velocity": 0.8976377952755905,
                    "duration": 0.3125
                },
                {
                    "name": "C4",
                    "midi": 60,
                    "time": 671.25,
                    "velocity": 0.8976377952755905,
                    "duration": 0.3125
                },
                {
                    "name": "F4",
                    "midi": 65,
                    "time": 671.25,
                    "velocity": 0.8976377952755905,
                    "duration": 0.3125
                },
                {
                    "name": "A4",
                    "midi": 69,
                    "time": 671.25,
                    "velocity": 0.8976377952755905,
                    "duration": 0.3125
                },
                {
                    "name": "C5",
                    "midi": 72,
                    "time": 671.25,
                    "velocity": 0.8976377952755905,
                    "duration": 0.3125
                },
                {
                    "name": "B3",
                    "midi": 59,
                    "time": 671.5625,
                    "velocity": 0.8976377952755905,
                    "duration": 0.3125
                },
                {
                    "name": "E4",
                    "midi": 64,
                    "time": 671.5625,
                    "velocity": 0.8976377952755905,
                    "duration": 0.3125
                },
                {
                    "name": "G4",
                    "midi": 67,
                    "time": 671.5625,
                    "velocity": 0.8976377952755905,
                    "duration": 0.3125
                },
                {
                    "name": "B4",
                    "midi": 71,
                    "time": 671.5625,
                    "velocity": 0.8976377952755905,
                    "duration": 0.3125
                },
                {
                    "name": "A3",
                    "midi": 57,
                    "time": 671.875,
                    "velocity": 0.8976377952755905,
                    "duration": 0.625
                },
                {
                    "name": "D4",
                    "midi": 62,
                    "time": 671.875,
                    "velocity": 0.8976377952755905,
                    "duration": 0.625
                },
                {
                    "name": "F4",
                    "midi": 65,
                    "time": 671.875,
                    "velocity": 0.8976377952755905,
                    "duration": 0.625
                },
                {
                    "name": "A4",
                    "midi": 69,
                    "time": 671.875,
                    "velocity": 0.8976377952755905,
                    "duration": 0.625
                },
                {
                    "name": "C4",
                    "midi": 60,
                    "time": 672.8125,
                    "velocity": 0.6929133858267716,
                    "duration": 0.15625
                },
                {
                    "name": "E4",
                    "midi": 64,
                    "time": 672.8125,
                    "velocity": 0.6929133858267716,
                    "duration": 0.15625
                },
                {
                    "name": "G#4",
                    "midi": 68,
                    "time": 672.8125,
                    "velocity": 0.6929133858267716,
                    "duration": 0.15625
                },
                {
                    "name": "B4",
                    "midi": 71,
                    "time": 672.8125,
                    "velocity": 0.6929133858267716,
                    "duration": 0.15625
                },
                {
                    "name": "C4",
                    "midi": 60,
                    "time": 672.96875,
                    "velocity": 0.6929133858267716,
                    "duration": 0.15625
                },
                {
                    "name": "F4",
                    "midi": 65,
                    "time": 672.96875,
                    "velocity": 0.6929133858267716,
                    "duration": 0.15625
                },
                {
                    "name": "A4",
                    "midi": 69,
                    "time": 672.96875,
                    "velocity": 0.6929133858267716,
                    "duration": 0.15625
                },
                {
                    "name": "C5",
                    "midi": 72,
                    "time": 672.96875,
                    "velocity": 0.6929133858267716,
                    "duration": 0.15625
                },
                {
                    "name": "D#4",
                    "midi": 63,
                    "time": 673.125,
                    "velocity": 0.6929133858267716,
                    "duration": 0.15625
                },
                {
                    "name": "G#4",
                    "midi": 68,
                    "time": 673.125,
                    "velocity": 0.6929133858267716,
                    "duration": 0.15625
                },
                {
                    "name": "C5",
                    "midi": 72,
                    "time": 673.125,
                    "velocity": 0.6929133858267716,
                    "duration": 0.15625
                },
                {
                    "name": "D#5",
                    "midi": 75,
                    "time": 673.125,
                    "velocity": 0.6929133858267716,
                    "duration": 0.15625
                },
                {
                    "name": "D4",
                    "midi": 62,
                    "time": 673.28125,
                    "velocity": 0.6929133858267716,
                    "duration": 0.15625
                },
                {
                    "name": "G4",
                    "midi": 67,
                    "time": 673.28125,
                    "velocity": 0.6929133858267716,
                    "duration": 0.15625
                },
                {
                    "name": "B4",
                    "midi": 71,
                    "time": 673.28125,
                    "velocity": 0.6929133858267716,
                    "duration": 0.15625
                },
                {
                    "name": "D5",
                    "midi": 74,
                    "time": 673.28125,
                    "velocity": 0.6929133858267716,
                    "duration": 0.15625
                },
                {
                    "name": "A#3",
                    "midi": 58,
                    "time": 673.4375,
                    "velocity": 0.6929133858267716,
                    "duration": 0.15625
                },
                {
                    "name": "D#4",
                    "midi": 63,
                    "time": 673.4375,
                    "velocity": 0.6929133858267716,
                    "duration": 0.15625
                },
                {
                    "name": "G4",
                    "midi": 67,
                    "time": 673.4375,
                    "velocity": 0.6929133858267716,
                    "duration": 0.15625
                },
                {
                    "name": "A#4",
                    "midi": 70,
                    "time": 673.4375,
                    "velocity": 0.6929133858267716,
                    "duration": 0.15625
                },
                {
                    "name": "B3",
                    "midi": 59,
                    "time": 673.59375,
                    "velocity": 0.6929133858267716,
                    "duration": 0.15625
                },
                {
                    "name": "E4",
                    "midi": 64,
                    "time": 673.59375,
                    "velocity": 0.6929133858267716,
                    "duration": 0.15625
                },
                {
                    "name": "G#4",
                    "midi": 68,
                    "time": 673.59375,
                    "velocity": 0.6929133858267716,
                    "duration": 0.15625
                },
                {
                    "name": "B4",
                    "midi": 71,
                    "time": 673.59375,
                    "velocity": 0.6929133858267716,
                    "duration": 0.15625
                },
                {
                    "name": "C4",
                    "midi": 60,
                    "time": 673.75,
                    "velocity": 0.8976377952755905,
                    "duration": 0.06119791666662877
                },
                {
                    "name": "F4",
                    "midi": 65,
                    "time": 673.75,
                    "velocity": 0.8976377952755905,
                    "duration": 0.06119791666662877
                },
                {
                    "name": "A4",
                    "midi": 69,
                    "time": 673.75,
                    "velocity": 0.8976377952755905,
                    "duration": 0.06119791666662877
                },
                {
                    "name": "C5",
                    "midi": 72,
                    "time": 673.75,
                    "velocity": 0.8976377952755905,
                    "duration": 0.06119791666662877
                },
                {
                    "name": "B3",
                    "midi": 59,
                    "time": 674.0625,
                    "velocity": 0.8976377952755905,
                    "duration": 0.3125
                },
                {
                    "name": "E4",
                    "midi": 64,
                    "time": 674.0625,
                    "velocity": 0.8976377952755905,
                    "duration": 0.3125
                },
                {
                    "name": "G4",
                    "midi": 67,
                    "time": 674.0625,
                    "velocity": 0.8976377952755905,
                    "duration": 0.3125
                },
                {
                    "name": "B4",
                    "midi": 71,
                    "time": 674.0625,
                    "velocity": 0.8976377952755905,
                    "duration": 0.3125
                },
                {
                    "name": "A3",
                    "midi": 57,
                    "time": 674.375,
                    "velocity": 0.8976377952755905,
                    "duration": 0.625
                },
                {
                    "name": "D4",
                    "midi": 62,
                    "time": 674.375,
                    "velocity": 0.8976377952755905,
                    "duration": 0.625
                },
                {
                    "name": "F4",
                    "midi": 65,
                    "time": 674.375,
                    "velocity": 0.8976377952755905,
                    "duration": 0.625
                },
                {
                    "name": "A4",
                    "midi": 69,
                    "time": 674.375,
                    "velocity": 0.8976377952755905,
                    "duration": 0.625
                },
                {
                    "name": "F4",
                    "midi": 65,
                    "time": 675.3125,
                    "velocity": 0.8976377952755905,
                    "duration": 0.3125
                },
                {
                    "name": "A4",
                    "midi": 69,
                    "time": 675.3125,
                    "velocity": 0.8976377952755905,
                    "duration": 0.3125
                },
                {
                    "name": "C5",
                    "midi": 72,
                    "time": 675.3125,
                    "velocity": 0.8976377952755905,
                    "duration": 0.3125
                },
                {
                    "name": "D4",
                    "midi": 62,
                    "time": 675.625,
                    "velocity": 0.8976377952755905,
                    "duration": 0.3125
                },
                {
                    "name": "A#4",
                    "midi": 70,
                    "time": 675.625,
                    "velocity": 0.8976377952755905,
                    "duration": 0.3125
                },
                {
                    "name": "D5",
                    "midi": 74,
                    "time": 675.625,
                    "velocity": 0.8976377952755905,
                    "duration": 0.3125
                },
                {
                    "name": "D#4",
                    "midi": 63,
                    "time": 675.9375,
                    "velocity": 0.8976377952755905,
                    "duration": 0.3125
                },
                {
                    "name": "G4",
                    "midi": 67,
                    "time": 675.9375,
                    "velocity": 0.8976377952755905,
                    "duration": 0.3125
                },
                {
                    "name": "B4",
                    "midi": 71,
                    "time": 675.9375,
                    "velocity": 0.8976377952755905,
                    "duration": 0.3125
                },
                {
                    "name": "D4",
                    "midi": 62,
                    "time": 676.25,
                    "velocity": 0.8976377952755905,
                    "duration": 0.3125
                },
                {
                    "name": "F#4",
                    "midi": 66,
                    "time": 676.25,
                    "velocity": 0.8976377952755905,
                    "duration": 0.3125
                },
                {
                    "name": "C5",
                    "midi": 72,
                    "time": 676.25,
                    "velocity": 0.8976377952755905,
                    "duration": 0.3125
                },
                {
                    "name": "D4",
                    "midi": 62,
                    "time": 676.5625,
                    "velocity": 0.8976377952755905,
                    "duration": 0.3125
                },
                {
                    "name": "F#4",
                    "midi": 66,
                    "time": 676.5625,
                    "velocity": 0.8976377952755905,
                    "duration": 0.3125
                },
                {
                    "name": "B4",
                    "midi": 71,
                    "time": 676.5625,
                    "velocity": 0.8976377952755905,
                    "duration": 0.3125
                },
                {
                    "name": "D4",
                    "midi": 62,
                    "time": 676.875,
                    "velocity": 0.8976377952755905,
                    "duration": 0.3125
                },
                {
                    "name": "F4",
                    "midi": 65,
                    "time": 676.875,
                    "velocity": 0.8976377952755905,
                    "duration": 0.3125
                },
                {
                    "name": "A4",
                    "midi": 69,
                    "time": 676.875,
                    "velocity": 0.8976377952755905,
                    "duration": 0.3125
                },
                {
                    "name": "B3",
                    "midi": 59,
                    "time": 677.1875,
                    "velocity": 0.8976377952755905,
                    "duration": 0.3125
                },
                {
                    "name": "D4",
                    "midi": 62,
                    "time": 677.1875,
                    "velocity": 0.8976377952755905,
                    "duration": 0.3125
                },
                {
                    "name": "F4",
                    "midi": 65,
                    "time": 677.1875,
                    "velocity": 0.8976377952755905,
                    "duration": 0.3125
                },
                {
                    "name": "A3",
                    "midi": 57,
                    "time": 677.5,
                    "velocity": 0.8976377952755905,
                    "duration": 0.3125
                },
                {
                    "name": "D#4",
                    "midi": 63,
                    "time": 677.5,
                    "velocity": 0.8976377952755905,
                    "duration": 0.3125
                },
                {
                    "name": "G4",
                    "midi": 67,
                    "time": 677.5,
                    "velocity": 0.8976377952755905,
                    "duration": 0.3125
                },
                {
                    "name": "G#3",
                    "midi": 56,
                    "time": 677.8125,
                    "velocity": 0.8976377952755905,
                    "duration": 0.3125
                },
                {
                    "name": "C4",
                    "midi": 60,
                    "time": 677.8125,
                    "velocity": 0.8976377952755905,
                    "duration": 0.3125
                },
                {
                    "name": "E4",
                    "midi": 64,
                    "time": 677.8125,
                    "velocity": 0.8976377952755905,
                    "duration": 0.3125
                },
                {
                    "name": "G3",
                    "midi": 55,
                    "time": 678.125,
                    "velocity": 0.8976377952755905,
                    "duration": 0.3125
                },
                {
                    "name": "B3",
                    "midi": 59,
                    "time": 678.125,
                    "velocity": 0.8976377952755905,
                    "duration": 0.3125
                },
                {
                    "name": "F4",
                    "midi": 65,
                    "time": 678.125,
                    "velocity": 0.8976377952755905,
                    "duration": 0.3125
                },
                {
                    "name": "G3",
                    "midi": 55,
                    "time": 678.4375,
                    "velocity": 0.8976377952755905,
                    "duration": 0.3125
                },
                {
                    "name": "B3",
                    "midi": 59,
                    "time": 678.4375,
                    "velocity": 0.8976377952755905,
                    "duration": 0.3125
                },
                {
                    "name": "E4",
                    "midi": 64,
                    "time": 678.4375,
                    "velocity": 0.8976377952755905,
                    "duration": 0.3125
                },
                {
                    "name": "G3",
                    "midi": 55,
                    "time": 678.75,
                    "velocity": 0.8976377952755905,
                    "duration": 0.3125
                },
                {
                    "name": "A#3",
                    "midi": 58,
                    "time": 678.75,
                    "velocity": 0.8976377952755905,
                    "duration": 0.3125
                },
                {
                    "name": "D4",
                    "midi": 62,
                    "time": 678.75,
                    "velocity": 0.8976377952755905,
                    "duration": 0.3125
                },
                {
                    "name": "F3",
                    "midi": 53,
                    "time": 679.0625,
                    "velocity": 0.8976377952755905,
                    "duration": 0.3125
                },
                {
                    "name": "A3",
                    "midi": 57,
                    "time": 679.0625,
                    "velocity": 0.8976377952755905,
                    "duration": 0.3125
                },
                {
                    "name": "C4",
                    "midi": 60,
                    "time": 679.0625,
                    "velocity": 0.8976377952755905,
                    "duration": 0.3125
                },
                {
                    "name": "E3",
                    "midi": 52,
                    "time": 679.375,
                    "velocity": 0.8976377952755905,
                    "duration": 0.3125
                },
                {
                    "name": "A#3",
                    "midi": 58,
                    "time": 679.375,
                    "velocity": 0.8976377952755905,
                    "duration": 0.3125
                },
                {
                    "name": "D4",
                    "midi": 62,
                    "time": 679.375,
                    "velocity": 0.8976377952755905,
                    "duration": 0.3125
                },
                {
                    "name": "D#3",
                    "midi": 51,
                    "time": 679.6875,
                    "velocity": 0.8976377952755905,
                    "duration": 0.3125
                },
                {
                    "name": "G3",
                    "midi": 55,
                    "time": 679.6875,
                    "velocity": 0.8976377952755905,
                    "duration": 0.3125
                },
                {
                    "name": "B3",
                    "midi": 59,
                    "time": 679.6875,
                    "velocity": 0.8976377952755905,
                    "duration": 0.3125
                },
                {
                    "name": "G4",
                    "midi": 67,
                    "time": 685,
                    "velocity": 0.6929133858267716,
                    "duration": 0.15625
                },
                {
                    "name": "E4",
                    "midi": 64,
                    "time": 685.15625,
                    "velocity": 0.6929133858267716,
                    "duration": 0.15625
                },
                {
                    "name": "F4",
                    "midi": 65,
                    "time": 685.3125,
                    "velocity": 0.6929133858267716,
                    "duration": 0.15625
                },
                {
                    "name": "E4",
                    "midi": 64,
                    "time": 685.46875,
                    "velocity": 0.6929133858267716,
                    "duration": 0.15625
                },
                {
                    "name": "D4",
                    "midi": 62,
                    "time": 685.625,
                    "velocity": 0.6929133858267716,
                    "duration": 0.15625
                },
                {
                    "name": "F4",
                    "midi": 65,
                    "time": 685.78125,
                    "velocity": 0.6929133858267716,
                    "duration": 0.15625
                },
                {
                    "name": "E4",
                    "midi": 64,
                    "time": 685.9375,
                    "velocity": 0.6929133858267716,
                    "duration": 0.15625
                },
                {
                    "name": "D4",
                    "midi": 62,
                    "time": 686.09375,
                    "velocity": 0.6929133858267716,
                    "duration": 0.15625
                },
                {
                    "name": "C5",
                    "midi": 72,
                    "time": 686.25,
                    "velocity": 0.6929133858267716,
                    "duration": 0.15625
                },
                {
                    "name": "G4",
                    "midi": 67,
                    "time": 686.40625,
                    "velocity": 0.6929133858267716,
                    "duration": 0.15625
                },
                {
                    "name": "B4",
                    "midi": 71,
                    "time": 686.5625,
                    "velocity": 0.6929133858267716,
                    "duration": 0.15625
                },
                {
                    "name": "A4",
                    "midi": 69,
                    "time": 686.71875,
                    "velocity": 0.6929133858267716,
                    "duration": 0.15625
                },
                {
                    "name": "G4",
                    "midi": 67,
                    "time": 686.875,
                    "velocity": 0.6929133858267716,
                    "duration": 0.15625
                },
                {
                    "name": "B4",
                    "midi": 71,
                    "time": 687.03125,
                    "velocity": 0.6929133858267716,
                    "duration": 0.15625
                },
                {
                    "name": "A4",
                    "midi": 69,
                    "time": 687.1875,
                    "velocity": 0.6929133858267716,
                    "duration": 0.15625
                },
                {
                    "name": "G4",
                    "midi": 67,
                    "time": 687.34375,
                    "velocity": 0.6929133858267716,
                    "duration": 0.15625
                },
                {
                    "name": "G5",
                    "midi": 79,
                    "time": 687.5,
                    "velocity": 0.6929133858267716,
                    "duration": 0.15625
                },
                {
                    "name": "D5",
                    "midi": 74,
                    "time": 687.65625,
                    "velocity": 0.6929133858267716,
                    "duration": 0.15625
                },
                {
                    "name": "F5",
                    "midi": 77,
                    "time": 687.8125,
                    "velocity": 0.6929133858267716,
                    "duration": 0.15625
                },
                {
                    "name": "E5",
                    "midi": 76,
                    "time": 687.96875,
                    "velocity": 0.6929133858267716,
                    "duration": 0.15625
                },
                {
                    "name": "D5",
                    "midi": 74,
                    "time": 688.125,
                    "velocity": 0.6929133858267716,
                    "duration": 0.15625
                },
                {
                    "name": "F5",
                    "midi": 77,
                    "time": 688.28125,
                    "velocity": 0.6929133858267716,
                    "duration": 0.15625
                },
                {
                    "name": "E5",
                    "midi": 76,
                    "time": 688.4375,
                    "velocity": 0.6929133858267716,
                    "duration": 0.15625
                },
                {
                    "name": "D5",
                    "midi": 74,
                    "time": 688.59375,
                    "velocity": 0.6929133858267716,
                    "duration": 0.15625
                },
                {
                    "name": "G5",
                    "midi": 79,
                    "time": 688.75,
                    "velocity": 0.7952755905511811,
                    "duration": 0.15625
                },
                {
                    "name": "D5",
                    "midi": 74,
                    "time": 688.90625,
                    "velocity": 0.7952755905511811,
                    "duration": 0.15625
                },
                {
                    "name": "F5",
                    "midi": 77,
                    "time": 689.0625,
                    "velocity": 0.7952755905511811,
                    "duration": 0.15625
                },
                {
                    "name": "E5",
                    "midi": 76,
                    "time": 689.21875,
                    "velocity": 0.7952755905511811,
                    "duration": 0.15625
                },
                {
                    "name": "D5",
                    "midi": 74,
                    "time": 689.375,
                    "velocity": 0.7952755905511811,
                    "duration": 0.15625
                },
                {
                    "name": "F5",
                    "midi": 77,
                    "time": 689.53125,
                    "velocity": 0.7952755905511811,
                    "duration": 0.15625
                },
                {
                    "name": "E5",
                    "midi": 76,
                    "time": 689.6875,
                    "velocity": 0.7952755905511811,
                    "duration": 0.15625
                },
                {
                    "name": "D5",
                    "midi": 74,
                    "time": 689.84375,
                    "velocity": 0.7952755905511811,
                    "duration": 0.15625
                },
                {
                    "name": "G5",
                    "midi": 79,
                    "time": 690,
                    "velocity": 0.7952755905511811,
                    "duration": 0.15625
                },
                {
                    "name": "D5",
                    "midi": 74,
                    "time": 690.15625,
                    "velocity": 0.7952755905511811,
                    "duration": 0.15625
                },
                {
                    "name": "F5",
                    "midi": 77,
                    "time": 690.3125,
                    "velocity": 0.7952755905511811,
                    "duration": 0.15625
                },
                {
                    "name": "E5",
                    "midi": 76,
                    "time": 690.46875,
                    "velocity": 0.7952755905511811,
                    "duration": 0.15625
                },
                {
                    "name": "D5",
                    "midi": 74,
                    "time": 690.625,
                    "velocity": 0.7952755905511811,
                    "duration": 0.15625
                },
                {
                    "name": "F5",
                    "midi": 77,
                    "time": 690.78125,
                    "velocity": 0.7952755905511811,
                    "duration": 0.15625
                },
                {
                    "name": "E5",
                    "midi": 76,
                    "time": 690.9375,
                    "velocity": 0.7952755905511811,
                    "duration": 0.15625
                },
                {
                    "name": "D5",
                    "midi": 74,
                    "time": 691.09375,
                    "velocity": 0.7952755905511811,
                    "duration": 0.15625
                },
                {
                    "name": "G5",
                    "midi": 79,
                    "time": 691.25,
                    "velocity": 0.7952755905511811,
                    "duration": 0.15625
                },
                {
                    "name": "D5",
                    "midi": 74,
                    "time": 691.40625,
                    "velocity": 0.7952755905511811,
                    "duration": 0.15625
                },
                {
                    "name": "F5",
                    "midi": 77,
                    "time": 691.5625,
                    "velocity": 0.7952755905511811,
                    "duration": 0.15625
                },
                {
                    "name": "E5",
                    "midi": 76,
                    "time": 691.71875,
                    "velocity": 0.7952755905511811,
                    "duration": 0.15625
                },
                {
                    "name": "D5",
                    "midi": 74,
                    "time": 691.875,
                    "velocity": 0.7952755905511811,
                    "duration": 0.15625
                },
                {
                    "name": "F5",
                    "midi": 77,
                    "time": 692.03125,
                    "velocity": 0.7952755905511811,
                    "duration": 0.15625
                },
                {
                    "name": "E5",
                    "midi": 76,
                    "time": 692.1875,
                    "velocity": 0.7952755905511811,
                    "duration": 0.15625
                },
                {
                    "name": "D5",
                    "midi": 74,
                    "time": 692.34375,
                    "velocity": 0.7952755905511811,
                    "duration": 0.15625
                },
                {
                    "name": "G5",
                    "midi": 79,
                    "time": 692.5,
                    "velocity": 0.7952755905511811,
                    "duration": 0.15625
                },
                {
                    "name": "D5",
                    "midi": 74,
                    "time": 692.65625,
                    "velocity": 0.7952755905511811,
                    "duration": 0.15625
                },
                {
                    "name": "F5",
                    "midi": 77,
                    "time": 692.8125,
                    "velocity": 0.7952755905511811,
                    "duration": 0.15625
                },
                {
                    "name": "E5",
                    "midi": 76,
                    "time": 692.96875,
                    "velocity": 0.7952755905511811,
                    "duration": 0.15625
                },
                {
                    "name": "D5",
                    "midi": 74,
                    "time": 693.125,
                    "velocity": 0.7952755905511811,
                    "duration": 0.15625
                },
                {
                    "name": "F5",
                    "midi": 77,
                    "time": 693.28125,
                    "velocity": 0.7952755905511811,
                    "duration": 0.15625
                },
                {
                    "name": "E5",
                    "midi": 76,
                    "time": 693.4375,
                    "velocity": 0.7952755905511811,
                    "duration": 0.15625
                },
                {
                    "name": "D5",
                    "midi": 74,
                    "time": 693.59375,
                    "velocity": 0.7952755905511811,
                    "duration": 0.15625
                },
                {
                    "name": "G5",
                    "midi": 79,
                    "time": 693.75,
                    "velocity": 0.7952755905511811,
                    "duration": 0.15625
                },
                {
                    "name": "D5",
                    "midi": 74,
                    "time": 693.90625,
                    "velocity": 0.7952755905511811,
                    "duration": 0.15625
                },
                {
                    "name": "F5",
                    "midi": 77,
                    "time": 694.0625,
                    "velocity": 0.7952755905511811,
                    "duration": 0.15625
                },
                {
                    "name": "E5",
                    "midi": 76,
                    "time": 694.21875,
                    "velocity": 0.7952755905511811,
                    "duration": 0.15625
                },
                {
                    "name": "D5",
                    "midi": 74,
                    "time": 694.375,
                    "velocity": 0.7952755905511811,
                    "duration": 0.15625
                },
                {
                    "name": "F5",
                    "midi": 77,
                    "time": 694.53125,
                    "velocity": 0.7952755905511811,
                    "duration": 0.15625
                },
                {
                    "name": "E5",
                    "midi": 76,
                    "time": 694.6875,
                    "velocity": 0.7952755905511811,
                    "duration": 0.15625
                },
                {
                    "name": "D5",
                    "midi": 74,
                    "time": 694.84375,
                    "velocity": 0.7952755905511811,
                    "duration": 0.15625
                },
                {
                    "name": "G5",
                    "midi": 79,
                    "time": 695,
                    "velocity": 0.7952755905511811,
                    "duration": 0.15625
                },
                {
                    "name": "D5",
                    "midi": 74,
                    "time": 695.15625,
                    "velocity": 0.7952755905511811,
                    "duration": 0.15625
                },
                {
                    "name": "F5",
                    "midi": 77,
                    "time": 695.3125,
                    "velocity": 0.7952755905511811,
                    "duration": 0.15625
                },
                {
                    "name": "E5",
                    "midi": 76,
                    "time": 695.46875,
                    "velocity": 0.7952755905511811,
                    "duration": 0.15625
                },
                {
                    "name": "D5",
                    "midi": 74,
                    "time": 695.625,
                    "velocity": 0.7952755905511811,
                    "duration": 0.15625
                },
                {
                    "name": "F5",
                    "midi": 77,
                    "time": 695.78125,
                    "velocity": 0.7952755905511811,
                    "duration": 0.15625
                },
                {
                    "name": "E5",
                    "midi": 76,
                    "time": 695.9375,
                    "velocity": 0.7952755905511811,
                    "duration": 0.15625
                },
                {
                    "name": "D5",
                    "midi": 74,
                    "time": 696.09375,
                    "velocity": 0.7952755905511811,
                    "duration": 0.15625
                },
                {
                    "name": "G5",
                    "midi": 79,
                    "time": 696.25,
                    "velocity": 0.7952755905511811,
                    "duration": 0.15625
                },
                {
                    "name": "D5",
                    "midi": 74,
                    "time": 696.40625,
                    "velocity": 0.7952755905511811,
                    "duration": 0.15625
                },
                {
                    "name": "F5",
                    "midi": 77,
                    "time": 696.5625,
                    "velocity": 0.7952755905511811,
                    "duration": 0.15625
                },
                {
                    "name": "E5",
                    "midi": 76,
                    "time": 696.71875,
                    "velocity": 0.7952755905511811,
                    "duration": 0.15625
                },
                {
                    "name": "D5",
                    "midi": 74,
                    "time": 696.875,
                    "velocity": 0.7952755905511811,
                    "duration": 0.15625
                },
                {
                    "name": "F5",
                    "midi": 77,
                    "time": 697.03125,
                    "velocity": 0.7952755905511811,
                    "duration": 0.15625
                },
                {
                    "name": "E5",
                    "midi": 76,
                    "time": 697.1875,
                    "velocity": 0.7952755905511811,
                    "duration": 0.15625
                },
                {
                    "name": "D5",
                    "midi": 74,
                    "time": 697.34375,
                    "velocity": 0.7952755905511811,
                    "duration": 0.15625
                },
                {
                    "name": "G5",
                    "midi": 79,
                    "time": 697.5,
                    "velocity": 0.7952755905511811,
                    "duration": 0.15625
                },
                {
                    "name": "D5",
                    "midi": 74,
                    "time": 697.65625,
                    "velocity": 0.7952755905511811,
                    "duration": 0.15625
                },
                {
                    "name": "F5",
                    "midi": 77,
                    "time": 697.8125,
                    "velocity": 0.7952755905511811,
                    "duration": 0.15625
                },
                {
                    "name": "E5",
                    "midi": 76,
                    "time": 697.96875,
                    "velocity": 0.7952755905511811,
                    "duration": 0.15625
                },
                {
                    "name": "D5",
                    "midi": 74,
                    "time": 698.125,
                    "velocity": 0.7952755905511811,
                    "duration": 0.15625
                },
                {
                    "name": "F5",
                    "midi": 77,
                    "time": 698.28125,
                    "velocity": 0.7952755905511811,
                    "duration": 0.15625
                },
                {
                    "name": "E5",
                    "midi": 76,
                    "time": 698.4375,
                    "velocity": 0.7952755905511811,
                    "duration": 0.15625
                },
                {
                    "name": "D5",
                    "midi": 74,
                    "time": 698.59375,
                    "velocity": 0.7952755905511811,
                    "duration": 0.15625
                },
                {
                    "name": "A3",
                    "midi": 57,
                    "time": 700,
                    "velocity": 1,
                    "duration": 0.3125
                },
                {
                    "name": "A3",
                    "midi": 57,
                    "time": 700.3125,
                    "velocity": 1,
                    "duration": 0.3125
                },
                {
                    "name": "A3",
                    "midi": 57,
                    "time": 700.625,
                    "velocity": 1,
                    "duration": 0.3125
                },
                {
                    "name": "C#3",
                    "midi": 49,
                    "time": 700.9375,
                    "velocity": 1,
                    "duration": 0.3125
                },
                {
                    "name": "G3",
                    "midi": 55,
                    "time": 701.25,
                    "velocity": 1,
                    "duration": 0.3125
                },
                {
                    "name": "G3",
                    "midi": 55,
                    "time": 701.5625,
                    "velocity": 1,
                    "duration": 0.3125
                },
                {
                    "name": "G3",
                    "midi": 55,
                    "time": 701.875,
                    "velocity": 1,
                    "duration": 0.3125
                },
                {
                    "name": "C#3",
                    "midi": 49,
                    "time": 702.1875,
                    "velocity": 1,
                    "duration": 0.3125
                },
                {
                    "name": "A3",
                    "midi": 57,
                    "time": 702.5,
                    "velocity": 0.7952755905511811,
                    "duration": 0.3125
                },
                {
                    "name": "C#3",
                    "midi": 49,
                    "time": 702.8125,
                    "velocity": 0.7952755905511811,
                    "duration": 0.3125
                },
                {
                    "name": "G3",
                    "midi": 55,
                    "time": 703.125,
                    "velocity": 0.7952755905511811,
                    "duration": 0.3125
                },
                {
                    "name": "C#3",
                    "midi": 49,
                    "time": 703.4375,
                    "velocity": 0.7952755905511811,
                    "duration": 0.3125
                },
                {
                    "name": "E3",
                    "midi": 52,
                    "time": 703.75,
                    "velocity": 1,
                    "duration": 0.3125
                },
                {
                    "name": "E3",
                    "midi": 52,
                    "time": 704.0625,
                    "velocity": 1,
                    "duration": 0.3125
                },
                {
                    "name": "E3",
                    "midi": 52,
                    "time": 704.375,
                    "velocity": 1,
                    "duration": 0.3125
                },
                {
                    "name": "G2",
                    "midi": 43,
                    "time": 704.6875,
                    "velocity": 1,
                    "duration": 0.3125
                },
                {
                    "name": "D3",
                    "midi": 50,
                    "time": 705,
                    "velocity": 0.7952755905511811,
                    "duration": 0.06119791666662877
                },
                {
                    "name": "D3",
                    "midi": 50,
                    "time": 705.3125,
                    "velocity": 0.7952755905511811,
                    "duration": 0.06119791666662877
                },
                {
                    "name": "D3",
                    "midi": 50,
                    "time": 705.625,
                    "velocity": 0.7952755905511811,
                    "duration": 0.06119791666662877
                },
                {
                    "name": "G2",
                    "midi": 43,
                    "time": 705.9375,
                    "velocity": 0.7952755905511811,
                    "duration": 0.06119791666662877
                },
                {
                    "name": "E3",
                    "midi": 52,
                    "time": 706.25,
                    "velocity": 0.7952755905511811,
                    "duration": 0.3125
                },
                {
                    "name": "G2",
                    "midi": 43,
                    "time": 706.5625,
                    "velocity": 0.7952755905511811,
                    "duration": 0.3125
                },
                {
                    "name": "D3",
                    "midi": 50,
                    "time": 706.875,
                    "velocity": 0.7952755905511811,
                    "duration": 0.3125
                },
                {
                    "name": "G2",
                    "midi": 43,
                    "time": 707.1875,
                    "velocity": 0.7952755905511811,
                    "duration": 0.3125
                },
                {
                    "name": "D4",
                    "midi": 62,
                    "time": 707.5,
                    "velocity": 0.8976377952755905,
                    "duration": 0.078125
                },
                {
                    "name": "G#3",
                    "midi": 56,
                    "time": 707.578125,
                    "velocity": 0.8976377952755905,
                    "duration": 0.078125
                },
                {
                    "name": "D4",
                    "midi": 62,
                    "time": 707.65625,
                    "velocity": 0.6929133858267716,
                    "duration": 0.078125
                },
                {
                    "name": "G#3",
                    "midi": 56,
                    "time": 707.734375,
                    "velocity": 0.6929133858267716,
                    "duration": 0.078125
                },
                {
                    "name": "D4",
                    "midi": 62,
                    "time": 707.8125,
                    "velocity": 0.6929133858267716,
                    "duration": 0.078125
                },
                {
                    "name": "G#3",
                    "midi": 56,
                    "time": 707.890625,
                    "velocity": 0.6929133858267716,
                    "duration": 0.078125
                },
                {
                    "name": "D4",
                    "midi": 62,
                    "time": 707.96875,
                    "velocity": 0.6929133858267716,
                    "duration": 0.078125
                },
                {
                    "name": "G#3",
                    "midi": 56,
                    "time": 708.046875,
                    "velocity": 0.6929133858267716,
                    "duration": 0.078125
                },
                {
                    "name": "D4",
                    "midi": 62,
                    "time": 708.125,
                    "velocity": 0.6929133858267716,
                    "duration": 0.078125
                },
                {
                    "name": "G#3",
                    "midi": 56,
                    "time": 708.203125,
                    "velocity": 0.6929133858267716,
                    "duration": 0.078125
                },
                {
                    "name": "D4",
                    "midi": 62,
                    "time": 708.28125,
                    "velocity": 0.6929133858267716,
                    "duration": 0.078125
                },
                {
                    "name": "G#3",
                    "midi": 56,
                    "time": 708.359375,
                    "velocity": 0.6929133858267716,
                    "duration": 0.078125
                },
                {
                    "name": "D4",
                    "midi": 62,
                    "time": 708.4375,
                    "velocity": 0.6929133858267716,
                    "duration": 0.078125
                },
                {
                    "name": "G#3",
                    "midi": 56,
                    "time": 708.515625,
                    "velocity": 0.6929133858267716,
                    "duration": 0.078125
                },
                {
                    "name": "D4",
                    "midi": 62,
                    "time": 708.59375,
                    "velocity": 0.6929133858267716,
                    "duration": 0.078125
                },
                {
                    "name": "G#3",
                    "midi": 56,
                    "time": 708.671875,
                    "velocity": 0.6929133858267716,
                    "duration": 0.078125
                },
                {
                    "name": "D4",
                    "midi": 62,
                    "time": 708.75,
                    "velocity": 0.6929133858267716,
                    "duration": 0.078125
                },
                {
                    "name": "G#3",
                    "midi": 56,
                    "time": 708.828125,
                    "velocity": 0.6929133858267716,
                    "duration": 0.078125
                },
                {
                    "name": "D4",
                    "midi": 62,
                    "time": 708.90625,
                    "velocity": 0.6929133858267716,
                    "duration": 0.078125
                },
                {
                    "name": "G#3",
                    "midi": 56,
                    "time": 708.984375,
                    "velocity": 0.6929133858267716,
                    "duration": 0.078125
                },
                {
                    "name": "D4",
                    "midi": 62,
                    "time": 709.0625,
                    "velocity": 0.6929133858267716,
                    "duration": 0.078125
                },
                {
                    "name": "G#3",
                    "midi": 56,
                    "time": 709.140625,
                    "velocity": 0.6929133858267716,
                    "duration": 0.078125
                },
                {
                    "name": "D4",
                    "midi": 62,
                    "time": 709.21875,
                    "velocity": 0.6929133858267716,
                    "duration": 0.078125
                },
                {
                    "name": "G#3",
                    "midi": 56,
                    "time": 709.296875,
                    "velocity": 0.6929133858267716,
                    "duration": 0.078125
                },
                {
                    "name": "D4",
                    "midi": 62,
                    "time": 709.375,
                    "velocity": 0.6929133858267716,
                    "duration": 0.078125
                },
                {
                    "name": "G#3",
                    "midi": 56,
                    "time": 709.453125,
                    "velocity": 0.6929133858267716,
                    "duration": 0.078125
                },
                {
                    "name": "D4",
                    "midi": 62,
                    "time": 709.53125,
                    "velocity": 0.6929133858267716,
                    "duration": 0.078125
                },
                {
                    "name": "G#3",
                    "midi": 56,
                    "time": 709.609375,
                    "velocity": 0.6929133858267716,
                    "duration": 0.078125
                },
                {
                    "name": "D4",
                    "midi": 62,
                    "time": 709.6875,
                    "velocity": 0.6929133858267716,
                    "duration": 0.078125
                },
                {
                    "name": "G#3",
                    "midi": 56,
                    "time": 709.765625,
                    "velocity": 0.6929133858267716,
                    "duration": 0.078125
                },
                {
                    "name": "D4",
                    "midi": 62,
                    "time": 709.84375,
                    "velocity": 0.6929133858267716,
                    "duration": 0.078125
                },
                {
                    "name": "G#3",
                    "midi": 56,
                    "time": 709.921875,
                    "velocity": 0.6929133858267716,
                    "duration": 0.078125
                },
                {
                    "name": "D4",
                    "midi": 62,
                    "time": 710,
                    "velocity": 0.6929133858267716,
                    "duration": 0.078125
                },
                {
                    "name": "G#3",
                    "midi": 56,
                    "time": 710.078125,
                    "velocity": 0.6929133858267716,
                    "duration": 0.078125
                },
                {
                    "name": "D4",
                    "midi": 62,
                    "time": 710.15625,
                    "velocity": 0.6929133858267716,
                    "duration": 0.078125
                },
                {
                    "name": "G#3",
                    "midi": 56,
                    "time": 710.234375,
                    "velocity": 0.6929133858267716,
                    "duration": 0.078125
                },
                {
                    "name": "D4",
                    "midi": 62,
                    "time": 710.3125,
                    "velocity": 0.6929133858267716,
                    "duration": 0.078125
                },
                {
                    "name": "G#3",
                    "midi": 56,
                    "time": 710.390625,
                    "velocity": 0.6929133858267716,
                    "duration": 0.078125
                },
                {
                    "name": "D4",
                    "midi": 62,
                    "time": 710.46875,
                    "velocity": 0.6929133858267716,
                    "duration": 0.078125
                },
                {
                    "name": "G#3",
                    "midi": 56,
                    "time": 710.546875,
                    "velocity": 0.6929133858267716,
                    "duration": 0.078125
                },
                {
                    "name": "D4",
                    "midi": 62,
                    "time": 710.625,
                    "velocity": 0.6929133858267716,
                    "duration": 0.078125
                },
                {
                    "name": "G#3",
                    "midi": 56,
                    "time": 710.703125,
                    "velocity": 0.6929133858267716,
                    "duration": 0.078125
                },
                {
                    "name": "D4",
                    "midi": 62,
                    "time": 710.78125,
                    "velocity": 0.6929133858267716,
                    "duration": 0.078125
                },
                {
                    "name": "G#3",
                    "midi": 56,
                    "time": 710.859375,
                    "velocity": 0.6929133858267716,
                    "duration": 0.078125
                },
                {
                    "name": "D4",
                    "midi": 62,
                    "time": 710.9375,
                    "velocity": 0.6929133858267716,
                    "duration": 0.078125
                },
                {
                    "name": "G#3",
                    "midi": 56,
                    "time": 711.015625,
                    "velocity": 0.6929133858267716,
                    "duration": 0.078125
                },
                {
                    "name": "D4",
                    "midi": 62,
                    "time": 711.09375,
                    "velocity": 0.6929133858267716,
                    "duration": 0.078125
                },
                {
                    "name": "G#3",
                    "midi": 56,
                    "time": 711.171875,
                    "velocity": 0.6929133858267716,
                    "duration": 0.078125
                },
                {
                    "name": "D4",
                    "midi": 62,
                    "time": 711.25,
                    "velocity": 0.6929133858267716,
                    "duration": 0.078125
                },
                {
                    "name": "G#3",
                    "midi": 56,
                    "time": 711.328125,
                    "velocity": 0.6929133858267716,
                    "duration": 0.078125
                },
                {
                    "name": "D4",
                    "midi": 62,
                    "time": 711.40625,
                    "velocity": 0.6929133858267716,
                    "duration": 0.078125
                },
                {
                    "name": "G#3",
                    "midi": 56,
                    "time": 711.484375,
                    "velocity": 0.6929133858267716,
                    "duration": 0.078125
                },
                {
                    "name": "D4",
                    "midi": 62,
                    "time": 711.5625,
                    "velocity": 0.6929133858267716,
                    "duration": 0.078125
                },
                {
                    "name": "G#3",
                    "midi": 56,
                    "time": 711.640625,
                    "velocity": 0.6929133858267716,
                    "duration": 0.078125
                },
                {
                    "name": "D4",
                    "midi": 62,
                    "time": 711.71875,
                    "velocity": 0.6929133858267716,
                    "duration": 0.078125
                },
                {
                    "name": "G#3",
                    "midi": 56,
                    "time": 711.796875,
                    "velocity": 0.6929133858267716,
                    "duration": 0.078125
                },
                {
                    "name": "D4",
                    "midi": 62,
                    "time": 711.875,
                    "velocity": 0.6929133858267716,
                    "duration": 0.078125
                },
                {
                    "name": "G#3",
                    "midi": 56,
                    "time": 711.953125,
                    "velocity": 0.6929133858267716,
                    "duration": 0.078125
                },
                {
                    "name": "D4",
                    "midi": 62,
                    "time": 712.03125,
                    "velocity": 0.6929133858267716,
                    "duration": 0.078125
                },
                {
                    "name": "G#3",
                    "midi": 56,
                    "time": 712.109375,
                    "velocity": 0.6929133858267716,
                    "duration": 0.078125
                },
                {
                    "name": "D4",
                    "midi": 62,
                    "time": 712.1875,
                    "velocity": 0.6929133858267716,
                    "duration": 0.078125
                },
                {
                    "name": "G#3",
                    "midi": 56,
                    "time": 712.265625,
                    "velocity": 0.6929133858267716,
                    "duration": 0.078125
                },
                {
                    "name": "D4",
                    "midi": 62,
                    "time": 712.34375,
                    "velocity": 0.6929133858267716,
                    "duration": 0.078125
                },
                {
                    "name": "G#3",
                    "midi": 56,
                    "time": 712.421875,
                    "velocity": 0.6929133858267716,
                    "duration": 0.078125
                },
                {
                    "name": "D#4",
                    "midi": 63,
                    "time": 712.5,
                    "velocity": 1,
                    "duration": 0.3125
                },
                {
                    "name": "D#4",
                    "midi": 63,
                    "time": 712.8125,
                    "velocity": 0.7952755905511811,
                    "duration": 0.02994791666662877
                },
                {
                    "name": "D#4",
                    "midi": 63,
                    "time": 712.96875,
                    "velocity": 0.7952755905511811,
                    "duration": 0.02994791666662877
                },
                {
                    "name": "D#4",
                    "midi": 63,
                    "time": 713.125,
                    "velocity": 0.7952755905511811,
                    "duration": 0.02994791666662877
                },
                {
                    "name": "D#4",
                    "midi": 63,
                    "time": 713.28125,
                    "velocity": 0.7952755905511811,
                    "duration": 0.02994791666662877
                },
                {
                    "name": "G4",
                    "midi": 67,
                    "time": 713.4375,
                    "velocity": 1,
                    "duration": 0.06119791666662877
                },
                {
                    "name": "C#4",
                    "midi": 61,
                    "time": 713.75,
                    "velocity": 1,
                    "duration": 0.3125
                },
                {
                    "name": "F#4",
                    "midi": 66,
                    "time": 713.75,
                    "velocity": 1,
                    "duration": 0.3125
                },
                {
                    "name": "F#4",
                    "midi": 66,
                    "time": 714.0625,
                    "velocity": 0.7952755905511811,
                    "duration": 0.02994791666662877
                },
                {
                    "name": "F#4",
                    "midi": 66,
                    "time": 714.21875,
                    "velocity": 0.7952755905511811,
                    "duration": 0.02994791666662877
                },
                {
                    "name": "F#4",
                    "midi": 66,
                    "time": 714.375,
                    "velocity": 0.7952755905511811,
                    "duration": 0.02994791666662877
                },
                {
                    "name": "F#4",
                    "midi": 66,
                    "time": 714.53125,
                    "velocity": 0.7952755905511811,
                    "duration": 0.02994791666662877
                },
                {
                    "name": "A#4",
                    "midi": 70,
                    "time": 714.6875,
                    "velocity": 0.7952755905511811,
                    "duration": 0.02994791666662877
                },
                {
                    "name": "E4",
                    "midi": 64,
                    "time": 714.84375,
                    "velocity": 1,
                    "duration": 0.02994791666662877
                },
                {
                    "name": "F4",
                    "midi": 65,
                    "time": 715,
                    "velocity": 1,
                    "duration": 0.3125
                },
                {
                    "name": "A#4",
                    "midi": 70,
                    "time": 715,
                    "velocity": 1,
                    "duration": 0.3125
                },
                {
                    "name": "A#4",
                    "midi": 70,
                    "time": 715.3125,
                    "velocity": 0.7952755905511811,
                    "duration": 0.02994791666662877
                },
                {
                    "name": "A#4",
                    "midi": 70,
                    "time": 715.46875,
                    "velocity": 0.7952755905511811,
                    "duration": 0.02994791666662877
                },
                {
                    "name": "A#4",
                    "midi": 70,
                    "time": 715.625,
                    "velocity": 0.7952755905511811,
                    "duration": 0.02994791666662877
                },
                {
                    "name": "A#4",
                    "midi": 70,
                    "time": 715.78125,
                    "velocity": 0.7952755905511811,
                    "duration": 0.02994791666662877
                },
                {
                    "name": "D5",
                    "midi": 74,
                    "time": 715.9375,
                    "velocity": 1,
                    "duration": 0.06119791666662877
                },
                {
                    "name": "G#4",
                    "midi": 68,
                    "time": 716.25,
                    "velocity": 1,
                    "duration": 0.3125
                },
                {
                    "name": "C#5",
                    "midi": 73,
                    "time": 716.25,
                    "velocity": 1,
                    "duration": 0.3125
                },
                {
                    "name": "C#5",
                    "midi": 73,
                    "time": 716.5625,
                    "velocity": 0.7952755905511811,
                    "duration": 0.02994791666662877
                },
                {
                    "name": "C#5",
                    "midi": 73,
                    "time": 716.71875,
                    "velocity": 0.7952755905511811,
                    "duration": 0.02994791666662877
                },
                {
                    "name": "C#5",
                    "midi": 73,
                    "time": 716.875,
                    "velocity": 0.7952755905511811,
                    "duration": 0.02994791666662877
                },
                {
                    "name": "C#5",
                    "midi": 73,
                    "time": 717.03125,
                    "velocity": 0.7952755905511811,
                    "duration": 0.02994791666662877
                },
                {
                    "name": "F5",
                    "midi": 77,
                    "time": 717.1875,
                    "velocity": 0.7952755905511811,
                    "duration": 0.02994791666662877
                },
                {
                    "name": "B4",
                    "midi": 71,
                    "time": 717.34375,
                    "velocity": 0.7952755905511811,
                    "duration": 0.02994791666662877
                },
                {
                    "name": "F4",
                    "midi": 65,
                    "time": 717.5,
                    "velocity": 1,
                    "duration": 0.3125
                },
                {
                    "name": "C5",
                    "midi": 72,
                    "time": 717.5,
                    "velocity": 1,
                    "duration": 0.3125
                },
                {
                    "name": "F5",
                    "midi": 77,
                    "time": 717.5,
                    "velocity": 1,
                    "duration": 0.3125
                },
                {
                    "name": "F4",
                    "midi": 65,
                    "time": 717.8125,
                    "velocity": 0.7952755905511811,
                    "duration": 0.02994791666662877
                },
                {
                    "name": "F5",
                    "midi": 77,
                    "time": 717.8125,
                    "velocity": 0.7952755905511811,
                    "duration": 0.02994791666662877
                },
                {
                    "name": "F4",
                    "midi": 65,
                    "time": 717.96875,
                    "velocity": 0.7952755905511811,
                    "duration": 0.02994791666662877
                },
                {
                    "name": "F5",
                    "midi": 77,
                    "time": 717.96875,
                    "velocity": 0.7952755905511811,
                    "duration": 0.02994791666662877
                },
                {
                    "name": "F4",
                    "midi": 65,
                    "time": 718.125,
                    "velocity": 0.7952755905511811,
                    "duration": 0.02994791666662877
                },
                {
                    "name": "F5",
                    "midi": 77,
                    "time": 718.125,
                    "velocity": 0.7952755905511811,
                    "duration": 0.02994791666662877
                },
                {
                    "name": "F4",
                    "midi": 65,
                    "time": 718.28125,
                    "velocity": 0.7952755905511811,
                    "duration": 0.02994791666662877
                },
                {
                    "name": "F5",
                    "midi": 77,
                    "time": 718.28125,
                    "velocity": 0.7952755905511811,
                    "duration": 0.02994791666662877
                },
                {
                    "name": "A4",
                    "midi": 69,
                    "time": 718.4375,
                    "velocity": 1,
                    "duration": 0.06119791666662877
                },
                {
                    "name": "A5",
                    "midi": 81,
                    "time": 718.4375,
                    "velocity": 1,
                    "duration": 0.06119791666662877
                },
                {
                    "name": "G#4",
                    "midi": 68,
                    "time": 718.75,
                    "velocity": 1,
                    "duration": 0.3125
                },
                {
                    "name": "D#5",
                    "midi": 75,
                    "time": 718.75,
                    "velocity": 1,
                    "duration": 0.3125
                },
                {
                    "name": "G#5",
                    "midi": 80,
                    "time": 718.75,
                    "velocity": 1,
                    "duration": 0.3125
                },
                {
                    "name": "G#5",
                    "midi": 80,
                    "time": 719.0625,
                    "velocity": 0.7952755905511811,
                    "duration": 0.02994791666662877
                },
                {
                    "name": "G#5",
                    "midi": 80,
                    "time": 719.21875,
                    "velocity": 0.7952755905511811,
                    "duration": 0.02994791666662877
                },
                {
                    "name": "G#5",
                    "midi": 80,
                    "time": 719.375,
                    "velocity": 0.7952755905511811,
                    "duration": 0.02994791666662877
                },
                {
                    "name": "G#5",
                    "midi": 80,
                    "time": 719.53125,
                    "velocity": 0.7952755905511811,
                    "duration": 0.02994791666662877
                },
                {
                    "name": "C6",
                    "midi": 84,
                    "time": 719.6875,
                    "velocity": 0.7952755905511811,
                    "duration": 0.078125
                },
                {
                    "name": "A#5",
                    "midi": 82,
                    "time": 719.765625,
                    "velocity": 0.7952755905511811,
                    "duration": 0.078125
                },
                {
                    "name": "G#5",
                    "midi": 80,
                    "time": 719.84375,
                    "velocity": 0.7952755905511811,
                    "duration": 0.078125
                },
                {
                    "name": "F#5",
                    "midi": 78,
                    "time": 719.921875,
                    "velocity": 0.7952755905511811,
                    "duration": 0.078125
                },
                {
                    "name": "F4",
                    "midi": 65,
                    "time": 720,
                    "velocity": 1,
                    "duration": 0.3125
                },
                {
                    "name": "C5",
                    "midi": 72,
                    "time": 720,
                    "velocity": 1,
                    "duration": 0.3125
                },
                {
                    "name": "F5",
                    "midi": 77,
                    "time": 720,
                    "velocity": 1,
                    "duration": 0.3125
                },
                {
                    "name": "F4",
                    "midi": 65,
                    "time": 720.3125,
                    "velocity": 0.7952755905511811,
                    "duration": 0.02994791666662877
                },
                {
                    "name": "F5",
                    "midi": 77,
                    "time": 720.3125,
                    "velocity": 0.7952755905511811,
                    "duration": 0.02994791666662877
                },
                {
                    "name": "F4",
                    "midi": 65,
                    "time": 720.46875,
                    "velocity": 0.7952755905511811,
                    "duration": 0.02994791666662877
                },
                {
                    "name": "F5",
                    "midi": 77,
                    "time": 720.46875,
                    "velocity": 0.7952755905511811,
                    "duration": 0.02994791666662877
                },
                {
                    "name": "F4",
                    "midi": 65,
                    "time": 720.625,
                    "velocity": 0.7952755905511811,
                    "duration": 0.02994791666662877
                },
                {
                    "name": "F5",
                    "midi": 77,
                    "time": 720.625,
                    "velocity": 0.7952755905511811,
                    "duration": 0.02994791666662877
                },
                {
                    "name": "F4",
                    "midi": 65,
                    "time": 720.78125,
                    "velocity": 0.7952755905511811,
                    "duration": 0.02994791666662877
                },
                {
                    "name": "F5",
                    "midi": 77,
                    "time": 720.78125,
                    "velocity": 0.7952755905511811,
                    "duration": 0.02994791666662877
                },
                {
                    "name": "A4",
                    "midi": 69,
                    "time": 720.9375,
                    "velocity": 1,
                    "duration": 0.06119791666662877
                },
                {
                    "name": "A5",
                    "midi": 81,
                    "time": 720.9375,
                    "velocity": 1,
                    "duration": 0.06119791666662877
                },
                {
                    "name": "G#4",
                    "midi": 68,
                    "time": 721.25,
                    "velocity": 1,
                    "duration": 0.3125
                },
                {
                    "name": "E5",
                    "midi": 76,
                    "time": 721.25,
                    "velocity": 1,
                    "duration": 0.3125
                },
                {
                    "name": "G#5",
                    "midi": 80,
                    "time": 721.25,
                    "velocity": 1,
                    "duration": 0.3125
                },
                {
                    "name": "G#5",
                    "midi": 80,
                    "time": 721.5625,
                    "velocity": 0.7952755905511811,
                    "duration": 0.02994791666662877
                },
                {
                    "name": "G#5",
                    "midi": 80,
                    "time": 721.71875,
                    "velocity": 0.7952755905511811,
                    "duration": 0.02994791666662877
                },
                {
                    "name": "G#5",
                    "midi": 80,
                    "time": 721.875,
                    "velocity": 0.7952755905511811,
                    "duration": 0.02994791666662877
                },
                {
                    "name": "G#5",
                    "midi": 80,
                    "time": 722.03125,
                    "velocity": 0.7952755905511811,
                    "duration": 0.02994791666662877
                },
                {
                    "name": "C6",
                    "midi": 84,
                    "time": 722.1875,
                    "velocity": 0.7952755905511811,
                    "duration": 0.078125
                },
                {
                    "name": "A#5",
                    "midi": 82,
                    "time": 722.265625,
                    "velocity": 0.7952755905511811,
                    "duration": 0.078125
                },
                {
                    "name": "G#5",
                    "midi": 80,
                    "time": 722.34375,
                    "velocity": 0.7952755905511811,
                    "duration": 0.078125
                },
                {
                    "name": "F#5",
                    "midi": 78,
                    "time": 722.421875,
                    "velocity": 0.7952755905511811,
                    "duration": 0.078125
                },
                {
                    "name": "G5",
                    "midi": 79,
                    "time": 722.5,
                    "velocity": 1,
                    "duration": 0.625
                },
                {
                    "name": "C6",
                    "midi": 84,
                    "time": 722.5,
                    "velocity": 1,
                    "duration": 0.625
                },
                {
                    "name": "E6",
                    "midi": 88,
                    "time": 722.5,
                    "velocity": 1,
                    "duration": 0.625
                },
                {
                    "name": "G6",
                    "midi": 91,
                    "time": 722.5,
                    "velocity": 1,
                    "duration": 0.625
                },
                {
                    "name": "A4",
                    "midi": 69,
                    "time": 723.125,
                    "velocity": 1,
                    "duration": 0.625
                },
                {
                    "name": "C5",
                    "midi": 72,
                    "time": 723.125,
                    "velocity": 1,
                    "duration": 0.625
                },
                {
                    "name": "E5",
                    "midi": 76,
                    "time": 723.125,
                    "velocity": 1,
                    "duration": 0.625
                },
                {
                    "name": "A5",
                    "midi": 81,
                    "time": 723.125,
                    "velocity": 1,
                    "duration": 0.625
                },
                {
                    "name": "B4",
                    "midi": 71,
                    "time": 723.75,
                    "velocity": 1,
                    "duration": 1.25
                },
                {
                    "name": "C5",
                    "midi": 72,
                    "time": 723.75,
                    "velocity": 1,
                    "duration": 1.25
                },
                {
                    "name": "E5",
                    "midi": 76,
                    "time": 723.75,
                    "velocity": 1,
                    "duration": 1.25
                },
                {
                    "name": "B5",
                    "midi": 83,
                    "time": 723.75,
                    "velocity": 1,
                    "duration": 1.25
                },
                {
                    "name": "C5",
                    "midi": 72,
                    "time": 725,
                    "velocity": 0.7952755905511811,
                    "duration": 0.625
                },
                {
                    "name": "D5",
                    "midi": 74,
                    "time": 725,
                    "velocity": 0.7952755905511811,
                    "duration": 0.625
                },
                {
                    "name": "F5",
                    "midi": 77,
                    "time": 725,
                    "velocity": 0.7952755905511811,
                    "duration": 0.625
                },
                {
                    "name": "C6",
                    "midi": 84,
                    "time": 725,
                    "velocity": 0.7952755905511811,
                    "duration": 0.625
                },
                {
                    "name": "D4",
                    "midi": 62,
                    "time": 725.625,
                    "velocity": 0.7952755905511811,
                    "duration": 0.625
                },
                {
                    "name": "F4",
                    "midi": 65,
                    "time": 725.625,
                    "velocity": 0.7952755905511811,
                    "duration": 0.625
                },
                {
                    "name": "A#4",
                    "midi": 70,
                    "time": 725.625,
                    "velocity": 0.7952755905511811,
                    "duration": 0.625
                },
                {
                    "name": "D5",
                    "midi": 74,
                    "time": 725.625,
                    "velocity": 0.7952755905511811,
                    "duration": 0.625
                },
                {
                    "name": "E4",
                    "midi": 64,
                    "time": 726.25,
                    "velocity": 0.7952755905511811,
                    "duration": 2.5
                },
                {
                    "name": "A#4",
                    "midi": 70,
                    "time": 726.25,
                    "velocity": 0.7952755905511811,
                    "duration": 2.5
                },
                {
                    "name": "C5",
                    "midi": 72,
                    "time": 726.25,
                    "velocity": 0.7952755905511811,
                    "duration": 2.5
                },
                {
                    "name": "E5",
                    "midi": 76,
                    "time": 726.25,
                    "velocity": 0.7952755905511811,
                    "duration": 2.5
                },
                {
                    "name": "A#4",
                    "midi": 70,
                    "time": 728.75,
                    "velocity": 0.7952755905511811,
                    "duration": 0.3125
                },
                {
                    "name": "A#4",
                    "midi": 70,
                    "time": 729.0625,
                    "velocity": 0.7952755905511811,
                    "duration": 0.15625
                },
                {
                    "name": "A#4",
                    "midi": 70,
                    "time": 729.21875,
                    "velocity": 0.7952755905511811,
                    "duration": 0.15625
                },
                {
                    "name": "A#4",
                    "midi": 70,
                    "time": 729.375,
                    "velocity": 0.7952755905511811,
                    "duration": 0.15625
                },
                {
                    "name": "A#4",
                    "midi": 70,
                    "time": 729.53125,
                    "velocity": 0.7952755905511811,
                    "duration": 0.15625
                },
                {
                    "name": "D5",
                    "midi": 74,
                    "time": 729.6875,
                    "velocity": 0.7952755905511811,
                    "duration": 0.3125
                },
                {
                    "name": "C#5",
                    "midi": 73,
                    "time": 730,
                    "velocity": 1,
                    "duration": 0.3125
                },
                {
                    "name": "C#5",
                    "midi": 73,
                    "time": 730.3125,
                    "velocity": 0.7952755905511811,
                    "duration": 0.02994791666662877
                },
                {
                    "name": "C#5",
                    "midi": 73,
                    "time": 730.46875,
                    "velocity": 0.7952755905511811,
                    "duration": 0.02994791666662877
                },
                {
                    "name": "C#5",
                    "midi": 73,
                    "time": 730.625,
                    "velocity": 0.7952755905511811,
                    "duration": 0.02994791666662877
                },
                {
                    "name": "C#5",
                    "midi": 73,
                    "time": 730.78125,
                    "velocity": 0.7952755905511811,
                    "duration": 0.02994791666662877
                },
                {
                    "name": "F5",
                    "midi": 77,
                    "time": 730.9375,
                    "velocity": 0.7952755905511811,
                    "duration": 0.02994791666662877
                },
                {
                    "name": "B4",
                    "midi": 71,
                    "time": 731.09375,
                    "velocity": 0.7952755905511811,
                    "duration": 0.02994791666662877
                },
                {
                    "name": "F5",
                    "midi": 77,
                    "time": 731.25,
                    "velocity": 1,
                    "duration": 0.3125
                },
                {
                    "name": "F5",
                    "midi": 77,
                    "time": 731.5625,
                    "velocity": 0.7952755905511811,
                    "duration": 0.02994791666662877
                },
                {
                    "name": "F5",
                    "midi": 77,
                    "time": 731.71875,
                    "velocity": 0.7952755905511811,
                    "duration": 0.02994791666662877
                },
                {
                    "name": "F5",
                    "midi": 77,
                    "time": 731.875,
                    "velocity": 0.7952755905511811,
                    "duration": 0.02994791666662877
                },
                {
                    "name": "F5",
                    "midi": 77,
                    "time": 732.03125,
                    "velocity": 0.7952755905511811,
                    "duration": 0.02994791666662877
                },
                {
                    "name": "A5",
                    "midi": 81,
                    "time": 732.1875,
                    "velocity": 0.7952755905511811,
                    "duration": 0.06119791666662877
                },
                {
                    "name": "G#5",
                    "midi": 80,
                    "time": 732.5,
                    "velocity": 0.7952755905511811,
                    "duration": 0.3125
                },
                {
                    "name": "G#5",
                    "midi": 80,
                    "time": 732.8125,
                    "velocity": 0.7952755905511811,
                    "duration": 0.02994791666662877
                },
                {
                    "name": "G#5",
                    "midi": 80,
                    "time": 732.96875,
                    "velocity": 0.7952755905511811,
                    "duration": 0.02994791666662877
                },
                {
                    "name": "G#5",
                    "midi": 80,
                    "time": 733.125,
                    "velocity": 0.7952755905511811,
                    "duration": 0.02994791666662877
                },
                {
                    "name": "G#5",
                    "midi": 80,
                    "time": 733.28125,
                    "velocity": 0.7952755905511811,
                    "duration": 0.02994791666662877
                },
                {
                    "name": "C6",
                    "midi": 84,
                    "time": 733.4375,
                    "velocity": 0.7952755905511811,
                    "duration": 0.02994791666662877
                },
                {
                    "name": "F#5",
                    "midi": 78,
                    "time": 733.59375,
                    "velocity": 0.7952755905511811,
                    "duration": 0.02994791666662877
                },
                {
                    "name": "C5",
                    "midi": 72,
                    "time": 733.75,
                    "velocity": 1,
                    "duration": 0.3125
                },
                {
                    "name": "C6",
                    "midi": 84,
                    "time": 733.75,
                    "velocity": 1,
                    "duration": 0.3125
                },
                {
                    "name": "C5",
                    "midi": 72,
                    "time": 734.0625,
                    "velocity": 0.7952755905511811,
                    "duration": 0.02994791666662877
                },
                {
                    "name": "C6",
                    "midi": 84,
                    "time": 734.0625,
                    "velocity": 0.7952755905511811,
                    "duration": 0.02994791666662877
                },
                {
                    "name": "C5",
                    "midi": 72,
                    "time": 734.21875,
                    "velocity": 0.7952755905511811,
                    "duration": 0.02994791666662877
                },
                {
                    "name": "C6",
                    "midi": 84,
                    "time": 734.21875,
                    "velocity": 0.7952755905511811,
                    "duration": 0.02994791666662877
                },
                {
                    "name": "C5",
                    "midi": 72,
                    "time": 734.375,
                    "velocity": 0.7952755905511811,
                    "duration": 0.02994791666662877
                },
                {
                    "name": "C6",
                    "midi": 84,
                    "time": 734.375,
                    "velocity": 0.7952755905511811,
                    "duration": 0.02994791666662877
                },
                {
                    "name": "C5",
                    "midi": 72,
                    "time": 734.53125,
                    "velocity": 0.7952755905511811,
                    "duration": 0.02994791666662877
                },
                {
                    "name": "C6",
                    "midi": 84,
                    "time": 734.53125,
                    "velocity": 0.7952755905511811,
                    "duration": 0.02994791666662877
                },
                {
                    "name": "E5",
                    "midi": 76,
                    "time": 734.6875,
                    "velocity": 1,
                    "duration": 0.3125
                },
                {
                    "name": "E6",
                    "midi": 88,
                    "time": 734.6875,
                    "velocity": 1,
                    "duration": 0.3125
                },
                {
                    "name": "G4",
                    "midi": 67,
                    "time": 735.46875,
                    "velocity": 0.7952755905511811,
                    "duration": 0.078125
                },
                {
                    "name": "A4",
                    "midi": 69,
                    "time": 735.546875,
                    "velocity": 0.7952755905511811,
                    "duration": 0.078125
                },
                {
                    "name": "B4",
                    "midi": 71,
                    "time": 735.625,
                    "velocity": 0.7952755905511811,
                    "duration": 0.078125
                },
                {
                    "name": "C5",
                    "midi": 72,
                    "time": 735.703125,
                    "velocity": 0.7952755905511811,
                    "duration": 0.078125
                },
                {
                    "name": "D5",
                    "midi": 74,
                    "time": 735.78125,
                    "velocity": 0.7952755905511811,
                    "duration": 0.078125
                },
                {
                    "name": "E5",
                    "midi": 76,
                    "time": 735.859375,
                    "velocity": 0.7952755905511811,
                    "duration": 0.078125
                },
                {
                    "name": "F5",
                    "midi": 77,
                    "time": 735.9375,
                    "velocity": 0.7952755905511811,
                    "duration": 0.078125
                },
                {
                    "name": "G5",
                    "midi": 79,
                    "time": 736.015625,
                    "velocity": 0.7952755905511811,
                    "duration": 0.078125
                },
                {
                    "name": "A5",
                    "midi": 81,
                    "time": 736.09375,
                    "velocity": 0.7952755905511811,
                    "duration": 0.078125
                },
                {
                    "name": "B5",
                    "midi": 83,
                    "time": 736.171875,
                    "velocity": 0.7952755905511811,
                    "duration": 0.078125
                },
                {
                    "name": "C5",
                    "midi": 72,
                    "time": 736.25,
                    "velocity": 0.7952755905511811,
                    "duration": 0.3125
                },
                {
                    "name": "C6",
                    "midi": 84,
                    "time": 736.25,
                    "velocity": 0.7952755905511811,
                    "duration": 0.3125
                },
                {
                    "name": "C5",
                    "midi": 72,
                    "time": 736.5625,
                    "velocity": 0.7952755905511811,
                    "duration": 0.15625
                },
                {
                    "name": "C6",
                    "midi": 84,
                    "time": 736.5625,
                    "velocity": 0.7952755905511811,
                    "duration": 0.15625
                },
                {
                    "name": "C5",
                    "midi": 72,
                    "time": 736.71875,
                    "velocity": 0.7952755905511811,
                    "duration": 0.15625
                },
                {
                    "name": "C6",
                    "midi": 84,
                    "time": 736.71875,
                    "velocity": 0.7952755905511811,
                    "duration": 0.15625
                },
                {
                    "name": "C5",
                    "midi": 72,
                    "time": 736.875,
                    "velocity": 0.7952755905511811,
                    "duration": 0.15625
                },
                {
                    "name": "C6",
                    "midi": 84,
                    "time": 736.875,
                    "velocity": 0.7952755905511811,
                    "duration": 0.15625
                },
                {
                    "name": "C5",
                    "midi": 72,
                    "time": 737.03125,
                    "velocity": 0.7952755905511811,
                    "duration": 0.15625
                },
                {
                    "name": "C6",
                    "midi": 84,
                    "time": 737.03125,
                    "velocity": 0.7952755905511811,
                    "duration": 0.15625
                },
                {
                    "name": "E5",
                    "midi": 76,
                    "time": 737.1875,
                    "velocity": 0.7952755905511811,
                    "duration": 0.3125
                },
                {
                    "name": "E6",
                    "midi": 88,
                    "time": 737.1875,
                    "velocity": 0.7952755905511811,
                    "duration": 0.3125
                },
                {
                    "name": "G4",
                    "midi": 67,
                    "time": 737.96875,
                    "velocity": 0.7952755905511811,
                    "duration": 0.078125
                },
                {
                    "name": "A4",
                    "midi": 69,
                    "time": 738.046875,
                    "velocity": 0.7952755905511811,
                    "duration": 0.078125
                },
                {
                    "name": "B4",
                    "midi": 71,
                    "time": 738.125,
                    "velocity": 0.7952755905511811,
                    "duration": 0.078125
                },
                {
                    "name": "C5",
                    "midi": 72,
                    "time": 738.203125,
                    "velocity": 0.7952755905511811,
                    "duration": 0.078125
                },
                {
                    "name": "D5",
                    "midi": 74,
                    "time": 738.28125,
                    "velocity": 0.7952755905511811,
                    "duration": 0.078125
                },
                {
                    "name": "E5",
                    "midi": 76,
                    "time": 738.359375,
                    "velocity": 0.7952755905511811,
                    "duration": 0.078125
                },
                {
                    "name": "F5",
                    "midi": 77,
                    "time": 738.4375,
                    "velocity": 0.7952755905511811,
                    "duration": 0.078125
                },
                {
                    "name": "G5",
                    "midi": 79,
                    "time": 738.515625,
                    "velocity": 0.7952755905511811,
                    "duration": 0.078125
                },
                {
                    "name": "A5",
                    "midi": 81,
                    "time": 738.59375,
                    "velocity": 0.7952755905511811,
                    "duration": 0.078125
                },
                {
                    "name": "B5",
                    "midi": 83,
                    "time": 738.671875,
                    "velocity": 0.7952755905511811,
                    "duration": 0.078125
                },
                {
                    "name": "E5",
                    "midi": 76,
                    "time": 738.75,
                    "velocity": 0.7952755905511811,
                    "duration": 0.15625
                },
                {
                    "name": "G5",
                    "midi": 79,
                    "time": 738.75,
                    "velocity": 0.7952755905511811,
                    "duration": 0.15625
                },
                {
                    "name": "C6",
                    "midi": 84,
                    "time": 738.75,
                    "velocity": 0.7952755905511811,
                    "duration": 0.15625
                },
                {
                    "name": "F5",
                    "midi": 77,
                    "time": 738.90625,
                    "velocity": 0.7952755905511811,
                    "duration": 0.15625
                },
                {
                    "name": "A5",
                    "midi": 81,
                    "time": 738.90625,
                    "velocity": 0.7952755905511811,
                    "duration": 0.15625
                },
                {
                    "name": "D6",
                    "midi": 86,
                    "time": 738.90625,
                    "velocity": 0.7952755905511811,
                    "duration": 0.15625
                },
                {
                    "name": "G5",
                    "midi": 79,
                    "time": 739.0625,
                    "velocity": 0.7952755905511811,
                    "duration": 0.15625
                },
                {
                    "name": "C6",
                    "midi": 84,
                    "time": 739.0625,
                    "velocity": 0.7952755905511811,
                    "duration": 0.15625
                },
                {
                    "name": "E6",
                    "midi": 88,
                    "time": 739.0625,
                    "velocity": 0.7952755905511811,
                    "duration": 0.15625
                },
                {
                    "name": "F5",
                    "midi": 77,
                    "time": 739.21875,
                    "velocity": 0.7952755905511811,
                    "duration": 0.15625
                },
                {
                    "name": "A5",
                    "midi": 81,
                    "time": 739.21875,
                    "velocity": 0.7952755905511811,
                    "duration": 0.15625
                },
                {
                    "name": "D6",
                    "midi": 86,
                    "time": 739.21875,
                    "velocity": 0.7952755905511811,
                    "duration": 0.15625
                },
                {
                    "name": "E5",
                    "midi": 76,
                    "time": 739.375,
                    "velocity": 0.7952755905511811,
                    "duration": 0.15625
                },
                {
                    "name": "G5",
                    "midi": 79,
                    "time": 739.375,
                    "velocity": 0.7952755905511811,
                    "duration": 0.15625
                },
                {
                    "name": "C6",
                    "midi": 84,
                    "time": 739.375,
                    "velocity": 0.7952755905511811,
                    "duration": 0.15625
                },
                {
                    "name": "F5",
                    "midi": 77,
                    "time": 739.53125,
                    "velocity": 0.7952755905511811,
                    "duration": 0.15625
                },
                {
                    "name": "A5",
                    "midi": 81,
                    "time": 739.53125,
                    "velocity": 0.7952755905511811,
                    "duration": 0.15625
                },
                {
                    "name": "D6",
                    "midi": 86,
                    "time": 739.53125,
                    "velocity": 0.7952755905511811,
                    "duration": 0.15625
                },
                {
                    "name": "G5",
                    "midi": 79,
                    "time": 739.6875,
                    "velocity": 0.7952755905511811,
                    "duration": 0.15625
                },
                {
                    "name": "C6",
                    "midi": 84,
                    "time": 739.6875,
                    "velocity": 0.7952755905511811,
                    "duration": 0.15625
                },
                {
                    "name": "E6",
                    "midi": 88,
                    "time": 739.6875,
                    "velocity": 0.7952755905511811,
                    "duration": 0.15625
                },
                {
                    "name": "F5",
                    "midi": 77,
                    "time": 739.84375,
                    "velocity": 0.7952755905511811,
                    "duration": 0.15625
                },
                {
                    "name": "A5",
                    "midi": 81,
                    "time": 739.84375,
                    "velocity": 0.7952755905511811,
                    "duration": 0.15625
                },
                {
                    "name": "D6",
                    "midi": 86,
                    "time": 739.84375,
                    "velocity": 0.7952755905511811,
                    "duration": 0.15625
                },
                {
                    "name": "E5",
                    "midi": 76,
                    "time": 740,
                    "velocity": 0.7952755905511811,
                    "duration": 0.15625
                },
                {
                    "name": "G5",
                    "midi": 79,
                    "time": 740,
                    "velocity": 0.7952755905511811,
                    "duration": 0.15625
                },
                {
                    "name": "C6",
                    "midi": 84,
                    "time": 740,
                    "velocity": 0.7952755905511811,
                    "duration": 0.15625
                },
                {
                    "name": "F5",
                    "midi": 77,
                    "time": 740.15625,
                    "velocity": 0.7952755905511811,
                    "duration": 0.15625
                },
                {
                    "name": "A5",
                    "midi": 81,
                    "time": 740.15625,
                    "velocity": 0.7952755905511811,
                    "duration": 0.15625
                },
                {
                    "name": "D6",
                    "midi": 86,
                    "time": 740.15625,
                    "velocity": 0.7952755905511811,
                    "duration": 0.15625
                },
                {
                    "name": "G5",
                    "midi": 79,
                    "time": 740.3125,
                    "velocity": 0.7952755905511811,
                    "duration": 0.15625
                },
                {
                    "name": "C6",
                    "midi": 84,
                    "time": 740.3125,
                    "velocity": 0.7952755905511811,
                    "duration": 0.15625
                },
                {
                    "name": "E6",
                    "midi": 88,
                    "time": 740.3125,
                    "velocity": 0.7952755905511811,
                    "duration": 0.15625
                },
                {
                    "name": "F5",
                    "midi": 77,
                    "time": 740.46875,
                    "velocity": 0.7952755905511811,
                    "duration": 0.15625
                },
                {
                    "name": "A5",
                    "midi": 81,
                    "time": 740.46875,
                    "velocity": 0.7952755905511811,
                    "duration": 0.15625
                },
                {
                    "name": "D6",
                    "midi": 86,
                    "time": 740.46875,
                    "velocity": 0.7952755905511811,
                    "duration": 0.15625
                },
                {
                    "name": "E5",
                    "midi": 76,
                    "time": 740.625,
                    "velocity": 0.7952755905511811,
                    "duration": 0.15625
                },
                {
                    "name": "G5",
                    "midi": 79,
                    "time": 740.625,
                    "velocity": 0.7952755905511811,
                    "duration": 0.15625
                },
                {
                    "name": "C6",
                    "midi": 84,
                    "time": 740.625,
                    "velocity": 0.7952755905511811,
                    "duration": 0.15625
                },
                {
                    "name": "F5",
                    "midi": 77,
                    "time": 740.78125,
                    "velocity": 0.7952755905511811,
                    "duration": 0.15625
                },
                {
                    "name": "A5",
                    "midi": 81,
                    "time": 740.78125,
                    "velocity": 0.7952755905511811,
                    "duration": 0.15625
                },
                {
                    "name": "D6",
                    "midi": 86,
                    "time": 740.78125,
                    "velocity": 0.7952755905511811,
                    "duration": 0.15625
                },
                {
                    "name": "G5",
                    "midi": 79,
                    "time": 740.9375,
                    "velocity": 0.7952755905511811,
                    "duration": 0.15625
                },
                {
                    "name": "C6",
                    "midi": 84,
                    "time": 740.9375,
                    "velocity": 0.7952755905511811,
                    "duration": 0.15625
                },
                {
                    "name": "E6",
                    "midi": 88,
                    "time": 740.9375,
                    "velocity": 0.7952755905511811,
                    "duration": 0.15625
                },
                {
                    "name": "F5",
                    "midi": 77,
                    "time": 741.09375,
                    "velocity": 0.7952755905511811,
                    "duration": 0.15625
                },
                {
                    "name": "A5",
                    "midi": 81,
                    "time": 741.09375,
                    "velocity": 0.7952755905511811,
                    "duration": 0.15625
                },
                {
                    "name": "D6",
                    "midi": 86,
                    "time": 741.09375,
                    "velocity": 0.7952755905511811,
                    "duration": 0.15625
                },
                {
                    "name": "A#3",
                    "midi": 58,
                    "time": 741.25,
                    "velocity": 0.7952755905511811,
                    "duration": 1.25
                },
                {
                    "name": "B4",
                    "midi": 71,
                    "time": 746.171875,
                    "velocity": 0.7952755905511811,
                    "duration": 0.078125
                },
                {
                    "name": "C5",
                    "midi": 72,
                    "time": 746.25,
                    "velocity": 0.5905511811023622,
                    "duration": 0.06119791666662877
                },
                {
                    "name": "D4",
                    "midi": 62,
                    "time": 746.5625,
                    "velocity": 0.5905511811023622,
                    "duration": 0.06119791666662877
                },
                {
                    "name": "E4",
                    "midi": 64,
                    "time": 746.875,
                    "velocity": 0.7952755905511811,
                    "duration": 0.625
                },
                {
                    "name": "B4",
                    "midi": 71,
                    "time": 747.421875,
                    "velocity": 0.5905511811023622,
                    "duration": 0.078125
                },
                {
                    "name": "C5",
                    "midi": 72,
                    "time": 747.5,
                    "velocity": 0.5905511811023622,
                    "duration": 0.06119791666662877
                },
                {
                    "name": "D4",
                    "midi": 62,
                    "time": 747.8125,
                    "velocity": 0.5905511811023622,
                    "duration": 0.06119791666662877
                },
                {
                    "name": "E4",
                    "midi": 64,
                    "time": 748.125,
                    "velocity": 0.7952755905511811,
                    "duration": 0.625
                },
                {
                    "name": "B4",
                    "midi": 71,
                    "time": 748.671875,
                    "velocity": 0.5905511811023622,
                    "duration": 0.078125
                },
                {
                    "name": "C5",
                    "midi": 72,
                    "time": 748.75,
                    "velocity": 0.5905511811023622,
                    "duration": 0.06119791666662877
                },
                {
                    "name": "D4",
                    "midi": 62,
                    "time": 749.0625,
                    "velocity": 0.5905511811023622,
                    "duration": 0.06119791666662877
                },
                {
                    "name": "E4",
                    "midi": 64,
                    "time": 749.375,
                    "velocity": 0.5905511811023622,
                    "duration": 0.06119791666662877
                },
                {
                    "name": "D5",
                    "midi": 74,
                    "time": 749.6875,
                    "velocity": 0.5905511811023622,
                    "duration": 0.06119791666662877
                },
                {
                    "name": "C5",
                    "midi": 72,
                    "time": 750,
                    "velocity": 0.5905511811023622,
                    "duration": 0.3125
                },
                {
                    "name": "C4",
                    "midi": 60,
                    "time": 750.3125,
                    "velocity": 0.5905511811023622,
                    "duration": 0.15625
                },
                {
                    "name": "D4",
                    "midi": 62,
                    "time": 750.46875,
                    "velocity": 0.5905511811023622,
                    "duration": 0.15625
                },
                {
                    "name": "E4",
                    "midi": 64,
                    "time": 750.625,
                    "velocity": 0.7952755905511811,
                    "duration": 0.625
                },
                {
                    "name": "C4",
                    "midi": 60,
                    "time": 751.25,
                    "velocity": 0.7952755905511811,
                    "duration": 0.3125
                },
                {
                    "name": "C4",
                    "midi": 60,
                    "time": 751.5625,
                    "velocity": 0.5905511811023622,
                    "duration": 0.02994791666662877
                },
                {
                    "name": "C4",
                    "midi": 60,
                    "time": 751.71875,
                    "velocity": 0.5905511811023622,
                    "duration": 0.02994791666662877
                },
                {
                    "name": "C4",
                    "midi": 60,
                    "time": 751.875,
                    "velocity": 0.5905511811023622,
                    "duration": 0.02994791666662877
                },
                {
                    "name": "C4",
                    "midi": 60,
                    "time": 752.03125,
                    "velocity": 0.5905511811023622,
                    "duration": 0.02994791666662877
                },
                {
                    "name": "E4",
                    "midi": 64,
                    "time": 752.1875,
                    "velocity": 0.5905511811023622,
                    "duration": 0.06119791666662877
                },
                {
                    "name": "A#3",
                    "midi": 58,
                    "time": 752.5,
                    "velocity": 0.7952755905511811,
                    "duration": 0.9375
                },
                {
                    "name": "F4",
                    "midi": 65,
                    "time": 753.4375,
                    "velocity": 0.7952755905511811,
                    "duration": 0.15625
                },
                {
                    "name": "F4",
                    "midi": 65,
                    "time": 753.59375,
                    "velocity": 0.5905511811023622,
                    "duration": 0.02994791666662877
                },
                {
                    "name": "F4",
                    "midi": 65,
                    "time": 753.75,
                    "velocity": 0.5905511811023622,
                    "duration": 0.02994791666662877
                },
                {
                    "name": "F4",
                    "midi": 65,
                    "time": 753.90625,
                    "velocity": 0.5905511811023622,
                    "duration": 0.02994791666662877
                },
                {
                    "name": "A4",
                    "midi": 69,
                    "time": 754.0625,
                    "velocity": 0.5905511811023622,
                    "duration": 0.06119791666662877
                },
                {
                    "name": "D#4",
                    "midi": 63,
                    "time": 754.375,
                    "velocity": 0.7952755905511811,
                    "duration": 0.9375
                },
                {
                    "name": "B4",
                    "midi": 71,
                    "time": 755.3125,
                    "velocity": 0.7952755905511811,
                    "duration": 0.02994791666662877
                },
                {
                    "name": "B4",
                    "midi": 71,
                    "time": 755.46875,
                    "velocity": 0.7952755905511811,
                    "duration": 0.02994791666662877
                },
                {
                    "name": "B4",
                    "midi": 71,
                    "time": 755.625,
                    "velocity": 0.7952755905511811,
                    "duration": 0.02994791666662877
                },
                {
                    "name": "B4",
                    "midi": 71,
                    "time": 755.78125,
                    "velocity": 0.7952755905511811,
                    "duration": 0.02994791666662877
                },
                {
                    "name": "D5",
                    "midi": 74,
                    "time": 755.9375,
                    "velocity": 0.7952755905511811,
                    "duration": 0.06119791666662877
                },
                {
                    "name": "A#4",
                    "midi": 70,
                    "time": 756.25,
                    "velocity": 0.7952755905511811,
                    "duration": 0.9375
                },
                {
                    "name": "E5",
                    "midi": 76,
                    "time": 757.1875,
                    "velocity": 0.7952755905511811,
                    "duration": 0.02994791666662877
                },
                {
                    "name": "E5",
                    "midi": 76,
                    "time": 757.34375,
                    "velocity": 0.7952755905511811,
                    "duration": 0.02994791666662877
                },
                {
                    "name": "E5",
                    "midi": 76,
                    "time": 757.5,
                    "velocity": 0.7952755905511811,
                    "duration": 0.02994791666662877
                },
                {
                    "name": "E5",
                    "midi": 76,
                    "time": 757.65625,
                    "velocity": 0.7952755905511811,
                    "duration": 0.02994791666662877
                },
                {
                    "name": "G5",
                    "midi": 79,
                    "time": 757.8125,
                    "velocity": 0.7952755905511811,
                    "duration": 0.06119791666662877
                },
                {
                    "name": "C5",
                    "midi": 72,
                    "time": 758.125,
                    "velocity": 0.7952755905511811,
                    "duration": 0.625
                },
                {
                    "name": "A#3",
                    "midi": 58,
                    "time": 759.0625,
                    "velocity": 0.7952755905511811,
                    "duration": 0.3125
                },
                {
                    "name": "D4",
                    "midi": 62,
                    "time": 759.0625,
                    "velocity": 0.7952755905511811,
                    "duration": 0.3125
                },
                {
                    "name": "F4",
                    "midi": 65,
                    "time": 759.0625,
                    "velocity": 0.7952755905511811,
                    "duration": 0.3125
                },
                {
                    "name": "C4",
                    "midi": 60,
                    "time": 759.375,
                    "velocity": 0.5905511811023622,
                    "duration": 0.06119791666662877
                },
                {
                    "name": "E4",
                    "midi": 64,
                    "time": 759.375,
                    "velocity": 0.5905511811023622,
                    "duration": 0.06119791666662877
                },
                {
                    "name": "G4",
                    "midi": 67,
                    "time": 759.375,
                    "velocity": 0.5905511811023622,
                    "duration": 0.06119791666662877
                },
                {
                    "name": "A3",
                    "midi": 57,
                    "time": 759.6875,
                    "velocity": 0.7952755905511811,
                    "duration": 0.3125
                },
                {
                    "name": "C4",
                    "midi": 60,
                    "time": 759.6875,
                    "velocity": 0.7952755905511811,
                    "duration": 0.3125
                },
                {
                    "name": "E4",
                    "midi": 64,
                    "time": 759.6875,
                    "velocity": 0.7952755905511811,
                    "duration": 0.3125
                },
                {
                    "name": "A#3",
                    "midi": 58,
                    "time": 760,
                    "velocity": 0.7952755905511811,
                    "duration": 0.3125
                },
                {
                    "name": "D4",
                    "midi": 62,
                    "time": 760,
                    "velocity": 0.7952755905511811,
                    "duration": 0.3125
                },
                {
                    "name": "F4",
                    "midi": 65,
                    "time": 760,
                    "velocity": 0.7952755905511811,
                    "duration": 0.3125
                },
                {
                    "name": "A3",
                    "midi": 57,
                    "time": 760.3125,
                    "velocity": 0.7952755905511811,
                    "duration": 0.3125
                },
                {
                    "name": "C4",
                    "midi": 60,
                    "time": 760.3125,
                    "velocity": 0.7952755905511811,
                    "duration": 0.3125
                },
                {
                    "name": "E4",
                    "midi": 64,
                    "time": 760.3125,
                    "velocity": 0.7952755905511811,
                    "duration": 0.3125
                },
                {
                    "name": "G3",
                    "midi": 55,
                    "time": 760.625,
                    "velocity": 0.7952755905511811,
                    "duration": 0.625
                },
                {
                    "name": "A#3",
                    "midi": 58,
                    "time": 760.625,
                    "velocity": 0.7952755905511811,
                    "duration": 0.625
                },
                {
                    "name": "D4",
                    "midi": 62,
                    "time": 760.625,
                    "velocity": 0.7952755905511811,
                    "duration": 0.625
                },
                {
                    "name": "A#3",
                    "midi": 58,
                    "time": 761.5625,
                    "velocity": 0.7952755905511811,
                    "duration": 0.3125
                },
                {
                    "name": "D4",
                    "midi": 62,
                    "time": 761.5625,
                    "velocity": 0.7952755905511811,
                    "duration": 0.3125
                },
                {
                    "name": "F4",
                    "midi": 65,
                    "time": 761.5625,
                    "velocity": 0.7952755905511811,
                    "duration": 0.3125
                },
                {
                    "name": "C4",
                    "midi": 60,
                    "time": 761.875,
                    "velocity": 0.5905511811023622,
                    "duration": 0.06119791666662877
                },
                {
                    "name": "E4",
                    "midi": 64,
                    "time": 761.875,
                    "velocity": 0.5905511811023622,
                    "duration": 0.06119791666662877
                },
                {
                    "name": "G4",
                    "midi": 67,
                    "time": 761.875,
                    "velocity": 0.5905511811023622,
                    "duration": 0.06119791666662877
                },
                {
                    "name": "A3",
                    "midi": 57,
                    "time": 762.1875,
                    "velocity": 0.7952755905511811,
                    "duration": 0.3125
                },
                {
                    "name": "C4",
                    "midi": 60,
                    "time": 762.1875,
                    "velocity": 0.7952755905511811,
                    "duration": 0.3125
                },
                {
                    "name": "E4",
                    "midi": 64,
                    "time": 762.1875,
                    "velocity": 0.7952755905511811,
                    "duration": 0.3125
                },
                {
                    "name": "A#3",
                    "midi": 58,
                    "time": 762.5,
                    "velocity": 0.7952755905511811,
                    "duration": 0.3125
                },
                {
                    "name": "D4",
                    "midi": 62,
                    "time": 762.5,
                    "velocity": 0.7952755905511811,
                    "duration": 0.3125
                },
                {
                    "name": "F4",
                    "midi": 65,
                    "time": 762.5,
                    "velocity": 0.7952755905511811,
                    "duration": 0.3125
                },
                {
                    "name": "A3",
                    "midi": 57,
                    "time": 762.8125,
                    "velocity": 0.7952755905511811,
                    "duration": 0.3125
                },
                {
                    "name": "C4",
                    "midi": 60,
                    "time": 762.8125,
                    "velocity": 0.7952755905511811,
                    "duration": 0.3125
                },
                {
                    "name": "E4",
                    "midi": 64,
                    "time": 762.8125,
                    "velocity": 0.7952755905511811,
                    "duration": 0.3125
                },
                {
                    "name": "G3",
                    "midi": 55,
                    "time": 763.125,
                    "velocity": 0.7952755905511811,
                    "duration": 0.3125
                },
                {
                    "name": "A#3",
                    "midi": 58,
                    "time": 763.125,
                    "velocity": 0.7952755905511811,
                    "duration": 0.3125
                },
                {
                    "name": "D4",
                    "midi": 62,
                    "time": 763.125,
                    "velocity": 0.7952755905511811,
                    "duration": 0.3125
                },
                {
                    "name": "A#3",
                    "midi": 58,
                    "time": 763.4375,
                    "velocity": 0.7952755905511811,
                    "duration": 0.3125
                },
                {
                    "name": "D4",
                    "midi": 62,
                    "time": 763.4375,
                    "velocity": 0.7952755905511811,
                    "duration": 0.3125
                },
                {
                    "name": "F4",
                    "midi": 65,
                    "time": 763.4375,
                    "velocity": 0.7952755905511811,
                    "duration": 0.3125
                },
                {
                    "name": "C4",
                    "midi": 60,
                    "time": 763.75,
                    "velocity": 0.5905511811023622,
                    "duration": 0.3125
                },
                {
                    "name": "E4",
                    "midi": 64,
                    "time": 763.75,
                    "velocity": 0.5905511811023622,
                    "duration": 0.3125
                },
                {
                    "name": "G4",
                    "midi": 67,
                    "time": 763.75,
                    "velocity": 0.5905511811023622,
                    "duration": 0.3125
                },
                {
                    "name": "A3",
                    "midi": 57,
                    "time": 764.0625,
                    "velocity": 0.7952755905511811,
                    "duration": 0.3125
                },
                {
                    "name": "C4",
                    "midi": 60,
                    "time": 764.0625,
                    "velocity": 0.7952755905511811,
                    "duration": 0.3125
                },
                {
                    "name": "E4",
                    "midi": 64,
                    "time": 764.0625,
                    "velocity": 0.7952755905511811,
                    "duration": 0.3125
                },
                {
                    "name": "A#3",
                    "midi": 58,
                    "time": 764.375,
                    "velocity": 0.7952755905511811,
                    "duration": 0.3125
                },
                {
                    "name": "D4",
                    "midi": 62,
                    "time": 764.375,
                    "velocity": 0.7952755905511811,
                    "duration": 0.3125
                },
                {
                    "name": "F4",
                    "midi": 65,
                    "time": 764.375,
                    "velocity": 0.7952755905511811,
                    "duration": 0.3125
                },
                {
                    "name": "A3",
                    "midi": 57,
                    "time": 764.6875,
                    "velocity": 0.7952755905511811,
                    "duration": 0.3125
                },
                {
                    "name": "C4",
                    "midi": 60,
                    "time": 764.6875,
                    "velocity": 0.7952755905511811,
                    "duration": 0.3125
                },
                {
                    "name": "E4",
                    "midi": 64,
                    "time": 764.6875,
                    "velocity": 0.7952755905511811,
                    "duration": 0.3125
                },
                {
                    "name": "G3",
                    "midi": 55,
                    "time": 765,
                    "velocity": 0.7952755905511811,
                    "duration": 0.3125
                },
                {
                    "name": "A#3",
                    "midi": 58,
                    "time": 765,
                    "velocity": 0.7952755905511811,
                    "duration": 0.3125
                },
                {
                    "name": "D4",
                    "midi": 62,
                    "time": 765,
                    "velocity": 0.7952755905511811,
                    "duration": 0.3125
                },
                {
                    "name": "A#3",
                    "midi": 58,
                    "time": 765.3125,
                    "velocity": 0.7952755905511811,
                    "duration": 0.3125
                },
                {
                    "name": "D4",
                    "midi": 62,
                    "time": 765.3125,
                    "velocity": 0.7952755905511811,
                    "duration": 0.3125
                },
                {
                    "name": "F4",
                    "midi": 65,
                    "time": 765.3125,
                    "velocity": 0.7952755905511811,
                    "duration": 0.3125
                },
                {
                    "name": "C4",
                    "midi": 60,
                    "time": 765.625,
                    "velocity": 0.5905511811023622,
                    "duration": 0.04036458333337123
                },
                {
                    "name": "E4",
                    "midi": 64,
                    "time": 765.625,
                    "velocity": 0.5905511811023622,
                    "duration": 0.04036458333337123
                },
                {
                    "name": "G4",
                    "midi": 67,
                    "time": 765.625,
                    "velocity": 0.5905511811023622,
                    "duration": 0.04036458333337123
                },
                {
                    "name": "A3",
                    "midi": 57,
                    "time": 765.83203125,
                    "velocity": 0.7952755905511811,
                    "duration": 0.20963541666662877
                },
                {
                    "name": "C4",
                    "midi": 60,
                    "time": 765.83203125,
                    "velocity": 0.7952755905511811,
                    "duration": 0.20963541666662877
                },
                {
                    "name": "E4",
                    "midi": 64,
                    "time": 765.83203125,
                    "velocity": 0.7952755905511811,
                    "duration": 0.20963541666662877
                },
                {
                    "name": "A#3",
                    "midi": 58,
                    "time": 766.0416666666666,
                    "velocity": 0.7952755905511811,
                    "duration": 0.20833333333337123
                },
                {
                    "name": "D4",
                    "midi": 62,
                    "time": 766.0416666666666,
                    "velocity": 0.7952755905511811,
                    "duration": 0.20833333333337123
                },
                {
                    "name": "F4",
                    "midi": 65,
                    "time": 766.0416666666666,
                    "velocity": 0.7952755905511811,
                    "duration": 0.20833333333337123
                },
                {
                    "name": "A3",
                    "midi": 57,
                    "time": 766.25,
                    "velocity": 0.7952755905511811,
                    "duration": 0.20703125
                },
                {
                    "name": "C4",
                    "midi": 60,
                    "time": 766.25,
                    "velocity": 0.7952755905511811,
                    "duration": 0.20703125
                },
                {
                    "name": "E4",
                    "midi": 64,
                    "time": 766.25,
                    "velocity": 0.7952755905511811,
                    "duration": 0.20703125
                },
                {
                    "name": "G3",
                    "midi": 55,
                    "time": 766.45703125,
                    "velocity": 0.7952755905511811,
                    "duration": 0.20963541666662877
                },
                {
                    "name": "A#3",
                    "midi": 58,
                    "time": 766.45703125,
                    "velocity": 0.7952755905511811,
                    "duration": 0.20963541666662877
                },
                {
                    "name": "D4",
                    "midi": 62,
                    "time": 766.45703125,
                    "velocity": 0.7952755905511811,
                    "duration": 0.20963541666662877
                },
                {
                    "name": "A#3",
                    "midi": 58,
                    "time": 766.6666666666666,
                    "velocity": 0.7952755905511811,
                    "duration": 0.20833333333337123
                },
                {
                    "name": "D4",
                    "midi": 62,
                    "time": 766.6666666666666,
                    "velocity": 0.7952755905511811,
                    "duration": 0.20833333333337123
                },
                {
                    "name": "F4",
                    "midi": 65,
                    "time": 766.6666666666666,
                    "velocity": 0.7952755905511811,
                    "duration": 0.20833333333337123
                },
                {
                    "name": "C4",
                    "midi": 60,
                    "time": 766.875,
                    "velocity": 0.7952755905511811,
                    "duration": 0.20703125
                },
                {
                    "name": "E4",
                    "midi": 64,
                    "time": 766.875,
                    "velocity": 0.7952755905511811,
                    "duration": 0.20703125
                },
                {
                    "name": "G4",
                    "midi": 67,
                    "time": 766.875,
                    "velocity": 0.7952755905511811,
                    "duration": 0.20703125
                },
                {
                    "name": "A3",
                    "midi": 57,
                    "time": 767.08203125,
                    "velocity": 0.7952755905511811,
                    "duration": 0.20963541666662877
                },
                {
                    "name": "C4",
                    "midi": 60,
                    "time": 767.08203125,
                    "velocity": 0.7952755905511811,
                    "duration": 0.20963541666662877
                },
                {
                    "name": "E4",
                    "midi": 64,
                    "time": 767.08203125,
                    "velocity": 0.7952755905511811,
                    "duration": 0.20963541666662877
                },
                {
                    "name": "A#3",
                    "midi": 58,
                    "time": 767.2916666666666,
                    "velocity": 0.7952755905511811,
                    "duration": 0.20833333333337123
                },
                {
                    "name": "D4",
                    "midi": 62,
                    "time": 767.2916666666666,
                    "velocity": 0.7952755905511811,
                    "duration": 0.20833333333337123
                },
                {
                    "name": "F4",
                    "midi": 65,
                    "time": 767.2916666666666,
                    "velocity": 0.7952755905511811,
                    "duration": 0.20833333333337123
                },
                {
                    "name": "A3",
                    "midi": 57,
                    "time": 767.5,
                    "velocity": 0.7952755905511811,
                    "duration": 0.15625
                },
                {
                    "name": "C4",
                    "midi": 60,
                    "time": 767.5,
                    "velocity": 0.7952755905511811,
                    "duration": 0.15625
                },
                {
                    "name": "E4",
                    "midi": 64,
                    "time": 767.5,
                    "velocity": 0.7952755905511811,
                    "duration": 0.15625
                },
                {
                    "name": "G3",
                    "midi": 55,
                    "time": 767.65625,
                    "velocity": 0.7952755905511811,
                    "duration": 0.15625
                },
                {
                    "name": "A#3",
                    "midi": 58,
                    "time": 767.65625,
                    "velocity": 0.7952755905511811,
                    "duration": 0.15625
                },
                {
                    "name": "D4",
                    "midi": 62,
                    "time": 767.65625,
                    "velocity": 0.7952755905511811,
                    "duration": 0.15625
                },
                {
                    "name": "A#3",
                    "midi": 58,
                    "time": 767.8125,
                    "velocity": 0.7952755905511811,
                    "duration": 0.15625
                },
                {
                    "name": "D4",
                    "midi": 62,
                    "time": 767.8125,
                    "velocity": 0.7952755905511811,
                    "duration": 0.15625
                },
                {
                    "name": "F4",
                    "midi": 65,
                    "time": 767.8125,
                    "velocity": 0.7952755905511811,
                    "duration": 0.15625
                },
                {
                    "name": "C4",
                    "midi": 60,
                    "time": 767.96875,
                    "velocity": 0.5905511811023622,
                    "duration": 0.15625
                },
                {
                    "name": "E4",
                    "midi": 64,
                    "time": 767.96875,
                    "velocity": 0.5905511811023622,
                    "duration": 0.15625
                },
                {
                    "name": "G4",
                    "midi": 67,
                    "time": 767.96875,
                    "velocity": 0.5905511811023622,
                    "duration": 0.15625
                },
                {
                    "name": "A3",
                    "midi": 57,
                    "time": 768.125,
                    "velocity": 0.7952755905511811,
                    "duration": 0.15625
                },
                {
                    "name": "C4",
                    "midi": 60,
                    "time": 768.125,
                    "velocity": 0.7952755905511811,
                    "duration": 0.15625
                },
                {
                    "name": "E4",
                    "midi": 64,
                    "time": 768.125,
                    "velocity": 0.7952755905511811,
                    "duration": 0.15625
                },
                {
                    "name": "A#3",
                    "midi": 58,
                    "time": 768.28125,
                    "velocity": 0.7952755905511811,
                    "duration": 0.15625
                },
                {
                    "name": "D4",
                    "midi": 62,
                    "time": 768.28125,
                    "velocity": 0.7952755905511811,
                    "duration": 0.15625
                },
                {
                    "name": "F4",
                    "midi": 65,
                    "time": 768.28125,
                    "velocity": 0.7952755905511811,
                    "duration": 0.15625
                },
                {
                    "name": "A3",
                    "midi": 57,
                    "time": 768.4375,
                    "velocity": 0.7952755905511811,
                    "duration": 0.15625
                },
                {
                    "name": "C4",
                    "midi": 60,
                    "time": 768.4375,
                    "velocity": 0.7952755905511811,
                    "duration": 0.15625
                },
                {
                    "name": "E4",
                    "midi": 64,
                    "time": 768.4375,
                    "velocity": 0.7952755905511811,
                    "duration": 0.15625
                },
                {
                    "name": "G3",
                    "midi": 55,
                    "time": 768.59375,
                    "velocity": 0.7952755905511811,
                    "duration": 0.15625
                },
                {
                    "name": "A#3",
                    "midi": 58,
                    "time": 768.59375,
                    "velocity": 0.7952755905511811,
                    "duration": 0.15625
                },
                {
                    "name": "D4",
                    "midi": 62,
                    "time": 768.59375,
                    "velocity": 0.7952755905511811,
                    "duration": 0.15625
                },
                {
                    "name": "A#3",
                    "midi": 58,
                    "time": 768.75,
                    "velocity": 0.7952755905511811,
                    "duration": 0.15625
                },
                {
                    "name": "D4",
                    "midi": 62,
                    "time": 768.75,
                    "velocity": 0.7952755905511811,
                    "duration": 0.15625
                },
                {
                    "name": "F4",
                    "midi": 65,
                    "time": 768.75,
                    "velocity": 0.7952755905511811,
                    "duration": 0.15625
                },
                {
                    "name": "C4",
                    "midi": 60,
                    "time": 768.90625,
                    "velocity": 0.5905511811023622,
                    "duration": 0.15625
                },
                {
                    "name": "E4",
                    "midi": 64,
                    "time": 768.90625,
                    "velocity": 0.5905511811023622,
                    "duration": 0.15625
                },
                {
                    "name": "G4",
                    "midi": 67,
                    "time": 768.90625,
                    "velocity": 0.5905511811023622,
                    "duration": 0.15625
                },
                {
                    "name": "A3",
                    "midi": 57,
                    "time": 769.0625,
                    "velocity": 0.7952755905511811,
                    "duration": 0.15625
                },
                {
                    "name": "C4",
                    "midi": 60,
                    "time": 769.0625,
                    "velocity": 0.7952755905511811,
                    "duration": 0.15625
                },
                {
                    "name": "E4",
                    "midi": 64,
                    "time": 769.0625,
                    "velocity": 0.7952755905511811,
                    "duration": 0.15625
                },
                {
                    "name": "A#3",
                    "midi": 58,
                    "time": 769.21875,
                    "velocity": 0.7952755905511811,
                    "duration": 0.15625
                },
                {
                    "name": "D4",
                    "midi": 62,
                    "time": 769.21875,
                    "velocity": 0.7952755905511811,
                    "duration": 0.15625
                },
                {
                    "name": "F4",
                    "midi": 65,
                    "time": 769.21875,
                    "velocity": 0.7952755905511811,
                    "duration": 0.15625
                },
                {
                    "name": "A3",
                    "midi": 57,
                    "time": 769.375,
                    "velocity": 0.7952755905511811,
                    "duration": 0.15625
                },
                {
                    "name": "C4",
                    "midi": 60,
                    "time": 769.375,
                    "velocity": 0.7952755905511811,
                    "duration": 0.15625
                },
                {
                    "name": "E4",
                    "midi": 64,
                    "time": 769.375,
                    "velocity": 0.7952755905511811,
                    "duration": 0.15625
                },
                {
                    "name": "G3",
                    "midi": 55,
                    "time": 769.53125,
                    "velocity": 0.7952755905511811,
                    "duration": 0.15625
                },
                {
                    "name": "A#3",
                    "midi": 58,
                    "time": 769.53125,
                    "velocity": 0.7952755905511811,
                    "duration": 0.15625
                },
                {
                    "name": "D4",
                    "midi": 62,
                    "time": 769.53125,
                    "velocity": 0.7952755905511811,
                    "duration": 0.15625
                },
                {
                    "name": "A#3",
                    "midi": 58,
                    "time": 769.6875,
                    "velocity": 0.7952755905511811,
                    "duration": 0.15625
                },
                {
                    "name": "D4",
                    "midi": 62,
                    "time": 769.6875,
                    "velocity": 0.7952755905511811,
                    "duration": 0.15625
                },
                {
                    "name": "F4",
                    "midi": 65,
                    "time": 769.6875,
                    "velocity": 0.7952755905511811,
                    "duration": 0.15625
                },
                {
                    "name": "C4",
                    "midi": 60,
                    "time": 769.84375,
                    "velocity": 0.5905511811023622,
                    "duration": 0.15625
                },
                {
                    "name": "E4",
                    "midi": 64,
                    "time": 769.84375,
                    "velocity": 0.5905511811023622,
                    "duration": 0.15625
                },
                {
                    "name": "G4",
                    "midi": 67,
                    "time": 769.84375,
                    "velocity": 0.5905511811023622,
                    "duration": 0.15625
                },
                {
                    "name": "C5",
                    "midi": 72,
                    "time": 770,
                    "velocity": 1,
                    "duration": 2.8125
                },
                {
                    "name": "F5",
                    "midi": 77,
                    "time": 770,
                    "velocity": 1,
                    "duration": 2.8125
                },
                {
                    "name": "A5",
                    "midi": 81,
                    "time": 770,
                    "velocity": 1,
                    "duration": 2.8125
                },
                {
                    "name": "C6",
                    "midi": 84,
                    "time": 770,
                    "velocity": 1,
                    "duration": 2.8125
                },
                {
                    "name": "D5",
                    "midi": 74,
                    "time": 772.8125,
                    "velocity": 0.7952755905511811,
                    "duration": 0.3125
                },
                {
                    "name": "F5",
                    "midi": 77,
                    "time": 772.8125,
                    "velocity": 0.7952755905511811,
                    "duration": 0.3125
                },
                {
                    "name": "A#5",
                    "midi": 82,
                    "time": 772.8125,
                    "velocity": 0.7952755905511811,
                    "duration": 0.3125
                },
                {
                    "name": "D6",
                    "midi": 86,
                    "time": 772.8125,
                    "velocity": 0.7952755905511811,
                    "duration": 0.3125
                },
                {
                    "name": "C5",
                    "midi": 72,
                    "time": 773.125,
                    "velocity": 0.7952755905511811,
                    "duration": 0.3125
                },
                {
                    "name": "D5",
                    "midi": 74,
                    "time": 773.125,
                    "velocity": 0.7952755905511811,
                    "duration": 0.3125
                },
                {
                    "name": "F5",
                    "midi": 77,
                    "time": 773.125,
                    "velocity": 0.7952755905511811,
                    "duration": 0.3125
                },
                {
                    "name": "C6",
                    "midi": 84,
                    "time": 773.125,
                    "velocity": 0.7952755905511811,
                    "duration": 0.3125
                },
                {
                    "name": "F4",
                    "midi": 65,
                    "time": 773.4375,
                    "velocity": 0.7952755905511811,
                    "duration": 0.3125
                },
                {
                    "name": "A#4",
                    "midi": 70,
                    "time": 773.4375,
                    "velocity": 0.7952755905511811,
                    "duration": 0.3125
                },
                {
                    "name": "D5",
                    "midi": 74,
                    "time": 773.4375,
                    "velocity": 0.7952755905511811,
                    "duration": 0.3125
                },
                {
                    "name": "F5",
                    "midi": 77,
                    "time": 773.4375,
                    "velocity": 0.7952755905511811,
                    "duration": 0.3125
                },
                {
                    "name": "G#4",
                    "midi": 68,
                    "time": 773.75,
                    "velocity": 0.7952755905511811,
                    "duration": 0.3125
                },
                {
                    "name": "A#4",
                    "midi": 70,
                    "time": 773.75,
                    "velocity": 0.7952755905511811,
                    "duration": 0.3125
                },
                {
                    "name": "D5",
                    "midi": 74,
                    "time": 773.75,
                    "velocity": 0.7952755905511811,
                    "duration": 0.3125
                },
                {
                    "name": "G#5",
                    "midi": 80,
                    "time": 773.75,
                    "velocity": 0.7952755905511811,
                    "duration": 0.3125
                },
                {
                    "name": "G4",
                    "midi": 67,
                    "time": 774.0625,
                    "velocity": 0.7952755905511811,
                    "duration": 0.3125
                },
                {
                    "name": "A#4",
                    "midi": 70,
                    "time": 774.0625,
                    "velocity": 0.7952755905511811,
                    "duration": 0.3125
                },
                {
                    "name": "D5",
                    "midi": 74,
                    "time": 774.0625,
                    "velocity": 0.7952755905511811,
                    "duration": 0.3125
                },
                {
                    "name": "G5",
                    "midi": 79,
                    "time": 774.0625,
                    "velocity": 0.7952755905511811,
                    "duration": 0.3125
                },
                {
                    "name": "F4",
                    "midi": 65,
                    "time": 774.375,
                    "velocity": 0.7952755905511811,
                    "duration": 0.3125
                },
                {
                    "name": "A#4",
                    "midi": 70,
                    "time": 774.375,
                    "velocity": 0.7952755905511811,
                    "duration": 0.3125
                },
                {
                    "name": "D5",
                    "midi": 74,
                    "time": 774.375,
                    "velocity": 0.7952755905511811,
                    "duration": 0.3125
                },
                {
                    "name": "F5",
                    "midi": 77,
                    "time": 774.375,
                    "velocity": 0.7952755905511811,
                    "duration": 0.3125
                },
                {
                    "name": "D4",
                    "midi": 62,
                    "time": 774.6875,
                    "velocity": 0.7952755905511811,
                    "duration": 0.3125
                },
                {
                    "name": "F4",
                    "midi": 65,
                    "time": 774.6875,
                    "velocity": 0.7952755905511811,
                    "duration": 0.3125
                },
                {
                    "name": "A#4",
                    "midi": 70,
                    "time": 774.6875,
                    "velocity": 0.7952755905511811,
                    "duration": 0.3125
                },
                {
                    "name": "D5",
                    "midi": 74,
                    "time": 774.6875,
                    "velocity": 0.7952755905511811,
                    "duration": 0.3125
                },
                {
                    "name": "C4",
                    "midi": 60,
                    "time": 775,
                    "velocity": 0.7952755905511811,
                    "duration": 5
                },
                {
                    "name": "E4",
                    "midi": 64,
                    "time": 775,
                    "velocity": 0.7952755905511811,
                    "duration": 5
                },
                {
                    "name": "A4",
                    "midi": 69,
                    "time": 775,
                    "velocity": 0.7952755905511811,
                    "duration": 5
                },
                {
                    "name": "C5",
                    "midi": 72,
                    "time": 775,
                    "velocity": 0.7952755905511811,
                    "duration": 5
                },
                {
                    "name": "C4",
                    "midi": 60,
                    "time": 780,
                    "velocity": 0.5905511811023622,
                    "duration": 1.25
                },
                {
                    "name": "F4",
                    "midi": 65,
                    "time": 780,
                    "velocity": 0.5905511811023622,
                    "duration": 1.25
                },
                {
                    "name": "A4",
                    "midi": 69,
                    "time": 780,
                    "velocity": 0.5905511811023622,
                    "duration": 1.25
                },
                {
                    "name": "C5",
                    "midi": 72,
                    "time": 780,
                    "velocity": 0.5905511811023622,
                    "duration": 1.25
                },
                {
                    "name": "C4",
                    "midi": 60,
                    "time": 783.125,
                    "velocity": 0.5905511811023622,
                    "duration": 0.06119791666662877
                },
                {
                    "name": "G4",
                    "midi": 67,
                    "time": 783.4375,
                    "velocity": 0.5905511811023622,
                    "duration": 0.06119791666662877
                },
                {
                    "name": "F4",
                    "midi": 65,
                    "time": 783.75,
                    "velocity": 0.5905511811023622,
                    "duration": 0.06119791666662877
                },
                {
                    "name": "D5",
                    "midi": 74,
                    "time": 784.0625,
                    "velocity": 0.5905511811023622,
                    "duration": 0.06119791666662877
                },
                {
                    "name": "C5",
                    "midi": 72,
                    "time": 784.375,
                    "velocity": 0.5905511811023622,
                    "duration": 0.06119791666662877
                },
                {
                    "name": "G5",
                    "midi": 79,
                    "time": 784.6875,
                    "velocity": 0.5905511811023622,
                    "duration": 0.06119791666662877
                },
                {
                    "name": "F5",
                    "midi": 77,
                    "time": 785,
                    "velocity": 0.5905511811023622,
                    "duration": 0.06119791666662877
                },
                {
                    "name": "D6",
                    "midi": 86,
                    "time": 785.3125,
                    "velocity": 0.5905511811023622,
                    "duration": 0.06119791666662877
                },
                {
                    "name": "C6",
                    "midi": 84,
                    "time": 785.625,
                    "velocity": 0.5905511811023622,
                    "duration": 0.06119791666662877
                },
                {
                    "name": "G6",
                    "midi": 91,
                    "time": 785.9375,
                    "velocity": 0.5905511811023622,
                    "duration": 0.06119791666662877
                },
                {
                    "name": "F6",
                    "midi": 89,
                    "time": 786.25,
                    "velocity": 0.5905511811023622,
                    "duration": 0.3125
                },
                {
                    "name": "D6",
                    "midi": 86,
                    "time": 786.5625,
                    "velocity": 0.5905511811023622,
                    "duration": 0.15625
                },
                {
                    "name": "C6",
                    "midi": 84,
                    "time": 786.71875,
                    "velocity": 0.5905511811023622,
                    "duration": 0.15625
                },
                {
                    "name": "G6",
                    "midi": 91,
                    "time": 786.875,
                    "velocity": 0.5905511811023622,
                    "duration": 0.15625
                },
                {
                    "name": "F6",
                    "midi": 89,
                    "time": 787.03125,
                    "velocity": 0.5905511811023622,
                    "duration": 0.15625
                },
                {
                    "name": "D7",
                    "midi": 98,
                    "time": 787.1875,
                    "velocity": 0.5905511811023622,
                    "duration": 0.15625
                },
                {
                    "name": "C7",
                    "midi": 96,
                    "time": 787.34375,
                    "velocity": 0.5905511811023622,
                    "duration": 0.15625
                },
                {
                    "name": "F7",
                    "midi": 101,
                    "time": 787.5,
                    "velocity": 0.5905511811023622,
                    "duration": 0.625
                },
                {
                    "name": "A4",
                    "midi": 69,
                    "time": 788.125,
                    "velocity": 0.7952755905511811,
                    "duration": 0.3125
                },
                {
                    "name": "C5",
                    "midi": 72,
                    "time": 788.125,
                    "velocity": 0.7952755905511811,
                    "duration": 0.3125
                },
                {
                    "name": "F5",
                    "midi": 77,
                    "time": 788.125,
                    "velocity": 0.7952755905511811,
                    "duration": 0.3125
                },
                {
                    "name": "A5",
                    "midi": 81,
                    "time": 788.125,
                    "velocity": 0.7952755905511811,
                    "duration": 0.3125
                },
                {
                    "name": "A4",
                    "midi": 69,
                    "time": 788.4375,
                    "velocity": 0.7952755905511811,
                    "duration": 0.3125
                },
                {
                    "name": "C5",
                    "midi": 72,
                    "time": 788.4375,
                    "velocity": 0.7952755905511811,
                    "duration": 0.3125
                },
                {
                    "name": "F5",
                    "midi": 77,
                    "time": 788.4375,
                    "velocity": 0.7952755905511811,
                    "duration": 0.3125
                },
                {
                    "name": "A5",
                    "midi": 81,
                    "time": 788.4375,
                    "velocity": 0.7952755905511811,
                    "duration": 0.3125
                },
                {
                    "name": "A4",
                    "midi": 69,
                    "time": 788.75,
                    "velocity": 0.7952755905511811,
                    "duration": 0.3125
                },
                {
                    "name": "C5",
                    "midi": 72,
                    "time": 788.75,
                    "velocity": 0.7952755905511811,
                    "duration": 0.3125
                },
                {
                    "name": "F5",
                    "midi": 77,
                    "time": 788.75,
                    "velocity": 0.7952755905511811,
                    "duration": 0.3125
                },
                {
                    "name": "A5",
                    "midi": 81,
                    "time": 788.75,
                    "velocity": 0.7952755905511811,
                    "duration": 0.3125
                },
                {
                    "name": "A4",
                    "midi": 69,
                    "time": 789.0625,
                    "velocity": 0.7952755905511811,
                    "duration": 0.3125
                },
                {
                    "name": "C5",
                    "midi": 72,
                    "time": 789.0625,
                    "velocity": 0.7952755905511811,
                    "duration": 0.3125
                },
                {
                    "name": "F5",
                    "midi": 77,
                    "time": 789.0625,
                    "velocity": 0.7952755905511811,
                    "duration": 0.3125
                },
                {
                    "name": "A5",
                    "midi": 81,
                    "time": 789.0625,
                    "velocity": 0.7952755905511811,
                    "duration": 0.3125
                },
                {
                    "name": "C5",
                    "midi": 72,
                    "time": 789.375,
                    "velocity": 0.7952755905511811,
                    "duration": 0.625
                },
                {
                    "name": "F5",
                    "midi": 77,
                    "time": 789.375,
                    "velocity": 0.7952755905511811,
                    "duration": 0.625
                },
                {
                    "name": "A5",
                    "midi": 81,
                    "time": 789.375,
                    "velocity": 0.7952755905511811,
                    "duration": 0.625
                },
                {
                    "name": "C6",
                    "midi": 84,
                    "time": 789.375,
                    "velocity": 0.7952755905511811,
                    "duration": 0.625
                },
                {
                    "name": "F5",
                    "midi": 77,
                    "time": 790,
                    "velocity": 0.7952755905511811,
                    "duration": 1.25
                },
                {
                    "name": "A5",
                    "midi": 81,
                    "time": 790,
                    "velocity": 0.7952755905511811,
                    "duration": 1.25
                },
                {
                    "name": "C6",
                    "midi": 84,
                    "time": 790,
                    "velocity": 0.7952755905511811,
                    "duration": 1.25
                },
                {
                    "name": "F6",
                    "midi": 89,
                    "time": 790,
                    "velocity": 0.7952755905511811,
                    "duration": 1.25
                }
            ],
            "controlChanges": {
                "7": [
                    {
                        "number": 7,
                        "time": 0,
                        "value": 1
                    }
                ],
                "10": [
                    {
                        "number": 10,
                        "time": 0,
                        "value": 0.7637795275590551
                    }
                ],
                "64": [
                    {
                        "number": 64,
                        "time": 40,
                        "value": 1
                    },
                    {
                        "number": 64,
                        "time": 40.9375,
                        "value": 0
                    },
                    {
                        "number": 64,
                        "time": 70,
                        "value": 1
                    },
                    {
                        "number": 64,
                        "time": 70.9375,
                        "value": 0
                    },
                    {
                        "number": 64,
                        "time": 71.25,
                        "value": 1
                    },
                    {
                        "number": 64,
                        "time": 72.1875,
                        "value": 0
                    },
                    {
                        "number": 64,
                        "time": 75.625,
                        "value": 1
                    },
                    {
                        "number": 64,
                        "time": 77.34375,
                        "value": 0
                    },
                    {
                        "number": 64,
                        "time": 87.5,
                        "value": 1
                    },
                    {
                        "number": 64,
                        "time": 90,
                        "value": 0
                    },
                    {
                        "number": 64,
                        "time": 91.25,
                        "value": 1
                    },
                    {
                        "number": 64,
                        "time": 92.5,
                        "value": 0
                    },
                    {
                        "number": 64,
                        "time": 95,
                        "value": 1
                    },
                    {
                        "number": 64,
                        "time": 95.9375,
                        "value": 0
                    },
                    {
                        "number": 64,
                        "time": 98.75,
                        "value": 1
                    },
                    {
                        "number": 64,
                        "time": 99.6875,
                        "value": 0
                    },
                    {
                        "number": 64,
                        "time": 101.25,
                        "value": 1
                    },
                    {
                        "number": 64,
                        "time": 102.1875,
                        "value": 0
                    },
                    {
                        "number": 64,
                        "time": 102.5,
                        "value": 1
                    },
                    {
                        "number": 64,
                        "time": 103.4375,
                        "value": 0
                    },
                    {
                        "number": 64,
                        "time": 103.75,
                        "value": 1
                    },
                    {
                        "number": 64,
                        "time": 104.6875,
                        "value": 0
                    },
                    {
                        "number": 64,
                        "time": 105.3125,
                        "value": 1
                    },
                    {
                        "number": 64,
                        "time": 105.78125,
                        "value": 0
                    },
                    {
                        "number": 64,
                        "time": 106.5625,
                        "value": 1
                    },
                    {
                        "number": 64,
                        "time": 107.03125,
                        "value": 0
                    },
                    {
                        "number": 64,
                        "time": 108.75,
                        "value": 1
                    },
                    {
                        "number": 64,
                        "time": 109.6875,
                        "value": 0
                    },
                    {
                        "number": 64,
                        "time": 111.25,
                        "value": 1
                    },
                    {
                        "number": 64,
                        "time": 112.1875,
                        "value": 0
                    },
                    {
                        "number": 64,
                        "time": 112.8125,
                        "value": 1
                    },
                    {
                        "number": 64,
                        "time": 113.28125,
                        "value": 0
                    },
                    {
                        "number": 64,
                        "time": 114.0625,
                        "value": 1
                    },
                    {
                        "number": 64,
                        "time": 114.53125,
                        "value": 0
                    },
                    {
                        "number": 64,
                        "time": 123.75,
                        "value": 1
                    },
                    {
                        "number": 64,
                        "time": 124.6875,
                        "value": 0
                    },
                    {
                        "number": 64,
                        "time": 142.5,
                        "value": 1
                    },
                    {
                        "number": 64,
                        "time": 143.125,
                        "value": 0
                    },
                    {
                        "number": 64,
                        "time": 143.90625,
                        "value": 1
                    },
                    {
                        "number": 64,
                        "time": 144.375,
                        "value": 0
                    },
                    {
                        "number": 64,
                        "time": 147.5,
                        "value": 1
                    },
                    {
                        "number": 64,
                        "time": 148.59375,
                        "value": 0
                    },
                    {
                        "number": 64,
                        "time": 303.75,
                        "value": 0
                    },
                    {
                        "number": 64,
                        "time": 307.5,
                        "value": 0
                    },
                    {
                        "number": 64,
                        "time": 461.25,
                        "value": 1
                    },
                    {
                        "number": 64,
                        "time": 463.4375,
                        "value": 0
                    },
                    {
                        "number": 64,
                        "time": 536.25,
                        "value": 1
                    },
                    {
                        "number": 64,
                        "time": 538.125,
                        "value": 0
                    },
                    {
                        "number": 64,
                        "time": 556.875,
                        "value": 1
                    },
                    {
                        "number": 64,
                        "time": 567.5,
                        "value": 1
                    },
                    {
                        "number": 64,
                        "time": 569.375,
                        "value": 0
                    },
                    {
                        "number": 64,
                        "time": 581.71875,
                        "value": 1
                    },
                    {
                        "number": 64,
                        "time": 583.59375,
                        "value": 0
                    },
                    {
                        "number": 64,
                        "time": 617.8125,
                        "value": 1
                    },
                    {
                        "number": 64,
                        "time": 618.64453125,
                        "value": 0
                    },
                    {
                        "number": 64,
                        "time": 618.75,
                        "value": 1
                    },
                    {
                        "number": 64,
                        "time": 620,
                        "value": 0
                    },
                    {
                        "number": 64,
                        "time": 623.75,
                        "value": 1
                    },
                    {
                        "number": 64,
                        "time": 627.5,
                        "value": 0
                    },
                    {
                        "number": 64,
                        "time": 634.375,
                        "value": 1
                    },
                    {
                        "number": 64,
                        "time": 634.84375,
                        "value": 0
                    },
                    {
                        "number": 64,
                        "time": 635,
                        "value": 1
                    },
                    {
                        "number": 64,
                        "time": 635.625,
                        "value": 0
                    },
                    {
                        "number": 64,
                        "time": 642.1875,
                        "value": 1
                    },
                    {
                        "number": 64,
                        "time": 642.5,
                        "value": 0
                    },
                    {
                        "number": 64,
                        "time": 644.6875,
                        "value": 1
                    },
                    {
                        "number": 64,
                        "time": 644.921875,
                        "value": 0
                    },
                    {
                        "number": 64,
                        "time": 645,
                        "value": 1
                    },
                    {
                        "number": 64,
                        "time": 645.46875,
                        "value": 0
                    },
                    {
                        "number": 64,
                        "time": 648.90625,
                        "value": 1
                    },
                    {
                        "number": 64,
                        "time": 649.375,
                        "value": 0
                    },
                    {
                        "number": 64,
                        "time": 650.15625,
                        "value": 1
                    },
                    {
                        "number": 64,
                        "time": 650.625,
                        "value": 0
                    },
                    {
                        "number": 64,
                        "time": 665.625,
                        "value": 1
                    },
                    {
                        "number": 64,
                        "time": 666.09375,
                        "value": 0
                    },
                    {
                        "number": 64,
                        "time": 666.25,
                        "value": 1
                    },
                    {
                        "number": 64,
                        "time": 666.71875,
                        "value": 0
                    },
                    {
                        "number": 64,
                        "time": 672.8125,
                        "value": 1
                    },
                    {
                        "number": 64,
                        "time": 673.59375,
                        "value": 0
                    },
                    {
                        "number": 64,
                        "time": 685,
                        "value": 1
                    },
                    {
                        "number": 64,
                        "time": 685.625,
                        "value": 0
                    },
                    {
                        "number": 64,
                        "time": 686.25,
                        "value": 1
                    },
                    {
                        "number": 64,
                        "time": 686.875,
                        "value": 0
                    },
                    {
                        "number": 64,
                        "time": 687.5,
                        "value": 1
                    },
                    {
                        "number": 64,
                        "time": 688.125,
                        "value": 0
                    },
                    {
                        "number": 64,
                        "time": 688.75,
                        "value": 1
                    },
                    {
                        "number": 64,
                        "time": 689.375,
                        "value": 0
                    },
                    {
                        "number": 64,
                        "time": 690,
                        "value": 1
                    },
                    {
                        "number": 64,
                        "time": 690.625,
                        "value": 0
                    },
                    {
                        "number": 64,
                        "time": 691.25,
                        "value": 1
                    },
                    {
                        "number": 64,
                        "time": 691.875,
                        "value": 0
                    },
                    {
                        "number": 64,
                        "time": 692.5,
                        "value": 1
                    },
                    {
                        "number": 64,
                        "time": 693.125,
                        "value": 0
                    },
                    {
                        "number": 64,
                        "time": 693.75,
                        "value": 1
                    },
                    {
                        "number": 64,
                        "time": 694.375,
                        "value": 0
                    },
                    {
                        "number": 64,
                        "time": 695,
                        "value": 1
                    },
                    {
                        "number": 64,
                        "time": 695.625,
                        "value": 0
                    },
                    {
                        "number": 64,
                        "time": 696.25,
                        "value": 1
                    },
                    {
                        "number": 64,
                        "time": 696.875,
                        "value": 0
                    },
                    {
                        "number": 64,
                        "time": 697.5,
                        "value": 1
                    },
                    {
                        "number": 64,
                        "time": 698.125,
                        "value": 0
                    },
                    {
                        "number": 64,
                        "time": 707.5,
                        "value": 1
                    },
                    {
                        "number": 64,
                        "time": 708.671875,
                        "value": 0
                    },
                    {
                        "number": 64,
                        "time": 708.75,
                        "value": 1
                    },
                    {
                        "number": 64,
                        "time": 709.921875,
                        "value": 0
                    },
                    {
                        "number": 64,
                        "time": 710,
                        "value": 1
                    },
                    {
                        "number": 64,
                        "time": 711.171875,
                        "value": 0
                    },
                    {
                        "number": 64,
                        "time": 711.25,
                        "value": 1
                    },
                    {
                        "number": 64,
                        "time": 712.421875,
                        "value": 0
                    },
                    {
                        "number": 64,
                        "time": 719.6875,
                        "value": 1
                    },
                    {
                        "number": 64,
                        "time": 719.921875,
                        "value": 0
                    },
                    {
                        "number": 64,
                        "time": 722.1875,
                        "value": 1
                    },
                    {
                        "number": 64,
                        "time": 722.421875,
                        "value": 0
                    },
                    {
                        "number": 64,
                        "time": 741.25,
                        "value": 1
                    },
                    {
                        "number": 64,
                        "time": 745.625,
                        "value": 0
                    },
                    {
                        "number": 64,
                        "time": 790,
                        "value": 1
                    },
                    {
                        "number": 64,
                        "time": 794.375,
                        "value": 0
                    },
                    {
                        "number": 64,
                        "time": 795,
                        "value": 1
                    },
                    {
                        "number": 64,
                        "time": 798.125,
                        "value": 0
                    }
                ]
            },
            "id": 1,
            "name": "Grand Piano",
            "instrumentNumber": 0,
            "instrument": "acoustic grand piano",
            "instrumentFamily": "piano",
            "channelNumber": 0,
            "isPercussion": false
        },
        {
            "startTime": 0,
            "duration": 791.25,
            "length": 2236,
            "notes": [
                {
                    "name": "A#1",
                    "midi": 34,
                    "time": 0,
                    "velocity": 0.7952755905511811,
                    "duration": 0.061197916666666664
                },
                {
                    "name": "A#2",
                    "midi": 46,
                    "time": 0,
                    "velocity": 0.7952755905511811,
                    "duration": 0.061197916666666664
                },
                {
                    "name": "G1",
                    "midi": 31,
                    "time": 1.25,
                    "velocity": 0.7952755905511811,
                    "duration": 0.06119791666666674
                },
                {
                    "name": "G2",
                    "midi": 43,
                    "time": 1.25,
                    "velocity": 0.7952755905511811,
                    "duration": 0.06119791666666674
                },
                {
                    "name": "C2",
                    "midi": 36,
                    "time": 2.5,
                    "velocity": 0.5905511811023622,
                    "duration": 0.3125
                },
                {
                    "name": "D2",
                    "midi": 38,
                    "time": 3.125,
                    "velocity": 0.5905511811023622,
                    "duration": 0.3125
                },
                {
                    "name": "D#2",
                    "midi": 39,
                    "time": 3.75,
                    "velocity": 0.5905511811023622,
                    "duration": 0.3125
                },
                {
                    "name": "F2",
                    "midi": 41,
                    "time": 4.375,
                    "velocity": 0.5905511811023622,
                    "duration": 0.3125
                },
                {
                    "name": "A#1",
                    "midi": 34,
                    "time": 5,
                    "velocity": 0.7952755905511811,
                    "duration": 0.06119791666666696
                },
                {
                    "name": "A#2",
                    "midi": 46,
                    "time": 5,
                    "velocity": 0.7952755905511811,
                    "duration": 0.06119791666666696
                },
                {
                    "name": "G1",
                    "midi": 31,
                    "time": 6.25,
                    "velocity": 0.7952755905511811,
                    "duration": 0.06119791666666696
                },
                {
                    "name": "G2",
                    "midi": 43,
                    "time": 6.25,
                    "velocity": 0.7952755905511811,
                    "duration": 0.06119791666666696
                },
                {
                    "name": "C2",
                    "midi": 36,
                    "time": 7.5,
                    "velocity": 0.5905511811023622,
                    "duration": 0.3125
                },
                {
                    "name": "D2",
                    "midi": 38,
                    "time": 8.125,
                    "velocity": 0.5905511811023622,
                    "duration": 0.3125
                },
                {
                    "name": "D#2",
                    "midi": 39,
                    "time": 8.75,
                    "velocity": 0.5905511811023622,
                    "duration": 0.3125
                },
                {
                    "name": "F2",
                    "midi": 41,
                    "time": 9.375,
                    "velocity": 0.5905511811023622,
                    "duration": 0.3125
                },
                {
                    "name": "A#1",
                    "midi": 34,
                    "time": 10,
                    "velocity": 0.4881889763779528,
                    "duration": 0.061197916666666075
                },
                {
                    "name": "A#2",
                    "midi": 46,
                    "time": 10,
                    "velocity": 0.4881889763779528,
                    "duration": 0.061197916666666075
                },
                {
                    "name": "G1",
                    "midi": 31,
                    "time": 11.25,
                    "velocity": 0.5905511811023622,
                    "duration": 0.061197916666666075
                },
                {
                    "name": "G2",
                    "midi": 43,
                    "time": 11.25,
                    "velocity": 0.5905511811023622,
                    "duration": 0.061197916666666075
                },
                {
                    "name": "C2",
                    "midi": 36,
                    "time": 12.5,
                    "velocity": 0.5905511811023622,
                    "duration": 0.3125
                },
                {
                    "name": "D2",
                    "midi": 38,
                    "time": 13.125,
                    "velocity": 0.4881889763779528,
                    "duration": 0.3125
                },
                {
                    "name": "D#2",
                    "midi": 39,
                    "time": 13.75,
                    "velocity": 0.4881889763779528,
                    "duration": 0.3125
                },
                {
                    "name": "F2",
                    "midi": 41,
                    "time": 14.375,
                    "velocity": 0.4881889763779528,
                    "duration": 0.3125
                },
                {
                    "name": "A#1",
                    "midi": 34,
                    "time": 15,
                    "velocity": 0.6929133858267716,
                    "duration": 0.061197916666666075
                },
                {
                    "name": "A#2",
                    "midi": 46,
                    "time": 15,
                    "velocity": 0.6929133858267716,
                    "duration": 0.061197916666666075
                },
                {
                    "name": "G1",
                    "midi": 31,
                    "time": 16.25,
                    "velocity": 0.7952755905511811,
                    "duration": 0.06119791666666785
                },
                {
                    "name": "G2",
                    "midi": 43,
                    "time": 16.25,
                    "velocity": 0.7952755905511811,
                    "duration": 0.06119791666666785
                },
                {
                    "name": "C2",
                    "midi": 36,
                    "time": 17.5,
                    "velocity": 0.5905511811023622,
                    "duration": 0.3125
                },
                {
                    "name": "D2",
                    "midi": 38,
                    "time": 18.125,
                    "velocity": 0.4881889763779528,
                    "duration": 0.3125
                },
                {
                    "name": "D#2",
                    "midi": 39,
                    "time": 18.75,
                    "velocity": 0.4881889763779528,
                    "duration": 0.3125
                },
                {
                    "name": "F2",
                    "midi": 41,
                    "time": 19.375,
                    "velocity": 0.4881889763779528,
                    "duration": 0.3125
                },
                {
                    "name": "A#1",
                    "midi": 34,
                    "time": 20,
                    "velocity": 0.6929133858267716,
                    "duration": 0.06119791666666785
                },
                {
                    "name": "A#2",
                    "midi": 46,
                    "time": 20,
                    "velocity": 0.6929133858267716,
                    "duration": 0.06119791666666785
                },
                {
                    "name": "G1",
                    "midi": 31,
                    "time": 21.25,
                    "velocity": 0.7952755905511811,
                    "duration": 0.06119791666666785
                },
                {
                    "name": "G2",
                    "midi": 43,
                    "time": 21.25,
                    "velocity": 0.7952755905511811,
                    "duration": 0.06119791666666785
                },
                {
                    "name": "C2",
                    "midi": 36,
                    "time": 22.5,
                    "velocity": 0.5905511811023622,
                    "duration": 0.3125
                },
                {
                    "name": "D2",
                    "midi": 38,
                    "time": 23.125,
                    "velocity": 0.4881889763779528,
                    "duration": 0.3125
                },
                {
                    "name": "D#2",
                    "midi": 39,
                    "time": 23.75,
                    "velocity": 0.4881889763779528,
                    "duration": 0.3125
                },
                {
                    "name": "F2",
                    "midi": 41,
                    "time": 24.375,
                    "velocity": 0.4881889763779528,
                    "duration": 0.3125
                },
                {
                    "name": "A#2",
                    "midi": 46,
                    "time": 25,
                    "velocity": 0.4881889763779528,
                    "duration": 0.625
                },
                {
                    "name": "F3",
                    "midi": 53,
                    "time": 25,
                    "velocity": 0.4881889763779528,
                    "duration": 0.625
                },
                {
                    "name": "G2",
                    "midi": 43,
                    "time": 25.625,
                    "velocity": 0.4881889763779528,
                    "duration": 0.625
                },
                {
                    "name": "D3",
                    "midi": 50,
                    "time": 25.625,
                    "velocity": 0.4881889763779528,
                    "duration": 0.625
                },
                {
                    "name": "D#2",
                    "midi": 39,
                    "time": 26.25,
                    "velocity": 0.4881889763779528,
                    "duration": 0.625
                },
                {
                    "name": "A#2",
                    "midi": 46,
                    "time": 26.25,
                    "velocity": 0.4881889763779528,
                    "duration": 0.625
                },
                {
                    "name": "G2",
                    "midi": 43,
                    "time": 26.875,
                    "velocity": 0.4881889763779528,
                    "duration": 0.625
                },
                {
                    "name": "D3",
                    "midi": 50,
                    "time": 26.875,
                    "velocity": 0.4881889763779528,
                    "duration": 0.625
                },
                {
                    "name": "A#2",
                    "midi": 46,
                    "time": 27.5,
                    "velocity": 0.4881889763779528,
                    "duration": 0.625
                },
                {
                    "name": "F3",
                    "midi": 53,
                    "time": 27.5,
                    "velocity": 0.4881889763779528,
                    "duration": 0.625
                },
                {
                    "name": "G#2",
                    "midi": 44,
                    "time": 28.125,
                    "velocity": 0.4881889763779528,
                    "duration": 0.625
                },
                {
                    "name": "D#3",
                    "midi": 51,
                    "time": 28.125,
                    "velocity": 0.4881889763779528,
                    "duration": 0.625
                },
                {
                    "name": "G2",
                    "midi": 43,
                    "time": 28.75,
                    "velocity": 0.4881889763779528,
                    "duration": 0.625
                },
                {
                    "name": "D3",
                    "midi": 50,
                    "time": 28.75,
                    "velocity": 0.4881889763779528,
                    "duration": 0.625
                },
                {
                    "name": "F2",
                    "midi": 41,
                    "time": 29.375,
                    "velocity": 0.4881889763779528,
                    "duration": 0.625
                },
                {
                    "name": "C3",
                    "midi": 48,
                    "time": 29.375,
                    "velocity": 0.4881889763779528,
                    "duration": 0.625
                },
                {
                    "name": "G3",
                    "midi": 55,
                    "time": 30,
                    "velocity": 0.4881889763779528,
                    "duration": 0.78125
                },
                {
                    "name": "G#3",
                    "midi": 56,
                    "time": 30.78125,
                    "velocity": 0.4881889763779528,
                    "duration": 0.15625
                },
                {
                    "name": "A3",
                    "midi": 57,
                    "time": 30.9375,
                    "velocity": 0.4881889763779528,
                    "duration": 0.15625
                },
                {
                    "name": "C4",
                    "midi": 60,
                    "time": 31.09375,
                    "velocity": 0.4881889763779528,
                    "duration": 0.15625
                },
                {
                    "name": "A#3",
                    "midi": 58,
                    "time": 31.25,
                    "velocity": 0.4881889763779528,
                    "duration": 1.25
                },
                {
                    "name": "F3",
                    "midi": 53,
                    "time": 32.5,
                    "velocity": 0.4881889763779528,
                    "duration": 0.625
                },
                {
                    "name": "F#3",
                    "midi": 54,
                    "time": 33.125,
                    "velocity": 0.4881889763779528,
                    "duration": 0.625
                },
                {
                    "name": "G3",
                    "midi": 55,
                    "time": 33.75,
                    "velocity": 0.4881889763779528,
                    "duration": 0.625
                },
                {
                    "name": "F3",
                    "midi": 53,
                    "time": 34.375,
                    "velocity": 0.4881889763779528,
                    "duration": 0.625
                },
                {
                    "name": "F3",
                    "midi": 53,
                    "time": 35,
                    "velocity": 0.4881889763779528,
                    "duration": 0.3125
                },
                {
                    "name": "A#2",
                    "midi": 46,
                    "time": 35.3125,
                    "velocity": 0.4881889763779528,
                    "duration": 0.3125
                },
                {
                    "name": "D3",
                    "midi": 50,
                    "time": 35.625,
                    "velocity": 0.4881889763779528,
                    "duration": 0.3125
                },
                {
                    "name": "F3",
                    "midi": 53,
                    "time": 35.9375,
                    "velocity": 0.4881889763779528,
                    "duration": 0.3125
                },
                {
                    "name": "G#3",
                    "midi": 56,
                    "time": 36.25,
                    "velocity": 0.4881889763779528,
                    "duration": 0.3125
                },
                {
                    "name": "G3",
                    "midi": 55,
                    "time": 36.5625,
                    "velocity": 0.4881889763779528,
                    "duration": 0.3125
                },
                {
                    "name": "F3",
                    "midi": 53,
                    "time": 36.875,
                    "velocity": 0.4881889763779528,
                    "duration": 0.3125
                },
                {
                    "name": "D#3",
                    "midi": 51,
                    "time": 37.1875,
                    "velocity": 0.4881889763779528,
                    "duration": 0.3125
                },
                {
                    "name": "F3",
                    "midi": 53,
                    "time": 37.5,
                    "velocity": 0.4881889763779528,
                    "duration": 1.875
                },
                {
                    "name": "A#2",
                    "midi": 46,
                    "time": 39.375,
                    "velocity": 0.4881889763779528,
                    "duration": 0.625
                },
                {
                    "name": "D#2",
                    "midi": 39,
                    "time": 40,
                    "velocity": 0.4881889763779528,
                    "duration": 1.25
                },
                {
                    "name": "A#2",
                    "midi": 46,
                    "time": 40,
                    "velocity": 0.4881889763779528,
                    "duration": 1.25
                },
                {
                    "name": "D2",
                    "midi": 38,
                    "time": 41.25,
                    "velocity": 0.4881889763779528,
                    "duration": 0.625
                },
                {
                    "name": "C2",
                    "midi": 36,
                    "time": 41.875,
                    "velocity": 0.4881889763779528,
                    "duration": 0.625
                },
                {
                    "name": "A#1",
                    "midi": 34,
                    "time": 42.5,
                    "velocity": 0.4881889763779528,
                    "duration": 1.25
                },
                {
                    "name": "A#2",
                    "midi": 46,
                    "time": 42.5,
                    "velocity": 0.4881889763779528,
                    "duration": 1.25
                },
                {
                    "name": "F3",
                    "midi": 53,
                    "time": 42.5,
                    "velocity": 0.4881889763779528,
                    "duration": 1.25
                },
                {
                    "name": "F4",
                    "midi": 65,
                    "time": 42.5,
                    "velocity": 0.4881889763779528,
                    "duration": 1.25
                },
                {
                    "name": "G#1",
                    "midi": 32,
                    "time": 43.75,
                    "velocity": 0.4881889763779528,
                    "duration": 1.25
                },
                {
                    "name": "G#2",
                    "midi": 44,
                    "time": 43.75,
                    "velocity": 0.4881889763779528,
                    "duration": 1.25
                },
                {
                    "name": "F3",
                    "midi": 53,
                    "time": 43.75,
                    "velocity": 0.4881889763779528,
                    "duration": 1.25
                },
                {
                    "name": "F4",
                    "midi": 65,
                    "time": 43.75,
                    "velocity": 0.4881889763779528,
                    "duration": 1.25
                },
                {
                    "name": "G1",
                    "midi": 31,
                    "time": 45,
                    "velocity": 0.4881889763779528,
                    "duration": 1.25
                },
                {
                    "name": "G2",
                    "midi": 43,
                    "time": 45,
                    "velocity": 0.4881889763779528,
                    "duration": 1.25
                },
                {
                    "name": "E3",
                    "midi": 52,
                    "time": 45,
                    "velocity": 0.4881889763779528,
                    "duration": 1.25
                },
                {
                    "name": "E4",
                    "midi": 64,
                    "time": 45,
                    "velocity": 0.4881889763779528,
                    "duration": 1.25
                },
                {
                    "name": "F#1",
                    "midi": 30,
                    "time": 46.25,
                    "velocity": 0.4881889763779528,
                    "duration": 1.25
                },
                {
                    "name": "F#2",
                    "midi": 42,
                    "time": 46.25,
                    "velocity": 0.4881889763779528,
                    "duration": 1.25
                },
                {
                    "name": "D#3",
                    "midi": 51,
                    "time": 46.25,
                    "velocity": 0.4881889763779528,
                    "duration": 1.25
                },
                {
                    "name": "D#4",
                    "midi": 63,
                    "time": 46.25,
                    "velocity": 0.4881889763779528,
                    "duration": 1.25
                },
                {
                    "name": "F1",
                    "midi": 29,
                    "time": 47.5,
                    "velocity": 0.4881889763779528,
                    "duration": 1.875
                },
                {
                    "name": "F2",
                    "midi": 41,
                    "time": 47.5,
                    "velocity": 0.4881889763779528,
                    "duration": 1.875
                },
                {
                    "name": "D3",
                    "midi": 50,
                    "time": 47.5,
                    "velocity": 0.4881889763779528,
                    "duration": 1.875
                },
                {
                    "name": "A#3",
                    "midi": 58,
                    "time": 47.5,
                    "velocity": 0.4881889763779528,
                    "duration": 1.875
                },
                {
                    "name": "D4",
                    "midi": 62,
                    "time": 47.5,
                    "velocity": 0.4881889763779528,
                    "duration": 1.875
                },
                {
                    "name": "B1",
                    "midi": 35,
                    "time": 49.375,
                    "velocity": 0.4881889763779528,
                    "duration": 0.625
                },
                {
                    "name": "D#3",
                    "midi": 51,
                    "time": 49.375,
                    "velocity": 0.4881889763779528,
                    "duration": 0.625
                },
                {
                    "name": "D#4",
                    "midi": 63,
                    "time": 49.375,
                    "velocity": 0.4881889763779528,
                    "duration": 0.625
                },
                {
                    "name": "C#3",
                    "midi": 49,
                    "time": 50.3125,
                    "velocity": 0.4881889763779528,
                    "duration": 0.625
                },
                {
                    "name": "G3",
                    "midi": 55,
                    "time": 50.3125,
                    "velocity": 0.4881889763779528,
                    "duration": 0.625
                },
                {
                    "name": "B3",
                    "midi": 59,
                    "time": 50.3125,
                    "velocity": 0.4881889763779528,
                    "duration": 0.625
                },
                {
                    "name": "B2",
                    "midi": 47,
                    "time": 50.9375,
                    "velocity": 0.4881889763779528,
                    "duration": 0.3125
                },
                {
                    "name": "F#3",
                    "midi": 54,
                    "time": 50.9375,
                    "velocity": 0.4881889763779528,
                    "duration": 0.3125
                },
                {
                    "name": "D#4",
                    "midi": 63,
                    "time": 50.9375,
                    "velocity": 0.4881889763779528,
                    "duration": 0.3125
                },
                {
                    "name": "E3",
                    "midi": 52,
                    "time": 51.25,
                    "velocity": 0.4881889763779528,
                    "duration": 0.625
                },
                {
                    "name": "B3",
                    "midi": 59,
                    "time": 51.25,
                    "velocity": 0.4881889763779528,
                    "duration": 0.625
                },
                {
                    "name": "D4",
                    "midi": 62,
                    "time": 51.25,
                    "velocity": 0.4881889763779528,
                    "duration": 0.625
                },
                {
                    "name": "D3",
                    "midi": 50,
                    "time": 51.875,
                    "velocity": 0.4881889763779528,
                    "duration": 0.3125
                },
                {
                    "name": "G#3",
                    "midi": 56,
                    "time": 51.875,
                    "velocity": 0.4881889763779528,
                    "duration": 0.3125
                },
                {
                    "name": "G4",
                    "midi": 67,
                    "time": 51.875,
                    "velocity": 0.4881889763779528,
                    "duration": 0.3125
                },
                {
                    "name": "G3",
                    "midi": 55,
                    "time": 52.1875,
                    "velocity": 0.4881889763779528,
                    "duration": 0.625
                },
                {
                    "name": "C#4",
                    "midi": 61,
                    "time": 52.1875,
                    "velocity": 0.4881889763779528,
                    "duration": 0.625
                },
                {
                    "name": "F4",
                    "midi": 65,
                    "time": 52.1875,
                    "velocity": 0.4881889763779528,
                    "duration": 0.625
                },
                {
                    "name": "F3",
                    "midi": 53,
                    "time": 52.8125,
                    "velocity": 0.4881889763779528,
                    "duration": 0.3125
                },
                {
                    "name": "C4",
                    "midi": 60,
                    "time": 52.8125,
                    "velocity": 0.4881889763779528,
                    "duration": 0.3125
                },
                {
                    "name": "A4",
                    "midi": 69,
                    "time": 52.8125,
                    "velocity": 0.4881889763779528,
                    "duration": 0.3125
                },
                {
                    "name": "A#3",
                    "midi": 58,
                    "time": 53.125,
                    "velocity": 0.4881889763779528,
                    "duration": 0.625
                },
                {
                    "name": "E4",
                    "midi": 64,
                    "time": 53.125,
                    "velocity": 0.4881889763779528,
                    "duration": 0.625
                },
                {
                    "name": "G#4",
                    "midi": 68,
                    "time": 53.125,
                    "velocity": 0.4881889763779528,
                    "duration": 0.625
                },
                {
                    "name": "G#3",
                    "midi": 56,
                    "time": 53.75,
                    "velocity": 0.4881889763779528,
                    "duration": 0.625
                },
                {
                    "name": "D#4",
                    "midi": 63,
                    "time": 53.75,
                    "velocity": 0.4881889763779528,
                    "duration": 0.625
                },
                {
                    "name": "A3",
                    "midi": 57,
                    "time": 54.375,
                    "velocity": 0.4881889763779528,
                    "duration": 0.625
                },
                {
                    "name": "A#1",
                    "midi": 34,
                    "time": 55,
                    "velocity": 0.5905511811023622,
                    "duration": 0.3125
                },
                {
                    "name": "A#2",
                    "midi": 46,
                    "time": 55,
                    "velocity": 0.5905511811023622,
                    "duration": 0.3125
                },
                {
                    "name": "F3",
                    "midi": 53,
                    "time": 55,
                    "velocity": 0.5905511811023622,
                    "duration": 0.3125
                },
                {
                    "name": "G3",
                    "midi": 55,
                    "time": 55.3125,
                    "velocity": 0.5905511811023622,
                    "duration": 0.625
                },
                {
                    "name": "G#3",
                    "midi": 56,
                    "time": 55.9375,
                    "velocity": 0.5905511811023622,
                    "duration": 0.3125
                },
                {
                    "name": "G1",
                    "midi": 31,
                    "time": 56.25,
                    "velocity": 0.5905511811023622,
                    "duration": 0.3125
                },
                {
                    "name": "G2",
                    "midi": 43,
                    "time": 56.25,
                    "velocity": 0.5905511811023622,
                    "duration": 0.3125
                },
                {
                    "name": "A#3",
                    "midi": 58,
                    "time": 56.25,
                    "velocity": 0.5905511811023622,
                    "duration": 0.3125
                },
                {
                    "name": "G#3",
                    "midi": 56,
                    "time": 56.5625,
                    "velocity": 0.5905511811023622,
                    "duration": 0.3125
                },
                {
                    "name": "G3",
                    "midi": 55,
                    "time": 56.875,
                    "velocity": 0.5905511811023622,
                    "duration": 0.3125
                },
                {
                    "name": "F3",
                    "midi": 53,
                    "time": 57.1875,
                    "velocity": 0.5905511811023622,
                    "duration": 0.3125
                },
                {
                    "name": "D3",
                    "midi": 50,
                    "time": 57.5,
                    "velocity": 0.5905511811023622,
                    "duration": 0.3125
                },
                {
                    "name": "D#3",
                    "midi": 51,
                    "time": 57.8125,
                    "velocity": 0.5905511811023622,
                    "duration": 0.625
                },
                {
                    "name": "F3",
                    "midi": 53,
                    "time": 58.4375,
                    "velocity": 0.5905511811023622,
                    "duration": 0.3125
                },
                {
                    "name": "F#3",
                    "midi": 54,
                    "time": 58.75,
                    "velocity": 0.5905511811023622,
                    "duration": 0.3125
                },
                {
                    "name": "G3",
                    "midi": 55,
                    "time": 59.0625,
                    "velocity": 0.5905511811023622,
                    "duration": 0.3125
                },
                {
                    "name": "C#3",
                    "midi": 49,
                    "time": 59.375,
                    "velocity": 0.5905511811023622,
                    "duration": 0.3125
                },
                {
                    "name": "D3",
                    "midi": 50,
                    "time": 59.6875,
                    "velocity": 0.5905511811023622,
                    "duration": 0.3125
                },
                {
                    "name": "A#1",
                    "midi": 34,
                    "time": 60,
                    "velocity": 0.5905511811023622,
                    "duration": 0.3125
                },
                {
                    "name": "A#2",
                    "midi": 46,
                    "time": 60,
                    "velocity": 0.5905511811023622,
                    "duration": 0.3125
                },
                {
                    "name": "D#3",
                    "midi": 51,
                    "time": 60,
                    "velocity": 0.5905511811023622,
                    "duration": 0.3125
                },
                {
                    "name": "D3",
                    "midi": 50,
                    "time": 60.3125,
                    "velocity": 0.5905511811023622,
                    "duration": 0.3125
                },
                {
                    "name": "F3",
                    "midi": 53,
                    "time": 60.625,
                    "velocity": 0.5905511811023622,
                    "duration": 0.3125
                },
                {
                    "name": "D3",
                    "midi": 50,
                    "time": 60.9375,
                    "velocity": 0.5905511811023622,
                    "duration": 0.3125
                },
                {
                    "name": "G1",
                    "midi": 31,
                    "time": 61.25,
                    "velocity": 0.5905511811023622,
                    "duration": 0.3125
                },
                {
                    "name": "G2",
                    "midi": 43,
                    "time": 61.25,
                    "velocity": 0.5905511811023622,
                    "duration": 0.3125
                },
                {
                    "name": "C3",
                    "midi": 48,
                    "time": 61.25,
                    "velocity": 0.5905511811023622,
                    "duration": 0.3125
                },
                {
                    "name": "B2",
                    "midi": 47,
                    "time": 61.5625,
                    "velocity": 0.5905511811023622,
                    "duration": 0.3125
                },
                {
                    "name": "D#3",
                    "midi": 51,
                    "time": 61.875,
                    "velocity": 0.5905511811023622,
                    "duration": 0.3125
                },
                {
                    "name": "B2",
                    "midi": 47,
                    "time": 62.1875,
                    "velocity": 0.5905511811023622,
                    "duration": 0.3125
                },
                {
                    "name": "C2",
                    "midi": 36,
                    "time": 62.5,
                    "velocity": 0.4881889763779528,
                    "duration": 0.3125
                },
                {
                    "name": "D2",
                    "midi": 38,
                    "time": 63.125,
                    "velocity": 0.4881889763779528,
                    "duration": 0.3125
                },
                {
                    "name": "D#2",
                    "midi": 39,
                    "time": 63.75,
                    "velocity": 0.4881889763779528,
                    "duration": 0.3125
                },
                {
                    "name": "F2",
                    "midi": 41,
                    "time": 64.375,
                    "velocity": 0.4881889763779528,
                    "duration": 0.3125
                },
                {
                    "name": "A#1",
                    "midi": 34,
                    "time": 65,
                    "velocity": 0.5905511811023622,
                    "duration": 0.3125
                },
                {
                    "name": "A#2",
                    "midi": 46,
                    "time": 65,
                    "velocity": 0.5905511811023622,
                    "duration": 0.3125
                },
                {
                    "name": "F3",
                    "midi": 53,
                    "time": 65,
                    "velocity": 0.5905511811023622,
                    "duration": 0.3125
                },
                {
                    "name": "G3",
                    "midi": 55,
                    "time": 65.3125,
                    "velocity": 0.5905511811023622,
                    "duration": 0.625
                },
                {
                    "name": "G#3",
                    "midi": 56,
                    "time": 65.9375,
                    "velocity": 0.5905511811023622,
                    "duration": 0.3125
                },
                {
                    "name": "G1",
                    "midi": 31,
                    "time": 66.25,
                    "velocity": 0.5905511811023622,
                    "duration": 0.3125
                },
                {
                    "name": "G2",
                    "midi": 43,
                    "time": 66.25,
                    "velocity": 0.5905511811023622,
                    "duration": 0.3125
                },
                {
                    "name": "A#3",
                    "midi": 58,
                    "time": 66.25,
                    "velocity": 0.5905511811023622,
                    "duration": 0.3125
                },
                {
                    "name": "G#3",
                    "midi": 56,
                    "time": 66.5625,
                    "velocity": 0.5905511811023622,
                    "duration": 0.3125
                },
                {
                    "name": "G3",
                    "midi": 55,
                    "time": 66.875,
                    "velocity": 0.5905511811023622,
                    "duration": 0.3125
                },
                {
                    "name": "F3",
                    "midi": 53,
                    "time": 67.1875,
                    "velocity": 0.5905511811023622,
                    "duration": 0.3125
                },
                {
                    "name": "D3",
                    "midi": 50,
                    "time": 67.5,
                    "velocity": 0.5905511811023622,
                    "duration": 0.3125
                },
                {
                    "name": "D#3",
                    "midi": 51,
                    "time": 67.8125,
                    "velocity": 0.5905511811023622,
                    "duration": 0.625
                },
                {
                    "name": "F3",
                    "midi": 53,
                    "time": 68.4375,
                    "velocity": 0.5905511811023622,
                    "duration": 0.3125
                },
                {
                    "name": "F#3",
                    "midi": 54,
                    "time": 68.75,
                    "velocity": 0.5905511811023622,
                    "duration": 0.3125
                },
                {
                    "name": "G3",
                    "midi": 55,
                    "time": 69.0625,
                    "velocity": 0.5905511811023622,
                    "duration": 0.3125
                },
                {
                    "name": "C#3",
                    "midi": 49,
                    "time": 69.375,
                    "velocity": 0.5905511811023622,
                    "duration": 0.3125
                },
                {
                    "name": "D3",
                    "midi": 50,
                    "time": 69.6875,
                    "velocity": 0.5905511811023622,
                    "duration": 0.3125
                },
                {
                    "name": "A#2",
                    "midi": 46,
                    "time": 70,
                    "velocity": 0.5905511811023622,
                    "duration": 0.625
                },
                {
                    "name": "F3",
                    "midi": 53,
                    "time": 70,
                    "velocity": 0.5905511811023622,
                    "duration": 0.625
                },
                {
                    "name": "G2",
                    "midi": 43,
                    "time": 70.625,
                    "velocity": 0.4881889763779528,
                    "duration": 0.625
                },
                {
                    "name": "D3",
                    "midi": 50,
                    "time": 70.625,
                    "velocity": 0.4881889763779528,
                    "duration": 0.625
                },
                {
                    "name": "D#2",
                    "midi": 39,
                    "time": 71.25,
                    "velocity": 0.4881889763779528,
                    "duration": 0.625
                },
                {
                    "name": "A#2",
                    "midi": 46,
                    "time": 71.25,
                    "velocity": 0.4881889763779528,
                    "duration": 0.625
                },
                {
                    "name": "C2",
                    "midi": 36,
                    "time": 71.875,
                    "velocity": 0.4881889763779528,
                    "duration": 0.3125
                },
                {
                    "name": "G2",
                    "midi": 43,
                    "time": 71.875,
                    "velocity": 0.4881889763779528,
                    "duration": 0.3125
                },
                {
                    "name": "F2",
                    "midi": 41,
                    "time": 72.1875,
                    "velocity": 0.4881889763779528,
                    "duration": 0.3125
                },
                {
                    "name": "A#1",
                    "midi": 34,
                    "time": 72.5,
                    "velocity": 0.4881889763779528,
                    "duration": 0.625
                },
                {
                    "name": "F2",
                    "midi": 41,
                    "time": 72.5,
                    "velocity": 0.4881889763779528,
                    "duration": 0.625
                },
                {
                    "name": "A#2",
                    "midi": 46,
                    "time": 72.5,
                    "velocity": 0.4881889763779528,
                    "duration": 0.625
                },
                {
                    "name": "G#2",
                    "midi": 44,
                    "time": 73.125,
                    "velocity": 0.4881889763779528,
                    "duration": 0.625
                },
                {
                    "name": "D#3",
                    "midi": 51,
                    "time": 73.125,
                    "velocity": 0.4881889763779528,
                    "duration": 0.625
                },
                {
                    "name": "G2",
                    "midi": 43,
                    "time": 73.75,
                    "velocity": 0.4881889763779528,
                    "duration": 0.625
                },
                {
                    "name": "D3",
                    "midi": 50,
                    "time": 73.75,
                    "velocity": 0.4881889763779528,
                    "duration": 0.625
                },
                {
                    "name": "F2",
                    "midi": 41,
                    "time": 74.375,
                    "velocity": 0.4881889763779528,
                    "duration": 0.625
                },
                {
                    "name": "C3",
                    "midi": 48,
                    "time": 74.375,
                    "velocity": 0.4881889763779528,
                    "duration": 0.625
                },
                {
                    "name": "D#2",
                    "midi": 39,
                    "time": 75,
                    "velocity": 0.4881889763779528,
                    "duration": 0.625
                },
                {
                    "name": "A#2",
                    "midi": 46,
                    "time": 75,
                    "velocity": 0.4881889763779528,
                    "duration": 0.625
                },
                {
                    "name": "A#3",
                    "midi": 58,
                    "time": 75.625,
                    "velocity": 0.4881889763779528,
                    "duration": 0.625
                },
                {
                    "name": "D#4",
                    "midi": 63,
                    "time": 75.625,
                    "velocity": 0.4881889763779528,
                    "duration": 0.625
                },
                {
                    "name": "G4",
                    "midi": 67,
                    "time": 75.625,
                    "velocity": 0.4881889763779528,
                    "duration": 0.625
                },
                {
                    "name": "C2",
                    "midi": 36,
                    "time": 76.25,
                    "velocity": 0.4881889763779528,
                    "duration": 0.625
                },
                {
                    "name": "A#3",
                    "midi": 58,
                    "time": 76.25,
                    "velocity": 0.4881889763779528,
                    "duration": 0.625
                },
                {
                    "name": "C4",
                    "midi": 60,
                    "time": 76.875,
                    "velocity": 0.4881889763779528,
                    "duration": 0.625
                },
                {
                    "name": "G4",
                    "midi": 67,
                    "time": 76.875,
                    "velocity": 0.4881889763779528,
                    "duration": 0.625
                },
                {
                    "name": "A#4",
                    "midi": 70,
                    "time": 76.875,
                    "velocity": 0.4881889763779528,
                    "duration": 0.625
                },
                {
                    "name": "F2",
                    "midi": 41,
                    "time": 77.5,
                    "velocity": 0.4881889763779528,
                    "duration": 0.625
                },
                {
                    "name": "A#3",
                    "midi": 58,
                    "time": 77.5,
                    "velocity": 0.4881889763779528,
                    "duration": 1.25
                },
                {
                    "name": "D4",
                    "midi": 62,
                    "time": 77.5,
                    "velocity": 0.4881889763779528,
                    "duration": 1.25
                },
                {
                    "name": "F2",
                    "midi": 41,
                    "time": 78.125,
                    "velocity": 0.4881889763779528,
                    "duration": 0.625
                },
                {
                    "name": "F2",
                    "midi": 41,
                    "time": 78.75,
                    "velocity": 0.4881889763779528,
                    "duration": 0.625
                },
                {
                    "name": "A#3",
                    "midi": 58,
                    "time": 78.75,
                    "velocity": 0.4881889763779528,
                    "duration": 0.625
                },
                {
                    "name": "E4",
                    "midi": 64,
                    "time": 78.75,
                    "velocity": 0.4881889763779528,
                    "duration": 0.625
                },
                {
                    "name": "F2",
                    "midi": 41,
                    "time": 79.375,
                    "velocity": 0.4881889763779528,
                    "duration": 0.625
                },
                {
                    "name": "C4",
                    "midi": 60,
                    "time": 79.375,
                    "velocity": 0.4881889763779528,
                    "duration": 0.625
                },
                {
                    "name": "D#4",
                    "midi": 63,
                    "time": 79.375,
                    "velocity": 0.4881889763779528,
                    "duration": 0.625
                },
                {
                    "name": "A#2",
                    "midi": 46,
                    "time": 80,
                    "velocity": 0.4881889763779528,
                    "duration": 0.3125
                },
                {
                    "name": "F3",
                    "midi": 53,
                    "time": 80,
                    "velocity": 0.4881889763779528,
                    "duration": 0.3125
                },
                {
                    "name": "A#2",
                    "midi": 46,
                    "time": 80.3125,
                    "velocity": 0.4881889763779528,
                    "duration": 0.3125
                },
                {
                    "name": "D3",
                    "midi": 50,
                    "time": 80.625,
                    "velocity": 0.4881889763779528,
                    "duration": 0.3125
                },
                {
                    "name": "F3",
                    "midi": 53,
                    "time": 80.9375,
                    "velocity": 0.4881889763779528,
                    "duration": 0.3125
                },
                {
                    "name": "D#2",
                    "midi": 39,
                    "time": 81.25,
                    "velocity": 0.4881889763779528,
                    "duration": 0.625
                },
                {
                    "name": "A#2",
                    "midi": 46,
                    "time": 81.25,
                    "velocity": 0.4881889763779528,
                    "duration": 0.625
                },
                {
                    "name": "A#3",
                    "midi": 58,
                    "time": 81.25,
                    "velocity": 0.4881889763779528,
                    "duration": 0.625
                },
                {
                    "name": "D#4",
                    "midi": 63,
                    "time": 81.25,
                    "velocity": 0.4881889763779528,
                    "duration": 0.625
                },
                {
                    "name": "F2",
                    "midi": 41,
                    "time": 81.875,
                    "velocity": 0.4881889763779528,
                    "duration": 0.625
                },
                {
                    "name": "A3",
                    "midi": 57,
                    "time": 81.875,
                    "velocity": 0.4881889763779528,
                    "duration": 0.625
                },
                {
                    "name": "F4",
                    "midi": 65,
                    "time": 82.5,
                    "velocity": 0.4881889763779528,
                    "duration": 0.3125
                },
                {
                    "name": "A4",
                    "midi": 69,
                    "time": 82.5,
                    "velocity": 0.4881889763779528,
                    "duration": 0.3125
                },
                {
                    "name": "D#4",
                    "midi": 63,
                    "time": 82.8125,
                    "velocity": 0.4881889763779528,
                    "duration": 0.3125
                },
                {
                    "name": "G4",
                    "midi": 67,
                    "time": 82.8125,
                    "velocity": 0.4881889763779528,
                    "duration": 0.3125
                },
                {
                    "name": "G4",
                    "midi": 67,
                    "time": 83.125,
                    "velocity": 0.4881889763779528,
                    "duration": 0.3125
                },
                {
                    "name": "A#4",
                    "midi": 70,
                    "time": 83.125,
                    "velocity": 0.4881889763779528,
                    "duration": 0.3125
                },
                {
                    "name": "F4",
                    "midi": 65,
                    "time": 83.4375,
                    "velocity": 0.4881889763779528,
                    "duration": 0.3125
                },
                {
                    "name": "A4",
                    "midi": 69,
                    "time": 83.4375,
                    "velocity": 0.4881889763779528,
                    "duration": 0.3125
                },
                {
                    "name": "A4",
                    "midi": 69,
                    "time": 83.75,
                    "velocity": 0.4881889763779528,
                    "duration": 0.3125
                },
                {
                    "name": "C5",
                    "midi": 72,
                    "time": 83.75,
                    "velocity": 0.4881889763779528,
                    "duration": 0.3125
                },
                {
                    "name": "G4",
                    "midi": 67,
                    "time": 84.0625,
                    "velocity": 0.4881889763779528,
                    "duration": 0.625
                },
                {
                    "name": "A#4",
                    "midi": 70,
                    "time": 84.0625,
                    "velocity": 0.4881889763779528,
                    "duration": 0.625
                },
                {
                    "name": "A#4",
                    "midi": 70,
                    "time": 84.6875,
                    "velocity": 0.4881889763779528,
                    "duration": 0.3125
                },
                {
                    "name": "D5",
                    "midi": 74,
                    "time": 84.6875,
                    "velocity": 0.4881889763779528,
                    "duration": 0.3125
                },
                {
                    "name": "A4",
                    "midi": 69,
                    "time": 85,
                    "velocity": 0.4881889763779528,
                    "duration": 0.3125
                },
                {
                    "name": "C5",
                    "midi": 72,
                    "time": 85,
                    "velocity": 0.4881889763779528,
                    "duration": 0.3125
                },
                {
                    "name": "C5",
                    "midi": 72,
                    "time": 85.3125,
                    "velocity": 0.4881889763779528,
                    "duration": 0.3125
                },
                {
                    "name": "D#5",
                    "midi": 75,
                    "time": 85.3125,
                    "velocity": 0.4881889763779528,
                    "duration": 0.3125
                },
                {
                    "name": "A#4",
                    "midi": 70,
                    "time": 85.625,
                    "velocity": 0.4881889763779528,
                    "duration": 0.3125
                },
                {
                    "name": "D5",
                    "midi": 74,
                    "time": 85.625,
                    "velocity": 0.4881889763779528,
                    "duration": 0.3125
                },
                {
                    "name": "D5",
                    "midi": 74,
                    "time": 85.9375,
                    "velocity": 0.4881889763779528,
                    "duration": 0.3125
                },
                {
                    "name": "F5",
                    "midi": 77,
                    "time": 85.9375,
                    "velocity": 0.4881889763779528,
                    "duration": 0.3125
                },
                {
                    "name": "C5",
                    "midi": 72,
                    "time": 86.25,
                    "velocity": 0.4881889763779528,
                    "duration": 0.3125
                },
                {
                    "name": "D#5",
                    "midi": 75,
                    "time": 86.25,
                    "velocity": 0.4881889763779528,
                    "duration": 0.3125
                },
                {
                    "name": "D#5",
                    "midi": 75,
                    "time": 86.5625,
                    "velocity": 0.4881889763779528,
                    "duration": 0.625
                },
                {
                    "name": "G5",
                    "midi": 79,
                    "time": 86.5625,
                    "velocity": 0.4881889763779528,
                    "duration": 0.625
                },
                {
                    "name": "D5",
                    "midi": 74,
                    "time": 87.1875,
                    "velocity": 0.4881889763779528,
                    "duration": 0.3125
                },
                {
                    "name": "F#5",
                    "midi": 78,
                    "time": 87.1875,
                    "velocity": 0.4881889763779528,
                    "duration": 0.3125
                },
                {
                    "name": "D5",
                    "midi": 74,
                    "time": 87.5,
                    "velocity": 0.3858267716535433,
                    "duration": 0.3125
                },
                {
                    "name": "G5",
                    "midi": 79,
                    "time": 87.5,
                    "velocity": 0.3858267716535433,
                    "duration": 0.3125
                },
                {
                    "name": "A#5",
                    "midi": 82,
                    "time": 87.5,
                    "velocity": 0.3858267716535433,
                    "duration": 0.3125
                },
                {
                    "name": "A#6",
                    "midi": 94,
                    "time": 87.5,
                    "velocity": 0.3858267716535433,
                    "duration": 0.3125
                },
                {
                    "name": "G1",
                    "midi": 31,
                    "time": 97.5,
                    "velocity": 0.4881889763779528,
                    "duration": 1.25
                },
                {
                    "name": "G2",
                    "midi": 43,
                    "time": 97.5,
                    "velocity": 0.4881889763779528,
                    "duration": 1.25
                },
                {
                    "name": "E1",
                    "midi": 28,
                    "time": 98.75,
                    "velocity": 0.4881889763779528,
                    "duration": 1.25
                },
                {
                    "name": "E2",
                    "midi": 40,
                    "time": 98.75,
                    "velocity": 0.4881889763779528,
                    "duration": 1.25
                },
                {
                    "name": "A1",
                    "midi": 33,
                    "time": 100,
                    "velocity": 0.4881889763779528,
                    "duration": 0.625
                },
                {
                    "name": "B1",
                    "midi": 35,
                    "time": 100.625,
                    "velocity": 0.4881889763779528,
                    "duration": 0.625
                },
                {
                    "name": "C2",
                    "midi": 36,
                    "time": 101.25,
                    "velocity": 0.4881889763779528,
                    "duration": 0.625
                },
                {
                    "name": "D2",
                    "midi": 38,
                    "time": 101.875,
                    "velocity": 0.4881889763779528,
                    "duration": 0.625
                },
                {
                    "name": "G2",
                    "midi": 43,
                    "time": 102.5,
                    "velocity": 0.4881889763779528,
                    "duration": 1.25
                },
                {
                    "name": "E2",
                    "midi": 40,
                    "time": 103.75,
                    "velocity": 0.4881889763779528,
                    "duration": 1.25
                },
                {
                    "name": "D#2",
                    "midi": 39,
                    "time": 105,
                    "velocity": 0.4881889763779528,
                    "duration": 0.625
                },
                {
                    "name": "G3",
                    "midi": 55,
                    "time": 105,
                    "velocity": 0.4881889763779528,
                    "duration": 0.625
                },
                {
                    "name": "C#4",
                    "midi": 61,
                    "time": 105,
                    "velocity": 0.4881889763779528,
                    "duration": 0.625
                },
                {
                    "name": "D2",
                    "midi": 38,
                    "time": 105.625,
                    "velocity": 0.4881889763779528,
                    "duration": 0.625
                },
                {
                    "name": "F#3",
                    "midi": 54,
                    "time": 105.625,
                    "velocity": 0.4881889763779528,
                    "duration": 0.625
                },
                {
                    "name": "C4",
                    "midi": 60,
                    "time": 105.625,
                    "velocity": 0.4881889763779528,
                    "duration": 0.625
                },
                {
                    "name": "E4",
                    "midi": 64,
                    "time": 105.625,
                    "velocity": 0.4881889763779528,
                    "duration": 0.625
                },
                {
                    "name": "C#2",
                    "midi": 37,
                    "time": 106.25,
                    "velocity": 0.4881889763779528,
                    "duration": 0.625
                },
                {
                    "name": "F3",
                    "midi": 53,
                    "time": 106.25,
                    "velocity": 0.4881889763779528,
                    "duration": 0.625
                },
                {
                    "name": "B3",
                    "midi": 59,
                    "time": 106.25,
                    "velocity": 0.4881889763779528,
                    "duration": 0.625
                },
                {
                    "name": "C2",
                    "midi": 36,
                    "time": 106.875,
                    "velocity": 0.4881889763779528,
                    "duration": 0.625
                },
                {
                    "name": "E3",
                    "midi": 52,
                    "time": 106.875,
                    "velocity": 0.4881889763779528,
                    "duration": 0.625
                },
                {
                    "name": "A#3",
                    "midi": 58,
                    "time": 106.875,
                    "velocity": 0.4881889763779528,
                    "duration": 0.625
                },
                {
                    "name": "D4",
                    "midi": 62,
                    "time": 106.875,
                    "velocity": 0.4881889763779528,
                    "duration": 0.625
                },
                {
                    "name": "G1",
                    "midi": 31,
                    "time": 107.5,
                    "velocity": 0.4881889763779528,
                    "duration": 1.25
                },
                {
                    "name": "G2",
                    "midi": 43,
                    "time": 107.5,
                    "velocity": 0.4881889763779528,
                    "duration": 1.25
                },
                {
                    "name": "E1",
                    "midi": 28,
                    "time": 108.75,
                    "velocity": 0.4881889763779528,
                    "duration": 1.25
                },
                {
                    "name": "E2",
                    "midi": 40,
                    "time": 108.75,
                    "velocity": 0.4881889763779528,
                    "duration": 1.25
                },
                {
                    "name": "A1",
                    "midi": 33,
                    "time": 110,
                    "velocity": 0.4881889763779528,
                    "duration": 0.625
                },
                {
                    "name": "B1",
                    "midi": 35,
                    "time": 110.625,
                    "velocity": 0.4881889763779528,
                    "duration": 0.625
                },
                {
                    "name": "C2",
                    "midi": 36,
                    "time": 111.25,
                    "velocity": 0.4881889763779528,
                    "duration": 0.625
                },
                {
                    "name": "D2",
                    "midi": 38,
                    "time": 111.875,
                    "velocity": 0.4881889763779528,
                    "duration": 0.625
                },
                {
                    "name": "G2",
                    "midi": 43,
                    "time": 112.5,
                    "velocity": 0.3858267716535433,
                    "duration": 0.3125
                },
                {
                    "name": "D3",
                    "midi": 50,
                    "time": 112.5,
                    "velocity": 0.3858267716535433,
                    "duration": 0.3125
                },
                {
                    "name": "A3",
                    "midi": 57,
                    "time": 112.5,
                    "velocity": 0.3858267716535433,
                    "duration": 0.3125
                },
                {
                    "name": "D4",
                    "midi": 62,
                    "time": 112.5,
                    "velocity": 0.3858267716535433,
                    "duration": 0.3125
                },
                {
                    "name": "G4",
                    "midi": 67,
                    "time": 112.5,
                    "velocity": 0.3858267716535433,
                    "duration": 0.3125
                },
                {
                    "name": "G3",
                    "midi": 55,
                    "time": 112.8125,
                    "velocity": 0.4881889763779528,
                    "duration": 0.3125
                },
                {
                    "name": "E2",
                    "midi": 40,
                    "time": 113.125,
                    "velocity": 0.3858267716535433,
                    "duration": 0.3125
                },
                {
                    "name": "B2",
                    "midi": 47,
                    "time": 113.125,
                    "velocity": 0.3858267716535433,
                    "duration": 0.3125
                },
                {
                    "name": "F#3",
                    "midi": 54,
                    "time": 113.125,
                    "velocity": 0.3858267716535433,
                    "duration": 0.3125
                },
                {
                    "name": "B3",
                    "midi": 59,
                    "time": 113.125,
                    "velocity": 0.3858267716535433,
                    "duration": 0.3125
                },
                {
                    "name": "E4",
                    "midi": 64,
                    "time": 113.125,
                    "velocity": 0.3858267716535433,
                    "duration": 0.3125
                },
                {
                    "name": "E3",
                    "midi": 52,
                    "time": 113.4375,
                    "velocity": 0.4881889763779528,
                    "duration": 0.3125
                },
                {
                    "name": "C2",
                    "midi": 36,
                    "time": 113.75,
                    "velocity": 0.3858267716535433,
                    "duration": 0.3125
                },
                {
                    "name": "G2",
                    "midi": 43,
                    "time": 113.75,
                    "velocity": 0.3858267716535433,
                    "duration": 0.3125
                },
                {
                    "name": "D3",
                    "midi": 50,
                    "time": 113.75,
                    "velocity": 0.3858267716535433,
                    "duration": 0.3125
                },
                {
                    "name": "G3",
                    "midi": 55,
                    "time": 113.75,
                    "velocity": 0.3858267716535433,
                    "duration": 0.3125
                },
                {
                    "name": "C4",
                    "midi": 60,
                    "time": 113.75,
                    "velocity": 0.3858267716535433,
                    "duration": 0.3125
                },
                {
                    "name": "C3",
                    "midi": 48,
                    "time": 114.0625,
                    "velocity": 0.4881889763779528,
                    "duration": 0.3125
                },
                {
                    "name": "A1",
                    "midi": 33,
                    "time": 114.375,
                    "velocity": 0.3858267716535433,
                    "duration": 0.3125
                },
                {
                    "name": "E2",
                    "midi": 40,
                    "time": 114.375,
                    "velocity": 0.3858267716535433,
                    "duration": 0.3125
                },
                {
                    "name": "B2",
                    "midi": 47,
                    "time": 114.375,
                    "velocity": 0.3858267716535433,
                    "duration": 0.3125
                },
                {
                    "name": "E3",
                    "midi": 52,
                    "time": 114.375,
                    "velocity": 0.3858267716535433,
                    "duration": 0.3125
                },
                {
                    "name": "A3",
                    "midi": 57,
                    "time": 114.375,
                    "velocity": 0.3858267716535433,
                    "duration": 0.3125
                },
                {
                    "name": "A2",
                    "midi": 45,
                    "time": 114.6875,
                    "velocity": 0.4881889763779528,
                    "duration": 0.3125
                },
                {
                    "name": "G1",
                    "midi": 31,
                    "time": 115,
                    "velocity": 0.4881889763779528,
                    "duration": 0.625
                },
                {
                    "name": "G2",
                    "midi": 43,
                    "time": 115,
                    "velocity": 0.4881889763779528,
                    "duration": 0.625
                },
                {
                    "name": "F2",
                    "midi": 41,
                    "time": 115.625,
                    "velocity": 0.5905511811023622,
                    "duration": 0.625
                },
                {
                    "name": "F3",
                    "midi": 53,
                    "time": 115.625,
                    "velocity": 0.5905511811023622,
                    "duration": 0.625
                },
                {
                    "name": "E2",
                    "midi": 40,
                    "time": 116.25,
                    "velocity": 0.5905511811023622,
                    "duration": 0.625
                },
                {
                    "name": "E3",
                    "midi": 52,
                    "time": 116.25,
                    "velocity": 0.5905511811023622,
                    "duration": 0.625
                },
                {
                    "name": "D2",
                    "midi": 38,
                    "time": 116.875,
                    "velocity": 0.5905511811023622,
                    "duration": 0.625
                },
                {
                    "name": "D3",
                    "midi": 50,
                    "time": 116.875,
                    "velocity": 0.5905511811023622,
                    "duration": 0.625
                },
                {
                    "name": "E3",
                    "midi": 52,
                    "time": 117.5,
                    "velocity": 0.4881889763779528,
                    "duration": 0.78125
                },
                {
                    "name": "F3",
                    "midi": 53,
                    "time": 118.28125,
                    "velocity": 0.4881889763779528,
                    "duration": 0.15625
                },
                {
                    "name": "F#3",
                    "midi": 54,
                    "time": 118.4375,
                    "velocity": 0.4881889763779528,
                    "duration": 0.15625
                },
                {
                    "name": "A3",
                    "midi": 57,
                    "time": 118.59375,
                    "velocity": 0.4881889763779528,
                    "duration": 0.15625
                },
                {
                    "name": "G3",
                    "midi": 55,
                    "time": 118.75,
                    "velocity": 0.4881889763779528,
                    "duration": 0.15625
                },
                {
                    "name": "A3",
                    "midi": 57,
                    "time": 118.90625,
                    "velocity": 0.4881889763779528,
                    "duration": 0.15625
                },
                {
                    "name": "B3",
                    "midi": 59,
                    "time": 119.0625,
                    "velocity": 0.4881889763779528,
                    "duration": 0.15625
                },
                {
                    "name": "D4",
                    "midi": 62,
                    "time": 119.21875,
                    "velocity": 0.4881889763779528,
                    "duration": 0.15625
                },
                {
                    "name": "C4",
                    "midi": 60,
                    "time": 119.375,
                    "velocity": 0.4881889763779528,
                    "duration": 0.15625
                },
                {
                    "name": "D4",
                    "midi": 62,
                    "time": 119.53125,
                    "velocity": 0.4881889763779528,
                    "duration": 0.15625
                },
                {
                    "name": "D#4",
                    "midi": 63,
                    "time": 119.6875,
                    "velocity": 0.4881889763779528,
                    "duration": 0.15625
                },
                {
                    "name": "A4",
                    "midi": 69,
                    "time": 119.84375,
                    "velocity": 0.4881889763779528,
                    "duration": 0.15625
                },
                {
                    "name": "B3",
                    "midi": 59,
                    "time": 120,
                    "velocity": 0.4881889763779528,
                    "duration": 0.625
                },
                {
                    "name": "G4",
                    "midi": 67,
                    "time": 120,
                    "velocity": 0.4881889763779528,
                    "duration": 0.625
                },
                {
                    "name": "B4",
                    "midi": 71,
                    "time": 120,
                    "velocity": 0.4881889763779528,
                    "duration": 0.625
                },
                {
                    "name": "G2",
                    "midi": 43,
                    "time": 122.5,
                    "velocity": 0.4881889763779528,
                    "duration": 1.25
                },
                {
                    "name": "C2",
                    "midi": 36,
                    "time": 123.75,
                    "velocity": 0.4881889763779528,
                    "duration": 0.625
                },
                {
                    "name": "D2",
                    "midi": 38,
                    "time": 124.375,
                    "velocity": 0.4881889763779528,
                    "duration": 0.625
                },
                {
                    "name": "G2",
                    "midi": 43,
                    "time": 125,
                    "velocity": 0.4881889763779528,
                    "duration": 1.25
                },
                {
                    "name": "D3",
                    "midi": 50,
                    "time": 125,
                    "velocity": 0.4881889763779528,
                    "duration": 1.25
                },
                {
                    "name": "E2",
                    "midi": 40,
                    "time": 126.25,
                    "velocity": 0.4881889763779528,
                    "duration": 0.625
                },
                {
                    "name": "B2",
                    "midi": 47,
                    "time": 126.25,
                    "velocity": 0.4881889763779528,
                    "duration": 0.625
                },
                {
                    "name": "G3",
                    "midi": 55,
                    "time": 126.25,
                    "velocity": 0.4881889763779528,
                    "duration": 0.625
                },
                {
                    "name": "A2",
                    "midi": 45,
                    "time": 126.875,
                    "velocity": 0.4881889763779528,
                    "duration": 0.625
                },
                {
                    "name": "C#3",
                    "midi": 49,
                    "time": 126.875,
                    "velocity": 0.4881889763779528,
                    "duration": 0.625
                },
                {
                    "name": "G3",
                    "midi": 55,
                    "time": 126.875,
                    "velocity": 0.4881889763779528,
                    "duration": 0.625
                },
                {
                    "name": "F#2",
                    "midi": 42,
                    "time": 127.5,
                    "velocity": 0.4881889763779528,
                    "duration": 1.25
                },
                {
                    "name": "D3",
                    "midi": 50,
                    "time": 127.5,
                    "velocity": 0.4881889763779528,
                    "duration": 0.625
                },
                {
                    "name": "C3",
                    "midi": 48,
                    "time": 128.125,
                    "velocity": 0.4881889763779528,
                    "duration": 0.625
                },
                {
                    "name": "G2",
                    "midi": 43,
                    "time": 128.75,
                    "velocity": 0.4881889763779528,
                    "duration": 1.25
                },
                {
                    "name": "E3",
                    "midi": 52,
                    "time": 128.75,
                    "velocity": 0.4881889763779528,
                    "duration": 0.625
                },
                {
                    "name": "D3",
                    "midi": 50,
                    "time": 129.375,
                    "velocity": 0.4881889763779528,
                    "duration": 0.625
                },
                {
                    "name": "A2",
                    "midi": 45,
                    "time": 130,
                    "velocity": 0.4881889763779528,
                    "duration": 1.25
                },
                {
                    "name": "D3",
                    "midi": 50,
                    "time": 130,
                    "velocity": 0.4881889763779528,
                    "duration": 1.25
                },
                {
                    "name": "F#3",
                    "midi": 54,
                    "time": 130,
                    "velocity": 0.4881889763779528,
                    "duration": 1.25
                },
                {
                    "name": "F#4",
                    "midi": 66,
                    "time": 130,
                    "velocity": 0.4881889763779528,
                    "duration": 1.25
                },
                {
                    "name": "A#2",
                    "midi": 46,
                    "time": 131.25,
                    "velocity": 0.4881889763779528,
                    "duration": 1.25
                },
                {
                    "name": "G3",
                    "midi": 55,
                    "time": 131.25,
                    "velocity": 0.4881889763779528,
                    "duration": 1.25
                },
                {
                    "name": "C#4",
                    "midi": 61,
                    "time": 131.25,
                    "velocity": 0.4881889763779528,
                    "duration": 1.25
                },
                {
                    "name": "G4",
                    "midi": 67,
                    "time": 131.25,
                    "velocity": 0.4881889763779528,
                    "duration": 1.25
                },
                {
                    "name": "A#2",
                    "midi": 46,
                    "time": 132.5,
                    "velocity": 0.4881889763779528,
                    "duration": 2.5
                },
                {
                    "name": "A2",
                    "midi": 45,
                    "time": 135,
                    "velocity": 0.4881889763779528,
                    "duration": 1.25
                },
                {
                    "name": "F3",
                    "midi": 53,
                    "time": 135,
                    "velocity": 0.4881889763779528,
                    "duration": 0.625
                },
                {
                    "name": "C4",
                    "midi": 60,
                    "time": 135,
                    "velocity": 0.4881889763779528,
                    "duration": 1.25
                },
                {
                    "name": "D#3",
                    "midi": 51,
                    "time": 135.625,
                    "velocity": 0.4881889763779528,
                    "duration": 0.625
                },
                {
                    "name": "A#2",
                    "midi": 46,
                    "time": 136.25,
                    "velocity": 0.4881889763779528,
                    "duration": 1.25
                },
                {
                    "name": "G3",
                    "midi": 55,
                    "time": 136.25,
                    "velocity": 0.4881889763779528,
                    "duration": 0.625
                },
                {
                    "name": "C#4",
                    "midi": 61,
                    "time": 136.25,
                    "velocity": 0.4881889763779528,
                    "duration": 1.25
                },
                {
                    "name": "F3",
                    "midi": 53,
                    "time": 136.875,
                    "velocity": 0.4881889763779528,
                    "duration": 0.625
                },
                {
                    "name": "C3",
                    "midi": 48,
                    "time": 137.5,
                    "velocity": 0.4881889763779528,
                    "duration": 1.25
                },
                {
                    "name": "F3",
                    "midi": 53,
                    "time": 137.5,
                    "velocity": 0.4881889763779528,
                    "duration": 1.25
                },
                {
                    "name": "A3",
                    "midi": 57,
                    "time": 137.5,
                    "velocity": 0.4881889763779528,
                    "duration": 1.25
                },
                {
                    "name": "A4",
                    "midi": 69,
                    "time": 137.5,
                    "velocity": 0.4881889763779528,
                    "duration": 1.25
                },
                {
                    "name": "C#3",
                    "midi": 49,
                    "time": 138.75,
                    "velocity": 0.4881889763779528,
                    "duration": 1.25
                },
                {
                    "name": "A#4",
                    "midi": 70,
                    "time": 138.75,
                    "velocity": 0.4881889763779528,
                    "duration": 1.25
                },
                {
                    "name": "C#3",
                    "midi": 49,
                    "time": 140,
                    "velocity": 0.4881889763779528,
                    "duration": 2.5
                },
                {
                    "name": "C3",
                    "midi": 48,
                    "time": 142.5,
                    "velocity": 0.4881889763779528,
                    "duration": 0.625
                },
                {
                    "name": "G#3",
                    "midi": 56,
                    "time": 142.5,
                    "velocity": 0.4881889763779528,
                    "duration": 0.625
                },
                {
                    "name": "D#4",
                    "midi": 63,
                    "time": 145,
                    "velocity": 0.5905511811023622,
                    "duration": 0.15625
                },
                {
                    "name": "C3",
                    "midi": 48,
                    "time": 145.15625,
                    "velocity": 0.5905511811023622,
                    "duration": 0.15625
                },
                {
                    "name": "D#3",
                    "midi": 51,
                    "time": 145.3125,
                    "velocity": 0.5905511811023622,
                    "duration": 0.15625
                },
                {
                    "name": "G#3",
                    "midi": 56,
                    "time": 145.46875,
                    "velocity": 0.5905511811023622,
                    "duration": 0.15625
                },
                {
                    "name": "B3",
                    "midi": 59,
                    "time": 145.625,
                    "velocity": 0.5905511811023622,
                    "duration": 0.029947916666657193
                },
                {
                    "name": "B3",
                    "midi": 59,
                    "time": 145.78125,
                    "velocity": 0.7952755905511811,
                    "duration": 0.3125
                },
                {
                    "name": "A#3",
                    "midi": 58,
                    "time": 146.09375,
                    "velocity": 0.5905511811023622,
                    "duration": 0.15625
                },
                {
                    "name": "G#3",
                    "midi": 56,
                    "time": 146.25,
                    "velocity": 0.5905511811023622,
                    "duration": 0.029947916666657193
                },
                {
                    "name": "G#2",
                    "midi": 44,
                    "time": 146.40625,
                    "velocity": 0.5905511811023622,
                    "duration": 0.15625
                },
                {
                    "name": "C3",
                    "midi": 48,
                    "time": 146.5625,
                    "velocity": 0.5905511811023622,
                    "duration": 0.15625
                },
                {
                    "name": "D#3",
                    "midi": 51,
                    "time": 146.71875,
                    "velocity": 0.5905511811023622,
                    "duration": 0.15625
                },
                {
                    "name": "F#3",
                    "midi": 54,
                    "time": 146.875,
                    "velocity": 0.5905511811023622,
                    "duration": 0.029947916666657193
                },
                {
                    "name": "F#3",
                    "midi": 54,
                    "time": 147.03125,
                    "velocity": 0.7952755905511811,
                    "duration": 0.3125
                },
                {
                    "name": "E3",
                    "midi": 52,
                    "time": 147.34375,
                    "velocity": 0.5905511811023622,
                    "duration": 0.15625
                },
                {
                    "name": "D#3",
                    "midi": 51,
                    "time": 148.75,
                    "velocity": 0.5905511811023622,
                    "duration": 0.15625
                },
                {
                    "name": "F3",
                    "midi": 53,
                    "time": 148.90625,
                    "velocity": 0.5905511811023622,
                    "duration": 0.15625
                },
                {
                    "name": "D#3",
                    "midi": 51,
                    "time": 149.0625,
                    "velocity": 0.5905511811023622,
                    "duration": 0.15625
                },
                {
                    "name": "G#2",
                    "midi": 44,
                    "time": 149.21875,
                    "velocity": 0.5905511811023622,
                    "duration": 0.15625
                },
                {
                    "name": "B2",
                    "midi": 47,
                    "time": 149.375,
                    "velocity": 0.5905511811023622,
                    "duration": 0.15625
                },
                {
                    "name": "A#2",
                    "midi": 46,
                    "time": 149.53125,
                    "velocity": 0.5905511811023622,
                    "duration": 0.15625
                },
                {
                    "name": "G#2",
                    "midi": 44,
                    "time": 149.6875,
                    "velocity": 0.5905511811023622,
                    "duration": 0.15625
                },
                {
                    "name": "F2",
                    "midi": 41,
                    "time": 149.84375,
                    "velocity": 0.5905511811023622,
                    "duration": 0.15625
                },
                {
                    "name": "D#2",
                    "midi": 39,
                    "time": 150,
                    "velocity": 0.4881889763779528,
                    "duration": 1.25
                },
                {
                    "name": "B2",
                    "midi": 47,
                    "time": 150,
                    "velocity": 0.4881889763779528,
                    "duration": 0.625
                },
                {
                    "name": "F#3",
                    "midi": 54,
                    "time": 150,
                    "velocity": 0.4881889763779528,
                    "duration": 1.25
                },
                {
                    "name": "F#4",
                    "midi": 66,
                    "time": 150,
                    "velocity": 0.4881889763779528,
                    "duration": 1.25
                },
                {
                    "name": "A2",
                    "midi": 45,
                    "time": 150.625,
                    "velocity": 0.4881889763779528,
                    "duration": 0.625
                },
                {
                    "name": "E2",
                    "midi": 40,
                    "time": 151.25,
                    "velocity": 0.4881889763779528,
                    "duration": 1.25
                },
                {
                    "name": "C#3",
                    "midi": 49,
                    "time": 151.25,
                    "velocity": 0.4881889763779528,
                    "duration": 0.625
                },
                {
                    "name": "G3",
                    "midi": 55,
                    "time": 151.25,
                    "velocity": 0.4881889763779528,
                    "duration": 1.25
                },
                {
                    "name": "G4",
                    "midi": 67,
                    "time": 151.25,
                    "velocity": 0.4881889763779528,
                    "duration": 1.25
                },
                {
                    "name": "B2",
                    "midi": 47,
                    "time": 151.875,
                    "velocity": 0.4881889763779528,
                    "duration": 0.625
                },
                {
                    "name": "F#2",
                    "midi": 42,
                    "time": 152.5,
                    "velocity": 0.4881889763779528,
                    "duration": 1.25
                },
                {
                    "name": "B2",
                    "midi": 47,
                    "time": 152.5,
                    "velocity": 0.4881889763779528,
                    "duration": 1.25
                },
                {
                    "name": "D#3",
                    "midi": 51,
                    "time": 152.5,
                    "velocity": 0.4881889763779528,
                    "duration": 1.25
                },
                {
                    "name": "D#4",
                    "midi": 63,
                    "time": 152.5,
                    "velocity": 0.4881889763779528,
                    "duration": 1.25
                },
                {
                    "name": "G2",
                    "midi": 43,
                    "time": 153.75,
                    "velocity": 0.4881889763779528,
                    "duration": 1.25
                },
                {
                    "name": "E3",
                    "midi": 52,
                    "time": 153.75,
                    "velocity": 0.4881889763779528,
                    "duration": 1.25
                },
                {
                    "name": "A#3",
                    "midi": 58,
                    "time": 153.75,
                    "velocity": 0.4881889763779528,
                    "duration": 1.25
                },
                {
                    "name": "E4",
                    "midi": 64,
                    "time": 153.75,
                    "velocity": 0.4881889763779528,
                    "duration": 1.25
                },
                {
                    "name": "A#4",
                    "midi": 70,
                    "time": 153.75,
                    "velocity": 0.4881889763779528,
                    "duration": 1.25
                },
                {
                    "name": "G#2",
                    "midi": 44,
                    "time": 155,
                    "velocity": 0.5905511811023622,
                    "duration": 2.5
                },
                {
                    "name": "F#2",
                    "midi": 42,
                    "time": 157.5,
                    "velocity": 0.3858267716535433,
                    "duration": 1.25
                },
                {
                    "name": "D3",
                    "midi": 50,
                    "time": 157.5,
                    "velocity": 0.3858267716535433,
                    "duration": 0.625
                },
                {
                    "name": "A3",
                    "midi": 57,
                    "time": 157.5,
                    "velocity": 0.3858267716535433,
                    "duration": 1.25
                },
                {
                    "name": "A4",
                    "midi": 69,
                    "time": 157.5,
                    "velocity": 0.3858267716535433,
                    "duration": 1.25
                },
                {
                    "name": "C3",
                    "midi": 48,
                    "time": 158.125,
                    "velocity": 0.3858267716535433,
                    "duration": 0.625
                },
                {
                    "name": "G2",
                    "midi": 43,
                    "time": 158.75,
                    "velocity": 0.4881889763779528,
                    "duration": 1.25
                },
                {
                    "name": "E3",
                    "midi": 52,
                    "time": 158.75,
                    "velocity": 0.4881889763779528,
                    "duration": 0.625
                },
                {
                    "name": "A#3",
                    "midi": 58,
                    "time": 158.75,
                    "velocity": 0.4881889763779528,
                    "duration": 1.25
                },
                {
                    "name": "A#4",
                    "midi": 70,
                    "time": 158.75,
                    "velocity": 0.4881889763779528,
                    "duration": 1.25
                },
                {
                    "name": "D3",
                    "midi": 50,
                    "time": 159.375,
                    "velocity": 0.4881889763779528,
                    "duration": 0.625
                },
                {
                    "name": "A2",
                    "midi": 45,
                    "time": 160,
                    "velocity": 0.4881889763779528,
                    "duration": 1.25
                },
                {
                    "name": "D3",
                    "midi": 50,
                    "time": 160,
                    "velocity": 0.4881889763779528,
                    "duration": 1.25
                },
                {
                    "name": "F#3",
                    "midi": 54,
                    "time": 160,
                    "velocity": 0.4881889763779528,
                    "duration": 1.25
                },
                {
                    "name": "F#4",
                    "midi": 66,
                    "time": 160,
                    "velocity": 0.4881889763779528,
                    "duration": 1.25
                },
                {
                    "name": "A#2",
                    "midi": 46,
                    "time": 161.25,
                    "velocity": 0.4881889763779528,
                    "duration": 1.25
                },
                {
                    "name": "G3",
                    "midi": 55,
                    "time": 161.25,
                    "velocity": 0.4881889763779528,
                    "duration": 1.25
                },
                {
                    "name": "C#4",
                    "midi": 61,
                    "time": 161.25,
                    "velocity": 0.4881889763779528,
                    "duration": 1.25
                },
                {
                    "name": "G4",
                    "midi": 67,
                    "time": 161.25,
                    "velocity": 0.4881889763779528,
                    "duration": 1.25
                },
                {
                    "name": "C#5",
                    "midi": 73,
                    "time": 161.25,
                    "velocity": 0.4881889763779528,
                    "duration": 1.25
                },
                {
                    "name": "A#2",
                    "midi": 46,
                    "time": 162.5,
                    "velocity": 0.4881889763779528,
                    "duration": 0.625
                },
                {
                    "name": "A#3",
                    "midi": 58,
                    "time": 162.5,
                    "velocity": 0.4881889763779528,
                    "duration": 0.625
                },
                {
                    "name": "G2",
                    "midi": 43,
                    "time": 163.125,
                    "velocity": 0.4881889763779528,
                    "duration": 0.625
                },
                {
                    "name": "G3",
                    "midi": 55,
                    "time": 163.125,
                    "velocity": 0.4881889763779528,
                    "duration": 0.625
                },
                {
                    "name": "A#2",
                    "midi": 46,
                    "time": 163.75,
                    "velocity": 0.4881889763779528,
                    "duration": 0.625
                },
                {
                    "name": "A#3",
                    "midi": 58,
                    "time": 163.75,
                    "velocity": 0.4881889763779528,
                    "duration": 0.625
                },
                {
                    "name": "G2",
                    "midi": 43,
                    "time": 164.375,
                    "velocity": 0.4881889763779528,
                    "duration": 0.625
                },
                {
                    "name": "G3",
                    "midi": 55,
                    "time": 164.375,
                    "velocity": 0.4881889763779528,
                    "duration": 0.625
                },
                {
                    "name": "A#2",
                    "midi": 46,
                    "time": 165,
                    "velocity": 0.4881889763779528,
                    "duration": 0.625
                },
                {
                    "name": "A#3",
                    "midi": 58,
                    "time": 165,
                    "velocity": 0.4881889763779528,
                    "duration": 0.625
                },
                {
                    "name": "G2",
                    "midi": 43,
                    "time": 165.625,
                    "velocity": 0.4881889763779528,
                    "duration": 0.625
                },
                {
                    "name": "G3",
                    "midi": 55,
                    "time": 165.625,
                    "velocity": 0.4881889763779528,
                    "duration": 0.625
                },
                {
                    "name": "A#2",
                    "midi": 46,
                    "time": 166.25,
                    "velocity": 0.4881889763779528,
                    "duration": 0.625
                },
                {
                    "name": "A#3",
                    "midi": 58,
                    "time": 166.25,
                    "velocity": 0.4881889763779528,
                    "duration": 0.625
                },
                {
                    "name": "G2",
                    "midi": 43,
                    "time": 166.875,
                    "velocity": 0.4881889763779528,
                    "duration": 0.625
                },
                {
                    "name": "G3",
                    "midi": 55,
                    "time": 166.875,
                    "velocity": 0.4881889763779528,
                    "duration": 0.625
                },
                {
                    "name": "A#1",
                    "midi": 34,
                    "time": 167.5,
                    "velocity": 0.4881889763779528,
                    "duration": 0.625
                },
                {
                    "name": "A#2",
                    "midi": 46,
                    "time": 167.5,
                    "velocity": 0.4881889763779528,
                    "duration": 0.625
                },
                {
                    "name": "G1",
                    "midi": 31,
                    "time": 168.125,
                    "velocity": 0.4881889763779528,
                    "duration": 0.625
                },
                {
                    "name": "G2",
                    "midi": 43,
                    "time": 168.125,
                    "velocity": 0.4881889763779528,
                    "duration": 0.625
                },
                {
                    "name": "A#1",
                    "midi": 34,
                    "time": 168.75,
                    "velocity": 0.4881889763779528,
                    "duration": 0.625
                },
                {
                    "name": "A#2",
                    "midi": 46,
                    "time": 168.75,
                    "velocity": 0.4881889763779528,
                    "duration": 0.625
                },
                {
                    "name": "G1",
                    "midi": 31,
                    "time": 169.375,
                    "velocity": 0.4881889763779528,
                    "duration": 0.625
                },
                {
                    "name": "G2",
                    "midi": 43,
                    "time": 169.375,
                    "velocity": 0.4881889763779528,
                    "duration": 0.625
                },
                {
                    "name": "A#1",
                    "midi": 34,
                    "time": 170,
                    "velocity": 0.4881889763779528,
                    "duration": 0.625
                },
                {
                    "name": "A#2",
                    "midi": 46,
                    "time": 170,
                    "velocity": 0.4881889763779528,
                    "duration": 0.625
                },
                {
                    "name": "G1",
                    "midi": 31,
                    "time": 170.625,
                    "velocity": 0.4881889763779528,
                    "duration": 0.625
                },
                {
                    "name": "G2",
                    "midi": 43,
                    "time": 170.625,
                    "velocity": 0.4881889763779528,
                    "duration": 0.625
                },
                {
                    "name": "A#1",
                    "midi": 34,
                    "time": 171.25,
                    "velocity": 0.4881889763779528,
                    "duration": 0.625
                },
                {
                    "name": "A#2",
                    "midi": 46,
                    "time": 171.25,
                    "velocity": 0.4881889763779528,
                    "duration": 0.625
                },
                {
                    "name": "G1",
                    "midi": 31,
                    "time": 171.875,
                    "velocity": 0.4881889763779528,
                    "duration": 0.625
                },
                {
                    "name": "G2",
                    "midi": 43,
                    "time": 171.875,
                    "velocity": 0.4881889763779528,
                    "duration": 0.625
                },
                {
                    "name": "F2",
                    "midi": 41,
                    "time": 172.5,
                    "velocity": 0.5905511811023622,
                    "duration": 2.5
                },
                {
                    "name": "F2",
                    "midi": 41,
                    "time": 175,
                    "velocity": 0.5905511811023622,
                    "duration": 2.5
                },
                {
                    "name": "F2",
                    "midi": 41,
                    "time": 177.5,
                    "velocity": 0.5905511811023622,
                    "duration": 2.5
                },
                {
                    "name": "F2",
                    "midi": 41,
                    "time": 180,
                    "velocity": 0.5905511811023622,
                    "duration": 2.5
                },
                {
                    "name": "F2",
                    "midi": 41,
                    "time": 182.5,
                    "velocity": 0.7952755905511811,
                    "duration": 2.5
                },
                {
                    "name": "G3",
                    "midi": 55,
                    "time": 182.5,
                    "velocity": 0.7952755905511811,
                    "duration": 2.5
                },
                {
                    "name": "F2",
                    "midi": 41,
                    "time": 185,
                    "velocity": 0.7952755905511811,
                    "duration": 0.3125
                },
                {
                    "name": "G3",
                    "midi": 55,
                    "time": 185,
                    "velocity": 0.7952755905511811,
                    "duration": 0.3125
                },
                {
                    "name": "F2",
                    "midi": 41,
                    "time": 185.3125,
                    "velocity": 0.5905511811023622,
                    "duration": 0.029947916666657193
                },
                {
                    "name": "G3",
                    "midi": 55,
                    "time": 185.3125,
                    "velocity": 0.5905511811023622,
                    "duration": 0.029947916666657193
                },
                {
                    "name": "F2",
                    "midi": 41,
                    "time": 185.46875,
                    "velocity": 0.5905511811023622,
                    "duration": 0.029947916666657193
                },
                {
                    "name": "G3",
                    "midi": 55,
                    "time": 185.46875,
                    "velocity": 0.5905511811023622,
                    "duration": 0.029947916666657193
                },
                {
                    "name": "F2",
                    "midi": 41,
                    "time": 185.625,
                    "velocity": 0.5905511811023622,
                    "duration": 0.029947916666657193
                },
                {
                    "name": "G3",
                    "midi": 55,
                    "time": 185.625,
                    "velocity": 0.5905511811023622,
                    "duration": 0.029947916666657193
                },
                {
                    "name": "F2",
                    "midi": 41,
                    "time": 185.78125,
                    "velocity": 0.7952755905511811,
                    "duration": 0.3125
                },
                {
                    "name": "G3",
                    "midi": 55,
                    "time": 185.78125,
                    "velocity": 0.7952755905511811,
                    "duration": 0.3125
                },
                {
                    "name": "F2",
                    "midi": 41,
                    "time": 186.09375,
                    "velocity": 0.5905511811023622,
                    "duration": 0.029947916666657193
                },
                {
                    "name": "G3",
                    "midi": 55,
                    "time": 186.09375,
                    "velocity": 0.5905511811023622,
                    "duration": 0.029947916666657193
                },
                {
                    "name": "F2",
                    "midi": 41,
                    "time": 186.25,
                    "velocity": 0.7952755905511811,
                    "duration": 0.3125
                },
                {
                    "name": "G3",
                    "midi": 55,
                    "time": 186.25,
                    "velocity": 0.7952755905511811,
                    "duration": 0.3125
                },
                {
                    "name": "F2",
                    "midi": 41,
                    "time": 186.5625,
                    "velocity": 0.5905511811023622,
                    "duration": 0.029947916666657193
                },
                {
                    "name": "G3",
                    "midi": 55,
                    "time": 186.5625,
                    "velocity": 0.5905511811023622,
                    "duration": 0.029947916666657193
                },
                {
                    "name": "F2",
                    "midi": 41,
                    "time": 186.71875,
                    "velocity": 0.5905511811023622,
                    "duration": 0.029947916666657193
                },
                {
                    "name": "G3",
                    "midi": 55,
                    "time": 186.71875,
                    "velocity": 0.5905511811023622,
                    "duration": 0.029947916666657193
                },
                {
                    "name": "F2",
                    "midi": 41,
                    "time": 186.875,
                    "velocity": 0.5905511811023622,
                    "duration": 0.029947916666657193
                },
                {
                    "name": "G3",
                    "midi": 55,
                    "time": 186.875,
                    "velocity": 0.5905511811023622,
                    "duration": 0.029947916666657193
                },
                {
                    "name": "F2",
                    "midi": 41,
                    "time": 187.03125,
                    "velocity": 0.7952755905511811,
                    "duration": 0.3125
                },
                {
                    "name": "G3",
                    "midi": 55,
                    "time": 187.03125,
                    "velocity": 0.7952755905511811,
                    "duration": 0.3125
                },
                {
                    "name": "F2",
                    "midi": 41,
                    "time": 187.34375,
                    "velocity": 0.5905511811023622,
                    "duration": 0.029947916666657193
                },
                {
                    "name": "G3",
                    "midi": 55,
                    "time": 187.34375,
                    "velocity": 0.5905511811023622,
                    "duration": 0.029947916666657193
                },
                {
                    "name": "F2",
                    "midi": 41,
                    "time": 187.5,
                    "velocity": 0.8976377952755905,
                    "duration": 0.3125
                },
                {
                    "name": "A3",
                    "midi": 57,
                    "time": 187.5,
                    "velocity": 0.8976377952755905,
                    "duration": 0.3125
                },
                {
                    "name": "F2",
                    "midi": 41,
                    "time": 187.8125,
                    "velocity": 0.6929133858267716,
                    "duration": 0.029947916666657193
                },
                {
                    "name": "A3",
                    "midi": 57,
                    "time": 187.8125,
                    "velocity": 0.6929133858267716,
                    "duration": 0.029947916666657193
                },
                {
                    "name": "F2",
                    "midi": 41,
                    "time": 187.96875,
                    "velocity": 0.6929133858267716,
                    "duration": 0.029947916666657193
                },
                {
                    "name": "A3",
                    "midi": 57,
                    "time": 187.96875,
                    "velocity": 0.6929133858267716,
                    "duration": 0.029947916666657193
                },
                {
                    "name": "F2",
                    "midi": 41,
                    "time": 188.125,
                    "velocity": 0.6929133858267716,
                    "duration": 0.029947916666657193
                },
                {
                    "name": "A3",
                    "midi": 57,
                    "time": 188.125,
                    "velocity": 0.6929133858267716,
                    "duration": 0.029947916666657193
                },
                {
                    "name": "F2",
                    "midi": 41,
                    "time": 188.28125,
                    "velocity": 0.8976377952755905,
                    "duration": 0.3125
                },
                {
                    "name": "A3",
                    "midi": 57,
                    "time": 188.28125,
                    "velocity": 0.8976377952755905,
                    "duration": 0.3125
                },
                {
                    "name": "F2",
                    "midi": 41,
                    "time": 188.59375,
                    "velocity": 0.6929133858267716,
                    "duration": 0.029947916666657193
                },
                {
                    "name": "A3",
                    "midi": 57,
                    "time": 188.59375,
                    "velocity": 0.6929133858267716,
                    "duration": 0.029947916666657193
                },
                {
                    "name": "F2",
                    "midi": 41,
                    "time": 188.75,
                    "velocity": 0.8976377952755905,
                    "duration": 0.3125
                },
                {
                    "name": "A3",
                    "midi": 57,
                    "time": 188.75,
                    "velocity": 0.8976377952755905,
                    "duration": 0.3125
                },
                {
                    "name": "F2",
                    "midi": 41,
                    "time": 189.0625,
                    "velocity": 0.6929133858267716,
                    "duration": 0.029947916666657193
                },
                {
                    "name": "A3",
                    "midi": 57,
                    "time": 189.0625,
                    "velocity": 0.6929133858267716,
                    "duration": 0.029947916666657193
                },
                {
                    "name": "F2",
                    "midi": 41,
                    "time": 189.21875,
                    "velocity": 0.6929133858267716,
                    "duration": 0.029947916666657193
                },
                {
                    "name": "A3",
                    "midi": 57,
                    "time": 189.21875,
                    "velocity": 0.6929133858267716,
                    "duration": 0.029947916666657193
                },
                {
                    "name": "F2",
                    "midi": 41,
                    "time": 189.375,
                    "velocity": 0.6929133858267716,
                    "duration": 0.029947916666657193
                },
                {
                    "name": "A3",
                    "midi": 57,
                    "time": 189.375,
                    "velocity": 0.6929133858267716,
                    "duration": 0.029947916666657193
                },
                {
                    "name": "F2",
                    "midi": 41,
                    "time": 189.53125,
                    "velocity": 0.8976377952755905,
                    "duration": 0.3125
                },
                {
                    "name": "A3",
                    "midi": 57,
                    "time": 189.53125,
                    "velocity": 0.8976377952755905,
                    "duration": 0.3125
                },
                {
                    "name": "F2",
                    "midi": 41,
                    "time": 189.84375,
                    "velocity": 0.6929133858267716,
                    "duration": 0.029947916666657193
                },
                {
                    "name": "A3",
                    "midi": 57,
                    "time": 189.84375,
                    "velocity": 0.6929133858267716,
                    "duration": 0.029947916666657193
                },
                {
                    "name": "E2",
                    "midi": 40,
                    "time": 190,
                    "velocity": 0.6929133858267716,
                    "duration": 0.3125
                },
                {
                    "name": "E3",
                    "midi": 52,
                    "time": 190,
                    "velocity": 0.6929133858267716,
                    "duration": 0.3125
                },
                {
                    "name": "F#2",
                    "midi": 42,
                    "time": 190.3125,
                    "velocity": 0.6929133858267716,
                    "duration": 0.625
                },
                {
                    "name": "F#3",
                    "midi": 54,
                    "time": 190.3125,
                    "velocity": 0.6929133858267716,
                    "duration": 0.625
                },
                {
                    "name": "G2",
                    "midi": 43,
                    "time": 190.9375,
                    "velocity": 0.6929133858267716,
                    "duration": 0.3125
                },
                {
                    "name": "G3",
                    "midi": 55,
                    "time": 190.9375,
                    "velocity": 0.6929133858267716,
                    "duration": 0.3125
                },
                {
                    "name": "A2",
                    "midi": 45,
                    "time": 191.25,
                    "velocity": 0.6929133858267716,
                    "duration": 0.3125
                },
                {
                    "name": "A3",
                    "midi": 57,
                    "time": 191.25,
                    "velocity": 0.6929133858267716,
                    "duration": 0.3125
                },
                {
                    "name": "G2",
                    "midi": 43,
                    "time": 191.5625,
                    "velocity": 0.6929133858267716,
                    "duration": 0.3125
                },
                {
                    "name": "G3",
                    "midi": 55,
                    "time": 191.5625,
                    "velocity": 0.6929133858267716,
                    "duration": 0.3125
                },
                {
                    "name": "F#2",
                    "midi": 42,
                    "time": 191.875,
                    "velocity": 0.6929133858267716,
                    "duration": 0.3125
                },
                {
                    "name": "F#3",
                    "midi": 54,
                    "time": 191.875,
                    "velocity": 0.6929133858267716,
                    "duration": 0.3125
                },
                {
                    "name": "E2",
                    "midi": 40,
                    "time": 192.1875,
                    "velocity": 0.6929133858267716,
                    "duration": 0.3125
                },
                {
                    "name": "E3",
                    "midi": 52,
                    "time": 192.1875,
                    "velocity": 0.6929133858267716,
                    "duration": 0.3125
                },
                {
                    "name": "C#2",
                    "midi": 37,
                    "time": 192.5,
                    "velocity": 0.6929133858267716,
                    "duration": 0.3125
                },
                {
                    "name": "C#3",
                    "midi": 49,
                    "time": 192.5,
                    "velocity": 0.6929133858267716,
                    "duration": 0.3125
                },
                {
                    "name": "D2",
                    "midi": 38,
                    "time": 192.8125,
                    "velocity": 0.6929133858267716,
                    "duration": 0.625
                },
                {
                    "name": "D3",
                    "midi": 50,
                    "time": 192.8125,
                    "velocity": 0.6929133858267716,
                    "duration": 0.625
                },
                {
                    "name": "E2",
                    "midi": 40,
                    "time": 193.4375,
                    "velocity": 0.6929133858267716,
                    "duration": 0.3125
                },
                {
                    "name": "E3",
                    "midi": 52,
                    "time": 193.4375,
                    "velocity": 0.6929133858267716,
                    "duration": 0.3125
                },
                {
                    "name": "F2",
                    "midi": 41,
                    "time": 193.75,
                    "velocity": 0.5905511811023622,
                    "duration": 0.3125
                },
                {
                    "name": "F3",
                    "midi": 53,
                    "time": 193.75,
                    "velocity": 0.5905511811023622,
                    "duration": 0.3125
                },
                {
                    "name": "F#2",
                    "midi": 42,
                    "time": 194.0625,
                    "velocity": 0.5905511811023622,
                    "duration": 0.3125
                },
                {
                    "name": "F#3",
                    "midi": 54,
                    "time": 194.0625,
                    "velocity": 0.5905511811023622,
                    "duration": 0.3125
                },
                {
                    "name": "C2",
                    "midi": 36,
                    "time": 194.375,
                    "velocity": 0.5905511811023622,
                    "duration": 0.3125
                },
                {
                    "name": "C3",
                    "midi": 48,
                    "time": 194.375,
                    "velocity": 0.5905511811023622,
                    "duration": 0.3125
                },
                {
                    "name": "C#2",
                    "midi": 37,
                    "time": 194.6875,
                    "velocity": 0.5905511811023622,
                    "duration": 0.3125
                },
                {
                    "name": "C#3",
                    "midi": 49,
                    "time": 194.6875,
                    "velocity": 0.5905511811023622,
                    "duration": 0.3125
                },
                {
                    "name": "D2",
                    "midi": 38,
                    "time": 195,
                    "velocity": 0.5905511811023622,
                    "duration": 0.3125
                },
                {
                    "name": "D3",
                    "midi": 50,
                    "time": 195,
                    "velocity": 0.5905511811023622,
                    "duration": 0.3125
                },
                {
                    "name": "D4",
                    "midi": 62,
                    "time": 195,
                    "velocity": 0.5905511811023622,
                    "duration": 0.3125
                },
                {
                    "name": "C#2",
                    "midi": 37,
                    "time": 195.3125,
                    "velocity": 0.5905511811023622,
                    "duration": 0.3125
                },
                {
                    "name": "C#3",
                    "midi": 49,
                    "time": 195.3125,
                    "velocity": 0.5905511811023622,
                    "duration": 0.3125
                },
                {
                    "name": "C#4",
                    "midi": 61,
                    "time": 195.3125,
                    "velocity": 0.5905511811023622,
                    "duration": 0.3125
                },
                {
                    "name": "E2",
                    "midi": 40,
                    "time": 195.625,
                    "velocity": 0.5905511811023622,
                    "duration": 0.3125
                },
                {
                    "name": "E3",
                    "midi": 52,
                    "time": 195.625,
                    "velocity": 0.5905511811023622,
                    "duration": 0.3125
                },
                {
                    "name": "D2",
                    "midi": 38,
                    "time": 195.9375,
                    "velocity": 0.5905511811023622,
                    "duration": 0.3125
                },
                {
                    "name": "D3",
                    "midi": 50,
                    "time": 195.9375,
                    "velocity": 0.5905511811023622,
                    "duration": 0.3125
                },
                {
                    "name": "B1",
                    "midi": 35,
                    "time": 196.25,
                    "velocity": 0.4881889763779528,
                    "duration": 0.3125
                },
                {
                    "name": "B2",
                    "midi": 47,
                    "time": 196.25,
                    "velocity": 0.4881889763779528,
                    "duration": 0.3125
                },
                {
                    "name": "D4",
                    "midi": 62,
                    "time": 196.25,
                    "velocity": 0.4881889763779528,
                    "duration": 0.3125
                },
                {
                    "name": "A1",
                    "midi": 33,
                    "time": 196.5625,
                    "velocity": 0.4881889763779528,
                    "duration": 0.3125
                },
                {
                    "name": "A2",
                    "midi": 45,
                    "time": 196.5625,
                    "velocity": 0.4881889763779528,
                    "duration": 0.3125
                },
                {
                    "name": "C#4",
                    "midi": 61,
                    "time": 196.5625,
                    "velocity": 0.4881889763779528,
                    "duration": 0.3125
                },
                {
                    "name": "C#2",
                    "midi": 37,
                    "time": 196.875,
                    "velocity": 0.4881889763779528,
                    "duration": 0.3125
                },
                {
                    "name": "C#3",
                    "midi": 49,
                    "time": 196.875,
                    "velocity": 0.4881889763779528,
                    "duration": 0.3125
                },
                {
                    "name": "A1",
                    "midi": 33,
                    "time": 197.1875,
                    "velocity": 0.4881889763779528,
                    "duration": 0.3125
                },
                {
                    "name": "A2",
                    "midi": 45,
                    "time": 197.1875,
                    "velocity": 0.4881889763779528,
                    "duration": 0.3125
                },
                {
                    "name": "F#1",
                    "midi": 30,
                    "time": 197.5,
                    "velocity": 0.3858267716535433,
                    "duration": 0.3125
                },
                {
                    "name": "F#2",
                    "midi": 42,
                    "time": 197.5,
                    "velocity": 0.3858267716535433,
                    "duration": 0.3125
                },
                {
                    "name": "D4",
                    "midi": 62,
                    "time": 197.5,
                    "velocity": 0.3858267716535433,
                    "duration": 0.3125
                },
                {
                    "name": "E1",
                    "midi": 28,
                    "time": 197.8125,
                    "velocity": 0.3858267716535433,
                    "duration": 2.1875
                },
                {
                    "name": "E2",
                    "midi": 40,
                    "time": 197.8125,
                    "velocity": 0.3858267716535433,
                    "duration": 2.1875
                },
                {
                    "name": "C#4",
                    "midi": 61,
                    "time": 197.8125,
                    "velocity": 0.3858267716535433,
                    "duration": 2.1875
                },
                {
                    "name": "E2",
                    "midi": 40,
                    "time": 200,
                    "velocity": 0.3858267716535433,
                    "duration": 0.3125
                },
                {
                    "name": "E3",
                    "midi": 52,
                    "time": 200,
                    "velocity": 0.3858267716535433,
                    "duration": 0.3125
                },
                {
                    "name": "G#4",
                    "midi": 68,
                    "time": 200,
                    "velocity": 0.3858267716535433,
                    "duration": 0.3125
                },
                {
                    "name": "D2",
                    "midi": 38,
                    "time": 200.3125,
                    "velocity": 0.3858267716535433,
                    "duration": 2.1875
                },
                {
                    "name": "D3",
                    "midi": 50,
                    "time": 200.3125,
                    "velocity": 0.3858267716535433,
                    "duration": 2.1875
                },
                {
                    "name": "F#4",
                    "midi": 66,
                    "time": 200.3125,
                    "velocity": 0.3858267716535433,
                    "duration": 2.1875
                },
                {
                    "name": "A2",
                    "midi": 45,
                    "time": 202.5,
                    "velocity": 0.3858267716535433,
                    "duration": 0.3125
                },
                {
                    "name": "A3",
                    "midi": 57,
                    "time": 202.5,
                    "velocity": 0.3858267716535433,
                    "duration": 0.3125
                },
                {
                    "name": "C#5",
                    "midi": 73,
                    "time": 202.5,
                    "velocity": 0.3858267716535433,
                    "duration": 0.3125
                },
                {
                    "name": "G#2",
                    "midi": 44,
                    "time": 202.8125,
                    "velocity": 0.3858267716535433,
                    "duration": 2.1875
                },
                {
                    "name": "G#3",
                    "midi": 56,
                    "time": 202.8125,
                    "velocity": 0.3858267716535433,
                    "duration": 2.1875
                },
                {
                    "name": "B4",
                    "midi": 71,
                    "time": 202.8125,
                    "velocity": 0.3858267716535433,
                    "duration": 2.1875
                },
                {
                    "name": "F#2",
                    "midi": 42,
                    "time": 205,
                    "velocity": 0.3858267716535433,
                    "duration": 0.3125
                },
                {
                    "name": "F#3",
                    "midi": 54,
                    "time": 205,
                    "velocity": 0.3858267716535433,
                    "duration": 0.3125
                },
                {
                    "name": "D5",
                    "midi": 74,
                    "time": 205,
                    "velocity": 0.3858267716535433,
                    "duration": 0.3125
                },
                {
                    "name": "E2",
                    "midi": 40,
                    "time": 205.3125,
                    "velocity": 0.3858267716535433,
                    "duration": 4.6875
                },
                {
                    "name": "E3",
                    "midi": 52,
                    "time": 205.3125,
                    "velocity": 0.3858267716535433,
                    "duration": 4.6875
                },
                {
                    "name": "C#5",
                    "midi": 73,
                    "time": 205.3125,
                    "velocity": 0.3858267716535433,
                    "duration": 4.6875
                },
                {
                    "name": "C#2",
                    "midi": 37,
                    "time": 211.875,
                    "velocity": 0.4881889763779528,
                    "duration": 0.20703125
                },
                {
                    "name": "G#2",
                    "midi": 44,
                    "time": 211.875,
                    "velocity": 0.4881889763779528,
                    "duration": 0.20703125
                },
                {
                    "name": "C#3",
                    "midi": 49,
                    "time": 212.08203125,
                    "velocity": 0.4881889763779528,
                    "duration": 0.2096354166666572
                },
                {
                    "name": "G#3",
                    "midi": 56,
                    "time": 212.08203125,
                    "velocity": 0.4881889763779528,
                    "duration": 0.2096354166666572
                },
                {
                    "name": "C#2",
                    "midi": 37,
                    "time": 212.29166666666666,
                    "velocity": 0.4881889763779528,
                    "duration": 0.2083333333333428
                },
                {
                    "name": "G#2",
                    "midi": 44,
                    "time": 212.29166666666666,
                    "velocity": 0.4881889763779528,
                    "duration": 0.2083333333333428
                },
                {
                    "name": "E3",
                    "midi": 52,
                    "time": 217.1875,
                    "velocity": 0.4881889763779528,
                    "duration": 0.10416666666665719
                },
                {
                    "name": "G3",
                    "midi": 55,
                    "time": 217.1875,
                    "velocity": 0.4881889763779528,
                    "duration": 0.10416666666665719
                },
                {
                    "name": "C4",
                    "midi": 60,
                    "time": 217.1875,
                    "velocity": 0.4881889763779528,
                    "duration": 0.10416666666665719
                },
                {
                    "name": "C#3",
                    "midi": 49,
                    "time": 217.29166666666666,
                    "velocity": 0.4881889763779528,
                    "duration": 0.10286458333334281
                },
                {
                    "name": "F#3",
                    "midi": 54,
                    "time": 217.29166666666666,
                    "velocity": 0.4881889763779528,
                    "duration": 0.10286458333334281
                },
                {
                    "name": "A#3",
                    "midi": 58,
                    "time": 217.29166666666666,
                    "velocity": 0.4881889763779528,
                    "duration": 0.10286458333334281
                },
                {
                    "name": "F#3",
                    "midi": 54,
                    "time": 217.39453125,
                    "velocity": 0.4881889763779528,
                    "duration": 0.10546875
                },
                {
                    "name": "A3",
                    "midi": 57,
                    "time": 217.39453125,
                    "velocity": 0.4881889763779528,
                    "duration": 0.10546875
                },
                {
                    "name": "D4",
                    "midi": 62,
                    "time": 217.39453125,
                    "velocity": 0.4881889763779528,
                    "duration": 0.10546875
                },
                {
                    "name": "F3",
                    "midi": 53,
                    "time": 217.5,
                    "velocity": 0.4881889763779528,
                    "duration": 2.5
                },
                {
                    "name": "G#3",
                    "midi": 56,
                    "time": 217.5,
                    "velocity": 0.4881889763779528,
                    "duration": 2.5
                },
                {
                    "name": "C#4",
                    "midi": 61,
                    "time": 217.5,
                    "velocity": 0.4881889763779528,
                    "duration": 2.5
                },
                {
                    "name": "F3",
                    "midi": 53,
                    "time": 220,
                    "velocity": 0.4881889763779528,
                    "duration": 0.625
                },
                {
                    "name": "D#3",
                    "midi": 51,
                    "time": 220.625,
                    "velocity": 0.4881889763779528,
                    "duration": 0.625
                },
                {
                    "name": "C#3",
                    "midi": 49,
                    "time": 221.25,
                    "velocity": 0.4881889763779528,
                    "duration": 0.625
                },
                {
                    "name": "B2",
                    "midi": 47,
                    "time": 221.875,
                    "velocity": 0.4881889763779528,
                    "duration": 0.625
                },
                {
                    "name": "A2",
                    "midi": 45,
                    "time": 222.5,
                    "velocity": 0.4881889763779528,
                    "duration": 0.625
                },
                {
                    "name": "G#2",
                    "midi": 44,
                    "time": 223.125,
                    "velocity": 0.4881889763779528,
                    "duration": 0.625
                },
                {
                    "name": "F#2",
                    "midi": 42,
                    "time": 223.75,
                    "velocity": 0.4881889763779528,
                    "duration": 0.625
                },
                {
                    "name": "E2",
                    "midi": 40,
                    "time": 224.375,
                    "velocity": 0.4881889763779528,
                    "duration": 0.625
                },
                {
                    "name": "B3",
                    "midi": 59,
                    "time": 232.1875,
                    "velocity": 0.4881889763779528,
                    "duration": 0.3125
                },
                {
                    "name": "D#4",
                    "midi": 63,
                    "time": 232.1875,
                    "velocity": 0.4881889763779528,
                    "duration": 0.3125
                },
                {
                    "name": "C4",
                    "midi": 60,
                    "time": 232.5,
                    "velocity": 0.4881889763779528,
                    "duration": 0.3125
                },
                {
                    "name": "E4",
                    "midi": 64,
                    "time": 232.5,
                    "velocity": 0.4881889763779528,
                    "duration": 0.3125
                },
                {
                    "name": "D4",
                    "midi": 62,
                    "time": 232.8125,
                    "velocity": 0.4881889763779528,
                    "duration": 0.3125
                },
                {
                    "name": "F#4",
                    "midi": 66,
                    "time": 232.8125,
                    "velocity": 0.4881889763779528,
                    "duration": 0.3125
                },
                {
                    "name": "C4",
                    "midi": 60,
                    "time": 233.125,
                    "velocity": 0.4881889763779528,
                    "duration": 0.625
                },
                {
                    "name": "E4",
                    "midi": 64,
                    "time": 233.125,
                    "velocity": 0.4881889763779528,
                    "duration": 0.625
                },
                {
                    "name": "D4",
                    "midi": 62,
                    "time": 233.75,
                    "velocity": 0.4881889763779528,
                    "duration": 0.3125
                },
                {
                    "name": "F#4",
                    "midi": 66,
                    "time": 233.75,
                    "velocity": 0.4881889763779528,
                    "duration": 0.3125
                },
                {
                    "name": "C4",
                    "midi": 60,
                    "time": 234.0625,
                    "velocity": 0.4881889763779528,
                    "duration": 0.9375
                },
                {
                    "name": "E4",
                    "midi": 64,
                    "time": 234.0625,
                    "velocity": 0.4881889763779528,
                    "duration": 0.9375
                },
                {
                    "name": "B3",
                    "midi": 59,
                    "time": 235,
                    "velocity": 0.4881889763779528,
                    "duration": 0.3125
                },
                {
                    "name": "G4",
                    "midi": 67,
                    "time": 235,
                    "velocity": 0.4881889763779528,
                    "duration": 0.3125
                },
                {
                    "name": "C#4",
                    "midi": 61,
                    "time": 254.375,
                    "velocity": 0.4881889763779528,
                    "duration": 0.625
                },
                {
                    "name": "G4",
                    "midi": 67,
                    "time": 254.375,
                    "velocity": 0.4881889763779528,
                    "duration": 0.625
                },
                {
                    "name": "D2",
                    "midi": 38,
                    "time": 255,
                    "velocity": 0.4881889763779528,
                    "duration": 0.625
                },
                {
                    "name": "A2",
                    "midi": 45,
                    "time": 255,
                    "velocity": 0.4881889763779528,
                    "duration": 0.625
                },
                {
                    "name": "D2",
                    "midi": 38,
                    "time": 255.625,
                    "velocity": 0.4881889763779528,
                    "duration": 0.625
                },
                {
                    "name": "A2",
                    "midi": 45,
                    "time": 255.625,
                    "velocity": 0.4881889763779528,
                    "duration": 0.625
                },
                {
                    "name": "D2",
                    "midi": 38,
                    "time": 256.25,
                    "velocity": 0.4881889763779528,
                    "duration": 0.625
                },
                {
                    "name": "A2",
                    "midi": 45,
                    "time": 256.25,
                    "velocity": 0.4881889763779528,
                    "duration": 0.625
                },
                {
                    "name": "D2",
                    "midi": 38,
                    "time": 256.875,
                    "velocity": 0.4881889763779528,
                    "duration": 0.625
                },
                {
                    "name": "A2",
                    "midi": 45,
                    "time": 256.875,
                    "velocity": 0.4881889763779528,
                    "duration": 0.625
                },
                {
                    "name": "D2",
                    "midi": 38,
                    "time": 257.5,
                    "velocity": 0.4881889763779528,
                    "duration": 0.625
                },
                {
                    "name": "A2",
                    "midi": 45,
                    "time": 257.5,
                    "velocity": 0.4881889763779528,
                    "duration": 0.625
                },
                {
                    "name": "D2",
                    "midi": 38,
                    "time": 258.125,
                    "velocity": 0.4881889763779528,
                    "duration": 0.625
                },
                {
                    "name": "A2",
                    "midi": 45,
                    "time": 258.125,
                    "velocity": 0.4881889763779528,
                    "duration": 0.625
                },
                {
                    "name": "D2",
                    "midi": 38,
                    "time": 258.75,
                    "velocity": 0.4881889763779528,
                    "duration": 0.625
                },
                {
                    "name": "A2",
                    "midi": 45,
                    "time": 258.75,
                    "velocity": 0.4881889763779528,
                    "duration": 0.625
                },
                {
                    "name": "D2",
                    "midi": 38,
                    "time": 259.375,
                    "velocity": 0.4881889763779528,
                    "duration": 0.625
                },
                {
                    "name": "A2",
                    "midi": 45,
                    "time": 259.375,
                    "velocity": 0.4881889763779528,
                    "duration": 0.625
                },
                {
                    "name": "D2",
                    "midi": 38,
                    "time": 260,
                    "velocity": 0.4881889763779528,
                    "duration": 0.625
                },
                {
                    "name": "A2",
                    "midi": 45,
                    "time": 260,
                    "velocity": 0.4881889763779528,
                    "duration": 0.625
                },
                {
                    "name": "D2",
                    "midi": 38,
                    "time": 260.625,
                    "velocity": 0.4881889763779528,
                    "duration": 0.625
                },
                {
                    "name": "A2",
                    "midi": 45,
                    "time": 260.625,
                    "velocity": 0.4881889763779528,
                    "duration": 0.625
                },
                {
                    "name": "D2",
                    "midi": 38,
                    "time": 261.25,
                    "velocity": 0.4881889763779528,
                    "duration": 0.625
                },
                {
                    "name": "A2",
                    "midi": 45,
                    "time": 261.25,
                    "velocity": 0.4881889763779528,
                    "duration": 0.625
                },
                {
                    "name": "D2",
                    "midi": 38,
                    "time": 261.875,
                    "velocity": 0.4881889763779528,
                    "duration": 0.625
                },
                {
                    "name": "A2",
                    "midi": 45,
                    "time": 261.875,
                    "velocity": 0.4881889763779528,
                    "duration": 0.625
                },
                {
                    "name": "D2",
                    "midi": 38,
                    "time": 262.5,
                    "velocity": 0.4881889763779528,
                    "duration": 0.625
                },
                {
                    "name": "A2",
                    "midi": 45,
                    "time": 262.5,
                    "velocity": 0.4881889763779528,
                    "duration": 0.625
                },
                {
                    "name": "D2",
                    "midi": 38,
                    "time": 263.125,
                    "velocity": 0.4881889763779528,
                    "duration": 0.625
                },
                {
                    "name": "A2",
                    "midi": 45,
                    "time": 263.125,
                    "velocity": 0.4881889763779528,
                    "duration": 0.625
                },
                {
                    "name": "D2",
                    "midi": 38,
                    "time": 263.75,
                    "velocity": 0.4881889763779528,
                    "duration": 0.625
                },
                {
                    "name": "A2",
                    "midi": 45,
                    "time": 263.75,
                    "velocity": 0.4881889763779528,
                    "duration": 0.625
                },
                {
                    "name": "D2",
                    "midi": 38,
                    "time": 264.375,
                    "velocity": 0.4881889763779528,
                    "duration": 0.625
                },
                {
                    "name": "A2",
                    "midi": 45,
                    "time": 264.375,
                    "velocity": 0.4881889763779528,
                    "duration": 0.625
                },
                {
                    "name": "G2",
                    "midi": 43,
                    "time": 265,
                    "velocity": 0.4881889763779528,
                    "duration": 0.625
                },
                {
                    "name": "D3",
                    "midi": 50,
                    "time": 265,
                    "velocity": 0.4881889763779528,
                    "duration": 0.625
                },
                {
                    "name": "G2",
                    "midi": 43,
                    "time": 265.625,
                    "velocity": 0.4881889763779528,
                    "duration": 0.625
                },
                {
                    "name": "D3",
                    "midi": 50,
                    "time": 265.625,
                    "velocity": 0.4881889763779528,
                    "duration": 0.625
                },
                {
                    "name": "G2",
                    "midi": 43,
                    "time": 266.25,
                    "velocity": 0.4881889763779528,
                    "duration": 0.625
                },
                {
                    "name": "D3",
                    "midi": 50,
                    "time": 266.25,
                    "velocity": 0.4881889763779528,
                    "duration": 0.625
                },
                {
                    "name": "G2",
                    "midi": 43,
                    "time": 266.875,
                    "velocity": 0.4881889763779528,
                    "duration": 0.625
                },
                {
                    "name": "D3",
                    "midi": 50,
                    "time": 266.875,
                    "velocity": 0.4881889763779528,
                    "duration": 0.625
                },
                {
                    "name": "G2",
                    "midi": 43,
                    "time": 267.5,
                    "velocity": 0.4881889763779528,
                    "duration": 0.625
                },
                {
                    "name": "D3",
                    "midi": 50,
                    "time": 267.5,
                    "velocity": 0.4881889763779528,
                    "duration": 0.625
                },
                {
                    "name": "G2",
                    "midi": 43,
                    "time": 268.125,
                    "velocity": 0.4881889763779528,
                    "duration": 0.625
                },
                {
                    "name": "D3",
                    "midi": 50,
                    "time": 268.125,
                    "velocity": 0.4881889763779528,
                    "duration": 0.625
                },
                {
                    "name": "G2",
                    "midi": 43,
                    "time": 268.75,
                    "velocity": 0.4881889763779528,
                    "duration": 0.625
                },
                {
                    "name": "D3",
                    "midi": 50,
                    "time": 268.75,
                    "velocity": 0.4881889763779528,
                    "duration": 0.625
                },
                {
                    "name": "G2",
                    "midi": 43,
                    "time": 269.375,
                    "velocity": 0.4881889763779528,
                    "duration": 0.625
                },
                {
                    "name": "D3",
                    "midi": 50,
                    "time": 269.375,
                    "velocity": 0.4881889763779528,
                    "duration": 0.625
                },
                {
                    "name": "G2",
                    "midi": 43,
                    "time": 270,
                    "velocity": 0.4881889763779528,
                    "duration": 0.625
                },
                {
                    "name": "D3",
                    "midi": 50,
                    "time": 270,
                    "velocity": 0.4881889763779528,
                    "duration": 0.625
                },
                {
                    "name": "G2",
                    "midi": 43,
                    "time": 270.625,
                    "velocity": 0.4881889763779528,
                    "duration": 0.625
                },
                {
                    "name": "D3",
                    "midi": 50,
                    "time": 270.625,
                    "velocity": 0.4881889763779528,
                    "duration": 0.625
                },
                {
                    "name": "G2",
                    "midi": 43,
                    "time": 271.25,
                    "velocity": 0.4881889763779528,
                    "duration": 0.625
                },
                {
                    "name": "D3",
                    "midi": 50,
                    "time": 271.25,
                    "velocity": 0.4881889763779528,
                    "duration": 0.625
                },
                {
                    "name": "G2",
                    "midi": 43,
                    "time": 271.875,
                    "velocity": 0.4881889763779528,
                    "duration": 0.625
                },
                {
                    "name": "D3",
                    "midi": 50,
                    "time": 271.875,
                    "velocity": 0.4881889763779528,
                    "duration": 0.625
                },
                {
                    "name": "A2",
                    "midi": 45,
                    "time": 275,
                    "velocity": 0.4881889763779528,
                    "duration": 0.625
                },
                {
                    "name": "E3",
                    "midi": 52,
                    "time": 275,
                    "velocity": 0.4881889763779528,
                    "duration": 0.625
                },
                {
                    "name": "A2",
                    "midi": 45,
                    "time": 275.625,
                    "velocity": 0.4881889763779528,
                    "duration": 0.625
                },
                {
                    "name": "E3",
                    "midi": 52,
                    "time": 275.625,
                    "velocity": 0.4881889763779528,
                    "duration": 0.625
                },
                {
                    "name": "A2",
                    "midi": 45,
                    "time": 276.25,
                    "velocity": 0.4881889763779528,
                    "duration": 0.625
                },
                {
                    "name": "E3",
                    "midi": 52,
                    "time": 276.25,
                    "velocity": 0.4881889763779528,
                    "duration": 0.625
                },
                {
                    "name": "A2",
                    "midi": 45,
                    "time": 276.875,
                    "velocity": 0.4881889763779528,
                    "duration": 0.625
                },
                {
                    "name": "E3",
                    "midi": 52,
                    "time": 276.875,
                    "velocity": 0.4881889763779528,
                    "duration": 0.625
                },
                {
                    "name": "G2",
                    "midi": 43,
                    "time": 290,
                    "velocity": 0.4881889763779528,
                    "duration": 0.625
                },
                {
                    "name": "D3",
                    "midi": 50,
                    "time": 290,
                    "velocity": 0.4881889763779528,
                    "duration": 0.625
                },
                {
                    "name": "G2",
                    "midi": 43,
                    "time": 290.625,
                    "velocity": 0.4881889763779528,
                    "duration": 0.625
                },
                {
                    "name": "D3",
                    "midi": 50,
                    "time": 290.625,
                    "velocity": 0.4881889763779528,
                    "duration": 0.625
                },
                {
                    "name": "G2",
                    "midi": 43,
                    "time": 291.25,
                    "velocity": 0.4881889763779528,
                    "duration": 0.625
                },
                {
                    "name": "D3",
                    "midi": 50,
                    "time": 291.25,
                    "velocity": 0.4881889763779528,
                    "duration": 0.625
                },
                {
                    "name": "G2",
                    "midi": 43,
                    "time": 291.875,
                    "velocity": 0.4881889763779528,
                    "duration": 0.625
                },
                {
                    "name": "D3",
                    "midi": 50,
                    "time": 291.875,
                    "velocity": 0.4881889763779528,
                    "duration": 0.625
                },
                {
                    "name": "G2",
                    "midi": 43,
                    "time": 292.5,
                    "velocity": 0.4881889763779528,
                    "duration": 0.625
                },
                {
                    "name": "D3",
                    "midi": 50,
                    "time": 292.5,
                    "velocity": 0.4881889763779528,
                    "duration": 0.625
                },
                {
                    "name": "G2",
                    "midi": 43,
                    "time": 293.125,
                    "velocity": 0.4881889763779528,
                    "duration": 0.625
                },
                {
                    "name": "D3",
                    "midi": 50,
                    "time": 293.125,
                    "velocity": 0.4881889763779528,
                    "duration": 0.625
                },
                {
                    "name": "G2",
                    "midi": 43,
                    "time": 293.75,
                    "velocity": 0.4881889763779528,
                    "duration": 0.625
                },
                {
                    "name": "D3",
                    "midi": 50,
                    "time": 293.75,
                    "velocity": 0.4881889763779528,
                    "duration": 0.625
                },
                {
                    "name": "G2",
                    "midi": 43,
                    "time": 294.375,
                    "velocity": 0.4881889763779528,
                    "duration": 0.625
                },
                {
                    "name": "D3",
                    "midi": 50,
                    "time": 294.375,
                    "velocity": 0.4881889763779528,
                    "duration": 0.625
                },
                {
                    "name": "G2",
                    "midi": 43,
                    "time": 295,
                    "velocity": 0.4881889763779528,
                    "duration": 0.625
                },
                {
                    "name": "D3",
                    "midi": 50,
                    "time": 295,
                    "velocity": 0.4881889763779528,
                    "duration": 0.625
                },
                {
                    "name": "G2",
                    "midi": 43,
                    "time": 295.625,
                    "velocity": 0.4881889763779528,
                    "duration": 0.625
                },
                {
                    "name": "D3",
                    "midi": 50,
                    "time": 295.625,
                    "velocity": 0.4881889763779528,
                    "duration": 0.625
                },
                {
                    "name": "G2",
                    "midi": 43,
                    "time": 296.25,
                    "velocity": 0.4881889763779528,
                    "duration": 0.625
                },
                {
                    "name": "D3",
                    "midi": 50,
                    "time": 296.25,
                    "velocity": 0.4881889763779528,
                    "duration": 0.625
                },
                {
                    "name": "G2",
                    "midi": 43,
                    "time": 296.875,
                    "velocity": 0.4881889763779528,
                    "duration": 0.625
                },
                {
                    "name": "D3",
                    "midi": 50,
                    "time": 296.875,
                    "velocity": 0.4881889763779528,
                    "duration": 0.625
                },
                {
                    "name": "G2",
                    "midi": 43,
                    "time": 297.5,
                    "velocity": 0.4881889763779528,
                    "duration": 0.625
                },
                {
                    "name": "D3",
                    "midi": 50,
                    "time": 297.5,
                    "velocity": 0.4881889763779528,
                    "duration": 0.625
                },
                {
                    "name": "G2",
                    "midi": 43,
                    "time": 298.125,
                    "velocity": 0.4881889763779528,
                    "duration": 0.625
                },
                {
                    "name": "D3",
                    "midi": 50,
                    "time": 298.125,
                    "velocity": 0.4881889763779528,
                    "duration": 0.625
                },
                {
                    "name": "G2",
                    "midi": 43,
                    "time": 298.75,
                    "velocity": 0.4881889763779528,
                    "duration": 0.625
                },
                {
                    "name": "D3",
                    "midi": 50,
                    "time": 298.75,
                    "velocity": 0.4881889763779528,
                    "duration": 0.625
                },
                {
                    "name": "G2",
                    "midi": 43,
                    "time": 299.375,
                    "velocity": 0.4881889763779528,
                    "duration": 0.625
                },
                {
                    "name": "D3",
                    "midi": 50,
                    "time": 299.375,
                    "velocity": 0.4881889763779528,
                    "duration": 0.625
                },
                {
                    "name": "D4",
                    "midi": 62,
                    "time": 310,
                    "velocity": 0.5905511811023622,
                    "duration": 0.3125
                },
                {
                    "name": "A4",
                    "midi": 69,
                    "time": 310,
                    "velocity": 0.5905511811023622,
                    "duration": 0.3125
                },
                {
                    "name": "B4",
                    "midi": 71,
                    "time": 310.3125,
                    "velocity": 0.5905511811023622,
                    "duration": 0.3125
                },
                {
                    "name": "A4",
                    "midi": 69,
                    "time": 310.625,
                    "velocity": 0.5905511811023622,
                    "duration": 0.3125
                },
                {
                    "name": "D4",
                    "midi": 62,
                    "time": 310.9375,
                    "velocity": 0.5905511811023622,
                    "duration": 0.3125
                },
                {
                    "name": "F4",
                    "midi": 65,
                    "time": 311.25,
                    "velocity": 0.5905511811023622,
                    "duration": 0.3125
                },
                {
                    "name": "F#4",
                    "midi": 66,
                    "time": 311.5625,
                    "velocity": 0.5905511811023622,
                    "duration": 0.3125
                },
                {
                    "name": "G4",
                    "midi": 67,
                    "time": 311.875,
                    "velocity": 0.5905511811023622,
                    "duration": 0.3125
                },
                {
                    "name": "G#4",
                    "midi": 68,
                    "time": 312.1875,
                    "velocity": 0.5905511811023622,
                    "duration": 0.3125
                },
                {
                    "name": "A4",
                    "midi": 69,
                    "time": 312.5,
                    "velocity": 0.5905511811023622,
                    "duration": 0.3125
                },
                {
                    "name": "B4",
                    "midi": 71,
                    "time": 312.8125,
                    "velocity": 0.5905511811023622,
                    "duration": 0.3125
                },
                {
                    "name": "D5",
                    "midi": 74,
                    "time": 313.125,
                    "velocity": 0.5905511811023622,
                    "duration": 0.9375
                },
                {
                    "name": "E5",
                    "midi": 76,
                    "time": 314.0625,
                    "velocity": 0.5905511811023622,
                    "duration": 0.3125
                },
                {
                    "name": "F4",
                    "midi": 65,
                    "time": 314.375,
                    "velocity": 0.5905511811023622,
                    "duration": 0.3125
                },
                {
                    "name": "C5",
                    "midi": 72,
                    "time": 314.375,
                    "velocity": 0.5905511811023622,
                    "duration": 0.3125
                },
                {
                    "name": "B4",
                    "midi": 71,
                    "time": 314.6875,
                    "velocity": 0.5905511811023622,
                    "duration": 0.3125
                },
                {
                    "name": "D4",
                    "midi": 62,
                    "time": 315,
                    "velocity": 0.5905511811023622,
                    "duration": 0.3125
                },
                {
                    "name": "A4",
                    "midi": 69,
                    "time": 315,
                    "velocity": 0.5905511811023622,
                    "duration": 0.3125
                },
                {
                    "name": "B4",
                    "midi": 71,
                    "time": 315.3125,
                    "velocity": 0.5905511811023622,
                    "duration": 0.3125
                },
                {
                    "name": "A4",
                    "midi": 69,
                    "time": 315.625,
                    "velocity": 0.5905511811023622,
                    "duration": 0.3125
                },
                {
                    "name": "D4",
                    "midi": 62,
                    "time": 315.9375,
                    "velocity": 0.5905511811023622,
                    "duration": 0.3125
                },
                {
                    "name": "F4",
                    "midi": 65,
                    "time": 316.25,
                    "velocity": 0.5905511811023622,
                    "duration": 0.3125
                },
                {
                    "name": "F#4",
                    "midi": 66,
                    "time": 316.5625,
                    "velocity": 0.5905511811023622,
                    "duration": 0.3125
                },
                {
                    "name": "G4",
                    "midi": 67,
                    "time": 316.875,
                    "velocity": 0.5905511811023622,
                    "duration": 0.3125
                },
                {
                    "name": "G#4",
                    "midi": 68,
                    "time": 317.1875,
                    "velocity": 0.5905511811023622,
                    "duration": 0.3125
                },
                {
                    "name": "A4",
                    "midi": 69,
                    "time": 317.5,
                    "velocity": 0.5905511811023622,
                    "duration": 0.3125
                },
                {
                    "name": "B4",
                    "midi": 71,
                    "time": 317.8125,
                    "velocity": 0.5905511811023622,
                    "duration": 0.3125
                },
                {
                    "name": "D5",
                    "midi": 74,
                    "time": 318.125,
                    "velocity": 0.5905511811023622,
                    "duration": 0.9375
                },
                {
                    "name": "E5",
                    "midi": 76,
                    "time": 319.0625,
                    "velocity": 0.5905511811023622,
                    "duration": 0.3125
                },
                {
                    "name": "C5",
                    "midi": 72,
                    "time": 319.375,
                    "velocity": 0.5905511811023622,
                    "duration": 0.3125
                },
                {
                    "name": "B4",
                    "midi": 71,
                    "time": 319.6875,
                    "velocity": 0.5905511811023622,
                    "duration": 0.3125
                },
                {
                    "name": "D4",
                    "midi": 62,
                    "time": 320,
                    "velocity": 0.5905511811023622,
                    "duration": 0.3125
                },
                {
                    "name": "A4",
                    "midi": 69,
                    "time": 320,
                    "velocity": 0.5905511811023622,
                    "duration": 0.3125
                },
                {
                    "name": "B4",
                    "midi": 71,
                    "time": 320.3125,
                    "velocity": 0.5905511811023622,
                    "duration": 0.3125
                },
                {
                    "name": "A4",
                    "midi": 69,
                    "time": 320.625,
                    "velocity": 0.5905511811023622,
                    "duration": 0.15625
                },
                {
                    "name": "G#4",
                    "midi": 68,
                    "time": 320.78125,
                    "velocity": 0.5905511811023622,
                    "duration": 0.15625
                },
                {
                    "name": "G4",
                    "midi": 67,
                    "time": 320.9375,
                    "velocity": 0.5905511811023622,
                    "duration": 0.3125
                },
                {
                    "name": "F#4",
                    "midi": 66,
                    "time": 321.25,
                    "velocity": 0.5905511811023622,
                    "duration": 0.3125
                },
                {
                    "name": "B4",
                    "midi": 71,
                    "time": 321.25,
                    "velocity": 0.5905511811023622,
                    "duration": 0.3125
                },
                {
                    "name": "G4",
                    "midi": 67,
                    "time": 321.5625,
                    "velocity": 0.5905511811023622,
                    "duration": 0.3125
                },
                {
                    "name": "F#4",
                    "midi": 66,
                    "time": 321.875,
                    "velocity": 0.5905511811023622,
                    "duration": 0.15625
                },
                {
                    "name": "F4",
                    "midi": 65,
                    "time": 322.03125,
                    "velocity": 0.5905511811023622,
                    "duration": 0.15625
                },
                {
                    "name": "E4",
                    "midi": 64,
                    "time": 322.1875,
                    "velocity": 0.5905511811023622,
                    "duration": 0.3125
                },
                {
                    "name": "D4",
                    "midi": 62,
                    "time": 322.5,
                    "velocity": 0.5905511811023622,
                    "duration": 0.625
                },
                {
                    "name": "B4",
                    "midi": 71,
                    "time": 322.5,
                    "velocity": 0.5905511811023622,
                    "duration": 0.625
                },
                {
                    "name": "C4",
                    "midi": 60,
                    "time": 323.125,
                    "velocity": 0.5905511811023622,
                    "duration": 0.3125
                },
                {
                    "name": "C#4",
                    "midi": 61,
                    "time": 323.4375,
                    "velocity": 0.5905511811023622,
                    "duration": 0.3125
                },
                {
                    "name": "D4",
                    "midi": 62,
                    "time": 323.75,
                    "velocity": 0.5905511811023622,
                    "duration": 0.3125
                },
                {
                    "name": "E4",
                    "midi": 64,
                    "time": 324.0625,
                    "velocity": 0.5905511811023622,
                    "duration": 0.3125
                },
                {
                    "name": "F#4",
                    "midi": 66,
                    "time": 324.375,
                    "velocity": 0.5905511811023622,
                    "duration": 0.3125
                },
                {
                    "name": "G4",
                    "midi": 67,
                    "time": 324.6875,
                    "velocity": 0.5905511811023622,
                    "duration": 0.3125
                },
                {
                    "name": "A4",
                    "midi": 69,
                    "time": 325,
                    "velocity": 0.5905511811023622,
                    "duration": 0.3125
                },
                {
                    "name": "C5",
                    "midi": 72,
                    "time": 325,
                    "velocity": 0.5905511811023622,
                    "duration": 0.3125
                },
                {
                    "name": "B4",
                    "midi": 71,
                    "time": 325.3125,
                    "velocity": 0.5905511811023622,
                    "duration": 0.3125
                },
                {
                    "name": "A4",
                    "midi": 69,
                    "time": 325.625,
                    "velocity": 0.5905511811023622,
                    "duration": 0.3125
                },
                {
                    "name": "D4",
                    "midi": 62,
                    "time": 325.9375,
                    "velocity": 0.5905511811023622,
                    "duration": 0.3125
                },
                {
                    "name": "F4",
                    "midi": 65,
                    "time": 326.25,
                    "velocity": 0.5905511811023622,
                    "duration": 0.3125
                },
                {
                    "name": "F#4",
                    "midi": 66,
                    "time": 326.5625,
                    "velocity": 0.5905511811023622,
                    "duration": 0.3125
                },
                {
                    "name": "G4",
                    "midi": 67,
                    "time": 326.875,
                    "velocity": 0.5905511811023622,
                    "duration": 0.3125
                },
                {
                    "name": "G#4",
                    "midi": 68,
                    "time": 327.1875,
                    "velocity": 0.5905511811023622,
                    "duration": 0.3125
                },
                {
                    "name": "A4",
                    "midi": 69,
                    "time": 327.5,
                    "velocity": 0.5905511811023622,
                    "duration": 0.3125
                },
                {
                    "name": "B4",
                    "midi": 71,
                    "time": 327.8125,
                    "velocity": 0.5905511811023622,
                    "duration": 0.3125
                },
                {
                    "name": "D5",
                    "midi": 74,
                    "time": 328.125,
                    "velocity": 0.5905511811023622,
                    "duration": 1.25
                },
                {
                    "name": "E5",
                    "midi": 76,
                    "time": 329.375,
                    "velocity": 0.5905511811023622,
                    "duration": 0.625
                },
                {
                    "name": "F4",
                    "midi": 65,
                    "time": 330,
                    "velocity": 0.5905511811023622,
                    "duration": 2.5
                },
                {
                    "name": "F4",
                    "midi": 65,
                    "time": 332.5,
                    "velocity": 0.5905511811023622,
                    "duration": 1.875
                },
                {
                    "name": "B4",
                    "midi": 71,
                    "time": 334.375,
                    "velocity": 0.5905511811023622,
                    "duration": 0.625
                },
                {
                    "name": "C4",
                    "midi": 60,
                    "time": 335,
                    "velocity": 0.5905511811023622,
                    "duration": 4.375
                },
                {
                    "name": "E5",
                    "midi": 76,
                    "time": 339.375,
                    "velocity": 0.5905511811023622,
                    "duration": 0.625
                },
                {
                    "name": "F4",
                    "midi": 65,
                    "time": 340,
                    "velocity": 0.5905511811023622,
                    "duration": 4.375
                },
                {
                    "name": "B4",
                    "midi": 71,
                    "time": 344.375,
                    "velocity": 0.5905511811023622,
                    "duration": 0.625
                },
                {
                    "name": "C4",
                    "midi": 60,
                    "time": 345,
                    "velocity": 0.5905511811023622,
                    "duration": 2.5
                },
                {
                    "name": "D#4",
                    "midi": 63,
                    "time": 347.5,
                    "velocity": 0.5905511811023622,
                    "duration": 0.3125
                },
                {
                    "name": "A#4",
                    "midi": 70,
                    "time": 347.5,
                    "velocity": 0.5905511811023622,
                    "duration": 0.3125
                },
                {
                    "name": "C5",
                    "midi": 72,
                    "time": 347.8125,
                    "velocity": 0.5905511811023622,
                    "duration": 0.3125
                },
                {
                    "name": "A#4",
                    "midi": 70,
                    "time": 348.125,
                    "velocity": 0.5905511811023622,
                    "duration": 0.3125
                },
                {
                    "name": "D#4",
                    "midi": 63,
                    "time": 348.4375,
                    "velocity": 0.5905511811023622,
                    "duration": 0.3125
                },
                {
                    "name": "F#4",
                    "midi": 66,
                    "time": 348.75,
                    "velocity": 0.5905511811023622,
                    "duration": 0.3125
                },
                {
                    "name": "G4",
                    "midi": 67,
                    "time": 349.0625,
                    "velocity": 0.5905511811023622,
                    "duration": 0.3125
                },
                {
                    "name": "G#4",
                    "midi": 68,
                    "time": 349.375,
                    "velocity": 0.5905511811023622,
                    "duration": 0.3125
                },
                {
                    "name": "A4",
                    "midi": 69,
                    "time": 349.6875,
                    "velocity": 0.5905511811023622,
                    "duration": 0.3125
                },
                {
                    "name": "A#4",
                    "midi": 70,
                    "time": 350,
                    "velocity": 0.5905511811023622,
                    "duration": 0.3125
                },
                {
                    "name": "C5",
                    "midi": 72,
                    "time": 350.3125,
                    "velocity": 0.5905511811023622,
                    "duration": 0.3125
                },
                {
                    "name": "D#5",
                    "midi": 75,
                    "time": 350.625,
                    "velocity": 0.5905511811023622,
                    "duration": 0.9375
                },
                {
                    "name": "F#5",
                    "midi": 78,
                    "time": 351.5625,
                    "velocity": 0.5905511811023622,
                    "duration": 0.3125
                },
                {
                    "name": "F#4",
                    "midi": 66,
                    "time": 351.875,
                    "velocity": 0.5905511811023622,
                    "duration": 0.3125
                },
                {
                    "name": "C#5",
                    "midi": 73,
                    "time": 351.875,
                    "velocity": 0.5905511811023622,
                    "duration": 0.3125
                },
                {
                    "name": "C5",
                    "midi": 72,
                    "time": 352.1875,
                    "velocity": 0.5905511811023622,
                    "duration": 0.3125
                },
                {
                    "name": "D#4",
                    "midi": 63,
                    "time": 352.5,
                    "velocity": 0.5905511811023622,
                    "duration": 0.3125
                },
                {
                    "name": "A#4",
                    "midi": 70,
                    "time": 352.5,
                    "velocity": 0.5905511811023622,
                    "duration": 0.3125
                },
                {
                    "name": "C5",
                    "midi": 72,
                    "time": 352.8125,
                    "velocity": 0.5905511811023622,
                    "duration": 0.3125
                },
                {
                    "name": "A#4",
                    "midi": 70,
                    "time": 353.125,
                    "velocity": 0.5905511811023622,
                    "duration": 0.3125
                },
                {
                    "name": "D#4",
                    "midi": 63,
                    "time": 353.4375,
                    "velocity": 0.5905511811023622,
                    "duration": 0.3125
                },
                {
                    "name": "F#4",
                    "midi": 66,
                    "time": 353.75,
                    "velocity": 0.5905511811023622,
                    "duration": 0.3125
                },
                {
                    "name": "G4",
                    "midi": 67,
                    "time": 354.0625,
                    "velocity": 0.5905511811023622,
                    "duration": 0.3125
                },
                {
                    "name": "G#4",
                    "midi": 68,
                    "time": 354.375,
                    "velocity": 0.5905511811023622,
                    "duration": 0.3125
                },
                {
                    "name": "A4",
                    "midi": 69,
                    "time": 354.6875,
                    "velocity": 0.5905511811023622,
                    "duration": 0.3125
                },
                {
                    "name": "A#4",
                    "midi": 70,
                    "time": 355,
                    "velocity": 0.5905511811023622,
                    "duration": 0.3125
                },
                {
                    "name": "C5",
                    "midi": 72,
                    "time": 355.3125,
                    "velocity": 0.5905511811023622,
                    "duration": 0.3125
                },
                {
                    "name": "D#5",
                    "midi": 75,
                    "time": 355.625,
                    "velocity": 0.5905511811023622,
                    "duration": 0.9375
                },
                {
                    "name": "F#5",
                    "midi": 78,
                    "time": 356.5625,
                    "velocity": 0.5905511811023622,
                    "duration": 0.3125
                },
                {
                    "name": "D5",
                    "midi": 74,
                    "time": 356.875,
                    "velocity": 0.5905511811023622,
                    "duration": 0.3125
                },
                {
                    "name": "C5",
                    "midi": 72,
                    "time": 357.1875,
                    "velocity": 0.5905511811023622,
                    "duration": 0.3125
                },
                {
                    "name": "D#4",
                    "midi": 63,
                    "time": 357.5,
                    "velocity": 0.5905511811023622,
                    "duration": 0.3125
                },
                {
                    "name": "B4",
                    "midi": 71,
                    "time": 357.5,
                    "velocity": 0.5905511811023622,
                    "duration": 0.3125
                },
                {
                    "name": "C5",
                    "midi": 72,
                    "time": 357.8125,
                    "velocity": 0.5905511811023622,
                    "duration": 0.3125
                },
                {
                    "name": "B4",
                    "midi": 71,
                    "time": 358.125,
                    "velocity": 0.5905511811023622,
                    "duration": 0.15625
                },
                {
                    "name": "A4",
                    "midi": 69,
                    "time": 358.28125,
                    "velocity": 0.5905511811023622,
                    "duration": 0.15625
                },
                {
                    "name": "G#4",
                    "midi": 68,
                    "time": 358.4375,
                    "velocity": 0.5905511811023622,
                    "duration": 0.3125
                },
                {
                    "name": "G4",
                    "midi": 67,
                    "time": 358.75,
                    "velocity": 0.5905511811023622,
                    "duration": 0.3125
                },
                {
                    "name": "C5",
                    "midi": 72,
                    "time": 358.75,
                    "velocity": 0.5905511811023622,
                    "duration": 0.3125
                },
                {
                    "name": "G#4",
                    "midi": 68,
                    "time": 359.0625,
                    "velocity": 0.5905511811023622,
                    "duration": 0.3125
                },
                {
                    "name": "G4",
                    "midi": 67,
                    "time": 359.375,
                    "velocity": 0.5905511811023622,
                    "duration": 0.15625
                },
                {
                    "name": "F#4",
                    "midi": 66,
                    "time": 359.53125,
                    "velocity": 0.5905511811023622,
                    "duration": 0.15625
                },
                {
                    "name": "F4",
                    "midi": 65,
                    "time": 359.6875,
                    "velocity": 0.5905511811023622,
                    "duration": 0.3125
                },
                {
                    "name": "D#4",
                    "midi": 63,
                    "time": 360,
                    "velocity": 0.5905511811023622,
                    "duration": 0.625
                },
                {
                    "name": "C5",
                    "midi": 72,
                    "time": 360,
                    "velocity": 0.5905511811023622,
                    "duration": 0.625
                },
                {
                    "name": "C#4",
                    "midi": 61,
                    "time": 360.625,
                    "velocity": 0.5905511811023622,
                    "duration": 0.3125
                },
                {
                    "name": "D4",
                    "midi": 62,
                    "time": 360.9375,
                    "velocity": 0.5905511811023622,
                    "duration": 0.3125
                },
                {
                    "name": "D#4",
                    "midi": 63,
                    "time": 361.25,
                    "velocity": 0.5905511811023622,
                    "duration": 0.3125
                },
                {
                    "name": "F4",
                    "midi": 65,
                    "time": 361.5625,
                    "velocity": 0.5905511811023622,
                    "duration": 0.3125
                },
                {
                    "name": "G4",
                    "midi": 67,
                    "time": 361.875,
                    "velocity": 0.5905511811023622,
                    "duration": 0.3125
                },
                {
                    "name": "G#4",
                    "midi": 68,
                    "time": 362.1875,
                    "velocity": 0.5905511811023622,
                    "duration": 0.3125
                },
                {
                    "name": "D#4",
                    "midi": 63,
                    "time": 362.5,
                    "velocity": 0.5905511811023622,
                    "duration": 0.3125
                },
                {
                    "name": "G4",
                    "midi": 67,
                    "time": 362.5,
                    "velocity": 0.5905511811023622,
                    "duration": 0.3125
                },
                {
                    "name": "A4",
                    "midi": 69,
                    "time": 362.8125,
                    "velocity": 0.5905511811023622,
                    "duration": 0.3125
                },
                {
                    "name": "G4",
                    "midi": 67,
                    "time": 363.125,
                    "velocity": 0.5905511811023622,
                    "duration": 0.3125
                },
                {
                    "name": "A4",
                    "midi": 69,
                    "time": 363.4375,
                    "velocity": 0.5905511811023622,
                    "duration": 0.3125
                },
                {
                    "name": "G4",
                    "midi": 67,
                    "time": 363.75,
                    "velocity": 0.5905511811023622,
                    "duration": 0.3125
                },
                {
                    "name": "C#5",
                    "midi": 73,
                    "time": 363.75,
                    "velocity": 0.5905511811023622,
                    "duration": 0.3125
                },
                {
                    "name": "A4",
                    "midi": 69,
                    "time": 364.0625,
                    "velocity": 0.5905511811023622,
                    "duration": 0.3125
                },
                {
                    "name": "G4",
                    "midi": 67,
                    "time": 364.375,
                    "velocity": 0.5905511811023622,
                    "duration": 0.3125
                },
                {
                    "name": "A4",
                    "midi": 69,
                    "time": 364.6875,
                    "velocity": 0.5905511811023622,
                    "duration": 0.3125
                },
                {
                    "name": "G4",
                    "midi": 67,
                    "time": 365,
                    "velocity": 0.5905511811023622,
                    "duration": 0.3125
                },
                {
                    "name": "A4",
                    "midi": 69,
                    "time": 365.3125,
                    "velocity": 0.5905511811023622,
                    "duration": 0.3125
                },
                {
                    "name": "G4",
                    "midi": 67,
                    "time": 365.625,
                    "velocity": 0.5905511811023622,
                    "duration": 0.3125
                },
                {
                    "name": "A4",
                    "midi": 69,
                    "time": 365.9375,
                    "velocity": 0.5905511811023622,
                    "duration": 0.3125
                },
                {
                    "name": "G4",
                    "midi": 67,
                    "time": 366.25,
                    "velocity": 0.5905511811023622,
                    "duration": 0.3125
                },
                {
                    "name": "A4",
                    "midi": 69,
                    "time": 366.5625,
                    "velocity": 0.5905511811023622,
                    "duration": 0.3125
                },
                {
                    "name": "G4",
                    "midi": 67,
                    "time": 366.875,
                    "velocity": 0.5905511811023622,
                    "duration": 0.3125
                },
                {
                    "name": "A4",
                    "midi": 69,
                    "time": 367.1875,
                    "velocity": 0.5905511811023622,
                    "duration": 0.3125
                },
                {
                    "name": "G4",
                    "midi": 67,
                    "time": 367.5,
                    "velocity": 0.6929133858267716,
                    "duration": 0.3125
                },
                {
                    "name": "A4",
                    "midi": 69,
                    "time": 367.8125,
                    "velocity": 0.6929133858267716,
                    "duration": 0.3125
                },
                {
                    "name": "G4",
                    "midi": 67,
                    "time": 368.125,
                    "velocity": 0.6929133858267716,
                    "duration": 0.3125
                },
                {
                    "name": "A4",
                    "midi": 69,
                    "time": 368.4375,
                    "velocity": 0.6929133858267716,
                    "duration": 0.3125
                },
                {
                    "name": "G4",
                    "midi": 67,
                    "time": 368.75,
                    "velocity": 0.6929133858267716,
                    "duration": 0.3125
                },
                {
                    "name": "A4",
                    "midi": 69,
                    "time": 369.0625,
                    "velocity": 0.6929133858267716,
                    "duration": 0.3125
                },
                {
                    "name": "G4",
                    "midi": 67,
                    "time": 369.375,
                    "velocity": 0.6929133858267716,
                    "duration": 0.3125
                },
                {
                    "name": "A4",
                    "midi": 69,
                    "time": 369.6875,
                    "velocity": 0.6929133858267716,
                    "duration": 0.3125
                },
                {
                    "name": "G4",
                    "midi": 67,
                    "time": 370,
                    "velocity": 0.6929133858267716,
                    "duration": 0.15625
                },
                {
                    "name": "A4",
                    "midi": 69,
                    "time": 370.15625,
                    "velocity": 0.6929133858267716,
                    "duration": 0.15625
                },
                {
                    "name": "G4",
                    "midi": 67,
                    "time": 370.3125,
                    "velocity": 0.6929133858267716,
                    "duration": 0.15625
                },
                {
                    "name": "A4",
                    "midi": 69,
                    "time": 370.46875,
                    "velocity": 0.6929133858267716,
                    "duration": 0.15625
                },
                {
                    "name": "G4",
                    "midi": 67,
                    "time": 370.625,
                    "velocity": 0.6929133858267716,
                    "duration": 0.15625
                },
                {
                    "name": "A4",
                    "midi": 69,
                    "time": 370.78125,
                    "velocity": 0.6929133858267716,
                    "duration": 0.15625
                },
                {
                    "name": "G4",
                    "midi": 67,
                    "time": 370.9375,
                    "velocity": 0.6929133858267716,
                    "duration": 0.15625
                },
                {
                    "name": "A4",
                    "midi": 69,
                    "time": 371.09375,
                    "velocity": 0.6929133858267716,
                    "duration": 0.15625
                },
                {
                    "name": "G4",
                    "midi": 67,
                    "time": 371.25,
                    "velocity": 0.6929133858267716,
                    "duration": 0.15625
                },
                {
                    "name": "A4",
                    "midi": 69,
                    "time": 371.40625,
                    "velocity": 0.6929133858267716,
                    "duration": 0.15625
                },
                {
                    "name": "G4",
                    "midi": 67,
                    "time": 371.5625,
                    "velocity": 0.6929133858267716,
                    "duration": 0.15625
                },
                {
                    "name": "A4",
                    "midi": 69,
                    "time": 371.71875,
                    "velocity": 0.6929133858267716,
                    "duration": 0.15625
                },
                {
                    "name": "G4",
                    "midi": 67,
                    "time": 371.875,
                    "velocity": 0.6929133858267716,
                    "duration": 0.15625
                },
                {
                    "name": "A4",
                    "midi": 69,
                    "time": 372.03125,
                    "velocity": 0.6929133858267716,
                    "duration": 0.15625
                },
                {
                    "name": "G4",
                    "midi": 67,
                    "time": 372.1875,
                    "velocity": 0.6929133858267716,
                    "duration": 0.15625
                },
                {
                    "name": "A4",
                    "midi": 69,
                    "time": 372.34375,
                    "velocity": 0.6929133858267716,
                    "duration": 0.15625
                },
                {
                    "name": "D2",
                    "midi": 38,
                    "time": 372.5,
                    "velocity": 0.5905511811023622,
                    "duration": 0.3125
                },
                {
                    "name": "A2",
                    "midi": 45,
                    "time": 372.5,
                    "velocity": 0.5905511811023622,
                    "duration": 0.3125
                },
                {
                    "name": "A1",
                    "midi": 33,
                    "time": 373.125,
                    "velocity": 0.5905511811023622,
                    "duration": 0.3125
                },
                {
                    "name": "D2",
                    "midi": 38,
                    "time": 373.125,
                    "velocity": 0.5905511811023622,
                    "duration": 0.3125
                },
                {
                    "name": "A1",
                    "midi": 33,
                    "time": 373.75,
                    "velocity": 0.5905511811023622,
                    "duration": 0.3125
                },
                {
                    "name": "D2",
                    "midi": 38,
                    "time": 373.75,
                    "velocity": 0.5905511811023622,
                    "duration": 0.3125
                },
                {
                    "name": "D2",
                    "midi": 38,
                    "time": 374.375,
                    "velocity": 0.5905511811023622,
                    "duration": 0.3125
                },
                {
                    "name": "A2",
                    "midi": 45,
                    "time": 374.375,
                    "velocity": 0.5905511811023622,
                    "duration": 0.3125
                },
                {
                    "name": "A1",
                    "midi": 33,
                    "time": 375,
                    "velocity": 0.5905511811023622,
                    "duration": 0.3125
                },
                {
                    "name": "D2",
                    "midi": 38,
                    "time": 375,
                    "velocity": 0.5905511811023622,
                    "duration": 0.3125
                },
                {
                    "name": "D2",
                    "midi": 38,
                    "time": 375.625,
                    "velocity": 0.5905511811023622,
                    "duration": 0.3125
                },
                {
                    "name": "A2",
                    "midi": 45,
                    "time": 375.625,
                    "velocity": 0.5905511811023622,
                    "duration": 0.3125
                },
                {
                    "name": "D2",
                    "midi": 38,
                    "time": 376.25,
                    "velocity": 0.5905511811023622,
                    "duration": 0.3125
                },
                {
                    "name": "A2",
                    "midi": 45,
                    "time": 376.25,
                    "velocity": 0.5905511811023622,
                    "duration": 0.3125
                },
                {
                    "name": "A1",
                    "midi": 33,
                    "time": 376.875,
                    "velocity": 0.5905511811023622,
                    "duration": 0.3125
                },
                {
                    "name": "D2",
                    "midi": 38,
                    "time": 376.875,
                    "velocity": 0.5905511811023622,
                    "duration": 0.3125
                },
                {
                    "name": "D2",
                    "midi": 38,
                    "time": 377.5,
                    "velocity": 0.5905511811023622,
                    "duration": 0.3125
                },
                {
                    "name": "A2",
                    "midi": 45,
                    "time": 377.5,
                    "velocity": 0.5905511811023622,
                    "duration": 0.3125
                },
                {
                    "name": "A1",
                    "midi": 33,
                    "time": 378.125,
                    "velocity": 0.5905511811023622,
                    "duration": 0.3125
                },
                {
                    "name": "D2",
                    "midi": 38,
                    "time": 378.125,
                    "velocity": 0.5905511811023622,
                    "duration": 0.3125
                },
                {
                    "name": "A1",
                    "midi": 33,
                    "time": 378.75,
                    "velocity": 0.5905511811023622,
                    "duration": 0.3125
                },
                {
                    "name": "D2",
                    "midi": 38,
                    "time": 378.75,
                    "velocity": 0.5905511811023622,
                    "duration": 0.3125
                },
                {
                    "name": "D2",
                    "midi": 38,
                    "time": 379.375,
                    "velocity": 0.5905511811023622,
                    "duration": 0.3125
                },
                {
                    "name": "A2",
                    "midi": 45,
                    "time": 379.375,
                    "velocity": 0.5905511811023622,
                    "duration": 0.3125
                },
                {
                    "name": "A1",
                    "midi": 33,
                    "time": 380,
                    "velocity": 0.5905511811023622,
                    "duration": 0.3125
                },
                {
                    "name": "D2",
                    "midi": 38,
                    "time": 380,
                    "velocity": 0.5905511811023622,
                    "duration": 0.3125
                },
                {
                    "name": "D2",
                    "midi": 38,
                    "time": 380.625,
                    "velocity": 0.5905511811023622,
                    "duration": 0.3125
                },
                {
                    "name": "A2",
                    "midi": 45,
                    "time": 380.625,
                    "velocity": 0.5905511811023622,
                    "duration": 0.3125
                },
                {
                    "name": "D2",
                    "midi": 38,
                    "time": 381.25,
                    "velocity": 0.5905511811023622,
                    "duration": 0.3125
                },
                {
                    "name": "A2",
                    "midi": 45,
                    "time": 381.25,
                    "velocity": 0.5905511811023622,
                    "duration": 0.3125
                },
                {
                    "name": "A2",
                    "midi": 45,
                    "time": 381.875,
                    "velocity": 0.5905511811023622,
                    "duration": 0.3125
                },
                {
                    "name": "D3",
                    "midi": 50,
                    "time": 381.875,
                    "velocity": 0.5905511811023622,
                    "duration": 0.3125
                },
                {
                    "name": "G2",
                    "midi": 43,
                    "time": 382.5,
                    "velocity": 0.5905511811023622,
                    "duration": 0.3125
                },
                {
                    "name": "D3",
                    "midi": 50,
                    "time": 382.5,
                    "velocity": 0.5905511811023622,
                    "duration": 0.3125
                },
                {
                    "name": "D2",
                    "midi": 38,
                    "time": 383.125,
                    "velocity": 0.5905511811023622,
                    "duration": 0.3125
                },
                {
                    "name": "G2",
                    "midi": 43,
                    "time": 383.125,
                    "velocity": 0.5905511811023622,
                    "duration": 0.3125
                },
                {
                    "name": "D2",
                    "midi": 38,
                    "time": 383.75,
                    "velocity": 0.5905511811023622,
                    "duration": 0.3125
                },
                {
                    "name": "G2",
                    "midi": 43,
                    "time": 383.75,
                    "velocity": 0.5905511811023622,
                    "duration": 0.3125
                },
                {
                    "name": "G2",
                    "midi": 43,
                    "time": 384.375,
                    "velocity": 0.5905511811023622,
                    "duration": 0.3125
                },
                {
                    "name": "D3",
                    "midi": 50,
                    "time": 384.375,
                    "velocity": 0.5905511811023622,
                    "duration": 0.3125
                },
                {
                    "name": "D2",
                    "midi": 38,
                    "time": 385,
                    "velocity": 0.5905511811023622,
                    "duration": 0.3125
                },
                {
                    "name": "G2",
                    "midi": 43,
                    "time": 385,
                    "velocity": 0.5905511811023622,
                    "duration": 0.3125
                },
                {
                    "name": "G2",
                    "midi": 43,
                    "time": 385.625,
                    "velocity": 0.5905511811023622,
                    "duration": 0.3125
                },
                {
                    "name": "D3",
                    "midi": 50,
                    "time": 385.625,
                    "velocity": 0.5905511811023622,
                    "duration": 0.3125
                },
                {
                    "name": "G2",
                    "midi": 43,
                    "time": 386.25,
                    "velocity": 0.5905511811023622,
                    "duration": 0.3125
                },
                {
                    "name": "D3",
                    "midi": 50,
                    "time": 386.25,
                    "velocity": 0.5905511811023622,
                    "duration": 0.3125
                },
                {
                    "name": "D2",
                    "midi": 38,
                    "time": 386.875,
                    "velocity": 0.5905511811023622,
                    "duration": 0.3125
                },
                {
                    "name": "G2",
                    "midi": 43,
                    "time": 386.875,
                    "velocity": 0.5905511811023622,
                    "duration": 0.3125
                },
                {
                    "name": "G2",
                    "midi": 43,
                    "time": 387.5,
                    "velocity": 0.5905511811023622,
                    "duration": 0.3125
                },
                {
                    "name": "D3",
                    "midi": 50,
                    "time": 387.5,
                    "velocity": 0.5905511811023622,
                    "duration": 0.3125
                },
                {
                    "name": "D2",
                    "midi": 38,
                    "time": 388.125,
                    "velocity": 0.5905511811023622,
                    "duration": 0.3125
                },
                {
                    "name": "G2",
                    "midi": 43,
                    "time": 388.125,
                    "velocity": 0.5905511811023622,
                    "duration": 0.3125
                },
                {
                    "name": "D2",
                    "midi": 38,
                    "time": 388.75,
                    "velocity": 0.5905511811023622,
                    "duration": 0.3125
                },
                {
                    "name": "G2",
                    "midi": 43,
                    "time": 388.75,
                    "velocity": 0.5905511811023622,
                    "duration": 0.3125
                },
                {
                    "name": "G2",
                    "midi": 43,
                    "time": 389.375,
                    "velocity": 0.5905511811023622,
                    "duration": 0.3125
                },
                {
                    "name": "D3",
                    "midi": 50,
                    "time": 389.375,
                    "velocity": 0.5905511811023622,
                    "duration": 0.3125
                },
                {
                    "name": "D2",
                    "midi": 38,
                    "time": 390,
                    "velocity": 0.5905511811023622,
                    "duration": 0.3125
                },
                {
                    "name": "A2",
                    "midi": 45,
                    "time": 390,
                    "velocity": 0.5905511811023622,
                    "duration": 0.3125
                },
                {
                    "name": "A1",
                    "midi": 33,
                    "time": 390.625,
                    "velocity": 0.5905511811023622,
                    "duration": 0.3125
                },
                {
                    "name": "D2",
                    "midi": 38,
                    "time": 390.625,
                    "velocity": 0.5905511811023622,
                    "duration": 0.3125
                },
                {
                    "name": "A1",
                    "midi": 33,
                    "time": 391.25,
                    "velocity": 0.5905511811023622,
                    "duration": 0.3125
                },
                {
                    "name": "D2",
                    "midi": 38,
                    "time": 391.25,
                    "velocity": 0.5905511811023622,
                    "duration": 0.3125
                },
                {
                    "name": "D2",
                    "midi": 38,
                    "time": 391.875,
                    "velocity": 0.5905511811023622,
                    "duration": 0.3125
                },
                {
                    "name": "A2",
                    "midi": 45,
                    "time": 391.875,
                    "velocity": 0.5905511811023622,
                    "duration": 0.3125
                },
                {
                    "name": "C3",
                    "midi": 48,
                    "time": 429.0625,
                    "velocity": 0.5905511811023622,
                    "duration": 0.061197916666685614
                },
                {
                    "name": "G3",
                    "midi": 55,
                    "time": 429.0625,
                    "velocity": 0.5905511811023622,
                    "duration": 0.061197916666685614
                },
                {
                    "name": "C3",
                    "midi": 48,
                    "time": 429.375,
                    "velocity": 0.7952755905511811,
                    "duration": 0.061197916666685614
                },
                {
                    "name": "G3",
                    "midi": 55,
                    "time": 429.375,
                    "velocity": 0.7952755905511811,
                    "duration": 0.061197916666685614
                },
                {
                    "name": "C3",
                    "midi": 48,
                    "time": 430,
                    "velocity": 0.5905511811023622,
                    "duration": 0.061197916666685614
                },
                {
                    "name": "G3",
                    "midi": 55,
                    "time": 430,
                    "velocity": 0.5905511811023622,
                    "duration": 0.061197916666685614
                },
                {
                    "name": "A2",
                    "midi": 45,
                    "time": 430.3125,
                    "velocity": 0.7952755905511811,
                    "duration": 0.061197916666685614
                },
                {
                    "name": "E3",
                    "midi": 52,
                    "time": 430.3125,
                    "velocity": 0.7952755905511811,
                    "duration": 0.061197916666685614
                },
                {
                    "name": "A2",
                    "midi": 45,
                    "time": 430.9375,
                    "velocity": 0.5905511811023622,
                    "duration": 0.061197916666685614
                },
                {
                    "name": "E3",
                    "midi": 52,
                    "time": 430.9375,
                    "velocity": 0.5905511811023622,
                    "duration": 0.061197916666685614
                },
                {
                    "name": "D2",
                    "midi": 38,
                    "time": 431.25,
                    "velocity": 0.7952755905511811,
                    "duration": 0.061197916666685614
                },
                {
                    "name": "F3",
                    "midi": 53,
                    "time": 431.25,
                    "velocity": 0.7952755905511811,
                    "duration": 0.061197916666685614
                },
                {
                    "name": "D2",
                    "midi": 38,
                    "time": 431.875,
                    "velocity": 0.5905511811023622,
                    "duration": 0.061197916666685614
                },
                {
                    "name": "F3",
                    "midi": 53,
                    "time": 431.875,
                    "velocity": 0.5905511811023622,
                    "duration": 0.061197916666685614
                },
                {
                    "name": "F2",
                    "midi": 41,
                    "time": 432.1875,
                    "velocity": 0.7952755905511811,
                    "duration": 0.061197916666685614
                },
                {
                    "name": "D3",
                    "midi": 50,
                    "time": 432.1875,
                    "velocity": 0.7952755905511811,
                    "duration": 0.061197916666685614
                },
                {
                    "name": "G2",
                    "midi": 43,
                    "time": 432.8125,
                    "velocity": 0.5905511811023622,
                    "duration": 0.061197916666685614
                },
                {
                    "name": "F3",
                    "midi": 53,
                    "time": 432.8125,
                    "velocity": 0.5905511811023622,
                    "duration": 0.061197916666685614
                },
                {
                    "name": "G2",
                    "midi": 43,
                    "time": 433.125,
                    "velocity": 0.7952755905511811,
                    "duration": 0.061197916666685614
                },
                {
                    "name": "F3",
                    "midi": 53,
                    "time": 433.125,
                    "velocity": 0.7952755905511811,
                    "duration": 0.061197916666685614
                },
                {
                    "name": "C2",
                    "midi": 36,
                    "time": 433.75,
                    "velocity": 0.5905511811023622,
                    "duration": 0.3125
                },
                {
                    "name": "G2",
                    "midi": 43,
                    "time": 433.75,
                    "velocity": 0.5905511811023622,
                    "duration": 0.3125
                },
                {
                    "name": "E3",
                    "midi": 52,
                    "time": 433.75,
                    "velocity": 0.5905511811023622,
                    "duration": 0.3125
                },
                {
                    "name": "C2",
                    "midi": 36,
                    "time": 434.0625,
                    "velocity": 0.5905511811023622,
                    "duration": 0.3125
                },
                {
                    "name": "G2",
                    "midi": 43,
                    "time": 434.0625,
                    "velocity": 0.5905511811023622,
                    "duration": 0.3125
                },
                {
                    "name": "E3",
                    "midi": 52,
                    "time": 434.0625,
                    "velocity": 0.5905511811023622,
                    "duration": 0.3125
                },
                {
                    "name": "G#2",
                    "midi": 44,
                    "time": 434.6875,
                    "velocity": 0.5905511811023622,
                    "duration": 0.3125
                },
                {
                    "name": "D#3",
                    "midi": 51,
                    "time": 434.6875,
                    "velocity": 0.5905511811023622,
                    "duration": 0.3125
                },
                {
                    "name": "G#2",
                    "midi": 44,
                    "time": 435,
                    "velocity": 0.5905511811023622,
                    "duration": 0.3125
                },
                {
                    "name": "D#3",
                    "midi": 51,
                    "time": 435,
                    "velocity": 0.5905511811023622,
                    "duration": 0.3125
                },
                {
                    "name": "G2",
                    "midi": 43,
                    "time": 435.625,
                    "velocity": 0.5905511811023622,
                    "duration": 0.3125
                },
                {
                    "name": "D3",
                    "midi": 50,
                    "time": 435.625,
                    "velocity": 0.5905511811023622,
                    "duration": 0.3125
                },
                {
                    "name": "G2",
                    "midi": 43,
                    "time": 435.9375,
                    "velocity": 0.5905511811023622,
                    "duration": 0.3125
                },
                {
                    "name": "D3",
                    "midi": 50,
                    "time": 435.9375,
                    "velocity": 0.5905511811023622,
                    "duration": 0.3125
                },
                {
                    "name": "F#2",
                    "midi": 42,
                    "time": 436.5625,
                    "velocity": 0.5905511811023622,
                    "duration": 0.3125
                },
                {
                    "name": "C#3",
                    "midi": 49,
                    "time": 436.5625,
                    "velocity": 0.5905511811023622,
                    "duration": 0.3125
                },
                {
                    "name": "F#2",
                    "midi": 42,
                    "time": 436.875,
                    "velocity": 0.5905511811023622,
                    "duration": 0.3125
                },
                {
                    "name": "C#3",
                    "midi": 49,
                    "time": 436.875,
                    "velocity": 0.5905511811023622,
                    "duration": 0.3125
                },
                {
                    "name": "F2",
                    "midi": 41,
                    "time": 437.5,
                    "velocity": 0.5905511811023622,
                    "duration": 0.3125
                },
                {
                    "name": "C3",
                    "midi": 48,
                    "time": 437.5,
                    "velocity": 0.5905511811023622,
                    "duration": 0.3125
                },
                {
                    "name": "F2",
                    "midi": 41,
                    "time": 437.8125,
                    "velocity": 0.5905511811023622,
                    "duration": 0.3125
                },
                {
                    "name": "C3",
                    "midi": 48,
                    "time": 437.8125,
                    "velocity": 0.5905511811023622,
                    "duration": 0.3125
                },
                {
                    "name": "D2",
                    "midi": 38,
                    "time": 438.4375,
                    "velocity": 0.5905511811023622,
                    "duration": 0.3125
                },
                {
                    "name": "A2",
                    "midi": 45,
                    "time": 438.4375,
                    "velocity": 0.5905511811023622,
                    "duration": 0.3125
                },
                {
                    "name": "C2",
                    "midi": 36,
                    "time": 438.75,
                    "velocity": 0.5905511811023622,
                    "duration": 0.3125
                },
                {
                    "name": "G2",
                    "midi": 43,
                    "time": 438.75,
                    "velocity": 0.5905511811023622,
                    "duration": 0.3125
                },
                {
                    "name": "E3",
                    "midi": 52,
                    "time": 438.75,
                    "velocity": 0.5905511811023622,
                    "duration": 0.3125
                },
                {
                    "name": "C3",
                    "midi": 48,
                    "time": 439.375,
                    "velocity": 0.5905511811023622,
                    "duration": 0.3125
                },
                {
                    "name": "G3",
                    "midi": 55,
                    "time": 439.375,
                    "velocity": 0.5905511811023622,
                    "duration": 0.3125
                },
                {
                    "name": "C3",
                    "midi": 48,
                    "time": 439.6875,
                    "velocity": 0.5905511811023622,
                    "duration": 0.3125
                },
                {
                    "name": "G3",
                    "midi": 55,
                    "time": 439.6875,
                    "velocity": 0.5905511811023622,
                    "duration": 0.3125
                },
                {
                    "name": "A2",
                    "midi": 45,
                    "time": 440.3125,
                    "velocity": 0.5905511811023622,
                    "duration": 0.3125
                },
                {
                    "name": "E3",
                    "midi": 52,
                    "time": 440.3125,
                    "velocity": 0.5905511811023622,
                    "duration": 0.3125
                },
                {
                    "name": "A2",
                    "midi": 45,
                    "time": 440.625,
                    "velocity": 0.5905511811023622,
                    "duration": 0.3125
                },
                {
                    "name": "E3",
                    "midi": 52,
                    "time": 440.625,
                    "velocity": 0.5905511811023622,
                    "duration": 0.3125
                },
                {
                    "name": "D2",
                    "midi": 38,
                    "time": 441.25,
                    "velocity": 0.5905511811023622,
                    "duration": 0.3125
                },
                {
                    "name": "F3",
                    "midi": 53,
                    "time": 441.25,
                    "velocity": 0.5905511811023622,
                    "duration": 0.3125
                },
                {
                    "name": "D2",
                    "midi": 38,
                    "time": 441.5625,
                    "velocity": 0.5905511811023622,
                    "duration": 0.3125
                },
                {
                    "name": "F3",
                    "midi": 53,
                    "time": 441.5625,
                    "velocity": 0.5905511811023622,
                    "duration": 0.3125
                },
                {
                    "name": "F2",
                    "midi": 41,
                    "time": 442.1875,
                    "velocity": 0.5905511811023622,
                    "duration": 0.3125
                },
                {
                    "name": "D3",
                    "midi": 50,
                    "time": 442.1875,
                    "velocity": 0.5905511811023622,
                    "duration": 0.3125
                },
                {
                    "name": "G2",
                    "midi": 43,
                    "time": 442.5,
                    "velocity": 0.5905511811023622,
                    "duration": 0.3125
                },
                {
                    "name": "D#3",
                    "midi": 51,
                    "time": 442.5,
                    "velocity": 0.5905511811023622,
                    "duration": 0.3125
                },
                {
                    "name": "G2",
                    "midi": 43,
                    "time": 443.125,
                    "velocity": 0.5905511811023622,
                    "duration": 0.3125
                },
                {
                    "name": "F3",
                    "midi": 53,
                    "time": 443.125,
                    "velocity": 0.5905511811023622,
                    "duration": 0.3125
                },
                {
                    "name": "G2",
                    "midi": 43,
                    "time": 443.4375,
                    "velocity": 0.5905511811023622,
                    "duration": 0.3125
                },
                {
                    "name": "F3",
                    "midi": 53,
                    "time": 443.4375,
                    "velocity": 0.5905511811023622,
                    "duration": 0.3125
                },
                {
                    "name": "D3",
                    "midi": 50,
                    "time": 444.0625,
                    "velocity": 0.5905511811023622,
                    "duration": 0.3125
                },
                {
                    "name": "A3",
                    "midi": 57,
                    "time": 444.0625,
                    "velocity": 0.5905511811023622,
                    "duration": 0.3125
                },
                {
                    "name": "F4",
                    "midi": 65,
                    "time": 444.0625,
                    "velocity": 0.5905511811023622,
                    "duration": 0.3125
                },
                {
                    "name": "C3",
                    "midi": 48,
                    "time": 444.375,
                    "velocity": 0.5905511811023622,
                    "duration": 0.3125
                },
                {
                    "name": "G3",
                    "midi": 55,
                    "time": 444.375,
                    "velocity": 0.5905511811023622,
                    "duration": 0.3125
                },
                {
                    "name": "E4",
                    "midi": 64,
                    "time": 444.375,
                    "velocity": 0.5905511811023622,
                    "duration": 0.3125
                },
                {
                    "name": "B2",
                    "midi": 47,
                    "time": 445,
                    "velocity": 0.5905511811023622,
                    "duration": 0.3125
                },
                {
                    "name": "F3",
                    "midi": 53,
                    "time": 445,
                    "velocity": 0.5905511811023622,
                    "duration": 0.3125
                },
                {
                    "name": "D4",
                    "midi": 62,
                    "time": 445,
                    "velocity": 0.5905511811023622,
                    "duration": 0.3125
                },
                {
                    "name": "A2",
                    "midi": 45,
                    "time": 445.3125,
                    "velocity": 0.5905511811023622,
                    "duration": 0.3125
                },
                {
                    "name": "E3",
                    "midi": 52,
                    "time": 445.3125,
                    "velocity": 0.5905511811023622,
                    "duration": 0.3125
                },
                {
                    "name": "C4",
                    "midi": 60,
                    "time": 445.3125,
                    "velocity": 0.5905511811023622,
                    "duration": 0.3125
                },
                {
                    "name": "G2",
                    "midi": 43,
                    "time": 445.9375,
                    "velocity": 0.5905511811023622,
                    "duration": 0.3125
                },
                {
                    "name": "D3",
                    "midi": 50,
                    "time": 445.9375,
                    "velocity": 0.5905511811023622,
                    "duration": 0.3125
                },
                {
                    "name": "F2",
                    "midi": 41,
                    "time": 446.25,
                    "velocity": 0.5905511811023622,
                    "duration": 0.3125
                },
                {
                    "name": "C3",
                    "midi": 48,
                    "time": 446.25,
                    "velocity": 0.5905511811023622,
                    "duration": 0.3125
                },
                {
                    "name": "E2",
                    "midi": 40,
                    "time": 446.875,
                    "velocity": 0.5905511811023622,
                    "duration": 0.3125
                },
                {
                    "name": "B2",
                    "midi": 47,
                    "time": 446.875,
                    "velocity": 0.5905511811023622,
                    "duration": 0.3125
                },
                {
                    "name": "G3",
                    "midi": 55,
                    "time": 446.875,
                    "velocity": 0.5905511811023622,
                    "duration": 0.3125
                },
                {
                    "name": "D2",
                    "midi": 38,
                    "time": 447.1875,
                    "velocity": 0.5905511811023622,
                    "duration": 0.3125
                },
                {
                    "name": "A2",
                    "midi": 45,
                    "time": 447.1875,
                    "velocity": 0.5905511811023622,
                    "duration": 0.3125
                },
                {
                    "name": "F3",
                    "midi": 53,
                    "time": 447.1875,
                    "velocity": 0.5905511811023622,
                    "duration": 0.3125
                },
                {
                    "name": "C2",
                    "midi": 36,
                    "time": 447.8125,
                    "velocity": 0.5905511811023622,
                    "duration": 0.3125
                },
                {
                    "name": "F2",
                    "midi": 41,
                    "time": 447.8125,
                    "velocity": 0.5905511811023622,
                    "duration": 0.3125
                },
                {
                    "name": "E3",
                    "midi": 52,
                    "time": 447.8125,
                    "velocity": 0.5905511811023622,
                    "duration": 0.3125
                },
                {
                    "name": "F3",
                    "midi": 53,
                    "time": 447.8125,
                    "velocity": 0.5905511811023622,
                    "duration": 0.3125
                },
                {
                    "name": "A#1",
                    "midi": 34,
                    "time": 448.125,
                    "velocity": 0.5905511811023622,
                    "duration": 0.3125
                },
                {
                    "name": "F2",
                    "midi": 41,
                    "time": 448.125,
                    "velocity": 0.5905511811023622,
                    "duration": 0.3125
                },
                {
                    "name": "D3",
                    "midi": 50,
                    "time": 448.125,
                    "velocity": 0.5905511811023622,
                    "duration": 0.3125
                },
                {
                    "name": "F3",
                    "midi": 53,
                    "time": 448.125,
                    "velocity": 0.5905511811023622,
                    "duration": 0.3125
                },
                {
                    "name": "F2",
                    "midi": 41,
                    "time": 448.75,
                    "velocity": 0.5905511811023622,
                    "duration": 0.3125
                },
                {
                    "name": "C3",
                    "midi": 48,
                    "time": 448.75,
                    "velocity": 0.5905511811023622,
                    "duration": 0.3125
                },
                {
                    "name": "F2",
                    "midi": 41,
                    "time": 449.0625,
                    "velocity": 0.5905511811023622,
                    "duration": 0.3125
                },
                {
                    "name": "C3",
                    "midi": 48,
                    "time": 449.0625,
                    "velocity": 0.5905511811023622,
                    "duration": 0.3125
                },
                {
                    "name": "D2",
                    "midi": 38,
                    "time": 449.6875,
                    "velocity": 0.5905511811023622,
                    "duration": 0.3125
                },
                {
                    "name": "D3",
                    "midi": 50,
                    "time": 449.6875,
                    "velocity": 0.5905511811023622,
                    "duration": 0.3125
                },
                {
                    "name": "D2",
                    "midi": 38,
                    "time": 450,
                    "velocity": 0.5905511811023622,
                    "duration": 0.3125
                },
                {
                    "name": "D3",
                    "midi": 50,
                    "time": 450,
                    "velocity": 0.5905511811023622,
                    "duration": 0.3125
                },
                {
                    "name": "D2",
                    "midi": 38,
                    "time": 450.625,
                    "velocity": 0.5905511811023622,
                    "duration": 0.3125
                },
                {
                    "name": "D3",
                    "midi": 50,
                    "time": 450.625,
                    "velocity": 0.5905511811023622,
                    "duration": 0.3125
                },
                {
                    "name": "D2",
                    "midi": 38,
                    "time": 450.9375,
                    "velocity": 0.5905511811023622,
                    "duration": 0.3125
                },
                {
                    "name": "D3",
                    "midi": 50,
                    "time": 450.9375,
                    "velocity": 0.5905511811023622,
                    "duration": 0.3125
                },
                {
                    "name": "G2",
                    "midi": 43,
                    "time": 451.5625,
                    "velocity": 0.5905511811023622,
                    "duration": 0.3125
                },
                {
                    "name": "D3",
                    "midi": 50,
                    "time": 451.5625,
                    "velocity": 0.5905511811023622,
                    "duration": 0.3125
                },
                {
                    "name": "G2",
                    "midi": 43,
                    "time": 451.875,
                    "velocity": 0.5905511811023622,
                    "duration": 0.3125
                },
                {
                    "name": "D3",
                    "midi": 50,
                    "time": 451.875,
                    "velocity": 0.5905511811023622,
                    "duration": 0.3125
                },
                {
                    "name": "D2",
                    "midi": 38,
                    "time": 452.5,
                    "velocity": 0.5905511811023622,
                    "duration": 0.3125
                },
                {
                    "name": "D#3",
                    "midi": 51,
                    "time": 452.5,
                    "velocity": 0.5905511811023622,
                    "duration": 0.3125
                },
                {
                    "name": "D2",
                    "midi": 38,
                    "time": 452.8125,
                    "velocity": 0.5905511811023622,
                    "duration": 0.3125
                },
                {
                    "name": "D#3",
                    "midi": 51,
                    "time": 452.8125,
                    "velocity": 0.5905511811023622,
                    "duration": 0.3125
                },
                {
                    "name": "G2",
                    "midi": 43,
                    "time": 453.4375,
                    "velocity": 0.5905511811023622,
                    "duration": 0.3125
                },
                {
                    "name": "D3",
                    "midi": 50,
                    "time": 453.4375,
                    "velocity": 0.5905511811023622,
                    "duration": 0.3125
                },
                {
                    "name": "D2",
                    "midi": 38,
                    "time": 453.75,
                    "velocity": 0.5905511811023622,
                    "duration": 0.3125
                },
                {
                    "name": "D#3",
                    "midi": 51,
                    "time": 453.75,
                    "velocity": 0.5905511811023622,
                    "duration": 0.3125
                },
                {
                    "name": "G2",
                    "midi": 43,
                    "time": 454.375,
                    "velocity": 0.5905511811023622,
                    "duration": 0.3125
                },
                {
                    "name": "D3",
                    "midi": 50,
                    "time": 454.375,
                    "velocity": 0.5905511811023622,
                    "duration": 0.3125
                },
                {
                    "name": "G2",
                    "midi": 43,
                    "time": 454.6875,
                    "velocity": 0.5905511811023622,
                    "duration": 0.3125
                },
                {
                    "name": "D3",
                    "midi": 50,
                    "time": 454.6875,
                    "velocity": 0.5905511811023622,
                    "duration": 0.3125
                },
                {
                    "name": "D2",
                    "midi": 38,
                    "time": 455.3125,
                    "velocity": 0.5905511811023622,
                    "duration": 0.3125
                },
                {
                    "name": "D#3",
                    "midi": 51,
                    "time": 455.3125,
                    "velocity": 0.5905511811023622,
                    "duration": 0.3125
                },
                {
                    "name": "G2",
                    "midi": 43,
                    "time": 455.625,
                    "velocity": 0.5905511811023622,
                    "duration": 0.3125
                },
                {
                    "name": "C3",
                    "midi": 48,
                    "time": 455.625,
                    "velocity": 0.5905511811023622,
                    "duration": 0.3125
                },
                {
                    "name": "C3",
                    "midi": 48,
                    "time": 456.25,
                    "velocity": 0.5905511811023622,
                    "duration": 0.625
                },
                {
                    "name": "C4",
                    "midi": 60,
                    "time": 456.25,
                    "velocity": 0.5905511811023622,
                    "duration": 0.625
                },
                {
                    "name": "C2",
                    "midi": 36,
                    "time": 456.875,
                    "velocity": 0.5905511811023622,
                    "duration": 0.3125
                },
                {
                    "name": "C3",
                    "midi": 48,
                    "time": 456.875,
                    "velocity": 0.5905511811023622,
                    "duration": 0.3125
                },
                {
                    "name": "B2",
                    "midi": 47,
                    "time": 457.1875,
                    "velocity": 0.5905511811023622,
                    "duration": 0.625
                },
                {
                    "name": "B3",
                    "midi": 59,
                    "time": 457.1875,
                    "velocity": 0.5905511811023622,
                    "duration": 0.625
                },
                {
                    "name": "B1",
                    "midi": 35,
                    "time": 457.8125,
                    "velocity": 0.5905511811023622,
                    "duration": 0.3125
                },
                {
                    "name": "B2",
                    "midi": 47,
                    "time": 457.8125,
                    "velocity": 0.5905511811023622,
                    "duration": 0.3125
                },
                {
                    "name": "A2",
                    "midi": 45,
                    "time": 458.125,
                    "velocity": 0.5905511811023622,
                    "duration": 0.625
                },
                {
                    "name": "A3",
                    "midi": 57,
                    "time": 458.125,
                    "velocity": 0.5905511811023622,
                    "duration": 0.625
                },
                {
                    "name": "A1",
                    "midi": 33,
                    "time": 458.75,
                    "velocity": 0.6929133858267716,
                    "duration": 0.3125
                },
                {
                    "name": "A2",
                    "midi": 45,
                    "time": 458.75,
                    "velocity": 0.6929133858267716,
                    "duration": 0.3125
                },
                {
                    "name": "G2",
                    "midi": 43,
                    "time": 459.0625,
                    "velocity": 0.6929133858267716,
                    "duration": 0.625
                },
                {
                    "name": "G3",
                    "midi": 55,
                    "time": 459.0625,
                    "velocity": 0.6929133858267716,
                    "duration": 0.625
                },
                {
                    "name": "G1",
                    "midi": 31,
                    "time": 459.6875,
                    "velocity": 0.6929133858267716,
                    "duration": 0.3125
                },
                {
                    "name": "G2",
                    "midi": 43,
                    "time": 459.6875,
                    "velocity": 0.6929133858267716,
                    "duration": 0.3125
                },
                {
                    "name": "F2",
                    "midi": 41,
                    "time": 460,
                    "velocity": 0.6929133858267716,
                    "duration": 0.625
                },
                {
                    "name": "F3",
                    "midi": 53,
                    "time": 460,
                    "velocity": 0.6929133858267716,
                    "duration": 0.625
                },
                {
                    "name": "F1",
                    "midi": 29,
                    "time": 460.625,
                    "velocity": 0.6929133858267716,
                    "duration": 0.3125
                },
                {
                    "name": "F2",
                    "midi": 41,
                    "time": 460.625,
                    "velocity": 0.6929133858267716,
                    "duration": 0.3125
                },
                {
                    "name": "E2",
                    "midi": 40,
                    "time": 460.9375,
                    "velocity": 0.6929133858267716,
                    "duration": 0.3125
                },
                {
                    "name": "E3",
                    "midi": 52,
                    "time": 460.9375,
                    "velocity": 0.6929133858267716,
                    "duration": 0.3125
                },
                {
                    "name": "A1",
                    "midi": 33,
                    "time": 461.25,
                    "velocity": 0.6929133858267716,
                    "duration": 0.625
                },
                {
                    "name": "A2",
                    "midi": 45,
                    "time": 461.25,
                    "velocity": 0.6929133858267716,
                    "duration": 0.625
                },
                {
                    "name": "A2",
                    "midi": 45,
                    "time": 461.875,
                    "velocity": 0.6929133858267716,
                    "duration": 0.625
                },
                {
                    "name": "A3",
                    "midi": 57,
                    "time": 461.875,
                    "velocity": 0.6929133858267716,
                    "duration": 0.625
                },
                {
                    "name": "G#2",
                    "midi": 44,
                    "time": 462.5,
                    "velocity": 0.6929133858267716,
                    "duration": 0.625
                },
                {
                    "name": "G#3",
                    "midi": 56,
                    "time": 462.5,
                    "velocity": 0.6929133858267716,
                    "duration": 0.625
                },
                {
                    "name": "G#1",
                    "midi": 32,
                    "time": 463.125,
                    "velocity": 0.6929133858267716,
                    "duration": 0.625
                },
                {
                    "name": "G#2",
                    "midi": 44,
                    "time": 463.125,
                    "velocity": 0.6929133858267716,
                    "duration": 0.625
                },
                {
                    "name": "G1",
                    "midi": 31,
                    "time": 463.75,
                    "velocity": 0.6929133858267716,
                    "duration": 0.3125
                },
                {
                    "name": "G2",
                    "midi": 43,
                    "time": 463.75,
                    "velocity": 0.6929133858267716,
                    "duration": 0.3125
                },
                {
                    "name": "G2",
                    "midi": 43,
                    "time": 464.0625,
                    "velocity": 0.6929133858267716,
                    "duration": 0.3125
                },
                {
                    "name": "G3",
                    "midi": 55,
                    "time": 464.0625,
                    "velocity": 0.6929133858267716,
                    "duration": 0.3125
                },
                {
                    "name": "F#2",
                    "midi": 42,
                    "time": 464.375,
                    "velocity": 0.6929133858267716,
                    "duration": 0.3125
                },
                {
                    "name": "F#3",
                    "midi": 54,
                    "time": 464.375,
                    "velocity": 0.6929133858267716,
                    "duration": 0.3125
                },
                {
                    "name": "F#1",
                    "midi": 30,
                    "time": 464.6875,
                    "velocity": 0.6929133858267716,
                    "duration": 0.3125
                },
                {
                    "name": "F#2",
                    "midi": 42,
                    "time": 464.6875,
                    "velocity": 0.6929133858267716,
                    "duration": 0.3125
                },
                {
                    "name": "F1",
                    "midi": 29,
                    "time": 465,
                    "velocity": 0.6929133858267716,
                    "duration": 0.3125
                },
                {
                    "name": "F2",
                    "midi": 41,
                    "time": 465,
                    "velocity": 0.6929133858267716,
                    "duration": 0.3125
                },
                {
                    "name": "F2",
                    "midi": 41,
                    "time": 465.3125,
                    "velocity": 0.6929133858267716,
                    "duration": 0.3125
                },
                {
                    "name": "F3",
                    "midi": 53,
                    "time": 465.3125,
                    "velocity": 0.6929133858267716,
                    "duration": 0.3125
                },
                {
                    "name": "E2",
                    "midi": 40,
                    "time": 465.625,
                    "velocity": 0.6929133858267716,
                    "duration": 0.3125
                },
                {
                    "name": "E3",
                    "midi": 52,
                    "time": 465.625,
                    "velocity": 0.6929133858267716,
                    "duration": 0.3125
                },
                {
                    "name": "F1",
                    "midi": 29,
                    "time": 465.9375,
                    "velocity": 0.6929133858267716,
                    "duration": 0.3125
                },
                {
                    "name": "F2",
                    "midi": 41,
                    "time": 465.9375,
                    "velocity": 0.6929133858267716,
                    "duration": 0.3125
                },
                {
                    "name": "D#2",
                    "midi": 39,
                    "time": 466.25,
                    "velocity": 0.6929133858267716,
                    "duration": 0.061197916666685614
                },
                {
                    "name": "A#2",
                    "midi": 46,
                    "time": 466.25,
                    "velocity": 0.6929133858267716,
                    "duration": 0.061197916666685614
                },
                {
                    "name": "D#3",
                    "midi": 51,
                    "time": 466.25,
                    "velocity": 0.6929133858267716,
                    "duration": 0.061197916666685614
                },
                {
                    "name": "D#2",
                    "midi": 39,
                    "time": 466.5625,
                    "velocity": 0.8976377952755905,
                    "duration": 0.061197916666685614
                },
                {
                    "name": "A#2",
                    "midi": 46,
                    "time": 466.5625,
                    "velocity": 0.8976377952755905,
                    "duration": 0.061197916666685614
                },
                {
                    "name": "D#3",
                    "midi": 51,
                    "time": 466.5625,
                    "velocity": 0.8976377952755905,
                    "duration": 0.061197916666685614
                },
                {
                    "name": "D2",
                    "midi": 38,
                    "time": 467.1875,
                    "velocity": 0.6929133858267716,
                    "duration": 0.061197916666685614
                },
                {
                    "name": "A2",
                    "midi": 45,
                    "time": 467.1875,
                    "velocity": 0.6929133858267716,
                    "duration": 0.061197916666685614
                },
                {
                    "name": "D3",
                    "midi": 50,
                    "time": 467.1875,
                    "velocity": 0.6929133858267716,
                    "duration": 0.061197916666685614
                },
                {
                    "name": "D2",
                    "midi": 38,
                    "time": 467.5,
                    "velocity": 0.8976377952755905,
                    "duration": 0.061197916666685614
                },
                {
                    "name": "A2",
                    "midi": 45,
                    "time": 467.5,
                    "velocity": 0.8976377952755905,
                    "duration": 0.061197916666685614
                },
                {
                    "name": "D3",
                    "midi": 50,
                    "time": 467.5,
                    "velocity": 0.8976377952755905,
                    "duration": 0.061197916666685614
                },
                {
                    "name": "C#2",
                    "midi": 37,
                    "time": 468.125,
                    "velocity": 0.6929133858267716,
                    "duration": 0.061197916666685614
                },
                {
                    "name": "G#2",
                    "midi": 44,
                    "time": 468.125,
                    "velocity": 0.6929133858267716,
                    "duration": 0.061197916666685614
                },
                {
                    "name": "C#3",
                    "midi": 49,
                    "time": 468.125,
                    "velocity": 0.6929133858267716,
                    "duration": 0.061197916666685614
                },
                {
                    "name": "C#2",
                    "midi": 37,
                    "time": 468.4375,
                    "velocity": 0.8976377952755905,
                    "duration": 0.061197916666685614
                },
                {
                    "name": "G#2",
                    "midi": 44,
                    "time": 468.4375,
                    "velocity": 0.8976377952755905,
                    "duration": 0.061197916666685614
                },
                {
                    "name": "C#3",
                    "midi": 49,
                    "time": 468.4375,
                    "velocity": 0.8976377952755905,
                    "duration": 0.061197916666685614
                },
                {
                    "name": "C2",
                    "midi": 36,
                    "time": 469.0625,
                    "velocity": 0.6929133858267716,
                    "duration": 0.061197916666685614
                },
                {
                    "name": "G2",
                    "midi": 43,
                    "time": 469.0625,
                    "velocity": 0.6929133858267716,
                    "duration": 0.061197916666685614
                },
                {
                    "name": "C3",
                    "midi": 48,
                    "time": 469.0625,
                    "velocity": 0.6929133858267716,
                    "duration": 0.061197916666685614
                },
                {
                    "name": "C2",
                    "midi": 36,
                    "time": 469.375,
                    "velocity": 0.8976377952755905,
                    "duration": 0.061197916666685614
                },
                {
                    "name": "G2",
                    "midi": 43,
                    "time": 469.375,
                    "velocity": 0.8976377952755905,
                    "duration": 0.061197916666685614
                },
                {
                    "name": "C3",
                    "midi": 48,
                    "time": 469.375,
                    "velocity": 0.8976377952755905,
                    "duration": 0.061197916666685614
                },
                {
                    "name": "B1",
                    "midi": 35,
                    "time": 470,
                    "velocity": 0.6929133858267716,
                    "duration": 0.061197916666685614
                },
                {
                    "name": "F2",
                    "midi": 41,
                    "time": 470,
                    "velocity": 0.6929133858267716,
                    "duration": 0.061197916666685614
                },
                {
                    "name": "B2",
                    "midi": 47,
                    "time": 470,
                    "velocity": 0.6929133858267716,
                    "duration": 0.061197916666685614
                },
                {
                    "name": "B1",
                    "midi": 35,
                    "time": 470.3125,
                    "velocity": 0.8976377952755905,
                    "duration": 0.061197916666685614
                },
                {
                    "name": "F2",
                    "midi": 41,
                    "time": 470.3125,
                    "velocity": 0.8976377952755905,
                    "duration": 0.061197916666685614
                },
                {
                    "name": "B2",
                    "midi": 47,
                    "time": 470.3125,
                    "velocity": 0.8976377952755905,
                    "duration": 0.061197916666685614
                },
                {
                    "name": "A#1",
                    "midi": 34,
                    "time": 470.9375,
                    "velocity": 0.6929133858267716,
                    "duration": 0.3125
                },
                {
                    "name": "F2",
                    "midi": 41,
                    "time": 470.9375,
                    "velocity": 0.6929133858267716,
                    "duration": 0.3125
                },
                {
                    "name": "A#2",
                    "midi": 46,
                    "time": 470.9375,
                    "velocity": 0.6929133858267716,
                    "duration": 0.3125
                },
                {
                    "name": "A1",
                    "midi": 33,
                    "time": 471.25,
                    "velocity": 0.5905511811023622,
                    "duration": 1.25
                },
                {
                    "name": "A2",
                    "midi": 45,
                    "time": 471.25,
                    "velocity": 0.5905511811023622,
                    "duration": 1.25
                },
                {
                    "name": "E2",
                    "midi": 40,
                    "time": 472.5,
                    "velocity": 0.5905511811023622,
                    "duration": 0.061197916666685614
                },
                {
                    "name": "E3",
                    "midi": 52,
                    "time": 472.5,
                    "velocity": 0.5905511811023622,
                    "duration": 0.061197916666685614
                },
                {
                    "name": "A1",
                    "midi": 33,
                    "time": 472.8125,
                    "velocity": 0.5905511811023622,
                    "duration": 0.061197916666685614
                },
                {
                    "name": "A2",
                    "midi": 45,
                    "time": 472.8125,
                    "velocity": 0.5905511811023622,
                    "duration": 0.061197916666685614
                },
                {
                    "name": "C#2",
                    "midi": 37,
                    "time": 473.125,
                    "velocity": 0.5905511811023622,
                    "duration": 0.061197916666685614
                },
                {
                    "name": "C#3",
                    "midi": 49,
                    "time": 473.125,
                    "velocity": 0.5905511811023622,
                    "duration": 0.061197916666685614
                },
                {
                    "name": "E2",
                    "midi": 40,
                    "time": 473.4375,
                    "velocity": 0.5905511811023622,
                    "duration": 0.061197916666685614
                },
                {
                    "name": "E3",
                    "midi": 52,
                    "time": 473.4375,
                    "velocity": 0.5905511811023622,
                    "duration": 0.061197916666685614
                },
                {
                    "name": "F2",
                    "midi": 41,
                    "time": 473.75,
                    "velocity": 0.7952755905511811,
                    "duration": 0.3125
                },
                {
                    "name": "F3",
                    "midi": 53,
                    "time": 473.75,
                    "velocity": 0.7952755905511811,
                    "duration": 0.3125
                },
                {
                    "name": "E2",
                    "midi": 40,
                    "time": 474.0625,
                    "velocity": 0.5905511811023622,
                    "duration": 0.029947916666685614
                },
                {
                    "name": "E3",
                    "midi": 52,
                    "time": 474.0625,
                    "velocity": 0.5905511811023622,
                    "duration": 0.029947916666685614
                },
                {
                    "name": "F2",
                    "midi": 41,
                    "time": 474.21875,
                    "velocity": 0.5905511811023622,
                    "duration": 0.029947916666685614
                },
                {
                    "name": "F3",
                    "midi": 53,
                    "time": 474.21875,
                    "velocity": 0.5905511811023622,
                    "duration": 0.029947916666685614
                },
                {
                    "name": "E2",
                    "midi": 40,
                    "time": 474.375,
                    "velocity": 0.5905511811023622,
                    "duration": 0.029947916666685614
                },
                {
                    "name": "E3",
                    "midi": 52,
                    "time": 474.375,
                    "velocity": 0.5905511811023622,
                    "duration": 0.029947916666685614
                },
                {
                    "name": "F2",
                    "midi": 41,
                    "time": 474.53125,
                    "velocity": 0.5905511811023622,
                    "duration": 0.061197916666685614
                },
                {
                    "name": "F3",
                    "midi": 53,
                    "time": 474.53125,
                    "velocity": 0.5905511811023622,
                    "duration": 0.061197916666685614
                },
                {
                    "name": "E2",
                    "midi": 40,
                    "time": 474.84375,
                    "velocity": 0.5905511811023622,
                    "duration": 0.029947916666685614
                },
                {
                    "name": "E3",
                    "midi": 52,
                    "time": 474.84375,
                    "velocity": 0.5905511811023622,
                    "duration": 0.029947916666685614
                },
                {
                    "name": "D#2",
                    "midi": 39,
                    "time": 475,
                    "velocity": 0.7952755905511811,
                    "duration": 0.3125
                },
                {
                    "name": "D#3",
                    "midi": 51,
                    "time": 475,
                    "velocity": 0.7952755905511811,
                    "duration": 0.3125
                },
                {
                    "name": "D2",
                    "midi": 38,
                    "time": 475.3125,
                    "velocity": 0.5905511811023622,
                    "duration": 0.029947916666685614
                },
                {
                    "name": "D3",
                    "midi": 50,
                    "time": 475.3125,
                    "velocity": 0.5905511811023622,
                    "duration": 0.029947916666685614
                },
                {
                    "name": "D#2",
                    "midi": 39,
                    "time": 475.46875,
                    "velocity": 0.5905511811023622,
                    "duration": 0.029947916666685614
                },
                {
                    "name": "D#3",
                    "midi": 51,
                    "time": 475.46875,
                    "velocity": 0.5905511811023622,
                    "duration": 0.029947916666685614
                },
                {
                    "name": "D2",
                    "midi": 38,
                    "time": 475.625,
                    "velocity": 0.5905511811023622,
                    "duration": 0.029947916666685614
                },
                {
                    "name": "D3",
                    "midi": 50,
                    "time": 475.625,
                    "velocity": 0.5905511811023622,
                    "duration": 0.029947916666685614
                },
                {
                    "name": "D#2",
                    "midi": 39,
                    "time": 475.78125,
                    "velocity": 0.5905511811023622,
                    "duration": 0.061197916666685614
                },
                {
                    "name": "D#3",
                    "midi": 51,
                    "time": 475.78125,
                    "velocity": 0.5905511811023622,
                    "duration": 0.061197916666685614
                },
                {
                    "name": "D2",
                    "midi": 38,
                    "time": 476.09375,
                    "velocity": 0.5905511811023622,
                    "duration": 0.029947916666685614
                },
                {
                    "name": "D3",
                    "midi": 50,
                    "time": 476.09375,
                    "velocity": 0.5905511811023622,
                    "duration": 0.029947916666685614
                },
                {
                    "name": "C#2",
                    "midi": 37,
                    "time": 476.25,
                    "velocity": 0.5905511811023622,
                    "duration": 1.5625
                },
                {
                    "name": "C#3",
                    "midi": 49,
                    "time": 476.25,
                    "velocity": 0.5905511811023622,
                    "duration": 1.5625
                },
                {
                    "name": "F#1",
                    "midi": 30,
                    "time": 477.8125,
                    "velocity": 0.5905511811023622,
                    "duration": 0.3125
                },
                {
                    "name": "F#2",
                    "midi": 42,
                    "time": 477.8125,
                    "velocity": 0.5905511811023622,
                    "duration": 0.3125
                },
                {
                    "name": "A#1",
                    "midi": 34,
                    "time": 478.125,
                    "velocity": 0.5905511811023622,
                    "duration": 0.3125
                },
                {
                    "name": "A#2",
                    "midi": 46,
                    "time": 478.125,
                    "velocity": 0.5905511811023622,
                    "duration": 0.3125
                },
                {
                    "name": "C#2",
                    "midi": 37,
                    "time": 478.4375,
                    "velocity": 0.5905511811023622,
                    "duration": 0.3125
                },
                {
                    "name": "C#3",
                    "midi": 49,
                    "time": 478.4375,
                    "velocity": 0.5905511811023622,
                    "duration": 0.3125
                },
                {
                    "name": "D2",
                    "midi": 38,
                    "time": 478.75,
                    "velocity": 0.7952755905511811,
                    "duration": 0.3125
                },
                {
                    "name": "D3",
                    "midi": 50,
                    "time": 478.75,
                    "velocity": 0.7952755905511811,
                    "duration": 0.3125
                },
                {
                    "name": "C#2",
                    "midi": 37,
                    "time": 479.0625,
                    "velocity": 0.5905511811023622,
                    "duration": 0.029947916666685614
                },
                {
                    "name": "C#3",
                    "midi": 49,
                    "time": 479.0625,
                    "velocity": 0.5905511811023622,
                    "duration": 0.029947916666685614
                },
                {
                    "name": "D2",
                    "midi": 38,
                    "time": 479.21875,
                    "velocity": 0.5905511811023622,
                    "duration": 0.029947916666685614
                },
                {
                    "name": "D3",
                    "midi": 50,
                    "time": 479.21875,
                    "velocity": 0.5905511811023622,
                    "duration": 0.029947916666685614
                },
                {
                    "name": "C#2",
                    "midi": 37,
                    "time": 479.375,
                    "velocity": 0.5905511811023622,
                    "duration": 0.029947916666685614
                },
                {
                    "name": "C#3",
                    "midi": 49,
                    "time": 479.375,
                    "velocity": 0.5905511811023622,
                    "duration": 0.029947916666685614
                },
                {
                    "name": "D2",
                    "midi": 38,
                    "time": 479.53125,
                    "velocity": 0.5905511811023622,
                    "duration": 0.061197916666685614
                },
                {
                    "name": "D3",
                    "midi": 50,
                    "time": 479.53125,
                    "velocity": 0.5905511811023622,
                    "duration": 0.061197916666685614
                },
                {
                    "name": "C#2",
                    "midi": 37,
                    "time": 479.84375,
                    "velocity": 0.5905511811023622,
                    "duration": 0.029947916666685614
                },
                {
                    "name": "C#3",
                    "midi": 49,
                    "time": 479.84375,
                    "velocity": 0.5905511811023622,
                    "duration": 0.029947916666685614
                },
                {
                    "name": "C2",
                    "midi": 36,
                    "time": 480,
                    "velocity": 0.7952755905511811,
                    "duration": 0.3125
                },
                {
                    "name": "C3",
                    "midi": 48,
                    "time": 480,
                    "velocity": 0.7952755905511811,
                    "duration": 0.3125
                },
                {
                    "name": "B1",
                    "midi": 35,
                    "time": 480.3125,
                    "velocity": 0.5905511811023622,
                    "duration": 0.029947916666685614
                },
                {
                    "name": "B2",
                    "midi": 47,
                    "time": 480.3125,
                    "velocity": 0.5905511811023622,
                    "duration": 0.029947916666685614
                },
                {
                    "name": "C2",
                    "midi": 36,
                    "time": 480.46875,
                    "velocity": 0.5905511811023622,
                    "duration": 0.029947916666685614
                },
                {
                    "name": "C3",
                    "midi": 48,
                    "time": 480.46875,
                    "velocity": 0.5905511811023622,
                    "duration": 0.029947916666685614
                },
                {
                    "name": "B1",
                    "midi": 35,
                    "time": 480.625,
                    "velocity": 0.5905511811023622,
                    "duration": 0.029947916666685614
                },
                {
                    "name": "B2",
                    "midi": 47,
                    "time": 480.625,
                    "velocity": 0.5905511811023622,
                    "duration": 0.029947916666685614
                },
                {
                    "name": "C2",
                    "midi": 36,
                    "time": 480.78125,
                    "velocity": 0.5905511811023622,
                    "duration": 0.061197916666685614
                },
                {
                    "name": "C3",
                    "midi": 48,
                    "time": 480.78125,
                    "velocity": 0.5905511811023622,
                    "duration": 0.061197916666685614
                },
                {
                    "name": "B1",
                    "midi": 35,
                    "time": 481.09375,
                    "velocity": 0.5905511811023622,
                    "duration": 0.029947916666685614
                },
                {
                    "name": "B2",
                    "midi": 47,
                    "time": 481.09375,
                    "velocity": 0.5905511811023622,
                    "duration": 0.029947916666685614
                },
                {
                    "name": "A#1",
                    "midi": 34,
                    "time": 481.25,
                    "velocity": 0.7952755905511811,
                    "duration": 0.625
                },
                {
                    "name": "A#2",
                    "midi": 46,
                    "time": 481.25,
                    "velocity": 0.7952755905511811,
                    "duration": 0.625
                },
                {
                    "name": "F#1",
                    "midi": 30,
                    "time": 482.1875,
                    "velocity": 0.7952755905511811,
                    "duration": 0.625
                },
                {
                    "name": "F#2",
                    "midi": 42,
                    "time": 482.1875,
                    "velocity": 0.7952755905511811,
                    "duration": 0.625
                },
                {
                    "name": "G#1",
                    "midi": 32,
                    "time": 482.8125,
                    "velocity": 0.7952755905511811,
                    "duration": 0.625
                },
                {
                    "name": "G#2",
                    "midi": 44,
                    "time": 482.8125,
                    "velocity": 0.7952755905511811,
                    "duration": 0.625
                },
                {
                    "name": "A1",
                    "midi": 33,
                    "time": 483.4375,
                    "velocity": 0.7952755905511811,
                    "duration": 0.625
                },
                {
                    "name": "A2",
                    "midi": 45,
                    "time": 483.4375,
                    "velocity": 0.7952755905511811,
                    "duration": 0.625
                },
                {
                    "name": "A#1",
                    "midi": 34,
                    "time": 484.0625,
                    "velocity": 0.7952755905511811,
                    "duration": 0.625
                },
                {
                    "name": "A#2",
                    "midi": 46,
                    "time": 484.0625,
                    "velocity": 0.7952755905511811,
                    "duration": 0.625
                },
                {
                    "name": "A#1",
                    "midi": 34,
                    "time": 484.6875,
                    "velocity": 0.5905511811023622,
                    "duration": 0.625
                },
                {
                    "name": "A#2",
                    "midi": 46,
                    "time": 484.6875,
                    "velocity": 0.5905511811023622,
                    "duration": 0.625
                },
                {
                    "name": "F#1",
                    "midi": 30,
                    "time": 485.3125,
                    "velocity": 0.5905511811023622,
                    "duration": 0.625
                },
                {
                    "name": "F#2",
                    "midi": 42,
                    "time": 485.3125,
                    "velocity": 0.5905511811023622,
                    "duration": 0.625
                },
                {
                    "name": "G#1",
                    "midi": 32,
                    "time": 485.9375,
                    "velocity": 0.5905511811023622,
                    "duration": 0.625
                },
                {
                    "name": "G#2",
                    "midi": 44,
                    "time": 485.9375,
                    "velocity": 0.5905511811023622,
                    "duration": 0.625
                },
                {
                    "name": "A1",
                    "midi": 33,
                    "time": 486.5625,
                    "velocity": 0.5905511811023622,
                    "duration": 0.625
                },
                {
                    "name": "A2",
                    "midi": 45,
                    "time": 486.5625,
                    "velocity": 0.5905511811023622,
                    "duration": 0.625
                },
                {
                    "name": "A#1",
                    "midi": 34,
                    "time": 487.1875,
                    "velocity": 0.5905511811023622,
                    "duration": 0.3125
                },
                {
                    "name": "A#2",
                    "midi": 46,
                    "time": 487.1875,
                    "velocity": 0.5905511811023622,
                    "duration": 0.3125
                },
                {
                    "name": "D#2",
                    "midi": 39,
                    "time": 487.8125,
                    "velocity": 0.7952755905511811,
                    "duration": 0.625
                },
                {
                    "name": "D#3",
                    "midi": 51,
                    "time": 487.8125,
                    "velocity": 0.7952755905511811,
                    "duration": 0.625
                },
                {
                    "name": "G#1",
                    "midi": 32,
                    "time": 488.4375,
                    "velocity": 0.7952755905511811,
                    "duration": 0.625
                },
                {
                    "name": "G#2",
                    "midi": 44,
                    "time": 488.4375,
                    "velocity": 0.7952755905511811,
                    "duration": 0.625
                },
                {
                    "name": "A#1",
                    "midi": 34,
                    "time": 489.0625,
                    "velocity": 0.7952755905511811,
                    "duration": 0.3125
                },
                {
                    "name": "A#2",
                    "midi": 46,
                    "time": 489.0625,
                    "velocity": 0.7952755905511811,
                    "duration": 0.3125
                },
                {
                    "name": "D#2",
                    "midi": 39,
                    "time": 489.6875,
                    "velocity": 0.5905511811023622,
                    "duration": 0.625
                },
                {
                    "name": "D#3",
                    "midi": 51,
                    "time": 489.6875,
                    "velocity": 0.5905511811023622,
                    "duration": 0.625
                },
                {
                    "name": "G#1",
                    "midi": 32,
                    "time": 490.3125,
                    "velocity": 0.5905511811023622,
                    "duration": 0.625
                },
                {
                    "name": "G#2",
                    "midi": 44,
                    "time": 490.3125,
                    "velocity": 0.5905511811023622,
                    "duration": 0.625
                },
                {
                    "name": "A#1",
                    "midi": 34,
                    "time": 490.9375,
                    "velocity": 0.5905511811023622,
                    "duration": 0.3125
                },
                {
                    "name": "A#2",
                    "midi": 46,
                    "time": 490.9375,
                    "velocity": 0.5905511811023622,
                    "duration": 0.3125
                },
                {
                    "name": "D#2",
                    "midi": 39,
                    "time": 491.5625,
                    "velocity": 0.5905511811023622,
                    "duration": 0.625
                },
                {
                    "name": "D#3",
                    "midi": 51,
                    "time": 491.5625,
                    "velocity": 0.5905511811023622,
                    "duration": 0.625
                },
                {
                    "name": "G#1",
                    "midi": 32,
                    "time": 492.1875,
                    "velocity": 0.5905511811023622,
                    "duration": 0.625
                },
                {
                    "name": "G#2",
                    "midi": 44,
                    "time": 492.1875,
                    "velocity": 0.5905511811023622,
                    "duration": 0.625
                },
                {
                    "name": "A#1",
                    "midi": 34,
                    "time": 492.8125,
                    "velocity": 0.5905511811023622,
                    "duration": 0.3125
                },
                {
                    "name": "A#2",
                    "midi": 46,
                    "time": 492.8125,
                    "velocity": 0.5905511811023622,
                    "duration": 0.3125
                },
                {
                    "name": "D#2",
                    "midi": 39,
                    "time": 493.4375,
                    "velocity": 0.5905511811023622,
                    "duration": 0.625
                },
                {
                    "name": "D#3",
                    "midi": 51,
                    "time": 493.4375,
                    "velocity": 0.5905511811023622,
                    "duration": 0.625
                },
                {
                    "name": "G#1",
                    "midi": 32,
                    "time": 494.0625,
                    "velocity": 0.5905511811023622,
                    "duration": 0.625
                },
                {
                    "name": "G#2",
                    "midi": 44,
                    "time": 494.0625,
                    "velocity": 0.5905511811023622,
                    "duration": 0.625
                },
                {
                    "name": "A#1",
                    "midi": 34,
                    "time": 494.6875,
                    "velocity": 0.5905511811023622,
                    "duration": 0.3125
                },
                {
                    "name": "A#2",
                    "midi": 46,
                    "time": 494.6875,
                    "velocity": 0.5905511811023622,
                    "duration": 0.3125
                },
                {
                    "name": "D#2",
                    "midi": 39,
                    "time": 495,
                    "velocity": 0.5905511811023622,
                    "duration": 0.3125
                },
                {
                    "name": "D#3",
                    "midi": 51,
                    "time": 495,
                    "velocity": 0.5905511811023622,
                    "duration": 0.3125
                },
                {
                    "name": "D2",
                    "midi": 38,
                    "time": 495.3125,
                    "velocity": 0.5905511811023622,
                    "duration": 0.15625
                },
                {
                    "name": "D3",
                    "midi": 50,
                    "time": 495.3125,
                    "velocity": 0.5905511811023622,
                    "duration": 0.15625
                },
                {
                    "name": "C2",
                    "midi": 36,
                    "time": 495.46875,
                    "velocity": 0.5905511811023622,
                    "duration": 0.15625
                },
                {
                    "name": "C3",
                    "midi": 48,
                    "time": 495.46875,
                    "velocity": 0.5905511811023622,
                    "duration": 0.15625
                },
                {
                    "name": "A#1",
                    "midi": 34,
                    "time": 495.625,
                    "velocity": 0.5905511811023622,
                    "duration": 0.3125
                },
                {
                    "name": "A#2",
                    "midi": 46,
                    "time": 495.625,
                    "velocity": 0.5905511811023622,
                    "duration": 0.3125
                },
                {
                    "name": "G#1",
                    "midi": 32,
                    "time": 495.9375,
                    "velocity": 0.5905511811023622,
                    "duration": 0.625
                },
                {
                    "name": "G#2",
                    "midi": 44,
                    "time": 495.9375,
                    "velocity": 0.5905511811023622,
                    "duration": 0.625
                },
                {
                    "name": "A#1",
                    "midi": 34,
                    "time": 496.5625,
                    "velocity": 0.5905511811023622,
                    "duration": 0.3125
                },
                {
                    "name": "A#2",
                    "midi": 46,
                    "time": 496.5625,
                    "velocity": 0.5905511811023622,
                    "duration": 0.3125
                },
                {
                    "name": "D#2",
                    "midi": 39,
                    "time": 496.875,
                    "velocity": 0.5905511811023622,
                    "duration": 0.3125
                },
                {
                    "name": "D#3",
                    "midi": 51,
                    "time": 496.875,
                    "velocity": 0.5905511811023622,
                    "duration": 0.3125
                },
                {
                    "name": "D2",
                    "midi": 38,
                    "time": 497.1875,
                    "velocity": 0.5905511811023622,
                    "duration": 0.15625
                },
                {
                    "name": "D3",
                    "midi": 50,
                    "time": 497.1875,
                    "velocity": 0.5905511811023622,
                    "duration": 0.15625
                },
                {
                    "name": "C2",
                    "midi": 36,
                    "time": 497.34375,
                    "velocity": 0.5905511811023622,
                    "duration": 0.15625
                },
                {
                    "name": "C3",
                    "midi": 48,
                    "time": 497.34375,
                    "velocity": 0.5905511811023622,
                    "duration": 0.15625
                },
                {
                    "name": "A#1",
                    "midi": 34,
                    "time": 497.5,
                    "velocity": 0.5905511811023622,
                    "duration": 0.3125
                },
                {
                    "name": "A#2",
                    "midi": 46,
                    "time": 497.5,
                    "velocity": 0.5905511811023622,
                    "duration": 0.3125
                },
                {
                    "name": "G#1",
                    "midi": 32,
                    "time": 497.8125,
                    "velocity": 0.5905511811023622,
                    "duration": 0.625
                },
                {
                    "name": "G#2",
                    "midi": 44,
                    "time": 497.8125,
                    "velocity": 0.5905511811023622,
                    "duration": 0.625
                },
                {
                    "name": "A#1",
                    "midi": 34,
                    "time": 498.4375,
                    "velocity": 0.5905511811023622,
                    "duration": 0.3125
                },
                {
                    "name": "A#2",
                    "midi": 46,
                    "time": 498.4375,
                    "velocity": 0.5905511811023622,
                    "duration": 0.3125
                },
                {
                    "name": "D#2",
                    "midi": 39,
                    "time": 498.75,
                    "velocity": 0.5905511811023622,
                    "duration": 0.3125
                },
                {
                    "name": "D#3",
                    "midi": 51,
                    "time": 498.75,
                    "velocity": 0.5905511811023622,
                    "duration": 0.3125
                },
                {
                    "name": "D2",
                    "midi": 38,
                    "time": 499.0625,
                    "velocity": 0.5905511811023622,
                    "duration": 0.15625
                },
                {
                    "name": "D3",
                    "midi": 50,
                    "time": 499.0625,
                    "velocity": 0.5905511811023622,
                    "duration": 0.15625
                },
                {
                    "name": "C2",
                    "midi": 36,
                    "time": 499.21875,
                    "velocity": 0.5905511811023622,
                    "duration": 0.15625
                },
                {
                    "name": "C3",
                    "midi": 48,
                    "time": 499.21875,
                    "velocity": 0.5905511811023622,
                    "duration": 0.15625
                },
                {
                    "name": "A#1",
                    "midi": 34,
                    "time": 499.375,
                    "velocity": 0.5905511811023622,
                    "duration": 0.3125
                },
                {
                    "name": "A#2",
                    "midi": 46,
                    "time": 499.375,
                    "velocity": 0.5905511811023622,
                    "duration": 0.3125
                },
                {
                    "name": "G#1",
                    "midi": 32,
                    "time": 499.6875,
                    "velocity": 0.5905511811023622,
                    "duration": 0.625
                },
                {
                    "name": "G#2",
                    "midi": 44,
                    "time": 499.6875,
                    "velocity": 0.5905511811023622,
                    "duration": 0.625
                },
                {
                    "name": "A#1",
                    "midi": 34,
                    "time": 500.3125,
                    "velocity": 0.5905511811023622,
                    "duration": 0.3125
                },
                {
                    "name": "A#2",
                    "midi": 46,
                    "time": 500.3125,
                    "velocity": 0.5905511811023622,
                    "duration": 0.3125
                },
                {
                    "name": "D#2",
                    "midi": 39,
                    "time": 500.625,
                    "velocity": 0.5905511811023622,
                    "duration": 0.3125
                },
                {
                    "name": "D#3",
                    "midi": 51,
                    "time": 500.625,
                    "velocity": 0.5905511811023622,
                    "duration": 0.3125
                },
                {
                    "name": "D2",
                    "midi": 38,
                    "time": 500.9375,
                    "velocity": 0.5905511811023622,
                    "duration": 0.15625
                },
                {
                    "name": "D3",
                    "midi": 50,
                    "time": 500.9375,
                    "velocity": 0.5905511811023622,
                    "duration": 0.15625
                },
                {
                    "name": "C2",
                    "midi": 36,
                    "time": 501.09375,
                    "velocity": 0.5905511811023622,
                    "duration": 0.15625
                },
                {
                    "name": "C3",
                    "midi": 48,
                    "time": 501.09375,
                    "velocity": 0.5905511811023622,
                    "duration": 0.15625
                },
                {
                    "name": "A#1",
                    "midi": 34,
                    "time": 501.25,
                    "velocity": 0.5905511811023622,
                    "duration": 0.3125
                },
                {
                    "name": "A#2",
                    "midi": 46,
                    "time": 501.25,
                    "velocity": 0.5905511811023622,
                    "duration": 0.3125
                },
                {
                    "name": "G#1",
                    "midi": 32,
                    "time": 501.5625,
                    "velocity": 0.5905511811023622,
                    "duration": 0.625
                },
                {
                    "name": "G#2",
                    "midi": 44,
                    "time": 501.5625,
                    "velocity": 0.5905511811023622,
                    "duration": 0.625
                },
                {
                    "name": "A#1",
                    "midi": 34,
                    "time": 502.1875,
                    "velocity": 0.5905511811023622,
                    "duration": 0.3125
                },
                {
                    "name": "A#2",
                    "midi": 46,
                    "time": 502.1875,
                    "velocity": 0.5905511811023622,
                    "duration": 0.3125
                },
                {
                    "name": "D#3",
                    "midi": 51,
                    "time": 502.5,
                    "velocity": 0.5905511811023622,
                    "duration": 0.029947916666685614
                },
                {
                    "name": "D3",
                    "midi": 50,
                    "time": 502.65625,
                    "velocity": 0.5905511811023622,
                    "duration": 0.029947916666685614
                },
                {
                    "name": "C3",
                    "midi": 48,
                    "time": 502.8125,
                    "velocity": 0.5905511811023622,
                    "duration": 0.029947916666685614
                },
                {
                    "name": "A#2",
                    "midi": 46,
                    "time": 502.96875,
                    "velocity": 0.5905511811023622,
                    "duration": 0.029947916666685614
                },
                {
                    "name": "G#2",
                    "midi": 44,
                    "time": 503.125,
                    "velocity": 0.5905511811023622,
                    "duration": 0.029947916666685614
                },
                {
                    "name": "G2",
                    "midi": 43,
                    "time": 503.28125,
                    "velocity": 0.5905511811023622,
                    "duration": 0.029947916666685614
                },
                {
                    "name": "F2",
                    "midi": 41,
                    "time": 503.4375,
                    "velocity": 0.5905511811023622,
                    "duration": 0.029947916666685614
                },
                {
                    "name": "D#2",
                    "midi": 39,
                    "time": 503.59375,
                    "velocity": 0.5905511811023622,
                    "duration": 0.029947916666685614
                },
                {
                    "name": "G#2",
                    "midi": 44,
                    "time": 503.75,
                    "velocity": 0.5905511811023622,
                    "duration": 0.078125
                },
                {
                    "name": "G#1",
                    "midi": 32,
                    "time": 503.828125,
                    "velocity": 0.5905511811023622,
                    "duration": 0.078125
                },
                {
                    "name": "G#2",
                    "midi": 44,
                    "time": 503.90625,
                    "velocity": 0.5905511811023622,
                    "duration": 0.078125
                },
                {
                    "name": "G#1",
                    "midi": 32,
                    "time": 503.984375,
                    "velocity": 0.5905511811023622,
                    "duration": 0.078125
                },
                {
                    "name": "G#2",
                    "midi": 44,
                    "time": 504.0625,
                    "velocity": 0.5905511811023622,
                    "duration": 0.078125
                },
                {
                    "name": "G#1",
                    "midi": 32,
                    "time": 504.140625,
                    "velocity": 0.5905511811023622,
                    "duration": 0.078125
                },
                {
                    "name": "G#2",
                    "midi": 44,
                    "time": 504.21875,
                    "velocity": 0.5905511811023622,
                    "duration": 0.078125
                },
                {
                    "name": "G#1",
                    "midi": 32,
                    "time": 504.296875,
                    "velocity": 0.5905511811023622,
                    "duration": 0.078125
                },
                {
                    "name": "C3",
                    "midi": 48,
                    "time": 504.375,
                    "velocity": 0.7952755905511811,
                    "duration": 0.3125
                },
                {
                    "name": "C4",
                    "midi": 60,
                    "time": 504.375,
                    "velocity": 0.7952755905511811,
                    "duration": 0.3125
                },
                {
                    "name": "D3",
                    "midi": 50,
                    "time": 504.6875,
                    "velocity": 0.7952755905511811,
                    "duration": 0.3125
                },
                {
                    "name": "D4",
                    "midi": 62,
                    "time": 504.6875,
                    "velocity": 0.7952755905511811,
                    "duration": 0.3125
                },
                {
                    "name": "F#3",
                    "midi": 54,
                    "time": 505,
                    "velocity": 0.7952755905511811,
                    "duration": 0.3125
                },
                {
                    "name": "F#4",
                    "midi": 66,
                    "time": 505,
                    "velocity": 0.7952755905511811,
                    "duration": 0.3125
                },
                {
                    "name": "G#3",
                    "midi": 56,
                    "time": 505.3125,
                    "velocity": 0.7952755905511811,
                    "duration": 0.3125
                },
                {
                    "name": "G#4",
                    "midi": 68,
                    "time": 505.3125,
                    "velocity": 0.7952755905511811,
                    "duration": 0.3125
                },
                {
                    "name": "C4",
                    "midi": 60,
                    "time": 505.625,
                    "velocity": 0.7952755905511811,
                    "duration": 0.3125
                },
                {
                    "name": "C5",
                    "midi": 72,
                    "time": 505.625,
                    "velocity": 0.7952755905511811,
                    "duration": 0.3125
                },
                {
                    "name": "D4",
                    "midi": 62,
                    "time": 505.9375,
                    "velocity": 0.7952755905511811,
                    "duration": 0.3125
                },
                {
                    "name": "D5",
                    "midi": 74,
                    "time": 505.9375,
                    "velocity": 0.7952755905511811,
                    "duration": 0.3125
                },
                {
                    "name": "G1",
                    "midi": 31,
                    "time": 506.25,
                    "velocity": 0.6929133858267716,
                    "duration": 1.25
                },
                {
                    "name": "G2",
                    "midi": 43,
                    "time": 506.25,
                    "velocity": 0.6929133858267716,
                    "duration": 1.25
                },
                {
                    "name": "A1",
                    "midi": 33,
                    "time": 507.5,
                    "velocity": 0.6929133858267716,
                    "duration": 1.25
                },
                {
                    "name": "A2",
                    "midi": 45,
                    "time": 507.5,
                    "velocity": 0.6929133858267716,
                    "duration": 1.25
                },
                {
                    "name": "D2",
                    "midi": 38,
                    "time": 508.75,
                    "velocity": 0.6929133858267716,
                    "duration": 0.625
                },
                {
                    "name": "D3",
                    "midi": 50,
                    "time": 508.75,
                    "velocity": 0.6929133858267716,
                    "duration": 0.625
                },
                {
                    "name": "E2",
                    "midi": 40,
                    "time": 509.375,
                    "velocity": 0.6929133858267716,
                    "duration": 0.625
                },
                {
                    "name": "E3",
                    "midi": 52,
                    "time": 509.375,
                    "velocity": 0.6929133858267716,
                    "duration": 0.625
                },
                {
                    "name": "F2",
                    "midi": 41,
                    "time": 510,
                    "velocity": 0.6929133858267716,
                    "duration": 0.625
                },
                {
                    "name": "F3",
                    "midi": 53,
                    "time": 510,
                    "velocity": 0.6929133858267716,
                    "duration": 0.625
                },
                {
                    "name": "G2",
                    "midi": 43,
                    "time": 510.625,
                    "velocity": 0.6929133858267716,
                    "duration": 0.625
                },
                {
                    "name": "G3",
                    "midi": 55,
                    "time": 510.625,
                    "velocity": 0.6929133858267716,
                    "duration": 0.625
                },
                {
                    "name": "C2",
                    "midi": 36,
                    "time": 511.25,
                    "velocity": 0.6929133858267716,
                    "duration": 0.061197916666685614
                },
                {
                    "name": "G2",
                    "midi": 43,
                    "time": 511.25,
                    "velocity": 0.6929133858267716,
                    "duration": 0.061197916666685614
                },
                {
                    "name": "E3",
                    "midi": 52,
                    "time": 511.25,
                    "velocity": 0.6929133858267716,
                    "duration": 0.061197916666685614
                },
                {
                    "name": "C2",
                    "midi": 36,
                    "time": 511.5625,
                    "velocity": 0.8976377952755905,
                    "duration": 0.061197916666685614
                },
                {
                    "name": "G2",
                    "midi": 43,
                    "time": 511.5625,
                    "velocity": 0.8976377952755905,
                    "duration": 0.061197916666685614
                },
                {
                    "name": "E3",
                    "midi": 52,
                    "time": 511.5625,
                    "velocity": 0.8976377952755905,
                    "duration": 0.061197916666685614
                },
                {
                    "name": "G#2",
                    "midi": 44,
                    "time": 512.1875,
                    "velocity": 0.6929133858267716,
                    "duration": 0.06119791666662877
                },
                {
                    "name": "D#3",
                    "midi": 51,
                    "time": 512.1875,
                    "velocity": 0.6929133858267716,
                    "duration": 0.06119791666662877
                },
                {
                    "name": "G#2",
                    "midi": 44,
                    "time": 512.5,
                    "velocity": 0.8976377952755905,
                    "duration": 0.06119791666662877
                },
                {
                    "name": "D#3",
                    "midi": 51,
                    "time": 512.5,
                    "velocity": 0.8976377952755905,
                    "duration": 0.06119791666662877
                },
                {
                    "name": "G2",
                    "midi": 43,
                    "time": 513.125,
                    "velocity": 0.6929133858267716,
                    "duration": 0.06119791666662877
                },
                {
                    "name": "D3",
                    "midi": 50,
                    "time": 513.125,
                    "velocity": 0.6929133858267716,
                    "duration": 0.06119791666662877
                },
                {
                    "name": "G2",
                    "midi": 43,
                    "time": 513.4375,
                    "velocity": 0.8976377952755905,
                    "duration": 0.06119791666662877
                },
                {
                    "name": "D3",
                    "midi": 50,
                    "time": 513.4375,
                    "velocity": 0.8976377952755905,
                    "duration": 0.06119791666662877
                },
                {
                    "name": "F#2",
                    "midi": 42,
                    "time": 514.0625,
                    "velocity": 0.6929133858267716,
                    "duration": 0.06119791666662877
                },
                {
                    "name": "C#3",
                    "midi": 49,
                    "time": 514.0625,
                    "velocity": 0.6929133858267716,
                    "duration": 0.06119791666662877
                },
                {
                    "name": "F#2",
                    "midi": 42,
                    "time": 514.375,
                    "velocity": 0.6929133858267716,
                    "duration": 0.06119791666662877
                },
                {
                    "name": "C#3",
                    "midi": 49,
                    "time": 514.375,
                    "velocity": 0.6929133858267716,
                    "duration": 0.06119791666662877
                },
                {
                    "name": "F2",
                    "midi": 41,
                    "time": 515,
                    "velocity": 0.6929133858267716,
                    "duration": 0.06119791666662877
                },
                {
                    "name": "C3",
                    "midi": 48,
                    "time": 515,
                    "velocity": 0.6929133858267716,
                    "duration": 0.06119791666662877
                },
                {
                    "name": "F2",
                    "midi": 41,
                    "time": 515.3125,
                    "velocity": 0.6929133858267716,
                    "duration": 0.06119791666662877
                },
                {
                    "name": "C3",
                    "midi": 48,
                    "time": 515.3125,
                    "velocity": 0.6929133858267716,
                    "duration": 0.06119791666662877
                },
                {
                    "name": "D2",
                    "midi": 38,
                    "time": 515.9375,
                    "velocity": 0.6929133858267716,
                    "duration": 0.06119791666662877
                },
                {
                    "name": "A2",
                    "midi": 45,
                    "time": 515.9375,
                    "velocity": 0.6929133858267716,
                    "duration": 0.06119791666662877
                },
                {
                    "name": "G1",
                    "midi": 31,
                    "time": 516.25,
                    "velocity": 0.6929133858267716,
                    "duration": 1.25
                },
                {
                    "name": "G2",
                    "midi": 43,
                    "time": 516.25,
                    "velocity": 0.6929133858267716,
                    "duration": 1.25
                },
                {
                    "name": "A1",
                    "midi": 33,
                    "time": 517.5,
                    "velocity": 0.6929133858267716,
                    "duration": 1.25
                },
                {
                    "name": "A2",
                    "midi": 45,
                    "time": 517.5,
                    "velocity": 0.6929133858267716,
                    "duration": 1.25
                },
                {
                    "name": "D2",
                    "midi": 38,
                    "time": 518.75,
                    "velocity": 0.6929133858267716,
                    "duration": 0.625
                },
                {
                    "name": "D3",
                    "midi": 50,
                    "time": 518.75,
                    "velocity": 0.6929133858267716,
                    "duration": 0.625
                },
                {
                    "name": "E2",
                    "midi": 40,
                    "time": 519.375,
                    "velocity": 0.6929133858267716,
                    "duration": 0.625
                },
                {
                    "name": "E3",
                    "midi": 52,
                    "time": 519.375,
                    "velocity": 0.6929133858267716,
                    "duration": 0.625
                },
                {
                    "name": "F2",
                    "midi": 41,
                    "time": 520,
                    "velocity": 0.6929133858267716,
                    "duration": 0.625
                },
                {
                    "name": "F3",
                    "midi": 53,
                    "time": 520,
                    "velocity": 0.6929133858267716,
                    "duration": 0.625
                },
                {
                    "name": "G2",
                    "midi": 43,
                    "time": 520.625,
                    "velocity": 0.6929133858267716,
                    "duration": 0.625
                },
                {
                    "name": "G3",
                    "midi": 55,
                    "time": 520.625,
                    "velocity": 0.6929133858267716,
                    "duration": 0.625
                },
                {
                    "name": "D3",
                    "midi": 50,
                    "time": 521.5625,
                    "velocity": 0.6929133858267716,
                    "duration": 0.06119791666662877
                },
                {
                    "name": "A3",
                    "midi": 57,
                    "time": 521.5625,
                    "velocity": 0.6929133858267716,
                    "duration": 0.06119791666662877
                },
                {
                    "name": "C3",
                    "midi": 48,
                    "time": 521.875,
                    "velocity": 0.8976377952755905,
                    "duration": 0.06119791666662877
                },
                {
                    "name": "G3",
                    "midi": 55,
                    "time": 521.875,
                    "velocity": 0.8976377952755905,
                    "duration": 0.06119791666662877
                },
                {
                    "name": "B2",
                    "midi": 47,
                    "time": 522.5,
                    "velocity": 0.6929133858267716,
                    "duration": 0.06119791666662877
                },
                {
                    "name": "F3",
                    "midi": 53,
                    "time": 522.5,
                    "velocity": 0.6929133858267716,
                    "duration": 0.06119791666662877
                },
                {
                    "name": "A2",
                    "midi": 45,
                    "time": 522.8125,
                    "velocity": 0.8976377952755905,
                    "duration": 0.06119791666662877
                },
                {
                    "name": "E3",
                    "midi": 52,
                    "time": 522.8125,
                    "velocity": 0.8976377952755905,
                    "duration": 0.06119791666662877
                },
                {
                    "name": "G2",
                    "midi": 43,
                    "time": 523.4375,
                    "velocity": 0.6929133858267716,
                    "duration": 0.06119791666662877
                },
                {
                    "name": "D3",
                    "midi": 50,
                    "time": 523.4375,
                    "velocity": 0.6929133858267716,
                    "duration": 0.06119791666662877
                },
                {
                    "name": "F2",
                    "midi": 41,
                    "time": 523.75,
                    "velocity": 0.8976377952755905,
                    "duration": 0.06119791666662877
                },
                {
                    "name": "C3",
                    "midi": 48,
                    "time": 523.75,
                    "velocity": 0.8976377952755905,
                    "duration": 0.06119791666662877
                },
                {
                    "name": "E2",
                    "midi": 40,
                    "time": 524.375,
                    "velocity": 0.6929133858267716,
                    "duration": 0.06119791666662877
                },
                {
                    "name": "B2",
                    "midi": 47,
                    "time": 524.375,
                    "velocity": 0.6929133858267716,
                    "duration": 0.06119791666662877
                },
                {
                    "name": "G3",
                    "midi": 55,
                    "time": 524.375,
                    "velocity": 0.6929133858267716,
                    "duration": 0.06119791666662877
                },
                {
                    "name": "A3",
                    "midi": 57,
                    "time": 524.375,
                    "velocity": 0.6929133858267716,
                    "duration": 0.06119791666662877
                },
                {
                    "name": "D2",
                    "midi": 38,
                    "time": 524.6875,
                    "velocity": 0.8976377952755905,
                    "duration": 0.06119791666662877
                },
                {
                    "name": "A2",
                    "midi": 45,
                    "time": 524.6875,
                    "velocity": 0.8976377952755905,
                    "duration": 0.06119791666662877
                },
                {
                    "name": "F3",
                    "midi": 53,
                    "time": 524.6875,
                    "velocity": 0.8976377952755905,
                    "duration": 0.06119791666662877
                },
                {
                    "name": "A3",
                    "midi": 57,
                    "time": 524.6875,
                    "velocity": 0.8976377952755905,
                    "duration": 0.06119791666662877
                },
                {
                    "name": "C2",
                    "midi": 36,
                    "time": 525.3125,
                    "velocity": 0.6929133858267716,
                    "duration": 0.06119791666662877
                },
                {
                    "name": "G2",
                    "midi": 43,
                    "time": 525.3125,
                    "velocity": 0.6929133858267716,
                    "duration": 0.06119791666662877
                },
                {
                    "name": "E3",
                    "midi": 52,
                    "time": 525.3125,
                    "velocity": 0.6929133858267716,
                    "duration": 0.06119791666662877
                },
                {
                    "name": "F3",
                    "midi": 53,
                    "time": 525.3125,
                    "velocity": 0.6929133858267716,
                    "duration": 0.06119791666662877
                },
                {
                    "name": "B1",
                    "midi": 35,
                    "time": 525.625,
                    "velocity": 0.8976377952755905,
                    "duration": 0.06119791666662877
                },
                {
                    "name": "F2",
                    "midi": 41,
                    "time": 525.625,
                    "velocity": 0.8976377952755905,
                    "duration": 0.06119791666662877
                },
                {
                    "name": "D3",
                    "midi": 50,
                    "time": 525.625,
                    "velocity": 0.8976377952755905,
                    "duration": 0.06119791666662877
                },
                {
                    "name": "F3",
                    "midi": 53,
                    "time": 525.625,
                    "velocity": 0.8976377952755905,
                    "duration": 0.06119791666662877
                },
                {
                    "name": "F1",
                    "midi": 29,
                    "time": 526.25,
                    "velocity": 0.6929133858267716,
                    "duration": 0.9375
                },
                {
                    "name": "F2",
                    "midi": 41,
                    "time": 526.25,
                    "velocity": 0.6929133858267716,
                    "duration": 0.9375
                },
                {
                    "name": "A#1",
                    "midi": 34,
                    "time": 527.1875,
                    "velocity": 0.6929133858267716,
                    "duration": 0.10416666666662877
                },
                {
                    "name": "A#2",
                    "midi": 46,
                    "time": 527.1875,
                    "velocity": 0.6929133858267716,
                    "duration": 0.10416666666662877
                },
                {
                    "name": "B1",
                    "midi": 35,
                    "time": 527.2916666666666,
                    "velocity": 0.6929133858267716,
                    "duration": 0.10286458333337123
                },
                {
                    "name": "B2",
                    "midi": 47,
                    "time": 527.2916666666666,
                    "velocity": 0.6929133858267716,
                    "duration": 0.10286458333337123
                },
                {
                    "name": "C2",
                    "midi": 36,
                    "time": 527.39453125,
                    "velocity": 0.6929133858267716,
                    "duration": 0.10546875
                },
                {
                    "name": "C3",
                    "midi": 48,
                    "time": 527.39453125,
                    "velocity": 0.6929133858267716,
                    "duration": 0.10546875
                },
                {
                    "name": "C#2",
                    "midi": 37,
                    "time": 527.5,
                    "velocity": 0.6929133858267716,
                    "duration": 0.3125
                },
                {
                    "name": "C#3",
                    "midi": 49,
                    "time": 527.5,
                    "velocity": 0.6929133858267716,
                    "duration": 0.3125
                },
                {
                    "name": "D2",
                    "midi": 38,
                    "time": 527.8125,
                    "velocity": 0.6929133858267716,
                    "duration": 0.3125
                },
                {
                    "name": "D3",
                    "midi": 50,
                    "time": 527.8125,
                    "velocity": 0.6929133858267716,
                    "duration": 0.3125
                },
                {
                    "name": "E2",
                    "midi": 40,
                    "time": 528.125,
                    "velocity": 0.6929133858267716,
                    "duration": 0.3125
                },
                {
                    "name": "E3",
                    "midi": 52,
                    "time": 528.125,
                    "velocity": 0.6929133858267716,
                    "duration": 0.3125
                },
                {
                    "name": "F2",
                    "midi": 41,
                    "time": 528.4375,
                    "velocity": 0.6929133858267716,
                    "duration": 0.3125
                },
                {
                    "name": "F3",
                    "midi": 53,
                    "time": 528.4375,
                    "velocity": 0.6929133858267716,
                    "duration": 0.3125
                },
                {
                    "name": "G2",
                    "midi": 43,
                    "time": 528.75,
                    "velocity": 0.5905511811023622,
                    "duration": 0.625
                },
                {
                    "name": "G3",
                    "midi": 55,
                    "time": 528.75,
                    "velocity": 0.5905511811023622,
                    "duration": 0.625
                },
                {
                    "name": "G2",
                    "midi": 43,
                    "time": 529.375,
                    "velocity": 0.5905511811023622,
                    "duration": 0.3125
                },
                {
                    "name": "G#3",
                    "midi": 56,
                    "time": 529.375,
                    "velocity": 0.5905511811023622,
                    "duration": 0.3125
                },
                {
                    "name": "G2",
                    "midi": 43,
                    "time": 529.6875,
                    "velocity": 0.5905511811023622,
                    "duration": 0.3125
                },
                {
                    "name": "G3",
                    "midi": 55,
                    "time": 529.6875,
                    "velocity": 0.5905511811023622,
                    "duration": 0.3125
                },
                {
                    "name": "D2",
                    "midi": 38,
                    "time": 530,
                    "velocity": 0.4881889763779528,
                    "duration": 0.625
                },
                {
                    "name": "D#3",
                    "midi": 51,
                    "time": 530,
                    "velocity": 0.4881889763779528,
                    "duration": 0.625
                },
                {
                    "name": "G2",
                    "midi": 43,
                    "time": 530.625,
                    "velocity": 0.4881889763779528,
                    "duration": 0.625
                },
                {
                    "name": "D3",
                    "midi": 50,
                    "time": 530.625,
                    "velocity": 0.4881889763779528,
                    "duration": 0.625
                },
                {
                    "name": "D2",
                    "midi": 38,
                    "time": 531.25,
                    "velocity": 0.4881889763779528,
                    "duration": 0.625
                },
                {
                    "name": "D#3",
                    "midi": 51,
                    "time": 531.25,
                    "velocity": 0.4881889763779528,
                    "duration": 0.625
                },
                {
                    "name": "G2",
                    "midi": 43,
                    "time": 531.875,
                    "velocity": 0.4881889763779528,
                    "duration": 0.625
                },
                {
                    "name": "D3",
                    "midi": 50,
                    "time": 531.875,
                    "velocity": 0.4881889763779528,
                    "duration": 0.625
                },
                {
                    "name": "D2",
                    "midi": 38,
                    "time": 532.5,
                    "velocity": 0.4881889763779528,
                    "duration": 0.625
                },
                {
                    "name": "D#3",
                    "midi": 51,
                    "time": 532.5,
                    "velocity": 0.4881889763779528,
                    "duration": 0.625
                },
                {
                    "name": "G2",
                    "midi": 43,
                    "time": 533.125,
                    "velocity": 0.4881889763779528,
                    "duration": 0.625
                },
                {
                    "name": "D3",
                    "midi": 50,
                    "time": 533.125,
                    "velocity": 0.4881889763779528,
                    "duration": 0.625
                },
                {
                    "name": "G3",
                    "midi": 55,
                    "time": 533.75,
                    "velocity": 0.4881889763779528,
                    "duration": 2.5
                },
                {
                    "name": "C4",
                    "midi": 60,
                    "time": 533.75,
                    "velocity": 0.4881889763779528,
                    "duration": 2.5
                },
                {
                    "name": "E4",
                    "midi": 64,
                    "time": 533.75,
                    "velocity": 0.4881889763779528,
                    "duration": 2.5
                },
                {
                    "name": "C3",
                    "midi": 48,
                    "time": 536.25,
                    "velocity": 0.3858267716535433,
                    "duration": 2.5
                },
                {
                    "name": "G3",
                    "midi": 55,
                    "time": 536.25,
                    "velocity": 0.3858267716535433,
                    "duration": 2.5
                },
                {
                    "name": "G2",
                    "midi": 43,
                    "time": 538.75,
                    "velocity": 0.4881889763779528,
                    "duration": 2.5
                },
                {
                    "name": "C3",
                    "midi": 48,
                    "time": 538.75,
                    "velocity": 0.4881889763779528,
                    "duration": 2.5
                },
                {
                    "name": "A#3",
                    "midi": 58,
                    "time": 538.75,
                    "velocity": 0.4881889763779528,
                    "duration": 0.625
                },
                {
                    "name": "A3",
                    "midi": 57,
                    "time": 539.375,
                    "velocity": 0.4881889763779528,
                    "duration": 0.625
                },
                {
                    "name": "G3",
                    "midi": 55,
                    "time": 540,
                    "velocity": 0.4881889763779528,
                    "duration": 0.625
                },
                {
                    "name": "F3",
                    "midi": 53,
                    "time": 540.625,
                    "velocity": 0.4881889763779528,
                    "duration": 0.625
                },
                {
                    "name": "G3",
                    "midi": 55,
                    "time": 541.25,
                    "velocity": 0.4881889763779528,
                    "duration": 0.3125
                },
                {
                    "name": "C2",
                    "midi": 36,
                    "time": 541.5625,
                    "velocity": 0.4881889763779528,
                    "duration": 0.3125
                },
                {
                    "name": "E2",
                    "midi": 40,
                    "time": 541.875,
                    "velocity": 0.4881889763779528,
                    "duration": 0.3125
                },
                {
                    "name": "G2",
                    "midi": 43,
                    "time": 542.1875,
                    "velocity": 0.4881889763779528,
                    "duration": 0.3125
                },
                {
                    "name": "A#2",
                    "midi": 46,
                    "time": 542.5,
                    "velocity": 0.4881889763779528,
                    "duration": 0.3125
                },
                {
                    "name": "A2",
                    "midi": 45,
                    "time": 542.8125,
                    "velocity": 0.4881889763779528,
                    "duration": 0.3125
                },
                {
                    "name": "G2",
                    "midi": 43,
                    "time": 543.125,
                    "velocity": 0.4881889763779528,
                    "duration": 0.3125
                },
                {
                    "name": "F2",
                    "midi": 41,
                    "time": 543.4375,
                    "velocity": 0.4881889763779528,
                    "duration": 0.3125
                },
                {
                    "name": "G2",
                    "midi": 43,
                    "time": 543.75,
                    "velocity": 0.4881889763779528,
                    "duration": 0.3125
                },
                {
                    "name": "D#3",
                    "midi": 51,
                    "time": 544.0625,
                    "velocity": 0.4881889763779528,
                    "duration": 0.3125
                },
                {
                    "name": "E3",
                    "midi": 52,
                    "time": 544.375,
                    "velocity": 0.4881889763779528,
                    "duration": 0.3125
                },
                {
                    "name": "G2",
                    "midi": 43,
                    "time": 544.6875,
                    "velocity": 0.4881889763779528,
                    "duration": 0.06119791666662877
                },
                {
                    "name": "A#2",
                    "midi": 46,
                    "time": 545,
                    "velocity": 0.4881889763779528,
                    "duration": 0.3125
                },
                {
                    "name": "A2",
                    "midi": 45,
                    "time": 545.3125,
                    "velocity": 0.4881889763779528,
                    "duration": 0.3125
                },
                {
                    "name": "G2",
                    "midi": 43,
                    "time": 545.625,
                    "velocity": 0.4881889763779528,
                    "duration": 0.3125
                },
                {
                    "name": "F2",
                    "midi": 41,
                    "time": 545.9375,
                    "velocity": 0.4881889763779528,
                    "duration": 0.3125
                },
                {
                    "name": "G2",
                    "midi": 43,
                    "time": 546.25,
                    "velocity": 0.4881889763779528,
                    "duration": 0.3125
                },
                {
                    "name": "C#3",
                    "midi": 49,
                    "time": 546.5625,
                    "velocity": 0.4881889763779528,
                    "duration": 0.3125
                },
                {
                    "name": "D3",
                    "midi": 50,
                    "time": 546.875,
                    "velocity": 0.4881889763779528,
                    "duration": 0.3125
                },
                {
                    "name": "G2",
                    "midi": 43,
                    "time": 547.1875,
                    "velocity": 0.4881889763779528,
                    "duration": 0.06119791666662877
                },
                {
                    "name": "A#2",
                    "midi": 46,
                    "time": 547.5,
                    "velocity": 0.4881889763779528,
                    "duration": 0.3125
                },
                {
                    "name": "A2",
                    "midi": 45,
                    "time": 547.8125,
                    "velocity": 0.4881889763779528,
                    "duration": 0.3125
                },
                {
                    "name": "G2",
                    "midi": 43,
                    "time": 548.125,
                    "velocity": 0.4881889763779528,
                    "duration": 0.3125
                },
                {
                    "name": "F2",
                    "midi": 41,
                    "time": 548.4375,
                    "velocity": 0.4881889763779528,
                    "duration": 0.3125
                },
                {
                    "name": "G2",
                    "midi": 43,
                    "time": 548.75,
                    "velocity": 0.4881889763779528,
                    "duration": 10
                },
                {
                    "name": "A#2",
                    "midi": 46,
                    "time": 567.5,
                    "velocity": 0.3858267716535433,
                    "duration": 0.625
                },
                {
                    "name": "A2",
                    "midi": 45,
                    "time": 568.125,
                    "velocity": 0.3858267716535433,
                    "duration": 0.625
                },
                {
                    "name": "G#2",
                    "midi": 44,
                    "time": 568.75,
                    "velocity": 0.4881889763779528,
                    "duration": 0.625
                },
                {
                    "name": "G2",
                    "midi": 43,
                    "time": 569.375,
                    "velocity": 0.4881889763779528,
                    "duration": 0.625
                },
                {
                    "name": "A#3",
                    "midi": 58,
                    "time": 570,
                    "velocity": 0.4881889763779528,
                    "duration": 0.625
                },
                {
                    "name": "E4",
                    "midi": 64,
                    "time": 570,
                    "velocity": 0.4881889763779528,
                    "duration": 0.625
                },
                {
                    "name": "A3",
                    "midi": 57,
                    "time": 570.625,
                    "velocity": 0.5905511811023622,
                    "duration": 0.625
                },
                {
                    "name": "D#4",
                    "midi": 63,
                    "time": 570.625,
                    "velocity": 0.5905511811023622,
                    "duration": 0.625
                },
                {
                    "name": "G#3",
                    "midi": 56,
                    "time": 571.25,
                    "velocity": 0.5905511811023622,
                    "duration": 2.5
                },
                {
                    "name": "D4",
                    "midi": 62,
                    "time": 571.25,
                    "velocity": 0.5905511811023622,
                    "duration": 2.5
                },
                {
                    "name": "F#4",
                    "midi": 66,
                    "time": 571.25,
                    "velocity": 0.5905511811023622,
                    "duration": 2.5
                },
                {
                    "name": "A#4",
                    "midi": 70,
                    "time": 571.25,
                    "velocity": 0.5905511811023622,
                    "duration": 2.5
                },
                {
                    "name": "A3",
                    "midi": 57,
                    "time": 574.0625,
                    "velocity": 0.5905511811023622,
                    "duration": 0.3125
                },
                {
                    "name": "B3",
                    "midi": 59,
                    "time": 574.375,
                    "velocity": 0.5905511811023622,
                    "duration": 0.3125
                },
                {
                    "name": "G#3",
                    "midi": 56,
                    "time": 574.6875,
                    "velocity": 0.5905511811023622,
                    "duration": 0.3125
                },
                {
                    "name": "B3",
                    "midi": 59,
                    "time": 574.921875,
                    "velocity": 0.5905511811023622,
                    "duration": 0.078125
                },
                {
                    "name": "A3",
                    "midi": 57,
                    "time": 575,
                    "velocity": 0.5905511811023622,
                    "duration": 0.06119791666662877
                },
                {
                    "name": "G#3",
                    "midi": 56,
                    "time": 575.3125,
                    "velocity": 0.5905511811023622,
                    "duration": 0.06119791666662877
                },
                {
                    "name": "F#3",
                    "midi": 54,
                    "time": 575.625,
                    "velocity": 0.7952755905511811,
                    "duration": 3.125
                },
                {
                    "name": "G#3",
                    "midi": 56,
                    "time": 579.0625,
                    "velocity": 0.4881889763779528,
                    "duration": 0.15625
                },
                {
                    "name": "A3",
                    "midi": 57,
                    "time": 579.21875,
                    "velocity": 0.4881889763779528,
                    "duration": 0.15625
                },
                {
                    "name": "C4",
                    "midi": 60,
                    "time": 579.375,
                    "velocity": 0.4881889763779528,
                    "duration": 0.15625
                },
                {
                    "name": "B3",
                    "midi": 59,
                    "time": 579.53125,
                    "velocity": 0.4881889763779528,
                    "duration": 0.15625
                },
                {
                    "name": "G3",
                    "midi": 55,
                    "time": 579.6875,
                    "velocity": 0.4881889763779528,
                    "duration": 0.15625
                },
                {
                    "name": "G#3",
                    "midi": 56,
                    "time": 579.84375,
                    "velocity": 0.4881889763779528,
                    "duration": 0.15625
                },
                {
                    "name": "A3",
                    "midi": 57,
                    "time": 580,
                    "velocity": 0.4881889763779528,
                    "duration": 0.06119791666662877
                },
                {
                    "name": "G#3",
                    "midi": 56,
                    "time": 580.3125,
                    "velocity": 0.4881889763779528,
                    "duration": 0.06119791666662877
                },
                {
                    "name": "F#3",
                    "midi": 54,
                    "time": 580.625,
                    "velocity": 0.6929133858267716,
                    "duration": 3.125
                },
                {
                    "name": "A3",
                    "midi": 57,
                    "time": 584.6875,
                    "velocity": 0.4881889763779528,
                    "duration": 0.3125
                },
                {
                    "name": "B3",
                    "midi": 59,
                    "time": 585,
                    "velocity": 0.4881889763779528,
                    "duration": 0.06119791666662877
                },
                {
                    "name": "G#3",
                    "midi": 56,
                    "time": 585.3125,
                    "velocity": 0.4881889763779528,
                    "duration": 0.3125
                },
                {
                    "name": "B3",
                    "midi": 59,
                    "time": 585.546875,
                    "velocity": 0.4881889763779528,
                    "duration": 0.078125
                },
                {
                    "name": "A3",
                    "midi": 57,
                    "time": 585.625,
                    "velocity": 0.4881889763779528,
                    "duration": 0.06119791666662877
                },
                {
                    "name": "G#3",
                    "midi": 56,
                    "time": 585.9375,
                    "velocity": 0.4881889763779528,
                    "duration": 0.06119791666662877
                },
                {
                    "name": "F#3",
                    "midi": 54,
                    "time": 586.25,
                    "velocity": 0.4881889763779528,
                    "duration": 0.06119791666662877
                },
                {
                    "name": "C#3",
                    "midi": 49,
                    "time": 586.5625,
                    "velocity": 0.4881889763779528,
                    "duration": 0.15625
                },
                {
                    "name": "F#3",
                    "midi": 54,
                    "time": 586.71875,
                    "velocity": 0.4881889763779528,
                    "duration": 0.15625
                },
                {
                    "name": "C#3",
                    "midi": 49,
                    "time": 586.875,
                    "velocity": 0.4881889763779528,
                    "duration": 0.06119791666662877
                },
                {
                    "name": "B2",
                    "midi": 47,
                    "time": 587.1875,
                    "velocity": 0.4881889763779528,
                    "duration": 0.06119791666662877
                },
                {
                    "name": "G#2",
                    "midi": 44,
                    "time": 587.5,
                    "velocity": 0.4881889763779528,
                    "duration": 0.15625
                },
                {
                    "name": "C#3",
                    "midi": 49,
                    "time": 587.65625,
                    "velocity": 0.4881889763779528,
                    "duration": 0.15625
                },
                {
                    "name": "G#2",
                    "midi": 44,
                    "time": 587.8125,
                    "velocity": 0.4881889763779528,
                    "duration": 0.3125
                },
                {
                    "name": "F#2",
                    "midi": 42,
                    "time": 588.125,
                    "velocity": 0.4881889763779528,
                    "duration": 0.06119791666662877
                },
                {
                    "name": "C#2",
                    "midi": 37,
                    "time": 588.4375,
                    "velocity": 0.4881889763779528,
                    "duration": 0.15625
                },
                {
                    "name": "F#2",
                    "midi": 42,
                    "time": 588.59375,
                    "velocity": 0.4881889763779528,
                    "duration": 0.15625
                },
                {
                    "name": "C#2",
                    "midi": 37,
                    "time": 588.75,
                    "velocity": 0.4881889763779528,
                    "duration": 0.06119791666662877
                },
                {
                    "name": "C#2",
                    "midi": 37,
                    "time": 589.0625,
                    "velocity": 0.4881889763779528,
                    "duration": 0.15625
                },
                {
                    "name": "F#2",
                    "midi": 42,
                    "time": 589.21875,
                    "velocity": 0.4881889763779528,
                    "duration": 0.15625
                },
                {
                    "name": "C#2",
                    "midi": 37,
                    "time": 589.375,
                    "velocity": 0.4881889763779528,
                    "duration": 0.06119791666662877
                },
                {
                    "name": "C#2",
                    "midi": 37,
                    "time": 589.6875,
                    "velocity": 0.4881889763779528,
                    "duration": 0.15625
                },
                {
                    "name": "F#2",
                    "midi": 42,
                    "time": 589.84375,
                    "velocity": 0.4881889763779528,
                    "duration": 0.15625
                },
                {
                    "name": "C#2",
                    "midi": 37,
                    "time": 590,
                    "velocity": 0.4881889763779528,
                    "duration": 0.15625
                },
                {
                    "name": "F#2",
                    "midi": 42,
                    "time": 590.15625,
                    "velocity": 0.4881889763779528,
                    "duration": 0.15625
                },
                {
                    "name": "C#2",
                    "midi": 37,
                    "time": 590.3125,
                    "velocity": 0.4881889763779528,
                    "duration": 0.15625
                },
                {
                    "name": "F#2",
                    "midi": 42,
                    "time": 590.46875,
                    "velocity": 0.4881889763779528,
                    "duration": 0.15625
                },
                {
                    "name": "C#2",
                    "midi": 37,
                    "time": 590.625,
                    "velocity": 0.4881889763779528,
                    "duration": 0.06119791666662877
                },
                {
                    "name": "C#2",
                    "midi": 37,
                    "time": 590.9375,
                    "velocity": 0.4881889763779528,
                    "duration": 0.15625
                },
                {
                    "name": "F#2",
                    "midi": 42,
                    "time": 591.09375,
                    "velocity": 0.4881889763779528,
                    "duration": 0.15625
                },
                {
                    "name": "B1",
                    "midi": 35,
                    "time": 591.25,
                    "velocity": 0.4881889763779528,
                    "duration": 2.1875
                },
                {
                    "name": "B1",
                    "midi": 35,
                    "time": 593.4375,
                    "velocity": 0.4881889763779528,
                    "duration": 0.10416666666662877
                },
                {
                    "name": "C#2",
                    "midi": 37,
                    "time": 593.5416666666666,
                    "velocity": 0.4881889763779528,
                    "duration": 0.10286458333337123
                },
                {
                    "name": "D2",
                    "midi": 38,
                    "time": 593.64453125,
                    "velocity": 0.4881889763779528,
                    "duration": 0.10546875
                },
                {
                    "name": "E2",
                    "midi": 40,
                    "time": 593.75,
                    "velocity": 0.5905511811023622,
                    "duration": 1.25
                },
                {
                    "name": "B1",
                    "midi": 35,
                    "time": 596.5625,
                    "velocity": 0.5905511811023622,
                    "duration": 0.06119791666662877
                },
                {
                    "name": "B2",
                    "midi": 47,
                    "time": 596.5625,
                    "velocity": 0.5905511811023622,
                    "duration": 0.06119791666662877
                },
                {
                    "name": "G1",
                    "midi": 31,
                    "time": 597.1875,
                    "velocity": 0.5905511811023622,
                    "duration": 0.06119791666662877
                },
                {
                    "name": "G2",
                    "midi": 43,
                    "time": 597.1875,
                    "velocity": 0.5905511811023622,
                    "duration": 0.06119791666662877
                },
                {
                    "name": "E1",
                    "midi": 28,
                    "time": 597.8125,
                    "velocity": 0.5905511811023622,
                    "duration": 0.06119791666662877
                },
                {
                    "name": "E2",
                    "midi": 40,
                    "time": 597.8125,
                    "velocity": 0.5905511811023622,
                    "duration": 0.06119791666662877
                },
                {
                    "name": "C#2",
                    "midi": 37,
                    "time": 598.4375,
                    "velocity": 0.5905511811023622,
                    "duration": 0.06119791666662877
                },
                {
                    "name": "C#3",
                    "midi": 49,
                    "time": 598.4375,
                    "velocity": 0.5905511811023622,
                    "duration": 0.06119791666662877
                },
                {
                    "name": "C2",
                    "midi": 36,
                    "time": 599.0625,
                    "velocity": 0.5905511811023622,
                    "duration": 0.06119791666662877
                },
                {
                    "name": "C3",
                    "midi": 48,
                    "time": 599.0625,
                    "velocity": 0.5905511811023622,
                    "duration": 0.06119791666662877
                },
                {
                    "name": "E2",
                    "midi": 40,
                    "time": 599.6875,
                    "velocity": 0.5905511811023622,
                    "duration": 0.06119791666662877
                },
                {
                    "name": "E3",
                    "midi": 52,
                    "time": 599.6875,
                    "velocity": 0.5905511811023622,
                    "duration": 0.06119791666662877
                },
                {
                    "name": "E2",
                    "midi": 40,
                    "time": 600.3125,
                    "velocity": 0.5905511811023622,
                    "duration": 0.06119791666662877
                },
                {
                    "name": "E3",
                    "midi": 52,
                    "time": 600.3125,
                    "velocity": 0.5905511811023622,
                    "duration": 0.06119791666662877
                },
                {
                    "name": "C2",
                    "midi": 36,
                    "time": 600.9375,
                    "velocity": 0.5905511811023622,
                    "duration": 0.06119791666662877
                },
                {
                    "name": "C3",
                    "midi": 48,
                    "time": 600.9375,
                    "velocity": 0.5905511811023622,
                    "duration": 0.06119791666662877
                },
                {
                    "name": "A1",
                    "midi": 33,
                    "time": 601.5625,
                    "velocity": 0.5905511811023622,
                    "duration": 0.06119791666662877
                },
                {
                    "name": "A2",
                    "midi": 45,
                    "time": 601.5625,
                    "velocity": 0.5905511811023622,
                    "duration": 0.06119791666662877
                },
                {
                    "name": "F#1",
                    "midi": 30,
                    "time": 602.1875,
                    "velocity": 0.5905511811023622,
                    "duration": 0.06119791666662877
                },
                {
                    "name": "F#2",
                    "midi": 42,
                    "time": 602.1875,
                    "velocity": 0.5905511811023622,
                    "duration": 0.06119791666662877
                },
                {
                    "name": "F1",
                    "midi": 29,
                    "time": 602.8125,
                    "velocity": 0.5905511811023622,
                    "duration": 0.06119791666662877
                },
                {
                    "name": "F2",
                    "midi": 41,
                    "time": 602.8125,
                    "velocity": 0.5905511811023622,
                    "duration": 0.06119791666662877
                },
                {
                    "name": "G1",
                    "midi": 31,
                    "time": 603.4375,
                    "velocity": 0.5905511811023622,
                    "duration": 0.06119791666662877
                },
                {
                    "name": "G2",
                    "midi": 43,
                    "time": 603.4375,
                    "velocity": 0.5905511811023622,
                    "duration": 0.06119791666662877
                },
                {
                    "name": "A2",
                    "midi": 45,
                    "time": 604.0625,
                    "velocity": 0.5905511811023622,
                    "duration": 0.06119791666662877
                },
                {
                    "name": "A3",
                    "midi": 57,
                    "time": 604.0625,
                    "velocity": 0.5905511811023622,
                    "duration": 0.06119791666662877
                },
                {
                    "name": "F2",
                    "midi": 41,
                    "time": 604.6875,
                    "velocity": 0.5905511811023622,
                    "duration": 0.06119791666662877
                },
                {
                    "name": "F3",
                    "midi": 53,
                    "time": 604.6875,
                    "velocity": 0.5905511811023622,
                    "duration": 0.06119791666662877
                },
                {
                    "name": "D2",
                    "midi": 38,
                    "time": 605.3125,
                    "velocity": 0.5905511811023622,
                    "duration": 0.06119791666662877
                },
                {
                    "name": "D3",
                    "midi": 50,
                    "time": 605.3125,
                    "velocity": 0.5905511811023622,
                    "duration": 0.06119791666662877
                },
                {
                    "name": "B1",
                    "midi": 35,
                    "time": 605.9375,
                    "velocity": 0.5905511811023622,
                    "duration": 0.06119791666662877
                },
                {
                    "name": "B2",
                    "midi": 47,
                    "time": 605.9375,
                    "velocity": 0.5905511811023622,
                    "duration": 0.06119791666662877
                },
                {
                    "name": "E3",
                    "midi": 52,
                    "time": 606.25,
                    "velocity": 0.7952755905511811,
                    "duration": 0.078125
                },
                {
                    "name": "E2",
                    "midi": 40,
                    "time": 606.328125,
                    "velocity": 0.7952755905511811,
                    "duration": 0.078125
                },
                {
                    "name": "E3",
                    "midi": 52,
                    "time": 606.40625,
                    "velocity": 0.5905511811023622,
                    "duration": 0.078125
                },
                {
                    "name": "E2",
                    "midi": 40,
                    "time": 606.484375,
                    "velocity": 0.5905511811023622,
                    "duration": 0.078125
                },
                {
                    "name": "E3",
                    "midi": 52,
                    "time": 606.5625,
                    "velocity": 0.5905511811023622,
                    "duration": 0.078125
                },
                {
                    "name": "E2",
                    "midi": 40,
                    "time": 606.640625,
                    "velocity": 0.5905511811023622,
                    "duration": 0.078125
                },
                {
                    "name": "E3",
                    "midi": 52,
                    "time": 606.71875,
                    "velocity": 0.5905511811023622,
                    "duration": 0.078125
                },
                {
                    "name": "E2",
                    "midi": 40,
                    "time": 606.796875,
                    "velocity": 0.5905511811023622,
                    "duration": 0.078125
                },
                {
                    "name": "E3",
                    "midi": 52,
                    "time": 606.875,
                    "velocity": 0.5905511811023622,
                    "duration": 0.078125
                },
                {
                    "name": "E2",
                    "midi": 40,
                    "time": 606.953125,
                    "velocity": 0.5905511811023622,
                    "duration": 0.078125
                },
                {
                    "name": "E3",
                    "midi": 52,
                    "time": 607.03125,
                    "velocity": 0.5905511811023622,
                    "duration": 0.078125
                },
                {
                    "name": "E2",
                    "midi": 40,
                    "time": 607.109375,
                    "velocity": 0.5905511811023622,
                    "duration": 0.078125
                },
                {
                    "name": "E3",
                    "midi": 52,
                    "time": 607.1875,
                    "velocity": 0.5905511811023622,
                    "duration": 0.078125
                },
                {
                    "name": "E2",
                    "midi": 40,
                    "time": 607.265625,
                    "velocity": 0.5905511811023622,
                    "duration": 0.078125
                },
                {
                    "name": "E3",
                    "midi": 52,
                    "time": 607.34375,
                    "velocity": 0.5905511811023622,
                    "duration": 0.078125
                },
                {
                    "name": "E2",
                    "midi": 40,
                    "time": 607.421875,
                    "velocity": 0.5905511811023622,
                    "duration": 0.078125
                },
                {
                    "name": "E3",
                    "midi": 52,
                    "time": 607.5,
                    "velocity": 0.5905511811023622,
                    "duration": 0.078125
                },
                {
                    "name": "E2",
                    "midi": 40,
                    "time": 607.578125,
                    "velocity": 0.5905511811023622,
                    "duration": 0.078125
                },
                {
                    "name": "E3",
                    "midi": 52,
                    "time": 607.65625,
                    "velocity": 0.5905511811023622,
                    "duration": 0.078125
                },
                {
                    "name": "E2",
                    "midi": 40,
                    "time": 607.734375,
                    "velocity": 0.5905511811023622,
                    "duration": 0.078125
                },
                {
                    "name": "E3",
                    "midi": 52,
                    "time": 607.8125,
                    "velocity": 0.5905511811023622,
                    "duration": 0.078125
                },
                {
                    "name": "E2",
                    "midi": 40,
                    "time": 607.890625,
                    "velocity": 0.5905511811023622,
                    "duration": 0.078125
                },
                {
                    "name": "E3",
                    "midi": 52,
                    "time": 607.96875,
                    "velocity": 0.5905511811023622,
                    "duration": 0.078125
                },
                {
                    "name": "E2",
                    "midi": 40,
                    "time": 608.046875,
                    "velocity": 0.5905511811023622,
                    "duration": 0.078125
                },
                {
                    "name": "E3",
                    "midi": 52,
                    "time": 608.125,
                    "velocity": 0.5905511811023622,
                    "duration": 0.078125
                },
                {
                    "name": "E2",
                    "midi": 40,
                    "time": 608.203125,
                    "velocity": 0.5905511811023622,
                    "duration": 0.078125
                },
                {
                    "name": "E3",
                    "midi": 52,
                    "time": 608.28125,
                    "velocity": 0.5905511811023622,
                    "duration": 0.078125
                },
                {
                    "name": "E2",
                    "midi": 40,
                    "time": 608.359375,
                    "velocity": 0.5905511811023622,
                    "duration": 0.078125
                },
                {
                    "name": "E3",
                    "midi": 52,
                    "time": 608.4375,
                    "velocity": 0.5905511811023622,
                    "duration": 0.078125
                },
                {
                    "name": "E2",
                    "midi": 40,
                    "time": 608.515625,
                    "velocity": 0.5905511811023622,
                    "duration": 0.078125
                },
                {
                    "name": "E3",
                    "midi": 52,
                    "time": 608.59375,
                    "velocity": 0.5905511811023622,
                    "duration": 0.078125
                },
                {
                    "name": "E2",
                    "midi": 40,
                    "time": 608.671875,
                    "velocity": 0.5905511811023622,
                    "duration": 0.078125
                },
                {
                    "name": "E3",
                    "midi": 52,
                    "time": 608.75,
                    "velocity": 0.5905511811023622,
                    "duration": 0.078125
                },
                {
                    "name": "E2",
                    "midi": 40,
                    "time": 608.828125,
                    "velocity": 0.5905511811023622,
                    "duration": 0.078125
                },
                {
                    "name": "E3",
                    "midi": 52,
                    "time": 608.90625,
                    "velocity": 0.5905511811023622,
                    "duration": 0.078125
                },
                {
                    "name": "E2",
                    "midi": 40,
                    "time": 608.984375,
                    "velocity": 0.5905511811023622,
                    "duration": 0.078125
                },
                {
                    "name": "E3",
                    "midi": 52,
                    "time": 609.0625,
                    "velocity": 0.5905511811023622,
                    "duration": 0.078125
                },
                {
                    "name": "E2",
                    "midi": 40,
                    "time": 609.140625,
                    "velocity": 0.5905511811023622,
                    "duration": 0.078125
                },
                {
                    "name": "E3",
                    "midi": 52,
                    "time": 609.21875,
                    "velocity": 0.5905511811023622,
                    "duration": 0.078125
                },
                {
                    "name": "E2",
                    "midi": 40,
                    "time": 609.296875,
                    "velocity": 0.5905511811023622,
                    "duration": 0.078125
                },
                {
                    "name": "E3",
                    "midi": 52,
                    "time": 609.375,
                    "velocity": 0.5905511811023622,
                    "duration": 0.078125
                },
                {
                    "name": "E2",
                    "midi": 40,
                    "time": 609.453125,
                    "velocity": 0.5905511811023622,
                    "duration": 0.078125
                },
                {
                    "name": "E3",
                    "midi": 52,
                    "time": 609.53125,
                    "velocity": 0.5905511811023622,
                    "duration": 0.078125
                },
                {
                    "name": "E2",
                    "midi": 40,
                    "time": 609.609375,
                    "velocity": 0.5905511811023622,
                    "duration": 0.078125
                },
                {
                    "name": "E3",
                    "midi": 52,
                    "time": 609.6875,
                    "velocity": 0.5905511811023622,
                    "duration": 0.078125
                },
                {
                    "name": "E2",
                    "midi": 40,
                    "time": 609.765625,
                    "velocity": 0.5905511811023622,
                    "duration": 0.078125
                },
                {
                    "name": "E3",
                    "midi": 52,
                    "time": 609.84375,
                    "velocity": 0.5905511811023622,
                    "duration": 0.078125
                },
                {
                    "name": "E2",
                    "midi": 40,
                    "time": 609.921875,
                    "velocity": 0.5905511811023622,
                    "duration": 0.078125
                },
                {
                    "name": "E3",
                    "midi": 52,
                    "time": 610,
                    "velocity": 0.5905511811023622,
                    "duration": 0.078125
                },
                {
                    "name": "E2",
                    "midi": 40,
                    "time": 610.078125,
                    "velocity": 0.5905511811023622,
                    "duration": 0.078125
                },
                {
                    "name": "E3",
                    "midi": 52,
                    "time": 610.15625,
                    "velocity": 0.5905511811023622,
                    "duration": 0.078125
                },
                {
                    "name": "E2",
                    "midi": 40,
                    "time": 610.234375,
                    "velocity": 0.5905511811023622,
                    "duration": 0.078125
                },
                {
                    "name": "E3",
                    "midi": 52,
                    "time": 610.3125,
                    "velocity": 0.5905511811023622,
                    "duration": 0.078125
                },
                {
                    "name": "E2",
                    "midi": 40,
                    "time": 610.390625,
                    "velocity": 0.5905511811023622,
                    "duration": 0.078125
                },
                {
                    "name": "E3",
                    "midi": 52,
                    "time": 610.46875,
                    "velocity": 0.5905511811023622,
                    "duration": 0.078125
                },
                {
                    "name": "E2",
                    "midi": 40,
                    "time": 610.546875,
                    "velocity": 0.5905511811023622,
                    "duration": 0.078125
                },
                {
                    "name": "E3",
                    "midi": 52,
                    "time": 610.625,
                    "velocity": 0.5905511811023622,
                    "duration": 0.078125
                },
                {
                    "name": "E2",
                    "midi": 40,
                    "time": 610.703125,
                    "velocity": 0.5905511811023622,
                    "duration": 0.078125
                },
                {
                    "name": "E3",
                    "midi": 52,
                    "time": 610.78125,
                    "velocity": 0.5905511811023622,
                    "duration": 0.078125
                },
                {
                    "name": "E2",
                    "midi": 40,
                    "time": 610.859375,
                    "velocity": 0.5905511811023622,
                    "duration": 0.078125
                },
                {
                    "name": "E3",
                    "midi": 52,
                    "time": 610.9375,
                    "velocity": 0.5905511811023622,
                    "duration": 0.078125
                },
                {
                    "name": "E2",
                    "midi": 40,
                    "time": 611.015625,
                    "velocity": 0.5905511811023622,
                    "duration": 0.078125
                },
                {
                    "name": "E3",
                    "midi": 52,
                    "time": 611.09375,
                    "velocity": 0.5905511811023622,
                    "duration": 0.078125
                },
                {
                    "name": "E2",
                    "midi": 40,
                    "time": 611.171875,
                    "velocity": 0.5905511811023622,
                    "duration": 0.078125
                },
                {
                    "name": "E3",
                    "midi": 52,
                    "time": 611.25,
                    "velocity": 0.5905511811023622,
                    "duration": 0.078125
                },
                {
                    "name": "E2",
                    "midi": 40,
                    "time": 611.328125,
                    "velocity": 0.5905511811023622,
                    "duration": 0.078125
                },
                {
                    "name": "E3",
                    "midi": 52,
                    "time": 611.40625,
                    "velocity": 0.5905511811023622,
                    "duration": 0.078125
                },
                {
                    "name": "E2",
                    "midi": 40,
                    "time": 611.484375,
                    "velocity": 0.5905511811023622,
                    "duration": 0.078125
                },
                {
                    "name": "E3",
                    "midi": 52,
                    "time": 611.5625,
                    "velocity": 0.5905511811023622,
                    "duration": 0.078125
                },
                {
                    "name": "E2",
                    "midi": 40,
                    "time": 611.640625,
                    "velocity": 0.5905511811023622,
                    "duration": 0.078125
                },
                {
                    "name": "E3",
                    "midi": 52,
                    "time": 611.71875,
                    "velocity": 0.5905511811023622,
                    "duration": 0.078125
                },
                {
                    "name": "E2",
                    "midi": 40,
                    "time": 611.796875,
                    "velocity": 0.5905511811023622,
                    "duration": 0.078125
                },
                {
                    "name": "E3",
                    "midi": 52,
                    "time": 611.875,
                    "velocity": 0.5905511811023622,
                    "duration": 0.078125
                },
                {
                    "name": "E2",
                    "midi": 40,
                    "time": 611.953125,
                    "velocity": 0.5905511811023622,
                    "duration": 0.078125
                },
                {
                    "name": "E3",
                    "midi": 52,
                    "time": 612.03125,
                    "velocity": 0.5905511811023622,
                    "duration": 0.078125
                },
                {
                    "name": "E2",
                    "midi": 40,
                    "time": 612.109375,
                    "velocity": 0.5905511811023622,
                    "duration": 0.078125
                },
                {
                    "name": "E3",
                    "midi": 52,
                    "time": 612.1875,
                    "velocity": 0.5905511811023622,
                    "duration": 0.078125
                },
                {
                    "name": "E2",
                    "midi": 40,
                    "time": 612.265625,
                    "velocity": 0.5905511811023622,
                    "duration": 0.078125
                },
                {
                    "name": "E3",
                    "midi": 52,
                    "time": 612.34375,
                    "velocity": 0.5905511811023622,
                    "duration": 0.078125
                },
                {
                    "name": "E2",
                    "midi": 40,
                    "time": 612.421875,
                    "velocity": 0.5905511811023622,
                    "duration": 0.078125
                },
                {
                    "name": "E2",
                    "midi": 40,
                    "time": 612.5,
                    "velocity": 0.7952755905511811,
                    "duration": 0.078125
                },
                {
                    "name": "E1",
                    "midi": 28,
                    "time": 612.578125,
                    "velocity": 0.7952755905511811,
                    "duration": 0.078125
                },
                {
                    "name": "E2",
                    "midi": 40,
                    "time": 612.65625,
                    "velocity": 0.5905511811023622,
                    "duration": 0.078125
                },
                {
                    "name": "E1",
                    "midi": 28,
                    "time": 612.734375,
                    "velocity": 0.5905511811023622,
                    "duration": 0.078125
                },
                {
                    "name": "E2",
                    "midi": 40,
                    "time": 612.8125,
                    "velocity": 0.5905511811023622,
                    "duration": 0.078125
                },
                {
                    "name": "E1",
                    "midi": 28,
                    "time": 612.890625,
                    "velocity": 0.5905511811023622,
                    "duration": 0.078125
                },
                {
                    "name": "E2",
                    "midi": 40,
                    "time": 612.96875,
                    "velocity": 0.5905511811023622,
                    "duration": 0.078125
                },
                {
                    "name": "E1",
                    "midi": 28,
                    "time": 613.046875,
                    "velocity": 0.5905511811023622,
                    "duration": 0.078125
                },
                {
                    "name": "E2",
                    "midi": 40,
                    "time": 613.125,
                    "velocity": 0.5905511811023622,
                    "duration": 0.078125
                },
                {
                    "name": "E1",
                    "midi": 28,
                    "time": 613.203125,
                    "velocity": 0.5905511811023622,
                    "duration": 0.078125
                },
                {
                    "name": "E2",
                    "midi": 40,
                    "time": 613.28125,
                    "velocity": 0.5905511811023622,
                    "duration": 0.078125
                },
                {
                    "name": "E1",
                    "midi": 28,
                    "time": 613.359375,
                    "velocity": 0.5905511811023622,
                    "duration": 0.078125
                },
                {
                    "name": "E2",
                    "midi": 40,
                    "time": 613.4375,
                    "velocity": 0.5905511811023622,
                    "duration": 0.078125
                },
                {
                    "name": "E1",
                    "midi": 28,
                    "time": 613.515625,
                    "velocity": 0.5905511811023622,
                    "duration": 0.078125
                },
                {
                    "name": "E2",
                    "midi": 40,
                    "time": 613.59375,
                    "velocity": 0.5905511811023622,
                    "duration": 0.078125
                },
                {
                    "name": "E1",
                    "midi": 28,
                    "time": 613.671875,
                    "velocity": 0.5905511811023622,
                    "duration": 0.078125
                },
                {
                    "name": "B2",
                    "midi": 47,
                    "time": 613.75,
                    "velocity": 0.4881889763779528,
                    "duration": 0.06119791666662877
                },
                {
                    "name": "E3",
                    "midi": 52,
                    "time": 614.0625,
                    "velocity": 0.4881889763779528,
                    "duration": 0.06119791666662877
                },
                {
                    "name": "D4",
                    "midi": 62,
                    "time": 614.0625,
                    "velocity": 0.4881889763779528,
                    "duration": 0.06119791666662877
                },
                {
                    "name": "A2",
                    "midi": 45,
                    "time": 614.375,
                    "velocity": 0.4881889763779528,
                    "duration": 0.06119791666662877
                },
                {
                    "name": "E3",
                    "midi": 52,
                    "time": 614.6875,
                    "velocity": 0.4881889763779528,
                    "duration": 0.06119791666662877
                },
                {
                    "name": "C#4",
                    "midi": 61,
                    "time": 614.6875,
                    "velocity": 0.4881889763779528,
                    "duration": 0.06119791666662877
                },
                {
                    "name": "B2",
                    "midi": 47,
                    "time": 615,
                    "velocity": 0.4881889763779528,
                    "duration": 0.06119791666662877
                },
                {
                    "name": "E3",
                    "midi": 52,
                    "time": 615.3125,
                    "velocity": 0.4881889763779528,
                    "duration": 0.06119791666662877
                },
                {
                    "name": "D4",
                    "midi": 62,
                    "time": 615.3125,
                    "velocity": 0.4881889763779528,
                    "duration": 0.06119791666662877
                },
                {
                    "name": "A2",
                    "midi": 45,
                    "time": 615.625,
                    "velocity": 0.4881889763779528,
                    "duration": 0.06119791666662877
                },
                {
                    "name": "E3",
                    "midi": 52,
                    "time": 615.9375,
                    "velocity": 0.4881889763779528,
                    "duration": 0.06119791666662877
                },
                {
                    "name": "C#4",
                    "midi": 61,
                    "time": 615.9375,
                    "velocity": 0.4881889763779528,
                    "duration": 0.06119791666662877
                },
                {
                    "name": "B2",
                    "midi": 47,
                    "time": 616.25,
                    "velocity": 0.4881889763779528,
                    "duration": 0.06119791666662877
                },
                {
                    "name": "E3",
                    "midi": 52,
                    "time": 616.5625,
                    "velocity": 0.4881889763779528,
                    "duration": 0.06119791666662877
                },
                {
                    "name": "D4",
                    "midi": 62,
                    "time": 616.5625,
                    "velocity": 0.4881889763779528,
                    "duration": 0.06119791666662877
                },
                {
                    "name": "A2",
                    "midi": 45,
                    "time": 616.875,
                    "velocity": 0.4881889763779528,
                    "duration": 0.06119791666662877
                },
                {
                    "name": "E3",
                    "midi": 52,
                    "time": 617.1875,
                    "velocity": 0.4881889763779528,
                    "duration": 0.06119791666662877
                },
                {
                    "name": "C#4",
                    "midi": 61,
                    "time": 617.1875,
                    "velocity": 0.4881889763779528,
                    "duration": 0.06119791666662877
                },
                {
                    "name": "B2",
                    "midi": 47,
                    "time": 617.5,
                    "velocity": 0.4881889763779528,
                    "duration": 0.625
                },
                {
                    "name": "E3",
                    "midi": 52,
                    "time": 617.5,
                    "velocity": 0.4881889763779528,
                    "duration": 0.625
                },
                {
                    "name": "D4",
                    "midi": 62,
                    "time": 617.5,
                    "velocity": 0.4881889763779528,
                    "duration": 0.625
                },
                {
                    "name": "D#3",
                    "midi": 51,
                    "time": 618.046875,
                    "velocity": 0.4881889763779528,
                    "duration": 0.078125
                },
                {
                    "name": "E3",
                    "midi": 52,
                    "time": 618.125,
                    "velocity": 0.4881889763779528,
                    "duration": 1.875
                },
                {
                    "name": "G2",
                    "midi": 43,
                    "time": 655,
                    "velocity": 0.4881889763779528,
                    "duration": 0.3125
                },
                {
                    "name": "D3",
                    "midi": 50,
                    "time": 655,
                    "velocity": 0.4881889763779528,
                    "duration": 0.3125
                },
                {
                    "name": "A3",
                    "midi": 57,
                    "time": 655,
                    "velocity": 0.4881889763779528,
                    "duration": 0.3125
                },
                {
                    "name": "C4",
                    "midi": 60,
                    "time": 655,
                    "velocity": 0.4881889763779528,
                    "duration": 0.3125
                },
                {
                    "name": "C2",
                    "midi": 36,
                    "time": 655.3125,
                    "velocity": 0.4881889763779528,
                    "duration": 0.3125
                },
                {
                    "name": "G2",
                    "midi": 43,
                    "time": 655.3125,
                    "velocity": 0.4881889763779528,
                    "duration": 0.3125
                },
                {
                    "name": "G3",
                    "midi": 55,
                    "time": 655.3125,
                    "velocity": 0.4881889763779528,
                    "duration": 0.3125
                },
                {
                    "name": "A#3",
                    "midi": 58,
                    "time": 655.3125,
                    "velocity": 0.4881889763779528,
                    "duration": 0.3125
                },
                {
                    "name": "F2",
                    "midi": 41,
                    "time": 655.625,
                    "velocity": 0.4881889763779528,
                    "duration": 0.3125
                },
                {
                    "name": "C3",
                    "midi": 48,
                    "time": 655.625,
                    "velocity": 0.4881889763779528,
                    "duration": 0.3125
                },
                {
                    "name": "G#3",
                    "midi": 56,
                    "time": 655.625,
                    "velocity": 0.4881889763779528,
                    "duration": 0.3125
                },
                {
                    "name": "B3",
                    "midi": 59,
                    "time": 655.625,
                    "velocity": 0.4881889763779528,
                    "duration": 0.3125
                },
                {
                    "name": "A#2",
                    "midi": 46,
                    "time": 655.9375,
                    "velocity": 0.4881889763779528,
                    "duration": 0.3125
                },
                {
                    "name": "D3",
                    "midi": 50,
                    "time": 655.9375,
                    "velocity": 0.4881889763779528,
                    "duration": 0.3125
                },
                {
                    "name": "G#3",
                    "midi": 56,
                    "time": 655.9375,
                    "velocity": 0.4881889763779528,
                    "duration": 0.3125
                },
                {
                    "name": "C4",
                    "midi": 60,
                    "time": 655.9375,
                    "velocity": 0.4881889763779528,
                    "duration": 0.3125
                },
                {
                    "name": "G2",
                    "midi": 43,
                    "time": 656.25,
                    "velocity": 0.4881889763779528,
                    "duration": 0.3125
                },
                {
                    "name": "D3",
                    "midi": 50,
                    "time": 656.25,
                    "velocity": 0.4881889763779528,
                    "duration": 0.3125
                },
                {
                    "name": "A3",
                    "midi": 57,
                    "time": 656.25,
                    "velocity": 0.4881889763779528,
                    "duration": 0.3125
                },
                {
                    "name": "C4",
                    "midi": 60,
                    "time": 656.25,
                    "velocity": 0.4881889763779528,
                    "duration": 0.3125
                },
                {
                    "name": "C2",
                    "midi": 36,
                    "time": 656.5625,
                    "velocity": 0.4881889763779528,
                    "duration": 0.3125
                },
                {
                    "name": "G2",
                    "midi": 43,
                    "time": 656.5625,
                    "velocity": 0.4881889763779528,
                    "duration": 0.3125
                },
                {
                    "name": "G3",
                    "midi": 55,
                    "time": 656.5625,
                    "velocity": 0.4881889763779528,
                    "duration": 0.3125
                },
                {
                    "name": "A#3",
                    "midi": 58,
                    "time": 656.5625,
                    "velocity": 0.4881889763779528,
                    "duration": 0.3125
                },
                {
                    "name": "F2",
                    "midi": 41,
                    "time": 656.875,
                    "velocity": 0.4881889763779528,
                    "duration": 0.3125
                },
                {
                    "name": "C3",
                    "midi": 48,
                    "time": 656.875,
                    "velocity": 0.4881889763779528,
                    "duration": 0.3125
                },
                {
                    "name": "G#3",
                    "midi": 56,
                    "time": 656.875,
                    "velocity": 0.4881889763779528,
                    "duration": 0.3125
                },
                {
                    "name": "B3",
                    "midi": 59,
                    "time": 656.875,
                    "velocity": 0.4881889763779528,
                    "duration": 0.3125
                },
                {
                    "name": "A#2",
                    "midi": 46,
                    "time": 657.1875,
                    "velocity": 0.4881889763779528,
                    "duration": 0.3125
                },
                {
                    "name": "D3",
                    "midi": 50,
                    "time": 657.1875,
                    "velocity": 0.4881889763779528,
                    "duration": 0.3125
                },
                {
                    "name": "G#3",
                    "midi": 56,
                    "time": 657.1875,
                    "velocity": 0.4881889763779528,
                    "duration": 0.3125
                },
                {
                    "name": "C4",
                    "midi": 60,
                    "time": 657.1875,
                    "velocity": 0.4881889763779528,
                    "duration": 0.3125
                },
                {
                    "name": "B2",
                    "midi": 47,
                    "time": 657.5,
                    "velocity": 0.4881889763779528,
                    "duration": 0.3125
                },
                {
                    "name": "F#3",
                    "midi": 54,
                    "time": 657.5,
                    "velocity": 0.4881889763779528,
                    "duration": 0.3125
                },
                {
                    "name": "C#4",
                    "midi": 61,
                    "time": 657.5,
                    "velocity": 0.4881889763779528,
                    "duration": 0.3125
                },
                {
                    "name": "E4",
                    "midi": 64,
                    "time": 657.5,
                    "velocity": 0.4881889763779528,
                    "duration": 0.3125
                },
                {
                    "name": "E2",
                    "midi": 40,
                    "time": 657.8125,
                    "velocity": 0.4881889763779528,
                    "duration": 0.3125
                },
                {
                    "name": "B2",
                    "midi": 47,
                    "time": 657.8125,
                    "velocity": 0.4881889763779528,
                    "duration": 0.3125
                },
                {
                    "name": "B3",
                    "midi": 59,
                    "time": 657.8125,
                    "velocity": 0.4881889763779528,
                    "duration": 0.3125
                },
                {
                    "name": "D4",
                    "midi": 62,
                    "time": 657.8125,
                    "velocity": 0.4881889763779528,
                    "duration": 0.3125
                },
                {
                    "name": "A2",
                    "midi": 45,
                    "time": 658.125,
                    "velocity": 0.4881889763779528,
                    "duration": 0.3125
                },
                {
                    "name": "E3",
                    "midi": 52,
                    "time": 658.125,
                    "velocity": 0.4881889763779528,
                    "duration": 0.3125
                },
                {
                    "name": "C4",
                    "midi": 60,
                    "time": 658.125,
                    "velocity": 0.4881889763779528,
                    "duration": 0.3125
                },
                {
                    "name": "D#4",
                    "midi": 63,
                    "time": 658.125,
                    "velocity": 0.4881889763779528,
                    "duration": 0.3125
                },
                {
                    "name": "D3",
                    "midi": 50,
                    "time": 658.4375,
                    "velocity": 0.4881889763779528,
                    "duration": 0.3125
                },
                {
                    "name": "F#3",
                    "midi": 54,
                    "time": 658.4375,
                    "velocity": 0.4881889763779528,
                    "duration": 0.3125
                },
                {
                    "name": "C4",
                    "midi": 60,
                    "time": 658.4375,
                    "velocity": 0.4881889763779528,
                    "duration": 0.3125
                },
                {
                    "name": "E4",
                    "midi": 64,
                    "time": 658.4375,
                    "velocity": 0.4881889763779528,
                    "duration": 0.3125
                },
                {
                    "name": "D#3",
                    "midi": 51,
                    "time": 658.75,
                    "velocity": 0.4881889763779528,
                    "duration": 0.3125
                },
                {
                    "name": "A#3",
                    "midi": 58,
                    "time": 658.75,
                    "velocity": 0.4881889763779528,
                    "duration": 0.3125
                },
                {
                    "name": "F4",
                    "midi": 65,
                    "time": 658.75,
                    "velocity": 0.4881889763779528,
                    "duration": 0.3125
                },
                {
                    "name": "G#4",
                    "midi": 68,
                    "time": 658.75,
                    "velocity": 0.4881889763779528,
                    "duration": 0.3125
                },
                {
                    "name": "G#2",
                    "midi": 44,
                    "time": 659.0625,
                    "velocity": 0.4881889763779528,
                    "duration": 0.3125
                },
                {
                    "name": "D#3",
                    "midi": 51,
                    "time": 659.0625,
                    "velocity": 0.4881889763779528,
                    "duration": 0.3125
                },
                {
                    "name": "D#4",
                    "midi": 63,
                    "time": 659.0625,
                    "velocity": 0.4881889763779528,
                    "duration": 0.3125
                },
                {
                    "name": "F#4",
                    "midi": 66,
                    "time": 659.0625,
                    "velocity": 0.4881889763779528,
                    "duration": 0.3125
                },
                {
                    "name": "C#3",
                    "midi": 49,
                    "time": 659.375,
                    "velocity": 0.4881889763779528,
                    "duration": 0.3125
                },
                {
                    "name": "G#3",
                    "midi": 56,
                    "time": 659.375,
                    "velocity": 0.4881889763779528,
                    "duration": 0.3125
                },
                {
                    "name": "E4",
                    "midi": 64,
                    "time": 659.375,
                    "velocity": 0.4881889763779528,
                    "duration": 0.3125
                },
                {
                    "name": "G4",
                    "midi": 67,
                    "time": 659.375,
                    "velocity": 0.4881889763779528,
                    "duration": 0.3125
                },
                {
                    "name": "F#3",
                    "midi": 54,
                    "time": 659.6875,
                    "velocity": 0.4881889763779528,
                    "duration": 0.3125
                },
                {
                    "name": "A#3",
                    "midi": 58,
                    "time": 659.6875,
                    "velocity": 0.4881889763779528,
                    "duration": 0.3125
                },
                {
                    "name": "E4",
                    "midi": 64,
                    "time": 659.6875,
                    "velocity": 0.4881889763779528,
                    "duration": 0.3125
                },
                {
                    "name": "G#4",
                    "midi": 68,
                    "time": 659.6875,
                    "velocity": 0.4881889763779528,
                    "duration": 0.3125
                },
                {
                    "name": "D2",
                    "midi": 38,
                    "time": 670,
                    "velocity": 0.8976377952755905,
                    "duration": 2.1875
                },
                {
                    "name": "D3",
                    "midi": 50,
                    "time": 670,
                    "velocity": 0.8976377952755905,
                    "duration": 2.1875
                },
                {
                    "name": "D2",
                    "midi": 38,
                    "time": 672.1875,
                    "velocity": 0.6929133858267716,
                    "duration": 0.3125
                },
                {
                    "name": "D3",
                    "midi": 50,
                    "time": 672.1875,
                    "velocity": 0.6929133858267716,
                    "duration": 0.3125
                },
                {
                    "name": "G1",
                    "midi": 31,
                    "time": 672.5,
                    "velocity": 0.6929133858267716,
                    "duration": 2.5
                },
                {
                    "name": "G2",
                    "midi": 43,
                    "time": 672.5,
                    "velocity": 0.6929133858267716,
                    "duration": 2.5
                },
                {
                    "name": "C4",
                    "midi": 60,
                    "time": 675.3125,
                    "velocity": 0.8976377952755905,
                    "duration": 0.3125
                },
                {
                    "name": "G3",
                    "midi": 55,
                    "time": 675.625,
                    "velocity": 0.8976377952755905,
                    "duration": 0.3125
                },
                {
                    "name": "G3",
                    "midi": 55,
                    "time": 675.9375,
                    "velocity": 0.8976377952755905,
                    "duration": 0.3125
                },
                {
                    "name": "A3",
                    "midi": 57,
                    "time": 676.25,
                    "velocity": 0.8976377952755905,
                    "duration": 0.3125
                },
                {
                    "name": "B3",
                    "midi": 59,
                    "time": 676.5625,
                    "velocity": 0.8976377952755905,
                    "duration": 0.3125
                },
                {
                    "name": "C4",
                    "midi": 60,
                    "time": 676.875,
                    "velocity": 0.8976377952755905,
                    "duration": 0.3125
                },
                {
                    "name": "G3",
                    "midi": 55,
                    "time": 677.1875,
                    "velocity": 0.8976377952755905,
                    "duration": 0.3125
                },
                {
                    "name": "C3",
                    "midi": 48,
                    "time": 677.5,
                    "velocity": 0.8976377952755905,
                    "duration": 0.3125
                },
                {
                    "name": "C3",
                    "midi": 48,
                    "time": 677.8125,
                    "velocity": 0.8976377952755905,
                    "duration": 0.3125
                },
                {
                    "name": "D3",
                    "midi": 50,
                    "time": 678.125,
                    "velocity": 0.8976377952755905,
                    "duration": 0.3125
                },
                {
                    "name": "E3",
                    "midi": 52,
                    "time": 678.4375,
                    "velocity": 0.8976377952755905,
                    "duration": 0.3125
                },
                {
                    "name": "F3",
                    "midi": 53,
                    "time": 678.75,
                    "velocity": 0.8976377952755905,
                    "duration": 0.3125
                },
                {
                    "name": "C3",
                    "midi": 48,
                    "time": 679.0625,
                    "velocity": 0.8976377952755905,
                    "duration": 0.3125
                },
                {
                    "name": "G2",
                    "midi": 43,
                    "time": 679.375,
                    "velocity": 0.8976377952755905,
                    "duration": 0.3125
                },
                {
                    "name": "G2",
                    "midi": 43,
                    "time": 679.6875,
                    "velocity": 0.8976377952755905,
                    "duration": 0.3125
                },
                {
                    "name": "A2",
                    "midi": 45,
                    "time": 680,
                    "velocity": 0.8976377952755905,
                    "duration": 0.3125
                },
                {
                    "name": "D3",
                    "midi": 50,
                    "time": 680,
                    "velocity": 0.8976377952755905,
                    "duration": 0.3125
                },
                {
                    "name": "F#3",
                    "midi": 54,
                    "time": 680,
                    "velocity": 0.8976377952755905,
                    "duration": 0.3125
                },
                {
                    "name": "C4",
                    "midi": 60,
                    "time": 680,
                    "velocity": 0.8976377952755905,
                    "duration": 0.3125
                },
                {
                    "name": "B2",
                    "midi": 47,
                    "time": 680.3125,
                    "velocity": 0.8976377952755905,
                    "duration": 0.3125
                },
                {
                    "name": "D3",
                    "midi": 50,
                    "time": 680.3125,
                    "velocity": 0.8976377952755905,
                    "duration": 0.3125
                },
                {
                    "name": "F#3",
                    "midi": 54,
                    "time": 680.3125,
                    "velocity": 0.8976377952755905,
                    "duration": 0.3125
                },
                {
                    "name": "B3",
                    "midi": 59,
                    "time": 680.3125,
                    "velocity": 0.8976377952755905,
                    "duration": 0.3125
                },
                {
                    "name": "C3",
                    "midi": 48,
                    "time": 680.625,
                    "velocity": 0.8976377952755905,
                    "duration": 0.3125
                },
                {
                    "name": "D3",
                    "midi": 50,
                    "time": 680.625,
                    "velocity": 0.8976377952755905,
                    "duration": 0.3125
                },
                {
                    "name": "F3",
                    "midi": 53,
                    "time": 680.625,
                    "velocity": 0.8976377952755905,
                    "duration": 0.3125
                },
                {
                    "name": "A3",
                    "midi": 57,
                    "time": 680.625,
                    "velocity": 0.8976377952755905,
                    "duration": 0.3125
                },
                {
                    "name": "F2",
                    "midi": 41,
                    "time": 680.9375,
                    "velocity": 0.8976377952755905,
                    "duration": 0.3125
                },
                {
                    "name": "F3",
                    "midi": 53,
                    "time": 680.9375,
                    "velocity": 0.8976377952755905,
                    "duration": 0.3125
                },
                {
                    "name": "G2",
                    "midi": 43,
                    "time": 681.25,
                    "velocity": 0.6929133858267716,
                    "duration": 0.15625
                },
                {
                    "name": "G3",
                    "midi": 55,
                    "time": 681.25,
                    "velocity": 0.6929133858267716,
                    "duration": 0.15625
                },
                {
                    "name": "E2",
                    "midi": 40,
                    "time": 681.40625,
                    "velocity": 0.6929133858267716,
                    "duration": 0.15625
                },
                {
                    "name": "E3",
                    "midi": 52,
                    "time": 681.40625,
                    "velocity": 0.6929133858267716,
                    "duration": 0.15625
                },
                {
                    "name": "F2",
                    "midi": 41,
                    "time": 681.5625,
                    "velocity": 0.6929133858267716,
                    "duration": 0.15625
                },
                {
                    "name": "F3",
                    "midi": 53,
                    "time": 681.5625,
                    "velocity": 0.6929133858267716,
                    "duration": 0.15625
                },
                {
                    "name": "E2",
                    "midi": 40,
                    "time": 681.71875,
                    "velocity": 0.6929133858267716,
                    "duration": 0.15625
                },
                {
                    "name": "E3",
                    "midi": 52,
                    "time": 681.71875,
                    "velocity": 0.6929133858267716,
                    "duration": 0.15625
                },
                {
                    "name": "D2",
                    "midi": 38,
                    "time": 681.875,
                    "velocity": 0.6929133858267716,
                    "duration": 0.15625
                },
                {
                    "name": "D3",
                    "midi": 50,
                    "time": 681.875,
                    "velocity": 0.6929133858267716,
                    "duration": 0.15625
                },
                {
                    "name": "F2",
                    "midi": 41,
                    "time": 682.03125,
                    "velocity": 0.6929133858267716,
                    "duration": 0.15625
                },
                {
                    "name": "F3",
                    "midi": 53,
                    "time": 682.03125,
                    "velocity": 0.6929133858267716,
                    "duration": 0.15625
                },
                {
                    "name": "E2",
                    "midi": 40,
                    "time": 682.1875,
                    "velocity": 0.6929133858267716,
                    "duration": 0.15625
                },
                {
                    "name": "E3",
                    "midi": 52,
                    "time": 682.1875,
                    "velocity": 0.6929133858267716,
                    "duration": 0.15625
                },
                {
                    "name": "D2",
                    "midi": 38,
                    "time": 682.34375,
                    "velocity": 0.6929133858267716,
                    "duration": 0.15625
                },
                {
                    "name": "D3",
                    "midi": 50,
                    "time": 682.34375,
                    "velocity": 0.6929133858267716,
                    "duration": 0.15625
                },
                {
                    "name": "G2",
                    "midi": 43,
                    "time": 682.5,
                    "velocity": 0.6929133858267716,
                    "duration": 0.15625
                },
                {
                    "name": "G3",
                    "midi": 55,
                    "time": 682.5,
                    "velocity": 0.6929133858267716,
                    "duration": 0.15625
                },
                {
                    "name": "E2",
                    "midi": 40,
                    "time": 682.65625,
                    "velocity": 0.6929133858267716,
                    "duration": 0.15625
                },
                {
                    "name": "E3",
                    "midi": 52,
                    "time": 682.65625,
                    "velocity": 0.6929133858267716,
                    "duration": 0.15625
                },
                {
                    "name": "F2",
                    "midi": 41,
                    "time": 682.8125,
                    "velocity": 0.6929133858267716,
                    "duration": 0.15625
                },
                {
                    "name": "F3",
                    "midi": 53,
                    "time": 682.8125,
                    "velocity": 0.6929133858267716,
                    "duration": 0.15625
                },
                {
                    "name": "E2",
                    "midi": 40,
                    "time": 682.96875,
                    "velocity": 0.6929133858267716,
                    "duration": 0.15625
                },
                {
                    "name": "E3",
                    "midi": 52,
                    "time": 682.96875,
                    "velocity": 0.6929133858267716,
                    "duration": 0.15625
                },
                {
                    "name": "D2",
                    "midi": 38,
                    "time": 683.125,
                    "velocity": 0.6929133858267716,
                    "duration": 0.15625
                },
                {
                    "name": "D3",
                    "midi": 50,
                    "time": 683.125,
                    "velocity": 0.6929133858267716,
                    "duration": 0.15625
                },
                {
                    "name": "F2",
                    "midi": 41,
                    "time": 683.28125,
                    "velocity": 0.6929133858267716,
                    "duration": 0.15625
                },
                {
                    "name": "F3",
                    "midi": 53,
                    "time": 683.28125,
                    "velocity": 0.6929133858267716,
                    "duration": 0.15625
                },
                {
                    "name": "E2",
                    "midi": 40,
                    "time": 683.4375,
                    "velocity": 0.6929133858267716,
                    "duration": 0.15625
                },
                {
                    "name": "E3",
                    "midi": 52,
                    "time": 683.4375,
                    "velocity": 0.6929133858267716,
                    "duration": 0.15625
                },
                {
                    "name": "D2",
                    "midi": 38,
                    "time": 683.59375,
                    "velocity": 0.6929133858267716,
                    "duration": 0.15625
                },
                {
                    "name": "D3",
                    "midi": 50,
                    "time": 683.59375,
                    "velocity": 0.6929133858267716,
                    "duration": 0.15625
                },
                {
                    "name": "C3",
                    "midi": 48,
                    "time": 683.75,
                    "velocity": 0.6929133858267716,
                    "duration": 0.15625
                },
                {
                    "name": "C4",
                    "midi": 60,
                    "time": 683.75,
                    "velocity": 0.6929133858267716,
                    "duration": 0.15625
                },
                {
                    "name": "G2",
                    "midi": 43,
                    "time": 683.90625,
                    "velocity": 0.6929133858267716,
                    "duration": 0.15625
                },
                {
                    "name": "G3",
                    "midi": 55,
                    "time": 683.90625,
                    "velocity": 0.6929133858267716,
                    "duration": 0.15625
                },
                {
                    "name": "B2",
                    "midi": 47,
                    "time": 684.0625,
                    "velocity": 0.6929133858267716,
                    "duration": 0.15625
                },
                {
                    "name": "B3",
                    "midi": 59,
                    "time": 684.0625,
                    "velocity": 0.6929133858267716,
                    "duration": 0.15625
                },
                {
                    "name": "A2",
                    "midi": 45,
                    "time": 684.21875,
                    "velocity": 0.6929133858267716,
                    "duration": 0.15625
                },
                {
                    "name": "A3",
                    "midi": 57,
                    "time": 684.21875,
                    "velocity": 0.6929133858267716,
                    "duration": 0.15625
                },
                {
                    "name": "G2",
                    "midi": 43,
                    "time": 684.375,
                    "velocity": 0.6929133858267716,
                    "duration": 0.15625
                },
                {
                    "name": "G3",
                    "midi": 55,
                    "time": 684.375,
                    "velocity": 0.6929133858267716,
                    "duration": 0.15625
                },
                {
                    "name": "B2",
                    "midi": 47,
                    "time": 684.53125,
                    "velocity": 0.6929133858267716,
                    "duration": 0.15625
                },
                {
                    "name": "B3",
                    "midi": 59,
                    "time": 684.53125,
                    "velocity": 0.6929133858267716,
                    "duration": 0.15625
                },
                {
                    "name": "A2",
                    "midi": 45,
                    "time": 684.6875,
                    "velocity": 0.6929133858267716,
                    "duration": 0.15625
                },
                {
                    "name": "A3",
                    "midi": 57,
                    "time": 684.6875,
                    "velocity": 0.6929133858267716,
                    "duration": 0.15625
                },
                {
                    "name": "G2",
                    "midi": 43,
                    "time": 684.84375,
                    "velocity": 0.6929133858267716,
                    "duration": 0.15625
                },
                {
                    "name": "G3",
                    "midi": 55,
                    "time": 684.84375,
                    "velocity": 0.6929133858267716,
                    "duration": 0.15625
                },
                {
                    "name": "G3",
                    "midi": 55,
                    "time": 685,
                    "velocity": 0.6929133858267716,
                    "duration": 0.15625
                },
                {
                    "name": "E3",
                    "midi": 52,
                    "time": 685.15625,
                    "velocity": 0.6929133858267716,
                    "duration": 0.15625
                },
                {
                    "name": "F3",
                    "midi": 53,
                    "time": 685.3125,
                    "velocity": 0.6929133858267716,
                    "duration": 0.15625
                },
                {
                    "name": "E3",
                    "midi": 52,
                    "time": 685.46875,
                    "velocity": 0.6929133858267716,
                    "duration": 0.15625
                },
                {
                    "name": "D3",
                    "midi": 50,
                    "time": 685.625,
                    "velocity": 0.6929133858267716,
                    "duration": 0.15625
                },
                {
                    "name": "F3",
                    "midi": 53,
                    "time": 685.78125,
                    "velocity": 0.6929133858267716,
                    "duration": 0.15625
                },
                {
                    "name": "E3",
                    "midi": 52,
                    "time": 685.9375,
                    "velocity": 0.6929133858267716,
                    "duration": 0.15625
                },
                {
                    "name": "D3",
                    "midi": 50,
                    "time": 686.09375,
                    "velocity": 0.6929133858267716,
                    "duration": 0.15625
                },
                {
                    "name": "C4",
                    "midi": 60,
                    "time": 686.25,
                    "velocity": 0.6929133858267716,
                    "duration": 0.15625
                },
                {
                    "name": "G3",
                    "midi": 55,
                    "time": 686.40625,
                    "velocity": 0.6929133858267716,
                    "duration": 0.15625
                },
                {
                    "name": "B3",
                    "midi": 59,
                    "time": 686.5625,
                    "velocity": 0.6929133858267716,
                    "duration": 0.15625
                },
                {
                    "name": "A3",
                    "midi": 57,
                    "time": 686.71875,
                    "velocity": 0.6929133858267716,
                    "duration": 0.15625
                },
                {
                    "name": "G3",
                    "midi": 55,
                    "time": 686.875,
                    "velocity": 0.6929133858267716,
                    "duration": 0.15625
                },
                {
                    "name": "B3",
                    "midi": 59,
                    "time": 687.03125,
                    "velocity": 0.6929133858267716,
                    "duration": 0.15625
                },
                {
                    "name": "A3",
                    "midi": 57,
                    "time": 687.1875,
                    "velocity": 0.6929133858267716,
                    "duration": 0.15625
                },
                {
                    "name": "G3",
                    "midi": 55,
                    "time": 687.34375,
                    "velocity": 0.6929133858267716,
                    "duration": 0.15625
                },
                {
                    "name": "G4",
                    "midi": 67,
                    "time": 687.5,
                    "velocity": 0.6929133858267716,
                    "duration": 0.15625
                },
                {
                    "name": "D4",
                    "midi": 62,
                    "time": 687.65625,
                    "velocity": 0.6929133858267716,
                    "duration": 0.15625
                },
                {
                    "name": "F4",
                    "midi": 65,
                    "time": 687.8125,
                    "velocity": 0.6929133858267716,
                    "duration": 0.15625
                },
                {
                    "name": "E4",
                    "midi": 64,
                    "time": 687.96875,
                    "velocity": 0.6929133858267716,
                    "duration": 0.15625
                },
                {
                    "name": "D4",
                    "midi": 62,
                    "time": 688.125,
                    "velocity": 0.6929133858267716,
                    "duration": 0.15625
                },
                {
                    "name": "F4",
                    "midi": 65,
                    "time": 688.28125,
                    "velocity": 0.6929133858267716,
                    "duration": 0.15625
                },
                {
                    "name": "E4",
                    "midi": 64,
                    "time": 688.4375,
                    "velocity": 0.6929133858267716,
                    "duration": 0.15625
                },
                {
                    "name": "D4",
                    "midi": 62,
                    "time": 688.59375,
                    "velocity": 0.6929133858267716,
                    "duration": 0.15625
                },
                {
                    "name": "G3",
                    "midi": 55,
                    "time": 688.75,
                    "velocity": 1,
                    "duration": 0.3125
                },
                {
                    "name": "G2",
                    "midi": 43,
                    "time": 689.0625,
                    "velocity": 1,
                    "duration": 0.3125
                },
                {
                    "name": "B2",
                    "midi": 47,
                    "time": 689.375,
                    "velocity": 1,
                    "duration": 0.3125
                },
                {
                    "name": "A3",
                    "midi": 57,
                    "time": 689.6875,
                    "velocity": 0.7952755905511811,
                    "duration": 0.3125
                },
                {
                    "name": "G3",
                    "midi": 55,
                    "time": 690,
                    "velocity": 0.7952755905511811,
                    "duration": 0.06119791666662877
                },
                {
                    "name": "G2",
                    "midi": 43,
                    "time": 690.3125,
                    "velocity": 0.7952755905511811,
                    "duration": 0.15625
                },
                {
                    "name": "A2",
                    "midi": 45,
                    "time": 690.46875,
                    "velocity": 0.7952755905511811,
                    "duration": 0.15625
                },
                {
                    "name": "B2",
                    "midi": 47,
                    "time": 690.625,
                    "velocity": 0.7952755905511811,
                    "duration": 0.625
                },
                {
                    "name": "G4",
                    "midi": 67,
                    "time": 691.25,
                    "velocity": 0.7952755905511811,
                    "duration": 0.15625
                },
                {
                    "name": "D4",
                    "midi": 62,
                    "time": 691.40625,
                    "velocity": 0.7952755905511811,
                    "duration": 0.15625
                },
                {
                    "name": "F4",
                    "midi": 65,
                    "time": 691.5625,
                    "velocity": 0.7952755905511811,
                    "duration": 0.15625
                },
                {
                    "name": "E4",
                    "midi": 64,
                    "time": 691.71875,
                    "velocity": 0.7952755905511811,
                    "duration": 0.15625
                },
                {
                    "name": "D4",
                    "midi": 62,
                    "time": 691.875,
                    "velocity": 0.7952755905511811,
                    "duration": 0.15625
                },
                {
                    "name": "F4",
                    "midi": 65,
                    "time": 692.03125,
                    "velocity": 0.7952755905511811,
                    "duration": 0.15625
                },
                {
                    "name": "E4",
                    "midi": 64,
                    "time": 692.1875,
                    "velocity": 0.7952755905511811,
                    "duration": 0.15625
                },
                {
                    "name": "D4",
                    "midi": 62,
                    "time": 692.34375,
                    "velocity": 0.7952755905511811,
                    "duration": 0.15625
                },
                {
                    "name": "G4",
                    "midi": 67,
                    "time": 692.5,
                    "velocity": 0.7952755905511811,
                    "duration": 0.15625
                },
                {
                    "name": "D4",
                    "midi": 62,
                    "time": 692.65625,
                    "velocity": 0.7952755905511811,
                    "duration": 0.15625
                },
                {
                    "name": "F4",
                    "midi": 65,
                    "time": 692.8125,
                    "velocity": 0.7952755905511811,
                    "duration": 0.15625
                },
                {
                    "name": "E4",
                    "midi": 64,
                    "time": 692.96875,
                    "velocity": 0.7952755905511811,
                    "duration": 0.15625
                },
                {
                    "name": "D4",
                    "midi": 62,
                    "time": 693.125,
                    "velocity": 0.7952755905511811,
                    "duration": 0.15625
                },
                {
                    "name": "F4",
                    "midi": 65,
                    "time": 693.28125,
                    "velocity": 0.7952755905511811,
                    "duration": 0.15625
                },
                {
                    "name": "E4",
                    "midi": 64,
                    "time": 693.4375,
                    "velocity": 0.7952755905511811,
                    "duration": 0.15625
                },
                {
                    "name": "D4",
                    "midi": 62,
                    "time": 693.59375,
                    "velocity": 0.7952755905511811,
                    "duration": 0.15625
                },
                {
                    "name": "G3",
                    "midi": 55,
                    "time": 694.0625,
                    "velocity": 0.7952755905511811,
                    "duration": 0.3125
                },
                {
                    "name": "A#3",
                    "midi": 58,
                    "time": 694.375,
                    "velocity": 0.7952755905511811,
                    "duration": 0.3125
                },
                {
                    "name": "D4",
                    "midi": 62,
                    "time": 694.6875,
                    "velocity": 0.7952755905511811,
                    "duration": 0.3125
                },
                {
                    "name": "F4",
                    "midi": 65,
                    "time": 695,
                    "velocity": 0.7952755905511811,
                    "duration": 0.10416666666662877
                },
                {
                    "name": "G4",
                    "midi": 67,
                    "time": 695.1041666666666,
                    "velocity": 0.7952755905511811,
                    "duration": 0.10286458333337123
                },
                {
                    "name": "F4",
                    "midi": 65,
                    "time": 695.20703125,
                    "velocity": 0.7952755905511811,
                    "duration": 0.10546875
                },
                {
                    "name": "D4",
                    "midi": 62,
                    "time": 695.3125,
                    "velocity": 0.7952755905511811,
                    "duration": 0.15625
                },
                {
                    "name": "A#3",
                    "midi": 58,
                    "time": 695.46875,
                    "velocity": 0.7952755905511811,
                    "duration": 0.15625
                },
                {
                    "name": "G3",
                    "midi": 55,
                    "time": 695.625,
                    "velocity": 0.7952755905511811,
                    "duration": 0.06119791666662877
                },
                {
                    "name": "A3",
                    "midi": 57,
                    "time": 695.9375,
                    "velocity": 0.7952755905511811,
                    "duration": 0.06119791666662877
                },
                {
                    "name": "F3",
                    "midi": 53,
                    "time": 696.25,
                    "velocity": 0.7952755905511811,
                    "duration": 0.10416666666662877
                },
                {
                    "name": "G3",
                    "midi": 55,
                    "time": 696.3541666666666,
                    "velocity": 0.7952755905511811,
                    "duration": 0.10286458333337123
                },
                {
                    "name": "F3",
                    "midi": 53,
                    "time": 696.45703125,
                    "velocity": 0.7952755905511811,
                    "duration": 0.10546875
                },
                {
                    "name": "D3",
                    "midi": 50,
                    "time": 696.5625,
                    "velocity": 0.7952755905511811,
                    "duration": 0.15625
                },
                {
                    "name": "B2",
                    "midi": 47,
                    "time": 696.71875,
                    "velocity": 0.7952755905511811,
                    "duration": 0.15625
                },
                {
                    "name": "G2",
                    "midi": 43,
                    "time": 696.875,
                    "velocity": 1,
                    "duration": 0.625
                },
                {
                    "name": "G4",
                    "midi": 67,
                    "time": 697.5,
                    "velocity": 0.7952755905511811,
                    "duration": 0.15625
                },
                {
                    "name": "D4",
                    "midi": 62,
                    "time": 697.65625,
                    "velocity": 0.7952755905511811,
                    "duration": 0.15625
                },
                {
                    "name": "F4",
                    "midi": 65,
                    "time": 697.8125,
                    "velocity": 0.7952755905511811,
                    "duration": 0.15625
                },
                {
                    "name": "E4",
                    "midi": 64,
                    "time": 697.96875,
                    "velocity": 0.7952755905511811,
                    "duration": 0.15625
                },
                {
                    "name": "D4",
                    "midi": 62,
                    "time": 698.125,
                    "velocity": 0.7952755905511811,
                    "duration": 0.15625
                },
                {
                    "name": "F4",
                    "midi": 65,
                    "time": 698.28125,
                    "velocity": 0.7952755905511811,
                    "duration": 0.15625
                },
                {
                    "name": "E4",
                    "midi": 64,
                    "time": 698.4375,
                    "velocity": 0.7952755905511811,
                    "duration": 0.15625
                },
                {
                    "name": "D4",
                    "midi": 62,
                    "time": 698.59375,
                    "velocity": 0.7952755905511811,
                    "duration": 0.15625
                },
                {
                    "name": "B3",
                    "midi": 59,
                    "time": 698.75,
                    "velocity": 0.8976377952755905,
                    "duration": 0.078125
                },
                {
                    "name": "F3",
                    "midi": 53,
                    "time": 698.828125,
                    "velocity": 0.8976377952755905,
                    "duration": 0.078125
                },
                {
                    "name": "B3",
                    "midi": 59,
                    "time": 698.90625,
                    "velocity": 0.6929133858267716,
                    "duration": 0.078125
                },
                {
                    "name": "F3",
                    "midi": 53,
                    "time": 698.984375,
                    "velocity": 0.6929133858267716,
                    "duration": 0.078125
                },
                {
                    "name": "B3",
                    "midi": 59,
                    "time": 699.0625,
                    "velocity": 0.6929133858267716,
                    "duration": 0.078125
                },
                {
                    "name": "F3",
                    "midi": 53,
                    "time": 699.140625,
                    "velocity": 0.6929133858267716,
                    "duration": 0.078125
                },
                {
                    "name": "B3",
                    "midi": 59,
                    "time": 699.21875,
                    "velocity": 0.6929133858267716,
                    "duration": 0.078125
                },
                {
                    "name": "F3",
                    "midi": 53,
                    "time": 699.296875,
                    "velocity": 0.6929133858267716,
                    "duration": 0.078125
                },
                {
                    "name": "B3",
                    "midi": 59,
                    "time": 699.375,
                    "velocity": 0.6929133858267716,
                    "duration": 0.078125
                },
                {
                    "name": "F3",
                    "midi": 53,
                    "time": 699.453125,
                    "velocity": 0.6929133858267716,
                    "duration": 0.078125
                },
                {
                    "name": "B3",
                    "midi": 59,
                    "time": 699.53125,
                    "velocity": 0.6929133858267716,
                    "duration": 0.078125
                },
                {
                    "name": "F3",
                    "midi": 53,
                    "time": 699.609375,
                    "velocity": 0.6929133858267716,
                    "duration": 0.078125
                },
                {
                    "name": "B3",
                    "midi": 59,
                    "time": 699.6875,
                    "velocity": 0.6929133858267716,
                    "duration": 0.078125
                },
                {
                    "name": "F3",
                    "midi": 53,
                    "time": 699.765625,
                    "velocity": 0.6929133858267716,
                    "duration": 0.078125
                },
                {
                    "name": "B3",
                    "midi": 59,
                    "time": 699.84375,
                    "velocity": 0.6929133858267716,
                    "duration": 0.078125
                },
                {
                    "name": "F3",
                    "midi": 53,
                    "time": 699.921875,
                    "velocity": 0.6929133858267716,
                    "duration": 0.078125
                },
                {
                    "name": "B3",
                    "midi": 59,
                    "time": 700,
                    "velocity": 0.6929133858267716,
                    "duration": 0.078125
                },
                {
                    "name": "F3",
                    "midi": 53,
                    "time": 700.078125,
                    "velocity": 0.6929133858267716,
                    "duration": 0.078125
                },
                {
                    "name": "B3",
                    "midi": 59,
                    "time": 700.15625,
                    "velocity": 0.6929133858267716,
                    "duration": 0.078125
                },
                {
                    "name": "F3",
                    "midi": 53,
                    "time": 700.234375,
                    "velocity": 0.6929133858267716,
                    "duration": 0.078125
                },
                {
                    "name": "B3",
                    "midi": 59,
                    "time": 700.3125,
                    "velocity": 0.6929133858267716,
                    "duration": 0.078125
                },
                {
                    "name": "F3",
                    "midi": 53,
                    "time": 700.390625,
                    "velocity": 0.6929133858267716,
                    "duration": 0.078125
                },
                {
                    "name": "B3",
                    "midi": 59,
                    "time": 700.46875,
                    "velocity": 0.6929133858267716,
                    "duration": 0.078125
                },
                {
                    "name": "F3",
                    "midi": 53,
                    "time": 700.546875,
                    "velocity": 0.6929133858267716,
                    "duration": 0.078125
                },
                {
                    "name": "B3",
                    "midi": 59,
                    "time": 700.625,
                    "velocity": 0.6929133858267716,
                    "duration": 0.078125
                },
                {
                    "name": "F3",
                    "midi": 53,
                    "time": 700.703125,
                    "velocity": 0.6929133858267716,
                    "duration": 0.078125
                },
                {
                    "name": "B3",
                    "midi": 59,
                    "time": 700.78125,
                    "velocity": 0.6929133858267716,
                    "duration": 0.078125
                },
                {
                    "name": "F3",
                    "midi": 53,
                    "time": 700.859375,
                    "velocity": 0.6929133858267716,
                    "duration": 0.078125
                },
                {
                    "name": "B3",
                    "midi": 59,
                    "time": 700.9375,
                    "velocity": 0.6929133858267716,
                    "duration": 0.078125
                },
                {
                    "name": "F3",
                    "midi": 53,
                    "time": 701.015625,
                    "velocity": 0.6929133858267716,
                    "duration": 0.078125
                },
                {
                    "name": "B3",
                    "midi": 59,
                    "time": 701.09375,
                    "velocity": 0.6929133858267716,
                    "duration": 0.078125
                },
                {
                    "name": "F3",
                    "midi": 53,
                    "time": 701.171875,
                    "velocity": 0.6929133858267716,
                    "duration": 0.078125
                },
                {
                    "name": "B3",
                    "midi": 59,
                    "time": 701.25,
                    "velocity": 0.6929133858267716,
                    "duration": 0.078125
                },
                {
                    "name": "F3",
                    "midi": 53,
                    "time": 701.328125,
                    "velocity": 0.6929133858267716,
                    "duration": 0.078125
                },
                {
                    "name": "B3",
                    "midi": 59,
                    "time": 701.40625,
                    "velocity": 0.6929133858267716,
                    "duration": 0.078125
                },
                {
                    "name": "F3",
                    "midi": 53,
                    "time": 701.484375,
                    "velocity": 0.6929133858267716,
                    "duration": 0.078125
                },
                {
                    "name": "B3",
                    "midi": 59,
                    "time": 701.5625,
                    "velocity": 0.6929133858267716,
                    "duration": 0.078125
                },
                {
                    "name": "F3",
                    "midi": 53,
                    "time": 701.640625,
                    "velocity": 0.6929133858267716,
                    "duration": 0.078125
                },
                {
                    "name": "B3",
                    "midi": 59,
                    "time": 701.71875,
                    "velocity": 0.6929133858267716,
                    "duration": 0.078125
                },
                {
                    "name": "F3",
                    "midi": 53,
                    "time": 701.796875,
                    "velocity": 0.6929133858267716,
                    "duration": 0.078125
                },
                {
                    "name": "B3",
                    "midi": 59,
                    "time": 701.875,
                    "velocity": 0.6929133858267716,
                    "duration": 0.078125
                },
                {
                    "name": "F3",
                    "midi": 53,
                    "time": 701.953125,
                    "velocity": 0.6929133858267716,
                    "duration": 0.078125
                },
                {
                    "name": "B3",
                    "midi": 59,
                    "time": 702.03125,
                    "velocity": 0.6929133858267716,
                    "duration": 0.078125
                },
                {
                    "name": "F3",
                    "midi": 53,
                    "time": 702.109375,
                    "velocity": 0.6929133858267716,
                    "duration": 0.078125
                },
                {
                    "name": "B3",
                    "midi": 59,
                    "time": 702.1875,
                    "velocity": 0.6929133858267716,
                    "duration": 0.078125
                },
                {
                    "name": "F3",
                    "midi": 53,
                    "time": 702.265625,
                    "velocity": 0.6929133858267716,
                    "duration": 0.078125
                },
                {
                    "name": "B3",
                    "midi": 59,
                    "time": 702.34375,
                    "velocity": 0.6929133858267716,
                    "duration": 0.078125
                },
                {
                    "name": "F3",
                    "midi": 53,
                    "time": 702.421875,
                    "velocity": 0.6929133858267716,
                    "duration": 0.078125
                },
                {
                    "name": "B3",
                    "midi": 59,
                    "time": 702.5,
                    "velocity": 0.6929133858267716,
                    "duration": 0.078125
                },
                {
                    "name": "F3",
                    "midi": 53,
                    "time": 702.578125,
                    "velocity": 0.6929133858267716,
                    "duration": 0.078125
                },
                {
                    "name": "B3",
                    "midi": 59,
                    "time": 702.65625,
                    "velocity": 0.6929133858267716,
                    "duration": 0.078125
                },
                {
                    "name": "F3",
                    "midi": 53,
                    "time": 702.734375,
                    "velocity": 0.6929133858267716,
                    "duration": 0.078125
                },
                {
                    "name": "B3",
                    "midi": 59,
                    "time": 702.8125,
                    "velocity": 0.6929133858267716,
                    "duration": 0.078125
                },
                {
                    "name": "F3",
                    "midi": 53,
                    "time": 702.890625,
                    "velocity": 0.6929133858267716,
                    "duration": 0.078125
                },
                {
                    "name": "B3",
                    "midi": 59,
                    "time": 702.96875,
                    "velocity": 0.6929133858267716,
                    "duration": 0.078125
                },
                {
                    "name": "F3",
                    "midi": 53,
                    "time": 703.046875,
                    "velocity": 0.6929133858267716,
                    "duration": 0.078125
                },
                {
                    "name": "B3",
                    "midi": 59,
                    "time": 703.125,
                    "velocity": 0.6929133858267716,
                    "duration": 0.078125
                },
                {
                    "name": "F3",
                    "midi": 53,
                    "time": 703.203125,
                    "velocity": 0.6929133858267716,
                    "duration": 0.078125
                },
                {
                    "name": "B3",
                    "midi": 59,
                    "time": 703.28125,
                    "velocity": 0.6929133858267716,
                    "duration": 0.078125
                },
                {
                    "name": "F3",
                    "midi": 53,
                    "time": 703.359375,
                    "velocity": 0.6929133858267716,
                    "duration": 0.078125
                },
                {
                    "name": "B3",
                    "midi": 59,
                    "time": 703.4375,
                    "velocity": 0.6929133858267716,
                    "duration": 0.078125
                },
                {
                    "name": "F3",
                    "midi": 53,
                    "time": 703.515625,
                    "velocity": 0.6929133858267716,
                    "duration": 0.078125
                },
                {
                    "name": "B3",
                    "midi": 59,
                    "time": 703.59375,
                    "velocity": 0.6929133858267716,
                    "duration": 0.078125
                },
                {
                    "name": "F3",
                    "midi": 53,
                    "time": 703.671875,
                    "velocity": 0.6929133858267716,
                    "duration": 0.078125
                },
                {
                    "name": "B3",
                    "midi": 59,
                    "time": 703.75,
                    "velocity": 0.6929133858267716,
                    "duration": 0.078125
                },
                {
                    "name": "F3",
                    "midi": 53,
                    "time": 703.828125,
                    "velocity": 0.6929133858267716,
                    "duration": 0.078125
                },
                {
                    "name": "B3",
                    "midi": 59,
                    "time": 703.90625,
                    "velocity": 0.6929133858267716,
                    "duration": 0.078125
                },
                {
                    "name": "F3",
                    "midi": 53,
                    "time": 703.984375,
                    "velocity": 0.6929133858267716,
                    "duration": 0.078125
                },
                {
                    "name": "B3",
                    "midi": 59,
                    "time": 704.0625,
                    "velocity": 0.6929133858267716,
                    "duration": 0.078125
                },
                {
                    "name": "F3",
                    "midi": 53,
                    "time": 704.140625,
                    "velocity": 0.6929133858267716,
                    "duration": 0.078125
                },
                {
                    "name": "B3",
                    "midi": 59,
                    "time": 704.21875,
                    "velocity": 0.6929133858267716,
                    "duration": 0.078125
                },
                {
                    "name": "F3",
                    "midi": 53,
                    "time": 704.296875,
                    "velocity": 0.6929133858267716,
                    "duration": 0.078125
                },
                {
                    "name": "B3",
                    "midi": 59,
                    "time": 704.375,
                    "velocity": 0.6929133858267716,
                    "duration": 0.078125
                },
                {
                    "name": "F3",
                    "midi": 53,
                    "time": 704.453125,
                    "velocity": 0.6929133858267716,
                    "duration": 0.078125
                },
                {
                    "name": "B3",
                    "midi": 59,
                    "time": 704.53125,
                    "velocity": 0.6929133858267716,
                    "duration": 0.078125
                },
                {
                    "name": "F3",
                    "midi": 53,
                    "time": 704.609375,
                    "velocity": 0.6929133858267716,
                    "duration": 0.078125
                },
                {
                    "name": "B3",
                    "midi": 59,
                    "time": 704.6875,
                    "velocity": 0.6929133858267716,
                    "duration": 0.078125
                },
                {
                    "name": "F3",
                    "midi": 53,
                    "time": 704.765625,
                    "velocity": 0.6929133858267716,
                    "duration": 0.078125
                },
                {
                    "name": "B3",
                    "midi": 59,
                    "time": 704.84375,
                    "velocity": 0.6929133858267716,
                    "duration": 0.078125
                },
                {
                    "name": "F3",
                    "midi": 53,
                    "time": 704.921875,
                    "velocity": 0.6929133858267716,
                    "duration": 0.078125
                },
                {
                    "name": "B3",
                    "midi": 59,
                    "time": 705,
                    "velocity": 0.6929133858267716,
                    "duration": 0.078125
                },
                {
                    "name": "F3",
                    "midi": 53,
                    "time": 705.078125,
                    "velocity": 0.6929133858267716,
                    "duration": 0.078125
                },
                {
                    "name": "B3",
                    "midi": 59,
                    "time": 705.15625,
                    "velocity": 0.6929133858267716,
                    "duration": 0.078125
                },
                {
                    "name": "F3",
                    "midi": 53,
                    "time": 705.234375,
                    "velocity": 0.6929133858267716,
                    "duration": 0.078125
                },
                {
                    "name": "B3",
                    "midi": 59,
                    "time": 705.3125,
                    "velocity": 0.6929133858267716,
                    "duration": 0.078125
                },
                {
                    "name": "F3",
                    "midi": 53,
                    "time": 705.390625,
                    "velocity": 0.6929133858267716,
                    "duration": 0.078125
                },
                {
                    "name": "B3",
                    "midi": 59,
                    "time": 705.46875,
                    "velocity": 0.6929133858267716,
                    "duration": 0.078125
                },
                {
                    "name": "F3",
                    "midi": 53,
                    "time": 705.546875,
                    "velocity": 0.6929133858267716,
                    "duration": 0.078125
                },
                {
                    "name": "B3",
                    "midi": 59,
                    "time": 705.625,
                    "velocity": 0.6929133858267716,
                    "duration": 0.078125
                },
                {
                    "name": "F3",
                    "midi": 53,
                    "time": 705.703125,
                    "velocity": 0.6929133858267716,
                    "duration": 0.078125
                },
                {
                    "name": "B3",
                    "midi": 59,
                    "time": 705.78125,
                    "velocity": 0.6929133858267716,
                    "duration": 0.078125
                },
                {
                    "name": "F3",
                    "midi": 53,
                    "time": 705.859375,
                    "velocity": 0.6929133858267716,
                    "duration": 0.078125
                },
                {
                    "name": "B3",
                    "midi": 59,
                    "time": 705.9375,
                    "velocity": 0.6929133858267716,
                    "duration": 0.078125
                },
                {
                    "name": "F3",
                    "midi": 53,
                    "time": 706.015625,
                    "velocity": 0.6929133858267716,
                    "duration": 0.078125
                },
                {
                    "name": "B3",
                    "midi": 59,
                    "time": 706.09375,
                    "velocity": 0.6929133858267716,
                    "duration": 0.078125
                },
                {
                    "name": "F3",
                    "midi": 53,
                    "time": 706.171875,
                    "velocity": 0.6929133858267716,
                    "duration": 0.078125
                },
                {
                    "name": "B3",
                    "midi": 59,
                    "time": 706.25,
                    "velocity": 0.6929133858267716,
                    "duration": 0.078125
                },
                {
                    "name": "F3",
                    "midi": 53,
                    "time": 706.328125,
                    "velocity": 0.6929133858267716,
                    "duration": 0.078125
                },
                {
                    "name": "B3",
                    "midi": 59,
                    "time": 706.40625,
                    "velocity": 0.6929133858267716,
                    "duration": 0.078125
                },
                {
                    "name": "F3",
                    "midi": 53,
                    "time": 706.484375,
                    "velocity": 0.6929133858267716,
                    "duration": 0.078125
                },
                {
                    "name": "B3",
                    "midi": 59,
                    "time": 706.5625,
                    "velocity": 0.6929133858267716,
                    "duration": 0.078125
                },
                {
                    "name": "F3",
                    "midi": 53,
                    "time": 706.640625,
                    "velocity": 0.6929133858267716,
                    "duration": 0.078125
                },
                {
                    "name": "B3",
                    "midi": 59,
                    "time": 706.71875,
                    "velocity": 0.6929133858267716,
                    "duration": 0.078125
                },
                {
                    "name": "F3",
                    "midi": 53,
                    "time": 706.796875,
                    "velocity": 0.6929133858267716,
                    "duration": 0.078125
                },
                {
                    "name": "B3",
                    "midi": 59,
                    "time": 706.875,
                    "velocity": 0.6929133858267716,
                    "duration": 0.078125
                },
                {
                    "name": "F3",
                    "midi": 53,
                    "time": 706.953125,
                    "velocity": 0.6929133858267716,
                    "duration": 0.078125
                },
                {
                    "name": "B3",
                    "midi": 59,
                    "time": 707.03125,
                    "velocity": 0.6929133858267716,
                    "duration": 0.078125
                },
                {
                    "name": "F3",
                    "midi": 53,
                    "time": 707.109375,
                    "velocity": 0.6929133858267716,
                    "duration": 0.078125
                },
                {
                    "name": "B3",
                    "midi": 59,
                    "time": 707.1875,
                    "velocity": 0.6929133858267716,
                    "duration": 0.078125
                },
                {
                    "name": "F3",
                    "midi": 53,
                    "time": 707.265625,
                    "velocity": 0.6929133858267716,
                    "duration": 0.078125
                },
                {
                    "name": "B3",
                    "midi": 59,
                    "time": 707.34375,
                    "velocity": 0.6929133858267716,
                    "duration": 0.078125
                },
                {
                    "name": "F3",
                    "midi": 53,
                    "time": 707.421875,
                    "velocity": 0.6929133858267716,
                    "duration": 0.078125
                },
                {
                    "name": "C4",
                    "midi": 60,
                    "time": 707.5,
                    "velocity": 0.7952755905511811,
                    "duration": 0.06119791666662877
                },
                {
                    "name": "C4",
                    "midi": 60,
                    "time": 707.8125,
                    "velocity": 0.7952755905511811,
                    "duration": 0.06119791666662877
                },
                {
                    "name": "C4",
                    "midi": 60,
                    "time": 708.125,
                    "velocity": 0.7952755905511811,
                    "duration": 0.06119791666662877
                },
                {
                    "name": "E3",
                    "midi": 52,
                    "time": 708.4375,
                    "velocity": 0.7952755905511811,
                    "duration": 0.06119791666662877
                },
                {
                    "name": "A#3",
                    "midi": 58,
                    "time": 708.75,
                    "velocity": 0.7952755905511811,
                    "duration": 0.06119791666662877
                },
                {
                    "name": "A#3",
                    "midi": 58,
                    "time": 709.0625,
                    "velocity": 0.7952755905511811,
                    "duration": 0.06119791666662877
                },
                {
                    "name": "A#3",
                    "midi": 58,
                    "time": 709.375,
                    "velocity": 0.7952755905511811,
                    "duration": 0.06119791666662877
                },
                {
                    "name": "E3",
                    "midi": 52,
                    "time": 709.6875,
                    "velocity": 0.7952755905511811,
                    "duration": 0.06119791666662877
                },
                {
                    "name": "C4",
                    "midi": 60,
                    "time": 710,
                    "velocity": 1,
                    "duration": 0.3125
                },
                {
                    "name": "F3",
                    "midi": 53,
                    "time": 710.3125,
                    "velocity": 1,
                    "duration": 0.3125
                },
                {
                    "name": "A#3",
                    "midi": 58,
                    "time": 710.625,
                    "velocity": 1,
                    "duration": 0.3125
                },
                {
                    "name": "F3",
                    "midi": 53,
                    "time": 710.9375,
                    "velocity": 1,
                    "duration": 0.3125
                },
                {
                    "name": "G3",
                    "midi": 55,
                    "time": 711.25,
                    "velocity": 1,
                    "duration": 0.3125
                },
                {
                    "name": "A#2",
                    "midi": 46,
                    "time": 711.5625,
                    "velocity": 1,
                    "duration": 0.3125
                },
                {
                    "name": "F3",
                    "midi": 53,
                    "time": 711.875,
                    "velocity": 1,
                    "duration": 0.3125
                },
                {
                    "name": "A#2",
                    "midi": 46,
                    "time": 712.1875,
                    "velocity": 1,
                    "duration": 0.3125
                },
                {
                    "name": "A#1",
                    "midi": 34,
                    "time": 712.5,
                    "velocity": 0.7952755905511811,
                    "duration": 0.3125
                },
                {
                    "name": "A#1",
                    "midi": 34,
                    "time": 713.125,
                    "velocity": 0.7952755905511811,
                    "duration": 0.3125
                },
                {
                    "name": "A#1",
                    "midi": 34,
                    "time": 713.75,
                    "velocity": 0.7952755905511811,
                    "duration": 0.3125
                },
                {
                    "name": "A#1",
                    "midi": 34,
                    "time": 714.6875,
                    "velocity": 0.7952755905511811,
                    "duration": 0.3125
                },
                {
                    "name": "F2",
                    "midi": 41,
                    "time": 715,
                    "velocity": 0.7952755905511811,
                    "duration": 0.3125
                },
                {
                    "name": "F2",
                    "midi": 41,
                    "time": 715.625,
                    "velocity": 0.7952755905511811,
                    "duration": 0.3125
                },
                {
                    "name": "F2",
                    "midi": 41,
                    "time": 716.25,
                    "velocity": 0.7952755905511811,
                    "duration": 0.3125
                },
                {
                    "name": "F2",
                    "midi": 41,
                    "time": 717.1875,
                    "velocity": 0.7952755905511811,
                    "duration": 0.3125
                },
                {
                    "name": "G#4",
                    "midi": 68,
                    "time": 730,
                    "velocity": 1,
                    "duration": 1.25
                },
                {
                    "name": "C5",
                    "midi": 72,
                    "time": 731.25,
                    "velocity": 1,
                    "duration": 1.25
                },
                {
                    "name": "D#5",
                    "midi": 75,
                    "time": 732.5,
                    "velocity": 1,
                    "duration": 1.25
                },
                {
                    "name": "C4",
                    "midi": 60,
                    "time": 733.75,
                    "velocity": 0.7952755905511811,
                    "duration": 0.3125
                },
                {
                    "name": "E4",
                    "midi": 64,
                    "time": 733.75,
                    "velocity": 0.7952755905511811,
                    "duration": 0.3125
                },
                {
                    "name": "G4",
                    "midi": 67,
                    "time": 733.75,
                    "velocity": 0.7952755905511811,
                    "duration": 0.3125
                },
                {
                    "name": "D4",
                    "midi": 62,
                    "time": 734.0625,
                    "velocity": 0.7952755905511811,
                    "duration": 0.3125
                },
                {
                    "name": "F4",
                    "midi": 65,
                    "time": 734.0625,
                    "velocity": 0.7952755905511811,
                    "duration": 0.3125
                },
                {
                    "name": "A4",
                    "midi": 69,
                    "time": 734.0625,
                    "velocity": 0.7952755905511811,
                    "duration": 0.3125
                },
                {
                    "name": "E4",
                    "midi": 64,
                    "time": 734.375,
                    "velocity": 0.7952755905511811,
                    "duration": 0.3125
                },
                {
                    "name": "G4",
                    "midi": 67,
                    "time": 734.375,
                    "velocity": 0.7952755905511811,
                    "duration": 0.3125
                },
                {
                    "name": "B4",
                    "midi": 71,
                    "time": 734.375,
                    "velocity": 0.7952755905511811,
                    "duration": 0.3125
                },
                {
                    "name": "D4",
                    "midi": 62,
                    "time": 734.6875,
                    "velocity": 0.7952755905511811,
                    "duration": 0.3125
                },
                {
                    "name": "F4",
                    "midi": 65,
                    "time": 734.6875,
                    "velocity": 0.7952755905511811,
                    "duration": 0.3125
                },
                {
                    "name": "A4",
                    "midi": 69,
                    "time": 734.6875,
                    "velocity": 0.7952755905511811,
                    "duration": 0.3125
                },
                {
                    "name": "C4",
                    "midi": 60,
                    "time": 735,
                    "velocity": 0.7952755905511811,
                    "duration": 0.3125
                },
                {
                    "name": "E4",
                    "midi": 64,
                    "time": 735,
                    "velocity": 0.7952755905511811,
                    "duration": 0.3125
                },
                {
                    "name": "G4",
                    "midi": 67,
                    "time": 735,
                    "velocity": 0.7952755905511811,
                    "duration": 0.3125
                },
                {
                    "name": "D4",
                    "midi": 62,
                    "time": 735.3125,
                    "velocity": 0.7952755905511811,
                    "duration": 0.3125
                },
                {
                    "name": "F4",
                    "midi": 65,
                    "time": 735.3125,
                    "velocity": 0.7952755905511811,
                    "duration": 0.3125
                },
                {
                    "name": "A4",
                    "midi": 69,
                    "time": 735.3125,
                    "velocity": 0.7952755905511811,
                    "duration": 0.3125
                },
                {
                    "name": "E4",
                    "midi": 64,
                    "time": 735.625,
                    "velocity": 0.7952755905511811,
                    "duration": 0.3125
                },
                {
                    "name": "G4",
                    "midi": 67,
                    "time": 735.625,
                    "velocity": 0.7952755905511811,
                    "duration": 0.3125
                },
                {
                    "name": "B4",
                    "midi": 71,
                    "time": 735.625,
                    "velocity": 0.7952755905511811,
                    "duration": 0.3125
                },
                {
                    "name": "D4",
                    "midi": 62,
                    "time": 735.9375,
                    "velocity": 0.7952755905511811,
                    "duration": 0.3125
                },
                {
                    "name": "F4",
                    "midi": 65,
                    "time": 735.9375,
                    "velocity": 0.7952755905511811,
                    "duration": 0.3125
                },
                {
                    "name": "A4",
                    "midi": 69,
                    "time": 735.9375,
                    "velocity": 0.7952755905511811,
                    "duration": 0.3125
                },
                {
                    "name": "C4",
                    "midi": 60,
                    "time": 736.25,
                    "velocity": 0.7952755905511811,
                    "duration": 0.3125
                },
                {
                    "name": "E4",
                    "midi": 64,
                    "time": 736.25,
                    "velocity": 0.7952755905511811,
                    "duration": 0.3125
                },
                {
                    "name": "G4",
                    "midi": 67,
                    "time": 736.25,
                    "velocity": 0.7952755905511811,
                    "duration": 0.3125
                },
                {
                    "name": "D4",
                    "midi": 62,
                    "time": 736.5625,
                    "velocity": 0.7952755905511811,
                    "duration": 0.3125
                },
                {
                    "name": "F4",
                    "midi": 65,
                    "time": 736.5625,
                    "velocity": 0.7952755905511811,
                    "duration": 0.3125
                },
                {
                    "name": "A4",
                    "midi": 69,
                    "time": 736.5625,
                    "velocity": 0.7952755905511811,
                    "duration": 0.3125
                },
                {
                    "name": "E4",
                    "midi": 64,
                    "time": 736.875,
                    "velocity": 0.7952755905511811,
                    "duration": 0.3125
                },
                {
                    "name": "G4",
                    "midi": 67,
                    "time": 736.875,
                    "velocity": 0.7952755905511811,
                    "duration": 0.3125
                },
                {
                    "name": "B4",
                    "midi": 71,
                    "time": 736.875,
                    "velocity": 0.7952755905511811,
                    "duration": 0.3125
                },
                {
                    "name": "D4",
                    "midi": 62,
                    "time": 737.1875,
                    "velocity": 0.7952755905511811,
                    "duration": 0.3125
                },
                {
                    "name": "F4",
                    "midi": 65,
                    "time": 737.1875,
                    "velocity": 0.7952755905511811,
                    "duration": 0.3125
                },
                {
                    "name": "A4",
                    "midi": 69,
                    "time": 737.1875,
                    "velocity": 0.7952755905511811,
                    "duration": 0.3125
                },
                {
                    "name": "C4",
                    "midi": 60,
                    "time": 737.5,
                    "velocity": 0.7952755905511811,
                    "duration": 0.3125
                },
                {
                    "name": "E4",
                    "midi": 64,
                    "time": 737.5,
                    "velocity": 0.7952755905511811,
                    "duration": 0.3125
                },
                {
                    "name": "G4",
                    "midi": 67,
                    "time": 737.5,
                    "velocity": 0.7952755905511811,
                    "duration": 0.3125
                },
                {
                    "name": "D4",
                    "midi": 62,
                    "time": 737.8125,
                    "velocity": 0.7952755905511811,
                    "duration": 0.3125
                },
                {
                    "name": "F4",
                    "midi": 65,
                    "time": 737.8125,
                    "velocity": 0.7952755905511811,
                    "duration": 0.3125
                },
                {
                    "name": "A4",
                    "midi": 69,
                    "time": 737.8125,
                    "velocity": 0.7952755905511811,
                    "duration": 0.3125
                },
                {
                    "name": "E4",
                    "midi": 64,
                    "time": 738.125,
                    "velocity": 0.7952755905511811,
                    "duration": 0.3125
                },
                {
                    "name": "G4",
                    "midi": 67,
                    "time": 738.125,
                    "velocity": 0.7952755905511811,
                    "duration": 0.3125
                },
                {
                    "name": "B4",
                    "midi": 71,
                    "time": 738.125,
                    "velocity": 0.7952755905511811,
                    "duration": 0.3125
                },
                {
                    "name": "D4",
                    "midi": 62,
                    "time": 738.4375,
                    "velocity": 0.7952755905511811,
                    "duration": 0.3125
                },
                {
                    "name": "F4",
                    "midi": 65,
                    "time": 738.4375,
                    "velocity": 0.7952755905511811,
                    "duration": 0.3125
                },
                {
                    "name": "A4",
                    "midi": 69,
                    "time": 738.4375,
                    "velocity": 0.7952755905511811,
                    "duration": 0.3125
                },
                {
                    "name": "C4",
                    "midi": 60,
                    "time": 738.75,
                    "velocity": 1,
                    "duration": 0.625
                },
                {
                    "name": "C4",
                    "midi": 60,
                    "time": 739.375,
                    "velocity": 1,
                    "duration": 0.3125
                },
                {
                    "name": "C4",
                    "midi": 60,
                    "time": 739.6875,
                    "velocity": 1,
                    "duration": 0.3125
                },
                {
                    "name": "C4",
                    "midi": 60,
                    "time": 740,
                    "velocity": 1,
                    "duration": 0.3125
                },
                {
                    "name": "C4",
                    "midi": 60,
                    "time": 740.3125,
                    "velocity": 1,
                    "duration": 0.3125
                },
                {
                    "name": "E4",
                    "midi": 64,
                    "time": 740.625,
                    "velocity": 1,
                    "duration": 0.625
                },
                {
                    "name": "C2",
                    "midi": 36,
                    "time": 741.25,
                    "velocity": 0.7952755905511811,
                    "duration": 1.25
                },
                {
                    "name": "G2",
                    "midi": 43,
                    "time": 741.25,
                    "velocity": 0.7952755905511811,
                    "duration": 1.25
                },
                {
                    "name": "E3",
                    "midi": 52,
                    "time": 741.25,
                    "velocity": 0.7952755905511811,
                    "duration": 1.25
                },
                {
                    "name": "F2",
                    "midi": 41,
                    "time": 746.25,
                    "velocity": 0.6929133858267716,
                    "duration": 2.5
                },
                {
                    "name": "A#3",
                    "midi": 58,
                    "time": 746.25,
                    "velocity": 0.6929133858267716,
                    "duration": 0.625
                },
                {
                    "name": "A3",
                    "midi": 57,
                    "time": 746.875,
                    "velocity": 0.6929133858267716,
                    "duration": 0.625
                },
                {
                    "name": "G#3",
                    "midi": 56,
                    "time": 747.5,
                    "velocity": 0.6929133858267716,
                    "duration": 0.625
                },
                {
                    "name": "G3",
                    "midi": 55,
                    "time": 748.125,
                    "velocity": 0.6929133858267716,
                    "duration": 0.625
                },
                {
                    "name": "F2",
                    "midi": 41,
                    "time": 748.75,
                    "velocity": 0.4881889763779528,
                    "duration": 2.5
                },
                {
                    "name": "A#3",
                    "midi": 58,
                    "time": 748.75,
                    "velocity": 0.4881889763779528,
                    "duration": 0.625
                },
                {
                    "name": "A3",
                    "midi": 57,
                    "time": 749.375,
                    "velocity": 0.4881889763779528,
                    "duration": 0.625
                },
                {
                    "name": "G#3",
                    "midi": 56,
                    "time": 750,
                    "velocity": 0.4881889763779528,
                    "duration": 0.625
                },
                {
                    "name": "G3",
                    "midi": 55,
                    "time": 750.625,
                    "velocity": 0.4881889763779528,
                    "duration": 0.625
                },
                {
                    "name": "F2",
                    "midi": 41,
                    "time": 751.25,
                    "velocity": 0.4881889763779528,
                    "duration": 1.25
                },
                {
                    "name": "F2",
                    "midi": 41,
                    "time": 758.75,
                    "velocity": 0.4881889763779528,
                    "duration": 0.3125
                },
                {
                    "name": "C3",
                    "midi": 48,
                    "time": 758.75,
                    "velocity": 0.4881889763779528,
                    "duration": 0.3125
                },
                {
                    "name": "F2",
                    "midi": 41,
                    "time": 759.375,
                    "velocity": 0.4881889763779528,
                    "duration": 0.3125
                },
                {
                    "name": "C3",
                    "midi": 48,
                    "time": 759.375,
                    "velocity": 0.4881889763779528,
                    "duration": 0.3125
                },
                {
                    "name": "F2",
                    "midi": 41,
                    "time": 760,
                    "velocity": 0.4881889763779528,
                    "duration": 0.3125
                },
                {
                    "name": "C3",
                    "midi": 48,
                    "time": 760,
                    "velocity": 0.4881889763779528,
                    "duration": 0.3125
                },
                {
                    "name": "F2",
                    "midi": 41,
                    "time": 760.3125,
                    "velocity": 0.4881889763779528,
                    "duration": 0.3125
                },
                {
                    "name": "C3",
                    "midi": 48,
                    "time": 760.3125,
                    "velocity": 0.4881889763779528,
                    "duration": 0.3125
                },
                {
                    "name": "F2",
                    "midi": 41,
                    "time": 760.9375,
                    "velocity": 0.4881889763779528,
                    "duration": 0.3125
                },
                {
                    "name": "C3",
                    "midi": 48,
                    "time": 760.9375,
                    "velocity": 0.4881889763779528,
                    "duration": 0.3125
                },
                {
                    "name": "F2",
                    "midi": 41,
                    "time": 761.25,
                    "velocity": 0.4881889763779528,
                    "duration": 0.3125
                },
                {
                    "name": "C3",
                    "midi": 48,
                    "time": 761.25,
                    "velocity": 0.4881889763779528,
                    "duration": 0.3125
                },
                {
                    "name": "F2",
                    "midi": 41,
                    "time": 761.875,
                    "velocity": 0.4881889763779528,
                    "duration": 0.3125
                },
                {
                    "name": "C3",
                    "midi": 48,
                    "time": 761.875,
                    "velocity": 0.4881889763779528,
                    "duration": 0.3125
                },
                {
                    "name": "F2",
                    "midi": 41,
                    "time": 762.5,
                    "velocity": 0.4881889763779528,
                    "duration": 0.3125
                },
                {
                    "name": "C3",
                    "midi": 48,
                    "time": 762.5,
                    "velocity": 0.4881889763779528,
                    "duration": 0.3125
                },
                {
                    "name": "F2",
                    "midi": 41,
                    "time": 762.8125,
                    "velocity": 0.4881889763779528,
                    "duration": 0.3125
                },
                {
                    "name": "C3",
                    "midi": 48,
                    "time": 762.8125,
                    "velocity": 0.4881889763779528,
                    "duration": 0.3125
                },
                {
                    "name": "F2",
                    "midi": 41,
                    "time": 763.4375,
                    "velocity": 0.4881889763779528,
                    "duration": 0.3125
                },
                {
                    "name": "C3",
                    "midi": 48,
                    "time": 763.4375,
                    "velocity": 0.4881889763779528,
                    "duration": 0.3125
                },
                {
                    "name": "F2",
                    "midi": 41,
                    "time": 763.75,
                    "velocity": 0.4881889763779528,
                    "duration": 0.3125
                },
                {
                    "name": "C3",
                    "midi": 48,
                    "time": 763.75,
                    "velocity": 0.4881889763779528,
                    "duration": 0.3125
                },
                {
                    "name": "F2",
                    "midi": 41,
                    "time": 764.375,
                    "velocity": 0.4881889763779528,
                    "duration": 0.3125
                },
                {
                    "name": "C3",
                    "midi": 48,
                    "time": 764.375,
                    "velocity": 0.4881889763779528,
                    "duration": 0.3125
                },
                {
                    "name": "F2",
                    "midi": 41,
                    "time": 765,
                    "velocity": 0.4881889763779528,
                    "duration": 0.3125
                },
                {
                    "name": "C3",
                    "midi": 48,
                    "time": 765,
                    "velocity": 0.4881889763779528,
                    "duration": 0.3125
                },
                {
                    "name": "F2",
                    "midi": 41,
                    "time": 765.3125,
                    "velocity": 0.4881889763779528,
                    "duration": 0.3125
                },
                {
                    "name": "C3",
                    "midi": 48,
                    "time": 765.3125,
                    "velocity": 0.4881889763779528,
                    "duration": 0.3125
                },
                {
                    "name": "F2",
                    "midi": 41,
                    "time": 765.9375,
                    "velocity": 0.4881889763779528,
                    "duration": 0.3125
                },
                {
                    "name": "C3",
                    "midi": 48,
                    "time": 765.9375,
                    "velocity": 0.4881889763779528,
                    "duration": 0.3125
                },
                {
                    "name": "F2",
                    "midi": 41,
                    "time": 766.25,
                    "velocity": 0.4881889763779528,
                    "duration": 0.3125
                },
                {
                    "name": "C3",
                    "midi": 48,
                    "time": 766.25,
                    "velocity": 0.4881889763779528,
                    "duration": 0.3125
                },
                {
                    "name": "F2",
                    "midi": 41,
                    "time": 766.875,
                    "velocity": 0.4881889763779528,
                    "duration": 0.3125
                },
                {
                    "name": "C3",
                    "midi": 48,
                    "time": 766.875,
                    "velocity": 0.4881889763779528,
                    "duration": 0.3125
                },
                {
                    "name": "F2",
                    "midi": 41,
                    "time": 767.5,
                    "velocity": 0.4881889763779528,
                    "duration": 0.3125
                },
                {
                    "name": "C3",
                    "midi": 48,
                    "time": 767.5,
                    "velocity": 0.4881889763779528,
                    "duration": 0.3125
                },
                {
                    "name": "F2",
                    "midi": 41,
                    "time": 767.8125,
                    "velocity": 0.4881889763779528,
                    "duration": 0.3125
                },
                {
                    "name": "C3",
                    "midi": 48,
                    "time": 767.8125,
                    "velocity": 0.4881889763779528,
                    "duration": 0.3125
                },
                {
                    "name": "F2",
                    "midi": 41,
                    "time": 768.4375,
                    "velocity": 0.4881889763779528,
                    "duration": 0.3125
                },
                {
                    "name": "C3",
                    "midi": 48,
                    "time": 768.4375,
                    "velocity": 0.4881889763779528,
                    "duration": 0.3125
                },
                {
                    "name": "F2",
                    "midi": 41,
                    "time": 768.75,
                    "velocity": 0.4881889763779528,
                    "duration": 0.3125
                },
                {
                    "name": "C3",
                    "midi": 48,
                    "time": 768.75,
                    "velocity": 0.4881889763779528,
                    "duration": 0.3125
                },
                {
                    "name": "F2",
                    "midi": 41,
                    "time": 769.375,
                    "velocity": 0.4881889763779528,
                    "duration": 0.3125
                },
                {
                    "name": "C3",
                    "midi": 48,
                    "time": 769.375,
                    "velocity": 0.4881889763779528,
                    "duration": 0.3125
                },
                {
                    "name": "F2",
                    "midi": 41,
                    "time": 770,
                    "velocity": 0.8976377952755905,
                    "duration": 1.875
                },
                {
                    "name": "F3",
                    "midi": 53,
                    "time": 770,
                    "velocity": 0.8976377952755905,
                    "duration": 1.875
                },
                {
                    "name": "D2",
                    "midi": 38,
                    "time": 771.875,
                    "velocity": 0.6929133858267716,
                    "duration": 0.625
                },
                {
                    "name": "D3",
                    "midi": 50,
                    "time": 771.875,
                    "velocity": 0.6929133858267716,
                    "duration": 0.625
                },
                {
                    "name": "G1",
                    "midi": 31,
                    "time": 772.5,
                    "velocity": 0.6929133858267716,
                    "duration": 0.625
                },
                {
                    "name": "G2",
                    "midi": 43,
                    "time": 772.5,
                    "velocity": 0.6929133858267716,
                    "duration": 0.625
                },
                {
                    "name": "A1",
                    "midi": 33,
                    "time": 773.125,
                    "velocity": 0.6929133858267716,
                    "duration": 0.625
                },
                {
                    "name": "A2",
                    "midi": 45,
                    "time": 773.125,
                    "velocity": 0.6929133858267716,
                    "duration": 0.625
                },
                {
                    "name": "A#1",
                    "midi": 34,
                    "time": 773.75,
                    "velocity": 0.6929133858267716,
                    "duration": 0.625
                },
                {
                    "name": "A#2",
                    "midi": 46,
                    "time": 773.75,
                    "velocity": 0.6929133858267716,
                    "duration": 0.625
                },
                {
                    "name": "C2",
                    "midi": 36,
                    "time": 774.375,
                    "velocity": 0.6929133858267716,
                    "duration": 0.625
                },
                {
                    "name": "C3",
                    "midi": 48,
                    "time": 774.375,
                    "velocity": 0.6929133858267716,
                    "duration": 0.625
                },
                {
                    "name": "F1",
                    "midi": 29,
                    "time": 775,
                    "velocity": 0.6929133858267716,
                    "duration": 5
                },
                {
                    "name": "F2",
                    "midi": 41,
                    "time": 775,
                    "velocity": 0.6929133858267716,
                    "duration": 5
                },
                {
                    "name": "F1",
                    "midi": 29,
                    "time": 780,
                    "velocity": 0.5905511811023622,
                    "duration": 1.25
                },
                {
                    "name": "F2",
                    "midi": 41,
                    "time": 780,
                    "velocity": 0.5905511811023622,
                    "duration": 1.25
                },
                {
                    "name": "F2",
                    "midi": 41,
                    "time": 781.25,
                    "velocity": 0.5905511811023622,
                    "duration": 0.06119791666662877
                },
                {
                    "name": "D3",
                    "midi": 50,
                    "time": 781.5625,
                    "velocity": 0.5905511811023622,
                    "duration": 0.06119791666662877
                },
                {
                    "name": "C3",
                    "midi": 48,
                    "time": 781.875,
                    "velocity": 0.5905511811023622,
                    "duration": 0.06119791666662877
                },
                {
                    "name": "G3",
                    "midi": 55,
                    "time": 782.1875,
                    "velocity": 0.5905511811023622,
                    "duration": 0.06119791666662877
                },
                {
                    "name": "F3",
                    "midi": 53,
                    "time": 782.5,
                    "velocity": 0.5905511811023622,
                    "duration": 0.06119791666662877
                },
                {
                    "name": "D4",
                    "midi": 62,
                    "time": 782.8125,
                    "velocity": 0.5905511811023622,
                    "duration": 0.06119791666662877
                },
                {
                    "name": "F1",
                    "midi": 29,
                    "time": 786.25,
                    "velocity": 0.5905511811023622,
                    "duration": 1.25
                },
                {
                    "name": "F2",
                    "midi": 41,
                    "time": 786.25,
                    "velocity": 0.5905511811023622,
                    "duration": 1.25
                },
                {
                    "name": "F1",
                    "midi": 29,
                    "time": 787.5,
                    "velocity": 0.5905511811023622,
                    "duration": 0.625
                },
                {
                    "name": "F2",
                    "midi": 41,
                    "time": 787.5,
                    "velocity": 0.5905511811023622,
                    "duration": 0.625
                },
                {
                    "name": "A3",
                    "midi": 57,
                    "time": 788.125,
                    "velocity": 0.7952755905511811,
                    "duration": 0.3125
                },
                {
                    "name": "C4",
                    "midi": 60,
                    "time": 788.125,
                    "velocity": 0.7952755905511811,
                    "duration": 0.3125
                },
                {
                    "name": "F4",
                    "midi": 65,
                    "time": 788.125,
                    "velocity": 0.7952755905511811,
                    "duration": 0.3125
                },
                {
                    "name": "A3",
                    "midi": 57,
                    "time": 788.4375,
                    "velocity": 0.7952755905511811,
                    "duration": 0.3125
                },
                {
                    "name": "C4",
                    "midi": 60,
                    "time": 788.4375,
                    "velocity": 0.7952755905511811,
                    "duration": 0.3125
                },
                {
                    "name": "F4",
                    "midi": 65,
                    "time": 788.4375,
                    "velocity": 0.7952755905511811,
                    "duration": 0.3125
                },
                {
                    "name": "A3",
                    "midi": 57,
                    "time": 788.75,
                    "velocity": 0.7952755905511811,
                    "duration": 0.3125
                },
                {
                    "name": "C4",
                    "midi": 60,
                    "time": 788.75,
                    "velocity": 0.7952755905511811,
                    "duration": 0.3125
                },
                {
                    "name": "F4",
                    "midi": 65,
                    "time": 788.75,
                    "velocity": 0.7952755905511811,
                    "duration": 0.3125
                },
                {
                    "name": "A3",
                    "midi": 57,
                    "time": 789.0625,
                    "velocity": 0.7952755905511811,
                    "duration": 0.3125
                },
                {
                    "name": "C4",
                    "midi": 60,
                    "time": 789.0625,
                    "velocity": 0.7952755905511811,
                    "duration": 0.3125
                },
                {
                    "name": "F4",
                    "midi": 65,
                    "time": 789.0625,
                    "velocity": 0.7952755905511811,
                    "duration": 0.3125
                },
                {
                    "name": "C4",
                    "midi": 60,
                    "time": 789.375,
                    "velocity": 0.7952755905511811,
                    "duration": 0.625
                },
                {
                    "name": "F4",
                    "midi": 65,
                    "time": 789.375,
                    "velocity": 0.7952755905511811,
                    "duration": 0.625
                },
                {
                    "name": "A4",
                    "midi": 69,
                    "time": 789.375,
                    "velocity": 0.7952755905511811,
                    "duration": 0.625
                },
                {
                    "name": "F2",
                    "midi": 41,
                    "time": 790,
                    "velocity": 0.5905511811023622,
                    "duration": 1.25
                },
                {
                    "name": "C3",
                    "midi": 48,
                    "time": 790,
                    "velocity": 0.5905511811023622,
                    "duration": 1.25
                },
                {
                    "name": "A3",
                    "midi": 57,
                    "time": 790,
                    "velocity": 0.5905511811023622,
                    "duration": 1.25
                }
            ],
            "controlChanges": {
                "7": [
                    {
                        "number": 7,
                        "time": 0,
                        "value": 1
                    }
                ],
                "10": [
                    {
                        "number": 10,
                        "time": 0,
                        "value": 0.7637795275590551
                    }
                ],
                "64": [
                    {
                        "number": 64,
                        "time": 30,
                        "value": 1
                    },
                    {
                        "number": 64,
                        "time": 31.25,
                        "value": 0
                    },
                    {
                        "number": 64,
                        "time": 55,
                        "value": 1
                    },
                    {
                        "number": 64,
                        "time": 57.1875,
                        "value": 0
                    },
                    {
                        "number": 64,
                        "time": 57.5,
                        "value": 1
                    },
                    {
                        "number": 64,
                        "time": 58.75,
                        "value": 0
                    },
                    {
                        "number": 64,
                        "time": 60,
                        "value": 1
                    },
                    {
                        "number": 64,
                        "time": 62.1875,
                        "value": 0
                    },
                    {
                        "number": 64,
                        "time": 65,
                        "value": 1
                    },
                    {
                        "number": 64,
                        "time": 67.1875,
                        "value": 0
                    },
                    {
                        "number": 64,
                        "time": 67.5,
                        "value": 1
                    },
                    {
                        "number": 64,
                        "time": 68.75,
                        "value": 0
                    },
                    {
                        "number": 64,
                        "time": 117.5,
                        "value": 1
                    },
                    {
                        "number": 64,
                        "time": 119.84375,
                        "value": 0
                    },
                    {
                        "number": 64,
                        "time": 145.15625,
                        "value": 1
                    },
                    {
                        "number": 64,
                        "time": 145.625,
                        "value": 0
                    },
                    {
                        "number": 64,
                        "time": 146.40625,
                        "value": 1
                    },
                    {
                        "number": 64,
                        "time": 146.875,
                        "value": 0
                    },
                    {
                        "number": 64,
                        "time": 148.75,
                        "value": 1
                    },
                    {
                        "number": 64,
                        "time": 149.84375,
                        "value": 0
                    },
                    {
                        "number": 64,
                        "time": 310,
                        "value": 1
                    },
                    {
                        "number": 64,
                        "time": 312.1875,
                        "value": 0
                    },
                    {
                        "number": 64,
                        "time": 315,
                        "value": 1
                    },
                    {
                        "number": 64,
                        "time": 317.1875,
                        "value": 0
                    },
                    {
                        "number": 64,
                        "time": 320,
                        "value": 1
                    },
                    {
                        "number": 64,
                        "time": 320.9375,
                        "value": 0
                    },
                    {
                        "number": 64,
                        "time": 321.25,
                        "value": 1
                    },
                    {
                        "number": 64,
                        "time": 322.1875,
                        "value": 0
                    },
                    {
                        "number": 64,
                        "time": 322.5,
                        "value": 1
                    },
                    {
                        "number": 64,
                        "time": 324.6875,
                        "value": 0
                    },
                    {
                        "number": 64,
                        "time": 325,
                        "value": 1
                    },
                    {
                        "number": 64,
                        "time": 327.1875,
                        "value": 0
                    },
                    {
                        "number": 64,
                        "time": 347.5,
                        "value": 1
                    },
                    {
                        "number": 64,
                        "time": 349.6875,
                        "value": 0
                    },
                    {
                        "number": 64,
                        "time": 352.5,
                        "value": 1
                    },
                    {
                        "number": 64,
                        "time": 354.6875,
                        "value": 0
                    },
                    {
                        "number": 64,
                        "time": 357.5,
                        "value": 1
                    },
                    {
                        "number": 64,
                        "time": 358.4375,
                        "value": 0
                    },
                    {
                        "number": 64,
                        "time": 358.75,
                        "value": 1
                    },
                    {
                        "number": 64,
                        "time": 359.6875,
                        "value": 0
                    },
                    {
                        "number": 64,
                        "time": 360.625,
                        "value": 1
                    },
                    {
                        "number": 64,
                        "time": 362.1875,
                        "value": 0
                    },
                    {
                        "number": 64,
                        "time": 362.5,
                        "value": 1
                    },
                    {
                        "number": 64,
                        "time": 363.4375,
                        "value": 0
                    },
                    {
                        "number": 64,
                        "time": 363.75,
                        "value": 1
                    },
                    {
                        "number": 64,
                        "time": 367.1875,
                        "value": 0
                    },
                    {
                        "number": 64,
                        "time": 367.5,
                        "value": 1
                    },
                    {
                        "number": 64,
                        "time": 369.6875,
                        "value": 0
                    },
                    {
                        "number": 64,
                        "time": 538.75,
                        "value": 1
                    },
                    {
                        "number": 64,
                        "time": 540.625,
                        "value": 0
                    },
                    {
                        "number": 64,
                        "time": 542.5,
                        "value": 1
                    },
                    {
                        "number": 64,
                        "time": 543.4375,
                        "value": 0
                    },
                    {
                        "number": 64,
                        "time": 545,
                        "value": 1
                    },
                    {
                        "number": 64,
                        "time": 546.25,
                        "value": 0
                    },
                    {
                        "number": 64,
                        "time": 547.5,
                        "value": 1
                    },
                    {
                        "number": 64,
                        "time": 548.75,
                        "value": 0
                    },
                    {
                        "number": 64,
                        "time": 557.5,
                        "value": 1
                    },
                    {
                        "number": 64,
                        "time": 561.875,
                        "value": 0
                    },
                    {
                        "number": 64,
                        "time": 567.5,
                        "value": 1
                    },
                    {
                        "number": 64,
                        "time": 569.375,
                        "value": 0
                    },
                    {
                        "number": 64,
                        "time": 606.25,
                        "value": 1
                    },
                    {
                        "number": 64,
                        "time": 607.421875,
                        "value": 0
                    },
                    {
                        "number": 64,
                        "time": 607.5,
                        "value": 1
                    },
                    {
                        "number": 64,
                        "time": 608.671875,
                        "value": 0
                    },
                    {
                        "number": 64,
                        "time": 608.75,
                        "value": 1
                    },
                    {
                        "number": 64,
                        "time": 609.921875,
                        "value": 0
                    },
                    {
                        "number": 64,
                        "time": 610,
                        "value": 1
                    },
                    {
                        "number": 64,
                        "time": 611.171875,
                        "value": 0
                    },
                    {
                        "number": 64,
                        "time": 611.25,
                        "value": 1
                    },
                    {
                        "number": 64,
                        "time": 612.421875,
                        "value": 0
                    },
                    {
                        "number": 64,
                        "time": 612.5,
                        "value": 1
                    },
                    {
                        "number": 64,
                        "time": 613.671875,
                        "value": 0
                    },
                    {
                        "number": 64,
                        "time": 681.25,
                        "value": 1
                    },
                    {
                        "number": 64,
                        "time": 681.875,
                        "value": 0
                    },
                    {
                        "number": 64,
                        "time": 682.5,
                        "value": 1
                    },
                    {
                        "number": 64,
                        "time": 683.125,
                        "value": 0
                    },
                    {
                        "number": 64,
                        "time": 683.75,
                        "value": 1
                    },
                    {
                        "number": 64,
                        "time": 684.375,
                        "value": 0
                    },
                    {
                        "number": 64,
                        "time": 685,
                        "value": 1
                    },
                    {
                        "number": 64,
                        "time": 685.625,
                        "value": 0
                    },
                    {
                        "number": 64,
                        "time": 686.25,
                        "value": 1
                    },
                    {
                        "number": 64,
                        "time": 686.875,
                        "value": 0
                    },
                    {
                        "number": 64,
                        "time": 691.25,
                        "value": 1
                    },
                    {
                        "number": 64,
                        "time": 691.875,
                        "value": 0
                    },
                    {
                        "number": 64,
                        "time": 692.5,
                        "value": 1
                    },
                    {
                        "number": 64,
                        "time": 693.125,
                        "value": 0
                    },
                    {
                        "number": 64,
                        "time": 695,
                        "value": 1
                    },
                    {
                        "number": 64,
                        "time": 695.46875,
                        "value": 0
                    },
                    {
                        "number": 64,
                        "time": 696.25,
                        "value": 1
                    },
                    {
                        "number": 64,
                        "time": 696.71875,
                        "value": 0
                    },
                    {
                        "number": 64,
                        "time": 697.5,
                        "value": 1
                    },
                    {
                        "number": 64,
                        "time": 698.125,
                        "value": 0
                    },
                    {
                        "number": 64,
                        "time": 698.75,
                        "value": 1
                    },
                    {
                        "number": 64,
                        "time": 699.921875,
                        "value": 0
                    },
                    {
                        "number": 64,
                        "time": 700,
                        "value": 1
                    },
                    {
                        "number": 64,
                        "time": 701.171875,
                        "value": 0
                    },
                    {
                        "number": 64,
                        "time": 701.25,
                        "value": 1
                    },
                    {
                        "number": 64,
                        "time": 702.421875,
                        "value": 0
                    },
                    {
                        "number": 64,
                        "time": 702.5,
                        "value": 1
                    },
                    {
                        "number": 64,
                        "time": 703.671875,
                        "value": 0
                    },
                    {
                        "number": 64,
                        "time": 703.75,
                        "value": 1
                    },
                    {
                        "number": 64,
                        "time": 704.921875,
                        "value": 0
                    },
                    {
                        "number": 64,
                        "time": 705,
                        "value": 1
                    },
                    {
                        "number": 64,
                        "time": 706.171875,
                        "value": 0
                    },
                    {
                        "number": 64,
                        "time": 706.25,
                        "value": 1
                    },
                    {
                        "number": 64,
                        "time": 707.421875,
                        "value": 0
                    },
                    {
                        "number": 64,
                        "time": 741.25,
                        "value": 1
                    },
                    {
                        "number": 64,
                        "time": 745.625,
                        "value": 0
                    },
                    {
                        "number": 64,
                        "time": 746.25,
                        "value": 1
                    },
                    {
                        "number": 64,
                        "time": 748.125,
                        "value": 0
                    },
                    {
                        "number": 64,
                        "time": 748.75,
                        "value": 1
                    },
                    {
                        "number": 64,
                        "time": 750.625,
                        "value": 0
                    },
                    {
                        "number": 64,
                        "time": 751.25,
                        "value": 1
                    },
                    {
                        "number": 64,
                        "time": 755.625,
                        "value": 0
                    },
                    {
                        "number": 64,
                        "time": 790,
                        "value": 1
                    },
                    {
                        "number": 64,
                        "time": 794.375,
                        "value": 0
                    }
                ]
            },
            "id": 2,
            "name": "Instrument17",
            "instrumentNumber": 0,
            "instrument": "acoustic grand piano",
            "instrumentFamily": "piano",
            "channelNumber": 1,
            "isPercussion": false
        },
        {
            "startTime": 0,
            "duration": 794.9999999999999,
            "length": 4378,
            "notes": [
                {
                    "name": "F3",
                    "midi": 53,
                    "time": 0,
                    "velocity": 0.5905511811023622,
                    "duration": 5
                },
                {
                    "name": "F3",
                    "midi": 53,
                    "time": 5,
                    "velocity": 0.5905511811023622,
                    "duration": 5
                },
                {
                    "name": "F5",
                    "midi": 77,
                    "time": 10,
                    "velocity": 0.6929133858267716,
                    "duration": 2.8125
                },
                {
                    "name": "G5",
                    "midi": 79,
                    "time": 12.8125,
                    "velocity": 0.6929133858267716,
                    "duration": 0.3125
                },
                {
                    "name": "F5",
                    "midi": 77,
                    "time": 13.125,
                    "velocity": 0.6929133858267716,
                    "duration": 0.3125
                },
                {
                    "name": "A#4",
                    "midi": 70,
                    "time": 13.4375,
                    "velocity": 0.6929133858267716,
                    "duration": 0.3125
                },
                {
                    "name": "C5",
                    "midi": 72,
                    "time": 13.671875,
                    "velocity": 0.6929133858267716,
                    "duration": 0.078125
                },
                {
                    "name": "C#5",
                    "midi": 73,
                    "time": 13.75,
                    "velocity": 0.6929133858267716,
                    "duration": 0.3125
                },
                {
                    "name": "C5",
                    "midi": 72,
                    "time": 14.0625,
                    "velocity": 0.6929133858267716,
                    "duration": 0.3125
                },
                {
                    "name": "A#4",
                    "midi": 70,
                    "time": 14.375,
                    "velocity": 0.6929133858267716,
                    "duration": 0.3125
                },
                {
                    "name": "G4",
                    "midi": 67,
                    "time": 14.6875,
                    "velocity": 0.6929133858267716,
                    "duration": 0.3125
                },
                {
                    "name": "F4",
                    "midi": 65,
                    "time": 15,
                    "velocity": 0.6929133858267716,
                    "duration": 2.5
                },
                {
                    "name": "A#4",
                    "midi": 70,
                    "time": 17.5,
                    "velocity": 0.5905511811023622,
                    "duration": 0.3125
                },
                {
                    "name": "D#5",
                    "midi": 75,
                    "time": 17.5,
                    "velocity": 0.5905511811023622,
                    "duration": 0.3125
                },
                {
                    "name": "G5",
                    "midi": 79,
                    "time": 17.5,
                    "velocity": 0.5905511811023622,
                    "duration": 0.3125
                },
                {
                    "name": "G4",
                    "midi": 67,
                    "time": 17.8125,
                    "velocity": 0.5905511811023622,
                    "duration": 0.15625
                },
                {
                    "name": "A#4",
                    "midi": 70,
                    "time": 17.8125,
                    "velocity": 0.5905511811023622,
                    "duration": 0.15625
                },
                {
                    "name": "D#5",
                    "midi": 75,
                    "time": 17.8125,
                    "velocity": 0.5905511811023622,
                    "duration": 0.15625
                },
                {
                    "name": "D#4",
                    "midi": 63,
                    "time": 17.96875,
                    "velocity": 0.5905511811023622,
                    "duration": 0.15625
                },
                {
                    "name": "G4",
                    "midi": 67,
                    "time": 17.96875,
                    "velocity": 0.5905511811023622,
                    "duration": 0.15625
                },
                {
                    "name": "A#4",
                    "midi": 70,
                    "time": 17.96875,
                    "velocity": 0.5905511811023622,
                    "duration": 0.15625
                },
                {
                    "name": "A3",
                    "midi": 57,
                    "time": 18.125,
                    "velocity": 0.5905511811023622,
                    "duration": 0.15625
                },
                {
                    "name": "D4",
                    "midi": 62,
                    "time": 18.125,
                    "velocity": 0.5905511811023622,
                    "duration": 0.15625
                },
                {
                    "name": "F4",
                    "midi": 65,
                    "time": 18.125,
                    "velocity": 0.5905511811023622,
                    "duration": 0.15625
                },
                {
                    "name": "D4",
                    "midi": 62,
                    "time": 18.28125,
                    "velocity": 0.5905511811023622,
                    "duration": 0.3125
                },
                {
                    "name": "F4",
                    "midi": 65,
                    "time": 18.28125,
                    "velocity": 0.5905511811023622,
                    "duration": 0.3125
                },
                {
                    "name": "A4",
                    "midi": 69,
                    "time": 18.28125,
                    "velocity": 0.5905511811023622,
                    "duration": 0.3125
                },
                {
                    "name": "F4",
                    "midi": 65,
                    "time": 18.59375,
                    "velocity": 0.5905511811023622,
                    "duration": 0.15625
                },
                {
                    "name": "A4",
                    "midi": 69,
                    "time": 18.59375,
                    "velocity": 0.5905511811023622,
                    "duration": 0.15625
                },
                {
                    "name": "D5",
                    "midi": 74,
                    "time": 18.59375,
                    "velocity": 0.5905511811023622,
                    "duration": 0.15625
                },
                {
                    "name": "F#4",
                    "midi": 66,
                    "time": 18.75,
                    "velocity": 0.5905511811023622,
                    "duration": 0.3125
                },
                {
                    "name": "A#4",
                    "midi": 70,
                    "time": 18.75,
                    "velocity": 0.5905511811023622,
                    "duration": 0.3125
                },
                {
                    "name": "D#5",
                    "midi": 75,
                    "time": 18.75,
                    "velocity": 0.5905511811023622,
                    "duration": 0.3125
                },
                {
                    "name": "D#4",
                    "midi": 63,
                    "time": 19.0625,
                    "velocity": 0.5905511811023622,
                    "duration": 0.15625
                },
                {
                    "name": "F#4",
                    "midi": 66,
                    "time": 19.0625,
                    "velocity": 0.5905511811023622,
                    "duration": 0.15625
                },
                {
                    "name": "A#4",
                    "midi": 70,
                    "time": 19.0625,
                    "velocity": 0.5905511811023622,
                    "duration": 0.15625
                },
                {
                    "name": "A#3",
                    "midi": 58,
                    "time": 19.21875,
                    "velocity": 0.5905511811023622,
                    "duration": 0.15625
                },
                {
                    "name": "D#4",
                    "midi": 63,
                    "time": 19.21875,
                    "velocity": 0.5905511811023622,
                    "duration": 0.15625
                },
                {
                    "name": "F#4",
                    "midi": 66,
                    "time": 19.21875,
                    "velocity": 0.5905511811023622,
                    "duration": 0.15625
                },
                {
                    "name": "A3",
                    "midi": 57,
                    "time": 19.375,
                    "velocity": 0.5905511811023622,
                    "duration": 0.15625
                },
                {
                    "name": "D4",
                    "midi": 62,
                    "time": 19.375,
                    "velocity": 0.5905511811023622,
                    "duration": 0.15625
                },
                {
                    "name": "F4",
                    "midi": 65,
                    "time": 19.375,
                    "velocity": 0.5905511811023622,
                    "duration": 0.15625
                },
                {
                    "name": "D4",
                    "midi": 62,
                    "time": 19.53125,
                    "velocity": 0.5905511811023622,
                    "duration": 0.3125
                },
                {
                    "name": "F4",
                    "midi": 65,
                    "time": 19.53125,
                    "velocity": 0.5905511811023622,
                    "duration": 0.3125
                },
                {
                    "name": "A4",
                    "midi": 69,
                    "time": 19.53125,
                    "velocity": 0.5905511811023622,
                    "duration": 0.3125
                },
                {
                    "name": "F4",
                    "midi": 65,
                    "time": 19.84375,
                    "velocity": 0.5905511811023622,
                    "duration": 0.15625
                },
                {
                    "name": "A4",
                    "midi": 69,
                    "time": 19.84375,
                    "velocity": 0.5905511811023622,
                    "duration": 0.15625
                },
                {
                    "name": "D5",
                    "midi": 74,
                    "time": 19.84375,
                    "velocity": 0.5905511811023622,
                    "duration": 0.15625
                },
                {
                    "name": "F5",
                    "midi": 77,
                    "time": 20,
                    "velocity": 0.6929133858267716,
                    "duration": 2.8125
                },
                {
                    "name": "G5",
                    "midi": 79,
                    "time": 22.8125,
                    "velocity": 0.6929133858267716,
                    "duration": 0.3125
                },
                {
                    "name": "F5",
                    "midi": 77,
                    "time": 23.125,
                    "velocity": 0.6929133858267716,
                    "duration": 0.3125
                },
                {
                    "name": "A#4",
                    "midi": 70,
                    "time": 23.4375,
                    "velocity": 0.6929133858267716,
                    "duration": 0.3125
                },
                {
                    "name": "C5",
                    "midi": 72,
                    "time": 23.671875,
                    "velocity": 0.6929133858267716,
                    "duration": 0.078125
                },
                {
                    "name": "C#5",
                    "midi": 73,
                    "time": 23.75,
                    "velocity": 0.6929133858267716,
                    "duration": 0.3125
                },
                {
                    "name": "C5",
                    "midi": 72,
                    "time": 24.0625,
                    "velocity": 0.6929133858267716,
                    "duration": 0.3125
                },
                {
                    "name": "A#4",
                    "midi": 70,
                    "time": 24.375,
                    "velocity": 0.6929133858267716,
                    "duration": 0.3125
                },
                {
                    "name": "G4",
                    "midi": 67,
                    "time": 24.6875,
                    "velocity": 0.6929133858267716,
                    "duration": 0.3125
                },
                {
                    "name": "A#4",
                    "midi": 70,
                    "time": 25,
                    "velocity": 0.6929133858267716,
                    "duration": 5
                },
                {
                    "name": "F5",
                    "midi": 77,
                    "time": 30,
                    "velocity": 0.6929133858267716,
                    "duration": 0.3125
                },
                {
                    "name": "D#5",
                    "midi": 75,
                    "time": 30.3125,
                    "velocity": 0.6929133858267716,
                    "duration": 0.3125
                },
                {
                    "name": "A#4",
                    "midi": 70,
                    "time": 30.625,
                    "velocity": 0.6929133858267716,
                    "duration": 0.3125
                },
                {
                    "name": "G4",
                    "midi": 67,
                    "time": 30.9375,
                    "velocity": 0.6929133858267716,
                    "duration": 0.3125
                },
                {
                    "name": "F#4",
                    "midi": 66,
                    "time": 31.25,
                    "velocity": 0.6929133858267716,
                    "duration": 0.3125
                },
                {
                    "name": "F5",
                    "midi": 77,
                    "time": 31.5625,
                    "velocity": 0.6929133858267716,
                    "duration": 0.625
                },
                {
                    "name": "D#5",
                    "midi": 75,
                    "time": 32.1875,
                    "velocity": 0.6929133858267716,
                    "duration": 0.3125
                },
                {
                    "name": "D5",
                    "midi": 74,
                    "time": 32.5,
                    "velocity": 0.6929133858267716,
                    "duration": 0.3125
                },
                {
                    "name": "A#4",
                    "midi": 70,
                    "time": 32.8125,
                    "velocity": 0.6929133858267716,
                    "duration": 0.3125
                },
                {
                    "name": "F#4",
                    "midi": 66,
                    "time": 33.125,
                    "velocity": 0.6929133858267716,
                    "duration": 0.3125
                },
                {
                    "name": "F4",
                    "midi": 65,
                    "time": 33.4375,
                    "velocity": 0.6929133858267716,
                    "duration": 0.3125
                },
                {
                    "name": "E4",
                    "midi": 64,
                    "time": 33.75,
                    "velocity": 0.6929133858267716,
                    "duration": 0.3125
                },
                {
                    "name": "C#5",
                    "midi": 73,
                    "time": 34.0625,
                    "velocity": 0.6929133858267716,
                    "duration": 0.3125
                },
                {
                    "name": "D#4",
                    "midi": 63,
                    "time": 34.375,
                    "velocity": 0.6929133858267716,
                    "duration": 0.3125
                },
                {
                    "name": "C5",
                    "midi": 72,
                    "time": 34.6875,
                    "velocity": 0.6929133858267716,
                    "duration": 0.3125
                },
                {
                    "name": "A#4",
                    "midi": 70,
                    "time": 35,
                    "velocity": 0.6929133858267716,
                    "duration": 2.8125
                },
                {
                    "name": "D5",
                    "midi": 74,
                    "time": 37.8125,
                    "velocity": 0.6929133858267716,
                    "duration": 0.3125
                },
                {
                    "name": "C5",
                    "midi": 72,
                    "time": 38.125,
                    "velocity": 0.6929133858267716,
                    "duration": 0.3125
                },
                {
                    "name": "D#5",
                    "midi": 75,
                    "time": 38.4375,
                    "velocity": 0.6929133858267716,
                    "duration": 0.3125
                },
                {
                    "name": "D5",
                    "midi": 74,
                    "time": 38.75,
                    "velocity": 0.6929133858267716,
                    "duration": 0.3125
                },
                {
                    "name": "A#4",
                    "midi": 70,
                    "time": 39.0625,
                    "velocity": 0.6929133858267716,
                    "duration": 0.3125
                },
                {
                    "name": "G#4",
                    "midi": 68,
                    "time": 39.375,
                    "velocity": 0.6929133858267716,
                    "duration": 0.3125
                },
                {
                    "name": "F4",
                    "midi": 65,
                    "time": 39.6875,
                    "velocity": 0.6929133858267716,
                    "duration": 0.3125
                },
                {
                    "name": "D#4",
                    "midi": 63,
                    "time": 40,
                    "velocity": 0.6929133858267716,
                    "duration": 1.25
                },
                {
                    "name": "G4",
                    "midi": 67,
                    "time": 40,
                    "velocity": 0.6929133858267716,
                    "duration": 1.25
                },
                {
                    "name": "A#4",
                    "midi": 70,
                    "time": 41.25,
                    "velocity": 0.5905511811023622,
                    "duration": 0.3125
                },
                {
                    "name": "G4",
                    "midi": 67,
                    "time": 41.5625,
                    "velocity": 0.5905511811023622,
                    "duration": 0.3125
                },
                {
                    "name": "F4",
                    "midi": 65,
                    "time": 41.875,
                    "velocity": 0.5905511811023622,
                    "duration": 0.3125
                },
                {
                    "name": "D#4",
                    "midi": 63,
                    "time": 42.1875,
                    "velocity": 0.5905511811023622,
                    "duration": 0.3125
                },
                {
                    "name": "F3",
                    "midi": 53,
                    "time": 42.5,
                    "velocity": 0.5905511811023622,
                    "duration": 0.625
                },
                {
                    "name": "A#3",
                    "midi": 58,
                    "time": 43.125,
                    "velocity": 0.5905511811023622,
                    "duration": 0.625
                },
                {
                    "name": "C#4",
                    "midi": 61,
                    "time": 43.75,
                    "velocity": 0.5905511811023622,
                    "duration": 0.625
                },
                {
                    "name": "F4",
                    "midi": 65,
                    "time": 44.375,
                    "velocity": 0.5905511811023622,
                    "duration": 0.625
                },
                {
                    "name": "A#4",
                    "midi": 70,
                    "time": 45,
                    "velocity": 0.5905511811023622,
                    "duration": 4.375
                },
                {
                    "name": "B4",
                    "midi": 71,
                    "time": 49.375,
                    "velocity": 0.5905511811023622,
                    "duration": 0.625
                },
                {
                    "name": "E4",
                    "midi": 64,
                    "time": 53.125,
                    "velocity": 0.5905511811023622,
                    "duration": 0.15625
                },
                {
                    "name": "A4",
                    "midi": 69,
                    "time": 53.28125,
                    "velocity": 0.5905511811023622,
                    "duration": 0.15625
                },
                {
                    "name": "C#4",
                    "midi": 61,
                    "time": 53.4375,
                    "velocity": 0.5905511811023622,
                    "duration": 0.15625
                },
                {
                    "name": "D4",
                    "midi": 62,
                    "time": 53.59375,
                    "velocity": 0.5905511811023622,
                    "duration": 0.15625
                },
                {
                    "name": "E4",
                    "midi": 64,
                    "time": 53.75,
                    "velocity": 0.5905511811023622,
                    "duration": 0.15625
                },
                {
                    "name": "F4",
                    "midi": 65,
                    "time": 53.90625,
                    "velocity": 0.5905511811023622,
                    "duration": 0.15625
                },
                {
                    "name": "G4",
                    "midi": 67,
                    "time": 54.0625,
                    "velocity": 0.5905511811023622,
                    "duration": 0.15625
                },
                {
                    "name": "A4",
                    "midi": 69,
                    "time": 54.21875,
                    "velocity": 0.5905511811023622,
                    "duration": 0.15625
                },
                {
                    "name": "A4",
                    "midi": 69,
                    "time": 54.375,
                    "velocity": 0.5905511811023622,
                    "duration": 0.125
                },
                {
                    "name": "A#4",
                    "midi": 70,
                    "time": 54.5,
                    "velocity": 0.5905511811023622,
                    "duration": 0.125
                },
                {
                    "name": "C5",
                    "midi": 72,
                    "time": 54.625,
                    "velocity": 0.5905511811023622,
                    "duration": 0.1236979166666643
                },
                {
                    "name": "D5",
                    "midi": 74,
                    "time": 54.748697916666664,
                    "velocity": 0.5905511811023622,
                    "duration": 0.125
                },
                {
                    "name": "D#5",
                    "midi": 75,
                    "time": 54.873697916666664,
                    "velocity": 0.5905511811023622,
                    "duration": 0.1263020833333357
                },
                {
                    "name": "F4",
                    "midi": 65,
                    "time": 55,
                    "velocity": 0.7952755905511811,
                    "duration": 2.8125
                },
                {
                    "name": "F5",
                    "midi": 77,
                    "time": 55,
                    "velocity": 0.7952755905511811,
                    "duration": 2.8125
                },
                {
                    "name": "G4",
                    "midi": 67,
                    "time": 57.8125,
                    "velocity": 0.5905511811023622,
                    "duration": 0.3125
                },
                {
                    "name": "G5",
                    "midi": 79,
                    "time": 57.8125,
                    "velocity": 0.5905511811023622,
                    "duration": 0.3125
                },
                {
                    "name": "F4",
                    "midi": 65,
                    "time": 58.125,
                    "velocity": 0.5905511811023622,
                    "duration": 0.3125
                },
                {
                    "name": "F5",
                    "midi": 77,
                    "time": 58.125,
                    "velocity": 0.5905511811023622,
                    "duration": 0.3125
                },
                {
                    "name": "A#3",
                    "midi": 58,
                    "time": 58.4375,
                    "velocity": 0.5905511811023622,
                    "duration": 0.3125
                },
                {
                    "name": "A#4",
                    "midi": 70,
                    "time": 58.4375,
                    "velocity": 0.5905511811023622,
                    "duration": 0.3125
                },
                {
                    "name": "C#4",
                    "midi": 61,
                    "time": 58.75,
                    "velocity": 0.5905511811023622,
                    "duration": 0.3125
                },
                {
                    "name": "C#5",
                    "midi": 73,
                    "time": 58.75,
                    "velocity": 0.5905511811023622,
                    "duration": 0.3125
                },
                {
                    "name": "C4",
                    "midi": 60,
                    "time": 59.0625,
                    "velocity": 0.5905511811023622,
                    "duration": 0.3125
                },
                {
                    "name": "C5",
                    "midi": 72,
                    "time": 59.0625,
                    "velocity": 0.5905511811023622,
                    "duration": 0.3125
                },
                {
                    "name": "A#3",
                    "midi": 58,
                    "time": 59.375,
                    "velocity": 0.5905511811023622,
                    "duration": 0.3125
                },
                {
                    "name": "A#4",
                    "midi": 70,
                    "time": 59.375,
                    "velocity": 0.5905511811023622,
                    "duration": 0.3125
                },
                {
                    "name": "G3",
                    "midi": 55,
                    "time": 59.6875,
                    "velocity": 0.5905511811023622,
                    "duration": 0.3125
                },
                {
                    "name": "G4",
                    "midi": 67,
                    "time": 59.6875,
                    "velocity": 0.5905511811023622,
                    "duration": 0.3125
                },
                {
                    "name": "D#4",
                    "midi": 63,
                    "time": 60,
                    "velocity": 0.4881889763779528,
                    "duration": 0.3125
                },
                {
                    "name": "D4",
                    "midi": 62,
                    "time": 60.3125,
                    "velocity": 0.4881889763779528,
                    "duration": 0.3125
                },
                {
                    "name": "F4",
                    "midi": 65,
                    "time": 60.625,
                    "velocity": 0.4881889763779528,
                    "duration": 0.3125
                },
                {
                    "name": "D4",
                    "midi": 62,
                    "time": 60.9375,
                    "velocity": 0.4881889763779528,
                    "duration": 0.3125
                },
                {
                    "name": "C4",
                    "midi": 60,
                    "time": 61.25,
                    "velocity": 0.4881889763779528,
                    "duration": 0.3125
                },
                {
                    "name": "B3",
                    "midi": 59,
                    "time": 61.5625,
                    "velocity": 0.4881889763779528,
                    "duration": 0.3125
                },
                {
                    "name": "D#4",
                    "midi": 63,
                    "time": 61.875,
                    "velocity": 0.4881889763779528,
                    "duration": 0.3125
                },
                {
                    "name": "B3",
                    "midi": 59,
                    "time": 62.1875,
                    "velocity": 0.4881889763779528,
                    "duration": 0.3125
                },
                {
                    "name": "A#3",
                    "midi": 58,
                    "time": 62.5,
                    "velocity": 0.6929133858267716,
                    "duration": 0.4166666666666643
                },
                {
                    "name": "D#4",
                    "midi": 63,
                    "time": 62.5,
                    "velocity": 0.6929133858267716,
                    "duration": 0.4166666666666643
                },
                {
                    "name": "G4",
                    "midi": 67,
                    "time": 62.5,
                    "velocity": 0.6929133858267716,
                    "duration": 0.4166666666666643
                },
                {
                    "name": "D#5",
                    "midi": 75,
                    "time": 62.5,
                    "velocity": 0.6929133858267716,
                    "duration": 0.4166666666666643
                },
                {
                    "name": "G5",
                    "midi": 79,
                    "time": 62.5,
                    "velocity": 0.6929133858267716,
                    "duration": 0.4166666666666643
                },
                {
                    "name": "C4",
                    "midi": 60,
                    "time": 62.916666666666664,
                    "velocity": 0.6929133858267716,
                    "duration": 0.4153645833333357
                },
                {
                    "name": "F4",
                    "midi": 65,
                    "time": 62.916666666666664,
                    "velocity": 0.6929133858267716,
                    "duration": 0.4153645833333357
                },
                {
                    "name": "A4",
                    "midi": 69,
                    "time": 62.916666666666664,
                    "velocity": 0.6929133858267716,
                    "duration": 0.4153645833333357
                },
                {
                    "name": "F5",
                    "midi": 77,
                    "time": 62.916666666666664,
                    "velocity": 0.6929133858267716,
                    "duration": 0.4153645833333357
                },
                {
                    "name": "A5",
                    "midi": 81,
                    "time": 62.916666666666664,
                    "velocity": 0.6929133858267716,
                    "duration": 0.4153645833333357
                },
                {
                    "name": "D4",
                    "midi": 62,
                    "time": 63.33203125,
                    "velocity": 0.6929133858267716,
                    "duration": 0.41796875
                },
                {
                    "name": "G4",
                    "midi": 67,
                    "time": 63.33203125,
                    "velocity": 0.6929133858267716,
                    "duration": 0.41796875
                },
                {
                    "name": "A#4",
                    "midi": 70,
                    "time": 63.33203125,
                    "velocity": 0.6929133858267716,
                    "duration": 0.41796875
                },
                {
                    "name": "G5",
                    "midi": 79,
                    "time": 63.33203125,
                    "velocity": 0.6929133858267716,
                    "duration": 0.41796875
                },
                {
                    "name": "A#5",
                    "midi": 82,
                    "time": 63.33203125,
                    "velocity": 0.6929133858267716,
                    "duration": 0.41796875
                },
                {
                    "name": "D#4",
                    "midi": 63,
                    "time": 63.75,
                    "velocity": 0.7952755905511811,
                    "duration": 0.4166666666666714
                },
                {
                    "name": "G#4",
                    "midi": 68,
                    "time": 63.75,
                    "velocity": 0.7952755905511811,
                    "duration": 0.4166666666666714
                },
                {
                    "name": "C5",
                    "midi": 72,
                    "time": 63.75,
                    "velocity": 0.7952755905511811,
                    "duration": 0.4166666666666714
                },
                {
                    "name": "G#5",
                    "midi": 80,
                    "time": 63.75,
                    "velocity": 0.7952755905511811,
                    "duration": 0.4166666666666714
                },
                {
                    "name": "C6",
                    "midi": 84,
                    "time": 63.75,
                    "velocity": 0.7952755905511811,
                    "duration": 0.4166666666666714
                },
                {
                    "name": "F4",
                    "midi": 65,
                    "time": 64.16666666666667,
                    "velocity": 0.7952755905511811,
                    "duration": 0.4153645833333286
                },
                {
                    "name": "A#4",
                    "midi": 70,
                    "time": 64.16666666666667,
                    "velocity": 0.7952755905511811,
                    "duration": 0.4153645833333286
                },
                {
                    "name": "D5",
                    "midi": 74,
                    "time": 64.16666666666667,
                    "velocity": 0.7952755905511811,
                    "duration": 0.4153645833333286
                },
                {
                    "name": "A#5",
                    "midi": 82,
                    "time": 64.16666666666667,
                    "velocity": 0.7952755905511811,
                    "duration": 0.4153645833333286
                },
                {
                    "name": "D6",
                    "midi": 86,
                    "time": 64.16666666666667,
                    "velocity": 0.7952755905511811,
                    "duration": 0.4153645833333286
                },
                {
                    "name": "G4",
                    "midi": 67,
                    "time": 64.58203125,
                    "velocity": 0.7952755905511811,
                    "duration": 0.41796875
                },
                {
                    "name": "C5",
                    "midi": 72,
                    "time": 64.58203125,
                    "velocity": 0.7952755905511811,
                    "duration": 0.41796875
                },
                {
                    "name": "D#5",
                    "midi": 75,
                    "time": 64.58203125,
                    "velocity": 0.7952755905511811,
                    "duration": 0.41796875
                },
                {
                    "name": "C6",
                    "midi": 84,
                    "time": 64.58203125,
                    "velocity": 0.7952755905511811,
                    "duration": 0.41796875
                },
                {
                    "name": "D#6",
                    "midi": 87,
                    "time": 64.58203125,
                    "velocity": 0.7952755905511811,
                    "duration": 0.41796875
                },
                {
                    "name": "F4",
                    "midi": 65,
                    "time": 65,
                    "velocity": 0.7952755905511811,
                    "duration": 2.8125
                },
                {
                    "name": "F5",
                    "midi": 77,
                    "time": 65,
                    "velocity": 0.7952755905511811,
                    "duration": 2.8125
                },
                {
                    "name": "G4",
                    "midi": 67,
                    "time": 67.8125,
                    "velocity": 0.5905511811023622,
                    "duration": 0.3125
                },
                {
                    "name": "G5",
                    "midi": 79,
                    "time": 67.8125,
                    "velocity": 0.5905511811023622,
                    "duration": 0.3125
                },
                {
                    "name": "F4",
                    "midi": 65,
                    "time": 68.125,
                    "velocity": 0.5905511811023622,
                    "duration": 0.3125
                },
                {
                    "name": "F5",
                    "midi": 77,
                    "time": 68.125,
                    "velocity": 0.5905511811023622,
                    "duration": 0.3125
                },
                {
                    "name": "A#3",
                    "midi": 58,
                    "time": 68.4375,
                    "velocity": 0.5905511811023622,
                    "duration": 0.3125
                },
                {
                    "name": "A#4",
                    "midi": 70,
                    "time": 68.4375,
                    "velocity": 0.5905511811023622,
                    "duration": 0.3125
                },
                {
                    "name": "C#4",
                    "midi": 61,
                    "time": 68.75,
                    "velocity": 0.5905511811023622,
                    "duration": 0.3125
                },
                {
                    "name": "C#5",
                    "midi": 73,
                    "time": 68.75,
                    "velocity": 0.5905511811023622,
                    "duration": 0.3125
                },
                {
                    "name": "C4",
                    "midi": 60,
                    "time": 69.0625,
                    "velocity": 0.5905511811023622,
                    "duration": 0.3125
                },
                {
                    "name": "C5",
                    "midi": 72,
                    "time": 69.0625,
                    "velocity": 0.5905511811023622,
                    "duration": 0.3125
                },
                {
                    "name": "A#3",
                    "midi": 58,
                    "time": 69.375,
                    "velocity": 0.5905511811023622,
                    "duration": 0.3125
                },
                {
                    "name": "A#4",
                    "midi": 70,
                    "time": 69.375,
                    "velocity": 0.5905511811023622,
                    "duration": 0.3125
                },
                {
                    "name": "G3",
                    "midi": 55,
                    "time": 69.6875,
                    "velocity": 0.5905511811023622,
                    "duration": 0.3125
                },
                {
                    "name": "G4",
                    "midi": 67,
                    "time": 69.6875,
                    "velocity": 0.5905511811023622,
                    "duration": 0.3125
                },
                {
                    "name": "A#3",
                    "midi": 58,
                    "time": 70,
                    "velocity": 0.7952755905511811,
                    "duration": 5
                },
                {
                    "name": "A#4",
                    "midi": 70,
                    "time": 70,
                    "velocity": 0.7952755905511811,
                    "duration": 5
                },
                {
                    "name": "F4",
                    "midi": 65,
                    "time": 75,
                    "velocity": 0.5905511811023622,
                    "duration": 0.3125
                },
                {
                    "name": "F5",
                    "midi": 77,
                    "time": 75,
                    "velocity": 0.5905511811023622,
                    "duration": 0.3125
                },
                {
                    "name": "D#4",
                    "midi": 63,
                    "time": 75.3125,
                    "velocity": 0.5905511811023622,
                    "duration": 0.3125
                },
                {
                    "name": "D#5",
                    "midi": 75,
                    "time": 75.3125,
                    "velocity": 0.5905511811023622,
                    "duration": 0.3125
                },
                {
                    "name": "A#3",
                    "midi": 58,
                    "time": 75.625,
                    "velocity": 0.5905511811023622,
                    "duration": 0.3125
                },
                {
                    "name": "A#4",
                    "midi": 70,
                    "time": 75.625,
                    "velocity": 0.5905511811023622,
                    "duration": 0.3125
                },
                {
                    "name": "G3",
                    "midi": 55,
                    "time": 75.9375,
                    "velocity": 0.5905511811023622,
                    "duration": 0.3125
                },
                {
                    "name": "G4",
                    "midi": 67,
                    "time": 75.9375,
                    "velocity": 0.5905511811023622,
                    "duration": 0.3125
                },
                {
                    "name": "F#3",
                    "midi": 54,
                    "time": 76.25,
                    "velocity": 0.5905511811023622,
                    "duration": 0.3125
                },
                {
                    "name": "F#4",
                    "midi": 66,
                    "time": 76.25,
                    "velocity": 0.5905511811023622,
                    "duration": 0.3125
                },
                {
                    "name": "F4",
                    "midi": 65,
                    "time": 76.5625,
                    "velocity": 0.5905511811023622,
                    "duration": 0.625
                },
                {
                    "name": "F5",
                    "midi": 77,
                    "time": 76.5625,
                    "velocity": 0.5905511811023622,
                    "duration": 0.625
                },
                {
                    "name": "D#4",
                    "midi": 63,
                    "time": 77.1875,
                    "velocity": 0.5905511811023622,
                    "duration": 0.3125
                },
                {
                    "name": "D#5",
                    "midi": 75,
                    "time": 77.1875,
                    "velocity": 0.5905511811023622,
                    "duration": 0.3125
                },
                {
                    "name": "F4",
                    "midi": 65,
                    "time": 77.5,
                    "velocity": 0.5905511811023622,
                    "duration": 0.3125
                },
                {
                    "name": "A#4",
                    "midi": 70,
                    "time": 77.5,
                    "velocity": 0.5905511811023622,
                    "duration": 0.3125
                },
                {
                    "name": "D5",
                    "midi": 74,
                    "time": 77.5,
                    "velocity": 0.5905511811023622,
                    "duration": 0.3125
                },
                {
                    "name": "D4",
                    "midi": 62,
                    "time": 77.8125,
                    "velocity": 0.5905511811023622,
                    "duration": 0.3125
                },
                {
                    "name": "F4",
                    "midi": 65,
                    "time": 77.8125,
                    "velocity": 0.5905511811023622,
                    "duration": 0.3125
                },
                {
                    "name": "A#4",
                    "midi": 70,
                    "time": 77.8125,
                    "velocity": 0.5905511811023622,
                    "duration": 0.3125
                },
                {
                    "name": "A#3",
                    "midi": 58,
                    "time": 78.125,
                    "velocity": 0.5905511811023622,
                    "duration": 0.3125
                },
                {
                    "name": "D4",
                    "midi": 62,
                    "time": 78.125,
                    "velocity": 0.5905511811023622,
                    "duration": 0.3125
                },
                {
                    "name": "F#4",
                    "midi": 66,
                    "time": 78.125,
                    "velocity": 0.5905511811023622,
                    "duration": 0.3125
                },
                {
                    "name": "A#3",
                    "midi": 58,
                    "time": 78.4375,
                    "velocity": 0.5905511811023622,
                    "duration": 0.3125
                },
                {
                    "name": "D4",
                    "midi": 62,
                    "time": 78.4375,
                    "velocity": 0.5905511811023622,
                    "duration": 0.3125
                },
                {
                    "name": "F4",
                    "midi": 65,
                    "time": 78.4375,
                    "velocity": 0.5905511811023622,
                    "duration": 0.3125
                },
                {
                    "name": "A#3",
                    "midi": 58,
                    "time": 78.75,
                    "velocity": 0.5905511811023622,
                    "duration": 0.3125
                },
                {
                    "name": "C4",
                    "midi": 60,
                    "time": 78.75,
                    "velocity": 0.5905511811023622,
                    "duration": 0.3125
                },
                {
                    "name": "E4",
                    "midi": 64,
                    "time": 78.75,
                    "velocity": 0.5905511811023622,
                    "duration": 0.3125
                },
                {
                    "name": "F#4",
                    "midi": 66,
                    "time": 79.0625,
                    "velocity": 0.5905511811023622,
                    "duration": 0.3125
                },
                {
                    "name": "A#4",
                    "midi": 70,
                    "time": 79.0625,
                    "velocity": 0.5905511811023622,
                    "duration": 0.3125
                },
                {
                    "name": "C#5",
                    "midi": 73,
                    "time": 79.0625,
                    "velocity": 0.5905511811023622,
                    "duration": 0.3125
                },
                {
                    "name": "A3",
                    "midi": 57,
                    "time": 79.375,
                    "velocity": 0.5905511811023622,
                    "duration": 0.3125
                },
                {
                    "name": "C4",
                    "midi": 60,
                    "time": 79.375,
                    "velocity": 0.5905511811023622,
                    "duration": 0.3125
                },
                {
                    "name": "D#4",
                    "midi": 63,
                    "time": 79.375,
                    "velocity": 0.5905511811023622,
                    "duration": 0.3125
                },
                {
                    "name": "F4",
                    "midi": 65,
                    "time": 79.6875,
                    "velocity": 0.5905511811023622,
                    "duration": 0.3125
                },
                {
                    "name": "A4",
                    "midi": 69,
                    "time": 79.6875,
                    "velocity": 0.5905511811023622,
                    "duration": 0.3125
                },
                {
                    "name": "C5",
                    "midi": 72,
                    "time": 79.6875,
                    "velocity": 0.5905511811023622,
                    "duration": 0.3125
                },
                {
                    "name": "A#4",
                    "midi": 70,
                    "time": 80,
                    "velocity": 0.5905511811023622,
                    "duration": 2.5
                },
                {
                    "name": "A#3",
                    "midi": 58,
                    "time": 82.5,
                    "velocity": 0.5905511811023622,
                    "duration": 0.3125
                },
                {
                    "name": "D4",
                    "midi": 62,
                    "time": 82.8125,
                    "velocity": 0.5905511811023622,
                    "duration": 0.3125
                },
                {
                    "name": "C4",
                    "midi": 60,
                    "time": 83.125,
                    "velocity": 0.5905511811023622,
                    "duration": 0.3125
                },
                {
                    "name": "D#4",
                    "midi": 63,
                    "time": 83.4375,
                    "velocity": 0.5905511811023622,
                    "duration": 0.3125
                },
                {
                    "name": "D4",
                    "midi": 62,
                    "time": 83.75,
                    "velocity": 0.5905511811023622,
                    "duration": 0.3125
                },
                {
                    "name": "F4",
                    "midi": 65,
                    "time": 84.0625,
                    "velocity": 0.5905511811023622,
                    "duration": 0.625
                },
                {
                    "name": "D#4",
                    "midi": 63,
                    "time": 84.6875,
                    "velocity": 0.5905511811023622,
                    "duration": 0.3125
                },
                {
                    "name": "G4",
                    "midi": 67,
                    "time": 85,
                    "velocity": 0.5905511811023622,
                    "duration": 0.3125
                },
                {
                    "name": "F4",
                    "midi": 65,
                    "time": 85.3125,
                    "velocity": 0.5905511811023622,
                    "duration": 0.3125
                },
                {
                    "name": "A4",
                    "midi": 69,
                    "time": 85.625,
                    "velocity": 0.5905511811023622,
                    "duration": 0.3125
                },
                {
                    "name": "G4",
                    "midi": 67,
                    "time": 85.9375,
                    "velocity": 0.5905511811023622,
                    "duration": 0.3125
                },
                {
                    "name": "A#4",
                    "midi": 70,
                    "time": 86.25,
                    "velocity": 0.5905511811023622,
                    "duration": 0.3125
                },
                {
                    "name": "A4",
                    "midi": 69,
                    "time": 86.5625,
                    "velocity": 0.5905511811023622,
                    "duration": 0.625
                },
                {
                    "name": "C5",
                    "midi": 72,
                    "time": 87.1875,
                    "velocity": 0.5905511811023622,
                    "duration": 0.3125
                },
                {
                    "name": "A#3",
                    "midi": 58,
                    "time": 87.5,
                    "velocity": 0.3858267716535433,
                    "duration": 2.5
                },
                {
                    "name": "D4",
                    "midi": 62,
                    "time": 87.5,
                    "velocity": 0.3858267716535433,
                    "duration": 2.5
                },
                {
                    "name": "G4",
                    "midi": 67,
                    "time": 87.5,
                    "velocity": 0.3858267716535433,
                    "duration": 2.5
                },
                {
                    "name": "A#4",
                    "midi": 70,
                    "time": 87.5,
                    "velocity": 0.3858267716535433,
                    "duration": 2.5
                },
                {
                    "name": "A#3",
                    "midi": 58,
                    "time": 90,
                    "velocity": 0.3858267716535433,
                    "duration": 0.625
                },
                {
                    "name": "D4",
                    "midi": 62,
                    "time": 90,
                    "velocity": 0.3858267716535433,
                    "duration": 0.625
                },
                {
                    "name": "G4",
                    "midi": 67,
                    "time": 90,
                    "velocity": 0.3858267716535433,
                    "duration": 0.625
                },
                {
                    "name": "D4",
                    "midi": 62,
                    "time": 90.625,
                    "velocity": 0.3858267716535433,
                    "duration": 0.625
                },
                {
                    "name": "G4",
                    "midi": 67,
                    "time": 90.625,
                    "velocity": 0.3858267716535433,
                    "duration": 0.625
                },
                {
                    "name": "A#4",
                    "midi": 70,
                    "time": 90.625,
                    "velocity": 0.3858267716535433,
                    "duration": 0.625
                },
                {
                    "name": "G3",
                    "midi": 55,
                    "time": 91.25,
                    "velocity": 0.3858267716535433,
                    "duration": 0.625
                },
                {
                    "name": "A#3",
                    "midi": 58,
                    "time": 91.25,
                    "velocity": 0.3858267716535433,
                    "duration": 0.625
                },
                {
                    "name": "D#4",
                    "midi": 63,
                    "time": 91.25,
                    "velocity": 0.3858267716535433,
                    "duration": 0.625
                },
                {
                    "name": "G3",
                    "midi": 55,
                    "time": 91.875,
                    "velocity": 0.3858267716535433,
                    "duration": 0.625
                },
                {
                    "name": "A#3",
                    "midi": 58,
                    "time": 91.875,
                    "velocity": 0.3858267716535433,
                    "duration": 0.625
                },
                {
                    "name": "E4",
                    "midi": 64,
                    "time": 91.875,
                    "velocity": 0.3858267716535433,
                    "duration": 0.625
                },
                {
                    "name": "F3",
                    "midi": 53,
                    "time": 92.5,
                    "velocity": 0.3858267716535433,
                    "duration": 1.25
                },
                {
                    "name": "B3",
                    "midi": 59,
                    "time": 92.5,
                    "velocity": 0.3858267716535433,
                    "duration": 1.25
                },
                {
                    "name": "F4",
                    "midi": 65,
                    "time": 92.5,
                    "velocity": 0.3858267716535433,
                    "duration": 1.25
                },
                {
                    "name": "E3",
                    "midi": 52,
                    "time": 93.75,
                    "velocity": 0.3858267716535433,
                    "duration": 1.25
                },
                {
                    "name": "A#3",
                    "midi": 58,
                    "time": 93.75,
                    "velocity": 0.3858267716535433,
                    "duration": 1.25
                },
                {
                    "name": "E4",
                    "midi": 64,
                    "time": 93.75,
                    "velocity": 0.3858267716535433,
                    "duration": 1.25
                },
                {
                    "name": "D#3",
                    "midi": 51,
                    "time": 95,
                    "velocity": 0.3858267716535433,
                    "duration": 0.625
                },
                {
                    "name": "A3",
                    "midi": 57,
                    "time": 95,
                    "velocity": 0.3858267716535433,
                    "duration": 0.625
                },
                {
                    "name": "D#4",
                    "midi": 63,
                    "time": 95,
                    "velocity": 0.3858267716535433,
                    "duration": 0.625
                },
                {
                    "name": "D3",
                    "midi": 50,
                    "time": 95.625,
                    "velocity": 0.3858267716535433,
                    "duration": 0.625
                },
                {
                    "name": "G#3",
                    "midi": 56,
                    "time": 95.625,
                    "velocity": 0.3858267716535433,
                    "duration": 0.625
                },
                {
                    "name": "D4",
                    "midi": 62,
                    "time": 95.625,
                    "velocity": 0.3858267716535433,
                    "duration": 0.625
                },
                {
                    "name": "C#3",
                    "midi": 49,
                    "time": 96.25,
                    "velocity": 0.3858267716535433,
                    "duration": 0.625
                },
                {
                    "name": "G3",
                    "midi": 55,
                    "time": 96.25,
                    "velocity": 0.3858267716535433,
                    "duration": 0.625
                },
                {
                    "name": "C#4",
                    "midi": 61,
                    "time": 96.25,
                    "velocity": 0.3858267716535433,
                    "duration": 0.625
                },
                {
                    "name": "D3",
                    "midi": 50,
                    "time": 96.875,
                    "velocity": 0.3858267716535433,
                    "duration": 0.625
                },
                {
                    "name": "F#3",
                    "midi": 54,
                    "time": 96.875,
                    "velocity": 0.3858267716535433,
                    "duration": 0.625
                },
                {
                    "name": "C4",
                    "midi": 60,
                    "time": 96.875,
                    "velocity": 0.3858267716535433,
                    "duration": 0.625
                },
                {
                    "name": "D5",
                    "midi": 74,
                    "time": 97.5,
                    "velocity": 0.6929133858267716,
                    "duration": 2.8125
                },
                {
                    "name": "E5",
                    "midi": 76,
                    "time": 100.3125,
                    "velocity": 0.6929133858267716,
                    "duration": 0.3125
                },
                {
                    "name": "D5",
                    "midi": 74,
                    "time": 100.625,
                    "velocity": 0.6929133858267716,
                    "duration": 0.3125
                },
                {
                    "name": "G4",
                    "midi": 67,
                    "time": 100.9375,
                    "velocity": 0.6929133858267716,
                    "duration": 0.3125
                },
                {
                    "name": "A#4",
                    "midi": 70,
                    "time": 101.25,
                    "velocity": 0.6929133858267716,
                    "duration": 0.3125
                },
                {
                    "name": "A4",
                    "midi": 69,
                    "time": 101.5625,
                    "velocity": 0.6929133858267716,
                    "duration": 0.3125
                },
                {
                    "name": "G4",
                    "midi": 67,
                    "time": 101.875,
                    "velocity": 0.6929133858267716,
                    "duration": 0.3125
                },
                {
                    "name": "E4",
                    "midi": 64,
                    "time": 102.1875,
                    "velocity": 0.6929133858267716,
                    "duration": 0.3125
                },
                {
                    "name": "D4",
                    "midi": 62,
                    "time": 102.5,
                    "velocity": 0.6929133858267716,
                    "duration": 5
                },
                {
                    "name": "D5",
                    "midi": 74,
                    "time": 107.5,
                    "velocity": 0.6929133858267716,
                    "duration": 2.8125
                },
                {
                    "name": "E5",
                    "midi": 76,
                    "time": 110.3125,
                    "velocity": 0.6929133858267716,
                    "duration": 0.3125
                },
                {
                    "name": "D5",
                    "midi": 74,
                    "time": 110.625,
                    "velocity": 0.6929133858267716,
                    "duration": 0.3125
                },
                {
                    "name": "G4",
                    "midi": 67,
                    "time": 110.9375,
                    "velocity": 0.6929133858267716,
                    "duration": 0.3125
                },
                {
                    "name": "A#4",
                    "midi": 70,
                    "time": 111.25,
                    "velocity": 0.6929133858267716,
                    "duration": 0.3125
                },
                {
                    "name": "A4",
                    "midi": 69,
                    "time": 111.5625,
                    "velocity": 0.6929133858267716,
                    "duration": 0.3125
                },
                {
                    "name": "G4",
                    "midi": 67,
                    "time": 111.875,
                    "velocity": 0.6929133858267716,
                    "duration": 0.3125
                },
                {
                    "name": "E4",
                    "midi": 64,
                    "time": 112.1875,
                    "velocity": 0.6929133858267716,
                    "duration": 0.3125
                },
                {
                    "name": "G5",
                    "midi": 79,
                    "time": 115.15625,
                    "velocity": 0.5905511811023622,
                    "duration": 0.3125
                },
                {
                    "name": "F#6",
                    "midi": 90,
                    "time": 115.390625,
                    "velocity": 0.5905511811023622,
                    "duration": 0.078125
                },
                {
                    "name": "G6",
                    "midi": 91,
                    "time": 115.46875,
                    "velocity": 0.5905511811023622,
                    "duration": 0.15625
                },
                {
                    "name": "G5",
                    "midi": 79,
                    "time": 115.625,
                    "velocity": 0.5905511811023622,
                    "duration": 0.15625
                },
                {
                    "name": "F#6",
                    "midi": 90,
                    "time": 115.703125,
                    "velocity": 0.5905511811023622,
                    "duration": 0.078125
                },
                {
                    "name": "G6",
                    "midi": 91,
                    "time": 115.78125,
                    "velocity": 0.5905511811023622,
                    "duration": 0.3125
                },
                {
                    "name": "G5",
                    "midi": 79,
                    "time": 116.09375,
                    "velocity": 0.5905511811023622,
                    "duration": 0.15625
                },
                {
                    "name": "G5",
                    "midi": 79,
                    "time": 116.40625,
                    "velocity": 0.5905511811023622,
                    "duration": 0.3125
                },
                {
                    "name": "F#6",
                    "midi": 90,
                    "time": 116.640625,
                    "velocity": 0.5905511811023622,
                    "duration": 0.078125
                },
                {
                    "name": "G6",
                    "midi": 91,
                    "time": 116.71875,
                    "velocity": 0.5905511811023622,
                    "duration": 0.15625
                },
                {
                    "name": "G5",
                    "midi": 79,
                    "time": 116.875,
                    "velocity": 0.5905511811023622,
                    "duration": 0.15625
                },
                {
                    "name": "F#6",
                    "midi": 90,
                    "time": 116.953125,
                    "velocity": 0.5905511811023622,
                    "duration": 0.078125
                },
                {
                    "name": "G6",
                    "midi": 91,
                    "time": 117.03125,
                    "velocity": 0.5905511811023622,
                    "duration": 0.3125
                },
                {
                    "name": "G5",
                    "midi": 79,
                    "time": 117.34375,
                    "velocity": 0.5905511811023622,
                    "duration": 0.15625
                },
                {
                    "name": "D5",
                    "midi": 74,
                    "time": 117.5,
                    "velocity": 0.6929133858267716,
                    "duration": 0.3125
                },
                {
                    "name": "C5",
                    "midi": 72,
                    "time": 117.8125,
                    "velocity": 0.6929133858267716,
                    "duration": 0.3125
                },
                {
                    "name": "G4",
                    "midi": 67,
                    "time": 118.125,
                    "velocity": 0.6929133858267716,
                    "duration": 0.3125
                },
                {
                    "name": "E4",
                    "midi": 64,
                    "time": 118.4375,
                    "velocity": 0.6929133858267716,
                    "duration": 0.3125
                },
                {
                    "name": "D#4",
                    "midi": 63,
                    "time": 118.75,
                    "velocity": 0.6929133858267716,
                    "duration": 0.3125
                },
                {
                    "name": "D5",
                    "midi": 74,
                    "time": 119.0625,
                    "velocity": 0.6929133858267716,
                    "duration": 0.625
                },
                {
                    "name": "C5",
                    "midi": 72,
                    "time": 119.6875,
                    "velocity": 0.6929133858267716,
                    "duration": 0.3125
                },
                {
                    "name": "G4",
                    "midi": 67,
                    "time": 120,
                    "velocity": 0.4881889763779528,
                    "duration": 0.3125
                },
                {
                    "name": "B4",
                    "midi": 71,
                    "time": 120,
                    "velocity": 0.4881889763779528,
                    "duration": 0.3125
                },
                {
                    "name": "B3",
                    "midi": 59,
                    "time": 120.3125,
                    "velocity": 0.4881889763779528,
                    "duration": 0.3125
                },
                {
                    "name": "G4",
                    "midi": 67,
                    "time": 120.3125,
                    "velocity": 0.4881889763779528,
                    "duration": 0.3125
                },
                {
                    "name": "G3",
                    "midi": 55,
                    "time": 120.625,
                    "velocity": 0.4881889763779528,
                    "duration": 0.3125
                },
                {
                    "name": "D#4",
                    "midi": 63,
                    "time": 120.625,
                    "velocity": 0.4881889763779528,
                    "duration": 0.3125
                },
                {
                    "name": "G3",
                    "midi": 55,
                    "time": 120.9375,
                    "velocity": 0.4881889763779528,
                    "duration": 0.3125
                },
                {
                    "name": "D4",
                    "midi": 62,
                    "time": 120.9375,
                    "velocity": 0.4881889763779528,
                    "duration": 0.3125
                },
                {
                    "name": "A3",
                    "midi": 57,
                    "time": 121.25,
                    "velocity": 0.4881889763779528,
                    "duration": 0.3125
                },
                {
                    "name": "C#4",
                    "midi": 61,
                    "time": 121.25,
                    "velocity": 0.4881889763779528,
                    "duration": 0.3125
                },
                {
                    "name": "D#4",
                    "midi": 63,
                    "time": 121.5625,
                    "velocity": 0.4881889763779528,
                    "duration": 0.3125
                },
                {
                    "name": "A#4",
                    "midi": 70,
                    "time": 121.5625,
                    "velocity": 0.4881889763779528,
                    "duration": 0.3125
                },
                {
                    "name": "A3",
                    "midi": 57,
                    "time": 121.875,
                    "velocity": 0.4881889763779528,
                    "duration": 0.3125
                },
                {
                    "name": "C4",
                    "midi": 60,
                    "time": 121.875,
                    "velocity": 0.4881889763779528,
                    "duration": 0.3125
                },
                {
                    "name": "F#4",
                    "midi": 66,
                    "time": 122.1875,
                    "velocity": 0.4881889763779528,
                    "duration": 0.3125
                },
                {
                    "name": "A4",
                    "midi": 69,
                    "time": 122.1875,
                    "velocity": 0.4881889763779528,
                    "duration": 0.3125
                },
                {
                    "name": "G4",
                    "midi": 67,
                    "time": 122.5,
                    "velocity": 0.5905511811023622,
                    "duration": 2.8125
                },
                {
                    "name": "D4",
                    "midi": 62,
                    "time": 125.3125,
                    "velocity": 0.5905511811023622,
                    "duration": 0.3125
                },
                {
                    "name": "B4",
                    "midi": 71,
                    "time": 125.3125,
                    "velocity": 0.5905511811023622,
                    "duration": 0.3125
                },
                {
                    "name": "F#4",
                    "midi": 66,
                    "time": 125.625,
                    "velocity": 0.5905511811023622,
                    "duration": 0.3125
                },
                {
                    "name": "D5",
                    "midi": 74,
                    "time": 125.625,
                    "velocity": 0.5905511811023622,
                    "duration": 0.3125
                },
                {
                    "name": "A4",
                    "midi": 69,
                    "time": 125.9375,
                    "velocity": 0.5905511811023622,
                    "duration": 0.3125
                },
                {
                    "name": "F#5",
                    "midi": 78,
                    "time": 125.9375,
                    "velocity": 0.5905511811023622,
                    "duration": 0.3125
                },
                {
                    "name": "C#5",
                    "midi": 73,
                    "time": 126.25,
                    "velocity": 0.5905511811023622,
                    "duration": 0.3125
                },
                {
                    "name": "A5",
                    "midi": 81,
                    "time": 126.25,
                    "velocity": 0.5905511811023622,
                    "duration": 0.3125
                },
                {
                    "name": "B4",
                    "midi": 71,
                    "time": 126.5625,
                    "velocity": 0.5905511811023622,
                    "duration": 0.3125
                },
                {
                    "name": "G5",
                    "midi": 79,
                    "time": 126.5625,
                    "velocity": 0.5905511811023622,
                    "duration": 0.3125
                },
                {
                    "name": "A4",
                    "midi": 69,
                    "time": 126.875,
                    "velocity": 0.5905511811023622,
                    "duration": 0.3125
                },
                {
                    "name": "F#5",
                    "midi": 78,
                    "time": 126.875,
                    "velocity": 0.5905511811023622,
                    "duration": 0.3125
                },
                {
                    "name": "A4",
                    "midi": 69,
                    "time": 127.1875,
                    "velocity": 0.5905511811023622,
                    "duration": 0.3125
                },
                {
                    "name": "E5",
                    "midi": 76,
                    "time": 127.1875,
                    "velocity": 0.5905511811023622,
                    "duration": 0.3125
                },
                {
                    "name": "D5",
                    "midi": 74,
                    "time": 127.5,
                    "velocity": 0.6929133858267716,
                    "duration": 2.8125
                },
                {
                    "name": "D5",
                    "midi": 74,
                    "time": 130.3125,
                    "velocity": 0.6929133858267716,
                    "duration": 0.3125
                },
                {
                    "name": "F5",
                    "midi": 77,
                    "time": 130.625,
                    "velocity": 0.6929133858267716,
                    "duration": 0.3125
                },
                {
                    "name": "D5",
                    "midi": 74,
                    "time": 130.9375,
                    "velocity": 0.6929133858267716,
                    "duration": 0.3125
                },
                {
                    "name": "A5",
                    "midi": 81,
                    "time": 131.25,
                    "velocity": 0.6929133858267716,
                    "duration": 0.3125
                },
                {
                    "name": "C6",
                    "midi": 84,
                    "time": 131.5625,
                    "velocity": 0.6929133858267716,
                    "duration": 0.3125
                },
                {
                    "name": "A5",
                    "midi": 81,
                    "time": 131.875,
                    "velocity": 0.6929133858267716,
                    "duration": 0.3125
                },
                {
                    "name": "A5",
                    "midi": 81,
                    "time": 132.1875,
                    "velocity": 0.6929133858267716,
                    "duration": 0.3125
                },
                {
                    "name": "D5",
                    "midi": 74,
                    "time": 132.5,
                    "velocity": 0.5905511811023622,
                    "duration": 0.3125
                },
                {
                    "name": "A#5",
                    "midi": 82,
                    "time": 132.5,
                    "velocity": 0.5905511811023622,
                    "duration": 0.3125
                },
                {
                    "name": "D6",
                    "midi": 86,
                    "time": 132.5,
                    "velocity": 0.5905511811023622,
                    "duration": 0.3125
                },
                {
                    "name": "E5",
                    "midi": 76,
                    "time": 132.8125,
                    "velocity": 0.5905511811023622,
                    "duration": 0.3125
                },
                {
                    "name": "C6",
                    "midi": 84,
                    "time": 132.8125,
                    "velocity": 0.5905511811023622,
                    "duration": 0.3125
                },
                {
                    "name": "E6",
                    "midi": 88,
                    "time": 132.8125,
                    "velocity": 0.5905511811023622,
                    "duration": 0.3125
                },
                {
                    "name": "D5",
                    "midi": 74,
                    "time": 133.125,
                    "velocity": 0.5905511811023622,
                    "duration": 0.3125
                },
                {
                    "name": "A#5",
                    "midi": 82,
                    "time": 133.125,
                    "velocity": 0.5905511811023622,
                    "duration": 0.3125
                },
                {
                    "name": "D6",
                    "midi": 86,
                    "time": 133.125,
                    "velocity": 0.5905511811023622,
                    "duration": 0.3125
                },
                {
                    "name": "E5",
                    "midi": 76,
                    "time": 133.4375,
                    "velocity": 0.5905511811023622,
                    "duration": 0.3125
                },
                {
                    "name": "C6",
                    "midi": 84,
                    "time": 133.4375,
                    "velocity": 0.5905511811023622,
                    "duration": 0.3125
                },
                {
                    "name": "E6",
                    "midi": 88,
                    "time": 133.4375,
                    "velocity": 0.5905511811023622,
                    "duration": 0.3125
                },
                {
                    "name": "D5",
                    "midi": 74,
                    "time": 133.75,
                    "velocity": 0.5905511811023622,
                    "duration": 0.3125
                },
                {
                    "name": "A#5",
                    "midi": 82,
                    "time": 133.75,
                    "velocity": 0.5905511811023622,
                    "duration": 0.3125
                },
                {
                    "name": "D6",
                    "midi": 86,
                    "time": 133.75,
                    "velocity": 0.5905511811023622,
                    "duration": 0.3125
                },
                {
                    "name": "E5",
                    "midi": 76,
                    "time": 134.0625,
                    "velocity": 0.5905511811023622,
                    "duration": 0.3125
                },
                {
                    "name": "C6",
                    "midi": 84,
                    "time": 134.0625,
                    "velocity": 0.5905511811023622,
                    "duration": 0.3125
                },
                {
                    "name": "E6",
                    "midi": 88,
                    "time": 134.0625,
                    "velocity": 0.5905511811023622,
                    "duration": 0.3125
                },
                {
                    "name": "D5",
                    "midi": 74,
                    "time": 134.375,
                    "velocity": 0.5905511811023622,
                    "duration": 0.3125
                },
                {
                    "name": "A#5",
                    "midi": 82,
                    "time": 134.375,
                    "velocity": 0.5905511811023622,
                    "duration": 0.3125
                },
                {
                    "name": "D6",
                    "midi": 86,
                    "time": 134.375,
                    "velocity": 0.5905511811023622,
                    "duration": 0.3125
                },
                {
                    "name": "E5",
                    "midi": 76,
                    "time": 134.6875,
                    "velocity": 0.5905511811023622,
                    "duration": 0.3125
                },
                {
                    "name": "C6",
                    "midi": 84,
                    "time": 134.6875,
                    "velocity": 0.5905511811023622,
                    "duration": 0.3125
                },
                {
                    "name": "E6",
                    "midi": 88,
                    "time": 134.6875,
                    "velocity": 0.5905511811023622,
                    "duration": 0.3125
                },
                {
                    "name": "F5",
                    "midi": 77,
                    "time": 135,
                    "velocity": 0.6929133858267716,
                    "duration": 2.8125
                },
                {
                    "name": "F5",
                    "midi": 77,
                    "time": 137.8125,
                    "velocity": 0.6929133858267716,
                    "duration": 0.3125
                },
                {
                    "name": "G#5",
                    "midi": 80,
                    "time": 138.125,
                    "velocity": 0.6929133858267716,
                    "duration": 0.3125
                },
                {
                    "name": "F5",
                    "midi": 77,
                    "time": 138.4375,
                    "velocity": 0.6929133858267716,
                    "duration": 0.3125
                },
                {
                    "name": "C6",
                    "midi": 84,
                    "time": 138.75,
                    "velocity": 0.6929133858267716,
                    "duration": 0.3125
                },
                {
                    "name": "D#6",
                    "midi": 87,
                    "time": 139.0625,
                    "velocity": 0.6929133858267716,
                    "duration": 0.3125
                },
                {
                    "name": "C6",
                    "midi": 84,
                    "time": 139.375,
                    "velocity": 0.6929133858267716,
                    "duration": 0.3125
                },
                {
                    "name": "C6",
                    "midi": 84,
                    "time": 139.6875,
                    "velocity": 0.6929133858267716,
                    "duration": 0.3125
                },
                {
                    "name": "F5",
                    "midi": 77,
                    "time": 140,
                    "velocity": 0.5905511811023622,
                    "duration": 0.3125
                },
                {
                    "name": "C#6",
                    "midi": 85,
                    "time": 140,
                    "velocity": 0.5905511811023622,
                    "duration": 0.3125
                },
                {
                    "name": "F6",
                    "midi": 89,
                    "time": 140,
                    "velocity": 0.5905511811023622,
                    "duration": 0.3125
                },
                {
                    "name": "G5",
                    "midi": 79,
                    "time": 140.3125,
                    "velocity": 0.5905511811023622,
                    "duration": 0.3125
                },
                {
                    "name": "D#6",
                    "midi": 87,
                    "time": 140.3125,
                    "velocity": 0.5905511811023622,
                    "duration": 0.3125
                },
                {
                    "name": "G6",
                    "midi": 91,
                    "time": 140.3125,
                    "velocity": 0.5905511811023622,
                    "duration": 0.3125
                },
                {
                    "name": "F5",
                    "midi": 77,
                    "time": 140.625,
                    "velocity": 0.5905511811023622,
                    "duration": 0.3125
                },
                {
                    "name": "C#6",
                    "midi": 85,
                    "time": 140.625,
                    "velocity": 0.5905511811023622,
                    "duration": 0.3125
                },
                {
                    "name": "F6",
                    "midi": 89,
                    "time": 140.625,
                    "velocity": 0.5905511811023622,
                    "duration": 0.3125
                },
                {
                    "name": "G5",
                    "midi": 79,
                    "time": 140.9375,
                    "velocity": 0.5905511811023622,
                    "duration": 0.3125
                },
                {
                    "name": "D#6",
                    "midi": 87,
                    "time": 140.9375,
                    "velocity": 0.5905511811023622,
                    "duration": 0.3125
                },
                {
                    "name": "G6",
                    "midi": 91,
                    "time": 140.9375,
                    "velocity": 0.5905511811023622,
                    "duration": 0.3125
                },
                {
                    "name": "F5",
                    "midi": 77,
                    "time": 141.25,
                    "velocity": 0.6929133858267716,
                    "duration": 0.3125
                },
                {
                    "name": "C#6",
                    "midi": 85,
                    "time": 141.25,
                    "velocity": 0.6929133858267716,
                    "duration": 0.3125
                },
                {
                    "name": "F6",
                    "midi": 89,
                    "time": 141.25,
                    "velocity": 0.6929133858267716,
                    "duration": 0.3125
                },
                {
                    "name": "G5",
                    "midi": 79,
                    "time": 141.5625,
                    "velocity": 0.6929133858267716,
                    "duration": 0.3125
                },
                {
                    "name": "D#6",
                    "midi": 87,
                    "time": 141.5625,
                    "velocity": 0.6929133858267716,
                    "duration": 0.3125
                },
                {
                    "name": "G6",
                    "midi": 91,
                    "time": 141.5625,
                    "velocity": 0.6929133858267716,
                    "duration": 0.3125
                },
                {
                    "name": "F5",
                    "midi": 77,
                    "time": 141.875,
                    "velocity": 0.6929133858267716,
                    "duration": 0.3125
                },
                {
                    "name": "C#6",
                    "midi": 85,
                    "time": 141.875,
                    "velocity": 0.6929133858267716,
                    "duration": 0.3125
                },
                {
                    "name": "F6",
                    "midi": 89,
                    "time": 141.875,
                    "velocity": 0.6929133858267716,
                    "duration": 0.3125
                },
                {
                    "name": "G5",
                    "midi": 79,
                    "time": 142.1875,
                    "velocity": 0.6929133858267716,
                    "duration": 0.3125
                },
                {
                    "name": "D#6",
                    "midi": 87,
                    "time": 142.1875,
                    "velocity": 0.6929133858267716,
                    "duration": 0.3125
                },
                {
                    "name": "G6",
                    "midi": 91,
                    "time": 142.1875,
                    "velocity": 0.6929133858267716,
                    "duration": 0.3125
                },
                {
                    "name": "C6",
                    "midi": 84,
                    "time": 142.5,
                    "velocity": 0.4881889763779528,
                    "duration": 0.06119791666665719
                },
                {
                    "name": "D#6",
                    "midi": 87,
                    "time": 142.5,
                    "velocity": 0.4881889763779528,
                    "duration": 0.06119791666665719
                },
                {
                    "name": "G#6",
                    "midi": 92,
                    "time": 142.5,
                    "velocity": 0.4881889763779528,
                    "duration": 0.06119791666665719
                },
                {
                    "name": "G#5",
                    "midi": 80,
                    "time": 142.8125,
                    "velocity": 0.4881889763779528,
                    "duration": 0.06119791666665719
                },
                {
                    "name": "C6",
                    "midi": 84,
                    "time": 142.8125,
                    "velocity": 0.4881889763779528,
                    "duration": 0.06119791666665719
                },
                {
                    "name": "D#6",
                    "midi": 87,
                    "time": 142.8125,
                    "velocity": 0.4881889763779528,
                    "duration": 0.06119791666665719
                },
                {
                    "name": "F5",
                    "midi": 77,
                    "time": 143.125,
                    "velocity": 0.4881889763779528,
                    "duration": 0.06119791666665719
                },
                {
                    "name": "G#5",
                    "midi": 80,
                    "time": 143.125,
                    "velocity": 0.4881889763779528,
                    "duration": 0.06119791666665719
                },
                {
                    "name": "C#6",
                    "midi": 85,
                    "time": 143.125,
                    "velocity": 0.4881889763779528,
                    "duration": 0.06119791666665719
                },
                {
                    "name": "C#5",
                    "midi": 73,
                    "time": 143.4375,
                    "velocity": 0.4881889763779528,
                    "duration": 0.06119791666665719
                },
                {
                    "name": "F5",
                    "midi": 77,
                    "time": 143.4375,
                    "velocity": 0.4881889763779528,
                    "duration": 0.06119791666665719
                },
                {
                    "name": "G#5",
                    "midi": 80,
                    "time": 143.4375,
                    "velocity": 0.4881889763779528,
                    "duration": 0.06119791666665719
                },
                {
                    "name": "C5",
                    "midi": 72,
                    "time": 143.75,
                    "velocity": 0.4881889763779528,
                    "duration": 0.029947916666657193
                },
                {
                    "name": "D#5",
                    "midi": 75,
                    "time": 143.75,
                    "velocity": 0.4881889763779528,
                    "duration": 0.029947916666657193
                },
                {
                    "name": "G#5",
                    "midi": 80,
                    "time": 143.75,
                    "velocity": 0.4881889763779528,
                    "duration": 0.029947916666657193
                },
                {
                    "name": "E5",
                    "midi": 76,
                    "time": 143.90625,
                    "velocity": 0.5905511811023622,
                    "duration": 0.15625
                },
                {
                    "name": "G5",
                    "midi": 79,
                    "time": 143.90625,
                    "velocity": 0.5905511811023622,
                    "duration": 0.15625
                },
                {
                    "name": "C6",
                    "midi": 84,
                    "time": 143.90625,
                    "velocity": 0.5905511811023622,
                    "duration": 0.15625
                },
                {
                    "name": "D#5",
                    "midi": 75,
                    "time": 144.0625,
                    "velocity": 0.5905511811023622,
                    "duration": 0.15625
                },
                {
                    "name": "F#5",
                    "midi": 78,
                    "time": 144.0625,
                    "velocity": 0.5905511811023622,
                    "duration": 0.15625
                },
                {
                    "name": "B5",
                    "midi": 83,
                    "time": 144.0625,
                    "velocity": 0.5905511811023622,
                    "duration": 0.15625
                },
                {
                    "name": "D5",
                    "midi": 74,
                    "time": 144.21875,
                    "velocity": 0.4881889763779528,
                    "duration": 0.15625
                },
                {
                    "name": "F5",
                    "midi": 77,
                    "time": 144.21875,
                    "velocity": 0.4881889763779528,
                    "duration": 0.15625
                },
                {
                    "name": "A#5",
                    "midi": 82,
                    "time": 144.21875,
                    "velocity": 0.4881889763779528,
                    "duration": 0.15625
                },
                {
                    "name": "C#5",
                    "midi": 73,
                    "time": 144.375,
                    "velocity": 0.4881889763779528,
                    "duration": 0.06119791666665719
                },
                {
                    "name": "E5",
                    "midi": 76,
                    "time": 144.375,
                    "velocity": 0.4881889763779528,
                    "duration": 0.06119791666665719
                },
                {
                    "name": "A5",
                    "midi": 81,
                    "time": 144.375,
                    "velocity": 0.4881889763779528,
                    "duration": 0.06119791666665719
                },
                {
                    "name": "A4",
                    "midi": 69,
                    "time": 144.6875,
                    "velocity": 0.4881889763779528,
                    "duration": 0.06119791666665719
                },
                {
                    "name": "C#5",
                    "midi": 73,
                    "time": 144.6875,
                    "velocity": 0.4881889763779528,
                    "duration": 0.06119791666665719
                },
                {
                    "name": "E5",
                    "midi": 76,
                    "time": 144.6875,
                    "velocity": 0.4881889763779528,
                    "duration": 0.06119791666665719
                },
                {
                    "name": "C5",
                    "midi": 72,
                    "time": 145,
                    "velocity": 0.4881889763779528,
                    "duration": 0.06119791666665719
                },
                {
                    "name": "D#5",
                    "midi": 75,
                    "time": 145,
                    "velocity": 0.4881889763779528,
                    "duration": 0.06119791666665719
                },
                {
                    "name": "G#5",
                    "midi": 80,
                    "time": 145,
                    "velocity": 0.4881889763779528,
                    "duration": 0.06119791666665719
                },
                {
                    "name": "G#4",
                    "midi": 68,
                    "time": 145.3125,
                    "velocity": 0.4881889763779528,
                    "duration": 0.06119791666665719
                },
                {
                    "name": "C5",
                    "midi": 72,
                    "time": 145.3125,
                    "velocity": 0.4881889763779528,
                    "duration": 0.06119791666665719
                },
                {
                    "name": "D#5",
                    "midi": 75,
                    "time": 145.3125,
                    "velocity": 0.4881889763779528,
                    "duration": 0.06119791666665719
                },
                {
                    "name": "F4",
                    "midi": 65,
                    "time": 145.625,
                    "velocity": 0.4881889763779528,
                    "duration": 0.06119791666665719
                },
                {
                    "name": "G#4",
                    "midi": 68,
                    "time": 145.625,
                    "velocity": 0.4881889763779528,
                    "duration": 0.06119791666665719
                },
                {
                    "name": "C#5",
                    "midi": 73,
                    "time": 145.625,
                    "velocity": 0.4881889763779528,
                    "duration": 0.06119791666665719
                },
                {
                    "name": "C#4",
                    "midi": 61,
                    "time": 145.9375,
                    "velocity": 0.4881889763779528,
                    "duration": 0.06119791666665719
                },
                {
                    "name": "F4",
                    "midi": 65,
                    "time": 145.9375,
                    "velocity": 0.4881889763779528,
                    "duration": 0.06119791666665719
                },
                {
                    "name": "G#4",
                    "midi": 68,
                    "time": 145.9375,
                    "velocity": 0.4881889763779528,
                    "duration": 0.06119791666665719
                },
                {
                    "name": "C4",
                    "midi": 60,
                    "time": 146.25,
                    "velocity": 0.4881889763779528,
                    "duration": 0.029947916666657193
                },
                {
                    "name": "D#4",
                    "midi": 63,
                    "time": 146.25,
                    "velocity": 0.4881889763779528,
                    "duration": 0.029947916666657193
                },
                {
                    "name": "G#4",
                    "midi": 68,
                    "time": 146.25,
                    "velocity": 0.4881889763779528,
                    "duration": 0.029947916666657193
                },
                {
                    "name": "E4",
                    "midi": 64,
                    "time": 146.40625,
                    "velocity": 0.5905511811023622,
                    "duration": 0.15625
                },
                {
                    "name": "G4",
                    "midi": 67,
                    "time": 146.40625,
                    "velocity": 0.5905511811023622,
                    "duration": 0.15625
                },
                {
                    "name": "C5",
                    "midi": 72,
                    "time": 146.40625,
                    "velocity": 0.5905511811023622,
                    "duration": 0.15625
                },
                {
                    "name": "D#4",
                    "midi": 63,
                    "time": 146.5625,
                    "velocity": 0.5905511811023622,
                    "duration": 0.15625
                },
                {
                    "name": "F#4",
                    "midi": 66,
                    "time": 146.5625,
                    "velocity": 0.5905511811023622,
                    "duration": 0.15625
                },
                {
                    "name": "B4",
                    "midi": 71,
                    "time": 146.5625,
                    "velocity": 0.5905511811023622,
                    "duration": 0.15625
                },
                {
                    "name": "D4",
                    "midi": 62,
                    "time": 146.71875,
                    "velocity": 0.4881889763779528,
                    "duration": 0.15625
                },
                {
                    "name": "F4",
                    "midi": 65,
                    "time": 146.71875,
                    "velocity": 0.4881889763779528,
                    "duration": 0.15625
                },
                {
                    "name": "A#4",
                    "midi": 70,
                    "time": 146.71875,
                    "velocity": 0.4881889763779528,
                    "duration": 0.15625
                },
                {
                    "name": "C#4",
                    "midi": 61,
                    "time": 146.875,
                    "velocity": 0.4881889763779528,
                    "duration": 0.06119791666665719
                },
                {
                    "name": "E4",
                    "midi": 64,
                    "time": 146.875,
                    "velocity": 0.4881889763779528,
                    "duration": 0.06119791666665719
                },
                {
                    "name": "A4",
                    "midi": 69,
                    "time": 146.875,
                    "velocity": 0.4881889763779528,
                    "duration": 0.06119791666665719
                },
                {
                    "name": "A3",
                    "midi": 57,
                    "time": 147.1875,
                    "velocity": 0.4881889763779528,
                    "duration": 0.06119791666665719
                },
                {
                    "name": "C#4",
                    "midi": 61,
                    "time": 147.1875,
                    "velocity": 0.4881889763779528,
                    "duration": 0.06119791666665719
                },
                {
                    "name": "E4",
                    "midi": 64,
                    "time": 147.1875,
                    "velocity": 0.4881889763779528,
                    "duration": 0.06119791666665719
                },
                {
                    "name": "G#4",
                    "midi": 68,
                    "time": 147.5,
                    "velocity": 0.4881889763779528,
                    "duration": 1.25
                },
                {
                    "name": "G#4",
                    "midi": 68,
                    "time": 148.75,
                    "velocity": 0.4881889763779528,
                    "duration": 1.25
                },
                {
                    "name": "B4",
                    "midi": 71,
                    "time": 150,
                    "velocity": 0.6929133858267716,
                    "duration": 2.8125
                },
                {
                    "name": "B5",
                    "midi": 83,
                    "time": 150,
                    "velocity": 0.6929133858267716,
                    "duration": 2.8125
                },
                {
                    "name": "B4",
                    "midi": 71,
                    "time": 152.8125,
                    "velocity": 0.6929133858267716,
                    "duration": 0.3125
                },
                {
                    "name": "B5",
                    "midi": 83,
                    "time": 152.8125,
                    "velocity": 0.6929133858267716,
                    "duration": 0.3125
                },
                {
                    "name": "D5",
                    "midi": 74,
                    "time": 153.125,
                    "velocity": 0.6929133858267716,
                    "duration": 0.3125
                },
                {
                    "name": "D6",
                    "midi": 86,
                    "time": 153.125,
                    "velocity": 0.6929133858267716,
                    "duration": 0.3125
                },
                {
                    "name": "B4",
                    "midi": 71,
                    "time": 153.4375,
                    "velocity": 0.6929133858267716,
                    "duration": 0.3125
                },
                {
                    "name": "B5",
                    "midi": 83,
                    "time": 153.4375,
                    "velocity": 0.6929133858267716,
                    "duration": 0.3125
                },
                {
                    "name": "F#5",
                    "midi": 78,
                    "time": 153.75,
                    "velocity": 0.6929133858267716,
                    "duration": 0.3125
                },
                {
                    "name": "F#6",
                    "midi": 90,
                    "time": 153.75,
                    "velocity": 0.6929133858267716,
                    "duration": 0.3125
                },
                {
                    "name": "A5",
                    "midi": 81,
                    "time": 154.0625,
                    "velocity": 0.6929133858267716,
                    "duration": 0.3125
                },
                {
                    "name": "A6",
                    "midi": 93,
                    "time": 154.0625,
                    "velocity": 0.6929133858267716,
                    "duration": 0.3125
                },
                {
                    "name": "F#5",
                    "midi": 78,
                    "time": 154.375,
                    "velocity": 0.6929133858267716,
                    "duration": 0.3125
                },
                {
                    "name": "F#6",
                    "midi": 90,
                    "time": 154.375,
                    "velocity": 0.6929133858267716,
                    "duration": 0.3125
                },
                {
                    "name": "F#5",
                    "midi": 78,
                    "time": 154.6875,
                    "velocity": 0.6929133858267716,
                    "duration": 0.3125
                },
                {
                    "name": "F#6",
                    "midi": 90,
                    "time": 154.6875,
                    "velocity": 0.6929133858267716,
                    "duration": 0.3125
                },
                {
                    "name": "B4",
                    "midi": 71,
                    "time": 155,
                    "velocity": 0.5905511811023622,
                    "duration": 0.3125
                },
                {
                    "name": "G5",
                    "midi": 79,
                    "time": 155,
                    "velocity": 0.5905511811023622,
                    "duration": 0.3125
                },
                {
                    "name": "B5",
                    "midi": 83,
                    "time": 155,
                    "velocity": 0.5905511811023622,
                    "duration": 0.3125
                },
                {
                    "name": "C#5",
                    "midi": 73,
                    "time": 155.3125,
                    "velocity": 0.5905511811023622,
                    "duration": 0.3125
                },
                {
                    "name": "A5",
                    "midi": 81,
                    "time": 155.3125,
                    "velocity": 0.5905511811023622,
                    "duration": 0.3125
                },
                {
                    "name": "C#6",
                    "midi": 85,
                    "time": 155.3125,
                    "velocity": 0.5905511811023622,
                    "duration": 0.3125
                },
                {
                    "name": "B4",
                    "midi": 71,
                    "time": 155.625,
                    "velocity": 0.5905511811023622,
                    "duration": 0.3125
                },
                {
                    "name": "G5",
                    "midi": 79,
                    "time": 155.625,
                    "velocity": 0.5905511811023622,
                    "duration": 0.3125
                },
                {
                    "name": "B5",
                    "midi": 83,
                    "time": 155.625,
                    "velocity": 0.5905511811023622,
                    "duration": 0.3125
                },
                {
                    "name": "C#5",
                    "midi": 73,
                    "time": 155.9375,
                    "velocity": 0.5905511811023622,
                    "duration": 0.3125
                },
                {
                    "name": "A5",
                    "midi": 81,
                    "time": 155.9375,
                    "velocity": 0.5905511811023622,
                    "duration": 0.3125
                },
                {
                    "name": "C#6",
                    "midi": 85,
                    "time": 155.9375,
                    "velocity": 0.5905511811023622,
                    "duration": 0.3125
                },
                {
                    "name": "B4",
                    "midi": 71,
                    "time": 156.25,
                    "velocity": 0.5905511811023622,
                    "duration": 0.3125
                },
                {
                    "name": "G5",
                    "midi": 79,
                    "time": 156.25,
                    "velocity": 0.5905511811023622,
                    "duration": 0.3125
                },
                {
                    "name": "B5",
                    "midi": 83,
                    "time": 156.25,
                    "velocity": 0.5905511811023622,
                    "duration": 0.3125
                },
                {
                    "name": "C#5",
                    "midi": 73,
                    "time": 156.5625,
                    "velocity": 0.5905511811023622,
                    "duration": 0.3125
                },
                {
                    "name": "A5",
                    "midi": 81,
                    "time": 156.5625,
                    "velocity": 0.5905511811023622,
                    "duration": 0.3125
                },
                {
                    "name": "C#6",
                    "midi": 85,
                    "time": 156.5625,
                    "velocity": 0.5905511811023622,
                    "duration": 0.3125
                },
                {
                    "name": "B4",
                    "midi": 71,
                    "time": 156.875,
                    "velocity": 0.5905511811023622,
                    "duration": 0.3125
                },
                {
                    "name": "G5",
                    "midi": 79,
                    "time": 156.875,
                    "velocity": 0.5905511811023622,
                    "duration": 0.3125
                },
                {
                    "name": "B5",
                    "midi": 83,
                    "time": 156.875,
                    "velocity": 0.5905511811023622,
                    "duration": 0.3125
                },
                {
                    "name": "C#5",
                    "midi": 73,
                    "time": 157.1875,
                    "velocity": 0.5905511811023622,
                    "duration": 0.3125
                },
                {
                    "name": "A5",
                    "midi": 81,
                    "time": 157.1875,
                    "velocity": 0.5905511811023622,
                    "duration": 0.3125
                },
                {
                    "name": "C#6",
                    "midi": 85,
                    "time": 157.1875,
                    "velocity": 0.5905511811023622,
                    "duration": 0.3125
                },
                {
                    "name": "D5",
                    "midi": 74,
                    "time": 157.5,
                    "velocity": 0.6929133858267716,
                    "duration": 2.8125
                },
                {
                    "name": "D6",
                    "midi": 86,
                    "time": 157.5,
                    "velocity": 0.6929133858267716,
                    "duration": 2.8125
                },
                {
                    "name": "D5",
                    "midi": 74,
                    "time": 160.3125,
                    "velocity": 0.6929133858267716,
                    "duration": 0.3125
                },
                {
                    "name": "D6",
                    "midi": 86,
                    "time": 160.3125,
                    "velocity": 0.6929133858267716,
                    "duration": 0.3125
                },
                {
                    "name": "F5",
                    "midi": 77,
                    "time": 160.625,
                    "velocity": 0.6929133858267716,
                    "duration": 0.3125
                },
                {
                    "name": "F6",
                    "midi": 89,
                    "time": 160.625,
                    "velocity": 0.6929133858267716,
                    "duration": 0.3125
                },
                {
                    "name": "D5",
                    "midi": 74,
                    "time": 160.9375,
                    "velocity": 0.6929133858267716,
                    "duration": 0.3125
                },
                {
                    "name": "D6",
                    "midi": 86,
                    "time": 160.9375,
                    "velocity": 0.6929133858267716,
                    "duration": 0.3125
                },
                {
                    "name": "A5",
                    "midi": 81,
                    "time": 161.25,
                    "velocity": 0.6929133858267716,
                    "duration": 0.3125
                },
                {
                    "name": "A6",
                    "midi": 93,
                    "time": 161.25,
                    "velocity": 0.6929133858267716,
                    "duration": 0.3125
                },
                {
                    "name": "C6",
                    "midi": 84,
                    "time": 161.5625,
                    "velocity": 0.6929133858267716,
                    "duration": 0.3125
                },
                {
                    "name": "C7",
                    "midi": 96,
                    "time": 161.5625,
                    "velocity": 0.6929133858267716,
                    "duration": 0.3125
                },
                {
                    "name": "A5",
                    "midi": 81,
                    "time": 161.875,
                    "velocity": 0.6929133858267716,
                    "duration": 0.3125
                },
                {
                    "name": "A6",
                    "midi": 93,
                    "time": 161.875,
                    "velocity": 0.6929133858267716,
                    "duration": 0.3125
                },
                {
                    "name": "A5",
                    "midi": 81,
                    "time": 162.1875,
                    "velocity": 0.6929133858267716,
                    "duration": 0.3125
                },
                {
                    "name": "A6",
                    "midi": 93,
                    "time": 162.1875,
                    "velocity": 0.6929133858267716,
                    "duration": 0.3125
                },
                {
                    "name": "A#4",
                    "midi": 70,
                    "time": 162.5,
                    "velocity": 0.5905511811023622,
                    "duration": 0.3125
                },
                {
                    "name": "D5",
                    "midi": 74,
                    "time": 162.5,
                    "velocity": 0.5905511811023622,
                    "duration": 0.3125
                },
                {
                    "name": "A#5",
                    "midi": 82,
                    "time": 162.5,
                    "velocity": 0.5905511811023622,
                    "duration": 0.3125
                },
                {
                    "name": "D6",
                    "midi": 86,
                    "time": 162.5,
                    "velocity": 0.5905511811023622,
                    "duration": 0.3125
                },
                {
                    "name": "C5",
                    "midi": 72,
                    "time": 162.8125,
                    "velocity": 0.5905511811023622,
                    "duration": 0.3125
                },
                {
                    "name": "E5",
                    "midi": 76,
                    "time": 162.8125,
                    "velocity": 0.5905511811023622,
                    "duration": 0.3125
                },
                {
                    "name": "C6",
                    "midi": 84,
                    "time": 162.8125,
                    "velocity": 0.5905511811023622,
                    "duration": 0.3125
                },
                {
                    "name": "E6",
                    "midi": 88,
                    "time": 162.8125,
                    "velocity": 0.5905511811023622,
                    "duration": 0.3125
                },
                {
                    "name": "A#4",
                    "midi": 70,
                    "time": 163.125,
                    "velocity": 0.5905511811023622,
                    "duration": 0.3125
                },
                {
                    "name": "D5",
                    "midi": 74,
                    "time": 163.125,
                    "velocity": 0.5905511811023622,
                    "duration": 0.3125
                },
                {
                    "name": "A#5",
                    "midi": 82,
                    "time": 163.125,
                    "velocity": 0.5905511811023622,
                    "duration": 0.3125
                },
                {
                    "name": "D6",
                    "midi": 86,
                    "time": 163.125,
                    "velocity": 0.5905511811023622,
                    "duration": 0.3125
                },
                {
                    "name": "C5",
                    "midi": 72,
                    "time": 163.4375,
                    "velocity": 0.5905511811023622,
                    "duration": 0.3125
                },
                {
                    "name": "E5",
                    "midi": 76,
                    "time": 163.4375,
                    "velocity": 0.5905511811023622,
                    "duration": 0.3125
                },
                {
                    "name": "C6",
                    "midi": 84,
                    "time": 163.4375,
                    "velocity": 0.5905511811023622,
                    "duration": 0.3125
                },
                {
                    "name": "E6",
                    "midi": 88,
                    "time": 163.4375,
                    "velocity": 0.5905511811023622,
                    "duration": 0.3125
                },
                {
                    "name": "A#4",
                    "midi": 70,
                    "time": 163.75,
                    "velocity": 0.5905511811023622,
                    "duration": 0.3125
                },
                {
                    "name": "D5",
                    "midi": 74,
                    "time": 163.75,
                    "velocity": 0.5905511811023622,
                    "duration": 0.3125
                },
                {
                    "name": "A#5",
                    "midi": 82,
                    "time": 163.75,
                    "velocity": 0.5905511811023622,
                    "duration": 0.3125
                },
                {
                    "name": "D6",
                    "midi": 86,
                    "time": 163.75,
                    "velocity": 0.5905511811023622,
                    "duration": 0.3125
                },
                {
                    "name": "C5",
                    "midi": 72,
                    "time": 164.0625,
                    "velocity": 0.5905511811023622,
                    "duration": 0.3125
                },
                {
                    "name": "E5",
                    "midi": 76,
                    "time": 164.0625,
                    "velocity": 0.5905511811023622,
                    "duration": 0.3125
                },
                {
                    "name": "C6",
                    "midi": 84,
                    "time": 164.0625,
                    "velocity": 0.5905511811023622,
                    "duration": 0.3125
                },
                {
                    "name": "E6",
                    "midi": 88,
                    "time": 164.0625,
                    "velocity": 0.5905511811023622,
                    "duration": 0.3125
                },
                {
                    "name": "A#4",
                    "midi": 70,
                    "time": 164.375,
                    "velocity": 0.5905511811023622,
                    "duration": 0.3125
                },
                {
                    "name": "D5",
                    "midi": 74,
                    "time": 164.375,
                    "velocity": 0.5905511811023622,
                    "duration": 0.3125
                },
                {
                    "name": "A#5",
                    "midi": 82,
                    "time": 164.375,
                    "velocity": 0.5905511811023622,
                    "duration": 0.3125
                },
                {
                    "name": "D6",
                    "midi": 86,
                    "time": 164.375,
                    "velocity": 0.5905511811023622,
                    "duration": 0.3125
                },
                {
                    "name": "C5",
                    "midi": 72,
                    "time": 164.6875,
                    "velocity": 0.5905511811023622,
                    "duration": 0.3125
                },
                {
                    "name": "E5",
                    "midi": 76,
                    "time": 164.6875,
                    "velocity": 0.5905511811023622,
                    "duration": 0.3125
                },
                {
                    "name": "C6",
                    "midi": 84,
                    "time": 164.6875,
                    "velocity": 0.5905511811023622,
                    "duration": 0.3125
                },
                {
                    "name": "E6",
                    "midi": 88,
                    "time": 164.6875,
                    "velocity": 0.5905511811023622,
                    "duration": 0.3125
                },
                {
                    "name": "C#5",
                    "midi": 73,
                    "time": 165,
                    "velocity": 0.5905511811023622,
                    "duration": 0.3125
                },
                {
                    "name": "F5",
                    "midi": 77,
                    "time": 165,
                    "velocity": 0.5905511811023622,
                    "duration": 0.3125
                },
                {
                    "name": "C#6",
                    "midi": 85,
                    "time": 165,
                    "velocity": 0.5905511811023622,
                    "duration": 0.3125
                },
                {
                    "name": "F6",
                    "midi": 89,
                    "time": 165,
                    "velocity": 0.5905511811023622,
                    "duration": 0.3125
                },
                {
                    "name": "D#5",
                    "midi": 75,
                    "time": 165.3125,
                    "velocity": 0.5905511811023622,
                    "duration": 0.3125
                },
                {
                    "name": "G5",
                    "midi": 79,
                    "time": 165.3125,
                    "velocity": 0.5905511811023622,
                    "duration": 0.3125
                },
                {
                    "name": "D#6",
                    "midi": 87,
                    "time": 165.3125,
                    "velocity": 0.5905511811023622,
                    "duration": 0.3125
                },
                {
                    "name": "G6",
                    "midi": 91,
                    "time": 165.3125,
                    "velocity": 0.5905511811023622,
                    "duration": 0.3125
                },
                {
                    "name": "C#5",
                    "midi": 73,
                    "time": 165.625,
                    "velocity": 0.5905511811023622,
                    "duration": 0.3125
                },
                {
                    "name": "F5",
                    "midi": 77,
                    "time": 165.625,
                    "velocity": 0.5905511811023622,
                    "duration": 0.3125
                },
                {
                    "name": "C#6",
                    "midi": 85,
                    "time": 165.625,
                    "velocity": 0.5905511811023622,
                    "duration": 0.3125
                },
                {
                    "name": "F6",
                    "midi": 89,
                    "time": 165.625,
                    "velocity": 0.5905511811023622,
                    "duration": 0.3125
                },
                {
                    "name": "D#5",
                    "midi": 75,
                    "time": 165.9375,
                    "velocity": 0.5905511811023622,
                    "duration": 0.3125
                },
                {
                    "name": "G5",
                    "midi": 79,
                    "time": 165.9375,
                    "velocity": 0.5905511811023622,
                    "duration": 0.3125
                },
                {
                    "name": "D#6",
                    "midi": 87,
                    "time": 165.9375,
                    "velocity": 0.5905511811023622,
                    "duration": 0.3125
                },
                {
                    "name": "G6",
                    "midi": 91,
                    "time": 165.9375,
                    "velocity": 0.5905511811023622,
                    "duration": 0.3125
                },
                {
                    "name": "C#5",
                    "midi": 73,
                    "time": 166.25,
                    "velocity": 0.5905511811023622,
                    "duration": 0.3125
                },
                {
                    "name": "F5",
                    "midi": 77,
                    "time": 166.25,
                    "velocity": 0.5905511811023622,
                    "duration": 0.3125
                },
                {
                    "name": "C#6",
                    "midi": 85,
                    "time": 166.25,
                    "velocity": 0.5905511811023622,
                    "duration": 0.3125
                },
                {
                    "name": "F6",
                    "midi": 89,
                    "time": 166.25,
                    "velocity": 0.5905511811023622,
                    "duration": 0.3125
                },
                {
                    "name": "D#5",
                    "midi": 75,
                    "time": 166.5625,
                    "velocity": 0.5905511811023622,
                    "duration": 0.3125
                },
                {
                    "name": "G5",
                    "midi": 79,
                    "time": 166.5625,
                    "velocity": 0.5905511811023622,
                    "duration": 0.3125
                },
                {
                    "name": "D#6",
                    "midi": 87,
                    "time": 166.5625,
                    "velocity": 0.5905511811023622,
                    "duration": 0.3125
                },
                {
                    "name": "G6",
                    "midi": 91,
                    "time": 166.5625,
                    "velocity": 0.5905511811023622,
                    "duration": 0.3125
                },
                {
                    "name": "C#5",
                    "midi": 73,
                    "time": 166.875,
                    "velocity": 0.5905511811023622,
                    "duration": 0.3125
                },
                {
                    "name": "F5",
                    "midi": 77,
                    "time": 166.875,
                    "velocity": 0.5905511811023622,
                    "duration": 0.3125
                },
                {
                    "name": "C#6",
                    "midi": 85,
                    "time": 166.875,
                    "velocity": 0.5905511811023622,
                    "duration": 0.3125
                },
                {
                    "name": "F6",
                    "midi": 89,
                    "time": 166.875,
                    "velocity": 0.5905511811023622,
                    "duration": 0.3125
                },
                {
                    "name": "D#5",
                    "midi": 75,
                    "time": 167.1875,
                    "velocity": 0.5905511811023622,
                    "duration": 0.3125
                },
                {
                    "name": "G5",
                    "midi": 79,
                    "time": 167.1875,
                    "velocity": 0.5905511811023622,
                    "duration": 0.3125
                },
                {
                    "name": "D#6",
                    "midi": 87,
                    "time": 167.1875,
                    "velocity": 0.5905511811023622,
                    "duration": 0.3125
                },
                {
                    "name": "G6",
                    "midi": 91,
                    "time": 167.1875,
                    "velocity": 0.5905511811023622,
                    "duration": 0.3125
                },
                {
                    "name": "A#4",
                    "midi": 70,
                    "time": 167.5,
                    "velocity": 0.5905511811023622,
                    "duration": 0.15625
                },
                {
                    "name": "D5",
                    "midi": 74,
                    "time": 167.5,
                    "velocity": 0.5905511811023622,
                    "duration": 0.15625
                },
                {
                    "name": "A#5",
                    "midi": 82,
                    "time": 167.5,
                    "velocity": 0.5905511811023622,
                    "duration": 0.15625
                },
                {
                    "name": "D6",
                    "midi": 86,
                    "time": 167.5,
                    "velocity": 0.5905511811023622,
                    "duration": 0.15625
                },
                {
                    "name": "A#4",
                    "midi": 70,
                    "time": 167.65625,
                    "velocity": 0.5905511811023622,
                    "duration": 0.15625
                },
                {
                    "name": "D5",
                    "midi": 74,
                    "time": 167.65625,
                    "velocity": 0.5905511811023622,
                    "duration": 0.15625
                },
                {
                    "name": "A#5",
                    "midi": 82,
                    "time": 167.65625,
                    "velocity": 0.5905511811023622,
                    "duration": 0.15625
                },
                {
                    "name": "D6",
                    "midi": 86,
                    "time": 167.65625,
                    "velocity": 0.5905511811023622,
                    "duration": 0.15625
                },
                {
                    "name": "C5",
                    "midi": 72,
                    "time": 167.8125,
                    "velocity": 0.5905511811023622,
                    "duration": 0.15625
                },
                {
                    "name": "E5",
                    "midi": 76,
                    "time": 167.8125,
                    "velocity": 0.5905511811023622,
                    "duration": 0.15625
                },
                {
                    "name": "C6",
                    "midi": 84,
                    "time": 167.8125,
                    "velocity": 0.5905511811023622,
                    "duration": 0.15625
                },
                {
                    "name": "E6",
                    "midi": 88,
                    "time": 167.8125,
                    "velocity": 0.5905511811023622,
                    "duration": 0.15625
                },
                {
                    "name": "C5",
                    "midi": 72,
                    "time": 167.96875,
                    "velocity": 0.5905511811023622,
                    "duration": 0.15625
                },
                {
                    "name": "E5",
                    "midi": 76,
                    "time": 167.96875,
                    "velocity": 0.5905511811023622,
                    "duration": 0.15625
                },
                {
                    "name": "C6",
                    "midi": 84,
                    "time": 167.96875,
                    "velocity": 0.5905511811023622,
                    "duration": 0.15625
                },
                {
                    "name": "E6",
                    "midi": 88,
                    "time": 167.96875,
                    "velocity": 0.5905511811023622,
                    "duration": 0.15625
                },
                {
                    "name": "A#4",
                    "midi": 70,
                    "time": 168.125,
                    "velocity": 0.5905511811023622,
                    "duration": 0.15625
                },
                {
                    "name": "D5",
                    "midi": 74,
                    "time": 168.125,
                    "velocity": 0.5905511811023622,
                    "duration": 0.15625
                },
                {
                    "name": "A#5",
                    "midi": 82,
                    "time": 168.125,
                    "velocity": 0.5905511811023622,
                    "duration": 0.15625
                },
                {
                    "name": "D6",
                    "midi": 86,
                    "time": 168.125,
                    "velocity": 0.5905511811023622,
                    "duration": 0.15625
                },
                {
                    "name": "A#4",
                    "midi": 70,
                    "time": 168.28125,
                    "velocity": 0.5905511811023622,
                    "duration": 0.15625
                },
                {
                    "name": "D5",
                    "midi": 74,
                    "time": 168.28125,
                    "velocity": 0.5905511811023622,
                    "duration": 0.15625
                },
                {
                    "name": "A#5",
                    "midi": 82,
                    "time": 168.28125,
                    "velocity": 0.5905511811023622,
                    "duration": 0.15625
                },
                {
                    "name": "D6",
                    "midi": 86,
                    "time": 168.28125,
                    "velocity": 0.5905511811023622,
                    "duration": 0.15625
                },
                {
                    "name": "C5",
                    "midi": 72,
                    "time": 168.4375,
                    "velocity": 0.5905511811023622,
                    "duration": 0.15625
                },
                {
                    "name": "E5",
                    "midi": 76,
                    "time": 168.4375,
                    "velocity": 0.5905511811023622,
                    "duration": 0.15625
                },
                {
                    "name": "C6",
                    "midi": 84,
                    "time": 168.4375,
                    "velocity": 0.5905511811023622,
                    "duration": 0.15625
                },
                {
                    "name": "E6",
                    "midi": 88,
                    "time": 168.4375,
                    "velocity": 0.5905511811023622,
                    "duration": 0.15625
                },
                {
                    "name": "C5",
                    "midi": 72,
                    "time": 168.59375,
                    "velocity": 0.5905511811023622,
                    "duration": 0.15625
                },
                {
                    "name": "E5",
                    "midi": 76,
                    "time": 168.59375,
                    "velocity": 0.5905511811023622,
                    "duration": 0.15625
                },
                {
                    "name": "C6",
                    "midi": 84,
                    "time": 168.59375,
                    "velocity": 0.5905511811023622,
                    "duration": 0.15625
                },
                {
                    "name": "E6",
                    "midi": 88,
                    "time": 168.59375,
                    "velocity": 0.5905511811023622,
                    "duration": 0.15625
                },
                {
                    "name": "A#4",
                    "midi": 70,
                    "time": 168.75,
                    "velocity": 0.5905511811023622,
                    "duration": 0.15625
                },
                {
                    "name": "D5",
                    "midi": 74,
                    "time": 168.75,
                    "velocity": 0.5905511811023622,
                    "duration": 0.15625
                },
                {
                    "name": "A#5",
                    "midi": 82,
                    "time": 168.75,
                    "velocity": 0.5905511811023622,
                    "duration": 0.15625
                },
                {
                    "name": "D6",
                    "midi": 86,
                    "time": 168.75,
                    "velocity": 0.5905511811023622,
                    "duration": 0.15625
                },
                {
                    "name": "A#4",
                    "midi": 70,
                    "time": 168.90625,
                    "velocity": 0.5905511811023622,
                    "duration": 0.15625
                },
                {
                    "name": "D5",
                    "midi": 74,
                    "time": 168.90625,
                    "velocity": 0.5905511811023622,
                    "duration": 0.15625
                },
                {
                    "name": "A#5",
                    "midi": 82,
                    "time": 168.90625,
                    "velocity": 0.5905511811023622,
                    "duration": 0.15625
                },
                {
                    "name": "D6",
                    "midi": 86,
                    "time": 168.90625,
                    "velocity": 0.5905511811023622,
                    "duration": 0.15625
                },
                {
                    "name": "C5",
                    "midi": 72,
                    "time": 169.0625,
                    "velocity": 0.5905511811023622,
                    "duration": 0.15625
                },
                {
                    "name": "E5",
                    "midi": 76,
                    "time": 169.0625,
                    "velocity": 0.5905511811023622,
                    "duration": 0.15625
                },
                {
                    "name": "C6",
                    "midi": 84,
                    "time": 169.0625,
                    "velocity": 0.5905511811023622,
                    "duration": 0.15625
                },
                {
                    "name": "E6",
                    "midi": 88,
                    "time": 169.0625,
                    "velocity": 0.5905511811023622,
                    "duration": 0.15625
                },
                {
                    "name": "C5",
                    "midi": 72,
                    "time": 169.21875,
                    "velocity": 0.5905511811023622,
                    "duration": 0.15625
                },
                {
                    "name": "E5",
                    "midi": 76,
                    "time": 169.21875,
                    "velocity": 0.5905511811023622,
                    "duration": 0.15625
                },
                {
                    "name": "C6",
                    "midi": 84,
                    "time": 169.21875,
                    "velocity": 0.5905511811023622,
                    "duration": 0.15625
                },
                {
                    "name": "E6",
                    "midi": 88,
                    "time": 169.21875,
                    "velocity": 0.5905511811023622,
                    "duration": 0.15625
                },
                {
                    "name": "A#4",
                    "midi": 70,
                    "time": 169.375,
                    "velocity": 0.5905511811023622,
                    "duration": 0.15625
                },
                {
                    "name": "D5",
                    "midi": 74,
                    "time": 169.375,
                    "velocity": 0.5905511811023622,
                    "duration": 0.15625
                },
                {
                    "name": "A#5",
                    "midi": 82,
                    "time": 169.375,
                    "velocity": 0.5905511811023622,
                    "duration": 0.15625
                },
                {
                    "name": "D6",
                    "midi": 86,
                    "time": 169.375,
                    "velocity": 0.5905511811023622,
                    "duration": 0.15625
                },
                {
                    "name": "A#4",
                    "midi": 70,
                    "time": 169.53125,
                    "velocity": 0.5905511811023622,
                    "duration": 0.15625
                },
                {
                    "name": "D5",
                    "midi": 74,
                    "time": 169.53125,
                    "velocity": 0.5905511811023622,
                    "duration": 0.15625
                },
                {
                    "name": "A#5",
                    "midi": 82,
                    "time": 169.53125,
                    "velocity": 0.5905511811023622,
                    "duration": 0.15625
                },
                {
                    "name": "D6",
                    "midi": 86,
                    "time": 169.53125,
                    "velocity": 0.5905511811023622,
                    "duration": 0.15625
                },
                {
                    "name": "C5",
                    "midi": 72,
                    "time": 169.6875,
                    "velocity": 0.5905511811023622,
                    "duration": 0.15625
                },
                {
                    "name": "E5",
                    "midi": 76,
                    "time": 169.6875,
                    "velocity": 0.5905511811023622,
                    "duration": 0.15625
                },
                {
                    "name": "C6",
                    "midi": 84,
                    "time": 169.6875,
                    "velocity": 0.5905511811023622,
                    "duration": 0.15625
                },
                {
                    "name": "E6",
                    "midi": 88,
                    "time": 169.6875,
                    "velocity": 0.5905511811023622,
                    "duration": 0.15625
                },
                {
                    "name": "C5",
                    "midi": 72,
                    "time": 169.84375,
                    "velocity": 0.5905511811023622,
                    "duration": 0.15625
                },
                {
                    "name": "E5",
                    "midi": 76,
                    "time": 169.84375,
                    "velocity": 0.5905511811023622,
                    "duration": 0.15625
                },
                {
                    "name": "C6",
                    "midi": 84,
                    "time": 169.84375,
                    "velocity": 0.5905511811023622,
                    "duration": 0.15625
                },
                {
                    "name": "E6",
                    "midi": 88,
                    "time": 169.84375,
                    "velocity": 0.5905511811023622,
                    "duration": 0.15625
                },
                {
                    "name": "C#5",
                    "midi": 73,
                    "time": 170,
                    "velocity": 0.5905511811023622,
                    "duration": 0.15625
                },
                {
                    "name": "F5",
                    "midi": 77,
                    "time": 170,
                    "velocity": 0.5905511811023622,
                    "duration": 0.15625
                },
                {
                    "name": "C#6",
                    "midi": 85,
                    "time": 170,
                    "velocity": 0.5905511811023622,
                    "duration": 0.15625
                },
                {
                    "name": "F6",
                    "midi": 89,
                    "time": 170,
                    "velocity": 0.5905511811023622,
                    "duration": 0.15625
                },
                {
                    "name": "C#5",
                    "midi": 73,
                    "time": 170.15625,
                    "velocity": 0.5905511811023622,
                    "duration": 0.15625
                },
                {
                    "name": "F5",
                    "midi": 77,
                    "time": 170.15625,
                    "velocity": 0.5905511811023622,
                    "duration": 0.15625
                },
                {
                    "name": "C#6",
                    "midi": 85,
                    "time": 170.15625,
                    "velocity": 0.5905511811023622,
                    "duration": 0.15625
                },
                {
                    "name": "F6",
                    "midi": 89,
                    "time": 170.15625,
                    "velocity": 0.5905511811023622,
                    "duration": 0.15625
                },
                {
                    "name": "D#5",
                    "midi": 75,
                    "time": 170.3125,
                    "velocity": 0.5905511811023622,
                    "duration": 0.15625
                },
                {
                    "name": "G5",
                    "midi": 79,
                    "time": 170.3125,
                    "velocity": 0.5905511811023622,
                    "duration": 0.15625
                },
                {
                    "name": "D#6",
                    "midi": 87,
                    "time": 170.3125,
                    "velocity": 0.5905511811023622,
                    "duration": 0.15625
                },
                {
                    "name": "G6",
                    "midi": 91,
                    "time": 170.3125,
                    "velocity": 0.5905511811023622,
                    "duration": 0.15625
                },
                {
                    "name": "D#5",
                    "midi": 75,
                    "time": 170.46875,
                    "velocity": 0.5905511811023622,
                    "duration": 0.15625
                },
                {
                    "name": "G5",
                    "midi": 79,
                    "time": 170.46875,
                    "velocity": 0.5905511811023622,
                    "duration": 0.15625
                },
                {
                    "name": "D#6",
                    "midi": 87,
                    "time": 170.46875,
                    "velocity": 0.5905511811023622,
                    "duration": 0.15625
                },
                {
                    "name": "G6",
                    "midi": 91,
                    "time": 170.46875,
                    "velocity": 0.5905511811023622,
                    "duration": 0.15625
                },
                {
                    "name": "C#5",
                    "midi": 73,
                    "time": 170.625,
                    "velocity": 0.5905511811023622,
                    "duration": 0.15625
                },
                {
                    "name": "F5",
                    "midi": 77,
                    "time": 170.625,
                    "velocity": 0.5905511811023622,
                    "duration": 0.15625
                },
                {
                    "name": "C#6",
                    "midi": 85,
                    "time": 170.625,
                    "velocity": 0.5905511811023622,
                    "duration": 0.15625
                },
                {
                    "name": "F6",
                    "midi": 89,
                    "time": 170.625,
                    "velocity": 0.5905511811023622,
                    "duration": 0.15625
                },
                {
                    "name": "C#5",
                    "midi": 73,
                    "time": 170.78125,
                    "velocity": 0.5905511811023622,
                    "duration": 0.15625
                },
                {
                    "name": "F5",
                    "midi": 77,
                    "time": 170.78125,
                    "velocity": 0.5905511811023622,
                    "duration": 0.15625
                },
                {
                    "name": "C#6",
                    "midi": 85,
                    "time": 170.78125,
                    "velocity": 0.5905511811023622,
                    "duration": 0.15625
                },
                {
                    "name": "F6",
                    "midi": 89,
                    "time": 170.78125,
                    "velocity": 0.5905511811023622,
                    "duration": 0.15625
                },
                {
                    "name": "D#5",
                    "midi": 75,
                    "time": 170.9375,
                    "velocity": 0.5905511811023622,
                    "duration": 0.15625
                },
                {
                    "name": "G5",
                    "midi": 79,
                    "time": 170.9375,
                    "velocity": 0.5905511811023622,
                    "duration": 0.15625
                },
                {
                    "name": "D#6",
                    "midi": 87,
                    "time": 170.9375,
                    "velocity": 0.5905511811023622,
                    "duration": 0.15625
                },
                {
                    "name": "G6",
                    "midi": 91,
                    "time": 170.9375,
                    "velocity": 0.5905511811023622,
                    "duration": 0.15625
                },
                {
                    "name": "D#5",
                    "midi": 75,
                    "time": 171.09375,
                    "velocity": 0.5905511811023622,
                    "duration": 0.15625
                },
                {
                    "name": "G5",
                    "midi": 79,
                    "time": 171.09375,
                    "velocity": 0.5905511811023622,
                    "duration": 0.15625
                },
                {
                    "name": "D#6",
                    "midi": 87,
                    "time": 171.09375,
                    "velocity": 0.5905511811023622,
                    "duration": 0.15625
                },
                {
                    "name": "G6",
                    "midi": 91,
                    "time": 171.09375,
                    "velocity": 0.5905511811023622,
                    "duration": 0.15625
                },
                {
                    "name": "C#5",
                    "midi": 73,
                    "time": 171.25,
                    "velocity": 0.5905511811023622,
                    "duration": 0.15625
                },
                {
                    "name": "F5",
                    "midi": 77,
                    "time": 171.25,
                    "velocity": 0.5905511811023622,
                    "duration": 0.15625
                },
                {
                    "name": "C#6",
                    "midi": 85,
                    "time": 171.25,
                    "velocity": 0.5905511811023622,
                    "duration": 0.15625
                },
                {
                    "name": "F6",
                    "midi": 89,
                    "time": 171.25,
                    "velocity": 0.5905511811023622,
                    "duration": 0.15625
                },
                {
                    "name": "C#5",
                    "midi": 73,
                    "time": 171.40625,
                    "velocity": 0.5905511811023622,
                    "duration": 0.15625
                },
                {
                    "name": "F5",
                    "midi": 77,
                    "time": 171.40625,
                    "velocity": 0.5905511811023622,
                    "duration": 0.15625
                },
                {
                    "name": "C#6",
                    "midi": 85,
                    "time": 171.40625,
                    "velocity": 0.5905511811023622,
                    "duration": 0.15625
                },
                {
                    "name": "F6",
                    "midi": 89,
                    "time": 171.40625,
                    "velocity": 0.5905511811023622,
                    "duration": 0.15625
                },
                {
                    "name": "D#5",
                    "midi": 75,
                    "time": 171.5625,
                    "velocity": 0.5905511811023622,
                    "duration": 0.15625
                },
                {
                    "name": "G5",
                    "midi": 79,
                    "time": 171.5625,
                    "velocity": 0.5905511811023622,
                    "duration": 0.15625
                },
                {
                    "name": "D#6",
                    "midi": 87,
                    "time": 171.5625,
                    "velocity": 0.5905511811023622,
                    "duration": 0.15625
                },
                {
                    "name": "G6",
                    "midi": 91,
                    "time": 171.5625,
                    "velocity": 0.5905511811023622,
                    "duration": 0.15625
                },
                {
                    "name": "D#5",
                    "midi": 75,
                    "time": 171.71875,
                    "velocity": 0.5905511811023622,
                    "duration": 0.15625
                },
                {
                    "name": "G5",
                    "midi": 79,
                    "time": 171.71875,
                    "velocity": 0.5905511811023622,
                    "duration": 0.15625
                },
                {
                    "name": "D#6",
                    "midi": 87,
                    "time": 171.71875,
                    "velocity": 0.5905511811023622,
                    "duration": 0.15625
                },
                {
                    "name": "G6",
                    "midi": 91,
                    "time": 171.71875,
                    "velocity": 0.5905511811023622,
                    "duration": 0.15625
                },
                {
                    "name": "C#5",
                    "midi": 73,
                    "time": 171.875,
                    "velocity": 0.5905511811023622,
                    "duration": 0.15625
                },
                {
                    "name": "F5",
                    "midi": 77,
                    "time": 171.875,
                    "velocity": 0.5905511811023622,
                    "duration": 0.15625
                },
                {
                    "name": "C#6",
                    "midi": 85,
                    "time": 171.875,
                    "velocity": 0.5905511811023622,
                    "duration": 0.15625
                },
                {
                    "name": "F6",
                    "midi": 89,
                    "time": 171.875,
                    "velocity": 0.5905511811023622,
                    "duration": 0.15625
                },
                {
                    "name": "C#5",
                    "midi": 73,
                    "time": 172.03125,
                    "velocity": 0.5905511811023622,
                    "duration": 0.15625
                },
                {
                    "name": "F5",
                    "midi": 77,
                    "time": 172.03125,
                    "velocity": 0.5905511811023622,
                    "duration": 0.15625
                },
                {
                    "name": "C#6",
                    "midi": 85,
                    "time": 172.03125,
                    "velocity": 0.5905511811023622,
                    "duration": 0.15625
                },
                {
                    "name": "F6",
                    "midi": 89,
                    "time": 172.03125,
                    "velocity": 0.5905511811023622,
                    "duration": 0.15625
                },
                {
                    "name": "D#5",
                    "midi": 75,
                    "time": 172.1875,
                    "velocity": 0.5905511811023622,
                    "duration": 0.15625
                },
                {
                    "name": "G5",
                    "midi": 79,
                    "time": 172.1875,
                    "velocity": 0.5905511811023622,
                    "duration": 0.15625
                },
                {
                    "name": "D#6",
                    "midi": 87,
                    "time": 172.1875,
                    "velocity": 0.5905511811023622,
                    "duration": 0.15625
                },
                {
                    "name": "G6",
                    "midi": 91,
                    "time": 172.1875,
                    "velocity": 0.5905511811023622,
                    "duration": 0.15625
                },
                {
                    "name": "D#5",
                    "midi": 75,
                    "time": 172.34375,
                    "velocity": 0.5905511811023622,
                    "duration": 0.15625
                },
                {
                    "name": "G5",
                    "midi": 79,
                    "time": 172.34375,
                    "velocity": 0.5905511811023622,
                    "duration": 0.15625
                },
                {
                    "name": "D#6",
                    "midi": 87,
                    "time": 172.34375,
                    "velocity": 0.5905511811023622,
                    "duration": 0.15625
                },
                {
                    "name": "G6",
                    "midi": 91,
                    "time": 172.34375,
                    "velocity": 0.5905511811023622,
                    "duration": 0.15625
                },
                {
                    "name": "C6",
                    "midi": 84,
                    "time": 172.5,
                    "velocity": 0.7952755905511811,
                    "duration": 0.3125
                },
                {
                    "name": "C7",
                    "midi": 96,
                    "time": 172.5,
                    "velocity": 0.7952755905511811,
                    "duration": 0.3125
                },
                {
                    "name": "D6",
                    "midi": 86,
                    "time": 172.8125,
                    "velocity": 0.7952755905511811,
                    "duration": 0.3125
                },
                {
                    "name": "D7",
                    "midi": 98,
                    "time": 172.8125,
                    "velocity": 0.7952755905511811,
                    "duration": 0.3125
                },
                {
                    "name": "C6",
                    "midi": 84,
                    "time": 173.125,
                    "velocity": 0.7952755905511811,
                    "duration": 0.3125
                },
                {
                    "name": "C7",
                    "midi": 96,
                    "time": 173.125,
                    "velocity": 0.7952755905511811,
                    "duration": 0.3125
                },
                {
                    "name": "F5",
                    "midi": 77,
                    "time": 173.4375,
                    "velocity": 0.7952755905511811,
                    "duration": 0.3125
                },
                {
                    "name": "F6",
                    "midi": 89,
                    "time": 173.4375,
                    "velocity": 0.7952755905511811,
                    "duration": 0.3125
                },
                {
                    "name": "G#5",
                    "midi": 80,
                    "time": 173.75,
                    "velocity": 0.7952755905511811,
                    "duration": 0.3125
                },
                {
                    "name": "G#6",
                    "midi": 92,
                    "time": 173.75,
                    "velocity": 0.7952755905511811,
                    "duration": 0.3125
                },
                {
                    "name": "G5",
                    "midi": 79,
                    "time": 174.0625,
                    "velocity": 0.7952755905511811,
                    "duration": 0.3125
                },
                {
                    "name": "G6",
                    "midi": 91,
                    "time": 174.0625,
                    "velocity": 0.7952755905511811,
                    "duration": 0.3125
                },
                {
                    "name": "F5",
                    "midi": 77,
                    "time": 174.375,
                    "velocity": 0.7952755905511811,
                    "duration": 0.3125
                },
                {
                    "name": "F6",
                    "midi": 89,
                    "time": 174.375,
                    "velocity": 0.7952755905511811,
                    "duration": 0.3125
                },
                {
                    "name": "D5",
                    "midi": 74,
                    "time": 174.6875,
                    "velocity": 0.7952755905511811,
                    "duration": 0.3125
                },
                {
                    "name": "D6",
                    "midi": 86,
                    "time": 174.6875,
                    "velocity": 0.7952755905511811,
                    "duration": 0.3125
                },
                {
                    "name": "A#5",
                    "midi": 82,
                    "time": 175,
                    "velocity": 0.7952755905511811,
                    "duration": 0.3125
                },
                {
                    "name": "A#6",
                    "midi": 94,
                    "time": 175,
                    "velocity": 0.7952755905511811,
                    "duration": 0.3125
                },
                {
                    "name": "C6",
                    "midi": 84,
                    "time": 175.3125,
                    "velocity": 0.7952755905511811,
                    "duration": 0.3125
                },
                {
                    "name": "C7",
                    "midi": 96,
                    "time": 175.3125,
                    "velocity": 0.7952755905511811,
                    "duration": 0.3125
                },
                {
                    "name": "A#5",
                    "midi": 82,
                    "time": 175.625,
                    "velocity": 0.7952755905511811,
                    "duration": 0.3125
                },
                {
                    "name": "A#6",
                    "midi": 94,
                    "time": 175.625,
                    "velocity": 0.7952755905511811,
                    "duration": 0.3125
                },
                {
                    "name": "D#5",
                    "midi": 75,
                    "time": 175.9375,
                    "velocity": 0.7952755905511811,
                    "duration": 0.3125
                },
                {
                    "name": "D#6",
                    "midi": 87,
                    "time": 175.9375,
                    "velocity": 0.7952755905511811,
                    "duration": 0.3125
                },
                {
                    "name": "F#5",
                    "midi": 78,
                    "time": 176.25,
                    "velocity": 0.7952755905511811,
                    "duration": 0.3125
                },
                {
                    "name": "F#6",
                    "midi": 90,
                    "time": 176.25,
                    "velocity": 0.7952755905511811,
                    "duration": 0.3125
                },
                {
                    "name": "F5",
                    "midi": 77,
                    "time": 176.5625,
                    "velocity": 0.7952755905511811,
                    "duration": 0.3125
                },
                {
                    "name": "F6",
                    "midi": 89,
                    "time": 176.5625,
                    "velocity": 0.7952755905511811,
                    "duration": 0.3125
                },
                {
                    "name": "D#5",
                    "midi": 75,
                    "time": 176.875,
                    "velocity": 0.7952755905511811,
                    "duration": 0.3125
                },
                {
                    "name": "D#6",
                    "midi": 87,
                    "time": 176.875,
                    "velocity": 0.7952755905511811,
                    "duration": 0.3125
                },
                {
                    "name": "C5",
                    "midi": 72,
                    "time": 177.1875,
                    "velocity": 0.7952755905511811,
                    "duration": 0.3125
                },
                {
                    "name": "C6",
                    "midi": 84,
                    "time": 177.1875,
                    "velocity": 0.7952755905511811,
                    "duration": 0.3125
                },
                {
                    "name": "A5",
                    "midi": 81,
                    "time": 177.5,
                    "velocity": 0.5905511811023622,
                    "duration": 0.15625
                },
                {
                    "name": "A6",
                    "midi": 93,
                    "time": 177.5,
                    "velocity": 0.5905511811023622,
                    "duration": 0.15625
                },
                {
                    "name": "A#5",
                    "midi": 82,
                    "time": 177.65625,
                    "velocity": 0.5905511811023622,
                    "duration": 0.15625
                },
                {
                    "name": "A#6",
                    "midi": 94,
                    "time": 177.65625,
                    "velocity": 0.5905511811023622,
                    "duration": 0.15625
                },
                {
                    "name": "A5",
                    "midi": 81,
                    "time": 177.8125,
                    "velocity": 0.5905511811023622,
                    "duration": 0.029947916666657193
                },
                {
                    "name": "A6",
                    "midi": 93,
                    "time": 177.8125,
                    "velocity": 0.5905511811023622,
                    "duration": 0.029947916666657193
                },
                {
                    "name": "C#5",
                    "midi": 73,
                    "time": 177.96875,
                    "velocity": 0.5905511811023622,
                    "duration": 0.029947916666657193
                },
                {
                    "name": "C#6",
                    "midi": 85,
                    "time": 177.96875,
                    "velocity": 0.5905511811023622,
                    "duration": 0.029947916666657193
                },
                {
                    "name": "E5",
                    "midi": 76,
                    "time": 178.125,
                    "velocity": 0.5905511811023622,
                    "duration": 0.15625
                },
                {
                    "name": "E6",
                    "midi": 88,
                    "time": 178.125,
                    "velocity": 0.5905511811023622,
                    "duration": 0.15625
                },
                {
                    "name": "D#5",
                    "midi": 75,
                    "time": 178.28125,
                    "velocity": 0.5905511811023622,
                    "duration": 0.15625
                },
                {
                    "name": "D#6",
                    "midi": 87,
                    "time": 178.28125,
                    "velocity": 0.5905511811023622,
                    "duration": 0.15625
                },
                {
                    "name": "C#5",
                    "midi": 73,
                    "time": 178.4375,
                    "velocity": 0.5905511811023622,
                    "duration": 0.029947916666657193
                },
                {
                    "name": "C#6",
                    "midi": 85,
                    "time": 178.4375,
                    "velocity": 0.5905511811023622,
                    "duration": 0.029947916666657193
                },
                {
                    "name": "A#4",
                    "midi": 70,
                    "time": 178.59375,
                    "velocity": 0.5905511811023622,
                    "duration": 0.029947916666657193
                },
                {
                    "name": "A#5",
                    "midi": 82,
                    "time": 178.59375,
                    "velocity": 0.5905511811023622,
                    "duration": 0.029947916666657193
                },
                {
                    "name": "F#5",
                    "midi": 78,
                    "time": 178.75,
                    "velocity": 0.5905511811023622,
                    "duration": 0.15625
                },
                {
                    "name": "F#6",
                    "midi": 90,
                    "time": 178.75,
                    "velocity": 0.5905511811023622,
                    "duration": 0.15625
                },
                {
                    "name": "A5",
                    "midi": 81,
                    "time": 178.90625,
                    "velocity": 0.5905511811023622,
                    "duration": 0.15625
                },
                {
                    "name": "A6",
                    "midi": 93,
                    "time": 178.90625,
                    "velocity": 0.5905511811023622,
                    "duration": 0.15625
                },
                {
                    "name": "F#5",
                    "midi": 78,
                    "time": 179.0625,
                    "velocity": 0.5905511811023622,
                    "duration": 0.029947916666657193
                },
                {
                    "name": "F#6",
                    "midi": 90,
                    "time": 179.0625,
                    "velocity": 0.5905511811023622,
                    "duration": 0.029947916666657193
                },
                {
                    "name": "B4",
                    "midi": 71,
                    "time": 179.21875,
                    "velocity": 0.5905511811023622,
                    "duration": 0.029947916666657193
                },
                {
                    "name": "B5",
                    "midi": 83,
                    "time": 179.21875,
                    "velocity": 0.5905511811023622,
                    "duration": 0.029947916666657193
                },
                {
                    "name": "D5",
                    "midi": 74,
                    "time": 179.375,
                    "velocity": 0.5905511811023622,
                    "duration": 0.15625
                },
                {
                    "name": "D6",
                    "midi": 86,
                    "time": 179.375,
                    "velocity": 0.5905511811023622,
                    "duration": 0.15625
                },
                {
                    "name": "C#5",
                    "midi": 73,
                    "time": 179.53125,
                    "velocity": 0.5905511811023622,
                    "duration": 0.15625
                },
                {
                    "name": "C#6",
                    "midi": 85,
                    "time": 179.53125,
                    "velocity": 0.5905511811023622,
                    "duration": 0.15625
                },
                {
                    "name": "B4",
                    "midi": 71,
                    "time": 179.6875,
                    "velocity": 0.5905511811023622,
                    "duration": 0.029947916666657193
                },
                {
                    "name": "B5",
                    "midi": 83,
                    "time": 179.6875,
                    "velocity": 0.5905511811023622,
                    "duration": 0.029947916666657193
                },
                {
                    "name": "G#4",
                    "midi": 68,
                    "time": 179.84375,
                    "velocity": 0.5905511811023622,
                    "duration": 0.029947916666657193
                },
                {
                    "name": "G#5",
                    "midi": 80,
                    "time": 179.84375,
                    "velocity": 0.5905511811023622,
                    "duration": 0.029947916666657193
                },
                {
                    "name": "E5",
                    "midi": 76,
                    "time": 180,
                    "velocity": 0.5905511811023622,
                    "duration": 0.15625
                },
                {
                    "name": "E6",
                    "midi": 88,
                    "time": 180,
                    "velocity": 0.5905511811023622,
                    "duration": 0.15625
                },
                {
                    "name": "F#5",
                    "midi": 78,
                    "time": 180.15625,
                    "velocity": 0.5905511811023622,
                    "duration": 0.15625
                },
                {
                    "name": "F#6",
                    "midi": 90,
                    "time": 180.15625,
                    "velocity": 0.5905511811023622,
                    "duration": 0.15625
                },
                {
                    "name": "E5",
                    "midi": 76,
                    "time": 180.3125,
                    "velocity": 0.5905511811023622,
                    "duration": 0.15625
                },
                {
                    "name": "E6",
                    "midi": 88,
                    "time": 180.3125,
                    "velocity": 0.5905511811023622,
                    "duration": 0.15625
                },
                {
                    "name": "A4",
                    "midi": 69,
                    "time": 180.46875,
                    "velocity": 0.5905511811023622,
                    "duration": 0.15625
                },
                {
                    "name": "A5",
                    "midi": 81,
                    "time": 180.46875,
                    "velocity": 0.5905511811023622,
                    "duration": 0.15625
                },
                {
                    "name": "C5",
                    "midi": 72,
                    "time": 180.625,
                    "velocity": 0.5905511811023622,
                    "duration": 0.15625
                },
                {
                    "name": "C6",
                    "midi": 84,
                    "time": 180.625,
                    "velocity": 0.5905511811023622,
                    "duration": 0.15625
                },
                {
                    "name": "D5",
                    "midi": 74,
                    "time": 180.78125,
                    "velocity": 0.5905511811023622,
                    "duration": 0.15625
                },
                {
                    "name": "D6",
                    "midi": 86,
                    "time": 180.78125,
                    "velocity": 0.5905511811023622,
                    "duration": 0.15625
                },
                {
                    "name": "C5",
                    "midi": 72,
                    "time": 180.9375,
                    "velocity": 0.5905511811023622,
                    "duration": 0.15625
                },
                {
                    "name": "C6",
                    "midi": 84,
                    "time": 180.9375,
                    "velocity": 0.5905511811023622,
                    "duration": 0.15625
                },
                {
                    "name": "F4",
                    "midi": 65,
                    "time": 181.09375,
                    "velocity": 0.5905511811023622,
                    "duration": 0.15625
                },
                {
                    "name": "F5",
                    "midi": 77,
                    "time": 181.09375,
                    "velocity": 0.5905511811023622,
                    "duration": 0.15625
                },
                {
                    "name": "A4",
                    "midi": 69,
                    "time": 181.25,
                    "velocity": 0.5905511811023622,
                    "duration": 0.15625
                },
                {
                    "name": "A5",
                    "midi": 81,
                    "time": 181.25,
                    "velocity": 0.5905511811023622,
                    "duration": 0.15625
                },
                {
                    "name": "B4",
                    "midi": 71,
                    "time": 181.40625,
                    "velocity": 0.5905511811023622,
                    "duration": 0.15625
                },
                {
                    "name": "B5",
                    "midi": 83,
                    "time": 181.40625,
                    "velocity": 0.5905511811023622,
                    "duration": 0.15625
                },
                {
                    "name": "A4",
                    "midi": 69,
                    "time": 181.5625,
                    "velocity": 0.5905511811023622,
                    "duration": 0.15625
                },
                {
                    "name": "A5",
                    "midi": 81,
                    "time": 181.5625,
                    "velocity": 0.5905511811023622,
                    "duration": 0.15625
                },
                {
                    "name": "D4",
                    "midi": 62,
                    "time": 181.71875,
                    "velocity": 0.5905511811023622,
                    "duration": 0.15625
                },
                {
                    "name": "D5",
                    "midi": 74,
                    "time": 181.71875,
                    "velocity": 0.5905511811023622,
                    "duration": 0.15625
                },
                {
                    "name": "F4",
                    "midi": 65,
                    "time": 181.875,
                    "velocity": 0.5905511811023622,
                    "duration": 0.15625
                },
                {
                    "name": "F5",
                    "midi": 77,
                    "time": 181.875,
                    "velocity": 0.5905511811023622,
                    "duration": 0.15625
                },
                {
                    "name": "G4",
                    "midi": 67,
                    "time": 182.03125,
                    "velocity": 0.5905511811023622,
                    "duration": 0.15625
                },
                {
                    "name": "G5",
                    "midi": 79,
                    "time": 182.03125,
                    "velocity": 0.5905511811023622,
                    "duration": 0.15625
                },
                {
                    "name": "F4",
                    "midi": 65,
                    "time": 182.1875,
                    "velocity": 0.5905511811023622,
                    "duration": 0.15625
                },
                {
                    "name": "F5",
                    "midi": 77,
                    "time": 182.1875,
                    "velocity": 0.5905511811023622,
                    "duration": 0.15625
                },
                {
                    "name": "B3",
                    "midi": 59,
                    "time": 182.34375,
                    "velocity": 0.5905511811023622,
                    "duration": 0.15625
                },
                {
                    "name": "B4",
                    "midi": 71,
                    "time": 182.34375,
                    "velocity": 0.5905511811023622,
                    "duration": 0.15625
                },
                {
                    "name": "B3",
                    "midi": 59,
                    "time": 182.5,
                    "velocity": 0.7952755905511811,
                    "duration": 0.10416666666665719
                },
                {
                    "name": "C#4",
                    "midi": 61,
                    "time": 182.60416666666666,
                    "velocity": 0.5905511811023622,
                    "duration": 0.10286458333334281
                },
                {
                    "name": "B3",
                    "midi": 59,
                    "time": 182.70703125,
                    "velocity": 0.5905511811023622,
                    "duration": 0.10546875
                },
                {
                    "name": "G3",
                    "midi": 55,
                    "time": 182.8125,
                    "velocity": 0.5905511811023622,
                    "duration": 0.10416666666665719
                },
                {
                    "name": "A3",
                    "midi": 57,
                    "time": 182.91666666666666,
                    "velocity": 0.5905511811023622,
                    "duration": 0.10286458333334281
                },
                {
                    "name": "B3",
                    "midi": 59,
                    "time": 183.01953125,
                    "velocity": 0.5905511811023622,
                    "duration": 0.10546875
                },
                {
                    "name": "C#4",
                    "midi": 61,
                    "time": 183.125,
                    "velocity": 0.7952755905511811,
                    "duration": 0.10416666666665719
                },
                {
                    "name": "D4",
                    "midi": 62,
                    "time": 183.22916666666666,
                    "velocity": 0.5905511811023622,
                    "duration": 0.10286458333334281
                },
                {
                    "name": "E4",
                    "midi": 64,
                    "time": 183.33203125,
                    "velocity": 0.5905511811023622,
                    "duration": 0.10546875
                },
                {
                    "name": "F4",
                    "midi": 65,
                    "time": 183.4375,
                    "velocity": 0.5905511811023622,
                    "duration": 0.10416666666665719
                },
                {
                    "name": "G4",
                    "midi": 67,
                    "time": 183.54166666666666,
                    "velocity": 0.5905511811023622,
                    "duration": 0.10286458333334281
                },
                {
                    "name": "A4",
                    "midi": 69,
                    "time": 183.64453125,
                    "velocity": 0.5905511811023622,
                    "duration": 0.10546875
                },
                {
                    "name": "B4",
                    "midi": 71,
                    "time": 183.75,
                    "velocity": 0.7952755905511811,
                    "duration": 0.10416666666665719
                },
                {
                    "name": "C#5",
                    "midi": 73,
                    "time": 183.85416666666666,
                    "velocity": 0.5905511811023622,
                    "duration": 0.10286458333334281
                },
                {
                    "name": "B4",
                    "midi": 71,
                    "time": 183.95703125,
                    "velocity": 0.5905511811023622,
                    "duration": 0.10546875
                },
                {
                    "name": "G4",
                    "midi": 67,
                    "time": 184.0625,
                    "velocity": 0.5905511811023622,
                    "duration": 0.10416666666665719
                },
                {
                    "name": "A4",
                    "midi": 69,
                    "time": 184.16666666666666,
                    "velocity": 0.5905511811023622,
                    "duration": 0.10286458333334281
                },
                {
                    "name": "B4",
                    "midi": 71,
                    "time": 184.26953125,
                    "velocity": 0.5905511811023622,
                    "duration": 0.10546875
                },
                {
                    "name": "C#5",
                    "midi": 73,
                    "time": 184.375,
                    "velocity": 0.7952755905511811,
                    "duration": 0.10416666666665719
                },
                {
                    "name": "D5",
                    "midi": 74,
                    "time": 184.47916666666666,
                    "velocity": 0.5905511811023622,
                    "duration": 0.10286458333334281
                },
                {
                    "name": "E5",
                    "midi": 76,
                    "time": 184.58203125,
                    "velocity": 0.5905511811023622,
                    "duration": 0.10546875
                },
                {
                    "name": "F5",
                    "midi": 77,
                    "time": 184.6875,
                    "velocity": 0.5905511811023622,
                    "duration": 0.10416666666665719
                },
                {
                    "name": "G5",
                    "midi": 79,
                    "time": 184.79166666666666,
                    "velocity": 0.5905511811023622,
                    "duration": 0.10286458333334281
                },
                {
                    "name": "A5",
                    "midi": 81,
                    "time": 184.89453125,
                    "velocity": 0.5905511811023622,
                    "duration": 0.10546875
                },
                {
                    "name": "B5",
                    "midi": 83,
                    "time": 185,
                    "velocity": 0.5905511811023622,
                    "duration": 0.10416666666665719
                },
                {
                    "name": "C#6",
                    "midi": 85,
                    "time": 185.10416666666666,
                    "velocity": 0.5905511811023622,
                    "duration": 0.10286458333334281
                },
                {
                    "name": "B5",
                    "midi": 83,
                    "time": 185.20703125,
                    "velocity": 0.5905511811023622,
                    "duration": 0.10546875
                },
                {
                    "name": "F5",
                    "midi": 77,
                    "time": 185.3125,
                    "velocity": 0.5905511811023622,
                    "duration": 0.10416666666665719
                },
                {
                    "name": "G5",
                    "midi": 79,
                    "time": 185.41666666666666,
                    "velocity": 0.5905511811023622,
                    "duration": 0.10286458333334281
                },
                {
                    "name": "A5",
                    "midi": 81,
                    "time": 185.51953125,
                    "velocity": 0.5905511811023622,
                    "duration": 0.10546875
                },
                {
                    "name": "B5",
                    "midi": 83,
                    "time": 185.625,
                    "velocity": 0.5905511811023622,
                    "duration": 0.10416666666665719
                },
                {
                    "name": "C#6",
                    "midi": 85,
                    "time": 185.72916666666666,
                    "velocity": 0.5905511811023622,
                    "duration": 0.10286458333334281
                },
                {
                    "name": "B5",
                    "midi": 83,
                    "time": 185.83203125,
                    "velocity": 0.5905511811023622,
                    "duration": 0.10546875
                },
                {
                    "name": "F5",
                    "midi": 77,
                    "time": 185.9375,
                    "velocity": 0.5905511811023622,
                    "duration": 0.078125
                },
                {
                    "name": "G5",
                    "midi": 79,
                    "time": 186.015625,
                    "velocity": 0.5905511811023622,
                    "duration": 0.078125
                },
                {
                    "name": "A5",
                    "midi": 81,
                    "time": 186.09375,
                    "velocity": 0.5905511811023622,
                    "duration": 0.078125
                },
                {
                    "name": "B5",
                    "midi": 83,
                    "time": 186.171875,
                    "velocity": 0.5905511811023622,
                    "duration": 0.078125
                },
                {
                    "name": "C#6",
                    "midi": 85,
                    "time": 186.25,
                    "velocity": 0.5905511811023622,
                    "duration": 0.10416666666665719
                },
                {
                    "name": "D6",
                    "midi": 86,
                    "time": 186.35416666666666,
                    "velocity": 0.5905511811023622,
                    "duration": 0.10286458333334281
                },
                {
                    "name": "C#6",
                    "midi": 85,
                    "time": 186.45703125,
                    "velocity": 0.5905511811023622,
                    "duration": 0.10546875
                },
                {
                    "name": "G5",
                    "midi": 79,
                    "time": 186.5625,
                    "velocity": 0.5905511811023622,
                    "duration": 0.10416666666665719
                },
                {
                    "name": "A5",
                    "midi": 81,
                    "time": 186.66666666666666,
                    "velocity": 0.5905511811023622,
                    "duration": 0.10286458333334281
                },
                {
                    "name": "B5",
                    "midi": 83,
                    "time": 186.76953125,
                    "velocity": 0.5905511811023622,
                    "duration": 0.10546875
                },
                {
                    "name": "C#6",
                    "midi": 85,
                    "time": 186.875,
                    "velocity": 0.5905511811023622,
                    "duration": 0.10416666666665719
                },
                {
                    "name": "D6",
                    "midi": 86,
                    "time": 186.97916666666666,
                    "velocity": 0.5905511811023622,
                    "duration": 0.10286458333334281
                },
                {
                    "name": "C#6",
                    "midi": 85,
                    "time": 187.08203125,
                    "velocity": 0.5905511811023622,
                    "duration": 0.10546875
                },
                {
                    "name": "G5",
                    "midi": 79,
                    "time": 187.1875,
                    "velocity": 0.5905511811023622,
                    "duration": 0.078125
                },
                {
                    "name": "A5",
                    "midi": 81,
                    "time": 187.265625,
                    "velocity": 0.5905511811023622,
                    "duration": 0.078125
                },
                {
                    "name": "B5",
                    "midi": 83,
                    "time": 187.34375,
                    "velocity": 0.5905511811023622,
                    "duration": 0.078125
                },
                {
                    "name": "C#6",
                    "midi": 85,
                    "time": 187.421875,
                    "velocity": 0.5905511811023622,
                    "duration": 0.078125
                },
                {
                    "name": "D#6",
                    "midi": 87,
                    "time": 187.5,
                    "velocity": 0.6929133858267716,
                    "duration": 0.10416666666665719
                },
                {
                    "name": "E6",
                    "midi": 88,
                    "time": 187.60416666666666,
                    "velocity": 0.6929133858267716,
                    "duration": 0.10286458333334281
                },
                {
                    "name": "D#6",
                    "midi": 87,
                    "time": 187.70703125,
                    "velocity": 0.6929133858267716,
                    "duration": 0.10546875
                },
                {
                    "name": "A5",
                    "midi": 81,
                    "time": 187.8125,
                    "velocity": 0.6929133858267716,
                    "duration": 0.10416666666665719
                },
                {
                    "name": "B5",
                    "midi": 83,
                    "time": 187.91666666666666,
                    "velocity": 0.6929133858267716,
                    "duration": 0.10286458333334281
                },
                {
                    "name": "C#6",
                    "midi": 85,
                    "time": 188.01953125,
                    "velocity": 0.6929133858267716,
                    "duration": 0.10546875
                },
                {
                    "name": "D#6",
                    "midi": 87,
                    "time": 188.125,
                    "velocity": 0.6929133858267716,
                    "duration": 0.10416666666665719
                },
                {
                    "name": "E6",
                    "midi": 88,
                    "time": 188.22916666666666,
                    "velocity": 0.6929133858267716,
                    "duration": 0.10286458333334281
                },
                {
                    "name": "D#6",
                    "midi": 87,
                    "time": 188.33203125,
                    "velocity": 0.6929133858267716,
                    "duration": 0.10546875
                },
                {
                    "name": "A5",
                    "midi": 81,
                    "time": 188.4375,
                    "velocity": 0.6929133858267716,
                    "duration": 0.10416666666665719
                },
                {
                    "name": "B5",
                    "midi": 83,
                    "time": 188.54166666666666,
                    "velocity": 0.6929133858267716,
                    "duration": 0.10286458333334281
                },
                {
                    "name": "C#6",
                    "midi": 85,
                    "time": 188.64453125,
                    "velocity": 0.6929133858267716,
                    "duration": 0.10546875
                },
                {
                    "name": "D#6",
                    "midi": 87,
                    "time": 188.75,
                    "velocity": 0.6929133858267716,
                    "duration": 0.10416666666665719
                },
                {
                    "name": "E6",
                    "midi": 88,
                    "time": 188.85416666666666,
                    "velocity": 0.6929133858267716,
                    "duration": 0.10286458333334281
                },
                {
                    "name": "D#6",
                    "midi": 87,
                    "time": 188.95703125,
                    "velocity": 0.6929133858267716,
                    "duration": 0.10546875
                },
                {
                    "name": "A5",
                    "midi": 81,
                    "time": 189.0625,
                    "velocity": 0.6929133858267716,
                    "duration": 0.10416666666665719
                },
                {
                    "name": "B5",
                    "midi": 83,
                    "time": 189.16666666666666,
                    "velocity": 0.6929133858267716,
                    "duration": 0.10286458333334281
                },
                {
                    "name": "C#6",
                    "midi": 85,
                    "time": 189.26953125,
                    "velocity": 0.6929133858267716,
                    "duration": 0.10546875
                },
                {
                    "name": "D#6",
                    "midi": 87,
                    "time": 189.375,
                    "velocity": 0.6929133858267716,
                    "duration": 0.10416666666665719
                },
                {
                    "name": "E6",
                    "midi": 88,
                    "time": 189.47916666666666,
                    "velocity": 0.6929133858267716,
                    "duration": 0.10286458333334281
                },
                {
                    "name": "D#6",
                    "midi": 87,
                    "time": 189.58203125,
                    "velocity": 0.6929133858267716,
                    "duration": 0.10546875
                },
                {
                    "name": "A5",
                    "midi": 81,
                    "time": 189.6875,
                    "velocity": 0.6929133858267716,
                    "duration": 0.078125
                },
                {
                    "name": "B5",
                    "midi": 83,
                    "time": 189.765625,
                    "velocity": 0.6929133858267716,
                    "duration": 0.078125
                },
                {
                    "name": "C#6",
                    "midi": 85,
                    "time": 189.84375,
                    "velocity": 0.6929133858267716,
                    "duration": 0.078125
                },
                {
                    "name": "D#6",
                    "midi": 87,
                    "time": 189.921875,
                    "velocity": 0.6929133858267716,
                    "duration": 0.078125
                },
                {
                    "name": "E5",
                    "midi": 76,
                    "time": 190,
                    "velocity": 0.7952755905511811,
                    "duration": 2.5
                },
                {
                    "name": "A5",
                    "midi": 81,
                    "time": 190,
                    "velocity": 0.7952755905511811,
                    "duration": 1.25
                },
                {
                    "name": "C#6",
                    "midi": 85,
                    "time": 190,
                    "velocity": 0.7952755905511811,
                    "duration": 1.25
                },
                {
                    "name": "E6",
                    "midi": 88,
                    "time": 190,
                    "velocity": 0.7952755905511811,
                    "duration": 2.5
                },
                {
                    "name": "G5",
                    "midi": 79,
                    "time": 191.25,
                    "velocity": 0.7952755905511811,
                    "duration": 1.25
                },
                {
                    "name": "A#5",
                    "midi": 82,
                    "time": 191.25,
                    "velocity": 0.7952755905511811,
                    "duration": 1.25
                },
                {
                    "name": "F#5",
                    "midi": 78,
                    "time": 192.8125,
                    "velocity": 0.7952755905511811,
                    "duration": 0.3125
                },
                {
                    "name": "B5",
                    "midi": 83,
                    "time": 192.8125,
                    "velocity": 0.7952755905511811,
                    "duration": 0.3125
                },
                {
                    "name": "D6",
                    "midi": 86,
                    "time": 192.8125,
                    "velocity": 0.7952755905511811,
                    "duration": 0.3125
                },
                {
                    "name": "F#6",
                    "midi": 90,
                    "time": 192.8125,
                    "velocity": 0.7952755905511811,
                    "duration": 0.3125
                },
                {
                    "name": "E5",
                    "midi": 76,
                    "time": 193.125,
                    "velocity": 0.7952755905511811,
                    "duration": 0.3125
                },
                {
                    "name": "F#5",
                    "midi": 78,
                    "time": 193.125,
                    "velocity": 0.7952755905511811,
                    "duration": 0.3125
                },
                {
                    "name": "B5",
                    "midi": 83,
                    "time": 193.125,
                    "velocity": 0.7952755905511811,
                    "duration": 0.3125
                },
                {
                    "name": "E6",
                    "midi": 88,
                    "time": 193.125,
                    "velocity": 0.7952755905511811,
                    "duration": 0.3125
                },
                {
                    "name": "A4",
                    "midi": 69,
                    "time": 193.4375,
                    "velocity": 0.7952755905511811,
                    "duration": 0.3125
                },
                {
                    "name": "D5",
                    "midi": 74,
                    "time": 193.4375,
                    "velocity": 0.7952755905511811,
                    "duration": 0.3125
                },
                {
                    "name": "F#5",
                    "midi": 78,
                    "time": 193.4375,
                    "velocity": 0.7952755905511811,
                    "duration": 0.3125
                },
                {
                    "name": "A5",
                    "midi": 81,
                    "time": 193.4375,
                    "velocity": 0.7952755905511811,
                    "duration": 0.3125
                },
                {
                    "name": "C5",
                    "midi": 72,
                    "time": 193.75,
                    "velocity": 0.6929133858267716,
                    "duration": 0.3125
                },
                {
                    "name": "F5",
                    "midi": 77,
                    "time": 193.75,
                    "velocity": 0.6929133858267716,
                    "duration": 0.3125
                },
                {
                    "name": "A5",
                    "midi": 81,
                    "time": 193.75,
                    "velocity": 0.6929133858267716,
                    "duration": 0.3125
                },
                {
                    "name": "C6",
                    "midi": 84,
                    "time": 193.75,
                    "velocity": 0.6929133858267716,
                    "duration": 0.3125
                },
                {
                    "name": "B4",
                    "midi": 71,
                    "time": 194.0625,
                    "velocity": 0.6929133858267716,
                    "duration": 0.3125
                },
                {
                    "name": "D5",
                    "midi": 74,
                    "time": 194.0625,
                    "velocity": 0.6929133858267716,
                    "duration": 0.3125
                },
                {
                    "name": "F#5",
                    "midi": 78,
                    "time": 194.0625,
                    "velocity": 0.6929133858267716,
                    "duration": 0.3125
                },
                {
                    "name": "B5",
                    "midi": 83,
                    "time": 194.0625,
                    "velocity": 0.6929133858267716,
                    "duration": 0.3125
                },
                {
                    "name": "A4",
                    "midi": 69,
                    "time": 194.375,
                    "velocity": 0.6929133858267716,
                    "duration": 0.3125
                },
                {
                    "name": "D5",
                    "midi": 74,
                    "time": 194.375,
                    "velocity": 0.6929133858267716,
                    "duration": 0.3125
                },
                {
                    "name": "F#5",
                    "midi": 78,
                    "time": 194.375,
                    "velocity": 0.6929133858267716,
                    "duration": 0.3125
                },
                {
                    "name": "A5",
                    "midi": 81,
                    "time": 194.375,
                    "velocity": 0.6929133858267716,
                    "duration": 0.3125
                },
                {
                    "name": "F#4",
                    "midi": 66,
                    "time": 194.6875,
                    "velocity": 0.6929133858267716,
                    "duration": 0.3125
                },
                {
                    "name": "A4",
                    "midi": 69,
                    "time": 194.6875,
                    "velocity": 0.6929133858267716,
                    "duration": 0.3125
                },
                {
                    "name": "C5",
                    "midi": 72,
                    "time": 194.6875,
                    "velocity": 0.6929133858267716,
                    "duration": 0.3125
                },
                {
                    "name": "F#5",
                    "midi": 78,
                    "time": 194.6875,
                    "velocity": 0.6929133858267716,
                    "duration": 0.3125
                },
                {
                    "name": "E3",
                    "midi": 52,
                    "time": 195,
                    "velocity": 0.5905511811023622,
                    "duration": 2.5
                },
                {
                    "name": "E4",
                    "midi": 64,
                    "time": 195,
                    "velocity": 0.5905511811023622,
                    "duration": 2.5
                },
                {
                    "name": "A4",
                    "midi": 69,
                    "time": 195,
                    "velocity": 0.5905511811023622,
                    "duration": 2.5
                },
                {
                    "name": "E5",
                    "midi": 76,
                    "time": 195,
                    "velocity": 0.5905511811023622,
                    "duration": 2.5
                },
                {
                    "name": "C#5",
                    "midi": 73,
                    "time": 197.5,
                    "velocity": 0.4881889763779528,
                    "duration": 0.3125
                },
                {
                    "name": "C5",
                    "midi": 72,
                    "time": 197.8125,
                    "velocity": 0.4881889763779528,
                    "duration": 0.15625
                },
                {
                    "name": "B4",
                    "midi": 71,
                    "time": 197.96875,
                    "velocity": 0.4881889763779528,
                    "duration": 0.15625
                },
                {
                    "name": "A#4",
                    "midi": 70,
                    "time": 198.125,
                    "velocity": 0.4881889763779528,
                    "duration": 0.15625
                },
                {
                    "name": "A4",
                    "midi": 69,
                    "time": 198.28125,
                    "velocity": 0.4881889763779528,
                    "duration": 0.3125
                },
                {
                    "name": "G#4",
                    "midi": 68,
                    "time": 198.59375,
                    "velocity": 0.4881889763779528,
                    "duration": 0.15625
                },
                {
                    "name": "A4",
                    "midi": 69,
                    "time": 198.75,
                    "velocity": 0.4881889763779528,
                    "duration": 0.3125
                },
                {
                    "name": "A#4",
                    "midi": 70,
                    "time": 199.0625,
                    "velocity": 0.4881889763779528,
                    "duration": 0.15625
                },
                {
                    "name": "B4",
                    "midi": 71,
                    "time": 199.21875,
                    "velocity": 0.4881889763779528,
                    "duration": 0.15625
                },
                {
                    "name": "C5",
                    "midi": 72,
                    "time": 199.375,
                    "velocity": 0.4881889763779528,
                    "duration": 0.15625
                },
                {
                    "name": "C#5",
                    "midi": 73,
                    "time": 199.53125,
                    "velocity": 0.4881889763779528,
                    "duration": 0.3125
                },
                {
                    "name": "C5",
                    "midi": 72,
                    "time": 199.84375,
                    "velocity": 0.4881889763779528,
                    "duration": 0.15625
                },
                {
                    "name": "B4",
                    "midi": 71,
                    "time": 200,
                    "velocity": 0.4881889763779528,
                    "duration": 0.3125
                },
                {
                    "name": "A#4",
                    "midi": 70,
                    "time": 200.3125,
                    "velocity": 0.4881889763779528,
                    "duration": 0.15625
                },
                {
                    "name": "A4",
                    "midi": 69,
                    "time": 200.46875,
                    "velocity": 0.4881889763779528,
                    "duration": 0.15625
                },
                {
                    "name": "G#4",
                    "midi": 68,
                    "time": 200.625,
                    "velocity": 0.4881889763779528,
                    "duration": 0.15625
                },
                {
                    "name": "A4",
                    "midi": 69,
                    "time": 200.78125,
                    "velocity": 0.4881889763779528,
                    "duration": 0.3125
                },
                {
                    "name": "A#4",
                    "midi": 70,
                    "time": 201.09375,
                    "velocity": 0.4881889763779528,
                    "duration": 0.15625
                },
                {
                    "name": "B4",
                    "midi": 71,
                    "time": 201.25,
                    "velocity": 0.4881889763779528,
                    "duration": 0.3125
                },
                {
                    "name": "C5",
                    "midi": 72,
                    "time": 201.5625,
                    "velocity": 0.4881889763779528,
                    "duration": 0.15625
                },
                {
                    "name": "C#5",
                    "midi": 73,
                    "time": 201.71875,
                    "velocity": 0.4881889763779528,
                    "duration": 0.15625
                },
                {
                    "name": "C5",
                    "midi": 72,
                    "time": 201.875,
                    "velocity": 0.4881889763779528,
                    "duration": 0.15625
                },
                {
                    "name": "B4",
                    "midi": 71,
                    "time": 202.03125,
                    "velocity": 0.4881889763779528,
                    "duration": 0.3125
                },
                {
                    "name": "A#4",
                    "midi": 70,
                    "time": 202.34375,
                    "velocity": 0.4881889763779528,
                    "duration": 0.15625
                },
                {
                    "name": "A4",
                    "midi": 69,
                    "time": 202.5,
                    "velocity": 0.4881889763779528,
                    "duration": 0.3125
                },
                {
                    "name": "G#4",
                    "midi": 68,
                    "time": 202.8125,
                    "velocity": 0.4881889763779528,
                    "duration": 0.15625
                },
                {
                    "name": "A4",
                    "midi": 69,
                    "time": 202.96875,
                    "velocity": 0.4881889763779528,
                    "duration": 0.15625
                },
                {
                    "name": "A#4",
                    "midi": 70,
                    "time": 203.125,
                    "velocity": 0.4881889763779528,
                    "duration": 0.15625
                },
                {
                    "name": "B4",
                    "midi": 71,
                    "time": 203.28125,
                    "velocity": 0.4881889763779528,
                    "duration": 0.3125
                },
                {
                    "name": "C5",
                    "midi": 72,
                    "time": 203.59375,
                    "velocity": 0.4881889763779528,
                    "duration": 0.15625
                },
                {
                    "name": "C#5",
                    "midi": 73,
                    "time": 203.75,
                    "velocity": 0.4881889763779528,
                    "duration": 0.3125
                },
                {
                    "name": "C5",
                    "midi": 72,
                    "time": 204.0625,
                    "velocity": 0.4881889763779528,
                    "duration": 0.15625
                },
                {
                    "name": "B4",
                    "midi": 71,
                    "time": 204.21875,
                    "velocity": 0.4881889763779528,
                    "duration": 0.15625
                },
                {
                    "name": "A#4",
                    "midi": 70,
                    "time": 204.375,
                    "velocity": 0.4881889763779528,
                    "duration": 0.15625
                },
                {
                    "name": "A4",
                    "midi": 69,
                    "time": 204.53125,
                    "velocity": 0.4881889763779528,
                    "duration": 0.3125
                },
                {
                    "name": "G#4",
                    "midi": 68,
                    "time": 204.84375,
                    "velocity": 0.4881889763779528,
                    "duration": 0.15625
                },
                {
                    "name": "A4",
                    "midi": 69,
                    "time": 205,
                    "velocity": 0.4881889763779528,
                    "duration": 0.3125
                },
                {
                    "name": "A#4",
                    "midi": 70,
                    "time": 205.3125,
                    "velocity": 0.4881889763779528,
                    "duration": 0.15625
                },
                {
                    "name": "B4",
                    "midi": 71,
                    "time": 205.46875,
                    "velocity": 0.4881889763779528,
                    "duration": 0.15625
                },
                {
                    "name": "C5",
                    "midi": 72,
                    "time": 205.625,
                    "velocity": 0.4881889763779528,
                    "duration": 0.15625
                },
                {
                    "name": "C#5",
                    "midi": 73,
                    "time": 205.78125,
                    "velocity": 0.4881889763779528,
                    "duration": 0.3125
                },
                {
                    "name": "C5",
                    "midi": 72,
                    "time": 206.09375,
                    "velocity": 0.4881889763779528,
                    "duration": 0.15625
                },
                {
                    "name": "B4",
                    "midi": 71,
                    "time": 206.25,
                    "velocity": 0.4881889763779528,
                    "duration": 0.3125
                },
                {
                    "name": "A#4",
                    "midi": 70,
                    "time": 206.5625,
                    "velocity": 0.4881889763779528,
                    "duration": 0.15625
                },
                {
                    "name": "A4",
                    "midi": 69,
                    "time": 206.71875,
                    "velocity": 0.4881889763779528,
                    "duration": 0.15625
                },
                {
                    "name": "G#4",
                    "midi": 68,
                    "time": 206.875,
                    "velocity": 0.4881889763779528,
                    "duration": 0.15625
                },
                {
                    "name": "A4",
                    "midi": 69,
                    "time": 207.03125,
                    "velocity": 0.4881889763779528,
                    "duration": 0.3125
                },
                {
                    "name": "A#4",
                    "midi": 70,
                    "time": 207.34375,
                    "velocity": 0.4881889763779528,
                    "duration": 0.15625
                },
                {
                    "name": "B4",
                    "midi": 71,
                    "time": 207.5,
                    "velocity": 0.4881889763779528,
                    "duration": 0.3125
                },
                {
                    "name": "C5",
                    "midi": 72,
                    "time": 207.8125,
                    "velocity": 0.4881889763779528,
                    "duration": 0.15625
                },
                {
                    "name": "C#5",
                    "midi": 73,
                    "time": 207.96875,
                    "velocity": 0.4881889763779528,
                    "duration": 0.15625
                },
                {
                    "name": "C5",
                    "midi": 72,
                    "time": 208.125,
                    "velocity": 0.4881889763779528,
                    "duration": 0.15625
                },
                {
                    "name": "B4",
                    "midi": 71,
                    "time": 208.28125,
                    "velocity": 0.4881889763779528,
                    "duration": 0.3125
                },
                {
                    "name": "A#4",
                    "midi": 70,
                    "time": 208.59375,
                    "velocity": 0.4881889763779528,
                    "duration": 0.15625
                },
                {
                    "name": "A4",
                    "midi": 69,
                    "time": 208.75,
                    "velocity": 0.4881889763779528,
                    "duration": 0.3125
                },
                {
                    "name": "G#4",
                    "midi": 68,
                    "time": 209.0625,
                    "velocity": 0.4881889763779528,
                    "duration": 0.15625
                },
                {
                    "name": "A4",
                    "midi": 69,
                    "time": 209.21875,
                    "velocity": 0.4881889763779528,
                    "duration": 0.15625
                },
                {
                    "name": "A#4",
                    "midi": 70,
                    "time": 209.375,
                    "velocity": 0.4881889763779528,
                    "duration": 0.15625
                },
                {
                    "name": "B4",
                    "midi": 71,
                    "time": 209.53125,
                    "velocity": 0.4881889763779528,
                    "duration": 0.3125
                },
                {
                    "name": "C5",
                    "midi": 72,
                    "time": 209.84375,
                    "velocity": 0.4881889763779528,
                    "duration": 0.15625
                },
                {
                    "name": "C#5",
                    "midi": 73,
                    "time": 210,
                    "velocity": 0.4881889763779528,
                    "duration": 2.5
                },
                {
                    "name": "D#6",
                    "midi": 87,
                    "time": 212.8125,
                    "velocity": 0.4881889763779528,
                    "duration": 0.3125
                },
                {
                    "name": "A#6",
                    "midi": 94,
                    "time": 212.8125,
                    "velocity": 0.4881889763779528,
                    "duration": 0.3125
                },
                {
                    "name": "F6",
                    "midi": 89,
                    "time": 213.125,
                    "velocity": 0.4881889763779528,
                    "duration": 0.3125
                },
                {
                    "name": "G#6",
                    "midi": 92,
                    "time": 213.125,
                    "velocity": 0.4881889763779528,
                    "duration": 0.3125
                },
                {
                    "name": "G#5",
                    "midi": 80,
                    "time": 213.4375,
                    "velocity": 0.4881889763779528,
                    "duration": 0.3125
                },
                {
                    "name": "C#6",
                    "midi": 85,
                    "time": 213.4375,
                    "velocity": 0.4881889763779528,
                    "duration": 0.3125
                },
                {
                    "name": "A#5",
                    "midi": 82,
                    "time": 213.75,
                    "velocity": 0.4881889763779528,
                    "duration": 0.3125
                },
                {
                    "name": "E6",
                    "midi": 88,
                    "time": 213.75,
                    "velocity": 0.4881889763779528,
                    "duration": 0.3125
                },
                {
                    "name": "B5",
                    "midi": 83,
                    "time": 214.0625,
                    "velocity": 0.4881889763779528,
                    "duration": 0.3125
                },
                {
                    "name": "D#6",
                    "midi": 87,
                    "time": 214.0625,
                    "velocity": 0.4881889763779528,
                    "duration": 0.3125
                },
                {
                    "name": "D#5",
                    "midi": 75,
                    "time": 214.375,
                    "velocity": 0.4881889763779528,
                    "duration": 0.3125
                },
                {
                    "name": "C#6",
                    "midi": 85,
                    "time": 214.375,
                    "velocity": 0.4881889763779528,
                    "duration": 0.3125
                },
                {
                    "name": "E5",
                    "midi": 76,
                    "time": 214.6875,
                    "velocity": 0.4881889763779528,
                    "duration": 0.3125
                },
                {
                    "name": "A#5",
                    "midi": 82,
                    "time": 214.6875,
                    "velocity": 0.4881889763779528,
                    "duration": 0.3125
                },
                {
                    "name": "E5",
                    "midi": 76,
                    "time": 215.3125,
                    "velocity": 0.4881889763779528,
                    "duration": 0.3125
                },
                {
                    "name": "B5",
                    "midi": 83,
                    "time": 215.3125,
                    "velocity": 0.4881889763779528,
                    "duration": 0.3125
                },
                {
                    "name": "F#5",
                    "midi": 78,
                    "time": 215.625,
                    "velocity": 0.4881889763779528,
                    "duration": 0.3125
                },
                {
                    "name": "A5",
                    "midi": 81,
                    "time": 215.625,
                    "velocity": 0.4881889763779528,
                    "duration": 0.3125
                },
                {
                    "name": "A4",
                    "midi": 69,
                    "time": 215.9375,
                    "velocity": 0.4881889763779528,
                    "duration": 0.3125
                },
                {
                    "name": "D5",
                    "midi": 74,
                    "time": 215.9375,
                    "velocity": 0.4881889763779528,
                    "duration": 0.3125
                },
                {
                    "name": "B4",
                    "midi": 71,
                    "time": 216.25,
                    "velocity": 0.4881889763779528,
                    "duration": 0.3125
                },
                {
                    "name": "F5",
                    "midi": 77,
                    "time": 216.25,
                    "velocity": 0.4881889763779528,
                    "duration": 0.3125
                },
                {
                    "name": "C5",
                    "midi": 72,
                    "time": 216.5625,
                    "velocity": 0.4881889763779528,
                    "duration": 0.3125
                },
                {
                    "name": "E5",
                    "midi": 76,
                    "time": 216.5625,
                    "velocity": 0.4881889763779528,
                    "duration": 0.3125
                },
                {
                    "name": "E4",
                    "midi": 64,
                    "time": 216.875,
                    "velocity": 0.4881889763779528,
                    "duration": 0.3125
                },
                {
                    "name": "D5",
                    "midi": 74,
                    "time": 216.875,
                    "velocity": 0.4881889763779528,
                    "duration": 0.3125
                },
                {
                    "name": "F4",
                    "midi": 65,
                    "time": 217.1875,
                    "velocity": 0.4881889763779528,
                    "duration": 0.3125
                },
                {
                    "name": "B4",
                    "midi": 71,
                    "time": 217.1875,
                    "velocity": 0.4881889763779528,
                    "duration": 0.3125
                },
                {
                    "name": "D#4",
                    "midi": 63,
                    "time": 217.8125,
                    "velocity": 0.4881889763779528,
                    "duration": 0.3125
                },
                {
                    "name": "A#4",
                    "midi": 70,
                    "time": 217.8125,
                    "velocity": 0.4881889763779528,
                    "duration": 0.3125
                },
                {
                    "name": "F4",
                    "midi": 65,
                    "time": 218.125,
                    "velocity": 0.4881889763779528,
                    "duration": 0.3125
                },
                {
                    "name": "G#4",
                    "midi": 68,
                    "time": 218.125,
                    "velocity": 0.4881889763779528,
                    "duration": 0.3125
                },
                {
                    "name": "C#4",
                    "midi": 61,
                    "time": 218.4375,
                    "velocity": 0.4881889763779528,
                    "duration": 0.3125
                },
                {
                    "name": "E4",
                    "midi": 64,
                    "time": 218.75,
                    "velocity": 0.4881889763779528,
                    "duration": 0.3125
                },
                {
                    "name": "D#4",
                    "midi": 63,
                    "time": 219.0625,
                    "velocity": 0.4881889763779528,
                    "duration": 0.3125
                },
                {
                    "name": "C#4",
                    "midi": 61,
                    "time": 219.375,
                    "velocity": 0.4881889763779528,
                    "duration": 0.3125
                },
                {
                    "name": "A#3",
                    "midi": 58,
                    "time": 219.6875,
                    "velocity": 0.4881889763779528,
                    "duration": 0.3125
                },
                {
                    "name": "A3",
                    "midi": 57,
                    "time": 225.3125,
                    "velocity": 0.4881889763779528,
                    "duration": 0.3125
                },
                {
                    "name": "B3",
                    "midi": 59,
                    "time": 225.625,
                    "velocity": 0.6929133858267716,
                    "duration": 0.3125
                },
                {
                    "name": "C4",
                    "midi": 60,
                    "time": 225.625,
                    "velocity": 0.6929133858267716,
                    "duration": 0.3125
                },
                {
                    "name": "A3",
                    "midi": 57,
                    "time": 225.9375,
                    "velocity": 0.4881889763779528,
                    "duration": 0.3125
                },
                {
                    "name": "A3",
                    "midi": 57,
                    "time": 226.5625,
                    "velocity": 0.4881889763779528,
                    "duration": 0.3125
                },
                {
                    "name": "B3",
                    "midi": 59,
                    "time": 226.875,
                    "velocity": 0.6929133858267716,
                    "duration": 0.3125
                },
                {
                    "name": "C4",
                    "midi": 60,
                    "time": 226.875,
                    "velocity": 0.6929133858267716,
                    "duration": 0.3125
                },
                {
                    "name": "A3",
                    "midi": 57,
                    "time": 227.1875,
                    "velocity": 0.4881889763779528,
                    "duration": 0.3125
                },
                {
                    "name": "A3",
                    "midi": 57,
                    "time": 227.8125,
                    "velocity": 0.4881889763779528,
                    "duration": 0.3125
                },
                {
                    "name": "B3",
                    "midi": 59,
                    "time": 228.125,
                    "velocity": 0.6929133858267716,
                    "duration": 0.3125
                },
                {
                    "name": "C4",
                    "midi": 60,
                    "time": 228.125,
                    "velocity": 0.6929133858267716,
                    "duration": 0.3125
                },
                {
                    "name": "A3",
                    "midi": 57,
                    "time": 228.4375,
                    "velocity": 0.4881889763779528,
                    "duration": 0.3125
                },
                {
                    "name": "A3",
                    "midi": 57,
                    "time": 229.0625,
                    "velocity": 0.4881889763779528,
                    "duration": 0.3125
                },
                {
                    "name": "B3",
                    "midi": 59,
                    "time": 229.375,
                    "velocity": 0.6929133858267716,
                    "duration": 0.3125
                },
                {
                    "name": "C4",
                    "midi": 60,
                    "time": 229.375,
                    "velocity": 0.6929133858267716,
                    "duration": 0.3125
                },
                {
                    "name": "A3",
                    "midi": 57,
                    "time": 229.6875,
                    "velocity": 0.4881889763779528,
                    "duration": 0.3125
                },
                {
                    "name": "A3",
                    "midi": 57,
                    "time": 230.3125,
                    "velocity": 0.4881889763779528,
                    "duration": 0.3125
                },
                {
                    "name": "B3",
                    "midi": 59,
                    "time": 230.625,
                    "velocity": 0.6929133858267716,
                    "duration": 0.3125
                },
                {
                    "name": "C4",
                    "midi": 60,
                    "time": 230.625,
                    "velocity": 0.6929133858267716,
                    "duration": 0.3125
                },
                {
                    "name": "A3",
                    "midi": 57,
                    "time": 230.9375,
                    "velocity": 0.4881889763779528,
                    "duration": 0.3125
                },
                {
                    "name": "A3",
                    "midi": 57,
                    "time": 231.5625,
                    "velocity": 0.4881889763779528,
                    "duration": 0.3125
                },
                {
                    "name": "B3",
                    "midi": 59,
                    "time": 231.875,
                    "velocity": 0.6929133858267716,
                    "duration": 0.3125
                },
                {
                    "name": "C4",
                    "midi": 60,
                    "time": 231.875,
                    "velocity": 0.6929133858267716,
                    "duration": 0.3125
                },
                {
                    "name": "A3",
                    "midi": 57,
                    "time": 232.1875,
                    "velocity": 0.4881889763779528,
                    "duration": 0.3125
                },
                {
                    "name": "A3",
                    "midi": 57,
                    "time": 232.8125,
                    "velocity": 0.4881889763779528,
                    "duration": 0.3125
                },
                {
                    "name": "B3",
                    "midi": 59,
                    "time": 233.125,
                    "velocity": 0.6929133858267716,
                    "duration": 0.3125
                },
                {
                    "name": "C4",
                    "midi": 60,
                    "time": 233.125,
                    "velocity": 0.6929133858267716,
                    "duration": 0.3125
                },
                {
                    "name": "A3",
                    "midi": 57,
                    "time": 233.4375,
                    "velocity": 0.4881889763779528,
                    "duration": 0.3125
                },
                {
                    "name": "A3",
                    "midi": 57,
                    "time": 234.0625,
                    "velocity": 0.4881889763779528,
                    "duration": 0.3125
                },
                {
                    "name": "B3",
                    "midi": 59,
                    "time": 234.375,
                    "velocity": 0.6929133858267716,
                    "duration": 0.3125
                },
                {
                    "name": "C4",
                    "midi": 60,
                    "time": 234.375,
                    "velocity": 0.6929133858267716,
                    "duration": 0.3125
                },
                {
                    "name": "A3",
                    "midi": 57,
                    "time": 234.6875,
                    "velocity": 0.4881889763779528,
                    "duration": 0.3125
                },
                {
                    "name": "D4",
                    "midi": 62,
                    "time": 235.3125,
                    "velocity": 0.4881889763779528,
                    "duration": 0.3125
                },
                {
                    "name": "E4",
                    "midi": 64,
                    "time": 235.625,
                    "velocity": 0.6929133858267716,
                    "duration": 0.3125
                },
                {
                    "name": "F4",
                    "midi": 65,
                    "time": 235.625,
                    "velocity": 0.6929133858267716,
                    "duration": 0.3125
                },
                {
                    "name": "D4",
                    "midi": 62,
                    "time": 235.9375,
                    "velocity": 0.4881889763779528,
                    "duration": 0.3125
                },
                {
                    "name": "D4",
                    "midi": 62,
                    "time": 236.5625,
                    "velocity": 0.4881889763779528,
                    "duration": 0.3125
                },
                {
                    "name": "E4",
                    "midi": 64,
                    "time": 236.875,
                    "velocity": 0.6929133858267716,
                    "duration": 0.3125
                },
                {
                    "name": "F4",
                    "midi": 65,
                    "time": 236.875,
                    "velocity": 0.6929133858267716,
                    "duration": 0.3125
                },
                {
                    "name": "D4",
                    "midi": 62,
                    "time": 237.1875,
                    "velocity": 0.4881889763779528,
                    "duration": 0.3125
                },
                {
                    "name": "G3",
                    "midi": 55,
                    "time": 237.8125,
                    "velocity": 0.4881889763779528,
                    "duration": 0.3125
                },
                {
                    "name": "A3",
                    "midi": 57,
                    "time": 238.125,
                    "velocity": 0.6929133858267716,
                    "duration": 0.3125
                },
                {
                    "name": "A#3",
                    "midi": 58,
                    "time": 238.125,
                    "velocity": 0.6929133858267716,
                    "duration": 0.3125
                },
                {
                    "name": "G3",
                    "midi": 55,
                    "time": 238.4375,
                    "velocity": 0.4881889763779528,
                    "duration": 0.3125
                },
                {
                    "name": "G3",
                    "midi": 55,
                    "time": 239.0625,
                    "velocity": 0.4881889763779528,
                    "duration": 0.3125
                },
                {
                    "name": "A3",
                    "midi": 57,
                    "time": 239.375,
                    "velocity": 0.6929133858267716,
                    "duration": 0.3125
                },
                {
                    "name": "A#3",
                    "midi": 58,
                    "time": 239.375,
                    "velocity": 0.6929133858267716,
                    "duration": 0.3125
                },
                {
                    "name": "G3",
                    "midi": 55,
                    "time": 239.6875,
                    "velocity": 0.4881889763779528,
                    "duration": 0.3125
                },
                {
                    "name": "G3",
                    "midi": 55,
                    "time": 240.3125,
                    "velocity": 0.4881889763779528,
                    "duration": 0.3125
                },
                {
                    "name": "A3",
                    "midi": 57,
                    "time": 240.625,
                    "velocity": 0.6929133858267716,
                    "duration": 0.3125
                },
                {
                    "name": "A#3",
                    "midi": 58,
                    "time": 240.625,
                    "velocity": 0.6929133858267716,
                    "duration": 0.3125
                },
                {
                    "name": "G3",
                    "midi": 55,
                    "time": 240.9375,
                    "velocity": 0.4881889763779528,
                    "duration": 0.3125
                },
                {
                    "name": "G3",
                    "midi": 55,
                    "time": 241.5625,
                    "velocity": 0.4881889763779528,
                    "duration": 0.3125
                },
                {
                    "name": "A3",
                    "midi": 57,
                    "time": 241.875,
                    "velocity": 0.6929133858267716,
                    "duration": 0.3125
                },
                {
                    "name": "A#3",
                    "midi": 58,
                    "time": 241.875,
                    "velocity": 0.6929133858267716,
                    "duration": 0.3125
                },
                {
                    "name": "G3",
                    "midi": 55,
                    "time": 242.1875,
                    "velocity": 0.4881889763779528,
                    "duration": 0.3125
                },
                {
                    "name": "C#4",
                    "midi": 61,
                    "time": 242.8125,
                    "velocity": 0.4881889763779528,
                    "duration": 0.3125
                },
                {
                    "name": "D#4",
                    "midi": 63,
                    "time": 243.125,
                    "velocity": 0.6929133858267716,
                    "duration": 0.3125
                },
                {
                    "name": "E4",
                    "midi": 64,
                    "time": 243.125,
                    "velocity": 0.6929133858267716,
                    "duration": 0.3125
                },
                {
                    "name": "C#4",
                    "midi": 61,
                    "time": 243.4375,
                    "velocity": 0.4881889763779528,
                    "duration": 0.3125
                },
                {
                    "name": "C#4",
                    "midi": 61,
                    "time": 244.0625,
                    "velocity": 0.4881889763779528,
                    "duration": 0.3125
                },
                {
                    "name": "D#4",
                    "midi": 63,
                    "time": 244.375,
                    "velocity": 0.6929133858267716,
                    "duration": 0.3125
                },
                {
                    "name": "E4",
                    "midi": 64,
                    "time": 244.375,
                    "velocity": 0.6929133858267716,
                    "duration": 0.3125
                },
                {
                    "name": "C#4",
                    "midi": 61,
                    "time": 244.6875,
                    "velocity": 0.4881889763779528,
                    "duration": 0.3125
                },
                {
                    "name": "E4",
                    "midi": 64,
                    "time": 245.3125,
                    "velocity": 0.4881889763779528,
                    "duration": 0.3125
                },
                {
                    "name": "F#4",
                    "midi": 66,
                    "time": 245.625,
                    "velocity": 0.6929133858267716,
                    "duration": 0.3125
                },
                {
                    "name": "G4",
                    "midi": 67,
                    "time": 245.625,
                    "velocity": 0.6929133858267716,
                    "duration": 0.3125
                },
                {
                    "name": "E4",
                    "midi": 64,
                    "time": 245.9375,
                    "velocity": 0.4881889763779528,
                    "duration": 0.3125
                },
                {
                    "name": "E4",
                    "midi": 64,
                    "time": 246.5625,
                    "velocity": 0.4881889763779528,
                    "duration": 0.3125
                },
                {
                    "name": "F4",
                    "midi": 65,
                    "time": 246.875,
                    "velocity": 0.6929133858267716,
                    "duration": 0.3125
                },
                {
                    "name": "G4",
                    "midi": 67,
                    "time": 246.875,
                    "velocity": 0.6929133858267716,
                    "duration": 0.3125
                },
                {
                    "name": "E4",
                    "midi": 64,
                    "time": 247.1875,
                    "velocity": 0.4881889763779528,
                    "duration": 0.3125
                },
                {
                    "name": "E4",
                    "midi": 64,
                    "time": 247.8125,
                    "velocity": 0.4881889763779528,
                    "duration": 0.3125
                },
                {
                    "name": "F#4",
                    "midi": 66,
                    "time": 248.125,
                    "velocity": 0.6929133858267716,
                    "duration": 0.3125
                },
                {
                    "name": "G4",
                    "midi": 67,
                    "time": 248.125,
                    "velocity": 0.6929133858267716,
                    "duration": 0.3125
                },
                {
                    "name": "E4",
                    "midi": 64,
                    "time": 248.4375,
                    "velocity": 0.4881889763779528,
                    "duration": 0.3125
                },
                {
                    "name": "A3",
                    "midi": 57,
                    "time": 249.0625,
                    "velocity": 0.4881889763779528,
                    "duration": 0.3125
                },
                {
                    "name": "B3",
                    "midi": 59,
                    "time": 249.375,
                    "velocity": 0.6929133858267716,
                    "duration": 0.3125
                },
                {
                    "name": "C4",
                    "midi": 60,
                    "time": 249.375,
                    "velocity": 0.6929133858267716,
                    "duration": 0.3125
                },
                {
                    "name": "A3",
                    "midi": 57,
                    "time": 249.6875,
                    "velocity": 0.4881889763779528,
                    "duration": 0.3125
                },
                {
                    "name": "D6",
                    "midi": 86,
                    "time": 250,
                    "velocity": 0.5905511811023622,
                    "duration": 0.3125
                },
                {
                    "name": "F#5",
                    "midi": 78,
                    "time": 250.3125,
                    "velocity": 0.5905511811023622,
                    "duration": 0.3125
                },
                {
                    "name": "A5",
                    "midi": 81,
                    "time": 250.625,
                    "velocity": 0.5905511811023622,
                    "duration": 0.3125
                },
                {
                    "name": "D5",
                    "midi": 74,
                    "time": 250.9375,
                    "velocity": 0.5905511811023622,
                    "duration": 0.3125
                },
                {
                    "name": "F#5",
                    "midi": 78,
                    "time": 251.25,
                    "velocity": 0.5905511811023622,
                    "duration": 0.3125
                },
                {
                    "name": "A4",
                    "midi": 69,
                    "time": 251.5625,
                    "velocity": 0.5905511811023622,
                    "duration": 0.3125
                },
                {
                    "name": "B4",
                    "midi": 71,
                    "time": 251.875,
                    "velocity": 0.5905511811023622,
                    "duration": 0.3125
                },
                {
                    "name": "C5",
                    "midi": 72,
                    "time": 252.1875,
                    "velocity": 0.5905511811023622,
                    "duration": 0.625
                },
                {
                    "name": "C6",
                    "midi": 84,
                    "time": 252.8125,
                    "velocity": 0.5905511811023622,
                    "duration": 0.3125
                },
                {
                    "name": "B5",
                    "midi": 83,
                    "time": 253.125,
                    "velocity": 0.5905511811023622,
                    "duration": 0.3125
                },
                {
                    "name": "A5",
                    "midi": 81,
                    "time": 253.4375,
                    "velocity": 0.5905511811023622,
                    "duration": 0.3125
                },
                {
                    "name": "G5",
                    "midi": 79,
                    "time": 253.75,
                    "velocity": 0.5905511811023622,
                    "duration": 0.3125
                },
                {
                    "name": "F#5",
                    "midi": 78,
                    "time": 254.0625,
                    "velocity": 0.5905511811023622,
                    "duration": 0.3125
                },
                {
                    "name": "A5",
                    "midi": 81,
                    "time": 254.375,
                    "velocity": 0.5905511811023622,
                    "duration": 0.3125
                },
                {
                    "name": "A4",
                    "midi": 69,
                    "time": 254.6875,
                    "velocity": 0.5905511811023622,
                    "duration": 0.3125
                },
                {
                    "name": "B3",
                    "midi": 59,
                    "time": 255.3125,
                    "velocity": 0.4881889763779528,
                    "duration": 0.3125
                },
                {
                    "name": "D4",
                    "midi": 62,
                    "time": 255.625,
                    "velocity": 0.4881889763779528,
                    "duration": 0.3125
                },
                {
                    "name": "F#4",
                    "midi": 66,
                    "time": 255.625,
                    "velocity": 0.4881889763779528,
                    "duration": 0.3125
                },
                {
                    "name": "A4",
                    "midi": 69,
                    "time": 255.625,
                    "velocity": 0.4881889763779528,
                    "duration": 0.3125
                },
                {
                    "name": "A3",
                    "midi": 57,
                    "time": 256.25,
                    "velocity": 0.4881889763779528,
                    "duration": 0.3125
                },
                {
                    "name": "A#3",
                    "midi": 58,
                    "time": 256.5625,
                    "velocity": 0.4881889763779528,
                    "duration": 0.3125
                },
                {
                    "name": "D#4",
                    "midi": 63,
                    "time": 256.5625,
                    "velocity": 0.4881889763779528,
                    "duration": 0.3125
                },
                {
                    "name": "G4",
                    "midi": 67,
                    "time": 256.5625,
                    "velocity": 0.4881889763779528,
                    "duration": 0.3125
                },
                {
                    "name": "G#3",
                    "midi": 56,
                    "time": 257.1875,
                    "velocity": 0.4881889763779528,
                    "duration": 0.3125
                },
                {
                    "name": "C#4",
                    "midi": 61,
                    "time": 257.1875,
                    "velocity": 0.4881889763779528,
                    "duration": 0.3125
                },
                {
                    "name": "F4",
                    "midi": 65,
                    "time": 257.1875,
                    "velocity": 0.4881889763779528,
                    "duration": 0.3125
                },
                {
                    "name": "B3",
                    "midi": 59,
                    "time": 257.8125,
                    "velocity": 0.4881889763779528,
                    "duration": 0.3125
                },
                {
                    "name": "D4",
                    "midi": 62,
                    "time": 258.125,
                    "velocity": 0.4881889763779528,
                    "duration": 0.3125
                },
                {
                    "name": "F#4",
                    "midi": 66,
                    "time": 258.125,
                    "velocity": 0.4881889763779528,
                    "duration": 0.3125
                },
                {
                    "name": "A4",
                    "midi": 69,
                    "time": 258.125,
                    "velocity": 0.4881889763779528,
                    "duration": 0.3125
                },
                {
                    "name": "A3",
                    "midi": 57,
                    "time": 258.75,
                    "velocity": 0.4881889763779528,
                    "duration": 0.3125
                },
                {
                    "name": "A#3",
                    "midi": 58,
                    "time": 259.0625,
                    "velocity": 0.4881889763779528,
                    "duration": 0.3125
                },
                {
                    "name": "D#4",
                    "midi": 63,
                    "time": 259.0625,
                    "velocity": 0.4881889763779528,
                    "duration": 0.3125
                },
                {
                    "name": "G4",
                    "midi": 67,
                    "time": 259.0625,
                    "velocity": 0.4881889763779528,
                    "duration": 0.3125
                },
                {
                    "name": "G#3",
                    "midi": 56,
                    "time": 259.6875,
                    "velocity": 0.4881889763779528,
                    "duration": 0.3125
                },
                {
                    "name": "C#4",
                    "midi": 61,
                    "time": 259.6875,
                    "velocity": 0.4881889763779528,
                    "duration": 0.3125
                },
                {
                    "name": "F4",
                    "midi": 65,
                    "time": 259.6875,
                    "velocity": 0.4881889763779528,
                    "duration": 0.3125
                },
                {
                    "name": "B3",
                    "midi": 59,
                    "time": 260.3125,
                    "velocity": 0.4881889763779528,
                    "duration": 0.3125
                },
                {
                    "name": "D4",
                    "midi": 62,
                    "time": 260.625,
                    "velocity": 0.4881889763779528,
                    "duration": 0.3125
                },
                {
                    "name": "F#4",
                    "midi": 66,
                    "time": 260.625,
                    "velocity": 0.4881889763779528,
                    "duration": 0.3125
                },
                {
                    "name": "A4",
                    "midi": 69,
                    "time": 260.625,
                    "velocity": 0.4881889763779528,
                    "duration": 0.3125
                },
                {
                    "name": "A3",
                    "midi": 57,
                    "time": 261.25,
                    "velocity": 0.4881889763779528,
                    "duration": 0.3125
                },
                {
                    "name": "A#3",
                    "midi": 58,
                    "time": 261.5625,
                    "velocity": 0.4881889763779528,
                    "duration": 0.3125
                },
                {
                    "name": "D#4",
                    "midi": 63,
                    "time": 261.5625,
                    "velocity": 0.4881889763779528,
                    "duration": 0.3125
                },
                {
                    "name": "G4",
                    "midi": 67,
                    "time": 261.5625,
                    "velocity": 0.4881889763779528,
                    "duration": 0.3125
                },
                {
                    "name": "G#3",
                    "midi": 56,
                    "time": 262.1875,
                    "velocity": 0.4881889763779528,
                    "duration": 0.3125
                },
                {
                    "name": "C#4",
                    "midi": 61,
                    "time": 262.1875,
                    "velocity": 0.4881889763779528,
                    "duration": 0.3125
                },
                {
                    "name": "F4",
                    "midi": 65,
                    "time": 262.1875,
                    "velocity": 0.4881889763779528,
                    "duration": 0.3125
                },
                {
                    "name": "A3",
                    "midi": 57,
                    "time": 262.5,
                    "velocity": 0.4881889763779528,
                    "duration": 0.3125
                },
                {
                    "name": "C4",
                    "midi": 60,
                    "time": 262.5,
                    "velocity": 0.4881889763779528,
                    "duration": 0.3125
                },
                {
                    "name": "E4",
                    "midi": 64,
                    "time": 262.5,
                    "velocity": 0.4881889763779528,
                    "duration": 0.3125
                },
                {
                    "name": "D4",
                    "midi": 62,
                    "time": 262.8125,
                    "velocity": 0.4881889763779528,
                    "duration": 0.3125
                },
                {
                    "name": "F#4",
                    "midi": 66,
                    "time": 262.8125,
                    "velocity": 0.4881889763779528,
                    "duration": 0.3125
                },
                {
                    "name": "A3",
                    "midi": 57,
                    "time": 263.125,
                    "velocity": 0.4881889763779528,
                    "duration": 0.625
                },
                {
                    "name": "C4",
                    "midi": 60,
                    "time": 263.125,
                    "velocity": 0.4881889763779528,
                    "duration": 0.625
                },
                {
                    "name": "E4",
                    "midi": 64,
                    "time": 263.125,
                    "velocity": 0.4881889763779528,
                    "duration": 0.625
                },
                {
                    "name": "D4",
                    "midi": 62,
                    "time": 263.75,
                    "velocity": 0.4881889763779528,
                    "duration": 0.3125
                },
                {
                    "name": "F#4",
                    "midi": 66,
                    "time": 263.75,
                    "velocity": 0.4881889763779528,
                    "duration": 0.3125
                },
                {
                    "name": "F#3",
                    "midi": 54,
                    "time": 264.0625,
                    "velocity": 0.4881889763779528,
                    "duration": 0.9375
                },
                {
                    "name": "A3",
                    "midi": 57,
                    "time": 264.0625,
                    "velocity": 0.4881889763779528,
                    "duration": 0.9375
                },
                {
                    "name": "C4",
                    "midi": 60,
                    "time": 264.0625,
                    "velocity": 0.4881889763779528,
                    "duration": 0.9375
                },
                {
                    "name": "E4",
                    "midi": 64,
                    "time": 264.0625,
                    "velocity": 0.4881889763779528,
                    "duration": 0.9375
                },
                {
                    "name": "E4",
                    "midi": 64,
                    "time": 265.3125,
                    "velocity": 0.4881889763779528,
                    "duration": 0.3125
                },
                {
                    "name": "G4",
                    "midi": 67,
                    "time": 265.625,
                    "velocity": 0.4881889763779528,
                    "duration": 0.3125
                },
                {
                    "name": "B4",
                    "midi": 71,
                    "time": 265.625,
                    "velocity": 0.4881889763779528,
                    "duration": 0.3125
                },
                {
                    "name": "D5",
                    "midi": 74,
                    "time": 265.625,
                    "velocity": 0.4881889763779528,
                    "duration": 0.3125
                },
                {
                    "name": "D4",
                    "midi": 62,
                    "time": 266.25,
                    "velocity": 0.4881889763779528,
                    "duration": 0.3125
                },
                {
                    "name": "E4",
                    "midi": 64,
                    "time": 266.5625,
                    "velocity": 0.4881889763779528,
                    "duration": 0.3125
                },
                {
                    "name": "G4",
                    "midi": 67,
                    "time": 266.5625,
                    "velocity": 0.4881889763779528,
                    "duration": 0.3125
                },
                {
                    "name": "B4",
                    "midi": 71,
                    "time": 266.5625,
                    "velocity": 0.4881889763779528,
                    "duration": 0.3125
                },
                {
                    "name": "C4",
                    "midi": 60,
                    "time": 267.1875,
                    "velocity": 0.4881889763779528,
                    "duration": 0.3125
                },
                {
                    "name": "F4",
                    "midi": 65,
                    "time": 267.1875,
                    "velocity": 0.4881889763779528,
                    "duration": 0.3125
                },
                {
                    "name": "A4",
                    "midi": 69,
                    "time": 267.1875,
                    "velocity": 0.4881889763779528,
                    "duration": 0.3125
                },
                {
                    "name": "E4",
                    "midi": 64,
                    "time": 267.8125,
                    "velocity": 0.4881889763779528,
                    "duration": 0.3125
                },
                {
                    "name": "G4",
                    "midi": 67,
                    "time": 268.125,
                    "velocity": 0.4881889763779528,
                    "duration": 0.3125
                },
                {
                    "name": "B4",
                    "midi": 71,
                    "time": 268.125,
                    "velocity": 0.4881889763779528,
                    "duration": 0.3125
                },
                {
                    "name": "D5",
                    "midi": 74,
                    "time": 268.125,
                    "velocity": 0.4881889763779528,
                    "duration": 0.3125
                },
                {
                    "name": "D4",
                    "midi": 62,
                    "time": 268.75,
                    "velocity": 0.4881889763779528,
                    "duration": 0.3125
                },
                {
                    "name": "E4",
                    "midi": 64,
                    "time": 269.0625,
                    "velocity": 0.4881889763779528,
                    "duration": 0.3125
                },
                {
                    "name": "G4",
                    "midi": 67,
                    "time": 269.0625,
                    "velocity": 0.4881889763779528,
                    "duration": 0.3125
                },
                {
                    "name": "B4",
                    "midi": 71,
                    "time": 269.0625,
                    "velocity": 0.4881889763779528,
                    "duration": 0.3125
                },
                {
                    "name": "C4",
                    "midi": 60,
                    "time": 269.6875,
                    "velocity": 0.4881889763779528,
                    "duration": 0.3125
                },
                {
                    "name": "F4",
                    "midi": 65,
                    "time": 269.6875,
                    "velocity": 0.4881889763779528,
                    "duration": 0.3125
                },
                {
                    "name": "A4",
                    "midi": 69,
                    "time": 269.6875,
                    "velocity": 0.4881889763779528,
                    "duration": 0.3125
                },
                {
                    "name": "E4",
                    "midi": 64,
                    "time": 270.3125,
                    "velocity": 0.4881889763779528,
                    "duration": 0.3125
                },
                {
                    "name": "G4",
                    "midi": 67,
                    "time": 270.625,
                    "velocity": 0.4881889763779528,
                    "duration": 0.3125
                },
                {
                    "name": "B4",
                    "midi": 71,
                    "time": 270.625,
                    "velocity": 0.4881889763779528,
                    "duration": 0.3125
                },
                {
                    "name": "D5",
                    "midi": 74,
                    "time": 270.625,
                    "velocity": 0.4881889763779528,
                    "duration": 0.3125
                },
                {
                    "name": "D4",
                    "midi": 62,
                    "time": 271.25,
                    "velocity": 0.4881889763779528,
                    "duration": 0.3125
                },
                {
                    "name": "E4",
                    "midi": 64,
                    "time": 271.5625,
                    "velocity": 0.4881889763779528,
                    "duration": 0.3125
                },
                {
                    "name": "G4",
                    "midi": 67,
                    "time": 271.5625,
                    "velocity": 0.4881889763779528,
                    "duration": 0.3125
                },
                {
                    "name": "B4",
                    "midi": 71,
                    "time": 271.5625,
                    "velocity": 0.4881889763779528,
                    "duration": 0.3125
                },
                {
                    "name": "C4",
                    "midi": 60,
                    "time": 272.1875,
                    "velocity": 0.4881889763779528,
                    "duration": 0.3125
                },
                {
                    "name": "F4",
                    "midi": 65,
                    "time": 272.1875,
                    "velocity": 0.4881889763779528,
                    "duration": 0.3125
                },
                {
                    "name": "A4",
                    "midi": 69,
                    "time": 272.1875,
                    "velocity": 0.4881889763779528,
                    "duration": 0.3125
                },
                {
                    "name": "A3",
                    "midi": 57,
                    "time": 272.5,
                    "velocity": 0.4881889763779528,
                    "duration": 0.625
                },
                {
                    "name": "A4",
                    "midi": 69,
                    "time": 272.5,
                    "velocity": 0.4881889763779528,
                    "duration": 0.625
                },
                {
                    "name": "B3",
                    "midi": 59,
                    "time": 273.125,
                    "velocity": 0.4881889763779528,
                    "duration": 0.625
                },
                {
                    "name": "B4",
                    "midi": 71,
                    "time": 273.125,
                    "velocity": 0.4881889763779528,
                    "duration": 0.625
                },
                {
                    "name": "C#4",
                    "midi": 61,
                    "time": 273.75,
                    "velocity": 0.4881889763779528,
                    "duration": 0.625
                },
                {
                    "name": "C#5",
                    "midi": 73,
                    "time": 273.75,
                    "velocity": 0.4881889763779528,
                    "duration": 0.625
                },
                {
                    "name": "D4",
                    "midi": 62,
                    "time": 274.375,
                    "velocity": 0.4881889763779528,
                    "duration": 0.625
                },
                {
                    "name": "D5",
                    "midi": 74,
                    "time": 274.375,
                    "velocity": 0.4881889763779528,
                    "duration": 0.625
                },
                {
                    "name": "F#4",
                    "midi": 66,
                    "time": 275.3125,
                    "velocity": 0.4881889763779528,
                    "duration": 0.3125
                },
                {
                    "name": "A4",
                    "midi": 69,
                    "time": 275.625,
                    "velocity": 0.4881889763779528,
                    "duration": 0.3125
                },
                {
                    "name": "C#5",
                    "midi": 73,
                    "time": 275.625,
                    "velocity": 0.4881889763779528,
                    "duration": 0.3125
                },
                {
                    "name": "E5",
                    "midi": 76,
                    "time": 275.625,
                    "velocity": 0.4881889763779528,
                    "duration": 0.3125
                },
                {
                    "name": "E4",
                    "midi": 64,
                    "time": 276.25,
                    "velocity": 0.4881889763779528,
                    "duration": 0.3125
                },
                {
                    "name": "F4",
                    "midi": 65,
                    "time": 276.5625,
                    "velocity": 0.4881889763779528,
                    "duration": 0.3125
                },
                {
                    "name": "A#4",
                    "midi": 70,
                    "time": 276.5625,
                    "velocity": 0.4881889763779528,
                    "duration": 0.3125
                },
                {
                    "name": "D5",
                    "midi": 74,
                    "time": 276.5625,
                    "velocity": 0.4881889763779528,
                    "duration": 0.3125
                },
                {
                    "name": "D#4",
                    "midi": 63,
                    "time": 277.1875,
                    "velocity": 0.4881889763779528,
                    "duration": 0.3125
                },
                {
                    "name": "G#4",
                    "midi": 68,
                    "time": 277.1875,
                    "velocity": 0.4881889763779528,
                    "duration": 0.3125
                },
                {
                    "name": "C5",
                    "midi": 72,
                    "time": 277.1875,
                    "velocity": 0.4881889763779528,
                    "duration": 0.3125
                },
                {
                    "name": "G4",
                    "midi": 67,
                    "time": 277.5,
                    "velocity": 0.6929133858267716,
                    "duration": 0.3125
                },
                {
                    "name": "B4",
                    "midi": 71,
                    "time": 277.5,
                    "velocity": 0.6929133858267716,
                    "duration": 0.3125
                },
                {
                    "name": "E5",
                    "midi": 76,
                    "time": 277.5,
                    "velocity": 0.6929133858267716,
                    "duration": 0.3125
                },
                {
                    "name": "F#4",
                    "midi": 66,
                    "time": 278.125,
                    "velocity": 0.6929133858267716,
                    "duration": 0.3125
                },
                {
                    "name": "A#4",
                    "midi": 70,
                    "time": 278.125,
                    "velocity": 0.6929133858267716,
                    "duration": 0.3125
                },
                {
                    "name": "E5",
                    "midi": 76,
                    "time": 278.125,
                    "velocity": 0.6929133858267716,
                    "duration": 0.3125
                },
                {
                    "name": "F#4",
                    "midi": 66,
                    "time": 278.75,
                    "velocity": 0.6929133858267716,
                    "duration": 0.3125
                },
                {
                    "name": "A#4",
                    "midi": 70,
                    "time": 278.75,
                    "velocity": 0.6929133858267716,
                    "duration": 0.3125
                },
                {
                    "name": "E5",
                    "midi": 76,
                    "time": 278.75,
                    "velocity": 0.6929133858267716,
                    "duration": 0.3125
                },
                {
                    "name": "G4",
                    "midi": 67,
                    "time": 279.375,
                    "velocity": 0.6929133858267716,
                    "duration": 0.3125
                },
                {
                    "name": "B4",
                    "midi": 71,
                    "time": 279.375,
                    "velocity": 0.6929133858267716,
                    "duration": 0.3125
                },
                {
                    "name": "D5",
                    "midi": 74,
                    "time": 279.375,
                    "velocity": 0.6929133858267716,
                    "duration": 0.3125
                },
                {
                    "name": "F#4",
                    "midi": 66,
                    "time": 280,
                    "velocity": 0.4881889763779528,
                    "duration": 1.25
                },
                {
                    "name": "B4",
                    "midi": 71,
                    "time": 281.25,
                    "velocity": 0.4881889763779528,
                    "duration": 1.25
                },
                {
                    "name": "F#4",
                    "midi": 66,
                    "time": 282.5,
                    "velocity": 0.4881889763779528,
                    "duration": 2.5
                },
                {
                    "name": "E4",
                    "midi": 64,
                    "time": 285,
                    "velocity": 0.4881889763779528,
                    "duration": 1.25
                },
                {
                    "name": "C4",
                    "midi": 60,
                    "time": 285.625,
                    "velocity": 0.4881889763779528,
                    "duration": 0.625
                },
                {
                    "name": "A4",
                    "midi": 69,
                    "time": 286.25,
                    "velocity": 0.4881889763779528,
                    "duration": 1.25
                },
                {
                    "name": "C4",
                    "midi": 60,
                    "time": 286.875,
                    "velocity": 0.4881889763779528,
                    "duration": 0.625
                },
                {
                    "name": "E4",
                    "midi": 64,
                    "time": 287.5,
                    "velocity": 0.4881889763779528,
                    "duration": 2.5
                },
                {
                    "name": "C4",
                    "midi": 60,
                    "time": 288.125,
                    "velocity": 0.4881889763779528,
                    "duration": 0.625
                },
                {
                    "name": "A3",
                    "midi": 57,
                    "time": 288.75,
                    "velocity": 0.4881889763779528,
                    "duration": 0.625
                },
                {
                    "name": "F#3",
                    "midi": 54,
                    "time": 289.375,
                    "velocity": 0.4881889763779528,
                    "duration": 0.625
                },
                {
                    "name": "C4",
                    "midi": 60,
                    "time": 289.375,
                    "velocity": 0.4881889763779528,
                    "duration": 0.625
                },
                {
                    "name": "E4",
                    "midi": 64,
                    "time": 290.3125,
                    "velocity": 0.4881889763779528,
                    "duration": 0.3125
                },
                {
                    "name": "G4",
                    "midi": 67,
                    "time": 290.625,
                    "velocity": 0.4881889763779528,
                    "duration": 0.3125
                },
                {
                    "name": "B4",
                    "midi": 71,
                    "time": 290.625,
                    "velocity": 0.4881889763779528,
                    "duration": 0.3125
                },
                {
                    "name": "D5",
                    "midi": 74,
                    "time": 290.625,
                    "velocity": 0.4881889763779528,
                    "duration": 0.3125
                },
                {
                    "name": "D4",
                    "midi": 62,
                    "time": 291.25,
                    "velocity": 0.4881889763779528,
                    "duration": 0.3125
                },
                {
                    "name": "D#4",
                    "midi": 63,
                    "time": 291.5625,
                    "velocity": 0.4881889763779528,
                    "duration": 0.3125
                },
                {
                    "name": "G#4",
                    "midi": 68,
                    "time": 291.5625,
                    "velocity": 0.4881889763779528,
                    "duration": 0.3125
                },
                {
                    "name": "C5",
                    "midi": 72,
                    "time": 291.5625,
                    "velocity": 0.4881889763779528,
                    "duration": 0.3125
                },
                {
                    "name": "C#4",
                    "midi": 61,
                    "time": 292.1875,
                    "velocity": 0.4881889763779528,
                    "duration": 0.3125
                },
                {
                    "name": "F#4",
                    "midi": 66,
                    "time": 292.1875,
                    "velocity": 0.4881889763779528,
                    "duration": 0.3125
                },
                {
                    "name": "A#4",
                    "midi": 70,
                    "time": 292.1875,
                    "velocity": 0.4881889763779528,
                    "duration": 0.3125
                },
                {
                    "name": "E4",
                    "midi": 64,
                    "time": 292.8125,
                    "velocity": 0.4881889763779528,
                    "duration": 0.3125
                },
                {
                    "name": "G4",
                    "midi": 67,
                    "time": 293.125,
                    "velocity": 0.4881889763779528,
                    "duration": 0.3125
                },
                {
                    "name": "B4",
                    "midi": 71,
                    "time": 293.125,
                    "velocity": 0.4881889763779528,
                    "duration": 0.3125
                },
                {
                    "name": "D5",
                    "midi": 74,
                    "time": 293.125,
                    "velocity": 0.4881889763779528,
                    "duration": 0.3125
                },
                {
                    "name": "D4",
                    "midi": 62,
                    "time": 293.75,
                    "velocity": 0.4881889763779528,
                    "duration": 0.3125
                },
                {
                    "name": "D#4",
                    "midi": 63,
                    "time": 294.0625,
                    "velocity": 0.4881889763779528,
                    "duration": 0.3125
                },
                {
                    "name": "G#4",
                    "midi": 68,
                    "time": 294.0625,
                    "velocity": 0.4881889763779528,
                    "duration": 0.3125
                },
                {
                    "name": "C5",
                    "midi": 72,
                    "time": 294.0625,
                    "velocity": 0.4881889763779528,
                    "duration": 0.3125
                },
                {
                    "name": "C#4",
                    "midi": 61,
                    "time": 294.6875,
                    "velocity": 0.4881889763779528,
                    "duration": 0.3125
                },
                {
                    "name": "F#4",
                    "midi": 66,
                    "time": 294.6875,
                    "velocity": 0.4881889763779528,
                    "duration": 0.3125
                },
                {
                    "name": "A#4",
                    "midi": 70,
                    "time": 294.6875,
                    "velocity": 0.4881889763779528,
                    "duration": 0.3125
                },
                {
                    "name": "E4",
                    "midi": 64,
                    "time": 295.3125,
                    "velocity": 0.4881889763779528,
                    "duration": 0.3125
                },
                {
                    "name": "G4",
                    "midi": 67,
                    "time": 295.625,
                    "velocity": 0.4881889763779528,
                    "duration": 0.3125
                },
                {
                    "name": "B4",
                    "midi": 71,
                    "time": 295.625,
                    "velocity": 0.4881889763779528,
                    "duration": 0.3125
                },
                {
                    "name": "D5",
                    "midi": 74,
                    "time": 295.625,
                    "velocity": 0.4881889763779528,
                    "duration": 0.3125
                },
                {
                    "name": "D4",
                    "midi": 62,
                    "time": 296.25,
                    "velocity": 0.4881889763779528,
                    "duration": 0.3125
                },
                {
                    "name": "D#4",
                    "midi": 63,
                    "time": 296.5625,
                    "velocity": 0.4881889763779528,
                    "duration": 0.3125
                },
                {
                    "name": "G#4",
                    "midi": 68,
                    "time": 296.5625,
                    "velocity": 0.4881889763779528,
                    "duration": 0.3125
                },
                {
                    "name": "C5",
                    "midi": 72,
                    "time": 296.5625,
                    "velocity": 0.4881889763779528,
                    "duration": 0.3125
                },
                {
                    "name": "C#4",
                    "midi": 61,
                    "time": 297.1875,
                    "velocity": 0.4881889763779528,
                    "duration": 0.3125
                },
                {
                    "name": "F#4",
                    "midi": 66,
                    "time": 297.1875,
                    "velocity": 0.4881889763779528,
                    "duration": 0.3125
                },
                {
                    "name": "A#4",
                    "midi": 70,
                    "time": 297.1875,
                    "velocity": 0.4881889763779528,
                    "duration": 0.3125
                },
                {
                    "name": "E4",
                    "midi": 64,
                    "time": 297.8125,
                    "velocity": 0.4881889763779528,
                    "duration": 0.3125
                },
                {
                    "name": "G4",
                    "midi": 67,
                    "time": 298.125,
                    "velocity": 0.4881889763779528,
                    "duration": 0.3125
                },
                {
                    "name": "B4",
                    "midi": 71,
                    "time": 298.125,
                    "velocity": 0.4881889763779528,
                    "duration": 0.3125
                },
                {
                    "name": "D5",
                    "midi": 74,
                    "time": 298.125,
                    "velocity": 0.4881889763779528,
                    "duration": 0.3125
                },
                {
                    "name": "D4",
                    "midi": 62,
                    "time": 298.75,
                    "velocity": 0.4881889763779528,
                    "duration": 0.3125
                },
                {
                    "name": "D#4",
                    "midi": 63,
                    "time": 299.0625,
                    "velocity": 0.4881889763779528,
                    "duration": 0.3125
                },
                {
                    "name": "G#4",
                    "midi": 68,
                    "time": 299.0625,
                    "velocity": 0.4881889763779528,
                    "duration": 0.3125
                },
                {
                    "name": "C5",
                    "midi": 72,
                    "time": 299.0625,
                    "velocity": 0.4881889763779528,
                    "duration": 0.3125
                },
                {
                    "name": "C#4",
                    "midi": 61,
                    "time": 299.6875,
                    "velocity": 0.4881889763779528,
                    "duration": 0.3125
                },
                {
                    "name": "F#4",
                    "midi": 66,
                    "time": 299.6875,
                    "velocity": 0.4881889763779528,
                    "duration": 0.3125
                },
                {
                    "name": "A#4",
                    "midi": 70,
                    "time": 299.6875,
                    "velocity": 0.4881889763779528,
                    "duration": 0.3125
                },
                {
                    "name": "G4",
                    "midi": 67,
                    "time": 300,
                    "velocity": 0.5905511811023622,
                    "duration": 0.3125
                },
                {
                    "name": "B3",
                    "midi": 59,
                    "time": 300.3125,
                    "velocity": 0.5905511811023622,
                    "duration": 0.3125
                },
                {
                    "name": "D4",
                    "midi": 62,
                    "time": 300.625,
                    "velocity": 0.5905511811023622,
                    "duration": 0.3125
                },
                {
                    "name": "G3",
                    "midi": 55,
                    "time": 300.9375,
                    "velocity": 0.5905511811023622,
                    "duration": 0.3125
                },
                {
                    "name": "F#3",
                    "midi": 54,
                    "time": 310,
                    "velocity": 0.4881889763779528,
                    "duration": 1.25
                },
                {
                    "name": "C4",
                    "midi": 60,
                    "time": 310,
                    "velocity": 0.4881889763779528,
                    "duration": 1.25
                },
                {
                    "name": "D4",
                    "midi": 62,
                    "time": 310,
                    "velocity": 0.4881889763779528,
                    "duration": 1.25
                },
                {
                    "name": "F#3",
                    "midi": 54,
                    "time": 311.25,
                    "velocity": 0.4881889763779528,
                    "duration": 1.25
                },
                {
                    "name": "C4",
                    "midi": 60,
                    "time": 311.25,
                    "velocity": 0.4881889763779528,
                    "duration": 1.25
                },
                {
                    "name": "D4",
                    "midi": 62,
                    "time": 311.25,
                    "velocity": 0.4881889763779528,
                    "duration": 1.25
                },
                {
                    "name": "G3",
                    "midi": 55,
                    "time": 312.5,
                    "velocity": 0.4881889763779528,
                    "duration": 0.9375
                },
                {
                    "name": "C4",
                    "midi": 60,
                    "time": 312.5,
                    "velocity": 0.4881889763779528,
                    "duration": 0.9375
                },
                {
                    "name": "E4",
                    "midi": 64,
                    "time": 312.5,
                    "velocity": 0.4881889763779528,
                    "duration": 0.9375
                },
                {
                    "name": "B3",
                    "midi": 59,
                    "time": 313.4375,
                    "velocity": 0.4881889763779528,
                    "duration": 0.625
                },
                {
                    "name": "E4",
                    "midi": 64,
                    "time": 313.4375,
                    "velocity": 0.4881889763779528,
                    "duration": 0.625
                },
                {
                    "name": "G4",
                    "midi": 67,
                    "time": 313.4375,
                    "velocity": 0.4881889763779528,
                    "duration": 0.625
                },
                {
                    "name": "A3",
                    "midi": 57,
                    "time": 314.0625,
                    "velocity": 0.4881889763779528,
                    "duration": 0.9375
                },
                {
                    "name": "D4",
                    "midi": 62,
                    "time": 314.0625,
                    "velocity": 0.4881889763779528,
                    "duration": 0.9375
                },
                {
                    "name": "F#4",
                    "midi": 66,
                    "time": 314.0625,
                    "velocity": 0.4881889763779528,
                    "duration": 0.9375
                },
                {
                    "name": "F#3",
                    "midi": 54,
                    "time": 315,
                    "velocity": 0.4881889763779528,
                    "duration": 1.25
                },
                {
                    "name": "C4",
                    "midi": 60,
                    "time": 315,
                    "velocity": 0.4881889763779528,
                    "duration": 1.25
                },
                {
                    "name": "D4",
                    "midi": 62,
                    "time": 315,
                    "velocity": 0.4881889763779528,
                    "duration": 1.25
                },
                {
                    "name": "F#3",
                    "midi": 54,
                    "time": 316.25,
                    "velocity": 0.4881889763779528,
                    "duration": 1.25
                },
                {
                    "name": "C4",
                    "midi": 60,
                    "time": 316.25,
                    "velocity": 0.4881889763779528,
                    "duration": 1.25
                },
                {
                    "name": "D4",
                    "midi": 62,
                    "time": 316.25,
                    "velocity": 0.4881889763779528,
                    "duration": 1.25
                },
                {
                    "name": "G3",
                    "midi": 55,
                    "time": 317.5,
                    "velocity": 0.4881889763779528,
                    "duration": 0.9375
                },
                {
                    "name": "C4",
                    "midi": 60,
                    "time": 317.5,
                    "velocity": 0.4881889763779528,
                    "duration": 0.9375
                },
                {
                    "name": "E4",
                    "midi": 64,
                    "time": 317.5,
                    "velocity": 0.4881889763779528,
                    "duration": 0.9375
                },
                {
                    "name": "B3",
                    "midi": 59,
                    "time": 318.4375,
                    "velocity": 0.4881889763779528,
                    "duration": 0.625
                },
                {
                    "name": "E4",
                    "midi": 64,
                    "time": 318.4375,
                    "velocity": 0.4881889763779528,
                    "duration": 0.625
                },
                {
                    "name": "G4",
                    "midi": 67,
                    "time": 318.4375,
                    "velocity": 0.4881889763779528,
                    "duration": 0.625
                },
                {
                    "name": "A3",
                    "midi": 57,
                    "time": 319.0625,
                    "velocity": 0.4881889763779528,
                    "duration": 0.9375
                },
                {
                    "name": "D4",
                    "midi": 62,
                    "time": 319.0625,
                    "velocity": 0.4881889763779528,
                    "duration": 0.9375
                },
                {
                    "name": "F#4",
                    "midi": 66,
                    "time": 319.0625,
                    "velocity": 0.4881889763779528,
                    "duration": 0.9375
                },
                {
                    "name": "F#3",
                    "midi": 54,
                    "time": 320,
                    "velocity": 0.4881889763779528,
                    "duration": 1.25
                },
                {
                    "name": "C4",
                    "midi": 60,
                    "time": 320,
                    "velocity": 0.4881889763779528,
                    "duration": 1.25
                },
                {
                    "name": "D4",
                    "midi": 62,
                    "time": 320,
                    "velocity": 0.4881889763779528,
                    "duration": 1.25
                },
                {
                    "name": "F#3",
                    "midi": 54,
                    "time": 321.25,
                    "velocity": 0.4881889763779528,
                    "duration": 1.25
                },
                {
                    "name": "C4",
                    "midi": 60,
                    "time": 321.25,
                    "velocity": 0.4881889763779528,
                    "duration": 1.25
                },
                {
                    "name": "D4",
                    "midi": 62,
                    "time": 321.25,
                    "velocity": 0.4881889763779528,
                    "duration": 1.25
                },
                {
                    "name": "G3",
                    "midi": 55,
                    "time": 322.5,
                    "velocity": 0.4881889763779528,
                    "duration": 0.9375
                },
                {
                    "name": "C4",
                    "midi": 60,
                    "time": 322.5,
                    "velocity": 0.4881889763779528,
                    "duration": 0.9375
                },
                {
                    "name": "E4",
                    "midi": 64,
                    "time": 322.5,
                    "velocity": 0.4881889763779528,
                    "duration": 0.9375
                },
                {
                    "name": "B3",
                    "midi": 59,
                    "time": 323.4375,
                    "velocity": 0.4881889763779528,
                    "duration": 0.625
                },
                {
                    "name": "E4",
                    "midi": 64,
                    "time": 323.4375,
                    "velocity": 0.4881889763779528,
                    "duration": 0.625
                },
                {
                    "name": "G4",
                    "midi": 67,
                    "time": 323.4375,
                    "velocity": 0.4881889763779528,
                    "duration": 0.625
                },
                {
                    "name": "A3",
                    "midi": 57,
                    "time": 324.0625,
                    "velocity": 0.4881889763779528,
                    "duration": 0.9375
                },
                {
                    "name": "D4",
                    "midi": 62,
                    "time": 324.0625,
                    "velocity": 0.4881889763779528,
                    "duration": 0.9375
                },
                {
                    "name": "F#4",
                    "midi": 66,
                    "time": 324.0625,
                    "velocity": 0.4881889763779528,
                    "duration": 0.9375
                },
                {
                    "name": "F#3",
                    "midi": 54,
                    "time": 325,
                    "velocity": 0.4881889763779528,
                    "duration": 1.25
                },
                {
                    "name": "C4",
                    "midi": 60,
                    "time": 325,
                    "velocity": 0.4881889763779528,
                    "duration": 1.25
                },
                {
                    "name": "D4",
                    "midi": 62,
                    "time": 325,
                    "velocity": 0.4881889763779528,
                    "duration": 1.25
                },
                {
                    "name": "F#3",
                    "midi": 54,
                    "time": 326.25,
                    "velocity": 0.4881889763779528,
                    "duration": 1.25
                },
                {
                    "name": "C4",
                    "midi": 60,
                    "time": 326.25,
                    "velocity": 0.4881889763779528,
                    "duration": 1.25
                },
                {
                    "name": "D4",
                    "midi": 62,
                    "time": 326.25,
                    "velocity": 0.4881889763779528,
                    "duration": 1.25
                },
                {
                    "name": "G3",
                    "midi": 55,
                    "time": 327.5,
                    "velocity": 0.4881889763779528,
                    "duration": 0.9375
                },
                {
                    "name": "C4",
                    "midi": 60,
                    "time": 327.5,
                    "velocity": 0.4881889763779528,
                    "duration": 0.9375
                },
                {
                    "name": "E4",
                    "midi": 64,
                    "time": 327.5,
                    "velocity": 0.4881889763779528,
                    "duration": 0.9375
                },
                {
                    "name": "B3",
                    "midi": 59,
                    "time": 328.4375,
                    "velocity": 0.6929133858267716,
                    "duration": 0.625
                },
                {
                    "name": "E4",
                    "midi": 64,
                    "time": 328.4375,
                    "velocity": 0.6929133858267716,
                    "duration": 0.625
                },
                {
                    "name": "G4",
                    "midi": 67,
                    "time": 328.4375,
                    "velocity": 0.6929133858267716,
                    "duration": 0.625
                },
                {
                    "name": "A3",
                    "midi": 57,
                    "time": 329.0625,
                    "velocity": 0.4881889763779528,
                    "duration": 0.9375
                },
                {
                    "name": "D4",
                    "midi": 62,
                    "time": 329.0625,
                    "velocity": 0.4881889763779528,
                    "duration": 0.9375
                },
                {
                    "name": "F#4",
                    "midi": 66,
                    "time": 329.0625,
                    "velocity": 0.4881889763779528,
                    "duration": 0.9375
                },
                {
                    "name": "B3",
                    "midi": 59,
                    "time": 330,
                    "velocity": 0.4881889763779528,
                    "duration": 1.25
                },
                {
                    "name": "F4",
                    "midi": 65,
                    "time": 330,
                    "velocity": 0.4881889763779528,
                    "duration": 1.25
                },
                {
                    "name": "G4",
                    "midi": 67,
                    "time": 330,
                    "velocity": 0.4881889763779528,
                    "duration": 1.25
                },
                {
                    "name": "B3",
                    "midi": 59,
                    "time": 331.25,
                    "velocity": 0.4881889763779528,
                    "duration": 1.25
                },
                {
                    "name": "F4",
                    "midi": 65,
                    "time": 331.25,
                    "velocity": 0.4881889763779528,
                    "duration": 1.25
                },
                {
                    "name": "G4",
                    "midi": 67,
                    "time": 331.25,
                    "velocity": 0.4881889763779528,
                    "duration": 1.25
                },
                {
                    "name": "C4",
                    "midi": 60,
                    "time": 332.5,
                    "velocity": 0.4881889763779528,
                    "duration": 0.9375
                },
                {
                    "name": "F4",
                    "midi": 65,
                    "time": 332.5,
                    "velocity": 0.4881889763779528,
                    "duration": 0.9375
                },
                {
                    "name": "A4",
                    "midi": 69,
                    "time": 332.5,
                    "velocity": 0.4881889763779528,
                    "duration": 0.9375
                },
                {
                    "name": "E4",
                    "midi": 64,
                    "time": 333.4375,
                    "velocity": 0.6929133858267716,
                    "duration": 0.625
                },
                {
                    "name": "A4",
                    "midi": 69,
                    "time": 333.4375,
                    "velocity": 0.6929133858267716,
                    "duration": 0.625
                },
                {
                    "name": "C5",
                    "midi": 72,
                    "time": 333.4375,
                    "velocity": 0.6929133858267716,
                    "duration": 0.625
                },
                {
                    "name": "D4",
                    "midi": 62,
                    "time": 334.0625,
                    "velocity": 0.4881889763779528,
                    "duration": 0.9375
                },
                {
                    "name": "G4",
                    "midi": 67,
                    "time": 334.0625,
                    "velocity": 0.4881889763779528,
                    "duration": 0.9375
                },
                {
                    "name": "B4",
                    "midi": 71,
                    "time": 334.0625,
                    "velocity": 0.4881889763779528,
                    "duration": 0.9375
                },
                {
                    "name": "F#3",
                    "midi": 54,
                    "time": 335,
                    "velocity": 0.4881889763779528,
                    "duration": 1.25
                },
                {
                    "name": "C4",
                    "midi": 60,
                    "time": 335,
                    "velocity": 0.4881889763779528,
                    "duration": 1.25
                },
                {
                    "name": "D4",
                    "midi": 62,
                    "time": 335,
                    "velocity": 0.4881889763779528,
                    "duration": 1.25
                },
                {
                    "name": "F#3",
                    "midi": 54,
                    "time": 336.25,
                    "velocity": 0.4881889763779528,
                    "duration": 1.25
                },
                {
                    "name": "C4",
                    "midi": 60,
                    "time": 336.25,
                    "velocity": 0.4881889763779528,
                    "duration": 1.25
                },
                {
                    "name": "D4",
                    "midi": 62,
                    "time": 336.25,
                    "velocity": 0.4881889763779528,
                    "duration": 1.25
                },
                {
                    "name": "G3",
                    "midi": 55,
                    "time": 337.5,
                    "velocity": 0.4881889763779528,
                    "duration": 0.9375
                },
                {
                    "name": "C4",
                    "midi": 60,
                    "time": 337.5,
                    "velocity": 0.4881889763779528,
                    "duration": 0.9375
                },
                {
                    "name": "E4",
                    "midi": 64,
                    "time": 337.5,
                    "velocity": 0.4881889763779528,
                    "duration": 0.9375
                },
                {
                    "name": "B3",
                    "midi": 59,
                    "time": 338.4375,
                    "velocity": 0.4881889763779528,
                    "duration": 0.625
                },
                {
                    "name": "E4",
                    "midi": 64,
                    "time": 338.4375,
                    "velocity": 0.4881889763779528,
                    "duration": 0.625
                },
                {
                    "name": "G4",
                    "midi": 67,
                    "time": 338.4375,
                    "velocity": 0.4881889763779528,
                    "duration": 0.625
                },
                {
                    "name": "A3",
                    "midi": 57,
                    "time": 339.0625,
                    "velocity": 0.4881889763779528,
                    "duration": 0.9375
                },
                {
                    "name": "D4",
                    "midi": 62,
                    "time": 339.0625,
                    "velocity": 0.4881889763779528,
                    "duration": 0.9375
                },
                {
                    "name": "F#4",
                    "midi": 66,
                    "time": 339.0625,
                    "velocity": 0.4881889763779528,
                    "duration": 0.9375
                },
                {
                    "name": "B3",
                    "midi": 59,
                    "time": 340,
                    "velocity": 0.4881889763779528,
                    "duration": 1.25
                },
                {
                    "name": "F4",
                    "midi": 65,
                    "time": 340,
                    "velocity": 0.4881889763779528,
                    "duration": 1.25
                },
                {
                    "name": "G4",
                    "midi": 67,
                    "time": 340,
                    "velocity": 0.4881889763779528,
                    "duration": 1.25
                },
                {
                    "name": "B3",
                    "midi": 59,
                    "time": 341.25,
                    "velocity": 0.4881889763779528,
                    "duration": 1.25
                },
                {
                    "name": "F4",
                    "midi": 65,
                    "time": 341.25,
                    "velocity": 0.4881889763779528,
                    "duration": 1.25
                },
                {
                    "name": "G4",
                    "midi": 67,
                    "time": 341.25,
                    "velocity": 0.4881889763779528,
                    "duration": 1.25
                },
                {
                    "name": "C4",
                    "midi": 60,
                    "time": 342.5,
                    "velocity": 0.4881889763779528,
                    "duration": 0.9375
                },
                {
                    "name": "F4",
                    "midi": 65,
                    "time": 342.5,
                    "velocity": 0.4881889763779528,
                    "duration": 0.9375
                },
                {
                    "name": "A4",
                    "midi": 69,
                    "time": 342.5,
                    "velocity": 0.4881889763779528,
                    "duration": 0.9375
                },
                {
                    "name": "E4",
                    "midi": 64,
                    "time": 343.4375,
                    "velocity": 0.6929133858267716,
                    "duration": 0.625
                },
                {
                    "name": "A4",
                    "midi": 69,
                    "time": 343.4375,
                    "velocity": 0.6929133858267716,
                    "duration": 0.625
                },
                {
                    "name": "C5",
                    "midi": 72,
                    "time": 343.4375,
                    "velocity": 0.6929133858267716,
                    "duration": 0.625
                },
                {
                    "name": "D4",
                    "midi": 62,
                    "time": 344.0625,
                    "velocity": 0.4881889763779528,
                    "duration": 0.9375
                },
                {
                    "name": "G4",
                    "midi": 67,
                    "time": 344.0625,
                    "velocity": 0.4881889763779528,
                    "duration": 0.9375
                },
                {
                    "name": "B4",
                    "midi": 71,
                    "time": 344.0625,
                    "velocity": 0.4881889763779528,
                    "duration": 0.9375
                },
                {
                    "name": "F#3",
                    "midi": 54,
                    "time": 345,
                    "velocity": 0.4881889763779528,
                    "duration": 1.25
                },
                {
                    "name": "C4",
                    "midi": 60,
                    "time": 345,
                    "velocity": 0.4881889763779528,
                    "duration": 1.25
                },
                {
                    "name": "D4",
                    "midi": 62,
                    "time": 345,
                    "velocity": 0.4881889763779528,
                    "duration": 1.25
                },
                {
                    "name": "F#3",
                    "midi": 54,
                    "time": 346.25,
                    "velocity": 0.4881889763779528,
                    "duration": 1.25
                },
                {
                    "name": "C4",
                    "midi": 60,
                    "time": 346.25,
                    "velocity": 0.4881889763779528,
                    "duration": 1.25
                },
                {
                    "name": "D4",
                    "midi": 62,
                    "time": 346.25,
                    "velocity": 0.4881889763779528,
                    "duration": 1.25
                },
                {
                    "name": "G3",
                    "midi": 55,
                    "time": 347.5,
                    "velocity": 0.4881889763779528,
                    "duration": 1.25
                },
                {
                    "name": "C#4",
                    "midi": 61,
                    "time": 347.5,
                    "velocity": 0.4881889763779528,
                    "duration": 1.25
                },
                {
                    "name": "D#4",
                    "midi": 63,
                    "time": 347.5,
                    "velocity": 0.4881889763779528,
                    "duration": 1.25
                },
                {
                    "name": "G3",
                    "midi": 55,
                    "time": 348.75,
                    "velocity": 0.4881889763779528,
                    "duration": 1.25
                },
                {
                    "name": "C#4",
                    "midi": 61,
                    "time": 348.75,
                    "velocity": 0.4881889763779528,
                    "duration": 1.25
                },
                {
                    "name": "D#4",
                    "midi": 63,
                    "time": 348.75,
                    "velocity": 0.4881889763779528,
                    "duration": 1.25
                },
                {
                    "name": "G#3",
                    "midi": 56,
                    "time": 350,
                    "velocity": 0.4881889763779528,
                    "duration": 0.9375
                },
                {
                    "name": "C#4",
                    "midi": 61,
                    "time": 350,
                    "velocity": 0.4881889763779528,
                    "duration": 0.9375
                },
                {
                    "name": "F4",
                    "midi": 65,
                    "time": 350,
                    "velocity": 0.4881889763779528,
                    "duration": 0.9375
                },
                {
                    "name": "C4",
                    "midi": 60,
                    "time": 350.9375,
                    "velocity": 0.6929133858267716,
                    "duration": 0.625
                },
                {
                    "name": "F4",
                    "midi": 65,
                    "time": 350.9375,
                    "velocity": 0.6929133858267716,
                    "duration": 0.625
                },
                {
                    "name": "G#4",
                    "midi": 68,
                    "time": 350.9375,
                    "velocity": 0.6929133858267716,
                    "duration": 0.625
                },
                {
                    "name": "A#3",
                    "midi": 58,
                    "time": 351.5625,
                    "velocity": 0.4881889763779528,
                    "duration": 0.9375
                },
                {
                    "name": "D#4",
                    "midi": 63,
                    "time": 351.5625,
                    "velocity": 0.4881889763779528,
                    "duration": 0.9375
                },
                {
                    "name": "G4",
                    "midi": 67,
                    "time": 351.5625,
                    "velocity": 0.4881889763779528,
                    "duration": 0.9375
                },
                {
                    "name": "G3",
                    "midi": 55,
                    "time": 352.5,
                    "velocity": 0.4881889763779528,
                    "duration": 1.25
                },
                {
                    "name": "C#4",
                    "midi": 61,
                    "time": 352.5,
                    "velocity": 0.4881889763779528,
                    "duration": 1.25
                },
                {
                    "name": "D#4",
                    "midi": 63,
                    "time": 352.5,
                    "velocity": 0.4881889763779528,
                    "duration": 1.25
                },
                {
                    "name": "G3",
                    "midi": 55,
                    "time": 353.75,
                    "velocity": 0.4881889763779528,
                    "duration": 1.25
                },
                {
                    "name": "C#4",
                    "midi": 61,
                    "time": 353.75,
                    "velocity": 0.4881889763779528,
                    "duration": 1.25
                },
                {
                    "name": "D#4",
                    "midi": 63,
                    "time": 353.75,
                    "velocity": 0.4881889763779528,
                    "duration": 1.25
                },
                {
                    "name": "G#3",
                    "midi": 56,
                    "time": 355,
                    "velocity": 0.4881889763779528,
                    "duration": 0.9375
                },
                {
                    "name": "C#4",
                    "midi": 61,
                    "time": 355,
                    "velocity": 0.4881889763779528,
                    "duration": 0.9375
                },
                {
                    "name": "F4",
                    "midi": 65,
                    "time": 355,
                    "velocity": 0.4881889763779528,
                    "duration": 0.9375
                },
                {
                    "name": "C4",
                    "midi": 60,
                    "time": 355.9375,
                    "velocity": 0.6929133858267716,
                    "duration": 0.625
                },
                {
                    "name": "F4",
                    "midi": 65,
                    "time": 355.9375,
                    "velocity": 0.6929133858267716,
                    "duration": 0.625
                },
                {
                    "name": "G#4",
                    "midi": 68,
                    "time": 355.9375,
                    "velocity": 0.6929133858267716,
                    "duration": 0.625
                },
                {
                    "name": "A#3",
                    "midi": 58,
                    "time": 356.5625,
                    "velocity": 0.4881889763779528,
                    "duration": 0.9375
                },
                {
                    "name": "D#4",
                    "midi": 63,
                    "time": 356.5625,
                    "velocity": 0.4881889763779528,
                    "duration": 0.9375
                },
                {
                    "name": "G4",
                    "midi": 67,
                    "time": 356.5625,
                    "velocity": 0.4881889763779528,
                    "duration": 0.9375
                },
                {
                    "name": "G3",
                    "midi": 55,
                    "time": 357.5,
                    "velocity": 0.4881889763779528,
                    "duration": 1.25
                },
                {
                    "name": "C#4",
                    "midi": 61,
                    "time": 357.5,
                    "velocity": 0.4881889763779528,
                    "duration": 1.25
                },
                {
                    "name": "D#4",
                    "midi": 63,
                    "time": 357.5,
                    "velocity": 0.4881889763779528,
                    "duration": 1.25
                },
                {
                    "name": "G3",
                    "midi": 55,
                    "time": 358.75,
                    "velocity": 0.4881889763779528,
                    "duration": 1.25
                },
                {
                    "name": "C#4",
                    "midi": 61,
                    "time": 358.75,
                    "velocity": 0.4881889763779528,
                    "duration": 1.25
                },
                {
                    "name": "D#4",
                    "midi": 63,
                    "time": 358.75,
                    "velocity": 0.4881889763779528,
                    "duration": 1.25
                },
                {
                    "name": "G#3",
                    "midi": 56,
                    "time": 360,
                    "velocity": 0.4881889763779528,
                    "duration": 0.9375
                },
                {
                    "name": "C#4",
                    "midi": 61,
                    "time": 360,
                    "velocity": 0.4881889763779528,
                    "duration": 0.9375
                },
                {
                    "name": "F4",
                    "midi": 65,
                    "time": 360,
                    "velocity": 0.4881889763779528,
                    "duration": 0.9375
                },
                {
                    "name": "C4",
                    "midi": 60,
                    "time": 360.9375,
                    "velocity": 0.6929133858267716,
                    "duration": 0.625
                },
                {
                    "name": "F4",
                    "midi": 65,
                    "time": 360.9375,
                    "velocity": 0.6929133858267716,
                    "duration": 0.625
                },
                {
                    "name": "G#4",
                    "midi": 68,
                    "time": 360.9375,
                    "velocity": 0.6929133858267716,
                    "duration": 0.625
                },
                {
                    "name": "A#3",
                    "midi": 58,
                    "time": 361.5625,
                    "velocity": 0.4881889763779528,
                    "duration": 0.9375
                },
                {
                    "name": "D#4",
                    "midi": 63,
                    "time": 361.5625,
                    "velocity": 0.4881889763779528,
                    "duration": 0.9375
                },
                {
                    "name": "G4",
                    "midi": 67,
                    "time": 361.5625,
                    "velocity": 0.4881889763779528,
                    "duration": 0.9375
                },
                {
                    "name": "G3",
                    "midi": 55,
                    "time": 362.5,
                    "velocity": 0.6929133858267716,
                    "duration": 1.25
                },
                {
                    "name": "C#4",
                    "midi": 61,
                    "time": 362.5,
                    "velocity": 0.6929133858267716,
                    "duration": 1.25
                },
                {
                    "name": "D#4",
                    "midi": 63,
                    "time": 362.5,
                    "velocity": 0.6929133858267716,
                    "duration": 1.25
                },
                {
                    "name": "G3",
                    "midi": 55,
                    "time": 363.75,
                    "velocity": 0.6929133858267716,
                    "duration": 1.25
                },
                {
                    "name": "C#4",
                    "midi": 61,
                    "time": 363.75,
                    "velocity": 0.6929133858267716,
                    "duration": 1.25
                },
                {
                    "name": "D#4",
                    "midi": 63,
                    "time": 363.75,
                    "velocity": 0.6929133858267716,
                    "duration": 1.25
                },
                {
                    "name": "G3",
                    "midi": 55,
                    "time": 365,
                    "velocity": 0.6929133858267716,
                    "duration": 0.9375
                },
                {
                    "name": "C#4",
                    "midi": 61,
                    "time": 365,
                    "velocity": 0.6929133858267716,
                    "duration": 0.9375
                },
                {
                    "name": "E4",
                    "midi": 64,
                    "time": 365,
                    "velocity": 0.6929133858267716,
                    "duration": 0.9375
                },
                {
                    "name": "B3",
                    "midi": 59,
                    "time": 365.9375,
                    "velocity": 0.6929133858267716,
                    "duration": 0.625
                },
                {
                    "name": "D4",
                    "midi": 62,
                    "time": 365.9375,
                    "velocity": 0.6929133858267716,
                    "duration": 0.625
                },
                {
                    "name": "G4",
                    "midi": 67,
                    "time": 365.9375,
                    "velocity": 0.6929133858267716,
                    "duration": 0.625
                },
                {
                    "name": "A3",
                    "midi": 57,
                    "time": 366.5625,
                    "velocity": 0.4881889763779528,
                    "duration": 0.9375
                },
                {
                    "name": "C#4",
                    "midi": 61,
                    "time": 366.5625,
                    "velocity": 0.4881889763779528,
                    "duration": 0.9375
                },
                {
                    "name": "F#4",
                    "midi": 66,
                    "time": 366.5625,
                    "velocity": 0.4881889763779528,
                    "duration": 0.9375
                },
                {
                    "name": "C#4",
                    "midi": 61,
                    "time": 367.5,
                    "velocity": 0.6929133858267716,
                    "duration": 1.25
                },
                {
                    "name": "G4",
                    "midi": 67,
                    "time": 367.5,
                    "velocity": 0.6929133858267716,
                    "duration": 1.25
                },
                {
                    "name": "A4",
                    "midi": 69,
                    "time": 367.5,
                    "velocity": 0.6929133858267716,
                    "duration": 1.25
                },
                {
                    "name": "C#4",
                    "midi": 61,
                    "time": 368.75,
                    "velocity": 0.6929133858267716,
                    "duration": 1.25
                },
                {
                    "name": "G4",
                    "midi": 67,
                    "time": 368.75,
                    "velocity": 0.6929133858267716,
                    "duration": 1.25
                },
                {
                    "name": "A4",
                    "midi": 69,
                    "time": 368.75,
                    "velocity": 0.6929133858267716,
                    "duration": 1.25
                },
                {
                    "name": "D4",
                    "midi": 62,
                    "time": 370,
                    "velocity": 0.6929133858267716,
                    "duration": 0.9375
                },
                {
                    "name": "G4",
                    "midi": 67,
                    "time": 370,
                    "velocity": 0.6929133858267716,
                    "duration": 0.9375
                },
                {
                    "name": "B4",
                    "midi": 71,
                    "time": 370,
                    "velocity": 0.6929133858267716,
                    "duration": 0.9375
                },
                {
                    "name": "F#4",
                    "midi": 66,
                    "time": 370.9375,
                    "velocity": 0.6929133858267716,
                    "duration": 0.625
                },
                {
                    "name": "B4",
                    "midi": 71,
                    "time": 370.9375,
                    "velocity": 0.6929133858267716,
                    "duration": 0.625
                },
                {
                    "name": "D5",
                    "midi": 74,
                    "time": 370.9375,
                    "velocity": 0.6929133858267716,
                    "duration": 0.625
                },
                {
                    "name": "E4",
                    "midi": 64,
                    "time": 371.5625,
                    "velocity": 0.6929133858267716,
                    "duration": 0.9375
                },
                {
                    "name": "A4",
                    "midi": 69,
                    "time": 371.5625,
                    "velocity": 0.6929133858267716,
                    "duration": 0.9375
                },
                {
                    "name": "C#5",
                    "midi": 73,
                    "time": 371.5625,
                    "velocity": 0.6929133858267716,
                    "duration": 0.9375
                },
                {
                    "name": "A3",
                    "midi": 57,
                    "time": 372.8125,
                    "velocity": 0.5905511811023622,
                    "duration": 0.625
                },
                {
                    "name": "D4",
                    "midi": 62,
                    "time": 373.125,
                    "velocity": 0.5905511811023622,
                    "duration": 0.3125
                },
                {
                    "name": "F#4",
                    "midi": 66,
                    "time": 373.125,
                    "velocity": 0.5905511811023622,
                    "duration": 0.3125
                },
                {
                    "name": "F#3",
                    "midi": 54,
                    "time": 373.75,
                    "velocity": 0.5905511811023622,
                    "duration": 0.625
                },
                {
                    "name": "A3",
                    "midi": 57,
                    "time": 374.0625,
                    "velocity": 0.5905511811023622,
                    "duration": 0.3125
                },
                {
                    "name": "D4",
                    "midi": 62,
                    "time": 374.0625,
                    "velocity": 0.5905511811023622,
                    "duration": 0.3125
                },
                {
                    "name": "E3",
                    "midi": 52,
                    "time": 374.6875,
                    "velocity": 0.5905511811023622,
                    "duration": 0.3125
                },
                {
                    "name": "A3",
                    "midi": 57,
                    "time": 374.6875,
                    "velocity": 0.5905511811023622,
                    "duration": 0.3125
                },
                {
                    "name": "C4",
                    "midi": 60,
                    "time": 374.6875,
                    "velocity": 0.5905511811023622,
                    "duration": 0.3125
                },
                {
                    "name": "A3",
                    "midi": 57,
                    "time": 375.3125,
                    "velocity": 0.5905511811023622,
                    "duration": 0.625
                },
                {
                    "name": "D4",
                    "midi": 62,
                    "time": 375.625,
                    "velocity": 0.5905511811023622,
                    "duration": 0.3125
                },
                {
                    "name": "F#4",
                    "midi": 66,
                    "time": 375.625,
                    "velocity": 0.5905511811023622,
                    "duration": 0.3125
                },
                {
                    "name": "F#3",
                    "midi": 54,
                    "time": 376.25,
                    "velocity": 0.5905511811023622,
                    "duration": 0.625
                },
                {
                    "name": "A3",
                    "midi": 57,
                    "time": 376.5625,
                    "velocity": 0.5905511811023622,
                    "duration": 0.3125
                },
                {
                    "name": "D4",
                    "midi": 62,
                    "time": 376.5625,
                    "velocity": 0.5905511811023622,
                    "duration": 0.3125
                },
                {
                    "name": "E3",
                    "midi": 52,
                    "time": 377.1875,
                    "velocity": 0.5905511811023622,
                    "duration": 0.3125
                },
                {
                    "name": "A3",
                    "midi": 57,
                    "time": 377.1875,
                    "velocity": 0.5905511811023622,
                    "duration": 0.3125
                },
                {
                    "name": "C4",
                    "midi": 60,
                    "time": 377.1875,
                    "velocity": 0.5905511811023622,
                    "duration": 0.3125
                },
                {
                    "name": "A3",
                    "midi": 57,
                    "time": 377.8125,
                    "velocity": 0.5905511811023622,
                    "duration": 0.625
                },
                {
                    "name": "D4",
                    "midi": 62,
                    "time": 378.125,
                    "velocity": 0.5905511811023622,
                    "duration": 0.3125
                },
                {
                    "name": "F#4",
                    "midi": 66,
                    "time": 378.125,
                    "velocity": 0.5905511811023622,
                    "duration": 0.3125
                },
                {
                    "name": "D4",
                    "midi": 62,
                    "time": 378.75,
                    "velocity": 0.5905511811023622,
                    "duration": 0.625
                },
                {
                    "name": "F#4",
                    "midi": 66,
                    "time": 379.0625,
                    "velocity": 0.5905511811023622,
                    "duration": 0.3125
                },
                {
                    "name": "A4",
                    "midi": 69,
                    "time": 379.0625,
                    "velocity": 0.5905511811023622,
                    "duration": 0.3125
                },
                {
                    "name": "C4",
                    "midi": 60,
                    "time": 379.6875,
                    "velocity": 0.5905511811023622,
                    "duration": 0.3125
                },
                {
                    "name": "E4",
                    "midi": 64,
                    "time": 379.6875,
                    "velocity": 0.5905511811023622,
                    "duration": 0.3125
                },
                {
                    "name": "A4",
                    "midi": 69,
                    "time": 379.6875,
                    "velocity": 0.5905511811023622,
                    "duration": 0.3125
                },
                {
                    "name": "A3",
                    "midi": 57,
                    "time": 380.3125,
                    "velocity": 0.5905511811023622,
                    "duration": 0.625
                },
                {
                    "name": "D4",
                    "midi": 62,
                    "time": 380.625,
                    "velocity": 0.5905511811023622,
                    "duration": 0.3125
                },
                {
                    "name": "F#4",
                    "midi": 66,
                    "time": 380.625,
                    "velocity": 0.5905511811023622,
                    "duration": 0.3125
                },
                {
                    "name": "D#4",
                    "midi": 63,
                    "time": 381.25,
                    "velocity": 0.5905511811023622,
                    "duration": 0.625
                },
                {
                    "name": "F#4",
                    "midi": 66,
                    "time": 381.5625,
                    "velocity": 0.5905511811023622,
                    "duration": 0.3125
                },
                {
                    "name": "A4",
                    "midi": 69,
                    "time": 381.5625,
                    "velocity": 0.5905511811023622,
                    "duration": 0.3125
                },
                {
                    "name": "C4",
                    "midi": 60,
                    "time": 382.1875,
                    "velocity": 0.5905511811023622,
                    "duration": 0.3125
                },
                {
                    "name": "F#4",
                    "midi": 66,
                    "time": 382.1875,
                    "velocity": 0.5905511811023622,
                    "duration": 0.3125
                },
                {
                    "name": "A4",
                    "midi": 69,
                    "time": 382.1875,
                    "velocity": 0.5905511811023622,
                    "duration": 0.3125
                },
                {
                    "name": "D4",
                    "midi": 62,
                    "time": 382.8125,
                    "velocity": 0.5905511811023622,
                    "duration": 0.625
                },
                {
                    "name": "G4",
                    "midi": 67,
                    "time": 383.125,
                    "velocity": 0.5905511811023622,
                    "duration": 0.3125
                },
                {
                    "name": "B4",
                    "midi": 71,
                    "time": 383.125,
                    "velocity": 0.5905511811023622,
                    "duration": 0.3125
                },
                {
                    "name": "B3",
                    "midi": 59,
                    "time": 383.75,
                    "velocity": 0.5905511811023622,
                    "duration": 0.625
                },
                {
                    "name": "D4",
                    "midi": 62,
                    "time": 384.0625,
                    "velocity": 0.5905511811023622,
                    "duration": 0.3125
                },
                {
                    "name": "G4",
                    "midi": 67,
                    "time": 384.0625,
                    "velocity": 0.5905511811023622,
                    "duration": 0.3125
                },
                {
                    "name": "A3",
                    "midi": 57,
                    "time": 384.6875,
                    "velocity": 0.5905511811023622,
                    "duration": 0.3125
                },
                {
                    "name": "D4",
                    "midi": 62,
                    "time": 384.6875,
                    "velocity": 0.5905511811023622,
                    "duration": 0.3125
                },
                {
                    "name": "F4",
                    "midi": 65,
                    "time": 384.6875,
                    "velocity": 0.5905511811023622,
                    "duration": 0.3125
                },
                {
                    "name": "D4",
                    "midi": 62,
                    "time": 385.3125,
                    "velocity": 0.5905511811023622,
                    "duration": 0.625
                },
                {
                    "name": "G4",
                    "midi": 67,
                    "time": 385.625,
                    "velocity": 0.5905511811023622,
                    "duration": 0.3125
                },
                {
                    "name": "B4",
                    "midi": 71,
                    "time": 385.625,
                    "velocity": 0.5905511811023622,
                    "duration": 0.3125
                },
                {
                    "name": "B3",
                    "midi": 59,
                    "time": 386.25,
                    "velocity": 0.5905511811023622,
                    "duration": 0.625
                },
                {
                    "name": "D4",
                    "midi": 62,
                    "time": 386.5625,
                    "velocity": 0.5905511811023622,
                    "duration": 0.3125
                },
                {
                    "name": "G4",
                    "midi": 67,
                    "time": 386.5625,
                    "velocity": 0.5905511811023622,
                    "duration": 0.3125
                },
                {
                    "name": "A3",
                    "midi": 57,
                    "time": 387.1875,
                    "velocity": 0.5905511811023622,
                    "duration": 0.3125
                },
                {
                    "name": "E4",
                    "midi": 64,
                    "time": 387.1875,
                    "velocity": 0.5905511811023622,
                    "duration": 0.3125
                },
                {
                    "name": "F4",
                    "midi": 65,
                    "time": 387.1875,
                    "velocity": 0.5905511811023622,
                    "duration": 0.3125
                },
                {
                    "name": "D4",
                    "midi": 62,
                    "time": 387.8125,
                    "velocity": 0.5905511811023622,
                    "duration": 0.625
                },
                {
                    "name": "G4",
                    "midi": 67,
                    "time": 388.125,
                    "velocity": 0.5905511811023622,
                    "duration": 0.3125
                },
                {
                    "name": "B4",
                    "midi": 71,
                    "time": 388.125,
                    "velocity": 0.5905511811023622,
                    "duration": 0.3125
                },
                {
                    "name": "B3",
                    "midi": 59,
                    "time": 388.75,
                    "velocity": 0.5905511811023622,
                    "duration": 0.625
                },
                {
                    "name": "D4",
                    "midi": 62,
                    "time": 389.0625,
                    "velocity": 0.5905511811023622,
                    "duration": 0.3125
                },
                {
                    "name": "G4",
                    "midi": 67,
                    "time": 389.0625,
                    "velocity": 0.5905511811023622,
                    "duration": 0.3125
                },
                {
                    "name": "A3",
                    "midi": 57,
                    "time": 389.6875,
                    "velocity": 0.5905511811023622,
                    "duration": 0.3125
                },
                {
                    "name": "D4",
                    "midi": 62,
                    "time": 389.6875,
                    "velocity": 0.5905511811023622,
                    "duration": 0.3125
                },
                {
                    "name": "F4",
                    "midi": 65,
                    "time": 389.6875,
                    "velocity": 0.5905511811023622,
                    "duration": 0.3125
                },
                {
                    "name": "A3",
                    "midi": 57,
                    "time": 390.3125,
                    "velocity": 0.5905511811023622,
                    "duration": 0.625
                },
                {
                    "name": "D4",
                    "midi": 62,
                    "time": 390.625,
                    "velocity": 0.5905511811023622,
                    "duration": 0.3125
                },
                {
                    "name": "F#4",
                    "midi": 66,
                    "time": 390.625,
                    "velocity": 0.5905511811023622,
                    "duration": 0.3125
                },
                {
                    "name": "F#3",
                    "midi": 54,
                    "time": 391.25,
                    "velocity": 0.5905511811023622,
                    "duration": 0.625
                },
                {
                    "name": "A3",
                    "midi": 57,
                    "time": 391.5625,
                    "velocity": 0.5905511811023622,
                    "duration": 0.3125
                },
                {
                    "name": "D4",
                    "midi": 62,
                    "time": 391.5625,
                    "velocity": 0.5905511811023622,
                    "duration": 0.3125
                },
                {
                    "name": "E3",
                    "midi": 52,
                    "time": 392.1875,
                    "velocity": 0.5905511811023622,
                    "duration": 0.3125
                },
                {
                    "name": "A3",
                    "midi": 57,
                    "time": 392.1875,
                    "velocity": 0.5905511811023622,
                    "duration": 0.3125
                },
                {
                    "name": "C#4",
                    "midi": 61,
                    "time": 392.1875,
                    "velocity": 0.5905511811023622,
                    "duration": 0.3125
                },
                {
                    "name": "A3",
                    "midi": 57,
                    "time": 392.5,
                    "velocity": 0.5905511811023622,
                    "duration": 0.3125
                },
                {
                    "name": "E4",
                    "midi": 64,
                    "time": 392.5,
                    "velocity": 0.5905511811023622,
                    "duration": 0.3125
                },
                {
                    "name": "A4",
                    "midi": 69,
                    "time": 392.5,
                    "velocity": 0.5905511811023622,
                    "duration": 0.3125
                },
                {
                    "name": "G3",
                    "midi": 55,
                    "time": 392.8125,
                    "velocity": 0.5905511811023622,
                    "duration": 0.3125
                },
                {
                    "name": "C#4",
                    "midi": 61,
                    "time": 392.8125,
                    "velocity": 0.5905511811023622,
                    "duration": 0.3125
                },
                {
                    "name": "F#3",
                    "midi": 54,
                    "time": 393.125,
                    "velocity": 0.5905511811023622,
                    "duration": 0.3125
                },
                {
                    "name": "C4",
                    "midi": 60,
                    "time": 393.125,
                    "velocity": 0.5905511811023622,
                    "duration": 0.3125
                },
                {
                    "name": "F3",
                    "midi": 53,
                    "time": 393.4375,
                    "velocity": 0.7952755905511811,
                    "duration": 0.3125
                },
                {
                    "name": "B3",
                    "midi": 59,
                    "time": 393.4375,
                    "velocity": 0.7952755905511811,
                    "duration": 0.3125
                },
                {
                    "name": "E4",
                    "midi": 64,
                    "time": 393.4375,
                    "velocity": 0.7952755905511811,
                    "duration": 0.3125
                },
                {
                    "name": "E3",
                    "midi": 52,
                    "time": 393.75,
                    "velocity": 0.5905511811023622,
                    "duration": 0.3125
                },
                {
                    "name": "A#3",
                    "midi": 58,
                    "time": 393.75,
                    "velocity": 0.5905511811023622,
                    "duration": 0.3125
                },
                {
                    "name": "D#3",
                    "midi": 51,
                    "time": 394.0625,
                    "velocity": 0.5905511811023622,
                    "duration": 0.3125
                },
                {
                    "name": "A3",
                    "midi": 57,
                    "time": 394.0625,
                    "velocity": 0.5905511811023622,
                    "duration": 0.3125
                },
                {
                    "name": "D3",
                    "midi": 50,
                    "time": 394.375,
                    "velocity": 0.7952755905511811,
                    "duration": 0.3125
                },
                {
                    "name": "G#3",
                    "midi": 56,
                    "time": 394.375,
                    "velocity": 0.7952755905511811,
                    "duration": 0.3125
                },
                {
                    "name": "C4",
                    "midi": 60,
                    "time": 394.375,
                    "velocity": 0.7952755905511811,
                    "duration": 0.3125
                },
                {
                    "name": "C#3",
                    "midi": 49,
                    "time": 394.6875,
                    "velocity": 0.5905511811023622,
                    "duration": 0.3125
                },
                {
                    "name": "G#3",
                    "midi": 56,
                    "time": 394.6875,
                    "velocity": 0.5905511811023622,
                    "duration": 0.3125
                },
                {
                    "name": "A2",
                    "midi": 45,
                    "time": 395.3125,
                    "velocity": 0.5905511811023622,
                    "duration": 0.3125
                },
                {
                    "name": "A3",
                    "midi": 57,
                    "time": 395.3125,
                    "velocity": 0.5905511811023622,
                    "duration": 0.3125
                },
                {
                    "name": "E3",
                    "midi": 52,
                    "time": 395.625,
                    "velocity": 0.5905511811023622,
                    "duration": 0.3125
                },
                {
                    "name": "E4",
                    "midi": 64,
                    "time": 395.625,
                    "velocity": 0.5905511811023622,
                    "duration": 0.3125
                },
                {
                    "name": "E2",
                    "midi": 40,
                    "time": 395.9375,
                    "velocity": 0.5905511811023622,
                    "duration": 0.3125
                },
                {
                    "name": "E3",
                    "midi": 52,
                    "time": 395.9375,
                    "velocity": 0.5905511811023622,
                    "duration": 0.3125
                },
                {
                    "name": "A2",
                    "midi": 45,
                    "time": 396.25,
                    "velocity": 0.5905511811023622,
                    "duration": 0.3125
                },
                {
                    "name": "A3",
                    "midi": 57,
                    "time": 396.25,
                    "velocity": 0.5905511811023622,
                    "duration": 0.3125
                },
                {
                    "name": "A1",
                    "midi": 33,
                    "time": 396.5625,
                    "velocity": 0.5905511811023622,
                    "duration": 0.3125
                },
                {
                    "name": "A2",
                    "midi": 45,
                    "time": 396.5625,
                    "velocity": 0.5905511811023622,
                    "duration": 0.3125
                },
                {
                    "name": "E2",
                    "midi": 40,
                    "time": 396.875,
                    "velocity": 0.5905511811023622,
                    "duration": 0.3125
                },
                {
                    "name": "E3",
                    "midi": 52,
                    "time": 396.875,
                    "velocity": 0.5905511811023622,
                    "duration": 0.3125
                },
                {
                    "name": "E1",
                    "midi": 28,
                    "time": 397.1875,
                    "velocity": 0.5905511811023622,
                    "duration": 0.3125
                },
                {
                    "name": "E2",
                    "midi": 40,
                    "time": 397.1875,
                    "velocity": 0.5905511811023622,
                    "duration": 0.3125
                },
                {
                    "name": "A1",
                    "midi": 33,
                    "time": 397.5,
                    "velocity": 0.7952755905511811,
                    "duration": 0.3125
                },
                {
                    "name": "A2",
                    "midi": 45,
                    "time": 397.5,
                    "velocity": 0.7952755905511811,
                    "duration": 0.3125
                },
                {
                    "name": "A2",
                    "midi": 45,
                    "time": 398.125,
                    "velocity": 0.5905511811023622,
                    "duration": 0.3125
                },
                {
                    "name": "A3",
                    "midi": 57,
                    "time": 398.125,
                    "velocity": 0.5905511811023622,
                    "duration": 0.3125
                },
                {
                    "name": "E3",
                    "midi": 52,
                    "time": 398.4375,
                    "velocity": 0.5905511811023622,
                    "duration": 0.3125
                },
                {
                    "name": "E4",
                    "midi": 64,
                    "time": 398.4375,
                    "velocity": 0.5905511811023622,
                    "duration": 0.3125
                },
                {
                    "name": "E2",
                    "midi": 40,
                    "time": 398.75,
                    "velocity": 0.5905511811023622,
                    "duration": 0.3125
                },
                {
                    "name": "E3",
                    "midi": 52,
                    "time": 398.75,
                    "velocity": 0.5905511811023622,
                    "duration": 0.3125
                },
                {
                    "name": "A2",
                    "midi": 45,
                    "time": 399.0625,
                    "velocity": 0.5905511811023622,
                    "duration": 0.3125
                },
                {
                    "name": "A3",
                    "midi": 57,
                    "time": 399.0625,
                    "velocity": 0.5905511811023622,
                    "duration": 0.3125
                },
                {
                    "name": "A1",
                    "midi": 33,
                    "time": 399.375,
                    "velocity": 0.5905511811023622,
                    "duration": 0.3125
                },
                {
                    "name": "A2",
                    "midi": 45,
                    "time": 399.375,
                    "velocity": 0.5905511811023622,
                    "duration": 0.3125
                },
                {
                    "name": "E2",
                    "midi": 40,
                    "time": 399.6875,
                    "velocity": 0.5905511811023622,
                    "duration": 0.3125
                },
                {
                    "name": "E3",
                    "midi": 52,
                    "time": 399.6875,
                    "velocity": 0.5905511811023622,
                    "duration": 0.3125
                },
                {
                    "name": "E1",
                    "midi": 28,
                    "time": 400,
                    "velocity": 0.7952755905511811,
                    "duration": 0.3125
                },
                {
                    "name": "E2",
                    "midi": 40,
                    "time": 400,
                    "velocity": 0.7952755905511811,
                    "duration": 0.3125
                },
                {
                    "name": "A2",
                    "midi": 45,
                    "time": 400.625,
                    "velocity": 0.5905511811023622,
                    "duration": 0.3125
                },
                {
                    "name": "A3",
                    "midi": 57,
                    "time": 400.625,
                    "velocity": 0.5905511811023622,
                    "duration": 0.3125
                },
                {
                    "name": "E3",
                    "midi": 52,
                    "time": 400.9375,
                    "velocity": 0.5905511811023622,
                    "duration": 0.3125
                },
                {
                    "name": "E4",
                    "midi": 64,
                    "time": 400.9375,
                    "velocity": 0.5905511811023622,
                    "duration": 0.3125
                },
                {
                    "name": "E2",
                    "midi": 40,
                    "time": 401.25,
                    "velocity": 0.5905511811023622,
                    "duration": 0.3125
                },
                {
                    "name": "E3",
                    "midi": 52,
                    "time": 401.25,
                    "velocity": 0.5905511811023622,
                    "duration": 0.3125
                },
                {
                    "name": "A2",
                    "midi": 45,
                    "time": 401.5625,
                    "velocity": 0.5905511811023622,
                    "duration": 0.3125
                },
                {
                    "name": "A3",
                    "midi": 57,
                    "time": 401.5625,
                    "velocity": 0.5905511811023622,
                    "duration": 0.3125
                },
                {
                    "name": "A1",
                    "midi": 33,
                    "time": 401.875,
                    "velocity": 0.7952755905511811,
                    "duration": 0.3125
                },
                {
                    "name": "A2",
                    "midi": 45,
                    "time": 401.875,
                    "velocity": 0.7952755905511811,
                    "duration": 0.3125
                },
                {
                    "name": "E2",
                    "midi": 40,
                    "time": 402.1875,
                    "velocity": 0.7952755905511811,
                    "duration": 0.3125
                },
                {
                    "name": "E3",
                    "midi": 52,
                    "time": 402.1875,
                    "velocity": 0.7952755905511811,
                    "duration": 0.3125
                },
                {
                    "name": "A2",
                    "midi": 45,
                    "time": 402.8125,
                    "velocity": 0.5905511811023622,
                    "duration": 0.3125
                },
                {
                    "name": "A3",
                    "midi": 57,
                    "time": 402.8125,
                    "velocity": 0.5905511811023622,
                    "duration": 0.3125
                },
                {
                    "name": "E3",
                    "midi": 52,
                    "time": 403.125,
                    "velocity": 0.5905511811023622,
                    "duration": 0.3125
                },
                {
                    "name": "E4",
                    "midi": 64,
                    "time": 403.125,
                    "velocity": 0.5905511811023622,
                    "duration": 0.3125
                },
                {
                    "name": "E2",
                    "midi": 40,
                    "time": 403.4375,
                    "velocity": 0.5905511811023622,
                    "duration": 0.3125
                },
                {
                    "name": "E3",
                    "midi": 52,
                    "time": 403.4375,
                    "velocity": 0.5905511811023622,
                    "duration": 0.3125
                },
                {
                    "name": "A2",
                    "midi": 45,
                    "time": 403.75,
                    "velocity": 0.5905511811023622,
                    "duration": 0.3125
                },
                {
                    "name": "A3",
                    "midi": 57,
                    "time": 403.75,
                    "velocity": 0.5905511811023622,
                    "duration": 0.3125
                },
                {
                    "name": "A1",
                    "midi": 33,
                    "time": 404.0625,
                    "velocity": 0.7952755905511811,
                    "duration": 0.3125
                },
                {
                    "name": "A2",
                    "midi": 45,
                    "time": 404.0625,
                    "velocity": 0.7952755905511811,
                    "duration": 0.3125
                },
                {
                    "name": "A2",
                    "midi": 45,
                    "time": 404.6875,
                    "velocity": 0.5905511811023622,
                    "duration": 0.3125
                },
                {
                    "name": "A3",
                    "midi": 57,
                    "time": 404.6875,
                    "velocity": 0.5905511811023622,
                    "duration": 0.3125
                },
                {
                    "name": "E3",
                    "midi": 52,
                    "time": 405,
                    "velocity": 0.5905511811023622,
                    "duration": 0.3125
                },
                {
                    "name": "E4",
                    "midi": 64,
                    "time": 405,
                    "velocity": 0.5905511811023622,
                    "duration": 0.3125
                },
                {
                    "name": "E2",
                    "midi": 40,
                    "time": 405.3125,
                    "velocity": 0.5905511811023622,
                    "duration": 0.3125
                },
                {
                    "name": "E3",
                    "midi": 52,
                    "time": 405.3125,
                    "velocity": 0.5905511811023622,
                    "duration": 0.3125
                },
                {
                    "name": "A2",
                    "midi": 45,
                    "time": 405.625,
                    "velocity": 0.7952755905511811,
                    "duration": 0.3125
                },
                {
                    "name": "A3",
                    "midi": 57,
                    "time": 405.625,
                    "velocity": 0.7952755905511811,
                    "duration": 0.3125
                },
                {
                    "name": "A2",
                    "midi": 45,
                    "time": 406.25,
                    "velocity": 0.5905511811023622,
                    "duration": 0.3125
                },
                {
                    "name": "A3",
                    "midi": 57,
                    "time": 406.25,
                    "velocity": 0.5905511811023622,
                    "duration": 0.3125
                },
                {
                    "name": "E3",
                    "midi": 52,
                    "time": 406.5625,
                    "velocity": 0.5905511811023622,
                    "duration": 0.3125
                },
                {
                    "name": "E4",
                    "midi": 64,
                    "time": 406.5625,
                    "velocity": 0.5905511811023622,
                    "duration": 0.3125
                },
                {
                    "name": "E2",
                    "midi": 40,
                    "time": 406.875,
                    "velocity": 0.7952755905511811,
                    "duration": 0.3125
                },
                {
                    "name": "E3",
                    "midi": 52,
                    "time": 406.875,
                    "velocity": 0.7952755905511811,
                    "duration": 0.3125
                },
                {
                    "name": "A2",
                    "midi": 45,
                    "time": 407.5,
                    "velocity": 0.5905511811023622,
                    "duration": 0.3125
                },
                {
                    "name": "A3",
                    "midi": 57,
                    "time": 407.5,
                    "velocity": 0.5905511811023622,
                    "duration": 0.3125
                },
                {
                    "name": "E3",
                    "midi": 52,
                    "time": 407.8125,
                    "velocity": 0.7952755905511811,
                    "duration": 0.3125
                },
                {
                    "name": "E4",
                    "midi": 64,
                    "time": 407.8125,
                    "velocity": 0.7952755905511811,
                    "duration": 0.3125
                },
                {
                    "name": "A3",
                    "midi": 57,
                    "time": 408.4375,
                    "velocity": 0.5905511811023622,
                    "duration": 0.3125
                },
                {
                    "name": "E4",
                    "midi": 64,
                    "time": 408.75,
                    "velocity": 0.5905511811023622,
                    "duration": 0.3125
                },
                {
                    "name": "G#3",
                    "midi": 56,
                    "time": 410.3125,
                    "velocity": 0.5905511811023622,
                    "duration": 0.061197916666685614
                },
                {
                    "name": "D4",
                    "midi": 62,
                    "time": 410.3125,
                    "velocity": 0.5905511811023622,
                    "duration": 0.061197916666685614
                },
                {
                    "name": "E4",
                    "midi": 64,
                    "time": 410.3125,
                    "velocity": 0.5905511811023622,
                    "duration": 0.061197916666685614
                },
                {
                    "name": "G#3",
                    "midi": 56,
                    "time": 410.625,
                    "velocity": 0.7952755905511811,
                    "duration": 0.061197916666685614
                },
                {
                    "name": "D4",
                    "midi": 62,
                    "time": 410.625,
                    "velocity": 0.7952755905511811,
                    "duration": 0.061197916666685614
                },
                {
                    "name": "E4",
                    "midi": 64,
                    "time": 410.625,
                    "velocity": 0.7952755905511811,
                    "duration": 0.061197916666685614
                },
                {
                    "name": "G#3",
                    "midi": 56,
                    "time": 411.25,
                    "velocity": 0.5905511811023622,
                    "duration": 0.061197916666685614
                },
                {
                    "name": "D4",
                    "midi": 62,
                    "time": 411.25,
                    "velocity": 0.5905511811023622,
                    "duration": 0.061197916666685614
                },
                {
                    "name": "E4",
                    "midi": 64,
                    "time": 411.25,
                    "velocity": 0.5905511811023622,
                    "duration": 0.061197916666685614
                },
                {
                    "name": "A#3",
                    "midi": 58,
                    "time": 411.5625,
                    "velocity": 0.7952755905511811,
                    "duration": 0.061197916666685614
                },
                {
                    "name": "D4",
                    "midi": 62,
                    "time": 411.5625,
                    "velocity": 0.7952755905511811,
                    "duration": 0.061197916666685614
                },
                {
                    "name": "G4",
                    "midi": 67,
                    "time": 411.5625,
                    "velocity": 0.7952755905511811,
                    "duration": 0.061197916666685614
                },
                {
                    "name": "A#3",
                    "midi": 58,
                    "time": 412.1875,
                    "velocity": 0.5905511811023622,
                    "duration": 0.061197916666685614
                },
                {
                    "name": "D4",
                    "midi": 62,
                    "time": 412.1875,
                    "velocity": 0.5905511811023622,
                    "duration": 0.061197916666685614
                },
                {
                    "name": "G4",
                    "midi": 67,
                    "time": 412.1875,
                    "velocity": 0.5905511811023622,
                    "duration": 0.061197916666685614
                },
                {
                    "name": "F#3",
                    "midi": 54,
                    "time": 412.5,
                    "velocity": 0.7952755905511811,
                    "duration": 0.061197916666685614
                },
                {
                    "name": "C4",
                    "midi": 60,
                    "time": 412.5,
                    "velocity": 0.7952755905511811,
                    "duration": 0.061197916666685614
                },
                {
                    "name": "D4",
                    "midi": 62,
                    "time": 412.5,
                    "velocity": 0.7952755905511811,
                    "duration": 0.061197916666685614
                },
                {
                    "name": "F#3",
                    "midi": 54,
                    "time": 413.125,
                    "velocity": 0.5905511811023622,
                    "duration": 0.061197916666685614
                },
                {
                    "name": "C4",
                    "midi": 60,
                    "time": 413.125,
                    "velocity": 0.5905511811023622,
                    "duration": 0.061197916666685614
                },
                {
                    "name": "D4",
                    "midi": 62,
                    "time": 413.125,
                    "velocity": 0.5905511811023622,
                    "duration": 0.061197916666685614
                },
                {
                    "name": "G#3",
                    "midi": 56,
                    "time": 413.4375,
                    "velocity": 0.7952755905511811,
                    "duration": 0.061197916666685614
                },
                {
                    "name": "C4",
                    "midi": 60,
                    "time": 413.4375,
                    "velocity": 0.7952755905511811,
                    "duration": 0.061197916666685614
                },
                {
                    "name": "F4",
                    "midi": 65,
                    "time": 413.4375,
                    "velocity": 0.7952755905511811,
                    "duration": 0.061197916666685614
                },
                {
                    "name": "G#3",
                    "midi": 56,
                    "time": 414.0625,
                    "velocity": 0.5905511811023622,
                    "duration": 0.061197916666685614
                },
                {
                    "name": "C4",
                    "midi": 60,
                    "time": 414.0625,
                    "velocity": 0.5905511811023622,
                    "duration": 0.061197916666685614
                },
                {
                    "name": "F4",
                    "midi": 65,
                    "time": 414.0625,
                    "velocity": 0.5905511811023622,
                    "duration": 0.061197916666685614
                },
                {
                    "name": "C4",
                    "midi": 60,
                    "time": 414.375,
                    "velocity": 0.7952755905511811,
                    "duration": 0.061197916666685614
                },
                {
                    "name": "E4",
                    "midi": 64,
                    "time": 414.375,
                    "velocity": 0.7952755905511811,
                    "duration": 0.061197916666685614
                },
                {
                    "name": "G4",
                    "midi": 67,
                    "time": 414.375,
                    "velocity": 0.7952755905511811,
                    "duration": 0.061197916666685614
                },
                {
                    "name": "C5",
                    "midi": 72,
                    "time": 414.375,
                    "velocity": 0.7952755905511811,
                    "duration": 0.061197916666685614
                },
                {
                    "name": "C4",
                    "midi": 60,
                    "time": 415,
                    "velocity": 0.5905511811023622,
                    "duration": 0.061197916666685614
                },
                {
                    "name": "E4",
                    "midi": 64,
                    "time": 415,
                    "velocity": 0.5905511811023622,
                    "duration": 0.061197916666685614
                },
                {
                    "name": "G4",
                    "midi": 67,
                    "time": 415,
                    "velocity": 0.5905511811023622,
                    "duration": 0.061197916666685614
                },
                {
                    "name": "C5",
                    "midi": 72,
                    "time": 415,
                    "velocity": 0.5905511811023622,
                    "duration": 0.061197916666685614
                },
                {
                    "name": "D#3",
                    "midi": 51,
                    "time": 415.3125,
                    "velocity": 0.7952755905511811,
                    "duration": 0.061197916666685614
                },
                {
                    "name": "D#3",
                    "midi": 51,
                    "time": 415.9375,
                    "velocity": 0.5905511811023622,
                    "duration": 0.061197916666685614
                },
                {
                    "name": "A3",
                    "midi": 57,
                    "time": 415.9375,
                    "velocity": 0.5905511811023622,
                    "duration": 0.061197916666685614
                },
                {
                    "name": "B3",
                    "midi": 59,
                    "time": 415.9375,
                    "velocity": 0.5905511811023622,
                    "duration": 0.061197916666685614
                },
                {
                    "name": "A#3",
                    "midi": 58,
                    "time": 416.25,
                    "velocity": 0.7952755905511811,
                    "duration": 0.061197916666685614
                },
                {
                    "name": "D4",
                    "midi": 62,
                    "time": 416.25,
                    "velocity": 0.7952755905511811,
                    "duration": 0.061197916666685614
                },
                {
                    "name": "F4",
                    "midi": 65,
                    "time": 416.25,
                    "velocity": 0.7952755905511811,
                    "duration": 0.061197916666685614
                },
                {
                    "name": "A#4",
                    "midi": 70,
                    "time": 416.25,
                    "velocity": 0.7952755905511811,
                    "duration": 0.061197916666685614
                },
                {
                    "name": "A#3",
                    "midi": 58,
                    "time": 416.875,
                    "velocity": 0.5905511811023622,
                    "duration": 0.061197916666685614
                },
                {
                    "name": "D4",
                    "midi": 62,
                    "time": 416.875,
                    "velocity": 0.5905511811023622,
                    "duration": 0.061197916666685614
                },
                {
                    "name": "F4",
                    "midi": 65,
                    "time": 416.875,
                    "velocity": 0.5905511811023622,
                    "duration": 0.061197916666685614
                },
                {
                    "name": "A#4",
                    "midi": 70,
                    "time": 416.875,
                    "velocity": 0.5905511811023622,
                    "duration": 0.061197916666685614
                },
                {
                    "name": "C#3",
                    "midi": 49,
                    "time": 417.1875,
                    "velocity": 0.7952755905511811,
                    "duration": 0.061197916666685614
                },
                {
                    "name": "G3",
                    "midi": 55,
                    "time": 417.1875,
                    "velocity": 0.7952755905511811,
                    "duration": 0.061197916666685614
                },
                {
                    "name": "A3",
                    "midi": 57,
                    "time": 417.1875,
                    "velocity": 0.7952755905511811,
                    "duration": 0.061197916666685614
                },
                {
                    "name": "C#3",
                    "midi": 49,
                    "time": 417.8125,
                    "velocity": 0.5905511811023622,
                    "duration": 0.061197916666685614
                },
                {
                    "name": "G3",
                    "midi": 55,
                    "time": 417.8125,
                    "velocity": 0.5905511811023622,
                    "duration": 0.061197916666685614
                },
                {
                    "name": "A3",
                    "midi": 57,
                    "time": 417.8125,
                    "velocity": 0.5905511811023622,
                    "duration": 0.061197916666685614
                },
                {
                    "name": "G#3",
                    "midi": 56,
                    "time": 418.125,
                    "velocity": 0.7952755905511811,
                    "duration": 0.061197916666685614
                },
                {
                    "name": "C4",
                    "midi": 60,
                    "time": 418.125,
                    "velocity": 0.7952755905511811,
                    "duration": 0.061197916666685614
                },
                {
                    "name": "D#4",
                    "midi": 63,
                    "time": 418.125,
                    "velocity": 0.7952755905511811,
                    "duration": 0.061197916666685614
                },
                {
                    "name": "G#4",
                    "midi": 68,
                    "time": 418.125,
                    "velocity": 0.7952755905511811,
                    "duration": 0.061197916666685614
                },
                {
                    "name": "G#3",
                    "midi": 56,
                    "time": 418.75,
                    "velocity": 0.5905511811023622,
                    "duration": 0.061197916666685614
                },
                {
                    "name": "C4",
                    "midi": 60,
                    "time": 418.75,
                    "velocity": 0.5905511811023622,
                    "duration": 0.061197916666685614
                },
                {
                    "name": "D#4",
                    "midi": 63,
                    "time": 418.75,
                    "velocity": 0.5905511811023622,
                    "duration": 0.061197916666685614
                },
                {
                    "name": "G#4",
                    "midi": 68,
                    "time": 418.75,
                    "velocity": 0.5905511811023622,
                    "duration": 0.061197916666685614
                },
                {
                    "name": "B2",
                    "midi": 47,
                    "time": 419.0625,
                    "velocity": 0.7952755905511811,
                    "duration": 0.061197916666685614
                },
                {
                    "name": "F3",
                    "midi": 53,
                    "time": 419.0625,
                    "velocity": 0.7952755905511811,
                    "duration": 0.061197916666685614
                },
                {
                    "name": "G3",
                    "midi": 55,
                    "time": 419.0625,
                    "velocity": 0.7952755905511811,
                    "duration": 0.061197916666685614
                },
                {
                    "name": "B2",
                    "midi": 47,
                    "time": 419.6875,
                    "velocity": 0.5905511811023622,
                    "duration": 0.061197916666685614
                },
                {
                    "name": "F3",
                    "midi": 53,
                    "time": 419.6875,
                    "velocity": 0.5905511811023622,
                    "duration": 0.061197916666685614
                },
                {
                    "name": "G3",
                    "midi": 55,
                    "time": 419.6875,
                    "velocity": 0.5905511811023622,
                    "duration": 0.061197916666685614
                },
                {
                    "name": "B2",
                    "midi": 47,
                    "time": 420,
                    "velocity": 0.7952755905511811,
                    "duration": 0.061197916666685614
                },
                {
                    "name": "F3",
                    "midi": 53,
                    "time": 420,
                    "velocity": 0.7952755905511811,
                    "duration": 0.061197916666685614
                },
                {
                    "name": "G3",
                    "midi": 55,
                    "time": 420,
                    "velocity": 0.7952755905511811,
                    "duration": 0.061197916666685614
                },
                {
                    "name": "B2",
                    "midi": 47,
                    "time": 420.625,
                    "velocity": 0.5905511811023622,
                    "duration": 0.061197916666685614
                },
                {
                    "name": "F3",
                    "midi": 53,
                    "time": 420.625,
                    "velocity": 0.5905511811023622,
                    "duration": 0.061197916666685614
                },
                {
                    "name": "G3",
                    "midi": 55,
                    "time": 420.625,
                    "velocity": 0.5905511811023622,
                    "duration": 0.061197916666685614
                },
                {
                    "name": "B2",
                    "midi": 47,
                    "time": 420.9375,
                    "velocity": 0.7952755905511811,
                    "duration": 0.061197916666685614
                },
                {
                    "name": "F3",
                    "midi": 53,
                    "time": 420.9375,
                    "velocity": 0.7952755905511811,
                    "duration": 0.061197916666685614
                },
                {
                    "name": "G3",
                    "midi": 55,
                    "time": 420.9375,
                    "velocity": 0.7952755905511811,
                    "duration": 0.061197916666685614
                },
                {
                    "name": "B2",
                    "midi": 47,
                    "time": 421.5625,
                    "velocity": 0.5905511811023622,
                    "duration": 0.061197916666685614
                },
                {
                    "name": "F3",
                    "midi": 53,
                    "time": 421.5625,
                    "velocity": 0.5905511811023622,
                    "duration": 0.061197916666685614
                },
                {
                    "name": "G3",
                    "midi": 55,
                    "time": 421.5625,
                    "velocity": 0.5905511811023622,
                    "duration": 0.061197916666685614
                },
                {
                    "name": "B2",
                    "midi": 47,
                    "time": 421.875,
                    "velocity": 0.7952755905511811,
                    "duration": 0.061197916666685614
                },
                {
                    "name": "F3",
                    "midi": 53,
                    "time": 421.875,
                    "velocity": 0.7952755905511811,
                    "duration": 0.061197916666685614
                },
                {
                    "name": "G3",
                    "midi": 55,
                    "time": 421.875,
                    "velocity": 0.7952755905511811,
                    "duration": 0.061197916666685614
                },
                {
                    "name": "B2",
                    "midi": 47,
                    "time": 422.5,
                    "velocity": 0.5905511811023622,
                    "duration": 0.061197916666685614
                },
                {
                    "name": "D3",
                    "midi": 50,
                    "time": 422.5,
                    "velocity": 0.5905511811023622,
                    "duration": 0.061197916666685614
                },
                {
                    "name": "E3",
                    "midi": 52,
                    "time": 422.5,
                    "velocity": 0.5905511811023622,
                    "duration": 0.061197916666685614
                },
                {
                    "name": "G3",
                    "midi": 55,
                    "time": 422.5,
                    "velocity": 0.5905511811023622,
                    "duration": 0.061197916666685614
                },
                {
                    "name": "C3",
                    "midi": 48,
                    "time": 422.8125,
                    "velocity": 0.7952755905511811,
                    "duration": 0.061197916666685614
                },
                {
                    "name": "E3",
                    "midi": 52,
                    "time": 422.8125,
                    "velocity": 0.7952755905511811,
                    "duration": 0.061197916666685614
                },
                {
                    "name": "F3",
                    "midi": 53,
                    "time": 422.8125,
                    "velocity": 0.7952755905511811,
                    "duration": 0.061197916666685614
                },
                {
                    "name": "A3",
                    "midi": 57,
                    "time": 422.8125,
                    "velocity": 0.7952755905511811,
                    "duration": 0.061197916666685614
                },
                {
                    "name": "D3",
                    "midi": 50,
                    "time": 423.4375,
                    "velocity": 0.5905511811023622,
                    "duration": 0.061197916666685614
                },
                {
                    "name": "F3",
                    "midi": 53,
                    "time": 423.4375,
                    "velocity": 0.5905511811023622,
                    "duration": 0.061197916666685614
                },
                {
                    "name": "G3",
                    "midi": 55,
                    "time": 423.4375,
                    "velocity": 0.5905511811023622,
                    "duration": 0.061197916666685614
                },
                {
                    "name": "B3",
                    "midi": 59,
                    "time": 423.4375,
                    "velocity": 0.5905511811023622,
                    "duration": 0.061197916666685614
                },
                {
                    "name": "E3",
                    "midi": 52,
                    "time": 423.75,
                    "velocity": 0.7952755905511811,
                    "duration": 0.061197916666685614
                },
                {
                    "name": "G3",
                    "midi": 55,
                    "time": 423.75,
                    "velocity": 0.7952755905511811,
                    "duration": 0.061197916666685614
                },
                {
                    "name": "A3",
                    "midi": 57,
                    "time": 423.75,
                    "velocity": 0.7952755905511811,
                    "duration": 0.061197916666685614
                },
                {
                    "name": "C4",
                    "midi": 60,
                    "time": 423.75,
                    "velocity": 0.7952755905511811,
                    "duration": 0.061197916666685614
                },
                {
                    "name": "F3",
                    "midi": 53,
                    "time": 424.375,
                    "velocity": 0.5905511811023622,
                    "duration": 0.061197916666685614
                },
                {
                    "name": "A3",
                    "midi": 57,
                    "time": 424.375,
                    "velocity": 0.5905511811023622,
                    "duration": 0.061197916666685614
                },
                {
                    "name": "B3",
                    "midi": 59,
                    "time": 424.375,
                    "velocity": 0.5905511811023622,
                    "duration": 0.061197916666685614
                },
                {
                    "name": "D4",
                    "midi": 62,
                    "time": 424.375,
                    "velocity": 0.5905511811023622,
                    "duration": 0.061197916666685614
                },
                {
                    "name": "G3",
                    "midi": 55,
                    "time": 424.6875,
                    "velocity": 0.7952755905511811,
                    "duration": 0.061197916666685614
                },
                {
                    "name": "B3",
                    "midi": 59,
                    "time": 424.6875,
                    "velocity": 0.7952755905511811,
                    "duration": 0.061197916666685614
                },
                {
                    "name": "C4",
                    "midi": 60,
                    "time": 424.6875,
                    "velocity": 0.7952755905511811,
                    "duration": 0.061197916666685614
                },
                {
                    "name": "E4",
                    "midi": 64,
                    "time": 424.6875,
                    "velocity": 0.7952755905511811,
                    "duration": 0.061197916666685614
                },
                {
                    "name": "A3",
                    "midi": 57,
                    "time": 425.3125,
                    "velocity": 0.5905511811023622,
                    "duration": 0.061197916666685614
                },
                {
                    "name": "C4",
                    "midi": 60,
                    "time": 425.3125,
                    "velocity": 0.5905511811023622,
                    "duration": 0.061197916666685614
                },
                {
                    "name": "D4",
                    "midi": 62,
                    "time": 425.3125,
                    "velocity": 0.5905511811023622,
                    "duration": 0.061197916666685614
                },
                {
                    "name": "F4",
                    "midi": 65,
                    "time": 425.3125,
                    "velocity": 0.5905511811023622,
                    "duration": 0.061197916666685614
                },
                {
                    "name": "B3",
                    "midi": 59,
                    "time": 425.625,
                    "velocity": 0.7952755905511811,
                    "duration": 0.061197916666685614
                },
                {
                    "name": "D4",
                    "midi": 62,
                    "time": 425.625,
                    "velocity": 0.7952755905511811,
                    "duration": 0.061197916666685614
                },
                {
                    "name": "E4",
                    "midi": 64,
                    "time": 425.625,
                    "velocity": 0.7952755905511811,
                    "duration": 0.061197916666685614
                },
                {
                    "name": "G4",
                    "midi": 67,
                    "time": 425.625,
                    "velocity": 0.7952755905511811,
                    "duration": 0.061197916666685614
                },
                {
                    "name": "C4",
                    "midi": 60,
                    "time": 426.25,
                    "velocity": 0.5905511811023622,
                    "duration": 0.061197916666685614
                },
                {
                    "name": "E4",
                    "midi": 64,
                    "time": 426.25,
                    "velocity": 0.5905511811023622,
                    "duration": 0.061197916666685614
                },
                {
                    "name": "F4",
                    "midi": 65,
                    "time": 426.25,
                    "velocity": 0.5905511811023622,
                    "duration": 0.061197916666685614
                },
                {
                    "name": "A4",
                    "midi": 69,
                    "time": 426.25,
                    "velocity": 0.5905511811023622,
                    "duration": 0.061197916666685614
                },
                {
                    "name": "D4",
                    "midi": 62,
                    "time": 426.5625,
                    "velocity": 0.7952755905511811,
                    "duration": 0.061197916666685614
                },
                {
                    "name": "F4",
                    "midi": 65,
                    "time": 426.5625,
                    "velocity": 0.7952755905511811,
                    "duration": 0.061197916666685614
                },
                {
                    "name": "G4",
                    "midi": 67,
                    "time": 426.5625,
                    "velocity": 0.7952755905511811,
                    "duration": 0.061197916666685614
                },
                {
                    "name": "B4",
                    "midi": 71,
                    "time": 426.5625,
                    "velocity": 0.7952755905511811,
                    "duration": 0.061197916666685614
                },
                {
                    "name": "E4",
                    "midi": 64,
                    "time": 427.1875,
                    "velocity": 0.5905511811023622,
                    "duration": 0.061197916666685614
                },
                {
                    "name": "G4",
                    "midi": 67,
                    "time": 427.1875,
                    "velocity": 0.5905511811023622,
                    "duration": 0.061197916666685614
                },
                {
                    "name": "A4",
                    "midi": 69,
                    "time": 427.1875,
                    "velocity": 0.5905511811023622,
                    "duration": 0.061197916666685614
                },
                {
                    "name": "C5",
                    "midi": 72,
                    "time": 427.1875,
                    "velocity": 0.5905511811023622,
                    "duration": 0.061197916666685614
                },
                {
                    "name": "F4",
                    "midi": 65,
                    "time": 427.5,
                    "velocity": 0.7952755905511811,
                    "duration": 0.061197916666685614
                },
                {
                    "name": "A4",
                    "midi": 69,
                    "time": 427.5,
                    "velocity": 0.7952755905511811,
                    "duration": 0.061197916666685614
                },
                {
                    "name": "B4",
                    "midi": 71,
                    "time": 427.5,
                    "velocity": 0.7952755905511811,
                    "duration": 0.061197916666685614
                },
                {
                    "name": "D5",
                    "midi": 74,
                    "time": 427.5,
                    "velocity": 0.7952755905511811,
                    "duration": 0.061197916666685614
                },
                {
                    "name": "G4",
                    "midi": 67,
                    "time": 428.125,
                    "velocity": 0.7952755905511811,
                    "duration": 0.061197916666685614
                },
                {
                    "name": "B4",
                    "midi": 71,
                    "time": 428.125,
                    "velocity": 0.7952755905511811,
                    "duration": 0.061197916666685614
                },
                {
                    "name": "C5",
                    "midi": 72,
                    "time": 428.125,
                    "velocity": 0.7952755905511811,
                    "duration": 0.061197916666685614
                },
                {
                    "name": "E5",
                    "midi": 76,
                    "time": 428.125,
                    "velocity": 0.7952755905511811,
                    "duration": 0.061197916666685614
                },
                {
                    "name": "A4",
                    "midi": 69,
                    "time": 428.4375,
                    "velocity": 0.7952755905511811,
                    "duration": 0.061197916666685614
                },
                {
                    "name": "C5",
                    "midi": 72,
                    "time": 428.4375,
                    "velocity": 0.7952755905511811,
                    "duration": 0.061197916666685614
                },
                {
                    "name": "D5",
                    "midi": 74,
                    "time": 428.4375,
                    "velocity": 0.7952755905511811,
                    "duration": 0.061197916666685614
                },
                {
                    "name": "F5",
                    "midi": 77,
                    "time": 428.4375,
                    "velocity": 0.7952755905511811,
                    "duration": 0.061197916666685614
                },
                {
                    "name": "G5",
                    "midi": 79,
                    "time": 428.75,
                    "velocity": 0.7952755905511811,
                    "duration": 2.8125
                },
                {
                    "name": "G6",
                    "midi": 91,
                    "time": 428.75,
                    "velocity": 0.7952755905511811,
                    "duration": 2.8125
                },
                {
                    "name": "A5",
                    "midi": 81,
                    "time": 431.5625,
                    "velocity": 0.7952755905511811,
                    "duration": 0.3125
                },
                {
                    "name": "A6",
                    "midi": 93,
                    "time": 431.5625,
                    "velocity": 0.7952755905511811,
                    "duration": 0.3125
                },
                {
                    "name": "G5",
                    "midi": 79,
                    "time": 431.875,
                    "velocity": 0.7952755905511811,
                    "duration": 0.3125
                },
                {
                    "name": "G6",
                    "midi": 91,
                    "time": 431.875,
                    "velocity": 0.7952755905511811,
                    "duration": 0.3125
                },
                {
                    "name": "C5",
                    "midi": 72,
                    "time": 432.1875,
                    "velocity": 0.7952755905511811,
                    "duration": 0.3125
                },
                {
                    "name": "C6",
                    "midi": 84,
                    "time": 432.1875,
                    "velocity": 0.7952755905511811,
                    "duration": 0.3125
                },
                {
                    "name": "D#5",
                    "midi": 75,
                    "time": 432.5,
                    "velocity": 0.7952755905511811,
                    "duration": 0.3125
                },
                {
                    "name": "D#6",
                    "midi": 87,
                    "time": 432.5,
                    "velocity": 0.7952755905511811,
                    "duration": 0.3125
                },
                {
                    "name": "D5",
                    "midi": 74,
                    "time": 432.8125,
                    "velocity": 0.7952755905511811,
                    "duration": 0.3125
                },
                {
                    "name": "D6",
                    "midi": 86,
                    "time": 432.8125,
                    "velocity": 0.7952755905511811,
                    "duration": 0.3125
                },
                {
                    "name": "C5",
                    "midi": 72,
                    "time": 433.125,
                    "velocity": 0.7952755905511811,
                    "duration": 0.3125
                },
                {
                    "name": "C6",
                    "midi": 84,
                    "time": 433.125,
                    "velocity": 0.7952755905511811,
                    "duration": 0.3125
                },
                {
                    "name": "A4",
                    "midi": 69,
                    "time": 433.4375,
                    "velocity": 0.7952755905511811,
                    "duration": 0.3125
                },
                {
                    "name": "A5",
                    "midi": 81,
                    "time": 433.4375,
                    "velocity": 0.7952755905511811,
                    "duration": 0.3125
                },
                {
                    "name": "G4",
                    "midi": 67,
                    "time": 433.75,
                    "velocity": 0.7952755905511811,
                    "duration": 5
                },
                {
                    "name": "G5",
                    "midi": 79,
                    "time": 433.75,
                    "velocity": 0.7952755905511811,
                    "duration": 5
                },
                {
                    "name": "G5",
                    "midi": 79,
                    "time": 438.75,
                    "velocity": 0.7952755905511811,
                    "duration": 2.8125
                },
                {
                    "name": "G6",
                    "midi": 91,
                    "time": 438.75,
                    "velocity": 0.7952755905511811,
                    "duration": 2.8125
                },
                {
                    "name": "A5",
                    "midi": 81,
                    "time": 441.5625,
                    "velocity": 0.7952755905511811,
                    "duration": 0.3125
                },
                {
                    "name": "A6",
                    "midi": 93,
                    "time": 441.5625,
                    "velocity": 0.7952755905511811,
                    "duration": 0.3125
                },
                {
                    "name": "G5",
                    "midi": 79,
                    "time": 441.875,
                    "velocity": 0.7952755905511811,
                    "duration": 0.3125
                },
                {
                    "name": "G6",
                    "midi": 91,
                    "time": 441.875,
                    "velocity": 0.7952755905511811,
                    "duration": 0.3125
                },
                {
                    "name": "C5",
                    "midi": 72,
                    "time": 442.1875,
                    "velocity": 0.7952755905511811,
                    "duration": 0.3125
                },
                {
                    "name": "C6",
                    "midi": 84,
                    "time": 442.1875,
                    "velocity": 0.7952755905511811,
                    "duration": 0.3125
                },
                {
                    "name": "D#5",
                    "midi": 75,
                    "time": 442.5,
                    "velocity": 0.7952755905511811,
                    "duration": 0.3125
                },
                {
                    "name": "D#6",
                    "midi": 87,
                    "time": 442.5,
                    "velocity": 0.7952755905511811,
                    "duration": 0.3125
                },
                {
                    "name": "D5",
                    "midi": 74,
                    "time": 442.8125,
                    "velocity": 0.7952755905511811,
                    "duration": 0.3125
                },
                {
                    "name": "D6",
                    "midi": 86,
                    "time": 442.8125,
                    "velocity": 0.7952755905511811,
                    "duration": 0.3125
                },
                {
                    "name": "C5",
                    "midi": 72,
                    "time": 443.125,
                    "velocity": 0.7952755905511811,
                    "duration": 0.3125
                },
                {
                    "name": "C6",
                    "midi": 84,
                    "time": 443.125,
                    "velocity": 0.7952755905511811,
                    "duration": 0.3125
                },
                {
                    "name": "A4",
                    "midi": 69,
                    "time": 443.4375,
                    "velocity": 0.7952755905511811,
                    "duration": 0.3125
                },
                {
                    "name": "A5",
                    "midi": 81,
                    "time": 443.4375,
                    "velocity": 0.7952755905511811,
                    "duration": 0.3125
                },
                {
                    "name": "C5",
                    "midi": 72,
                    "time": 443.75,
                    "velocity": 0.7952755905511811,
                    "duration": 5
                },
                {
                    "name": "C6",
                    "midi": 84,
                    "time": 443.75,
                    "velocity": 0.7952755905511811,
                    "duration": 5
                },
                {
                    "name": "G5",
                    "midi": 79,
                    "time": 448.75,
                    "velocity": 0.7952755905511811,
                    "duration": 0.3125
                },
                {
                    "name": "G6",
                    "midi": 91,
                    "time": 448.75,
                    "velocity": 0.7952755905511811,
                    "duration": 0.3125
                },
                {
                    "name": "F5",
                    "midi": 77,
                    "time": 449.0625,
                    "velocity": 0.7952755905511811,
                    "duration": 0.3125
                },
                {
                    "name": "F6",
                    "midi": 89,
                    "time": 449.0625,
                    "velocity": 0.7952755905511811,
                    "duration": 0.3125
                },
                {
                    "name": "C5",
                    "midi": 72,
                    "time": 449.375,
                    "velocity": 0.7952755905511811,
                    "duration": 0.3125
                },
                {
                    "name": "C6",
                    "midi": 84,
                    "time": 449.375,
                    "velocity": 0.7952755905511811,
                    "duration": 0.3125
                },
                {
                    "name": "A4",
                    "midi": 69,
                    "time": 449.6875,
                    "velocity": 0.7952755905511811,
                    "duration": 0.3125
                },
                {
                    "name": "A5",
                    "midi": 81,
                    "time": 449.6875,
                    "velocity": 0.7952755905511811,
                    "duration": 0.3125
                },
                {
                    "name": "G#4",
                    "midi": 68,
                    "time": 450,
                    "velocity": 0.7952755905511811,
                    "duration": 0.3125
                },
                {
                    "name": "G#5",
                    "midi": 80,
                    "time": 450,
                    "velocity": 0.7952755905511811,
                    "duration": 0.3125
                },
                {
                    "name": "G5",
                    "midi": 79,
                    "time": 450.3125,
                    "velocity": 0.7952755905511811,
                    "duration": 0.625
                },
                {
                    "name": "G6",
                    "midi": 91,
                    "time": 450.3125,
                    "velocity": 0.7952755905511811,
                    "duration": 0.625
                },
                {
                    "name": "F5",
                    "midi": 77,
                    "time": 450.9375,
                    "velocity": 0.7952755905511811,
                    "duration": 0.3125
                },
                {
                    "name": "F6",
                    "midi": 89,
                    "time": 450.9375,
                    "velocity": 0.7952755905511811,
                    "duration": 0.3125
                },
                {
                    "name": "E5",
                    "midi": 76,
                    "time": 451.25,
                    "velocity": 0.7952755905511811,
                    "duration": 0.3125
                },
                {
                    "name": "E6",
                    "midi": 88,
                    "time": 451.25,
                    "velocity": 0.7952755905511811,
                    "duration": 0.3125
                },
                {
                    "name": "C5",
                    "midi": 72,
                    "time": 451.5625,
                    "velocity": 0.7952755905511811,
                    "duration": 0.3125
                },
                {
                    "name": "C6",
                    "midi": 84,
                    "time": 451.5625,
                    "velocity": 0.7952755905511811,
                    "duration": 0.3125
                },
                {
                    "name": "A4",
                    "midi": 69,
                    "time": 451.875,
                    "velocity": 0.7952755905511811,
                    "duration": 0.3125
                },
                {
                    "name": "A5",
                    "midi": 81,
                    "time": 451.875,
                    "velocity": 0.7952755905511811,
                    "duration": 0.3125
                },
                {
                    "name": "G4",
                    "midi": 67,
                    "time": 452.1875,
                    "velocity": 0.7952755905511811,
                    "duration": 0.3125
                },
                {
                    "name": "G5",
                    "midi": 79,
                    "time": 452.1875,
                    "velocity": 0.7952755905511811,
                    "duration": 0.3125
                },
                {
                    "name": "F#4",
                    "midi": 66,
                    "time": 452.5,
                    "velocity": 0.7952755905511811,
                    "duration": 0.3125
                },
                {
                    "name": "F#5",
                    "midi": 78,
                    "time": 452.5,
                    "velocity": 0.7952755905511811,
                    "duration": 0.3125
                },
                {
                    "name": "D#5",
                    "midi": 75,
                    "time": 452.8125,
                    "velocity": 0.7952755905511811,
                    "duration": 0.3125
                },
                {
                    "name": "D#6",
                    "midi": 87,
                    "time": 452.8125,
                    "velocity": 0.7952755905511811,
                    "duration": 0.3125
                },
                {
                    "name": "F4",
                    "midi": 65,
                    "time": 453.125,
                    "velocity": 0.7952755905511811,
                    "duration": 0.3125
                },
                {
                    "name": "F5",
                    "midi": 77,
                    "time": 453.125,
                    "velocity": 0.7952755905511811,
                    "duration": 0.3125
                },
                {
                    "name": "D5",
                    "midi": 74,
                    "time": 453.4375,
                    "velocity": 0.7952755905511811,
                    "duration": 0.3125
                },
                {
                    "name": "D6",
                    "midi": 86,
                    "time": 453.4375,
                    "velocity": 0.7952755905511811,
                    "duration": 0.3125
                },
                {
                    "name": "F#4",
                    "midi": 66,
                    "time": 453.75,
                    "velocity": 0.7952755905511811,
                    "duration": 0.3125
                },
                {
                    "name": "F#5",
                    "midi": 78,
                    "time": 453.75,
                    "velocity": 0.7952755905511811,
                    "duration": 0.3125
                },
                {
                    "name": "D#5",
                    "midi": 75,
                    "time": 454.0625,
                    "velocity": 0.7952755905511811,
                    "duration": 0.3125
                },
                {
                    "name": "D#6",
                    "midi": 87,
                    "time": 454.0625,
                    "velocity": 0.7952755905511811,
                    "duration": 0.3125
                },
                {
                    "name": "F4",
                    "midi": 65,
                    "time": 454.375,
                    "velocity": 0.7952755905511811,
                    "duration": 0.3125
                },
                {
                    "name": "F5",
                    "midi": 77,
                    "time": 454.375,
                    "velocity": 0.7952755905511811,
                    "duration": 0.3125
                },
                {
                    "name": "D5",
                    "midi": 74,
                    "time": 454.6875,
                    "velocity": 0.7952755905511811,
                    "duration": 0.3125
                },
                {
                    "name": "D6",
                    "midi": 86,
                    "time": 454.6875,
                    "velocity": 0.7952755905511811,
                    "duration": 0.3125
                },
                {
                    "name": "F#4",
                    "midi": 66,
                    "time": 455,
                    "velocity": 0.7952755905511811,
                    "duration": 0.3125
                },
                {
                    "name": "F#5",
                    "midi": 78,
                    "time": 455,
                    "velocity": 0.7952755905511811,
                    "duration": 0.3125
                },
                {
                    "name": "D5",
                    "midi": 74,
                    "time": 455.3125,
                    "velocity": 0.7952755905511811,
                    "duration": 0.3125
                },
                {
                    "name": "D6",
                    "midi": 86,
                    "time": 455.3125,
                    "velocity": 0.7952755905511811,
                    "duration": 0.3125
                },
                {
                    "name": "F4",
                    "midi": 65,
                    "time": 455.625,
                    "velocity": 0.7952755905511811,
                    "duration": 0.3125
                },
                {
                    "name": "F5",
                    "midi": 77,
                    "time": 455.625,
                    "velocity": 0.7952755905511811,
                    "duration": 0.3125
                },
                {
                    "name": "D5",
                    "midi": 74,
                    "time": 455.9375,
                    "velocity": 0.7952755905511811,
                    "duration": 0.3125
                },
                {
                    "name": "D6",
                    "midi": 86,
                    "time": 455.9375,
                    "velocity": 0.7952755905511811,
                    "duration": 0.3125
                },
                {
                    "name": "E4",
                    "midi": 64,
                    "time": 456.25,
                    "velocity": 0.5905511811023622,
                    "duration": 0.3125
                },
                {
                    "name": "G4",
                    "midi": 67,
                    "time": 456.25,
                    "velocity": 0.5905511811023622,
                    "duration": 0.3125
                },
                {
                    "name": "B4",
                    "midi": 71,
                    "time": 456.25,
                    "velocity": 0.5905511811023622,
                    "duration": 0.3125
                },
                {
                    "name": "C5",
                    "midi": 72,
                    "time": 456.25,
                    "velocity": 0.5905511811023622,
                    "duration": 0.3125
                },
                {
                    "name": "C4",
                    "midi": 60,
                    "time": 456.5625,
                    "velocity": 0.5905511811023622,
                    "duration": 0.3125
                },
                {
                    "name": "F4",
                    "midi": 65,
                    "time": 456.5625,
                    "velocity": 0.5905511811023622,
                    "duration": 0.3125
                },
                {
                    "name": "A4",
                    "midi": 69,
                    "time": 456.5625,
                    "velocity": 0.5905511811023622,
                    "duration": 0.3125
                },
                {
                    "name": "C5",
                    "midi": 72,
                    "time": 456.5625,
                    "velocity": 0.5905511811023622,
                    "duration": 0.3125
                },
                {
                    "name": "E5",
                    "midi": 76,
                    "time": 456.5625,
                    "velocity": 0.5905511811023622,
                    "duration": 0.3125
                },
                {
                    "name": "F4",
                    "midi": 65,
                    "time": 456.875,
                    "velocity": 0.5905511811023622,
                    "duration": 0.3125
                },
                {
                    "name": "A4",
                    "midi": 69,
                    "time": 456.875,
                    "velocity": 0.5905511811023622,
                    "duration": 0.3125
                },
                {
                    "name": "C5",
                    "midi": 72,
                    "time": 456.875,
                    "velocity": 0.5905511811023622,
                    "duration": 0.3125
                },
                {
                    "name": "D5",
                    "midi": 74,
                    "time": 456.875,
                    "velocity": 0.5905511811023622,
                    "duration": 0.3125
                },
                {
                    "name": "D4",
                    "midi": 62,
                    "time": 457.1875,
                    "velocity": 0.5905511811023622,
                    "duration": 0.3125
                },
                {
                    "name": "G4",
                    "midi": 67,
                    "time": 457.1875,
                    "velocity": 0.5905511811023622,
                    "duration": 0.3125
                },
                {
                    "name": "B4",
                    "midi": 71,
                    "time": 457.1875,
                    "velocity": 0.5905511811023622,
                    "duration": 0.3125
                },
                {
                    "name": "D5",
                    "midi": 74,
                    "time": 457.1875,
                    "velocity": 0.5905511811023622,
                    "duration": 0.3125
                },
                {
                    "name": "F5",
                    "midi": 77,
                    "time": 457.1875,
                    "velocity": 0.5905511811023622,
                    "duration": 0.3125
                },
                {
                    "name": "G4",
                    "midi": 67,
                    "time": 457.5,
                    "velocity": 0.5905511811023622,
                    "duration": 0.3125
                },
                {
                    "name": "B4",
                    "midi": 71,
                    "time": 457.5,
                    "velocity": 0.5905511811023622,
                    "duration": 0.3125
                },
                {
                    "name": "D5",
                    "midi": 74,
                    "time": 457.5,
                    "velocity": 0.5905511811023622,
                    "duration": 0.3125
                },
                {
                    "name": "E5",
                    "midi": 76,
                    "time": 457.5,
                    "velocity": 0.5905511811023622,
                    "duration": 0.3125
                },
                {
                    "name": "E4",
                    "midi": 64,
                    "time": 457.8125,
                    "velocity": 0.5905511811023622,
                    "duration": 0.625
                },
                {
                    "name": "A4",
                    "midi": 69,
                    "time": 457.8125,
                    "velocity": 0.5905511811023622,
                    "duration": 0.625
                },
                {
                    "name": "C5",
                    "midi": 72,
                    "time": 457.8125,
                    "velocity": 0.5905511811023622,
                    "duration": 0.625
                },
                {
                    "name": "E5",
                    "midi": 76,
                    "time": 457.8125,
                    "velocity": 0.5905511811023622,
                    "duration": 0.625
                },
                {
                    "name": "G5",
                    "midi": 79,
                    "time": 457.8125,
                    "velocity": 0.5905511811023622,
                    "duration": 0.625
                },
                {
                    "name": "A4",
                    "midi": 69,
                    "time": 458.4375,
                    "velocity": 0.5905511811023622,
                    "duration": 0.3125
                },
                {
                    "name": "C5",
                    "midi": 72,
                    "time": 458.4375,
                    "velocity": 0.5905511811023622,
                    "duration": 0.3125
                },
                {
                    "name": "E5",
                    "midi": 76,
                    "time": 458.4375,
                    "velocity": 0.5905511811023622,
                    "duration": 0.3125
                },
                {
                    "name": "F5",
                    "midi": 77,
                    "time": 458.4375,
                    "velocity": 0.5905511811023622,
                    "duration": 0.3125
                },
                {
                    "name": "F4",
                    "midi": 65,
                    "time": 458.75,
                    "velocity": 0.5905511811023622,
                    "duration": 0.3125
                },
                {
                    "name": "B4",
                    "midi": 71,
                    "time": 458.75,
                    "velocity": 0.5905511811023622,
                    "duration": 0.3125
                },
                {
                    "name": "D5",
                    "midi": 74,
                    "time": 458.75,
                    "velocity": 0.5905511811023622,
                    "duration": 0.3125
                },
                {
                    "name": "F5",
                    "midi": 77,
                    "time": 458.75,
                    "velocity": 0.5905511811023622,
                    "duration": 0.3125
                },
                {
                    "name": "A5",
                    "midi": 81,
                    "time": 458.75,
                    "velocity": 0.5905511811023622,
                    "duration": 0.3125
                },
                {
                    "name": "B4",
                    "midi": 71,
                    "time": 459.0625,
                    "velocity": 0.5905511811023622,
                    "duration": 0.3125
                },
                {
                    "name": "D5",
                    "midi": 74,
                    "time": 459.0625,
                    "velocity": 0.5905511811023622,
                    "duration": 0.3125
                },
                {
                    "name": "F5",
                    "midi": 77,
                    "time": 459.0625,
                    "velocity": 0.5905511811023622,
                    "duration": 0.3125
                },
                {
                    "name": "G5",
                    "midi": 79,
                    "time": 459.0625,
                    "velocity": 0.5905511811023622,
                    "duration": 0.3125
                },
                {
                    "name": "G4",
                    "midi": 67,
                    "time": 459.375,
                    "velocity": 0.5905511811023622,
                    "duration": 0.3125
                },
                {
                    "name": "C5",
                    "midi": 72,
                    "time": 459.375,
                    "velocity": 0.5905511811023622,
                    "duration": 0.3125
                },
                {
                    "name": "E5",
                    "midi": 76,
                    "time": 459.375,
                    "velocity": 0.5905511811023622,
                    "duration": 0.3125
                },
                {
                    "name": "G5",
                    "midi": 79,
                    "time": 459.375,
                    "velocity": 0.5905511811023622,
                    "duration": 0.3125
                },
                {
                    "name": "B5",
                    "midi": 83,
                    "time": 459.375,
                    "velocity": 0.5905511811023622,
                    "duration": 0.3125
                },
                {
                    "name": "C5",
                    "midi": 72,
                    "time": 459.6875,
                    "velocity": 0.5905511811023622,
                    "duration": 0.3125
                },
                {
                    "name": "E5",
                    "midi": 76,
                    "time": 459.6875,
                    "velocity": 0.5905511811023622,
                    "duration": 0.3125
                },
                {
                    "name": "G5",
                    "midi": 79,
                    "time": 459.6875,
                    "velocity": 0.5905511811023622,
                    "duration": 0.3125
                },
                {
                    "name": "A5",
                    "midi": 81,
                    "time": 459.6875,
                    "velocity": 0.5905511811023622,
                    "duration": 0.3125
                },
                {
                    "name": "A4",
                    "midi": 69,
                    "time": 460,
                    "velocity": 0.5905511811023622,
                    "duration": 0.3125
                },
                {
                    "name": "D5",
                    "midi": 74,
                    "time": 460,
                    "velocity": 0.5905511811023622,
                    "duration": 0.3125
                },
                {
                    "name": "F5",
                    "midi": 77,
                    "time": 460,
                    "velocity": 0.5905511811023622,
                    "duration": 0.3125
                },
                {
                    "name": "A5",
                    "midi": 81,
                    "time": 460,
                    "velocity": 0.5905511811023622,
                    "duration": 0.3125
                },
                {
                    "name": "C6",
                    "midi": 84,
                    "time": 460,
                    "velocity": 0.5905511811023622,
                    "duration": 0.3125
                },
                {
                    "name": "D5",
                    "midi": 74,
                    "time": 460.3125,
                    "velocity": 0.5905511811023622,
                    "duration": 0.625
                },
                {
                    "name": "F5",
                    "midi": 77,
                    "time": 460.3125,
                    "velocity": 0.5905511811023622,
                    "duration": 0.625
                },
                {
                    "name": "A5",
                    "midi": 81,
                    "time": 460.3125,
                    "velocity": 0.5905511811023622,
                    "duration": 0.625
                },
                {
                    "name": "B5",
                    "midi": 83,
                    "time": 460.3125,
                    "velocity": 0.5905511811023622,
                    "duration": 0.625
                },
                {
                    "name": "B4",
                    "midi": 71,
                    "time": 460.9375,
                    "velocity": 0.5905511811023622,
                    "duration": 0.3125
                },
                {
                    "name": "E5",
                    "midi": 76,
                    "time": 460.9375,
                    "velocity": 0.5905511811023622,
                    "duration": 0.3125
                },
                {
                    "name": "G5",
                    "midi": 79,
                    "time": 460.9375,
                    "velocity": 0.5905511811023622,
                    "duration": 0.3125
                },
                {
                    "name": "B5",
                    "midi": 83,
                    "time": 460.9375,
                    "velocity": 0.5905511811023622,
                    "duration": 0.3125
                },
                {
                    "name": "C5",
                    "midi": 72,
                    "time": 461.25,
                    "velocity": 0.7952755905511811,
                    "duration": 2.8125
                },
                {
                    "name": "C6",
                    "midi": 84,
                    "time": 461.25,
                    "velocity": 0.7952755905511811,
                    "duration": 2.8125
                },
                {
                    "name": "C5",
                    "midi": 72,
                    "time": 464.0625,
                    "velocity": 0.7952755905511811,
                    "duration": 0.3125
                },
                {
                    "name": "C6",
                    "midi": 84,
                    "time": 464.0625,
                    "velocity": 0.7952755905511811,
                    "duration": 0.3125
                },
                {
                    "name": "D5",
                    "midi": 74,
                    "time": 464.375,
                    "velocity": 0.7952755905511811,
                    "duration": 0.3125
                },
                {
                    "name": "D6",
                    "midi": 86,
                    "time": 464.375,
                    "velocity": 0.7952755905511811,
                    "duration": 0.3125
                },
                {
                    "name": "C5",
                    "midi": 72,
                    "time": 464.6875,
                    "velocity": 0.7952755905511811,
                    "duration": 0.3125
                },
                {
                    "name": "C6",
                    "midi": 84,
                    "time": 464.6875,
                    "velocity": 0.7952755905511811,
                    "duration": 0.3125
                },
                {
                    "name": "D#5",
                    "midi": 75,
                    "time": 465,
                    "velocity": 0.7952755905511811,
                    "duration": 0.3125
                },
                {
                    "name": "D#6",
                    "midi": 87,
                    "time": 465,
                    "velocity": 0.7952755905511811,
                    "duration": 0.3125
                },
                {
                    "name": "E5",
                    "midi": 76,
                    "time": 465.3125,
                    "velocity": 0.7952755905511811,
                    "duration": 0.3125
                },
                {
                    "name": "E6",
                    "midi": 88,
                    "time": 465.3125,
                    "velocity": 0.7952755905511811,
                    "duration": 0.3125
                },
                {
                    "name": "C5",
                    "midi": 72,
                    "time": 465.625,
                    "velocity": 0.7952755905511811,
                    "duration": 0.3125
                },
                {
                    "name": "C6",
                    "midi": 84,
                    "time": 465.625,
                    "velocity": 0.7952755905511811,
                    "duration": 0.3125
                },
                {
                    "name": "A4",
                    "midi": 69,
                    "time": 465.9375,
                    "velocity": 0.7952755905511811,
                    "duration": 0.3125
                },
                {
                    "name": "A5",
                    "midi": 81,
                    "time": 465.9375,
                    "velocity": 0.7952755905511811,
                    "duration": 0.3125
                },
                {
                    "name": "E4",
                    "midi": 64,
                    "time": 466.25,
                    "velocity": 0.7952755905511811,
                    "duration": 2.5
                },
                {
                    "name": "E5",
                    "midi": 76,
                    "time": 466.25,
                    "velocity": 0.7952755905511811,
                    "duration": 2.5
                },
                {
                    "name": "E4",
                    "midi": 64,
                    "time": 468.75,
                    "velocity": 0.7952755905511811,
                    "duration": 0.3125
                },
                {
                    "name": "E5",
                    "midi": 76,
                    "time": 468.75,
                    "velocity": 0.7952755905511811,
                    "duration": 0.3125
                },
                {
                    "name": "B3",
                    "midi": 59,
                    "time": 469.0625,
                    "velocity": 0.7952755905511811,
                    "duration": 0.3125
                },
                {
                    "name": "B4",
                    "midi": 71,
                    "time": 469.0625,
                    "velocity": 0.7952755905511811,
                    "duration": 0.3125
                },
                {
                    "name": "D4",
                    "midi": 62,
                    "time": 469.375,
                    "velocity": 0.7952755905511811,
                    "duration": 0.3125
                },
                {
                    "name": "D5",
                    "midi": 74,
                    "time": 469.375,
                    "velocity": 0.7952755905511811,
                    "duration": 0.3125
                },
                {
                    "name": "C4",
                    "midi": 60,
                    "time": 469.6875,
                    "velocity": 0.7952755905511811,
                    "duration": 0.3125
                },
                {
                    "name": "C5",
                    "midi": 72,
                    "time": 469.6875,
                    "velocity": 0.7952755905511811,
                    "duration": 0.3125
                },
                {
                    "name": "E4",
                    "midi": 64,
                    "time": 470,
                    "velocity": 0.7952755905511811,
                    "duration": 0.3125
                },
                {
                    "name": "E5",
                    "midi": 76,
                    "time": 470,
                    "velocity": 0.7952755905511811,
                    "duration": 0.3125
                },
                {
                    "name": "G4",
                    "midi": 67,
                    "time": 470.3125,
                    "velocity": 0.7952755905511811,
                    "duration": 0.3125
                },
                {
                    "name": "G5",
                    "midi": 79,
                    "time": 470.3125,
                    "velocity": 0.7952755905511811,
                    "duration": 0.3125
                },
                {
                    "name": "E4",
                    "midi": 64,
                    "time": 470.625,
                    "velocity": 0.7952755905511811,
                    "duration": 0.3125
                },
                {
                    "name": "E5",
                    "midi": 76,
                    "time": 470.625,
                    "velocity": 0.7952755905511811,
                    "duration": 0.3125
                },
                {
                    "name": "E4",
                    "midi": 64,
                    "time": 470.9375,
                    "velocity": 0.7952755905511811,
                    "duration": 0.3125
                },
                {
                    "name": "E5",
                    "midi": 76,
                    "time": 470.9375,
                    "velocity": 0.7952755905511811,
                    "duration": 0.3125
                },
                {
                    "name": "E4",
                    "midi": 64,
                    "time": 471.25,
                    "velocity": 0.5905511811023622,
                    "duration": 2.5
                },
                {
                    "name": "E5",
                    "midi": 76,
                    "time": 471.25,
                    "velocity": 0.5905511811023622,
                    "duration": 2.5
                },
                {
                    "name": "B4",
                    "midi": 71,
                    "time": 473.75,
                    "velocity": 0.5905511811023622,
                    "duration": 0.3125
                },
                {
                    "name": "B5",
                    "midi": 83,
                    "time": 473.75,
                    "velocity": 0.5905511811023622,
                    "duration": 0.3125
                },
                {
                    "name": "D5",
                    "midi": 74,
                    "time": 474.0625,
                    "velocity": 0.5905511811023622,
                    "duration": 0.15625
                },
                {
                    "name": "D6",
                    "midi": 86,
                    "time": 474.0625,
                    "velocity": 0.5905511811023622,
                    "duration": 0.15625
                },
                {
                    "name": "B4",
                    "midi": 71,
                    "time": 474.21875,
                    "velocity": 0.5905511811023622,
                    "duration": 0.15625
                },
                {
                    "name": "B5",
                    "midi": 83,
                    "time": 474.21875,
                    "velocity": 0.5905511811023622,
                    "duration": 0.15625
                },
                {
                    "name": "D5",
                    "midi": 74,
                    "time": 474.375,
                    "velocity": 0.5905511811023622,
                    "duration": 0.3125
                },
                {
                    "name": "D6",
                    "midi": 86,
                    "time": 474.375,
                    "velocity": 0.5905511811023622,
                    "duration": 0.3125
                },
                {
                    "name": "B4",
                    "midi": 71,
                    "time": 474.6875,
                    "velocity": 0.5905511811023622,
                    "duration": 0.3125
                },
                {
                    "name": "B5",
                    "midi": 83,
                    "time": 474.6875,
                    "velocity": 0.5905511811023622,
                    "duration": 0.3125
                },
                {
                    "name": "D5",
                    "midi": 74,
                    "time": 475,
                    "velocity": 0.5905511811023622,
                    "duration": 0.15625
                },
                {
                    "name": "D6",
                    "midi": 86,
                    "time": 475,
                    "velocity": 0.5905511811023622,
                    "duration": 0.15625
                },
                {
                    "name": "B4",
                    "midi": 71,
                    "time": 475.15625,
                    "velocity": 0.5905511811023622,
                    "duration": 0.15625
                },
                {
                    "name": "B5",
                    "midi": 83,
                    "time": 475.15625,
                    "velocity": 0.5905511811023622,
                    "duration": 0.15625
                },
                {
                    "name": "D5",
                    "midi": 74,
                    "time": 475.3125,
                    "velocity": 0.5905511811023622,
                    "duration": 0.3125
                },
                {
                    "name": "D6",
                    "midi": 86,
                    "time": 475.3125,
                    "velocity": 0.5905511811023622,
                    "duration": 0.3125
                },
                {
                    "name": "B4",
                    "midi": 71,
                    "time": 475.625,
                    "velocity": 0.5905511811023622,
                    "duration": 0.3125
                },
                {
                    "name": "B5",
                    "midi": 83,
                    "time": 475.625,
                    "velocity": 0.5905511811023622,
                    "duration": 0.3125
                },
                {
                    "name": "D5",
                    "midi": 74,
                    "time": 475.9375,
                    "velocity": 0.5905511811023622,
                    "duration": 0.3125
                },
                {
                    "name": "D6",
                    "midi": 86,
                    "time": 475.9375,
                    "velocity": 0.5905511811023622,
                    "duration": 0.3125
                },
                {
                    "name": "F#5",
                    "midi": 78,
                    "time": 476.25,
                    "velocity": 0.5905511811023622,
                    "duration": 0.625
                },
                {
                    "name": "F#6",
                    "midi": 90,
                    "time": 476.25,
                    "velocity": 0.5905511811023622,
                    "duration": 0.625
                },
                {
                    "name": "C#5",
                    "midi": 73,
                    "time": 476.875,
                    "velocity": 0.5905511811023622,
                    "duration": 0.625
                },
                {
                    "name": "C#6",
                    "midi": 85,
                    "time": 476.875,
                    "velocity": 0.5905511811023622,
                    "duration": 0.625
                },
                {
                    "name": "F#4",
                    "midi": 66,
                    "time": 477.5,
                    "velocity": 0.5905511811023622,
                    "duration": 0.625
                },
                {
                    "name": "F#5",
                    "midi": 78,
                    "time": 477.5,
                    "velocity": 0.5905511811023622,
                    "duration": 0.625
                },
                {
                    "name": "C#4",
                    "midi": 61,
                    "time": 478.125,
                    "velocity": 0.5905511811023622,
                    "duration": 0.625
                },
                {
                    "name": "C#5",
                    "midi": 73,
                    "time": 478.125,
                    "velocity": 0.5905511811023622,
                    "duration": 0.625
                },
                {
                    "name": "G#4",
                    "midi": 68,
                    "time": 478.75,
                    "velocity": 0.5905511811023622,
                    "duration": 0.3125
                },
                {
                    "name": "G#5",
                    "midi": 80,
                    "time": 478.75,
                    "velocity": 0.5905511811023622,
                    "duration": 0.3125
                },
                {
                    "name": "B4",
                    "midi": 71,
                    "time": 479.0625,
                    "velocity": 0.5905511811023622,
                    "duration": 0.15625
                },
                {
                    "name": "B5",
                    "midi": 83,
                    "time": 479.0625,
                    "velocity": 0.5905511811023622,
                    "duration": 0.15625
                },
                {
                    "name": "G#4",
                    "midi": 68,
                    "time": 479.21875,
                    "velocity": 0.5905511811023622,
                    "duration": 0.15625
                },
                {
                    "name": "G#5",
                    "midi": 80,
                    "time": 479.21875,
                    "velocity": 0.5905511811023622,
                    "duration": 0.15625
                },
                {
                    "name": "B4",
                    "midi": 71,
                    "time": 479.375,
                    "velocity": 0.5905511811023622,
                    "duration": 0.3125
                },
                {
                    "name": "B5",
                    "midi": 83,
                    "time": 479.375,
                    "velocity": 0.5905511811023622,
                    "duration": 0.3125
                },
                {
                    "name": "G#4",
                    "midi": 68,
                    "time": 479.6875,
                    "velocity": 0.5905511811023622,
                    "duration": 0.3125
                },
                {
                    "name": "G#5",
                    "midi": 80,
                    "time": 479.6875,
                    "velocity": 0.5905511811023622,
                    "duration": 0.3125
                },
                {
                    "name": "B4",
                    "midi": 71,
                    "time": 480,
                    "velocity": 0.5905511811023622,
                    "duration": 0.15625
                },
                {
                    "name": "B5",
                    "midi": 83,
                    "time": 480,
                    "velocity": 0.5905511811023622,
                    "duration": 0.15625
                },
                {
                    "name": "G#4",
                    "midi": 68,
                    "time": 480.15625,
                    "velocity": 0.5905511811023622,
                    "duration": 0.15625
                },
                {
                    "name": "G#5",
                    "midi": 80,
                    "time": 480.15625,
                    "velocity": 0.5905511811023622,
                    "duration": 0.15625
                },
                {
                    "name": "B4",
                    "midi": 71,
                    "time": 480.3125,
                    "velocity": 0.5905511811023622,
                    "duration": 0.3125
                },
                {
                    "name": "B5",
                    "midi": 83,
                    "time": 480.3125,
                    "velocity": 0.5905511811023622,
                    "duration": 0.3125
                },
                {
                    "name": "G#4",
                    "midi": 68,
                    "time": 480.625,
                    "velocity": 0.5905511811023622,
                    "duration": 0.3125
                },
                {
                    "name": "G#5",
                    "midi": 80,
                    "time": 480.625,
                    "velocity": 0.5905511811023622,
                    "duration": 0.3125
                },
                {
                    "name": "B4",
                    "midi": 71,
                    "time": 480.9375,
                    "velocity": 0.5905511811023622,
                    "duration": 0.3125
                },
                {
                    "name": "B5",
                    "midi": 83,
                    "time": 480.9375,
                    "velocity": 0.5905511811023622,
                    "duration": 0.3125
                },
                {
                    "name": "D#4",
                    "midi": 63,
                    "time": 481.25,
                    "velocity": 0.5905511811023622,
                    "duration": 0.15625
                },
                {
                    "name": "D#5",
                    "midi": 75,
                    "time": 481.25,
                    "velocity": 0.5905511811023622,
                    "duration": 0.15625
                },
                {
                    "name": "F4",
                    "midi": 65,
                    "time": 481.40625,
                    "velocity": 0.5905511811023622,
                    "duration": 0.15625
                },
                {
                    "name": "F5",
                    "midi": 77,
                    "time": 481.40625,
                    "velocity": 0.5905511811023622,
                    "duration": 0.15625
                },
                {
                    "name": "G4",
                    "midi": 67,
                    "time": 481.5625,
                    "velocity": 0.5905511811023622,
                    "duration": 0.15625
                },
                {
                    "name": "G5",
                    "midi": 79,
                    "time": 481.5625,
                    "velocity": 0.5905511811023622,
                    "duration": 0.15625
                },
                {
                    "name": "G#4",
                    "midi": 68,
                    "time": 481.71875,
                    "velocity": 0.5905511811023622,
                    "duration": 0.15625
                },
                {
                    "name": "G#5",
                    "midi": 80,
                    "time": 481.71875,
                    "velocity": 0.5905511811023622,
                    "duration": 0.15625
                },
                {
                    "name": "A#4",
                    "midi": 70,
                    "time": 481.875,
                    "velocity": 0.5905511811023622,
                    "duration": 0.3125
                },
                {
                    "name": "A#5",
                    "midi": 82,
                    "time": 481.875,
                    "velocity": 0.5905511811023622,
                    "duration": 0.3125
                },
                {
                    "name": "C5",
                    "midi": 72,
                    "time": 482.1875,
                    "velocity": 0.5905511811023622,
                    "duration": 0.3125
                },
                {
                    "name": "C6",
                    "midi": 84,
                    "time": 482.1875,
                    "velocity": 0.5905511811023622,
                    "duration": 0.3125
                },
                {
                    "name": "A#4",
                    "midi": 70,
                    "time": 482.5,
                    "velocity": 0.5905511811023622,
                    "duration": 0.3125
                },
                {
                    "name": "A#5",
                    "midi": 82,
                    "time": 482.5,
                    "velocity": 0.5905511811023622,
                    "duration": 0.3125
                },
                {
                    "name": "D#4",
                    "midi": 63,
                    "time": 482.8125,
                    "velocity": 0.5905511811023622,
                    "duration": 0.061197916666685614
                },
                {
                    "name": "D#5",
                    "midi": 75,
                    "time": 482.8125,
                    "velocity": 0.5905511811023622,
                    "duration": 0.061197916666685614
                },
                {
                    "name": "F#4",
                    "midi": 66,
                    "time": 483.125,
                    "velocity": 0.5905511811023622,
                    "duration": 0.3125
                },
                {
                    "name": "F#5",
                    "midi": 78,
                    "time": 483.125,
                    "velocity": 0.5905511811023622,
                    "duration": 0.3125
                },
                {
                    "name": "F4",
                    "midi": 65,
                    "time": 483.4375,
                    "velocity": 0.5905511811023622,
                    "duration": 0.3125
                },
                {
                    "name": "F5",
                    "midi": 77,
                    "time": 483.4375,
                    "velocity": 0.5905511811023622,
                    "duration": 0.3125
                },
                {
                    "name": "D#4",
                    "midi": 63,
                    "time": 483.75,
                    "velocity": 0.5905511811023622,
                    "duration": 0.061197916666685614
                },
                {
                    "name": "D#5",
                    "midi": 75,
                    "time": 483.75,
                    "velocity": 0.5905511811023622,
                    "duration": 0.061197916666685614
                },
                {
                    "name": "C4",
                    "midi": 60,
                    "time": 484.0625,
                    "velocity": 0.5905511811023622,
                    "duration": 0.061197916666685614
                },
                {
                    "name": "C5",
                    "midi": 72,
                    "time": 484.0625,
                    "velocity": 0.5905511811023622,
                    "duration": 0.061197916666685614
                },
                {
                    "name": "D#4",
                    "midi": 63,
                    "time": 484.375,
                    "velocity": 0.5905511811023622,
                    "duration": 0.15625
                },
                {
                    "name": "D#5",
                    "midi": 75,
                    "time": 484.375,
                    "velocity": 0.5905511811023622,
                    "duration": 0.15625
                },
                {
                    "name": "F4",
                    "midi": 65,
                    "time": 484.53125,
                    "velocity": 0.5905511811023622,
                    "duration": 0.15625
                },
                {
                    "name": "F5",
                    "midi": 77,
                    "time": 484.53125,
                    "velocity": 0.5905511811023622,
                    "duration": 0.15625
                },
                {
                    "name": "G4",
                    "midi": 67,
                    "time": 484.6875,
                    "velocity": 0.5905511811023622,
                    "duration": 0.15625
                },
                {
                    "name": "G5",
                    "midi": 79,
                    "time": 484.6875,
                    "velocity": 0.5905511811023622,
                    "duration": 0.15625
                },
                {
                    "name": "G#4",
                    "midi": 68,
                    "time": 484.84375,
                    "velocity": 0.5905511811023622,
                    "duration": 0.15625
                },
                {
                    "name": "G#5",
                    "midi": 80,
                    "time": 484.84375,
                    "velocity": 0.5905511811023622,
                    "duration": 0.15625
                },
                {
                    "name": "A#4",
                    "midi": 70,
                    "time": 485,
                    "velocity": 0.5905511811023622,
                    "duration": 0.3125
                },
                {
                    "name": "A#5",
                    "midi": 82,
                    "time": 485,
                    "velocity": 0.5905511811023622,
                    "duration": 0.3125
                },
                {
                    "name": "C5",
                    "midi": 72,
                    "time": 485.3125,
                    "velocity": 0.5905511811023622,
                    "duration": 0.3125
                },
                {
                    "name": "C6",
                    "midi": 84,
                    "time": 485.3125,
                    "velocity": 0.5905511811023622,
                    "duration": 0.3125
                },
                {
                    "name": "A#4",
                    "midi": 70,
                    "time": 485.625,
                    "velocity": 0.5905511811023622,
                    "duration": 0.3125
                },
                {
                    "name": "A#5",
                    "midi": 82,
                    "time": 485.625,
                    "velocity": 0.5905511811023622,
                    "duration": 0.3125
                },
                {
                    "name": "F#5",
                    "midi": 78,
                    "time": 485.9375,
                    "velocity": 0.5905511811023622,
                    "duration": 0.061197916666685614
                },
                {
                    "name": "F#6",
                    "midi": 90,
                    "time": 485.9375,
                    "velocity": 0.5905511811023622,
                    "duration": 0.061197916666685614
                },
                {
                    "name": "F#5",
                    "midi": 78,
                    "time": 486.25,
                    "velocity": 0.5905511811023622,
                    "duration": 0.3125
                },
                {
                    "name": "F#6",
                    "midi": 90,
                    "time": 486.25,
                    "velocity": 0.5905511811023622,
                    "duration": 0.3125
                },
                {
                    "name": "F5",
                    "midi": 77,
                    "time": 486.5625,
                    "velocity": 0.5905511811023622,
                    "duration": 0.3125
                },
                {
                    "name": "F6",
                    "midi": 89,
                    "time": 486.5625,
                    "velocity": 0.5905511811023622,
                    "duration": 0.3125
                },
                {
                    "name": "D#5",
                    "midi": 75,
                    "time": 486.875,
                    "velocity": 0.5905511811023622,
                    "duration": 0.061197916666685614
                },
                {
                    "name": "D#6",
                    "midi": 87,
                    "time": 486.875,
                    "velocity": 0.5905511811023622,
                    "duration": 0.061197916666685614
                },
                {
                    "name": "C5",
                    "midi": 72,
                    "time": 487.1875,
                    "velocity": 0.5905511811023622,
                    "duration": 0.061197916666685614
                },
                {
                    "name": "C6",
                    "midi": 84,
                    "time": 487.1875,
                    "velocity": 0.5905511811023622,
                    "duration": 0.061197916666685614
                },
                {
                    "name": "D#4",
                    "midi": 63,
                    "time": 487.5,
                    "velocity": 0.5905511811023622,
                    "duration": 0.15625
                },
                {
                    "name": "D#5",
                    "midi": 75,
                    "time": 487.5,
                    "velocity": 0.5905511811023622,
                    "duration": 0.15625
                },
                {
                    "name": "F4",
                    "midi": 65,
                    "time": 487.65625,
                    "velocity": 0.5905511811023622,
                    "duration": 0.15625
                },
                {
                    "name": "F5",
                    "midi": 77,
                    "time": 487.65625,
                    "velocity": 0.5905511811023622,
                    "duration": 0.15625
                },
                {
                    "name": "G4",
                    "midi": 67,
                    "time": 487.8125,
                    "velocity": 0.5905511811023622,
                    "duration": 0.15625
                },
                {
                    "name": "G5",
                    "midi": 79,
                    "time": 487.8125,
                    "velocity": 0.5905511811023622,
                    "duration": 0.15625
                },
                {
                    "name": "G#4",
                    "midi": 68,
                    "time": 487.96875,
                    "velocity": 0.5905511811023622,
                    "duration": 0.15625
                },
                {
                    "name": "G#5",
                    "midi": 80,
                    "time": 487.96875,
                    "velocity": 0.5905511811023622,
                    "duration": 0.15625
                },
                {
                    "name": "A#4",
                    "midi": 70,
                    "time": 488.125,
                    "velocity": 0.5905511811023622,
                    "duration": 0.3125
                },
                {
                    "name": "A#5",
                    "midi": 82,
                    "time": 488.125,
                    "velocity": 0.5905511811023622,
                    "duration": 0.3125
                },
                {
                    "name": "C5",
                    "midi": 72,
                    "time": 488.4375,
                    "velocity": 0.5905511811023622,
                    "duration": 0.061197916666685614
                },
                {
                    "name": "C6",
                    "midi": 84,
                    "time": 488.4375,
                    "velocity": 0.5905511811023622,
                    "duration": 0.061197916666685614
                },
                {
                    "name": "C5",
                    "midi": 72,
                    "time": 488.75,
                    "velocity": 0.7952755905511811,
                    "duration": 0.3125
                },
                {
                    "name": "C6",
                    "midi": 84,
                    "time": 488.75,
                    "velocity": 0.7952755905511811,
                    "duration": 0.3125
                },
                {
                    "name": "A#4",
                    "midi": 70,
                    "time": 489.0625,
                    "velocity": 0.5905511811023622,
                    "duration": 0.3125
                },
                {
                    "name": "A#5",
                    "midi": 82,
                    "time": 489.0625,
                    "velocity": 0.5905511811023622,
                    "duration": 0.3125
                },
                {
                    "name": "D#4",
                    "midi": 63,
                    "time": 489.375,
                    "velocity": 0.5905511811023622,
                    "duration": 0.15625
                },
                {
                    "name": "D#5",
                    "midi": 75,
                    "time": 489.375,
                    "velocity": 0.5905511811023622,
                    "duration": 0.15625
                },
                {
                    "name": "F4",
                    "midi": 65,
                    "time": 489.53125,
                    "velocity": 0.5905511811023622,
                    "duration": 0.15625
                },
                {
                    "name": "F5",
                    "midi": 77,
                    "time": 489.53125,
                    "velocity": 0.5905511811023622,
                    "duration": 0.15625
                },
                {
                    "name": "G4",
                    "midi": 67,
                    "time": 489.6875,
                    "velocity": 0.5905511811023622,
                    "duration": 0.15625
                },
                {
                    "name": "G5",
                    "midi": 79,
                    "time": 489.6875,
                    "velocity": 0.5905511811023622,
                    "duration": 0.15625
                },
                {
                    "name": "G#4",
                    "midi": 68,
                    "time": 489.84375,
                    "velocity": 0.5905511811023622,
                    "duration": 0.15625
                },
                {
                    "name": "G#5",
                    "midi": 80,
                    "time": 489.84375,
                    "velocity": 0.5905511811023622,
                    "duration": 0.15625
                },
                {
                    "name": "A#4",
                    "midi": 70,
                    "time": 490,
                    "velocity": 0.5905511811023622,
                    "duration": 0.3125
                },
                {
                    "name": "A#5",
                    "midi": 82,
                    "time": 490,
                    "velocity": 0.5905511811023622,
                    "duration": 0.3125
                },
                {
                    "name": "C#5",
                    "midi": 73,
                    "time": 490.3125,
                    "velocity": 0.5905511811023622,
                    "duration": 0.061197916666685614
                },
                {
                    "name": "C#6",
                    "midi": 85,
                    "time": 490.3125,
                    "velocity": 0.5905511811023622,
                    "duration": 0.061197916666685614
                },
                {
                    "name": "C#5",
                    "midi": 73,
                    "time": 490.625,
                    "velocity": 0.7952755905511811,
                    "duration": 0.3125
                },
                {
                    "name": "C#6",
                    "midi": 85,
                    "time": 490.625,
                    "velocity": 0.7952755905511811,
                    "duration": 0.3125
                },
                {
                    "name": "A#4",
                    "midi": 70,
                    "time": 490.9375,
                    "velocity": 0.5905511811023622,
                    "duration": 0.3125
                },
                {
                    "name": "A#5",
                    "midi": 82,
                    "time": 490.9375,
                    "velocity": 0.5905511811023622,
                    "duration": 0.3125
                },
                {
                    "name": "D#4",
                    "midi": 63,
                    "time": 491.25,
                    "velocity": 0.5905511811023622,
                    "duration": 0.15625
                },
                {
                    "name": "D#5",
                    "midi": 75,
                    "time": 491.25,
                    "velocity": 0.5905511811023622,
                    "duration": 0.15625
                },
                {
                    "name": "F4",
                    "midi": 65,
                    "time": 491.40625,
                    "velocity": 0.5905511811023622,
                    "duration": 0.15625
                },
                {
                    "name": "F5",
                    "midi": 77,
                    "time": 491.40625,
                    "velocity": 0.5905511811023622,
                    "duration": 0.15625
                },
                {
                    "name": "G4",
                    "midi": 67,
                    "time": 491.5625,
                    "velocity": 0.5905511811023622,
                    "duration": 0.15625
                },
                {
                    "name": "G5",
                    "midi": 79,
                    "time": 491.5625,
                    "velocity": 0.5905511811023622,
                    "duration": 0.15625
                },
                {
                    "name": "G#4",
                    "midi": 68,
                    "time": 491.71875,
                    "velocity": 0.5905511811023622,
                    "duration": 0.15625
                },
                {
                    "name": "G#5",
                    "midi": 80,
                    "time": 491.71875,
                    "velocity": 0.5905511811023622,
                    "duration": 0.15625
                },
                {
                    "name": "A#4",
                    "midi": 70,
                    "time": 491.875,
                    "velocity": 0.5905511811023622,
                    "duration": 0.3125
                },
                {
                    "name": "A#5",
                    "midi": 82,
                    "time": 491.875,
                    "velocity": 0.5905511811023622,
                    "duration": 0.3125
                },
                {
                    "name": "D5",
                    "midi": 74,
                    "time": 492.1875,
                    "velocity": 0.5905511811023622,
                    "duration": 0.061197916666685614
                },
                {
                    "name": "D6",
                    "midi": 86,
                    "time": 492.1875,
                    "velocity": 0.5905511811023622,
                    "duration": 0.061197916666685614
                },
                {
                    "name": "D5",
                    "midi": 74,
                    "time": 492.5,
                    "velocity": 0.7952755905511811,
                    "duration": 0.3125
                },
                {
                    "name": "D6",
                    "midi": 86,
                    "time": 492.5,
                    "velocity": 0.7952755905511811,
                    "duration": 0.3125
                },
                {
                    "name": "A#4",
                    "midi": 70,
                    "time": 492.8125,
                    "velocity": 0.5905511811023622,
                    "duration": 0.3125
                },
                {
                    "name": "A#5",
                    "midi": 82,
                    "time": 492.8125,
                    "velocity": 0.5905511811023622,
                    "duration": 0.3125
                },
                {
                    "name": "D#4",
                    "midi": 63,
                    "time": 493.125,
                    "velocity": 0.5905511811023622,
                    "duration": 0.15625
                },
                {
                    "name": "D#5",
                    "midi": 75,
                    "time": 493.125,
                    "velocity": 0.5905511811023622,
                    "duration": 0.15625
                },
                {
                    "name": "F4",
                    "midi": 65,
                    "time": 493.28125,
                    "velocity": 0.5905511811023622,
                    "duration": 0.15625
                },
                {
                    "name": "F5",
                    "midi": 77,
                    "time": 493.28125,
                    "velocity": 0.5905511811023622,
                    "duration": 0.15625
                },
                {
                    "name": "G4",
                    "midi": 67,
                    "time": 493.4375,
                    "velocity": 0.5905511811023622,
                    "duration": 0.15625
                },
                {
                    "name": "G5",
                    "midi": 79,
                    "time": 493.4375,
                    "velocity": 0.5905511811023622,
                    "duration": 0.15625
                },
                {
                    "name": "G#4",
                    "midi": 68,
                    "time": 493.59375,
                    "velocity": 0.5905511811023622,
                    "duration": 0.15625
                },
                {
                    "name": "G#5",
                    "midi": 80,
                    "time": 493.59375,
                    "velocity": 0.5905511811023622,
                    "duration": 0.15625
                },
                {
                    "name": "A#4",
                    "midi": 70,
                    "time": 493.75,
                    "velocity": 0.5905511811023622,
                    "duration": 0.3125
                },
                {
                    "name": "A#5",
                    "midi": 82,
                    "time": 493.75,
                    "velocity": 0.5905511811023622,
                    "duration": 0.3125
                },
                {
                    "name": "D#5",
                    "midi": 75,
                    "time": 494.0625,
                    "velocity": 0.5905511811023622,
                    "duration": 0.061197916666685614
                },
                {
                    "name": "D#6",
                    "midi": 87,
                    "time": 494.0625,
                    "velocity": 0.5905511811023622,
                    "duration": 0.061197916666685614
                },
                {
                    "name": "D#5",
                    "midi": 75,
                    "time": 494.375,
                    "velocity": 0.7952755905511811,
                    "duration": 0.3125
                },
                {
                    "name": "D#6",
                    "midi": 87,
                    "time": 494.375,
                    "velocity": 0.7952755905511811,
                    "duration": 0.3125
                },
                {
                    "name": "A#4",
                    "midi": 70,
                    "time": 494.6875,
                    "velocity": 0.5905511811023622,
                    "duration": 0.3125
                },
                {
                    "name": "A#5",
                    "midi": 82,
                    "time": 494.6875,
                    "velocity": 0.5905511811023622,
                    "duration": 0.3125
                },
                {
                    "name": "D#4",
                    "midi": 63,
                    "time": 495,
                    "velocity": 0.5905511811023622,
                    "duration": 0.15625
                },
                {
                    "name": "D#5",
                    "midi": 75,
                    "time": 495,
                    "velocity": 0.5905511811023622,
                    "duration": 0.15625
                },
                {
                    "name": "F4",
                    "midi": 65,
                    "time": 495.15625,
                    "velocity": 0.5905511811023622,
                    "duration": 0.15625
                },
                {
                    "name": "F5",
                    "midi": 77,
                    "time": 495.15625,
                    "velocity": 0.5905511811023622,
                    "duration": 0.15625
                },
                {
                    "name": "G4",
                    "midi": 67,
                    "time": 495.3125,
                    "velocity": 0.5905511811023622,
                    "duration": 0.15625
                },
                {
                    "name": "G5",
                    "midi": 79,
                    "time": 495.3125,
                    "velocity": 0.5905511811023622,
                    "duration": 0.15625
                },
                {
                    "name": "G#4",
                    "midi": 68,
                    "time": 495.46875,
                    "velocity": 0.5905511811023622,
                    "duration": 0.15625
                },
                {
                    "name": "G#5",
                    "midi": 80,
                    "time": 495.46875,
                    "velocity": 0.5905511811023622,
                    "duration": 0.15625
                },
                {
                    "name": "A#4",
                    "midi": 70,
                    "time": 495.625,
                    "velocity": 0.5905511811023622,
                    "duration": 0.3125
                },
                {
                    "name": "A#5",
                    "midi": 82,
                    "time": 495.625,
                    "velocity": 0.5905511811023622,
                    "duration": 0.3125
                },
                {
                    "name": "E5",
                    "midi": 76,
                    "time": 495.9375,
                    "velocity": 0.5905511811023622,
                    "duration": 0.061197916666685614
                },
                {
                    "name": "E6",
                    "midi": 88,
                    "time": 495.9375,
                    "velocity": 0.5905511811023622,
                    "duration": 0.061197916666685614
                },
                {
                    "name": "E5",
                    "midi": 76,
                    "time": 496.25,
                    "velocity": 0.7952755905511811,
                    "duration": 0.3125
                },
                {
                    "name": "E6",
                    "midi": 88,
                    "time": 496.25,
                    "velocity": 0.7952755905511811,
                    "duration": 0.3125
                },
                {
                    "name": "A#4",
                    "midi": 70,
                    "time": 496.5625,
                    "velocity": 0.5905511811023622,
                    "duration": 0.3125
                },
                {
                    "name": "A#5",
                    "midi": 82,
                    "time": 496.5625,
                    "velocity": 0.5905511811023622,
                    "duration": 0.3125
                },
                {
                    "name": "D#4",
                    "midi": 63,
                    "time": 496.875,
                    "velocity": 0.5905511811023622,
                    "duration": 0.15625
                },
                {
                    "name": "D#5",
                    "midi": 75,
                    "time": 496.875,
                    "velocity": 0.5905511811023622,
                    "duration": 0.15625
                },
                {
                    "name": "F4",
                    "midi": 65,
                    "time": 497.03125,
                    "velocity": 0.5905511811023622,
                    "duration": 0.15625
                },
                {
                    "name": "F5",
                    "midi": 77,
                    "time": 497.03125,
                    "velocity": 0.5905511811023622,
                    "duration": 0.15625
                },
                {
                    "name": "G4",
                    "midi": 67,
                    "time": 497.1875,
                    "velocity": 0.5905511811023622,
                    "duration": 0.15625
                },
                {
                    "name": "G5",
                    "midi": 79,
                    "time": 497.1875,
                    "velocity": 0.5905511811023622,
                    "duration": 0.15625
                },
                {
                    "name": "G#4",
                    "midi": 68,
                    "time": 497.34375,
                    "velocity": 0.5905511811023622,
                    "duration": 0.15625
                },
                {
                    "name": "G#5",
                    "midi": 80,
                    "time": 497.34375,
                    "velocity": 0.5905511811023622,
                    "duration": 0.15625
                },
                {
                    "name": "A#4",
                    "midi": 70,
                    "time": 497.5,
                    "velocity": 0.5905511811023622,
                    "duration": 0.3125
                },
                {
                    "name": "A#5",
                    "midi": 82,
                    "time": 497.5,
                    "velocity": 0.5905511811023622,
                    "duration": 0.3125
                },
                {
                    "name": "F5",
                    "midi": 77,
                    "time": 497.8125,
                    "velocity": 0.5905511811023622,
                    "duration": 0.061197916666685614
                },
                {
                    "name": "F6",
                    "midi": 89,
                    "time": 497.8125,
                    "velocity": 0.5905511811023622,
                    "duration": 0.061197916666685614
                },
                {
                    "name": "F5",
                    "midi": 77,
                    "time": 498.125,
                    "velocity": 0.7952755905511811,
                    "duration": 0.3125
                },
                {
                    "name": "F6",
                    "midi": 89,
                    "time": 498.125,
                    "velocity": 0.7952755905511811,
                    "duration": 0.3125
                },
                {
                    "name": "A#4",
                    "midi": 70,
                    "time": 498.4375,
                    "velocity": 0.5905511811023622,
                    "duration": 0.3125
                },
                {
                    "name": "A#5",
                    "midi": 82,
                    "time": 498.4375,
                    "velocity": 0.5905511811023622,
                    "duration": 0.3125
                },
                {
                    "name": "D#4",
                    "midi": 63,
                    "time": 498.75,
                    "velocity": 0.5905511811023622,
                    "duration": 0.15625
                },
                {
                    "name": "D#5",
                    "midi": 75,
                    "time": 498.75,
                    "velocity": 0.5905511811023622,
                    "duration": 0.15625
                },
                {
                    "name": "F4",
                    "midi": 65,
                    "time": 498.90625,
                    "velocity": 0.5905511811023622,
                    "duration": 0.15625
                },
                {
                    "name": "F5",
                    "midi": 77,
                    "time": 498.90625,
                    "velocity": 0.5905511811023622,
                    "duration": 0.15625
                },
                {
                    "name": "G4",
                    "midi": 67,
                    "time": 499.0625,
                    "velocity": 0.5905511811023622,
                    "duration": 0.15625
                },
                {
                    "name": "G5",
                    "midi": 79,
                    "time": 499.0625,
                    "velocity": 0.5905511811023622,
                    "duration": 0.15625
                },
                {
                    "name": "G#4",
                    "midi": 68,
                    "time": 499.21875,
                    "velocity": 0.5905511811023622,
                    "duration": 0.15625
                },
                {
                    "name": "G#5",
                    "midi": 80,
                    "time": 499.21875,
                    "velocity": 0.5905511811023622,
                    "duration": 0.15625
                },
                {
                    "name": "A#4",
                    "midi": 70,
                    "time": 499.375,
                    "velocity": 0.5905511811023622,
                    "duration": 0.3125
                },
                {
                    "name": "A#5",
                    "midi": 82,
                    "time": 499.375,
                    "velocity": 0.5905511811023622,
                    "duration": 0.3125
                },
                {
                    "name": "F#5",
                    "midi": 78,
                    "time": 499.6875,
                    "velocity": 0.5905511811023622,
                    "duration": 0.061197916666685614
                },
                {
                    "name": "F#6",
                    "midi": 90,
                    "time": 499.6875,
                    "velocity": 0.5905511811023622,
                    "duration": 0.061197916666685614
                },
                {
                    "name": "F#5",
                    "midi": 78,
                    "time": 500,
                    "velocity": 0.7952755905511811,
                    "duration": 0.3125
                },
                {
                    "name": "F#6",
                    "midi": 90,
                    "time": 500,
                    "velocity": 0.7952755905511811,
                    "duration": 0.3125
                },
                {
                    "name": "A#4",
                    "midi": 70,
                    "time": 500.3125,
                    "velocity": 0.5905511811023622,
                    "duration": 0.3125
                },
                {
                    "name": "A#5",
                    "midi": 82,
                    "time": 500.3125,
                    "velocity": 0.5905511811023622,
                    "duration": 0.3125
                },
                {
                    "name": "D#4",
                    "midi": 63,
                    "time": 500.625,
                    "velocity": 0.5905511811023622,
                    "duration": 0.15625
                },
                {
                    "name": "D#5",
                    "midi": 75,
                    "time": 500.625,
                    "velocity": 0.5905511811023622,
                    "duration": 0.15625
                },
                {
                    "name": "F4",
                    "midi": 65,
                    "time": 500.78125,
                    "velocity": 0.5905511811023622,
                    "duration": 0.15625
                },
                {
                    "name": "F5",
                    "midi": 77,
                    "time": 500.78125,
                    "velocity": 0.5905511811023622,
                    "duration": 0.15625
                },
                {
                    "name": "G4",
                    "midi": 67,
                    "time": 500.9375,
                    "velocity": 0.5905511811023622,
                    "duration": 0.15625
                },
                {
                    "name": "G5",
                    "midi": 79,
                    "time": 500.9375,
                    "velocity": 0.5905511811023622,
                    "duration": 0.15625
                },
                {
                    "name": "G#4",
                    "midi": 68,
                    "time": 501.09375,
                    "velocity": 0.5905511811023622,
                    "duration": 0.15625
                },
                {
                    "name": "G#5",
                    "midi": 80,
                    "time": 501.09375,
                    "velocity": 0.5905511811023622,
                    "duration": 0.15625
                },
                {
                    "name": "A#4",
                    "midi": 70,
                    "time": 501.25,
                    "velocity": 0.5905511811023622,
                    "duration": 0.3125
                },
                {
                    "name": "A#5",
                    "midi": 82,
                    "time": 501.25,
                    "velocity": 0.5905511811023622,
                    "duration": 0.3125
                },
                {
                    "name": "F#5",
                    "midi": 78,
                    "time": 501.5625,
                    "velocity": 0.5905511811023622,
                    "duration": 0.061197916666685614
                },
                {
                    "name": "F#6",
                    "midi": 90,
                    "time": 501.5625,
                    "velocity": 0.5905511811023622,
                    "duration": 0.061197916666685614
                },
                {
                    "name": "F#5",
                    "midi": 78,
                    "time": 501.875,
                    "velocity": 0.7952755905511811,
                    "duration": 0.3125
                },
                {
                    "name": "F#6",
                    "midi": 90,
                    "time": 501.875,
                    "velocity": 0.7952755905511811,
                    "duration": 0.3125
                },
                {
                    "name": "A#4",
                    "midi": 70,
                    "time": 502.1875,
                    "velocity": 0.5905511811023622,
                    "duration": 0.3125
                },
                {
                    "name": "A#5",
                    "midi": 82,
                    "time": 502.1875,
                    "velocity": 0.5905511811023622,
                    "duration": 0.3125
                },
                {
                    "name": "D#4",
                    "midi": 63,
                    "time": 502.5,
                    "velocity": 0.5905511811023622,
                    "duration": 0.029947916666685614
                },
                {
                    "name": "D#5",
                    "midi": 75,
                    "time": 502.5,
                    "velocity": 0.5905511811023622,
                    "duration": 0.029947916666685614
                },
                {
                    "name": "F4",
                    "midi": 65,
                    "time": 502.65625,
                    "velocity": 0.5905511811023622,
                    "duration": 0.029947916666685614
                },
                {
                    "name": "F5",
                    "midi": 77,
                    "time": 502.65625,
                    "velocity": 0.5905511811023622,
                    "duration": 0.029947916666685614
                },
                {
                    "name": "G4",
                    "midi": 67,
                    "time": 502.8125,
                    "velocity": 0.5905511811023622,
                    "duration": 0.029947916666685614
                },
                {
                    "name": "G5",
                    "midi": 79,
                    "time": 502.8125,
                    "velocity": 0.5905511811023622,
                    "duration": 0.029947916666685614
                },
                {
                    "name": "G#4",
                    "midi": 68,
                    "time": 502.96875,
                    "velocity": 0.5905511811023622,
                    "duration": 0.029947916666685614
                },
                {
                    "name": "G#5",
                    "midi": 80,
                    "time": 502.96875,
                    "velocity": 0.5905511811023622,
                    "duration": 0.029947916666685614
                },
                {
                    "name": "A#4",
                    "midi": 70,
                    "time": 503.125,
                    "velocity": 0.5905511811023622,
                    "duration": 0.029947916666685614
                },
                {
                    "name": "A#5",
                    "midi": 82,
                    "time": 503.125,
                    "velocity": 0.5905511811023622,
                    "duration": 0.029947916666685614
                },
                {
                    "name": "C5",
                    "midi": 72,
                    "time": 503.28125,
                    "velocity": 0.5905511811023622,
                    "duration": 0.029947916666685614
                },
                {
                    "name": "C6",
                    "midi": 84,
                    "time": 503.28125,
                    "velocity": 0.5905511811023622,
                    "duration": 0.029947916666685614
                },
                {
                    "name": "D5",
                    "midi": 74,
                    "time": 503.4375,
                    "velocity": 0.5905511811023622,
                    "duration": 0.029947916666685614
                },
                {
                    "name": "D6",
                    "midi": 86,
                    "time": 503.4375,
                    "velocity": 0.5905511811023622,
                    "duration": 0.029947916666685614
                },
                {
                    "name": "D#5",
                    "midi": 75,
                    "time": 503.59375,
                    "velocity": 0.5905511811023622,
                    "duration": 0.029947916666685614
                },
                {
                    "name": "D#6",
                    "midi": 87,
                    "time": 503.59375,
                    "velocity": 0.5905511811023622,
                    "duration": 0.029947916666685614
                },
                {
                    "name": "G#2",
                    "midi": 44,
                    "time": 504.375,
                    "velocity": 0.5905511811023622,
                    "duration": 0.078125
                },
                {
                    "name": "G#1",
                    "midi": 32,
                    "time": 504.453125,
                    "velocity": 0.5905511811023622,
                    "duration": 0.078125
                },
                {
                    "name": "G#2",
                    "midi": 44,
                    "time": 504.53125,
                    "velocity": 0.5905511811023622,
                    "duration": 0.078125
                },
                {
                    "name": "G#1",
                    "midi": 32,
                    "time": 504.609375,
                    "velocity": 0.5905511811023622,
                    "duration": 0.078125
                },
                {
                    "name": "G#2",
                    "midi": 44,
                    "time": 504.6875,
                    "velocity": 0.5905511811023622,
                    "duration": 0.078125
                },
                {
                    "name": "G#1",
                    "midi": 32,
                    "time": 504.765625,
                    "velocity": 0.5905511811023622,
                    "duration": 0.078125
                },
                {
                    "name": "G#2",
                    "midi": 44,
                    "time": 504.84375,
                    "velocity": 0.5905511811023622,
                    "duration": 0.078125
                },
                {
                    "name": "G#1",
                    "midi": 32,
                    "time": 504.921875,
                    "velocity": 0.5905511811023622,
                    "duration": 0.078125
                },
                {
                    "name": "G#2",
                    "midi": 44,
                    "time": 505,
                    "velocity": 0.5905511811023622,
                    "duration": 0.078125
                },
                {
                    "name": "G#1",
                    "midi": 32,
                    "time": 505.078125,
                    "velocity": 0.5905511811023622,
                    "duration": 0.078125
                },
                {
                    "name": "G#2",
                    "midi": 44,
                    "time": 505.15625,
                    "velocity": 0.5905511811023622,
                    "duration": 0.078125
                },
                {
                    "name": "G#1",
                    "midi": 32,
                    "time": 505.234375,
                    "velocity": 0.5905511811023622,
                    "duration": 0.078125
                },
                {
                    "name": "G#2",
                    "midi": 44,
                    "time": 505.3125,
                    "velocity": 0.5905511811023622,
                    "duration": 0.078125
                },
                {
                    "name": "G#1",
                    "midi": 32,
                    "time": 505.390625,
                    "velocity": 0.5905511811023622,
                    "duration": 0.078125
                },
                {
                    "name": "G#2",
                    "midi": 44,
                    "time": 505.46875,
                    "velocity": 0.5905511811023622,
                    "duration": 0.078125
                },
                {
                    "name": "G#1",
                    "midi": 32,
                    "time": 505.546875,
                    "velocity": 0.5905511811023622,
                    "duration": 0.078125
                },
                {
                    "name": "G#2",
                    "midi": 44,
                    "time": 505.625,
                    "velocity": 0.5905511811023622,
                    "duration": 0.078125
                },
                {
                    "name": "G#1",
                    "midi": 32,
                    "time": 505.703125,
                    "velocity": 0.5905511811023622,
                    "duration": 0.078125
                },
                {
                    "name": "G#2",
                    "midi": 44,
                    "time": 505.78125,
                    "velocity": 0.5905511811023622,
                    "duration": 0.078125
                },
                {
                    "name": "G#1",
                    "midi": 32,
                    "time": 505.859375,
                    "velocity": 0.5905511811023622,
                    "duration": 0.078125
                },
                {
                    "name": "G#2",
                    "midi": 44,
                    "time": 505.9375,
                    "velocity": 0.5905511811023622,
                    "duration": 0.078125
                },
                {
                    "name": "G#1",
                    "midi": 32,
                    "time": 506.015625,
                    "velocity": 0.5905511811023622,
                    "duration": 0.078125
                },
                {
                    "name": "G#2",
                    "midi": 44,
                    "time": 506.09375,
                    "velocity": 0.5905511811023622,
                    "duration": 0.078125
                },
                {
                    "name": "G#1",
                    "midi": 32,
                    "time": 506.171875,
                    "velocity": 0.5905511811023622,
                    "duration": 0.078125
                },
                {
                    "name": "G5",
                    "midi": 79,
                    "time": 506.25,
                    "velocity": 0.7952755905511811,
                    "duration": 2.5
                },
                {
                    "name": "C6",
                    "midi": 84,
                    "time": 506.25,
                    "velocity": 0.7952755905511811,
                    "duration": 1.25
                },
                {
                    "name": "E6",
                    "midi": 88,
                    "time": 506.25,
                    "velocity": 0.7952755905511811,
                    "duration": 1.25
                },
                {
                    "name": "G6",
                    "midi": 91,
                    "time": 506.25,
                    "velocity": 0.7952755905511811,
                    "duration": 2.5
                },
                {
                    "name": "C#6",
                    "midi": 85,
                    "time": 507.5,
                    "velocity": 0.7952755905511811,
                    "duration": 1.25
                },
                {
                    "name": "E6",
                    "midi": 88,
                    "time": 507.5,
                    "velocity": 0.7952755905511811,
                    "duration": 1.25
                },
                {
                    "name": "G5",
                    "midi": 79,
                    "time": 508.75,
                    "velocity": 0.7952755905511811,
                    "duration": 0.3125
                },
                {
                    "name": "C6",
                    "midi": 84,
                    "time": 508.75,
                    "velocity": 0.7952755905511811,
                    "duration": 0.3125
                },
                {
                    "name": "E6",
                    "midi": 88,
                    "time": 508.75,
                    "velocity": 0.7952755905511811,
                    "duration": 0.3125
                },
                {
                    "name": "G6",
                    "midi": 91,
                    "time": 508.75,
                    "velocity": 0.7952755905511811,
                    "duration": 0.3125
                },
                {
                    "name": "A5",
                    "midi": 81,
                    "time": 509.0625,
                    "velocity": 0.7952755905511811,
                    "duration": 0.3125
                },
                {
                    "name": "C6",
                    "midi": 84,
                    "time": 509.0625,
                    "velocity": 0.7952755905511811,
                    "duration": 0.3125
                },
                {
                    "name": "F6",
                    "midi": 89,
                    "time": 509.0625,
                    "velocity": 0.7952755905511811,
                    "duration": 0.3125
                },
                {
                    "name": "A6",
                    "midi": 93,
                    "time": 509.0625,
                    "velocity": 0.7952755905511811,
                    "duration": 0.3125
                },
                {
                    "name": "G5",
                    "midi": 79,
                    "time": 509.375,
                    "velocity": 0.7952755905511811,
                    "duration": 0.3125
                },
                {
                    "name": "C6",
                    "midi": 84,
                    "time": 509.375,
                    "velocity": 0.7952755905511811,
                    "duration": 0.3125
                },
                {
                    "name": "E6",
                    "midi": 88,
                    "time": 509.375,
                    "velocity": 0.7952755905511811,
                    "duration": 0.3125
                },
                {
                    "name": "G6",
                    "midi": 91,
                    "time": 509.375,
                    "velocity": 0.7952755905511811,
                    "duration": 0.3125
                },
                {
                    "name": "C5",
                    "midi": 72,
                    "time": 509.6875,
                    "velocity": 0.7952755905511811,
                    "duration": 0.3125
                },
                {
                    "name": "E5",
                    "midi": 76,
                    "time": 509.6875,
                    "velocity": 0.7952755905511811,
                    "duration": 0.3125
                },
                {
                    "name": "G5",
                    "midi": 79,
                    "time": 509.6875,
                    "velocity": 0.7952755905511811,
                    "duration": 0.3125
                },
                {
                    "name": "C6",
                    "midi": 84,
                    "time": 509.6875,
                    "velocity": 0.7952755905511811,
                    "duration": 0.3125
                },
                {
                    "name": "D#5",
                    "midi": 75,
                    "time": 510,
                    "velocity": 0.7952755905511811,
                    "duration": 0.3125
                },
                {
                    "name": "F5",
                    "midi": 77,
                    "time": 510,
                    "velocity": 0.7952755905511811,
                    "duration": 0.3125
                },
                {
                    "name": "G#5",
                    "midi": 80,
                    "time": 510,
                    "velocity": 0.7952755905511811,
                    "duration": 0.3125
                },
                {
                    "name": "D#6",
                    "midi": 87,
                    "time": 510,
                    "velocity": 0.7952755905511811,
                    "duration": 0.3125
                },
                {
                    "name": "D5",
                    "midi": 74,
                    "time": 510.3125,
                    "velocity": 0.7952755905511811,
                    "duration": 0.3125
                },
                {
                    "name": "F5",
                    "midi": 77,
                    "time": 510.3125,
                    "velocity": 0.7952755905511811,
                    "duration": 0.3125
                },
                {
                    "name": "A5",
                    "midi": 81,
                    "time": 510.3125,
                    "velocity": 0.7952755905511811,
                    "duration": 0.3125
                },
                {
                    "name": "D6",
                    "midi": 86,
                    "time": 510.3125,
                    "velocity": 0.7952755905511811,
                    "duration": 0.3125
                },
                {
                    "name": "C5",
                    "midi": 72,
                    "time": 510.625,
                    "velocity": 0.7952755905511811,
                    "duration": 0.3125
                },
                {
                    "name": "F5",
                    "midi": 77,
                    "time": 510.625,
                    "velocity": 0.7952755905511811,
                    "duration": 0.3125
                },
                {
                    "name": "A5",
                    "midi": 81,
                    "time": 510.625,
                    "velocity": 0.7952755905511811,
                    "duration": 0.3125
                },
                {
                    "name": "C6",
                    "midi": 84,
                    "time": 510.625,
                    "velocity": 0.7952755905511811,
                    "duration": 0.3125
                },
                {
                    "name": "A4",
                    "midi": 69,
                    "time": 510.9375,
                    "velocity": 0.7952755905511811,
                    "duration": 0.3125
                },
                {
                    "name": "B4",
                    "midi": 71,
                    "time": 510.9375,
                    "velocity": 0.7952755905511811,
                    "duration": 0.3125
                },
                {
                    "name": "E5",
                    "midi": 76,
                    "time": 510.9375,
                    "velocity": 0.7952755905511811,
                    "duration": 0.3125
                },
                {
                    "name": "A5",
                    "midi": 81,
                    "time": 510.9375,
                    "velocity": 0.7952755905511811,
                    "duration": 0.3125
                },
                {
                    "name": "G4",
                    "midi": 67,
                    "time": 511.25,
                    "velocity": 0.7952755905511811,
                    "duration": 5
                },
                {
                    "name": "G5",
                    "midi": 79,
                    "time": 511.25,
                    "velocity": 0.7952755905511811,
                    "duration": 5
                },
                {
                    "name": "G5",
                    "midi": 79,
                    "time": 516.25,
                    "velocity": 0.7952755905511811,
                    "duration": 2.5
                },
                {
                    "name": "C6",
                    "midi": 84,
                    "time": 516.25,
                    "velocity": 0.7952755905511811,
                    "duration": 1.25
                },
                {
                    "name": "E6",
                    "midi": 88,
                    "time": 516.25,
                    "velocity": 0.7952755905511811,
                    "duration": 1.25
                },
                {
                    "name": "G6",
                    "midi": 91,
                    "time": 516.25,
                    "velocity": 0.7952755905511811,
                    "duration": 2.5
                },
                {
                    "name": "C#6",
                    "midi": 85,
                    "time": 517.5,
                    "velocity": 0.7952755905511811,
                    "duration": 1.25
                },
                {
                    "name": "E6",
                    "midi": 88,
                    "time": 517.5,
                    "velocity": 0.7952755905511811,
                    "duration": 1.25
                },
                {
                    "name": "G5",
                    "midi": 79,
                    "time": 518.75,
                    "velocity": 0.7952755905511811,
                    "duration": 0.3125
                },
                {
                    "name": "C6",
                    "midi": 84,
                    "time": 518.75,
                    "velocity": 0.7952755905511811,
                    "duration": 0.3125
                },
                {
                    "name": "E6",
                    "midi": 88,
                    "time": 518.75,
                    "velocity": 0.7952755905511811,
                    "duration": 0.3125
                },
                {
                    "name": "G6",
                    "midi": 91,
                    "time": 518.75,
                    "velocity": 0.7952755905511811,
                    "duration": 0.3125
                },
                {
                    "name": "A5",
                    "midi": 81,
                    "time": 519.0625,
                    "velocity": 0.7952755905511811,
                    "duration": 0.3125
                },
                {
                    "name": "C6",
                    "midi": 84,
                    "time": 519.0625,
                    "velocity": 0.7952755905511811,
                    "duration": 0.3125
                },
                {
                    "name": "F6",
                    "midi": 89,
                    "time": 519.0625,
                    "velocity": 0.7952755905511811,
                    "duration": 0.3125
                },
                {
                    "name": "A6",
                    "midi": 93,
                    "time": 519.0625,
                    "velocity": 0.7952755905511811,
                    "duration": 0.3125
                },
                {
                    "name": "G5",
                    "midi": 79,
                    "time": 519.375,
                    "velocity": 0.7952755905511811,
                    "duration": 0.3125
                },
                {
                    "name": "C6",
                    "midi": 84,
                    "time": 519.375,
                    "velocity": 0.7952755905511811,
                    "duration": 0.3125
                },
                {
                    "name": "E6",
                    "midi": 88,
                    "time": 519.375,
                    "velocity": 0.7952755905511811,
                    "duration": 0.3125
                },
                {
                    "name": "G6",
                    "midi": 91,
                    "time": 519.375,
                    "velocity": 0.7952755905511811,
                    "duration": 0.3125
                },
                {
                    "name": "C5",
                    "midi": 72,
                    "time": 519.6875,
                    "velocity": 0.7952755905511811,
                    "duration": 0.3125
                },
                {
                    "name": "E5",
                    "midi": 76,
                    "time": 519.6875,
                    "velocity": 0.7952755905511811,
                    "duration": 0.3125
                },
                {
                    "name": "G5",
                    "midi": 79,
                    "time": 519.6875,
                    "velocity": 0.7952755905511811,
                    "duration": 0.3125
                },
                {
                    "name": "C6",
                    "midi": 84,
                    "time": 519.6875,
                    "velocity": 0.7952755905511811,
                    "duration": 0.3125
                },
                {
                    "name": "D#5",
                    "midi": 75,
                    "time": 520,
                    "velocity": 0.7952755905511811,
                    "duration": 0.3125
                },
                {
                    "name": "F5",
                    "midi": 77,
                    "time": 520,
                    "velocity": 0.7952755905511811,
                    "duration": 0.3125
                },
                {
                    "name": "G#5",
                    "midi": 80,
                    "time": 520,
                    "velocity": 0.7952755905511811,
                    "duration": 0.3125
                },
                {
                    "name": "D#6",
                    "midi": 87,
                    "time": 520,
                    "velocity": 0.7952755905511811,
                    "duration": 0.3125
                },
                {
                    "name": "D5",
                    "midi": 74,
                    "time": 520.3125,
                    "velocity": 0.7952755905511811,
                    "duration": 0.3125
                },
                {
                    "name": "F5",
                    "midi": 77,
                    "time": 520.3125,
                    "velocity": 0.7952755905511811,
                    "duration": 0.3125
                },
                {
                    "name": "A5",
                    "midi": 81,
                    "time": 520.3125,
                    "velocity": 0.7952755905511811,
                    "duration": 0.3125
                },
                {
                    "name": "D6",
                    "midi": 86,
                    "time": 520.3125,
                    "velocity": 0.7952755905511811,
                    "duration": 0.3125
                },
                {
                    "name": "C5",
                    "midi": 72,
                    "time": 520.625,
                    "velocity": 0.7952755905511811,
                    "duration": 0.3125
                },
                {
                    "name": "F5",
                    "midi": 77,
                    "time": 520.625,
                    "velocity": 0.7952755905511811,
                    "duration": 0.3125
                },
                {
                    "name": "A5",
                    "midi": 81,
                    "time": 520.625,
                    "velocity": 0.7952755905511811,
                    "duration": 0.3125
                },
                {
                    "name": "C6",
                    "midi": 84,
                    "time": 520.625,
                    "velocity": 0.7952755905511811,
                    "duration": 0.3125
                },
                {
                    "name": "A4",
                    "midi": 69,
                    "time": 520.9375,
                    "velocity": 0.7952755905511811,
                    "duration": 0.3125
                },
                {
                    "name": "B4",
                    "midi": 71,
                    "time": 520.9375,
                    "velocity": 0.7952755905511811,
                    "duration": 0.3125
                },
                {
                    "name": "E5",
                    "midi": 76,
                    "time": 520.9375,
                    "velocity": 0.7952755905511811,
                    "duration": 0.3125
                },
                {
                    "name": "A5",
                    "midi": 81,
                    "time": 520.9375,
                    "velocity": 0.7952755905511811,
                    "duration": 0.3125
                },
                {
                    "name": "C5",
                    "midi": 72,
                    "time": 521.25,
                    "velocity": 0.7952755905511811,
                    "duration": 5
                },
                {
                    "name": "C6",
                    "midi": 84,
                    "time": 521.25,
                    "velocity": 0.7952755905511811,
                    "duration": 5
                },
                {
                    "name": "G5",
                    "midi": 79,
                    "time": 526.25,
                    "velocity": 1,
                    "duration": 0.3125
                },
                {
                    "name": "A5",
                    "midi": 81,
                    "time": 526.25,
                    "velocity": 1,
                    "duration": 0.3125
                },
                {
                    "name": "C6",
                    "midi": 84,
                    "time": 526.25,
                    "velocity": 1,
                    "duration": 0.3125
                },
                {
                    "name": "G6",
                    "midi": 91,
                    "time": 526.25,
                    "velocity": 1,
                    "duration": 0.3125
                },
                {
                    "name": "F5",
                    "midi": 77,
                    "time": 526.5625,
                    "velocity": 1,
                    "duration": 0.3125
                },
                {
                    "name": "A5",
                    "midi": 81,
                    "time": 526.5625,
                    "velocity": 1,
                    "duration": 0.3125
                },
                {
                    "name": "C6",
                    "midi": 84,
                    "time": 526.5625,
                    "velocity": 1,
                    "duration": 0.3125
                },
                {
                    "name": "F6",
                    "midi": 89,
                    "time": 526.5625,
                    "velocity": 1,
                    "duration": 0.3125
                },
                {
                    "name": "C5",
                    "midi": 72,
                    "time": 526.875,
                    "velocity": 1,
                    "duration": 0.3125
                },
                {
                    "name": "F5",
                    "midi": 77,
                    "time": 526.875,
                    "velocity": 1,
                    "duration": 0.3125
                },
                {
                    "name": "A5",
                    "midi": 81,
                    "time": 526.875,
                    "velocity": 1,
                    "duration": 0.3125
                },
                {
                    "name": "C6",
                    "midi": 84,
                    "time": 526.875,
                    "velocity": 1,
                    "duration": 0.3125
                },
                {
                    "name": "A4",
                    "midi": 69,
                    "time": 527.1875,
                    "velocity": 1,
                    "duration": 0.3125
                },
                {
                    "name": "C5",
                    "midi": 72,
                    "time": 527.1875,
                    "velocity": 1,
                    "duration": 0.3125
                },
                {
                    "name": "F5",
                    "midi": 77,
                    "time": 527.1875,
                    "velocity": 1,
                    "duration": 0.3125
                },
                {
                    "name": "A5",
                    "midi": 81,
                    "time": 527.1875,
                    "velocity": 1,
                    "duration": 0.3125
                },
                {
                    "name": "G#4",
                    "midi": 68,
                    "time": 527.5,
                    "velocity": 1,
                    "duration": 0.3125
                },
                {
                    "name": "B4",
                    "midi": 71,
                    "time": 527.5,
                    "velocity": 1,
                    "duration": 0.3125
                },
                {
                    "name": "F5",
                    "midi": 77,
                    "time": 527.5,
                    "velocity": 1,
                    "duration": 0.3125
                },
                {
                    "name": "G#5",
                    "midi": 80,
                    "time": 527.5,
                    "velocity": 1,
                    "duration": 0.3125
                },
                {
                    "name": "G5",
                    "midi": 79,
                    "time": 527.8125,
                    "velocity": 1,
                    "duration": 0.625
                },
                {
                    "name": "G#5",
                    "midi": 80,
                    "time": 527.8125,
                    "velocity": 1,
                    "duration": 0.625
                },
                {
                    "name": "C6",
                    "midi": 84,
                    "time": 527.8125,
                    "velocity": 1,
                    "duration": 0.625
                },
                {
                    "name": "G6",
                    "midi": 91,
                    "time": 527.8125,
                    "velocity": 1,
                    "duration": 0.625
                },
                {
                    "name": "F5",
                    "midi": 77,
                    "time": 528.4375,
                    "velocity": 1,
                    "duration": 0.3125
                },
                {
                    "name": "G#5",
                    "midi": 80,
                    "time": 528.4375,
                    "velocity": 1,
                    "duration": 0.3125
                },
                {
                    "name": "C6",
                    "midi": 84,
                    "time": 528.4375,
                    "velocity": 1,
                    "duration": 0.3125
                },
                {
                    "name": "E6",
                    "midi": 88,
                    "time": 528.4375,
                    "velocity": 1,
                    "duration": 0.3125
                },
                {
                    "name": "E5",
                    "midi": 76,
                    "time": 528.75,
                    "velocity": 0.7952755905511811,
                    "duration": 0.3125
                },
                {
                    "name": "G5",
                    "midi": 79,
                    "time": 528.75,
                    "velocity": 0.7952755905511811,
                    "duration": 0.3125
                },
                {
                    "name": "C6",
                    "midi": 84,
                    "time": 528.75,
                    "velocity": 0.7952755905511811,
                    "duration": 0.3125
                },
                {
                    "name": "E6",
                    "midi": 88,
                    "time": 528.75,
                    "velocity": 0.7952755905511811,
                    "duration": 0.3125
                },
                {
                    "name": "C5",
                    "midi": 72,
                    "time": 529.0625,
                    "velocity": 0.7952755905511811,
                    "duration": 0.3125
                },
                {
                    "name": "E5",
                    "midi": 76,
                    "time": 529.0625,
                    "velocity": 0.7952755905511811,
                    "duration": 0.3125
                },
                {
                    "name": "G5",
                    "midi": 79,
                    "time": 529.0625,
                    "velocity": 0.7952755905511811,
                    "duration": 0.3125
                },
                {
                    "name": "C6",
                    "midi": 84,
                    "time": 529.0625,
                    "velocity": 0.7952755905511811,
                    "duration": 0.3125
                },
                {
                    "name": "G#4",
                    "midi": 68,
                    "time": 529.375,
                    "velocity": 0.7952755905511811,
                    "duration": 0.3125
                },
                {
                    "name": "C5",
                    "midi": 72,
                    "time": 529.375,
                    "velocity": 0.7952755905511811,
                    "duration": 0.3125
                },
                {
                    "name": "E5",
                    "midi": 76,
                    "time": 529.375,
                    "velocity": 0.7952755905511811,
                    "duration": 0.3125
                },
                {
                    "name": "G#5",
                    "midi": 80,
                    "time": 529.375,
                    "velocity": 0.7952755905511811,
                    "duration": 0.3125
                },
                {
                    "name": "G4",
                    "midi": 67,
                    "time": 529.6875,
                    "velocity": 0.7952755905511811,
                    "duration": 0.3125
                },
                {
                    "name": "C5",
                    "midi": 72,
                    "time": 529.6875,
                    "velocity": 0.7952755905511811,
                    "duration": 0.3125
                },
                {
                    "name": "E5",
                    "midi": 76,
                    "time": 529.6875,
                    "velocity": 0.7952755905511811,
                    "duration": 0.3125
                },
                {
                    "name": "G5",
                    "midi": 79,
                    "time": 529.6875,
                    "velocity": 0.7952755905511811,
                    "duration": 0.3125
                },
                {
                    "name": "F#4",
                    "midi": 66,
                    "time": 530,
                    "velocity": 0.7952755905511811,
                    "duration": 0.3125
                },
                {
                    "name": "C5",
                    "midi": 72,
                    "time": 530,
                    "velocity": 0.7952755905511811,
                    "duration": 0.3125
                },
                {
                    "name": "D#5",
                    "midi": 75,
                    "time": 530,
                    "velocity": 0.7952755905511811,
                    "duration": 0.3125
                },
                {
                    "name": "F#5",
                    "midi": 78,
                    "time": 530,
                    "velocity": 0.7952755905511811,
                    "duration": 0.3125
                },
                {
                    "name": "D#5",
                    "midi": 75,
                    "time": 530.3125,
                    "velocity": 0.7952755905511811,
                    "duration": 0.3125
                },
                {
                    "name": "F#5",
                    "midi": 78,
                    "time": 530.3125,
                    "velocity": 0.7952755905511811,
                    "duration": 0.3125
                },
                {
                    "name": "C6",
                    "midi": 84,
                    "time": 530.3125,
                    "velocity": 0.7952755905511811,
                    "duration": 0.3125
                },
                {
                    "name": "D#6",
                    "midi": 87,
                    "time": 530.3125,
                    "velocity": 0.7952755905511811,
                    "duration": 0.3125
                },
                {
                    "name": "F4",
                    "midi": 65,
                    "time": 530.625,
                    "velocity": 0.7952755905511811,
                    "duration": 0.3125
                },
                {
                    "name": "A4",
                    "midi": 69,
                    "time": 530.625,
                    "velocity": 0.7952755905511811,
                    "duration": 0.3125
                },
                {
                    "name": "D5",
                    "midi": 74,
                    "time": 530.625,
                    "velocity": 0.7952755905511811,
                    "duration": 0.3125
                },
                {
                    "name": "F5",
                    "midi": 77,
                    "time": 530.625,
                    "velocity": 0.7952755905511811,
                    "duration": 0.3125
                },
                {
                    "name": "D5",
                    "midi": 74,
                    "time": 530.9375,
                    "velocity": 0.7952755905511811,
                    "duration": 0.3125
                },
                {
                    "name": "F5",
                    "midi": 77,
                    "time": 530.9375,
                    "velocity": 0.7952755905511811,
                    "duration": 0.3125
                },
                {
                    "name": "A5",
                    "midi": 81,
                    "time": 530.9375,
                    "velocity": 0.7952755905511811,
                    "duration": 0.3125
                },
                {
                    "name": "D6",
                    "midi": 86,
                    "time": 530.9375,
                    "velocity": 0.7952755905511811,
                    "duration": 0.3125
                },
                {
                    "name": "F#4",
                    "midi": 66,
                    "time": 531.25,
                    "velocity": 0.6929133858267716,
                    "duration": 0.3125
                },
                {
                    "name": "D#5",
                    "midi": 75,
                    "time": 531.25,
                    "velocity": 0.6929133858267716,
                    "duration": 0.3125
                },
                {
                    "name": "F#5",
                    "midi": 78,
                    "time": 531.25,
                    "velocity": 0.6929133858267716,
                    "duration": 0.3125
                },
                {
                    "name": "D#5",
                    "midi": 75,
                    "time": 531.5625,
                    "velocity": 0.6929133858267716,
                    "duration": 0.3125
                },
                {
                    "name": "F#5",
                    "midi": 78,
                    "time": 531.5625,
                    "velocity": 0.6929133858267716,
                    "duration": 0.3125
                },
                {
                    "name": "C6",
                    "midi": 84,
                    "time": 531.5625,
                    "velocity": 0.6929133858267716,
                    "duration": 0.3125
                },
                {
                    "name": "D#6",
                    "midi": 87,
                    "time": 531.5625,
                    "velocity": 0.6929133858267716,
                    "duration": 0.3125
                },
                {
                    "name": "F4",
                    "midi": 65,
                    "time": 531.875,
                    "velocity": 0.6929133858267716,
                    "duration": 0.3125
                },
                {
                    "name": "A4",
                    "midi": 69,
                    "time": 531.875,
                    "velocity": 0.6929133858267716,
                    "duration": 0.3125
                },
                {
                    "name": "D5",
                    "midi": 74,
                    "time": 531.875,
                    "velocity": 0.6929133858267716,
                    "duration": 0.3125
                },
                {
                    "name": "F5",
                    "midi": 77,
                    "time": 531.875,
                    "velocity": 0.6929133858267716,
                    "duration": 0.3125
                },
                {
                    "name": "D5",
                    "midi": 74,
                    "time": 532.1875,
                    "velocity": 0.6929133858267716,
                    "duration": 0.3125
                },
                {
                    "name": "F5",
                    "midi": 77,
                    "time": 532.1875,
                    "velocity": 0.6929133858267716,
                    "duration": 0.3125
                },
                {
                    "name": "A5",
                    "midi": 81,
                    "time": 532.1875,
                    "velocity": 0.6929133858267716,
                    "duration": 0.3125
                },
                {
                    "name": "D6",
                    "midi": 86,
                    "time": 532.1875,
                    "velocity": 0.6929133858267716,
                    "duration": 0.3125
                },
                {
                    "name": "F#4",
                    "midi": 66,
                    "time": 532.5,
                    "velocity": 0.5905511811023622,
                    "duration": 0.3125
                },
                {
                    "name": "C5",
                    "midi": 72,
                    "time": 532.5,
                    "velocity": 0.5905511811023622,
                    "duration": 0.3125
                },
                {
                    "name": "D#5",
                    "midi": 75,
                    "time": 532.5,
                    "velocity": 0.5905511811023622,
                    "duration": 0.3125
                },
                {
                    "name": "F#5",
                    "midi": 78,
                    "time": 532.5,
                    "velocity": 0.5905511811023622,
                    "duration": 0.3125
                },
                {
                    "name": "D#5",
                    "midi": 75,
                    "time": 532.8125,
                    "velocity": 0.5905511811023622,
                    "duration": 0.3125
                },
                {
                    "name": "F#5",
                    "midi": 78,
                    "time": 532.8125,
                    "velocity": 0.5905511811023622,
                    "duration": 0.3125
                },
                {
                    "name": "C6",
                    "midi": 84,
                    "time": 532.8125,
                    "velocity": 0.5905511811023622,
                    "duration": 0.3125
                },
                {
                    "name": "D#6",
                    "midi": 87,
                    "time": 532.8125,
                    "velocity": 0.5905511811023622,
                    "duration": 0.3125
                },
                {
                    "name": "F4",
                    "midi": 65,
                    "time": 533.125,
                    "velocity": 0.5905511811023622,
                    "duration": 0.3125
                },
                {
                    "name": "A4",
                    "midi": 69,
                    "time": 533.125,
                    "velocity": 0.5905511811023622,
                    "duration": 0.3125
                },
                {
                    "name": "D5",
                    "midi": 74,
                    "time": 533.125,
                    "velocity": 0.5905511811023622,
                    "duration": 0.3125
                },
                {
                    "name": "F5",
                    "midi": 77,
                    "time": 533.125,
                    "velocity": 0.5905511811023622,
                    "duration": 0.3125
                },
                {
                    "name": "D5",
                    "midi": 74,
                    "time": 533.4375,
                    "velocity": 0.5905511811023622,
                    "duration": 0.3125
                },
                {
                    "name": "F5",
                    "midi": 77,
                    "time": 533.4375,
                    "velocity": 0.5905511811023622,
                    "duration": 0.3125
                },
                {
                    "name": "A5",
                    "midi": 81,
                    "time": 533.4375,
                    "velocity": 0.5905511811023622,
                    "duration": 0.3125
                },
                {
                    "name": "D6",
                    "midi": 86,
                    "time": 533.4375,
                    "velocity": 0.5905511811023622,
                    "duration": 0.3125
                },
                {
                    "name": "C5",
                    "midi": 72,
                    "time": 534.0625,
                    "velocity": 0.5905511811023622,
                    "duration": 0.3125
                },
                {
                    "name": "E5",
                    "midi": 76,
                    "time": 534.375,
                    "velocity": 0.5905511811023622,
                    "duration": 0.3125
                },
                {
                    "name": "G5",
                    "midi": 79,
                    "time": 534.6875,
                    "velocity": 0.5905511811023622,
                    "duration": 0.3125
                },
                {
                    "name": "A#5",
                    "midi": 82,
                    "time": 535,
                    "velocity": 0.5905511811023622,
                    "duration": 0.3125
                },
                {
                    "name": "A5",
                    "midi": 81,
                    "time": 535.3125,
                    "velocity": 0.5905511811023622,
                    "duration": 0.3125
                },
                {
                    "name": "G5",
                    "midi": 79,
                    "time": 535.625,
                    "velocity": 0.5905511811023622,
                    "duration": 0.3125
                },
                {
                    "name": "F5",
                    "midi": 77,
                    "time": 535.9375,
                    "velocity": 0.5905511811023622,
                    "duration": 0.3125
                },
                {
                    "name": "G5",
                    "midi": 79,
                    "time": 536.25,
                    "velocity": 0.4881889763779528,
                    "duration": 0.3125
                },
                {
                    "name": "G4",
                    "midi": 67,
                    "time": 536.5625,
                    "velocity": 0.4881889763779528,
                    "duration": 0.3125
                },
                {
                    "name": "C5",
                    "midi": 72,
                    "time": 536.875,
                    "velocity": 0.4881889763779528,
                    "duration": 0.3125
                },
                {
                    "name": "E5",
                    "midi": 76,
                    "time": 537.1875,
                    "velocity": 0.4881889763779528,
                    "duration": 0.3125
                },
                {
                    "name": "G5",
                    "midi": 79,
                    "time": 537.5,
                    "velocity": 0.4881889763779528,
                    "duration": 0.3125
                },
                {
                    "name": "F5",
                    "midi": 77,
                    "time": 537.8125,
                    "velocity": 0.4881889763779528,
                    "duration": 0.3125
                },
                {
                    "name": "E5",
                    "midi": 76,
                    "time": 538.125,
                    "velocity": 0.4881889763779528,
                    "duration": 0.3125
                },
                {
                    "name": "D5",
                    "midi": 74,
                    "time": 538.4375,
                    "velocity": 0.4881889763779528,
                    "duration": 0.3125
                },
                {
                    "name": "E5",
                    "midi": 76,
                    "time": 538.75,
                    "velocity": 0.4881889763779528,
                    "duration": 0.3125
                },
                {
                    "name": "E4",
                    "midi": 64,
                    "time": 539.0625,
                    "velocity": 0.4881889763779528,
                    "duration": 0.3125
                },
                {
                    "name": "G4",
                    "midi": 67,
                    "time": 539.375,
                    "velocity": 0.4881889763779528,
                    "duration": 0.3125
                },
                {
                    "name": "C5",
                    "midi": 72,
                    "time": 539.6875,
                    "velocity": 0.4881889763779528,
                    "duration": 0.3125
                },
                {
                    "name": "E5",
                    "midi": 76,
                    "time": 540,
                    "velocity": 0.4881889763779528,
                    "duration": 0.3125
                },
                {
                    "name": "D5",
                    "midi": 74,
                    "time": 540.3125,
                    "velocity": 0.4881889763779528,
                    "duration": 0.3125
                },
                {
                    "name": "C5",
                    "midi": 72,
                    "time": 540.625,
                    "velocity": 0.4881889763779528,
                    "duration": 0.3125
                },
                {
                    "name": "B4",
                    "midi": 71,
                    "time": 540.9375,
                    "velocity": 0.4881889763779528,
                    "duration": 0.3125
                },
                {
                    "name": "C4",
                    "midi": 60,
                    "time": 541.25,
                    "velocity": 0.4881889763779528,
                    "duration": 5
                },
                {
                    "name": "E4",
                    "midi": 64,
                    "time": 541.25,
                    "velocity": 0.4881889763779528,
                    "duration": 5
                },
                {
                    "name": "G4",
                    "midi": 67,
                    "time": 541.25,
                    "velocity": 0.4881889763779528,
                    "duration": 5
                },
                {
                    "name": "C5",
                    "midi": 72,
                    "time": 541.25,
                    "velocity": 0.4881889763779528,
                    "duration": 5
                },
                {
                    "name": "C4",
                    "midi": 60,
                    "time": 546.25,
                    "velocity": 0.4881889763779528,
                    "duration": 2.5
                },
                {
                    "name": "F4",
                    "midi": 65,
                    "time": 546.25,
                    "velocity": 0.4881889763779528,
                    "duration": 2.5
                },
                {
                    "name": "G4",
                    "midi": 67,
                    "time": 546.25,
                    "velocity": 0.4881889763779528,
                    "duration": 2.5
                },
                {
                    "name": "C5",
                    "midi": 72,
                    "time": 546.25,
                    "velocity": 0.4881889763779528,
                    "duration": 2.5
                },
                {
                    "name": "E4",
                    "midi": 64,
                    "time": 548.75,
                    "velocity": 0.4881889763779528,
                    "duration": 2.5
                },
                {
                    "name": "G4",
                    "midi": 67,
                    "time": 548.75,
                    "velocity": 0.4881889763779528,
                    "duration": 2.5
                },
                {
                    "name": "C4",
                    "midi": 60,
                    "time": 553.75,
                    "velocity": 0.6929133858267716,
                    "duration": 0.06119791666662877
                },
                {
                    "name": "C4",
                    "midi": 60,
                    "time": 554.0625,
                    "velocity": 0.4881889763779528,
                    "duration": 0.02994791666662877
                },
                {
                    "name": "C4",
                    "midi": 60,
                    "time": 554.21875,
                    "velocity": 0.4881889763779528,
                    "duration": 0.02994791666662877
                },
                {
                    "name": "C4",
                    "midi": 60,
                    "time": 554.375,
                    "velocity": 0.4881889763779528,
                    "duration": 0.02994791666662877
                },
                {
                    "name": "C4",
                    "midi": 60,
                    "time": 554.53125,
                    "velocity": 0.4881889763779528,
                    "duration": 0.02994791666662877
                },
                {
                    "name": "E4",
                    "midi": 64,
                    "time": 554.6875,
                    "velocity": 0.6929133858267716,
                    "duration": 0.06119791666662877
                },
                {
                    "name": "F#5",
                    "midi": 78,
                    "time": 556.875,
                    "velocity": 0.4881889763779528,
                    "duration": 0.3125
                },
                {
                    "name": "F#5",
                    "midi": 78,
                    "time": 557.1875,
                    "velocity": 0.4881889763779528,
                    "duration": 0.15625
                },
                {
                    "name": "F#5",
                    "midi": 78,
                    "time": 557.34375,
                    "velocity": 0.4881889763779528,
                    "duration": 0.15625
                },
                {
                    "name": "F#5",
                    "midi": 78,
                    "time": 557.5,
                    "velocity": 0.4881889763779528,
                    "duration": 0.15625
                },
                {
                    "name": "F#5",
                    "midi": 78,
                    "time": 557.65625,
                    "velocity": 0.4881889763779528,
                    "duration": 0.15625
                },
                {
                    "name": "A#5",
                    "midi": 82,
                    "time": 557.8125,
                    "velocity": 0.4881889763779528,
                    "duration": 0.3125
                },
                {
                    "name": "E5",
                    "midi": 76,
                    "time": 558.125,
                    "velocity": 0.4881889763779528,
                    "duration": 0.625
                },
                {
                    "name": "E4",
                    "midi": 64,
                    "time": 562.5,
                    "velocity": 0.4881889763779528,
                    "duration": 1.25
                },
                {
                    "name": "G4",
                    "midi": 67,
                    "time": 562.5,
                    "velocity": 0.4881889763779528,
                    "duration": 1.25
                },
                {
                    "name": "F4",
                    "midi": 65,
                    "time": 563.75,
                    "velocity": 0.4881889763779528,
                    "duration": 3.75
                },
                {
                    "name": "G4",
                    "midi": 67,
                    "time": 563.75,
                    "velocity": 0.4881889763779528,
                    "duration": 3.75
                },
                {
                    "name": "C4",
                    "midi": 60,
                    "time": 567.5,
                    "velocity": 0.4881889763779528,
                    "duration": 0.15625
                },
                {
                    "name": "D4",
                    "midi": 62,
                    "time": 567.65625,
                    "velocity": 0.4881889763779528,
                    "duration": 0.15625
                },
                {
                    "name": "C4",
                    "midi": 60,
                    "time": 567.8125,
                    "velocity": 0.4881889763779528,
                    "duration": 0.15625
                },
                {
                    "name": "D4",
                    "midi": 62,
                    "time": 567.96875,
                    "velocity": 0.4881889763779528,
                    "duration": 0.15625
                },
                {
                    "name": "D#4",
                    "midi": 63,
                    "time": 568.125,
                    "velocity": 0.4881889763779528,
                    "duration": 0.15625
                },
                {
                    "name": "F4",
                    "midi": 65,
                    "time": 568.28125,
                    "velocity": 0.4881889763779528,
                    "duration": 0.15625
                },
                {
                    "name": "D#4",
                    "midi": 63,
                    "time": 568.4375,
                    "velocity": 0.4881889763779528,
                    "duration": 0.15625
                },
                {
                    "name": "F4",
                    "midi": 65,
                    "time": 568.59375,
                    "velocity": 0.4881889763779528,
                    "duration": 0.15625
                },
                {
                    "name": "A4",
                    "midi": 69,
                    "time": 568.75,
                    "velocity": 0.5905511811023622,
                    "duration": 0.15625
                },
                {
                    "name": "B4",
                    "midi": 71,
                    "time": 568.90625,
                    "velocity": 0.5905511811023622,
                    "duration": 0.15625
                },
                {
                    "name": "A4",
                    "midi": 69,
                    "time": 569.0625,
                    "velocity": 0.5905511811023622,
                    "duration": 0.15625
                },
                {
                    "name": "B4",
                    "midi": 71,
                    "time": 569.21875,
                    "velocity": 0.5905511811023622,
                    "duration": 0.15625
                },
                {
                    "name": "C#5",
                    "midi": 73,
                    "time": 569.375,
                    "velocity": 0.5905511811023622,
                    "duration": 0.15625
                },
                {
                    "name": "D5",
                    "midi": 74,
                    "time": 569.53125,
                    "velocity": 0.5905511811023622,
                    "duration": 0.15625
                },
                {
                    "name": "C#5",
                    "midi": 73,
                    "time": 569.6875,
                    "velocity": 0.5905511811023622,
                    "duration": 0.15625
                },
                {
                    "name": "D5",
                    "midi": 74,
                    "time": 569.84375,
                    "velocity": 0.5905511811023622,
                    "duration": 0.15625
                },
                {
                    "name": "E5",
                    "midi": 76,
                    "time": 570,
                    "velocity": 0.4881889763779528,
                    "duration": 0.15625
                },
                {
                    "name": "F#5",
                    "midi": 78,
                    "time": 570.15625,
                    "velocity": 0.4881889763779528,
                    "duration": 0.15625
                },
                {
                    "name": "E5",
                    "midi": 76,
                    "time": 570.3125,
                    "velocity": 0.4881889763779528,
                    "duration": 0.15625
                },
                {
                    "name": "F#5",
                    "midi": 78,
                    "time": 570.46875,
                    "velocity": 0.4881889763779528,
                    "duration": 0.15625
                },
                {
                    "name": "G5",
                    "midi": 79,
                    "time": 570.625,
                    "velocity": 0.5905511811023622,
                    "duration": 0.15625
                },
                {
                    "name": "A5",
                    "midi": 81,
                    "time": 570.78125,
                    "velocity": 0.5905511811023622,
                    "duration": 0.15625
                },
                {
                    "name": "G5",
                    "midi": 79,
                    "time": 570.9375,
                    "velocity": 0.5905511811023622,
                    "duration": 0.15625
                },
                {
                    "name": "A5",
                    "midi": 81,
                    "time": 571.09375,
                    "velocity": 0.5905511811023622,
                    "duration": 0.15625
                },
                {
                    "name": "D6",
                    "midi": 86,
                    "time": 571.25,
                    "velocity": 0.5905511811023622,
                    "duration": 0.15625
                },
                {
                    "name": "F#6",
                    "midi": 90,
                    "time": 571.40625,
                    "velocity": 0.5905511811023622,
                    "duration": 0.15625
                },
                {
                    "name": "E6",
                    "midi": 88,
                    "time": 571.5625,
                    "velocity": 0.5905511811023622,
                    "duration": 0.15625
                },
                {
                    "name": "D6",
                    "midi": 86,
                    "time": 571.71875,
                    "velocity": 0.5905511811023622,
                    "duration": 0.15625
                },
                {
                    "name": "C#6",
                    "midi": 85,
                    "time": 571.875,
                    "velocity": 0.5905511811023622,
                    "duration": 0.15625
                },
                {
                    "name": "A#5",
                    "midi": 82,
                    "time": 572.03125,
                    "velocity": 0.5905511811023622,
                    "duration": 0.15625
                },
                {
                    "name": "G#5",
                    "midi": 80,
                    "time": 572.1875,
                    "velocity": 0.5905511811023622,
                    "duration": 0.15625
                },
                {
                    "name": "F#5",
                    "midi": 78,
                    "time": 572.34375,
                    "velocity": 0.5905511811023622,
                    "duration": 0.15625
                },
                {
                    "name": "D5",
                    "midi": 74,
                    "time": 572.5,
                    "velocity": 0.4881889763779528,
                    "duration": 0.15625
                },
                {
                    "name": "G#5",
                    "midi": 80,
                    "time": 572.578125,
                    "velocity": 0.4881889763779528,
                    "duration": 0.078125
                },
                {
                    "name": "F#5",
                    "midi": 78,
                    "time": 572.65625,
                    "velocity": 0.4881889763779528,
                    "duration": 0.15625
                },
                {
                    "name": "E5",
                    "midi": 76,
                    "time": 572.8125,
                    "velocity": 0.4881889763779528,
                    "duration": 0.15625
                },
                {
                    "name": "D5",
                    "midi": 74,
                    "time": 572.96875,
                    "velocity": 0.4881889763779528,
                    "duration": 0.15625
                },
                {
                    "name": "C#5",
                    "midi": 73,
                    "time": 573.125,
                    "velocity": 0.4881889763779528,
                    "duration": 0.15625
                },
                {
                    "name": "A#4",
                    "midi": 70,
                    "time": 573.28125,
                    "velocity": 0.4881889763779528,
                    "duration": 0.15625
                },
                {
                    "name": "G#4",
                    "midi": 68,
                    "time": 573.4375,
                    "velocity": 0.4881889763779528,
                    "duration": 0.15625
                },
                {
                    "name": "F#4",
                    "midi": 66,
                    "time": 573.59375,
                    "velocity": 0.4881889763779528,
                    "duration": 0.15625
                },
                {
                    "name": "D4",
                    "midi": 62,
                    "time": 573.75,
                    "velocity": 0.6929133858267716,
                    "duration": 2.5
                },
                {
                    "name": "E4",
                    "midi": 64,
                    "time": 573.75,
                    "velocity": 0.6929133858267716,
                    "duration": 2.5
                },
                {
                    "name": "B4",
                    "midi": 71,
                    "time": 576.40625,
                    "velocity": 0.4881889763779528,
                    "duration": 0.15625
                },
                {
                    "name": "C#5",
                    "midi": 73,
                    "time": 576.40625,
                    "velocity": 0.4881889763779528,
                    "duration": 0.15625
                },
                {
                    "name": "A#4",
                    "midi": 70,
                    "time": 576.5625,
                    "velocity": 0.4881889763779528,
                    "duration": 0.15625
                },
                {
                    "name": "D5",
                    "midi": 74,
                    "time": 576.5625,
                    "velocity": 0.4881889763779528,
                    "duration": 0.15625
                },
                {
                    "name": "A4",
                    "midi": 69,
                    "time": 576.71875,
                    "velocity": 0.4881889763779528,
                    "duration": 0.15625
                },
                {
                    "name": "F5",
                    "midi": 77,
                    "time": 576.71875,
                    "velocity": 0.4881889763779528,
                    "duration": 0.15625
                },
                {
                    "name": "F#4",
                    "midi": 66,
                    "time": 576.875,
                    "velocity": 0.4881889763779528,
                    "duration": 0.15625
                },
                {
                    "name": "A#4",
                    "midi": 70,
                    "time": 576.875,
                    "velocity": 0.4881889763779528,
                    "duration": 0.15625
                },
                {
                    "name": "G4",
                    "midi": 67,
                    "time": 577.03125,
                    "velocity": 0.4881889763779528,
                    "duration": 0.15625
                },
                {
                    "name": "B4",
                    "midi": 71,
                    "time": 577.03125,
                    "velocity": 0.4881889763779528,
                    "duration": 0.15625
                },
                {
                    "name": "F#4",
                    "midi": 66,
                    "time": 577.1875,
                    "velocity": 0.4881889763779528,
                    "duration": 0.15625
                },
                {
                    "name": "D5",
                    "midi": 74,
                    "time": 577.1875,
                    "velocity": 0.4881889763779528,
                    "duration": 0.15625
                },
                {
                    "name": "F4",
                    "midi": 65,
                    "time": 577.34375,
                    "velocity": 0.4881889763779528,
                    "duration": 0.15625
                },
                {
                    "name": "G4",
                    "midi": 67,
                    "time": 577.34375,
                    "velocity": 0.4881889763779528,
                    "duration": 0.15625
                },
                {
                    "name": "E4",
                    "midi": 64,
                    "time": 577.5,
                    "velocity": 0.4881889763779528,
                    "duration": 0.15625
                },
                {
                    "name": "G#4",
                    "midi": 68,
                    "time": 577.5,
                    "velocity": 0.4881889763779528,
                    "duration": 0.15625
                },
                {
                    "name": "D#4",
                    "midi": 63,
                    "time": 577.65625,
                    "velocity": 0.4881889763779528,
                    "duration": 0.15625
                },
                {
                    "name": "B4",
                    "midi": 71,
                    "time": 577.65625,
                    "velocity": 0.4881889763779528,
                    "duration": 0.15625
                },
                {
                    "name": "D4",
                    "midi": 62,
                    "time": 577.8125,
                    "velocity": 0.4881889763779528,
                    "duration": 0.9375
                },
                {
                    "name": "E4",
                    "midi": 64,
                    "time": 577.8125,
                    "velocity": 0.4881889763779528,
                    "duration": 0.9375
                },
                {
                    "name": "G#5",
                    "midi": 80,
                    "time": 581.40625,
                    "velocity": 0.4881889763779528,
                    "duration": 0.15625
                },
                {
                    "name": "A#5",
                    "midi": 82,
                    "time": 581.40625,
                    "velocity": 0.4881889763779528,
                    "duration": 0.15625
                },
                {
                    "name": "G5",
                    "midi": 79,
                    "time": 581.5625,
                    "velocity": 0.4881889763779528,
                    "duration": 0.15625
                },
                {
                    "name": "B5",
                    "midi": 83,
                    "time": 581.5625,
                    "velocity": 0.4881889763779528,
                    "duration": 0.15625
                },
                {
                    "name": "F#5",
                    "midi": 78,
                    "time": 581.71875,
                    "velocity": 0.4881889763779528,
                    "duration": 0.15625
                },
                {
                    "name": "D6",
                    "midi": 86,
                    "time": 581.71875,
                    "velocity": 0.4881889763779528,
                    "duration": 0.15625
                },
                {
                    "name": "F5",
                    "midi": 77,
                    "time": 581.875,
                    "velocity": 0.4881889763779528,
                    "duration": 0.15625
                },
                {
                    "name": "G5",
                    "midi": 79,
                    "time": 581.875,
                    "velocity": 0.4881889763779528,
                    "duration": 0.15625
                },
                {
                    "name": "E5",
                    "midi": 76,
                    "time": 582.03125,
                    "velocity": 0.4881889763779528,
                    "duration": 0.15625
                },
                {
                    "name": "G#5",
                    "midi": 80,
                    "time": 582.03125,
                    "velocity": 0.4881889763779528,
                    "duration": 0.15625
                },
                {
                    "name": "D#5",
                    "midi": 75,
                    "time": 582.1875,
                    "velocity": 0.4881889763779528,
                    "duration": 0.15625
                },
                {
                    "name": "B5",
                    "midi": 83,
                    "time": 582.1875,
                    "velocity": 0.4881889763779528,
                    "duration": 0.15625
                },
                {
                    "name": "D5",
                    "midi": 74,
                    "time": 582.34375,
                    "velocity": 0.4881889763779528,
                    "duration": 0.15625
                },
                {
                    "name": "E5",
                    "midi": 76,
                    "time": 582.34375,
                    "velocity": 0.4881889763779528,
                    "duration": 0.15625
                },
                {
                    "name": "C#5",
                    "midi": 73,
                    "time": 582.5,
                    "velocity": 0.4881889763779528,
                    "duration": 0.15625
                },
                {
                    "name": "F5",
                    "midi": 77,
                    "time": 582.5,
                    "velocity": 0.4881889763779528,
                    "duration": 0.15625
                },
                {
                    "name": "C5",
                    "midi": 72,
                    "time": 582.65625,
                    "velocity": 0.4881889763779528,
                    "duration": 0.15625
                },
                {
                    "name": "G#5",
                    "midi": 80,
                    "time": 582.65625,
                    "velocity": 0.4881889763779528,
                    "duration": 0.15625
                },
                {
                    "name": "B4",
                    "midi": 71,
                    "time": 582.8125,
                    "velocity": 0.4881889763779528,
                    "duration": 0.15625
                },
                {
                    "name": "C#5",
                    "midi": 73,
                    "time": 582.8125,
                    "velocity": 0.4881889763779528,
                    "duration": 0.15625
                },
                {
                    "name": "A#4",
                    "midi": 70,
                    "time": 582.96875,
                    "velocity": 0.4881889763779528,
                    "duration": 0.15625
                },
                {
                    "name": "D5",
                    "midi": 74,
                    "time": 582.96875,
                    "velocity": 0.4881889763779528,
                    "duration": 0.15625
                },
                {
                    "name": "A4",
                    "midi": 69,
                    "time": 583.125,
                    "velocity": 0.4881889763779528,
                    "duration": 0.15625
                },
                {
                    "name": "F5",
                    "midi": 77,
                    "time": 583.125,
                    "velocity": 0.4881889763779528,
                    "duration": 0.15625
                },
                {
                    "name": "G#4",
                    "midi": 68,
                    "time": 583.28125,
                    "velocity": 0.4881889763779528,
                    "duration": 0.15625
                },
                {
                    "name": "A#4",
                    "midi": 70,
                    "time": 583.28125,
                    "velocity": 0.4881889763779528,
                    "duration": 0.15625
                },
                {
                    "name": "G4",
                    "midi": 67,
                    "time": 583.4375,
                    "velocity": 0.4881889763779528,
                    "duration": 0.15625
                },
                {
                    "name": "B4",
                    "midi": 71,
                    "time": 583.4375,
                    "velocity": 0.4881889763779528,
                    "duration": 0.15625
                },
                {
                    "name": "F#4",
                    "midi": 66,
                    "time": 583.59375,
                    "velocity": 0.4881889763779528,
                    "duration": 0.15625
                },
                {
                    "name": "D5",
                    "midi": 74,
                    "time": 583.59375,
                    "velocity": 0.4881889763779528,
                    "duration": 0.15625
                },
                {
                    "name": "F4",
                    "midi": 65,
                    "time": 583.75,
                    "velocity": 0.4881889763779528,
                    "duration": 0.15625
                },
                {
                    "name": "G4",
                    "midi": 67,
                    "time": 583.75,
                    "velocity": 0.4881889763779528,
                    "duration": 0.15625
                },
                {
                    "name": "E4",
                    "midi": 64,
                    "time": 583.90625,
                    "velocity": 0.4881889763779528,
                    "duration": 0.15625
                },
                {
                    "name": "G#4",
                    "midi": 68,
                    "time": 583.90625,
                    "velocity": 0.4881889763779528,
                    "duration": 0.15625
                },
                {
                    "name": "D#4",
                    "midi": 63,
                    "time": 584.0625,
                    "velocity": 0.4881889763779528,
                    "duration": 0.15625
                },
                {
                    "name": "B4",
                    "midi": 71,
                    "time": 584.0625,
                    "velocity": 0.4881889763779528,
                    "duration": 0.15625
                },
                {
                    "name": "D4",
                    "midi": 62,
                    "time": 584.21875,
                    "velocity": 0.4881889763779528,
                    "duration": 0.15625
                },
                {
                    "name": "E4",
                    "midi": 64,
                    "time": 584.21875,
                    "velocity": 0.4881889763779528,
                    "duration": 0.15625
                },
                {
                    "name": "E4",
                    "midi": 64,
                    "time": 590.625,
                    "velocity": 0.5905511811023622,
                    "duration": 0.08854166666662877
                },
                {
                    "name": "F#4",
                    "midi": 66,
                    "time": 590.7135416666666,
                    "velocity": 0.5905511811023622,
                    "duration": 0.08984375
                },
                {
                    "name": "G#4",
                    "midi": 68,
                    "time": 590.8033854166666,
                    "velocity": 0.5905511811023622,
                    "duration": 0.08854166666662877
                },
                {
                    "name": "A4",
                    "midi": 69,
                    "time": 590.8919270833333,
                    "velocity": 0.5905511811023622,
                    "duration": 0.08984375
                },
                {
                    "name": "B4",
                    "midi": 71,
                    "time": 590.9817708333333,
                    "velocity": 0.5905511811023622,
                    "duration": 0.08854166666662877
                },
                {
                    "name": "C#5",
                    "midi": 73,
                    "time": 591.0703124999999,
                    "velocity": 0.5905511811023622,
                    "duration": 0.08984375
                },
                {
                    "name": "D5",
                    "midi": 74,
                    "time": 591.1601562499999,
                    "velocity": 0.5905511811023622,
                    "duration": 0.08984375
                },
                {
                    "name": "E4",
                    "midi": 64,
                    "time": 591.2499999999999,
                    "velocity": 0.7952755905511811,
                    "duration": 0.3125
                },
                {
                    "name": "E5",
                    "midi": 76,
                    "time": 591.2499999999999,
                    "velocity": 0.7952755905511811,
                    "duration": 0.3125
                },
                {
                    "name": "E4",
                    "midi": 64,
                    "time": 591.5624999999999,
                    "velocity": 0.5905511811023622,
                    "duration": 0.02994791666662877
                },
                {
                    "name": "E5",
                    "midi": 76,
                    "time": 591.5624999999999,
                    "velocity": 0.5905511811023622,
                    "duration": 0.02994791666662877
                },
                {
                    "name": "E4",
                    "midi": 64,
                    "time": 591.7187499999999,
                    "velocity": 0.5905511811023622,
                    "duration": 0.02994791666662877
                },
                {
                    "name": "E5",
                    "midi": 76,
                    "time": 591.7187499999999,
                    "velocity": 0.5905511811023622,
                    "duration": 0.02994791666662877
                },
                {
                    "name": "E4",
                    "midi": 64,
                    "time": 591.8749999999999,
                    "velocity": 0.5905511811023622,
                    "duration": 0.02994791666662877
                },
                {
                    "name": "E5",
                    "midi": 76,
                    "time": 591.8749999999999,
                    "velocity": 0.5905511811023622,
                    "duration": 0.02994791666662877
                },
                {
                    "name": "E4",
                    "midi": 64,
                    "time": 592.0312499999999,
                    "velocity": 0.5905511811023622,
                    "duration": 0.02994791666662877
                },
                {
                    "name": "E5",
                    "midi": 76,
                    "time": 592.0312499999999,
                    "velocity": 0.5905511811023622,
                    "duration": 0.02994791666662877
                },
                {
                    "name": "E4",
                    "midi": 64,
                    "time": 592.1874999999999,
                    "velocity": 0.5905511811023622,
                    "duration": 0.02994791666662877
                },
                {
                    "name": "E5",
                    "midi": 76,
                    "time": 592.1874999999999,
                    "velocity": 0.5905511811023622,
                    "duration": 0.02994791666662877
                },
                {
                    "name": "E4",
                    "midi": 64,
                    "time": 592.3437499999999,
                    "velocity": 0.5905511811023622,
                    "duration": 0.02994791666662877
                },
                {
                    "name": "E5",
                    "midi": 76,
                    "time": 592.3437499999999,
                    "velocity": 0.5905511811023622,
                    "duration": 0.02994791666662877
                },
                {
                    "name": "E4",
                    "midi": 64,
                    "time": 592.4999999999999,
                    "velocity": 0.5905511811023622,
                    "duration": 0.02994791666662877
                },
                {
                    "name": "E5",
                    "midi": 76,
                    "time": 592.4999999999999,
                    "velocity": 0.5905511811023622,
                    "duration": 0.02994791666662877
                },
                {
                    "name": "E4",
                    "midi": 64,
                    "time": 592.6562499999999,
                    "velocity": 0.5905511811023622,
                    "duration": 0.02994791666662877
                },
                {
                    "name": "E5",
                    "midi": 76,
                    "time": 592.6562499999999,
                    "velocity": 0.5905511811023622,
                    "duration": 0.02994791666662877
                },
                {
                    "name": "E4",
                    "midi": 64,
                    "time": 592.8124999999999,
                    "velocity": 0.5905511811023622,
                    "duration": 0.02994791666662877
                },
                {
                    "name": "E5",
                    "midi": 76,
                    "time": 592.8124999999999,
                    "velocity": 0.5905511811023622,
                    "duration": 0.02994791666662877
                },
                {
                    "name": "E4",
                    "midi": 64,
                    "time": 592.9687499999999,
                    "velocity": 0.5905511811023622,
                    "duration": 0.02994791666662877
                },
                {
                    "name": "E5",
                    "midi": 76,
                    "time": 592.9687499999999,
                    "velocity": 0.5905511811023622,
                    "duration": 0.02994791666662877
                },
                {
                    "name": "E4",
                    "midi": 64,
                    "time": 593.1249999999999,
                    "velocity": 0.5905511811023622,
                    "duration": 0.06119791666662877
                },
                {
                    "name": "E5",
                    "midi": 76,
                    "time": 593.1249999999999,
                    "velocity": 0.5905511811023622,
                    "duration": 0.06119791666662877
                },
                {
                    "name": "B4",
                    "midi": 71,
                    "time": 593.4374999999999,
                    "velocity": 0.7952755905511811,
                    "duration": 0.06119791666662877
                },
                {
                    "name": "B5",
                    "midi": 83,
                    "time": 593.4374999999999,
                    "velocity": 0.7952755905511811,
                    "duration": 0.06119791666662877
                },
                {
                    "name": "E4",
                    "midi": 64,
                    "time": 593.7499999999999,
                    "velocity": 0.7952755905511811,
                    "duration": 0.3125
                },
                {
                    "name": "E5",
                    "midi": 76,
                    "time": 593.7499999999999,
                    "velocity": 0.7952755905511811,
                    "duration": 0.3125
                },
                {
                    "name": "E4",
                    "midi": 64,
                    "time": 594.0624999999999,
                    "velocity": 0.5905511811023622,
                    "duration": 0.02994791666662877
                },
                {
                    "name": "E5",
                    "midi": 76,
                    "time": 594.0624999999999,
                    "velocity": 0.5905511811023622,
                    "duration": 0.02994791666662877
                },
                {
                    "name": "E4",
                    "midi": 64,
                    "time": 594.2187499999999,
                    "velocity": 0.5905511811023622,
                    "duration": 0.02994791666662877
                },
                {
                    "name": "E5",
                    "midi": 76,
                    "time": 594.2187499999999,
                    "velocity": 0.5905511811023622,
                    "duration": 0.02994791666662877
                },
                {
                    "name": "E4",
                    "midi": 64,
                    "time": 594.3749999999999,
                    "velocity": 0.5905511811023622,
                    "duration": 0.02994791666662877
                },
                {
                    "name": "E5",
                    "midi": 76,
                    "time": 594.3749999999999,
                    "velocity": 0.5905511811023622,
                    "duration": 0.02994791666662877
                },
                {
                    "name": "E4",
                    "midi": 64,
                    "time": 594.5312499999999,
                    "velocity": 0.5905511811023622,
                    "duration": 0.02994791666662877
                },
                {
                    "name": "E5",
                    "midi": 76,
                    "time": 594.5312499999999,
                    "velocity": 0.5905511811023622,
                    "duration": 0.02994791666662877
                },
                {
                    "name": "E4",
                    "midi": 64,
                    "time": 594.6874999999999,
                    "velocity": 0.5905511811023622,
                    "duration": 0.02994791666662877
                },
                {
                    "name": "E5",
                    "midi": 76,
                    "time": 594.6874999999999,
                    "velocity": 0.5905511811023622,
                    "duration": 0.02994791666662877
                },
                {
                    "name": "E4",
                    "midi": 64,
                    "time": 594.8437499999999,
                    "velocity": 0.5905511811023622,
                    "duration": 0.02994791666662877
                },
                {
                    "name": "E5",
                    "midi": 76,
                    "time": 594.8437499999999,
                    "velocity": 0.5905511811023622,
                    "duration": 0.02994791666662877
                },
                {
                    "name": "E4",
                    "midi": 64,
                    "time": 594.9999999999999,
                    "velocity": 0.5905511811023622,
                    "duration": 0.02994791666662877
                },
                {
                    "name": "E5",
                    "midi": 76,
                    "time": 594.9999999999999,
                    "velocity": 0.5905511811023622,
                    "duration": 0.02994791666662877
                },
                {
                    "name": "E4",
                    "midi": 64,
                    "time": 595.1562499999999,
                    "velocity": 0.5905511811023622,
                    "duration": 0.02994791666662877
                },
                {
                    "name": "E5",
                    "midi": 76,
                    "time": 595.1562499999999,
                    "velocity": 0.5905511811023622,
                    "duration": 0.02994791666662877
                },
                {
                    "name": "E4",
                    "midi": 64,
                    "time": 595.3124999999999,
                    "velocity": 0.5905511811023622,
                    "duration": 0.02994791666662877
                },
                {
                    "name": "E5",
                    "midi": 76,
                    "time": 595.3124999999999,
                    "velocity": 0.5905511811023622,
                    "duration": 0.02994791666662877
                },
                {
                    "name": "E4",
                    "midi": 64,
                    "time": 595.4687499999999,
                    "velocity": 0.5905511811023622,
                    "duration": 0.02994791666662877
                },
                {
                    "name": "E5",
                    "midi": 76,
                    "time": 595.4687499999999,
                    "velocity": 0.5905511811023622,
                    "duration": 0.02994791666662877
                },
                {
                    "name": "E4",
                    "midi": 64,
                    "time": 595.6249999999999,
                    "velocity": 0.5905511811023622,
                    "duration": 0.06119791666662877
                },
                {
                    "name": "E5",
                    "midi": 76,
                    "time": 595.6249999999999,
                    "velocity": 0.5905511811023622,
                    "duration": 0.06119791666662877
                },
                {
                    "name": "B4",
                    "midi": 71,
                    "time": 595.9374999999999,
                    "velocity": 0.7952755905511811,
                    "duration": 0.06119791666662877
                },
                {
                    "name": "B5",
                    "midi": 83,
                    "time": 595.9374999999999,
                    "velocity": 0.7952755905511811,
                    "duration": 0.06119791666662877
                },
                {
                    "name": "E4",
                    "midi": 64,
                    "time": 596.2499999999999,
                    "velocity": 0.7952755905511811,
                    "duration": 0.3125
                },
                {
                    "name": "E5",
                    "midi": 76,
                    "time": 596.2499999999999,
                    "velocity": 0.7952755905511811,
                    "duration": 0.3125
                },
                {
                    "name": "E4",
                    "midi": 64,
                    "time": 596.5624999999999,
                    "velocity": 0.5905511811023622,
                    "duration": 0.02994791666662877
                },
                {
                    "name": "E5",
                    "midi": 76,
                    "time": 596.5624999999999,
                    "velocity": 0.5905511811023622,
                    "duration": 0.02994791666662877
                },
                {
                    "name": "E4",
                    "midi": 64,
                    "time": 596.7187499999999,
                    "velocity": 0.5905511811023622,
                    "duration": 0.02994791666662877
                },
                {
                    "name": "E5",
                    "midi": 76,
                    "time": 596.7187499999999,
                    "velocity": 0.5905511811023622,
                    "duration": 0.02994791666662877
                },
                {
                    "name": "E4",
                    "midi": 64,
                    "time": 596.8749999999999,
                    "velocity": 0.5905511811023622,
                    "duration": 0.02994791666662877
                },
                {
                    "name": "E5",
                    "midi": 76,
                    "time": 596.8749999999999,
                    "velocity": 0.5905511811023622,
                    "duration": 0.02994791666662877
                },
                {
                    "name": "E4",
                    "midi": 64,
                    "time": 597.0312499999999,
                    "velocity": 0.5905511811023622,
                    "duration": 0.02994791666662877
                },
                {
                    "name": "E5",
                    "midi": 76,
                    "time": 597.0312499999999,
                    "velocity": 0.5905511811023622,
                    "duration": 0.02994791666662877
                },
                {
                    "name": "E4",
                    "midi": 64,
                    "time": 597.1874999999999,
                    "velocity": 0.5905511811023622,
                    "duration": 0.02994791666662877
                },
                {
                    "name": "E5",
                    "midi": 76,
                    "time": 597.1874999999999,
                    "velocity": 0.5905511811023622,
                    "duration": 0.02994791666662877
                },
                {
                    "name": "E4",
                    "midi": 64,
                    "time": 597.3437499999999,
                    "velocity": 0.5905511811023622,
                    "duration": 0.02994791666662877
                },
                {
                    "name": "E5",
                    "midi": 76,
                    "time": 597.3437499999999,
                    "velocity": 0.5905511811023622,
                    "duration": 0.02994791666662877
                },
                {
                    "name": "E4",
                    "midi": 64,
                    "time": 597.4999999999999,
                    "velocity": 0.5905511811023622,
                    "duration": 0.02994791666662877
                },
                {
                    "name": "E5",
                    "midi": 76,
                    "time": 597.4999999999999,
                    "velocity": 0.5905511811023622,
                    "duration": 0.02994791666662877
                },
                {
                    "name": "E4",
                    "midi": 64,
                    "time": 597.6562499999999,
                    "velocity": 0.5905511811023622,
                    "duration": 0.02994791666662877
                },
                {
                    "name": "E5",
                    "midi": 76,
                    "time": 597.6562499999999,
                    "velocity": 0.5905511811023622,
                    "duration": 0.02994791666662877
                },
                {
                    "name": "E4",
                    "midi": 64,
                    "time": 597.8124999999999,
                    "velocity": 0.5905511811023622,
                    "duration": 0.02994791666662877
                },
                {
                    "name": "E5",
                    "midi": 76,
                    "time": 597.8124999999999,
                    "velocity": 0.5905511811023622,
                    "duration": 0.02994791666662877
                },
                {
                    "name": "E4",
                    "midi": 64,
                    "time": 597.9687499999999,
                    "velocity": 0.5905511811023622,
                    "duration": 0.02994791666662877
                },
                {
                    "name": "E5",
                    "midi": 76,
                    "time": 597.9687499999999,
                    "velocity": 0.5905511811023622,
                    "duration": 0.02994791666662877
                },
                {
                    "name": "E4",
                    "midi": 64,
                    "time": 598.1249999999999,
                    "velocity": 0.5905511811023622,
                    "duration": 0.06119791666662877
                },
                {
                    "name": "E5",
                    "midi": 76,
                    "time": 598.1249999999999,
                    "velocity": 0.5905511811023622,
                    "duration": 0.06119791666662877
                },
                {
                    "name": "B4",
                    "midi": 71,
                    "time": 598.4374999999999,
                    "velocity": 0.7952755905511811,
                    "duration": 0.06119791666662877
                },
                {
                    "name": "B5",
                    "midi": 83,
                    "time": 598.4374999999999,
                    "velocity": 0.7952755905511811,
                    "duration": 0.06119791666662877
                },
                {
                    "name": "E4",
                    "midi": 64,
                    "time": 598.7499999999999,
                    "velocity": 0.7952755905511811,
                    "duration": 0.3125
                },
                {
                    "name": "E5",
                    "midi": 76,
                    "time": 598.7499999999999,
                    "velocity": 0.7952755905511811,
                    "duration": 0.3125
                },
                {
                    "name": "E4",
                    "midi": 64,
                    "time": 599.0624999999999,
                    "velocity": 0.5905511811023622,
                    "duration": 0.02994791666662877
                },
                {
                    "name": "E5",
                    "midi": 76,
                    "time": 599.0624999999999,
                    "velocity": 0.5905511811023622,
                    "duration": 0.02994791666662877
                },
                {
                    "name": "E4",
                    "midi": 64,
                    "time": 599.2187499999999,
                    "velocity": 0.5905511811023622,
                    "duration": 0.02994791666662877
                },
                {
                    "name": "E5",
                    "midi": 76,
                    "time": 599.2187499999999,
                    "velocity": 0.5905511811023622,
                    "duration": 0.02994791666662877
                },
                {
                    "name": "E4",
                    "midi": 64,
                    "time": 599.3749999999999,
                    "velocity": 0.5905511811023622,
                    "duration": 0.02994791666662877
                },
                {
                    "name": "E5",
                    "midi": 76,
                    "time": 599.3749999999999,
                    "velocity": 0.5905511811023622,
                    "duration": 0.02994791666662877
                },
                {
                    "name": "E4",
                    "midi": 64,
                    "time": 599.5312499999999,
                    "velocity": 0.5905511811023622,
                    "duration": 0.02994791666662877
                },
                {
                    "name": "E5",
                    "midi": 76,
                    "time": 599.5312499999999,
                    "velocity": 0.5905511811023622,
                    "duration": 0.02994791666662877
                },
                {
                    "name": "E4",
                    "midi": 64,
                    "time": 599.6874999999999,
                    "velocity": 0.5905511811023622,
                    "duration": 0.02994791666662877
                },
                {
                    "name": "E5",
                    "midi": 76,
                    "time": 599.6874999999999,
                    "velocity": 0.5905511811023622,
                    "duration": 0.02994791666662877
                },
                {
                    "name": "E4",
                    "midi": 64,
                    "time": 599.8437499999999,
                    "velocity": 0.5905511811023622,
                    "duration": 0.02994791666662877
                },
                {
                    "name": "E5",
                    "midi": 76,
                    "time": 599.8437499999999,
                    "velocity": 0.5905511811023622,
                    "duration": 0.02994791666662877
                },
                {
                    "name": "E4",
                    "midi": 64,
                    "time": 599.9999999999999,
                    "velocity": 0.5905511811023622,
                    "duration": 0.02994791666662877
                },
                {
                    "name": "E5",
                    "midi": 76,
                    "time": 599.9999999999999,
                    "velocity": 0.5905511811023622,
                    "duration": 0.02994791666662877
                },
                {
                    "name": "E4",
                    "midi": 64,
                    "time": 600.1562499999999,
                    "velocity": 0.5905511811023622,
                    "duration": 0.02994791666662877
                },
                {
                    "name": "E5",
                    "midi": 76,
                    "time": 600.1562499999999,
                    "velocity": 0.5905511811023622,
                    "duration": 0.02994791666662877
                },
                {
                    "name": "E4",
                    "midi": 64,
                    "time": 600.3124999999999,
                    "velocity": 0.5905511811023622,
                    "duration": 0.02994791666662877
                },
                {
                    "name": "E5",
                    "midi": 76,
                    "time": 600.3124999999999,
                    "velocity": 0.5905511811023622,
                    "duration": 0.02994791666662877
                },
                {
                    "name": "E4",
                    "midi": 64,
                    "time": 600.4687499999999,
                    "velocity": 0.5905511811023622,
                    "duration": 0.02994791666662877
                },
                {
                    "name": "E5",
                    "midi": 76,
                    "time": 600.4687499999999,
                    "velocity": 0.5905511811023622,
                    "duration": 0.02994791666662877
                },
                {
                    "name": "E4",
                    "midi": 64,
                    "time": 600.6249999999999,
                    "velocity": 0.5905511811023622,
                    "duration": 0.06119791666662877
                },
                {
                    "name": "E5",
                    "midi": 76,
                    "time": 600.6249999999999,
                    "velocity": 0.5905511811023622,
                    "duration": 0.06119791666662877
                },
                {
                    "name": "B4",
                    "midi": 71,
                    "time": 600.9374999999999,
                    "velocity": 0.7952755905511811,
                    "duration": 0.06119791666662877
                },
                {
                    "name": "B5",
                    "midi": 83,
                    "time": 600.9374999999999,
                    "velocity": 0.7952755905511811,
                    "duration": 0.06119791666662877
                },
                {
                    "name": "E4",
                    "midi": 64,
                    "time": 601.2499999999999,
                    "velocity": 0.7952755905511811,
                    "duration": 0.3125
                },
                {
                    "name": "E5",
                    "midi": 76,
                    "time": 601.2499999999999,
                    "velocity": 0.7952755905511811,
                    "duration": 0.3125
                },
                {
                    "name": "E4",
                    "midi": 64,
                    "time": 601.5624999999999,
                    "velocity": 0.5905511811023622,
                    "duration": 0.02994791666662877
                },
                {
                    "name": "E5",
                    "midi": 76,
                    "time": 601.5624999999999,
                    "velocity": 0.5905511811023622,
                    "duration": 0.02994791666662877
                },
                {
                    "name": "E4",
                    "midi": 64,
                    "time": 601.7187499999999,
                    "velocity": 0.5905511811023622,
                    "duration": 0.02994791666662877
                },
                {
                    "name": "E5",
                    "midi": 76,
                    "time": 601.7187499999999,
                    "velocity": 0.5905511811023622,
                    "duration": 0.02994791666662877
                },
                {
                    "name": "E4",
                    "midi": 64,
                    "time": 601.8749999999999,
                    "velocity": 0.5905511811023622,
                    "duration": 0.02994791666662877
                },
                {
                    "name": "E5",
                    "midi": 76,
                    "time": 601.8749999999999,
                    "velocity": 0.5905511811023622,
                    "duration": 0.02994791666662877
                },
                {
                    "name": "E4",
                    "midi": 64,
                    "time": 602.0312499999999,
                    "velocity": 0.5905511811023622,
                    "duration": 0.02994791666662877
                },
                {
                    "name": "E5",
                    "midi": 76,
                    "time": 602.0312499999999,
                    "velocity": 0.5905511811023622,
                    "duration": 0.02994791666662877
                },
                {
                    "name": "E4",
                    "midi": 64,
                    "time": 602.1874999999999,
                    "velocity": 0.5905511811023622,
                    "duration": 0.02994791666662877
                },
                {
                    "name": "E5",
                    "midi": 76,
                    "time": 602.1874999999999,
                    "velocity": 0.5905511811023622,
                    "duration": 0.02994791666662877
                },
                {
                    "name": "E4",
                    "midi": 64,
                    "time": 602.3437499999999,
                    "velocity": 0.5905511811023622,
                    "duration": 0.02994791666662877
                },
                {
                    "name": "E5",
                    "midi": 76,
                    "time": 602.3437499999999,
                    "velocity": 0.5905511811023622,
                    "duration": 0.02994791666662877
                },
                {
                    "name": "E4",
                    "midi": 64,
                    "time": 602.4999999999999,
                    "velocity": 0.5905511811023622,
                    "duration": 0.02994791666662877
                },
                {
                    "name": "E5",
                    "midi": 76,
                    "time": 602.4999999999999,
                    "velocity": 0.5905511811023622,
                    "duration": 0.02994791666662877
                },
                {
                    "name": "E4",
                    "midi": 64,
                    "time": 602.6562499999999,
                    "velocity": 0.5905511811023622,
                    "duration": 0.02994791666662877
                },
                {
                    "name": "E5",
                    "midi": 76,
                    "time": 602.6562499999999,
                    "velocity": 0.5905511811023622,
                    "duration": 0.02994791666662877
                },
                {
                    "name": "E4",
                    "midi": 64,
                    "time": 602.8124999999999,
                    "velocity": 0.5905511811023622,
                    "duration": 0.02994791666662877
                },
                {
                    "name": "E5",
                    "midi": 76,
                    "time": 602.8124999999999,
                    "velocity": 0.5905511811023622,
                    "duration": 0.02994791666662877
                },
                {
                    "name": "E4",
                    "midi": 64,
                    "time": 602.9687499999999,
                    "velocity": 0.5905511811023622,
                    "duration": 0.02994791666662877
                },
                {
                    "name": "E5",
                    "midi": 76,
                    "time": 602.9687499999999,
                    "velocity": 0.5905511811023622,
                    "duration": 0.02994791666662877
                },
                {
                    "name": "E4",
                    "midi": 64,
                    "time": 603.1249999999999,
                    "velocity": 0.5905511811023622,
                    "duration": 0.06119791666662877
                },
                {
                    "name": "E5",
                    "midi": 76,
                    "time": 603.1249999999999,
                    "velocity": 0.5905511811023622,
                    "duration": 0.06119791666662877
                },
                {
                    "name": "B4",
                    "midi": 71,
                    "time": 603.4374999999999,
                    "velocity": 0.7952755905511811,
                    "duration": 0.06119791666662877
                },
                {
                    "name": "B5",
                    "midi": 83,
                    "time": 603.4374999999999,
                    "velocity": 0.7952755905511811,
                    "duration": 0.06119791666662877
                },
                {
                    "name": "E4",
                    "midi": 64,
                    "time": 603.7499999999999,
                    "velocity": 0.7952755905511811,
                    "duration": 0.3125
                },
                {
                    "name": "E5",
                    "midi": 76,
                    "time": 603.7499999999999,
                    "velocity": 0.7952755905511811,
                    "duration": 0.3125
                },
                {
                    "name": "E4",
                    "midi": 64,
                    "time": 604.0624999999999,
                    "velocity": 0.5905511811023622,
                    "duration": 0.02994791666662877
                },
                {
                    "name": "E5",
                    "midi": 76,
                    "time": 604.0624999999999,
                    "velocity": 0.5905511811023622,
                    "duration": 0.02994791666662877
                },
                {
                    "name": "E4",
                    "midi": 64,
                    "time": 604.2187499999999,
                    "velocity": 0.5905511811023622,
                    "duration": 0.02994791666662877
                },
                {
                    "name": "E5",
                    "midi": 76,
                    "time": 604.2187499999999,
                    "velocity": 0.5905511811023622,
                    "duration": 0.02994791666662877
                },
                {
                    "name": "E4",
                    "midi": 64,
                    "time": 604.3749999999999,
                    "velocity": 0.5905511811023622,
                    "duration": 0.02994791666662877
                },
                {
                    "name": "E5",
                    "midi": 76,
                    "time": 604.3749999999999,
                    "velocity": 0.5905511811023622,
                    "duration": 0.02994791666662877
                },
                {
                    "name": "E4",
                    "midi": 64,
                    "time": 604.5312499999999,
                    "velocity": 0.5905511811023622,
                    "duration": 0.02994791666662877
                },
                {
                    "name": "E5",
                    "midi": 76,
                    "time": 604.5312499999999,
                    "velocity": 0.5905511811023622,
                    "duration": 0.02994791666662877
                },
                {
                    "name": "E4",
                    "midi": 64,
                    "time": 604.6874999999999,
                    "velocity": 0.5905511811023622,
                    "duration": 0.02994791666662877
                },
                {
                    "name": "E5",
                    "midi": 76,
                    "time": 604.6874999999999,
                    "velocity": 0.5905511811023622,
                    "duration": 0.02994791666662877
                },
                {
                    "name": "E4",
                    "midi": 64,
                    "time": 604.8437499999999,
                    "velocity": 0.5905511811023622,
                    "duration": 0.02994791666662877
                },
                {
                    "name": "E5",
                    "midi": 76,
                    "time": 604.8437499999999,
                    "velocity": 0.5905511811023622,
                    "duration": 0.02994791666662877
                },
                {
                    "name": "E4",
                    "midi": 64,
                    "time": 604.9999999999999,
                    "velocity": 0.5905511811023622,
                    "duration": 0.02994791666662877
                },
                {
                    "name": "E5",
                    "midi": 76,
                    "time": 604.9999999999999,
                    "velocity": 0.5905511811023622,
                    "duration": 0.02994791666662877
                },
                {
                    "name": "E4",
                    "midi": 64,
                    "time": 605.1562499999999,
                    "velocity": 0.5905511811023622,
                    "duration": 0.02994791666662877
                },
                {
                    "name": "E5",
                    "midi": 76,
                    "time": 605.1562499999999,
                    "velocity": 0.5905511811023622,
                    "duration": 0.02994791666662877
                },
                {
                    "name": "E4",
                    "midi": 64,
                    "time": 605.3124999999999,
                    "velocity": 0.5905511811023622,
                    "duration": 0.02994791666662877
                },
                {
                    "name": "E5",
                    "midi": 76,
                    "time": 605.3124999999999,
                    "velocity": 0.5905511811023622,
                    "duration": 0.02994791666662877
                },
                {
                    "name": "E4",
                    "midi": 64,
                    "time": 605.4687499999999,
                    "velocity": 0.5905511811023622,
                    "duration": 0.02994791666662877
                },
                {
                    "name": "E5",
                    "midi": 76,
                    "time": 605.4687499999999,
                    "velocity": 0.5905511811023622,
                    "duration": 0.02994791666662877
                },
                {
                    "name": "E4",
                    "midi": 64,
                    "time": 605.6249999999999,
                    "velocity": 0.5905511811023622,
                    "duration": 0.06119791666662877
                },
                {
                    "name": "E5",
                    "midi": 76,
                    "time": 605.6249999999999,
                    "velocity": 0.5905511811023622,
                    "duration": 0.06119791666662877
                },
                {
                    "name": "B4",
                    "midi": 71,
                    "time": 605.9374999999999,
                    "velocity": 0.7952755905511811,
                    "duration": 0.06119791666662877
                },
                {
                    "name": "B5",
                    "midi": 83,
                    "time": 605.9374999999999,
                    "velocity": 0.7952755905511811,
                    "duration": 0.06119791666662877
                },
                {
                    "name": "B4",
                    "midi": 71,
                    "time": 606.2499999999999,
                    "velocity": 0.5905511811023622,
                    "duration": 0.02994791666662877
                },
                {
                    "name": "E5",
                    "midi": 76,
                    "time": 606.2499999999999,
                    "velocity": 0.5905511811023622,
                    "duration": 0.02994791666662877
                },
                {
                    "name": "B4",
                    "midi": 71,
                    "time": 606.4062499999999,
                    "velocity": 0.5905511811023622,
                    "duration": 0.02994791666662877
                },
                {
                    "name": "E5",
                    "midi": 76,
                    "time": 606.4062499999999,
                    "velocity": 0.5905511811023622,
                    "duration": 0.02994791666662877
                },
                {
                    "name": "B4",
                    "midi": 71,
                    "time": 606.5624999999999,
                    "velocity": 0.5905511811023622,
                    "duration": 0.02994791666662877
                },
                {
                    "name": "E5",
                    "midi": 76,
                    "time": 606.5624999999999,
                    "velocity": 0.5905511811023622,
                    "duration": 0.02994791666662877
                },
                {
                    "name": "E5",
                    "midi": 76,
                    "time": 606.7187499999999,
                    "velocity": 0.7952755905511811,
                    "duration": 0.15625
                },
                {
                    "name": "B5",
                    "midi": 83,
                    "time": 606.7187499999999,
                    "velocity": 0.7952755905511811,
                    "duration": 0.15625
                },
                {
                    "name": "B4",
                    "midi": 71,
                    "time": 606.8749999999999,
                    "velocity": 0.5905511811023622,
                    "duration": 0.02994791666662877
                },
                {
                    "name": "E5",
                    "midi": 76,
                    "time": 606.8749999999999,
                    "velocity": 0.5905511811023622,
                    "duration": 0.02994791666662877
                },
                {
                    "name": "B4",
                    "midi": 71,
                    "time": 607.0312499999999,
                    "velocity": 0.5905511811023622,
                    "duration": 0.02994791666662877
                },
                {
                    "name": "E5",
                    "midi": 76,
                    "time": 607.0312499999999,
                    "velocity": 0.5905511811023622,
                    "duration": 0.02994791666662877
                },
                {
                    "name": "B4",
                    "midi": 71,
                    "time": 607.1874999999999,
                    "velocity": 0.5905511811023622,
                    "duration": 0.02994791666662877
                },
                {
                    "name": "E5",
                    "midi": 76,
                    "time": 607.1874999999999,
                    "velocity": 0.5905511811023622,
                    "duration": 0.02994791666662877
                },
                {
                    "name": "E5",
                    "midi": 76,
                    "time": 607.3437499999999,
                    "velocity": 0.7952755905511811,
                    "duration": 0.15625
                },
                {
                    "name": "B5",
                    "midi": 83,
                    "time": 607.3437499999999,
                    "velocity": 0.7952755905511811,
                    "duration": 0.15625
                },
                {
                    "name": "B4",
                    "midi": 71,
                    "time": 607.4999999999999,
                    "velocity": 0.5905511811023622,
                    "duration": 0.02994791666662877
                },
                {
                    "name": "E5",
                    "midi": 76,
                    "time": 607.4999999999999,
                    "velocity": 0.5905511811023622,
                    "duration": 0.02994791666662877
                },
                {
                    "name": "B4",
                    "midi": 71,
                    "time": 607.6562499999999,
                    "velocity": 0.5905511811023622,
                    "duration": 0.02994791666662877
                },
                {
                    "name": "E5",
                    "midi": 76,
                    "time": 607.6562499999999,
                    "velocity": 0.5905511811023622,
                    "duration": 0.02994791666662877
                },
                {
                    "name": "B4",
                    "midi": 71,
                    "time": 607.8124999999999,
                    "velocity": 0.5905511811023622,
                    "duration": 0.02994791666662877
                },
                {
                    "name": "E5",
                    "midi": 76,
                    "time": 607.8124999999999,
                    "velocity": 0.5905511811023622,
                    "duration": 0.02994791666662877
                },
                {
                    "name": "B4",
                    "midi": 71,
                    "time": 607.9687499999999,
                    "velocity": 0.7952755905511811,
                    "duration": 0.15625
                },
                {
                    "name": "E5",
                    "midi": 76,
                    "time": 607.9687499999999,
                    "velocity": 0.7952755905511811,
                    "duration": 0.15625
                },
                {
                    "name": "B5",
                    "midi": 83,
                    "time": 607.9687499999999,
                    "velocity": 0.7952755905511811,
                    "duration": 0.15625
                },
                {
                    "name": "E5",
                    "midi": 76,
                    "time": 608.1249999999999,
                    "velocity": 0.5905511811023622,
                    "duration": 0.02994791666662877
                },
                {
                    "name": "B5",
                    "midi": 83,
                    "time": 608.1249999999999,
                    "velocity": 0.5905511811023622,
                    "duration": 0.02994791666662877
                },
                {
                    "name": "E5",
                    "midi": 76,
                    "time": 608.2812499999999,
                    "velocity": 0.5905511811023622,
                    "duration": 0.02994791666662877
                },
                {
                    "name": "B5",
                    "midi": 83,
                    "time": 608.2812499999999,
                    "velocity": 0.5905511811023622,
                    "duration": 0.02994791666662877
                },
                {
                    "name": "E5",
                    "midi": 76,
                    "time": 608.4374999999999,
                    "velocity": 0.5905511811023622,
                    "duration": 0.02994791666662877
                },
                {
                    "name": "B5",
                    "midi": 83,
                    "time": 608.4374999999999,
                    "velocity": 0.5905511811023622,
                    "duration": 0.02994791666662877
                },
                {
                    "name": "B5",
                    "midi": 83,
                    "time": 608.5937499999999,
                    "velocity": 0.7952755905511811,
                    "duration": 0.15625
                },
                {
                    "name": "E6",
                    "midi": 88,
                    "time": 608.5937499999999,
                    "velocity": 0.7952755905511811,
                    "duration": 0.15625
                },
                {
                    "name": "E5",
                    "midi": 76,
                    "time": 608.7499999999999,
                    "velocity": 0.5905511811023622,
                    "duration": 0.02994791666662877
                },
                {
                    "name": "B5",
                    "midi": 83,
                    "time": 608.7499999999999,
                    "velocity": 0.5905511811023622,
                    "duration": 0.02994791666662877
                },
                {
                    "name": "E5",
                    "midi": 76,
                    "time": 608.9062499999999,
                    "velocity": 0.5905511811023622,
                    "duration": 0.02994791666662877
                },
                {
                    "name": "B5",
                    "midi": 83,
                    "time": 608.9062499999999,
                    "velocity": 0.5905511811023622,
                    "duration": 0.02994791666662877
                },
                {
                    "name": "E5",
                    "midi": 76,
                    "time": 609.0624999999999,
                    "velocity": 0.5905511811023622,
                    "duration": 0.02994791666662877
                },
                {
                    "name": "B5",
                    "midi": 83,
                    "time": 609.0624999999999,
                    "velocity": 0.5905511811023622,
                    "duration": 0.02994791666662877
                },
                {
                    "name": "B5",
                    "midi": 83,
                    "time": 609.2187499999999,
                    "velocity": 0.7952755905511811,
                    "duration": 0.15625
                },
                {
                    "name": "E6",
                    "midi": 88,
                    "time": 609.2187499999999,
                    "velocity": 0.7952755905511811,
                    "duration": 0.15625
                },
                {
                    "name": "E5",
                    "midi": 76,
                    "time": 609.3749999999999,
                    "velocity": 0.5905511811023622,
                    "duration": 0.02994791666662877
                },
                {
                    "name": "B5",
                    "midi": 83,
                    "time": 609.3749999999999,
                    "velocity": 0.5905511811023622,
                    "duration": 0.02994791666662877
                },
                {
                    "name": "E5",
                    "midi": 76,
                    "time": 609.5312499999999,
                    "velocity": 0.5905511811023622,
                    "duration": 0.02994791666662877
                },
                {
                    "name": "B5",
                    "midi": 83,
                    "time": 609.5312499999999,
                    "velocity": 0.5905511811023622,
                    "duration": 0.02994791666662877
                },
                {
                    "name": "E5",
                    "midi": 76,
                    "time": 609.6874999999999,
                    "velocity": 0.5905511811023622,
                    "duration": 0.02994791666662877
                },
                {
                    "name": "B5",
                    "midi": 83,
                    "time": 609.6874999999999,
                    "velocity": 0.5905511811023622,
                    "duration": 0.02994791666662877
                },
                {
                    "name": "B5",
                    "midi": 83,
                    "time": 609.8437499999999,
                    "velocity": 0.7952755905511811,
                    "duration": 0.15625
                },
                {
                    "name": "E6",
                    "midi": 88,
                    "time": 609.8437499999999,
                    "velocity": 0.7952755905511811,
                    "duration": 0.15625
                },
                {
                    "name": "B4",
                    "midi": 71,
                    "time": 609.9999999999999,
                    "velocity": 0.5905511811023622,
                    "duration": 0.02994791666662877
                },
                {
                    "name": "E5",
                    "midi": 76,
                    "time": 609.9999999999999,
                    "velocity": 0.5905511811023622,
                    "duration": 0.02994791666662877
                },
                {
                    "name": "B4",
                    "midi": 71,
                    "time": 610.1562499999999,
                    "velocity": 0.5905511811023622,
                    "duration": 0.02994791666662877
                },
                {
                    "name": "E5",
                    "midi": 76,
                    "time": 610.1562499999999,
                    "velocity": 0.5905511811023622,
                    "duration": 0.02994791666662877
                },
                {
                    "name": "B4",
                    "midi": 71,
                    "time": 610.3124999999999,
                    "velocity": 0.5905511811023622,
                    "duration": 0.02994791666662877
                },
                {
                    "name": "E5",
                    "midi": 76,
                    "time": 610.3124999999999,
                    "velocity": 0.5905511811023622,
                    "duration": 0.02994791666662877
                },
                {
                    "name": "E5",
                    "midi": 76,
                    "time": 610.4687499999999,
                    "velocity": 0.7952755905511811,
                    "duration": 0.15625
                },
                {
                    "name": "B5",
                    "midi": 83,
                    "time": 610.4687499999999,
                    "velocity": 0.7952755905511811,
                    "duration": 0.15625
                },
                {
                    "name": "B4",
                    "midi": 71,
                    "time": 610.6249999999999,
                    "velocity": 0.5905511811023622,
                    "duration": 0.02994791666662877
                },
                {
                    "name": "E5",
                    "midi": 76,
                    "time": 610.6249999999999,
                    "velocity": 0.5905511811023622,
                    "duration": 0.02994791666662877
                },
                {
                    "name": "B4",
                    "midi": 71,
                    "time": 610.7812499999999,
                    "velocity": 0.5905511811023622,
                    "duration": 0.02994791666662877
                },
                {
                    "name": "E5",
                    "midi": 76,
                    "time": 610.7812499999999,
                    "velocity": 0.5905511811023622,
                    "duration": 0.02994791666662877
                },
                {
                    "name": "B4",
                    "midi": 71,
                    "time": 610.9374999999999,
                    "velocity": 0.5905511811023622,
                    "duration": 0.02994791666662877
                },
                {
                    "name": "E5",
                    "midi": 76,
                    "time": 610.9374999999999,
                    "velocity": 0.5905511811023622,
                    "duration": 0.02994791666662877
                },
                {
                    "name": "E5",
                    "midi": 76,
                    "time": 611.0937499999999,
                    "velocity": 0.7952755905511811,
                    "duration": 0.15625
                },
                {
                    "name": "B5",
                    "midi": 83,
                    "time": 611.0937499999999,
                    "velocity": 0.7952755905511811,
                    "duration": 0.15625
                },
                {
                    "name": "B4",
                    "midi": 71,
                    "time": 611.2499999999999,
                    "velocity": 0.5905511811023622,
                    "duration": 0.02994791666662877
                },
                {
                    "name": "E5",
                    "midi": 76,
                    "time": 611.2499999999999,
                    "velocity": 0.5905511811023622,
                    "duration": 0.02994791666662877
                },
                {
                    "name": "B4",
                    "midi": 71,
                    "time": 611.4062499999999,
                    "velocity": 0.5905511811023622,
                    "duration": 0.02994791666662877
                },
                {
                    "name": "E5",
                    "midi": 76,
                    "time": 611.4062499999999,
                    "velocity": 0.5905511811023622,
                    "duration": 0.02994791666662877
                },
                {
                    "name": "B4",
                    "midi": 71,
                    "time": 611.5624999999999,
                    "velocity": 0.5905511811023622,
                    "duration": 0.02994791666662877
                },
                {
                    "name": "E5",
                    "midi": 76,
                    "time": 611.5624999999999,
                    "velocity": 0.5905511811023622,
                    "duration": 0.02994791666662877
                },
                {
                    "name": "E5",
                    "midi": 76,
                    "time": 611.7187499999999,
                    "velocity": 0.7952755905511811,
                    "duration": 0.15625
                },
                {
                    "name": "B5",
                    "midi": 83,
                    "time": 611.7187499999999,
                    "velocity": 0.7952755905511811,
                    "duration": 0.15625
                },
                {
                    "name": "E4",
                    "midi": 64,
                    "time": 611.8749999999999,
                    "velocity": 0.5905511811023622,
                    "duration": 0.02994791666662877
                },
                {
                    "name": "B4",
                    "midi": 71,
                    "time": 611.8749999999999,
                    "velocity": 0.5905511811023622,
                    "duration": 0.02994791666662877
                },
                {
                    "name": "E4",
                    "midi": 64,
                    "time": 612.0312499999999,
                    "velocity": 0.5905511811023622,
                    "duration": 0.02994791666662877
                },
                {
                    "name": "B4",
                    "midi": 71,
                    "time": 612.0312499999999,
                    "velocity": 0.5905511811023622,
                    "duration": 0.02994791666662877
                },
                {
                    "name": "E4",
                    "midi": 64,
                    "time": 612.1874999999999,
                    "velocity": 0.5905511811023622,
                    "duration": 0.02994791666662877
                },
                {
                    "name": "B4",
                    "midi": 71,
                    "time": 612.1874999999999,
                    "velocity": 0.5905511811023622,
                    "duration": 0.02994791666662877
                },
                {
                    "name": "B4",
                    "midi": 71,
                    "time": 612.3437499999999,
                    "velocity": 0.7952755905511811,
                    "duration": 0.15625
                },
                {
                    "name": "E5",
                    "midi": 76,
                    "time": 612.3437499999999,
                    "velocity": 0.7952755905511811,
                    "duration": 0.15625
                },
                {
                    "name": "E4",
                    "midi": 64,
                    "time": 612.4999999999999,
                    "velocity": 0.5905511811023622,
                    "duration": 0.02994791666662877
                },
                {
                    "name": "B4",
                    "midi": 71,
                    "time": 612.4999999999999,
                    "velocity": 0.5905511811023622,
                    "duration": 0.02994791666662877
                },
                {
                    "name": "E4",
                    "midi": 64,
                    "time": 612.6562499999999,
                    "velocity": 0.5905511811023622,
                    "duration": 0.02994791666662877
                },
                {
                    "name": "B4",
                    "midi": 71,
                    "time": 612.6562499999999,
                    "velocity": 0.5905511811023622,
                    "duration": 0.02994791666662877
                },
                {
                    "name": "E4",
                    "midi": 64,
                    "time": 612.8124999999999,
                    "velocity": 0.5905511811023622,
                    "duration": 0.02994791666662877
                },
                {
                    "name": "B4",
                    "midi": 71,
                    "time": 612.8124999999999,
                    "velocity": 0.5905511811023622,
                    "duration": 0.02994791666662877
                },
                {
                    "name": "B4",
                    "midi": 71,
                    "time": 612.9687499999999,
                    "velocity": 0.7952755905511811,
                    "duration": 0.15625
                },
                {
                    "name": "E5",
                    "midi": 76,
                    "time": 612.9687499999999,
                    "velocity": 0.7952755905511811,
                    "duration": 0.15625
                },
                {
                    "name": "E4",
                    "midi": 64,
                    "time": 613.1249999999999,
                    "velocity": 0.5905511811023622,
                    "duration": 0.02994791666662877
                },
                {
                    "name": "B4",
                    "midi": 71,
                    "time": 613.1249999999999,
                    "velocity": 0.5905511811023622,
                    "duration": 0.02994791666662877
                },
                {
                    "name": "E4",
                    "midi": 64,
                    "time": 613.2812499999999,
                    "velocity": 0.5905511811023622,
                    "duration": 0.02994791666662877
                },
                {
                    "name": "B4",
                    "midi": 71,
                    "time": 613.2812499999999,
                    "velocity": 0.5905511811023622,
                    "duration": 0.02994791666662877
                },
                {
                    "name": "E4",
                    "midi": 64,
                    "time": 613.4374999999999,
                    "velocity": 0.5905511811023622,
                    "duration": 0.02994791666662877
                },
                {
                    "name": "B4",
                    "midi": 71,
                    "time": 613.4374999999999,
                    "velocity": 0.5905511811023622,
                    "duration": 0.02994791666662877
                },
                {
                    "name": "B4",
                    "midi": 71,
                    "time": 613.5937499999999,
                    "velocity": 0.7952755905511811,
                    "duration": 0.15625
                },
                {
                    "name": "E5",
                    "midi": 76,
                    "time": 613.5937499999999,
                    "velocity": 0.7952755905511811,
                    "duration": 0.15625
                },
                {
                    "name": "B4",
                    "midi": 71,
                    "time": 613.7499999999999,
                    "velocity": 0.3858267716535433,
                    "duration": 0.625
                },
                {
                    "name": "D5",
                    "midi": 74,
                    "time": 613.7499999999999,
                    "velocity": 0.3858267716535433,
                    "duration": 0.625
                },
                {
                    "name": "F#5",
                    "midi": 78,
                    "time": 613.7499999999999,
                    "velocity": 0.3858267716535433,
                    "duration": 0.625
                },
                {
                    "name": "C#5",
                    "midi": 73,
                    "time": 614.3749999999999,
                    "velocity": 0.3858267716535433,
                    "duration": 0.625
                },
                {
                    "name": "E5",
                    "midi": 76,
                    "time": 614.3749999999999,
                    "velocity": 0.3858267716535433,
                    "duration": 0.625
                },
                {
                    "name": "G#5",
                    "midi": 80,
                    "time": 614.3749999999999,
                    "velocity": 0.3858267716535433,
                    "duration": 0.625
                },
                {
                    "name": "B4",
                    "midi": 71,
                    "time": 614.9999999999999,
                    "velocity": 0.3858267716535433,
                    "duration": 0.625
                },
                {
                    "name": "D5",
                    "midi": 74,
                    "time": 614.9999999999999,
                    "velocity": 0.3858267716535433,
                    "duration": 0.625
                },
                {
                    "name": "F#5",
                    "midi": 78,
                    "time": 614.9999999999999,
                    "velocity": 0.3858267716535433,
                    "duration": 0.625
                },
                {
                    "name": "C#5",
                    "midi": 73,
                    "time": 615.6249999999999,
                    "velocity": 0.3858267716535433,
                    "duration": 0.625
                },
                {
                    "name": "E5",
                    "midi": 76,
                    "time": 615.6249999999999,
                    "velocity": 0.3858267716535433,
                    "duration": 0.625
                },
                {
                    "name": "G#5",
                    "midi": 80,
                    "time": 615.6249999999999,
                    "velocity": 0.3858267716535433,
                    "duration": 0.625
                },
                {
                    "name": "B4",
                    "midi": 71,
                    "time": 616.2499999999999,
                    "velocity": 0.3858267716535433,
                    "duration": 0.625
                },
                {
                    "name": "D5",
                    "midi": 74,
                    "time": 616.2499999999999,
                    "velocity": 0.3858267716535433,
                    "duration": 0.625
                },
                {
                    "name": "F#5",
                    "midi": 78,
                    "time": 616.2499999999999,
                    "velocity": 0.3858267716535433,
                    "duration": 0.625
                },
                {
                    "name": "C#5",
                    "midi": 73,
                    "time": 616.8749999999999,
                    "velocity": 0.3858267716535433,
                    "duration": 0.625
                },
                {
                    "name": "E5",
                    "midi": 76,
                    "time": 616.8749999999999,
                    "velocity": 0.3858267716535433,
                    "duration": 0.625
                },
                {
                    "name": "G#5",
                    "midi": 80,
                    "time": 616.8749999999999,
                    "velocity": 0.3858267716535433,
                    "duration": 0.625
                },
                {
                    "name": "B4",
                    "midi": 71,
                    "time": 617.8124999999999,
                    "velocity": 0.3858267716535433,
                    "duration": 0.3125
                },
                {
                    "name": "D5",
                    "midi": 74,
                    "time": 617.8124999999999,
                    "velocity": 0.3858267716535433,
                    "duration": 0.3125
                },
                {
                    "name": "F#5",
                    "midi": 78,
                    "time": 617.8124999999999,
                    "velocity": 0.3858267716535433,
                    "duration": 0.3125
                },
                {
                    "name": "A4",
                    "midi": 69,
                    "time": 618.1249999999999,
                    "velocity": 0.3858267716535433,
                    "duration": 0.3125
                },
                {
                    "name": "C#5",
                    "midi": 73,
                    "time": 618.1249999999999,
                    "velocity": 0.3858267716535433,
                    "duration": 0.3125
                },
                {
                    "name": "E5",
                    "midi": 76,
                    "time": 618.1249999999999,
                    "velocity": 0.3858267716535433,
                    "duration": 0.3125
                },
                {
                    "name": "G#4",
                    "midi": 68,
                    "time": 618.4374999999999,
                    "velocity": 0.3858267716535433,
                    "duration": 0.3125
                },
                {
                    "name": "B4",
                    "midi": 71,
                    "time": 618.4374999999999,
                    "velocity": 0.3858267716535433,
                    "duration": 0.3125
                },
                {
                    "name": "D5",
                    "midi": 74,
                    "time": 618.4374999999999,
                    "velocity": 0.3858267716535433,
                    "duration": 0.3125
                },
                {
                    "name": "F#4",
                    "midi": 66,
                    "time": 618.7499999999999,
                    "velocity": 0.3858267716535433,
                    "duration": 0.3125
                },
                {
                    "name": "A4",
                    "midi": 69,
                    "time": 618.7499999999999,
                    "velocity": 0.3858267716535433,
                    "duration": 0.3125
                },
                {
                    "name": "C#5",
                    "midi": 73,
                    "time": 618.7499999999999,
                    "velocity": 0.3858267716535433,
                    "duration": 0.3125
                },
                {
                    "name": "E4",
                    "midi": 64,
                    "time": 619.0624999999999,
                    "velocity": 0.3858267716535433,
                    "duration": 0.3125
                },
                {
                    "name": "G#4",
                    "midi": 68,
                    "time": 619.0624999999999,
                    "velocity": 0.3858267716535433,
                    "duration": 0.3125
                },
                {
                    "name": "B4",
                    "midi": 71,
                    "time": 619.0624999999999,
                    "velocity": 0.3858267716535433,
                    "duration": 0.3125
                },
                {
                    "name": "D4",
                    "midi": 62,
                    "time": 619.3749999999999,
                    "velocity": 0.3858267716535433,
                    "duration": 0.3125
                },
                {
                    "name": "F#4",
                    "midi": 66,
                    "time": 619.3749999999999,
                    "velocity": 0.3858267716535433,
                    "duration": 0.3125
                },
                {
                    "name": "A4",
                    "midi": 69,
                    "time": 619.3749999999999,
                    "velocity": 0.3858267716535433,
                    "duration": 0.3125
                },
                {
                    "name": "C#4",
                    "midi": 61,
                    "time": 619.6874999999999,
                    "velocity": 0.3858267716535433,
                    "duration": 0.3125
                },
                {
                    "name": "E4",
                    "midi": 64,
                    "time": 619.6874999999999,
                    "velocity": 0.3858267716535433,
                    "duration": 0.3125
                },
                {
                    "name": "G#4",
                    "midi": 68,
                    "time": 619.6874999999999,
                    "velocity": 0.3858267716535433,
                    "duration": 0.3125
                },
                {
                    "name": "G#3",
                    "midi": 56,
                    "time": 619.9999999999999,
                    "velocity": 0.5905511811023622,
                    "duration": 0.625
                },
                {
                    "name": "B3",
                    "midi": 59,
                    "time": 619.9999999999999,
                    "velocity": 0.5905511811023622,
                    "duration": 0.625
                },
                {
                    "name": "D4",
                    "midi": 62,
                    "time": 619.9999999999999,
                    "velocity": 0.5905511811023622,
                    "duration": 0.625
                },
                {
                    "name": "F#4",
                    "midi": 66,
                    "time": 619.9999999999999,
                    "velocity": 0.5905511811023622,
                    "duration": 0.625
                },
                {
                    "name": "A3",
                    "midi": 57,
                    "time": 620.6249999999999,
                    "velocity": 0.5905511811023622,
                    "duration": 0.625
                },
                {
                    "name": "C#4",
                    "midi": 61,
                    "time": 620.6249999999999,
                    "velocity": 0.5905511811023622,
                    "duration": 0.625
                },
                {
                    "name": "E4",
                    "midi": 64,
                    "time": 620.6249999999999,
                    "velocity": 0.5905511811023622,
                    "duration": 0.625
                },
                {
                    "name": "G#4",
                    "midi": 68,
                    "time": 620.6249999999999,
                    "velocity": 0.5905511811023622,
                    "duration": 0.625
                },
                {
                    "name": "G#3",
                    "midi": 56,
                    "time": 621.2499999999999,
                    "velocity": 0.5905511811023622,
                    "duration": 0.625
                },
                {
                    "name": "B3",
                    "midi": 59,
                    "time": 621.2499999999999,
                    "velocity": 0.5905511811023622,
                    "duration": 0.625
                },
                {
                    "name": "D4",
                    "midi": 62,
                    "time": 621.2499999999999,
                    "velocity": 0.5905511811023622,
                    "duration": 0.625
                },
                {
                    "name": "F#4",
                    "midi": 66,
                    "time": 621.2499999999999,
                    "velocity": 0.5905511811023622,
                    "duration": 0.625
                },
                {
                    "name": "A3",
                    "midi": 57,
                    "time": 621.8749999999999,
                    "velocity": 0.5905511811023622,
                    "duration": 0.625
                },
                {
                    "name": "C#4",
                    "midi": 61,
                    "time": 621.8749999999999,
                    "velocity": 0.5905511811023622,
                    "duration": 0.625
                },
                {
                    "name": "E4",
                    "midi": 64,
                    "time": 621.8749999999999,
                    "velocity": 0.5905511811023622,
                    "duration": 0.625
                },
                {
                    "name": "G#4",
                    "midi": 68,
                    "time": 621.8749999999999,
                    "velocity": 0.5905511811023622,
                    "duration": 0.625
                },
                {
                    "name": "G#3",
                    "midi": 56,
                    "time": 622.4999999999999,
                    "velocity": 0.5905511811023622,
                    "duration": 0.625
                },
                {
                    "name": "B3",
                    "midi": 59,
                    "time": 622.4999999999999,
                    "velocity": 0.5905511811023622,
                    "duration": 0.625
                },
                {
                    "name": "D4",
                    "midi": 62,
                    "time": 622.4999999999999,
                    "velocity": 0.5905511811023622,
                    "duration": 0.625
                },
                {
                    "name": "F#4",
                    "midi": 66,
                    "time": 622.4999999999999,
                    "velocity": 0.5905511811023622,
                    "duration": 0.625
                },
                {
                    "name": "A3",
                    "midi": 57,
                    "time": 623.1249999999999,
                    "velocity": 0.5905511811023622,
                    "duration": 0.625
                },
                {
                    "name": "C#4",
                    "midi": 61,
                    "time": 623.1249999999999,
                    "velocity": 0.5905511811023622,
                    "duration": 0.625
                },
                {
                    "name": "E4",
                    "midi": 64,
                    "time": 623.1249999999999,
                    "velocity": 0.5905511811023622,
                    "duration": 0.625
                },
                {
                    "name": "G#4",
                    "midi": 68,
                    "time": 623.1249999999999,
                    "velocity": 0.5905511811023622,
                    "duration": 0.625
                },
                {
                    "name": "G#3",
                    "midi": 56,
                    "time": 623.7499999999999,
                    "velocity": 0.5905511811023622,
                    "duration": 0.625
                },
                {
                    "name": "B3",
                    "midi": 59,
                    "time": 623.7499999999999,
                    "velocity": 0.5905511811023622,
                    "duration": 0.625
                },
                {
                    "name": "D4",
                    "midi": 62,
                    "time": 623.7499999999999,
                    "velocity": 0.5905511811023622,
                    "duration": 0.625
                },
                {
                    "name": "F#4",
                    "midi": 66,
                    "time": 623.7499999999999,
                    "velocity": 0.5905511811023622,
                    "duration": 0.625
                },
                {
                    "name": "A3",
                    "midi": 57,
                    "time": 624.3749999999999,
                    "velocity": 0.5905511811023622,
                    "duration": 0.625
                },
                {
                    "name": "C#4",
                    "midi": 61,
                    "time": 624.3749999999999,
                    "velocity": 0.5905511811023622,
                    "duration": 0.625
                },
                {
                    "name": "E4",
                    "midi": 64,
                    "time": 624.3749999999999,
                    "velocity": 0.5905511811023622,
                    "duration": 0.625
                },
                {
                    "name": "G#4",
                    "midi": 68,
                    "time": 624.3749999999999,
                    "velocity": 0.5905511811023622,
                    "duration": 0.625
                },
                {
                    "name": "G#3",
                    "midi": 56,
                    "time": 624.9999999999999,
                    "velocity": 0.5905511811023622,
                    "duration": 0.625
                },
                {
                    "name": "B3",
                    "midi": 59,
                    "time": 624.9999999999999,
                    "velocity": 0.5905511811023622,
                    "duration": 0.625
                },
                {
                    "name": "D4",
                    "midi": 62,
                    "time": 624.9999999999999,
                    "velocity": 0.5905511811023622,
                    "duration": 0.625
                },
                {
                    "name": "F#4",
                    "midi": 66,
                    "time": 624.9999999999999,
                    "velocity": 0.5905511811023622,
                    "duration": 0.625
                },
                {
                    "name": "A3",
                    "midi": 57,
                    "time": 625.6249999999999,
                    "velocity": 0.5905511811023622,
                    "duration": 0.625
                },
                {
                    "name": "C#4",
                    "midi": 61,
                    "time": 625.6249999999999,
                    "velocity": 0.5905511811023622,
                    "duration": 0.625
                },
                {
                    "name": "E4",
                    "midi": 64,
                    "time": 625.6249999999999,
                    "velocity": 0.5905511811023622,
                    "duration": 0.625
                },
                {
                    "name": "G#4",
                    "midi": 68,
                    "time": 625.6249999999999,
                    "velocity": 0.5905511811023622,
                    "duration": 0.625
                },
                {
                    "name": "E3",
                    "midi": 52,
                    "time": 626.2499999999999,
                    "velocity": 0.5905511811023622,
                    "duration": 0.625
                },
                {
                    "name": "G3",
                    "midi": 55,
                    "time": 626.2499999999999,
                    "velocity": 0.5905511811023622,
                    "duration": 0.625
                },
                {
                    "name": "A#3",
                    "midi": 58,
                    "time": 626.2499999999999,
                    "velocity": 0.5905511811023622,
                    "duration": 0.625
                },
                {
                    "name": "D4",
                    "midi": 62,
                    "time": 626.2499999999999,
                    "velocity": 0.5905511811023622,
                    "duration": 0.625
                },
                {
                    "name": "F3",
                    "midi": 53,
                    "time": 626.8749999999999,
                    "velocity": 0.5905511811023622,
                    "duration": 0.625
                },
                {
                    "name": "A3",
                    "midi": 57,
                    "time": 626.8749999999999,
                    "velocity": 0.5905511811023622,
                    "duration": 0.625
                },
                {
                    "name": "C4",
                    "midi": 60,
                    "time": 626.8749999999999,
                    "velocity": 0.5905511811023622,
                    "duration": 0.625
                },
                {
                    "name": "E4",
                    "midi": 64,
                    "time": 626.8749999999999,
                    "velocity": 0.5905511811023622,
                    "duration": 0.625
                },
                {
                    "name": "E3",
                    "midi": 52,
                    "time": 627.4999999999999,
                    "velocity": 0.5905511811023622,
                    "duration": 0.625
                },
                {
                    "name": "G3",
                    "midi": 55,
                    "time": 627.4999999999999,
                    "velocity": 0.5905511811023622,
                    "duration": 0.625
                },
                {
                    "name": "A#3",
                    "midi": 58,
                    "time": 627.4999999999999,
                    "velocity": 0.5905511811023622,
                    "duration": 0.625
                },
                {
                    "name": "D4",
                    "midi": 62,
                    "time": 627.4999999999999,
                    "velocity": 0.5905511811023622,
                    "duration": 0.625
                },
                {
                    "name": "F3",
                    "midi": 53,
                    "time": 628.1249999999999,
                    "velocity": 0.5905511811023622,
                    "duration": 0.625
                },
                {
                    "name": "A3",
                    "midi": 57,
                    "time": 628.1249999999999,
                    "velocity": 0.5905511811023622,
                    "duration": 0.625
                },
                {
                    "name": "C4",
                    "midi": 60,
                    "time": 628.1249999999999,
                    "velocity": 0.5905511811023622,
                    "duration": 0.625
                },
                {
                    "name": "E4",
                    "midi": 64,
                    "time": 628.1249999999999,
                    "velocity": 0.5905511811023622,
                    "duration": 0.625
                },
                {
                    "name": "G#3",
                    "midi": 56,
                    "time": 628.7499999999999,
                    "velocity": 0.3858267716535433,
                    "duration": 0.625
                },
                {
                    "name": "B3",
                    "midi": 59,
                    "time": 628.7499999999999,
                    "velocity": 0.3858267716535433,
                    "duration": 0.625
                },
                {
                    "name": "D4",
                    "midi": 62,
                    "time": 628.7499999999999,
                    "velocity": 0.3858267716535433,
                    "duration": 0.625
                },
                {
                    "name": "F#4",
                    "midi": 66,
                    "time": 628.7499999999999,
                    "velocity": 0.3858267716535433,
                    "duration": 0.625
                },
                {
                    "name": "A3",
                    "midi": 57,
                    "time": 629.3749999999999,
                    "velocity": 0.3858267716535433,
                    "duration": 0.625
                },
                {
                    "name": "C#4",
                    "midi": 61,
                    "time": 629.3749999999999,
                    "velocity": 0.3858267716535433,
                    "duration": 0.625
                },
                {
                    "name": "E4",
                    "midi": 64,
                    "time": 629.3749999999999,
                    "velocity": 0.3858267716535433,
                    "duration": 0.625
                },
                {
                    "name": "G#4",
                    "midi": 68,
                    "time": 629.3749999999999,
                    "velocity": 0.3858267716535433,
                    "duration": 0.625
                },
                {
                    "name": "G#3",
                    "midi": 56,
                    "time": 629.9999999999999,
                    "velocity": 0.3858267716535433,
                    "duration": 0.625
                },
                {
                    "name": "B3",
                    "midi": 59,
                    "time": 629.9999999999999,
                    "velocity": 0.3858267716535433,
                    "duration": 0.625
                },
                {
                    "name": "D4",
                    "midi": 62,
                    "time": 629.9999999999999,
                    "velocity": 0.3858267716535433,
                    "duration": 0.625
                },
                {
                    "name": "F#4",
                    "midi": 66,
                    "time": 629.9999999999999,
                    "velocity": 0.3858267716535433,
                    "duration": 0.625
                },
                {
                    "name": "A3",
                    "midi": 57,
                    "time": 630.6249999999999,
                    "velocity": 0.3858267716535433,
                    "duration": 0.625
                },
                {
                    "name": "C#4",
                    "midi": 61,
                    "time": 630.6249999999999,
                    "velocity": 0.3858267716535433,
                    "duration": 0.625
                },
                {
                    "name": "E4",
                    "midi": 64,
                    "time": 630.6249999999999,
                    "velocity": 0.3858267716535433,
                    "duration": 0.625
                },
                {
                    "name": "G#4",
                    "midi": 68,
                    "time": 630.6249999999999,
                    "velocity": 0.3858267716535433,
                    "duration": 0.625
                },
                {
                    "name": "G#3",
                    "midi": 56,
                    "time": 631.2499999999999,
                    "velocity": 0.3858267716535433,
                    "duration": 0.625
                },
                {
                    "name": "B3",
                    "midi": 59,
                    "time": 631.2499999999999,
                    "velocity": 0.3858267716535433,
                    "duration": 0.625
                },
                {
                    "name": "D4",
                    "midi": 62,
                    "time": 631.2499999999999,
                    "velocity": 0.3858267716535433,
                    "duration": 0.625
                },
                {
                    "name": "F#4",
                    "midi": 66,
                    "time": 631.2499999999999,
                    "velocity": 0.3858267716535433,
                    "duration": 0.625
                },
                {
                    "name": "A3",
                    "midi": 57,
                    "time": 631.8749999999999,
                    "velocity": 0.3858267716535433,
                    "duration": 0.625
                },
                {
                    "name": "C#4",
                    "midi": 61,
                    "time": 631.8749999999999,
                    "velocity": 0.3858267716535433,
                    "duration": 0.625
                },
                {
                    "name": "E4",
                    "midi": 64,
                    "time": 631.8749999999999,
                    "velocity": 0.3858267716535433,
                    "duration": 0.625
                },
                {
                    "name": "G#4",
                    "midi": 68,
                    "time": 631.8749999999999,
                    "velocity": 0.3858267716535433,
                    "duration": 0.625
                },
                {
                    "name": "G#3",
                    "midi": 56,
                    "time": 632.4999999999999,
                    "velocity": 0.3858267716535433,
                    "duration": 0.625
                },
                {
                    "name": "B3",
                    "midi": 59,
                    "time": 632.4999999999999,
                    "velocity": 0.3858267716535433,
                    "duration": 0.625
                },
                {
                    "name": "D4",
                    "midi": 62,
                    "time": 632.4999999999999,
                    "velocity": 0.3858267716535433,
                    "duration": 0.625
                },
                {
                    "name": "F#4",
                    "midi": 66,
                    "time": 632.4999999999999,
                    "velocity": 0.3858267716535433,
                    "duration": 0.625
                },
                {
                    "name": "A3",
                    "midi": 57,
                    "time": 633.1249999999999,
                    "velocity": 0.3858267716535433,
                    "duration": 0.625
                },
                {
                    "name": "C#4",
                    "midi": 61,
                    "time": 633.1249999999999,
                    "velocity": 0.3858267716535433,
                    "duration": 0.625
                },
                {
                    "name": "E4",
                    "midi": 64,
                    "time": 633.1249999999999,
                    "velocity": 0.3858267716535433,
                    "duration": 0.625
                },
                {
                    "name": "G#4",
                    "midi": 68,
                    "time": 633.1249999999999,
                    "velocity": 0.3858267716535433,
                    "duration": 0.625
                },
                {
                    "name": "G#3",
                    "midi": 56,
                    "time": 633.7499999999999,
                    "velocity": 0.3858267716535433,
                    "duration": 0.625
                },
                {
                    "name": "B3",
                    "midi": 59,
                    "time": 633.7499999999999,
                    "velocity": 0.3858267716535433,
                    "duration": 0.625
                },
                {
                    "name": "D4",
                    "midi": 62,
                    "time": 633.7499999999999,
                    "velocity": 0.3858267716535433,
                    "duration": 0.625
                },
                {
                    "name": "F#4",
                    "midi": 66,
                    "time": 633.7499999999999,
                    "velocity": 0.3858267716535433,
                    "duration": 0.625
                },
                {
                    "name": "A3",
                    "midi": 57,
                    "time": 634.3749999999999,
                    "velocity": 0.3858267716535433,
                    "duration": 0.625
                },
                {
                    "name": "C#4",
                    "midi": 61,
                    "time": 634.3749999999999,
                    "velocity": 0.3858267716535433,
                    "duration": 0.625
                },
                {
                    "name": "E4",
                    "midi": 64,
                    "time": 634.3749999999999,
                    "velocity": 0.3858267716535433,
                    "duration": 0.625
                },
                {
                    "name": "G#4",
                    "midi": 68,
                    "time": 634.3749999999999,
                    "velocity": 0.3858267716535433,
                    "duration": 0.625
                },
                {
                    "name": "G#3",
                    "midi": 56,
                    "time": 634.9999999999999,
                    "velocity": 0.3858267716535433,
                    "duration": 0.625
                },
                {
                    "name": "B3",
                    "midi": 59,
                    "time": 634.9999999999999,
                    "velocity": 0.3858267716535433,
                    "duration": 0.625
                },
                {
                    "name": "D4",
                    "midi": 62,
                    "time": 634.9999999999999,
                    "velocity": 0.3858267716535433,
                    "duration": 0.625
                },
                {
                    "name": "F#4",
                    "midi": 66,
                    "time": 634.9999999999999,
                    "velocity": 0.3858267716535433,
                    "duration": 0.625
                },
                {
                    "name": "A3",
                    "midi": 57,
                    "time": 635.6249999999999,
                    "velocity": 0.3858267716535433,
                    "duration": 0.625
                },
                {
                    "name": "C#4",
                    "midi": 61,
                    "time": 635.6249999999999,
                    "velocity": 0.3858267716535433,
                    "duration": 0.625
                },
                {
                    "name": "E4",
                    "midi": 64,
                    "time": 635.6249999999999,
                    "velocity": 0.3858267716535433,
                    "duration": 0.625
                },
                {
                    "name": "G#4",
                    "midi": 68,
                    "time": 635.6249999999999,
                    "velocity": 0.3858267716535433,
                    "duration": 0.625
                },
                {
                    "name": "B3",
                    "midi": 59,
                    "time": 636.2499999999999,
                    "velocity": 0.3858267716535433,
                    "duration": 0.625
                },
                {
                    "name": "D4",
                    "midi": 62,
                    "time": 636.2499999999999,
                    "velocity": 0.3858267716535433,
                    "duration": 0.625
                },
                {
                    "name": "F4",
                    "midi": 65,
                    "time": 636.2499999999999,
                    "velocity": 0.3858267716535433,
                    "duration": 0.625
                },
                {
                    "name": "A4",
                    "midi": 69,
                    "time": 636.2499999999999,
                    "velocity": 0.3858267716535433,
                    "duration": 0.625
                },
                {
                    "name": "C4",
                    "midi": 60,
                    "time": 636.8749999999999,
                    "velocity": 0.3858267716535433,
                    "duration": 0.625
                },
                {
                    "name": "E4",
                    "midi": 64,
                    "time": 636.8749999999999,
                    "velocity": 0.3858267716535433,
                    "duration": 0.625
                },
                {
                    "name": "G4",
                    "midi": 67,
                    "time": 636.8749999999999,
                    "velocity": 0.3858267716535433,
                    "duration": 0.625
                },
                {
                    "name": "A4",
                    "midi": 69,
                    "time": 636.8749999999999,
                    "velocity": 0.3858267716535433,
                    "duration": 0.625
                },
                {
                    "name": "B3",
                    "midi": 59,
                    "time": 637.4999999999999,
                    "velocity": 0.3858267716535433,
                    "duration": 0.625
                },
                {
                    "name": "D4",
                    "midi": 62,
                    "time": 637.4999999999999,
                    "velocity": 0.3858267716535433,
                    "duration": 0.625
                },
                {
                    "name": "F4",
                    "midi": 65,
                    "time": 637.4999999999999,
                    "velocity": 0.3858267716535433,
                    "duration": 0.625
                },
                {
                    "name": "A4",
                    "midi": 69,
                    "time": 637.4999999999999,
                    "velocity": 0.3858267716535433,
                    "duration": 0.625
                },
                {
                    "name": "C4",
                    "midi": 60,
                    "time": 638.1249999999999,
                    "velocity": 0.3858267716535433,
                    "duration": 0.625
                },
                {
                    "name": "E4",
                    "midi": 64,
                    "time": 638.1249999999999,
                    "velocity": 0.3858267716535433,
                    "duration": 0.625
                },
                {
                    "name": "G4",
                    "midi": 67,
                    "time": 638.1249999999999,
                    "velocity": 0.3858267716535433,
                    "duration": 0.625
                },
                {
                    "name": "A4",
                    "midi": 69,
                    "time": 638.1249999999999,
                    "velocity": 0.3858267716535433,
                    "duration": 0.625
                },
                {
                    "name": "B3",
                    "midi": 59,
                    "time": 638.7499999999999,
                    "velocity": 0.3858267716535433,
                    "duration": 0.625
                },
                {
                    "name": "D4",
                    "midi": 62,
                    "time": 638.7499999999999,
                    "velocity": 0.3858267716535433,
                    "duration": 0.625
                },
                {
                    "name": "F4",
                    "midi": 65,
                    "time": 638.7499999999999,
                    "velocity": 0.3858267716535433,
                    "duration": 0.625
                },
                {
                    "name": "A4",
                    "midi": 69,
                    "time": 638.7499999999999,
                    "velocity": 0.3858267716535433,
                    "duration": 0.625
                },
                {
                    "name": "C4",
                    "midi": 60,
                    "time": 639.3749999999999,
                    "velocity": 0.3858267716535433,
                    "duration": 0.625
                },
                {
                    "name": "E4",
                    "midi": 64,
                    "time": 639.3749999999999,
                    "velocity": 0.3858267716535433,
                    "duration": 0.625
                },
                {
                    "name": "G4",
                    "midi": 67,
                    "time": 639.3749999999999,
                    "velocity": 0.3858267716535433,
                    "duration": 0.625
                },
                {
                    "name": "B4",
                    "midi": 71,
                    "time": 639.3749999999999,
                    "velocity": 0.3858267716535433,
                    "duration": 0.625
                },
                {
                    "name": "G#3",
                    "midi": 56,
                    "time": 639.9999999999999,
                    "velocity": 0.3858267716535433,
                    "duration": 0.625
                },
                {
                    "name": "B3",
                    "midi": 59,
                    "time": 639.9999999999999,
                    "velocity": 0.3858267716535433,
                    "duration": 0.625
                },
                {
                    "name": "D4",
                    "midi": 62,
                    "time": 639.9999999999999,
                    "velocity": 0.3858267716535433,
                    "duration": 0.625
                },
                {
                    "name": "F#4",
                    "midi": 66,
                    "time": 639.9999999999999,
                    "velocity": 0.3858267716535433,
                    "duration": 0.625
                },
                {
                    "name": "A3",
                    "midi": 57,
                    "time": 640.6249999999999,
                    "velocity": 0.3858267716535433,
                    "duration": 0.625
                },
                {
                    "name": "C#4",
                    "midi": 61,
                    "time": 640.6249999999999,
                    "velocity": 0.3858267716535433,
                    "duration": 0.625
                },
                {
                    "name": "E4",
                    "midi": 64,
                    "time": 640.6249999999999,
                    "velocity": 0.3858267716535433,
                    "duration": 0.625
                },
                {
                    "name": "G#4",
                    "midi": 68,
                    "time": 640.6249999999999,
                    "velocity": 0.3858267716535433,
                    "duration": 0.625
                },
                {
                    "name": "G#3",
                    "midi": 56,
                    "time": 641.2499999999999,
                    "velocity": 0.3858267716535433,
                    "duration": 0.625
                },
                {
                    "name": "B3",
                    "midi": 59,
                    "time": 641.2499999999999,
                    "velocity": 0.3858267716535433,
                    "duration": 0.625
                },
                {
                    "name": "D4",
                    "midi": 62,
                    "time": 641.2499999999999,
                    "velocity": 0.3858267716535433,
                    "duration": 0.625
                },
                {
                    "name": "F#4",
                    "midi": 66,
                    "time": 641.2499999999999,
                    "velocity": 0.3858267716535433,
                    "duration": 0.625
                },
                {
                    "name": "A3",
                    "midi": 57,
                    "time": 641.8749999999999,
                    "velocity": 0.3858267716535433,
                    "duration": 0.625
                },
                {
                    "name": "C#4",
                    "midi": 61,
                    "time": 641.8749999999999,
                    "velocity": 0.3858267716535433,
                    "duration": 0.625
                },
                {
                    "name": "E4",
                    "midi": 64,
                    "time": 641.8749999999999,
                    "velocity": 0.3858267716535433,
                    "duration": 0.625
                },
                {
                    "name": "G#4",
                    "midi": 68,
                    "time": 641.8749999999999,
                    "velocity": 0.3858267716535433,
                    "duration": 0.625
                },
                {
                    "name": "G#3",
                    "midi": 56,
                    "time": 642.4999999999999,
                    "velocity": 0.3858267716535433,
                    "duration": 0.625
                },
                {
                    "name": "B3",
                    "midi": 59,
                    "time": 642.4999999999999,
                    "velocity": 0.3858267716535433,
                    "duration": 0.625
                },
                {
                    "name": "D4",
                    "midi": 62,
                    "time": 642.4999999999999,
                    "velocity": 0.3858267716535433,
                    "duration": 0.625
                },
                {
                    "name": "F#4",
                    "midi": 66,
                    "time": 642.4999999999999,
                    "velocity": 0.3858267716535433,
                    "duration": 0.625
                },
                {
                    "name": "A3",
                    "midi": 57,
                    "time": 643.1249999999999,
                    "velocity": 0.3858267716535433,
                    "duration": 0.625
                },
                {
                    "name": "C#4",
                    "midi": 61,
                    "time": 643.1249999999999,
                    "velocity": 0.3858267716535433,
                    "duration": 0.625
                },
                {
                    "name": "E4",
                    "midi": 64,
                    "time": 643.1249999999999,
                    "velocity": 0.3858267716535433,
                    "duration": 0.625
                },
                {
                    "name": "G#4",
                    "midi": 68,
                    "time": 643.1249999999999,
                    "velocity": 0.3858267716535433,
                    "duration": 0.625
                },
                {
                    "name": "G#3",
                    "midi": 56,
                    "time": 643.7499999999999,
                    "velocity": 0.3858267716535433,
                    "duration": 0.625
                },
                {
                    "name": "B3",
                    "midi": 59,
                    "time": 643.7499999999999,
                    "velocity": 0.3858267716535433,
                    "duration": 0.625
                },
                {
                    "name": "D4",
                    "midi": 62,
                    "time": 643.7499999999999,
                    "velocity": 0.3858267716535433,
                    "duration": 0.625
                },
                {
                    "name": "F#4",
                    "midi": 66,
                    "time": 643.7499999999999,
                    "velocity": 0.3858267716535433,
                    "duration": 0.625
                },
                {
                    "name": "A3",
                    "midi": 57,
                    "time": 644.3749999999999,
                    "velocity": 0.3858267716535433,
                    "duration": 0.625
                },
                {
                    "name": "C#4",
                    "midi": 61,
                    "time": 644.3749999999999,
                    "velocity": 0.3858267716535433,
                    "duration": 0.625
                },
                {
                    "name": "E4",
                    "midi": 64,
                    "time": 644.3749999999999,
                    "velocity": 0.3858267716535433,
                    "duration": 0.625
                },
                {
                    "name": "G#4",
                    "midi": 68,
                    "time": 644.3749999999999,
                    "velocity": 0.3858267716535433,
                    "duration": 0.625
                },
                {
                    "name": "G#3",
                    "midi": 56,
                    "time": 644.9999999999999,
                    "velocity": 0.3858267716535433,
                    "duration": 0.625
                },
                {
                    "name": "B3",
                    "midi": 59,
                    "time": 644.9999999999999,
                    "velocity": 0.3858267716535433,
                    "duration": 0.625
                },
                {
                    "name": "D4",
                    "midi": 62,
                    "time": 644.9999999999999,
                    "velocity": 0.3858267716535433,
                    "duration": 0.625
                },
                {
                    "name": "F#4",
                    "midi": 66,
                    "time": 644.9999999999999,
                    "velocity": 0.3858267716535433,
                    "duration": 0.625
                },
                {
                    "name": "A3",
                    "midi": 57,
                    "time": 645.6249999999999,
                    "velocity": 0.3858267716535433,
                    "duration": 0.625
                },
                {
                    "name": "C#4",
                    "midi": 61,
                    "time": 645.6249999999999,
                    "velocity": 0.3858267716535433,
                    "duration": 0.625
                },
                {
                    "name": "E4",
                    "midi": 64,
                    "time": 645.6249999999999,
                    "velocity": 0.3858267716535433,
                    "duration": 0.625
                },
                {
                    "name": "G#4",
                    "midi": 68,
                    "time": 645.6249999999999,
                    "velocity": 0.3858267716535433,
                    "duration": 0.625
                },
                {
                    "name": "G#3",
                    "midi": 56,
                    "time": 646.2499999999999,
                    "velocity": 0.3858267716535433,
                    "duration": 0.625
                },
                {
                    "name": "B3",
                    "midi": 59,
                    "time": 646.2499999999999,
                    "velocity": 0.3858267716535433,
                    "duration": 0.625
                },
                {
                    "name": "D4",
                    "midi": 62,
                    "time": 646.2499999999999,
                    "velocity": 0.3858267716535433,
                    "duration": 0.625
                },
                {
                    "name": "F#4",
                    "midi": 66,
                    "time": 646.2499999999999,
                    "velocity": 0.3858267716535433,
                    "duration": 0.625
                },
                {
                    "name": "A3",
                    "midi": 57,
                    "time": 646.8749999999999,
                    "velocity": 0.3858267716535433,
                    "duration": 0.625
                },
                {
                    "name": "C#4",
                    "midi": 61,
                    "time": 646.8749999999999,
                    "velocity": 0.3858267716535433,
                    "duration": 0.625
                },
                {
                    "name": "E4",
                    "midi": 64,
                    "time": 646.8749999999999,
                    "velocity": 0.3858267716535433,
                    "duration": 0.625
                },
                {
                    "name": "G#4",
                    "midi": 68,
                    "time": 646.8749999999999,
                    "velocity": 0.3858267716535433,
                    "duration": 0.625
                },
                {
                    "name": "G#3",
                    "midi": 56,
                    "time": 647.4999999999999,
                    "velocity": 0.4881889763779528,
                    "duration": 0.625
                },
                {
                    "name": "B3",
                    "midi": 59,
                    "time": 647.4999999999999,
                    "velocity": 0.4881889763779528,
                    "duration": 0.625
                },
                {
                    "name": "D4",
                    "midi": 62,
                    "time": 647.4999999999999,
                    "velocity": 0.4881889763779528,
                    "duration": 0.625
                },
                {
                    "name": "F#4",
                    "midi": 66,
                    "time": 647.4999999999999,
                    "velocity": 0.4881889763779528,
                    "duration": 0.625
                },
                {
                    "name": "F#3",
                    "midi": 54,
                    "time": 648.1249999999999,
                    "velocity": 0.4881889763779528,
                    "duration": 0.06119791666662877
                },
                {
                    "name": "A3",
                    "midi": 57,
                    "time": 648.1249999999999,
                    "velocity": 0.4881889763779528,
                    "duration": 0.06119791666662877
                },
                {
                    "name": "C#4",
                    "midi": 61,
                    "time": 648.1249999999999,
                    "velocity": 0.4881889763779528,
                    "duration": 0.06119791666662877
                },
                {
                    "name": "E4",
                    "midi": 64,
                    "time": 648.1249999999999,
                    "velocity": 0.4881889763779528,
                    "duration": 0.06119791666662877
                },
                {
                    "name": "F#3",
                    "midi": 54,
                    "time": 648.4374999999999,
                    "velocity": 0.4881889763779528,
                    "duration": 0.06119791666662877
                },
                {
                    "name": "A3",
                    "midi": 57,
                    "time": 648.4374999999999,
                    "velocity": 0.4881889763779528,
                    "duration": 0.06119791666662877
                },
                {
                    "name": "C#4",
                    "midi": 61,
                    "time": 648.4374999999999,
                    "velocity": 0.4881889763779528,
                    "duration": 0.06119791666662877
                },
                {
                    "name": "E4",
                    "midi": 64,
                    "time": 648.4374999999999,
                    "velocity": 0.4881889763779528,
                    "duration": 0.06119791666662877
                },
                {
                    "name": "E3",
                    "midi": 52,
                    "time": 651.2499999999999,
                    "velocity": 0.4881889763779528,
                    "duration": 0.3125
                },
                {
                    "name": "G#3",
                    "midi": 56,
                    "time": 651.2499999999999,
                    "velocity": 0.4881889763779528,
                    "duration": 0.3125
                },
                {
                    "name": "D#3",
                    "midi": 51,
                    "time": 651.5624999999999,
                    "velocity": 0.4881889763779528,
                    "duration": 0.3125
                },
                {
                    "name": "G3",
                    "midi": 55,
                    "time": 651.5624999999999,
                    "velocity": 0.4881889763779528,
                    "duration": 0.3125
                },
                {
                    "name": "D3",
                    "midi": 50,
                    "time": 651.8749999999999,
                    "velocity": 0.4881889763779528,
                    "duration": 0.3125
                },
                {
                    "name": "F#3",
                    "midi": 54,
                    "time": 651.8749999999999,
                    "velocity": 0.4881889763779528,
                    "duration": 0.3125
                },
                {
                    "name": "D#3",
                    "midi": 51,
                    "time": 652.1874999999999,
                    "velocity": 0.4881889763779528,
                    "duration": 0.3125
                },
                {
                    "name": "G3",
                    "midi": 55,
                    "time": 652.1874999999999,
                    "velocity": 0.4881889763779528,
                    "duration": 0.3125
                },
                {
                    "name": "E3",
                    "midi": 52,
                    "time": 652.4999999999999,
                    "velocity": 0.4881889763779528,
                    "duration": 0.3125
                },
                {
                    "name": "G#3",
                    "midi": 56,
                    "time": 652.4999999999999,
                    "velocity": 0.4881889763779528,
                    "duration": 0.3125
                },
                {
                    "name": "D#3",
                    "midi": 51,
                    "time": 652.8124999999999,
                    "velocity": 0.4881889763779528,
                    "duration": 0.3125
                },
                {
                    "name": "G3",
                    "midi": 55,
                    "time": 652.8124999999999,
                    "velocity": 0.4881889763779528,
                    "duration": 0.3125
                },
                {
                    "name": "D3",
                    "midi": 50,
                    "time": 653.1249999999999,
                    "velocity": 0.4881889763779528,
                    "duration": 0.3125
                },
                {
                    "name": "F#3",
                    "midi": 54,
                    "time": 653.1249999999999,
                    "velocity": 0.4881889763779528,
                    "duration": 0.3125
                },
                {
                    "name": "D#3",
                    "midi": 51,
                    "time": 653.4374999999999,
                    "velocity": 0.4881889763779528,
                    "duration": 0.3125
                },
                {
                    "name": "G3",
                    "midi": 55,
                    "time": 653.4374999999999,
                    "velocity": 0.4881889763779528,
                    "duration": 0.3125
                },
                {
                    "name": "E3",
                    "midi": 52,
                    "time": 653.7499999999999,
                    "velocity": 0.4881889763779528,
                    "duration": 0.625
                },
                {
                    "name": "G#3",
                    "midi": 56,
                    "time": 653.7499999999999,
                    "velocity": 0.4881889763779528,
                    "duration": 0.625
                },
                {
                    "name": "D#3",
                    "midi": 51,
                    "time": 654.3749999999999,
                    "velocity": 0.4881889763779528,
                    "duration": 0.625
                },
                {
                    "name": "G3",
                    "midi": 55,
                    "time": 654.3749999999999,
                    "velocity": 0.4881889763779528,
                    "duration": 0.625
                },
                {
                    "name": "A4",
                    "midi": 69,
                    "time": 654.9999999999999,
                    "velocity": 0.4881889763779528,
                    "duration": 0.3125
                },
                {
                    "name": "A#4",
                    "midi": 70,
                    "time": 655.3124999999999,
                    "velocity": 0.4881889763779528,
                    "duration": 0.3125
                },
                {
                    "name": "B4",
                    "midi": 71,
                    "time": 655.6249999999999,
                    "velocity": 0.4881889763779528,
                    "duration": 0.3125
                },
                {
                    "name": "C5",
                    "midi": 72,
                    "time": 655.9374999999999,
                    "velocity": 0.4881889763779528,
                    "duration": 0.3125
                },
                {
                    "name": "A4",
                    "midi": 69,
                    "time": 656.2499999999999,
                    "velocity": 0.4881889763779528,
                    "duration": 0.3125
                },
                {
                    "name": "A5",
                    "midi": 81,
                    "time": 656.2499999999999,
                    "velocity": 0.4881889763779528,
                    "duration": 0.3125
                },
                {
                    "name": "A#4",
                    "midi": 70,
                    "time": 656.5624999999999,
                    "velocity": 0.4881889763779528,
                    "duration": 0.3125
                },
                {
                    "name": "A#5",
                    "midi": 82,
                    "time": 656.5624999999999,
                    "velocity": 0.4881889763779528,
                    "duration": 0.3125
                },
                {
                    "name": "B4",
                    "midi": 71,
                    "time": 656.8749999999999,
                    "velocity": 0.4881889763779528,
                    "duration": 0.3125
                },
                {
                    "name": "B5",
                    "midi": 83,
                    "time": 656.8749999999999,
                    "velocity": 0.4881889763779528,
                    "duration": 0.3125
                },
                {
                    "name": "C5",
                    "midi": 72,
                    "time": 657.1874999999999,
                    "velocity": 0.4881889763779528,
                    "duration": 0.3125
                },
                {
                    "name": "C6",
                    "midi": 84,
                    "time": 657.1874999999999,
                    "velocity": 0.4881889763779528,
                    "duration": 0.3125
                },
                {
                    "name": "C#5",
                    "midi": 73,
                    "time": 657.4999999999999,
                    "velocity": 0.4881889763779528,
                    "duration": 0.3125
                },
                {
                    "name": "D5",
                    "midi": 74,
                    "time": 657.8124999999999,
                    "velocity": 0.4881889763779528,
                    "duration": 0.3125
                },
                {
                    "name": "D#5",
                    "midi": 75,
                    "time": 658.1249999999999,
                    "velocity": 0.4881889763779528,
                    "duration": 0.3125
                },
                {
                    "name": "E5",
                    "midi": 76,
                    "time": 658.4374999999999,
                    "velocity": 0.4881889763779528,
                    "duration": 0.3125
                },
                {
                    "name": "F4",
                    "midi": 65,
                    "time": 658.7499999999999,
                    "velocity": 0.4881889763779528,
                    "duration": 0.3125
                },
                {
                    "name": "F5",
                    "midi": 77,
                    "time": 658.7499999999999,
                    "velocity": 0.4881889763779528,
                    "duration": 0.3125
                },
                {
                    "name": "F#4",
                    "midi": 66,
                    "time": 659.0624999999999,
                    "velocity": 0.4881889763779528,
                    "duration": 0.3125
                },
                {
                    "name": "F#5",
                    "midi": 78,
                    "time": 659.0624999999999,
                    "velocity": 0.4881889763779528,
                    "duration": 0.3125
                },
                {
                    "name": "G4",
                    "midi": 67,
                    "time": 659.3749999999999,
                    "velocity": 0.4881889763779528,
                    "duration": 0.3125
                },
                {
                    "name": "G5",
                    "midi": 79,
                    "time": 659.3749999999999,
                    "velocity": 0.4881889763779528,
                    "duration": 0.3125
                },
                {
                    "name": "G#4",
                    "midi": 68,
                    "time": 659.6874999999999,
                    "velocity": 0.4881889763779528,
                    "duration": 0.3125
                },
                {
                    "name": "G#5",
                    "midi": 80,
                    "time": 659.6874999999999,
                    "velocity": 0.4881889763779528,
                    "duration": 0.3125
                },
                {
                    "name": "G#3",
                    "midi": 56,
                    "time": 659.9999999999999,
                    "velocity": 0.4881889763779528,
                    "duration": 0.625
                },
                {
                    "name": "B3",
                    "midi": 59,
                    "time": 659.9999999999999,
                    "velocity": 0.4881889763779528,
                    "duration": 0.625
                },
                {
                    "name": "D4",
                    "midi": 62,
                    "time": 659.9999999999999,
                    "velocity": 0.4881889763779528,
                    "duration": 0.625
                },
                {
                    "name": "F#4",
                    "midi": 66,
                    "time": 659.9999999999999,
                    "velocity": 0.4881889763779528,
                    "duration": 0.625
                },
                {
                    "name": "A3",
                    "midi": 57,
                    "time": 660.6249999999999,
                    "velocity": 0.4881889763779528,
                    "duration": 0.625
                },
                {
                    "name": "C#4",
                    "midi": 61,
                    "time": 660.6249999999999,
                    "velocity": 0.4881889763779528,
                    "duration": 0.625
                },
                {
                    "name": "F4",
                    "midi": 65,
                    "time": 660.6249999999999,
                    "velocity": 0.4881889763779528,
                    "duration": 0.625
                },
                {
                    "name": "G#4",
                    "midi": 68,
                    "time": 660.6249999999999,
                    "velocity": 0.4881889763779528,
                    "duration": 0.625
                },
                {
                    "name": "B3",
                    "midi": 59,
                    "time": 661.2499999999999,
                    "velocity": 0.4881889763779528,
                    "duration": 0.625
                },
                {
                    "name": "D4",
                    "midi": 62,
                    "time": 661.2499999999999,
                    "velocity": 0.4881889763779528,
                    "duration": 0.625
                },
                {
                    "name": "F4",
                    "midi": 65,
                    "time": 661.2499999999999,
                    "velocity": 0.4881889763779528,
                    "duration": 0.625
                },
                {
                    "name": "A4",
                    "midi": 69,
                    "time": 661.2499999999999,
                    "velocity": 0.4881889763779528,
                    "duration": 0.625
                },
                {
                    "name": "C4",
                    "midi": 60,
                    "time": 661.8749999999999,
                    "velocity": 0.4881889763779528,
                    "duration": 0.625
                },
                {
                    "name": "E4",
                    "midi": 64,
                    "time": 661.8749999999999,
                    "velocity": 0.4881889763779528,
                    "duration": 0.625
                },
                {
                    "name": "G4",
                    "midi": 67,
                    "time": 661.8749999999999,
                    "velocity": 0.4881889763779528,
                    "duration": 0.625
                },
                {
                    "name": "B4",
                    "midi": 71,
                    "time": 661.8749999999999,
                    "velocity": 0.4881889763779528,
                    "duration": 0.625
                },
                {
                    "name": "B3",
                    "midi": 59,
                    "time": 662.4999999999999,
                    "velocity": 0.4881889763779528,
                    "duration": 0.625
                },
                {
                    "name": "D4",
                    "midi": 62,
                    "time": 662.4999999999999,
                    "velocity": 0.4881889763779528,
                    "duration": 0.625
                },
                {
                    "name": "F4",
                    "midi": 65,
                    "time": 662.4999999999999,
                    "velocity": 0.4881889763779528,
                    "duration": 0.625
                },
                {
                    "name": "A4",
                    "midi": 69,
                    "time": 662.4999999999999,
                    "velocity": 0.4881889763779528,
                    "duration": 0.625
                },
                {
                    "name": "C4",
                    "midi": 60,
                    "time": 663.1249999999999,
                    "velocity": 0.4881889763779528,
                    "duration": 0.625
                },
                {
                    "name": "E4",
                    "midi": 64,
                    "time": 663.1249999999999,
                    "velocity": 0.4881889763779528,
                    "duration": 0.625
                },
                {
                    "name": "G4",
                    "midi": 67,
                    "time": 663.1249999999999,
                    "velocity": 0.4881889763779528,
                    "duration": 0.625
                },
                {
                    "name": "B4",
                    "midi": 71,
                    "time": 663.1249999999999,
                    "velocity": 0.4881889763779528,
                    "duration": 0.625
                },
                {
                    "name": "B3",
                    "midi": 59,
                    "time": 663.7499999999999,
                    "velocity": 0.4881889763779528,
                    "duration": 0.625
                },
                {
                    "name": "D4",
                    "midi": 62,
                    "time": 663.7499999999999,
                    "velocity": 0.4881889763779528,
                    "duration": 0.625
                },
                {
                    "name": "F4",
                    "midi": 65,
                    "time": 663.7499999999999,
                    "velocity": 0.4881889763779528,
                    "duration": 0.625
                },
                {
                    "name": "A4",
                    "midi": 69,
                    "time": 663.7499999999999,
                    "velocity": 0.4881889763779528,
                    "duration": 0.625
                },
                {
                    "name": "C4",
                    "midi": 60,
                    "time": 664.3749999999999,
                    "velocity": 0.4881889763779528,
                    "duration": 0.625
                },
                {
                    "name": "E4",
                    "midi": 64,
                    "time": 664.3749999999999,
                    "velocity": 0.4881889763779528,
                    "duration": 0.625
                },
                {
                    "name": "G4",
                    "midi": 67,
                    "time": 664.3749999999999,
                    "velocity": 0.4881889763779528,
                    "duration": 0.625
                },
                {
                    "name": "B4",
                    "midi": 71,
                    "time": 664.3749999999999,
                    "velocity": 0.4881889763779528,
                    "duration": 0.625
                },
                {
                    "name": "B3",
                    "midi": 59,
                    "time": 664.9999999999999,
                    "velocity": 0.3858267716535433,
                    "duration": 0.625
                },
                {
                    "name": "D4",
                    "midi": 62,
                    "time": 664.9999999999999,
                    "velocity": 0.3858267716535433,
                    "duration": 0.625
                },
                {
                    "name": "F4",
                    "midi": 65,
                    "time": 664.9999999999999,
                    "velocity": 0.3858267716535433,
                    "duration": 0.625
                },
                {
                    "name": "A4",
                    "midi": 69,
                    "time": 664.9999999999999,
                    "velocity": 0.3858267716535433,
                    "duration": 0.625
                },
                {
                    "name": "C4",
                    "midi": 60,
                    "time": 665.6249999999999,
                    "velocity": 0.3858267716535433,
                    "duration": 0.625
                },
                {
                    "name": "E4",
                    "midi": 64,
                    "time": 665.6249999999999,
                    "velocity": 0.3858267716535433,
                    "duration": 0.625
                },
                {
                    "name": "G4",
                    "midi": 67,
                    "time": 665.6249999999999,
                    "velocity": 0.3858267716535433,
                    "duration": 0.625
                },
                {
                    "name": "B4",
                    "midi": 71,
                    "time": 665.6249999999999,
                    "velocity": 0.3858267716535433,
                    "duration": 0.625
                },
                {
                    "name": "B3",
                    "midi": 59,
                    "time": 666.2499999999999,
                    "velocity": 0.3858267716535433,
                    "duration": 0.625
                },
                {
                    "name": "D4",
                    "midi": 62,
                    "time": 666.2499999999999,
                    "velocity": 0.3858267716535433,
                    "duration": 0.625
                },
                {
                    "name": "F4",
                    "midi": 65,
                    "time": 666.2499999999999,
                    "velocity": 0.3858267716535433,
                    "duration": 0.625
                },
                {
                    "name": "A4",
                    "midi": 69,
                    "time": 666.2499999999999,
                    "velocity": 0.3858267716535433,
                    "duration": 0.625
                },
                {
                    "name": "C4",
                    "midi": 60,
                    "time": 666.8749999999999,
                    "velocity": 0.3858267716535433,
                    "duration": 0.625
                },
                {
                    "name": "E4",
                    "midi": 64,
                    "time": 666.8749999999999,
                    "velocity": 0.3858267716535433,
                    "duration": 0.625
                },
                {
                    "name": "G4",
                    "midi": 67,
                    "time": 666.8749999999999,
                    "velocity": 0.3858267716535433,
                    "duration": 0.625
                },
                {
                    "name": "B4",
                    "midi": 71,
                    "time": 666.8749999999999,
                    "velocity": 0.3858267716535433,
                    "duration": 0.625
                },
                {
                    "name": "D4",
                    "midi": 62,
                    "time": 667.4999999999999,
                    "velocity": 0.3858267716535433,
                    "duration": 0.625
                },
                {
                    "name": "F4",
                    "midi": 65,
                    "time": 667.4999999999999,
                    "velocity": 0.3858267716535433,
                    "duration": 0.625
                },
                {
                    "name": "G#4",
                    "midi": 68,
                    "time": 667.4999999999999,
                    "velocity": 0.3858267716535433,
                    "duration": 0.625
                },
                {
                    "name": "C5",
                    "midi": 72,
                    "time": 667.4999999999999,
                    "velocity": 0.3858267716535433,
                    "duration": 0.625
                },
                {
                    "name": "D#4",
                    "midi": 63,
                    "time": 668.1249999999999,
                    "velocity": 0.3858267716535433,
                    "duration": 0.625
                },
                {
                    "name": "G4",
                    "midi": 67,
                    "time": 668.1249999999999,
                    "velocity": 0.3858267716535433,
                    "duration": 0.625
                },
                {
                    "name": "A#4",
                    "midi": 70,
                    "time": 668.1249999999999,
                    "velocity": 0.3858267716535433,
                    "duration": 0.625
                },
                {
                    "name": "D5",
                    "midi": 74,
                    "time": 668.1249999999999,
                    "velocity": 0.3858267716535433,
                    "duration": 0.625
                },
                {
                    "name": "D4",
                    "midi": 62,
                    "time": 668.7499999999999,
                    "velocity": 0.3858267716535433,
                    "duration": 0.625
                },
                {
                    "name": "F4",
                    "midi": 65,
                    "time": 668.7499999999999,
                    "velocity": 0.3858267716535433,
                    "duration": 0.625
                },
                {
                    "name": "G#4",
                    "midi": 68,
                    "time": 668.7499999999999,
                    "velocity": 0.3858267716535433,
                    "duration": 0.625
                },
                {
                    "name": "C5",
                    "midi": 72,
                    "time": 668.7499999999999,
                    "velocity": 0.3858267716535433,
                    "duration": 0.625
                },
                {
                    "name": "D#4",
                    "midi": 63,
                    "time": 669.3749999999999,
                    "velocity": 0.3858267716535433,
                    "duration": 0.625
                },
                {
                    "name": "G4",
                    "midi": 67,
                    "time": 669.3749999999999,
                    "velocity": 0.3858267716535433,
                    "duration": 0.625
                },
                {
                    "name": "A#4",
                    "midi": 70,
                    "time": 669.3749999999999,
                    "velocity": 0.3858267716535433,
                    "duration": 0.625
                },
                {
                    "name": "D5",
                    "midi": 74,
                    "time": 669.3749999999999,
                    "velocity": 0.3858267716535433,
                    "duration": 0.625
                },
                {
                    "name": "G4",
                    "midi": 67,
                    "time": 669.9999999999999,
                    "velocity": 0.8976377952755905,
                    "duration": 0.3125
                },
                {
                    "name": "G5",
                    "midi": 79,
                    "time": 669.9999999999999,
                    "velocity": 0.8976377952755905,
                    "duration": 0.3125
                },
                {
                    "name": "G4",
                    "midi": 67,
                    "time": 670.3124999999999,
                    "velocity": 0.6929133858267716,
                    "duration": 0.02994791666662877
                },
                {
                    "name": "G5",
                    "midi": 79,
                    "time": 670.3124999999999,
                    "velocity": 0.6929133858267716,
                    "duration": 0.02994791666662877
                },
                {
                    "name": "G4",
                    "midi": 67,
                    "time": 670.4687499999999,
                    "velocity": 0.6929133858267716,
                    "duration": 0.02994791666662877
                },
                {
                    "name": "G5",
                    "midi": 79,
                    "time": 670.4687499999999,
                    "velocity": 0.6929133858267716,
                    "duration": 0.02994791666662877
                },
                {
                    "name": "G4",
                    "midi": 67,
                    "time": 670.6249999999999,
                    "velocity": 0.6929133858267716,
                    "duration": 0.02994791666662877
                },
                {
                    "name": "G5",
                    "midi": 79,
                    "time": 670.6249999999999,
                    "velocity": 0.6929133858267716,
                    "duration": 0.02994791666662877
                },
                {
                    "name": "G4",
                    "midi": 67,
                    "time": 670.7812499999999,
                    "velocity": 0.6929133858267716,
                    "duration": 0.02994791666662877
                },
                {
                    "name": "G5",
                    "midi": 79,
                    "time": 670.7812499999999,
                    "velocity": 0.6929133858267716,
                    "duration": 0.02994791666662877
                },
                {
                    "name": "G4",
                    "midi": 67,
                    "time": 670.9374999999999,
                    "velocity": 0.6929133858267716,
                    "duration": 0.02994791666662877
                },
                {
                    "name": "G5",
                    "midi": 79,
                    "time": 670.9374999999999,
                    "velocity": 0.6929133858267716,
                    "duration": 0.02994791666662877
                },
                {
                    "name": "G4",
                    "midi": 67,
                    "time": 671.0937499999999,
                    "velocity": 0.6929133858267716,
                    "duration": 0.02994791666662877
                },
                {
                    "name": "G5",
                    "midi": 79,
                    "time": 671.0937499999999,
                    "velocity": 0.6929133858267716,
                    "duration": 0.02994791666662877
                },
                {
                    "name": "G4",
                    "midi": 67,
                    "time": 671.2499999999999,
                    "velocity": 0.6929133858267716,
                    "duration": 0.02994791666662877
                },
                {
                    "name": "G5",
                    "midi": 79,
                    "time": 671.2499999999999,
                    "velocity": 0.6929133858267716,
                    "duration": 0.02994791666662877
                },
                {
                    "name": "G4",
                    "midi": 67,
                    "time": 671.4062499999999,
                    "velocity": 0.6929133858267716,
                    "duration": 0.02994791666662877
                },
                {
                    "name": "G5",
                    "midi": 79,
                    "time": 671.4062499999999,
                    "velocity": 0.6929133858267716,
                    "duration": 0.02994791666662877
                },
                {
                    "name": "G4",
                    "midi": 67,
                    "time": 671.5624999999999,
                    "velocity": 0.6929133858267716,
                    "duration": 0.02994791666662877
                },
                {
                    "name": "G5",
                    "midi": 79,
                    "time": 671.5624999999999,
                    "velocity": 0.6929133858267716,
                    "duration": 0.02994791666662877
                },
                {
                    "name": "G4",
                    "midi": 67,
                    "time": 671.7187499999999,
                    "velocity": 0.6929133858267716,
                    "duration": 0.02994791666662877
                },
                {
                    "name": "G5",
                    "midi": 79,
                    "time": 671.7187499999999,
                    "velocity": 0.6929133858267716,
                    "duration": 0.02994791666662877
                },
                {
                    "name": "G4",
                    "midi": 67,
                    "time": 671.8749999999999,
                    "velocity": 0.6929133858267716,
                    "duration": 0.06119791666662877
                },
                {
                    "name": "G5",
                    "midi": 79,
                    "time": 671.8749999999999,
                    "velocity": 0.6929133858267716,
                    "duration": 0.06119791666662877
                },
                {
                    "name": "D5",
                    "midi": 74,
                    "time": 672.1874999999999,
                    "velocity": 0.8976377952755905,
                    "duration": 0.06119791666662877
                },
                {
                    "name": "D6",
                    "midi": 86,
                    "time": 672.1874999999999,
                    "velocity": 0.8976377952755905,
                    "duration": 0.06119791666662877
                },
                {
                    "name": "G4",
                    "midi": 67,
                    "time": 672.4999999999999,
                    "velocity": 0.8976377952755905,
                    "duration": 0.3125
                },
                {
                    "name": "G5",
                    "midi": 79,
                    "time": 672.4999999999999,
                    "velocity": 0.8976377952755905,
                    "duration": 0.3125
                },
                {
                    "name": "G4",
                    "midi": 67,
                    "time": 672.8124999999999,
                    "velocity": 0.6929133858267716,
                    "duration": 0.02994791666662877
                },
                {
                    "name": "G5",
                    "midi": 79,
                    "time": 672.8124999999999,
                    "velocity": 0.6929133858267716,
                    "duration": 0.02994791666662877
                },
                {
                    "name": "G4",
                    "midi": 67,
                    "time": 672.9687499999999,
                    "velocity": 0.6929133858267716,
                    "duration": 0.02994791666662877
                },
                {
                    "name": "G5",
                    "midi": 79,
                    "time": 672.9687499999999,
                    "velocity": 0.6929133858267716,
                    "duration": 0.02994791666662877
                },
                {
                    "name": "G4",
                    "midi": 67,
                    "time": 673.1249999999999,
                    "velocity": 0.6929133858267716,
                    "duration": 0.02994791666662877
                },
                {
                    "name": "G5",
                    "midi": 79,
                    "time": 673.1249999999999,
                    "velocity": 0.6929133858267716,
                    "duration": 0.02994791666662877
                },
                {
                    "name": "G4",
                    "midi": 67,
                    "time": 673.2812499999999,
                    "velocity": 0.6929133858267716,
                    "duration": 0.02994791666662877
                },
                {
                    "name": "G5",
                    "midi": 79,
                    "time": 673.2812499999999,
                    "velocity": 0.6929133858267716,
                    "duration": 0.02994791666662877
                },
                {
                    "name": "G4",
                    "midi": 67,
                    "time": 673.4374999999999,
                    "velocity": 0.6929133858267716,
                    "duration": 0.02994791666662877
                },
                {
                    "name": "G5",
                    "midi": 79,
                    "time": 673.4374999999999,
                    "velocity": 0.6929133858267716,
                    "duration": 0.02994791666662877
                },
                {
                    "name": "G4",
                    "midi": 67,
                    "time": 673.5937499999999,
                    "velocity": 0.6929133858267716,
                    "duration": 0.02994791666662877
                },
                {
                    "name": "G5",
                    "midi": 79,
                    "time": 673.5937499999999,
                    "velocity": 0.6929133858267716,
                    "duration": 0.02994791666662877
                },
                {
                    "name": "G4",
                    "midi": 67,
                    "time": 673.7499999999999,
                    "velocity": 0.6929133858267716,
                    "duration": 0.02994791666662877
                },
                {
                    "name": "G5",
                    "midi": 79,
                    "time": 673.7499999999999,
                    "velocity": 0.6929133858267716,
                    "duration": 0.02994791666662877
                },
                {
                    "name": "G4",
                    "midi": 67,
                    "time": 673.9062499999999,
                    "velocity": 0.6929133858267716,
                    "duration": 0.02994791666662877
                },
                {
                    "name": "G5",
                    "midi": 79,
                    "time": 673.9062499999999,
                    "velocity": 0.6929133858267716,
                    "duration": 0.02994791666662877
                },
                {
                    "name": "G4",
                    "midi": 67,
                    "time": 674.0624999999999,
                    "velocity": 0.6929133858267716,
                    "duration": 0.02994791666662877
                },
                {
                    "name": "G5",
                    "midi": 79,
                    "time": 674.0624999999999,
                    "velocity": 0.6929133858267716,
                    "duration": 0.02994791666662877
                },
                {
                    "name": "G4",
                    "midi": 67,
                    "time": 674.2187499999999,
                    "velocity": 0.6929133858267716,
                    "duration": 0.02994791666662877
                },
                {
                    "name": "G5",
                    "midi": 79,
                    "time": 674.2187499999999,
                    "velocity": 0.6929133858267716,
                    "duration": 0.02994791666662877
                },
                {
                    "name": "G4",
                    "midi": 67,
                    "time": 674.3749999999999,
                    "velocity": 0.6929133858267716,
                    "duration": 0.06119791666662877
                },
                {
                    "name": "G5",
                    "midi": 79,
                    "time": 674.3749999999999,
                    "velocity": 0.6929133858267716,
                    "duration": 0.06119791666662877
                },
                {
                    "name": "D5",
                    "midi": 74,
                    "time": 674.6874999999999,
                    "velocity": 0.8976377952755905,
                    "duration": 0.06119791666662877
                },
                {
                    "name": "D6",
                    "midi": 86,
                    "time": 674.6874999999999,
                    "velocity": 0.8976377952755905,
                    "duration": 0.06119791666662877
                },
                {
                    "name": "D6",
                    "midi": 86,
                    "time": 674.9999999999999,
                    "velocity": 0.6929133858267716,
                    "duration": 0.02994791666662877
                },
                {
                    "name": "G6",
                    "midi": 91,
                    "time": 674.9999999999999,
                    "velocity": 0.6929133858267716,
                    "duration": 0.02994791666662877
                },
                {
                    "name": "D6",
                    "midi": 86,
                    "time": 675.1562499999999,
                    "velocity": 0.6929133858267716,
                    "duration": 0.02994791666662877
                },
                {
                    "name": "G6",
                    "midi": 91,
                    "time": 675.1562499999999,
                    "velocity": 0.6929133858267716,
                    "duration": 0.02994791666662877
                },
                {
                    "name": "D6",
                    "midi": 86,
                    "time": 675.3124999999999,
                    "velocity": 0.6929133858267716,
                    "duration": 0.02994791666662877
                },
                {
                    "name": "G6",
                    "midi": 91,
                    "time": 675.3124999999999,
                    "velocity": 0.6929133858267716,
                    "duration": 0.02994791666662877
                },
                {
                    "name": "G6",
                    "midi": 91,
                    "time": 675.4687499999999,
                    "velocity": 0.8976377952755905,
                    "duration": 0.15625
                },
                {
                    "name": "D7",
                    "midi": 98,
                    "time": 675.4687499999999,
                    "velocity": 0.8976377952755905,
                    "duration": 0.15625
                },
                {
                    "name": "D6",
                    "midi": 86,
                    "time": 675.6249999999999,
                    "velocity": 0.6929133858267716,
                    "duration": 0.02994791666662877
                },
                {
                    "name": "G6",
                    "midi": 91,
                    "time": 675.6249999999999,
                    "velocity": 0.6929133858267716,
                    "duration": 0.02994791666662877
                },
                {
                    "name": "D6",
                    "midi": 86,
                    "time": 675.7812499999999,
                    "velocity": 0.6929133858267716,
                    "duration": 0.02994791666662877
                },
                {
                    "name": "G6",
                    "midi": 91,
                    "time": 675.7812499999999,
                    "velocity": 0.6929133858267716,
                    "duration": 0.02994791666662877
                },
                {
                    "name": "D6",
                    "midi": 86,
                    "time": 675.9374999999999,
                    "velocity": 0.6929133858267716,
                    "duration": 0.02994791666662877
                },
                {
                    "name": "G6",
                    "midi": 91,
                    "time": 675.9374999999999,
                    "velocity": 0.6929133858267716,
                    "duration": 0.02994791666662877
                },
                {
                    "name": "G6",
                    "midi": 91,
                    "time": 676.0937499999999,
                    "velocity": 0.8976377952755905,
                    "duration": 0.15625
                },
                {
                    "name": "D7",
                    "midi": 98,
                    "time": 676.0937499999999,
                    "velocity": 0.8976377952755905,
                    "duration": 0.15625
                },
                {
                    "name": "D6",
                    "midi": 86,
                    "time": 676.2499999999999,
                    "velocity": 0.6929133858267716,
                    "duration": 0.02994791666662877
                },
                {
                    "name": "G6",
                    "midi": 91,
                    "time": 676.2499999999999,
                    "velocity": 0.6929133858267716,
                    "duration": 0.02994791666662877
                },
                {
                    "name": "D6",
                    "midi": 86,
                    "time": 676.4062499999999,
                    "velocity": 0.6929133858267716,
                    "duration": 0.02994791666662877
                },
                {
                    "name": "G6",
                    "midi": 91,
                    "time": 676.4062499999999,
                    "velocity": 0.6929133858267716,
                    "duration": 0.02994791666662877
                },
                {
                    "name": "D6",
                    "midi": 86,
                    "time": 676.5624999999999,
                    "velocity": 0.6929133858267716,
                    "duration": 0.02994791666662877
                },
                {
                    "name": "G6",
                    "midi": 91,
                    "time": 676.5624999999999,
                    "velocity": 0.6929133858267716,
                    "duration": 0.02994791666662877
                },
                {
                    "name": "G6",
                    "midi": 91,
                    "time": 676.7187499999999,
                    "velocity": 0.8976377952755905,
                    "duration": 0.15625
                },
                {
                    "name": "D7",
                    "midi": 98,
                    "time": 676.7187499999999,
                    "velocity": 0.8976377952755905,
                    "duration": 0.15625
                },
                {
                    "name": "G5",
                    "midi": 79,
                    "time": 676.8749999999999,
                    "velocity": 0.6929133858267716,
                    "duration": 0.02994791666662877
                },
                {
                    "name": "D6",
                    "midi": 86,
                    "time": 676.8749999999999,
                    "velocity": 0.6929133858267716,
                    "duration": 0.02994791666662877
                },
                {
                    "name": "G5",
                    "midi": 79,
                    "time": 677.0312499999999,
                    "velocity": 0.6929133858267716,
                    "duration": 0.02994791666662877
                },
                {
                    "name": "D6",
                    "midi": 86,
                    "time": 677.0312499999999,
                    "velocity": 0.6929133858267716,
                    "duration": 0.02994791666662877
                },
                {
                    "name": "G5",
                    "midi": 79,
                    "time": 677.1874999999999,
                    "velocity": 0.6929133858267716,
                    "duration": 0.02994791666662877
                },
                {
                    "name": "D6",
                    "midi": 86,
                    "time": 677.1874999999999,
                    "velocity": 0.6929133858267716,
                    "duration": 0.02994791666662877
                },
                {
                    "name": "D6",
                    "midi": 86,
                    "time": 677.3437499999999,
                    "velocity": 0.8976377952755905,
                    "duration": 0.15625
                },
                {
                    "name": "G6",
                    "midi": 91,
                    "time": 677.3437499999999,
                    "velocity": 0.8976377952755905,
                    "duration": 0.15625
                },
                {
                    "name": "G5",
                    "midi": 79,
                    "time": 677.4999999999999,
                    "velocity": 0.6929133858267716,
                    "duration": 0.02994791666662877
                },
                {
                    "name": "D6",
                    "midi": 86,
                    "time": 677.4999999999999,
                    "velocity": 0.6929133858267716,
                    "duration": 0.02994791666662877
                },
                {
                    "name": "G5",
                    "midi": 79,
                    "time": 677.6562499999999,
                    "velocity": 0.6929133858267716,
                    "duration": 0.02994791666662877
                },
                {
                    "name": "D6",
                    "midi": 86,
                    "time": 677.6562499999999,
                    "velocity": 0.6929133858267716,
                    "duration": 0.02994791666662877
                },
                {
                    "name": "G5",
                    "midi": 79,
                    "time": 677.8124999999999,
                    "velocity": 0.6929133858267716,
                    "duration": 0.02994791666662877
                },
                {
                    "name": "D6",
                    "midi": 86,
                    "time": 677.8124999999999,
                    "velocity": 0.6929133858267716,
                    "duration": 0.02994791666662877
                },
                {
                    "name": "D6",
                    "midi": 86,
                    "time": 677.9687499999999,
                    "velocity": 0.8976377952755905,
                    "duration": 0.15625
                },
                {
                    "name": "G6",
                    "midi": 91,
                    "time": 677.9687499999999,
                    "velocity": 0.8976377952755905,
                    "duration": 0.15625
                },
                {
                    "name": "G5",
                    "midi": 79,
                    "time": 678.1249999999999,
                    "velocity": 0.6929133858267716,
                    "duration": 0.02994791666662877
                },
                {
                    "name": "D6",
                    "midi": 86,
                    "time": 678.1249999999999,
                    "velocity": 0.6929133858267716,
                    "duration": 0.02994791666662877
                },
                {
                    "name": "G5",
                    "midi": 79,
                    "time": 678.2812499999999,
                    "velocity": 0.6929133858267716,
                    "duration": 0.02994791666662877
                },
                {
                    "name": "D6",
                    "midi": 86,
                    "time": 678.2812499999999,
                    "velocity": 0.6929133858267716,
                    "duration": 0.02994791666662877
                },
                {
                    "name": "G5",
                    "midi": 79,
                    "time": 678.4374999999999,
                    "velocity": 0.6929133858267716,
                    "duration": 0.02994791666662877
                },
                {
                    "name": "D6",
                    "midi": 86,
                    "time": 678.4374999999999,
                    "velocity": 0.6929133858267716,
                    "duration": 0.02994791666662877
                },
                {
                    "name": "D6",
                    "midi": 86,
                    "time": 678.5937499999999,
                    "velocity": 0.8976377952755905,
                    "duration": 0.15625
                },
                {
                    "name": "G6",
                    "midi": 91,
                    "time": 678.5937499999999,
                    "velocity": 0.8976377952755905,
                    "duration": 0.15625
                },
                {
                    "name": "D5",
                    "midi": 74,
                    "time": 678.7499999999999,
                    "velocity": 0.6929133858267716,
                    "duration": 0.02994791666662877
                },
                {
                    "name": "G5",
                    "midi": 79,
                    "time": 678.7499999999999,
                    "velocity": 0.6929133858267716,
                    "duration": 0.02994791666662877
                },
                {
                    "name": "D5",
                    "midi": 74,
                    "time": 678.9062499999999,
                    "velocity": 0.6929133858267716,
                    "duration": 0.02994791666662877
                },
                {
                    "name": "G5",
                    "midi": 79,
                    "time": 678.9062499999999,
                    "velocity": 0.6929133858267716,
                    "duration": 0.02994791666662877
                },
                {
                    "name": "D5",
                    "midi": 74,
                    "time": 679.0624999999999,
                    "velocity": 0.6929133858267716,
                    "duration": 0.02994791666662877
                },
                {
                    "name": "G5",
                    "midi": 79,
                    "time": 679.0624999999999,
                    "velocity": 0.6929133858267716,
                    "duration": 0.02994791666662877
                },
                {
                    "name": "G5",
                    "midi": 79,
                    "time": 679.2187499999999,
                    "velocity": 0.8976377952755905,
                    "duration": 0.15625
                },
                {
                    "name": "D6",
                    "midi": 86,
                    "time": 679.2187499999999,
                    "velocity": 0.8976377952755905,
                    "duration": 0.15625
                },
                {
                    "name": "D5",
                    "midi": 74,
                    "time": 679.3749999999999,
                    "velocity": 0.6929133858267716,
                    "duration": 0.02994791666662877
                },
                {
                    "name": "G5",
                    "midi": 79,
                    "time": 679.3749999999999,
                    "velocity": 0.6929133858267716,
                    "duration": 0.02994791666662877
                },
                {
                    "name": "D5",
                    "midi": 74,
                    "time": 679.5312499999999,
                    "velocity": 0.6929133858267716,
                    "duration": 0.02994791666662877
                },
                {
                    "name": "G5",
                    "midi": 79,
                    "time": 679.5312499999999,
                    "velocity": 0.6929133858267716,
                    "duration": 0.02994791666662877
                },
                {
                    "name": "D5",
                    "midi": 74,
                    "time": 679.6874999999999,
                    "velocity": 0.6929133858267716,
                    "duration": 0.02994791666662877
                },
                {
                    "name": "G5",
                    "midi": 79,
                    "time": 679.6874999999999,
                    "velocity": 0.6929133858267716,
                    "duration": 0.02994791666662877
                },
                {
                    "name": "G5",
                    "midi": 79,
                    "time": 679.8437499999999,
                    "velocity": 0.8976377952755905,
                    "duration": 0.15625
                },
                {
                    "name": "D6",
                    "midi": 86,
                    "time": 679.8437499999999,
                    "velocity": 0.8976377952755905,
                    "duration": 0.15625
                },
                {
                    "name": "D5",
                    "midi": 74,
                    "time": 679.9999999999999,
                    "velocity": 0.6929133858267716,
                    "duration": 0.02994791666662877
                },
                {
                    "name": "G5",
                    "midi": 79,
                    "time": 679.9999999999999,
                    "velocity": 0.6929133858267716,
                    "duration": 0.02994791666662877
                },
                {
                    "name": "D5",
                    "midi": 74,
                    "time": 680.1562499999999,
                    "velocity": 0.6929133858267716,
                    "duration": 0.02994791666662877
                },
                {
                    "name": "G5",
                    "midi": 79,
                    "time": 680.1562499999999,
                    "velocity": 0.6929133858267716,
                    "duration": 0.02994791666662877
                },
                {
                    "name": "D5",
                    "midi": 74,
                    "time": 680.3124999999999,
                    "velocity": 0.6929133858267716,
                    "duration": 0.02994791666662877
                },
                {
                    "name": "G5",
                    "midi": 79,
                    "time": 680.3124999999999,
                    "velocity": 0.6929133858267716,
                    "duration": 0.02994791666662877
                },
                {
                    "name": "G5",
                    "midi": 79,
                    "time": 680.4687499999999,
                    "velocity": 0.8976377952755905,
                    "duration": 0.15625
                },
                {
                    "name": "D6",
                    "midi": 86,
                    "time": 680.4687499999999,
                    "velocity": 0.8976377952755905,
                    "duration": 0.15625
                },
                {
                    "name": "G4",
                    "midi": 67,
                    "time": 680.6249999999999,
                    "velocity": 0.6929133858267716,
                    "duration": 0.02994791666662877
                },
                {
                    "name": "D5",
                    "midi": 74,
                    "time": 680.6249999999999,
                    "velocity": 0.6929133858267716,
                    "duration": 0.02994791666662877
                },
                {
                    "name": "G4",
                    "midi": 67,
                    "time": 680.7812499999999,
                    "velocity": 0.6929133858267716,
                    "duration": 0.02994791666662877
                },
                {
                    "name": "D5",
                    "midi": 74,
                    "time": 680.7812499999999,
                    "velocity": 0.6929133858267716,
                    "duration": 0.02994791666662877
                },
                {
                    "name": "G4",
                    "midi": 67,
                    "time": 680.9374999999999,
                    "velocity": 0.6929133858267716,
                    "duration": 0.02994791666662877
                },
                {
                    "name": "D5",
                    "midi": 74,
                    "time": 680.9374999999999,
                    "velocity": 0.6929133858267716,
                    "duration": 0.02994791666662877
                },
                {
                    "name": "D5",
                    "midi": 74,
                    "time": 681.0937499999999,
                    "velocity": 0.8976377952755905,
                    "duration": 0.15625
                },
                {
                    "name": "G5",
                    "midi": 79,
                    "time": 681.0937499999999,
                    "velocity": 0.8976377952755905,
                    "duration": 0.15625
                },
                {
                    "name": "G4",
                    "midi": 67,
                    "time": 681.2499999999999,
                    "velocity": 0.6929133858267716,
                    "duration": 0.02994791666662877
                },
                {
                    "name": "D5",
                    "midi": 74,
                    "time": 681.2499999999999,
                    "velocity": 0.6929133858267716,
                    "duration": 0.02994791666662877
                },
                {
                    "name": "G4",
                    "midi": 67,
                    "time": 681.4062499999999,
                    "velocity": 0.6929133858267716,
                    "duration": 0.02994791666662877
                },
                {
                    "name": "D5",
                    "midi": 74,
                    "time": 681.4062499999999,
                    "velocity": 0.6929133858267716,
                    "duration": 0.02994791666662877
                },
                {
                    "name": "G4",
                    "midi": 67,
                    "time": 681.5624999999999,
                    "velocity": 0.6929133858267716,
                    "duration": 0.02994791666662877
                },
                {
                    "name": "D5",
                    "midi": 74,
                    "time": 681.5624999999999,
                    "velocity": 0.6929133858267716,
                    "duration": 0.02994791666662877
                },
                {
                    "name": "D5",
                    "midi": 74,
                    "time": 681.7187499999999,
                    "velocity": 0.8976377952755905,
                    "duration": 0.15625
                },
                {
                    "name": "G5",
                    "midi": 79,
                    "time": 681.7187499999999,
                    "velocity": 0.8976377952755905,
                    "duration": 0.15625
                },
                {
                    "name": "G4",
                    "midi": 67,
                    "time": 681.8749999999999,
                    "velocity": 0.6929133858267716,
                    "duration": 0.02994791666662877
                },
                {
                    "name": "D5",
                    "midi": 74,
                    "time": 681.8749999999999,
                    "velocity": 0.6929133858267716,
                    "duration": 0.02994791666662877
                },
                {
                    "name": "G4",
                    "midi": 67,
                    "time": 682.0312499999999,
                    "velocity": 0.6929133858267716,
                    "duration": 0.02994791666662877
                },
                {
                    "name": "D5",
                    "midi": 74,
                    "time": 682.0312499999999,
                    "velocity": 0.6929133858267716,
                    "duration": 0.02994791666662877
                },
                {
                    "name": "G4",
                    "midi": 67,
                    "time": 682.1874999999999,
                    "velocity": 0.6929133858267716,
                    "duration": 0.02994791666662877
                },
                {
                    "name": "D5",
                    "midi": 74,
                    "time": 682.1874999999999,
                    "velocity": 0.6929133858267716,
                    "duration": 0.02994791666662877
                },
                {
                    "name": "D5",
                    "midi": 74,
                    "time": 682.3437499999999,
                    "velocity": 0.8976377952755905,
                    "duration": 0.15625
                },
                {
                    "name": "G5",
                    "midi": 79,
                    "time": 682.3437499999999,
                    "velocity": 0.8976377952755905,
                    "duration": 0.15625
                },
                {
                    "name": "G4",
                    "midi": 67,
                    "time": 682.4999999999999,
                    "velocity": 0.6929133858267716,
                    "duration": 0.02994791666662877
                },
                {
                    "name": "D5",
                    "midi": 74,
                    "time": 682.4999999999999,
                    "velocity": 0.6929133858267716,
                    "duration": 0.02994791666662877
                },
                {
                    "name": "G4",
                    "midi": 67,
                    "time": 682.6562499999999,
                    "velocity": 0.6929133858267716,
                    "duration": 0.02994791666662877
                },
                {
                    "name": "D5",
                    "midi": 74,
                    "time": 682.6562499999999,
                    "velocity": 0.6929133858267716,
                    "duration": 0.02994791666662877
                },
                {
                    "name": "G4",
                    "midi": 67,
                    "time": 682.8124999999999,
                    "velocity": 0.6929133858267716,
                    "duration": 0.02994791666662877
                },
                {
                    "name": "D5",
                    "midi": 74,
                    "time": 682.8124999999999,
                    "velocity": 0.6929133858267716,
                    "duration": 0.02994791666662877
                },
                {
                    "name": "D5",
                    "midi": 74,
                    "time": 682.9687499999999,
                    "velocity": 0.8976377952755905,
                    "duration": 0.15625
                },
                {
                    "name": "G5",
                    "midi": 79,
                    "time": 682.9687499999999,
                    "velocity": 0.8976377952755905,
                    "duration": 0.15625
                },
                {
                    "name": "G4",
                    "midi": 67,
                    "time": 683.1249999999999,
                    "velocity": 0.6929133858267716,
                    "duration": 0.02994791666662877
                },
                {
                    "name": "D5",
                    "midi": 74,
                    "time": 683.1249999999999,
                    "velocity": 0.6929133858267716,
                    "duration": 0.02994791666662877
                },
                {
                    "name": "G4",
                    "midi": 67,
                    "time": 683.2812499999999,
                    "velocity": 0.6929133858267716,
                    "duration": 0.02994791666662877
                },
                {
                    "name": "D5",
                    "midi": 74,
                    "time": 683.2812499999999,
                    "velocity": 0.6929133858267716,
                    "duration": 0.02994791666662877
                },
                {
                    "name": "G4",
                    "midi": 67,
                    "time": 683.4374999999999,
                    "velocity": 0.6929133858267716,
                    "duration": 0.02994791666662877
                },
                {
                    "name": "D5",
                    "midi": 74,
                    "time": 683.4374999999999,
                    "velocity": 0.6929133858267716,
                    "duration": 0.02994791666662877
                },
                {
                    "name": "D5",
                    "midi": 74,
                    "time": 683.5937499999999,
                    "velocity": 0.8976377952755905,
                    "duration": 0.15625
                },
                {
                    "name": "G5",
                    "midi": 79,
                    "time": 683.5937499999999,
                    "velocity": 0.8976377952755905,
                    "duration": 0.15625
                },
                {
                    "name": "G4",
                    "midi": 67,
                    "time": 683.7499999999999,
                    "velocity": 0.6929133858267716,
                    "duration": 0.02994791666662877
                },
                {
                    "name": "D5",
                    "midi": 74,
                    "time": 683.7499999999999,
                    "velocity": 0.6929133858267716,
                    "duration": 0.02994791666662877
                },
                {
                    "name": "G4",
                    "midi": 67,
                    "time": 683.9062499999999,
                    "velocity": 0.6929133858267716,
                    "duration": 0.02994791666662877
                },
                {
                    "name": "D5",
                    "midi": 74,
                    "time": 683.9062499999999,
                    "velocity": 0.6929133858267716,
                    "duration": 0.02994791666662877
                },
                {
                    "name": "G4",
                    "midi": 67,
                    "time": 684.0624999999999,
                    "velocity": 0.6929133858267716,
                    "duration": 0.02994791666662877
                },
                {
                    "name": "D5",
                    "midi": 74,
                    "time": 684.0624999999999,
                    "velocity": 0.6929133858267716,
                    "duration": 0.02994791666662877
                },
                {
                    "name": "D5",
                    "midi": 74,
                    "time": 684.2187499999999,
                    "velocity": 0.8976377952755905,
                    "duration": 0.15625
                },
                {
                    "name": "G5",
                    "midi": 79,
                    "time": 684.2187499999999,
                    "velocity": 0.8976377952755905,
                    "duration": 0.15625
                },
                {
                    "name": "G4",
                    "midi": 67,
                    "time": 684.3749999999999,
                    "velocity": 0.6929133858267716,
                    "duration": 0.02994791666662877
                },
                {
                    "name": "D5",
                    "midi": 74,
                    "time": 684.3749999999999,
                    "velocity": 0.6929133858267716,
                    "duration": 0.02994791666662877
                },
                {
                    "name": "G4",
                    "midi": 67,
                    "time": 684.5312499999999,
                    "velocity": 0.6929133858267716,
                    "duration": 0.02994791666662877
                },
                {
                    "name": "D5",
                    "midi": 74,
                    "time": 684.5312499999999,
                    "velocity": 0.6929133858267716,
                    "duration": 0.02994791666662877
                },
                {
                    "name": "G4",
                    "midi": 67,
                    "time": 684.6874999999999,
                    "velocity": 0.6929133858267716,
                    "duration": 0.02994791666662877
                },
                {
                    "name": "D5",
                    "midi": 74,
                    "time": 684.6874999999999,
                    "velocity": 0.6929133858267716,
                    "duration": 0.02994791666662877
                },
                {
                    "name": "D5",
                    "midi": 74,
                    "time": 684.8437499999999,
                    "velocity": 0.8976377952755905,
                    "duration": 0.15625
                },
                {
                    "name": "G5",
                    "midi": 79,
                    "time": 684.8437499999999,
                    "velocity": 0.8976377952755905,
                    "duration": 0.15625
                },
                {
                    "name": "G4",
                    "midi": 67,
                    "time": 684.9999999999999,
                    "velocity": 0.6929133858267716,
                    "duration": 0.02994791666662877
                },
                {
                    "name": "D5",
                    "midi": 74,
                    "time": 684.9999999999999,
                    "velocity": 0.6929133858267716,
                    "duration": 0.02994791666662877
                },
                {
                    "name": "G4",
                    "midi": 67,
                    "time": 685.1562499999999,
                    "velocity": 0.6929133858267716,
                    "duration": 0.02994791666662877
                },
                {
                    "name": "D5",
                    "midi": 74,
                    "time": 685.1562499999999,
                    "velocity": 0.6929133858267716,
                    "duration": 0.02994791666662877
                },
                {
                    "name": "G4",
                    "midi": 67,
                    "time": 685.3124999999999,
                    "velocity": 0.6929133858267716,
                    "duration": 0.02994791666662877
                },
                {
                    "name": "D5",
                    "midi": 74,
                    "time": 685.3124999999999,
                    "velocity": 0.6929133858267716,
                    "duration": 0.02994791666662877
                },
                {
                    "name": "D5",
                    "midi": 74,
                    "time": 685.4687499999999,
                    "velocity": 0.8976377952755905,
                    "duration": 0.15625
                },
                {
                    "name": "G5",
                    "midi": 79,
                    "time": 685.4687499999999,
                    "velocity": 0.8976377952755905,
                    "duration": 0.15625
                },
                {
                    "name": "G4",
                    "midi": 67,
                    "time": 685.6249999999999,
                    "velocity": 0.6929133858267716,
                    "duration": 0.02994791666662877
                },
                {
                    "name": "D5",
                    "midi": 74,
                    "time": 685.6249999999999,
                    "velocity": 0.6929133858267716,
                    "duration": 0.02994791666662877
                },
                {
                    "name": "G4",
                    "midi": 67,
                    "time": 685.7812499999999,
                    "velocity": 0.6929133858267716,
                    "duration": 0.02994791666662877
                },
                {
                    "name": "D5",
                    "midi": 74,
                    "time": 685.7812499999999,
                    "velocity": 0.6929133858267716,
                    "duration": 0.02994791666662877
                },
                {
                    "name": "G4",
                    "midi": 67,
                    "time": 685.9374999999999,
                    "velocity": 0.6929133858267716,
                    "duration": 0.02994791666662877
                },
                {
                    "name": "D5",
                    "midi": 74,
                    "time": 685.9374999999999,
                    "velocity": 0.6929133858267716,
                    "duration": 0.02994791666662877
                },
                {
                    "name": "D5",
                    "midi": 74,
                    "time": 686.0937499999999,
                    "velocity": 0.8976377952755905,
                    "duration": 0.15625
                },
                {
                    "name": "G5",
                    "midi": 79,
                    "time": 686.0937499999999,
                    "velocity": 0.8976377952755905,
                    "duration": 0.15625
                },
                {
                    "name": "D5",
                    "midi": 74,
                    "time": 686.2499999999999,
                    "velocity": 0.6929133858267716,
                    "duration": 0.02994791666662877
                },
                {
                    "name": "G5",
                    "midi": 79,
                    "time": 686.2499999999999,
                    "velocity": 0.6929133858267716,
                    "duration": 0.02994791666662877
                },
                {
                    "name": "D5",
                    "midi": 74,
                    "time": 686.4062499999999,
                    "velocity": 0.6929133858267716,
                    "duration": 0.02994791666662877
                },
                {
                    "name": "G5",
                    "midi": 79,
                    "time": 686.4062499999999,
                    "velocity": 0.6929133858267716,
                    "duration": 0.02994791666662877
                },
                {
                    "name": "D5",
                    "midi": 74,
                    "time": 686.5624999999999,
                    "velocity": 0.6929133858267716,
                    "duration": 0.02994791666662877
                },
                {
                    "name": "G5",
                    "midi": 79,
                    "time": 686.5624999999999,
                    "velocity": 0.6929133858267716,
                    "duration": 0.02994791666662877
                },
                {
                    "name": "G5",
                    "midi": 79,
                    "time": 686.7187499999999,
                    "velocity": 0.8976377952755905,
                    "duration": 0.15625
                },
                {
                    "name": "D6",
                    "midi": 86,
                    "time": 686.7187499999999,
                    "velocity": 0.8976377952755905,
                    "duration": 0.15625
                },
                {
                    "name": "D5",
                    "midi": 74,
                    "time": 686.8749999999999,
                    "velocity": 0.6929133858267716,
                    "duration": 0.02994791666662877
                },
                {
                    "name": "G5",
                    "midi": 79,
                    "time": 686.8749999999999,
                    "velocity": 0.6929133858267716,
                    "duration": 0.02994791666662877
                },
                {
                    "name": "D5",
                    "midi": 74,
                    "time": 687.0312499999999,
                    "velocity": 0.6929133858267716,
                    "duration": 0.02994791666662877
                },
                {
                    "name": "G5",
                    "midi": 79,
                    "time": 687.0312499999999,
                    "velocity": 0.6929133858267716,
                    "duration": 0.02994791666662877
                },
                {
                    "name": "D5",
                    "midi": 74,
                    "time": 687.1874999999999,
                    "velocity": 0.6929133858267716,
                    "duration": 0.02994791666662877
                },
                {
                    "name": "G5",
                    "midi": 79,
                    "time": 687.1874999999999,
                    "velocity": 0.6929133858267716,
                    "duration": 0.02994791666662877
                },
                {
                    "name": "G5",
                    "midi": 79,
                    "time": 687.3437499999999,
                    "velocity": 0.8976377952755905,
                    "duration": 0.15625
                },
                {
                    "name": "D6",
                    "midi": 86,
                    "time": 687.3437499999999,
                    "velocity": 0.8976377952755905,
                    "duration": 0.15625
                },
                {
                    "name": "G5",
                    "midi": 79,
                    "time": 687.4999999999999,
                    "velocity": 0.6929133858267716,
                    "duration": 0.02994791666662877
                },
                {
                    "name": "D6",
                    "midi": 86,
                    "time": 687.4999999999999,
                    "velocity": 0.6929133858267716,
                    "duration": 0.02994791666662877
                },
                {
                    "name": "G5",
                    "midi": 79,
                    "time": 687.6562499999999,
                    "velocity": 0.6929133858267716,
                    "duration": 0.02994791666662877
                },
                {
                    "name": "D6",
                    "midi": 86,
                    "time": 687.6562499999999,
                    "velocity": 0.6929133858267716,
                    "duration": 0.02994791666662877
                },
                {
                    "name": "G5",
                    "midi": 79,
                    "time": 687.8124999999999,
                    "velocity": 0.6929133858267716,
                    "duration": 0.02994791666662877
                },
                {
                    "name": "D6",
                    "midi": 86,
                    "time": 687.8124999999999,
                    "velocity": 0.6929133858267716,
                    "duration": 0.02994791666662877
                },
                {
                    "name": "D6",
                    "midi": 86,
                    "time": 687.9687499999999,
                    "velocity": 0.8976377952755905,
                    "duration": 0.15625
                },
                {
                    "name": "G6",
                    "midi": 91,
                    "time": 687.9687499999999,
                    "velocity": 0.8976377952755905,
                    "duration": 0.15625
                },
                {
                    "name": "G5",
                    "midi": 79,
                    "time": 688.1249999999999,
                    "velocity": 0.6929133858267716,
                    "duration": 0.02994791666662877
                },
                {
                    "name": "D6",
                    "midi": 86,
                    "time": 688.1249999999999,
                    "velocity": 0.6929133858267716,
                    "duration": 0.02994791666662877
                },
                {
                    "name": "G5",
                    "midi": 79,
                    "time": 688.2812499999999,
                    "velocity": 0.6929133858267716,
                    "duration": 0.02994791666662877
                },
                {
                    "name": "D6",
                    "midi": 86,
                    "time": 688.2812499999999,
                    "velocity": 0.6929133858267716,
                    "duration": 0.02994791666662877
                },
                {
                    "name": "G5",
                    "midi": 79,
                    "time": 688.4374999999999,
                    "velocity": 0.6929133858267716,
                    "duration": 0.02994791666662877
                },
                {
                    "name": "D6",
                    "midi": 86,
                    "time": 688.4374999999999,
                    "velocity": 0.6929133858267716,
                    "duration": 0.02994791666662877
                },
                {
                    "name": "D6",
                    "midi": 86,
                    "time": 688.5937499999999,
                    "velocity": 0.8976377952755905,
                    "duration": 0.15625
                },
                {
                    "name": "G6",
                    "midi": 91,
                    "time": 688.5937499999999,
                    "velocity": 0.8976377952755905,
                    "duration": 0.15625
                },
                {
                    "name": "G5",
                    "midi": 79,
                    "time": 688.7499999999999,
                    "velocity": 0.6929133858267716,
                    "duration": 0.02994791666662877
                },
                {
                    "name": "D6",
                    "midi": 86,
                    "time": 688.7499999999999,
                    "velocity": 0.6929133858267716,
                    "duration": 0.02994791666662877
                },
                {
                    "name": "G5",
                    "midi": 79,
                    "time": 688.9062499999999,
                    "velocity": 0.6929133858267716,
                    "duration": 0.02994791666662877
                },
                {
                    "name": "D6",
                    "midi": 86,
                    "time": 688.9062499999999,
                    "velocity": 0.6929133858267716,
                    "duration": 0.02994791666662877
                },
                {
                    "name": "G5",
                    "midi": 79,
                    "time": 689.0624999999999,
                    "velocity": 0.6929133858267716,
                    "duration": 0.02994791666662877
                },
                {
                    "name": "D6",
                    "midi": 86,
                    "time": 689.0624999999999,
                    "velocity": 0.6929133858267716,
                    "duration": 0.02994791666662877
                },
                {
                    "name": "D6",
                    "midi": 86,
                    "time": 689.2187499999999,
                    "velocity": 0.8976377952755905,
                    "duration": 0.15625
                },
                {
                    "name": "G6",
                    "midi": 91,
                    "time": 689.2187499999999,
                    "velocity": 0.8976377952755905,
                    "duration": 0.15625
                },
                {
                    "name": "G5",
                    "midi": 79,
                    "time": 689.3749999999999,
                    "velocity": 0.6929133858267716,
                    "duration": 0.02994791666662877
                },
                {
                    "name": "D6",
                    "midi": 86,
                    "time": 689.3749999999999,
                    "velocity": 0.6929133858267716,
                    "duration": 0.02994791666662877
                },
                {
                    "name": "G5",
                    "midi": 79,
                    "time": 689.5312499999999,
                    "velocity": 0.6929133858267716,
                    "duration": 0.02994791666662877
                },
                {
                    "name": "D6",
                    "midi": 86,
                    "time": 689.5312499999999,
                    "velocity": 0.6929133858267716,
                    "duration": 0.02994791666662877
                },
                {
                    "name": "G5",
                    "midi": 79,
                    "time": 689.6874999999999,
                    "velocity": 0.6929133858267716,
                    "duration": 0.02994791666662877
                },
                {
                    "name": "D6",
                    "midi": 86,
                    "time": 689.6874999999999,
                    "velocity": 0.6929133858267716,
                    "duration": 0.02994791666662877
                },
                {
                    "name": "D6",
                    "midi": 86,
                    "time": 689.8437499999999,
                    "velocity": 0.8976377952755905,
                    "duration": 0.15625
                },
                {
                    "name": "G6",
                    "midi": 91,
                    "time": 689.8437499999999,
                    "velocity": 0.8976377952755905,
                    "duration": 0.15625
                },
                {
                    "name": "G5",
                    "midi": 79,
                    "time": 689.9999999999999,
                    "velocity": 0.6929133858267716,
                    "duration": 0.02994791666662877
                },
                {
                    "name": "D6",
                    "midi": 86,
                    "time": 689.9999999999999,
                    "velocity": 0.6929133858267716,
                    "duration": 0.02994791666662877
                },
                {
                    "name": "G5",
                    "midi": 79,
                    "time": 690.1562499999999,
                    "velocity": 0.6929133858267716,
                    "duration": 0.02994791666662877
                },
                {
                    "name": "D6",
                    "midi": 86,
                    "time": 690.1562499999999,
                    "velocity": 0.6929133858267716,
                    "duration": 0.02994791666662877
                },
                {
                    "name": "G5",
                    "midi": 79,
                    "time": 690.3124999999999,
                    "velocity": 0.6929133858267716,
                    "duration": 0.02994791666662877
                },
                {
                    "name": "D6",
                    "midi": 86,
                    "time": 690.3124999999999,
                    "velocity": 0.6929133858267716,
                    "duration": 0.02994791666662877
                },
                {
                    "name": "D6",
                    "midi": 86,
                    "time": 690.4687499999999,
                    "velocity": 0.8976377952755905,
                    "duration": 0.15625
                },
                {
                    "name": "G6",
                    "midi": 91,
                    "time": 690.4687499999999,
                    "velocity": 0.8976377952755905,
                    "duration": 0.15625
                },
                {
                    "name": "G5",
                    "midi": 79,
                    "time": 690.6249999999999,
                    "velocity": 0.6929133858267716,
                    "duration": 0.02994791666662877
                },
                {
                    "name": "D6",
                    "midi": 86,
                    "time": 690.6249999999999,
                    "velocity": 0.6929133858267716,
                    "duration": 0.02994791666662877
                },
                {
                    "name": "G5",
                    "midi": 79,
                    "time": 690.7812499999999,
                    "velocity": 0.6929133858267716,
                    "duration": 0.02994791666662877
                },
                {
                    "name": "D6",
                    "midi": 86,
                    "time": 690.7812499999999,
                    "velocity": 0.6929133858267716,
                    "duration": 0.02994791666662877
                },
                {
                    "name": "G5",
                    "midi": 79,
                    "time": 690.9374999999999,
                    "velocity": 0.6929133858267716,
                    "duration": 0.02994791666662877
                },
                {
                    "name": "D6",
                    "midi": 86,
                    "time": 690.9374999999999,
                    "velocity": 0.6929133858267716,
                    "duration": 0.02994791666662877
                },
                {
                    "name": "D6",
                    "midi": 86,
                    "time": 691.0937499999999,
                    "velocity": 0.8976377952755905,
                    "duration": 0.15625
                },
                {
                    "name": "G6",
                    "midi": 91,
                    "time": 691.0937499999999,
                    "velocity": 0.8976377952755905,
                    "duration": 0.15625
                },
                {
                    "name": "G5",
                    "midi": 79,
                    "time": 691.2499999999999,
                    "velocity": 0.6929133858267716,
                    "duration": 0.02994791666662877
                },
                {
                    "name": "D6",
                    "midi": 86,
                    "time": 691.2499999999999,
                    "velocity": 0.6929133858267716,
                    "duration": 0.02994791666662877
                },
                {
                    "name": "G5",
                    "midi": 79,
                    "time": 691.4062499999999,
                    "velocity": 0.6929133858267716,
                    "duration": 0.02994791666662877
                },
                {
                    "name": "D6",
                    "midi": 86,
                    "time": 691.4062499999999,
                    "velocity": 0.6929133858267716,
                    "duration": 0.02994791666662877
                },
                {
                    "name": "G5",
                    "midi": 79,
                    "time": 691.5624999999999,
                    "velocity": 0.6929133858267716,
                    "duration": 0.02994791666662877
                },
                {
                    "name": "D6",
                    "midi": 86,
                    "time": 691.5624999999999,
                    "velocity": 0.6929133858267716,
                    "duration": 0.02994791666662877
                },
                {
                    "name": "D6",
                    "midi": 86,
                    "time": 691.7187499999999,
                    "velocity": 0.8976377952755905,
                    "duration": 0.15625
                },
                {
                    "name": "G6",
                    "midi": 91,
                    "time": 691.7187499999999,
                    "velocity": 0.8976377952755905,
                    "duration": 0.15625
                },
                {
                    "name": "G5",
                    "midi": 79,
                    "time": 691.8749999999999,
                    "velocity": 0.6929133858267716,
                    "duration": 0.02994791666662877
                },
                {
                    "name": "D6",
                    "midi": 86,
                    "time": 691.8749999999999,
                    "velocity": 0.6929133858267716,
                    "duration": 0.02994791666662877
                },
                {
                    "name": "G5",
                    "midi": 79,
                    "time": 692.0312499999999,
                    "velocity": 0.6929133858267716,
                    "duration": 0.02994791666662877
                },
                {
                    "name": "D6",
                    "midi": 86,
                    "time": 692.0312499999999,
                    "velocity": 0.6929133858267716,
                    "duration": 0.02994791666662877
                },
                {
                    "name": "G5",
                    "midi": 79,
                    "time": 692.1874999999999,
                    "velocity": 0.6929133858267716,
                    "duration": 0.02994791666662877
                },
                {
                    "name": "D6",
                    "midi": 86,
                    "time": 692.1874999999999,
                    "velocity": 0.6929133858267716,
                    "duration": 0.02994791666662877
                },
                {
                    "name": "D6",
                    "midi": 86,
                    "time": 692.3437499999999,
                    "velocity": 0.8976377952755905,
                    "duration": 0.15625
                },
                {
                    "name": "G6",
                    "midi": 91,
                    "time": 692.3437499999999,
                    "velocity": 0.8976377952755905,
                    "duration": 0.15625
                },
                {
                    "name": "G5",
                    "midi": 79,
                    "time": 692.4999999999999,
                    "velocity": 0.6929133858267716,
                    "duration": 0.02994791666662877
                },
                {
                    "name": "D6",
                    "midi": 86,
                    "time": 692.4999999999999,
                    "velocity": 0.6929133858267716,
                    "duration": 0.02994791666662877
                },
                {
                    "name": "G5",
                    "midi": 79,
                    "time": 692.6562499999999,
                    "velocity": 0.6929133858267716,
                    "duration": 0.02994791666662877
                },
                {
                    "name": "D6",
                    "midi": 86,
                    "time": 692.6562499999999,
                    "velocity": 0.6929133858267716,
                    "duration": 0.02994791666662877
                },
                {
                    "name": "G5",
                    "midi": 79,
                    "time": 692.8124999999999,
                    "velocity": 0.6929133858267716,
                    "duration": 0.02994791666662877
                },
                {
                    "name": "D6",
                    "midi": 86,
                    "time": 692.8124999999999,
                    "velocity": 0.6929133858267716,
                    "duration": 0.02994791666662877
                },
                {
                    "name": "D6",
                    "midi": 86,
                    "time": 692.9687499999999,
                    "velocity": 0.8976377952755905,
                    "duration": 0.15625
                },
                {
                    "name": "G6",
                    "midi": 91,
                    "time": 692.9687499999999,
                    "velocity": 0.8976377952755905,
                    "duration": 0.15625
                },
                {
                    "name": "G5",
                    "midi": 79,
                    "time": 693.1249999999999,
                    "velocity": 0.6929133858267716,
                    "duration": 0.02994791666662877
                },
                {
                    "name": "D6",
                    "midi": 86,
                    "time": 693.1249999999999,
                    "velocity": 0.6929133858267716,
                    "duration": 0.02994791666662877
                },
                {
                    "name": "G5",
                    "midi": 79,
                    "time": 693.2812499999999,
                    "velocity": 0.6929133858267716,
                    "duration": 0.02994791666662877
                },
                {
                    "name": "D6",
                    "midi": 86,
                    "time": 693.2812499999999,
                    "velocity": 0.6929133858267716,
                    "duration": 0.02994791666662877
                },
                {
                    "name": "G5",
                    "midi": 79,
                    "time": 693.4374999999999,
                    "velocity": 0.6929133858267716,
                    "duration": 0.02994791666662877
                },
                {
                    "name": "D6",
                    "midi": 86,
                    "time": 693.4374999999999,
                    "velocity": 0.6929133858267716,
                    "duration": 0.02994791666662877
                },
                {
                    "name": "D6",
                    "midi": 86,
                    "time": 693.5937499999999,
                    "velocity": 0.8976377952755905,
                    "duration": 0.15625
                },
                {
                    "name": "G6",
                    "midi": 91,
                    "time": 693.5937499999999,
                    "velocity": 0.8976377952755905,
                    "duration": 0.15625
                },
                {
                    "name": "G5",
                    "midi": 79,
                    "time": 693.7499999999999,
                    "velocity": 0.6929133858267716,
                    "duration": 0.02994791666662877
                },
                {
                    "name": "D6",
                    "midi": 86,
                    "time": 693.7499999999999,
                    "velocity": 0.6929133858267716,
                    "duration": 0.02994791666662877
                },
                {
                    "name": "G5",
                    "midi": 79,
                    "time": 693.9062499999999,
                    "velocity": 0.6929133858267716,
                    "duration": 0.02994791666662877
                },
                {
                    "name": "D6",
                    "midi": 86,
                    "time": 693.9062499999999,
                    "velocity": 0.6929133858267716,
                    "duration": 0.02994791666662877
                },
                {
                    "name": "G5",
                    "midi": 79,
                    "time": 694.0624999999999,
                    "velocity": 0.6929133858267716,
                    "duration": 0.02994791666662877
                },
                {
                    "name": "D6",
                    "midi": 86,
                    "time": 694.0624999999999,
                    "velocity": 0.6929133858267716,
                    "duration": 0.02994791666662877
                },
                {
                    "name": "D6",
                    "midi": 86,
                    "time": 694.2187499999999,
                    "velocity": 0.8976377952755905,
                    "duration": 0.15625
                },
                {
                    "name": "G6",
                    "midi": 91,
                    "time": 694.2187499999999,
                    "velocity": 0.8976377952755905,
                    "duration": 0.15625
                },
                {
                    "name": "G5",
                    "midi": 79,
                    "time": 694.3749999999999,
                    "velocity": 0.6929133858267716,
                    "duration": 0.02994791666662877
                },
                {
                    "name": "D6",
                    "midi": 86,
                    "time": 694.3749999999999,
                    "velocity": 0.6929133858267716,
                    "duration": 0.02994791666662877
                },
                {
                    "name": "G5",
                    "midi": 79,
                    "time": 694.5312499999999,
                    "velocity": 0.6929133858267716,
                    "duration": 0.02994791666662877
                },
                {
                    "name": "D6",
                    "midi": 86,
                    "time": 694.5312499999999,
                    "velocity": 0.6929133858267716,
                    "duration": 0.02994791666662877
                },
                {
                    "name": "G5",
                    "midi": 79,
                    "time": 694.6874999999999,
                    "velocity": 0.6929133858267716,
                    "duration": 0.02994791666662877
                },
                {
                    "name": "D6",
                    "midi": 86,
                    "time": 694.6874999999999,
                    "velocity": 0.6929133858267716,
                    "duration": 0.02994791666662877
                },
                {
                    "name": "D6",
                    "midi": 86,
                    "time": 694.8437499999999,
                    "velocity": 0.8976377952755905,
                    "duration": 0.15625
                },
                {
                    "name": "G6",
                    "midi": 91,
                    "time": 694.8437499999999,
                    "velocity": 0.8976377952755905,
                    "duration": 0.15625
                },
                {
                    "name": "G5",
                    "midi": 79,
                    "time": 694.9999999999999,
                    "velocity": 0.6929133858267716,
                    "duration": 0.02994791666662877
                },
                {
                    "name": "D6",
                    "midi": 86,
                    "time": 694.9999999999999,
                    "velocity": 0.6929133858267716,
                    "duration": 0.02994791666662877
                },
                {
                    "name": "G5",
                    "midi": 79,
                    "time": 695.1562499999999,
                    "velocity": 0.6929133858267716,
                    "duration": 0.02994791666662877
                },
                {
                    "name": "D6",
                    "midi": 86,
                    "time": 695.1562499999999,
                    "velocity": 0.6929133858267716,
                    "duration": 0.02994791666662877
                },
                {
                    "name": "G5",
                    "midi": 79,
                    "time": 695.3124999999999,
                    "velocity": 0.6929133858267716,
                    "duration": 0.02994791666662877
                },
                {
                    "name": "D6",
                    "midi": 86,
                    "time": 695.3124999999999,
                    "velocity": 0.6929133858267716,
                    "duration": 0.02994791666662877
                },
                {
                    "name": "D6",
                    "midi": 86,
                    "time": 695.4687499999999,
                    "velocity": 0.8976377952755905,
                    "duration": 0.15625
                },
                {
                    "name": "G6",
                    "midi": 91,
                    "time": 695.4687499999999,
                    "velocity": 0.8976377952755905,
                    "duration": 0.15625
                },
                {
                    "name": "G5",
                    "midi": 79,
                    "time": 695.6249999999999,
                    "velocity": 0.6929133858267716,
                    "duration": 0.02994791666662877
                },
                {
                    "name": "D6",
                    "midi": 86,
                    "time": 695.6249999999999,
                    "velocity": 0.6929133858267716,
                    "duration": 0.02994791666662877
                },
                {
                    "name": "G5",
                    "midi": 79,
                    "time": 695.7812499999999,
                    "velocity": 0.6929133858267716,
                    "duration": 0.02994791666662877
                },
                {
                    "name": "D6",
                    "midi": 86,
                    "time": 695.7812499999999,
                    "velocity": 0.6929133858267716,
                    "duration": 0.02994791666662877
                },
                {
                    "name": "G5",
                    "midi": 79,
                    "time": 695.9374999999999,
                    "velocity": 0.6929133858267716,
                    "duration": 0.02994791666662877
                },
                {
                    "name": "D6",
                    "midi": 86,
                    "time": 695.9374999999999,
                    "velocity": 0.6929133858267716,
                    "duration": 0.02994791666662877
                },
                {
                    "name": "D6",
                    "midi": 86,
                    "time": 696.0937499999999,
                    "velocity": 0.8976377952755905,
                    "duration": 0.15625
                },
                {
                    "name": "G6",
                    "midi": 91,
                    "time": 696.0937499999999,
                    "velocity": 0.8976377952755905,
                    "duration": 0.15625
                },
                {
                    "name": "G5",
                    "midi": 79,
                    "time": 696.2499999999999,
                    "velocity": 0.6929133858267716,
                    "duration": 0.02994791666662877
                },
                {
                    "name": "D6",
                    "midi": 86,
                    "time": 696.2499999999999,
                    "velocity": 0.6929133858267716,
                    "duration": 0.02994791666662877
                },
                {
                    "name": "G5",
                    "midi": 79,
                    "time": 696.4062499999999,
                    "velocity": 0.6929133858267716,
                    "duration": 0.02994791666662877
                },
                {
                    "name": "D6",
                    "midi": 86,
                    "time": 696.4062499999999,
                    "velocity": 0.6929133858267716,
                    "duration": 0.02994791666662877
                },
                {
                    "name": "G5",
                    "midi": 79,
                    "time": 696.5624999999999,
                    "velocity": 0.6929133858267716,
                    "duration": 0.02994791666662877
                },
                {
                    "name": "D6",
                    "midi": 86,
                    "time": 696.5624999999999,
                    "velocity": 0.6929133858267716,
                    "duration": 0.02994791666662877
                },
                {
                    "name": "D6",
                    "midi": 86,
                    "time": 696.7187499999999,
                    "velocity": 0.8976377952755905,
                    "duration": 0.15625
                },
                {
                    "name": "G6",
                    "midi": 91,
                    "time": 696.7187499999999,
                    "velocity": 0.8976377952755905,
                    "duration": 0.15625
                },
                {
                    "name": "G5",
                    "midi": 79,
                    "time": 696.8749999999999,
                    "velocity": 0.6929133858267716,
                    "duration": 0.02994791666662877
                },
                {
                    "name": "D6",
                    "midi": 86,
                    "time": 696.8749999999999,
                    "velocity": 0.6929133858267716,
                    "duration": 0.02994791666662877
                },
                {
                    "name": "G5",
                    "midi": 79,
                    "time": 697.0312499999999,
                    "velocity": 0.6929133858267716,
                    "duration": 0.02994791666662877
                },
                {
                    "name": "D6",
                    "midi": 86,
                    "time": 697.0312499999999,
                    "velocity": 0.6929133858267716,
                    "duration": 0.02994791666662877
                },
                {
                    "name": "G5",
                    "midi": 79,
                    "time": 697.1874999999999,
                    "velocity": 0.6929133858267716,
                    "duration": 0.02994791666662877
                },
                {
                    "name": "D6",
                    "midi": 86,
                    "time": 697.1874999999999,
                    "velocity": 0.6929133858267716,
                    "duration": 0.02994791666662877
                },
                {
                    "name": "D6",
                    "midi": 86,
                    "time": 697.3437499999999,
                    "velocity": 0.8976377952755905,
                    "duration": 0.15625
                },
                {
                    "name": "G6",
                    "midi": 91,
                    "time": 697.3437499999999,
                    "velocity": 0.8976377952755905,
                    "duration": 0.15625
                },
                {
                    "name": "G5",
                    "midi": 79,
                    "time": 697.4999999999999,
                    "velocity": 0.6929133858267716,
                    "duration": 0.02994791666662877
                },
                {
                    "name": "D6",
                    "midi": 86,
                    "time": 697.4999999999999,
                    "velocity": 0.6929133858267716,
                    "duration": 0.02994791666662877
                },
                {
                    "name": "G5",
                    "midi": 79,
                    "time": 697.6562499999999,
                    "velocity": 0.6929133858267716,
                    "duration": 0.02994791666662877
                },
                {
                    "name": "D6",
                    "midi": 86,
                    "time": 697.6562499999999,
                    "velocity": 0.6929133858267716,
                    "duration": 0.02994791666662877
                },
                {
                    "name": "G5",
                    "midi": 79,
                    "time": 697.8124999999999,
                    "velocity": 0.6929133858267716,
                    "duration": 0.02994791666662877
                },
                {
                    "name": "D6",
                    "midi": 86,
                    "time": 697.8124999999999,
                    "velocity": 0.6929133858267716,
                    "duration": 0.02994791666662877
                },
                {
                    "name": "D6",
                    "midi": 86,
                    "time": 697.9687499999999,
                    "velocity": 0.8976377952755905,
                    "duration": 0.15625
                },
                {
                    "name": "G6",
                    "midi": 91,
                    "time": 697.9687499999999,
                    "velocity": 0.8976377952755905,
                    "duration": 0.15625
                },
                {
                    "name": "G5",
                    "midi": 79,
                    "time": 698.1249999999999,
                    "velocity": 0.6929133858267716,
                    "duration": 0.02994791666662877
                },
                {
                    "name": "D6",
                    "midi": 86,
                    "time": 698.1249999999999,
                    "velocity": 0.6929133858267716,
                    "duration": 0.02994791666662877
                },
                {
                    "name": "G5",
                    "midi": 79,
                    "time": 698.2812499999999,
                    "velocity": 0.6929133858267716,
                    "duration": 0.02994791666662877
                },
                {
                    "name": "D6",
                    "midi": 86,
                    "time": 698.2812499999999,
                    "velocity": 0.6929133858267716,
                    "duration": 0.02994791666662877
                },
                {
                    "name": "G5",
                    "midi": 79,
                    "time": 698.4374999999999,
                    "velocity": 0.6929133858267716,
                    "duration": 0.02994791666662877
                },
                {
                    "name": "D6",
                    "midi": 86,
                    "time": 698.4374999999999,
                    "velocity": 0.6929133858267716,
                    "duration": 0.02994791666662877
                },
                {
                    "name": "D6",
                    "midi": 86,
                    "time": 698.5937499999999,
                    "velocity": 0.8976377952755905,
                    "duration": 0.15625
                },
                {
                    "name": "G6",
                    "midi": 91,
                    "time": 698.5937499999999,
                    "velocity": 0.8976377952755905,
                    "duration": 0.15625
                },
                {
                    "name": "G5",
                    "midi": 79,
                    "time": 698.7499999999999,
                    "velocity": 0.6929133858267716,
                    "duration": 0.02994791666662877
                },
                {
                    "name": "D6",
                    "midi": 86,
                    "time": 698.7499999999999,
                    "velocity": 0.6929133858267716,
                    "duration": 0.02994791666662877
                },
                {
                    "name": "G5",
                    "midi": 79,
                    "time": 698.9062499999999,
                    "velocity": 0.6929133858267716,
                    "duration": 0.02994791666662877
                },
                {
                    "name": "D6",
                    "midi": 86,
                    "time": 698.9062499999999,
                    "velocity": 0.6929133858267716,
                    "duration": 0.02994791666662877
                },
                {
                    "name": "G5",
                    "midi": 79,
                    "time": 699.0624999999999,
                    "velocity": 0.6929133858267716,
                    "duration": 0.02994791666662877
                },
                {
                    "name": "D6",
                    "midi": 86,
                    "time": 699.0624999999999,
                    "velocity": 0.6929133858267716,
                    "duration": 0.02994791666662877
                },
                {
                    "name": "D6",
                    "midi": 86,
                    "time": 699.2187499999999,
                    "velocity": 0.8976377952755905,
                    "duration": 0.15625
                },
                {
                    "name": "G6",
                    "midi": 91,
                    "time": 699.2187499999999,
                    "velocity": 0.8976377952755905,
                    "duration": 0.15625
                },
                {
                    "name": "G5",
                    "midi": 79,
                    "time": 699.3749999999999,
                    "velocity": 0.6929133858267716,
                    "duration": 0.02994791666662877
                },
                {
                    "name": "D6",
                    "midi": 86,
                    "time": 699.3749999999999,
                    "velocity": 0.6929133858267716,
                    "duration": 0.02994791666662877
                },
                {
                    "name": "G5",
                    "midi": 79,
                    "time": 699.5312499999999,
                    "velocity": 0.6929133858267716,
                    "duration": 0.02994791666662877
                },
                {
                    "name": "D6",
                    "midi": 86,
                    "time": 699.5312499999999,
                    "velocity": 0.6929133858267716,
                    "duration": 0.02994791666662877
                },
                {
                    "name": "G5",
                    "midi": 79,
                    "time": 699.6874999999999,
                    "velocity": 0.6929133858267716,
                    "duration": 0.02994791666662877
                },
                {
                    "name": "D6",
                    "midi": 86,
                    "time": 699.6874999999999,
                    "velocity": 0.6929133858267716,
                    "duration": 0.02994791666662877
                },
                {
                    "name": "D6",
                    "midi": 86,
                    "time": 699.8437499999999,
                    "velocity": 0.8976377952755905,
                    "duration": 0.15625
                },
                {
                    "name": "G6",
                    "midi": 91,
                    "time": 699.8437499999999,
                    "velocity": 0.8976377952755905,
                    "duration": 0.15625
                },
                {
                    "name": "G5",
                    "midi": 79,
                    "time": 699.9999999999999,
                    "velocity": 0.6929133858267716,
                    "duration": 0.02994791666662877
                },
                {
                    "name": "D6",
                    "midi": 86,
                    "time": 699.9999999999999,
                    "velocity": 0.6929133858267716,
                    "duration": 0.02994791666662877
                },
                {
                    "name": "G5",
                    "midi": 79,
                    "time": 700.1562499999999,
                    "velocity": 0.6929133858267716,
                    "duration": 0.02994791666662877
                },
                {
                    "name": "D6",
                    "midi": 86,
                    "time": 700.1562499999999,
                    "velocity": 0.6929133858267716,
                    "duration": 0.02994791666662877
                },
                {
                    "name": "G5",
                    "midi": 79,
                    "time": 700.3124999999999,
                    "velocity": 0.6929133858267716,
                    "duration": 0.02994791666662877
                },
                {
                    "name": "D6",
                    "midi": 86,
                    "time": 700.3124999999999,
                    "velocity": 0.6929133858267716,
                    "duration": 0.02994791666662877
                },
                {
                    "name": "D6",
                    "midi": 86,
                    "time": 700.4687499999999,
                    "velocity": 0.8976377952755905,
                    "duration": 0.15625
                },
                {
                    "name": "G6",
                    "midi": 91,
                    "time": 700.4687499999999,
                    "velocity": 0.8976377952755905,
                    "duration": 0.15625
                },
                {
                    "name": "G5",
                    "midi": 79,
                    "time": 700.6249999999999,
                    "velocity": 0.6929133858267716,
                    "duration": 0.02994791666662877
                },
                {
                    "name": "D6",
                    "midi": 86,
                    "time": 700.6249999999999,
                    "velocity": 0.6929133858267716,
                    "duration": 0.02994791666662877
                },
                {
                    "name": "G5",
                    "midi": 79,
                    "time": 700.7812499999999,
                    "velocity": 0.6929133858267716,
                    "duration": 0.02994791666662877
                },
                {
                    "name": "D6",
                    "midi": 86,
                    "time": 700.7812499999999,
                    "velocity": 0.6929133858267716,
                    "duration": 0.02994791666662877
                },
                {
                    "name": "G5",
                    "midi": 79,
                    "time": 700.9374999999999,
                    "velocity": 0.6929133858267716,
                    "duration": 0.02994791666662877
                },
                {
                    "name": "D6",
                    "midi": 86,
                    "time": 700.9374999999999,
                    "velocity": 0.6929133858267716,
                    "duration": 0.02994791666662877
                },
                {
                    "name": "D6",
                    "midi": 86,
                    "time": 701.0937499999999,
                    "velocity": 0.8976377952755905,
                    "duration": 0.15625
                },
                {
                    "name": "G6",
                    "midi": 91,
                    "time": 701.0937499999999,
                    "velocity": 0.8976377952755905,
                    "duration": 0.15625
                },
                {
                    "name": "G5",
                    "midi": 79,
                    "time": 701.2499999999999,
                    "velocity": 0.6929133858267716,
                    "duration": 0.02994791666662877
                },
                {
                    "name": "D6",
                    "midi": 86,
                    "time": 701.2499999999999,
                    "velocity": 0.6929133858267716,
                    "duration": 0.02994791666662877
                },
                {
                    "name": "G5",
                    "midi": 79,
                    "time": 701.4062499999999,
                    "velocity": 0.6929133858267716,
                    "duration": 0.02994791666662877
                },
                {
                    "name": "D6",
                    "midi": 86,
                    "time": 701.4062499999999,
                    "velocity": 0.6929133858267716,
                    "duration": 0.02994791666662877
                },
                {
                    "name": "G5",
                    "midi": 79,
                    "time": 701.5624999999999,
                    "velocity": 0.6929133858267716,
                    "duration": 0.02994791666662877
                },
                {
                    "name": "D6",
                    "midi": 86,
                    "time": 701.5624999999999,
                    "velocity": 0.6929133858267716,
                    "duration": 0.02994791666662877
                },
                {
                    "name": "D6",
                    "midi": 86,
                    "time": 701.7187499999999,
                    "velocity": 0.8976377952755905,
                    "duration": 0.15625
                },
                {
                    "name": "G6",
                    "midi": 91,
                    "time": 701.7187499999999,
                    "velocity": 0.8976377952755905,
                    "duration": 0.15625
                },
                {
                    "name": "G5",
                    "midi": 79,
                    "time": 701.8749999999999,
                    "velocity": 0.6929133858267716,
                    "duration": 0.02994791666662877
                },
                {
                    "name": "D6",
                    "midi": 86,
                    "time": 701.8749999999999,
                    "velocity": 0.6929133858267716,
                    "duration": 0.02994791666662877
                },
                {
                    "name": "G5",
                    "midi": 79,
                    "time": 702.0312499999999,
                    "velocity": 0.6929133858267716,
                    "duration": 0.02994791666662877
                },
                {
                    "name": "D6",
                    "midi": 86,
                    "time": 702.0312499999999,
                    "velocity": 0.6929133858267716,
                    "duration": 0.02994791666662877
                },
                {
                    "name": "G5",
                    "midi": 79,
                    "time": 702.1874999999999,
                    "velocity": 0.6929133858267716,
                    "duration": 0.02994791666662877
                },
                {
                    "name": "D6",
                    "midi": 86,
                    "time": 702.1874999999999,
                    "velocity": 0.6929133858267716,
                    "duration": 0.02994791666662877
                },
                {
                    "name": "D6",
                    "midi": 86,
                    "time": 702.3437499999999,
                    "velocity": 0.8976377952755905,
                    "duration": 0.15625
                },
                {
                    "name": "G6",
                    "midi": 91,
                    "time": 702.3437499999999,
                    "velocity": 0.8976377952755905,
                    "duration": 0.15625
                },
                {
                    "name": "G5",
                    "midi": 79,
                    "time": 702.4999999999999,
                    "velocity": 0.6929133858267716,
                    "duration": 0.02994791666662877
                },
                {
                    "name": "D6",
                    "midi": 86,
                    "time": 702.4999999999999,
                    "velocity": 0.6929133858267716,
                    "duration": 0.02994791666662877
                },
                {
                    "name": "G5",
                    "midi": 79,
                    "time": 702.6562499999999,
                    "velocity": 0.6929133858267716,
                    "duration": 0.02994791666662877
                },
                {
                    "name": "D6",
                    "midi": 86,
                    "time": 702.6562499999999,
                    "velocity": 0.6929133858267716,
                    "duration": 0.02994791666662877
                },
                {
                    "name": "G5",
                    "midi": 79,
                    "time": 702.8124999999999,
                    "velocity": 0.6929133858267716,
                    "duration": 0.02994791666662877
                },
                {
                    "name": "D6",
                    "midi": 86,
                    "time": 702.8124999999999,
                    "velocity": 0.6929133858267716,
                    "duration": 0.02994791666662877
                },
                {
                    "name": "D6",
                    "midi": 86,
                    "time": 702.9687499999999,
                    "velocity": 0.8976377952755905,
                    "duration": 0.15625
                },
                {
                    "name": "G6",
                    "midi": 91,
                    "time": 702.9687499999999,
                    "velocity": 0.8976377952755905,
                    "duration": 0.15625
                },
                {
                    "name": "G5",
                    "midi": 79,
                    "time": 703.1249999999999,
                    "velocity": 0.6929133858267716,
                    "duration": 0.02994791666662877
                },
                {
                    "name": "D6",
                    "midi": 86,
                    "time": 703.1249999999999,
                    "velocity": 0.6929133858267716,
                    "duration": 0.02994791666662877
                },
                {
                    "name": "G5",
                    "midi": 79,
                    "time": 703.2812499999999,
                    "velocity": 0.6929133858267716,
                    "duration": 0.02994791666662877
                },
                {
                    "name": "D6",
                    "midi": 86,
                    "time": 703.2812499999999,
                    "velocity": 0.6929133858267716,
                    "duration": 0.02994791666662877
                },
                {
                    "name": "G5",
                    "midi": 79,
                    "time": 703.4374999999999,
                    "velocity": 0.6929133858267716,
                    "duration": 0.02994791666662877
                },
                {
                    "name": "D6",
                    "midi": 86,
                    "time": 703.4374999999999,
                    "velocity": 0.6929133858267716,
                    "duration": 0.02994791666662877
                },
                {
                    "name": "D6",
                    "midi": 86,
                    "time": 703.5937499999999,
                    "velocity": 0.8976377952755905,
                    "duration": 0.15625
                },
                {
                    "name": "G6",
                    "midi": 91,
                    "time": 703.5937499999999,
                    "velocity": 0.8976377952755905,
                    "duration": 0.15625
                },
                {
                    "name": "G5",
                    "midi": 79,
                    "time": 703.7499999999999,
                    "velocity": 0.6929133858267716,
                    "duration": 0.02994791666662877
                },
                {
                    "name": "D6",
                    "midi": 86,
                    "time": 703.7499999999999,
                    "velocity": 0.6929133858267716,
                    "duration": 0.02994791666662877
                },
                {
                    "name": "G5",
                    "midi": 79,
                    "time": 703.9062499999999,
                    "velocity": 0.6929133858267716,
                    "duration": 0.02994791666662877
                },
                {
                    "name": "D6",
                    "midi": 86,
                    "time": 703.9062499999999,
                    "velocity": 0.6929133858267716,
                    "duration": 0.02994791666662877
                },
                {
                    "name": "G5",
                    "midi": 79,
                    "time": 704.0624999999999,
                    "velocity": 0.6929133858267716,
                    "duration": 0.02994791666662877
                },
                {
                    "name": "D6",
                    "midi": 86,
                    "time": 704.0624999999999,
                    "velocity": 0.6929133858267716,
                    "duration": 0.02994791666662877
                },
                {
                    "name": "D6",
                    "midi": 86,
                    "time": 704.2187499999999,
                    "velocity": 0.8976377952755905,
                    "duration": 0.15625
                },
                {
                    "name": "G6",
                    "midi": 91,
                    "time": 704.2187499999999,
                    "velocity": 0.8976377952755905,
                    "duration": 0.15625
                },
                {
                    "name": "G5",
                    "midi": 79,
                    "time": 704.3749999999999,
                    "velocity": 0.6929133858267716,
                    "duration": 0.02994791666662877
                },
                {
                    "name": "D6",
                    "midi": 86,
                    "time": 704.3749999999999,
                    "velocity": 0.6929133858267716,
                    "duration": 0.02994791666662877
                },
                {
                    "name": "G5",
                    "midi": 79,
                    "time": 704.5312499999999,
                    "velocity": 0.6929133858267716,
                    "duration": 0.02994791666662877
                },
                {
                    "name": "D6",
                    "midi": 86,
                    "time": 704.5312499999999,
                    "velocity": 0.6929133858267716,
                    "duration": 0.02994791666662877
                },
                {
                    "name": "G5",
                    "midi": 79,
                    "time": 704.6874999999999,
                    "velocity": 0.6929133858267716,
                    "duration": 0.02994791666662877
                },
                {
                    "name": "D6",
                    "midi": 86,
                    "time": 704.6874999999999,
                    "velocity": 0.6929133858267716,
                    "duration": 0.02994791666662877
                },
                {
                    "name": "D6",
                    "midi": 86,
                    "time": 704.8437499999999,
                    "velocity": 0.8976377952755905,
                    "duration": 0.15625
                },
                {
                    "name": "G6",
                    "midi": 91,
                    "time": 704.8437499999999,
                    "velocity": 0.8976377952755905,
                    "duration": 0.15625
                },
                {
                    "name": "G5",
                    "midi": 79,
                    "time": 704.9999999999999,
                    "velocity": 0.6929133858267716,
                    "duration": 0.02994791666662877
                },
                {
                    "name": "D6",
                    "midi": 86,
                    "time": 704.9999999999999,
                    "velocity": 0.6929133858267716,
                    "duration": 0.02994791666662877
                },
                {
                    "name": "G5",
                    "midi": 79,
                    "time": 705.1562499999999,
                    "velocity": 0.6929133858267716,
                    "duration": 0.02994791666662877
                },
                {
                    "name": "D6",
                    "midi": 86,
                    "time": 705.1562499999999,
                    "velocity": 0.6929133858267716,
                    "duration": 0.02994791666662877
                },
                {
                    "name": "G5",
                    "midi": 79,
                    "time": 705.3124999999999,
                    "velocity": 0.6929133858267716,
                    "duration": 0.02994791666662877
                },
                {
                    "name": "D6",
                    "midi": 86,
                    "time": 705.3124999999999,
                    "velocity": 0.6929133858267716,
                    "duration": 0.02994791666662877
                },
                {
                    "name": "D6",
                    "midi": 86,
                    "time": 705.4687499999999,
                    "velocity": 0.8976377952755905,
                    "duration": 0.15625
                },
                {
                    "name": "G6",
                    "midi": 91,
                    "time": 705.4687499999999,
                    "velocity": 0.8976377952755905,
                    "duration": 0.15625
                },
                {
                    "name": "G5",
                    "midi": 79,
                    "time": 705.6249999999999,
                    "velocity": 0.6929133858267716,
                    "duration": 0.02994791666662877
                },
                {
                    "name": "D6",
                    "midi": 86,
                    "time": 705.6249999999999,
                    "velocity": 0.6929133858267716,
                    "duration": 0.02994791666662877
                },
                {
                    "name": "G5",
                    "midi": 79,
                    "time": 705.7812499999999,
                    "velocity": 0.6929133858267716,
                    "duration": 0.02994791666662877
                },
                {
                    "name": "D6",
                    "midi": 86,
                    "time": 705.7812499999999,
                    "velocity": 0.6929133858267716,
                    "duration": 0.02994791666662877
                },
                {
                    "name": "G5",
                    "midi": 79,
                    "time": 705.9374999999999,
                    "velocity": 0.6929133858267716,
                    "duration": 0.02994791666662877
                },
                {
                    "name": "D6",
                    "midi": 86,
                    "time": 705.9374999999999,
                    "velocity": 0.6929133858267716,
                    "duration": 0.02994791666662877
                },
                {
                    "name": "D6",
                    "midi": 86,
                    "time": 706.0937499999999,
                    "velocity": 0.8976377952755905,
                    "duration": 0.15625
                },
                {
                    "name": "G6",
                    "midi": 91,
                    "time": 706.0937499999999,
                    "velocity": 0.8976377952755905,
                    "duration": 0.15625
                },
                {
                    "name": "G5",
                    "midi": 79,
                    "time": 706.2499999999999,
                    "velocity": 0.6929133858267716,
                    "duration": 0.02994791666662877
                },
                {
                    "name": "D6",
                    "midi": 86,
                    "time": 706.2499999999999,
                    "velocity": 0.6929133858267716,
                    "duration": 0.02994791666662877
                },
                {
                    "name": "G5",
                    "midi": 79,
                    "time": 706.4062499999999,
                    "velocity": 0.6929133858267716,
                    "duration": 0.02994791666662877
                },
                {
                    "name": "D6",
                    "midi": 86,
                    "time": 706.4062499999999,
                    "velocity": 0.6929133858267716,
                    "duration": 0.02994791666662877
                },
                {
                    "name": "G5",
                    "midi": 79,
                    "time": 706.5624999999999,
                    "velocity": 0.6929133858267716,
                    "duration": 0.02994791666662877
                },
                {
                    "name": "D6",
                    "midi": 86,
                    "time": 706.5624999999999,
                    "velocity": 0.6929133858267716,
                    "duration": 0.02994791666662877
                },
                {
                    "name": "D6",
                    "midi": 86,
                    "time": 706.7187499999999,
                    "velocity": 0.8976377952755905,
                    "duration": 0.15625
                },
                {
                    "name": "G6",
                    "midi": 91,
                    "time": 706.7187499999999,
                    "velocity": 0.8976377952755905,
                    "duration": 0.15625
                },
                {
                    "name": "G5",
                    "midi": 79,
                    "time": 706.8749999999999,
                    "velocity": 0.6929133858267716,
                    "duration": 0.02994791666662877
                },
                {
                    "name": "D6",
                    "midi": 86,
                    "time": 706.8749999999999,
                    "velocity": 0.6929133858267716,
                    "duration": 0.02994791666662877
                },
                {
                    "name": "G5",
                    "midi": 79,
                    "time": 707.0312499999999,
                    "velocity": 0.6929133858267716,
                    "duration": 0.02994791666662877
                },
                {
                    "name": "D6",
                    "midi": 86,
                    "time": 707.0312499999999,
                    "velocity": 0.6929133858267716,
                    "duration": 0.02994791666662877
                },
                {
                    "name": "G5",
                    "midi": 79,
                    "time": 707.1874999999999,
                    "velocity": 0.6929133858267716,
                    "duration": 0.02994791666662877
                },
                {
                    "name": "D6",
                    "midi": 86,
                    "time": 707.1874999999999,
                    "velocity": 0.6929133858267716,
                    "duration": 0.02994791666662877
                },
                {
                    "name": "D6",
                    "midi": 86,
                    "time": 707.3437499999999,
                    "velocity": 0.8976377952755905,
                    "duration": 0.15625
                },
                {
                    "name": "G6",
                    "midi": 91,
                    "time": 707.3437499999999,
                    "velocity": 0.8976377952755905,
                    "duration": 0.15625
                },
                {
                    "name": "A#4",
                    "midi": 70,
                    "time": 707.4999999999999,
                    "velocity": 0.6929133858267716,
                    "duration": 0.02994791666662877
                },
                {
                    "name": "F5",
                    "midi": 77,
                    "time": 707.4999999999999,
                    "velocity": 0.6929133858267716,
                    "duration": 0.02994791666662877
                },
                {
                    "name": "A#4",
                    "midi": 70,
                    "time": 707.6562499999999,
                    "velocity": 0.6929133858267716,
                    "duration": 0.02994791666662877
                },
                {
                    "name": "F5",
                    "midi": 77,
                    "time": 707.6562499999999,
                    "velocity": 0.6929133858267716,
                    "duration": 0.02994791666662877
                },
                {
                    "name": "A#4",
                    "midi": 70,
                    "time": 707.8124999999999,
                    "velocity": 0.6929133858267716,
                    "duration": 0.02994791666662877
                },
                {
                    "name": "F5",
                    "midi": 77,
                    "time": 707.8124999999999,
                    "velocity": 0.6929133858267716,
                    "duration": 0.02994791666662877
                },
                {
                    "name": "F5",
                    "midi": 77,
                    "time": 707.9687499999999,
                    "velocity": 0.8976377952755905,
                    "duration": 0.15625
                },
                {
                    "name": "A#5",
                    "midi": 82,
                    "time": 707.9687499999999,
                    "velocity": 0.8976377952755905,
                    "duration": 0.15625
                },
                {
                    "name": "A#4",
                    "midi": 70,
                    "time": 708.1249999999999,
                    "velocity": 0.6929133858267716,
                    "duration": 0.02994791666662877
                },
                {
                    "name": "F5",
                    "midi": 77,
                    "time": 708.1249999999999,
                    "velocity": 0.6929133858267716,
                    "duration": 0.02994791666662877
                },
                {
                    "name": "A#4",
                    "midi": 70,
                    "time": 708.2812499999999,
                    "velocity": 0.6929133858267716,
                    "duration": 0.02994791666662877
                },
                {
                    "name": "F5",
                    "midi": 77,
                    "time": 708.2812499999999,
                    "velocity": 0.6929133858267716,
                    "duration": 0.02994791666662877
                },
                {
                    "name": "A#4",
                    "midi": 70,
                    "time": 708.4374999999999,
                    "velocity": 0.6929133858267716,
                    "duration": 0.02994791666662877
                },
                {
                    "name": "F5",
                    "midi": 77,
                    "time": 708.4374999999999,
                    "velocity": 0.6929133858267716,
                    "duration": 0.02994791666662877
                },
                {
                    "name": "F5",
                    "midi": 77,
                    "time": 708.5937499999999,
                    "velocity": 0.8976377952755905,
                    "duration": 0.15625
                },
                {
                    "name": "A#5",
                    "midi": 82,
                    "time": 708.5937499999999,
                    "velocity": 0.8976377952755905,
                    "duration": 0.15625
                },
                {
                    "name": "A#4",
                    "midi": 70,
                    "time": 708.7499999999999,
                    "velocity": 0.6929133858267716,
                    "duration": 0.02994791666662877
                },
                {
                    "name": "F5",
                    "midi": 77,
                    "time": 708.7499999999999,
                    "velocity": 0.6929133858267716,
                    "duration": 0.02994791666662877
                },
                {
                    "name": "A#4",
                    "midi": 70,
                    "time": 708.9062499999999,
                    "velocity": 0.6929133858267716,
                    "duration": 0.02994791666662877
                },
                {
                    "name": "F5",
                    "midi": 77,
                    "time": 708.9062499999999,
                    "velocity": 0.6929133858267716,
                    "duration": 0.02994791666662877
                },
                {
                    "name": "A#4",
                    "midi": 70,
                    "time": 709.0624999999999,
                    "velocity": 0.6929133858267716,
                    "duration": 0.02994791666662877
                },
                {
                    "name": "F5",
                    "midi": 77,
                    "time": 709.0624999999999,
                    "velocity": 0.6929133858267716,
                    "duration": 0.02994791666662877
                },
                {
                    "name": "F5",
                    "midi": 77,
                    "time": 709.2187499999999,
                    "velocity": 0.8976377952755905,
                    "duration": 0.15625
                },
                {
                    "name": "A#5",
                    "midi": 82,
                    "time": 709.2187499999999,
                    "velocity": 0.8976377952755905,
                    "duration": 0.15625
                },
                {
                    "name": "A#4",
                    "midi": 70,
                    "time": 709.3749999999999,
                    "velocity": 0.6929133858267716,
                    "duration": 0.02994791666662877
                },
                {
                    "name": "F5",
                    "midi": 77,
                    "time": 709.3749999999999,
                    "velocity": 0.6929133858267716,
                    "duration": 0.02994791666662877
                },
                {
                    "name": "A#4",
                    "midi": 70,
                    "time": 709.5312499999999,
                    "velocity": 0.6929133858267716,
                    "duration": 0.02994791666662877
                },
                {
                    "name": "F5",
                    "midi": 77,
                    "time": 709.5312499999999,
                    "velocity": 0.6929133858267716,
                    "duration": 0.02994791666662877
                },
                {
                    "name": "A#4",
                    "midi": 70,
                    "time": 709.6874999999999,
                    "velocity": 0.6929133858267716,
                    "duration": 0.02994791666662877
                },
                {
                    "name": "F5",
                    "midi": 77,
                    "time": 709.6874999999999,
                    "velocity": 0.6929133858267716,
                    "duration": 0.02994791666662877
                },
                {
                    "name": "F5",
                    "midi": 77,
                    "time": 709.8437499999999,
                    "velocity": 0.8976377952755905,
                    "duration": 0.15625
                },
                {
                    "name": "A#5",
                    "midi": 82,
                    "time": 709.8437499999999,
                    "velocity": 0.8976377952755905,
                    "duration": 0.15625
                },
                {
                    "name": "A#4",
                    "midi": 70,
                    "time": 709.9999999999999,
                    "velocity": 0.6929133858267716,
                    "duration": 0.02994791666662877
                },
                {
                    "name": "F5",
                    "midi": 77,
                    "time": 709.9999999999999,
                    "velocity": 0.6929133858267716,
                    "duration": 0.02994791666662877
                },
                {
                    "name": "A#4",
                    "midi": 70,
                    "time": 710.1562499999999,
                    "velocity": 0.6929133858267716,
                    "duration": 0.02994791666662877
                },
                {
                    "name": "F5",
                    "midi": 77,
                    "time": 710.1562499999999,
                    "velocity": 0.6929133858267716,
                    "duration": 0.02994791666662877
                },
                {
                    "name": "A#4",
                    "midi": 70,
                    "time": 710.3124999999999,
                    "velocity": 0.6929133858267716,
                    "duration": 0.02994791666662877
                },
                {
                    "name": "F5",
                    "midi": 77,
                    "time": 710.3124999999999,
                    "velocity": 0.6929133858267716,
                    "duration": 0.02994791666662877
                },
                {
                    "name": "F5",
                    "midi": 77,
                    "time": 710.4687499999999,
                    "velocity": 0.8976377952755905,
                    "duration": 0.15625
                },
                {
                    "name": "A#5",
                    "midi": 82,
                    "time": 710.4687499999999,
                    "velocity": 0.8976377952755905,
                    "duration": 0.15625
                },
                {
                    "name": "A#4",
                    "midi": 70,
                    "time": 710.6249999999999,
                    "velocity": 0.6929133858267716,
                    "duration": 0.02994791666662877
                },
                {
                    "name": "F5",
                    "midi": 77,
                    "time": 710.6249999999999,
                    "velocity": 0.6929133858267716,
                    "duration": 0.02994791666662877
                },
                {
                    "name": "A#4",
                    "midi": 70,
                    "time": 710.7812499999999,
                    "velocity": 0.6929133858267716,
                    "duration": 0.02994791666662877
                },
                {
                    "name": "F5",
                    "midi": 77,
                    "time": 710.7812499999999,
                    "velocity": 0.6929133858267716,
                    "duration": 0.02994791666662877
                },
                {
                    "name": "A#4",
                    "midi": 70,
                    "time": 710.9374999999999,
                    "velocity": 0.6929133858267716,
                    "duration": 0.02994791666662877
                },
                {
                    "name": "F5",
                    "midi": 77,
                    "time": 710.9374999999999,
                    "velocity": 0.6929133858267716,
                    "duration": 0.02994791666662877
                },
                {
                    "name": "F5",
                    "midi": 77,
                    "time": 711.0937499999999,
                    "velocity": 0.8976377952755905,
                    "duration": 0.15625
                },
                {
                    "name": "A#5",
                    "midi": 82,
                    "time": 711.0937499999999,
                    "velocity": 0.8976377952755905,
                    "duration": 0.15625
                },
                {
                    "name": "A#4",
                    "midi": 70,
                    "time": 711.2499999999999,
                    "velocity": 0.6929133858267716,
                    "duration": 0.02994791666662877
                },
                {
                    "name": "F5",
                    "midi": 77,
                    "time": 711.2499999999999,
                    "velocity": 0.6929133858267716,
                    "duration": 0.02994791666662877
                },
                {
                    "name": "A#4",
                    "midi": 70,
                    "time": 711.4062499999999,
                    "velocity": 0.6929133858267716,
                    "duration": 0.02994791666662877
                },
                {
                    "name": "F5",
                    "midi": 77,
                    "time": 711.4062499999999,
                    "velocity": 0.6929133858267716,
                    "duration": 0.02994791666662877
                },
                {
                    "name": "A#4",
                    "midi": 70,
                    "time": 711.5624999999999,
                    "velocity": 0.6929133858267716,
                    "duration": 0.02994791666662877
                },
                {
                    "name": "F5",
                    "midi": 77,
                    "time": 711.5624999999999,
                    "velocity": 0.6929133858267716,
                    "duration": 0.02994791666662877
                },
                {
                    "name": "F5",
                    "midi": 77,
                    "time": 711.7187499999999,
                    "velocity": 0.8976377952755905,
                    "duration": 0.15625
                },
                {
                    "name": "A#5",
                    "midi": 82,
                    "time": 711.7187499999999,
                    "velocity": 0.8976377952755905,
                    "duration": 0.15625
                },
                {
                    "name": "A#4",
                    "midi": 70,
                    "time": 711.8749999999999,
                    "velocity": 0.6929133858267716,
                    "duration": 0.02994791666662877
                },
                {
                    "name": "F5",
                    "midi": 77,
                    "time": 711.8749999999999,
                    "velocity": 0.6929133858267716,
                    "duration": 0.02994791666662877
                },
                {
                    "name": "A#4",
                    "midi": 70,
                    "time": 712.0312499999999,
                    "velocity": 0.6929133858267716,
                    "duration": 0.02994791666662877
                },
                {
                    "name": "F5",
                    "midi": 77,
                    "time": 712.0312499999999,
                    "velocity": 0.6929133858267716,
                    "duration": 0.02994791666662877
                },
                {
                    "name": "A#4",
                    "midi": 70,
                    "time": 712.1874999999999,
                    "velocity": 0.6929133858267716,
                    "duration": 0.02994791666662877
                },
                {
                    "name": "F5",
                    "midi": 77,
                    "time": 712.1874999999999,
                    "velocity": 0.6929133858267716,
                    "duration": 0.02994791666662877
                },
                {
                    "name": "F5",
                    "midi": 77,
                    "time": 712.3437499999999,
                    "velocity": 0.8976377952755905,
                    "duration": 0.15625
                },
                {
                    "name": "A#5",
                    "midi": 82,
                    "time": 712.3437499999999,
                    "velocity": 0.8976377952755905,
                    "duration": 0.15625
                },
                {
                    "name": "F3",
                    "midi": 53,
                    "time": 717.4999999999999,
                    "velocity": 0.6929133858267716,
                    "duration": 0.20703125
                },
                {
                    "name": "A3",
                    "midi": 57,
                    "time": 717.4999999999999,
                    "velocity": 0.6929133858267716,
                    "duration": 0.20703125
                },
                {
                    "name": "C4",
                    "midi": 60,
                    "time": 717.4999999999999,
                    "velocity": 0.6929133858267716,
                    "duration": 0.20703125
                },
                {
                    "name": "G3",
                    "midi": 55,
                    "time": 717.7070312499999,
                    "velocity": 0.6929133858267716,
                    "duration": 0.20963541666662877
                },
                {
                    "name": "A#3",
                    "midi": 58,
                    "time": 717.7070312499999,
                    "velocity": 0.6929133858267716,
                    "duration": 0.20963541666662877
                },
                {
                    "name": "D4",
                    "midi": 62,
                    "time": 717.7070312499999,
                    "velocity": 0.6929133858267716,
                    "duration": 0.20963541666662877
                },
                {
                    "name": "A3",
                    "midi": 57,
                    "time": 717.9166666666665,
                    "velocity": 0.6929133858267716,
                    "duration": 0.20833333333337123
                },
                {
                    "name": "C4",
                    "midi": 60,
                    "time": 717.9166666666665,
                    "velocity": 0.6929133858267716,
                    "duration": 0.20833333333337123
                },
                {
                    "name": "E4",
                    "midi": 64,
                    "time": 717.9166666666665,
                    "velocity": 0.6929133858267716,
                    "duration": 0.20833333333337123
                },
                {
                    "name": "A3",
                    "midi": 57,
                    "time": 718.1249999999999,
                    "velocity": 0.6929133858267716,
                    "duration": 0.20703125
                },
                {
                    "name": "C4",
                    "midi": 60,
                    "time": 718.1249999999999,
                    "velocity": 0.6929133858267716,
                    "duration": 0.20703125
                },
                {
                    "name": "E4",
                    "midi": 64,
                    "time": 718.1249999999999,
                    "velocity": 0.6929133858267716,
                    "duration": 0.20703125
                },
                {
                    "name": "G3",
                    "midi": 55,
                    "time": 718.3320312499999,
                    "velocity": 0.6929133858267716,
                    "duration": 0.20963541666662877
                },
                {
                    "name": "A#3",
                    "midi": 58,
                    "time": 718.3320312499999,
                    "velocity": 0.6929133858267716,
                    "duration": 0.20963541666662877
                },
                {
                    "name": "D4",
                    "midi": 62,
                    "time": 718.3320312499999,
                    "velocity": 0.6929133858267716,
                    "duration": 0.20963541666662877
                },
                {
                    "name": "F3",
                    "midi": 53,
                    "time": 718.5416666666665,
                    "velocity": 0.6929133858267716,
                    "duration": 0.20833333333337123
                },
                {
                    "name": "A3",
                    "midi": 57,
                    "time": 718.5416666666665,
                    "velocity": 0.6929133858267716,
                    "duration": 0.20833333333337123
                },
                {
                    "name": "C4",
                    "midi": 60,
                    "time": 718.5416666666665,
                    "velocity": 0.6929133858267716,
                    "duration": 0.20833333333337123
                },
                {
                    "name": "F#3",
                    "midi": 54,
                    "time": 719.0624999999999,
                    "velocity": 0.6929133858267716,
                    "duration": 0.3125
                },
                {
                    "name": "A#3",
                    "midi": 58,
                    "time": 719.0624999999999,
                    "velocity": 0.6929133858267716,
                    "duration": 0.3125
                },
                {
                    "name": "C#4",
                    "midi": 61,
                    "time": 719.0624999999999,
                    "velocity": 0.6929133858267716,
                    "duration": 0.3125
                },
                {
                    "name": "G3",
                    "midi": 55,
                    "time": 719.3749999999999,
                    "velocity": 0.6929133858267716,
                    "duration": 0.3125
                },
                {
                    "name": "B3",
                    "midi": 59,
                    "time": 719.3749999999999,
                    "velocity": 0.6929133858267716,
                    "duration": 0.3125
                },
                {
                    "name": "D4",
                    "midi": 62,
                    "time": 719.3749999999999,
                    "velocity": 0.6929133858267716,
                    "duration": 0.3125
                },
                {
                    "name": "A#3",
                    "midi": 58,
                    "time": 719.6874999999999,
                    "velocity": 0.6929133858267716,
                    "duration": 0.3125
                },
                {
                    "name": "C#4",
                    "midi": 61,
                    "time": 719.6874999999999,
                    "velocity": 0.6929133858267716,
                    "duration": 0.3125
                },
                {
                    "name": "D#4",
                    "midi": 63,
                    "time": 719.6874999999999,
                    "velocity": 0.6929133858267716,
                    "duration": 0.3125
                },
                {
                    "name": "F3",
                    "midi": 53,
                    "time": 719.9999999999999,
                    "velocity": 0.6929133858267716,
                    "duration": 0.20703125
                },
                {
                    "name": "A3",
                    "midi": 57,
                    "time": 719.9999999999999,
                    "velocity": 0.6929133858267716,
                    "duration": 0.20703125
                },
                {
                    "name": "C4",
                    "midi": 60,
                    "time": 719.9999999999999,
                    "velocity": 0.6929133858267716,
                    "duration": 0.20703125
                },
                {
                    "name": "G3",
                    "midi": 55,
                    "time": 720.2070312499999,
                    "velocity": 0.6929133858267716,
                    "duration": 0.20963541666662877
                },
                {
                    "name": "A#3",
                    "midi": 58,
                    "time": 720.2070312499999,
                    "velocity": 0.6929133858267716,
                    "duration": 0.20963541666662877
                },
                {
                    "name": "D4",
                    "midi": 62,
                    "time": 720.2070312499999,
                    "velocity": 0.6929133858267716,
                    "duration": 0.20963541666662877
                },
                {
                    "name": "A3",
                    "midi": 57,
                    "time": 720.4166666666665,
                    "velocity": 0.6929133858267716,
                    "duration": 0.20833333333337123
                },
                {
                    "name": "C4",
                    "midi": 60,
                    "time": 720.4166666666665,
                    "velocity": 0.6929133858267716,
                    "duration": 0.20833333333337123
                },
                {
                    "name": "E4",
                    "midi": 64,
                    "time": 720.4166666666665,
                    "velocity": 0.6929133858267716,
                    "duration": 0.20833333333337123
                },
                {
                    "name": "A3",
                    "midi": 57,
                    "time": 720.6249999999999,
                    "velocity": 0.6929133858267716,
                    "duration": 0.20703125
                },
                {
                    "name": "C4",
                    "midi": 60,
                    "time": 720.6249999999999,
                    "velocity": 0.6929133858267716,
                    "duration": 0.20703125
                },
                {
                    "name": "E4",
                    "midi": 64,
                    "time": 720.6249999999999,
                    "velocity": 0.6929133858267716,
                    "duration": 0.20703125
                },
                {
                    "name": "G3",
                    "midi": 55,
                    "time": 720.8320312499999,
                    "velocity": 0.6929133858267716,
                    "duration": 0.20963541666662877
                },
                {
                    "name": "A#3",
                    "midi": 58,
                    "time": 720.8320312499999,
                    "velocity": 0.6929133858267716,
                    "duration": 0.20963541666662877
                },
                {
                    "name": "D4",
                    "midi": 62,
                    "time": 720.8320312499999,
                    "velocity": 0.6929133858267716,
                    "duration": 0.20963541666662877
                },
                {
                    "name": "F3",
                    "midi": 53,
                    "time": 721.0416666666665,
                    "velocity": 0.6929133858267716,
                    "duration": 0.20833333333337123
                },
                {
                    "name": "A3",
                    "midi": 57,
                    "time": 721.0416666666665,
                    "velocity": 0.6929133858267716,
                    "duration": 0.20833333333337123
                },
                {
                    "name": "C4",
                    "midi": 60,
                    "time": 721.0416666666665,
                    "velocity": 0.6929133858267716,
                    "duration": 0.20833333333337123
                },
                {
                    "name": "F#3",
                    "midi": 54,
                    "time": 721.5624999999999,
                    "velocity": 0.6929133858267716,
                    "duration": 0.3125
                },
                {
                    "name": "A#3",
                    "midi": 58,
                    "time": 721.5624999999999,
                    "velocity": 0.6929133858267716,
                    "duration": 0.3125
                },
                {
                    "name": "C#4",
                    "midi": 61,
                    "time": 721.5624999999999,
                    "velocity": 0.6929133858267716,
                    "duration": 0.3125
                },
                {
                    "name": "G3",
                    "midi": 55,
                    "time": 721.8749999999999,
                    "velocity": 0.6929133858267716,
                    "duration": 0.3125
                },
                {
                    "name": "B3",
                    "midi": 59,
                    "time": 721.8749999999999,
                    "velocity": 0.6929133858267716,
                    "duration": 0.3125
                },
                {
                    "name": "D4",
                    "midi": 62,
                    "time": 721.8749999999999,
                    "velocity": 0.6929133858267716,
                    "duration": 0.3125
                },
                {
                    "name": "A#3",
                    "midi": 58,
                    "time": 722.1874999999999,
                    "velocity": 0.6929133858267716,
                    "duration": 0.3125
                },
                {
                    "name": "C#4",
                    "midi": 61,
                    "time": 722.1874999999999,
                    "velocity": 0.6929133858267716,
                    "duration": 0.3125
                },
                {
                    "name": "D#4",
                    "midi": 63,
                    "time": 722.1874999999999,
                    "velocity": 0.6929133858267716,
                    "duration": 0.3125
                },
                {
                    "name": "G3",
                    "midi": 55,
                    "time": 722.4999999999999,
                    "velocity": 0.6929133858267716,
                    "duration": 0.20703125
                },
                {
                    "name": "C4",
                    "midi": 60,
                    "time": 722.4999999999999,
                    "velocity": 0.6929133858267716,
                    "duration": 0.20703125
                },
                {
                    "name": "E4",
                    "midi": 64,
                    "time": 722.4999999999999,
                    "velocity": 0.6929133858267716,
                    "duration": 0.20703125
                },
                {
                    "name": "A3",
                    "midi": 57,
                    "time": 722.7070312499999,
                    "velocity": 0.6929133858267716,
                    "duration": 0.20963541666662877
                },
                {
                    "name": "D4",
                    "midi": 62,
                    "time": 722.7070312499999,
                    "velocity": 0.6929133858267716,
                    "duration": 0.20963541666662877
                },
                {
                    "name": "F4",
                    "midi": 65,
                    "time": 722.7070312499999,
                    "velocity": 0.6929133858267716,
                    "duration": 0.20963541666662877
                },
                {
                    "name": "B3",
                    "midi": 59,
                    "time": 722.9166666666665,
                    "velocity": 0.6929133858267716,
                    "duration": 0.20833333333337123
                },
                {
                    "name": "E4",
                    "midi": 64,
                    "time": 722.9166666666665,
                    "velocity": 0.6929133858267716,
                    "duration": 0.20833333333337123
                },
                {
                    "name": "G4",
                    "midi": 67,
                    "time": 722.9166666666665,
                    "velocity": 0.6929133858267716,
                    "duration": 0.20833333333337123
                },
                {
                    "name": "B3",
                    "midi": 59,
                    "time": 723.1249999999999,
                    "velocity": 0.6929133858267716,
                    "duration": 0.20703125
                },
                {
                    "name": "E4",
                    "midi": 64,
                    "time": 723.1249999999999,
                    "velocity": 0.6929133858267716,
                    "duration": 0.20703125
                },
                {
                    "name": "G4",
                    "midi": 67,
                    "time": 723.1249999999999,
                    "velocity": 0.6929133858267716,
                    "duration": 0.20703125
                },
                {
                    "name": "A3",
                    "midi": 57,
                    "time": 723.3320312499999,
                    "velocity": 0.6929133858267716,
                    "duration": 0.20963541666662877
                },
                {
                    "name": "D4",
                    "midi": 62,
                    "time": 723.3320312499999,
                    "velocity": 0.6929133858267716,
                    "duration": 0.20963541666662877
                },
                {
                    "name": "F4",
                    "midi": 65,
                    "time": 723.3320312499999,
                    "velocity": 0.6929133858267716,
                    "duration": 0.20963541666662877
                },
                {
                    "name": "G3",
                    "midi": 55,
                    "time": 723.5416666666665,
                    "velocity": 0.6929133858267716,
                    "duration": 0.20833333333337123
                },
                {
                    "name": "C4",
                    "midi": 60,
                    "time": 723.5416666666665,
                    "velocity": 0.6929133858267716,
                    "duration": 0.20833333333337123
                },
                {
                    "name": "E4",
                    "midi": 64,
                    "time": 723.5416666666665,
                    "velocity": 0.6929133858267716,
                    "duration": 0.20833333333337123
                },
                {
                    "name": "G3",
                    "midi": 55,
                    "time": 723.7499999999999,
                    "velocity": 0.6929133858267716,
                    "duration": 0.20703125
                },
                {
                    "name": "C4",
                    "midi": 60,
                    "time": 723.7499999999999,
                    "velocity": 0.6929133858267716,
                    "duration": 0.20703125
                },
                {
                    "name": "E4",
                    "midi": 64,
                    "time": 723.7499999999999,
                    "velocity": 0.6929133858267716,
                    "duration": 0.20703125
                },
                {
                    "name": "A3",
                    "midi": 57,
                    "time": 723.9570312499999,
                    "velocity": 0.6929133858267716,
                    "duration": 0.20963541666662877
                },
                {
                    "name": "D4",
                    "midi": 62,
                    "time": 723.9570312499999,
                    "velocity": 0.6929133858267716,
                    "duration": 0.20963541666662877
                },
                {
                    "name": "F4",
                    "midi": 65,
                    "time": 723.9570312499999,
                    "velocity": 0.6929133858267716,
                    "duration": 0.20963541666662877
                },
                {
                    "name": "B3",
                    "midi": 59,
                    "time": 724.1666666666665,
                    "velocity": 0.6929133858267716,
                    "duration": 0.20833333333337123
                },
                {
                    "name": "E4",
                    "midi": 64,
                    "time": 724.1666666666665,
                    "velocity": 0.6929133858267716,
                    "duration": 0.20833333333337123
                },
                {
                    "name": "G4",
                    "midi": 67,
                    "time": 724.1666666666665,
                    "velocity": 0.6929133858267716,
                    "duration": 0.20833333333337123
                },
                {
                    "name": "B3",
                    "midi": 59,
                    "time": 724.3749999999999,
                    "velocity": 0.6929133858267716,
                    "duration": 0.20703125
                },
                {
                    "name": "D4",
                    "midi": 62,
                    "time": 724.3749999999999,
                    "velocity": 0.6929133858267716,
                    "duration": 0.20703125
                },
                {
                    "name": "F4",
                    "midi": 65,
                    "time": 724.3749999999999,
                    "velocity": 0.6929133858267716,
                    "duration": 0.20703125
                },
                {
                    "name": "A3",
                    "midi": 57,
                    "time": 724.5820312499999,
                    "velocity": 0.6929133858267716,
                    "duration": 0.20963541666662877
                },
                {
                    "name": "D4",
                    "midi": 62,
                    "time": 724.5820312499999,
                    "velocity": 0.6929133858267716,
                    "duration": 0.20963541666662877
                },
                {
                    "name": "F4",
                    "midi": 65,
                    "time": 724.5820312499999,
                    "velocity": 0.6929133858267716,
                    "duration": 0.20963541666662877
                },
                {
                    "name": "G3",
                    "midi": 55,
                    "time": 724.7916666666665,
                    "velocity": 0.6929133858267716,
                    "duration": 0.20833333333337123
                },
                {
                    "name": "C4",
                    "midi": 60,
                    "time": 724.7916666666665,
                    "velocity": 0.6929133858267716,
                    "duration": 0.20833333333337123
                },
                {
                    "name": "E4",
                    "midi": 64,
                    "time": 724.7916666666665,
                    "velocity": 0.6929133858267716,
                    "duration": 0.20833333333337123
                },
                {
                    "name": "F3",
                    "midi": 53,
                    "time": 724.9999999999999,
                    "velocity": 0.6929133858267716,
                    "duration": 1.25
                },
                {
                    "name": "A#3",
                    "midi": 58,
                    "time": 724.9999999999999,
                    "velocity": 0.6929133858267716,
                    "duration": 1.25
                },
                {
                    "name": "D4",
                    "midi": 62,
                    "time": 724.9999999999999,
                    "velocity": 0.6929133858267716,
                    "duration": 1.25
                },
                {
                    "name": "E3",
                    "midi": 52,
                    "time": 726.2499999999999,
                    "velocity": 0.6929133858267716,
                    "duration": 2.5
                },
                {
                    "name": "A#3",
                    "midi": 58,
                    "time": 726.2499999999999,
                    "velocity": 0.6929133858267716,
                    "duration": 2.5
                },
                {
                    "name": "C4",
                    "midi": 60,
                    "time": 726.2499999999999,
                    "velocity": 0.6929133858267716,
                    "duration": 2.5
                },
                {
                    "name": "F3",
                    "midi": 53,
                    "time": 728.7499999999999,
                    "velocity": 0.6929133858267716,
                    "duration": 0.20703125
                },
                {
                    "name": "A#3",
                    "midi": 58,
                    "time": 728.7499999999999,
                    "velocity": 0.6929133858267716,
                    "duration": 0.20703125
                },
                {
                    "name": "D4",
                    "midi": 62,
                    "time": 728.7499999999999,
                    "velocity": 0.6929133858267716,
                    "duration": 0.20703125
                },
                {
                    "name": "G3",
                    "midi": 55,
                    "time": 728.9570312499999,
                    "velocity": 0.6929133858267716,
                    "duration": 0.20963541666662877
                },
                {
                    "name": "C4",
                    "midi": 60,
                    "time": 728.9570312499999,
                    "velocity": 0.6929133858267716,
                    "duration": 0.20963541666662877
                },
                {
                    "name": "D#4",
                    "midi": 63,
                    "time": 728.9570312499999,
                    "velocity": 0.6929133858267716,
                    "duration": 0.20963541666662877
                },
                {
                    "name": "A3",
                    "midi": 57,
                    "time": 729.1666666666665,
                    "velocity": 0.6929133858267716,
                    "duration": 0.20833333333337123
                },
                {
                    "name": "D4",
                    "midi": 62,
                    "time": 729.1666666666665,
                    "velocity": 0.6929133858267716,
                    "duration": 0.20833333333337123
                },
                {
                    "name": "F4",
                    "midi": 65,
                    "time": 729.1666666666665,
                    "velocity": 0.6929133858267716,
                    "duration": 0.20833333333337123
                },
                {
                    "name": "A3",
                    "midi": 57,
                    "time": 729.3749999999999,
                    "velocity": 0.6929133858267716,
                    "duration": 0.20703125
                },
                {
                    "name": "D4",
                    "midi": 62,
                    "time": 729.3749999999999,
                    "velocity": 0.6929133858267716,
                    "duration": 0.20703125
                },
                {
                    "name": "F4",
                    "midi": 65,
                    "time": 729.3749999999999,
                    "velocity": 0.6929133858267716,
                    "duration": 0.20703125
                },
                {
                    "name": "G3",
                    "midi": 55,
                    "time": 729.5820312499999,
                    "velocity": 0.6929133858267716,
                    "duration": 0.20963541666662877
                },
                {
                    "name": "C4",
                    "midi": 60,
                    "time": 729.5820312499999,
                    "velocity": 0.6929133858267716,
                    "duration": 0.20963541666662877
                },
                {
                    "name": "D#4",
                    "midi": 63,
                    "time": 729.5820312499999,
                    "velocity": 0.6929133858267716,
                    "duration": 0.20963541666662877
                },
                {
                    "name": "F3",
                    "midi": 53,
                    "time": 729.7916666666665,
                    "velocity": 0.6929133858267716,
                    "duration": 0.20833333333337123
                },
                {
                    "name": "A#3",
                    "midi": 58,
                    "time": 729.7916666666665,
                    "velocity": 0.6929133858267716,
                    "duration": 0.20833333333337123
                },
                {
                    "name": "D4",
                    "midi": 62,
                    "time": 729.7916666666665,
                    "velocity": 0.6929133858267716,
                    "duration": 0.20833333333337123
                },
                {
                    "name": "F3",
                    "midi": 53,
                    "time": 729.9999999999999,
                    "velocity": 0.6929133858267716,
                    "duration": 0.3125
                },
                {
                    "name": "A#3",
                    "midi": 58,
                    "time": 729.9999999999999,
                    "velocity": 0.6929133858267716,
                    "duration": 0.3125
                },
                {
                    "name": "D4",
                    "midi": 62,
                    "time": 729.9999999999999,
                    "velocity": 0.6929133858267716,
                    "duration": 0.3125
                },
                {
                    "name": "F#3",
                    "midi": 54,
                    "time": 730.3124999999999,
                    "velocity": 0.6929133858267716,
                    "duration": 0.3125
                },
                {
                    "name": "B3",
                    "midi": 59,
                    "time": 730.3124999999999,
                    "velocity": 0.6929133858267716,
                    "duration": 0.3125
                },
                {
                    "name": "D#4",
                    "midi": 63,
                    "time": 730.3124999999999,
                    "velocity": 0.6929133858267716,
                    "duration": 0.3125
                },
                {
                    "name": "G3",
                    "midi": 55,
                    "time": 730.6249999999999,
                    "velocity": 0.6929133858267716,
                    "duration": 0.3125
                },
                {
                    "name": "C4",
                    "midi": 60,
                    "time": 730.6249999999999,
                    "velocity": 0.6929133858267716,
                    "duration": 0.3125
                },
                {
                    "name": "E4",
                    "midi": 64,
                    "time": 730.6249999999999,
                    "velocity": 0.6929133858267716,
                    "duration": 0.3125
                },
                {
                    "name": "G#3",
                    "midi": 56,
                    "time": 730.9374999999999,
                    "velocity": 0.6929133858267716,
                    "duration": 0.3125
                },
                {
                    "name": "C#4",
                    "midi": 61,
                    "time": 730.9374999999999,
                    "velocity": 0.6929133858267716,
                    "duration": 0.3125
                },
                {
                    "name": "F4",
                    "midi": 65,
                    "time": 730.9374999999999,
                    "velocity": 0.6929133858267716,
                    "duration": 0.3125
                },
                {
                    "name": "A3",
                    "midi": 57,
                    "time": 731.2499999999999,
                    "velocity": 0.6929133858267716,
                    "duration": 0.20703125
                },
                {
                    "name": "C4",
                    "midi": 60,
                    "time": 731.2499999999999,
                    "velocity": 0.6929133858267716,
                    "duration": 0.20703125
                },
                {
                    "name": "F4",
                    "midi": 65,
                    "time": 731.2499999999999,
                    "velocity": 0.6929133858267716,
                    "duration": 0.20703125
                },
                {
                    "name": "A#3",
                    "midi": 58,
                    "time": 731.4570312499999,
                    "velocity": 0.6929133858267716,
                    "duration": 0.20963541666662877
                },
                {
                    "name": "D4",
                    "midi": 62,
                    "time": 731.4570312499999,
                    "velocity": 0.6929133858267716,
                    "duration": 0.20963541666662877
                },
                {
                    "name": "G4",
                    "midi": 67,
                    "time": 731.4570312499999,
                    "velocity": 0.6929133858267716,
                    "duration": 0.20963541666662877
                },
                {
                    "name": "C4",
                    "midi": 60,
                    "time": 731.6666666666665,
                    "velocity": 0.6929133858267716,
                    "duration": 0.20833333333337123
                },
                {
                    "name": "E4",
                    "midi": 64,
                    "time": 731.6666666666665,
                    "velocity": 0.6929133858267716,
                    "duration": 0.20833333333337123
                },
                {
                    "name": "A4",
                    "midi": 69,
                    "time": 731.6666666666665,
                    "velocity": 0.6929133858267716,
                    "duration": 0.20833333333337123
                },
                {
                    "name": "C4",
                    "midi": 60,
                    "time": 731.8749999999999,
                    "velocity": 0.6929133858267716,
                    "duration": 0.20703125
                },
                {
                    "name": "E4",
                    "midi": 64,
                    "time": 731.8749999999999,
                    "velocity": 0.6929133858267716,
                    "duration": 0.20703125
                },
                {
                    "name": "A4",
                    "midi": 69,
                    "time": 731.8749999999999,
                    "velocity": 0.6929133858267716,
                    "duration": 0.20703125
                },
                {
                    "name": "A#3",
                    "midi": 58,
                    "time": 732.0820312499999,
                    "velocity": 0.6929133858267716,
                    "duration": 0.20963541666662877
                },
                {
                    "name": "D4",
                    "midi": 62,
                    "time": 732.0820312499999,
                    "velocity": 0.6929133858267716,
                    "duration": 0.20963541666662877
                },
                {
                    "name": "G4",
                    "midi": 67,
                    "time": 732.0820312499999,
                    "velocity": 0.6929133858267716,
                    "duration": 0.20963541666662877
                },
                {
                    "name": "A3",
                    "midi": 57,
                    "time": 732.2916666666665,
                    "velocity": 0.6929133858267716,
                    "duration": 0.20833333333337123
                },
                {
                    "name": "C4",
                    "midi": 60,
                    "time": 732.2916666666665,
                    "velocity": 0.6929133858267716,
                    "duration": 0.20833333333337123
                },
                {
                    "name": "F4",
                    "midi": 65,
                    "time": 732.2916666666665,
                    "velocity": 0.6929133858267716,
                    "duration": 0.20833333333337123
                },
                {
                    "name": "A3",
                    "midi": 57,
                    "time": 732.4999999999999,
                    "velocity": 0.6929133858267716,
                    "duration": 0.3125
                },
                {
                    "name": "C4",
                    "midi": 60,
                    "time": 732.4999999999999,
                    "velocity": 0.6929133858267716,
                    "duration": 0.3125
                },
                {
                    "name": "F4",
                    "midi": 65,
                    "time": 732.4999999999999,
                    "velocity": 0.6929133858267716,
                    "duration": 0.3125
                },
                {
                    "name": "A#3",
                    "midi": 58,
                    "time": 732.8124999999999,
                    "velocity": 0.6929133858267716,
                    "duration": 0.3125
                },
                {
                    "name": "C#4",
                    "midi": 61,
                    "time": 732.8124999999999,
                    "velocity": 0.6929133858267716,
                    "duration": 0.3125
                },
                {
                    "name": "F#4",
                    "midi": 66,
                    "time": 732.8124999999999,
                    "velocity": 0.6929133858267716,
                    "duration": 0.3125
                },
                {
                    "name": "B3",
                    "midi": 59,
                    "time": 733.1249999999999,
                    "velocity": 0.6929133858267716,
                    "duration": 0.3125
                },
                {
                    "name": "D4",
                    "midi": 62,
                    "time": 733.1249999999999,
                    "velocity": 0.6929133858267716,
                    "duration": 0.3125
                },
                {
                    "name": "G4",
                    "midi": 67,
                    "time": 733.1249999999999,
                    "velocity": 0.6929133858267716,
                    "duration": 0.3125
                },
                {
                    "name": "C4",
                    "midi": 60,
                    "time": 733.4374999999999,
                    "velocity": 0.6929133858267716,
                    "duration": 0.3125
                },
                {
                    "name": "D#4",
                    "midi": 63,
                    "time": 733.4374999999999,
                    "velocity": 0.6929133858267716,
                    "duration": 0.3125
                },
                {
                    "name": "G#4",
                    "midi": 68,
                    "time": 733.4374999999999,
                    "velocity": 0.6929133858267716,
                    "duration": 0.3125
                },
                {
                    "name": "C4",
                    "midi": 60,
                    "time": 733.7499999999999,
                    "velocity": 0.6929133858267716,
                    "duration": 0.3125
                },
                {
                    "name": "E4",
                    "midi": 64,
                    "time": 733.7499999999999,
                    "velocity": 0.6929133858267716,
                    "duration": 0.3125
                },
                {
                    "name": "G4",
                    "midi": 67,
                    "time": 733.7499999999999,
                    "velocity": 0.6929133858267716,
                    "duration": 0.3125
                },
                {
                    "name": "C5",
                    "midi": 72,
                    "time": 733.7499999999999,
                    "velocity": 0.6929133858267716,
                    "duration": 0.3125
                },
                {
                    "name": "D4",
                    "midi": 62,
                    "time": 734.0624999999999,
                    "velocity": 0.6929133858267716,
                    "duration": 0.3125
                },
                {
                    "name": "F4",
                    "midi": 65,
                    "time": 734.0624999999999,
                    "velocity": 0.6929133858267716,
                    "duration": 0.3125
                },
                {
                    "name": "A4",
                    "midi": 69,
                    "time": 734.0624999999999,
                    "velocity": 0.6929133858267716,
                    "duration": 0.3125
                },
                {
                    "name": "D5",
                    "midi": 74,
                    "time": 734.0624999999999,
                    "velocity": 0.6929133858267716,
                    "duration": 0.3125
                },
                {
                    "name": "E4",
                    "midi": 64,
                    "time": 734.3749999999999,
                    "velocity": 0.6929133858267716,
                    "duration": 0.3125
                },
                {
                    "name": "G4",
                    "midi": 67,
                    "time": 734.3749999999999,
                    "velocity": 0.6929133858267716,
                    "duration": 0.3125
                },
                {
                    "name": "B4",
                    "midi": 71,
                    "time": 734.3749999999999,
                    "velocity": 0.6929133858267716,
                    "duration": 0.3125
                },
                {
                    "name": "E5",
                    "midi": 76,
                    "time": 734.3749999999999,
                    "velocity": 0.6929133858267716,
                    "duration": 0.3125
                },
                {
                    "name": "D4",
                    "midi": 62,
                    "time": 734.6874999999999,
                    "velocity": 0.6929133858267716,
                    "duration": 0.3125
                },
                {
                    "name": "F4",
                    "midi": 65,
                    "time": 734.6874999999999,
                    "velocity": 0.6929133858267716,
                    "duration": 0.3125
                },
                {
                    "name": "A4",
                    "midi": 69,
                    "time": 734.6874999999999,
                    "velocity": 0.6929133858267716,
                    "duration": 0.3125
                },
                {
                    "name": "D5",
                    "midi": 74,
                    "time": 734.6874999999999,
                    "velocity": 0.6929133858267716,
                    "duration": 0.3125
                },
                {
                    "name": "C4",
                    "midi": 60,
                    "time": 734.9999999999999,
                    "velocity": 0.6929133858267716,
                    "duration": 0.3125
                },
                {
                    "name": "E4",
                    "midi": 64,
                    "time": 734.9999999999999,
                    "velocity": 0.6929133858267716,
                    "duration": 0.3125
                },
                {
                    "name": "G4",
                    "midi": 67,
                    "time": 734.9999999999999,
                    "velocity": 0.6929133858267716,
                    "duration": 0.3125
                },
                {
                    "name": "C5",
                    "midi": 72,
                    "time": 734.9999999999999,
                    "velocity": 0.6929133858267716,
                    "duration": 0.3125
                },
                {
                    "name": "D4",
                    "midi": 62,
                    "time": 735.3124999999999,
                    "velocity": 0.6929133858267716,
                    "duration": 0.3125
                },
                {
                    "name": "F4",
                    "midi": 65,
                    "time": 735.3124999999999,
                    "velocity": 0.6929133858267716,
                    "duration": 0.3125
                },
                {
                    "name": "A4",
                    "midi": 69,
                    "time": 735.3124999999999,
                    "velocity": 0.6929133858267716,
                    "duration": 0.3125
                },
                {
                    "name": "D5",
                    "midi": 74,
                    "time": 735.3124999999999,
                    "velocity": 0.6929133858267716,
                    "duration": 0.3125
                },
                {
                    "name": "E4",
                    "midi": 64,
                    "time": 735.6249999999999,
                    "velocity": 0.6929133858267716,
                    "duration": 0.3125
                },
                {
                    "name": "G4",
                    "midi": 67,
                    "time": 735.6249999999999,
                    "velocity": 0.6929133858267716,
                    "duration": 0.3125
                },
                {
                    "name": "B4",
                    "midi": 71,
                    "time": 735.6249999999999,
                    "velocity": 0.6929133858267716,
                    "duration": 0.3125
                },
                {
                    "name": "E5",
                    "midi": 76,
                    "time": 735.6249999999999,
                    "velocity": 0.6929133858267716,
                    "duration": 0.3125
                },
                {
                    "name": "D4",
                    "midi": 62,
                    "time": 735.9374999999999,
                    "velocity": 0.6929133858267716,
                    "duration": 0.3125
                },
                {
                    "name": "F4",
                    "midi": 65,
                    "time": 735.9374999999999,
                    "velocity": 0.6929133858267716,
                    "duration": 0.3125
                },
                {
                    "name": "A4",
                    "midi": 69,
                    "time": 735.9374999999999,
                    "velocity": 0.6929133858267716,
                    "duration": 0.3125
                },
                {
                    "name": "D5",
                    "midi": 74,
                    "time": 735.9374999999999,
                    "velocity": 0.6929133858267716,
                    "duration": 0.3125
                },
                {
                    "name": "C4",
                    "midi": 60,
                    "time": 736.2499999999999,
                    "velocity": 0.6929133858267716,
                    "duration": 0.3125
                },
                {
                    "name": "E4",
                    "midi": 64,
                    "time": 736.2499999999999,
                    "velocity": 0.6929133858267716,
                    "duration": 0.3125
                },
                {
                    "name": "G4",
                    "midi": 67,
                    "time": 736.2499999999999,
                    "velocity": 0.6929133858267716,
                    "duration": 0.3125
                },
                {
                    "name": "C5",
                    "midi": 72,
                    "time": 736.2499999999999,
                    "velocity": 0.6929133858267716,
                    "duration": 0.3125
                },
                {
                    "name": "D4",
                    "midi": 62,
                    "time": 736.5624999999999,
                    "velocity": 0.6929133858267716,
                    "duration": 0.3125
                },
                {
                    "name": "F4",
                    "midi": 65,
                    "time": 736.5624999999999,
                    "velocity": 0.6929133858267716,
                    "duration": 0.3125
                },
                {
                    "name": "A4",
                    "midi": 69,
                    "time": 736.5624999999999,
                    "velocity": 0.6929133858267716,
                    "duration": 0.3125
                },
                {
                    "name": "D5",
                    "midi": 74,
                    "time": 736.5624999999999,
                    "velocity": 0.6929133858267716,
                    "duration": 0.3125
                },
                {
                    "name": "E4",
                    "midi": 64,
                    "time": 736.8749999999999,
                    "velocity": 0.6929133858267716,
                    "duration": 0.3125
                },
                {
                    "name": "G4",
                    "midi": 67,
                    "time": 736.8749999999999,
                    "velocity": 0.6929133858267716,
                    "duration": 0.3125
                },
                {
                    "name": "B4",
                    "midi": 71,
                    "time": 736.8749999999999,
                    "velocity": 0.6929133858267716,
                    "duration": 0.3125
                },
                {
                    "name": "E5",
                    "midi": 76,
                    "time": 736.8749999999999,
                    "velocity": 0.6929133858267716,
                    "duration": 0.3125
                },
                {
                    "name": "D4",
                    "midi": 62,
                    "time": 737.1874999999999,
                    "velocity": 0.6929133858267716,
                    "duration": 0.3125
                },
                {
                    "name": "F4",
                    "midi": 65,
                    "time": 737.1874999999999,
                    "velocity": 0.6929133858267716,
                    "duration": 0.3125
                },
                {
                    "name": "A4",
                    "midi": 69,
                    "time": 737.1874999999999,
                    "velocity": 0.6929133858267716,
                    "duration": 0.3125
                },
                {
                    "name": "D5",
                    "midi": 74,
                    "time": 737.1874999999999,
                    "velocity": 0.6929133858267716,
                    "duration": 0.3125
                },
                {
                    "name": "C4",
                    "midi": 60,
                    "time": 737.4999999999999,
                    "velocity": 0.6929133858267716,
                    "duration": 0.3125
                },
                {
                    "name": "E4",
                    "midi": 64,
                    "time": 737.4999999999999,
                    "velocity": 0.6929133858267716,
                    "duration": 0.3125
                },
                {
                    "name": "G4",
                    "midi": 67,
                    "time": 737.4999999999999,
                    "velocity": 0.6929133858267716,
                    "duration": 0.3125
                },
                {
                    "name": "C5",
                    "midi": 72,
                    "time": 737.4999999999999,
                    "velocity": 0.6929133858267716,
                    "duration": 0.3125
                },
                {
                    "name": "D4",
                    "midi": 62,
                    "time": 737.8124999999999,
                    "velocity": 0.6929133858267716,
                    "duration": 0.3125
                },
                {
                    "name": "F4",
                    "midi": 65,
                    "time": 737.8124999999999,
                    "velocity": 0.6929133858267716,
                    "duration": 0.3125
                },
                {
                    "name": "A4",
                    "midi": 69,
                    "time": 737.8124999999999,
                    "velocity": 0.6929133858267716,
                    "duration": 0.3125
                },
                {
                    "name": "D5",
                    "midi": 74,
                    "time": 737.8124999999999,
                    "velocity": 0.6929133858267716,
                    "duration": 0.3125
                },
                {
                    "name": "E4",
                    "midi": 64,
                    "time": 738.1249999999999,
                    "velocity": 0.6929133858267716,
                    "duration": 0.3125
                },
                {
                    "name": "G4",
                    "midi": 67,
                    "time": 738.1249999999999,
                    "velocity": 0.6929133858267716,
                    "duration": 0.3125
                },
                {
                    "name": "B4",
                    "midi": 71,
                    "time": 738.1249999999999,
                    "velocity": 0.6929133858267716,
                    "duration": 0.3125
                },
                {
                    "name": "E5",
                    "midi": 76,
                    "time": 738.1249999999999,
                    "velocity": 0.6929133858267716,
                    "duration": 0.3125
                },
                {
                    "name": "D4",
                    "midi": 62,
                    "time": 738.4374999999999,
                    "velocity": 0.6929133858267716,
                    "duration": 0.3125
                },
                {
                    "name": "F4",
                    "midi": 65,
                    "time": 738.4374999999999,
                    "velocity": 0.6929133858267716,
                    "duration": 0.3125
                },
                {
                    "name": "A4",
                    "midi": 69,
                    "time": 738.4374999999999,
                    "velocity": 0.6929133858267716,
                    "duration": 0.3125
                },
                {
                    "name": "D5",
                    "midi": 74,
                    "time": 738.4374999999999,
                    "velocity": 0.6929133858267716,
                    "duration": 0.3125
                },
                {
                    "name": "C4",
                    "midi": 60,
                    "time": 738.7499999999999,
                    "velocity": 0.6929133858267716,
                    "duration": 0.15625
                },
                {
                    "name": "E4",
                    "midi": 64,
                    "time": 738.7499999999999,
                    "velocity": 0.6929133858267716,
                    "duration": 0.15625
                },
                {
                    "name": "G4",
                    "midi": 67,
                    "time": 738.7499999999999,
                    "velocity": 0.6929133858267716,
                    "duration": 0.15625
                },
                {
                    "name": "C5",
                    "midi": 72,
                    "time": 738.7499999999999,
                    "velocity": 0.6929133858267716,
                    "duration": 0.15625
                },
                {
                    "name": "D4",
                    "midi": 62,
                    "time": 738.9062499999999,
                    "velocity": 0.6929133858267716,
                    "duration": 0.15625
                },
                {
                    "name": "F4",
                    "midi": 65,
                    "time": 738.9062499999999,
                    "velocity": 0.6929133858267716,
                    "duration": 0.15625
                },
                {
                    "name": "A4",
                    "midi": 69,
                    "time": 738.9062499999999,
                    "velocity": 0.6929133858267716,
                    "duration": 0.15625
                },
                {
                    "name": "D5",
                    "midi": 74,
                    "time": 738.9062499999999,
                    "velocity": 0.6929133858267716,
                    "duration": 0.15625
                },
                {
                    "name": "E4",
                    "midi": 64,
                    "time": 739.0624999999999,
                    "velocity": 0.6929133858267716,
                    "duration": 0.15625
                },
                {
                    "name": "G4",
                    "midi": 67,
                    "time": 739.0624999999999,
                    "velocity": 0.6929133858267716,
                    "duration": 0.15625
                },
                {
                    "name": "B4",
                    "midi": 71,
                    "time": 739.0624999999999,
                    "velocity": 0.6929133858267716,
                    "duration": 0.15625
                },
                {
                    "name": "E5",
                    "midi": 76,
                    "time": 739.0624999999999,
                    "velocity": 0.6929133858267716,
                    "duration": 0.15625
                },
                {
                    "name": "D4",
                    "midi": 62,
                    "time": 739.2187499999999,
                    "velocity": 0.6929133858267716,
                    "duration": 0.15625
                },
                {
                    "name": "F4",
                    "midi": 65,
                    "time": 739.2187499999999,
                    "velocity": 0.6929133858267716,
                    "duration": 0.15625
                },
                {
                    "name": "A4",
                    "midi": 69,
                    "time": 739.2187499999999,
                    "velocity": 0.6929133858267716,
                    "duration": 0.15625
                },
                {
                    "name": "D5",
                    "midi": 74,
                    "time": 739.2187499999999,
                    "velocity": 0.6929133858267716,
                    "duration": 0.15625
                },
                {
                    "name": "C4",
                    "midi": 60,
                    "time": 739.3749999999999,
                    "velocity": 0.6929133858267716,
                    "duration": 0.15625
                },
                {
                    "name": "E4",
                    "midi": 64,
                    "time": 739.3749999999999,
                    "velocity": 0.6929133858267716,
                    "duration": 0.15625
                },
                {
                    "name": "G4",
                    "midi": 67,
                    "time": 739.3749999999999,
                    "velocity": 0.6929133858267716,
                    "duration": 0.15625
                },
                {
                    "name": "C5",
                    "midi": 72,
                    "time": 739.3749999999999,
                    "velocity": 0.6929133858267716,
                    "duration": 0.15625
                },
                {
                    "name": "D4",
                    "midi": 62,
                    "time": 739.5312499999999,
                    "velocity": 0.6929133858267716,
                    "duration": 0.15625
                },
                {
                    "name": "F4",
                    "midi": 65,
                    "time": 739.5312499999999,
                    "velocity": 0.6929133858267716,
                    "duration": 0.15625
                },
                {
                    "name": "A4",
                    "midi": 69,
                    "time": 739.5312499999999,
                    "velocity": 0.6929133858267716,
                    "duration": 0.15625
                },
                {
                    "name": "D5",
                    "midi": 74,
                    "time": 739.5312499999999,
                    "velocity": 0.6929133858267716,
                    "duration": 0.15625
                },
                {
                    "name": "E4",
                    "midi": 64,
                    "time": 739.6874999999999,
                    "velocity": 0.6929133858267716,
                    "duration": 0.15625
                },
                {
                    "name": "G4",
                    "midi": 67,
                    "time": 739.6874999999999,
                    "velocity": 0.6929133858267716,
                    "duration": 0.15625
                },
                {
                    "name": "B4",
                    "midi": 71,
                    "time": 739.6874999999999,
                    "velocity": 0.6929133858267716,
                    "duration": 0.15625
                },
                {
                    "name": "E5",
                    "midi": 76,
                    "time": 739.6874999999999,
                    "velocity": 0.6929133858267716,
                    "duration": 0.15625
                },
                {
                    "name": "D4",
                    "midi": 62,
                    "time": 739.8437499999999,
                    "velocity": 0.6929133858267716,
                    "duration": 0.15625
                },
                {
                    "name": "F4",
                    "midi": 65,
                    "time": 739.8437499999999,
                    "velocity": 0.6929133858267716,
                    "duration": 0.15625
                },
                {
                    "name": "A4",
                    "midi": 69,
                    "time": 739.8437499999999,
                    "velocity": 0.6929133858267716,
                    "duration": 0.15625
                },
                {
                    "name": "D5",
                    "midi": 74,
                    "time": 739.8437499999999,
                    "velocity": 0.6929133858267716,
                    "duration": 0.15625
                },
                {
                    "name": "C4",
                    "midi": 60,
                    "time": 739.9999999999999,
                    "velocity": 0.6929133858267716,
                    "duration": 0.15625
                },
                {
                    "name": "E4",
                    "midi": 64,
                    "time": 739.9999999999999,
                    "velocity": 0.6929133858267716,
                    "duration": 0.15625
                },
                {
                    "name": "G4",
                    "midi": 67,
                    "time": 739.9999999999999,
                    "velocity": 0.6929133858267716,
                    "duration": 0.15625
                },
                {
                    "name": "C5",
                    "midi": 72,
                    "time": 739.9999999999999,
                    "velocity": 0.6929133858267716,
                    "duration": 0.15625
                },
                {
                    "name": "D4",
                    "midi": 62,
                    "time": 740.1562499999999,
                    "velocity": 0.6929133858267716,
                    "duration": 0.15625
                },
                {
                    "name": "F4",
                    "midi": 65,
                    "time": 740.1562499999999,
                    "velocity": 0.6929133858267716,
                    "duration": 0.15625
                },
                {
                    "name": "A4",
                    "midi": 69,
                    "time": 740.1562499999999,
                    "velocity": 0.6929133858267716,
                    "duration": 0.15625
                },
                {
                    "name": "D5",
                    "midi": 74,
                    "time": 740.1562499999999,
                    "velocity": 0.6929133858267716,
                    "duration": 0.15625
                },
                {
                    "name": "E4",
                    "midi": 64,
                    "time": 740.3124999999999,
                    "velocity": 0.6929133858267716,
                    "duration": 0.15625
                },
                {
                    "name": "G4",
                    "midi": 67,
                    "time": 740.3124999999999,
                    "velocity": 0.6929133858267716,
                    "duration": 0.15625
                },
                {
                    "name": "C5",
                    "midi": 72,
                    "time": 740.3124999999999,
                    "velocity": 0.6929133858267716,
                    "duration": 0.15625
                },
                {
                    "name": "E5",
                    "midi": 76,
                    "time": 740.3124999999999,
                    "velocity": 0.6929133858267716,
                    "duration": 0.15625
                },
                {
                    "name": "D4",
                    "midi": 62,
                    "time": 740.4687499999999,
                    "velocity": 0.6929133858267716,
                    "duration": 0.15625
                },
                {
                    "name": "F4",
                    "midi": 65,
                    "time": 740.4687499999999,
                    "velocity": 0.6929133858267716,
                    "duration": 0.15625
                },
                {
                    "name": "A4",
                    "midi": 69,
                    "time": 740.4687499999999,
                    "velocity": 0.6929133858267716,
                    "duration": 0.15625
                },
                {
                    "name": "D5",
                    "midi": 74,
                    "time": 740.4687499999999,
                    "velocity": 0.6929133858267716,
                    "duration": 0.15625
                },
                {
                    "name": "C4",
                    "midi": 60,
                    "time": 740.6249999999999,
                    "velocity": 0.6929133858267716,
                    "duration": 0.15625
                },
                {
                    "name": "E4",
                    "midi": 64,
                    "time": 740.6249999999999,
                    "velocity": 0.6929133858267716,
                    "duration": 0.15625
                },
                {
                    "name": "G4",
                    "midi": 67,
                    "time": 740.6249999999999,
                    "velocity": 0.6929133858267716,
                    "duration": 0.15625
                },
                {
                    "name": "C5",
                    "midi": 72,
                    "time": 740.6249999999999,
                    "velocity": 0.6929133858267716,
                    "duration": 0.15625
                },
                {
                    "name": "D4",
                    "midi": 62,
                    "time": 740.7812499999999,
                    "velocity": 0.6929133858267716,
                    "duration": 0.15625
                },
                {
                    "name": "F4",
                    "midi": 65,
                    "time": 740.7812499999999,
                    "velocity": 0.6929133858267716,
                    "duration": 0.15625
                },
                {
                    "name": "A4",
                    "midi": 69,
                    "time": 740.7812499999999,
                    "velocity": 0.6929133858267716,
                    "duration": 0.15625
                },
                {
                    "name": "D5",
                    "midi": 74,
                    "time": 740.7812499999999,
                    "velocity": 0.6929133858267716,
                    "duration": 0.15625
                },
                {
                    "name": "E4",
                    "midi": 64,
                    "time": 740.9374999999999,
                    "velocity": 0.6929133858267716,
                    "duration": 0.15625
                },
                {
                    "name": "G4",
                    "midi": 67,
                    "time": 740.9374999999999,
                    "velocity": 0.6929133858267716,
                    "duration": 0.15625
                },
                {
                    "name": "C5",
                    "midi": 72,
                    "time": 740.9374999999999,
                    "velocity": 0.6929133858267716,
                    "duration": 0.15625
                },
                {
                    "name": "E5",
                    "midi": 76,
                    "time": 740.9374999999999,
                    "velocity": 0.6929133858267716,
                    "duration": 0.15625
                },
                {
                    "name": "F4",
                    "midi": 65,
                    "time": 741.0937499999999,
                    "velocity": 0.6929133858267716,
                    "duration": 0.15625
                },
                {
                    "name": "A4",
                    "midi": 69,
                    "time": 741.0937499999999,
                    "velocity": 0.6929133858267716,
                    "duration": 0.15625
                },
                {
                    "name": "C5",
                    "midi": 72,
                    "time": 741.0937499999999,
                    "velocity": 0.6929133858267716,
                    "duration": 0.15625
                },
                {
                    "name": "F5",
                    "midi": 77,
                    "time": 741.0937499999999,
                    "velocity": 0.6929133858267716,
                    "duration": 0.15625
                },
                {
                    "name": "C5",
                    "midi": 72,
                    "time": 741.2499999999999,
                    "velocity": 0.6929133858267716,
                    "duration": 0.15625
                },
                {
                    "name": "E5",
                    "midi": 76,
                    "time": 741.2499999999999,
                    "velocity": 0.6929133858267716,
                    "duration": 0.15625
                },
                {
                    "name": "G5",
                    "midi": 79,
                    "time": 741.2499999999999,
                    "velocity": 0.6929133858267716,
                    "duration": 0.15625
                },
                {
                    "name": "D5",
                    "midi": 74,
                    "time": 741.4062499999999,
                    "velocity": 0.6929133858267716,
                    "duration": 0.15625
                },
                {
                    "name": "F5",
                    "midi": 77,
                    "time": 741.4062499999999,
                    "velocity": 0.6929133858267716,
                    "duration": 0.15625
                },
                {
                    "name": "A5",
                    "midi": 81,
                    "time": 741.4062499999999,
                    "velocity": 0.6929133858267716,
                    "duration": 0.15625
                },
                {
                    "name": "E5",
                    "midi": 76,
                    "time": 741.5624999999999,
                    "velocity": 0.6929133858267716,
                    "duration": 0.15625
                },
                {
                    "name": "G5",
                    "midi": 79,
                    "time": 741.5624999999999,
                    "velocity": 0.6929133858267716,
                    "duration": 0.15625
                },
                {
                    "name": "C6",
                    "midi": 84,
                    "time": 741.5624999999999,
                    "velocity": 0.6929133858267716,
                    "duration": 0.15625
                },
                {
                    "name": "D5",
                    "midi": 74,
                    "time": 741.7187499999999,
                    "velocity": 0.6929133858267716,
                    "duration": 0.15625
                },
                {
                    "name": "F5",
                    "midi": 77,
                    "time": 741.7187499999999,
                    "velocity": 0.6929133858267716,
                    "duration": 0.15625
                },
                {
                    "name": "A5",
                    "midi": 81,
                    "time": 741.7187499999999,
                    "velocity": 0.6929133858267716,
                    "duration": 0.15625
                },
                {
                    "name": "C5",
                    "midi": 72,
                    "time": 741.8749999999999,
                    "velocity": 0.6929133858267716,
                    "duration": 0.15625
                },
                {
                    "name": "E5",
                    "midi": 76,
                    "time": 741.8749999999999,
                    "velocity": 0.6929133858267716,
                    "duration": 0.15625
                },
                {
                    "name": "G5",
                    "midi": 79,
                    "time": 741.8749999999999,
                    "velocity": 0.6929133858267716,
                    "duration": 0.15625
                },
                {
                    "name": "D5",
                    "midi": 74,
                    "time": 742.0312499999999,
                    "velocity": 0.6929133858267716,
                    "duration": 0.15625
                },
                {
                    "name": "F5",
                    "midi": 77,
                    "time": 742.0312499999999,
                    "velocity": 0.6929133858267716,
                    "duration": 0.15625
                },
                {
                    "name": "A5",
                    "midi": 81,
                    "time": 742.0312499999999,
                    "velocity": 0.6929133858267716,
                    "duration": 0.15625
                },
                {
                    "name": "E5",
                    "midi": 76,
                    "time": 742.1874999999999,
                    "velocity": 0.6929133858267716,
                    "duration": 0.15625
                },
                {
                    "name": "G5",
                    "midi": 79,
                    "time": 742.1874999999999,
                    "velocity": 0.6929133858267716,
                    "duration": 0.15625
                },
                {
                    "name": "C6",
                    "midi": 84,
                    "time": 742.1874999999999,
                    "velocity": 0.6929133858267716,
                    "duration": 0.15625
                },
                {
                    "name": "D5",
                    "midi": 74,
                    "time": 742.3437499999999,
                    "velocity": 0.6929133858267716,
                    "duration": 0.15625
                },
                {
                    "name": "F5",
                    "midi": 77,
                    "time": 742.3437499999999,
                    "velocity": 0.6929133858267716,
                    "duration": 0.15625
                },
                {
                    "name": "A5",
                    "midi": 81,
                    "time": 742.3437499999999,
                    "velocity": 0.6929133858267716,
                    "duration": 0.15625
                },
                {
                    "name": "C#5",
                    "midi": 73,
                    "time": 742.4999999999999,
                    "velocity": 0.6929133858267716,
                    "duration": 0.15625
                },
                {
                    "name": "F5",
                    "midi": 77,
                    "time": 742.4999999999999,
                    "velocity": 0.6929133858267716,
                    "duration": 0.15625
                },
                {
                    "name": "G#5",
                    "midi": 80,
                    "time": 742.4999999999999,
                    "velocity": 0.6929133858267716,
                    "duration": 0.15625
                },
                {
                    "name": "D#5",
                    "midi": 75,
                    "time": 742.6562499999999,
                    "velocity": 0.6929133858267716,
                    "duration": 0.15625
                },
                {
                    "name": "F#5",
                    "midi": 78,
                    "time": 742.6562499999999,
                    "velocity": 0.6929133858267716,
                    "duration": 0.15625
                },
                {
                    "name": "A#5",
                    "midi": 82,
                    "time": 742.6562499999999,
                    "velocity": 0.6929133858267716,
                    "duration": 0.15625
                },
                {
                    "name": "F5",
                    "midi": 77,
                    "time": 742.8124999999999,
                    "velocity": 0.6929133858267716,
                    "duration": 0.15625
                },
                {
                    "name": "G#5",
                    "midi": 80,
                    "time": 742.8124999999999,
                    "velocity": 0.6929133858267716,
                    "duration": 0.15625
                },
                {
                    "name": "C#6",
                    "midi": 85,
                    "time": 742.8124999999999,
                    "velocity": 0.6929133858267716,
                    "duration": 0.15625
                },
                {
                    "name": "D#5",
                    "midi": 75,
                    "time": 742.9687499999999,
                    "velocity": 0.6929133858267716,
                    "duration": 0.15625
                },
                {
                    "name": "F#5",
                    "midi": 78,
                    "time": 742.9687499999999,
                    "velocity": 0.6929133858267716,
                    "duration": 0.15625
                },
                {
                    "name": "A#5",
                    "midi": 82,
                    "time": 742.9687499999999,
                    "velocity": 0.6929133858267716,
                    "duration": 0.15625
                },
                {
                    "name": "C#5",
                    "midi": 73,
                    "time": 743.1249999999999,
                    "velocity": 0.6929133858267716,
                    "duration": 0.15625
                },
                {
                    "name": "F5",
                    "midi": 77,
                    "time": 743.1249999999999,
                    "velocity": 0.6929133858267716,
                    "duration": 0.15625
                },
                {
                    "name": "G#5",
                    "midi": 80,
                    "time": 743.1249999999999,
                    "velocity": 0.6929133858267716,
                    "duration": 0.15625
                },
                {
                    "name": "D#5",
                    "midi": 75,
                    "time": 743.2812499999999,
                    "velocity": 0.6929133858267716,
                    "duration": 0.15625
                },
                {
                    "name": "F#5",
                    "midi": 78,
                    "time": 743.2812499999999,
                    "velocity": 0.6929133858267716,
                    "duration": 0.15625
                },
                {
                    "name": "A#5",
                    "midi": 82,
                    "time": 743.2812499999999,
                    "velocity": 0.6929133858267716,
                    "duration": 0.15625
                },
                {
                    "name": "F5",
                    "midi": 77,
                    "time": 743.4374999999999,
                    "velocity": 0.6929133858267716,
                    "duration": 0.15625
                },
                {
                    "name": "G#5",
                    "midi": 80,
                    "time": 743.4374999999999,
                    "velocity": 0.6929133858267716,
                    "duration": 0.15625
                },
                {
                    "name": "C#6",
                    "midi": 85,
                    "time": 743.4374999999999,
                    "velocity": 0.6929133858267716,
                    "duration": 0.15625
                },
                {
                    "name": "D#5",
                    "midi": 75,
                    "time": 743.5937499999999,
                    "velocity": 0.6929133858267716,
                    "duration": 0.15625
                },
                {
                    "name": "F#5",
                    "midi": 78,
                    "time": 743.5937499999999,
                    "velocity": 0.6929133858267716,
                    "duration": 0.15625
                },
                {
                    "name": "A#5",
                    "midi": 82,
                    "time": 743.5937499999999,
                    "velocity": 0.6929133858267716,
                    "duration": 0.15625
                },
                {
                    "name": "D5",
                    "midi": 74,
                    "time": 743.7499999999999,
                    "velocity": 0.6929133858267716,
                    "duration": 0.15625
                },
                {
                    "name": "F#5",
                    "midi": 78,
                    "time": 743.7499999999999,
                    "velocity": 0.6929133858267716,
                    "duration": 0.15625
                },
                {
                    "name": "A5",
                    "midi": 81,
                    "time": 743.7499999999999,
                    "velocity": 0.6929133858267716,
                    "duration": 0.15625
                },
                {
                    "name": "E5",
                    "midi": 76,
                    "time": 743.9062499999999,
                    "velocity": 0.6929133858267716,
                    "duration": 0.15625
                },
                {
                    "name": "G5",
                    "midi": 79,
                    "time": 743.9062499999999,
                    "velocity": 0.6929133858267716,
                    "duration": 0.15625
                },
                {
                    "name": "B5",
                    "midi": 83,
                    "time": 743.9062499999999,
                    "velocity": 0.6929133858267716,
                    "duration": 0.15625
                },
                {
                    "name": "F#5",
                    "midi": 78,
                    "time": 744.0624999999999,
                    "velocity": 0.6929133858267716,
                    "duration": 0.15625
                },
                {
                    "name": "A5",
                    "midi": 81,
                    "time": 744.0624999999999,
                    "velocity": 0.6929133858267716,
                    "duration": 0.15625
                },
                {
                    "name": "D6",
                    "midi": 86,
                    "time": 744.0624999999999,
                    "velocity": 0.6929133858267716,
                    "duration": 0.15625
                },
                {
                    "name": "E5",
                    "midi": 76,
                    "time": 744.2187499999999,
                    "velocity": 0.6929133858267716,
                    "duration": 0.15625
                },
                {
                    "name": "G5",
                    "midi": 79,
                    "time": 744.2187499999999,
                    "velocity": 0.6929133858267716,
                    "duration": 0.15625
                },
                {
                    "name": "B5",
                    "midi": 83,
                    "time": 744.2187499999999,
                    "velocity": 0.6929133858267716,
                    "duration": 0.15625
                },
                {
                    "name": "D5",
                    "midi": 74,
                    "time": 744.3749999999999,
                    "velocity": 0.6929133858267716,
                    "duration": 0.15625
                },
                {
                    "name": "F#5",
                    "midi": 78,
                    "time": 744.3749999999999,
                    "velocity": 0.6929133858267716,
                    "duration": 0.15625
                },
                {
                    "name": "A5",
                    "midi": 81,
                    "time": 744.3749999999999,
                    "velocity": 0.6929133858267716,
                    "duration": 0.15625
                },
                {
                    "name": "E5",
                    "midi": 76,
                    "time": 744.5312499999999,
                    "velocity": 0.6929133858267716,
                    "duration": 0.15625
                },
                {
                    "name": "G5",
                    "midi": 79,
                    "time": 744.5312499999999,
                    "velocity": 0.6929133858267716,
                    "duration": 0.15625
                },
                {
                    "name": "B5",
                    "midi": 83,
                    "time": 744.5312499999999,
                    "velocity": 0.6929133858267716,
                    "duration": 0.15625
                },
                {
                    "name": "F#5",
                    "midi": 78,
                    "time": 744.6874999999999,
                    "velocity": 0.6929133858267716,
                    "duration": 0.15625
                },
                {
                    "name": "A5",
                    "midi": 81,
                    "time": 744.6874999999999,
                    "velocity": 0.6929133858267716,
                    "duration": 0.15625
                },
                {
                    "name": "D6",
                    "midi": 86,
                    "time": 744.6874999999999,
                    "velocity": 0.6929133858267716,
                    "duration": 0.15625
                },
                {
                    "name": "E5",
                    "midi": 76,
                    "time": 744.8437499999999,
                    "velocity": 0.6929133858267716,
                    "duration": 0.15625
                },
                {
                    "name": "G5",
                    "midi": 79,
                    "time": 744.8437499999999,
                    "velocity": 0.6929133858267716,
                    "duration": 0.15625
                },
                {
                    "name": "B5",
                    "midi": 83,
                    "time": 744.8437499999999,
                    "velocity": 0.6929133858267716,
                    "duration": 0.15625
                },
                {
                    "name": "D#5",
                    "midi": 75,
                    "time": 744.9999999999999,
                    "velocity": 0.6929133858267716,
                    "duration": 0.15625
                },
                {
                    "name": "G5",
                    "midi": 79,
                    "time": 744.9999999999999,
                    "velocity": 0.6929133858267716,
                    "duration": 0.15625
                },
                {
                    "name": "A#5",
                    "midi": 82,
                    "time": 744.9999999999999,
                    "velocity": 0.6929133858267716,
                    "duration": 0.15625
                },
                {
                    "name": "F5",
                    "midi": 77,
                    "time": 745.1562499999999,
                    "velocity": 0.6929133858267716,
                    "duration": 0.15625
                },
                {
                    "name": "G#5",
                    "midi": 80,
                    "time": 745.1562499999999,
                    "velocity": 0.6929133858267716,
                    "duration": 0.15625
                },
                {
                    "name": "C6",
                    "midi": 84,
                    "time": 745.1562499999999,
                    "velocity": 0.6929133858267716,
                    "duration": 0.15625
                },
                {
                    "name": "G5",
                    "midi": 79,
                    "time": 745.3124999999999,
                    "velocity": 0.6929133858267716,
                    "duration": 0.15625
                },
                {
                    "name": "A#5",
                    "midi": 82,
                    "time": 745.3124999999999,
                    "velocity": 0.6929133858267716,
                    "duration": 0.15625
                },
                {
                    "name": "D#6",
                    "midi": 87,
                    "time": 745.3124999999999,
                    "velocity": 0.6929133858267716,
                    "duration": 0.15625
                },
                {
                    "name": "D#5",
                    "midi": 75,
                    "time": 745.4687499999999,
                    "velocity": 0.6929133858267716,
                    "duration": 0.15625
                },
                {
                    "name": "G5",
                    "midi": 79,
                    "time": 745.4687499999999,
                    "velocity": 0.6929133858267716,
                    "duration": 0.15625
                },
                {
                    "name": "A#5",
                    "midi": 82,
                    "time": 745.4687499999999,
                    "velocity": 0.6929133858267716,
                    "duration": 0.15625
                },
                {
                    "name": "D#5",
                    "midi": 75,
                    "time": 745.6249999999999,
                    "velocity": 0.6929133858267716,
                    "duration": 0.15625
                },
                {
                    "name": "G5",
                    "midi": 79,
                    "time": 745.6249999999999,
                    "velocity": 0.6929133858267716,
                    "duration": 0.15625
                },
                {
                    "name": "A#5",
                    "midi": 82,
                    "time": 745.6249999999999,
                    "velocity": 0.6929133858267716,
                    "duration": 0.15625
                },
                {
                    "name": "F5",
                    "midi": 77,
                    "time": 745.7812499999999,
                    "velocity": 0.6929133858267716,
                    "duration": 0.15625
                },
                {
                    "name": "G#5",
                    "midi": 80,
                    "time": 745.7812499999999,
                    "velocity": 0.6929133858267716,
                    "duration": 0.15625
                },
                {
                    "name": "C6",
                    "midi": 84,
                    "time": 745.7812499999999,
                    "velocity": 0.6929133858267716,
                    "duration": 0.15625
                },
                {
                    "name": "G5",
                    "midi": 79,
                    "time": 745.9374999999999,
                    "velocity": 0.6929133858267716,
                    "duration": 0.15625
                },
                {
                    "name": "A#5",
                    "midi": 82,
                    "time": 745.9374999999999,
                    "velocity": 0.6929133858267716,
                    "duration": 0.15625
                },
                {
                    "name": "D#6",
                    "midi": 87,
                    "time": 745.9374999999999,
                    "velocity": 0.6929133858267716,
                    "duration": 0.15625
                },
                {
                    "name": "G5",
                    "midi": 79,
                    "time": 746.0937499999999,
                    "velocity": 0.6929133858267716,
                    "duration": 0.15625
                },
                {
                    "name": "A#5",
                    "midi": 82,
                    "time": 746.0937499999999,
                    "velocity": 0.6929133858267716,
                    "duration": 0.15625
                },
                {
                    "name": "E6",
                    "midi": 88,
                    "time": 746.0937499999999,
                    "velocity": 0.6929133858267716,
                    "duration": 0.15625
                },
                {
                    "name": "F5",
                    "midi": 77,
                    "time": 746.2499999999999,
                    "velocity": 0.5905511811023622,
                    "duration": 1.25
                },
                {
                    "name": "F6",
                    "midi": 89,
                    "time": 746.2499999999999,
                    "velocity": 0.5905511811023622,
                    "duration": 1.25
                },
                {
                    "name": "C5",
                    "midi": 72,
                    "time": 747.4999999999999,
                    "velocity": 0.5905511811023622,
                    "duration": 1.25
                },
                {
                    "name": "C6",
                    "midi": 84,
                    "time": 747.4999999999999,
                    "velocity": 0.5905511811023622,
                    "duration": 1.25
                },
                {
                    "name": "F4",
                    "midi": 65,
                    "time": 748.7499999999999,
                    "velocity": 0.5905511811023622,
                    "duration": 1.25
                },
                {
                    "name": "F5",
                    "midi": 77,
                    "time": 748.7499999999999,
                    "velocity": 0.5905511811023622,
                    "duration": 1.25
                },
                {
                    "name": "C4",
                    "midi": 60,
                    "time": 749.9999999999999,
                    "velocity": 0.5905511811023622,
                    "duration": 0.625
                },
                {
                    "name": "C5",
                    "midi": 72,
                    "time": 749.9999999999999,
                    "velocity": 0.5905511811023622,
                    "duration": 0.625
                },
                {
                    "name": "A#3",
                    "midi": 58,
                    "time": 750.6249999999999,
                    "velocity": 0.5905511811023622,
                    "duration": 0.625
                },
                {
                    "name": "A#4",
                    "midi": 70,
                    "time": 750.6249999999999,
                    "velocity": 0.5905511811023622,
                    "duration": 0.625
                },
                {
                    "name": "A3",
                    "midi": 57,
                    "time": 751.5624999999999,
                    "velocity": 0.7952755905511811,
                    "duration": 0.3125
                },
                {
                    "name": "C4",
                    "midi": 60,
                    "time": 751.5624999999999,
                    "velocity": 0.7952755905511811,
                    "duration": 0.3125
                },
                {
                    "name": "F4",
                    "midi": 65,
                    "time": 751.5624999999999,
                    "velocity": 0.7952755905511811,
                    "duration": 0.3125
                },
                {
                    "name": "A#3",
                    "midi": 58,
                    "time": 751.8749999999999,
                    "velocity": 0.5905511811023622,
                    "duration": 0.06119791666662877
                },
                {
                    "name": "C4",
                    "midi": 60,
                    "time": 751.8749999999999,
                    "velocity": 0.5905511811023622,
                    "duration": 0.06119791666662877
                },
                {
                    "name": "G4",
                    "midi": 67,
                    "time": 751.8749999999999,
                    "velocity": 0.5905511811023622,
                    "duration": 0.06119791666662877
                },
                {
                    "name": "G3",
                    "midi": 55,
                    "time": 752.1874999999999,
                    "velocity": 0.7952755905511811,
                    "duration": 0.3125
                },
                {
                    "name": "C4",
                    "midi": 60,
                    "time": 752.1874999999999,
                    "velocity": 0.7952755905511811,
                    "duration": 0.3125
                },
                {
                    "name": "E4",
                    "midi": 64,
                    "time": 752.1874999999999,
                    "velocity": 0.7952755905511811,
                    "duration": 0.3125
                },
                {
                    "name": "A#3",
                    "midi": 58,
                    "time": 752.4999999999999,
                    "velocity": 0.7952755905511811,
                    "duration": 0.3125
                },
                {
                    "name": "D4",
                    "midi": 62,
                    "time": 752.4999999999999,
                    "velocity": 0.7952755905511811,
                    "duration": 0.3125
                },
                {
                    "name": "F4",
                    "midi": 65,
                    "time": 752.4999999999999,
                    "velocity": 0.7952755905511811,
                    "duration": 0.3125
                },
                {
                    "name": "A#3",
                    "midi": 58,
                    "time": 752.8124999999999,
                    "velocity": 0.7952755905511811,
                    "duration": 0.3125
                },
                {
                    "name": "C4",
                    "midi": 60,
                    "time": 752.8124999999999,
                    "velocity": 0.7952755905511811,
                    "duration": 0.3125
                },
                {
                    "name": "E4",
                    "midi": 64,
                    "time": 752.8124999999999,
                    "velocity": 0.7952755905511811,
                    "duration": 0.3125
                },
                {
                    "name": "F3",
                    "midi": 53,
                    "time": 753.1249999999999,
                    "velocity": 0.7952755905511811,
                    "duration": 0.3125
                },
                {
                    "name": "A#3",
                    "midi": 58,
                    "time": 753.1249999999999,
                    "velocity": 0.7952755905511811,
                    "duration": 0.3125
                },
                {
                    "name": "D4",
                    "midi": 62,
                    "time": 753.1249999999999,
                    "velocity": 0.7952755905511811,
                    "duration": 0.3125
                },
                {
                    "name": "D4",
                    "midi": 62,
                    "time": 753.4374999999999,
                    "velocity": 0.7952755905511811,
                    "duration": 0.3125
                },
                {
                    "name": "F4",
                    "midi": 65,
                    "time": 753.4374999999999,
                    "velocity": 0.7952755905511811,
                    "duration": 0.3125
                },
                {
                    "name": "A#4",
                    "midi": 70,
                    "time": 753.4374999999999,
                    "velocity": 0.7952755905511811,
                    "duration": 0.3125
                },
                {
                    "name": "E4",
                    "midi": 64,
                    "time": 753.7499999999999,
                    "velocity": 0.5905511811023622,
                    "duration": 0.06119791666662877
                },
                {
                    "name": "F4",
                    "midi": 65,
                    "time": 753.7499999999999,
                    "velocity": 0.5905511811023622,
                    "duration": 0.06119791666662877
                },
                {
                    "name": "C5",
                    "midi": 72,
                    "time": 753.7499999999999,
                    "velocity": 0.5905511811023622,
                    "duration": 0.06119791666662877
                },
                {
                    "name": "C4",
                    "midi": 60,
                    "time": 754.0624999999999,
                    "velocity": 0.7952755905511811,
                    "duration": 0.3125
                },
                {
                    "name": "F4",
                    "midi": 65,
                    "time": 754.0624999999999,
                    "velocity": 0.7952755905511811,
                    "duration": 0.3125
                },
                {
                    "name": "A4",
                    "midi": 69,
                    "time": 754.0624999999999,
                    "velocity": 0.7952755905511811,
                    "duration": 0.3125
                },
                {
                    "name": "D#4",
                    "midi": 63,
                    "time": 754.3749999999999,
                    "velocity": 0.7952755905511811,
                    "duration": 0.3125
                },
                {
                    "name": "G4",
                    "midi": 67,
                    "time": 754.3749999999999,
                    "velocity": 0.7952755905511811,
                    "duration": 0.3125
                },
                {
                    "name": "A#4",
                    "midi": 70,
                    "time": 754.3749999999999,
                    "velocity": 0.7952755905511811,
                    "duration": 0.3125
                },
                {
                    "name": "D#4",
                    "midi": 63,
                    "time": 754.6874999999999,
                    "velocity": 0.7952755905511811,
                    "duration": 0.3125
                },
                {
                    "name": "F4",
                    "midi": 65,
                    "time": 754.6874999999999,
                    "velocity": 0.7952755905511811,
                    "duration": 0.3125
                },
                {
                    "name": "A4",
                    "midi": 69,
                    "time": 754.6874999999999,
                    "velocity": 0.7952755905511811,
                    "duration": 0.3125
                },
                {
                    "name": "A#3",
                    "midi": 58,
                    "time": 754.9999999999999,
                    "velocity": 0.7952755905511811,
                    "duration": 0.3125
                },
                {
                    "name": "D#4",
                    "midi": 63,
                    "time": 754.9999999999999,
                    "velocity": 0.7952755905511811,
                    "duration": 0.3125
                },
                {
                    "name": "G4",
                    "midi": 67,
                    "time": 754.9999999999999,
                    "velocity": 0.7952755905511811,
                    "duration": 0.3125
                },
                {
                    "name": "G4",
                    "midi": 67,
                    "time": 755.3124999999999,
                    "velocity": 0.7952755905511811,
                    "duration": 0.3125
                },
                {
                    "name": "B4",
                    "midi": 71,
                    "time": 755.3124999999999,
                    "velocity": 0.7952755905511811,
                    "duration": 0.3125
                },
                {
                    "name": "E5",
                    "midi": 76,
                    "time": 755.3124999999999,
                    "velocity": 0.7952755905511811,
                    "duration": 0.3125
                },
                {
                    "name": "A4",
                    "midi": 69,
                    "time": 755.6249999999999,
                    "velocity": 0.5905511811023622,
                    "duration": 0.06119791666662877
                },
                {
                    "name": "B4",
                    "midi": 71,
                    "time": 755.6249999999999,
                    "velocity": 0.5905511811023622,
                    "duration": 0.06119791666662877
                },
                {
                    "name": "F5",
                    "midi": 77,
                    "time": 755.6249999999999,
                    "velocity": 0.5905511811023622,
                    "duration": 0.06119791666662877
                },
                {
                    "name": "F4",
                    "midi": 65,
                    "time": 755.9374999999999,
                    "velocity": 0.7952755905511811,
                    "duration": 0.3125
                },
                {
                    "name": "B4",
                    "midi": 71,
                    "time": 755.9374999999999,
                    "velocity": 0.7952755905511811,
                    "duration": 0.3125
                },
                {
                    "name": "D5",
                    "midi": 74,
                    "time": 755.9374999999999,
                    "velocity": 0.7952755905511811,
                    "duration": 0.3125
                },
                {
                    "name": "G4",
                    "midi": 67,
                    "time": 756.2499999999999,
                    "velocity": 0.7952755905511811,
                    "duration": 0.3125
                },
                {
                    "name": "A#4",
                    "midi": 70,
                    "time": 756.2499999999999,
                    "velocity": 0.7952755905511811,
                    "duration": 0.3125
                },
                {
                    "name": "E5",
                    "midi": 76,
                    "time": 756.2499999999999,
                    "velocity": 0.7952755905511811,
                    "duration": 0.3125
                },
                {
                    "name": "F4",
                    "midi": 65,
                    "time": 756.5624999999999,
                    "velocity": 0.7952755905511811,
                    "duration": 0.3125
                },
                {
                    "name": "A#4",
                    "midi": 70,
                    "time": 756.5624999999999,
                    "velocity": 0.7952755905511811,
                    "duration": 0.3125
                },
                {
                    "name": "D5",
                    "midi": 74,
                    "time": 756.5624999999999,
                    "velocity": 0.7952755905511811,
                    "duration": 0.3125
                },
                {
                    "name": "E4",
                    "midi": 64,
                    "time": 756.8749999999999,
                    "velocity": 0.7952755905511811,
                    "duration": 0.3125
                },
                {
                    "name": "A#4",
                    "midi": 70,
                    "time": 756.8749999999999,
                    "velocity": 0.7952755905511811,
                    "duration": 0.3125
                },
                {
                    "name": "C5",
                    "midi": 72,
                    "time": 756.8749999999999,
                    "velocity": 0.7952755905511811,
                    "duration": 0.3125
                },
                {
                    "name": "C5",
                    "midi": 72,
                    "time": 757.1874999999999,
                    "velocity": 0.7952755905511811,
                    "duration": 0.3125
                },
                {
                    "name": "E5",
                    "midi": 76,
                    "time": 757.1874999999999,
                    "velocity": 0.7952755905511811,
                    "duration": 0.3125
                },
                {
                    "name": "A5",
                    "midi": 81,
                    "time": 757.1874999999999,
                    "velocity": 0.7952755905511811,
                    "duration": 0.3125
                },
                {
                    "name": "D5",
                    "midi": 74,
                    "time": 757.4999999999999,
                    "velocity": 0.5905511811023622,
                    "duration": 0.06119791666662877
                },
                {
                    "name": "E5",
                    "midi": 76,
                    "time": 757.4999999999999,
                    "velocity": 0.5905511811023622,
                    "duration": 0.06119791666662877
                },
                {
                    "name": "A#5",
                    "midi": 82,
                    "time": 757.4999999999999,
                    "velocity": 0.5905511811023622,
                    "duration": 0.06119791666662877
                },
                {
                    "name": "A#4",
                    "midi": 70,
                    "time": 757.8124999999999,
                    "velocity": 0.7952755905511811,
                    "duration": 0.3125
                },
                {
                    "name": "E5",
                    "midi": 76,
                    "time": 757.8124999999999,
                    "velocity": 0.7952755905511811,
                    "duration": 0.3125
                },
                {
                    "name": "G5",
                    "midi": 79,
                    "time": 757.8124999999999,
                    "velocity": 0.7952755905511811,
                    "duration": 0.3125
                },
                {
                    "name": "C5",
                    "midi": 72,
                    "time": 758.1249999999999,
                    "velocity": 0.7952755905511811,
                    "duration": 0.3125
                },
                {
                    "name": "F5",
                    "midi": 77,
                    "time": 758.1249999999999,
                    "velocity": 0.7952755905511811,
                    "duration": 0.3125
                },
                {
                    "name": "A5",
                    "midi": 81,
                    "time": 758.1249999999999,
                    "velocity": 0.7952755905511811,
                    "duration": 0.3125
                },
                {
                    "name": "C5",
                    "midi": 72,
                    "time": 758.4374999999999,
                    "velocity": 0.7952755905511811,
                    "duration": 0.3125
                },
                {
                    "name": "E5",
                    "midi": 76,
                    "time": 758.4374999999999,
                    "velocity": 0.7952755905511811,
                    "duration": 0.3125
                },
                {
                    "name": "G5",
                    "midi": 79,
                    "time": 758.4374999999999,
                    "velocity": 0.7952755905511811,
                    "duration": 0.3125
                },
                {
                    "name": "F5",
                    "midi": 77,
                    "time": 758.7499999999999,
                    "velocity": 0.5905511811023622,
                    "duration": 0.15625
                },
                {
                    "name": "C6",
                    "midi": 84,
                    "time": 758.7499999999999,
                    "velocity": 0.5905511811023622,
                    "duration": 0.15625
                },
                {
                    "name": "F6",
                    "midi": 89,
                    "time": 758.7499999999999,
                    "velocity": 0.5905511811023622,
                    "duration": 0.15625
                },
                {
                    "name": "F5",
                    "midi": 77,
                    "time": 758.9062499999999,
                    "velocity": 0.5905511811023622,
                    "duration": 0.15625
                },
                {
                    "name": "C6",
                    "midi": 84,
                    "time": 758.9062499999999,
                    "velocity": 0.5905511811023622,
                    "duration": 0.15625
                },
                {
                    "name": "F6",
                    "midi": 89,
                    "time": 758.9062499999999,
                    "velocity": 0.5905511811023622,
                    "duration": 0.15625
                },
                {
                    "name": "F5",
                    "midi": 77,
                    "time": 759.0624999999999,
                    "velocity": 0.5905511811023622,
                    "duration": 0.15625
                },
                {
                    "name": "C6",
                    "midi": 84,
                    "time": 759.0624999999999,
                    "velocity": 0.5905511811023622,
                    "duration": 0.15625
                },
                {
                    "name": "F6",
                    "midi": 89,
                    "time": 759.0624999999999,
                    "velocity": 0.5905511811023622,
                    "duration": 0.15625
                },
                {
                    "name": "F5",
                    "midi": 77,
                    "time": 759.2187499999999,
                    "velocity": 0.5905511811023622,
                    "duration": 0.15625
                },
                {
                    "name": "C6",
                    "midi": 84,
                    "time": 759.2187499999999,
                    "velocity": 0.5905511811023622,
                    "duration": 0.15625
                },
                {
                    "name": "F6",
                    "midi": 89,
                    "time": 759.2187499999999,
                    "velocity": 0.5905511811023622,
                    "duration": 0.15625
                },
                {
                    "name": "G5",
                    "midi": 79,
                    "time": 759.3749999999999,
                    "velocity": 0.7952755905511811,
                    "duration": 0.3125
                },
                {
                    "name": "D6",
                    "midi": 86,
                    "time": 759.3749999999999,
                    "velocity": 0.7952755905511811,
                    "duration": 0.3125
                },
                {
                    "name": "G6",
                    "midi": 91,
                    "time": 759.3749999999999,
                    "velocity": 0.7952755905511811,
                    "duration": 0.3125
                },
                {
                    "name": "C5",
                    "midi": 72,
                    "time": 759.6874999999999,
                    "velocity": 0.5905511811023622,
                    "duration": 0.15625
                },
                {
                    "name": "F5",
                    "midi": 77,
                    "time": 759.6874999999999,
                    "velocity": 0.5905511811023622,
                    "duration": 0.15625
                },
                {
                    "name": "C6",
                    "midi": 84,
                    "time": 759.6874999999999,
                    "velocity": 0.5905511811023622,
                    "duration": 0.15625
                },
                {
                    "name": "C5",
                    "midi": 72,
                    "time": 759.8437499999999,
                    "velocity": 0.5905511811023622,
                    "duration": 0.15625
                },
                {
                    "name": "F5",
                    "midi": 77,
                    "time": 759.8437499999999,
                    "velocity": 0.5905511811023622,
                    "duration": 0.15625
                },
                {
                    "name": "C6",
                    "midi": 84,
                    "time": 759.8437499999999,
                    "velocity": 0.5905511811023622,
                    "duration": 0.15625
                },
                {
                    "name": "C5",
                    "midi": 72,
                    "time": 759.9999999999999,
                    "velocity": 0.5905511811023622,
                    "duration": 0.15625
                },
                {
                    "name": "F5",
                    "midi": 77,
                    "time": 759.9999999999999,
                    "velocity": 0.5905511811023622,
                    "duration": 0.15625
                },
                {
                    "name": "C6",
                    "midi": 84,
                    "time": 759.9999999999999,
                    "velocity": 0.5905511811023622,
                    "duration": 0.15625
                },
                {
                    "name": "C5",
                    "midi": 72,
                    "time": 760.1562499999999,
                    "velocity": 0.5905511811023622,
                    "duration": 0.15625
                },
                {
                    "name": "F5",
                    "midi": 77,
                    "time": 760.1562499999999,
                    "velocity": 0.5905511811023622,
                    "duration": 0.15625
                },
                {
                    "name": "C6",
                    "midi": 84,
                    "time": 760.1562499999999,
                    "velocity": 0.5905511811023622,
                    "duration": 0.15625
                },
                {
                    "name": "D5",
                    "midi": 74,
                    "time": 760.3124999999999,
                    "velocity": 0.7952755905511811,
                    "duration": 0.3125
                },
                {
                    "name": "G5",
                    "midi": 79,
                    "time": 760.3124999999999,
                    "velocity": 0.7952755905511811,
                    "duration": 0.3125
                },
                {
                    "name": "D6",
                    "midi": 86,
                    "time": 760.3124999999999,
                    "velocity": 0.7952755905511811,
                    "duration": 0.3125
                },
                {
                    "name": "F4",
                    "midi": 65,
                    "time": 760.6249999999999,
                    "velocity": 0.5905511811023622,
                    "duration": 0.15625
                },
                {
                    "name": "A#4",
                    "midi": 70,
                    "time": 760.6249999999999,
                    "velocity": 0.5905511811023622,
                    "duration": 0.15625
                },
                {
                    "name": "F5",
                    "midi": 77,
                    "time": 760.6249999999999,
                    "velocity": 0.5905511811023622,
                    "duration": 0.15625
                },
                {
                    "name": "F4",
                    "midi": 65,
                    "time": 760.7812499999999,
                    "velocity": 0.5905511811023622,
                    "duration": 0.15625
                },
                {
                    "name": "C5",
                    "midi": 72,
                    "time": 760.7812499999999,
                    "velocity": 0.5905511811023622,
                    "duration": 0.15625
                },
                {
                    "name": "F5",
                    "midi": 77,
                    "time": 760.7812499999999,
                    "velocity": 0.5905511811023622,
                    "duration": 0.15625
                },
                {
                    "name": "F4",
                    "midi": 65,
                    "time": 760.9374999999999,
                    "velocity": 0.5905511811023622,
                    "duration": 0.15625
                },
                {
                    "name": "C5",
                    "midi": 72,
                    "time": 760.9374999999999,
                    "velocity": 0.5905511811023622,
                    "duration": 0.15625
                },
                {
                    "name": "F5",
                    "midi": 77,
                    "time": 760.9374999999999,
                    "velocity": 0.5905511811023622,
                    "duration": 0.15625
                },
                {
                    "name": "F4",
                    "midi": 65,
                    "time": 761.0937499999999,
                    "velocity": 0.5905511811023622,
                    "duration": 0.15625
                },
                {
                    "name": "C5",
                    "midi": 72,
                    "time": 761.0937499999999,
                    "velocity": 0.5905511811023622,
                    "duration": 0.15625
                },
                {
                    "name": "F5",
                    "midi": 77,
                    "time": 761.0937499999999,
                    "velocity": 0.5905511811023622,
                    "duration": 0.15625
                },
                {
                    "name": "G4",
                    "midi": 67,
                    "time": 761.2499999999999,
                    "velocity": 0.7952755905511811,
                    "duration": 0.3125
                },
                {
                    "name": "D5",
                    "midi": 74,
                    "time": 761.2499999999999,
                    "velocity": 0.7952755905511811,
                    "duration": 0.3125
                },
                {
                    "name": "G5",
                    "midi": 79,
                    "time": 761.2499999999999,
                    "velocity": 0.7952755905511811,
                    "duration": 0.3125
                },
                {
                    "name": "F5",
                    "midi": 77,
                    "time": 761.5624999999999,
                    "velocity": 0.5905511811023622,
                    "duration": 0.15625
                },
                {
                    "name": "C6",
                    "midi": 84,
                    "time": 761.5624999999999,
                    "velocity": 0.5905511811023622,
                    "duration": 0.15625
                },
                {
                    "name": "F6",
                    "midi": 89,
                    "time": 761.5624999999999,
                    "velocity": 0.5905511811023622,
                    "duration": 0.15625
                },
                {
                    "name": "F5",
                    "midi": 77,
                    "time": 761.7187499999999,
                    "velocity": 0.5905511811023622,
                    "duration": 0.15625
                },
                {
                    "name": "C6",
                    "midi": 84,
                    "time": 761.7187499999999,
                    "velocity": 0.5905511811023622,
                    "duration": 0.15625
                },
                {
                    "name": "F6",
                    "midi": 89,
                    "time": 761.7187499999999,
                    "velocity": 0.5905511811023622,
                    "duration": 0.15625
                },
                {
                    "name": "F5",
                    "midi": 77,
                    "time": 761.8749999999999,
                    "velocity": 0.5905511811023622,
                    "duration": 0.15625
                },
                {
                    "name": "C6",
                    "midi": 84,
                    "time": 761.8749999999999,
                    "velocity": 0.5905511811023622,
                    "duration": 0.15625
                },
                {
                    "name": "F6",
                    "midi": 89,
                    "time": 761.8749999999999,
                    "velocity": 0.5905511811023622,
                    "duration": 0.15625
                },
                {
                    "name": "F5",
                    "midi": 77,
                    "time": 762.0312499999999,
                    "velocity": 0.5905511811023622,
                    "duration": 0.15625
                },
                {
                    "name": "C6",
                    "midi": 84,
                    "time": 762.0312499999999,
                    "velocity": 0.5905511811023622,
                    "duration": 0.15625
                },
                {
                    "name": "F6",
                    "midi": 89,
                    "time": 762.0312499999999,
                    "velocity": 0.5905511811023622,
                    "duration": 0.15625
                },
                {
                    "name": "G5",
                    "midi": 79,
                    "time": 762.1874999999999,
                    "velocity": 0.7952755905511811,
                    "duration": 0.3125
                },
                {
                    "name": "D6",
                    "midi": 86,
                    "time": 762.1874999999999,
                    "velocity": 0.7952755905511811,
                    "duration": 0.3125
                },
                {
                    "name": "G6",
                    "midi": 91,
                    "time": 762.1874999999999,
                    "velocity": 0.7952755905511811,
                    "duration": 0.3125
                },
                {
                    "name": "C5",
                    "midi": 72,
                    "time": 762.4999999999999,
                    "velocity": 0.5905511811023622,
                    "duration": 0.15625
                },
                {
                    "name": "F5",
                    "midi": 77,
                    "time": 762.4999999999999,
                    "velocity": 0.5905511811023622,
                    "duration": 0.15625
                },
                {
                    "name": "C6",
                    "midi": 84,
                    "time": 762.4999999999999,
                    "velocity": 0.5905511811023622,
                    "duration": 0.15625
                },
                {
                    "name": "C5",
                    "midi": 72,
                    "time": 762.6562499999999,
                    "velocity": 0.5905511811023622,
                    "duration": 0.15625
                },
                {
                    "name": "F5",
                    "midi": 77,
                    "time": 762.6562499999999,
                    "velocity": 0.5905511811023622,
                    "duration": 0.15625
                },
                {
                    "name": "C6",
                    "midi": 84,
                    "time": 762.6562499999999,
                    "velocity": 0.5905511811023622,
                    "duration": 0.15625
                },
                {
                    "name": "C5",
                    "midi": 72,
                    "time": 762.8124999999999,
                    "velocity": 0.5905511811023622,
                    "duration": 0.15625
                },
                {
                    "name": "F5",
                    "midi": 77,
                    "time": 762.8124999999999,
                    "velocity": 0.5905511811023622,
                    "duration": 0.15625
                },
                {
                    "name": "C6",
                    "midi": 84,
                    "time": 762.8124999999999,
                    "velocity": 0.5905511811023622,
                    "duration": 0.15625
                },
                {
                    "name": "C5",
                    "midi": 72,
                    "time": 762.9687499999999,
                    "velocity": 0.5905511811023622,
                    "duration": 0.15625
                },
                {
                    "name": "F5",
                    "midi": 77,
                    "time": 762.9687499999999,
                    "velocity": 0.5905511811023622,
                    "duration": 0.15625
                },
                {
                    "name": "C6",
                    "midi": 84,
                    "time": 762.9687499999999,
                    "velocity": 0.5905511811023622,
                    "duration": 0.15625
                },
                {
                    "name": "D5",
                    "midi": 74,
                    "time": 763.1249999999999,
                    "velocity": 0.7952755905511811,
                    "duration": 0.3125
                },
                {
                    "name": "G5",
                    "midi": 79,
                    "time": 763.1249999999999,
                    "velocity": 0.7952755905511811,
                    "duration": 0.3125
                },
                {
                    "name": "D6",
                    "midi": 86,
                    "time": 763.1249999999999,
                    "velocity": 0.7952755905511811,
                    "duration": 0.3125
                },
                {
                    "name": "F4",
                    "midi": 65,
                    "time": 763.4374999999999,
                    "velocity": 0.5905511811023622,
                    "duration": 0.15625
                },
                {
                    "name": "A#4",
                    "midi": 70,
                    "time": 763.4374999999999,
                    "velocity": 0.5905511811023622,
                    "duration": 0.15625
                },
                {
                    "name": "F5",
                    "midi": 77,
                    "time": 763.4374999999999,
                    "velocity": 0.5905511811023622,
                    "duration": 0.15625
                },
                {
                    "name": "F4",
                    "midi": 65,
                    "time": 763.5937499999999,
                    "velocity": 0.5905511811023622,
                    "duration": 0.15625
                },
                {
                    "name": "C5",
                    "midi": 72,
                    "time": 763.5937499999999,
                    "velocity": 0.5905511811023622,
                    "duration": 0.15625
                },
                {
                    "name": "F5",
                    "midi": 77,
                    "time": 763.5937499999999,
                    "velocity": 0.5905511811023622,
                    "duration": 0.15625
                },
                {
                    "name": "F4",
                    "midi": 65,
                    "time": 763.7499999999999,
                    "velocity": 0.5905511811023622,
                    "duration": 0.15625
                },
                {
                    "name": "C5",
                    "midi": 72,
                    "time": 763.7499999999999,
                    "velocity": 0.5905511811023622,
                    "duration": 0.15625
                },
                {
                    "name": "F5",
                    "midi": 77,
                    "time": 763.7499999999999,
                    "velocity": 0.5905511811023622,
                    "duration": 0.15625
                },
                {
                    "name": "F4",
                    "midi": 65,
                    "time": 763.9062499999999,
                    "velocity": 0.5905511811023622,
                    "duration": 0.15625
                },
                {
                    "name": "G4",
                    "midi": 67,
                    "time": 764.0624999999999,
                    "velocity": 0.7952755905511811,
                    "duration": 0.3125
                },
                {
                    "name": "D5",
                    "midi": 74,
                    "time": 764.0624999999999,
                    "velocity": 0.7952755905511811,
                    "duration": 0.3125
                },
                {
                    "name": "G5",
                    "midi": 79,
                    "time": 764.0624999999999,
                    "velocity": 0.7952755905511811,
                    "duration": 0.3125
                },
                {
                    "name": "F5",
                    "midi": 77,
                    "time": 764.3749999999999,
                    "velocity": 0.5905511811023622,
                    "duration": 0.15625
                },
                {
                    "name": "C6",
                    "midi": 84,
                    "time": 764.3749999999999,
                    "velocity": 0.5905511811023622,
                    "duration": 0.15625
                },
                {
                    "name": "F6",
                    "midi": 89,
                    "time": 764.3749999999999,
                    "velocity": 0.5905511811023622,
                    "duration": 0.15625
                },
                {
                    "name": "F5",
                    "midi": 77,
                    "time": 764.5312499999999,
                    "velocity": 0.5905511811023622,
                    "duration": 0.15625
                },
                {
                    "name": "C6",
                    "midi": 84,
                    "time": 764.5312499999999,
                    "velocity": 0.5905511811023622,
                    "duration": 0.15625
                },
                {
                    "name": "F6",
                    "midi": 89,
                    "time": 764.5312499999999,
                    "velocity": 0.5905511811023622,
                    "duration": 0.15625
                },
                {
                    "name": "F5",
                    "midi": 77,
                    "time": 764.6874999999999,
                    "velocity": 0.5905511811023622,
                    "duration": 0.15625
                },
                {
                    "name": "C6",
                    "midi": 84,
                    "time": 764.6874999999999,
                    "velocity": 0.5905511811023622,
                    "duration": 0.15625
                },
                {
                    "name": "F6",
                    "midi": 89,
                    "time": 764.6874999999999,
                    "velocity": 0.5905511811023622,
                    "duration": 0.15625
                },
                {
                    "name": "F5",
                    "midi": 77,
                    "time": 764.8437499999999,
                    "velocity": 0.5905511811023622,
                    "duration": 0.15625
                },
                {
                    "name": "C6",
                    "midi": 84,
                    "time": 764.8437499999999,
                    "velocity": 0.5905511811023622,
                    "duration": 0.15625
                },
                {
                    "name": "F6",
                    "midi": 89,
                    "time": 764.8437499999999,
                    "velocity": 0.5905511811023622,
                    "duration": 0.15625
                },
                {
                    "name": "G5",
                    "midi": 79,
                    "time": 764.9999999999999,
                    "velocity": 0.7952755905511811,
                    "duration": 0.3125
                },
                {
                    "name": "D6",
                    "midi": 86,
                    "time": 764.9999999999999,
                    "velocity": 0.7952755905511811,
                    "duration": 0.3125
                },
                {
                    "name": "G6",
                    "midi": 91,
                    "time": 764.9999999999999,
                    "velocity": 0.7952755905511811,
                    "duration": 0.3125
                },
                {
                    "name": "C5",
                    "midi": 72,
                    "time": 765.3124999999999,
                    "velocity": 0.5905511811023622,
                    "duration": 0.15625
                },
                {
                    "name": "F5",
                    "midi": 77,
                    "time": 765.3124999999999,
                    "velocity": 0.5905511811023622,
                    "duration": 0.15625
                },
                {
                    "name": "C6",
                    "midi": 84,
                    "time": 765.3124999999999,
                    "velocity": 0.5905511811023622,
                    "duration": 0.15625
                },
                {
                    "name": "C5",
                    "midi": 72,
                    "time": 765.4687499999999,
                    "velocity": 0.5905511811023622,
                    "duration": 0.15625
                },
                {
                    "name": "F5",
                    "midi": 77,
                    "time": 765.4687499999999,
                    "velocity": 0.5905511811023622,
                    "duration": 0.15625
                },
                {
                    "name": "C6",
                    "midi": 84,
                    "time": 765.4687499999999,
                    "velocity": 0.5905511811023622,
                    "duration": 0.15625
                },
                {
                    "name": "C5",
                    "midi": 72,
                    "time": 765.6249999999999,
                    "velocity": 0.5905511811023622,
                    "duration": 0.15625
                },
                {
                    "name": "F5",
                    "midi": 77,
                    "time": 765.6249999999999,
                    "velocity": 0.5905511811023622,
                    "duration": 0.15625
                },
                {
                    "name": "C6",
                    "midi": 84,
                    "time": 765.6249999999999,
                    "velocity": 0.5905511811023622,
                    "duration": 0.15625
                },
                {
                    "name": "C5",
                    "midi": 72,
                    "time": 765.7812499999999,
                    "velocity": 0.5905511811023622,
                    "duration": 0.15625
                },
                {
                    "name": "F5",
                    "midi": 77,
                    "time": 765.7812499999999,
                    "velocity": 0.5905511811023622,
                    "duration": 0.15625
                },
                {
                    "name": "C6",
                    "midi": 84,
                    "time": 765.7812499999999,
                    "velocity": 0.5905511811023622,
                    "duration": 0.15625
                },
                {
                    "name": "D5",
                    "midi": 74,
                    "time": 765.9374999999999,
                    "velocity": 0.7952755905511811,
                    "duration": 0.3125
                },
                {
                    "name": "G5",
                    "midi": 79,
                    "time": 765.9374999999999,
                    "velocity": 0.7952755905511811,
                    "duration": 0.3125
                },
                {
                    "name": "D6",
                    "midi": 86,
                    "time": 765.9374999999999,
                    "velocity": 0.7952755905511811,
                    "duration": 0.3125
                },
                {
                    "name": "F4",
                    "midi": 65,
                    "time": 766.2499999999999,
                    "velocity": 0.5905511811023622,
                    "duration": 0.15625
                },
                {
                    "name": "A#4",
                    "midi": 70,
                    "time": 766.2499999999999,
                    "velocity": 0.5905511811023622,
                    "duration": 0.15625
                },
                {
                    "name": "F5",
                    "midi": 77,
                    "time": 766.2499999999999,
                    "velocity": 0.5905511811023622,
                    "duration": 0.15625
                },
                {
                    "name": "F4",
                    "midi": 65,
                    "time": 766.4062499999999,
                    "velocity": 0.5905511811023622,
                    "duration": 0.15625
                },
                {
                    "name": "C5",
                    "midi": 72,
                    "time": 766.4062499999999,
                    "velocity": 0.5905511811023622,
                    "duration": 0.15625
                },
                {
                    "name": "F5",
                    "midi": 77,
                    "time": 766.4062499999999,
                    "velocity": 0.5905511811023622,
                    "duration": 0.15625
                },
                {
                    "name": "F4",
                    "midi": 65,
                    "time": 766.5624999999999,
                    "velocity": 0.5905511811023622,
                    "duration": 0.15625
                },
                {
                    "name": "C5",
                    "midi": 72,
                    "time": 766.5624999999999,
                    "velocity": 0.5905511811023622,
                    "duration": 0.15625
                },
                {
                    "name": "F5",
                    "midi": 77,
                    "time": 766.5624999999999,
                    "velocity": 0.5905511811023622,
                    "duration": 0.15625
                },
                {
                    "name": "F4",
                    "midi": 65,
                    "time": 766.7187499999999,
                    "velocity": 0.5905511811023622,
                    "duration": 0.15625
                },
                {
                    "name": "C5",
                    "midi": 72,
                    "time": 766.7187499999999,
                    "velocity": 0.5905511811023622,
                    "duration": 0.15625
                },
                {
                    "name": "F5",
                    "midi": 77,
                    "time": 766.7187499999999,
                    "velocity": 0.5905511811023622,
                    "duration": 0.15625
                },
                {
                    "name": "G4",
                    "midi": 67,
                    "time": 766.8749999999999,
                    "velocity": 0.7952755905511811,
                    "duration": 0.3125
                },
                {
                    "name": "D5",
                    "midi": 74,
                    "time": 766.8749999999999,
                    "velocity": 0.7952755905511811,
                    "duration": 0.3125
                },
                {
                    "name": "G5",
                    "midi": 79,
                    "time": 766.8749999999999,
                    "velocity": 0.7952755905511811,
                    "duration": 0.3125
                },
                {
                    "name": "F5",
                    "midi": 77,
                    "time": 767.1874999999999,
                    "velocity": 0.5905511811023622,
                    "duration": 0.15625
                },
                {
                    "name": "C6",
                    "midi": 84,
                    "time": 767.1874999999999,
                    "velocity": 0.5905511811023622,
                    "duration": 0.15625
                },
                {
                    "name": "F6",
                    "midi": 89,
                    "time": 767.1874999999999,
                    "velocity": 0.5905511811023622,
                    "duration": 0.15625
                },
                {
                    "name": "F5",
                    "midi": 77,
                    "time": 767.3437499999999,
                    "velocity": 0.5905511811023622,
                    "duration": 0.15625
                },
                {
                    "name": "C6",
                    "midi": 84,
                    "time": 767.3437499999999,
                    "velocity": 0.5905511811023622,
                    "duration": 0.15625
                },
                {
                    "name": "F6",
                    "midi": 89,
                    "time": 767.3437499999999,
                    "velocity": 0.5905511811023622,
                    "duration": 0.15625
                },
                {
                    "name": "F5",
                    "midi": 77,
                    "time": 767.4999999999999,
                    "velocity": 0.5905511811023622,
                    "duration": 0.15625
                },
                {
                    "name": "C6",
                    "midi": 84,
                    "time": 767.4999999999999,
                    "velocity": 0.5905511811023622,
                    "duration": 0.15625
                },
                {
                    "name": "F6",
                    "midi": 89,
                    "time": 767.4999999999999,
                    "velocity": 0.5905511811023622,
                    "duration": 0.15625
                },
                {
                    "name": "F5",
                    "midi": 77,
                    "time": 767.6562499999999,
                    "velocity": 0.5905511811023622,
                    "duration": 0.15625
                },
                {
                    "name": "C6",
                    "midi": 84,
                    "time": 767.6562499999999,
                    "velocity": 0.5905511811023622,
                    "duration": 0.15625
                },
                {
                    "name": "F6",
                    "midi": 89,
                    "time": 767.6562499999999,
                    "velocity": 0.5905511811023622,
                    "duration": 0.15625
                },
                {
                    "name": "G5",
                    "midi": 79,
                    "time": 767.8124999999999,
                    "velocity": 0.7952755905511811,
                    "duration": 0.3125
                },
                {
                    "name": "D6",
                    "midi": 86,
                    "time": 767.8124999999999,
                    "velocity": 0.7952755905511811,
                    "duration": 0.3125
                },
                {
                    "name": "G6",
                    "midi": 91,
                    "time": 767.8124999999999,
                    "velocity": 0.7952755905511811,
                    "duration": 0.3125
                },
                {
                    "name": "C5",
                    "midi": 72,
                    "time": 768.1249999999999,
                    "velocity": 0.5905511811023622,
                    "duration": 0.15625
                },
                {
                    "name": "F5",
                    "midi": 77,
                    "time": 768.1249999999999,
                    "velocity": 0.5905511811023622,
                    "duration": 0.15625
                },
                {
                    "name": "C6",
                    "midi": 84,
                    "time": 768.1249999999999,
                    "velocity": 0.5905511811023622,
                    "duration": 0.15625
                },
                {
                    "name": "C5",
                    "midi": 72,
                    "time": 768.2812499999999,
                    "velocity": 0.5905511811023622,
                    "duration": 0.15625
                },
                {
                    "name": "F5",
                    "midi": 77,
                    "time": 768.2812499999999,
                    "velocity": 0.5905511811023622,
                    "duration": 0.15625
                },
                {
                    "name": "C6",
                    "midi": 84,
                    "time": 768.2812499999999,
                    "velocity": 0.5905511811023622,
                    "duration": 0.15625
                },
                {
                    "name": "C5",
                    "midi": 72,
                    "time": 768.4374999999999,
                    "velocity": 0.5905511811023622,
                    "duration": 0.15625
                },
                {
                    "name": "F5",
                    "midi": 77,
                    "time": 768.4374999999999,
                    "velocity": 0.5905511811023622,
                    "duration": 0.15625
                },
                {
                    "name": "C6",
                    "midi": 84,
                    "time": 768.4374999999999,
                    "velocity": 0.5905511811023622,
                    "duration": 0.15625
                },
                {
                    "name": "C5",
                    "midi": 72,
                    "time": 768.5937499999999,
                    "velocity": 0.5905511811023622,
                    "duration": 0.15625
                },
                {
                    "name": "F5",
                    "midi": 77,
                    "time": 768.5937499999999,
                    "velocity": 0.5905511811023622,
                    "duration": 0.15625
                },
                {
                    "name": "C6",
                    "midi": 84,
                    "time": 768.5937499999999,
                    "velocity": 0.5905511811023622,
                    "duration": 0.15625
                },
                {
                    "name": "D5",
                    "midi": 74,
                    "time": 768.7499999999999,
                    "velocity": 0.7952755905511811,
                    "duration": 0.3125
                },
                {
                    "name": "G5",
                    "midi": 79,
                    "time": 768.7499999999999,
                    "velocity": 0.7952755905511811,
                    "duration": 0.3125
                },
                {
                    "name": "D6",
                    "midi": 86,
                    "time": 768.7499999999999,
                    "velocity": 0.7952755905511811,
                    "duration": 0.3125
                },
                {
                    "name": "F4",
                    "midi": 65,
                    "time": 769.0624999999999,
                    "velocity": 0.5905511811023622,
                    "duration": 0.02994791666662877
                },
                {
                    "name": "A#4",
                    "midi": 70,
                    "time": 769.0624999999999,
                    "velocity": 0.5905511811023622,
                    "duration": 0.02994791666662877
                },
                {
                    "name": "F5",
                    "midi": 77,
                    "time": 769.0624999999999,
                    "velocity": 0.5905511811023622,
                    "duration": 0.02994791666662877
                },
                {
                    "name": "F4",
                    "midi": 65,
                    "time": 769.2187499999999,
                    "velocity": 0.5905511811023622,
                    "duration": 0.02994791666662877
                },
                {
                    "name": "C5",
                    "midi": 72,
                    "time": 769.2187499999999,
                    "velocity": 0.5905511811023622,
                    "duration": 0.02994791666662877
                },
                {
                    "name": "F5",
                    "midi": 77,
                    "time": 769.2187499999999,
                    "velocity": 0.5905511811023622,
                    "duration": 0.02994791666662877
                },
                {
                    "name": "F4",
                    "midi": 65,
                    "time": 769.3749999999999,
                    "velocity": 0.5905511811023622,
                    "duration": 0.02994791666662877
                },
                {
                    "name": "C5",
                    "midi": 72,
                    "time": 769.3749999999999,
                    "velocity": 0.5905511811023622,
                    "duration": 0.02994791666662877
                },
                {
                    "name": "F5",
                    "midi": 77,
                    "time": 769.3749999999999,
                    "velocity": 0.5905511811023622,
                    "duration": 0.02994791666662877
                },
                {
                    "name": "F4",
                    "midi": 65,
                    "time": 769.5312499999999,
                    "velocity": 0.5905511811023622,
                    "duration": 0.02994791666662877
                },
                {
                    "name": "C5",
                    "midi": 72,
                    "time": 769.5312499999999,
                    "velocity": 0.5905511811023622,
                    "duration": 0.02994791666662877
                },
                {
                    "name": "F5",
                    "midi": 77,
                    "time": 769.5312499999999,
                    "velocity": 0.5905511811023622,
                    "duration": 0.02994791666662877
                },
                {
                    "name": "G4",
                    "midi": 67,
                    "time": 769.6874999999999,
                    "velocity": 0.7952755905511811,
                    "duration": 0.3125
                },
                {
                    "name": "D5",
                    "midi": 74,
                    "time": 769.6874999999999,
                    "velocity": 0.7952755905511811,
                    "duration": 0.3125
                },
                {
                    "name": "G5",
                    "midi": 79,
                    "time": 769.6874999999999,
                    "velocity": 0.7952755905511811,
                    "duration": 0.3125
                },
                {
                    "name": "F4",
                    "midi": 65,
                    "time": 769.9999999999999,
                    "velocity": 0.8976377952755905,
                    "duration": 0.3125
                },
                {
                    "name": "F4",
                    "midi": 65,
                    "time": 770.3124999999999,
                    "velocity": 0.8976377952755905,
                    "duration": 0.02994791666662877
                },
                {
                    "name": "F4",
                    "midi": 65,
                    "time": 770.4687499999999,
                    "velocity": 0.8976377952755905,
                    "duration": 0.02994791666662877
                },
                {
                    "name": "F4",
                    "midi": 65,
                    "time": 770.6249999999999,
                    "velocity": 0.8976377952755905,
                    "duration": 0.02994791666662877
                },
                {
                    "name": "F4",
                    "midi": 65,
                    "time": 770.7812499999999,
                    "velocity": 0.8976377952755905,
                    "duration": 0.02994791666662877
                },
                {
                    "name": "A4",
                    "midi": 69,
                    "time": 770.9374999999999,
                    "velocity": 0.8976377952755905,
                    "duration": 0.06119791666662877
                },
                {
                    "name": "D#4",
                    "midi": 63,
                    "time": 771.2499999999999,
                    "velocity": 0.8976377952755905,
                    "duration": 0.46875
                },
                {
                    "name": "F4",
                    "midi": 65,
                    "time": 771.7187499999999,
                    "velocity": 0.6929133858267716,
                    "duration": 0.02994791666662877
                },
                {
                    "name": "G4",
                    "midi": 67,
                    "time": 771.8749999999999,
                    "velocity": 0.8976377952755905,
                    "duration": 0.20703125
                },
                {
                    "name": "A4",
                    "midi": 69,
                    "time": 772.0820312499999,
                    "velocity": 0.8976377952755905,
                    "duration": 0.20963541666662877
                },
                {
                    "name": "A#4",
                    "midi": 70,
                    "time": 772.2916666666665,
                    "velocity": 0.8976377952755905,
                    "duration": 0.20833333333337123
                },
                {
                    "name": "C5",
                    "midi": 72,
                    "time": 772.4999999999999,
                    "velocity": 0.6929133858267716,
                    "duration": 1.25
                },
                {
                    "name": "D4",
                    "midi": 62,
                    "time": 773.7499999999999,
                    "velocity": 0.6929133858267716,
                    "duration": 1.25
                },
                {
                    "name": "E4",
                    "midi": 64,
                    "time": 774.9999999999999,
                    "velocity": 0.6929133858267716,
                    "duration": 5
                },
                {
                    "name": "C6",
                    "midi": 84,
                    "time": 779.9999999999999,
                    "velocity": 0.6929133858267716,
                    "duration": 0.15625
                },
                {
                    "name": "F6",
                    "midi": 89,
                    "time": 779.9999999999999,
                    "velocity": 0.6929133858267716,
                    "duration": 0.15625
                },
                {
                    "name": "C6",
                    "midi": 84,
                    "time": 780.1562499999999,
                    "velocity": 0.6929133858267716,
                    "duration": 0.15625
                },
                {
                    "name": "F6",
                    "midi": 89,
                    "time": 780.1562499999999,
                    "velocity": 0.6929133858267716,
                    "duration": 0.15625
                },
                {
                    "name": "C6",
                    "midi": 84,
                    "time": 780.3124999999999,
                    "velocity": 0.6929133858267716,
                    "duration": 0.15625
                },
                {
                    "name": "F6",
                    "midi": 89,
                    "time": 780.3124999999999,
                    "velocity": 0.6929133858267716,
                    "duration": 0.15625
                },
                {
                    "name": "C6",
                    "midi": 84,
                    "time": 780.4687499999999,
                    "velocity": 0.6929133858267716,
                    "duration": 0.15625
                },
                {
                    "name": "F6",
                    "midi": 89,
                    "time": 780.4687499999999,
                    "velocity": 0.6929133858267716,
                    "duration": 0.15625
                },
                {
                    "name": "D6",
                    "midi": 86,
                    "time": 780.6249999999999,
                    "velocity": 0.8976377952755905,
                    "duration": 0.3125
                },
                {
                    "name": "G6",
                    "midi": 91,
                    "time": 780.6249999999999,
                    "velocity": 0.8976377952755905,
                    "duration": 0.3125
                },
                {
                    "name": "F5",
                    "midi": 77,
                    "time": 780.9374999999999,
                    "velocity": 0.6929133858267716,
                    "duration": 0.15625
                },
                {
                    "name": "C6",
                    "midi": 84,
                    "time": 780.9374999999999,
                    "velocity": 0.6929133858267716,
                    "duration": 0.15625
                },
                {
                    "name": "F5",
                    "midi": 77,
                    "time": 781.0937499999999,
                    "velocity": 0.6929133858267716,
                    "duration": 0.15625
                },
                {
                    "name": "C6",
                    "midi": 84,
                    "time": 781.0937499999999,
                    "velocity": 0.6929133858267716,
                    "duration": 0.15625
                },
                {
                    "name": "F5",
                    "midi": 77,
                    "time": 781.2499999999999,
                    "velocity": 0.6929133858267716,
                    "duration": 0.15625
                },
                {
                    "name": "C6",
                    "midi": 84,
                    "time": 781.2499999999999,
                    "velocity": 0.6929133858267716,
                    "duration": 0.15625
                },
                {
                    "name": "F5",
                    "midi": 77,
                    "time": 781.4062499999999,
                    "velocity": 0.6929133858267716,
                    "duration": 0.15625
                },
                {
                    "name": "C6",
                    "midi": 84,
                    "time": 781.4062499999999,
                    "velocity": 0.6929133858267716,
                    "duration": 0.15625
                },
                {
                    "name": "G5",
                    "midi": 79,
                    "time": 781.5624999999999,
                    "velocity": 0.8976377952755905,
                    "duration": 0.3125
                },
                {
                    "name": "D6",
                    "midi": 86,
                    "time": 781.5624999999999,
                    "velocity": 0.8976377952755905,
                    "duration": 0.3125
                },
                {
                    "name": "C5",
                    "midi": 72,
                    "time": 781.8749999999999,
                    "velocity": 0.6929133858267716,
                    "duration": 0.15625
                },
                {
                    "name": "F5",
                    "midi": 77,
                    "time": 781.8749999999999,
                    "velocity": 0.6929133858267716,
                    "duration": 0.15625
                },
                {
                    "name": "C5",
                    "midi": 72,
                    "time": 782.0312499999999,
                    "velocity": 0.6929133858267716,
                    "duration": 0.15625
                },
                {
                    "name": "F5",
                    "midi": 77,
                    "time": 782.0312499999999,
                    "velocity": 0.6929133858267716,
                    "duration": 0.15625
                },
                {
                    "name": "C5",
                    "midi": 72,
                    "time": 782.1874999999999,
                    "velocity": 0.6929133858267716,
                    "duration": 0.15625
                },
                {
                    "name": "F5",
                    "midi": 77,
                    "time": 782.1874999999999,
                    "velocity": 0.6929133858267716,
                    "duration": 0.15625
                },
                {
                    "name": "C5",
                    "midi": 72,
                    "time": 782.3437499999999,
                    "velocity": 0.6929133858267716,
                    "duration": 0.15625
                },
                {
                    "name": "F5",
                    "midi": 77,
                    "time": 782.3437499999999,
                    "velocity": 0.6929133858267716,
                    "duration": 0.15625
                },
                {
                    "name": "D5",
                    "midi": 74,
                    "time": 782.4999999999999,
                    "velocity": 0.8976377952755905,
                    "duration": 0.3125
                },
                {
                    "name": "G5",
                    "midi": 79,
                    "time": 782.4999999999999,
                    "velocity": 0.8976377952755905,
                    "duration": 0.3125
                },
                {
                    "name": "F4",
                    "midi": 65,
                    "time": 782.8124999999999,
                    "velocity": 0.6929133858267716,
                    "duration": 0.15625
                },
                {
                    "name": "C5",
                    "midi": 72,
                    "time": 782.8124999999999,
                    "velocity": 0.6929133858267716,
                    "duration": 0.15625
                },
                {
                    "name": "F4",
                    "midi": 65,
                    "time": 782.9687499999999,
                    "velocity": 0.6929133858267716,
                    "duration": 0.15625
                },
                {
                    "name": "C5",
                    "midi": 72,
                    "time": 782.9687499999999,
                    "velocity": 0.6929133858267716,
                    "duration": 0.15625
                },
                {
                    "name": "F4",
                    "midi": 65,
                    "time": 783.1249999999999,
                    "velocity": 0.6929133858267716,
                    "duration": 0.15625
                },
                {
                    "name": "C5",
                    "midi": 72,
                    "time": 783.1249999999999,
                    "velocity": 0.6929133858267716,
                    "duration": 0.15625
                },
                {
                    "name": "F4",
                    "midi": 65,
                    "time": 783.2812499999999,
                    "velocity": 0.6929133858267716,
                    "duration": 0.15625
                },
                {
                    "name": "C5",
                    "midi": 72,
                    "time": 783.2812499999999,
                    "velocity": 0.6929133858267716,
                    "duration": 0.15625
                },
                {
                    "name": "G4",
                    "midi": 67,
                    "time": 783.4374999999999,
                    "velocity": 0.8976377952755905,
                    "duration": 0.3125
                },
                {
                    "name": "D5",
                    "midi": 74,
                    "time": 783.4374999999999,
                    "velocity": 0.8976377952755905,
                    "duration": 0.3125
                },
                {
                    "name": "C4",
                    "midi": 60,
                    "time": 783.7499999999999,
                    "velocity": 0.6929133858267716,
                    "duration": 0.15625
                },
                {
                    "name": "F4",
                    "midi": 65,
                    "time": 783.7499999999999,
                    "velocity": 0.6929133858267716,
                    "duration": 0.15625
                },
                {
                    "name": "C4",
                    "midi": 60,
                    "time": 783.9062499999999,
                    "velocity": 0.6929133858267716,
                    "duration": 0.15625
                },
                {
                    "name": "F4",
                    "midi": 65,
                    "time": 783.9062499999999,
                    "velocity": 0.6929133858267716,
                    "duration": 0.15625
                },
                {
                    "name": "C4",
                    "midi": 60,
                    "time": 784.0624999999999,
                    "velocity": 0.6929133858267716,
                    "duration": 0.15625
                },
                {
                    "name": "F4",
                    "midi": 65,
                    "time": 784.0624999999999,
                    "velocity": 0.6929133858267716,
                    "duration": 0.15625
                },
                {
                    "name": "C4",
                    "midi": 60,
                    "time": 784.2187499999999,
                    "velocity": 0.6929133858267716,
                    "duration": 0.15625
                },
                {
                    "name": "F4",
                    "midi": 65,
                    "time": 784.2187499999999,
                    "velocity": 0.6929133858267716,
                    "duration": 0.15625
                },
                {
                    "name": "D4",
                    "midi": 62,
                    "time": 784.3749999999999,
                    "velocity": 0.8976377952755905,
                    "duration": 0.3125
                },
                {
                    "name": "G4",
                    "midi": 67,
                    "time": 784.3749999999999,
                    "velocity": 0.8976377952755905,
                    "duration": 0.3125
                },
                {
                    "name": "F3",
                    "midi": 53,
                    "time": 784.6874999999999,
                    "velocity": 0.6929133858267716,
                    "duration": 0.15625
                },
                {
                    "name": "C4",
                    "midi": 60,
                    "time": 784.6874999999999,
                    "velocity": 0.6929133858267716,
                    "duration": 0.15625
                },
                {
                    "name": "F3",
                    "midi": 53,
                    "time": 784.8437499999999,
                    "velocity": 0.6929133858267716,
                    "duration": 0.15625
                },
                {
                    "name": "C4",
                    "midi": 60,
                    "time": 784.8437499999999,
                    "velocity": 0.6929133858267716,
                    "duration": 0.15625
                },
                {
                    "name": "C5",
                    "midi": 72,
                    "time": 789.9999999999999,
                    "velocity": 0.6929133858267716,
                    "duration": 0.3125
                },
                {
                    "name": "D5",
                    "midi": 74,
                    "time": 790.3124999999999,
                    "velocity": 0.6929133858267716,
                    "duration": 0.3125
                },
                {
                    "name": "C5",
                    "midi": 72,
                    "time": 790.6249999999999,
                    "velocity": 0.6929133858267716,
                    "duration": 0.3125
                },
                {
                    "name": "F4",
                    "midi": 65,
                    "time": 790.9374999999999,
                    "velocity": 0.6929133858267716,
                    "duration": 0.3125
                },
                {
                    "name": "G#4",
                    "midi": 68,
                    "time": 791.2499999999999,
                    "velocity": 0.6929133858267716,
                    "duration": 0.3125
                },
                {
                    "name": "G4",
                    "midi": 67,
                    "time": 791.5624999999999,
                    "velocity": 0.6929133858267716,
                    "duration": 0.3125
                },
                {
                    "name": "F4",
                    "midi": 65,
                    "time": 791.8749999999999,
                    "velocity": 0.6929133858267716,
                    "duration": 0.3125
                },
                {
                    "name": "D4",
                    "midi": 62,
                    "time": 792.1874999999999,
                    "velocity": 0.6929133858267716,
                    "duration": 0.3125
                },
                {
                    "name": "C4",
                    "midi": 60,
                    "time": 792.4999999999999,
                    "velocity": 0.5905511811023622,
                    "duration": 2.5
                },
                {
                    "name": "F4",
                    "midi": 65,
                    "time": 792.4999999999999,
                    "velocity": 0.5905511811023622,
                    "duration": 2.5
                },
                {
                    "name": "A4",
                    "midi": 69,
                    "time": 792.4999999999999,
                    "velocity": 0.5905511811023622,
                    "duration": 2.5
                },
                {
                    "name": "C5",
                    "midi": 72,
                    "time": 792.4999999999999,
                    "velocity": 0.5905511811023622,
                    "duration": 2.5
                }
            ],
            "controlChanges": {
                "7": [
                    {
                        "number": 7,
                        "time": 0,
                        "value": 1
                    }
                ],
                "10": [
                    {
                        "number": 10,
                        "time": 0,
                        "value": 0.23622047244094488
                    }
                ],
                "64": [
                    {
                        "number": 64,
                        "time": 30,
                        "value": 1
                    },
                    {
                        "number": 64,
                        "time": 31.5625,
                        "value": 0
                    },
                    {
                        "number": 64,
                        "time": 32.1875,
                        "value": 1
                    },
                    {
                        "number": 64,
                        "time": 33.4375,
                        "value": 0
                    },
                    {
                        "number": 64,
                        "time": 38.75,
                        "value": 1
                    },
                    {
                        "number": 64,
                        "time": 39.6875,
                        "value": 0
                    },
                    {
                        "number": 64,
                        "time": 41.25,
                        "value": 1
                    },
                    {
                        "number": 64,
                        "time": 42.1875,
                        "value": 0
                    },
                    {
                        "number": 64,
                        "time": 42.5,
                        "value": 1
                    },
                    {
                        "number": 64,
                        "time": 44.375,
                        "value": 0
                    },
                    {
                        "number": 64,
                        "time": 54.0625,
                        "value": 0
                    },
                    {
                        "number": 64,
                        "time": 75,
                        "value": 1
                    },
                    {
                        "number": 64,
                        "time": 77.1875,
                        "value": 0
                    },
                    {
                        "number": 64,
                        "time": 77.5,
                        "value": 1
                    },
                    {
                        "number": 64,
                        "time": 78.4375,
                        "value": 0
                    },
                    {
                        "number": 64,
                        "time": 101.25,
                        "value": 1
                    },
                    {
                        "number": 64,
                        "time": 102.5,
                        "value": 0
                    },
                    {
                        "number": 64,
                        "time": 111.25,
                        "value": 1
                    },
                    {
                        "number": 64,
                        "time": 117.5,
                        "value": 1
                    },
                    {
                        "number": 64,
                        "time": 118.4375,
                        "value": 0
                    },
                    {
                        "number": 64,
                        "time": 120.9375,
                        "value": 0
                    },
                    {
                        "number": 64,
                        "time": 126.25,
                        "value": 1
                    },
                    {
                        "number": 64,
                        "time": 127.1875,
                        "value": 0
                    },
                    {
                        "number": 64,
                        "time": 131.25,
                        "value": 1
                    },
                    {
                        "number": 64,
                        "time": 132.1875,
                        "value": 0
                    },
                    {
                        "number": 64,
                        "time": 140,
                        "value": 1
                    },
                    {
                        "number": 64,
                        "time": 140.9375,
                        "value": 0
                    },
                    {
                        "number": 64,
                        "time": 141.25,
                        "value": 1
                    },
                    {
                        "number": 64,
                        "time": 142.1875,
                        "value": 0
                    },
                    {
                        "number": 64,
                        "time": 143.90625,
                        "value": 1
                    },
                    {
                        "number": 64,
                        "time": 144.375,
                        "value": 0
                    },
                    {
                        "number": 64,
                        "time": 146.40625,
                        "value": 1
                    },
                    {
                        "number": 64,
                        "time": 146.875,
                        "value": 0
                    },
                    {
                        "number": 64,
                        "time": 155,
                        "value": 1
                    },
                    {
                        "number": 64,
                        "time": 155.9375,
                        "value": 0
                    },
                    {
                        "number": 64,
                        "time": 157.1875,
                        "value": 0
                    },
                    {
                        "number": 64,
                        "time": 182.5,
                        "value": 1
                    },
                    {
                        "number": 64,
                        "time": 183.01953125,
                        "value": 0
                    },
                    {
                        "number": 64,
                        "time": 183.125,
                        "value": 1
                    },
                    {
                        "number": 64,
                        "time": 183.64453125,
                        "value": 0
                    },
                    {
                        "number": 64,
                        "time": 183.75,
                        "value": 1
                    },
                    {
                        "number": 64,
                        "time": 184.375,
                        "value": 1
                    },
                    {
                        "number": 64,
                        "time": 184.89453125,
                        "value": 0
                    },
                    {
                        "number": 64,
                        "time": 185,
                        "value": 1
                    },
                    {
                        "number": 64,
                        "time": 185.51953125,
                        "value": 0
                    },
                    {
                        "number": 64,
                        "time": 185.625,
                        "value": 1
                    },
                    {
                        "number": 64,
                        "time": 186.171875,
                        "value": 0
                    },
                    {
                        "number": 64,
                        "time": 186.25,
                        "value": 1
                    },
                    {
                        "number": 64,
                        "time": 186.76953125,
                        "value": 0
                    },
                    {
                        "number": 64,
                        "time": 186.875,
                        "value": 1
                    },
                    {
                        "number": 64,
                        "time": 187.421875,
                        "value": 0
                    },
                    {
                        "number": 64,
                        "time": 187.5,
                        "value": 1
                    },
                    {
                        "number": 64,
                        "time": 188.01953125,
                        "value": 0
                    },
                    {
                        "number": 64,
                        "time": 188.125,
                        "value": 1
                    },
                    {
                        "number": 64,
                        "time": 188.64453125,
                        "value": 0
                    },
                    {
                        "number": 64,
                        "time": 188.75,
                        "value": 1
                    },
                    {
                        "number": 64,
                        "time": 189.26953125,
                        "value": 0
                    },
                    {
                        "number": 64,
                        "time": 189.375,
                        "value": 1
                    },
                    {
                        "number": 64,
                        "time": 189.921875,
                        "value": 0
                    },
                    {
                        "number": 64,
                        "time": 197.5,
                        "value": 1
                    },
                    {
                        "number": 64,
                        "time": 198.125,
                        "value": 0
                    },
                    {
                        "number": 64,
                        "time": 199.53125,
                        "value": 0
                    },
                    {
                        "number": 64,
                        "time": 199.84375,
                        "value": 1
                    },
                    {
                        "number": 64,
                        "time": 200.78125,
                        "value": 0
                    },
                    {
                        "number": 64,
                        "time": 201.09375,
                        "value": 1
                    },
                    {
                        "number": 64,
                        "time": 202.03125,
                        "value": 0
                    },
                    {
                        "number": 64,
                        "time": 202.34375,
                        "value": 1
                    },
                    {
                        "number": 64,
                        "time": 203.125,
                        "value": 0
                    },
                    {
                        "number": 64,
                        "time": 203.28125,
                        "value": 1
                    },
                    {
                        "number": 64,
                        "time": 204.53125,
                        "value": 0
                    },
                    {
                        "number": 64,
                        "time": 205,
                        "value": 1
                    },
                    {
                        "number": 64,
                        "time": 205.78125,
                        "value": 0
                    },
                    {
                        "number": 64,
                        "time": 206.09375,
                        "value": 1
                    },
                    {
                        "number": 64,
                        "time": 207.03125,
                        "value": 0
                    },
                    {
                        "number": 64,
                        "time": 207.34375,
                        "value": 1
                    },
                    {
                        "number": 64,
                        "time": 208.28125,
                        "value": 0
                    },
                    {
                        "number": 64,
                        "time": 208.59375,
                        "value": 1
                    },
                    {
                        "number": 64,
                        "time": 209.53125,
                        "value": 0
                    },
                    {
                        "number": 64,
                        "time": 213.75,
                        "value": 1
                    },
                    {
                        "number": 64,
                        "time": 214.6875,
                        "value": 0
                    },
                    {
                        "number": 64,
                        "time": 216.25,
                        "value": 1
                    },
                    {
                        "number": 64,
                        "time": 217.1875,
                        "value": 0
                    },
                    {
                        "number": 64,
                        "time": 218.75,
                        "value": 1
                    },
                    {
                        "number": 64,
                        "time": 219.6875,
                        "value": 0
                    },
                    {
                        "number": 64,
                        "time": 272.5,
                        "value": 1
                    },
                    {
                        "number": 64,
                        "time": 274.375,
                        "value": 0
                    },
                    {
                        "number": 64,
                        "time": 448.75,
                        "value": 1
                    },
                    {
                        "number": 64,
                        "time": 449.6875,
                        "value": 0
                    },
                    {
                        "number": 64,
                        "time": 451.25,
                        "value": 1
                    },
                    {
                        "number": 64,
                        "time": 452.1875,
                        "value": 0
                    },
                    {
                        "number": 64,
                        "time": 465,
                        "value": 1
                    },
                    {
                        "number": 64,
                        "time": 465.9375,
                        "value": 0
                    },
                    {
                        "number": 64,
                        "time": 481.25,
                        "value": 1
                    },
                    {
                        "number": 64,
                        "time": 481.875,
                        "value": 0
                    },
                    {
                        "number": 64,
                        "time": 484.375,
                        "value": 1
                    },
                    {
                        "number": 64,
                        "time": 485,
                        "value": 0
                    },
                    {
                        "number": 64,
                        "time": 487.5,
                        "value": 1
                    },
                    {
                        "number": 64,
                        "time": 488.125,
                        "value": 0
                    },
                    {
                        "number": 64,
                        "time": 489.375,
                        "value": 1
                    },
                    {
                        "number": 64,
                        "time": 490,
                        "value": 0
                    },
                    {
                        "number": 64,
                        "time": 491.25,
                        "value": 1
                    },
                    {
                        "number": 64,
                        "time": 491.875,
                        "value": 0
                    },
                    {
                        "number": 64,
                        "time": 493.125,
                        "value": 1
                    },
                    {
                        "number": 64,
                        "time": 493.75,
                        "value": 0
                    },
                    {
                        "number": 64,
                        "time": 495,
                        "value": 1
                    },
                    {
                        "number": 64,
                        "time": 495.625,
                        "value": 0
                    },
                    {
                        "number": 64,
                        "time": 496.875,
                        "value": 1
                    },
                    {
                        "number": 64,
                        "time": 497.5,
                        "value": 0
                    },
                    {
                        "number": 64,
                        "time": 498.75,
                        "value": 1
                    },
                    {
                        "number": 64,
                        "time": 499.375,
                        "value": 0
                    },
                    {
                        "number": 64,
                        "time": 500.625,
                        "value": 1
                    },
                    {
                        "number": 64,
                        "time": 501.25,
                        "value": 0
                    },
                    {
                        "number": 64,
                        "time": 528.75,
                        "value": 1
                    },
                    {
                        "number": 64,
                        "time": 529.6875,
                        "value": 0
                    },
                    {
                        "number": 64,
                        "time": 535,
                        "value": 1
                    },
                    {
                        "number": 64,
                        "time": 535.9375,
                        "value": 0
                    },
                    {
                        "number": 64,
                        "time": 537.5,
                        "value": 1
                    },
                    {
                        "number": 64,
                        "time": 538.75,
                        "value": 0
                    },
                    {
                        "number": 64,
                        "time": 540,
                        "value": 1
                    },
                    {
                        "number": 64,
                        "time": 541.25,
                        "value": 0
                    },
                    {
                        "number": 64,
                        "time": 558.125,
                        "value": 1
                    },
                    {
                        "number": 64,
                        "time": 561.875,
                        "value": 0
                    },
                    {
                        "number": 64,
                        "time": 567.5,
                        "value": 1
                    },
                    {
                        "number": 64,
                        "time": 568.59375,
                        "value": 0
                    },
                    {
                        "number": 64,
                        "time": 568.75,
                        "value": 1
                    },
                    {
                        "number": 64,
                        "time": 569.84375,
                        "value": 0
                    },
                    {
                        "number": 64,
                        "time": 584.21875,
                        "value": 1
                    },
                    {
                        "number": 64,
                        "time": 588.125,
                        "value": 0
                    },
                    {
                        "number": 64,
                        "time": 590.625,
                        "value": 1
                    },
                    {
                        "number": 64,
                        "time": 591.1601562499999,
                        "value": 0
                    },
                    {
                        "number": 64,
                        "time": 618.7499999999999,
                        "value": 1
                    },
                    {
                        "number": 64,
                        "time": 619.6874999999999,
                        "value": 0
                    },
                    {
                        "number": 64,
                        "time": 656.2499999999999,
                        "value": 1
                    },
                    {
                        "number": 64,
                        "time": 657.1874999999999,
                        "value": 0
                    },
                    {
                        "number": 64,
                        "time": 657.4999999999999,
                        "value": 1
                    },
                    {
                        "number": 64,
                        "time": 658.4374999999999,
                        "value": 0
                    },
                    {
                        "number": 64,
                        "time": 658.7499999999999,
                        "value": 1
                    },
                    {
                        "number": 64,
                        "time": 659.6874999999999,
                        "value": 0
                    },
                    {
                        "number": 64,
                        "time": 729.9999999999999,
                        "value": 1
                    },
                    {
                        "number": 64,
                        "time": 730.9374999999999,
                        "value": 0
                    },
                    {
                        "number": 64,
                        "time": 732.4999999999999,
                        "value": 1
                    },
                    {
                        "number": 64,
                        "time": 733.4374999999999,
                        "value": 0
                    }
                ]
            },
            "id": 3,
            "name": "Instrument18",
            "instrumentNumber": 0,
            "instrument": "acoustic grand piano",
            "instrumentFamily": "piano",
            "channelNumber": 2,
            "isPercussion": false
        },
        {
            "startTime": 10,
            "duration": 795.625,
            "length": 1422,
            "notes": [
                {
                    "name": "F3",
                    "midi": 53,
                    "time": 10,
                    "velocity": 0.4881889763779528,
                    "duration": 5
                },
                {
                    "name": "F3",
                    "midi": 53,
                    "time": 15,
                    "velocity": 0.4881889763779528,
                    "duration": 5
                },
                {
                    "name": "F3",
                    "midi": 53,
                    "time": 20,
                    "velocity": 0.4881889763779528,
                    "duration": 5
                },
                {
                    "name": "G2",
                    "midi": 43,
                    "time": 30,
                    "velocity": 0.4881889763779528,
                    "duration": 0.78125
                },
                {
                    "name": "G#2",
                    "midi": 44,
                    "time": 30.78125,
                    "velocity": 0.4881889763779528,
                    "duration": 0.15625
                },
                {
                    "name": "A2",
                    "midi": 45,
                    "time": 30.9375,
                    "velocity": 0.4881889763779528,
                    "duration": 0.15625
                },
                {
                    "name": "C3",
                    "midi": 48,
                    "time": 31.09375,
                    "velocity": 0.4881889763779528,
                    "duration": 0.15625
                },
                {
                    "name": "A#2",
                    "midi": 46,
                    "time": 31.25,
                    "velocity": 0.4881889763779528,
                    "duration": 1.25
                },
                {
                    "name": "F2",
                    "midi": 41,
                    "time": 32.5,
                    "velocity": 0.4881889763779528,
                    "duration": 0.625
                },
                {
                    "name": "F#2",
                    "midi": 42,
                    "time": 33.125,
                    "velocity": 0.4881889763779528,
                    "duration": 0.625
                },
                {
                    "name": "G2",
                    "midi": 43,
                    "time": 33.75,
                    "velocity": 0.4881889763779528,
                    "duration": 0.625
                },
                {
                    "name": "F2",
                    "midi": 41,
                    "time": 34.375,
                    "velocity": 0.4881889763779528,
                    "duration": 0.625
                },
                {
                    "name": "G3",
                    "midi": 55,
                    "time": 50.3125,
                    "velocity": 0.4881889763779528,
                    "duration": 0.15625
                },
                {
                    "name": "B3",
                    "midi": 59,
                    "time": 50.46875,
                    "velocity": 0.4881889763779528,
                    "duration": 0.15625
                },
                {
                    "name": "E3",
                    "midi": 52,
                    "time": 50.625,
                    "velocity": 0.4881889763779528,
                    "duration": 0.15625
                },
                {
                    "name": "F3",
                    "midi": 53,
                    "time": 50.78125,
                    "velocity": 0.4881889763779528,
                    "duration": 0.15625
                },
                {
                    "name": "F#3",
                    "midi": 54,
                    "time": 50.9375,
                    "velocity": 0.4881889763779528,
                    "duration": 0.15625
                },
                {
                    "name": "G#3",
                    "midi": 56,
                    "time": 51.09375,
                    "velocity": 0.4881889763779528,
                    "duration": 0.15625
                },
                {
                    "name": "A#3",
                    "midi": 58,
                    "time": 51.25,
                    "velocity": 0.4881889763779528,
                    "duration": 0.15625
                },
                {
                    "name": "D4",
                    "midi": 62,
                    "time": 51.40625,
                    "velocity": 0.4881889763779528,
                    "duration": 0.15625
                },
                {
                    "name": "G3",
                    "midi": 55,
                    "time": 51.5625,
                    "velocity": 0.4881889763779528,
                    "duration": 0.15625
                },
                {
                    "name": "G#3",
                    "midi": 56,
                    "time": 51.71875,
                    "velocity": 0.4881889763779528,
                    "duration": 0.15625
                },
                {
                    "name": "A3",
                    "midi": 57,
                    "time": 51.875,
                    "velocity": 0.4881889763779528,
                    "duration": 0.15625
                },
                {
                    "name": "B3",
                    "midi": 59,
                    "time": 52.03125,
                    "velocity": 0.4881889763779528,
                    "duration": 0.15625
                },
                {
                    "name": "D4",
                    "midi": 62,
                    "time": 52.1875,
                    "velocity": 0.4881889763779528,
                    "duration": 0.15625
                },
                {
                    "name": "F4",
                    "midi": 65,
                    "time": 52.34375,
                    "velocity": 0.4881889763779528,
                    "duration": 0.15625
                },
                {
                    "name": "A#3",
                    "midi": 58,
                    "time": 52.5,
                    "velocity": 0.4881889763779528,
                    "duration": 0.15625
                },
                {
                    "name": "B3",
                    "midi": 59,
                    "time": 52.65625,
                    "velocity": 0.4881889763779528,
                    "duration": 0.15625
                },
                {
                    "name": "C4",
                    "midi": 60,
                    "time": 52.8125,
                    "velocity": 0.4881889763779528,
                    "duration": 0.15625
                },
                {
                    "name": "D4",
                    "midi": 62,
                    "time": 52.96875,
                    "velocity": 0.4881889763779528,
                    "duration": 0.15625
                },
                {
                    "name": "A#4",
                    "midi": 70,
                    "time": 55,
                    "velocity": 0.4881889763779528,
                    "duration": 1.25
                },
                {
                    "name": "D5",
                    "midi": 74,
                    "time": 55,
                    "velocity": 0.4881889763779528,
                    "duration": 1.25
                },
                {
                    "name": "G#4",
                    "midi": 68,
                    "time": 56.25,
                    "velocity": 0.4881889763779528,
                    "duration": 1.5625
                },
                {
                    "name": "B4",
                    "midi": 71,
                    "time": 56.25,
                    "velocity": 0.4881889763779528,
                    "duration": 1.5625
                },
                {
                    "name": "B4",
                    "midi": 71,
                    "time": 57.8125,
                    "velocity": 0.4881889763779528,
                    "duration": 0.3125
                },
                {
                    "name": "D#5",
                    "midi": 75,
                    "time": 57.8125,
                    "velocity": 0.4881889763779528,
                    "duration": 0.3125
                },
                {
                    "name": "B4",
                    "midi": 71,
                    "time": 58.125,
                    "velocity": 0.4881889763779528,
                    "duration": 0.3125
                },
                {
                    "name": "D5",
                    "midi": 74,
                    "time": 58.125,
                    "velocity": 0.4881889763779528,
                    "duration": 0.3125
                },
                {
                    "name": "D4",
                    "midi": 62,
                    "time": 58.4375,
                    "velocity": 0.4881889763779528,
                    "duration": 0.3125
                },
                {
                    "name": "F4",
                    "midi": 65,
                    "time": 58.4375,
                    "velocity": 0.4881889763779528,
                    "duration": 0.3125
                },
                {
                    "name": "D#4",
                    "midi": 63,
                    "time": 58.75,
                    "velocity": 0.4881889763779528,
                    "duration": 0.3125
                },
                {
                    "name": "F#4",
                    "midi": 66,
                    "time": 58.75,
                    "velocity": 0.4881889763779528,
                    "duration": 0.3125
                },
                {
                    "name": "D#4",
                    "midi": 63,
                    "time": 59.0625,
                    "velocity": 0.4881889763779528,
                    "duration": 0.3125
                },
                {
                    "name": "G4",
                    "midi": 67,
                    "time": 59.0625,
                    "velocity": 0.4881889763779528,
                    "duration": 0.3125
                },
                {
                    "name": "D#4",
                    "midi": 63,
                    "time": 59.375,
                    "velocity": 0.4881889763779528,
                    "duration": 0.3125
                },
                {
                    "name": "G4",
                    "midi": 67,
                    "time": 59.375,
                    "velocity": 0.4881889763779528,
                    "duration": 0.3125
                },
                {
                    "name": "A3",
                    "midi": 57,
                    "time": 59.6875,
                    "velocity": 0.4881889763779528,
                    "duration": 0.3125
                },
                {
                    "name": "D4",
                    "midi": 62,
                    "time": 59.6875,
                    "velocity": 0.4881889763779528,
                    "duration": 0.3125
                },
                {
                    "name": "F3",
                    "midi": 53,
                    "time": 60,
                    "velocity": 0.7952755905511811,
                    "duration": 5
                },
                {
                    "name": "F4",
                    "midi": 65,
                    "time": 60,
                    "velocity": 0.7952755905511811,
                    "duration": 5
                },
                {
                    "name": "G#3",
                    "midi": 56,
                    "time": 61.25,
                    "velocity": 0.5905511811023622,
                    "duration": 1.25
                },
                {
                    "name": "A#4",
                    "midi": 70,
                    "time": 65,
                    "velocity": 0.4881889763779528,
                    "duration": 1.25
                },
                {
                    "name": "D5",
                    "midi": 74,
                    "time": 65,
                    "velocity": 0.4881889763779528,
                    "duration": 1.25
                },
                {
                    "name": "G#4",
                    "midi": 68,
                    "time": 66.25,
                    "velocity": 0.4881889763779528,
                    "duration": 1.5625
                },
                {
                    "name": "B4",
                    "midi": 71,
                    "time": 66.25,
                    "velocity": 0.4881889763779528,
                    "duration": 1.5625
                },
                {
                    "name": "B4",
                    "midi": 71,
                    "time": 67.8125,
                    "velocity": 0.4881889763779528,
                    "duration": 0.3125
                },
                {
                    "name": "D#5",
                    "midi": 75,
                    "time": 67.8125,
                    "velocity": 0.4881889763779528,
                    "duration": 0.3125
                },
                {
                    "name": "B4",
                    "midi": 71,
                    "time": 68.125,
                    "velocity": 0.4881889763779528,
                    "duration": 0.3125
                },
                {
                    "name": "D5",
                    "midi": 74,
                    "time": 68.125,
                    "velocity": 0.4881889763779528,
                    "duration": 0.3125
                },
                {
                    "name": "D4",
                    "midi": 62,
                    "time": 68.4375,
                    "velocity": 0.4881889763779528,
                    "duration": 0.3125
                },
                {
                    "name": "F4",
                    "midi": 65,
                    "time": 68.4375,
                    "velocity": 0.4881889763779528,
                    "duration": 0.3125
                },
                {
                    "name": "D#4",
                    "midi": 63,
                    "time": 68.75,
                    "velocity": 0.4881889763779528,
                    "duration": 0.3125
                },
                {
                    "name": "F#4",
                    "midi": 66,
                    "time": 68.75,
                    "velocity": 0.4881889763779528,
                    "duration": 0.3125
                },
                {
                    "name": "D#4",
                    "midi": 63,
                    "time": 69.0625,
                    "velocity": 0.4881889763779528,
                    "duration": 0.3125
                },
                {
                    "name": "G4",
                    "midi": 67,
                    "time": 69.0625,
                    "velocity": 0.4881889763779528,
                    "duration": 0.3125
                },
                {
                    "name": "D#4",
                    "midi": 63,
                    "time": 69.375,
                    "velocity": 0.4881889763779528,
                    "duration": 0.3125
                },
                {
                    "name": "G4",
                    "midi": 67,
                    "time": 69.375,
                    "velocity": 0.4881889763779528,
                    "duration": 0.3125
                },
                {
                    "name": "A3",
                    "midi": 57,
                    "time": 69.6875,
                    "velocity": 0.4881889763779528,
                    "duration": 0.3125
                },
                {
                    "name": "D4",
                    "midi": 62,
                    "time": 69.6875,
                    "velocity": 0.4881889763779528,
                    "duration": 0.3125
                },
                {
                    "name": "F4",
                    "midi": 65,
                    "time": 70,
                    "velocity": 0.4881889763779528,
                    "duration": 0.625
                },
                {
                    "name": "F5",
                    "midi": 77,
                    "time": 70,
                    "velocity": 0.4881889763779528,
                    "duration": 0.625
                },
                {
                    "name": "D4",
                    "midi": 62,
                    "time": 70.625,
                    "velocity": 0.4881889763779528,
                    "duration": 0.625
                },
                {
                    "name": "D5",
                    "midi": 74,
                    "time": 70.625,
                    "velocity": 0.4881889763779528,
                    "duration": 0.625
                },
                {
                    "name": "A#3",
                    "midi": 58,
                    "time": 71.25,
                    "velocity": 0.4881889763779528,
                    "duration": 0.625
                },
                {
                    "name": "A#4",
                    "midi": 70,
                    "time": 71.25,
                    "velocity": 0.4881889763779528,
                    "duration": 0.625
                },
                {
                    "name": "G3",
                    "midi": 55,
                    "time": 71.875,
                    "velocity": 0.4881889763779528,
                    "duration": 0.625
                },
                {
                    "name": "G4",
                    "midi": 67,
                    "time": 71.875,
                    "velocity": 0.4881889763779528,
                    "duration": 0.625
                },
                {
                    "name": "G4",
                    "midi": 67,
                    "time": 75,
                    "velocity": 0.4881889763779528,
                    "duration": 0.625
                },
                {
                    "name": "A#4",
                    "midi": 70,
                    "time": 75,
                    "velocity": 0.4881889763779528,
                    "duration": 0.625
                },
                {
                    "name": "D#4",
                    "midi": 63,
                    "time": 75.625,
                    "velocity": 0.4881889763779528,
                    "duration": 0.625
                },
                {
                    "name": "G4",
                    "midi": 67,
                    "time": 75.625,
                    "velocity": 0.4881889763779528,
                    "duration": 0.625
                },
                {
                    "name": "A#3",
                    "midi": 58,
                    "time": 76.25,
                    "velocity": 0.4881889763779528,
                    "duration": 0.3125
                },
                {
                    "name": "D#4",
                    "midi": 63,
                    "time": 76.25,
                    "velocity": 0.4881889763779528,
                    "duration": 0.3125
                },
                {
                    "name": "G4",
                    "midi": 67,
                    "time": 76.5625,
                    "velocity": 0.4881889763779528,
                    "duration": 0.9375
                },
                {
                    "name": "A#4",
                    "midi": 70,
                    "time": 76.5625,
                    "velocity": 0.4881889763779528,
                    "duration": 0.9375
                },
                {
                    "name": "A#2",
                    "midi": 46,
                    "time": 82.5,
                    "velocity": 0.4881889763779528,
                    "duration": 0.625
                },
                {
                    "name": "A#3",
                    "midi": 58,
                    "time": 82.5,
                    "velocity": 0.4881889763779528,
                    "duration": 0.625
                },
                {
                    "name": "A2",
                    "midi": 45,
                    "time": 83.125,
                    "velocity": 0.4881889763779528,
                    "duration": 0.625
                },
                {
                    "name": "A3",
                    "midi": 57,
                    "time": 83.125,
                    "velocity": 0.4881889763779528,
                    "duration": 0.625
                },
                {
                    "name": "G2",
                    "midi": 43,
                    "time": 83.75,
                    "velocity": 0.4881889763779528,
                    "duration": 0.625
                },
                {
                    "name": "G3",
                    "midi": 55,
                    "time": 83.75,
                    "velocity": 0.4881889763779528,
                    "duration": 0.625
                },
                {
                    "name": "F2",
                    "midi": 41,
                    "time": 84.375,
                    "velocity": 0.4881889763779528,
                    "duration": 0.625
                },
                {
                    "name": "F3",
                    "midi": 53,
                    "time": 84.375,
                    "velocity": 0.4881889763779528,
                    "duration": 0.625
                },
                {
                    "name": "D#2",
                    "midi": 39,
                    "time": 85,
                    "velocity": 0.4881889763779528,
                    "duration": 0.625
                },
                {
                    "name": "D#3",
                    "midi": 51,
                    "time": 85,
                    "velocity": 0.4881889763779528,
                    "duration": 0.625
                },
                {
                    "name": "D2",
                    "midi": 38,
                    "time": 85.625,
                    "velocity": 0.4881889763779528,
                    "duration": 0.625
                },
                {
                    "name": "D3",
                    "midi": 50,
                    "time": 85.625,
                    "velocity": 0.4881889763779528,
                    "duration": 0.625
                },
                {
                    "name": "C2",
                    "midi": 36,
                    "time": 86.25,
                    "velocity": 0.4881889763779528,
                    "duration": 0.625
                },
                {
                    "name": "C3",
                    "midi": 48,
                    "time": 86.25,
                    "velocity": 0.4881889763779528,
                    "duration": 0.625
                },
                {
                    "name": "D2",
                    "midi": 38,
                    "time": 86.875,
                    "velocity": 0.4881889763779528,
                    "duration": 0.625
                },
                {
                    "name": "D3",
                    "midi": 50,
                    "time": 86.875,
                    "velocity": 0.4881889763779528,
                    "duration": 0.625
                },
                {
                    "name": "G2",
                    "midi": 43,
                    "time": 87.5,
                    "velocity": 0.4881889763779528,
                    "duration": 0.625
                },
                {
                    "name": "G3",
                    "midi": 55,
                    "time": 88.125,
                    "velocity": 0.4881889763779528,
                    "duration": 0.625
                },
                {
                    "name": "F#3",
                    "midi": 54,
                    "time": 88.75,
                    "velocity": 0.4881889763779528,
                    "duration": 0.625
                },
                {
                    "name": "F#2",
                    "midi": 42,
                    "time": 89.375,
                    "velocity": 0.4881889763779528,
                    "duration": 0.625
                },
                {
                    "name": "F2",
                    "midi": 41,
                    "time": 90,
                    "velocity": 0.4881889763779528,
                    "duration": 0.3125
                },
                {
                    "name": "F3",
                    "midi": 53,
                    "time": 90.3125,
                    "velocity": 0.4881889763779528,
                    "duration": 0.3125
                },
                {
                    "name": "E3",
                    "midi": 52,
                    "time": 90.625,
                    "velocity": 0.4881889763779528,
                    "duration": 0.3125
                },
                {
                    "name": "E2",
                    "midi": 40,
                    "time": 90.9375,
                    "velocity": 0.4881889763779528,
                    "duration": 0.3125
                },
                {
                    "name": "D#2",
                    "midi": 39,
                    "time": 91.25,
                    "velocity": 0.4881889763779528,
                    "duration": 0.3125
                },
                {
                    "name": "D#3",
                    "midi": 51,
                    "time": 91.5625,
                    "velocity": 0.4881889763779528,
                    "duration": 0.3125
                },
                {
                    "name": "D3",
                    "midi": 50,
                    "time": 91.875,
                    "velocity": 0.4881889763779528,
                    "duration": 0.3125
                },
                {
                    "name": "D2",
                    "midi": 38,
                    "time": 92.1875,
                    "velocity": 0.4881889763779528,
                    "duration": 0.3125
                },
                {
                    "name": "C#2",
                    "midi": 37,
                    "time": 92.5,
                    "velocity": 0.4881889763779528,
                    "duration": 0.625
                },
                {
                    "name": "C#3",
                    "midi": 49,
                    "time": 93.125,
                    "velocity": 0.4881889763779528,
                    "duration": 0.625
                },
                {
                    "name": "C3",
                    "midi": 48,
                    "time": 93.75,
                    "velocity": 0.4881889763779528,
                    "duration": 0.625
                },
                {
                    "name": "C2",
                    "midi": 36,
                    "time": 94.375,
                    "velocity": 0.4881889763779528,
                    "duration": 0.625
                },
                {
                    "name": "B1",
                    "midi": 35,
                    "time": 95,
                    "velocity": 0.4881889763779528,
                    "duration": 0.3125
                },
                {
                    "name": "B2",
                    "midi": 47,
                    "time": 95.3125,
                    "velocity": 0.4881889763779528,
                    "duration": 0.3125
                },
                {
                    "name": "A#2",
                    "midi": 46,
                    "time": 95.625,
                    "velocity": 0.4881889763779528,
                    "duration": 0.3125
                },
                {
                    "name": "A#1",
                    "midi": 34,
                    "time": 95.9375,
                    "velocity": 0.4881889763779528,
                    "duration": 0.3125
                },
                {
                    "name": "A1",
                    "midi": 33,
                    "time": 96.25,
                    "velocity": 0.4881889763779528,
                    "duration": 0.3125
                },
                {
                    "name": "A2",
                    "midi": 45,
                    "time": 96.5625,
                    "velocity": 0.4881889763779528,
                    "duration": 0.3125
                },
                {
                    "name": "G#2",
                    "midi": 44,
                    "time": 96.875,
                    "velocity": 0.4881889763779528,
                    "duration": 0.3125
                },
                {
                    "name": "G#1",
                    "midi": 32,
                    "time": 97.1875,
                    "velocity": 0.4881889763779528,
                    "duration": 0.3125
                },
                {
                    "name": "B3",
                    "midi": 59,
                    "time": 97.5,
                    "velocity": 0.5905511811023622,
                    "duration": 1.25
                },
                {
                    "name": "D4",
                    "midi": 62,
                    "time": 97.5,
                    "velocity": 0.5905511811023622,
                    "duration": 1.25
                },
                {
                    "name": "G#3",
                    "midi": 56,
                    "time": 98.75,
                    "velocity": 0.5905511811023622,
                    "duration": 1.25
                },
                {
                    "name": "B3",
                    "midi": 59,
                    "time": 98.75,
                    "velocity": 0.5905511811023622,
                    "duration": 1.25
                },
                {
                    "name": "E3",
                    "midi": 52,
                    "time": 100,
                    "velocity": 0.5905511811023622,
                    "duration": 0.9375
                },
                {
                    "name": "G3",
                    "midi": 55,
                    "time": 100.9375,
                    "velocity": 0.5905511811023622,
                    "duration": 0.3125
                },
                {
                    "name": "C4",
                    "midi": 60,
                    "time": 101.25,
                    "velocity": 0.5905511811023622,
                    "duration": 1.25
                },
                {
                    "name": "D4",
                    "midi": 62,
                    "time": 102.5,
                    "velocity": 0.5905511811023622,
                    "duration": 1.25
                },
                {
                    "name": "B3",
                    "midi": 59,
                    "time": 103.75,
                    "velocity": 0.5905511811023622,
                    "duration": 1.25
                },
                {
                    "name": "B3",
                    "midi": 59,
                    "time": 107.5,
                    "velocity": 0.5905511811023622,
                    "duration": 1.25
                },
                {
                    "name": "D4",
                    "midi": 62,
                    "time": 107.5,
                    "velocity": 0.5905511811023622,
                    "duration": 1.25
                },
                {
                    "name": "G#3",
                    "midi": 56,
                    "time": 108.75,
                    "velocity": 0.5905511811023622,
                    "duration": 1.25
                },
                {
                    "name": "B3",
                    "midi": 59,
                    "time": 108.75,
                    "velocity": 0.5905511811023622,
                    "duration": 1.25
                },
                {
                    "name": "E3",
                    "midi": 52,
                    "time": 110,
                    "velocity": 0.5905511811023622,
                    "duration": 0.9375
                },
                {
                    "name": "G3",
                    "midi": 55,
                    "time": 110.9375,
                    "velocity": 0.5905511811023622,
                    "duration": 0.3125
                },
                {
                    "name": "C4",
                    "midi": 60,
                    "time": 111.25,
                    "velocity": 0.5905511811023622,
                    "duration": 1.25
                },
                {
                    "name": "G4",
                    "midi": 67,
                    "time": 112.5,
                    "velocity": 0.6929133858267716,
                    "duration": 5
                },
                {
                    "name": "E4",
                    "midi": 64,
                    "time": 117.5,
                    "velocity": 0.5905511811023622,
                    "duration": 0.625
                },
                {
                    "name": "G4",
                    "midi": 67,
                    "time": 117.5,
                    "velocity": 0.5905511811023622,
                    "duration": 0.625
                },
                {
                    "name": "C4",
                    "midi": 60,
                    "time": 118.125,
                    "velocity": 0.5905511811023622,
                    "duration": 0.625
                },
                {
                    "name": "E4",
                    "midi": 64,
                    "time": 118.125,
                    "velocity": 0.5905511811023622,
                    "duration": 0.625
                },
                {
                    "name": "G3",
                    "midi": 55,
                    "time": 118.75,
                    "velocity": 0.5905511811023622,
                    "duration": 0.625
                },
                {
                    "name": "C4",
                    "midi": 60,
                    "time": 118.75,
                    "velocity": 0.5905511811023622,
                    "duration": 0.625
                },
                {
                    "name": "E4",
                    "midi": 64,
                    "time": 119.375,
                    "velocity": 0.5905511811023622,
                    "duration": 0.625
                },
                {
                    "name": "G4",
                    "midi": 67,
                    "time": 119.375,
                    "velocity": 0.5905511811023622,
                    "duration": 0.625
                },
                {
                    "name": "B3",
                    "midi": 59,
                    "time": 120,
                    "velocity": 0.5905511811023622,
                    "duration": 0.3125
                },
                {
                    "name": "G3",
                    "midi": 55,
                    "time": 120.3125,
                    "velocity": 0.5905511811023622,
                    "duration": 0.3125
                },
                {
                    "name": "D#3",
                    "midi": 51,
                    "time": 120.625,
                    "velocity": 0.5905511811023622,
                    "duration": 0.3125
                },
                {
                    "name": "D3",
                    "midi": 50,
                    "time": 120.9375,
                    "velocity": 0.5905511811023622,
                    "duration": 0.3125
                },
                {
                    "name": "C#3",
                    "midi": 49,
                    "time": 121.25,
                    "velocity": 0.5905511811023622,
                    "duration": 0.3125
                },
                {
                    "name": "A#3",
                    "midi": 58,
                    "time": 121.5625,
                    "velocity": 0.5905511811023622,
                    "duration": 0.3125
                },
                {
                    "name": "C3",
                    "midi": 48,
                    "time": 121.875,
                    "velocity": 0.5905511811023622,
                    "duration": 0.3125
                },
                {
                    "name": "A3",
                    "midi": 57,
                    "time": 122.1875,
                    "velocity": 0.5905511811023622,
                    "duration": 0.3125
                },
                {
                    "name": "G3",
                    "midi": 55,
                    "time": 122.5,
                    "velocity": 0.5905511811023622,
                    "duration": 2.5
                },
                {
                    "name": "A5",
                    "midi": 81,
                    "time": 135,
                    "velocity": 0.5905511811023622,
                    "duration": 0.625
                },
                {
                    "name": "F6",
                    "midi": 89,
                    "time": 135,
                    "velocity": 0.5905511811023622,
                    "duration": 0.625
                },
                {
                    "name": "C4",
                    "midi": 60,
                    "time": 147.5,
                    "velocity": 0.4881889763779528,
                    "duration": 0.625
                },
                {
                    "name": "D#4",
                    "midi": 63,
                    "time": 147.5,
                    "velocity": 0.4881889763779528,
                    "duration": 0.625
                },
                {
                    "name": "C#4",
                    "midi": 61,
                    "time": 148.125,
                    "velocity": 0.4881889763779528,
                    "duration": 0.625
                },
                {
                    "name": "F4",
                    "midi": 65,
                    "time": 148.125,
                    "velocity": 0.4881889763779528,
                    "duration": 0.625
                },
                {
                    "name": "C4",
                    "midi": 60,
                    "time": 148.75,
                    "velocity": 0.4881889763779528,
                    "duration": 0.625
                },
                {
                    "name": "D#4",
                    "midi": 63,
                    "time": 148.75,
                    "velocity": 0.4881889763779528,
                    "duration": 0.625
                },
                {
                    "name": "B3",
                    "midi": 59,
                    "time": 149.375,
                    "velocity": 0.4881889763779528,
                    "duration": 0.625
                },
                {
                    "name": "E4",
                    "midi": 64,
                    "time": 149.375,
                    "velocity": 0.4881889763779528,
                    "duration": 0.625
                },
                {
                    "name": "C5",
                    "midi": 72,
                    "time": 172.5,
                    "velocity": 0.7952755905511811,
                    "duration": 0.3125
                },
                {
                    "name": "D5",
                    "midi": 74,
                    "time": 172.8125,
                    "velocity": 0.7952755905511811,
                    "duration": 0.3125
                },
                {
                    "name": "C5",
                    "midi": 72,
                    "time": 173.125,
                    "velocity": 0.7952755905511811,
                    "duration": 0.3125
                },
                {
                    "name": "F4",
                    "midi": 65,
                    "time": 173.4375,
                    "velocity": 0.7952755905511811,
                    "duration": 0.3125
                },
                {
                    "name": "G#4",
                    "midi": 68,
                    "time": 173.75,
                    "velocity": 0.7952755905511811,
                    "duration": 0.3125
                },
                {
                    "name": "G4",
                    "midi": 67,
                    "time": 174.0625,
                    "velocity": 0.7952755905511811,
                    "duration": 0.3125
                },
                {
                    "name": "F4",
                    "midi": 65,
                    "time": 174.375,
                    "velocity": 0.7952755905511811,
                    "duration": 0.3125
                },
                {
                    "name": "D4",
                    "midi": 62,
                    "time": 174.6875,
                    "velocity": 0.7952755905511811,
                    "duration": 0.3125
                },
                {
                    "name": "A#4",
                    "midi": 70,
                    "time": 175,
                    "velocity": 0.7952755905511811,
                    "duration": 0.3125
                },
                {
                    "name": "C5",
                    "midi": 72,
                    "time": 175.3125,
                    "velocity": 0.7952755905511811,
                    "duration": 0.3125
                },
                {
                    "name": "A#4",
                    "midi": 70,
                    "time": 175.625,
                    "velocity": 0.7952755905511811,
                    "duration": 0.3125
                },
                {
                    "name": "D#4",
                    "midi": 63,
                    "time": 175.9375,
                    "velocity": 0.7952755905511811,
                    "duration": 0.3125
                },
                {
                    "name": "F#4",
                    "midi": 66,
                    "time": 176.25,
                    "velocity": 0.7952755905511811,
                    "duration": 0.3125
                },
                {
                    "name": "F4",
                    "midi": 65,
                    "time": 176.5625,
                    "velocity": 0.7952755905511811,
                    "duration": 0.3125
                },
                {
                    "name": "D#4",
                    "midi": 63,
                    "time": 176.875,
                    "velocity": 0.7952755905511811,
                    "duration": 0.3125
                },
                {
                    "name": "C4",
                    "midi": 60,
                    "time": 177.1875,
                    "velocity": 0.7952755905511811,
                    "duration": 0.3125
                },
                {
                    "name": "A4",
                    "midi": 69,
                    "time": 177.5,
                    "velocity": 0.5905511811023622,
                    "duration": 0.15625
                },
                {
                    "name": "A#4",
                    "midi": 70,
                    "time": 177.65625,
                    "velocity": 0.5905511811023622,
                    "duration": 0.15625
                },
                {
                    "name": "A4",
                    "midi": 69,
                    "time": 177.8125,
                    "velocity": 0.5905511811023622,
                    "duration": 0.029947916666657193
                },
                {
                    "name": "C#4",
                    "midi": 61,
                    "time": 177.96875,
                    "velocity": 0.5905511811023622,
                    "duration": 0.029947916666657193
                },
                {
                    "name": "E4",
                    "midi": 64,
                    "time": 178.125,
                    "velocity": 0.5905511811023622,
                    "duration": 0.15625
                },
                {
                    "name": "D#4",
                    "midi": 63,
                    "time": 178.28125,
                    "velocity": 0.5905511811023622,
                    "duration": 0.15625
                },
                {
                    "name": "C#4",
                    "midi": 61,
                    "time": 178.4375,
                    "velocity": 0.5905511811023622,
                    "duration": 0.029947916666657193
                },
                {
                    "name": "A#3",
                    "midi": 58,
                    "time": 178.59375,
                    "velocity": 0.5905511811023622,
                    "duration": 0.029947916666657193
                },
                {
                    "name": "F#4",
                    "midi": 66,
                    "time": 178.75,
                    "velocity": 0.5905511811023622,
                    "duration": 0.15625
                },
                {
                    "name": "A4",
                    "midi": 69,
                    "time": 178.90625,
                    "velocity": 0.5905511811023622,
                    "duration": 0.15625
                },
                {
                    "name": "F#4",
                    "midi": 66,
                    "time": 179.0625,
                    "velocity": 0.5905511811023622,
                    "duration": 0.029947916666657193
                },
                {
                    "name": "B3",
                    "midi": 59,
                    "time": 179.21875,
                    "velocity": 0.5905511811023622,
                    "duration": 0.029947916666657193
                },
                {
                    "name": "D4",
                    "midi": 62,
                    "time": 179.375,
                    "velocity": 0.5905511811023622,
                    "duration": 0.15625
                },
                {
                    "name": "C#4",
                    "midi": 61,
                    "time": 179.53125,
                    "velocity": 0.5905511811023622,
                    "duration": 0.15625
                },
                {
                    "name": "B3",
                    "midi": 59,
                    "time": 179.6875,
                    "velocity": 0.5905511811023622,
                    "duration": 0.029947916666657193
                },
                {
                    "name": "G#3",
                    "midi": 56,
                    "time": 179.84375,
                    "velocity": 0.5905511811023622,
                    "duration": 0.029947916666657193
                },
                {
                    "name": "E4",
                    "midi": 64,
                    "time": 180,
                    "velocity": 0.5905511811023622,
                    "duration": 0.15625
                },
                {
                    "name": "F#4",
                    "midi": 66,
                    "time": 180.15625,
                    "velocity": 0.5905511811023622,
                    "duration": 0.15625
                },
                {
                    "name": "E4",
                    "midi": 64,
                    "time": 180.3125,
                    "velocity": 0.5905511811023622,
                    "duration": 0.15625
                },
                {
                    "name": "A3",
                    "midi": 57,
                    "time": 180.46875,
                    "velocity": 0.5905511811023622,
                    "duration": 0.15625
                },
                {
                    "name": "C4",
                    "midi": 60,
                    "time": 180.625,
                    "velocity": 0.5905511811023622,
                    "duration": 0.15625
                },
                {
                    "name": "D4",
                    "midi": 62,
                    "time": 180.78125,
                    "velocity": 0.5905511811023622,
                    "duration": 0.15625
                },
                {
                    "name": "C4",
                    "midi": 60,
                    "time": 180.9375,
                    "velocity": 0.5905511811023622,
                    "duration": 0.15625
                },
                {
                    "name": "F3",
                    "midi": 53,
                    "time": 181.09375,
                    "velocity": 0.5905511811023622,
                    "duration": 0.15625
                },
                {
                    "name": "A3",
                    "midi": 57,
                    "time": 181.25,
                    "velocity": 0.5905511811023622,
                    "duration": 0.15625
                },
                {
                    "name": "B3",
                    "midi": 59,
                    "time": 181.40625,
                    "velocity": 0.5905511811023622,
                    "duration": 0.15625
                },
                {
                    "name": "A3",
                    "midi": 57,
                    "time": 181.5625,
                    "velocity": 0.5905511811023622,
                    "duration": 0.15625
                },
                {
                    "name": "D3",
                    "midi": 50,
                    "time": 181.71875,
                    "velocity": 0.5905511811023622,
                    "duration": 0.15625
                },
                {
                    "name": "F3",
                    "midi": 53,
                    "time": 181.875,
                    "velocity": 0.5905511811023622,
                    "duration": 0.15625
                },
                {
                    "name": "G3",
                    "midi": 55,
                    "time": 182.03125,
                    "velocity": 0.5905511811023622,
                    "duration": 0.15625
                },
                {
                    "name": "F3",
                    "midi": 53,
                    "time": 182.1875,
                    "velocity": 0.5905511811023622,
                    "duration": 0.15625
                },
                {
                    "name": "B2",
                    "midi": 47,
                    "time": 182.34375,
                    "velocity": 0.5905511811023622,
                    "duration": 0.15625
                },
                {
                    "name": "B3",
                    "midi": 59,
                    "time": 185,
                    "velocity": 0.5905511811023622,
                    "duration": 0.3125
                },
                {
                    "name": "B4",
                    "midi": 71,
                    "time": 185,
                    "velocity": 0.5905511811023622,
                    "duration": 0.3125
                },
                {
                    "name": "A3",
                    "midi": 57,
                    "time": 185.3125,
                    "velocity": 0.5905511811023622,
                    "duration": 0.3125
                },
                {
                    "name": "A4",
                    "midi": 69,
                    "time": 185.3125,
                    "velocity": 0.5905511811023622,
                    "duration": 0.3125
                },
                {
                    "name": "G3",
                    "midi": 55,
                    "time": 185.625,
                    "velocity": 0.5905511811023622,
                    "duration": 0.3125
                },
                {
                    "name": "G4",
                    "midi": 67,
                    "time": 185.625,
                    "velocity": 0.5905511811023622,
                    "duration": 0.3125
                },
                {
                    "name": "F3",
                    "midi": 53,
                    "time": 185.9375,
                    "velocity": 0.5905511811023622,
                    "duration": 0.3125
                },
                {
                    "name": "F4",
                    "midi": 65,
                    "time": 185.9375,
                    "velocity": 0.5905511811023622,
                    "duration": 0.3125
                },
                {
                    "name": "B3",
                    "midi": 59,
                    "time": 186.25,
                    "velocity": 0.5905511811023622,
                    "duration": 0.3125
                },
                {
                    "name": "B4",
                    "midi": 71,
                    "time": 186.25,
                    "velocity": 0.5905511811023622,
                    "duration": 0.3125
                },
                {
                    "name": "A3",
                    "midi": 57,
                    "time": 186.5625,
                    "velocity": 0.5905511811023622,
                    "duration": 0.3125
                },
                {
                    "name": "A4",
                    "midi": 69,
                    "time": 186.5625,
                    "velocity": 0.5905511811023622,
                    "duration": 0.3125
                },
                {
                    "name": "G3",
                    "midi": 55,
                    "time": 186.875,
                    "velocity": 0.5905511811023622,
                    "duration": 0.3125
                },
                {
                    "name": "G4",
                    "midi": 67,
                    "time": 186.875,
                    "velocity": 0.5905511811023622,
                    "duration": 0.3125
                },
                {
                    "name": "F3",
                    "midi": 53,
                    "time": 187.1875,
                    "velocity": 0.5905511811023622,
                    "duration": 0.3125
                },
                {
                    "name": "F4",
                    "midi": 65,
                    "time": 187.1875,
                    "velocity": 0.5905511811023622,
                    "duration": 0.3125
                },
                {
                    "name": "B2",
                    "midi": 47,
                    "time": 187.5,
                    "velocity": 0.8976377952755905,
                    "duration": 0.3125
                },
                {
                    "name": "B3",
                    "midi": 59,
                    "time": 187.5,
                    "velocity": 0.8976377952755905,
                    "duration": 0.3125
                },
                {
                    "name": "A2",
                    "midi": 45,
                    "time": 187.8125,
                    "velocity": 0.8976377952755905,
                    "duration": 0.3125
                },
                {
                    "name": "A3",
                    "midi": 57,
                    "time": 187.8125,
                    "velocity": 0.8976377952755905,
                    "duration": 0.3125
                },
                {
                    "name": "G2",
                    "midi": 43,
                    "time": 188.125,
                    "velocity": 0.8976377952755905,
                    "duration": 0.3125
                },
                {
                    "name": "G3",
                    "midi": 55,
                    "time": 188.125,
                    "velocity": 0.8976377952755905,
                    "duration": 0.3125
                },
                {
                    "name": "F2",
                    "midi": 41,
                    "time": 188.4375,
                    "velocity": 0.8976377952755905,
                    "duration": 0.3125
                },
                {
                    "name": "F3",
                    "midi": 53,
                    "time": 188.4375,
                    "velocity": 0.8976377952755905,
                    "duration": 0.3125
                },
                {
                    "name": "B2",
                    "midi": 47,
                    "time": 188.75,
                    "velocity": 0.8976377952755905,
                    "duration": 0.3125
                },
                {
                    "name": "B3",
                    "midi": 59,
                    "time": 188.75,
                    "velocity": 0.8976377952755905,
                    "duration": 0.3125
                },
                {
                    "name": "A2",
                    "midi": 45,
                    "time": 189.0625,
                    "velocity": 0.8976377952755905,
                    "duration": 0.3125
                },
                {
                    "name": "A3",
                    "midi": 57,
                    "time": 189.0625,
                    "velocity": 0.8976377952755905,
                    "duration": 0.3125
                },
                {
                    "name": "G2",
                    "midi": 43,
                    "time": 189.375,
                    "velocity": 0.8976377952755905,
                    "duration": 0.3125
                },
                {
                    "name": "G3",
                    "midi": 55,
                    "time": 189.375,
                    "velocity": 0.8976377952755905,
                    "duration": 0.3125
                },
                {
                    "name": "F2",
                    "midi": 41,
                    "time": 189.6875,
                    "velocity": 0.8976377952755905,
                    "duration": 0.3125
                },
                {
                    "name": "F3",
                    "midi": 53,
                    "time": 189.6875,
                    "velocity": 0.8976377952755905,
                    "duration": 0.3125
                },
                {
                    "name": "E4",
                    "midi": 64,
                    "time": 190,
                    "velocity": 0.7952755905511811,
                    "duration": 2.8125
                },
                {
                    "name": "F#4",
                    "midi": 66,
                    "time": 192.8125,
                    "velocity": 0.7952755905511811,
                    "duration": 0.3125
                },
                {
                    "name": "E4",
                    "midi": 64,
                    "time": 193.125,
                    "velocity": 0.7952755905511811,
                    "duration": 0.3125
                },
                {
                    "name": "A3",
                    "midi": 57,
                    "time": 193.4375,
                    "velocity": 0.7952755905511811,
                    "duration": 0.3125
                },
                {
                    "name": "C4",
                    "midi": 60,
                    "time": 193.75,
                    "velocity": 0.6929133858267716,
                    "duration": 0.3125
                },
                {
                    "name": "B3",
                    "midi": 59,
                    "time": 194.0625,
                    "velocity": 0.6929133858267716,
                    "duration": 0.3125
                },
                {
                    "name": "A3",
                    "midi": 57,
                    "time": 194.375,
                    "velocity": 0.6929133858267716,
                    "duration": 0.3125
                },
                {
                    "name": "F#3",
                    "midi": 54,
                    "time": 194.6875,
                    "velocity": 0.6929133858267716,
                    "duration": 0.3125
                },
                {
                    "name": "D5",
                    "midi": 74,
                    "time": 195,
                    "velocity": 0.5905511811023622,
                    "duration": 0.3125
                },
                {
                    "name": "C#5",
                    "midi": 73,
                    "time": 195.3125,
                    "velocity": 0.5905511811023622,
                    "duration": 0.9375
                },
                {
                    "name": "D5",
                    "midi": 74,
                    "time": 196.25,
                    "velocity": 0.4881889763779528,
                    "duration": 0.3125
                },
                {
                    "name": "C#5",
                    "midi": 73,
                    "time": 196.5625,
                    "velocity": 0.4881889763779528,
                    "duration": 0.9375
                },
                {
                    "name": "G#3",
                    "midi": 56,
                    "time": 218.4375,
                    "velocity": 0.4881889763779528,
                    "duration": 0.3125
                },
                {
                    "name": "A#3",
                    "midi": 58,
                    "time": 218.75,
                    "velocity": 0.4881889763779528,
                    "duration": 0.3125
                },
                {
                    "name": "B3",
                    "midi": 59,
                    "time": 219.0625,
                    "velocity": 0.4881889763779528,
                    "duration": 0.3125
                },
                {
                    "name": "D#3",
                    "midi": 51,
                    "time": 219.375,
                    "velocity": 0.4881889763779528,
                    "duration": 0.3125
                },
                {
                    "name": "E3",
                    "midi": 52,
                    "time": 219.6875,
                    "velocity": 0.4881889763779528,
                    "duration": 0.3125
                },
                {
                    "name": "D2",
                    "midi": 38,
                    "time": 225,
                    "velocity": 0.4881889763779528,
                    "duration": 0.625
                },
                {
                    "name": "A2",
                    "midi": 45,
                    "time": 225,
                    "velocity": 0.4881889763779528,
                    "duration": 0.625
                },
                {
                    "name": "B2",
                    "midi": 47,
                    "time": 225.625,
                    "velocity": 0.4881889763779528,
                    "duration": 0.625
                },
                {
                    "name": "F#3",
                    "midi": 54,
                    "time": 225.625,
                    "velocity": 0.4881889763779528,
                    "duration": 0.625
                },
                {
                    "name": "D2",
                    "midi": 38,
                    "time": 226.25,
                    "velocity": 0.4881889763779528,
                    "duration": 0.625
                },
                {
                    "name": "A2",
                    "midi": 45,
                    "time": 226.25,
                    "velocity": 0.4881889763779528,
                    "duration": 0.625
                },
                {
                    "name": "B2",
                    "midi": 47,
                    "time": 226.875,
                    "velocity": 0.4881889763779528,
                    "duration": 0.625
                },
                {
                    "name": "F#3",
                    "midi": 54,
                    "time": 226.875,
                    "velocity": 0.4881889763779528,
                    "duration": 0.625
                },
                {
                    "name": "D2",
                    "midi": 38,
                    "time": 227.5,
                    "velocity": 0.4881889763779528,
                    "duration": 0.625
                },
                {
                    "name": "A2",
                    "midi": 45,
                    "time": 227.5,
                    "velocity": 0.4881889763779528,
                    "duration": 0.625
                },
                {
                    "name": "B2",
                    "midi": 47,
                    "time": 228.125,
                    "velocity": 0.4881889763779528,
                    "duration": 0.625
                },
                {
                    "name": "F#3",
                    "midi": 54,
                    "time": 228.125,
                    "velocity": 0.4881889763779528,
                    "duration": 0.625
                },
                {
                    "name": "D2",
                    "midi": 38,
                    "time": 228.75,
                    "velocity": 0.4881889763779528,
                    "duration": 0.625
                },
                {
                    "name": "A2",
                    "midi": 45,
                    "time": 228.75,
                    "velocity": 0.4881889763779528,
                    "duration": 0.625
                },
                {
                    "name": "B2",
                    "midi": 47,
                    "time": 229.375,
                    "velocity": 0.4881889763779528,
                    "duration": 0.625
                },
                {
                    "name": "F#3",
                    "midi": 54,
                    "time": 229.375,
                    "velocity": 0.4881889763779528,
                    "duration": 0.625
                },
                {
                    "name": "D2",
                    "midi": 38,
                    "time": 230,
                    "velocity": 0.4881889763779528,
                    "duration": 0.625
                },
                {
                    "name": "A2",
                    "midi": 45,
                    "time": 230,
                    "velocity": 0.4881889763779528,
                    "duration": 0.625
                },
                {
                    "name": "B2",
                    "midi": 47,
                    "time": 230.625,
                    "velocity": 0.4881889763779528,
                    "duration": 0.625
                },
                {
                    "name": "F#3",
                    "midi": 54,
                    "time": 230.625,
                    "velocity": 0.4881889763779528,
                    "duration": 0.625
                },
                {
                    "name": "D2",
                    "midi": 38,
                    "time": 231.25,
                    "velocity": 0.4881889763779528,
                    "duration": 0.625
                },
                {
                    "name": "A2",
                    "midi": 45,
                    "time": 231.25,
                    "velocity": 0.4881889763779528,
                    "duration": 0.625
                },
                {
                    "name": "B2",
                    "midi": 47,
                    "time": 231.875,
                    "velocity": 0.4881889763779528,
                    "duration": 0.625
                },
                {
                    "name": "F#3",
                    "midi": 54,
                    "time": 231.875,
                    "velocity": 0.4881889763779528,
                    "duration": 0.625
                },
                {
                    "name": "D2",
                    "midi": 38,
                    "time": 232.5,
                    "velocity": 0.4881889763779528,
                    "duration": 0.625
                },
                {
                    "name": "A2",
                    "midi": 45,
                    "time": 232.5,
                    "velocity": 0.4881889763779528,
                    "duration": 0.625
                },
                {
                    "name": "B2",
                    "midi": 47,
                    "time": 233.125,
                    "velocity": 0.4881889763779528,
                    "duration": 0.625
                },
                {
                    "name": "F#3",
                    "midi": 54,
                    "time": 233.125,
                    "velocity": 0.4881889763779528,
                    "duration": 0.625
                },
                {
                    "name": "D2",
                    "midi": 38,
                    "time": 233.75,
                    "velocity": 0.4881889763779528,
                    "duration": 0.625
                },
                {
                    "name": "A2",
                    "midi": 45,
                    "time": 233.75,
                    "velocity": 0.4881889763779528,
                    "duration": 0.625
                },
                {
                    "name": "B2",
                    "midi": 47,
                    "time": 234.375,
                    "velocity": 0.4881889763779528,
                    "duration": 0.625
                },
                {
                    "name": "F#3",
                    "midi": 54,
                    "time": 234.375,
                    "velocity": 0.4881889763779528,
                    "duration": 0.625
                },
                {
                    "name": "G2",
                    "midi": 43,
                    "time": 235,
                    "velocity": 0.4881889763779528,
                    "duration": 0.625
                },
                {
                    "name": "D3",
                    "midi": 50,
                    "time": 235,
                    "velocity": 0.4881889763779528,
                    "duration": 0.625
                },
                {
                    "name": "E3",
                    "midi": 52,
                    "time": 235.625,
                    "velocity": 0.4881889763779528,
                    "duration": 0.625
                },
                {
                    "name": "B3",
                    "midi": 59,
                    "time": 235.625,
                    "velocity": 0.4881889763779528,
                    "duration": 0.625
                },
                {
                    "name": "G2",
                    "midi": 43,
                    "time": 236.25,
                    "velocity": 0.4881889763779528,
                    "duration": 0.625
                },
                {
                    "name": "D3",
                    "midi": 50,
                    "time": 236.25,
                    "velocity": 0.4881889763779528,
                    "duration": 0.625
                },
                {
                    "name": "E3",
                    "midi": 52,
                    "time": 236.875,
                    "velocity": 0.4881889763779528,
                    "duration": 0.625
                },
                {
                    "name": "B3",
                    "midi": 59,
                    "time": 236.875,
                    "velocity": 0.4881889763779528,
                    "duration": 0.625
                },
                {
                    "name": "G2",
                    "midi": 43,
                    "time": 237.5,
                    "velocity": 0.4881889763779528,
                    "duration": 0.625
                },
                {
                    "name": "D3",
                    "midi": 50,
                    "time": 237.5,
                    "velocity": 0.4881889763779528,
                    "duration": 0.625
                },
                {
                    "name": "E3",
                    "midi": 52,
                    "time": 238.125,
                    "velocity": 0.4881889763779528,
                    "duration": 0.625
                },
                {
                    "name": "B3",
                    "midi": 59,
                    "time": 238.125,
                    "velocity": 0.4881889763779528,
                    "duration": 0.625
                },
                {
                    "name": "G2",
                    "midi": 43,
                    "time": 238.75,
                    "velocity": 0.4881889763779528,
                    "duration": 0.625
                },
                {
                    "name": "D3",
                    "midi": 50,
                    "time": 238.75,
                    "velocity": 0.4881889763779528,
                    "duration": 0.625
                },
                {
                    "name": "E3",
                    "midi": 52,
                    "time": 239.375,
                    "velocity": 0.4881889763779528,
                    "duration": 0.625
                },
                {
                    "name": "B3",
                    "midi": 59,
                    "time": 239.375,
                    "velocity": 0.4881889763779528,
                    "duration": 0.625
                },
                {
                    "name": "G2",
                    "midi": 43,
                    "time": 240,
                    "velocity": 0.4881889763779528,
                    "duration": 0.625
                },
                {
                    "name": "D3",
                    "midi": 50,
                    "time": 240,
                    "velocity": 0.4881889763779528,
                    "duration": 0.625
                },
                {
                    "name": "E3",
                    "midi": 52,
                    "time": 240.625,
                    "velocity": 0.4881889763779528,
                    "duration": 0.625
                },
                {
                    "name": "B3",
                    "midi": 59,
                    "time": 240.625,
                    "velocity": 0.4881889763779528,
                    "duration": 0.625
                },
                {
                    "name": "G2",
                    "midi": 43,
                    "time": 241.25,
                    "velocity": 0.4881889763779528,
                    "duration": 0.625
                },
                {
                    "name": "D3",
                    "midi": 50,
                    "time": 241.25,
                    "velocity": 0.4881889763779528,
                    "duration": 0.625
                },
                {
                    "name": "E3",
                    "midi": 52,
                    "time": 241.875,
                    "velocity": 0.4881889763779528,
                    "duration": 0.625
                },
                {
                    "name": "B3",
                    "midi": 59,
                    "time": 241.875,
                    "velocity": 0.4881889763779528,
                    "duration": 0.625
                },
                {
                    "name": "F#2",
                    "midi": 42,
                    "time": 242.5,
                    "velocity": 0.4881889763779528,
                    "duration": 0.625
                },
                {
                    "name": "C#3",
                    "midi": 49,
                    "time": 242.5,
                    "velocity": 0.4881889763779528,
                    "duration": 0.625
                },
                {
                    "name": "E3",
                    "midi": 52,
                    "time": 243.125,
                    "velocity": 0.4881889763779528,
                    "duration": 0.625
                },
                {
                    "name": "A3",
                    "midi": 57,
                    "time": 243.125,
                    "velocity": 0.4881889763779528,
                    "duration": 0.625
                },
                {
                    "name": "E2",
                    "midi": 40,
                    "time": 243.75,
                    "velocity": 0.4881889763779528,
                    "duration": 0.625
                },
                {
                    "name": "B2",
                    "midi": 47,
                    "time": 243.75,
                    "velocity": 0.4881889763779528,
                    "duration": 0.625
                },
                {
                    "name": "D3",
                    "midi": 50,
                    "time": 244.375,
                    "velocity": 0.4881889763779528,
                    "duration": 0.625
                },
                {
                    "name": "G#3",
                    "midi": 56,
                    "time": 244.375,
                    "velocity": 0.4881889763779528,
                    "duration": 0.625
                },
                {
                    "name": "A2",
                    "midi": 45,
                    "time": 245,
                    "velocity": 0.4881889763779528,
                    "duration": 0.625
                },
                {
                    "name": "E3",
                    "midi": 52,
                    "time": 245,
                    "velocity": 0.4881889763779528,
                    "duration": 0.625
                },
                {
                    "name": "G3",
                    "midi": 55,
                    "time": 245.625,
                    "velocity": 0.4881889763779528,
                    "duration": 0.625
                },
                {
                    "name": "C#4",
                    "midi": 61,
                    "time": 245.625,
                    "velocity": 0.4881889763779528,
                    "duration": 0.625
                },
                {
                    "name": "A2",
                    "midi": 45,
                    "time": 246.25,
                    "velocity": 0.4881889763779528,
                    "duration": 0.625
                },
                {
                    "name": "E3",
                    "midi": 52,
                    "time": 246.25,
                    "velocity": 0.4881889763779528,
                    "duration": 0.625
                },
                {
                    "name": "F3",
                    "midi": 53,
                    "time": 246.875,
                    "velocity": 0.4881889763779528,
                    "duration": 0.625
                },
                {
                    "name": "B3",
                    "midi": 59,
                    "time": 246.875,
                    "velocity": 0.4881889763779528,
                    "duration": 0.625
                },
                {
                    "name": "A2",
                    "midi": 45,
                    "time": 247.5,
                    "velocity": 0.4881889763779528,
                    "duration": 0.625
                },
                {
                    "name": "E3",
                    "midi": 52,
                    "time": 247.5,
                    "velocity": 0.4881889763779528,
                    "duration": 0.625
                },
                {
                    "name": "F#3",
                    "midi": 54,
                    "time": 248.125,
                    "velocity": 0.4881889763779528,
                    "duration": 0.625
                },
                {
                    "name": "C4",
                    "midi": 60,
                    "time": 248.125,
                    "velocity": 0.4881889763779528,
                    "duration": 0.625
                },
                {
                    "name": "A2",
                    "midi": 45,
                    "time": 248.75,
                    "velocity": 0.4881889763779528,
                    "duration": 0.625
                },
                {
                    "name": "E3",
                    "midi": 52,
                    "time": 248.75,
                    "velocity": 0.4881889763779528,
                    "duration": 0.625
                },
                {
                    "name": "G3",
                    "midi": 55,
                    "time": 249.375,
                    "velocity": 0.4881889763779528,
                    "duration": 0.3125
                },
                {
                    "name": "C#4",
                    "midi": 61,
                    "time": 249.375,
                    "velocity": 0.4881889763779528,
                    "duration": 0.3125
                },
                {
                    "name": "A2",
                    "midi": 45,
                    "time": 249.6875,
                    "velocity": 0.4881889763779528,
                    "duration": 0.3125
                },
                {
                    "name": "D3",
                    "midi": 50,
                    "time": 250,
                    "velocity": 0.5905511811023622,
                    "duration": 0.3125
                },
                {
                    "name": "F#2",
                    "midi": 42,
                    "time": 250.3125,
                    "velocity": 0.5905511811023622,
                    "duration": 0.3125
                },
                {
                    "name": "A2",
                    "midi": 45,
                    "time": 250.625,
                    "velocity": 0.5905511811023622,
                    "duration": 0.3125
                },
                {
                    "name": "D2",
                    "midi": 38,
                    "time": 250.9375,
                    "velocity": 0.5905511811023622,
                    "duration": 0.3125
                },
                {
                    "name": "F#2",
                    "midi": 42,
                    "time": 251.25,
                    "velocity": 0.5905511811023622,
                    "duration": 0.3125
                },
                {
                    "name": "A1",
                    "midi": 33,
                    "time": 251.5625,
                    "velocity": 0.5905511811023622,
                    "duration": 0.3125
                },
                {
                    "name": "B1",
                    "midi": 35,
                    "time": 251.875,
                    "velocity": 0.5905511811023622,
                    "duration": 0.3125
                },
                {
                    "name": "C2",
                    "midi": 36,
                    "time": 252.1875,
                    "velocity": 0.5905511811023622,
                    "duration": 0.625
                },
                {
                    "name": "D2",
                    "midi": 38,
                    "time": 252.8125,
                    "velocity": 0.5905511811023622,
                    "duration": 0.3125
                },
                {
                    "name": "E2",
                    "midi": 40,
                    "time": 253.125,
                    "velocity": 0.5905511811023622,
                    "duration": 0.3125
                },
                {
                    "name": "F#2",
                    "midi": 42,
                    "time": 253.4375,
                    "velocity": 0.5905511811023622,
                    "duration": 0.3125
                },
                {
                    "name": "G2",
                    "midi": 43,
                    "time": 253.75,
                    "velocity": 0.5905511811023622,
                    "duration": 0.3125
                },
                {
                    "name": "A2",
                    "midi": 45,
                    "time": 254.0625,
                    "velocity": 0.5905511811023622,
                    "duration": 0.3125
                },
                {
                    "name": "F#2",
                    "midi": 42,
                    "time": 254.375,
                    "velocity": 0.5905511811023622,
                    "duration": 0.3125
                },
                {
                    "name": "E2",
                    "midi": 40,
                    "time": 254.6875,
                    "velocity": 0.5905511811023622,
                    "duration": 0.3125
                },
                {
                    "name": "F#3",
                    "midi": 54,
                    "time": 255,
                    "velocity": 0.6929133858267716,
                    "duration": 0.9375
                },
                {
                    "name": "D#3",
                    "midi": 51,
                    "time": 255.9375,
                    "velocity": 0.6929133858267716,
                    "duration": 0.9375
                },
                {
                    "name": "C#3",
                    "midi": 49,
                    "time": 256.875,
                    "velocity": 0.6929133858267716,
                    "duration": 0.625
                },
                {
                    "name": "F#3",
                    "midi": 54,
                    "time": 257.5,
                    "velocity": 0.6929133858267716,
                    "duration": 0.9375
                },
                {
                    "name": "D#3",
                    "midi": 51,
                    "time": 258.4375,
                    "velocity": 0.6929133858267716,
                    "duration": 0.9375
                },
                {
                    "name": "C#3",
                    "midi": 49,
                    "time": 259.375,
                    "velocity": 0.6929133858267716,
                    "duration": 0.625
                },
                {
                    "name": "F#3",
                    "midi": 54,
                    "time": 260,
                    "velocity": 0.6929133858267716,
                    "duration": 0.9375
                },
                {
                    "name": "D#3",
                    "midi": 51,
                    "time": 260.9375,
                    "velocity": 0.6929133858267716,
                    "duration": 0.9375
                },
                {
                    "name": "C#3",
                    "midi": 49,
                    "time": 261.875,
                    "velocity": 0.6929133858267716,
                    "duration": 0.625
                },
                {
                    "name": "E3",
                    "midi": 52,
                    "time": 262.5,
                    "velocity": 0.6929133858267716,
                    "duration": 0.9375
                },
                {
                    "name": "F#3",
                    "midi": 54,
                    "time": 263.4375,
                    "velocity": 0.6929133858267716,
                    "duration": 0.9375
                },
                {
                    "name": "D3",
                    "midi": 50,
                    "time": 264.375,
                    "velocity": 0.6929133858267716,
                    "duration": 0.625
                },
                {
                    "name": "B3",
                    "midi": 59,
                    "time": 265,
                    "velocity": 0.6929133858267716,
                    "duration": 0.9375
                },
                {
                    "name": "G3",
                    "midi": 55,
                    "time": 265.9375,
                    "velocity": 0.6929133858267716,
                    "duration": 0.9375
                },
                {
                    "name": "F3",
                    "midi": 53,
                    "time": 266.875,
                    "velocity": 0.6929133858267716,
                    "duration": 0.625
                },
                {
                    "name": "B3",
                    "midi": 59,
                    "time": 267.5,
                    "velocity": 0.6929133858267716,
                    "duration": 0.9375
                },
                {
                    "name": "G3",
                    "midi": 55,
                    "time": 268.4375,
                    "velocity": 0.6929133858267716,
                    "duration": 0.9375
                },
                {
                    "name": "F3",
                    "midi": 53,
                    "time": 269.375,
                    "velocity": 0.6929133858267716,
                    "duration": 0.625
                },
                {
                    "name": "B3",
                    "midi": 59,
                    "time": 270,
                    "velocity": 0.6929133858267716,
                    "duration": 0.9375
                },
                {
                    "name": "G3",
                    "midi": 55,
                    "time": 270.9375,
                    "velocity": 0.6929133858267716,
                    "duration": 0.9375
                },
                {
                    "name": "F3",
                    "midi": 53,
                    "time": 271.875,
                    "velocity": 0.6929133858267716,
                    "duration": 0.625
                },
                {
                    "name": "F#2",
                    "midi": 42,
                    "time": 272.5,
                    "velocity": 0.4881889763779528,
                    "duration": 1.25
                },
                {
                    "name": "D3",
                    "midi": 50,
                    "time": 272.5,
                    "velocity": 0.4881889763779528,
                    "duration": 1.25
                },
                {
                    "name": "A3",
                    "midi": 57,
                    "time": 272.5,
                    "velocity": 0.4881889763779528,
                    "duration": 1.25
                },
                {
                    "name": "B2",
                    "midi": 47,
                    "time": 273.75,
                    "velocity": 0.4881889763779528,
                    "duration": 1.25
                },
                {
                    "name": "E3",
                    "midi": 52,
                    "time": 273.75,
                    "velocity": 0.4881889763779528,
                    "duration": 1.25
                },
                {
                    "name": "G#3",
                    "midi": 56,
                    "time": 273.75,
                    "velocity": 0.4881889763779528,
                    "duration": 1.25
                },
                {
                    "name": "C#4",
                    "midi": 61,
                    "time": 275,
                    "velocity": 0.6929133858267716,
                    "duration": 0.9375
                },
                {
                    "name": "A#3",
                    "midi": 58,
                    "time": 275.9375,
                    "velocity": 0.6929133858267716,
                    "duration": 0.9375
                },
                {
                    "name": "G#3",
                    "midi": 56,
                    "time": 276.875,
                    "velocity": 0.6929133858267716,
                    "duration": 0.625
                },
                {
                    "name": "A3",
                    "midi": 57,
                    "time": 277.5,
                    "velocity": 0.6929133858267716,
                    "duration": 0.3125
                },
                {
                    "name": "D4",
                    "midi": 62,
                    "time": 277.5,
                    "velocity": 0.6929133858267716,
                    "duration": 0.3125
                },
                {
                    "name": "E3",
                    "midi": 52,
                    "time": 278.125,
                    "velocity": 0.6929133858267716,
                    "duration": 0.3125
                },
                {
                    "name": "C#4",
                    "midi": 61,
                    "time": 278.125,
                    "velocity": 0.6929133858267716,
                    "duration": 0.3125
                },
                {
                    "name": "E3",
                    "midi": 52,
                    "time": 278.75,
                    "velocity": 0.6929133858267716,
                    "duration": 0.3125
                },
                {
                    "name": "C#4",
                    "midi": 61,
                    "time": 278.75,
                    "velocity": 0.6929133858267716,
                    "duration": 0.3125
                },
                {
                    "name": "A3",
                    "midi": 57,
                    "time": 279.375,
                    "velocity": 0.6929133858267716,
                    "duration": 0.3125
                },
                {
                    "name": "D4",
                    "midi": 62,
                    "time": 279.375,
                    "velocity": 0.6929133858267716,
                    "duration": 0.3125
                },
                {
                    "name": "B2",
                    "midi": 47,
                    "time": 280,
                    "velocity": 0.3858267716535433,
                    "duration": 0.625
                },
                {
                    "name": "F#3",
                    "midi": 54,
                    "time": 280,
                    "velocity": 0.3858267716535433,
                    "duration": 0.625
                },
                {
                    "name": "D4",
                    "midi": 62,
                    "time": 280.625,
                    "velocity": 0.3858267716535433,
                    "duration": 0.625
                },
                {
                    "name": "B2",
                    "midi": 47,
                    "time": 281.25,
                    "velocity": 0.3858267716535433,
                    "duration": 0.625
                },
                {
                    "name": "F#3",
                    "midi": 54,
                    "time": 281.25,
                    "velocity": 0.3858267716535433,
                    "duration": 0.625
                },
                {
                    "name": "D4",
                    "midi": 62,
                    "time": 281.875,
                    "velocity": 0.3858267716535433,
                    "duration": 0.625
                },
                {
                    "name": "B2",
                    "midi": 47,
                    "time": 282.5,
                    "velocity": 0.3858267716535433,
                    "duration": 0.625
                },
                {
                    "name": "G#3",
                    "midi": 56,
                    "time": 282.5,
                    "velocity": 0.3858267716535433,
                    "duration": 0.625
                },
                {
                    "name": "D4",
                    "midi": 62,
                    "time": 283.125,
                    "velocity": 0.3858267716535433,
                    "duration": 0.625
                },
                {
                    "name": "G2",
                    "midi": 43,
                    "time": 283.75,
                    "velocity": 0.3858267716535433,
                    "duration": 0.625
                },
                {
                    "name": "D3",
                    "midi": 50,
                    "time": 283.75,
                    "velocity": 0.3858267716535433,
                    "duration": 0.625
                },
                {
                    "name": "B3",
                    "midi": 59,
                    "time": 283.75,
                    "velocity": 0.3858267716535433,
                    "duration": 0.625
                },
                {
                    "name": "E2",
                    "midi": 40,
                    "time": 284.375,
                    "velocity": 0.3858267716535433,
                    "duration": 0.625
                },
                {
                    "name": "B2",
                    "midi": 47,
                    "time": 284.375,
                    "velocity": 0.3858267716535433,
                    "duration": 0.625
                },
                {
                    "name": "G#3",
                    "midi": 56,
                    "time": 284.375,
                    "velocity": 0.3858267716535433,
                    "duration": 0.625
                },
                {
                    "name": "D4",
                    "midi": 62,
                    "time": 284.375,
                    "velocity": 0.3858267716535433,
                    "duration": 0.625
                },
                {
                    "name": "A2",
                    "midi": 45,
                    "time": 285,
                    "velocity": 0.4881889763779528,
                    "duration": 1.25
                },
                {
                    "name": "E3",
                    "midi": 52,
                    "time": 285,
                    "velocity": 0.4881889763779528,
                    "duration": 1.25
                },
                {
                    "name": "A2",
                    "midi": 45,
                    "time": 286.25,
                    "velocity": 0.4881889763779528,
                    "duration": 1.25
                },
                {
                    "name": "F3",
                    "midi": 53,
                    "time": 286.25,
                    "velocity": 0.4881889763779528,
                    "duration": 1.25
                },
                {
                    "name": "A2",
                    "midi": 45,
                    "time": 287.5,
                    "velocity": 0.4881889763779528,
                    "duration": 1.25
                },
                {
                    "name": "F#3",
                    "midi": 54,
                    "time": 287.5,
                    "velocity": 0.4881889763779528,
                    "duration": 1.25
                },
                {
                    "name": "F2",
                    "midi": 41,
                    "time": 288.75,
                    "velocity": 0.4881889763779528,
                    "duration": 0.625
                },
                {
                    "name": "C3",
                    "midi": 48,
                    "time": 288.75,
                    "velocity": 0.4881889763779528,
                    "duration": 0.625
                },
                {
                    "name": "D2",
                    "midi": 38,
                    "time": 289.375,
                    "velocity": 0.4881889763779528,
                    "duration": 0.625
                },
                {
                    "name": "A2",
                    "midi": 45,
                    "time": 289.375,
                    "velocity": 0.4881889763779528,
                    "duration": 0.625
                },
                {
                    "name": "B3",
                    "midi": 59,
                    "time": 290,
                    "velocity": 0.6929133858267716,
                    "duration": 0.9375
                },
                {
                    "name": "G#3",
                    "midi": 56,
                    "time": 290.9375,
                    "velocity": 0.6929133858267716,
                    "duration": 0.9375
                },
                {
                    "name": "F#3",
                    "midi": 54,
                    "time": 291.875,
                    "velocity": 0.6929133858267716,
                    "duration": 0.625
                },
                {
                    "name": "B3",
                    "midi": 59,
                    "time": 292.5,
                    "velocity": 0.6929133858267716,
                    "duration": 0.9375
                },
                {
                    "name": "G#3",
                    "midi": 56,
                    "time": 293.4375,
                    "velocity": 0.6929133858267716,
                    "duration": 0.9375
                },
                {
                    "name": "F#3",
                    "midi": 54,
                    "time": 294.375,
                    "velocity": 0.6929133858267716,
                    "duration": 0.625
                },
                {
                    "name": "B3",
                    "midi": 59,
                    "time": 295,
                    "velocity": 0.6929133858267716,
                    "duration": 0.9375
                },
                {
                    "name": "G#3",
                    "midi": 56,
                    "time": 295.9375,
                    "velocity": 0.6929133858267716,
                    "duration": 0.9375
                },
                {
                    "name": "F#3",
                    "midi": 54,
                    "time": 296.875,
                    "velocity": 0.6929133858267716,
                    "duration": 0.625
                },
                {
                    "name": "B3",
                    "midi": 59,
                    "time": 297.5,
                    "velocity": 0.6929133858267716,
                    "duration": 0.9375
                },
                {
                    "name": "G#3",
                    "midi": 56,
                    "time": 298.4375,
                    "velocity": 0.6929133858267716,
                    "duration": 0.9375
                },
                {
                    "name": "F#3",
                    "midi": 54,
                    "time": 299.375,
                    "velocity": 0.6929133858267716,
                    "duration": 0.625
                },
                {
                    "name": "G2",
                    "midi": 43,
                    "time": 300,
                    "velocity": 0.4881889763779528,
                    "duration": 0.3125
                },
                {
                    "name": "D3",
                    "midi": 50,
                    "time": 300,
                    "velocity": 0.4881889763779528,
                    "duration": 0.3125
                },
                {
                    "name": "B3",
                    "midi": 59,
                    "time": 300,
                    "velocity": 0.4881889763779528,
                    "duration": 0.3125
                },
                {
                    "name": "B3",
                    "midi": 59,
                    "time": 301.25,
                    "velocity": 0.5905511811023622,
                    "duration": 0.3125
                },
                {
                    "name": "D3",
                    "midi": 50,
                    "time": 301.5625,
                    "velocity": 0.5905511811023622,
                    "duration": 0.3125
                },
                {
                    "name": "E3",
                    "midi": 52,
                    "time": 301.875,
                    "velocity": 0.5905511811023622,
                    "duration": 0.3125
                },
                {
                    "name": "F3",
                    "midi": 53,
                    "time": 302.1875,
                    "velocity": 0.5905511811023622,
                    "duration": 0.3125
                },
                {
                    "name": "G3",
                    "midi": 55,
                    "time": 302.1875,
                    "velocity": 0.5905511811023622,
                    "duration": 0.3125
                },
                {
                    "name": "B3",
                    "midi": 59,
                    "time": 302.5,
                    "velocity": 0.5905511811023622,
                    "duration": 0.3125
                },
                {
                    "name": "D3",
                    "midi": 50,
                    "time": 302.8125,
                    "velocity": 0.5905511811023622,
                    "duration": 0.3125
                },
                {
                    "name": "F3",
                    "midi": 53,
                    "time": 303.125,
                    "velocity": 0.5905511811023622,
                    "duration": 0.3125
                },
                {
                    "name": "B2",
                    "midi": 47,
                    "time": 303.4375,
                    "velocity": 0.5905511811023622,
                    "duration": 0.3125
                },
                {
                    "name": "D3",
                    "midi": 50,
                    "time": 303.75,
                    "velocity": 0.5905511811023622,
                    "duration": 0.3125
                },
                {
                    "name": "F2",
                    "midi": 41,
                    "time": 304.0625,
                    "velocity": 0.5905511811023622,
                    "duration": 0.3125
                },
                {
                    "name": "G2",
                    "midi": 43,
                    "time": 304.375,
                    "velocity": 0.5905511811023622,
                    "duration": 0.3125
                },
                {
                    "name": "G#2",
                    "midi": 44,
                    "time": 304.6875,
                    "velocity": 0.5905511811023622,
                    "duration": 0.3125
                },
                {
                    "name": "A#2",
                    "midi": 46,
                    "time": 304.6875,
                    "velocity": 0.5905511811023622,
                    "duration": 0.3125
                },
                {
                    "name": "G3",
                    "midi": 55,
                    "time": 305,
                    "velocity": 0.5905511811023622,
                    "duration": 0.3125
                },
                {
                    "name": "B2",
                    "midi": 47,
                    "time": 305.3125,
                    "velocity": 0.5905511811023622,
                    "duration": 0.3125
                },
                {
                    "name": "D3",
                    "midi": 50,
                    "time": 305.625,
                    "velocity": 0.5905511811023622,
                    "duration": 0.3125
                },
                {
                    "name": "G2",
                    "midi": 43,
                    "time": 305.9375,
                    "velocity": 0.5905511811023622,
                    "duration": 0.3125
                },
                {
                    "name": "B2",
                    "midi": 47,
                    "time": 306.25,
                    "velocity": 0.5905511811023622,
                    "duration": 0.3125
                },
                {
                    "name": "D2",
                    "midi": 38,
                    "time": 306.5625,
                    "velocity": 0.5905511811023622,
                    "duration": 0.3125
                },
                {
                    "name": "E2",
                    "midi": 40,
                    "time": 306.875,
                    "velocity": 0.5905511811023622,
                    "duration": 0.3125
                },
                {
                    "name": "F2",
                    "midi": 41,
                    "time": 307.1875,
                    "velocity": 0.5905511811023622,
                    "duration": 0.3125
                },
                {
                    "name": "F#2",
                    "midi": 42,
                    "time": 307.5,
                    "velocity": 0.5905511811023622,
                    "duration": 0.3125
                },
                {
                    "name": "G2",
                    "midi": 43,
                    "time": 307.8125,
                    "velocity": 0.5905511811023622,
                    "duration": 0.3125
                },
                {
                    "name": "G#2",
                    "midi": 44,
                    "time": 308.125,
                    "velocity": 0.5905511811023622,
                    "duration": 0.3125
                },
                {
                    "name": "A2",
                    "midi": 45,
                    "time": 308.4375,
                    "velocity": 0.5905511811023622,
                    "duration": 0.3125
                },
                {
                    "name": "A#2",
                    "midi": 46,
                    "time": 308.75,
                    "velocity": 0.5905511811023622,
                    "duration": 0.3125
                },
                {
                    "name": "B2",
                    "midi": 47,
                    "time": 309.0625,
                    "velocity": 0.5905511811023622,
                    "duration": 0.3125
                },
                {
                    "name": "C3",
                    "midi": 48,
                    "time": 309.375,
                    "velocity": 0.5905511811023622,
                    "duration": 0.3125
                },
                {
                    "name": "C#3",
                    "midi": 49,
                    "time": 309.6875,
                    "velocity": 0.5905511811023622,
                    "duration": 0.3125
                },
                {
                    "name": "A2",
                    "midi": 45,
                    "time": 310,
                    "velocity": 0.4881889763779528,
                    "duration": 0.625
                },
                {
                    "name": "D3",
                    "midi": 50,
                    "time": 310,
                    "velocity": 0.4881889763779528,
                    "duration": 0.625
                },
                {
                    "name": "D2",
                    "midi": 38,
                    "time": 310.625,
                    "velocity": 0.4881889763779528,
                    "duration": 0.625
                },
                {
                    "name": "A2",
                    "midi": 45,
                    "time": 310.625,
                    "velocity": 0.4881889763779528,
                    "duration": 0.625
                },
                {
                    "name": "A2",
                    "midi": 45,
                    "time": 311.25,
                    "velocity": 0.4881889763779528,
                    "duration": 0.625
                },
                {
                    "name": "D3",
                    "midi": 50,
                    "time": 311.25,
                    "velocity": 0.4881889763779528,
                    "duration": 0.625
                },
                {
                    "name": "D2",
                    "midi": 38,
                    "time": 311.875,
                    "velocity": 0.4881889763779528,
                    "duration": 0.625
                },
                {
                    "name": "A2",
                    "midi": 45,
                    "time": 311.875,
                    "velocity": 0.4881889763779528,
                    "duration": 0.625
                },
                {
                    "name": "A2",
                    "midi": 45,
                    "time": 312.5,
                    "velocity": 0.4881889763779528,
                    "duration": 0.625
                },
                {
                    "name": "D3",
                    "midi": 50,
                    "time": 312.5,
                    "velocity": 0.4881889763779528,
                    "duration": 0.625
                },
                {
                    "name": "D2",
                    "midi": 38,
                    "time": 313.125,
                    "velocity": 0.4881889763779528,
                    "duration": 0.625
                },
                {
                    "name": "A2",
                    "midi": 45,
                    "time": 313.125,
                    "velocity": 0.4881889763779528,
                    "duration": 0.625
                },
                {
                    "name": "A2",
                    "midi": 45,
                    "time": 313.75,
                    "velocity": 0.4881889763779528,
                    "duration": 0.625
                },
                {
                    "name": "D3",
                    "midi": 50,
                    "time": 313.75,
                    "velocity": 0.4881889763779528,
                    "duration": 0.625
                },
                {
                    "name": "D2",
                    "midi": 38,
                    "time": 314.375,
                    "velocity": 0.4881889763779528,
                    "duration": 0.625
                },
                {
                    "name": "A2",
                    "midi": 45,
                    "time": 314.375,
                    "velocity": 0.4881889763779528,
                    "duration": 0.625
                },
                {
                    "name": "A2",
                    "midi": 45,
                    "time": 315,
                    "velocity": 0.4881889763779528,
                    "duration": 0.625
                },
                {
                    "name": "D3",
                    "midi": 50,
                    "time": 315,
                    "velocity": 0.4881889763779528,
                    "duration": 0.625
                },
                {
                    "name": "A2",
                    "midi": 45,
                    "time": 315.625,
                    "velocity": 0.4881889763779528,
                    "duration": 0.625
                },
                {
                    "name": "D3",
                    "midi": 50,
                    "time": 315.625,
                    "velocity": 0.4881889763779528,
                    "duration": 0.625
                },
                {
                    "name": "D2",
                    "midi": 38,
                    "time": 316.25,
                    "velocity": 0.4881889763779528,
                    "duration": 0.625
                },
                {
                    "name": "A2",
                    "midi": 45,
                    "time": 316.25,
                    "velocity": 0.4881889763779528,
                    "duration": 0.625
                },
                {
                    "name": "A2",
                    "midi": 45,
                    "time": 316.875,
                    "velocity": 0.4881889763779528,
                    "duration": 0.625
                },
                {
                    "name": "D3",
                    "midi": 50,
                    "time": 316.875,
                    "velocity": 0.4881889763779528,
                    "duration": 0.625
                },
                {
                    "name": "A2",
                    "midi": 45,
                    "time": 317.5,
                    "velocity": 0.4881889763779528,
                    "duration": 0.625
                },
                {
                    "name": "D3",
                    "midi": 50,
                    "time": 317.5,
                    "velocity": 0.4881889763779528,
                    "duration": 0.625
                },
                {
                    "name": "D2",
                    "midi": 38,
                    "time": 318.125,
                    "velocity": 0.4881889763779528,
                    "duration": 0.625
                },
                {
                    "name": "A2",
                    "midi": 45,
                    "time": 318.125,
                    "velocity": 0.4881889763779528,
                    "duration": 0.625
                },
                {
                    "name": "A2",
                    "midi": 45,
                    "time": 318.75,
                    "velocity": 0.4881889763779528,
                    "duration": 0.625
                },
                {
                    "name": "D3",
                    "midi": 50,
                    "time": 318.75,
                    "velocity": 0.4881889763779528,
                    "duration": 0.625
                },
                {
                    "name": "D2",
                    "midi": 38,
                    "time": 319.375,
                    "velocity": 0.4881889763779528,
                    "duration": 0.625
                },
                {
                    "name": "A2",
                    "midi": 45,
                    "time": 319.375,
                    "velocity": 0.4881889763779528,
                    "duration": 0.625
                },
                {
                    "name": "A2",
                    "midi": 45,
                    "time": 320,
                    "velocity": 0.4881889763779528,
                    "duration": 0.625
                },
                {
                    "name": "D3",
                    "midi": 50,
                    "time": 320,
                    "velocity": 0.4881889763779528,
                    "duration": 0.625
                },
                {
                    "name": "D2",
                    "midi": 38,
                    "time": 320.625,
                    "velocity": 0.4881889763779528,
                    "duration": 0.625
                },
                {
                    "name": "A2",
                    "midi": 45,
                    "time": 320.625,
                    "velocity": 0.4881889763779528,
                    "duration": 0.625
                },
                {
                    "name": "A2",
                    "midi": 45,
                    "time": 321.25,
                    "velocity": 0.4881889763779528,
                    "duration": 0.625
                },
                {
                    "name": "D3",
                    "midi": 50,
                    "time": 321.25,
                    "velocity": 0.4881889763779528,
                    "duration": 0.625
                },
                {
                    "name": "D2",
                    "midi": 38,
                    "time": 321.875,
                    "velocity": 0.4881889763779528,
                    "duration": 0.625
                },
                {
                    "name": "A2",
                    "midi": 45,
                    "time": 321.875,
                    "velocity": 0.4881889763779528,
                    "duration": 0.625
                },
                {
                    "name": "A2",
                    "midi": 45,
                    "time": 322.5,
                    "velocity": 0.4881889763779528,
                    "duration": 0.625
                },
                {
                    "name": "D3",
                    "midi": 50,
                    "time": 322.5,
                    "velocity": 0.4881889763779528,
                    "duration": 0.625
                },
                {
                    "name": "D2",
                    "midi": 38,
                    "time": 323.125,
                    "velocity": 0.4881889763779528,
                    "duration": 0.625
                },
                {
                    "name": "A2",
                    "midi": 45,
                    "time": 323.125,
                    "velocity": 0.4881889763779528,
                    "duration": 0.625
                },
                {
                    "name": "A2",
                    "midi": 45,
                    "time": 323.75,
                    "velocity": 0.4881889763779528,
                    "duration": 0.625
                },
                {
                    "name": "D3",
                    "midi": 50,
                    "time": 323.75,
                    "velocity": 0.4881889763779528,
                    "duration": 0.625
                },
                {
                    "name": "D2",
                    "midi": 38,
                    "time": 324.375,
                    "velocity": 0.4881889763779528,
                    "duration": 0.625
                },
                {
                    "name": "A2",
                    "midi": 45,
                    "time": 324.375,
                    "velocity": 0.4881889763779528,
                    "duration": 0.625
                },
                {
                    "name": "A2",
                    "midi": 45,
                    "time": 325,
                    "velocity": 0.4881889763779528,
                    "duration": 0.625
                },
                {
                    "name": "D3",
                    "midi": 50,
                    "time": 325,
                    "velocity": 0.4881889763779528,
                    "duration": 0.625
                },
                {
                    "name": "A2",
                    "midi": 45,
                    "time": 325.625,
                    "velocity": 0.4881889763779528,
                    "duration": 0.625
                },
                {
                    "name": "D3",
                    "midi": 50,
                    "time": 325.625,
                    "velocity": 0.4881889763779528,
                    "duration": 0.625
                },
                {
                    "name": "D2",
                    "midi": 38,
                    "time": 326.25,
                    "velocity": 0.4881889763779528,
                    "duration": 0.625
                },
                {
                    "name": "A2",
                    "midi": 45,
                    "time": 326.25,
                    "velocity": 0.4881889763779528,
                    "duration": 0.625
                },
                {
                    "name": "A2",
                    "midi": 45,
                    "time": 326.875,
                    "velocity": 0.4881889763779528,
                    "duration": 0.625
                },
                {
                    "name": "D3",
                    "midi": 50,
                    "time": 326.875,
                    "velocity": 0.4881889763779528,
                    "duration": 0.625
                },
                {
                    "name": "A2",
                    "midi": 45,
                    "time": 327.5,
                    "velocity": 0.4881889763779528,
                    "duration": 0.625
                },
                {
                    "name": "D3",
                    "midi": 50,
                    "time": 327.5,
                    "velocity": 0.4881889763779528,
                    "duration": 0.625
                },
                {
                    "name": "D2",
                    "midi": 38,
                    "time": 328.125,
                    "velocity": 0.4881889763779528,
                    "duration": 0.625
                },
                {
                    "name": "A2",
                    "midi": 45,
                    "time": 328.125,
                    "velocity": 0.4881889763779528,
                    "duration": 0.625
                },
                {
                    "name": "A2",
                    "midi": 45,
                    "time": 328.75,
                    "velocity": 0.4881889763779528,
                    "duration": 0.625
                },
                {
                    "name": "D3",
                    "midi": 50,
                    "time": 328.75,
                    "velocity": 0.4881889763779528,
                    "duration": 0.625
                },
                {
                    "name": "D2",
                    "midi": 38,
                    "time": 329.375,
                    "velocity": 0.4881889763779528,
                    "duration": 0.625
                },
                {
                    "name": "A2",
                    "midi": 45,
                    "time": 329.375,
                    "velocity": 0.4881889763779528,
                    "duration": 0.625
                },
                {
                    "name": "G2",
                    "midi": 43,
                    "time": 330,
                    "velocity": 0.4881889763779528,
                    "duration": 0.625
                },
                {
                    "name": "D3",
                    "midi": 50,
                    "time": 330,
                    "velocity": 0.4881889763779528,
                    "duration": 0.625
                },
                {
                    "name": "D2",
                    "midi": 38,
                    "time": 330.625,
                    "velocity": 0.4881889763779528,
                    "duration": 0.625
                },
                {
                    "name": "A2",
                    "midi": 45,
                    "time": 330.625,
                    "velocity": 0.4881889763779528,
                    "duration": 0.625
                },
                {
                    "name": "G2",
                    "midi": 43,
                    "time": 331.25,
                    "velocity": 0.4881889763779528,
                    "duration": 0.625
                },
                {
                    "name": "D3",
                    "midi": 50,
                    "time": 331.25,
                    "velocity": 0.4881889763779528,
                    "duration": 0.625
                },
                {
                    "name": "D2",
                    "midi": 38,
                    "time": 331.875,
                    "velocity": 0.4881889763779528,
                    "duration": 0.625
                },
                {
                    "name": "A2",
                    "midi": 45,
                    "time": 331.875,
                    "velocity": 0.4881889763779528,
                    "duration": 0.625
                },
                {
                    "name": "G2",
                    "midi": 43,
                    "time": 332.5,
                    "velocity": 0.4881889763779528,
                    "duration": 0.625
                },
                {
                    "name": "D3",
                    "midi": 50,
                    "time": 332.5,
                    "velocity": 0.4881889763779528,
                    "duration": 0.625
                },
                {
                    "name": "D2",
                    "midi": 38,
                    "time": 333.125,
                    "velocity": 0.4881889763779528,
                    "duration": 0.625
                },
                {
                    "name": "A2",
                    "midi": 45,
                    "time": 333.125,
                    "velocity": 0.4881889763779528,
                    "duration": 0.625
                },
                {
                    "name": "G2",
                    "midi": 43,
                    "time": 333.75,
                    "velocity": 0.4881889763779528,
                    "duration": 0.625
                },
                {
                    "name": "D3",
                    "midi": 50,
                    "time": 333.75,
                    "velocity": 0.4881889763779528,
                    "duration": 0.625
                },
                {
                    "name": "D2",
                    "midi": 38,
                    "time": 334.375,
                    "velocity": 0.4881889763779528,
                    "duration": 0.625
                },
                {
                    "name": "A2",
                    "midi": 45,
                    "time": 334.375,
                    "velocity": 0.4881889763779528,
                    "duration": 0.625
                },
                {
                    "name": "A2",
                    "midi": 45,
                    "time": 335,
                    "velocity": 0.4881889763779528,
                    "duration": 0.625
                },
                {
                    "name": "D3",
                    "midi": 50,
                    "time": 335,
                    "velocity": 0.4881889763779528,
                    "duration": 0.625
                },
                {
                    "name": "D2",
                    "midi": 38,
                    "time": 335.625,
                    "velocity": 0.4881889763779528,
                    "duration": 0.625
                },
                {
                    "name": "A2",
                    "midi": 45,
                    "time": 335.625,
                    "velocity": 0.4881889763779528,
                    "duration": 0.625
                },
                {
                    "name": "A2",
                    "midi": 45,
                    "time": 336.25,
                    "velocity": 0.4881889763779528,
                    "duration": 0.625
                },
                {
                    "name": "D3",
                    "midi": 50,
                    "time": 336.25,
                    "velocity": 0.4881889763779528,
                    "duration": 0.625
                },
                {
                    "name": "D2",
                    "midi": 38,
                    "time": 336.875,
                    "velocity": 0.4881889763779528,
                    "duration": 0.625
                },
                {
                    "name": "A2",
                    "midi": 45,
                    "time": 336.875,
                    "velocity": 0.4881889763779528,
                    "duration": 0.625
                },
                {
                    "name": "A2",
                    "midi": 45,
                    "time": 337.5,
                    "velocity": 0.4881889763779528,
                    "duration": 0.625
                },
                {
                    "name": "D3",
                    "midi": 50,
                    "time": 337.5,
                    "velocity": 0.4881889763779528,
                    "duration": 0.625
                },
                {
                    "name": "D2",
                    "midi": 38,
                    "time": 338.125,
                    "velocity": 0.4881889763779528,
                    "duration": 0.625
                },
                {
                    "name": "A2",
                    "midi": 45,
                    "time": 338.125,
                    "velocity": 0.4881889763779528,
                    "duration": 0.625
                },
                {
                    "name": "A2",
                    "midi": 45,
                    "time": 338.75,
                    "velocity": 0.4881889763779528,
                    "duration": 0.625
                },
                {
                    "name": "D3",
                    "midi": 50,
                    "time": 338.75,
                    "velocity": 0.4881889763779528,
                    "duration": 0.625
                },
                {
                    "name": "D2",
                    "midi": 38,
                    "time": 339.375,
                    "velocity": 0.4881889763779528,
                    "duration": 0.625
                },
                {
                    "name": "A2",
                    "midi": 45,
                    "time": 339.375,
                    "velocity": 0.4881889763779528,
                    "duration": 0.625
                },
                {
                    "name": "G2",
                    "midi": 43,
                    "time": 340,
                    "velocity": 0.4881889763779528,
                    "duration": 0.625
                },
                {
                    "name": "D3",
                    "midi": 50,
                    "time": 340,
                    "velocity": 0.4881889763779528,
                    "duration": 0.625
                },
                {
                    "name": "D2",
                    "midi": 38,
                    "time": 340.625,
                    "velocity": 0.4881889763779528,
                    "duration": 0.625
                },
                {
                    "name": "G2",
                    "midi": 43,
                    "time": 340.625,
                    "velocity": 0.4881889763779528,
                    "duration": 0.625
                },
                {
                    "name": "G2",
                    "midi": 43,
                    "time": 341.25,
                    "velocity": 0.4881889763779528,
                    "duration": 0.625
                },
                {
                    "name": "D3",
                    "midi": 50,
                    "time": 341.25,
                    "velocity": 0.4881889763779528,
                    "duration": 0.625
                },
                {
                    "name": "D2",
                    "midi": 38,
                    "time": 341.875,
                    "velocity": 0.4881889763779528,
                    "duration": 0.625
                },
                {
                    "name": "G2",
                    "midi": 43,
                    "time": 341.875,
                    "velocity": 0.4881889763779528,
                    "duration": 0.625
                },
                {
                    "name": "G2",
                    "midi": 43,
                    "time": 342.5,
                    "velocity": 0.4881889763779528,
                    "duration": 0.625
                },
                {
                    "name": "D3",
                    "midi": 50,
                    "time": 342.5,
                    "velocity": 0.4881889763779528,
                    "duration": 0.625
                },
                {
                    "name": "D2",
                    "midi": 38,
                    "time": 343.125,
                    "velocity": 0.4881889763779528,
                    "duration": 0.625
                },
                {
                    "name": "G2",
                    "midi": 43,
                    "time": 343.125,
                    "velocity": 0.4881889763779528,
                    "duration": 0.625
                },
                {
                    "name": "G2",
                    "midi": 43,
                    "time": 343.75,
                    "velocity": 0.4881889763779528,
                    "duration": 0.625
                },
                {
                    "name": "D3",
                    "midi": 50,
                    "time": 343.75,
                    "velocity": 0.4881889763779528,
                    "duration": 0.625
                },
                {
                    "name": "D2",
                    "midi": 38,
                    "time": 344.375,
                    "velocity": 0.4881889763779528,
                    "duration": 0.625
                },
                {
                    "name": "G2",
                    "midi": 43,
                    "time": 344.375,
                    "velocity": 0.4881889763779528,
                    "duration": 0.625
                },
                {
                    "name": "A2",
                    "midi": 45,
                    "time": 345,
                    "velocity": 0.4881889763779528,
                    "duration": 0.625
                },
                {
                    "name": "D3",
                    "midi": 50,
                    "time": 345,
                    "velocity": 0.4881889763779528,
                    "duration": 0.625
                },
                {
                    "name": "D2",
                    "midi": 38,
                    "time": 345.625,
                    "velocity": 0.4881889763779528,
                    "duration": 0.625
                },
                {
                    "name": "A2",
                    "midi": 45,
                    "time": 345.625,
                    "velocity": 0.4881889763779528,
                    "duration": 0.625
                },
                {
                    "name": "A2",
                    "midi": 45,
                    "time": 346.25,
                    "velocity": 0.4881889763779528,
                    "duration": 0.625
                },
                {
                    "name": "D3",
                    "midi": 50,
                    "time": 346.25,
                    "velocity": 0.4881889763779528,
                    "duration": 0.625
                },
                {
                    "name": "D2",
                    "midi": 38,
                    "time": 346.875,
                    "velocity": 0.4881889763779528,
                    "duration": 0.625
                },
                {
                    "name": "A2",
                    "midi": 45,
                    "time": 346.875,
                    "velocity": 0.4881889763779528,
                    "duration": 0.625
                },
                {
                    "name": "A#2",
                    "midi": 46,
                    "time": 347.5,
                    "velocity": 0.4881889763779528,
                    "duration": 0.625
                },
                {
                    "name": "D#3",
                    "midi": 51,
                    "time": 347.5,
                    "velocity": 0.4881889763779528,
                    "duration": 0.625
                },
                {
                    "name": "D#2",
                    "midi": 39,
                    "time": 348.125,
                    "velocity": 0.4881889763779528,
                    "duration": 0.625
                },
                {
                    "name": "A#2",
                    "midi": 46,
                    "time": 348.125,
                    "velocity": 0.4881889763779528,
                    "duration": 0.625
                },
                {
                    "name": "A#2",
                    "midi": 46,
                    "time": 348.75,
                    "velocity": 0.4881889763779528,
                    "duration": 0.625
                },
                {
                    "name": "D#3",
                    "midi": 51,
                    "time": 348.75,
                    "velocity": 0.4881889763779528,
                    "duration": 0.625
                },
                {
                    "name": "D#2",
                    "midi": 39,
                    "time": 349.375,
                    "velocity": 0.4881889763779528,
                    "duration": 0.625
                },
                {
                    "name": "A#2",
                    "midi": 46,
                    "time": 349.375,
                    "velocity": 0.4881889763779528,
                    "duration": 0.625
                },
                {
                    "name": "A#2",
                    "midi": 46,
                    "time": 350,
                    "velocity": 0.4881889763779528,
                    "duration": 0.625
                },
                {
                    "name": "D#3",
                    "midi": 51,
                    "time": 350,
                    "velocity": 0.4881889763779528,
                    "duration": 0.625
                },
                {
                    "name": "D#2",
                    "midi": 39,
                    "time": 350.625,
                    "velocity": 0.4881889763779528,
                    "duration": 0.625
                },
                {
                    "name": "A#2",
                    "midi": 46,
                    "time": 350.625,
                    "velocity": 0.4881889763779528,
                    "duration": 0.625
                },
                {
                    "name": "A#2",
                    "midi": 46,
                    "time": 351.25,
                    "velocity": 0.4881889763779528,
                    "duration": 0.625
                },
                {
                    "name": "D#3",
                    "midi": 51,
                    "time": 351.25,
                    "velocity": 0.4881889763779528,
                    "duration": 0.625
                },
                {
                    "name": "D#2",
                    "midi": 39,
                    "time": 351.875,
                    "velocity": 0.4881889763779528,
                    "duration": 0.625
                },
                {
                    "name": "A#2",
                    "midi": 46,
                    "time": 351.875,
                    "velocity": 0.4881889763779528,
                    "duration": 0.625
                },
                {
                    "name": "A#2",
                    "midi": 46,
                    "time": 352.5,
                    "velocity": 0.4881889763779528,
                    "duration": 0.625
                },
                {
                    "name": "D#3",
                    "midi": 51,
                    "time": 352.5,
                    "velocity": 0.4881889763779528,
                    "duration": 0.625
                },
                {
                    "name": "A#2",
                    "midi": 46,
                    "time": 353.125,
                    "velocity": 0.4881889763779528,
                    "duration": 0.625
                },
                {
                    "name": "D#3",
                    "midi": 51,
                    "time": 353.125,
                    "velocity": 0.4881889763779528,
                    "duration": 0.625
                },
                {
                    "name": "D#2",
                    "midi": 39,
                    "time": 353.75,
                    "velocity": 0.4881889763779528,
                    "duration": 0.625
                },
                {
                    "name": "A#2",
                    "midi": 46,
                    "time": 353.75,
                    "velocity": 0.4881889763779528,
                    "duration": 0.625
                },
                {
                    "name": "A#2",
                    "midi": 46,
                    "time": 354.375,
                    "velocity": 0.4881889763779528,
                    "duration": 0.625
                },
                {
                    "name": "D#3",
                    "midi": 51,
                    "time": 354.375,
                    "velocity": 0.4881889763779528,
                    "duration": 0.625
                },
                {
                    "name": "A#2",
                    "midi": 46,
                    "time": 355,
                    "velocity": 0.4881889763779528,
                    "duration": 0.625
                },
                {
                    "name": "D#3",
                    "midi": 51,
                    "time": 355,
                    "velocity": 0.4881889763779528,
                    "duration": 0.625
                },
                {
                    "name": "D#2",
                    "midi": 39,
                    "time": 355.625,
                    "velocity": 0.4881889763779528,
                    "duration": 0.625
                },
                {
                    "name": "A#2",
                    "midi": 46,
                    "time": 355.625,
                    "velocity": 0.4881889763779528,
                    "duration": 0.625
                },
                {
                    "name": "A#2",
                    "midi": 46,
                    "time": 356.25,
                    "velocity": 0.4881889763779528,
                    "duration": 0.625
                },
                {
                    "name": "D#3",
                    "midi": 51,
                    "time": 356.25,
                    "velocity": 0.4881889763779528,
                    "duration": 0.625
                },
                {
                    "name": "D#2",
                    "midi": 39,
                    "time": 356.875,
                    "velocity": 0.4881889763779528,
                    "duration": 0.625
                },
                {
                    "name": "A#2",
                    "midi": 46,
                    "time": 356.875,
                    "velocity": 0.4881889763779528,
                    "duration": 0.625
                },
                {
                    "name": "A#2",
                    "midi": 46,
                    "time": 357.5,
                    "velocity": 0.4881889763779528,
                    "duration": 0.625
                },
                {
                    "name": "D#3",
                    "midi": 51,
                    "time": 357.5,
                    "velocity": 0.4881889763779528,
                    "duration": 0.625
                },
                {
                    "name": "D#2",
                    "midi": 39,
                    "time": 358.125,
                    "velocity": 0.4881889763779528,
                    "duration": 0.625
                },
                {
                    "name": "A#2",
                    "midi": 46,
                    "time": 358.125,
                    "velocity": 0.4881889763779528,
                    "duration": 0.625
                },
                {
                    "name": "A#2",
                    "midi": 46,
                    "time": 358.75,
                    "velocity": 0.4881889763779528,
                    "duration": 0.625
                },
                {
                    "name": "D#3",
                    "midi": 51,
                    "time": 358.75,
                    "velocity": 0.4881889763779528,
                    "duration": 0.625
                },
                {
                    "name": "D#2",
                    "midi": 39,
                    "time": 359.375,
                    "velocity": 0.4881889763779528,
                    "duration": 0.625
                },
                {
                    "name": "A#2",
                    "midi": 46,
                    "time": 359.375,
                    "velocity": 0.4881889763779528,
                    "duration": 0.625
                },
                {
                    "name": "A#2",
                    "midi": 46,
                    "time": 360,
                    "velocity": 0.4881889763779528,
                    "duration": 0.625
                },
                {
                    "name": "D#3",
                    "midi": 51,
                    "time": 360,
                    "velocity": 0.4881889763779528,
                    "duration": 0.625
                },
                {
                    "name": "D#2",
                    "midi": 39,
                    "time": 360.625,
                    "velocity": 0.4881889763779528,
                    "duration": 0.625
                },
                {
                    "name": "A#2",
                    "midi": 46,
                    "time": 360.625,
                    "velocity": 0.4881889763779528,
                    "duration": 0.625
                },
                {
                    "name": "A#2",
                    "midi": 46,
                    "time": 361.25,
                    "velocity": 0.4881889763779528,
                    "duration": 0.625
                },
                {
                    "name": "D#3",
                    "midi": 51,
                    "time": 361.25,
                    "velocity": 0.4881889763779528,
                    "duration": 0.625
                },
                {
                    "name": "D#2",
                    "midi": 39,
                    "time": 361.875,
                    "velocity": 0.4881889763779528,
                    "duration": 0.625
                },
                {
                    "name": "A#2",
                    "midi": 46,
                    "time": 361.875,
                    "velocity": 0.4881889763779528,
                    "duration": 0.625
                },
                {
                    "name": "E2",
                    "midi": 40,
                    "time": 362.5,
                    "velocity": 0.5905511811023622,
                    "duration": 0.625
                },
                {
                    "name": "A2",
                    "midi": 45,
                    "time": 362.5,
                    "velocity": 0.5905511811023622,
                    "duration": 0.625
                },
                {
                    "name": "A1",
                    "midi": 33,
                    "time": 363.125,
                    "velocity": 0.5905511811023622,
                    "duration": 0.625
                },
                {
                    "name": "E2",
                    "midi": 40,
                    "time": 363.125,
                    "velocity": 0.5905511811023622,
                    "duration": 0.625
                },
                {
                    "name": "E2",
                    "midi": 40,
                    "time": 363.75,
                    "velocity": 0.5905511811023622,
                    "duration": 0.625
                },
                {
                    "name": "A2",
                    "midi": 45,
                    "time": 363.75,
                    "velocity": 0.5905511811023622,
                    "duration": 0.625
                },
                {
                    "name": "A1",
                    "midi": 33,
                    "time": 364.375,
                    "velocity": 0.5905511811023622,
                    "duration": 0.625
                },
                {
                    "name": "E2",
                    "midi": 40,
                    "time": 364.375,
                    "velocity": 0.5905511811023622,
                    "duration": 0.625
                },
                {
                    "name": "E2",
                    "midi": 40,
                    "time": 365,
                    "velocity": 0.5905511811023622,
                    "duration": 0.625
                },
                {
                    "name": "A2",
                    "midi": 45,
                    "time": 365,
                    "velocity": 0.5905511811023622,
                    "duration": 0.625
                },
                {
                    "name": "A1",
                    "midi": 33,
                    "time": 365.625,
                    "velocity": 0.5905511811023622,
                    "duration": 0.625
                },
                {
                    "name": "E2",
                    "midi": 40,
                    "time": 365.625,
                    "velocity": 0.5905511811023622,
                    "duration": 0.625
                },
                {
                    "name": "E2",
                    "midi": 40,
                    "time": 366.25,
                    "velocity": 0.5905511811023622,
                    "duration": 0.625
                },
                {
                    "name": "A2",
                    "midi": 45,
                    "time": 366.25,
                    "velocity": 0.5905511811023622,
                    "duration": 0.625
                },
                {
                    "name": "A1",
                    "midi": 33,
                    "time": 366.875,
                    "velocity": 0.5905511811023622,
                    "duration": 0.625
                },
                {
                    "name": "E2",
                    "midi": 40,
                    "time": 366.875,
                    "velocity": 0.5905511811023622,
                    "duration": 0.625
                },
                {
                    "name": "A2",
                    "midi": 45,
                    "time": 367.5,
                    "velocity": 0.7952755905511811,
                    "duration": 0.3125
                },
                {
                    "name": "E3",
                    "midi": 52,
                    "time": 367.5,
                    "velocity": 0.7952755905511811,
                    "duration": 0.3125
                },
                {
                    "name": "E2",
                    "midi": 40,
                    "time": 367.8125,
                    "velocity": 0.7952755905511811,
                    "duration": 0.3125
                },
                {
                    "name": "A2",
                    "midi": 45,
                    "time": 367.8125,
                    "velocity": 0.7952755905511811,
                    "duration": 0.3125
                },
                {
                    "name": "A2",
                    "midi": 45,
                    "time": 368.125,
                    "velocity": 0.7952755905511811,
                    "duration": 0.3125
                },
                {
                    "name": "E3",
                    "midi": 52,
                    "time": 368.125,
                    "velocity": 0.7952755905511811,
                    "duration": 0.3125
                },
                {
                    "name": "E2",
                    "midi": 40,
                    "time": 368.4375,
                    "velocity": 0.7952755905511811,
                    "duration": 0.3125
                },
                {
                    "name": "A2",
                    "midi": 45,
                    "time": 368.4375,
                    "velocity": 0.7952755905511811,
                    "duration": 0.3125
                },
                {
                    "name": "A2",
                    "midi": 45,
                    "time": 368.75,
                    "velocity": 0.7952755905511811,
                    "duration": 0.3125
                },
                {
                    "name": "E3",
                    "midi": 52,
                    "time": 368.75,
                    "velocity": 0.7952755905511811,
                    "duration": 0.3125
                },
                {
                    "name": "E2",
                    "midi": 40,
                    "time": 369.0625,
                    "velocity": 0.7952755905511811,
                    "duration": 0.3125
                },
                {
                    "name": "A2",
                    "midi": 45,
                    "time": 369.0625,
                    "velocity": 0.7952755905511811,
                    "duration": 0.3125
                },
                {
                    "name": "A2",
                    "midi": 45,
                    "time": 369.375,
                    "velocity": 0.7952755905511811,
                    "duration": 0.3125
                },
                {
                    "name": "E3",
                    "midi": 52,
                    "time": 369.375,
                    "velocity": 0.7952755905511811,
                    "duration": 0.3125
                },
                {
                    "name": "E2",
                    "midi": 40,
                    "time": 369.6875,
                    "velocity": 0.7952755905511811,
                    "duration": 0.3125
                },
                {
                    "name": "A2",
                    "midi": 45,
                    "time": 369.6875,
                    "velocity": 0.7952755905511811,
                    "duration": 0.3125
                },
                {
                    "name": "A2",
                    "midi": 45,
                    "time": 370,
                    "velocity": 0.7952755905511811,
                    "duration": 0.3125
                },
                {
                    "name": "E3",
                    "midi": 52,
                    "time": 370,
                    "velocity": 0.7952755905511811,
                    "duration": 0.3125
                },
                {
                    "name": "E2",
                    "midi": 40,
                    "time": 370.3125,
                    "velocity": 0.7952755905511811,
                    "duration": 0.3125
                },
                {
                    "name": "A2",
                    "midi": 45,
                    "time": 370.3125,
                    "velocity": 0.7952755905511811,
                    "duration": 0.3125
                },
                {
                    "name": "A2",
                    "midi": 45,
                    "time": 370.625,
                    "velocity": 0.7952755905511811,
                    "duration": 0.3125
                },
                {
                    "name": "E3",
                    "midi": 52,
                    "time": 370.625,
                    "velocity": 0.7952755905511811,
                    "duration": 0.3125
                },
                {
                    "name": "E2",
                    "midi": 40,
                    "time": 370.9375,
                    "velocity": 0.7952755905511811,
                    "duration": 0.3125
                },
                {
                    "name": "A2",
                    "midi": 45,
                    "time": 370.9375,
                    "velocity": 0.7952755905511811,
                    "duration": 0.3125
                },
                {
                    "name": "A2",
                    "midi": 45,
                    "time": 371.25,
                    "velocity": 0.7952755905511811,
                    "duration": 0.3125
                },
                {
                    "name": "E3",
                    "midi": 52,
                    "time": 371.25,
                    "velocity": 0.7952755905511811,
                    "duration": 0.3125
                },
                {
                    "name": "E2",
                    "midi": 40,
                    "time": 371.5625,
                    "velocity": 0.7952755905511811,
                    "duration": 0.3125
                },
                {
                    "name": "A2",
                    "midi": 45,
                    "time": 371.5625,
                    "velocity": 0.7952755905511811,
                    "duration": 0.3125
                },
                {
                    "name": "A2",
                    "midi": 45,
                    "time": 371.875,
                    "velocity": 0.7952755905511811,
                    "duration": 0.3125
                },
                {
                    "name": "E3",
                    "midi": 52,
                    "time": 371.875,
                    "velocity": 0.7952755905511811,
                    "duration": 0.3125
                },
                {
                    "name": "E2",
                    "midi": 40,
                    "time": 372.1875,
                    "velocity": 0.7952755905511811,
                    "duration": 0.3125
                },
                {
                    "name": "A2",
                    "midi": 45,
                    "time": 372.1875,
                    "velocity": 0.7952755905511811,
                    "duration": 0.3125
                },
                {
                    "name": "F#3",
                    "midi": 54,
                    "time": 372.5,
                    "velocity": 0.7952755905511811,
                    "duration": 0.9375
                },
                {
                    "name": "D3",
                    "midi": 50,
                    "time": 373.4375,
                    "velocity": 0.7952755905511811,
                    "duration": 0.9375
                },
                {
                    "name": "C3",
                    "midi": 48,
                    "time": 374.375,
                    "velocity": 0.7952755905511811,
                    "duration": 0.625
                },
                {
                    "name": "F#3",
                    "midi": 54,
                    "time": 375,
                    "velocity": 0.7952755905511811,
                    "duration": 0.9375
                },
                {
                    "name": "D3",
                    "midi": 50,
                    "time": 375.9375,
                    "velocity": 0.7952755905511811,
                    "duration": 0.9375
                },
                {
                    "name": "C3",
                    "midi": 48,
                    "time": 376.875,
                    "velocity": 0.7952755905511811,
                    "duration": 0.625
                },
                {
                    "name": "F#3",
                    "midi": 54,
                    "time": 377.5,
                    "velocity": 0.7952755905511811,
                    "duration": 0.9375
                },
                {
                    "name": "B3",
                    "midi": 59,
                    "time": 378.4375,
                    "velocity": 0.7952755905511811,
                    "duration": 0.9375
                },
                {
                    "name": "A3",
                    "midi": 57,
                    "time": 379.375,
                    "velocity": 0.7952755905511811,
                    "duration": 0.625
                },
                {
                    "name": "F#3",
                    "midi": 54,
                    "time": 380,
                    "velocity": 0.5905511811023622,
                    "duration": 0.9375
                },
                {
                    "name": "B3",
                    "midi": 59,
                    "time": 380.9375,
                    "velocity": 0.7952755905511811,
                    "duration": 0.9375
                },
                {
                    "name": "A3",
                    "midi": 57,
                    "time": 381.875,
                    "velocity": 0.5905511811023622,
                    "duration": 0.625
                },
                {
                    "name": "B3",
                    "midi": 59,
                    "time": 382.5,
                    "velocity": 0.5905511811023622,
                    "duration": 0.9375
                },
                {
                    "name": "G3",
                    "midi": 55,
                    "time": 383.4375,
                    "velocity": 0.7952755905511811,
                    "duration": 0.9375
                },
                {
                    "name": "F3",
                    "midi": 53,
                    "time": 384.375,
                    "velocity": 0.5905511811023622,
                    "duration": 0.625
                },
                {
                    "name": "B3",
                    "midi": 59,
                    "time": 385,
                    "velocity": 0.5905511811023622,
                    "duration": 0.9375
                },
                {
                    "name": "G3",
                    "midi": 55,
                    "time": 385.9375,
                    "velocity": 0.7952755905511811,
                    "duration": 0.9375
                },
                {
                    "name": "F3",
                    "midi": 53,
                    "time": 386.875,
                    "velocity": 0.5905511811023622,
                    "duration": 0.625
                },
                {
                    "name": "B3",
                    "midi": 59,
                    "time": 387.5,
                    "velocity": 0.5905511811023622,
                    "duration": 0.9375
                },
                {
                    "name": "G3",
                    "midi": 55,
                    "time": 388.4375,
                    "velocity": 0.7952755905511811,
                    "duration": 0.9375
                },
                {
                    "name": "F3",
                    "midi": 53,
                    "time": 389.375,
                    "velocity": 0.5905511811023622,
                    "duration": 0.625
                },
                {
                    "name": "F3",
                    "midi": 53,
                    "time": 390,
                    "velocity": 0.5905511811023622,
                    "duration": 0.9375
                },
                {
                    "name": "D3",
                    "midi": 50,
                    "time": 390.9375,
                    "velocity": 0.7952755905511811,
                    "duration": 0.9375
                },
                {
                    "name": "C3",
                    "midi": 48,
                    "time": 391.875,
                    "velocity": 0.5905511811023622,
                    "duration": 0.625
                },
                {
                    "name": "A1",
                    "midi": 33,
                    "time": 392.5,
                    "velocity": 0.5905511811023622,
                    "duration": 0.3125
                },
                {
                    "name": "A2",
                    "midi": 45,
                    "time": 392.5,
                    "velocity": 0.5905511811023622,
                    "duration": 0.3125
                },
                {
                    "name": "D#2",
                    "midi": 39,
                    "time": 392.8125,
                    "velocity": 0.5905511811023622,
                    "duration": 0.3125
                },
                {
                    "name": "D#3",
                    "midi": 51,
                    "time": 392.8125,
                    "velocity": 0.5905511811023622,
                    "duration": 0.3125
                },
                {
                    "name": "D2",
                    "midi": 38,
                    "time": 393.125,
                    "velocity": 0.5905511811023622,
                    "duration": 0.3125
                },
                {
                    "name": "D3",
                    "midi": 50,
                    "time": 393.125,
                    "velocity": 0.5905511811023622,
                    "duration": 0.3125
                },
                {
                    "name": "C#2",
                    "midi": 37,
                    "time": 393.4375,
                    "velocity": 0.7952755905511811,
                    "duration": 0.3125
                },
                {
                    "name": "C#3",
                    "midi": 49,
                    "time": 393.4375,
                    "velocity": 0.7952755905511811,
                    "duration": 0.3125
                },
                {
                    "name": "C2",
                    "midi": 36,
                    "time": 393.75,
                    "velocity": 0.5905511811023622,
                    "duration": 0.3125
                },
                {
                    "name": "C3",
                    "midi": 48,
                    "time": 393.75,
                    "velocity": 0.5905511811023622,
                    "duration": 0.3125
                },
                {
                    "name": "B1",
                    "midi": 35,
                    "time": 394.0625,
                    "velocity": 0.5905511811023622,
                    "duration": 0.3125
                },
                {
                    "name": "B2",
                    "midi": 47,
                    "time": 394.0625,
                    "velocity": 0.5905511811023622,
                    "duration": 0.3125
                },
                {
                    "name": "A#1",
                    "midi": 34,
                    "time": 394.375,
                    "velocity": 0.7952755905511811,
                    "duration": 0.3125
                },
                {
                    "name": "A#2",
                    "midi": 46,
                    "time": 394.375,
                    "velocity": 0.7952755905511811,
                    "duration": 0.3125
                },
                {
                    "name": "A1",
                    "midi": 33,
                    "time": 394.6875,
                    "velocity": 0.5905511811023622,
                    "duration": 0.3125
                },
                {
                    "name": "A2",
                    "midi": 45,
                    "time": 394.6875,
                    "velocity": 0.5905511811023622,
                    "duration": 0.3125
                },
                {
                    "name": "A#2",
                    "midi": 46,
                    "time": 410.3125,
                    "velocity": 0.5905511811023622,
                    "duration": 0.061197916666685614
                },
                {
                    "name": "F3",
                    "midi": 53,
                    "time": 410.3125,
                    "velocity": 0.5905511811023622,
                    "duration": 0.061197916666685614
                },
                {
                    "name": "A#2",
                    "midi": 46,
                    "time": 410.625,
                    "velocity": 0.7952755905511811,
                    "duration": 0.061197916666685614
                },
                {
                    "name": "F3",
                    "midi": 53,
                    "time": 410.625,
                    "velocity": 0.7952755905511811,
                    "duration": 0.061197916666685614
                },
                {
                    "name": "A#2",
                    "midi": 46,
                    "time": 411.25,
                    "velocity": 0.5905511811023622,
                    "duration": 0.061197916666685614
                },
                {
                    "name": "F3",
                    "midi": 53,
                    "time": 411.25,
                    "velocity": 0.5905511811023622,
                    "duration": 0.061197916666685614
                },
                {
                    "name": "A2",
                    "midi": 45,
                    "time": 411.5625,
                    "velocity": 0.7952755905511811,
                    "duration": 0.061197916666685614
                },
                {
                    "name": "E3",
                    "midi": 52,
                    "time": 411.5625,
                    "velocity": 0.7952755905511811,
                    "duration": 0.061197916666685614
                },
                {
                    "name": "A2",
                    "midi": 45,
                    "time": 412.1875,
                    "velocity": 0.5905511811023622,
                    "duration": 0.061197916666685614
                },
                {
                    "name": "E3",
                    "midi": 52,
                    "time": 412.1875,
                    "velocity": 0.5905511811023622,
                    "duration": 0.061197916666685614
                },
                {
                    "name": "G#2",
                    "midi": 44,
                    "time": 412.5,
                    "velocity": 0.7952755905511811,
                    "duration": 0.061197916666685614
                },
                {
                    "name": "D#3",
                    "midi": 51,
                    "time": 412.5,
                    "velocity": 0.7952755905511811,
                    "duration": 0.061197916666685614
                },
                {
                    "name": "G#2",
                    "midi": 44,
                    "time": 413.125,
                    "velocity": 0.5905511811023622,
                    "duration": 0.061197916666685614
                },
                {
                    "name": "D#3",
                    "midi": 51,
                    "time": 413.125,
                    "velocity": 0.5905511811023622,
                    "duration": 0.061197916666685614
                },
                {
                    "name": "G2",
                    "midi": 43,
                    "time": 413.4375,
                    "velocity": 0.7952755905511811,
                    "duration": 0.061197916666685614
                },
                {
                    "name": "D3",
                    "midi": 50,
                    "time": 413.4375,
                    "velocity": 0.7952755905511811,
                    "duration": 0.061197916666685614
                },
                {
                    "name": "G2",
                    "midi": 43,
                    "time": 414.0625,
                    "velocity": 0.5905511811023622,
                    "duration": 0.061197916666685614
                },
                {
                    "name": "D3",
                    "midi": 50,
                    "time": 414.0625,
                    "velocity": 0.5905511811023622,
                    "duration": 0.061197916666685614
                },
                {
                    "name": "F#2",
                    "midi": 42,
                    "time": 414.375,
                    "velocity": 0.7952755905511811,
                    "duration": 0.061197916666685614
                },
                {
                    "name": "C3",
                    "midi": 48,
                    "time": 414.375,
                    "velocity": 0.7952755905511811,
                    "duration": 0.061197916666685614
                },
                {
                    "name": "A#3",
                    "midi": 58,
                    "time": 414.375,
                    "velocity": 0.7952755905511811,
                    "duration": 0.061197916666685614
                },
                {
                    "name": "F#2",
                    "midi": 42,
                    "time": 415,
                    "velocity": 0.5905511811023622,
                    "duration": 0.061197916666685614
                },
                {
                    "name": "C#3",
                    "midi": 49,
                    "time": 415,
                    "velocity": 0.5905511811023622,
                    "duration": 0.061197916666685614
                },
                {
                    "name": "A#3",
                    "midi": 58,
                    "time": 415,
                    "velocity": 0.5905511811023622,
                    "duration": 0.061197916666685614
                },
                {
                    "name": "F2",
                    "midi": 41,
                    "time": 415.3125,
                    "velocity": 0.7952755905511811,
                    "duration": 0.061197916666685614
                },
                {
                    "name": "F2",
                    "midi": 41,
                    "time": 415.9375,
                    "velocity": 0.5905511811023622,
                    "duration": 0.061197916666685614
                },
                {
                    "name": "E2",
                    "midi": 40,
                    "time": 416.25,
                    "velocity": 0.7952755905511811,
                    "duration": 0.061197916666685614
                },
                {
                    "name": "A#2",
                    "midi": 46,
                    "time": 416.25,
                    "velocity": 0.7952755905511811,
                    "duration": 0.061197916666685614
                },
                {
                    "name": "G#3",
                    "midi": 56,
                    "time": 416.25,
                    "velocity": 0.7952755905511811,
                    "duration": 0.061197916666685614
                },
                {
                    "name": "E2",
                    "midi": 40,
                    "time": 416.875,
                    "velocity": 0.5905511811023622,
                    "duration": 0.061197916666685614
                },
                {
                    "name": "A#2",
                    "midi": 46,
                    "time": 416.875,
                    "velocity": 0.5905511811023622,
                    "duration": 0.061197916666685614
                },
                {
                    "name": "G#3",
                    "midi": 56,
                    "time": 416.875,
                    "velocity": 0.5905511811023622,
                    "duration": 0.061197916666685614
                },
                {
                    "name": "D#2",
                    "midi": 39,
                    "time": 417.1875,
                    "velocity": 0.7952755905511811,
                    "duration": 0.061197916666685614
                },
                {
                    "name": "D#2",
                    "midi": 39,
                    "time": 417.8125,
                    "velocity": 0.5905511811023622,
                    "duration": 0.061197916666685614
                },
                {
                    "name": "D2",
                    "midi": 38,
                    "time": 418.125,
                    "velocity": 0.7952755905511811,
                    "duration": 0.061197916666685614
                },
                {
                    "name": "A2",
                    "midi": 45,
                    "time": 418.125,
                    "velocity": 0.7952755905511811,
                    "duration": 0.061197916666685614
                },
                {
                    "name": "F#3",
                    "midi": 54,
                    "time": 418.125,
                    "velocity": 0.7952755905511811,
                    "duration": 0.061197916666685614
                },
                {
                    "name": "D2",
                    "midi": 38,
                    "time": 418.75,
                    "velocity": 0.5905511811023622,
                    "duration": 0.061197916666685614
                },
                {
                    "name": "A2",
                    "midi": 45,
                    "time": 418.75,
                    "velocity": 0.5905511811023622,
                    "duration": 0.061197916666685614
                },
                {
                    "name": "F#3",
                    "midi": 54,
                    "time": 418.75,
                    "velocity": 0.5905511811023622,
                    "duration": 0.061197916666685614
                },
                {
                    "name": "C#2",
                    "midi": 37,
                    "time": 419.0625,
                    "velocity": 0.7952755905511811,
                    "duration": 0.061197916666685614
                },
                {
                    "name": "C#2",
                    "midi": 37,
                    "time": 419.6875,
                    "velocity": 0.5905511811023622,
                    "duration": 0.061197916666685614
                },
                {
                    "name": "C#2",
                    "midi": 37,
                    "time": 420,
                    "velocity": 0.7952755905511811,
                    "duration": 0.061197916666685614
                },
                {
                    "name": "C#2",
                    "midi": 37,
                    "time": 420.625,
                    "velocity": 0.5905511811023622,
                    "duration": 0.061197916666685614
                },
                {
                    "name": "C#2",
                    "midi": 37,
                    "time": 420.9375,
                    "velocity": 0.7952755905511811,
                    "duration": 0.061197916666685614
                },
                {
                    "name": "C#2",
                    "midi": 37,
                    "time": 421.5625,
                    "velocity": 0.5905511811023622,
                    "duration": 0.061197916666685614
                },
                {
                    "name": "C#2",
                    "midi": 37,
                    "time": 421.875,
                    "velocity": 0.7952755905511811,
                    "duration": 0.061197916666685614
                },
                {
                    "name": "D2",
                    "midi": 38,
                    "time": 422.5,
                    "velocity": 0.5905511811023622,
                    "duration": 5
                },
                {
                    "name": "G2",
                    "midi": 43,
                    "time": 422.5,
                    "velocity": 0.5905511811023622,
                    "duration": 5
                },
                {
                    "name": "G1",
                    "midi": 31,
                    "time": 427.5,
                    "velocity": 0.5905511811023622,
                    "duration": 1.25
                },
                {
                    "name": "G2",
                    "midi": 43,
                    "time": 427.5,
                    "velocity": 0.5905511811023622,
                    "duration": 1.25
                },
                {
                    "name": "G4",
                    "midi": 67,
                    "time": 428.75,
                    "velocity": 0.8976377952755905,
                    "duration": 1.25
                },
                {
                    "name": "E4",
                    "midi": 64,
                    "time": 430,
                    "velocity": 0.8976377952755905,
                    "duration": 1.25
                },
                {
                    "name": "C4",
                    "midi": 60,
                    "time": 431.25,
                    "velocity": 0.8976377952755905,
                    "duration": 1.25
                },
                {
                    "name": "A3",
                    "midi": 57,
                    "time": 432.5,
                    "velocity": 0.8976377952755905,
                    "duration": 1.25
                },
                {
                    "name": "C4",
                    "midi": 60,
                    "time": 433.75,
                    "velocity": 0.8976377952755905,
                    "duration": 1.25
                },
                {
                    "name": "G4",
                    "midi": 67,
                    "time": 435,
                    "velocity": 0.8976377952755905,
                    "duration": 1.25
                },
                {
                    "name": "A#3",
                    "midi": 58,
                    "time": 436.25,
                    "velocity": 0.6929133858267716,
                    "duration": 1.25
                },
                {
                    "name": "G4",
                    "midi": 67,
                    "time": 437.5,
                    "velocity": 0.6929133858267716,
                    "duration": 1.25
                },
                {
                    "name": "G4",
                    "midi": 67,
                    "time": 438.75,
                    "velocity": 0.6929133858267716,
                    "duration": 1.25
                },
                {
                    "name": "E4",
                    "midi": 64,
                    "time": 440,
                    "velocity": 0.6929133858267716,
                    "duration": 1.25
                },
                {
                    "name": "A4",
                    "midi": 69,
                    "time": 441.25,
                    "velocity": 0.6929133858267716,
                    "duration": 1.25
                },
                {
                    "name": "C4",
                    "midi": 60,
                    "time": 442.5,
                    "velocity": 0.6929133858267716,
                    "duration": 1.25
                },
                {
                    "name": "G4",
                    "midi": 67,
                    "time": 443.75,
                    "velocity": 0.6929133858267716,
                    "duration": 1.25
                },
                {
                    "name": "A4",
                    "midi": 69,
                    "time": 445,
                    "velocity": 0.6929133858267716,
                    "duration": 1.25
                },
                {
                    "name": "C5",
                    "midi": 72,
                    "time": 446.25,
                    "velocity": 0.6929133858267716,
                    "duration": 1.25
                },
                {
                    "name": "F4",
                    "midi": 65,
                    "time": 447.5,
                    "velocity": 0.6929133858267716,
                    "duration": 1.25
                },
                {
                    "name": "C4",
                    "midi": 60,
                    "time": 448.75,
                    "velocity": 0.6929133858267716,
                    "duration": 2.5
                },
                {
                    "name": "F#5",
                    "midi": 78,
                    "time": 476.25,
                    "velocity": 0.5905511811023622,
                    "duration": 0.15625
                },
                {
                    "name": "A#4",
                    "midi": 70,
                    "time": 476.40625,
                    "velocity": 0.5905511811023622,
                    "duration": 0.15625
                },
                {
                    "name": "C#5",
                    "midi": 73,
                    "time": 476.5625,
                    "velocity": 0.5905511811023622,
                    "duration": 0.15625
                },
                {
                    "name": "F#4",
                    "midi": 66,
                    "time": 476.71875,
                    "velocity": 0.5905511811023622,
                    "duration": 0.15625
                },
                {
                    "name": "A#4",
                    "midi": 70,
                    "time": 476.875,
                    "velocity": 0.5905511811023622,
                    "duration": 0.15625
                },
                {
                    "name": "C#4",
                    "midi": 61,
                    "time": 477.03125,
                    "velocity": 0.5905511811023622,
                    "duration": 0.15625
                },
                {
                    "name": "D#4",
                    "midi": 63,
                    "time": 477.1875,
                    "velocity": 0.5905511811023622,
                    "duration": 0.15625
                },
                {
                    "name": "F#4",
                    "midi": 66,
                    "time": 477.34375,
                    "velocity": 0.5905511811023622,
                    "duration": 0.029947916666685614
                },
                {
                    "name": "F#4",
                    "midi": 66,
                    "time": 477.65625,
                    "velocity": 0.5905511811023622,
                    "duration": 0.029947916666685614
                },
                {
                    "name": "F#4",
                    "midi": 66,
                    "time": 477.96875,
                    "velocity": 0.7952755905511811,
                    "duration": 0.78125
                },
                {
                    "name": "F#5",
                    "midi": 78,
                    "time": 503.75,
                    "velocity": 0.5905511811023622,
                    "duration": 2.5
                },
                {
                    "name": "C6",
                    "midi": 84,
                    "time": 503.75,
                    "velocity": 0.5905511811023622,
                    "duration": 2.5
                },
                {
                    "name": "D6",
                    "midi": 86,
                    "time": 503.75,
                    "velocity": 0.5905511811023622,
                    "duration": 2.5
                },
                {
                    "name": "F#6",
                    "midi": 90,
                    "time": 503.75,
                    "velocity": 0.5905511811023622,
                    "duration": 2.5
                },
                {
                    "name": "G3",
                    "midi": 55,
                    "time": 506.25,
                    "velocity": 0.6929133858267716,
                    "duration": 1.25
                },
                {
                    "name": "C4",
                    "midi": 60,
                    "time": 506.25,
                    "velocity": 0.6929133858267716,
                    "duration": 1.25
                },
                {
                    "name": "E4",
                    "midi": 64,
                    "time": 506.25,
                    "velocity": 0.6929133858267716,
                    "duration": 1.25
                },
                {
                    "name": "G4",
                    "midi": 67,
                    "time": 506.25,
                    "velocity": 0.6929133858267716,
                    "duration": 1.25
                },
                {
                    "name": "G3",
                    "midi": 55,
                    "time": 507.5,
                    "velocity": 0.6929133858267716,
                    "duration": 1.25
                },
                {
                    "name": "A#3",
                    "midi": 58,
                    "time": 507.5,
                    "velocity": 0.6929133858267716,
                    "duration": 1.25
                },
                {
                    "name": "C#4",
                    "midi": 61,
                    "time": 507.5,
                    "velocity": 0.6929133858267716,
                    "duration": 1.25
                },
                {
                    "name": "E4",
                    "midi": 64,
                    "time": 507.5,
                    "velocity": 0.6929133858267716,
                    "duration": 1.25
                },
                {
                    "name": "G4",
                    "midi": 67,
                    "time": 507.5,
                    "velocity": 0.6929133858267716,
                    "duration": 1.25
                },
                {
                    "name": "C4",
                    "midi": 60,
                    "time": 509.0625,
                    "velocity": 0.6929133858267716,
                    "duration": 0.3125
                },
                {
                    "name": "F4",
                    "midi": 65,
                    "time": 509.0625,
                    "velocity": 0.6929133858267716,
                    "duration": 0.3125
                },
                {
                    "name": "A4",
                    "midi": 69,
                    "time": 509.0625,
                    "velocity": 0.6929133858267716,
                    "duration": 0.3125
                },
                {
                    "name": "C4",
                    "midi": 60,
                    "time": 509.6875,
                    "velocity": 0.6929133858267716,
                    "duration": 0.3125
                },
                {
                    "name": "E4",
                    "midi": 64,
                    "time": 509.6875,
                    "velocity": 0.6929133858267716,
                    "duration": 0.3125
                },
                {
                    "name": "G4",
                    "midi": 67,
                    "time": 509.6875,
                    "velocity": 0.6929133858267716,
                    "duration": 0.3125
                },
                {
                    "name": "A3",
                    "midi": 57,
                    "time": 510.3125,
                    "velocity": 0.6929133858267716,
                    "duration": 0.3125
                },
                {
                    "name": "C4",
                    "midi": 60,
                    "time": 510.3125,
                    "velocity": 0.6929133858267716,
                    "duration": 0.3125
                },
                {
                    "name": "F4",
                    "midi": 65,
                    "time": 510.3125,
                    "velocity": 0.6929133858267716,
                    "duration": 0.3125
                },
                {
                    "name": "F3",
                    "midi": 53,
                    "time": 510.9375,
                    "velocity": 0.6929133858267716,
                    "duration": 0.3125
                },
                {
                    "name": "B3",
                    "midi": 59,
                    "time": 510.9375,
                    "velocity": 0.6929133858267716,
                    "duration": 0.3125
                },
                {
                    "name": "E4",
                    "midi": 64,
                    "time": 510.9375,
                    "velocity": 0.6929133858267716,
                    "duration": 0.3125
                },
                {
                    "name": "C4",
                    "midi": 60,
                    "time": 511.25,
                    "velocity": 0.6929133858267716,
                    "duration": 0.15625
                },
                {
                    "name": "D4",
                    "midi": 62,
                    "time": 511.40625,
                    "velocity": 0.6929133858267716,
                    "duration": 0.15625
                },
                {
                    "name": "E4",
                    "midi": 64,
                    "time": 511.5625,
                    "velocity": 0.6929133858267716,
                    "duration": 0.15625
                },
                {
                    "name": "F4",
                    "midi": 65,
                    "time": 511.71875,
                    "velocity": 0.6929133858267716,
                    "duration": 0.15625
                },
                {
                    "name": "G4",
                    "midi": 67,
                    "time": 511.875,
                    "velocity": 0.6929133858267716,
                    "duration": 0.061197916666685614
                },
                {
                    "name": "B4",
                    "midi": 71,
                    "time": 512.1875,
                    "velocity": 0.6929133858267716,
                    "duration": 0.06119791666662877
                },
                {
                    "name": "D5",
                    "midi": 74,
                    "time": 512.5,
                    "velocity": 0.6929133858267716,
                    "duration": 0.06119791666662877
                },
                {
                    "name": "E5",
                    "midi": 76,
                    "time": 512.8125,
                    "velocity": 0.6929133858267716,
                    "duration": 0.06119791666662877
                },
                {
                    "name": "F5",
                    "midi": 77,
                    "time": 513.125,
                    "velocity": 0.6929133858267716,
                    "duration": 0.06119791666662877
                },
                {
                    "name": "G5",
                    "midi": 79,
                    "time": 513.4375,
                    "velocity": 0.6929133858267716,
                    "duration": 0.06119791666662877
                },
                {
                    "name": "A5",
                    "midi": 81,
                    "time": 513.75,
                    "velocity": 0.6929133858267716,
                    "duration": 0.15625
                },
                {
                    "name": "G5",
                    "midi": 79,
                    "time": 513.90625,
                    "velocity": 0.6929133858267716,
                    "duration": 0.15625
                },
                {
                    "name": "F5",
                    "midi": 77,
                    "time": 514.0625,
                    "velocity": 0.6929133858267716,
                    "duration": 0.15625
                },
                {
                    "name": "E5",
                    "midi": 76,
                    "time": 514.21875,
                    "velocity": 0.6929133858267716,
                    "duration": 0.15625
                },
                {
                    "name": "G5",
                    "midi": 79,
                    "time": 514.375,
                    "velocity": 0.6929133858267716,
                    "duration": 0.06119791666662877
                },
                {
                    "name": "E5",
                    "midi": 76,
                    "time": 514.6875,
                    "velocity": 0.6929133858267716,
                    "duration": 0.06119791666662877
                },
                {
                    "name": "G5",
                    "midi": 79,
                    "time": 515,
                    "velocity": 0.6929133858267716,
                    "duration": 0.06119791666662877
                },
                {
                    "name": "D#5",
                    "midi": 75,
                    "time": 515.3125,
                    "velocity": 0.6929133858267716,
                    "duration": 0.06119791666662877
                },
                {
                    "name": "A4",
                    "midi": 69,
                    "time": 515.625,
                    "velocity": 0.6929133858267716,
                    "duration": 0.06119791666662877
                },
                {
                    "name": "F4",
                    "midi": 65,
                    "time": 515.9375,
                    "velocity": 0.6929133858267716,
                    "duration": 0.06119791666662877
                },
                {
                    "name": "G3",
                    "midi": 55,
                    "time": 516.25,
                    "velocity": 0.6929133858267716,
                    "duration": 1.25
                },
                {
                    "name": "C4",
                    "midi": 60,
                    "time": 516.25,
                    "velocity": 0.6929133858267716,
                    "duration": 1.25
                },
                {
                    "name": "E4",
                    "midi": 64,
                    "time": 516.25,
                    "velocity": 0.6929133858267716,
                    "duration": 1.25
                },
                {
                    "name": "G4",
                    "midi": 67,
                    "time": 516.25,
                    "velocity": 0.6929133858267716,
                    "duration": 1.25
                },
                {
                    "name": "G3",
                    "midi": 55,
                    "time": 517.5,
                    "velocity": 0.6929133858267716,
                    "duration": 1.25
                },
                {
                    "name": "A#3",
                    "midi": 58,
                    "time": 517.5,
                    "velocity": 0.6929133858267716,
                    "duration": 1.25
                },
                {
                    "name": "C#4",
                    "midi": 61,
                    "time": 517.5,
                    "velocity": 0.6929133858267716,
                    "duration": 1.25
                },
                {
                    "name": "E4",
                    "midi": 64,
                    "time": 517.5,
                    "velocity": 0.6929133858267716,
                    "duration": 1.25
                },
                {
                    "name": "G4",
                    "midi": 67,
                    "time": 517.5,
                    "velocity": 0.6929133858267716,
                    "duration": 1.25
                },
                {
                    "name": "C4",
                    "midi": 60,
                    "time": 519.0625,
                    "velocity": 0.6929133858267716,
                    "duration": 0.3125
                },
                {
                    "name": "F4",
                    "midi": 65,
                    "time": 519.0625,
                    "velocity": 0.6929133858267716,
                    "duration": 0.3125
                },
                {
                    "name": "A4",
                    "midi": 69,
                    "time": 519.0625,
                    "velocity": 0.6929133858267716,
                    "duration": 0.3125
                },
                {
                    "name": "C4",
                    "midi": 60,
                    "time": 519.6875,
                    "velocity": 0.6929133858267716,
                    "duration": 0.3125
                },
                {
                    "name": "E4",
                    "midi": 64,
                    "time": 519.6875,
                    "velocity": 0.6929133858267716,
                    "duration": 0.3125
                },
                {
                    "name": "G4",
                    "midi": 67,
                    "time": 519.6875,
                    "velocity": 0.6929133858267716,
                    "duration": 0.3125
                },
                {
                    "name": "A3",
                    "midi": 57,
                    "time": 520.3125,
                    "velocity": 0.6929133858267716,
                    "duration": 0.3125
                },
                {
                    "name": "C4",
                    "midi": 60,
                    "time": 520.3125,
                    "velocity": 0.6929133858267716,
                    "duration": 0.3125
                },
                {
                    "name": "F4",
                    "midi": 65,
                    "time": 520.3125,
                    "velocity": 0.6929133858267716,
                    "duration": 0.3125
                },
                {
                    "name": "F3",
                    "midi": 53,
                    "time": 520.9375,
                    "velocity": 0.6929133858267716,
                    "duration": 0.3125
                },
                {
                    "name": "B3",
                    "midi": 59,
                    "time": 520.9375,
                    "velocity": 0.6929133858267716,
                    "duration": 0.3125
                },
                {
                    "name": "E4",
                    "midi": 64,
                    "time": 520.9375,
                    "velocity": 0.6929133858267716,
                    "duration": 0.3125
                },
                {
                    "name": "C4",
                    "midi": 60,
                    "time": 521.25,
                    "velocity": 0.6929133858267716,
                    "duration": 0.15625
                },
                {
                    "name": "D4",
                    "midi": 62,
                    "time": 521.40625,
                    "velocity": 0.6929133858267716,
                    "duration": 0.15625
                },
                {
                    "name": "E4",
                    "midi": 64,
                    "time": 521.5625,
                    "velocity": 0.6929133858267716,
                    "duration": 0.15625
                },
                {
                    "name": "F4",
                    "midi": 65,
                    "time": 521.71875,
                    "velocity": 0.6929133858267716,
                    "duration": 0.15625
                },
                {
                    "name": "G4",
                    "midi": 67,
                    "time": 521.875,
                    "velocity": 0.6929133858267716,
                    "duration": 0.06119791666662877
                },
                {
                    "name": "A4",
                    "midi": 69,
                    "time": 522.1875,
                    "velocity": 0.6929133858267716,
                    "duration": 0.06119791666662877
                },
                {
                    "name": "C5",
                    "midi": 72,
                    "time": 522.5,
                    "velocity": 0.6929133858267716,
                    "duration": 0.06119791666662877
                },
                {
                    "name": "E5",
                    "midi": 76,
                    "time": 522.8125,
                    "velocity": 0.6929133858267716,
                    "duration": 0.06119791666662877
                },
                {
                    "name": "F5",
                    "midi": 77,
                    "time": 523.125,
                    "velocity": 0.6929133858267716,
                    "duration": 0.06119791666662877
                },
                {
                    "name": "G5",
                    "midi": 79,
                    "time": 523.4375,
                    "velocity": 0.6929133858267716,
                    "duration": 0.06119791666662877
                },
                {
                    "name": "A5",
                    "midi": 81,
                    "time": 523.75,
                    "velocity": 0.6929133858267716,
                    "duration": 0.15625
                },
                {
                    "name": "G5",
                    "midi": 79,
                    "time": 523.90625,
                    "velocity": 0.6929133858267716,
                    "duration": 0.15625
                },
                {
                    "name": "F5",
                    "midi": 77,
                    "time": 524.0625,
                    "velocity": 0.6929133858267716,
                    "duration": 0.15625
                },
                {
                    "name": "E5",
                    "midi": 76,
                    "time": 524.21875,
                    "velocity": 0.6929133858267716,
                    "duration": 0.15625
                },
                {
                    "name": "G5",
                    "midi": 79,
                    "time": 524.375,
                    "velocity": 0.6929133858267716,
                    "duration": 0.06119791666662877
                },
                {
                    "name": "A4",
                    "midi": 69,
                    "time": 524.6875,
                    "velocity": 0.6929133858267716,
                    "duration": 0.06119791666662877
                },
                {
                    "name": "A5",
                    "midi": 81,
                    "time": 525,
                    "velocity": 0.6929133858267716,
                    "duration": 0.15625
                },
                {
                    "name": "G5",
                    "midi": 79,
                    "time": 525.15625,
                    "velocity": 0.6929133858267716,
                    "duration": 0.15625
                },
                {
                    "name": "F5",
                    "midi": 77,
                    "time": 525.3125,
                    "velocity": 0.6929133858267716,
                    "duration": 0.15625
                },
                {
                    "name": "E5",
                    "midi": 76,
                    "time": 525.46875,
                    "velocity": 0.6929133858267716,
                    "duration": 0.15625
                },
                {
                    "name": "D5",
                    "midi": 74,
                    "time": 525.625,
                    "velocity": 0.6929133858267716,
                    "duration": 0.06119791666662877
                },
                {
                    "name": "D4",
                    "midi": 62,
                    "time": 525.9375,
                    "velocity": 0.6929133858267716,
                    "duration": 0.06119791666662877
                },
                {
                    "name": "C4",
                    "midi": 60,
                    "time": 528.75,
                    "velocity": 0.8976377952755905,
                    "duration": 0.3125
                },
                {
                    "name": "C4",
                    "midi": 60,
                    "time": 529.0625,
                    "velocity": 0.6929133858267716,
                    "duration": 0.02994791666662877
                },
                {
                    "name": "C4",
                    "midi": 60,
                    "time": 529.21875,
                    "velocity": 0.6929133858267716,
                    "duration": 0.02994791666662877
                },
                {
                    "name": "C4",
                    "midi": 60,
                    "time": 529.375,
                    "velocity": 0.6929133858267716,
                    "duration": 0.02994791666662877
                },
                {
                    "name": "C4",
                    "midi": 60,
                    "time": 529.53125,
                    "velocity": 0.6929133858267716,
                    "duration": 0.02994791666662877
                },
                {
                    "name": "E4",
                    "midi": 64,
                    "time": 529.6875,
                    "velocity": 0.6929133858267716,
                    "duration": 0.3125
                },
                {
                    "name": "A#3",
                    "midi": 58,
                    "time": 530,
                    "velocity": 0.6929133858267716,
                    "duration": 0.625
                },
                {
                    "name": "B3",
                    "midi": 59,
                    "time": 530.625,
                    "velocity": 0.6929133858267716,
                    "duration": 0.625
                },
                {
                    "name": "D#3",
                    "midi": 51,
                    "time": 531.25,
                    "velocity": 0.5905511811023622,
                    "duration": 0.15625
                },
                {
                    "name": "F3",
                    "midi": 53,
                    "time": 531.40625,
                    "velocity": 0.5905511811023622,
                    "duration": 0.15625
                },
                {
                    "name": "F#3",
                    "midi": 54,
                    "time": 531.5625,
                    "velocity": 0.5905511811023622,
                    "duration": 0.15625
                },
                {
                    "name": "G#3",
                    "midi": 56,
                    "time": 531.71875,
                    "velocity": 0.5905511811023622,
                    "duration": 0.15625
                },
                {
                    "name": "A3",
                    "midi": 57,
                    "time": 531.875,
                    "velocity": 0.5905511811023622,
                    "duration": 0.15625
                },
                {
                    "name": "G3",
                    "midi": 55,
                    "time": 532.03125,
                    "velocity": 0.5905511811023622,
                    "duration": 0.15625
                },
                {
                    "name": "F3",
                    "midi": 53,
                    "time": 532.1875,
                    "velocity": 0.5905511811023622,
                    "duration": 0.15625
                },
                {
                    "name": "E3",
                    "midi": 52,
                    "time": 532.34375,
                    "velocity": 0.5905511811023622,
                    "duration": 0.15625
                },
                {
                    "name": "D#3",
                    "midi": 51,
                    "time": 532.5,
                    "velocity": 0.5905511811023622,
                    "duration": 0.15625
                },
                {
                    "name": "F3",
                    "midi": 53,
                    "time": 532.65625,
                    "velocity": 0.5905511811023622,
                    "duration": 0.15625
                },
                {
                    "name": "F#3",
                    "midi": 54,
                    "time": 532.8125,
                    "velocity": 0.5905511811023622,
                    "duration": 0.15625
                },
                {
                    "name": "G#3",
                    "midi": 56,
                    "time": 532.96875,
                    "velocity": 0.5905511811023622,
                    "duration": 0.15625
                },
                {
                    "name": "A3",
                    "midi": 57,
                    "time": 533.125,
                    "velocity": 0.5905511811023622,
                    "duration": 0.15625
                },
                {
                    "name": "G3",
                    "midi": 55,
                    "time": 533.28125,
                    "velocity": 0.5905511811023622,
                    "duration": 0.15625
                },
                {
                    "name": "A3",
                    "midi": 57,
                    "time": 533.4375,
                    "velocity": 0.5905511811023622,
                    "duration": 0.15625
                },
                {
                    "name": "G3",
                    "midi": 55,
                    "time": 533.59375,
                    "velocity": 0.5905511811023622,
                    "duration": 0.15625
                },
                {
                    "name": "A#3",
                    "midi": 58,
                    "time": 555,
                    "velocity": 0.4881889763779528,
                    "duration": 1.25
                },
                {
                    "name": "G2",
                    "midi": 43,
                    "time": 562.5,
                    "velocity": 0.4881889763779528,
                    "duration": 2.5
                },
                {
                    "name": "F#2",
                    "midi": 42,
                    "time": 570,
                    "velocity": 0.4881889763779528,
                    "duration": 0.625
                },
                {
                    "name": "F2",
                    "midi": 41,
                    "time": 570.625,
                    "velocity": 0.5905511811023622,
                    "duration": 0.625
                },
                {
                    "name": "E2",
                    "midi": 40,
                    "time": 571.25,
                    "velocity": 0.5905511811023622,
                    "duration": 1.875
                },
                {
                    "name": "B1",
                    "midi": 35,
                    "time": 620,
                    "velocity": 0.4881889763779528,
                    "duration": 0.06119791666662877
                },
                {
                    "name": "B2",
                    "midi": 47,
                    "time": 620,
                    "velocity": 0.4881889763779528,
                    "duration": 0.06119791666662877
                },
                {
                    "name": "E2",
                    "midi": 40,
                    "time": 620.3125,
                    "velocity": 0.4881889763779528,
                    "duration": 0.06119791666662877
                },
                {
                    "name": "E3",
                    "midi": 52,
                    "time": 620.3125,
                    "velocity": 0.4881889763779528,
                    "duration": 0.06119791666662877
                },
                {
                    "name": "A1",
                    "midi": 33,
                    "time": 620.625,
                    "velocity": 0.4881889763779528,
                    "duration": 0.06119791666662877
                },
                {
                    "name": "A2",
                    "midi": 45,
                    "time": 620.625,
                    "velocity": 0.4881889763779528,
                    "duration": 0.06119791666662877
                },
                {
                    "name": "E2",
                    "midi": 40,
                    "time": 620.9375,
                    "velocity": 0.4881889763779528,
                    "duration": 0.06119791666662877
                },
                {
                    "name": "E3",
                    "midi": 52,
                    "time": 620.9375,
                    "velocity": 0.4881889763779528,
                    "duration": 0.06119791666662877
                },
                {
                    "name": "B1",
                    "midi": 35,
                    "time": 621.25,
                    "velocity": 0.4881889763779528,
                    "duration": 0.06119791666662877
                },
                {
                    "name": "B2",
                    "midi": 47,
                    "time": 621.25,
                    "velocity": 0.4881889763779528,
                    "duration": 0.06119791666662877
                },
                {
                    "name": "E2",
                    "midi": 40,
                    "time": 621.5625,
                    "velocity": 0.4881889763779528,
                    "duration": 0.06119791666662877
                },
                {
                    "name": "E3",
                    "midi": 52,
                    "time": 621.5625,
                    "velocity": 0.4881889763779528,
                    "duration": 0.06119791666662877
                },
                {
                    "name": "A1",
                    "midi": 33,
                    "time": 621.875,
                    "velocity": 0.4881889763779528,
                    "duration": 0.06119791666662877
                },
                {
                    "name": "A2",
                    "midi": 45,
                    "time": 621.875,
                    "velocity": 0.4881889763779528,
                    "duration": 0.06119791666662877
                },
                {
                    "name": "E2",
                    "midi": 40,
                    "time": 622.1875,
                    "velocity": 0.4881889763779528,
                    "duration": 0.06119791666662877
                },
                {
                    "name": "E3",
                    "midi": 52,
                    "time": 622.1875,
                    "velocity": 0.4881889763779528,
                    "duration": 0.06119791666662877
                },
                {
                    "name": "B1",
                    "midi": 35,
                    "time": 622.5,
                    "velocity": 0.4881889763779528,
                    "duration": 0.06119791666662877
                },
                {
                    "name": "B2",
                    "midi": 47,
                    "time": 622.5,
                    "velocity": 0.4881889763779528,
                    "duration": 0.06119791666662877
                },
                {
                    "name": "E2",
                    "midi": 40,
                    "time": 622.8125,
                    "velocity": 0.4881889763779528,
                    "duration": 0.06119791666662877
                },
                {
                    "name": "E3",
                    "midi": 52,
                    "time": 622.8125,
                    "velocity": 0.4881889763779528,
                    "duration": 0.06119791666662877
                },
                {
                    "name": "A1",
                    "midi": 33,
                    "time": 623.125,
                    "velocity": 0.4881889763779528,
                    "duration": 0.06119791666662877
                },
                {
                    "name": "A2",
                    "midi": 45,
                    "time": 623.125,
                    "velocity": 0.4881889763779528,
                    "duration": 0.06119791666662877
                },
                {
                    "name": "E2",
                    "midi": 40,
                    "time": 623.4375,
                    "velocity": 0.4881889763779528,
                    "duration": 0.06119791666662877
                },
                {
                    "name": "E3",
                    "midi": 52,
                    "time": 623.4375,
                    "velocity": 0.4881889763779528,
                    "duration": 0.06119791666662877
                },
                {
                    "name": "B1",
                    "midi": 35,
                    "time": 623.75,
                    "velocity": 0.4881889763779528,
                    "duration": 0.06119791666662877
                },
                {
                    "name": "B2",
                    "midi": 47,
                    "time": 623.75,
                    "velocity": 0.4881889763779528,
                    "duration": 0.06119791666662877
                },
                {
                    "name": "E2",
                    "midi": 40,
                    "time": 624.0625,
                    "velocity": 0.4881889763779528,
                    "duration": 0.06119791666662877
                },
                {
                    "name": "E3",
                    "midi": 52,
                    "time": 624.0625,
                    "velocity": 0.4881889763779528,
                    "duration": 0.06119791666662877
                },
                {
                    "name": "A1",
                    "midi": 33,
                    "time": 624.375,
                    "velocity": 0.4881889763779528,
                    "duration": 0.06119791666662877
                },
                {
                    "name": "A2",
                    "midi": 45,
                    "time": 624.375,
                    "velocity": 0.4881889763779528,
                    "duration": 0.06119791666662877
                },
                {
                    "name": "E2",
                    "midi": 40,
                    "time": 624.6875,
                    "velocity": 0.4881889763779528,
                    "duration": 0.06119791666662877
                },
                {
                    "name": "E3",
                    "midi": 52,
                    "time": 624.6875,
                    "velocity": 0.4881889763779528,
                    "duration": 0.06119791666662877
                },
                {
                    "name": "B1",
                    "midi": 35,
                    "time": 625,
                    "velocity": 0.4881889763779528,
                    "duration": 0.06119791666662877
                },
                {
                    "name": "B2",
                    "midi": 47,
                    "time": 625,
                    "velocity": 0.4881889763779528,
                    "duration": 0.06119791666662877
                },
                {
                    "name": "E2",
                    "midi": 40,
                    "time": 625.3125,
                    "velocity": 0.4881889763779528,
                    "duration": 0.06119791666662877
                },
                {
                    "name": "E3",
                    "midi": 52,
                    "time": 625.3125,
                    "velocity": 0.4881889763779528,
                    "duration": 0.06119791666662877
                },
                {
                    "name": "A1",
                    "midi": 33,
                    "time": 625.625,
                    "velocity": 0.4881889763779528,
                    "duration": 0.06119791666662877
                },
                {
                    "name": "A2",
                    "midi": 45,
                    "time": 625.625,
                    "velocity": 0.4881889763779528,
                    "duration": 0.06119791666662877
                },
                {
                    "name": "E2",
                    "midi": 40,
                    "time": 625.9375,
                    "velocity": 0.4881889763779528,
                    "duration": 0.06119791666662877
                },
                {
                    "name": "E3",
                    "midi": 52,
                    "time": 625.9375,
                    "velocity": 0.4881889763779528,
                    "duration": 0.06119791666662877
                },
                {
                    "name": "G2",
                    "midi": 43,
                    "time": 626.25,
                    "velocity": 0.4881889763779528,
                    "duration": 0.06119791666662877
                },
                {
                    "name": "C3",
                    "midi": 48,
                    "time": 626.5625,
                    "velocity": 0.4881889763779528,
                    "duration": 0.06119791666662877
                },
                {
                    "name": "F2",
                    "midi": 41,
                    "time": 626.875,
                    "velocity": 0.4881889763779528,
                    "duration": 0.06119791666662877
                },
                {
                    "name": "C3",
                    "midi": 48,
                    "time": 627.1875,
                    "velocity": 0.4881889763779528,
                    "duration": 0.06119791666662877
                },
                {
                    "name": "G2",
                    "midi": 43,
                    "time": 627.5,
                    "velocity": 0.4881889763779528,
                    "duration": 0.06119791666662877
                },
                {
                    "name": "C3",
                    "midi": 48,
                    "time": 627.8125,
                    "velocity": 0.4881889763779528,
                    "duration": 0.06119791666662877
                },
                {
                    "name": "F2",
                    "midi": 41,
                    "time": 628.125,
                    "velocity": 0.4881889763779528,
                    "duration": 0.06119791666662877
                },
                {
                    "name": "C3",
                    "midi": 48,
                    "time": 628.4375,
                    "velocity": 0.4881889763779528,
                    "duration": 0.06119791666662877
                },
                {
                    "name": "B2",
                    "midi": 47,
                    "time": 628.75,
                    "velocity": 0.4881889763779528,
                    "duration": 0.06119791666662877
                },
                {
                    "name": "E3",
                    "midi": 52,
                    "time": 629.0625,
                    "velocity": 0.4881889763779528,
                    "duration": 0.06119791666662877
                },
                {
                    "name": "A2",
                    "midi": 45,
                    "time": 629.375,
                    "velocity": 0.4881889763779528,
                    "duration": 0.06119791666662877
                },
                {
                    "name": "E3",
                    "midi": 52,
                    "time": 629.6875,
                    "velocity": 0.4881889763779528,
                    "duration": 0.06119791666662877
                },
                {
                    "name": "B2",
                    "midi": 47,
                    "time": 630,
                    "velocity": 0.4881889763779528,
                    "duration": 0.06119791666662877
                },
                {
                    "name": "E3",
                    "midi": 52,
                    "time": 630.3125,
                    "velocity": 0.4881889763779528,
                    "duration": 0.06119791666662877
                },
                {
                    "name": "A2",
                    "midi": 45,
                    "time": 630.625,
                    "velocity": 0.4881889763779528,
                    "duration": 0.06119791666662877
                },
                {
                    "name": "E3",
                    "midi": 52,
                    "time": 630.9375,
                    "velocity": 0.4881889763779528,
                    "duration": 0.06119791666662877
                },
                {
                    "name": "B2",
                    "midi": 47,
                    "time": 631.25,
                    "velocity": 0.4881889763779528,
                    "duration": 0.06119791666662877
                },
                {
                    "name": "E3",
                    "midi": 52,
                    "time": 631.5625,
                    "velocity": 0.4881889763779528,
                    "duration": 0.06119791666662877
                },
                {
                    "name": "A2",
                    "midi": 45,
                    "time": 631.875,
                    "velocity": 0.4881889763779528,
                    "duration": 0.06119791666662877
                },
                {
                    "name": "E3",
                    "midi": 52,
                    "time": 632.1875,
                    "velocity": 0.4881889763779528,
                    "duration": 0.06119791666662877
                },
                {
                    "name": "B2",
                    "midi": 47,
                    "time": 632.5,
                    "velocity": 0.4881889763779528,
                    "duration": 0.06119791666662877
                },
                {
                    "name": "E3",
                    "midi": 52,
                    "time": 632.8125,
                    "velocity": 0.4881889763779528,
                    "duration": 0.06119791666662877
                },
                {
                    "name": "A2",
                    "midi": 45,
                    "time": 633.125,
                    "velocity": 0.4881889763779528,
                    "duration": 0.06119791666662877
                },
                {
                    "name": "E3",
                    "midi": 52,
                    "time": 633.4375,
                    "velocity": 0.4881889763779528,
                    "duration": 0.06119791666662877
                },
                {
                    "name": "B2",
                    "midi": 47,
                    "time": 633.75,
                    "velocity": 0.4881889763779528,
                    "duration": 0.06119791666662877
                },
                {
                    "name": "E3",
                    "midi": 52,
                    "time": 634.0625,
                    "velocity": 0.4881889763779528,
                    "duration": 0.06119791666662877
                },
                {
                    "name": "A2",
                    "midi": 45,
                    "time": 634.375,
                    "velocity": 0.4881889763779528,
                    "duration": 0.06119791666662877
                },
                {
                    "name": "E3",
                    "midi": 52,
                    "time": 634.6875,
                    "velocity": 0.4881889763779528,
                    "duration": 0.06119791666662877
                },
                {
                    "name": "B2",
                    "midi": 47,
                    "time": 635,
                    "velocity": 0.4881889763779528,
                    "duration": 0.06119791666662877
                },
                {
                    "name": "E3",
                    "midi": 52,
                    "time": 635.3125,
                    "velocity": 0.4881889763779528,
                    "duration": 0.06119791666662877
                },
                {
                    "name": "A2",
                    "midi": 45,
                    "time": 635.625,
                    "velocity": 0.4881889763779528,
                    "duration": 0.06119791666662877
                },
                {
                    "name": "E3",
                    "midi": 52,
                    "time": 635.9375,
                    "velocity": 0.4881889763779528,
                    "duration": 0.06119791666662877
                },
                {
                    "name": "D3",
                    "midi": 50,
                    "time": 636.25,
                    "velocity": 0.4881889763779528,
                    "duration": 0.06119791666662877
                },
                {
                    "name": "G3",
                    "midi": 55,
                    "time": 636.5625,
                    "velocity": 0.4881889763779528,
                    "duration": 0.06119791666662877
                },
                {
                    "name": "C3",
                    "midi": 48,
                    "time": 636.875,
                    "velocity": 0.4881889763779528,
                    "duration": 0.06119791666662877
                },
                {
                    "name": "G3",
                    "midi": 55,
                    "time": 637.1875,
                    "velocity": 0.4881889763779528,
                    "duration": 0.06119791666662877
                },
                {
                    "name": "D3",
                    "midi": 50,
                    "time": 637.5,
                    "velocity": 0.4881889763779528,
                    "duration": 0.06119791666662877
                },
                {
                    "name": "G3",
                    "midi": 55,
                    "time": 637.8125,
                    "velocity": 0.4881889763779528,
                    "duration": 0.06119791666662877
                },
                {
                    "name": "C3",
                    "midi": 48,
                    "time": 638.125,
                    "velocity": 0.4881889763779528,
                    "duration": 0.06119791666662877
                },
                {
                    "name": "G3",
                    "midi": 55,
                    "time": 638.4375,
                    "velocity": 0.4881889763779528,
                    "duration": 0.06119791666662877
                },
                {
                    "name": "D3",
                    "midi": 50,
                    "time": 638.75,
                    "velocity": 0.4881889763779528,
                    "duration": 0.06119791666662877
                },
                {
                    "name": "G3",
                    "midi": 55,
                    "time": 639.0625,
                    "velocity": 0.4881889763779528,
                    "duration": 0.06119791666662877
                },
                {
                    "name": "C3",
                    "midi": 48,
                    "time": 639.375,
                    "velocity": 0.4881889763779528,
                    "duration": 0.06119791666662877
                },
                {
                    "name": "G3",
                    "midi": 55,
                    "time": 639.6875,
                    "velocity": 0.4881889763779528,
                    "duration": 0.06119791666662877
                },
                {
                    "name": "B2",
                    "midi": 47,
                    "time": 640,
                    "velocity": 0.4881889763779528,
                    "duration": 0.06119791666662877
                },
                {
                    "name": "E3",
                    "midi": 52,
                    "time": 640.3125,
                    "velocity": 0.4881889763779528,
                    "duration": 0.06119791666662877
                },
                {
                    "name": "A2",
                    "midi": 45,
                    "time": 640.625,
                    "velocity": 0.4881889763779528,
                    "duration": 0.06119791666662877
                },
                {
                    "name": "E3",
                    "midi": 52,
                    "time": 640.9375,
                    "velocity": 0.4881889763779528,
                    "duration": 0.06119791666662877
                },
                {
                    "name": "B2",
                    "midi": 47,
                    "time": 641.25,
                    "velocity": 0.4881889763779528,
                    "duration": 0.06119791666662877
                },
                {
                    "name": "E3",
                    "midi": 52,
                    "time": 641.5625,
                    "velocity": 0.4881889763779528,
                    "duration": 0.06119791666662877
                },
                {
                    "name": "A2",
                    "midi": 45,
                    "time": 641.875,
                    "velocity": 0.4881889763779528,
                    "duration": 0.06119791666662877
                },
                {
                    "name": "E3",
                    "midi": 52,
                    "time": 642.1875,
                    "velocity": 0.4881889763779528,
                    "duration": 0.06119791666662877
                },
                {
                    "name": "B2",
                    "midi": 47,
                    "time": 642.5,
                    "velocity": 0.4881889763779528,
                    "duration": 0.06119791666662877
                },
                {
                    "name": "E3",
                    "midi": 52,
                    "time": 642.8125,
                    "velocity": 0.4881889763779528,
                    "duration": 0.06119791666662877
                },
                {
                    "name": "A2",
                    "midi": 45,
                    "time": 643.125,
                    "velocity": 0.4881889763779528,
                    "duration": 0.06119791666662877
                },
                {
                    "name": "E3",
                    "midi": 52,
                    "time": 643.4375,
                    "velocity": 0.4881889763779528,
                    "duration": 0.06119791666662877
                },
                {
                    "name": "B2",
                    "midi": 47,
                    "time": 643.75,
                    "velocity": 0.4881889763779528,
                    "duration": 0.06119791666662877
                },
                {
                    "name": "E3",
                    "midi": 52,
                    "time": 644.0625,
                    "velocity": 0.4881889763779528,
                    "duration": 0.06119791666662877
                },
                {
                    "name": "A2",
                    "midi": 45,
                    "time": 644.375,
                    "velocity": 0.4881889763779528,
                    "duration": 0.06119791666662877
                },
                {
                    "name": "E3",
                    "midi": 52,
                    "time": 644.6875,
                    "velocity": 0.4881889763779528,
                    "duration": 0.06119791666662877
                },
                {
                    "name": "B2",
                    "midi": 47,
                    "time": 645,
                    "velocity": 0.4881889763779528,
                    "duration": 0.06119791666662877
                },
                {
                    "name": "E3",
                    "midi": 52,
                    "time": 645.3125,
                    "velocity": 0.4881889763779528,
                    "duration": 0.06119791666662877
                },
                {
                    "name": "A2",
                    "midi": 45,
                    "time": 645.625,
                    "velocity": 0.4881889763779528,
                    "duration": 0.06119791666662877
                },
                {
                    "name": "E3",
                    "midi": 52,
                    "time": 645.9375,
                    "velocity": 0.4881889763779528,
                    "duration": 0.06119791666662877
                },
                {
                    "name": "B2",
                    "midi": 47,
                    "time": 646.25,
                    "velocity": 0.4881889763779528,
                    "duration": 0.06119791666662877
                },
                {
                    "name": "E3",
                    "midi": 52,
                    "time": 646.5625,
                    "velocity": 0.4881889763779528,
                    "duration": 0.06119791666662877
                },
                {
                    "name": "A2",
                    "midi": 45,
                    "time": 646.875,
                    "velocity": 0.4881889763779528,
                    "duration": 0.06119791666662877
                },
                {
                    "name": "E3",
                    "midi": 52,
                    "time": 647.1875,
                    "velocity": 0.4881889763779528,
                    "duration": 0.06119791666662877
                },
                {
                    "name": "E3",
                    "midi": 52,
                    "time": 648.75,
                    "velocity": 0.4881889763779528,
                    "duration": 0.625
                },
                {
                    "name": "G#3",
                    "midi": 56,
                    "time": 648.75,
                    "velocity": 0.4881889763779528,
                    "duration": 0.625
                },
                {
                    "name": "B3",
                    "midi": 59,
                    "time": 648.75,
                    "velocity": 0.4881889763779528,
                    "duration": 0.625
                },
                {
                    "name": "D4",
                    "midi": 62,
                    "time": 648.75,
                    "velocity": 0.4881889763779528,
                    "duration": 0.625
                },
                {
                    "name": "D3",
                    "midi": 50,
                    "time": 649.375,
                    "velocity": 0.4881889763779528,
                    "duration": 0.06119791666662877
                },
                {
                    "name": "F#3",
                    "midi": 54,
                    "time": 649.375,
                    "velocity": 0.4881889763779528,
                    "duration": 0.06119791666662877
                },
                {
                    "name": "A3",
                    "midi": 57,
                    "time": 649.375,
                    "velocity": 0.4881889763779528,
                    "duration": 0.06119791666662877
                },
                {
                    "name": "C#4",
                    "midi": 61,
                    "time": 649.375,
                    "velocity": 0.4881889763779528,
                    "duration": 0.06119791666662877
                },
                {
                    "name": "D3",
                    "midi": 50,
                    "time": 649.6875,
                    "velocity": 0.4881889763779528,
                    "duration": 0.06119791666662877
                },
                {
                    "name": "F#3",
                    "midi": 54,
                    "time": 649.6875,
                    "velocity": 0.4881889763779528,
                    "duration": 0.06119791666662877
                },
                {
                    "name": "A3",
                    "midi": 57,
                    "time": 649.6875,
                    "velocity": 0.4881889763779528,
                    "duration": 0.06119791666662877
                },
                {
                    "name": "C#4",
                    "midi": 61,
                    "time": 649.6875,
                    "velocity": 0.4881889763779528,
                    "duration": 0.06119791666662877
                },
                {
                    "name": "C#3",
                    "midi": 49,
                    "time": 650,
                    "velocity": 0.4881889763779528,
                    "duration": 0.625
                },
                {
                    "name": "E3",
                    "midi": 52,
                    "time": 650,
                    "velocity": 0.4881889763779528,
                    "duration": 0.625
                },
                {
                    "name": "G#3",
                    "midi": 56,
                    "time": 650,
                    "velocity": 0.4881889763779528,
                    "duration": 0.625
                },
                {
                    "name": "B3",
                    "midi": 59,
                    "time": 650,
                    "velocity": 0.4881889763779528,
                    "duration": 0.625
                },
                {
                    "name": "B2",
                    "midi": 47,
                    "time": 650.625,
                    "velocity": 0.4881889763779528,
                    "duration": 0.06119791666662877
                },
                {
                    "name": "D3",
                    "midi": 50,
                    "time": 650.625,
                    "velocity": 0.4881889763779528,
                    "duration": 0.06119791666662877
                },
                {
                    "name": "F#3",
                    "midi": 54,
                    "time": 650.625,
                    "velocity": 0.4881889763779528,
                    "duration": 0.06119791666662877
                },
                {
                    "name": "A3",
                    "midi": 57,
                    "time": 650.625,
                    "velocity": 0.4881889763779528,
                    "duration": 0.06119791666662877
                },
                {
                    "name": "B2",
                    "midi": 47,
                    "time": 650.9375,
                    "velocity": 0.4881889763779528,
                    "duration": 0.06119791666662877
                },
                {
                    "name": "D#3",
                    "midi": 51,
                    "time": 650.9375,
                    "velocity": 0.4881889763779528,
                    "duration": 0.06119791666662877
                },
                {
                    "name": "G3",
                    "midi": 55,
                    "time": 650.9375,
                    "velocity": 0.4881889763779528,
                    "duration": 0.06119791666662877
                },
                {
                    "name": "B2",
                    "midi": 47,
                    "time": 651.25,
                    "velocity": 0.4881889763779528,
                    "duration": 1.25
                },
                {
                    "name": "B2",
                    "midi": 47,
                    "time": 660,
                    "velocity": 0.4881889763779528,
                    "duration": 0.3125
                },
                {
                    "name": "E2",
                    "midi": 40,
                    "time": 660.3125,
                    "velocity": 0.4881889763779528,
                    "duration": 0.3125
                },
                {
                    "name": "A1",
                    "midi": 33,
                    "time": 660.625,
                    "velocity": 0.4881889763779528,
                    "duration": 0.06119791666662877
                },
                {
                    "name": "E3",
                    "midi": 52,
                    "time": 660.9375,
                    "velocity": 0.4881889763779528,
                    "duration": 0.06119791666662877
                },
                {
                    "name": "D3",
                    "midi": 50,
                    "time": 661.25,
                    "velocity": 0.4881889763779528,
                    "duration": 0.3125
                },
                {
                    "name": "G2",
                    "midi": 43,
                    "time": 661.5625,
                    "velocity": 0.4881889763779528,
                    "duration": 0.3125
                },
                {
                    "name": "C2",
                    "midi": 36,
                    "time": 661.875,
                    "velocity": 0.4881889763779528,
                    "duration": 0.06119791666662877
                },
                {
                    "name": "G3",
                    "midi": 55,
                    "time": 662.1875,
                    "velocity": 0.4881889763779528,
                    "duration": 0.06119791666662877
                },
                {
                    "name": "D3",
                    "midi": 50,
                    "time": 662.5,
                    "velocity": 0.4881889763779528,
                    "duration": 0.3125
                },
                {
                    "name": "G2",
                    "midi": 43,
                    "time": 662.8125,
                    "velocity": 0.4881889763779528,
                    "duration": 0.3125
                },
                {
                    "name": "C2",
                    "midi": 36,
                    "time": 663.125,
                    "velocity": 0.4881889763779528,
                    "duration": 0.06119791666662877
                },
                {
                    "name": "G3",
                    "midi": 55,
                    "time": 663.4375,
                    "velocity": 0.4881889763779528,
                    "duration": 0.06119791666662877
                },
                {
                    "name": "D3",
                    "midi": 50,
                    "time": 663.75,
                    "velocity": 0.4881889763779528,
                    "duration": 0.3125
                },
                {
                    "name": "G2",
                    "midi": 43,
                    "time": 664.0625,
                    "velocity": 0.4881889763779528,
                    "duration": 0.3125
                },
                {
                    "name": "C2",
                    "midi": 36,
                    "time": 664.375,
                    "velocity": 0.4881889763779528,
                    "duration": 0.06119791666662877
                },
                {
                    "name": "G3",
                    "midi": 55,
                    "time": 664.6875,
                    "velocity": 0.4881889763779528,
                    "duration": 0.06119791666662877
                },
                {
                    "name": "D3",
                    "midi": 50,
                    "time": 665,
                    "velocity": 0.4881889763779528,
                    "duration": 0.3125
                },
                {
                    "name": "G2",
                    "midi": 43,
                    "time": 665.3125,
                    "velocity": 0.4881889763779528,
                    "duration": 0.3125
                },
                {
                    "name": "C2",
                    "midi": 36,
                    "time": 665.625,
                    "velocity": 0.4881889763779528,
                    "duration": 0.06119791666662877
                },
                {
                    "name": "G3",
                    "midi": 55,
                    "time": 665.9375,
                    "velocity": 0.4881889763779528,
                    "duration": 0.06119791666662877
                },
                {
                    "name": "D3",
                    "midi": 50,
                    "time": 666.25,
                    "velocity": 0.4881889763779528,
                    "duration": 0.3125
                },
                {
                    "name": "G2",
                    "midi": 43,
                    "time": 666.5625,
                    "velocity": 0.4881889763779528,
                    "duration": 0.3125
                },
                {
                    "name": "C2",
                    "midi": 36,
                    "time": 666.875,
                    "velocity": 0.4881889763779528,
                    "duration": 0.06119791666662877
                },
                {
                    "name": "G3",
                    "midi": 55,
                    "time": 667.1875,
                    "velocity": 0.4881889763779528,
                    "duration": 0.06119791666662877
                },
                {
                    "name": "F3",
                    "midi": 53,
                    "time": 667.5,
                    "velocity": 0.4881889763779528,
                    "duration": 0.3125
                },
                {
                    "name": "A#2",
                    "midi": 46,
                    "time": 667.8125,
                    "velocity": 0.4881889763779528,
                    "duration": 0.3125
                },
                {
                    "name": "D#2",
                    "midi": 39,
                    "time": 668.125,
                    "velocity": 0.4881889763779528,
                    "duration": 0.06119791666662877
                },
                {
                    "name": "A#3",
                    "midi": 58,
                    "time": 668.4375,
                    "velocity": 0.4881889763779528,
                    "duration": 0.06119791666662877
                },
                {
                    "name": "F3",
                    "midi": 53,
                    "time": 668.75,
                    "velocity": 0.4881889763779528,
                    "duration": 0.3125
                },
                {
                    "name": "A#2",
                    "midi": 46,
                    "time": 669.0625,
                    "velocity": 0.4881889763779528,
                    "duration": 0.3125
                },
                {
                    "name": "D#2",
                    "midi": 39,
                    "time": 669.375,
                    "velocity": 0.4881889763779528,
                    "duration": 0.06119791666662877
                },
                {
                    "name": "A#3",
                    "midi": 58,
                    "time": 669.6875,
                    "velocity": 0.4881889763779528,
                    "duration": 0.06119791666662877
                },
                {
                    "name": "A#2",
                    "midi": 46,
                    "time": 712.5,
                    "velocity": 0.6929133858267716,
                    "duration": 0.20703125
                },
                {
                    "name": "D#3",
                    "midi": 51,
                    "time": 712.5,
                    "velocity": 0.6929133858267716,
                    "duration": 0.20703125
                },
                {
                    "name": "G3",
                    "midi": 55,
                    "time": 712.5,
                    "velocity": 0.6929133858267716,
                    "duration": 0.20703125
                },
                {
                    "name": "C3",
                    "midi": 48,
                    "time": 712.70703125,
                    "velocity": 0.6929133858267716,
                    "duration": 0.20963541666662877
                },
                {
                    "name": "F3",
                    "midi": 53,
                    "time": 712.70703125,
                    "velocity": 0.6929133858267716,
                    "duration": 0.20963541666662877
                },
                {
                    "name": "G#3",
                    "midi": 56,
                    "time": 712.70703125,
                    "velocity": 0.6929133858267716,
                    "duration": 0.20963541666662877
                },
                {
                    "name": "D3",
                    "midi": 50,
                    "time": 712.9166666666666,
                    "velocity": 0.6929133858267716,
                    "duration": 0.20833333333337123
                },
                {
                    "name": "G3",
                    "midi": 55,
                    "time": 712.9166666666666,
                    "velocity": 0.6929133858267716,
                    "duration": 0.20833333333337123
                },
                {
                    "name": "A#3",
                    "midi": 58,
                    "time": 712.9166666666666,
                    "velocity": 0.6929133858267716,
                    "duration": 0.20833333333337123
                },
                {
                    "name": "D3",
                    "midi": 50,
                    "time": 713.125,
                    "velocity": 0.6929133858267716,
                    "duration": 0.20703125
                },
                {
                    "name": "G3",
                    "midi": 55,
                    "time": 713.125,
                    "velocity": 0.6929133858267716,
                    "duration": 0.20703125
                },
                {
                    "name": "A#3",
                    "midi": 58,
                    "time": 713.125,
                    "velocity": 0.6929133858267716,
                    "duration": 0.20703125
                },
                {
                    "name": "C3",
                    "midi": 48,
                    "time": 713.33203125,
                    "velocity": 0.6929133858267716,
                    "duration": 0.20963541666662877
                },
                {
                    "name": "F3",
                    "midi": 53,
                    "time": 713.33203125,
                    "velocity": 0.6929133858267716,
                    "duration": 0.20963541666662877
                },
                {
                    "name": "G#3",
                    "midi": 56,
                    "time": 713.33203125,
                    "velocity": 0.6929133858267716,
                    "duration": 0.20963541666662877
                },
                {
                    "name": "A#2",
                    "midi": 46,
                    "time": 713.5416666666666,
                    "velocity": 0.6929133858267716,
                    "duration": 0.20833333333337123
                },
                {
                    "name": "D#3",
                    "midi": 51,
                    "time": 713.5416666666666,
                    "velocity": 0.6929133858267716,
                    "duration": 0.20833333333337123
                },
                {
                    "name": "G3",
                    "midi": 55,
                    "time": 713.5416666666666,
                    "velocity": 0.6929133858267716,
                    "duration": 0.20833333333337123
                },
                {
                    "name": "B2",
                    "midi": 47,
                    "time": 714.0625,
                    "velocity": 0.6929133858267716,
                    "duration": 0.3125
                },
                {
                    "name": "E3",
                    "midi": 52,
                    "time": 714.0625,
                    "velocity": 0.6929133858267716,
                    "duration": 0.3125
                },
                {
                    "name": "G#3",
                    "midi": 56,
                    "time": 714.0625,
                    "velocity": 0.6929133858267716,
                    "duration": 0.3125
                },
                {
                    "name": "C3",
                    "midi": 48,
                    "time": 714.375,
                    "velocity": 0.6929133858267716,
                    "duration": 0.3125
                },
                {
                    "name": "F3",
                    "midi": 53,
                    "time": 714.375,
                    "velocity": 0.6929133858267716,
                    "duration": 0.3125
                },
                {
                    "name": "A3",
                    "midi": 57,
                    "time": 714.375,
                    "velocity": 0.6929133858267716,
                    "duration": 0.3125
                },
                {
                    "name": "C#3",
                    "midi": 49,
                    "time": 714.6875,
                    "velocity": 0.6929133858267716,
                    "duration": 0.3125
                },
                {
                    "name": "F#3",
                    "midi": 54,
                    "time": 714.6875,
                    "velocity": 0.6929133858267716,
                    "duration": 0.3125
                },
                {
                    "name": "A#3",
                    "midi": 58,
                    "time": 714.6875,
                    "velocity": 0.6929133858267716,
                    "duration": 0.3125
                },
                {
                    "name": "D3",
                    "midi": 50,
                    "time": 715,
                    "velocity": 0.6929133858267716,
                    "duration": 0.20703125
                },
                {
                    "name": "F3",
                    "midi": 53,
                    "time": 715,
                    "velocity": 0.6929133858267716,
                    "duration": 0.20703125
                },
                {
                    "name": "A#3",
                    "midi": 58,
                    "time": 715,
                    "velocity": 0.6929133858267716,
                    "duration": 0.20703125
                },
                {
                    "name": "D#3",
                    "midi": 51,
                    "time": 715.20703125,
                    "velocity": 0.6929133858267716,
                    "duration": 0.20963541666662877
                },
                {
                    "name": "G3",
                    "midi": 55,
                    "time": 715.20703125,
                    "velocity": 0.6929133858267716,
                    "duration": 0.20963541666662877
                },
                {
                    "name": "C4",
                    "midi": 60,
                    "time": 715.20703125,
                    "velocity": 0.6929133858267716,
                    "duration": 0.20963541666662877
                },
                {
                    "name": "F3",
                    "midi": 53,
                    "time": 715.4166666666666,
                    "velocity": 0.6929133858267716,
                    "duration": 0.20833333333337123
                },
                {
                    "name": "A3",
                    "midi": 57,
                    "time": 715.4166666666666,
                    "velocity": 0.6929133858267716,
                    "duration": 0.20833333333337123
                },
                {
                    "name": "D4",
                    "midi": 62,
                    "time": 715.4166666666666,
                    "velocity": 0.6929133858267716,
                    "duration": 0.20833333333337123
                },
                {
                    "name": "F3",
                    "midi": 53,
                    "time": 715.625,
                    "velocity": 0.6929133858267716,
                    "duration": 0.20703125
                },
                {
                    "name": "A3",
                    "midi": 57,
                    "time": 715.625,
                    "velocity": 0.6929133858267716,
                    "duration": 0.20703125
                },
                {
                    "name": "D4",
                    "midi": 62,
                    "time": 715.625,
                    "velocity": 0.6929133858267716,
                    "duration": 0.20703125
                },
                {
                    "name": "D#3",
                    "midi": 51,
                    "time": 715.83203125,
                    "velocity": 0.6929133858267716,
                    "duration": 0.20963541666662877
                },
                {
                    "name": "G3",
                    "midi": 55,
                    "time": 715.83203125,
                    "velocity": 0.6929133858267716,
                    "duration": 0.20963541666662877
                },
                {
                    "name": "C4",
                    "midi": 60,
                    "time": 715.83203125,
                    "velocity": 0.6929133858267716,
                    "duration": 0.20963541666662877
                },
                {
                    "name": "D3",
                    "midi": 50,
                    "time": 716.0416666666666,
                    "velocity": 0.6929133858267716,
                    "duration": 0.20833333333337123
                },
                {
                    "name": "F3",
                    "midi": 53,
                    "time": 716.0416666666666,
                    "velocity": 0.6929133858267716,
                    "duration": 0.20833333333337123
                },
                {
                    "name": "A#3",
                    "midi": 58,
                    "time": 716.0416666666666,
                    "velocity": 0.6929133858267716,
                    "duration": 0.20833333333337123
                },
                {
                    "name": "D#3",
                    "midi": 51,
                    "time": 716.5625,
                    "velocity": 0.6929133858267716,
                    "duration": 0.3125
                },
                {
                    "name": "F#3",
                    "midi": 54,
                    "time": 716.5625,
                    "velocity": 0.6929133858267716,
                    "duration": 0.3125
                },
                {
                    "name": "B3",
                    "midi": 59,
                    "time": 716.5625,
                    "velocity": 0.6929133858267716,
                    "duration": 0.3125
                },
                {
                    "name": "E3",
                    "midi": 52,
                    "time": 716.875,
                    "velocity": 0.6929133858267716,
                    "duration": 0.3125
                },
                {
                    "name": "G3",
                    "midi": 55,
                    "time": 716.875,
                    "velocity": 0.6929133858267716,
                    "duration": 0.3125
                },
                {
                    "name": "C4",
                    "midi": 60,
                    "time": 716.875,
                    "velocity": 0.6929133858267716,
                    "duration": 0.3125
                },
                {
                    "name": "F3",
                    "midi": 53,
                    "time": 717.1875,
                    "velocity": 0.6929133858267716,
                    "duration": 0.3125
                },
                {
                    "name": "G#3",
                    "midi": 56,
                    "time": 717.1875,
                    "velocity": 0.6929133858267716,
                    "duration": 0.3125
                },
                {
                    "name": "C#4",
                    "midi": 61,
                    "time": 717.1875,
                    "velocity": 0.6929133858267716,
                    "duration": 0.3125
                },
                {
                    "name": "C2",
                    "midi": 36,
                    "time": 717.5,
                    "velocity": 0.7952755905511811,
                    "duration": 2.1875
                },
                {
                    "name": "C3",
                    "midi": 48,
                    "time": 717.5,
                    "velocity": 0.7952755905511811,
                    "duration": 2.1875
                },
                {
                    "name": "F#2",
                    "midi": 42,
                    "time": 719.6875,
                    "velocity": 0.7952755905511811,
                    "duration": 0.10416666666662877
                },
                {
                    "name": "G#2",
                    "midi": 44,
                    "time": 719.7916666666666,
                    "velocity": 0.7952755905511811,
                    "duration": 0.10286458333337123
                },
                {
                    "name": "A#2",
                    "midi": 46,
                    "time": 719.89453125,
                    "velocity": 0.7952755905511811,
                    "duration": 0.10546875
                },
                {
                    "name": "C2",
                    "midi": 36,
                    "time": 720,
                    "velocity": 0.7952755905511811,
                    "duration": 2.1875
                },
                {
                    "name": "C3",
                    "midi": 48,
                    "time": 720,
                    "velocity": 0.7952755905511811,
                    "duration": 2.1875
                },
                {
                    "name": "C3",
                    "midi": 48,
                    "time": 722.1875,
                    "velocity": 0.7952755905511811,
                    "duration": 0.10416666666662877
                },
                {
                    "name": "A#2",
                    "midi": 46,
                    "time": 722.2916666666666,
                    "velocity": 0.7952755905511811,
                    "duration": 0.10286458333337123
                },
                {
                    "name": "G#2",
                    "midi": 44,
                    "time": 722.39453125,
                    "velocity": 0.7952755905511811,
                    "duration": 0.10546875
                },
                {
                    "name": "G1",
                    "midi": 31,
                    "time": 722.5,
                    "velocity": 0.7952755905511811,
                    "duration": 2.5
                },
                {
                    "name": "G2",
                    "midi": 43,
                    "time": 722.5,
                    "velocity": 0.7952755905511811,
                    "duration": 2.5
                },
                {
                    "name": "G2",
                    "midi": 43,
                    "time": 725,
                    "velocity": 0.7952755905511811,
                    "duration": 0.3125
                },
                {
                    "name": "A1",
                    "midi": 33,
                    "time": 725.3125,
                    "velocity": 0.7952755905511811,
                    "duration": 0.3125
                },
                {
                    "name": "A#1",
                    "midi": 34,
                    "time": 725.625,
                    "velocity": 0.7952755905511811,
                    "duration": 0.3125
                },
                {
                    "name": "A2",
                    "midi": 45,
                    "time": 725.9375,
                    "velocity": 0.7952755905511811,
                    "duration": 0.3125
                },
                {
                    "name": "G2",
                    "midi": 43,
                    "time": 726.25,
                    "velocity": 0.7952755905511811,
                    "duration": 0.3125
                },
                {
                    "name": "G1",
                    "midi": 31,
                    "time": 726.5625,
                    "velocity": 0.7952755905511811,
                    "duration": 0.15625
                },
                {
                    "name": "A1",
                    "midi": 33,
                    "time": 726.71875,
                    "velocity": 0.7952755905511811,
                    "duration": 0.15625
                },
                {
                    "name": "A#1",
                    "midi": 34,
                    "time": 726.875,
                    "velocity": 0.7952755905511811,
                    "duration": 0.3125
                },
                {
                    "name": "C2",
                    "midi": 36,
                    "time": 727.1875,
                    "velocity": 0.7952755905511811,
                    "duration": 0.3125
                },
                {
                    "name": "D2",
                    "midi": 38,
                    "time": 727.5,
                    "velocity": 0.7952755905511811,
                    "duration": 0.625
                },
                {
                    "name": "E2",
                    "midi": 40,
                    "time": 728.125,
                    "velocity": 0.7952755905511811,
                    "duration": 0.625
                },
                {
                    "name": "F1",
                    "midi": 29,
                    "time": 728.75,
                    "velocity": 0.7952755905511811,
                    "duration": 0.3125
                },
                {
                    "name": "F2",
                    "midi": 41,
                    "time": 728.75,
                    "velocity": 0.7952755905511811,
                    "duration": 0.3125
                },
                {
                    "name": "F1",
                    "midi": 29,
                    "time": 729.375,
                    "velocity": 0.7952755905511811,
                    "duration": 0.3125
                },
                {
                    "name": "F2",
                    "midi": 41,
                    "time": 729.375,
                    "velocity": 0.7952755905511811,
                    "duration": 0.3125
                },
                {
                    "name": "G#2",
                    "midi": 44,
                    "time": 730,
                    "velocity": 0.7952755905511811,
                    "duration": 0.3125
                },
                {
                    "name": "G#3",
                    "midi": 56,
                    "time": 730,
                    "velocity": 0.7952755905511811,
                    "duration": 0.3125
                },
                {
                    "name": "F#2",
                    "midi": 42,
                    "time": 730.3125,
                    "velocity": 0.7952755905511811,
                    "duration": 0.3125
                },
                {
                    "name": "F#3",
                    "midi": 54,
                    "time": 730.3125,
                    "velocity": 0.7952755905511811,
                    "duration": 0.3125
                },
                {
                    "name": "E2",
                    "midi": 40,
                    "time": 730.625,
                    "velocity": 0.7952755905511811,
                    "duration": 0.15625
                },
                {
                    "name": "E3",
                    "midi": 52,
                    "time": 730.625,
                    "velocity": 0.7952755905511811,
                    "duration": 0.15625
                },
                {
                    "name": "D2",
                    "midi": 38,
                    "time": 730.78125,
                    "velocity": 0.7952755905511811,
                    "duration": 0.15625
                },
                {
                    "name": "D3",
                    "midi": 50,
                    "time": 730.78125,
                    "velocity": 0.7952755905511811,
                    "duration": 0.15625
                },
                {
                    "name": "C#2",
                    "midi": 37,
                    "time": 730.9375,
                    "velocity": 0.7952755905511811,
                    "duration": 0.3125
                },
                {
                    "name": "C#3",
                    "midi": 49,
                    "time": 730.9375,
                    "velocity": 0.7952755905511811,
                    "duration": 0.3125
                },
                {
                    "name": "C2",
                    "midi": 36,
                    "time": 731.25,
                    "velocity": 0.7952755905511811,
                    "duration": 0.3125
                },
                {
                    "name": "C3",
                    "midi": 48,
                    "time": 731.25,
                    "velocity": 0.7952755905511811,
                    "duration": 0.3125
                },
                {
                    "name": "C2",
                    "midi": 36,
                    "time": 731.875,
                    "velocity": 0.7952755905511811,
                    "duration": 0.3125
                },
                {
                    "name": "C3",
                    "midi": 48,
                    "time": 731.875,
                    "velocity": 0.7952755905511811,
                    "duration": 0.3125
                },
                {
                    "name": "D#3",
                    "midi": 51,
                    "time": 732.5,
                    "velocity": 0.7952755905511811,
                    "duration": 0.3125
                },
                {
                    "name": "D#4",
                    "midi": 63,
                    "time": 732.5,
                    "velocity": 0.7952755905511811,
                    "duration": 0.3125
                },
                {
                    "name": "C#3",
                    "midi": 49,
                    "time": 732.8125,
                    "velocity": 0.7952755905511811,
                    "duration": 0.3125
                },
                {
                    "name": "C#4",
                    "midi": 61,
                    "time": 732.8125,
                    "velocity": 0.7952755905511811,
                    "duration": 0.3125
                },
                {
                    "name": "B2",
                    "midi": 47,
                    "time": 733.125,
                    "velocity": 0.7952755905511811,
                    "duration": 0.15625
                },
                {
                    "name": "B3",
                    "midi": 59,
                    "time": 733.125,
                    "velocity": 0.7952755905511811,
                    "duration": 0.15625
                },
                {
                    "name": "A2",
                    "midi": 45,
                    "time": 733.28125,
                    "velocity": 0.7952755905511811,
                    "duration": 0.15625
                },
                {
                    "name": "A3",
                    "midi": 57,
                    "time": 733.28125,
                    "velocity": 0.7952755905511811,
                    "duration": 0.15625
                },
                {
                    "name": "G#2",
                    "midi": 44,
                    "time": 733.4375,
                    "velocity": 0.7952755905511811,
                    "duration": 0.3125
                },
                {
                    "name": "G#3",
                    "midi": 56,
                    "time": 733.4375,
                    "velocity": 0.7952755905511811,
                    "duration": 0.3125
                },
                {
                    "name": "G2",
                    "midi": 43,
                    "time": 733.75,
                    "velocity": 0.7952755905511811,
                    "duration": 0.3125
                },
                {
                    "name": "G3",
                    "midi": 55,
                    "time": 733.75,
                    "velocity": 0.7952755905511811,
                    "duration": 0.3125
                },
                {
                    "name": "A1",
                    "midi": 33,
                    "time": 734.0625,
                    "velocity": 0.7952755905511811,
                    "duration": 0.3125
                },
                {
                    "name": "B1",
                    "midi": 35,
                    "time": 734.375,
                    "velocity": 0.7952755905511811,
                    "duration": 0.3125
                },
                {
                    "name": "B2",
                    "midi": 47,
                    "time": 734.375,
                    "velocity": 0.7952755905511811,
                    "duration": 0.3125
                },
                {
                    "name": "A2",
                    "midi": 45,
                    "time": 734.6875,
                    "velocity": 0.7952755905511811,
                    "duration": 0.3125
                },
                {
                    "name": "A3",
                    "midi": 57,
                    "time": 734.6875,
                    "velocity": 0.7952755905511811,
                    "duration": 0.3125
                },
                {
                    "name": "G2",
                    "midi": 43,
                    "time": 735,
                    "velocity": 0.7952755905511811,
                    "duration": 0.3125
                },
                {
                    "name": "G3",
                    "midi": 55,
                    "time": 735,
                    "velocity": 0.7952755905511811,
                    "duration": 0.3125
                },
                {
                    "name": "A1",
                    "midi": 33,
                    "time": 735.3125,
                    "velocity": 0.7952755905511811,
                    "duration": 0.15625
                },
                {
                    "name": "A2",
                    "midi": 45,
                    "time": 735.3125,
                    "velocity": 0.7952755905511811,
                    "duration": 0.15625
                },
                {
                    "name": "B1",
                    "midi": 35,
                    "time": 735.46875,
                    "velocity": 0.7952755905511811,
                    "duration": 0.15625
                },
                {
                    "name": "B2",
                    "midi": 47,
                    "time": 735.46875,
                    "velocity": 0.7952755905511811,
                    "duration": 0.15625
                },
                {
                    "name": "C2",
                    "midi": 36,
                    "time": 735.625,
                    "velocity": 0.7952755905511811,
                    "duration": 0.3125
                },
                {
                    "name": "C3",
                    "midi": 48,
                    "time": 735.625,
                    "velocity": 0.7952755905511811,
                    "duration": 0.3125
                },
                {
                    "name": "D2",
                    "midi": 38,
                    "time": 735.9375,
                    "velocity": 0.7952755905511811,
                    "duration": 0.3125
                },
                {
                    "name": "D3",
                    "midi": 50,
                    "time": 735.9375,
                    "velocity": 0.7952755905511811,
                    "duration": 0.3125
                },
                {
                    "name": "E2",
                    "midi": 40,
                    "time": 736.25,
                    "velocity": 0.7952755905511811,
                    "duration": 0.3125
                },
                {
                    "name": "E3",
                    "midi": 52,
                    "time": 736.25,
                    "velocity": 0.7952755905511811,
                    "duration": 0.3125
                },
                {
                    "name": "F1",
                    "midi": 29,
                    "time": 736.5625,
                    "velocity": 0.7952755905511811,
                    "duration": 0.3125
                },
                {
                    "name": "F2",
                    "midi": 41,
                    "time": 736.5625,
                    "velocity": 0.7952755905511811,
                    "duration": 0.3125
                },
                {
                    "name": "G1",
                    "midi": 31,
                    "time": 736.875,
                    "velocity": 0.7952755905511811,
                    "duration": 0.3125
                },
                {
                    "name": "G2",
                    "midi": 43,
                    "time": 736.875,
                    "velocity": 0.7952755905511811,
                    "duration": 0.3125
                },
                {
                    "name": "F2",
                    "midi": 41,
                    "time": 737.1875,
                    "velocity": 0.7952755905511811,
                    "duration": 0.3125
                },
                {
                    "name": "F3",
                    "midi": 53,
                    "time": 737.1875,
                    "velocity": 0.7952755905511811,
                    "duration": 0.3125
                },
                {
                    "name": "E2",
                    "midi": 40,
                    "time": 737.5,
                    "velocity": 0.7952755905511811,
                    "duration": 0.3125
                },
                {
                    "name": "E3",
                    "midi": 52,
                    "time": 737.5,
                    "velocity": 0.7952755905511811,
                    "duration": 0.3125
                },
                {
                    "name": "E1",
                    "midi": 28,
                    "time": 737.8125,
                    "velocity": 0.7952755905511811,
                    "duration": 0.15625
                },
                {
                    "name": "E2",
                    "midi": 40,
                    "time": 737.8125,
                    "velocity": 0.7952755905511811,
                    "duration": 0.15625
                },
                {
                    "name": "F1",
                    "midi": 29,
                    "time": 737.96875,
                    "velocity": 0.7952755905511811,
                    "duration": 0.15625
                },
                {
                    "name": "F2",
                    "midi": 41,
                    "time": 737.96875,
                    "velocity": 0.7952755905511811,
                    "duration": 0.15625
                },
                {
                    "name": "G1",
                    "midi": 31,
                    "time": 738.125,
                    "velocity": 0.7952755905511811,
                    "duration": 0.3125
                },
                {
                    "name": "G2",
                    "midi": 43,
                    "time": 738.125,
                    "velocity": 0.7952755905511811,
                    "duration": 0.3125
                },
                {
                    "name": "F2",
                    "midi": 41,
                    "time": 738.4375,
                    "velocity": 0.7952755905511811,
                    "duration": 0.3125
                },
                {
                    "name": "F3",
                    "midi": 53,
                    "time": 738.4375,
                    "velocity": 0.7952755905511811,
                    "duration": 0.3125
                },
                {
                    "name": "C3",
                    "midi": 48,
                    "time": 738.75,
                    "velocity": 0.7952755905511811,
                    "duration": 0.3125
                },
                {
                    "name": "D2",
                    "midi": 38,
                    "time": 739.0625,
                    "velocity": 0.7952755905511811,
                    "duration": 0.3125
                },
                {
                    "name": "E2",
                    "midi": 40,
                    "time": 739.375,
                    "velocity": 0.7952755905511811,
                    "duration": 0.3125
                },
                {
                    "name": "D3",
                    "midi": 50,
                    "time": 739.6875,
                    "velocity": 0.7952755905511811,
                    "duration": 0.3125
                },
                {
                    "name": "C3",
                    "midi": 48,
                    "time": 740,
                    "velocity": 0.7952755905511811,
                    "duration": 0.3125
                },
                {
                    "name": "C2",
                    "midi": 36,
                    "time": 740.3125,
                    "velocity": 0.7952755905511811,
                    "duration": 0.15625
                },
                {
                    "name": "D2",
                    "midi": 38,
                    "time": 740.46875,
                    "velocity": 0.7952755905511811,
                    "duration": 0.15625
                },
                {
                    "name": "E2",
                    "midi": 40,
                    "time": 740.625,
                    "velocity": 0.7952755905511811,
                    "duration": 0.3125
                },
                {
                    "name": "G2",
                    "midi": 43,
                    "time": 740.9375,
                    "velocity": 0.7952755905511811,
                    "duration": 0.3125
                },
                {
                    "name": "F2",
                    "midi": 41,
                    "time": 746.25,
                    "velocity": 0.4881889763779528,
                    "duration": 0.3125
                },
                {
                    "name": "C3",
                    "midi": 48,
                    "time": 746.25,
                    "velocity": 0.4881889763779528,
                    "duration": 0.3125
                },
                {
                    "name": "C3",
                    "midi": 48,
                    "time": 746.5625,
                    "velocity": 0.4881889763779528,
                    "duration": 0.15625
                },
                {
                    "name": "C3",
                    "midi": 48,
                    "time": 746.71875,
                    "velocity": 0.4881889763779528,
                    "duration": 0.15625
                },
                {
                    "name": "C3",
                    "midi": 48,
                    "time": 746.875,
                    "velocity": 0.4881889763779528,
                    "duration": 0.15625
                },
                {
                    "name": "C3",
                    "midi": 48,
                    "time": 747.03125,
                    "velocity": 0.4881889763779528,
                    "duration": 0.15625
                },
                {
                    "name": "F2",
                    "midi": 41,
                    "time": 747.1875,
                    "velocity": 0.4881889763779528,
                    "duration": 0.3125
                },
                {
                    "name": "C3",
                    "midi": 48,
                    "time": 747.1875,
                    "velocity": 0.4881889763779528,
                    "duration": 0.3125
                },
                {
                    "name": "F2",
                    "midi": 41,
                    "time": 747.5,
                    "velocity": 0.4881889763779528,
                    "duration": 0.3125
                },
                {
                    "name": "C3",
                    "midi": 48,
                    "time": 747.5,
                    "velocity": 0.4881889763779528,
                    "duration": 0.3125
                },
                {
                    "name": "C3",
                    "midi": 48,
                    "time": 747.8125,
                    "velocity": 0.4881889763779528,
                    "duration": 0.15625
                },
                {
                    "name": "C3",
                    "midi": 48,
                    "time": 747.96875,
                    "velocity": 0.4881889763779528,
                    "duration": 0.15625
                },
                {
                    "name": "C3",
                    "midi": 48,
                    "time": 748.125,
                    "velocity": 0.4881889763779528,
                    "duration": 0.15625
                },
                {
                    "name": "C3",
                    "midi": 48,
                    "time": 748.28125,
                    "velocity": 0.4881889763779528,
                    "duration": 0.15625
                },
                {
                    "name": "F2",
                    "midi": 41,
                    "time": 748.4375,
                    "velocity": 0.4881889763779528,
                    "duration": 0.3125
                },
                {
                    "name": "C3",
                    "midi": 48,
                    "time": 748.4375,
                    "velocity": 0.4881889763779528,
                    "duration": 0.3125
                },
                {
                    "name": "F2",
                    "midi": 41,
                    "time": 748.75,
                    "velocity": 0.4881889763779528,
                    "duration": 0.3125
                },
                {
                    "name": "C3",
                    "midi": 48,
                    "time": 748.75,
                    "velocity": 0.4881889763779528,
                    "duration": 0.3125
                },
                {
                    "name": "C3",
                    "midi": 48,
                    "time": 749.0625,
                    "velocity": 0.4881889763779528,
                    "duration": 0.15625
                },
                {
                    "name": "C3",
                    "midi": 48,
                    "time": 749.21875,
                    "velocity": 0.4881889763779528,
                    "duration": 0.15625
                },
                {
                    "name": "C3",
                    "midi": 48,
                    "time": 749.375,
                    "velocity": 0.4881889763779528,
                    "duration": 0.15625
                },
                {
                    "name": "C3",
                    "midi": 48,
                    "time": 749.53125,
                    "velocity": 0.4881889763779528,
                    "duration": 0.15625
                },
                {
                    "name": "F2",
                    "midi": 41,
                    "time": 749.6875,
                    "velocity": 0.4881889763779528,
                    "duration": 0.3125
                },
                {
                    "name": "C3",
                    "midi": 48,
                    "time": 749.6875,
                    "velocity": 0.4881889763779528,
                    "duration": 0.3125
                },
                {
                    "name": "F2",
                    "midi": 41,
                    "time": 750,
                    "velocity": 0.4881889763779528,
                    "duration": 0.3125
                },
                {
                    "name": "C3",
                    "midi": 48,
                    "time": 750,
                    "velocity": 0.4881889763779528,
                    "duration": 0.3125
                },
                {
                    "name": "C3",
                    "midi": 48,
                    "time": 750.3125,
                    "velocity": 0.4881889763779528,
                    "duration": 0.15625
                },
                {
                    "name": "C3",
                    "midi": 48,
                    "time": 750.46875,
                    "velocity": 0.4881889763779528,
                    "duration": 0.15625
                },
                {
                    "name": "C3",
                    "midi": 48,
                    "time": 750.625,
                    "velocity": 0.4881889763779528,
                    "duration": 0.15625
                },
                {
                    "name": "C3",
                    "midi": 48,
                    "time": 750.78125,
                    "velocity": 0.4881889763779528,
                    "duration": 0.15625
                },
                {
                    "name": "F2",
                    "midi": 41,
                    "time": 750.9375,
                    "velocity": 0.4881889763779528,
                    "duration": 0.3125
                },
                {
                    "name": "C3",
                    "midi": 48,
                    "time": 750.9375,
                    "velocity": 0.4881889763779528,
                    "duration": 0.3125
                },
                {
                    "name": "C3",
                    "midi": 48,
                    "time": 751.25,
                    "velocity": 0.6929133858267716,
                    "duration": 0.3125
                },
                {
                    "name": "C3",
                    "midi": 48,
                    "time": 751.5625,
                    "velocity": 0.4881889763779528,
                    "duration": 0.02994791666662877
                },
                {
                    "name": "C3",
                    "midi": 48,
                    "time": 751.71875,
                    "velocity": 0.4881889763779528,
                    "duration": 0.02994791666662877
                },
                {
                    "name": "C3",
                    "midi": 48,
                    "time": 751.875,
                    "velocity": 0.4881889763779528,
                    "duration": 0.02994791666662877
                },
                {
                    "name": "C3",
                    "midi": 48,
                    "time": 752.03125,
                    "velocity": 0.4881889763779528,
                    "duration": 0.02994791666662877
                },
                {
                    "name": "C3",
                    "midi": 48,
                    "time": 752.1875,
                    "velocity": 0.4881889763779528,
                    "duration": 0.02994791666662877
                },
                {
                    "name": "C3",
                    "midi": 48,
                    "time": 752.34375,
                    "velocity": 0.4881889763779528,
                    "duration": 0.02994791666662877
                },
                {
                    "name": "C3",
                    "midi": 48,
                    "time": 752.5,
                    "velocity": 0.6929133858267716,
                    "duration": 0.3125
                },
                {
                    "name": "C3",
                    "midi": 48,
                    "time": 752.8125,
                    "velocity": 0.4881889763779528,
                    "duration": 0.02994791666662877
                },
                {
                    "name": "C3",
                    "midi": 48,
                    "time": 752.96875,
                    "velocity": 0.4881889763779528,
                    "duration": 0.02994791666662877
                },
                {
                    "name": "C3",
                    "midi": 48,
                    "time": 753.125,
                    "velocity": 0.4881889763779528,
                    "duration": 0.02994791666662877
                },
                {
                    "name": "C3",
                    "midi": 48,
                    "time": 753.28125,
                    "velocity": 0.4881889763779528,
                    "duration": 0.02994791666662877
                },
                {
                    "name": "C3",
                    "midi": 48,
                    "time": 753.4375,
                    "velocity": 0.4881889763779528,
                    "duration": 0.02994791666662877
                },
                {
                    "name": "C3",
                    "midi": 48,
                    "time": 753.59375,
                    "velocity": 0.4881889763779528,
                    "duration": 0.02994791666662877
                },
                {
                    "name": "C3",
                    "midi": 48,
                    "time": 753.75,
                    "velocity": 0.6929133858267716,
                    "duration": 0.3125
                },
                {
                    "name": "C3",
                    "midi": 48,
                    "time": 754.0625,
                    "velocity": 0.4881889763779528,
                    "duration": 0.02994791666662877
                },
                {
                    "name": "C3",
                    "midi": 48,
                    "time": 754.21875,
                    "velocity": 0.4881889763779528,
                    "duration": 0.02994791666662877
                },
                {
                    "name": "C3",
                    "midi": 48,
                    "time": 754.375,
                    "velocity": 0.4881889763779528,
                    "duration": 0.02994791666662877
                },
                {
                    "name": "C3",
                    "midi": 48,
                    "time": 754.53125,
                    "velocity": 0.4881889763779528,
                    "duration": 0.02994791666662877
                },
                {
                    "name": "C3",
                    "midi": 48,
                    "time": 754.6875,
                    "velocity": 0.4881889763779528,
                    "duration": 0.02994791666662877
                },
                {
                    "name": "C3",
                    "midi": 48,
                    "time": 754.84375,
                    "velocity": 0.4881889763779528,
                    "duration": 0.02994791666662877
                },
                {
                    "name": "C3",
                    "midi": 48,
                    "time": 755,
                    "velocity": 0.6929133858267716,
                    "duration": 0.3125
                },
                {
                    "name": "C3",
                    "midi": 48,
                    "time": 755.3125,
                    "velocity": 0.4881889763779528,
                    "duration": 0.02994791666662877
                },
                {
                    "name": "C3",
                    "midi": 48,
                    "time": 755.46875,
                    "velocity": 0.4881889763779528,
                    "duration": 0.02994791666662877
                },
                {
                    "name": "C3",
                    "midi": 48,
                    "time": 755.625,
                    "velocity": 0.4881889763779528,
                    "duration": 0.02994791666662877
                },
                {
                    "name": "C3",
                    "midi": 48,
                    "time": 755.78125,
                    "velocity": 0.4881889763779528,
                    "duration": 0.02994791666662877
                },
                {
                    "name": "C3",
                    "midi": 48,
                    "time": 755.9375,
                    "velocity": 0.4881889763779528,
                    "duration": 0.02994791666662877
                },
                {
                    "name": "C3",
                    "midi": 48,
                    "time": 756.09375,
                    "velocity": 0.4881889763779528,
                    "duration": 0.02994791666662877
                },
                {
                    "name": "C3",
                    "midi": 48,
                    "time": 756.25,
                    "velocity": 0.6929133858267716,
                    "duration": 0.3125
                },
                {
                    "name": "C3",
                    "midi": 48,
                    "time": 756.5625,
                    "velocity": 0.4881889763779528,
                    "duration": 0.02994791666662877
                },
                {
                    "name": "C3",
                    "midi": 48,
                    "time": 756.71875,
                    "velocity": 0.4881889763779528,
                    "duration": 0.02994791666662877
                },
                {
                    "name": "C3",
                    "midi": 48,
                    "time": 756.875,
                    "velocity": 0.4881889763779528,
                    "duration": 0.02994791666662877
                },
                {
                    "name": "C3",
                    "midi": 48,
                    "time": 757.03125,
                    "velocity": 0.4881889763779528,
                    "duration": 0.02994791666662877
                },
                {
                    "name": "C3",
                    "midi": 48,
                    "time": 757.1875,
                    "velocity": 0.4881889763779528,
                    "duration": 0.02994791666662877
                },
                {
                    "name": "C3",
                    "midi": 48,
                    "time": 757.34375,
                    "velocity": 0.4881889763779528,
                    "duration": 0.02994791666662877
                },
                {
                    "name": "C3",
                    "midi": 48,
                    "time": 757.5,
                    "velocity": 0.6929133858267716,
                    "duration": 0.3125
                },
                {
                    "name": "C3",
                    "midi": 48,
                    "time": 757.8125,
                    "velocity": 0.4881889763779528,
                    "duration": 0.02994791666662877
                },
                {
                    "name": "C3",
                    "midi": 48,
                    "time": 757.96875,
                    "velocity": 0.4881889763779528,
                    "duration": 0.02994791666662877
                },
                {
                    "name": "C3",
                    "midi": 48,
                    "time": 758.125,
                    "velocity": 0.4881889763779528,
                    "duration": 0.02994791666662877
                },
                {
                    "name": "C3",
                    "midi": 48,
                    "time": 758.28125,
                    "velocity": 0.4881889763779528,
                    "duration": 0.02994791666662877
                },
                {
                    "name": "C3",
                    "midi": 48,
                    "time": 758.4375,
                    "velocity": 0.4881889763779528,
                    "duration": 0.02994791666662877
                },
                {
                    "name": "C3",
                    "midi": 48,
                    "time": 758.59375,
                    "velocity": 0.4881889763779528,
                    "duration": 0.02994791666662877
                },
                {
                    "name": "F4",
                    "midi": 65,
                    "time": 758.75,
                    "velocity": 0.4881889763779528,
                    "duration": 0.15625
                },
                {
                    "name": "F4",
                    "midi": 65,
                    "time": 758.90625,
                    "velocity": 0.4881889763779528,
                    "duration": 0.15625
                },
                {
                    "name": "F4",
                    "midi": 65,
                    "time": 759.0625,
                    "velocity": 0.4881889763779528,
                    "duration": 0.15625
                },
                {
                    "name": "F4",
                    "midi": 65,
                    "time": 759.21875,
                    "velocity": 0.4881889763779528,
                    "duration": 0.15625
                },
                {
                    "name": "G4",
                    "midi": 67,
                    "time": 759.375,
                    "velocity": 0.6929133858267716,
                    "duration": 0.3125
                },
                {
                    "name": "C4",
                    "midi": 60,
                    "time": 759.6875,
                    "velocity": 0.4881889763779528,
                    "duration": 0.15625
                },
                {
                    "name": "C4",
                    "midi": 60,
                    "time": 759.84375,
                    "velocity": 0.4881889763779528,
                    "duration": 0.15625
                },
                {
                    "name": "C4",
                    "midi": 60,
                    "time": 760,
                    "velocity": 0.4881889763779528,
                    "duration": 0.15625
                },
                {
                    "name": "C4",
                    "midi": 60,
                    "time": 760.15625,
                    "velocity": 0.4881889763779528,
                    "duration": 0.15625
                },
                {
                    "name": "D4",
                    "midi": 62,
                    "time": 760.3125,
                    "velocity": 0.6929133858267716,
                    "duration": 0.3125
                },
                {
                    "name": "F3",
                    "midi": 53,
                    "time": 760.625,
                    "velocity": 0.4881889763779528,
                    "duration": 0.15625
                },
                {
                    "name": "F3",
                    "midi": 53,
                    "time": 760.78125,
                    "velocity": 0.4881889763779528,
                    "duration": 0.15625
                },
                {
                    "name": "F3",
                    "midi": 53,
                    "time": 760.9375,
                    "velocity": 0.4881889763779528,
                    "duration": 0.15625
                },
                {
                    "name": "F3",
                    "midi": 53,
                    "time": 761.09375,
                    "velocity": 0.4881889763779528,
                    "duration": 0.15625
                },
                {
                    "name": "G3",
                    "midi": 55,
                    "time": 761.25,
                    "velocity": 0.6929133858267716,
                    "duration": 0.3125
                },
                {
                    "name": "F4",
                    "midi": 65,
                    "time": 761.5625,
                    "velocity": 0.4881889763779528,
                    "duration": 0.15625
                },
                {
                    "name": "F4",
                    "midi": 65,
                    "time": 761.71875,
                    "velocity": 0.4881889763779528,
                    "duration": 0.15625
                },
                {
                    "name": "F4",
                    "midi": 65,
                    "time": 761.875,
                    "velocity": 0.4881889763779528,
                    "duration": 0.15625
                },
                {
                    "name": "F4",
                    "midi": 65,
                    "time": 762.03125,
                    "velocity": 0.4881889763779528,
                    "duration": 0.15625
                },
                {
                    "name": "G4",
                    "midi": 67,
                    "time": 762.1875,
                    "velocity": 0.6929133858267716,
                    "duration": 0.3125
                },
                {
                    "name": "C4",
                    "midi": 60,
                    "time": 762.5,
                    "velocity": 0.4881889763779528,
                    "duration": 0.15625
                },
                {
                    "name": "C4",
                    "midi": 60,
                    "time": 762.65625,
                    "velocity": 0.4881889763779528,
                    "duration": 0.15625
                },
                {
                    "name": "C4",
                    "midi": 60,
                    "time": 762.8125,
                    "velocity": 0.4881889763779528,
                    "duration": 0.15625
                },
                {
                    "name": "C4",
                    "midi": 60,
                    "time": 762.96875,
                    "velocity": 0.4881889763779528,
                    "duration": 0.15625
                },
                {
                    "name": "D4",
                    "midi": 62,
                    "time": 763.125,
                    "velocity": 0.6929133858267716,
                    "duration": 0.3125
                },
                {
                    "name": "F3",
                    "midi": 53,
                    "time": 763.4375,
                    "velocity": 0.4881889763779528,
                    "duration": 0.15625
                },
                {
                    "name": "F3",
                    "midi": 53,
                    "time": 763.59375,
                    "velocity": 0.4881889763779528,
                    "duration": 0.15625
                },
                {
                    "name": "F3",
                    "midi": 53,
                    "time": 763.75,
                    "velocity": 0.4881889763779528,
                    "duration": 0.15625
                },
                {
                    "name": "F3",
                    "midi": 53,
                    "time": 763.90625,
                    "velocity": 0.4881889763779528,
                    "duration": 0.15625
                },
                {
                    "name": "G3",
                    "midi": 55,
                    "time": 764.0625,
                    "velocity": 0.6929133858267716,
                    "duration": 0.3125
                },
                {
                    "name": "F4",
                    "midi": 65,
                    "time": 764.375,
                    "velocity": 0.4881889763779528,
                    "duration": 0.15625
                },
                {
                    "name": "F4",
                    "midi": 65,
                    "time": 764.53125,
                    "velocity": 0.4881889763779528,
                    "duration": 0.15625
                },
                {
                    "name": "F4",
                    "midi": 65,
                    "time": 764.6875,
                    "velocity": 0.4881889763779528,
                    "duration": 0.15625
                },
                {
                    "name": "F4",
                    "midi": 65,
                    "time": 764.84375,
                    "velocity": 0.4881889763779528,
                    "duration": 0.15625
                },
                {
                    "name": "G4",
                    "midi": 67,
                    "time": 765,
                    "velocity": 0.6929133858267716,
                    "duration": 0.3125
                },
                {
                    "name": "C4",
                    "midi": 60,
                    "time": 765.3125,
                    "velocity": 0.4881889763779528,
                    "duration": 0.15625
                },
                {
                    "name": "C4",
                    "midi": 60,
                    "time": 765.46875,
                    "velocity": 0.4881889763779528,
                    "duration": 0.15625
                },
                {
                    "name": "C4",
                    "midi": 60,
                    "time": 765.625,
                    "velocity": 0.4881889763779528,
                    "duration": 0.15625
                },
                {
                    "name": "C4",
                    "midi": 60,
                    "time": 765.78125,
                    "velocity": 0.4881889763779528,
                    "duration": 0.15625
                },
                {
                    "name": "D4",
                    "midi": 62,
                    "time": 765.9375,
                    "velocity": 0.6929133858267716,
                    "duration": 0.3125
                },
                {
                    "name": "F3",
                    "midi": 53,
                    "time": 766.25,
                    "velocity": 0.4881889763779528,
                    "duration": 0.15625
                },
                {
                    "name": "F3",
                    "midi": 53,
                    "time": 766.40625,
                    "velocity": 0.4881889763779528,
                    "duration": 0.15625
                },
                {
                    "name": "F3",
                    "midi": 53,
                    "time": 766.5625,
                    "velocity": 0.4881889763779528,
                    "duration": 0.15625
                },
                {
                    "name": "F3",
                    "midi": 53,
                    "time": 766.71875,
                    "velocity": 0.4881889763779528,
                    "duration": 0.15625
                },
                {
                    "name": "G3",
                    "midi": 55,
                    "time": 766.875,
                    "velocity": 0.6929133858267716,
                    "duration": 0.3125
                },
                {
                    "name": "F4",
                    "midi": 65,
                    "time": 767.1875,
                    "velocity": 0.4881889763779528,
                    "duration": 0.15625
                },
                {
                    "name": "F4",
                    "midi": 65,
                    "time": 767.34375,
                    "velocity": 0.4881889763779528,
                    "duration": 0.15625
                },
                {
                    "name": "C3",
                    "midi": 48,
                    "time": 767.5,
                    "velocity": 0.7952755905511811,
                    "duration": 0.06119791666662877
                },
                {
                    "name": "C4",
                    "midi": 60,
                    "time": 767.5,
                    "velocity": 0.7952755905511811,
                    "duration": 0.06119791666662877
                },
                {
                    "name": "A#2",
                    "midi": 46,
                    "time": 767.8125,
                    "velocity": 0.7952755905511811,
                    "duration": 0.06119791666662877
                },
                {
                    "name": "A#3",
                    "midi": 58,
                    "time": 767.8125,
                    "velocity": 0.7952755905511811,
                    "duration": 0.06119791666662877
                },
                {
                    "name": "A2",
                    "midi": 45,
                    "time": 768.125,
                    "velocity": 0.7952755905511811,
                    "duration": 0.06119791666662877
                },
                {
                    "name": "A3",
                    "midi": 57,
                    "time": 768.125,
                    "velocity": 0.7952755905511811,
                    "duration": 0.06119791666662877
                },
                {
                    "name": "G2",
                    "midi": 43,
                    "time": 768.4375,
                    "velocity": 0.7952755905511811,
                    "duration": 0.06119791666662877
                },
                {
                    "name": "G3",
                    "midi": 55,
                    "time": 768.4375,
                    "velocity": 0.7952755905511811,
                    "duration": 0.06119791666662877
                },
                {
                    "name": "F2",
                    "midi": 41,
                    "time": 768.75,
                    "velocity": 0.7952755905511811,
                    "duration": 0.06119791666662877
                },
                {
                    "name": "F3",
                    "midi": 53,
                    "time": 768.75,
                    "velocity": 0.7952755905511811,
                    "duration": 0.06119791666662877
                },
                {
                    "name": "E2",
                    "midi": 40,
                    "time": 769.0625,
                    "velocity": 0.7952755905511811,
                    "duration": 0.06119791666662877
                },
                {
                    "name": "E3",
                    "midi": 52,
                    "time": 769.0625,
                    "velocity": 0.7952755905511811,
                    "duration": 0.06119791666662877
                },
                {
                    "name": "D2",
                    "midi": 38,
                    "time": 769.375,
                    "velocity": 0.7952755905511811,
                    "duration": 0.06119791666662877
                },
                {
                    "name": "D3",
                    "midi": 50,
                    "time": 769.375,
                    "velocity": 0.7952755905511811,
                    "duration": 0.06119791666662877
                },
                {
                    "name": "C2",
                    "midi": 36,
                    "time": 769.6875,
                    "velocity": 0.7952755905511811,
                    "duration": 0.06119791666662877
                },
                {
                    "name": "C3",
                    "midi": 48,
                    "time": 769.6875,
                    "velocity": 0.7952755905511811,
                    "duration": 0.06119791666662877
                },
                {
                    "name": "A3",
                    "midi": 57,
                    "time": 770,
                    "velocity": 0.6929133858267716,
                    "duration": 0.37369791666662877
                },
                {
                    "name": "C4",
                    "midi": 60,
                    "time": 770,
                    "velocity": 0.6929133858267716,
                    "duration": 0.37369791666662877
                },
                {
                    "name": "F4",
                    "midi": 65,
                    "time": 770,
                    "velocity": 0.6929133858267716,
                    "duration": 0.37369791666662877
                },
                {
                    "name": "A3",
                    "midi": 57,
                    "time": 771.875,
                    "velocity": 0.6929133858267716,
                    "duration": 0.625
                },
                {
                    "name": "D4",
                    "midi": 62,
                    "time": 771.875,
                    "velocity": 0.6929133858267716,
                    "duration": 0.625
                },
                {
                    "name": "F4",
                    "midi": 65,
                    "time": 771.875,
                    "velocity": 0.6929133858267716,
                    "duration": 0.625
                },
                {
                    "name": "D3",
                    "midi": 50,
                    "time": 772.5,
                    "velocity": 0.6929133858267716,
                    "duration": 1.25
                },
                {
                    "name": "F3",
                    "midi": 53,
                    "time": 772.5,
                    "velocity": 0.6929133858267716,
                    "duration": 1.25
                },
                {
                    "name": "A#3",
                    "midi": 58,
                    "time": 772.5,
                    "velocity": 0.6929133858267716,
                    "duration": 1.25
                },
                {
                    "name": "D4",
                    "midi": 62,
                    "time": 772.5,
                    "velocity": 0.6929133858267716,
                    "duration": 1.25
                },
                {
                    "name": "D3",
                    "midi": 50,
                    "time": 773.75,
                    "velocity": 0.6929133858267716,
                    "duration": 1.25
                },
                {
                    "name": "F3",
                    "midi": 53,
                    "time": 773.75,
                    "velocity": 0.6929133858267716,
                    "duration": 1.25
                },
                {
                    "name": "A#3",
                    "midi": 58,
                    "time": 773.75,
                    "velocity": 0.6929133858267716,
                    "duration": 1.25
                },
                {
                    "name": "D4",
                    "midi": 62,
                    "time": 773.75,
                    "velocity": 0.6929133858267716,
                    "duration": 1.25
                },
                {
                    "name": "E3",
                    "midi": 52,
                    "time": 775,
                    "velocity": 0.6929133858267716,
                    "duration": 5
                },
                {
                    "name": "A3",
                    "midi": 57,
                    "time": 775,
                    "velocity": 0.6929133858267716,
                    "duration": 5
                },
                {
                    "name": "C4",
                    "midi": 60,
                    "time": 775,
                    "velocity": 0.6929133858267716,
                    "duration": 5
                },
                {
                    "name": "F3",
                    "midi": 53,
                    "time": 780,
                    "velocity": 0.5905511811023622,
                    "duration": 1.25
                },
                {
                    "name": "A3",
                    "midi": 57,
                    "time": 780,
                    "velocity": 0.5905511811023622,
                    "duration": 1.25
                },
                {
                    "name": "C4",
                    "midi": 60,
                    "time": 780,
                    "velocity": 0.5905511811023622,
                    "duration": 1.25
                },
                {
                    "name": "F3",
                    "midi": 53,
                    "time": 785,
                    "velocity": 0.5905511811023622,
                    "duration": 0.15625
                },
                {
                    "name": "C4",
                    "midi": 60,
                    "time": 785,
                    "velocity": 0.5905511811023622,
                    "duration": 0.15625
                },
                {
                    "name": "F3",
                    "midi": 53,
                    "time": 785.15625,
                    "velocity": 0.5905511811023622,
                    "duration": 0.15625
                },
                {
                    "name": "C4",
                    "midi": 60,
                    "time": 785.15625,
                    "velocity": 0.5905511811023622,
                    "duration": 0.15625
                },
                {
                    "name": "G3",
                    "midi": 55,
                    "time": 785.3125,
                    "velocity": 0.7952755905511811,
                    "duration": 0.3125
                },
                {
                    "name": "D4",
                    "midi": 62,
                    "time": 785.3125,
                    "velocity": 0.7952755905511811,
                    "duration": 0.3125
                },
                {
                    "name": "C3",
                    "midi": 48,
                    "time": 785.625,
                    "velocity": 0.5905511811023622,
                    "duration": 0.15625
                },
                {
                    "name": "F3",
                    "midi": 53,
                    "time": 785.625,
                    "velocity": 0.5905511811023622,
                    "duration": 0.15625
                },
                {
                    "name": "C3",
                    "midi": 48,
                    "time": 785.78125,
                    "velocity": 0.5905511811023622,
                    "duration": 0.15625
                },
                {
                    "name": "F3",
                    "midi": 53,
                    "time": 785.78125,
                    "velocity": 0.5905511811023622,
                    "duration": 0.15625
                },
                {
                    "name": "C3",
                    "midi": 48,
                    "time": 785.9375,
                    "velocity": 0.5905511811023622,
                    "duration": 0.15625
                },
                {
                    "name": "F3",
                    "midi": 53,
                    "time": 785.9375,
                    "velocity": 0.5905511811023622,
                    "duration": 0.15625
                },
                {
                    "name": "C3",
                    "midi": 48,
                    "time": 786.09375,
                    "velocity": 0.5905511811023622,
                    "duration": 0.15625
                },
                {
                    "name": "F3",
                    "midi": 53,
                    "time": 786.09375,
                    "velocity": 0.5905511811023622,
                    "duration": 0.15625
                },
                {
                    "name": "G3",
                    "midi": 55,
                    "time": 786.25,
                    "velocity": 0.5905511811023622,
                    "duration": 0.3125
                },
                {
                    "name": "C3",
                    "midi": 48,
                    "time": 786.5625,
                    "velocity": 0.5905511811023622,
                    "duration": 0.02994791666662877
                },
                {
                    "name": "D3",
                    "midi": 50,
                    "time": 786.71875,
                    "velocity": 0.5905511811023622,
                    "duration": 0.02994791666662877
                },
                {
                    "name": "F2",
                    "midi": 41,
                    "time": 786.875,
                    "velocity": 0.5905511811023622,
                    "duration": 0.02994791666662877
                },
                {
                    "name": "G2",
                    "midi": 43,
                    "time": 787.03125,
                    "velocity": 0.5905511811023622,
                    "duration": 0.02994791666662877
                },
                {
                    "name": "C2",
                    "midi": 36,
                    "time": 787.1875,
                    "velocity": 0.5905511811023622,
                    "duration": 0.02994791666662877
                },
                {
                    "name": "D2",
                    "midi": 38,
                    "time": 787.34375,
                    "velocity": 0.5905511811023622,
                    "duration": 0.02994791666662877
                },
                {
                    "name": "F1",
                    "midi": 29,
                    "time": 787.5,
                    "velocity": 0.5905511811023622,
                    "duration": 0.625
                },
                {
                    "name": "F1",
                    "midi": 29,
                    "time": 790,
                    "velocity": 0.5905511811023622,
                    "duration": 2.1875
                },
                {
                    "name": "F2",
                    "midi": 41,
                    "time": 790,
                    "velocity": 0.5905511811023622,
                    "duration": 2.1875
                },
                {
                    "name": "D#4",
                    "midi": 63,
                    "time": 790,
                    "velocity": 0.5905511811023622,
                    "duration": 1.25
                },
                {
                    "name": "E4",
                    "midi": 64,
                    "time": 792.1875,
                    "velocity": 0.4881889763779528,
                    "duration": 0.3125
                },
                {
                    "name": "F1",
                    "midi": 29,
                    "time": 792.5,
                    "velocity": 0.5905511811023622,
                    "duration": 2.5
                },
                {
                    "name": "F2",
                    "midi": 41,
                    "time": 792.5,
                    "velocity": 0.5905511811023622,
                    "duration": 2.5
                },
                {
                    "name": "F1",
                    "midi": 29,
                    "time": 795,
                    "velocity": 0.8976377952755905,
                    "duration": 0.625
                },
                {
                    "name": "F2",
                    "midi": 41,
                    "time": 795,
                    "velocity": 0.8976377952755905,
                    "duration": 0.625
                }
            ],
            "controlChanges": {
                "7": [
                    {
                        "number": 7,
                        "time": 0,
                        "value": 1
                    }
                ],
                "10": [
                    {
                        "number": 10,
                        "time": 0,
                        "value": 0.23622047244094488
                    }
                ],
                "64": [
                    {
                        "number": 64,
                        "time": 30,
                        "value": 1
                    },
                    {
                        "number": 64,
                        "time": 31.25,
                        "value": 0
                    },
                    {
                        "number": 64,
                        "time": 50.3125,
                        "value": 1
                    },
                    {
                        "number": 64,
                        "time": 50.9375,
                        "value": 0
                    },
                    {
                        "number": 64,
                        "time": 51.09375,
                        "value": 1
                    },
                    {
                        "number": 64,
                        "time": 52.1875,
                        "value": 0
                    },
                    {
                        "number": 64,
                        "time": 52.5,
                        "value": 1
                    },
                    {
                        "number": 64,
                        "time": 70,
                        "value": 1
                    },
                    {
                        "number": 64,
                        "time": 71.875,
                        "value": 0
                    },
                    {
                        "number": 64,
                        "time": 120,
                        "value": 1
                    },
                    {
                        "number": 64,
                        "time": 120.9375,
                        "value": 0
                    },
                    {
                        "number": 64,
                        "time": 218.75,
                        "value": 1
                    },
                    {
                        "number": 64,
                        "time": 219.6875,
                        "value": 0
                    },
                    {
                        "number": 64,
                        "time": 280,
                        "value": 1
                    },
                    {
                        "number": 64,
                        "time": 281.875,
                        "value": 0
                    },
                    {
                        "number": 64,
                        "time": 282.5,
                        "value": 1
                    },
                    {
                        "number": 64,
                        "time": 283.125,
                        "value": 0
                    },
                    {
                        "number": 64,
                        "time": 513.75,
                        "value": 1
                    },
                    {
                        "number": 64,
                        "time": 514.375,
                        "value": 0
                    },
                    {
                        "number": 64,
                        "time": 521.25,
                        "value": 1
                    },
                    {
                        "number": 64,
                        "time": 521.875,
                        "value": 0
                    },
                    {
                        "number": 64,
                        "time": 523.75,
                        "value": 1
                    },
                    {
                        "number": 64,
                        "time": 524.21875,
                        "value": 0
                    },
                    {
                        "number": 64,
                        "time": 525,
                        "value": 1
                    },
                    {
                        "number": 64,
                        "time": 525.46875,
                        "value": 0
                    },
                    {
                        "number": 64,
                        "time": 555,
                        "value": 1
                    },
                    {
                        "number": 64,
                        "time": 561.875,
                        "value": 0
                    },
                    {
                        "number": 64,
                        "time": 651.25,
                        "value": 1
                    },
                    {
                        "number": 64,
                        "time": 654.375,
                        "value": 0
                    },
                    {
                        "number": 64,
                        "time": 780,
                        "value": 1
                    },
                    {
                        "number": 64,
                        "time": 783.125,
                        "value": 0
                    }
                ]
            },
            "id": 4,
            "name": "Instrument19",
            "instrumentNumber": 0,
            "instrument": "acoustic grand piano",
            "instrumentFamily": "piano",
            "channelNumber": 3,
            "isPercussion": false
        },
        {
            "startTime": 0,
            "duration": 0,
            "length": 0,
            "notes": [],
            "controlChanges": {},
            "id": 5
        }
    ]
}